M48
;DRILL file {KiCad 4.0.2+dfsg1-stable} date Do 23 Aug 2018 15:09:38 CEST
;FORMAT={-:-/ absolute / metric / decimal}
FMAT,2
METRIC,TZ
T1C0.400
T2C0.800
T3C1.016
%
G90
G05
M71
T1
X115.062Y-70.866
X120.65Y-70.866
X124.841Y-66.802
T2
X106.68Y-67.9
X106.68Y-69.9
X106.68Y-71.9
X106.68Y-73.9
X106.68Y-75.9
X106.68Y-77.9
X106.68Y-79.9
X106.68Y-81.9
X106.68Y-83.9
X108.68Y-67.9
X108.68Y-69.9
X108.68Y-71.9
X108.68Y-73.9
X108.68Y-75.9
X108.68Y-77.9
X108.68Y-79.9
X108.68Y-81.9
X108.68Y-83.9
X126.68Y-67.9
X126.68Y-69.9
X126.68Y-71.9
X126.68Y-73.9
X126.68Y-75.9
X126.68Y-77.9
X126.68Y-79.9
X126.68Y-81.9
X126.68Y-83.9
X128.68Y-67.9
X128.68Y-69.9
X128.68Y-71.9
X128.68Y-73.9
X128.68Y-75.9
X128.68Y-77.9
X128.68Y-79.9
X128.68Y-81.9
X128.68Y-83.9
T3
X111.76Y-96.52
X111.76Y-99.06
X111.76Y-101.6
X111.76Y-104.14
X111.76Y-106.68
X111.76Y-109.22
X111.76Y-111.76
X111.76Y-114.3
X111.76Y-116.84
X111.76Y-119.38
X111.76Y-121.92
X111.76Y-124.46
X111.76Y-127.
X111.76Y-129.54
X111.76Y-132.08
X111.76Y-134.62
X111.76Y-137.16
X111.76Y-139.7
X124.46Y-96.52
X124.46Y-99.06
X124.46Y-101.6
X124.46Y-104.14
X124.46Y-106.68
X124.46Y-109.22
X124.46Y-111.76
X124.46Y-114.3
X124.46Y-116.84
X124.46Y-119.38
X124.46Y-121.92
X124.46Y-124.46
X124.46Y-127.
X124.46Y-129.54
X124.46Y-132.08
X124.46Y-134.62
X124.46Y-137.16
X124.46Y-139.7
T0
M30
