G04 #@! TF.FileFunction,Copper,L1,Top,Signal*
%FSLAX46Y46*%
G04 Gerber Fmt 4.6, Leading zero omitted, Abs format (unit mm)*
G04 Created by KiCad (PCBNEW 4.0.2+dfsg1-stable) date Do 23 Aug 2018 15:09:30 CEST*
%MOMM*%
G01*
G04 APERTURE LIST*
%ADD10C,0.100000*%
%ADD11R,1.350000X1.350000*%
%ADD12O,1.350000X1.350000*%
%ADD13R,2.032000X1.727200*%
%ADD14O,2.032000X1.727200*%
%ADD15C,0.600000*%
%ADD16C,0.250000*%
%ADD17C,0.254000*%
G04 APERTURE END LIST*
D10*
X135636000Y-88392000D02*
X135636000Y-65532000D01*
X111681336Y-66656857D02*
X111681336Y-66990190D01*
X111681336Y-66704476D02*
X111705145Y-66680667D01*
X111752764Y-66656857D01*
X111824193Y-66656857D01*
X111871812Y-66680667D01*
X111895621Y-66728286D01*
X111895621Y-66990190D01*
X112419431Y-66990190D02*
X112252764Y-66752095D01*
X112133717Y-66990190D02*
X112133717Y-66490190D01*
X112324193Y-66490190D01*
X112371812Y-66514000D01*
X112395621Y-66537810D01*
X112419431Y-66585429D01*
X112419431Y-66656857D01*
X112395621Y-66704476D01*
X112371812Y-66728286D01*
X112324193Y-66752095D01*
X112133717Y-66752095D01*
X112800383Y-66728286D02*
X112633717Y-66728286D01*
X112633717Y-66990190D02*
X112633717Y-66490190D01*
X112871812Y-66490190D01*
X113300383Y-66490190D02*
X113062288Y-66490190D01*
X113038478Y-66728286D01*
X113062288Y-66704476D01*
X113109907Y-66680667D01*
X113228954Y-66680667D01*
X113276573Y-66704476D01*
X113300383Y-66728286D01*
X113324192Y-66775905D01*
X113324192Y-66894952D01*
X113300383Y-66942571D01*
X113276573Y-66966381D01*
X113228954Y-66990190D01*
X113109907Y-66990190D01*
X113062288Y-66966381D01*
X113038478Y-66942571D01*
X113800382Y-66990190D02*
X113514668Y-66990190D01*
X113657525Y-66990190D02*
X113657525Y-66490190D01*
X113609906Y-66561619D01*
X113562287Y-66609238D01*
X113514668Y-66633048D01*
X114086096Y-66704476D02*
X114038477Y-66680667D01*
X114014668Y-66656857D01*
X113990858Y-66609238D01*
X113990858Y-66585429D01*
X114014668Y-66537810D01*
X114038477Y-66514000D01*
X114086096Y-66490190D01*
X114181334Y-66490190D01*
X114228953Y-66514000D01*
X114252763Y-66537810D01*
X114276572Y-66585429D01*
X114276572Y-66609238D01*
X114252763Y-66656857D01*
X114228953Y-66680667D01*
X114181334Y-66704476D01*
X114086096Y-66704476D01*
X114038477Y-66728286D01*
X114014668Y-66752095D01*
X113990858Y-66799714D01*
X113990858Y-66894952D01*
X114014668Y-66942571D01*
X114038477Y-66966381D01*
X114086096Y-66990190D01*
X114181334Y-66990190D01*
X114228953Y-66966381D01*
X114252763Y-66942571D01*
X114276572Y-66894952D01*
X114276572Y-66799714D01*
X114252763Y-66752095D01*
X114228953Y-66728286D01*
X114181334Y-66704476D01*
X114467048Y-66537810D02*
X114490858Y-66514000D01*
X114538477Y-66490190D01*
X114657524Y-66490190D01*
X114705143Y-66514000D01*
X114728953Y-66537810D01*
X114752762Y-66585429D01*
X114752762Y-66633048D01*
X114728953Y-66704476D01*
X114443239Y-66990190D01*
X114752762Y-66990190D01*
X114943238Y-66537810D02*
X114967048Y-66514000D01*
X115014667Y-66490190D01*
X115133714Y-66490190D01*
X115181333Y-66514000D01*
X115205143Y-66537810D01*
X115228952Y-66585429D01*
X115228952Y-66633048D01*
X115205143Y-66704476D01*
X114919429Y-66990190D01*
X115228952Y-66990190D01*
X115824190Y-66990190D02*
X115824190Y-66490190D01*
X115824190Y-66680667D02*
X115871809Y-66656857D01*
X115967047Y-66656857D01*
X116014666Y-66680667D01*
X116038475Y-66704476D01*
X116062285Y-66752095D01*
X116062285Y-66894952D01*
X116038475Y-66942571D01*
X116014666Y-66966381D01*
X115967047Y-66990190D01*
X115871809Y-66990190D01*
X115824190Y-66966381D01*
X116276571Y-66990190D02*
X116276571Y-66656857D01*
X116276571Y-66752095D02*
X116300380Y-66704476D01*
X116324190Y-66680667D01*
X116371809Y-66656857D01*
X116419428Y-66656857D01*
X116776571Y-66966381D02*
X116728952Y-66990190D01*
X116633714Y-66990190D01*
X116586095Y-66966381D01*
X116562285Y-66918762D01*
X116562285Y-66728286D01*
X116586095Y-66680667D01*
X116633714Y-66656857D01*
X116728952Y-66656857D01*
X116776571Y-66680667D01*
X116800380Y-66728286D01*
X116800380Y-66775905D01*
X116562285Y-66823524D01*
X117228951Y-66990190D02*
X117228951Y-66728286D01*
X117205142Y-66680667D01*
X117157523Y-66656857D01*
X117062285Y-66656857D01*
X117014666Y-66680667D01*
X117228951Y-66966381D02*
X117181332Y-66990190D01*
X117062285Y-66990190D01*
X117014666Y-66966381D01*
X116990856Y-66918762D01*
X116990856Y-66871143D01*
X117014666Y-66823524D01*
X117062285Y-66799714D01*
X117181332Y-66799714D01*
X117228951Y-66775905D01*
X117681332Y-66990190D02*
X117681332Y-66490190D01*
X117681332Y-66966381D02*
X117633713Y-66990190D01*
X117538475Y-66990190D01*
X117490856Y-66966381D01*
X117467047Y-66942571D01*
X117443237Y-66894952D01*
X117443237Y-66752095D01*
X117467047Y-66704476D01*
X117490856Y-66680667D01*
X117538475Y-66656857D01*
X117633713Y-66656857D01*
X117681332Y-66680667D01*
X117919428Y-66990190D02*
X117919428Y-66490190D01*
X117919428Y-66680667D02*
X117967047Y-66656857D01*
X118062285Y-66656857D01*
X118109904Y-66680667D01*
X118133713Y-66704476D01*
X118157523Y-66752095D01*
X118157523Y-66894952D01*
X118133713Y-66942571D01*
X118109904Y-66966381D01*
X118062285Y-66990190D01*
X117967047Y-66990190D01*
X117919428Y-66966381D01*
X118443237Y-66990190D02*
X118395618Y-66966381D01*
X118371809Y-66942571D01*
X118347999Y-66894952D01*
X118347999Y-66752095D01*
X118371809Y-66704476D01*
X118395618Y-66680667D01*
X118443237Y-66656857D01*
X118514666Y-66656857D01*
X118562285Y-66680667D01*
X118586094Y-66704476D01*
X118609904Y-66752095D01*
X118609904Y-66894952D01*
X118586094Y-66942571D01*
X118562285Y-66966381D01*
X118514666Y-66990190D01*
X118443237Y-66990190D01*
X119038475Y-66990190D02*
X119038475Y-66728286D01*
X119014666Y-66680667D01*
X118967047Y-66656857D01*
X118871809Y-66656857D01*
X118824190Y-66680667D01*
X119038475Y-66966381D02*
X118990856Y-66990190D01*
X118871809Y-66990190D01*
X118824190Y-66966381D01*
X118800380Y-66918762D01*
X118800380Y-66871143D01*
X118824190Y-66823524D01*
X118871809Y-66799714D01*
X118990856Y-66799714D01*
X119038475Y-66775905D01*
X119276571Y-66990190D02*
X119276571Y-66656857D01*
X119276571Y-66752095D02*
X119300380Y-66704476D01*
X119324190Y-66680667D01*
X119371809Y-66656857D01*
X119419428Y-66656857D01*
X119800380Y-66990190D02*
X119800380Y-66490190D01*
X119800380Y-66966381D02*
X119752761Y-66990190D01*
X119657523Y-66990190D01*
X119609904Y-66966381D01*
X119586095Y-66942571D01*
X119562285Y-66894952D01*
X119562285Y-66752095D01*
X119586095Y-66704476D01*
X119609904Y-66680667D01*
X119657523Y-66656857D01*
X119752761Y-66656857D01*
X119800380Y-66680667D01*
X120633713Y-66990190D02*
X120633713Y-66728286D01*
X120609904Y-66680667D01*
X120562285Y-66656857D01*
X120467047Y-66656857D01*
X120419428Y-66680667D01*
X120633713Y-66966381D02*
X120586094Y-66990190D01*
X120467047Y-66990190D01*
X120419428Y-66966381D01*
X120395618Y-66918762D01*
X120395618Y-66871143D01*
X120419428Y-66823524D01*
X120467047Y-66799714D01*
X120586094Y-66799714D01*
X120633713Y-66775905D01*
X121086094Y-66990190D02*
X121086094Y-66490190D01*
X121086094Y-66966381D02*
X121038475Y-66990190D01*
X120943237Y-66990190D01*
X120895618Y-66966381D01*
X120871809Y-66942571D01*
X120847999Y-66894952D01*
X120847999Y-66752095D01*
X120871809Y-66704476D01*
X120895618Y-66680667D01*
X120943237Y-66656857D01*
X121038475Y-66656857D01*
X121086094Y-66680667D01*
X121538475Y-66990190D02*
X121538475Y-66728286D01*
X121514666Y-66680667D01*
X121467047Y-66656857D01*
X121371809Y-66656857D01*
X121324190Y-66680667D01*
X121538475Y-66966381D02*
X121490856Y-66990190D01*
X121371809Y-66990190D01*
X121324190Y-66966381D01*
X121300380Y-66918762D01*
X121300380Y-66871143D01*
X121324190Y-66823524D01*
X121371809Y-66799714D01*
X121490856Y-66799714D01*
X121538475Y-66775905D01*
X121776571Y-66656857D02*
X121776571Y-67156857D01*
X121776571Y-66680667D02*
X121824190Y-66656857D01*
X121919428Y-66656857D01*
X121967047Y-66680667D01*
X121990856Y-66704476D01*
X122014666Y-66752095D01*
X122014666Y-66894952D01*
X121990856Y-66942571D01*
X121967047Y-66966381D01*
X121919428Y-66990190D01*
X121824190Y-66990190D01*
X121776571Y-66966381D01*
X122157523Y-66656857D02*
X122347999Y-66656857D01*
X122228952Y-66490190D02*
X122228952Y-66918762D01*
X122252761Y-66966381D01*
X122300380Y-66990190D01*
X122347999Y-66990190D01*
X122705142Y-66966381D02*
X122657523Y-66990190D01*
X122562285Y-66990190D01*
X122514666Y-66966381D01*
X122490856Y-66918762D01*
X122490856Y-66728286D01*
X122514666Y-66680667D01*
X122562285Y-66656857D01*
X122657523Y-66656857D01*
X122705142Y-66680667D01*
X122728951Y-66728286D01*
X122728951Y-66775905D01*
X122490856Y-66823524D01*
X122943237Y-66990190D02*
X122943237Y-66656857D01*
X122943237Y-66752095D02*
X122967046Y-66704476D01*
X122990856Y-66680667D01*
X123038475Y-66656857D01*
X123086094Y-66656857D01*
X115062288Y-67290190D02*
X115228955Y-67790190D01*
X115395621Y-67290190D01*
X115824192Y-67790190D02*
X115538478Y-67790190D01*
X115681335Y-67790190D02*
X115681335Y-67290190D01*
X115633716Y-67361619D01*
X115586097Y-67409238D01*
X115538478Y-67433048D01*
X116514668Y-67290190D02*
X116562287Y-67290190D01*
X116609906Y-67314000D01*
X116633715Y-67337810D01*
X116657525Y-67385429D01*
X116681334Y-67480667D01*
X116681334Y-67599714D01*
X116657525Y-67694952D01*
X116633715Y-67742571D01*
X116609906Y-67766381D01*
X116562287Y-67790190D01*
X116514668Y-67790190D01*
X116467049Y-67766381D01*
X116443239Y-67742571D01*
X116419430Y-67694952D01*
X116395620Y-67599714D01*
X116395620Y-67480667D01*
X116419430Y-67385429D01*
X116443239Y-67337810D01*
X116467049Y-67314000D01*
X116514668Y-67290190D01*
X116967048Y-67504476D02*
X116919429Y-67480667D01*
X116895620Y-67456857D01*
X116871810Y-67409238D01*
X116871810Y-67385429D01*
X116895620Y-67337810D01*
X116919429Y-67314000D01*
X116967048Y-67290190D01*
X117062286Y-67290190D01*
X117109905Y-67314000D01*
X117133715Y-67337810D01*
X117157524Y-67385429D01*
X117157524Y-67409238D01*
X117133715Y-67456857D01*
X117109905Y-67480667D01*
X117062286Y-67504476D01*
X116967048Y-67504476D01*
X116919429Y-67528286D01*
X116895620Y-67552095D01*
X116871810Y-67599714D01*
X116871810Y-67694952D01*
X116895620Y-67742571D01*
X116919429Y-67766381D01*
X116967048Y-67790190D01*
X117062286Y-67790190D01*
X117109905Y-67766381D01*
X117133715Y-67742571D01*
X117157524Y-67694952D01*
X117157524Y-67599714D01*
X117133715Y-67552095D01*
X117109905Y-67528286D01*
X117062286Y-67504476D01*
X117728952Y-67266381D02*
X117300381Y-67909238D01*
X117871810Y-67337810D02*
X117895620Y-67314000D01*
X117943239Y-67290190D01*
X118062286Y-67290190D01*
X118109905Y-67314000D01*
X118133715Y-67337810D01*
X118157524Y-67385429D01*
X118157524Y-67433048D01*
X118133715Y-67504476D01*
X117848001Y-67790190D01*
X118157524Y-67790190D01*
X118467048Y-67290190D02*
X118514667Y-67290190D01*
X118562286Y-67314000D01*
X118586095Y-67337810D01*
X118609905Y-67385429D01*
X118633714Y-67480667D01*
X118633714Y-67599714D01*
X118609905Y-67694952D01*
X118586095Y-67742571D01*
X118562286Y-67766381D01*
X118514667Y-67790190D01*
X118467048Y-67790190D01*
X118419429Y-67766381D01*
X118395619Y-67742571D01*
X118371810Y-67694952D01*
X118348000Y-67599714D01*
X118348000Y-67480667D01*
X118371810Y-67385429D01*
X118395619Y-67337810D01*
X118419429Y-67314000D01*
X118467048Y-67290190D01*
X119109904Y-67790190D02*
X118824190Y-67790190D01*
X118967047Y-67790190D02*
X118967047Y-67290190D01*
X118919428Y-67361619D01*
X118871809Y-67409238D01*
X118824190Y-67433048D01*
X119395618Y-67504476D02*
X119347999Y-67480667D01*
X119324190Y-67456857D01*
X119300380Y-67409238D01*
X119300380Y-67385429D01*
X119324190Y-67337810D01*
X119347999Y-67314000D01*
X119395618Y-67290190D01*
X119490856Y-67290190D01*
X119538475Y-67314000D01*
X119562285Y-67337810D01*
X119586094Y-67385429D01*
X119586094Y-67409238D01*
X119562285Y-67456857D01*
X119538475Y-67480667D01*
X119490856Y-67504476D01*
X119395618Y-67504476D01*
X119347999Y-67528286D01*
X119324190Y-67552095D01*
X119300380Y-67599714D01*
X119300380Y-67694952D01*
X119324190Y-67742571D01*
X119347999Y-67766381D01*
X119395618Y-67790190D01*
X119490856Y-67790190D01*
X119538475Y-67766381D01*
X119562285Y-67742571D01*
X119586094Y-67694952D01*
X119586094Y-67599714D01*
X119562285Y-67552095D01*
X119538475Y-67528286D01*
X119490856Y-67504476D01*
X113669430Y-68590190D02*
X113669430Y-68090190D01*
X113669430Y-68280667D02*
X113717049Y-68256857D01*
X113812287Y-68256857D01*
X113859906Y-68280667D01*
X113883715Y-68304476D01*
X113907525Y-68352095D01*
X113907525Y-68494952D01*
X113883715Y-68542571D01*
X113859906Y-68566381D01*
X113812287Y-68590190D01*
X113717049Y-68590190D01*
X113669430Y-68566381D01*
X114074192Y-68256857D02*
X114193239Y-68590190D01*
X114312287Y-68256857D02*
X114193239Y-68590190D01*
X114145620Y-68709238D01*
X114121811Y-68733048D01*
X114074192Y-68756857D01*
X114859905Y-68566381D02*
X114931334Y-68590190D01*
X115050381Y-68590190D01*
X115098000Y-68566381D01*
X115121810Y-68542571D01*
X115145619Y-68494952D01*
X115145619Y-68447333D01*
X115121810Y-68399714D01*
X115098000Y-68375905D01*
X115050381Y-68352095D01*
X114955143Y-68328286D01*
X114907524Y-68304476D01*
X114883715Y-68280667D01*
X114859905Y-68233048D01*
X114859905Y-68185429D01*
X114883715Y-68137810D01*
X114907524Y-68114000D01*
X114955143Y-68090190D01*
X115074191Y-68090190D01*
X115145619Y-68114000D01*
X115574190Y-68590190D02*
X115574190Y-68328286D01*
X115550381Y-68280667D01*
X115502762Y-68256857D01*
X115407524Y-68256857D01*
X115359905Y-68280667D01*
X115574190Y-68566381D02*
X115526571Y-68590190D01*
X115407524Y-68590190D01*
X115359905Y-68566381D01*
X115336095Y-68518762D01*
X115336095Y-68471143D01*
X115359905Y-68423524D01*
X115407524Y-68399714D01*
X115526571Y-68399714D01*
X115574190Y-68375905D01*
X115812286Y-68590190D02*
X115812286Y-68256857D01*
X115812286Y-68304476D02*
X115836095Y-68280667D01*
X115883714Y-68256857D01*
X115955143Y-68256857D01*
X116002762Y-68280667D01*
X116026571Y-68328286D01*
X116026571Y-68590190D01*
X116026571Y-68328286D02*
X116050381Y-68280667D01*
X116098000Y-68256857D01*
X116169428Y-68256857D01*
X116217048Y-68280667D01*
X116240857Y-68328286D01*
X116240857Y-68590190D01*
X116455143Y-68566381D02*
X116502762Y-68590190D01*
X116598000Y-68590190D01*
X116645619Y-68566381D01*
X116669429Y-68518762D01*
X116669429Y-68494952D01*
X116645619Y-68447333D01*
X116598000Y-68423524D01*
X116526572Y-68423524D01*
X116478953Y-68399714D01*
X116455143Y-68352095D01*
X116455143Y-68328286D01*
X116478953Y-68280667D01*
X116526572Y-68256857D01*
X116598000Y-68256857D01*
X116645619Y-68280667D01*
X116812286Y-68256857D02*
X117002762Y-68256857D01*
X116883715Y-68090190D02*
X116883715Y-68518762D01*
X116907524Y-68566381D01*
X116955143Y-68590190D01*
X117002762Y-68590190D01*
X117383714Y-68590190D02*
X117383714Y-68328286D01*
X117359905Y-68280667D01*
X117312286Y-68256857D01*
X117217048Y-68256857D01*
X117169429Y-68280667D01*
X117383714Y-68566381D02*
X117336095Y-68590190D01*
X117217048Y-68590190D01*
X117169429Y-68566381D01*
X117145619Y-68518762D01*
X117145619Y-68471143D01*
X117169429Y-68423524D01*
X117217048Y-68399714D01*
X117336095Y-68399714D01*
X117383714Y-68375905D01*
X117836095Y-68256857D02*
X117836095Y-68661619D01*
X117812286Y-68709238D01*
X117788476Y-68733048D01*
X117740857Y-68756857D01*
X117669429Y-68756857D01*
X117621810Y-68733048D01*
X117836095Y-68566381D02*
X117788476Y-68590190D01*
X117693238Y-68590190D01*
X117645619Y-68566381D01*
X117621810Y-68542571D01*
X117598000Y-68494952D01*
X117598000Y-68352095D01*
X117621810Y-68304476D01*
X117645619Y-68280667D01*
X117693238Y-68256857D01*
X117788476Y-68256857D01*
X117836095Y-68280667D01*
X118050381Y-68566381D02*
X118098000Y-68590190D01*
X118193238Y-68590190D01*
X118240857Y-68566381D01*
X118264667Y-68518762D01*
X118264667Y-68494952D01*
X118240857Y-68447333D01*
X118193238Y-68423524D01*
X118121810Y-68423524D01*
X118074191Y-68399714D01*
X118050381Y-68352095D01*
X118050381Y-68328286D01*
X118074191Y-68280667D01*
X118121810Y-68256857D01*
X118193238Y-68256857D01*
X118240857Y-68280667D01*
X118455143Y-68566381D02*
X118502762Y-68590190D01*
X118598000Y-68590190D01*
X118645619Y-68566381D01*
X118669429Y-68518762D01*
X118669429Y-68494952D01*
X118645619Y-68447333D01*
X118598000Y-68423524D01*
X118526572Y-68423524D01*
X118478953Y-68399714D01*
X118455143Y-68352095D01*
X118455143Y-68328286D01*
X118478953Y-68280667D01*
X118526572Y-68256857D01*
X118598000Y-68256857D01*
X118645619Y-68280667D01*
X119074191Y-68566381D02*
X119026572Y-68590190D01*
X118931334Y-68590190D01*
X118883715Y-68566381D01*
X118859905Y-68518762D01*
X118859905Y-68328286D01*
X118883715Y-68280667D01*
X118931334Y-68256857D01*
X119026572Y-68256857D01*
X119074191Y-68280667D01*
X119098000Y-68328286D01*
X119098000Y-68375905D01*
X118859905Y-68423524D01*
X119288476Y-68566381D02*
X119336095Y-68590190D01*
X119431333Y-68590190D01*
X119478952Y-68566381D01*
X119502762Y-68518762D01*
X119502762Y-68494952D01*
X119478952Y-68447333D01*
X119431333Y-68423524D01*
X119359905Y-68423524D01*
X119312286Y-68399714D01*
X119288476Y-68352095D01*
X119288476Y-68328286D01*
X119312286Y-68280667D01*
X119359905Y-68256857D01*
X119431333Y-68256857D01*
X119478952Y-68280667D01*
X119693238Y-68566381D02*
X119740857Y-68590190D01*
X119836095Y-68590190D01*
X119883714Y-68566381D01*
X119907524Y-68518762D01*
X119907524Y-68494952D01*
X119883714Y-68447333D01*
X119836095Y-68423524D01*
X119764667Y-68423524D01*
X119717048Y-68399714D01*
X119693238Y-68352095D01*
X119693238Y-68328286D01*
X119717048Y-68280667D01*
X119764667Y-68256857D01*
X119836095Y-68256857D01*
X119883714Y-68280667D01*
X120121810Y-68590190D02*
X120121810Y-68256857D01*
X120121810Y-68090190D02*
X120098000Y-68114000D01*
X120121810Y-68137810D01*
X120145619Y-68114000D01*
X120121810Y-68090190D01*
X120121810Y-68137810D01*
X120431333Y-68590190D02*
X120383714Y-68566381D01*
X120359905Y-68542571D01*
X120336095Y-68494952D01*
X120336095Y-68352095D01*
X120359905Y-68304476D01*
X120383714Y-68280667D01*
X120431333Y-68256857D01*
X120502762Y-68256857D01*
X120550381Y-68280667D01*
X120574190Y-68304476D01*
X120598000Y-68352095D01*
X120598000Y-68494952D01*
X120574190Y-68542571D01*
X120550381Y-68566381D01*
X120502762Y-68590190D01*
X120431333Y-68590190D01*
X120812286Y-68256857D02*
X120812286Y-68590190D01*
X120812286Y-68304476D02*
X120836095Y-68280667D01*
X120883714Y-68256857D01*
X120955143Y-68256857D01*
X121002762Y-68280667D01*
X121026571Y-68328286D01*
X121026571Y-68590190D01*
X125730000Y-91440000D02*
X132588000Y-91440000D01*
X103124000Y-91440000D02*
X110490000Y-91440000D01*
X100076000Y-88392000D02*
X103124000Y-91440000D01*
X110490000Y-142240000D02*
X125730000Y-142240000D01*
X125730000Y-91440000D02*
X125730000Y-142240000D01*
X132588000Y-91440000D02*
X135636000Y-88392000D01*
X110490000Y-91440000D02*
X110490000Y-142240000D01*
X100076000Y-65532000D02*
X100076000Y-88392000D01*
X135636000Y-65532000D02*
X100076000Y-65532000D01*
D11*
X108680000Y-83900000D03*
D12*
X106680000Y-83900000D03*
X108680000Y-81900000D03*
X106680000Y-81900000D03*
X108680000Y-79900000D03*
X106680000Y-79900000D03*
X108680000Y-77900000D03*
X106680000Y-77900000D03*
X108680000Y-75900000D03*
X106680000Y-75900000D03*
X108680000Y-73900000D03*
X106680000Y-73900000D03*
X108680000Y-71900000D03*
X106680000Y-71900000D03*
X108680000Y-69900000D03*
X106680000Y-69900000D03*
X108680000Y-67900000D03*
X106680000Y-67900000D03*
D11*
X128680000Y-83900000D03*
D12*
X126680000Y-83900000D03*
X128680000Y-81900000D03*
X126680000Y-81900000D03*
X128680000Y-79900000D03*
X126680000Y-79900000D03*
X128680000Y-77900000D03*
X126680000Y-77900000D03*
X128680000Y-75900000D03*
X126680000Y-75900000D03*
X128680000Y-73900000D03*
X126680000Y-73900000D03*
X128680000Y-71900000D03*
X126680000Y-71900000D03*
X128680000Y-69900000D03*
X126680000Y-69900000D03*
X128680000Y-67900000D03*
X126680000Y-67900000D03*
D13*
X111760000Y-96520000D03*
D14*
X111760000Y-99060000D03*
X111760000Y-101600000D03*
X111760000Y-104140000D03*
X111760000Y-106680000D03*
X111760000Y-109220000D03*
X111760000Y-111760000D03*
X111760000Y-114300000D03*
X111760000Y-116840000D03*
X111760000Y-119380000D03*
X111760000Y-121920000D03*
X111760000Y-124460000D03*
X111760000Y-127000000D03*
X111760000Y-129540000D03*
X111760000Y-132080000D03*
X111760000Y-134620000D03*
X111760000Y-137160000D03*
X111760000Y-139700000D03*
D13*
X124460000Y-96520000D03*
D14*
X124460000Y-99060000D03*
X124460000Y-101600000D03*
X124460000Y-104140000D03*
X124460000Y-106680000D03*
X124460000Y-109220000D03*
X124460000Y-111760000D03*
X124460000Y-114300000D03*
X124460000Y-116840000D03*
X124460000Y-119380000D03*
X124460000Y-121920000D03*
X124460000Y-124460000D03*
X124460000Y-127000000D03*
X124460000Y-129540000D03*
X124460000Y-132080000D03*
X124460000Y-134620000D03*
X124460000Y-137160000D03*
X124460000Y-139700000D03*
D15*
X120650000Y-70866000D03*
X115062000Y-70866000D03*
X124841000Y-66802000D03*
D16*
X111760000Y-139700000D02*
X113284000Y-139700000D01*
X117856000Y-135128000D02*
X113284000Y-139700000D01*
X106680000Y-85344000D02*
X107188000Y-85852000D01*
X107188000Y-85852000D02*
X113792000Y-85852000D01*
X113792000Y-85852000D02*
X117856000Y-89916000D01*
X117856000Y-89916000D02*
X117856000Y-135128000D01*
X106680000Y-85344000D02*
X106680000Y-83900000D01*
X106680000Y-81900000D02*
X105044000Y-81900000D01*
X113284000Y-134620000D02*
X111760000Y-134620000D01*
X117348000Y-130556000D02*
X113284000Y-134620000D01*
X117348000Y-90424000D02*
X117348000Y-130556000D01*
X113284000Y-86360000D02*
X117348000Y-90424000D01*
X106172000Y-86360000D02*
X113284000Y-86360000D01*
X104648000Y-84836000D02*
X106172000Y-86360000D01*
X104648000Y-82296000D02*
X104648000Y-84836000D01*
X105044000Y-81900000D02*
X104648000Y-82296000D01*
X106680000Y-79900000D02*
X105012000Y-79900000D01*
X113284000Y-129540000D02*
X111760000Y-129540000D01*
X116840000Y-125984000D02*
X113284000Y-129540000D01*
X116840000Y-90932000D02*
X116840000Y-125984000D01*
X112776000Y-86868000D02*
X116840000Y-90932000D01*
X105664000Y-86868000D02*
X112776000Y-86868000D01*
X104140000Y-85344000D02*
X105664000Y-86868000D01*
X104140000Y-80772000D02*
X104140000Y-85344000D01*
X105012000Y-79900000D02*
X104140000Y-80772000D01*
X124460000Y-70866000D02*
X124460000Y-67183000D01*
X120650000Y-70866000D02*
X124460000Y-70866000D01*
X106680000Y-67945000D02*
X107950000Y-66675000D01*
X107950000Y-66675000D02*
X109982000Y-66675000D01*
X109982000Y-66675000D02*
X110363000Y-67056000D01*
X110363000Y-67056000D02*
X110363000Y-68707000D01*
X110363000Y-68707000D02*
X112522000Y-70866000D01*
X112522000Y-70866000D02*
X115062000Y-70866000D01*
X124460000Y-67183000D02*
X124841000Y-66802000D01*
X106680000Y-67900000D02*
X106680000Y-67945000D01*
X106680000Y-67900000D02*
X104820000Y-67900000D01*
X113284000Y-99060000D02*
X111760000Y-99060000D01*
X113792000Y-98552000D02*
X113284000Y-99060000D01*
X113792000Y-93472000D02*
X113792000Y-98552000D01*
X110236000Y-89916000D02*
X113792000Y-93472000D01*
X103124000Y-89916000D02*
X110236000Y-89916000D01*
X101092000Y-87884000D02*
X103124000Y-89916000D01*
X101092000Y-71628000D02*
X101092000Y-87884000D01*
X104820000Y-67900000D02*
X101092000Y-71628000D01*
X106680000Y-77900000D02*
X104980000Y-77900000D01*
X113284000Y-124460000D02*
X111760000Y-124460000D01*
X116332000Y-121412000D02*
X113284000Y-124460000D01*
X116332000Y-91440000D02*
X116332000Y-121412000D01*
X112268000Y-87376000D02*
X116332000Y-91440000D01*
X105156000Y-87376000D02*
X112268000Y-87376000D01*
X103632000Y-85852000D02*
X105156000Y-87376000D01*
X103632000Y-79248000D02*
X103632000Y-85852000D01*
X104980000Y-77900000D02*
X103632000Y-79248000D01*
X106680000Y-75900000D02*
X104948000Y-75900000D01*
X113284000Y-119380000D02*
X111760000Y-119380000D01*
X115824000Y-116840000D02*
X113284000Y-119380000D01*
X115824000Y-91948000D02*
X115824000Y-116840000D01*
X111760000Y-87884000D02*
X115824000Y-91948000D01*
X104648000Y-87884000D02*
X111760000Y-87884000D01*
X103124000Y-86360000D02*
X104648000Y-87884000D01*
X103124000Y-77724000D02*
X103124000Y-86360000D01*
X104948000Y-75900000D02*
X103124000Y-77724000D01*
X106680000Y-71900000D02*
X104884000Y-71900000D01*
X113284000Y-109220000D02*
X111760000Y-109220000D01*
X114808000Y-107696000D02*
X113284000Y-109220000D01*
X114808000Y-92456000D02*
X114808000Y-107696000D01*
X111252000Y-88900000D02*
X114808000Y-92456000D01*
X104140000Y-88900000D02*
X111252000Y-88900000D01*
X102108000Y-86868000D02*
X104140000Y-88900000D01*
X102108000Y-86360000D02*
X102108000Y-86868000D01*
X102108000Y-74676000D02*
X102108000Y-86360000D01*
X104884000Y-71900000D02*
X102108000Y-74676000D01*
X106680000Y-69900000D02*
X104852000Y-69900000D01*
X113284000Y-104140000D02*
X111760000Y-104140000D01*
X114300000Y-103124000D02*
X113284000Y-104140000D01*
X114300000Y-92964000D02*
X114300000Y-103124000D01*
X110744000Y-89408000D02*
X114300000Y-92964000D01*
X103632000Y-89408000D02*
X110744000Y-89408000D01*
X101600000Y-87376000D02*
X103632000Y-89408000D01*
X101600000Y-73152000D02*
X101600000Y-87376000D01*
X104852000Y-69900000D02*
X101600000Y-73152000D01*
X128680000Y-83900000D02*
X128680000Y-85188000D01*
X128680000Y-85188000D02*
X128016000Y-85852000D01*
X122936000Y-137160000D02*
X124460000Y-137160000D01*
X118364000Y-132588000D02*
X122936000Y-137160000D01*
X118364000Y-89408000D02*
X118364000Y-132588000D01*
X121920000Y-85852000D02*
X118364000Y-89408000D01*
X128016000Y-85852000D02*
X121920000Y-85852000D01*
X128680000Y-81900000D02*
X130668000Y-81900000D01*
X122936000Y-132080000D02*
X124460000Y-132080000D01*
X118872000Y-128016000D02*
X122936000Y-132080000D01*
X118872000Y-89916000D02*
X118872000Y-128016000D01*
X122428000Y-86360000D02*
X118872000Y-89916000D01*
X129032000Y-86360000D02*
X122428000Y-86360000D01*
X131064000Y-84328000D02*
X129032000Y-86360000D01*
X131064000Y-82296000D02*
X131064000Y-84328000D01*
X130668000Y-81900000D02*
X131064000Y-82296000D01*
X128680000Y-79900000D02*
X130700000Y-79900000D01*
X122936000Y-127000000D02*
X124460000Y-127000000D01*
X119322002Y-123386002D02*
X122936000Y-127000000D01*
X119322002Y-90424000D02*
X119322002Y-123386002D01*
X122878002Y-86868000D02*
X119322002Y-90424000D01*
X129540000Y-86868000D02*
X122878002Y-86868000D01*
X131572000Y-84836000D02*
X129540000Y-86868000D01*
X131572000Y-80772000D02*
X131572000Y-84836000D01*
X130700000Y-79900000D02*
X131572000Y-80772000D01*
X128680000Y-77900000D02*
X130732000Y-77900000D01*
X122936000Y-121920000D02*
X124460000Y-121920000D01*
X119888000Y-118872000D02*
X122936000Y-121920000D01*
X119888000Y-90932000D02*
X119888000Y-118872000D01*
X123444000Y-87376000D02*
X119888000Y-90932000D01*
X130048000Y-87376000D02*
X123444000Y-87376000D01*
X132080000Y-85344000D02*
X130048000Y-87376000D01*
X132080000Y-79248000D02*
X132080000Y-85344000D01*
X130732000Y-77900000D02*
X132080000Y-79248000D01*
X128680000Y-75900000D02*
X130764000Y-75900000D01*
X122936000Y-116840000D02*
X124460000Y-116840000D01*
X120396000Y-114300000D02*
X122936000Y-116840000D01*
X120396000Y-91382002D02*
X120396000Y-114300000D01*
X123894002Y-87884000D02*
X120396000Y-91382002D01*
X130556000Y-87884000D02*
X123894002Y-87884000D01*
X132588000Y-85852000D02*
X130556000Y-87884000D01*
X132588000Y-77724000D02*
X132588000Y-85852000D01*
X130764000Y-75900000D02*
X132588000Y-77724000D01*
X122936000Y-111760000D02*
X124460000Y-111760000D01*
X120846002Y-109670002D02*
X122936000Y-111760000D01*
X120846002Y-91948000D02*
X120846002Y-109670002D01*
X124402002Y-88392000D02*
X120846002Y-91948000D01*
X131064000Y-88392000D02*
X124402002Y-88392000D01*
X133096000Y-86360000D02*
X131064000Y-88392000D01*
X133096000Y-76200000D02*
X133096000Y-86360000D01*
X128680000Y-73900000D02*
X130796000Y-73900000D01*
X130796000Y-73900000D02*
X133096000Y-76200000D01*
X122936000Y-106680000D02*
X124460000Y-106680000D01*
X121412000Y-105156000D02*
X122936000Y-106680000D01*
X121412000Y-92456000D02*
X121412000Y-105156000D01*
X124968000Y-88900000D02*
X121412000Y-92456000D01*
X131572000Y-88900000D02*
X124968000Y-88900000D01*
X133604000Y-86868000D02*
X131572000Y-88900000D01*
X133604000Y-74676000D02*
X133604000Y-86868000D01*
X128680000Y-71900000D02*
X130828000Y-71900000D01*
X130828000Y-71900000D02*
X133604000Y-74676000D01*
X128680000Y-69900000D02*
X130860000Y-69900000D01*
X122936000Y-101600000D02*
X124460000Y-101600000D01*
X121920000Y-100584000D02*
X122936000Y-101600000D01*
X121920000Y-92906002D02*
X121920000Y-100584000D01*
X125418002Y-89408000D02*
X121920000Y-92906002D01*
X132080000Y-89408000D02*
X125418002Y-89408000D01*
X134112000Y-87376000D02*
X132080000Y-89408000D01*
X134112000Y-73152000D02*
X134112000Y-87376000D01*
X130860000Y-69900000D02*
X134112000Y-73152000D01*
X124460000Y-94488000D02*
X124460000Y-96520000D01*
X132588000Y-89916000D02*
X125984000Y-89916000D01*
X124460000Y-91440000D02*
X124460000Y-94488000D01*
X125984000Y-89916000D02*
X124460000Y-91440000D01*
X132588000Y-89916000D02*
X132588000Y-89916000D01*
X134620000Y-87884000D02*
X132588000Y-89916000D01*
X134620000Y-71628000D02*
X134620000Y-87884000D01*
X128680000Y-67900000D02*
X130892000Y-67900000D01*
X130892000Y-67900000D02*
X134620000Y-71628000D01*
D17*
G36*
X105912607Y-72646705D02*
X106255198Y-72875617D01*
X106377780Y-72900000D01*
X106255198Y-72924383D01*
X105912607Y-73153295D01*
X105683695Y-73495886D01*
X105603312Y-73900000D01*
X105683695Y-74304114D01*
X105912607Y-74646705D01*
X106255198Y-74875617D01*
X106377780Y-74900000D01*
X106255198Y-74924383D01*
X105912607Y-75153295D01*
X105751773Y-75394000D01*
X104948000Y-75394000D01*
X104754362Y-75432517D01*
X104659524Y-75495886D01*
X104590204Y-75542204D01*
X102766204Y-77366204D01*
X102656517Y-77530362D01*
X102618000Y-77724000D01*
X102618000Y-86360000D01*
X102656517Y-86553638D01*
X102766204Y-86717796D01*
X104290204Y-88241796D01*
X104454362Y-88351483D01*
X104648000Y-88390000D01*
X111550408Y-88390000D01*
X115318000Y-92157592D01*
X115318000Y-116630408D01*
X113074408Y-118874000D01*
X113069776Y-118874000D01*
X112819834Y-118499935D01*
X112416057Y-118230140D01*
X111939769Y-118135400D01*
X111580231Y-118135400D01*
X111103943Y-118230140D01*
X110921000Y-118352379D01*
X110921000Y-117867621D01*
X111103943Y-117989860D01*
X111580231Y-118084600D01*
X111939769Y-118084600D01*
X112416057Y-117989860D01*
X112819834Y-117720065D01*
X113089629Y-117316288D01*
X113184369Y-116840000D01*
X113089629Y-116363712D01*
X112819834Y-115959935D01*
X112416057Y-115690140D01*
X111939769Y-115595400D01*
X111580231Y-115595400D01*
X111103943Y-115690140D01*
X110921000Y-115812379D01*
X110921000Y-115327621D01*
X111103943Y-115449860D01*
X111580231Y-115544600D01*
X111939769Y-115544600D01*
X112416057Y-115449860D01*
X112819834Y-115180065D01*
X113089629Y-114776288D01*
X113184369Y-114300000D01*
X113089629Y-113823712D01*
X112819834Y-113419935D01*
X112416057Y-113150140D01*
X112401757Y-113147296D01*
X112674320Y-113051954D01*
X113110732Y-112662036D01*
X113364709Y-112134791D01*
X113367358Y-112119026D01*
X113246217Y-111887000D01*
X111887000Y-111887000D01*
X111887000Y-111907000D01*
X111633000Y-111907000D01*
X111633000Y-111887000D01*
X111613000Y-111887000D01*
X111613000Y-111633000D01*
X111633000Y-111633000D01*
X111633000Y-111613000D01*
X111887000Y-111613000D01*
X111887000Y-111633000D01*
X113246217Y-111633000D01*
X113367358Y-111400974D01*
X113364709Y-111385209D01*
X113110732Y-110857964D01*
X112674320Y-110468046D01*
X112401757Y-110372704D01*
X112416057Y-110369860D01*
X112819834Y-110100065D01*
X113069776Y-109726000D01*
X113284000Y-109726000D01*
X113477638Y-109687483D01*
X113641796Y-109577796D01*
X115165796Y-108053796D01*
X115275483Y-107889638D01*
X115314000Y-107696000D01*
X115314000Y-92456000D01*
X115275483Y-92262362D01*
X115165796Y-92098204D01*
X111609796Y-88542204D01*
X111445638Y-88432517D01*
X111252000Y-88394000D01*
X104349592Y-88394000D01*
X102614000Y-86658408D01*
X102614000Y-74885592D01*
X105093592Y-72406000D01*
X105751773Y-72406000D01*
X105912607Y-72646705D01*
X105912607Y-72646705D01*
G37*
X105912607Y-72646705D02*
X106255198Y-72875617D01*
X106377780Y-72900000D01*
X106255198Y-72924383D01*
X105912607Y-73153295D01*
X105683695Y-73495886D01*
X105603312Y-73900000D01*
X105683695Y-74304114D01*
X105912607Y-74646705D01*
X106255198Y-74875617D01*
X106377780Y-74900000D01*
X106255198Y-74924383D01*
X105912607Y-75153295D01*
X105751773Y-75394000D01*
X104948000Y-75394000D01*
X104754362Y-75432517D01*
X104659524Y-75495886D01*
X104590204Y-75542204D01*
X102766204Y-77366204D01*
X102656517Y-77530362D01*
X102618000Y-77724000D01*
X102618000Y-86360000D01*
X102656517Y-86553638D01*
X102766204Y-86717796D01*
X104290204Y-88241796D01*
X104454362Y-88351483D01*
X104648000Y-88390000D01*
X111550408Y-88390000D01*
X115318000Y-92157592D01*
X115318000Y-116630408D01*
X113074408Y-118874000D01*
X113069776Y-118874000D01*
X112819834Y-118499935D01*
X112416057Y-118230140D01*
X111939769Y-118135400D01*
X111580231Y-118135400D01*
X111103943Y-118230140D01*
X110921000Y-118352379D01*
X110921000Y-117867621D01*
X111103943Y-117989860D01*
X111580231Y-118084600D01*
X111939769Y-118084600D01*
X112416057Y-117989860D01*
X112819834Y-117720065D01*
X113089629Y-117316288D01*
X113184369Y-116840000D01*
X113089629Y-116363712D01*
X112819834Y-115959935D01*
X112416057Y-115690140D01*
X111939769Y-115595400D01*
X111580231Y-115595400D01*
X111103943Y-115690140D01*
X110921000Y-115812379D01*
X110921000Y-115327621D01*
X111103943Y-115449860D01*
X111580231Y-115544600D01*
X111939769Y-115544600D01*
X112416057Y-115449860D01*
X112819834Y-115180065D01*
X113089629Y-114776288D01*
X113184369Y-114300000D01*
X113089629Y-113823712D01*
X112819834Y-113419935D01*
X112416057Y-113150140D01*
X112401757Y-113147296D01*
X112674320Y-113051954D01*
X113110732Y-112662036D01*
X113364709Y-112134791D01*
X113367358Y-112119026D01*
X113246217Y-111887000D01*
X111887000Y-111887000D01*
X111887000Y-111907000D01*
X111633000Y-111907000D01*
X111633000Y-111887000D01*
X111613000Y-111887000D01*
X111613000Y-111633000D01*
X111633000Y-111633000D01*
X111633000Y-111613000D01*
X111887000Y-111613000D01*
X111887000Y-111633000D01*
X113246217Y-111633000D01*
X113367358Y-111400974D01*
X113364709Y-111385209D01*
X113110732Y-110857964D01*
X112674320Y-110468046D01*
X112401757Y-110372704D01*
X112416057Y-110369860D01*
X112819834Y-110100065D01*
X113069776Y-109726000D01*
X113284000Y-109726000D01*
X113477638Y-109687483D01*
X113641796Y-109577796D01*
X115165796Y-108053796D01*
X115275483Y-107889638D01*
X115314000Y-107696000D01*
X115314000Y-92456000D01*
X115275483Y-92262362D01*
X115165796Y-92098204D01*
X111609796Y-88542204D01*
X111445638Y-88432517D01*
X111252000Y-88394000D01*
X104349592Y-88394000D01*
X102614000Y-86658408D01*
X102614000Y-74885592D01*
X105093592Y-72406000D01*
X105751773Y-72406000D01*
X105912607Y-72646705D01*
G36*
X111131288Y-69145000D02*
X123564713Y-69145000D01*
X123564713Y-65963000D01*
X135205000Y-65963000D01*
X135205000Y-88213474D01*
X132409474Y-91009000D01*
X125730000Y-91009000D01*
X125575949Y-91039643D01*
X126193592Y-90422000D01*
X132588000Y-90422000D01*
X132781638Y-90383483D01*
X132945796Y-90273796D01*
X134977796Y-88241796D01*
X135087483Y-88077638D01*
X135126000Y-87884000D01*
X135126000Y-71628000D01*
X135087483Y-71434362D01*
X134977796Y-71270204D01*
X131249796Y-67542204D01*
X131085638Y-67432517D01*
X130892000Y-67394000D01*
X129608227Y-67394000D01*
X129447393Y-67153295D01*
X129104802Y-66924383D01*
X128700688Y-66844000D01*
X128659312Y-66844000D01*
X128255198Y-66924383D01*
X127912607Y-67153295D01*
X127683695Y-67495886D01*
X127680000Y-67514462D01*
X127676305Y-67495886D01*
X127447393Y-67153295D01*
X127104802Y-66924383D01*
X126700688Y-66844000D01*
X126659312Y-66844000D01*
X126255198Y-66924383D01*
X125912607Y-67153295D01*
X125683695Y-67495886D01*
X125603312Y-67900000D01*
X125683695Y-68304114D01*
X125912607Y-68646705D01*
X126255198Y-68875617D01*
X126377780Y-68900000D01*
X126255198Y-68924383D01*
X125912607Y-69153295D01*
X125683695Y-69495886D01*
X125603312Y-69900000D01*
X125683695Y-70304114D01*
X125912607Y-70646705D01*
X126255198Y-70875617D01*
X126377780Y-70900000D01*
X126255198Y-70924383D01*
X125912607Y-71153295D01*
X125683695Y-71495886D01*
X125603312Y-71900000D01*
X125683695Y-72304114D01*
X125912607Y-72646705D01*
X126255198Y-72875617D01*
X126377780Y-72900000D01*
X126255198Y-72924383D01*
X125912607Y-73153295D01*
X125683695Y-73495886D01*
X125603312Y-73900000D01*
X125683695Y-74304114D01*
X125912607Y-74646705D01*
X126255198Y-74875617D01*
X126377780Y-74900000D01*
X126255198Y-74924383D01*
X125912607Y-75153295D01*
X125683695Y-75495886D01*
X125603312Y-75900000D01*
X125683695Y-76304114D01*
X125912607Y-76646705D01*
X126255198Y-76875617D01*
X126377780Y-76900000D01*
X126255198Y-76924383D01*
X125912607Y-77153295D01*
X125683695Y-77495886D01*
X125603312Y-77900000D01*
X125683695Y-78304114D01*
X125912607Y-78646705D01*
X126255198Y-78875617D01*
X126377780Y-78900000D01*
X126255198Y-78924383D01*
X125912607Y-79153295D01*
X125683695Y-79495886D01*
X125603312Y-79900000D01*
X125683695Y-80304114D01*
X125912607Y-80646705D01*
X126255198Y-80875617D01*
X126377780Y-80900000D01*
X126255198Y-80924383D01*
X125912607Y-81153295D01*
X125683695Y-81495886D01*
X125603312Y-81900000D01*
X125683695Y-82304114D01*
X125912607Y-82646705D01*
X126255198Y-82875617D01*
X126377780Y-82900000D01*
X126255198Y-82924383D01*
X125912607Y-83153295D01*
X125683695Y-83495886D01*
X125603312Y-83900000D01*
X125683695Y-84304114D01*
X125912607Y-84646705D01*
X126255198Y-84875617D01*
X126659312Y-84956000D01*
X126700688Y-84956000D01*
X127104802Y-84875617D01*
X127447393Y-84646705D01*
X127616536Y-84393565D01*
X127616536Y-84575000D01*
X127643103Y-84716190D01*
X127726546Y-84845865D01*
X127853866Y-84932859D01*
X128005000Y-84963464D01*
X128174000Y-84963464D01*
X128174000Y-84978408D01*
X127806408Y-85346000D01*
X121920000Y-85346000D01*
X121726362Y-85384517D01*
X121562204Y-85494204D01*
X118006204Y-89050204D01*
X117896517Y-89214362D01*
X117892110Y-89236518D01*
X114149796Y-85494204D01*
X113985638Y-85384517D01*
X113792000Y-85346000D01*
X107397592Y-85346000D01*
X107186000Y-85134408D01*
X107186000Y-84821362D01*
X107447393Y-84646705D01*
X107616536Y-84393565D01*
X107616536Y-84575000D01*
X107643103Y-84716190D01*
X107726546Y-84845865D01*
X107853866Y-84932859D01*
X108005000Y-84963464D01*
X109355000Y-84963464D01*
X109496190Y-84936897D01*
X109625865Y-84853454D01*
X109712859Y-84726134D01*
X109743464Y-84575000D01*
X109743464Y-83225000D01*
X109716897Y-83083810D01*
X109633454Y-82954135D01*
X109506134Y-82867141D01*
X109355000Y-82836536D01*
X109163291Y-82836536D01*
X109447393Y-82646705D01*
X109676305Y-82304114D01*
X109756688Y-81900000D01*
X109676305Y-81495886D01*
X109447393Y-81153295D01*
X109104802Y-80924383D01*
X108982220Y-80900000D01*
X109104802Y-80875617D01*
X109447393Y-80646705D01*
X109676305Y-80304114D01*
X109756688Y-79900000D01*
X109676305Y-79495886D01*
X109447393Y-79153295D01*
X109276166Y-79038885D01*
X109469540Y-78945349D01*
X109809478Y-78563633D01*
X109947910Y-78229400D01*
X109824224Y-78027000D01*
X108807000Y-78027000D01*
X108807000Y-78047000D01*
X108553000Y-78047000D01*
X108553000Y-78027000D01*
X108533000Y-78027000D01*
X108533000Y-77773000D01*
X108553000Y-77773000D01*
X108553000Y-77753000D01*
X108807000Y-77753000D01*
X108807000Y-77773000D01*
X109824224Y-77773000D01*
X109947910Y-77570600D01*
X109809478Y-77236367D01*
X109469540Y-76854651D01*
X109276166Y-76761115D01*
X109447393Y-76646705D01*
X109676305Y-76304114D01*
X109756688Y-75900000D01*
X109676305Y-75495886D01*
X109447393Y-75153295D01*
X109104802Y-74924383D01*
X108982220Y-74900000D01*
X109104802Y-74875617D01*
X109447393Y-74646705D01*
X109676305Y-74304114D01*
X109756688Y-73900000D01*
X109676305Y-73495886D01*
X109447393Y-73153295D01*
X109104802Y-72924383D01*
X108982220Y-72900000D01*
X109104802Y-72875617D01*
X109447393Y-72646705D01*
X109676305Y-72304114D01*
X109756688Y-71900000D01*
X109676305Y-71495886D01*
X109447393Y-71153295D01*
X109104802Y-70924383D01*
X108982220Y-70900000D01*
X109104802Y-70875617D01*
X109447393Y-70646705D01*
X109676305Y-70304114D01*
X109756688Y-69900000D01*
X109676305Y-69495886D01*
X109447393Y-69153295D01*
X109104802Y-68924383D01*
X108982220Y-68900000D01*
X109104802Y-68875617D01*
X109447393Y-68646705D01*
X109676305Y-68304114D01*
X109756688Y-67900000D01*
X109676305Y-67495886D01*
X109447393Y-67153295D01*
X109104802Y-66924383D01*
X108700688Y-66844000D01*
X108659312Y-66844000D01*
X108255198Y-66924383D01*
X107912607Y-67153295D01*
X107827701Y-67280365D01*
X107809478Y-67236367D01*
X107469540Y-66854651D01*
X107009402Y-66632080D01*
X106807000Y-66754910D01*
X106807000Y-67773000D01*
X106827000Y-67773000D01*
X106827000Y-68027000D01*
X106807000Y-68027000D01*
X106807000Y-68047000D01*
X106553000Y-68047000D01*
X106553000Y-68027000D01*
X105535776Y-68027000D01*
X105412090Y-68229400D01*
X105550522Y-68563633D01*
X105890460Y-68945349D01*
X106083834Y-69038885D01*
X105912607Y-69153295D01*
X105751773Y-69394000D01*
X104852000Y-69394000D01*
X104658362Y-69432517D01*
X104563524Y-69495886D01*
X104494204Y-69542204D01*
X101242204Y-72794204D01*
X101132517Y-72958362D01*
X101094000Y-73152000D01*
X101094000Y-87376000D01*
X101132517Y-87569638D01*
X101242204Y-87733796D01*
X103274204Y-89765796D01*
X103438362Y-89875483D01*
X103632000Y-89914000D01*
X110534408Y-89914000D01*
X113794000Y-93173592D01*
X113794000Y-102914408D01*
X113074408Y-103634000D01*
X113069776Y-103634000D01*
X112819834Y-103259935D01*
X112416057Y-102990140D01*
X111939769Y-102895400D01*
X111580231Y-102895400D01*
X111103943Y-102990140D01*
X110921000Y-103112379D01*
X110921000Y-102627621D01*
X111103943Y-102749860D01*
X111580231Y-102844600D01*
X111939769Y-102844600D01*
X112416057Y-102749860D01*
X112819834Y-102480065D01*
X113089629Y-102076288D01*
X113184369Y-101600000D01*
X113089629Y-101123712D01*
X112819834Y-100719935D01*
X112416057Y-100450140D01*
X112401757Y-100447296D01*
X112674320Y-100351954D01*
X113110732Y-99962036D01*
X113364709Y-99434791D01*
X113367358Y-99419026D01*
X113246217Y-99187000D01*
X111887000Y-99187000D01*
X111887000Y-99207000D01*
X111633000Y-99207000D01*
X111633000Y-99187000D01*
X111613000Y-99187000D01*
X111613000Y-98933000D01*
X111633000Y-98933000D01*
X111633000Y-98913000D01*
X111887000Y-98913000D01*
X111887000Y-98933000D01*
X113246217Y-98933000D01*
X113367358Y-98700974D01*
X113364709Y-98685209D01*
X113110732Y-98157964D01*
X112678817Y-97772064D01*
X112776000Y-97772064D01*
X112917190Y-97745497D01*
X113046865Y-97662054D01*
X113133859Y-97534734D01*
X113164464Y-97383600D01*
X113164464Y-95656400D01*
X113137897Y-95515210D01*
X113054454Y-95385535D01*
X112927134Y-95298541D01*
X112776000Y-95267936D01*
X110921000Y-95267936D01*
X110921000Y-91440000D01*
X110888192Y-91275063D01*
X110794763Y-91135237D01*
X110654937Y-91041808D01*
X110490000Y-91009000D01*
X103302526Y-91009000D01*
X100507000Y-88213474D01*
X100507000Y-67570600D01*
X105412090Y-67570600D01*
X105535776Y-67773000D01*
X106553000Y-67773000D01*
X106553000Y-66754910D01*
X106350598Y-66632080D01*
X105890460Y-66854651D01*
X105550522Y-67236367D01*
X105412090Y-67570600D01*
X100507000Y-67570600D01*
X100507000Y-65963000D01*
X111131288Y-65963000D01*
X111131288Y-69145000D01*
X111131288Y-69145000D01*
G37*
X111131288Y-69145000D02*
X123564713Y-69145000D01*
X123564713Y-65963000D01*
X135205000Y-65963000D01*
X135205000Y-88213474D01*
X132409474Y-91009000D01*
X125730000Y-91009000D01*
X125575949Y-91039643D01*
X126193592Y-90422000D01*
X132588000Y-90422000D01*
X132781638Y-90383483D01*
X132945796Y-90273796D01*
X134977796Y-88241796D01*
X135087483Y-88077638D01*
X135126000Y-87884000D01*
X135126000Y-71628000D01*
X135087483Y-71434362D01*
X134977796Y-71270204D01*
X131249796Y-67542204D01*
X131085638Y-67432517D01*
X130892000Y-67394000D01*
X129608227Y-67394000D01*
X129447393Y-67153295D01*
X129104802Y-66924383D01*
X128700688Y-66844000D01*
X128659312Y-66844000D01*
X128255198Y-66924383D01*
X127912607Y-67153295D01*
X127683695Y-67495886D01*
X127680000Y-67514462D01*
X127676305Y-67495886D01*
X127447393Y-67153295D01*
X127104802Y-66924383D01*
X126700688Y-66844000D01*
X126659312Y-66844000D01*
X126255198Y-66924383D01*
X125912607Y-67153295D01*
X125683695Y-67495886D01*
X125603312Y-67900000D01*
X125683695Y-68304114D01*
X125912607Y-68646705D01*
X126255198Y-68875617D01*
X126377780Y-68900000D01*
X126255198Y-68924383D01*
X125912607Y-69153295D01*
X125683695Y-69495886D01*
X125603312Y-69900000D01*
X125683695Y-70304114D01*
X125912607Y-70646705D01*
X126255198Y-70875617D01*
X126377780Y-70900000D01*
X126255198Y-70924383D01*
X125912607Y-71153295D01*
X125683695Y-71495886D01*
X125603312Y-71900000D01*
X125683695Y-72304114D01*
X125912607Y-72646705D01*
X126255198Y-72875617D01*
X126377780Y-72900000D01*
X126255198Y-72924383D01*
X125912607Y-73153295D01*
X125683695Y-73495886D01*
X125603312Y-73900000D01*
X125683695Y-74304114D01*
X125912607Y-74646705D01*
X126255198Y-74875617D01*
X126377780Y-74900000D01*
X126255198Y-74924383D01*
X125912607Y-75153295D01*
X125683695Y-75495886D01*
X125603312Y-75900000D01*
X125683695Y-76304114D01*
X125912607Y-76646705D01*
X126255198Y-76875617D01*
X126377780Y-76900000D01*
X126255198Y-76924383D01*
X125912607Y-77153295D01*
X125683695Y-77495886D01*
X125603312Y-77900000D01*
X125683695Y-78304114D01*
X125912607Y-78646705D01*
X126255198Y-78875617D01*
X126377780Y-78900000D01*
X126255198Y-78924383D01*
X125912607Y-79153295D01*
X125683695Y-79495886D01*
X125603312Y-79900000D01*
X125683695Y-80304114D01*
X125912607Y-80646705D01*
X126255198Y-80875617D01*
X126377780Y-80900000D01*
X126255198Y-80924383D01*
X125912607Y-81153295D01*
X125683695Y-81495886D01*
X125603312Y-81900000D01*
X125683695Y-82304114D01*
X125912607Y-82646705D01*
X126255198Y-82875617D01*
X126377780Y-82900000D01*
X126255198Y-82924383D01*
X125912607Y-83153295D01*
X125683695Y-83495886D01*
X125603312Y-83900000D01*
X125683695Y-84304114D01*
X125912607Y-84646705D01*
X126255198Y-84875617D01*
X126659312Y-84956000D01*
X126700688Y-84956000D01*
X127104802Y-84875617D01*
X127447393Y-84646705D01*
X127616536Y-84393565D01*
X127616536Y-84575000D01*
X127643103Y-84716190D01*
X127726546Y-84845865D01*
X127853866Y-84932859D01*
X128005000Y-84963464D01*
X128174000Y-84963464D01*
X128174000Y-84978408D01*
X127806408Y-85346000D01*
X121920000Y-85346000D01*
X121726362Y-85384517D01*
X121562204Y-85494204D01*
X118006204Y-89050204D01*
X117896517Y-89214362D01*
X117892110Y-89236518D01*
X114149796Y-85494204D01*
X113985638Y-85384517D01*
X113792000Y-85346000D01*
X107397592Y-85346000D01*
X107186000Y-85134408D01*
X107186000Y-84821362D01*
X107447393Y-84646705D01*
X107616536Y-84393565D01*
X107616536Y-84575000D01*
X107643103Y-84716190D01*
X107726546Y-84845865D01*
X107853866Y-84932859D01*
X108005000Y-84963464D01*
X109355000Y-84963464D01*
X109496190Y-84936897D01*
X109625865Y-84853454D01*
X109712859Y-84726134D01*
X109743464Y-84575000D01*
X109743464Y-83225000D01*
X109716897Y-83083810D01*
X109633454Y-82954135D01*
X109506134Y-82867141D01*
X109355000Y-82836536D01*
X109163291Y-82836536D01*
X109447393Y-82646705D01*
X109676305Y-82304114D01*
X109756688Y-81900000D01*
X109676305Y-81495886D01*
X109447393Y-81153295D01*
X109104802Y-80924383D01*
X108982220Y-80900000D01*
X109104802Y-80875617D01*
X109447393Y-80646705D01*
X109676305Y-80304114D01*
X109756688Y-79900000D01*
X109676305Y-79495886D01*
X109447393Y-79153295D01*
X109276166Y-79038885D01*
X109469540Y-78945349D01*
X109809478Y-78563633D01*
X109947910Y-78229400D01*
X109824224Y-78027000D01*
X108807000Y-78027000D01*
X108807000Y-78047000D01*
X108553000Y-78047000D01*
X108553000Y-78027000D01*
X108533000Y-78027000D01*
X108533000Y-77773000D01*
X108553000Y-77773000D01*
X108553000Y-77753000D01*
X108807000Y-77753000D01*
X108807000Y-77773000D01*
X109824224Y-77773000D01*
X109947910Y-77570600D01*
X109809478Y-77236367D01*
X109469540Y-76854651D01*
X109276166Y-76761115D01*
X109447393Y-76646705D01*
X109676305Y-76304114D01*
X109756688Y-75900000D01*
X109676305Y-75495886D01*
X109447393Y-75153295D01*
X109104802Y-74924383D01*
X108982220Y-74900000D01*
X109104802Y-74875617D01*
X109447393Y-74646705D01*
X109676305Y-74304114D01*
X109756688Y-73900000D01*
X109676305Y-73495886D01*
X109447393Y-73153295D01*
X109104802Y-72924383D01*
X108982220Y-72900000D01*
X109104802Y-72875617D01*
X109447393Y-72646705D01*
X109676305Y-72304114D01*
X109756688Y-71900000D01*
X109676305Y-71495886D01*
X109447393Y-71153295D01*
X109104802Y-70924383D01*
X108982220Y-70900000D01*
X109104802Y-70875617D01*
X109447393Y-70646705D01*
X109676305Y-70304114D01*
X109756688Y-69900000D01*
X109676305Y-69495886D01*
X109447393Y-69153295D01*
X109104802Y-68924383D01*
X108982220Y-68900000D01*
X109104802Y-68875617D01*
X109447393Y-68646705D01*
X109676305Y-68304114D01*
X109756688Y-67900000D01*
X109676305Y-67495886D01*
X109447393Y-67153295D01*
X109104802Y-66924383D01*
X108700688Y-66844000D01*
X108659312Y-66844000D01*
X108255198Y-66924383D01*
X107912607Y-67153295D01*
X107827701Y-67280365D01*
X107809478Y-67236367D01*
X107469540Y-66854651D01*
X107009402Y-66632080D01*
X106807000Y-66754910D01*
X106807000Y-67773000D01*
X106827000Y-67773000D01*
X106827000Y-68027000D01*
X106807000Y-68027000D01*
X106807000Y-68047000D01*
X106553000Y-68047000D01*
X106553000Y-68027000D01*
X105535776Y-68027000D01*
X105412090Y-68229400D01*
X105550522Y-68563633D01*
X105890460Y-68945349D01*
X106083834Y-69038885D01*
X105912607Y-69153295D01*
X105751773Y-69394000D01*
X104852000Y-69394000D01*
X104658362Y-69432517D01*
X104563524Y-69495886D01*
X104494204Y-69542204D01*
X101242204Y-72794204D01*
X101132517Y-72958362D01*
X101094000Y-73152000D01*
X101094000Y-87376000D01*
X101132517Y-87569638D01*
X101242204Y-87733796D01*
X103274204Y-89765796D01*
X103438362Y-89875483D01*
X103632000Y-89914000D01*
X110534408Y-89914000D01*
X113794000Y-93173592D01*
X113794000Y-102914408D01*
X113074408Y-103634000D01*
X113069776Y-103634000D01*
X112819834Y-103259935D01*
X112416057Y-102990140D01*
X111939769Y-102895400D01*
X111580231Y-102895400D01*
X111103943Y-102990140D01*
X110921000Y-103112379D01*
X110921000Y-102627621D01*
X111103943Y-102749860D01*
X111580231Y-102844600D01*
X111939769Y-102844600D01*
X112416057Y-102749860D01*
X112819834Y-102480065D01*
X113089629Y-102076288D01*
X113184369Y-101600000D01*
X113089629Y-101123712D01*
X112819834Y-100719935D01*
X112416057Y-100450140D01*
X112401757Y-100447296D01*
X112674320Y-100351954D01*
X113110732Y-99962036D01*
X113364709Y-99434791D01*
X113367358Y-99419026D01*
X113246217Y-99187000D01*
X111887000Y-99187000D01*
X111887000Y-99207000D01*
X111633000Y-99207000D01*
X111633000Y-99187000D01*
X111613000Y-99187000D01*
X111613000Y-98933000D01*
X111633000Y-98933000D01*
X111633000Y-98913000D01*
X111887000Y-98913000D01*
X111887000Y-98933000D01*
X113246217Y-98933000D01*
X113367358Y-98700974D01*
X113364709Y-98685209D01*
X113110732Y-98157964D01*
X112678817Y-97772064D01*
X112776000Y-97772064D01*
X112917190Y-97745497D01*
X113046865Y-97662054D01*
X113133859Y-97534734D01*
X113164464Y-97383600D01*
X113164464Y-95656400D01*
X113137897Y-95515210D01*
X113054454Y-95385535D01*
X112927134Y-95298541D01*
X112776000Y-95267936D01*
X110921000Y-95267936D01*
X110921000Y-91440000D01*
X110888192Y-91275063D01*
X110794763Y-91135237D01*
X110654937Y-91041808D01*
X110490000Y-91009000D01*
X103302526Y-91009000D01*
X100507000Y-88213474D01*
X100507000Y-67570600D01*
X105412090Y-67570600D01*
X105535776Y-67773000D01*
X106553000Y-67773000D01*
X106553000Y-66754910D01*
X106350598Y-66632080D01*
X105890460Y-66854651D01*
X105550522Y-67236367D01*
X105412090Y-67570600D01*
X100507000Y-67570600D01*
X100507000Y-65963000D01*
X111131288Y-65963000D01*
X111131288Y-69145000D01*
M02*
