<?xml version="1.0" standalone="no"?>
 <!DOCTYPE svg PUBLIC "-//W3C//DTD SVG 1.1//EN" 
 "http://www.w3.org/Graphics/SVG/1.1/DTD/svg11.dtd"> 
<svg
  xmlns:svg="http://www.w3.org/2000/svg"
  xmlns="http://www.w3.org/2000/svg"
  xmlns:xlink="http://www.w3.org/1999/xlink"
  version="1.1"
  width="82.1436mm" height="72.1360mm" viewBox="0.0000 0.0000 82.1436 72.1360">
<title>SVG Image created as SRSE2-User_Eco1.svg date 2025/10/26 15:38:08 </title>
  <desc>Image generated by PCBNEW </desc>
<g style="fill:#000000; fill-opacity:1.0000;stroke:#000000; stroke-opacity:1.0000;
stroke-linecap:round; stroke-linejoin:round;"
 transform="translate(0 0) scale(1 1)">
<path style="fill:#B4DBD2; fill-opacity:1.0000; 
stroke:#B4DBD2; stroke-width:0.1000; stroke-opacity:1; 
stroke-linecap:round; stroke-linejoin:round;fill-rule:evenodd;"
d="M 69.5750,49.5750
72.5750,51.5750
72.5750,54.0750
67.5750,50.5750
67.5750,34.5750
69.5750,34.5750
Z" /> 
<path style="fill:#B4DBD2; fill-opacity:1.0000; 
stroke:#B4DBD2; stroke-width:0.1000; stroke-opacity:1; 
stroke-linecap:round; stroke-linejoin:round;fill-rule:evenodd;"
d="M 63.5750,37.0750
60.5750,37.0750
47.5750,24.0750
50.5750,24.0750
Z" /> 
<path style="fill:#B4DBD2; fill-opacity:1.0000; 
stroke:#B4DBD2; stroke-width:0.1000; stroke-opacity:1; 
stroke-linecap:round; stroke-linejoin:round;fill-rule:evenodd;"
d="M 6.0750,34.5750
76.5750,34.5750
76.5750,37.0750
6.0750,37.0750
Z" /> 
<path style="fill:#B4DBD2; fill-opacity:1.0000; 
stroke:#B4DBD2; stroke-width:0.1000; stroke-opacity:1; 
stroke-linecap:round; stroke-linejoin:round;fill-rule:evenodd;"
d="M 27.0750,41.5750
6.0750,41.5750
6.0750,39.0750
26.0750,39.0750
41.3250,24.0750
44.5750,24.0750
Z" /> 
<path style="fill:#B4DBD2; fill-opacity:1.0000; 
stroke:#B4DBD2; stroke-width:0.1000; stroke-opacity:1; 
stroke-linecap:round; stroke-linejoin:round;fill-rule:evenodd;"
d="M 6.0750,24.0750
76.5750,24.0750
76.5750,27.0750
6.0750,27.0750
Z" /> 
<path style="fill:#B4DBD2; fill-opacity:1.0000; 
stroke:#B4DBD2; stroke-width:0.1000; stroke-opacity:1; 
stroke-linecap:round; stroke-linejoin:round;fill-rule:evenodd;"
d="M 72.5750,18.0750
76.5750,18.0750
76.5750,54.0750
72.5750,54.0750
Z" /> 
<path style="fill:#B4DBD2; fill-opacity:1.0000; 
stroke:#B4DBD2; stroke-width:0.1000; stroke-opacity:1; 
stroke-linecap:round; stroke-linejoin:round;fill-rule:evenodd;"
d="M 6.0750,18.0750
10.0750,18.0750
10.0750,54.0750
6.0750,54.0750
Z" /> 
<path style="fill:#B4DBD2; fill-opacity:1.0000; 
stroke:#B4DBD2; stroke-width:0.1000; stroke-opacity:1; 
stroke-linecap:round; stroke-linejoin:round;fill-rule:evenodd;"
d="M 10.0750,54.0750
10.0750,51.0750
19.5750,41.5750
22.5750,41.5750
Z" /> 
</g> 
</svg>
