G04 #@! TF.GenerationSoftware,KiCad,Pcbnew,5.1.2-f72e74a~84~ubuntu18.04.1*
G04 #@! TF.CreationDate,2019-06-26T16:44:13+02:00*
G04 #@! TF.ProjectId,AIOR,41494f52-2e6b-4696-9361-645f70636258,V1.2*
G04 #@! TF.SameCoordinates,Original*
G04 #@! TF.FileFunction,Soldermask,Bot*
G04 #@! TF.FilePolarity,Negative*
%FSLAX46Y46*%
G04 Gerber Fmt 4.6, Leading zero omitted, Abs format (unit mm)*
G04 Created by KiCad (PCBNEW 5.1.2-f72e74a~84~ubuntu18.04.1) date 2019-06-26 16:44:13*
%MOMM*%
%LPD*%
G04 APERTURE LIST*
%ADD10C,0.150000*%
%ADD11C,0.100000*%
G04 APERTURE END LIST*
D10*
X129500000Y-71500000D02*
X211500000Y-71500000D01*
X128000000Y-126500000D02*
X128000000Y-73000000D01*
X211500000Y-128000000D02*
X129500000Y-128000000D01*
X213000000Y-73000000D02*
X213000000Y-126500000D01*
X129500000Y-71500000D02*
G75*
G03X128000000Y-73000000I0J-1500000D01*
G01*
X128000000Y-126500000D02*
G75*
G03X129500000Y-128000000I1500000J0D01*
G01*
X211500000Y-128000000D02*
G75*
G03X213000000Y-126500000I0J1500000D01*
G01*
X213000000Y-73000000D02*
G75*
G03X211500000Y-71500000I-1500000J0D01*
G01*
D11*
G36*
X131935441Y-122310887D02*
G01*
X132151050Y-122353774D01*
X132436087Y-122471840D01*
X132551581Y-122519679D01*
X132557249Y-122522027D01*
X132922817Y-122766292D01*
X133233708Y-123077183D01*
X133477973Y-123442751D01*
X133646226Y-123848950D01*
X133732000Y-124280167D01*
X133732000Y-124719833D01*
X133646226Y-125151050D01*
X133477973Y-125557249D01*
X133233708Y-125922817D01*
X132922817Y-126233708D01*
X132557249Y-126477973D01*
X132151050Y-126646226D01*
X131935441Y-126689113D01*
X131719834Y-126732000D01*
X131280166Y-126732000D01*
X131064559Y-126689113D01*
X130848950Y-126646226D01*
X130442751Y-126477973D01*
X130077183Y-126233708D01*
X129766292Y-125922817D01*
X129522027Y-125557249D01*
X129353774Y-125151050D01*
X129268000Y-124719833D01*
X129268000Y-124280167D01*
X129353774Y-123848950D01*
X129522027Y-123442751D01*
X129766292Y-123077183D01*
X130077183Y-122766292D01*
X130442751Y-122522027D01*
X130448420Y-122519679D01*
X130563913Y-122471840D01*
X130848950Y-122353774D01*
X131064559Y-122310887D01*
X131280166Y-122268000D01*
X131719834Y-122268000D01*
X131935441Y-122310887D01*
X131935441Y-122310887D01*
G37*
G36*
X189935441Y-122310887D02*
G01*
X190151050Y-122353774D01*
X190436087Y-122471840D01*
X190551581Y-122519679D01*
X190557249Y-122522027D01*
X190922817Y-122766292D01*
X191233708Y-123077183D01*
X191477973Y-123442751D01*
X191646226Y-123848950D01*
X191732000Y-124280167D01*
X191732000Y-124719833D01*
X191646226Y-125151050D01*
X191477973Y-125557249D01*
X191233708Y-125922817D01*
X190922817Y-126233708D01*
X190557249Y-126477973D01*
X190151050Y-126646226D01*
X189935441Y-126689113D01*
X189719834Y-126732000D01*
X189280166Y-126732000D01*
X189064559Y-126689113D01*
X188848950Y-126646226D01*
X188442751Y-126477973D01*
X188077183Y-126233708D01*
X187766292Y-125922817D01*
X187522027Y-125557249D01*
X187353774Y-125151050D01*
X187268000Y-124719833D01*
X187268000Y-124280167D01*
X187353774Y-123848950D01*
X187522027Y-123442751D01*
X187766292Y-123077183D01*
X188077183Y-122766292D01*
X188442751Y-122522027D01*
X188448420Y-122519679D01*
X188563913Y-122471840D01*
X188848950Y-122353774D01*
X189064559Y-122310887D01*
X189280166Y-122268000D01*
X189719834Y-122268000D01*
X189935441Y-122310887D01*
X189935441Y-122310887D01*
G37*
G36*
X149226948Y-122049722D02*
G01*
X149490831Y-122159026D01*
X149490833Y-122159027D01*
X149728321Y-122317711D01*
X149930289Y-122519679D01*
X150088973Y-122757167D01*
X150088974Y-122757169D01*
X150198278Y-123021052D01*
X150254000Y-123301186D01*
X150254000Y-123586814D01*
X150198278Y-123866948D01*
X150113873Y-124070720D01*
X150088973Y-124130833D01*
X149930289Y-124368321D01*
X149728321Y-124570289D01*
X149490833Y-124728973D01*
X149490832Y-124728974D01*
X149490831Y-124728974D01*
X149226948Y-124838278D01*
X148946814Y-124894000D01*
X148661186Y-124894000D01*
X148381052Y-124838278D01*
X148117169Y-124728974D01*
X148117168Y-124728974D01*
X148117167Y-124728973D01*
X147879679Y-124570289D01*
X147677711Y-124368321D01*
X147519027Y-124130833D01*
X147494127Y-124070720D01*
X147409722Y-123866948D01*
X147354000Y-123586814D01*
X147354000Y-123301186D01*
X147409722Y-123021052D01*
X147519026Y-122757169D01*
X147519027Y-122757167D01*
X147677711Y-122519679D01*
X147879679Y-122317711D01*
X148117167Y-122159027D01*
X148117169Y-122159026D01*
X148381052Y-122049722D01*
X148661186Y-121994000D01*
X148946814Y-121994000D01*
X149226948Y-122049722D01*
X149226948Y-122049722D01*
G37*
G36*
X144226948Y-122049722D02*
G01*
X144490831Y-122159026D01*
X144490833Y-122159027D01*
X144728321Y-122317711D01*
X144930289Y-122519679D01*
X145088973Y-122757167D01*
X145088974Y-122757169D01*
X145198278Y-123021052D01*
X145254000Y-123301186D01*
X145254000Y-123586814D01*
X145198278Y-123866948D01*
X145113873Y-124070720D01*
X145088973Y-124130833D01*
X144930289Y-124368321D01*
X144728321Y-124570289D01*
X144490833Y-124728973D01*
X144490832Y-124728974D01*
X144490831Y-124728974D01*
X144226948Y-124838278D01*
X143946814Y-124894000D01*
X143661186Y-124894000D01*
X143381052Y-124838278D01*
X143117169Y-124728974D01*
X143117168Y-124728974D01*
X143117167Y-124728973D01*
X142879679Y-124570289D01*
X142677711Y-124368321D01*
X142519027Y-124130833D01*
X142494127Y-124070720D01*
X142409722Y-123866948D01*
X142354000Y-123586814D01*
X142354000Y-123301186D01*
X142409722Y-123021052D01*
X142519026Y-122757169D01*
X142519027Y-122757167D01*
X142677711Y-122519679D01*
X142879679Y-122317711D01*
X143117167Y-122159027D01*
X143117169Y-122159026D01*
X143381052Y-122049722D01*
X143661186Y-121994000D01*
X143946814Y-121994000D01*
X144226948Y-122049722D01*
X144226948Y-122049722D01*
G37*
G36*
X171618948Y-122049722D02*
G01*
X171882831Y-122159026D01*
X171882833Y-122159027D01*
X172120321Y-122317711D01*
X172322289Y-122519679D01*
X172480973Y-122757167D01*
X172480974Y-122757169D01*
X172590278Y-123021052D01*
X172646000Y-123301186D01*
X172646000Y-123586814D01*
X172590278Y-123866948D01*
X172505873Y-124070720D01*
X172480973Y-124130833D01*
X172322289Y-124368321D01*
X172120321Y-124570289D01*
X171882833Y-124728973D01*
X171882832Y-124728974D01*
X171882831Y-124728974D01*
X171618948Y-124838278D01*
X171338814Y-124894000D01*
X171053186Y-124894000D01*
X170773052Y-124838278D01*
X170509169Y-124728974D01*
X170509168Y-124728974D01*
X170509167Y-124728973D01*
X170271679Y-124570289D01*
X170069711Y-124368321D01*
X169911027Y-124130833D01*
X169886127Y-124070720D01*
X169801722Y-123866948D01*
X169746000Y-123586814D01*
X169746000Y-123301186D01*
X169801722Y-123021052D01*
X169911026Y-122757169D01*
X169911027Y-122757167D01*
X170069711Y-122519679D01*
X170271679Y-122317711D01*
X170509167Y-122159027D01*
X170509169Y-122159026D01*
X170773052Y-122049722D01*
X171053186Y-121994000D01*
X171338814Y-121994000D01*
X171618948Y-122049722D01*
X171618948Y-122049722D01*
G37*
G36*
X166618948Y-122049722D02*
G01*
X166882831Y-122159026D01*
X166882833Y-122159027D01*
X167120321Y-122317711D01*
X167322289Y-122519679D01*
X167480973Y-122757167D01*
X167480974Y-122757169D01*
X167590278Y-123021052D01*
X167646000Y-123301186D01*
X167646000Y-123586814D01*
X167590278Y-123866948D01*
X167505873Y-124070720D01*
X167480973Y-124130833D01*
X167322289Y-124368321D01*
X167120321Y-124570289D01*
X166882833Y-124728973D01*
X166882832Y-124728974D01*
X166882831Y-124728974D01*
X166618948Y-124838278D01*
X166338814Y-124894000D01*
X166053186Y-124894000D01*
X165773052Y-124838278D01*
X165509169Y-124728974D01*
X165509168Y-124728974D01*
X165509167Y-124728973D01*
X165271679Y-124570289D01*
X165069711Y-124368321D01*
X164911027Y-124130833D01*
X164886127Y-124070720D01*
X164801722Y-123866948D01*
X164746000Y-123586814D01*
X164746000Y-123301186D01*
X164801722Y-123021052D01*
X164911026Y-122757169D01*
X164911027Y-122757167D01*
X165069711Y-122519679D01*
X165271679Y-122317711D01*
X165509167Y-122159027D01*
X165509169Y-122159026D01*
X165773052Y-122049722D01*
X166053186Y-121994000D01*
X166338814Y-121994000D01*
X166618948Y-122049722D01*
X166618948Y-122049722D01*
G37*
G36*
X211234630Y-124070720D02*
G01*
X209135370Y-124070720D01*
X209135370Y-122471840D01*
X211234630Y-122471840D01*
X211234630Y-124070720D01*
X211234630Y-124070720D01*
G37*
G36*
X210591908Y-120481887D02*
G01*
X210742603Y-120527600D01*
X210881484Y-120601834D01*
X211003215Y-120701735D01*
X211103116Y-120823466D01*
X211177350Y-120962347D01*
X211223063Y-121113042D01*
X211238498Y-121269760D01*
X211223063Y-121426478D01*
X211177350Y-121577173D01*
X211103116Y-121716054D01*
X211003215Y-121837785D01*
X210881484Y-121937686D01*
X210742603Y-122011920D01*
X210591908Y-122057633D01*
X210474463Y-122069200D01*
X209895537Y-122069200D01*
X209778092Y-122057633D01*
X209627397Y-122011920D01*
X209488516Y-121937686D01*
X209366785Y-121837785D01*
X209266884Y-121716054D01*
X209192650Y-121577173D01*
X209146937Y-121426478D01*
X209131502Y-121269760D01*
X209146937Y-121113042D01*
X209192650Y-120962347D01*
X209266884Y-120823466D01*
X209366785Y-120701735D01*
X209488516Y-120601834D01*
X209627397Y-120527600D01*
X209778092Y-120481887D01*
X209895537Y-120470320D01*
X210474463Y-120470320D01*
X210591908Y-120481887D01*
X210591908Y-120481887D01*
G37*
G36*
X210591908Y-118480367D02*
G01*
X210742603Y-118526080D01*
X210881484Y-118600314D01*
X211003215Y-118700215D01*
X211103116Y-118821946D01*
X211177350Y-118960827D01*
X211223063Y-119111522D01*
X211238498Y-119268240D01*
X211223063Y-119424958D01*
X211177350Y-119575653D01*
X211103116Y-119714534D01*
X211003215Y-119836265D01*
X210881484Y-119936166D01*
X210742603Y-120010400D01*
X210591908Y-120056113D01*
X210474463Y-120067680D01*
X209895537Y-120067680D01*
X209778092Y-120056113D01*
X209627397Y-120010400D01*
X209488516Y-119936166D01*
X209366785Y-119836265D01*
X209266884Y-119714534D01*
X209192650Y-119575653D01*
X209146937Y-119424958D01*
X209131502Y-119268240D01*
X209146937Y-119111522D01*
X209192650Y-118960827D01*
X209266884Y-118821946D01*
X209366785Y-118700215D01*
X209488516Y-118600314D01*
X209627397Y-118526080D01*
X209778092Y-118480367D01*
X209895537Y-118468800D01*
X210474463Y-118468800D01*
X210591908Y-118480367D01*
X210591908Y-118480367D01*
G37*
G36*
X210591908Y-116481387D02*
G01*
X210742603Y-116527100D01*
X210881484Y-116601334D01*
X211003215Y-116701235D01*
X211103116Y-116822966D01*
X211177350Y-116961847D01*
X211223063Y-117112542D01*
X211238498Y-117269260D01*
X211223063Y-117425978D01*
X211177350Y-117576673D01*
X211103116Y-117715554D01*
X211003215Y-117837285D01*
X210881484Y-117937186D01*
X210742603Y-118011420D01*
X210591908Y-118057133D01*
X210474463Y-118068700D01*
X209895537Y-118068700D01*
X209778092Y-118057133D01*
X209627397Y-118011420D01*
X209488516Y-117937186D01*
X209366785Y-117837285D01*
X209266884Y-117715554D01*
X209192650Y-117576673D01*
X209146937Y-117425978D01*
X209131502Y-117269260D01*
X209146937Y-117112542D01*
X209192650Y-116961847D01*
X209266884Y-116822966D01*
X209366785Y-116701235D01*
X209488516Y-116601334D01*
X209627397Y-116527100D01*
X209778092Y-116481387D01*
X209895537Y-116469820D01*
X210474463Y-116469820D01*
X210591908Y-116481387D01*
X210591908Y-116481387D01*
G37*
G36*
X212632000Y-114588000D02*
G01*
X210532000Y-114588000D01*
X210532000Y-112488000D01*
X212632000Y-112488000D01*
X212632000Y-114588000D01*
X212632000Y-114588000D01*
G37*
G36*
X190355136Y-106281654D02*
G01*
X190446905Y-106299908D01*
X190619794Y-106371521D01*
X190775390Y-106475487D01*
X190907713Y-106607810D01*
X191011679Y-106763406D01*
X191083292Y-106936295D01*
X191119800Y-107119833D01*
X191119800Y-107306967D01*
X191083292Y-107490505D01*
X191011679Y-107663394D01*
X190907713Y-107818990D01*
X190775390Y-107951313D01*
X190619794Y-108055279D01*
X190446905Y-108126892D01*
X190355136Y-108145146D01*
X190263368Y-108163400D01*
X190076232Y-108163400D01*
X189984464Y-108145146D01*
X189892695Y-108126892D01*
X189719806Y-108055279D01*
X189564210Y-107951313D01*
X189431887Y-107818990D01*
X189327921Y-107663394D01*
X189256308Y-107490505D01*
X189219800Y-107306967D01*
X189219800Y-107119833D01*
X189256308Y-106936295D01*
X189327921Y-106763406D01*
X189431887Y-106607810D01*
X189564210Y-106475487D01*
X189719806Y-106371521D01*
X189892695Y-106299908D01*
X189984464Y-106281654D01*
X190076232Y-106263400D01*
X190263368Y-106263400D01*
X190355136Y-106281654D01*
X190355136Y-106281654D01*
G37*
G36*
X180247000Y-107730000D02*
G01*
X178147000Y-107730000D01*
X178147000Y-105630000D01*
X180247000Y-105630000D01*
X180247000Y-107730000D01*
X180247000Y-107730000D01*
G37*
G36*
X132622000Y-105190000D02*
G01*
X130522000Y-105190000D01*
X130522000Y-103090000D01*
X132622000Y-103090000D01*
X132622000Y-105190000D01*
X132622000Y-105190000D01*
G37*
G36*
X179325707Y-103097596D02*
G01*
X179402836Y-103105193D01*
X179600762Y-103165233D01*
X179600765Y-103165234D01*
X179783170Y-103262732D01*
X179943055Y-103393945D01*
X180074268Y-103553830D01*
X180171766Y-103736235D01*
X180171767Y-103736238D01*
X180231807Y-103934164D01*
X180252080Y-104140000D01*
X180231807Y-104345836D01*
X180171767Y-104543762D01*
X180171766Y-104543765D01*
X180074268Y-104726170D01*
X179943055Y-104886055D01*
X179783170Y-105017268D01*
X179600765Y-105114766D01*
X179600762Y-105114767D01*
X179402836Y-105174807D01*
X179325707Y-105182403D01*
X179248580Y-105190000D01*
X179145420Y-105190000D01*
X179068293Y-105182404D01*
X178991164Y-105174807D01*
X178793238Y-105114767D01*
X178793235Y-105114766D01*
X178610830Y-105017268D01*
X178450945Y-104886055D01*
X178319732Y-104726170D01*
X178222234Y-104543765D01*
X178222233Y-104543762D01*
X178162193Y-104345836D01*
X178141920Y-104140000D01*
X178162193Y-103934164D01*
X178222233Y-103736238D01*
X178222234Y-103736235D01*
X178319732Y-103553830D01*
X178450945Y-103393945D01*
X178610830Y-103262732D01*
X178793235Y-103165234D01*
X178793238Y-103165233D01*
X178991164Y-103105193D01*
X179068293Y-103097596D01*
X179145420Y-103090000D01*
X179248580Y-103090000D01*
X179325707Y-103097596D01*
X179325707Y-103097596D01*
G37*
G36*
X134240707Y-103097596D02*
G01*
X134317836Y-103105193D01*
X134515762Y-103165233D01*
X134515765Y-103165234D01*
X134698170Y-103262732D01*
X134858055Y-103393945D01*
X134989268Y-103553830D01*
X135086766Y-103736235D01*
X135086767Y-103736238D01*
X135146807Y-103934164D01*
X135167080Y-104140000D01*
X135146807Y-104345836D01*
X135086767Y-104543762D01*
X135086766Y-104543765D01*
X134989268Y-104726170D01*
X134858055Y-104886055D01*
X134698170Y-105017268D01*
X134515765Y-105114766D01*
X134515762Y-105114767D01*
X134317836Y-105174807D01*
X134240707Y-105182403D01*
X134163580Y-105190000D01*
X134060420Y-105190000D01*
X133983293Y-105182404D01*
X133906164Y-105174807D01*
X133708238Y-105114767D01*
X133708235Y-105114766D01*
X133525830Y-105017268D01*
X133365945Y-104886055D01*
X133234732Y-104726170D01*
X133137234Y-104543765D01*
X133137233Y-104543762D01*
X133077193Y-104345836D01*
X133056920Y-104140000D01*
X133077193Y-103934164D01*
X133137233Y-103736238D01*
X133137234Y-103736235D01*
X133234732Y-103553830D01*
X133365945Y-103393945D01*
X133525830Y-103262732D01*
X133708235Y-103165234D01*
X133708238Y-103165233D01*
X133906164Y-103105193D01*
X133983293Y-103097596D01*
X134060420Y-103090000D01*
X134163580Y-103090000D01*
X134240707Y-103097596D01*
X134240707Y-103097596D01*
G37*
G36*
X150934336Y-102890754D02*
G01*
X151026105Y-102909008D01*
X151198994Y-102980621D01*
X151354590Y-103084587D01*
X151486913Y-103216910D01*
X151590879Y-103372506D01*
X151662492Y-103545395D01*
X151699000Y-103728933D01*
X151699000Y-103916067D01*
X151662492Y-104099605D01*
X151590879Y-104272494D01*
X151486913Y-104428090D01*
X151354590Y-104560413D01*
X151198994Y-104664379D01*
X151026105Y-104735992D01*
X150934336Y-104754246D01*
X150842568Y-104772500D01*
X150655432Y-104772500D01*
X150563664Y-104754246D01*
X150471895Y-104735992D01*
X150299006Y-104664379D01*
X150143410Y-104560413D01*
X150011087Y-104428090D01*
X149907121Y-104272494D01*
X149835508Y-104099605D01*
X149799000Y-103916067D01*
X149799000Y-103728933D01*
X149835508Y-103545395D01*
X149907121Y-103372506D01*
X150011087Y-103216910D01*
X150143410Y-103084587D01*
X150299006Y-102980621D01*
X150471895Y-102909008D01*
X150563664Y-102890754D01*
X150655432Y-102872500D01*
X150842568Y-102872500D01*
X150934336Y-102890754D01*
X150934336Y-102890754D01*
G37*
G36*
X190327893Y-101196235D02*
G01*
X190446905Y-101219908D01*
X190619794Y-101291521D01*
X190775390Y-101395487D01*
X190907713Y-101527810D01*
X191011679Y-101683406D01*
X191083292Y-101856295D01*
X191119800Y-102039833D01*
X191119800Y-102226967D01*
X191083292Y-102410505D01*
X191011679Y-102583394D01*
X190907713Y-102738990D01*
X190775390Y-102871313D01*
X190619794Y-102975279D01*
X190446905Y-103046892D01*
X190355136Y-103065146D01*
X190263368Y-103083400D01*
X190076232Y-103083400D01*
X189984464Y-103065146D01*
X189892695Y-103046892D01*
X189719806Y-102975279D01*
X189564210Y-102871313D01*
X189431887Y-102738990D01*
X189327921Y-102583394D01*
X189256308Y-102410505D01*
X189219800Y-102226967D01*
X189219800Y-102039833D01*
X189256308Y-101856295D01*
X189327921Y-101683406D01*
X189431887Y-101527810D01*
X189564210Y-101395487D01*
X189719806Y-101291521D01*
X189892695Y-101219908D01*
X190011707Y-101196235D01*
X190076232Y-101183400D01*
X190263368Y-101183400D01*
X190327893Y-101196235D01*
X190327893Y-101196235D01*
G37*
G36*
X134240707Y-100557597D02*
G01*
X134317836Y-100565193D01*
X134515762Y-100625233D01*
X134515765Y-100625234D01*
X134698170Y-100722732D01*
X134858055Y-100853945D01*
X134989268Y-101013830D01*
X135086766Y-101196235D01*
X135086767Y-101196238D01*
X135146807Y-101394164D01*
X135167080Y-101600000D01*
X135146807Y-101805836D01*
X135131500Y-101856295D01*
X135086766Y-102003765D01*
X134989268Y-102186170D01*
X134858055Y-102346055D01*
X134698170Y-102477268D01*
X134515765Y-102574766D01*
X134515762Y-102574767D01*
X134317836Y-102634807D01*
X134240707Y-102642404D01*
X134163580Y-102650000D01*
X134060420Y-102650000D01*
X133983293Y-102642404D01*
X133906164Y-102634807D01*
X133708238Y-102574767D01*
X133708235Y-102574766D01*
X133525830Y-102477268D01*
X133365945Y-102346055D01*
X133234732Y-102186170D01*
X133137234Y-102003765D01*
X133092500Y-101856295D01*
X133077193Y-101805836D01*
X133056920Y-101600000D01*
X133077193Y-101394164D01*
X133137233Y-101196238D01*
X133137234Y-101196235D01*
X133234732Y-101013830D01*
X133365945Y-100853945D01*
X133525830Y-100722732D01*
X133708235Y-100625234D01*
X133708238Y-100625233D01*
X133906164Y-100565193D01*
X133983293Y-100557597D01*
X134060420Y-100550000D01*
X134163580Y-100550000D01*
X134240707Y-100557597D01*
X134240707Y-100557597D01*
G37*
G36*
X131700707Y-100557597D02*
G01*
X131777836Y-100565193D01*
X131975762Y-100625233D01*
X131975765Y-100625234D01*
X132158170Y-100722732D01*
X132318055Y-100853945D01*
X132449268Y-101013830D01*
X132546766Y-101196235D01*
X132546767Y-101196238D01*
X132606807Y-101394164D01*
X132627080Y-101600000D01*
X132606807Y-101805836D01*
X132591500Y-101856295D01*
X132546766Y-102003765D01*
X132449268Y-102186170D01*
X132318055Y-102346055D01*
X132158170Y-102477268D01*
X131975765Y-102574766D01*
X131975762Y-102574767D01*
X131777836Y-102634807D01*
X131700707Y-102642404D01*
X131623580Y-102650000D01*
X131520420Y-102650000D01*
X131443293Y-102642404D01*
X131366164Y-102634807D01*
X131168238Y-102574767D01*
X131168235Y-102574766D01*
X130985830Y-102477268D01*
X130825945Y-102346055D01*
X130694732Y-102186170D01*
X130597234Y-102003765D01*
X130552500Y-101856295D01*
X130537193Y-101805836D01*
X130516920Y-101600000D01*
X130537193Y-101394164D01*
X130597233Y-101196238D01*
X130597234Y-101196235D01*
X130694732Y-101013830D01*
X130825945Y-100853945D01*
X130985830Y-100722732D01*
X131168235Y-100625234D01*
X131168238Y-100625233D01*
X131366164Y-100565193D01*
X131443293Y-100557597D01*
X131520420Y-100550000D01*
X131623580Y-100550000D01*
X131700707Y-100557597D01*
X131700707Y-100557597D01*
G37*
G36*
X131700707Y-98017596D02*
G01*
X131777836Y-98025193D01*
X131975762Y-98085233D01*
X131975765Y-98085234D01*
X132158170Y-98182732D01*
X132318055Y-98313945D01*
X132449268Y-98473830D01*
X132546766Y-98656235D01*
X132546767Y-98656238D01*
X132606807Y-98854164D01*
X132627080Y-99060000D01*
X132606807Y-99265836D01*
X132546979Y-99463062D01*
X132546766Y-99463765D01*
X132449268Y-99646170D01*
X132318055Y-99806055D01*
X132158170Y-99937268D01*
X131975765Y-100034766D01*
X131975762Y-100034767D01*
X131777836Y-100094807D01*
X131700707Y-100102403D01*
X131623580Y-100110000D01*
X131520420Y-100110000D01*
X131443293Y-100102403D01*
X131366164Y-100094807D01*
X131168238Y-100034767D01*
X131168235Y-100034766D01*
X130985830Y-99937268D01*
X130825945Y-99806055D01*
X130694732Y-99646170D01*
X130597234Y-99463765D01*
X130597021Y-99463062D01*
X130537193Y-99265836D01*
X130516920Y-99060000D01*
X130537193Y-98854164D01*
X130597233Y-98656238D01*
X130597234Y-98656235D01*
X130694732Y-98473830D01*
X130825945Y-98313945D01*
X130985830Y-98182732D01*
X131168235Y-98085234D01*
X131168238Y-98085233D01*
X131366164Y-98025193D01*
X131443293Y-98017596D01*
X131520420Y-98010000D01*
X131623580Y-98010000D01*
X131700707Y-98017596D01*
X131700707Y-98017596D01*
G37*
G36*
X135162000Y-100110000D02*
G01*
X133062000Y-100110000D01*
X133062000Y-98010000D01*
X135162000Y-98010000D01*
X135162000Y-100110000D01*
X135162000Y-100110000D01*
G37*
G36*
X150910160Y-97805945D02*
G01*
X151026105Y-97829008D01*
X151198994Y-97900621D01*
X151354590Y-98004587D01*
X151486913Y-98136910D01*
X151590879Y-98292506D01*
X151662492Y-98465395D01*
X151699000Y-98648933D01*
X151699000Y-98836067D01*
X151662492Y-99019605D01*
X151590879Y-99192494D01*
X151486913Y-99348090D01*
X151354590Y-99480413D01*
X151198994Y-99584379D01*
X151026105Y-99655992D01*
X150934336Y-99674246D01*
X150842568Y-99692500D01*
X150655432Y-99692500D01*
X150563664Y-99674246D01*
X150471895Y-99655992D01*
X150299006Y-99584379D01*
X150143410Y-99480413D01*
X150011087Y-99348090D01*
X149907121Y-99192494D01*
X149835508Y-99019605D01*
X149799000Y-98836067D01*
X149799000Y-98648933D01*
X149835508Y-98465395D01*
X149907121Y-98292506D01*
X150011087Y-98136910D01*
X150143410Y-98004587D01*
X150299006Y-97900621D01*
X150471895Y-97829008D01*
X150587840Y-97805945D01*
X150655432Y-97792500D01*
X150842568Y-97792500D01*
X150910160Y-97805945D01*
X150910160Y-97805945D01*
G37*
G36*
X210567707Y-97509596D02*
G01*
X210644836Y-97517193D01*
X210842762Y-97577233D01*
X210842765Y-97577234D01*
X211025170Y-97674732D01*
X211185055Y-97805945D01*
X211316268Y-97965830D01*
X211413766Y-98148235D01*
X211413767Y-98148238D01*
X211473807Y-98346164D01*
X211494080Y-98552000D01*
X211473807Y-98757836D01*
X211413767Y-98955762D01*
X211413766Y-98955765D01*
X211316268Y-99138170D01*
X211185055Y-99298055D01*
X211025170Y-99429268D01*
X210842765Y-99526766D01*
X210842762Y-99526767D01*
X210644836Y-99586807D01*
X210567707Y-99594403D01*
X210490580Y-99602000D01*
X210387420Y-99602000D01*
X210310293Y-99594403D01*
X210233164Y-99586807D01*
X210035238Y-99526767D01*
X210035235Y-99526766D01*
X209852830Y-99429268D01*
X209692945Y-99298055D01*
X209561732Y-99138170D01*
X209464234Y-98955765D01*
X209464233Y-98955762D01*
X209404193Y-98757836D01*
X209383920Y-98552000D01*
X209404193Y-98346164D01*
X209464233Y-98148238D01*
X209464234Y-98148235D01*
X209561732Y-97965830D01*
X209692945Y-97805945D01*
X209852830Y-97674732D01*
X210035235Y-97577234D01*
X210035238Y-97577233D01*
X210233164Y-97517193D01*
X210310293Y-97509596D01*
X210387420Y-97502000D01*
X210490580Y-97502000D01*
X210567707Y-97509596D01*
X210567707Y-97509596D01*
G37*
G36*
X176447958Y-97386937D02*
G01*
X176598653Y-97432650D01*
X176737534Y-97506884D01*
X176859265Y-97606785D01*
X176959166Y-97728516D01*
X177033400Y-97867397D01*
X177079113Y-98018092D01*
X177090680Y-98135537D01*
X177090680Y-98714463D01*
X177079113Y-98831908D01*
X177033400Y-98982603D01*
X176959166Y-99121484D01*
X176859265Y-99243215D01*
X176737533Y-99343116D01*
X176598652Y-99417350D01*
X176447957Y-99463063D01*
X176291240Y-99478498D01*
X176134522Y-99463063D01*
X175983827Y-99417350D01*
X175844946Y-99343116D01*
X175723215Y-99243215D01*
X175623314Y-99121483D01*
X175549080Y-98982602D01*
X175503367Y-98831907D01*
X175491800Y-98714462D01*
X175491800Y-98135537D01*
X175503367Y-98018092D01*
X175549080Y-97867397D01*
X175623314Y-97728516D01*
X175723216Y-97606785D01*
X175844947Y-97506884D01*
X175983828Y-97432650D01*
X176134523Y-97386937D01*
X176291240Y-97371502D01*
X176447958Y-97386937D01*
X176447958Y-97386937D01*
G37*
G36*
X178449478Y-97386937D02*
G01*
X178600173Y-97432650D01*
X178739054Y-97506884D01*
X178860785Y-97606785D01*
X178960686Y-97728516D01*
X179034920Y-97867397D01*
X179080633Y-98018092D01*
X179092200Y-98135537D01*
X179092200Y-98714463D01*
X179080633Y-98831908D01*
X179034920Y-98982603D01*
X178960686Y-99121484D01*
X178860785Y-99243215D01*
X178739053Y-99343116D01*
X178600172Y-99417350D01*
X178449477Y-99463063D01*
X178292760Y-99478498D01*
X178136042Y-99463063D01*
X177985347Y-99417350D01*
X177846466Y-99343116D01*
X177724735Y-99243215D01*
X177624834Y-99121483D01*
X177550600Y-98982602D01*
X177504887Y-98831907D01*
X177493320Y-98714462D01*
X177493320Y-98135537D01*
X177504887Y-98018092D01*
X177550600Y-97867397D01*
X177624834Y-97728516D01*
X177724736Y-97606785D01*
X177846467Y-97506884D01*
X177985348Y-97432650D01*
X178136043Y-97386937D01*
X178292760Y-97371502D01*
X178449478Y-97386937D01*
X178449478Y-97386937D01*
G37*
G36*
X174448978Y-97386937D02*
G01*
X174599673Y-97432650D01*
X174738554Y-97506884D01*
X174860285Y-97606785D01*
X174960186Y-97728516D01*
X175034420Y-97867397D01*
X175080133Y-98018092D01*
X175091700Y-98135537D01*
X175091700Y-98714463D01*
X175080133Y-98831908D01*
X175034420Y-98982603D01*
X174960186Y-99121484D01*
X174860285Y-99243215D01*
X174738553Y-99343116D01*
X174599672Y-99417350D01*
X174448977Y-99463063D01*
X174292260Y-99478498D01*
X174135542Y-99463063D01*
X173984847Y-99417350D01*
X173845966Y-99343116D01*
X173724235Y-99243215D01*
X173624334Y-99121483D01*
X173550100Y-98982602D01*
X173504387Y-98831907D01*
X173492820Y-98714462D01*
X173492820Y-98135537D01*
X173504387Y-98018092D01*
X173550100Y-97867397D01*
X173624334Y-97728516D01*
X173724236Y-97606785D01*
X173845967Y-97506884D01*
X173984848Y-97432650D01*
X174135543Y-97386937D01*
X174292260Y-97371502D01*
X174448978Y-97386937D01*
X174448978Y-97386937D01*
G37*
G36*
X181093720Y-99474630D02*
G01*
X179494840Y-99474630D01*
X179494840Y-97375370D01*
X181093720Y-97375370D01*
X181093720Y-99474630D01*
X181093720Y-99474630D01*
G37*
G36*
X131700707Y-95477597D02*
G01*
X131777836Y-95485193D01*
X131975762Y-95545233D01*
X131975765Y-95545234D01*
X132158170Y-95642732D01*
X132318055Y-95773945D01*
X132449268Y-95933830D01*
X132546766Y-96116235D01*
X132546767Y-96116238D01*
X132606807Y-96314164D01*
X132627080Y-96520000D01*
X132606807Y-96725836D01*
X132546767Y-96923762D01*
X132546766Y-96923765D01*
X132449268Y-97106170D01*
X132318055Y-97266055D01*
X132158170Y-97397268D01*
X131975765Y-97494766D01*
X131975762Y-97494767D01*
X131777836Y-97554807D01*
X131700707Y-97562403D01*
X131623580Y-97570000D01*
X131520420Y-97570000D01*
X131443293Y-97562403D01*
X131366164Y-97554807D01*
X131168238Y-97494767D01*
X131168235Y-97494766D01*
X130985830Y-97397268D01*
X130825945Y-97266055D01*
X130694732Y-97106170D01*
X130597234Y-96923765D01*
X130597233Y-96923762D01*
X130537193Y-96725836D01*
X130516920Y-96520000D01*
X130537193Y-96314164D01*
X130597233Y-96116238D01*
X130597234Y-96116235D01*
X130694732Y-95933830D01*
X130825945Y-95773945D01*
X130985830Y-95642732D01*
X131168235Y-95545234D01*
X131168238Y-95545233D01*
X131366164Y-95485193D01*
X131443293Y-95477597D01*
X131520420Y-95470000D01*
X131623580Y-95470000D01*
X131700707Y-95477597D01*
X131700707Y-95477597D01*
G37*
G36*
X210567707Y-94969596D02*
G01*
X210644836Y-94977193D01*
X210842762Y-95037233D01*
X210842765Y-95037234D01*
X211025170Y-95134732D01*
X211185055Y-95265945D01*
X211316268Y-95425830D01*
X211413766Y-95608235D01*
X211413767Y-95608238D01*
X211473807Y-95806164D01*
X211494080Y-96012000D01*
X211473807Y-96217836D01*
X211413767Y-96415762D01*
X211413766Y-96415765D01*
X211316268Y-96598170D01*
X211185055Y-96758055D01*
X211025170Y-96889268D01*
X210842765Y-96986766D01*
X210842762Y-96986767D01*
X210644836Y-97046807D01*
X210567707Y-97054403D01*
X210490580Y-97062000D01*
X210387420Y-97062000D01*
X210310293Y-97054403D01*
X210233164Y-97046807D01*
X210035238Y-96986767D01*
X210035235Y-96986766D01*
X209852830Y-96889268D01*
X209692945Y-96758055D01*
X209561732Y-96598170D01*
X209464234Y-96415765D01*
X209464233Y-96415762D01*
X209404193Y-96217836D01*
X209383920Y-96012000D01*
X209404193Y-95806164D01*
X209464233Y-95608238D01*
X209464234Y-95608235D01*
X209561732Y-95425830D01*
X209692945Y-95265945D01*
X209852830Y-95134732D01*
X210035235Y-95037234D01*
X210035238Y-95037233D01*
X210233164Y-94977193D01*
X210310293Y-94969596D01*
X210387420Y-94962000D01*
X210490580Y-94962000D01*
X210567707Y-94969596D01*
X210567707Y-94969596D01*
G37*
G36*
X131700707Y-92937596D02*
G01*
X131777836Y-92945193D01*
X131975762Y-93005233D01*
X131975765Y-93005234D01*
X132158170Y-93102732D01*
X132318055Y-93233945D01*
X132449268Y-93393830D01*
X132546766Y-93576235D01*
X132546767Y-93576238D01*
X132606807Y-93774164D01*
X132627080Y-93980000D01*
X132606807Y-94185836D01*
X132546767Y-94383762D01*
X132546766Y-94383765D01*
X132449268Y-94566170D01*
X132318055Y-94726055D01*
X132158170Y-94857268D01*
X131975765Y-94954766D01*
X131975762Y-94954767D01*
X131777836Y-95014807D01*
X131700707Y-95022403D01*
X131623580Y-95030000D01*
X131520420Y-95030000D01*
X131443293Y-95022403D01*
X131366164Y-95014807D01*
X131168238Y-94954767D01*
X131168235Y-94954766D01*
X130985830Y-94857268D01*
X130825945Y-94726055D01*
X130694732Y-94566170D01*
X130597234Y-94383765D01*
X130597233Y-94383762D01*
X130537193Y-94185836D01*
X130516920Y-93980000D01*
X130537193Y-93774164D01*
X130597233Y-93576238D01*
X130597234Y-93576235D01*
X130694732Y-93393830D01*
X130825945Y-93233945D01*
X130985830Y-93102732D01*
X131168235Y-93005234D01*
X131168238Y-93005233D01*
X131366164Y-92945193D01*
X131443293Y-92937596D01*
X131520420Y-92930000D01*
X131623580Y-92930000D01*
X131700707Y-92937596D01*
X131700707Y-92937596D01*
G37*
G36*
X211489000Y-94522000D02*
G01*
X209389000Y-94522000D01*
X209389000Y-92422000D01*
X211489000Y-92422000D01*
X211489000Y-94522000D01*
X211489000Y-94522000D01*
G37*
G36*
X176447957Y-91417937D02*
G01*
X176598652Y-91463650D01*
X176737533Y-91537884D01*
X176859265Y-91637785D01*
X176959166Y-91759516D01*
X177033400Y-91898397D01*
X177079113Y-92049092D01*
X177090680Y-92166537D01*
X177090680Y-92745463D01*
X177079113Y-92862908D01*
X177033400Y-93013603D01*
X176959166Y-93152484D01*
X176859265Y-93274215D01*
X176737534Y-93374116D01*
X176598653Y-93448350D01*
X176447958Y-93494063D01*
X176291240Y-93509498D01*
X176134523Y-93494063D01*
X175983828Y-93448350D01*
X175844947Y-93374116D01*
X175723216Y-93274215D01*
X175623314Y-93152484D01*
X175549080Y-93013603D01*
X175503367Y-92862908D01*
X175491800Y-92745463D01*
X175491800Y-92166538D01*
X175503367Y-92049093D01*
X175549080Y-91898398D01*
X175623314Y-91759517D01*
X175723215Y-91637785D01*
X175844946Y-91537884D01*
X175983827Y-91463650D01*
X176134522Y-91417937D01*
X176291240Y-91402502D01*
X176447957Y-91417937D01*
X176447957Y-91417937D01*
G37*
G36*
X180448457Y-91417937D02*
G01*
X180599152Y-91463650D01*
X180738033Y-91537884D01*
X180859765Y-91637785D01*
X180959666Y-91759516D01*
X181033900Y-91898397D01*
X181079613Y-92049092D01*
X181091180Y-92166537D01*
X181091180Y-92745463D01*
X181079613Y-92862908D01*
X181033900Y-93013603D01*
X180959666Y-93152484D01*
X180859765Y-93274215D01*
X180738034Y-93374116D01*
X180599153Y-93448350D01*
X180448458Y-93494063D01*
X180291740Y-93509498D01*
X180135023Y-93494063D01*
X179984328Y-93448350D01*
X179845447Y-93374116D01*
X179723716Y-93274215D01*
X179623814Y-93152484D01*
X179549580Y-93013603D01*
X179503867Y-92862908D01*
X179492300Y-92745463D01*
X179492300Y-92166538D01*
X179503867Y-92049093D01*
X179549580Y-91898398D01*
X179623814Y-91759517D01*
X179723715Y-91637785D01*
X179845446Y-91537884D01*
X179984327Y-91463650D01*
X180135022Y-91417937D01*
X180291740Y-91402502D01*
X180448457Y-91417937D01*
X180448457Y-91417937D01*
G37*
G36*
X178449477Y-91417937D02*
G01*
X178600172Y-91463650D01*
X178739053Y-91537884D01*
X178860785Y-91637785D01*
X178960686Y-91759516D01*
X179034920Y-91898397D01*
X179080633Y-92049092D01*
X179092200Y-92166537D01*
X179092200Y-92745463D01*
X179080633Y-92862908D01*
X179034920Y-93013603D01*
X178960686Y-93152484D01*
X178860785Y-93274215D01*
X178739054Y-93374116D01*
X178600173Y-93448350D01*
X178449478Y-93494063D01*
X178292760Y-93509498D01*
X178136043Y-93494063D01*
X177985348Y-93448350D01*
X177846467Y-93374116D01*
X177724736Y-93274215D01*
X177624834Y-93152484D01*
X177550600Y-93013603D01*
X177504887Y-92862908D01*
X177493320Y-92745463D01*
X177493320Y-92166538D01*
X177504887Y-92049093D01*
X177550600Y-91898398D01*
X177624834Y-91759517D01*
X177724735Y-91637785D01*
X177846466Y-91537884D01*
X177985347Y-91463650D01*
X178136042Y-91417937D01*
X178292760Y-91402502D01*
X178449477Y-91417937D01*
X178449477Y-91417937D01*
G37*
G36*
X175089160Y-93505630D02*
G01*
X173490280Y-93505630D01*
X173490280Y-91406370D01*
X175089160Y-91406370D01*
X175089160Y-93505630D01*
X175089160Y-93505630D01*
G37*
G36*
X131700707Y-90397597D02*
G01*
X131777836Y-90405193D01*
X131975762Y-90465233D01*
X131975765Y-90465234D01*
X132158170Y-90562732D01*
X132318055Y-90693945D01*
X132449268Y-90853830D01*
X132546766Y-91036235D01*
X132546767Y-91036238D01*
X132606807Y-91234164D01*
X132627080Y-91440000D01*
X132606807Y-91645836D01*
X132572321Y-91759521D01*
X132546766Y-91843765D01*
X132449268Y-92026170D01*
X132318055Y-92186055D01*
X132158170Y-92317268D01*
X131975765Y-92414766D01*
X131975762Y-92414767D01*
X131777836Y-92474807D01*
X131700707Y-92482404D01*
X131623580Y-92490000D01*
X131520420Y-92490000D01*
X131443293Y-92482404D01*
X131366164Y-92474807D01*
X131168238Y-92414767D01*
X131168235Y-92414766D01*
X130985830Y-92317268D01*
X130825945Y-92186055D01*
X130694732Y-92026170D01*
X130597234Y-91843765D01*
X130571679Y-91759521D01*
X130537193Y-91645836D01*
X130516920Y-91440000D01*
X130537193Y-91234164D01*
X130597233Y-91036238D01*
X130597234Y-91036235D01*
X130694732Y-90853830D01*
X130825945Y-90693945D01*
X130985830Y-90562732D01*
X131168235Y-90465234D01*
X131168238Y-90465233D01*
X131366164Y-90405193D01*
X131443293Y-90397597D01*
X131520420Y-90390000D01*
X131623580Y-90390000D01*
X131700707Y-90397597D01*
X131700707Y-90397597D01*
G37*
G36*
X162592936Y-86647454D02*
G01*
X162684705Y-86665708D01*
X162857594Y-86737321D01*
X163013190Y-86841287D01*
X163145513Y-86973610D01*
X163249479Y-87129206D01*
X163321092Y-87302095D01*
X163357600Y-87485633D01*
X163357600Y-87672767D01*
X163321092Y-87856305D01*
X163249479Y-88029194D01*
X163145513Y-88184790D01*
X163013190Y-88317113D01*
X162857594Y-88421079D01*
X162684705Y-88492692D01*
X162592936Y-88510946D01*
X162501168Y-88529200D01*
X162314032Y-88529200D01*
X162222264Y-88510946D01*
X162130495Y-88492692D01*
X161957606Y-88421079D01*
X161802010Y-88317113D01*
X161669687Y-88184790D01*
X161565721Y-88029194D01*
X161494108Y-87856305D01*
X161457600Y-87672767D01*
X161457600Y-87485633D01*
X161494108Y-87302095D01*
X161565721Y-87129206D01*
X161669687Y-86973610D01*
X161802010Y-86841287D01*
X161957606Y-86737321D01*
X162130495Y-86665708D01*
X162222264Y-86647454D01*
X162314032Y-86629200D01*
X162501168Y-86629200D01*
X162592936Y-86647454D01*
X162592936Y-86647454D01*
G37*
G36*
X167672936Y-86647454D02*
G01*
X167764705Y-86665708D01*
X167937594Y-86737321D01*
X168093190Y-86841287D01*
X168225513Y-86973610D01*
X168329479Y-87129206D01*
X168401092Y-87302095D01*
X168437600Y-87485633D01*
X168437600Y-87672767D01*
X168401092Y-87856305D01*
X168329479Y-88029194D01*
X168225513Y-88184790D01*
X168093190Y-88317113D01*
X167937594Y-88421079D01*
X167764705Y-88492692D01*
X167672936Y-88510946D01*
X167581168Y-88529200D01*
X167394032Y-88529200D01*
X167302264Y-88510946D01*
X167210495Y-88492692D01*
X167037606Y-88421079D01*
X166882010Y-88317113D01*
X166749687Y-88184790D01*
X166645721Y-88029194D01*
X166574108Y-87856305D01*
X166537600Y-87672767D01*
X166537600Y-87485633D01*
X166574108Y-87302095D01*
X166645721Y-87129206D01*
X166749687Y-86973610D01*
X166882010Y-86841287D01*
X167037606Y-86737321D01*
X167210495Y-86665708D01*
X167302264Y-86647454D01*
X167394032Y-86629200D01*
X167581168Y-86629200D01*
X167672936Y-86647454D01*
X167672936Y-86647454D01*
G37*
G36*
X132240630Y-87809680D02*
G01*
X130141370Y-87809680D01*
X130141370Y-86210800D01*
X132240630Y-86210800D01*
X132240630Y-87809680D01*
X132240630Y-87809680D01*
G37*
G36*
X133923207Y-84238097D02*
G01*
X134000336Y-84245693D01*
X134198262Y-84305733D01*
X134198265Y-84305734D01*
X134380670Y-84403232D01*
X134540555Y-84534445D01*
X134671768Y-84694330D01*
X134769266Y-84876735D01*
X134769267Y-84876738D01*
X134829307Y-85074664D01*
X134849580Y-85280500D01*
X134829307Y-85486336D01*
X134801112Y-85579283D01*
X134769266Y-85684265D01*
X134671768Y-85866670D01*
X134540555Y-86026555D01*
X134380670Y-86157768D01*
X134198265Y-86255266D01*
X134198262Y-86255267D01*
X134000336Y-86315307D01*
X133923207Y-86322903D01*
X133846080Y-86330500D01*
X133742920Y-86330500D01*
X133665793Y-86322903D01*
X133588664Y-86315307D01*
X133390738Y-86255267D01*
X133390735Y-86255266D01*
X133208330Y-86157768D01*
X133048445Y-86026555D01*
X132917232Y-85866670D01*
X132819734Y-85684265D01*
X132787888Y-85579283D01*
X132759693Y-85486336D01*
X132739420Y-85280500D01*
X132759693Y-85074664D01*
X132819733Y-84876738D01*
X132819734Y-84876735D01*
X132917232Y-84694330D01*
X133048445Y-84534445D01*
X133208330Y-84403232D01*
X133390735Y-84305734D01*
X133390738Y-84305733D01*
X133588664Y-84245693D01*
X133665793Y-84238097D01*
X133742920Y-84230500D01*
X133846080Y-84230500D01*
X133923207Y-84238097D01*
X133923207Y-84238097D01*
G37*
G36*
X131597908Y-84223387D02*
G01*
X131748603Y-84269100D01*
X131887484Y-84343334D01*
X132009215Y-84443235D01*
X132109116Y-84564966D01*
X132183350Y-84703847D01*
X132229063Y-84854542D01*
X132244498Y-85011260D01*
X132229063Y-85167978D01*
X132183350Y-85318673D01*
X132109116Y-85457554D01*
X132009215Y-85579285D01*
X131887484Y-85679186D01*
X131748603Y-85753420D01*
X131597908Y-85799133D01*
X131480463Y-85810700D01*
X130901537Y-85810700D01*
X130784092Y-85799133D01*
X130633397Y-85753420D01*
X130494516Y-85679186D01*
X130372785Y-85579285D01*
X130272884Y-85457554D01*
X130198650Y-85318673D01*
X130152937Y-85167978D01*
X130137502Y-85011260D01*
X130152937Y-84854542D01*
X130198650Y-84703847D01*
X130272884Y-84564966D01*
X130372785Y-84443235D01*
X130494516Y-84343334D01*
X130633397Y-84269100D01*
X130784092Y-84223387D01*
X130901537Y-84211820D01*
X131480463Y-84211820D01*
X131597908Y-84223387D01*
X131597908Y-84223387D01*
G37*
G36*
X131597908Y-82221867D02*
G01*
X131748603Y-82267580D01*
X131887484Y-82341814D01*
X132009215Y-82441715D01*
X132109116Y-82563446D01*
X132183350Y-82702327D01*
X132229063Y-82853022D01*
X132244498Y-83009740D01*
X132229063Y-83166458D01*
X132183350Y-83317153D01*
X132109116Y-83456034D01*
X132009215Y-83577765D01*
X131887484Y-83677666D01*
X131748603Y-83751900D01*
X131597908Y-83797613D01*
X131480463Y-83809180D01*
X130901537Y-83809180D01*
X130784092Y-83797613D01*
X130633397Y-83751900D01*
X130494516Y-83677666D01*
X130372785Y-83577765D01*
X130272884Y-83456034D01*
X130198650Y-83317153D01*
X130152937Y-83166458D01*
X130137502Y-83009740D01*
X130152937Y-82853022D01*
X130198650Y-82702327D01*
X130272884Y-82563446D01*
X130372785Y-82441715D01*
X130494516Y-82341814D01*
X130633397Y-82267580D01*
X130784092Y-82221867D01*
X130901537Y-82210300D01*
X131480463Y-82210300D01*
X131597908Y-82221867D01*
X131597908Y-82221867D01*
G37*
G36*
X134844500Y-83790500D02*
G01*
X132744500Y-83790500D01*
X132744500Y-81690500D01*
X134844500Y-81690500D01*
X134844500Y-83790500D01*
X134844500Y-83790500D01*
G37*
G36*
X131597908Y-80222887D02*
G01*
X131748603Y-80268600D01*
X131887484Y-80342834D01*
X132009215Y-80442735D01*
X132109116Y-80564466D01*
X132183350Y-80703347D01*
X132229063Y-80854042D01*
X132244498Y-81010760D01*
X132229063Y-81167478D01*
X132183350Y-81318173D01*
X132109116Y-81457054D01*
X132009215Y-81578785D01*
X131887484Y-81678686D01*
X131748603Y-81752920D01*
X131597908Y-81798633D01*
X131480463Y-81810200D01*
X130901537Y-81810200D01*
X130784092Y-81798633D01*
X130633397Y-81752920D01*
X130494516Y-81678686D01*
X130372785Y-81578785D01*
X130272884Y-81457054D01*
X130198650Y-81318173D01*
X130152937Y-81167478D01*
X130137502Y-81010760D01*
X130152937Y-80854042D01*
X130198650Y-80703347D01*
X130272884Y-80564466D01*
X130372785Y-80442735D01*
X130494516Y-80342834D01*
X130633397Y-80268600D01*
X130784092Y-80222887D01*
X130901537Y-80211320D01*
X131480463Y-80211320D01*
X131597908Y-80222887D01*
X131597908Y-80222887D01*
G37*
G36*
X182301100Y-75710589D02*
G01*
X182501594Y-75771408D01*
X182686359Y-75870167D01*
X182686362Y-75870169D01*
X182686363Y-75870170D01*
X182848318Y-76003082D01*
X182969750Y-76151049D01*
X182981233Y-76165041D01*
X183079992Y-76349806D01*
X183140811Y-76550300D01*
X183161346Y-76758800D01*
X183140811Y-76967300D01*
X183079992Y-77167794D01*
X182981233Y-77352559D01*
X182981231Y-77352562D01*
X182981230Y-77352563D01*
X182848318Y-77514518D01*
X182687830Y-77646226D01*
X182686359Y-77647433D01*
X182501594Y-77746192D01*
X182301100Y-77807011D01*
X182144851Y-77822400D01*
X182040349Y-77822400D01*
X181884100Y-77807011D01*
X181683606Y-77746192D01*
X181498841Y-77647433D01*
X181497370Y-77646226D01*
X181336882Y-77514518D01*
X181203970Y-77352563D01*
X181203969Y-77352562D01*
X181203967Y-77352559D01*
X181105208Y-77167794D01*
X181044389Y-76967300D01*
X181023854Y-76758800D01*
X181044389Y-76550300D01*
X181105208Y-76349806D01*
X181203967Y-76165041D01*
X181215450Y-76151049D01*
X181336882Y-76003082D01*
X181498837Y-75870170D01*
X181498838Y-75870169D01*
X181498841Y-75870167D01*
X181683606Y-75771408D01*
X181884100Y-75710589D01*
X182040349Y-75695200D01*
X182144851Y-75695200D01*
X182301100Y-75710589D01*
X182301100Y-75710589D01*
G37*
G36*
X149281100Y-75710589D02*
G01*
X149481594Y-75771408D01*
X149666359Y-75870167D01*
X149666362Y-75870169D01*
X149666363Y-75870170D01*
X149828318Y-76003082D01*
X149949750Y-76151049D01*
X149961233Y-76165041D01*
X150059992Y-76349806D01*
X150120811Y-76550300D01*
X150141346Y-76758800D01*
X150120811Y-76967300D01*
X150059992Y-77167794D01*
X149961233Y-77352559D01*
X149961231Y-77352562D01*
X149961230Y-77352563D01*
X149828318Y-77514518D01*
X149667830Y-77646226D01*
X149666359Y-77647433D01*
X149481594Y-77746192D01*
X149281100Y-77807011D01*
X149124851Y-77822400D01*
X149020349Y-77822400D01*
X148864100Y-77807011D01*
X148663606Y-77746192D01*
X148478841Y-77647433D01*
X148477370Y-77646226D01*
X148316882Y-77514518D01*
X148183970Y-77352563D01*
X148183969Y-77352562D01*
X148183967Y-77352559D01*
X148085208Y-77167794D01*
X148024389Y-76967300D01*
X148003854Y-76758800D01*
X148024389Y-76550300D01*
X148085208Y-76349806D01*
X148183967Y-76165041D01*
X148195450Y-76151049D01*
X148316882Y-76003082D01*
X148478837Y-75870170D01*
X148478838Y-75870169D01*
X148478841Y-75870167D01*
X148663606Y-75771408D01*
X148864100Y-75710589D01*
X149020349Y-75695200D01*
X149124851Y-75695200D01*
X149281100Y-75710589D01*
X149281100Y-75710589D01*
G37*
G36*
X179761100Y-75710589D02*
G01*
X179961594Y-75771408D01*
X180146359Y-75870167D01*
X180146362Y-75870169D01*
X180146363Y-75870170D01*
X180308318Y-76003082D01*
X180429750Y-76151049D01*
X180441233Y-76165041D01*
X180539992Y-76349806D01*
X180600811Y-76550300D01*
X180621346Y-76758800D01*
X180600811Y-76967300D01*
X180539992Y-77167794D01*
X180441233Y-77352559D01*
X180441231Y-77352562D01*
X180441230Y-77352563D01*
X180308318Y-77514518D01*
X180147830Y-77646226D01*
X180146359Y-77647433D01*
X179961594Y-77746192D01*
X179761100Y-77807011D01*
X179604851Y-77822400D01*
X179500349Y-77822400D01*
X179344100Y-77807011D01*
X179143606Y-77746192D01*
X178958841Y-77647433D01*
X178957370Y-77646226D01*
X178796882Y-77514518D01*
X178663970Y-77352563D01*
X178663969Y-77352562D01*
X178663967Y-77352559D01*
X178565208Y-77167794D01*
X178504389Y-76967300D01*
X178483854Y-76758800D01*
X178504389Y-76550300D01*
X178565208Y-76349806D01*
X178663967Y-76165041D01*
X178675450Y-76151049D01*
X178796882Y-76003082D01*
X178958837Y-75870170D01*
X178958838Y-75870169D01*
X178958841Y-75870167D01*
X179143606Y-75771408D01*
X179344100Y-75710589D01*
X179500349Y-75695200D01*
X179604851Y-75695200D01*
X179761100Y-75710589D01*
X179761100Y-75710589D01*
G37*
G36*
X177221100Y-75710589D02*
G01*
X177421594Y-75771408D01*
X177606359Y-75870167D01*
X177606362Y-75870169D01*
X177606363Y-75870170D01*
X177768318Y-76003082D01*
X177889750Y-76151049D01*
X177901233Y-76165041D01*
X177999992Y-76349806D01*
X178060811Y-76550300D01*
X178081346Y-76758800D01*
X178060811Y-76967300D01*
X177999992Y-77167794D01*
X177901233Y-77352559D01*
X177901231Y-77352562D01*
X177901230Y-77352563D01*
X177768318Y-77514518D01*
X177607830Y-77646226D01*
X177606359Y-77647433D01*
X177421594Y-77746192D01*
X177221100Y-77807011D01*
X177064851Y-77822400D01*
X176960349Y-77822400D01*
X176804100Y-77807011D01*
X176603606Y-77746192D01*
X176418841Y-77647433D01*
X176417370Y-77646226D01*
X176256882Y-77514518D01*
X176123970Y-77352563D01*
X176123969Y-77352562D01*
X176123967Y-77352559D01*
X176025208Y-77167794D01*
X175964389Y-76967300D01*
X175943854Y-76758800D01*
X175964389Y-76550300D01*
X176025208Y-76349806D01*
X176123967Y-76165041D01*
X176135450Y-76151049D01*
X176256882Y-76003082D01*
X176418837Y-75870170D01*
X176418838Y-75870169D01*
X176418841Y-75870167D01*
X176603606Y-75771408D01*
X176804100Y-75710589D01*
X176960349Y-75695200D01*
X177064851Y-75695200D01*
X177221100Y-75710589D01*
X177221100Y-75710589D01*
G37*
G36*
X174681100Y-75710589D02*
G01*
X174881594Y-75771408D01*
X175066359Y-75870167D01*
X175066362Y-75870169D01*
X175066363Y-75870170D01*
X175228318Y-76003082D01*
X175349750Y-76151049D01*
X175361233Y-76165041D01*
X175459992Y-76349806D01*
X175520811Y-76550300D01*
X175541346Y-76758800D01*
X175520811Y-76967300D01*
X175459992Y-77167794D01*
X175361233Y-77352559D01*
X175361231Y-77352562D01*
X175361230Y-77352563D01*
X175228318Y-77514518D01*
X175067830Y-77646226D01*
X175066359Y-77647433D01*
X174881594Y-77746192D01*
X174681100Y-77807011D01*
X174524851Y-77822400D01*
X174420349Y-77822400D01*
X174264100Y-77807011D01*
X174063606Y-77746192D01*
X173878841Y-77647433D01*
X173877370Y-77646226D01*
X173716882Y-77514518D01*
X173583970Y-77352563D01*
X173583969Y-77352562D01*
X173583967Y-77352559D01*
X173485208Y-77167794D01*
X173424389Y-76967300D01*
X173403854Y-76758800D01*
X173424389Y-76550300D01*
X173485208Y-76349806D01*
X173583967Y-76165041D01*
X173595450Y-76151049D01*
X173716882Y-76003082D01*
X173878837Y-75870170D01*
X173878838Y-75870169D01*
X173878841Y-75870167D01*
X174063606Y-75771408D01*
X174264100Y-75710589D01*
X174420349Y-75695200D01*
X174524851Y-75695200D01*
X174681100Y-75710589D01*
X174681100Y-75710589D01*
G37*
G36*
X172141100Y-75710589D02*
G01*
X172341594Y-75771408D01*
X172526359Y-75870167D01*
X172526362Y-75870169D01*
X172526363Y-75870170D01*
X172688318Y-76003082D01*
X172809750Y-76151049D01*
X172821233Y-76165041D01*
X172919992Y-76349806D01*
X172980811Y-76550300D01*
X173001346Y-76758800D01*
X172980811Y-76967300D01*
X172919992Y-77167794D01*
X172821233Y-77352559D01*
X172821231Y-77352562D01*
X172821230Y-77352563D01*
X172688318Y-77514518D01*
X172527830Y-77646226D01*
X172526359Y-77647433D01*
X172341594Y-77746192D01*
X172141100Y-77807011D01*
X171984851Y-77822400D01*
X171880349Y-77822400D01*
X171724100Y-77807011D01*
X171523606Y-77746192D01*
X171338841Y-77647433D01*
X171337370Y-77646226D01*
X171176882Y-77514518D01*
X171043970Y-77352563D01*
X171043969Y-77352562D01*
X171043967Y-77352559D01*
X170945208Y-77167794D01*
X170884389Y-76967300D01*
X170863854Y-76758800D01*
X170884389Y-76550300D01*
X170945208Y-76349806D01*
X171043967Y-76165041D01*
X171055450Y-76151049D01*
X171176882Y-76003082D01*
X171338837Y-75870170D01*
X171338838Y-75870169D01*
X171338841Y-75870167D01*
X171523606Y-75771408D01*
X171724100Y-75710589D01*
X171880349Y-75695200D01*
X171984851Y-75695200D01*
X172141100Y-75710589D01*
X172141100Y-75710589D01*
G37*
G36*
X169601100Y-75710589D02*
G01*
X169801594Y-75771408D01*
X169986359Y-75870167D01*
X169986362Y-75870169D01*
X169986363Y-75870170D01*
X170148318Y-76003082D01*
X170269750Y-76151049D01*
X170281233Y-76165041D01*
X170379992Y-76349806D01*
X170440811Y-76550300D01*
X170461346Y-76758800D01*
X170440811Y-76967300D01*
X170379992Y-77167794D01*
X170281233Y-77352559D01*
X170281231Y-77352562D01*
X170281230Y-77352563D01*
X170148318Y-77514518D01*
X169987830Y-77646226D01*
X169986359Y-77647433D01*
X169801594Y-77746192D01*
X169601100Y-77807011D01*
X169444851Y-77822400D01*
X169340349Y-77822400D01*
X169184100Y-77807011D01*
X168983606Y-77746192D01*
X168798841Y-77647433D01*
X168797370Y-77646226D01*
X168636882Y-77514518D01*
X168503970Y-77352563D01*
X168503969Y-77352562D01*
X168503967Y-77352559D01*
X168405208Y-77167794D01*
X168344389Y-76967300D01*
X168323854Y-76758800D01*
X168344389Y-76550300D01*
X168405208Y-76349806D01*
X168503967Y-76165041D01*
X168515450Y-76151049D01*
X168636882Y-76003082D01*
X168798837Y-75870170D01*
X168798838Y-75870169D01*
X168798841Y-75870167D01*
X168983606Y-75771408D01*
X169184100Y-75710589D01*
X169340349Y-75695200D01*
X169444851Y-75695200D01*
X169601100Y-75710589D01*
X169601100Y-75710589D01*
G37*
G36*
X167061100Y-75710589D02*
G01*
X167261594Y-75771408D01*
X167446359Y-75870167D01*
X167446362Y-75870169D01*
X167446363Y-75870170D01*
X167608318Y-76003082D01*
X167729750Y-76151049D01*
X167741233Y-76165041D01*
X167839992Y-76349806D01*
X167900811Y-76550300D01*
X167921346Y-76758800D01*
X167900811Y-76967300D01*
X167839992Y-77167794D01*
X167741233Y-77352559D01*
X167741231Y-77352562D01*
X167741230Y-77352563D01*
X167608318Y-77514518D01*
X167447830Y-77646226D01*
X167446359Y-77647433D01*
X167261594Y-77746192D01*
X167061100Y-77807011D01*
X166904851Y-77822400D01*
X166800349Y-77822400D01*
X166644100Y-77807011D01*
X166443606Y-77746192D01*
X166258841Y-77647433D01*
X166257370Y-77646226D01*
X166096882Y-77514518D01*
X165963970Y-77352563D01*
X165963969Y-77352562D01*
X165963967Y-77352559D01*
X165865208Y-77167794D01*
X165804389Y-76967300D01*
X165783854Y-76758800D01*
X165804389Y-76550300D01*
X165865208Y-76349806D01*
X165963967Y-76165041D01*
X165975450Y-76151049D01*
X166096882Y-76003082D01*
X166258837Y-75870170D01*
X166258838Y-75870169D01*
X166258841Y-75870167D01*
X166443606Y-75771408D01*
X166644100Y-75710589D01*
X166800349Y-75695200D01*
X166904851Y-75695200D01*
X167061100Y-75710589D01*
X167061100Y-75710589D01*
G37*
G36*
X164521100Y-75710589D02*
G01*
X164721594Y-75771408D01*
X164906359Y-75870167D01*
X164906362Y-75870169D01*
X164906363Y-75870170D01*
X165068318Y-76003082D01*
X165189750Y-76151049D01*
X165201233Y-76165041D01*
X165299992Y-76349806D01*
X165360811Y-76550300D01*
X165381346Y-76758800D01*
X165360811Y-76967300D01*
X165299992Y-77167794D01*
X165201233Y-77352559D01*
X165201231Y-77352562D01*
X165201230Y-77352563D01*
X165068318Y-77514518D01*
X164907830Y-77646226D01*
X164906359Y-77647433D01*
X164721594Y-77746192D01*
X164521100Y-77807011D01*
X164364851Y-77822400D01*
X164260349Y-77822400D01*
X164104100Y-77807011D01*
X163903606Y-77746192D01*
X163718841Y-77647433D01*
X163717370Y-77646226D01*
X163556882Y-77514518D01*
X163423970Y-77352563D01*
X163423969Y-77352562D01*
X163423967Y-77352559D01*
X163325208Y-77167794D01*
X163264389Y-76967300D01*
X163243854Y-76758800D01*
X163264389Y-76550300D01*
X163325208Y-76349806D01*
X163423967Y-76165041D01*
X163435450Y-76151049D01*
X163556882Y-76003082D01*
X163718837Y-75870170D01*
X163718838Y-75870169D01*
X163718841Y-75870167D01*
X163903606Y-75771408D01*
X164104100Y-75710589D01*
X164260349Y-75695200D01*
X164364851Y-75695200D01*
X164521100Y-75710589D01*
X164521100Y-75710589D01*
G37*
G36*
X184841100Y-75710589D02*
G01*
X185041594Y-75771408D01*
X185226359Y-75870167D01*
X185226362Y-75870169D01*
X185226363Y-75870170D01*
X185388318Y-76003082D01*
X185509750Y-76151049D01*
X185521233Y-76165041D01*
X185619992Y-76349806D01*
X185680811Y-76550300D01*
X185701346Y-76758800D01*
X185680811Y-76967300D01*
X185619992Y-77167794D01*
X185521233Y-77352559D01*
X185521231Y-77352562D01*
X185521230Y-77352563D01*
X185388318Y-77514518D01*
X185227830Y-77646226D01*
X185226359Y-77647433D01*
X185041594Y-77746192D01*
X184841100Y-77807011D01*
X184684851Y-77822400D01*
X184580349Y-77822400D01*
X184424100Y-77807011D01*
X184223606Y-77746192D01*
X184038841Y-77647433D01*
X184037370Y-77646226D01*
X183876882Y-77514518D01*
X183743970Y-77352563D01*
X183743969Y-77352562D01*
X183743967Y-77352559D01*
X183645208Y-77167794D01*
X183584389Y-76967300D01*
X183563854Y-76758800D01*
X183584389Y-76550300D01*
X183645208Y-76349806D01*
X183743967Y-76165041D01*
X183755450Y-76151049D01*
X183876882Y-76003082D01*
X184038837Y-75870170D01*
X184038838Y-75870169D01*
X184038841Y-75870167D01*
X184223606Y-75771408D01*
X184424100Y-75710589D01*
X184580349Y-75695200D01*
X184684851Y-75695200D01*
X184841100Y-75710589D01*
X184841100Y-75710589D01*
G37*
G36*
X159441100Y-75710589D02*
G01*
X159641594Y-75771408D01*
X159826359Y-75870167D01*
X159826362Y-75870169D01*
X159826363Y-75870170D01*
X159988318Y-76003082D01*
X160109750Y-76151049D01*
X160121233Y-76165041D01*
X160219992Y-76349806D01*
X160280811Y-76550300D01*
X160301346Y-76758800D01*
X160280811Y-76967300D01*
X160219992Y-77167794D01*
X160121233Y-77352559D01*
X160121231Y-77352562D01*
X160121230Y-77352563D01*
X159988318Y-77514518D01*
X159827830Y-77646226D01*
X159826359Y-77647433D01*
X159641594Y-77746192D01*
X159441100Y-77807011D01*
X159284851Y-77822400D01*
X159180349Y-77822400D01*
X159024100Y-77807011D01*
X158823606Y-77746192D01*
X158638841Y-77647433D01*
X158637370Y-77646226D01*
X158476882Y-77514518D01*
X158343970Y-77352563D01*
X158343969Y-77352562D01*
X158343967Y-77352559D01*
X158245208Y-77167794D01*
X158184389Y-76967300D01*
X158163854Y-76758800D01*
X158184389Y-76550300D01*
X158245208Y-76349806D01*
X158343967Y-76165041D01*
X158355450Y-76151049D01*
X158476882Y-76003082D01*
X158638837Y-75870170D01*
X158638838Y-75870169D01*
X158638841Y-75870167D01*
X158823606Y-75771408D01*
X159024100Y-75710589D01*
X159180349Y-75695200D01*
X159284851Y-75695200D01*
X159441100Y-75710589D01*
X159441100Y-75710589D01*
G37*
G36*
X139121100Y-75710589D02*
G01*
X139321594Y-75771408D01*
X139506359Y-75870167D01*
X139506362Y-75870169D01*
X139506363Y-75870170D01*
X139668318Y-76003082D01*
X139789750Y-76151049D01*
X139801233Y-76165041D01*
X139899992Y-76349806D01*
X139960811Y-76550300D01*
X139981346Y-76758800D01*
X139960811Y-76967300D01*
X139899992Y-77167794D01*
X139801233Y-77352559D01*
X139801231Y-77352562D01*
X139801230Y-77352563D01*
X139668318Y-77514518D01*
X139507830Y-77646226D01*
X139506359Y-77647433D01*
X139321594Y-77746192D01*
X139121100Y-77807011D01*
X138964851Y-77822400D01*
X138860349Y-77822400D01*
X138704100Y-77807011D01*
X138503606Y-77746192D01*
X138318841Y-77647433D01*
X138317370Y-77646226D01*
X138156882Y-77514518D01*
X138023970Y-77352563D01*
X138023969Y-77352562D01*
X138023967Y-77352559D01*
X137925208Y-77167794D01*
X137864389Y-76967300D01*
X137843854Y-76758800D01*
X137864389Y-76550300D01*
X137925208Y-76349806D01*
X138023967Y-76165041D01*
X138035450Y-76151049D01*
X138156882Y-76003082D01*
X138318837Y-75870170D01*
X138318838Y-75870169D01*
X138318841Y-75870167D01*
X138503606Y-75771408D01*
X138704100Y-75710589D01*
X138860349Y-75695200D01*
X138964851Y-75695200D01*
X139121100Y-75710589D01*
X139121100Y-75710589D01*
G37*
G36*
X156901100Y-75710589D02*
G01*
X157101594Y-75771408D01*
X157286359Y-75870167D01*
X157286362Y-75870169D01*
X157286363Y-75870170D01*
X157448318Y-76003082D01*
X157569750Y-76151049D01*
X157581233Y-76165041D01*
X157679992Y-76349806D01*
X157740811Y-76550300D01*
X157761346Y-76758800D01*
X157740811Y-76967300D01*
X157679992Y-77167794D01*
X157581233Y-77352559D01*
X157581231Y-77352562D01*
X157581230Y-77352563D01*
X157448318Y-77514518D01*
X157287830Y-77646226D01*
X157286359Y-77647433D01*
X157101594Y-77746192D01*
X156901100Y-77807011D01*
X156744851Y-77822400D01*
X156640349Y-77822400D01*
X156484100Y-77807011D01*
X156283606Y-77746192D01*
X156098841Y-77647433D01*
X156097370Y-77646226D01*
X155936882Y-77514518D01*
X155803970Y-77352563D01*
X155803969Y-77352562D01*
X155803967Y-77352559D01*
X155705208Y-77167794D01*
X155644389Y-76967300D01*
X155623854Y-76758800D01*
X155644389Y-76550300D01*
X155705208Y-76349806D01*
X155803967Y-76165041D01*
X155815450Y-76151049D01*
X155936882Y-76003082D01*
X156098837Y-75870170D01*
X156098838Y-75870169D01*
X156098841Y-75870167D01*
X156283606Y-75771408D01*
X156484100Y-75710589D01*
X156640349Y-75695200D01*
X156744851Y-75695200D01*
X156901100Y-75710589D01*
X156901100Y-75710589D01*
G37*
G36*
X141661100Y-75710589D02*
G01*
X141861594Y-75771408D01*
X142046359Y-75870167D01*
X142046362Y-75870169D01*
X142046363Y-75870170D01*
X142208318Y-76003082D01*
X142329750Y-76151049D01*
X142341233Y-76165041D01*
X142439992Y-76349806D01*
X142500811Y-76550300D01*
X142521346Y-76758800D01*
X142500811Y-76967300D01*
X142439992Y-77167794D01*
X142341233Y-77352559D01*
X142341231Y-77352562D01*
X142341230Y-77352563D01*
X142208318Y-77514518D01*
X142047830Y-77646226D01*
X142046359Y-77647433D01*
X141861594Y-77746192D01*
X141661100Y-77807011D01*
X141504851Y-77822400D01*
X141400349Y-77822400D01*
X141244100Y-77807011D01*
X141043606Y-77746192D01*
X140858841Y-77647433D01*
X140857370Y-77646226D01*
X140696882Y-77514518D01*
X140563970Y-77352563D01*
X140563969Y-77352562D01*
X140563967Y-77352559D01*
X140465208Y-77167794D01*
X140404389Y-76967300D01*
X140383854Y-76758800D01*
X140404389Y-76550300D01*
X140465208Y-76349806D01*
X140563967Y-76165041D01*
X140575450Y-76151049D01*
X140696882Y-76003082D01*
X140858837Y-75870170D01*
X140858838Y-75870169D01*
X140858841Y-75870167D01*
X141043606Y-75771408D01*
X141244100Y-75710589D01*
X141400349Y-75695200D01*
X141504851Y-75695200D01*
X141661100Y-75710589D01*
X141661100Y-75710589D01*
G37*
G36*
X154361100Y-75710589D02*
G01*
X154561594Y-75771408D01*
X154746359Y-75870167D01*
X154746362Y-75870169D01*
X154746363Y-75870170D01*
X154908318Y-76003082D01*
X155029750Y-76151049D01*
X155041233Y-76165041D01*
X155139992Y-76349806D01*
X155200811Y-76550300D01*
X155221346Y-76758800D01*
X155200811Y-76967300D01*
X155139992Y-77167794D01*
X155041233Y-77352559D01*
X155041231Y-77352562D01*
X155041230Y-77352563D01*
X154908318Y-77514518D01*
X154747830Y-77646226D01*
X154746359Y-77647433D01*
X154561594Y-77746192D01*
X154361100Y-77807011D01*
X154204851Y-77822400D01*
X154100349Y-77822400D01*
X153944100Y-77807011D01*
X153743606Y-77746192D01*
X153558841Y-77647433D01*
X153557370Y-77646226D01*
X153396882Y-77514518D01*
X153263970Y-77352563D01*
X153263969Y-77352562D01*
X153263967Y-77352559D01*
X153165208Y-77167794D01*
X153104389Y-76967300D01*
X153083854Y-76758800D01*
X153104389Y-76550300D01*
X153165208Y-76349806D01*
X153263967Y-76165041D01*
X153275450Y-76151049D01*
X153396882Y-76003082D01*
X153558837Y-75870170D01*
X153558838Y-75870169D01*
X153558841Y-75870167D01*
X153743606Y-75771408D01*
X153944100Y-75710589D01*
X154100349Y-75695200D01*
X154204851Y-75695200D01*
X154361100Y-75710589D01*
X154361100Y-75710589D01*
G37*
G36*
X144201100Y-75710589D02*
G01*
X144401594Y-75771408D01*
X144586359Y-75870167D01*
X144586362Y-75870169D01*
X144586363Y-75870170D01*
X144748318Y-76003082D01*
X144869750Y-76151049D01*
X144881233Y-76165041D01*
X144979992Y-76349806D01*
X145040811Y-76550300D01*
X145061346Y-76758800D01*
X145040811Y-76967300D01*
X144979992Y-77167794D01*
X144881233Y-77352559D01*
X144881231Y-77352562D01*
X144881230Y-77352563D01*
X144748318Y-77514518D01*
X144587830Y-77646226D01*
X144586359Y-77647433D01*
X144401594Y-77746192D01*
X144201100Y-77807011D01*
X144044851Y-77822400D01*
X143940349Y-77822400D01*
X143784100Y-77807011D01*
X143583606Y-77746192D01*
X143398841Y-77647433D01*
X143397370Y-77646226D01*
X143236882Y-77514518D01*
X143103970Y-77352563D01*
X143103969Y-77352562D01*
X143103967Y-77352559D01*
X143005208Y-77167794D01*
X142944389Y-76967300D01*
X142923854Y-76758800D01*
X142944389Y-76550300D01*
X143005208Y-76349806D01*
X143103967Y-76165041D01*
X143115450Y-76151049D01*
X143236882Y-76003082D01*
X143398837Y-75870170D01*
X143398838Y-75870169D01*
X143398841Y-75870167D01*
X143583606Y-75771408D01*
X143784100Y-75710589D01*
X143940349Y-75695200D01*
X144044851Y-75695200D01*
X144201100Y-75710589D01*
X144201100Y-75710589D01*
G37*
G36*
X151821100Y-75710589D02*
G01*
X152021594Y-75771408D01*
X152206359Y-75870167D01*
X152206362Y-75870169D01*
X152206363Y-75870170D01*
X152368318Y-76003082D01*
X152489750Y-76151049D01*
X152501233Y-76165041D01*
X152599992Y-76349806D01*
X152660811Y-76550300D01*
X152681346Y-76758800D01*
X152660811Y-76967300D01*
X152599992Y-77167794D01*
X152501233Y-77352559D01*
X152501231Y-77352562D01*
X152501230Y-77352563D01*
X152368318Y-77514518D01*
X152207830Y-77646226D01*
X152206359Y-77647433D01*
X152021594Y-77746192D01*
X151821100Y-77807011D01*
X151664851Y-77822400D01*
X151560349Y-77822400D01*
X151404100Y-77807011D01*
X151203606Y-77746192D01*
X151018841Y-77647433D01*
X151017370Y-77646226D01*
X150856882Y-77514518D01*
X150723970Y-77352563D01*
X150723969Y-77352562D01*
X150723967Y-77352559D01*
X150625208Y-77167794D01*
X150564389Y-76967300D01*
X150543854Y-76758800D01*
X150564389Y-76550300D01*
X150625208Y-76349806D01*
X150723967Y-76165041D01*
X150735450Y-76151049D01*
X150856882Y-76003082D01*
X151018837Y-75870170D01*
X151018838Y-75870169D01*
X151018841Y-75870167D01*
X151203606Y-75771408D01*
X151404100Y-75710589D01*
X151560349Y-75695200D01*
X151664851Y-75695200D01*
X151821100Y-75710589D01*
X151821100Y-75710589D01*
G37*
G36*
X146741100Y-75710589D02*
G01*
X146941594Y-75771408D01*
X147126359Y-75870167D01*
X147126362Y-75870169D01*
X147126363Y-75870170D01*
X147288318Y-76003082D01*
X147409750Y-76151049D01*
X147421233Y-76165041D01*
X147519992Y-76349806D01*
X147580811Y-76550300D01*
X147601346Y-76758800D01*
X147580811Y-76967300D01*
X147519992Y-77167794D01*
X147421233Y-77352559D01*
X147421231Y-77352562D01*
X147421230Y-77352563D01*
X147288318Y-77514518D01*
X147127830Y-77646226D01*
X147126359Y-77647433D01*
X146941594Y-77746192D01*
X146741100Y-77807011D01*
X146584851Y-77822400D01*
X146480349Y-77822400D01*
X146324100Y-77807011D01*
X146123606Y-77746192D01*
X145938841Y-77647433D01*
X145937370Y-77646226D01*
X145776882Y-77514518D01*
X145643970Y-77352563D01*
X145643969Y-77352562D01*
X145643967Y-77352559D01*
X145545208Y-77167794D01*
X145484389Y-76967300D01*
X145463854Y-76758800D01*
X145484389Y-76550300D01*
X145545208Y-76349806D01*
X145643967Y-76165041D01*
X145655450Y-76151049D01*
X145776882Y-76003082D01*
X145938837Y-75870170D01*
X145938838Y-75870169D01*
X145938841Y-75870167D01*
X146123606Y-75771408D01*
X146324100Y-75710589D01*
X146480349Y-75695200D01*
X146584851Y-75695200D01*
X146741100Y-75710589D01*
X146741100Y-75710589D01*
G37*
G36*
X161981100Y-75710589D02*
G01*
X162181594Y-75771408D01*
X162366359Y-75870167D01*
X162366362Y-75870169D01*
X162366363Y-75870170D01*
X162528318Y-76003082D01*
X162649750Y-76151049D01*
X162661233Y-76165041D01*
X162759992Y-76349806D01*
X162820811Y-76550300D01*
X162841346Y-76758800D01*
X162820811Y-76967300D01*
X162759992Y-77167794D01*
X162661233Y-77352559D01*
X162661231Y-77352562D01*
X162661230Y-77352563D01*
X162528318Y-77514518D01*
X162367830Y-77646226D01*
X162366359Y-77647433D01*
X162181594Y-77746192D01*
X161981100Y-77807011D01*
X161824851Y-77822400D01*
X161720349Y-77822400D01*
X161564100Y-77807011D01*
X161363606Y-77746192D01*
X161178841Y-77647433D01*
X161177370Y-77646226D01*
X161016882Y-77514518D01*
X160883970Y-77352563D01*
X160883969Y-77352562D01*
X160883967Y-77352559D01*
X160785208Y-77167794D01*
X160724389Y-76967300D01*
X160703854Y-76758800D01*
X160724389Y-76550300D01*
X160785208Y-76349806D01*
X160883967Y-76165041D01*
X160895450Y-76151049D01*
X161016882Y-76003082D01*
X161178837Y-75870170D01*
X161178838Y-75870169D01*
X161178841Y-75870167D01*
X161363606Y-75771408D01*
X161564100Y-75710589D01*
X161720349Y-75695200D01*
X161824851Y-75695200D01*
X161981100Y-75710589D01*
X161981100Y-75710589D01*
G37*
G36*
X137436200Y-77822400D02*
G01*
X135309000Y-77822400D01*
X135309000Y-75695200D01*
X137436200Y-75695200D01*
X137436200Y-77822400D01*
X137436200Y-77822400D01*
G37*
G36*
X189935441Y-73310887D02*
G01*
X190151050Y-73353774D01*
X190557249Y-73522027D01*
X190922817Y-73766292D01*
X191233708Y-74077183D01*
X191398704Y-74324116D01*
X191477974Y-74442753D01*
X191484910Y-74459498D01*
X191646226Y-74848950D01*
X191732000Y-75280167D01*
X191732000Y-75719833D01*
X191646226Y-76151050D01*
X191593571Y-76278170D01*
X191480852Y-76550300D01*
X191477973Y-76557249D01*
X191233708Y-76922817D01*
X190922817Y-77233708D01*
X190557249Y-77477973D01*
X190557248Y-77477974D01*
X190557247Y-77477974D01*
X190438274Y-77527254D01*
X190151050Y-77646226D01*
X189935441Y-77689113D01*
X189719834Y-77732000D01*
X189280166Y-77732000D01*
X188848950Y-77646226D01*
X188561726Y-77527254D01*
X188442753Y-77477974D01*
X188442752Y-77477974D01*
X188442751Y-77477973D01*
X188077183Y-77233708D01*
X187766292Y-76922817D01*
X187522027Y-76557249D01*
X187519149Y-76550300D01*
X187406429Y-76278170D01*
X187353774Y-76151050D01*
X187268000Y-75719833D01*
X187268000Y-75280167D01*
X187353774Y-74848950D01*
X187515090Y-74459498D01*
X187522026Y-74442753D01*
X187601297Y-74324116D01*
X187766292Y-74077183D01*
X188077183Y-73766292D01*
X188442751Y-73522027D01*
X188848950Y-73353774D01*
X189064559Y-73310887D01*
X189280166Y-73268000D01*
X189719834Y-73268000D01*
X189935441Y-73310887D01*
X189935441Y-73310887D01*
G37*
G36*
X131935441Y-73310887D02*
G01*
X132151050Y-73353774D01*
X132557249Y-73522027D01*
X132922817Y-73766292D01*
X133233708Y-74077183D01*
X133398704Y-74324116D01*
X133477974Y-74442753D01*
X133484910Y-74459498D01*
X133646226Y-74848950D01*
X133732000Y-75280167D01*
X133732000Y-75719833D01*
X133646226Y-76151050D01*
X133593571Y-76278170D01*
X133480852Y-76550300D01*
X133477973Y-76557249D01*
X133233708Y-76922817D01*
X132922817Y-77233708D01*
X132557249Y-77477973D01*
X132557248Y-77477974D01*
X132557247Y-77477974D01*
X132438274Y-77527254D01*
X132151050Y-77646226D01*
X131719834Y-77732000D01*
X131280166Y-77732000D01*
X130848950Y-77646226D01*
X130561726Y-77527254D01*
X130442753Y-77477974D01*
X130442752Y-77477974D01*
X130442751Y-77477973D01*
X130077183Y-77233708D01*
X129766292Y-76922817D01*
X129522027Y-76557249D01*
X129519149Y-76550300D01*
X129406429Y-76278170D01*
X129353774Y-76151050D01*
X129268000Y-75719833D01*
X129268000Y-75280167D01*
X129353774Y-74848950D01*
X129515090Y-74459498D01*
X129522026Y-74442753D01*
X129601297Y-74324116D01*
X129766292Y-74077183D01*
X130077183Y-73766292D01*
X130442751Y-73522027D01*
X130848950Y-73353774D01*
X131064559Y-73310887D01*
X131280166Y-73268000D01*
X131719834Y-73268000D01*
X131935441Y-73310887D01*
X131935441Y-73310887D01*
G37*
G36*
X211075707Y-74649597D02*
G01*
X211152836Y-74657193D01*
X211350762Y-74717233D01*
X211350765Y-74717234D01*
X211533170Y-74814732D01*
X211693055Y-74945945D01*
X211824268Y-75105830D01*
X211921766Y-75288235D01*
X211921767Y-75288238D01*
X211981807Y-75486164D01*
X212002080Y-75692000D01*
X211981807Y-75897836D01*
X211921767Y-76095762D01*
X211921766Y-76095765D01*
X211824268Y-76278170D01*
X211693055Y-76438055D01*
X211533170Y-76569268D01*
X211350765Y-76666766D01*
X211350762Y-76666767D01*
X211152836Y-76726807D01*
X211075707Y-76734404D01*
X210998580Y-76742000D01*
X210895420Y-76742000D01*
X210818293Y-76734404D01*
X210741164Y-76726807D01*
X210543238Y-76666767D01*
X210543235Y-76666766D01*
X210360830Y-76569268D01*
X210200945Y-76438055D01*
X210069732Y-76278170D01*
X209972234Y-76095765D01*
X209972233Y-76095762D01*
X209912193Y-75897836D01*
X209891920Y-75692000D01*
X209912193Y-75486164D01*
X209972233Y-75288238D01*
X209972234Y-75288235D01*
X210069732Y-75105830D01*
X210200945Y-74945945D01*
X210360830Y-74814732D01*
X210543235Y-74717234D01*
X210543238Y-74717233D01*
X210741164Y-74657193D01*
X210818293Y-74649597D01*
X210895420Y-74642000D01*
X210998580Y-74642000D01*
X211075707Y-74649597D01*
X211075707Y-74649597D01*
G37*
G36*
X209457000Y-76742000D02*
G01*
X207357000Y-76742000D01*
X207357000Y-74642000D01*
X209457000Y-74642000D01*
X209457000Y-76742000D01*
X209457000Y-76742000D01*
G37*
G36*
X156901100Y-73170589D02*
G01*
X157101594Y-73231408D01*
X157286359Y-73330167D01*
X157286362Y-73330169D01*
X157286363Y-73330170D01*
X157448318Y-73463082D01*
X157581230Y-73625037D01*
X157581233Y-73625041D01*
X157679992Y-73809806D01*
X157740811Y-74010300D01*
X157761346Y-74218800D01*
X157740811Y-74427300D01*
X157679992Y-74627794D01*
X157581233Y-74812559D01*
X157581231Y-74812562D01*
X157581230Y-74812563D01*
X157448318Y-74974518D01*
X157286363Y-75107430D01*
X157286359Y-75107433D01*
X157101594Y-75206192D01*
X156901100Y-75267011D01*
X156744851Y-75282400D01*
X156640349Y-75282400D01*
X156484100Y-75267011D01*
X156283606Y-75206192D01*
X156098841Y-75107433D01*
X156098837Y-75107430D01*
X155936882Y-74974518D01*
X155803970Y-74812563D01*
X155803969Y-74812562D01*
X155803967Y-74812559D01*
X155705208Y-74627794D01*
X155644389Y-74427300D01*
X155623854Y-74218800D01*
X155644389Y-74010300D01*
X155705208Y-73809806D01*
X155803967Y-73625041D01*
X155803970Y-73625037D01*
X155936882Y-73463082D01*
X156098837Y-73330170D01*
X156098838Y-73330169D01*
X156098841Y-73330167D01*
X156283606Y-73231408D01*
X156484100Y-73170589D01*
X156640349Y-73155200D01*
X156744851Y-73155200D01*
X156901100Y-73170589D01*
X156901100Y-73170589D01*
G37*
G36*
X161981100Y-73170589D02*
G01*
X162181594Y-73231408D01*
X162366359Y-73330167D01*
X162366362Y-73330169D01*
X162366363Y-73330170D01*
X162528318Y-73463082D01*
X162661230Y-73625037D01*
X162661233Y-73625041D01*
X162759992Y-73809806D01*
X162820811Y-74010300D01*
X162841346Y-74218800D01*
X162820811Y-74427300D01*
X162759992Y-74627794D01*
X162661233Y-74812559D01*
X162661231Y-74812562D01*
X162661230Y-74812563D01*
X162528318Y-74974518D01*
X162366363Y-75107430D01*
X162366359Y-75107433D01*
X162181594Y-75206192D01*
X161981100Y-75267011D01*
X161824851Y-75282400D01*
X161720349Y-75282400D01*
X161564100Y-75267011D01*
X161363606Y-75206192D01*
X161178841Y-75107433D01*
X161178837Y-75107430D01*
X161016882Y-74974518D01*
X160883970Y-74812563D01*
X160883969Y-74812562D01*
X160883967Y-74812559D01*
X160785208Y-74627794D01*
X160724389Y-74427300D01*
X160703854Y-74218800D01*
X160724389Y-74010300D01*
X160785208Y-73809806D01*
X160883967Y-73625041D01*
X160883970Y-73625037D01*
X161016882Y-73463082D01*
X161178837Y-73330170D01*
X161178838Y-73330169D01*
X161178841Y-73330167D01*
X161363606Y-73231408D01*
X161564100Y-73170589D01*
X161720349Y-73155200D01*
X161824851Y-73155200D01*
X161981100Y-73170589D01*
X161981100Y-73170589D01*
G37*
G36*
X154361100Y-73170589D02*
G01*
X154561594Y-73231408D01*
X154746359Y-73330167D01*
X154746362Y-73330169D01*
X154746363Y-73330170D01*
X154908318Y-73463082D01*
X155041230Y-73625037D01*
X155041233Y-73625041D01*
X155139992Y-73809806D01*
X155200811Y-74010300D01*
X155221346Y-74218800D01*
X155200811Y-74427300D01*
X155139992Y-74627794D01*
X155041233Y-74812559D01*
X155041231Y-74812562D01*
X155041230Y-74812563D01*
X154908318Y-74974518D01*
X154746363Y-75107430D01*
X154746359Y-75107433D01*
X154561594Y-75206192D01*
X154361100Y-75267011D01*
X154204851Y-75282400D01*
X154100349Y-75282400D01*
X153944100Y-75267011D01*
X153743606Y-75206192D01*
X153558841Y-75107433D01*
X153558837Y-75107430D01*
X153396882Y-74974518D01*
X153263970Y-74812563D01*
X153263969Y-74812562D01*
X153263967Y-74812559D01*
X153165208Y-74627794D01*
X153104389Y-74427300D01*
X153083854Y-74218800D01*
X153104389Y-74010300D01*
X153165208Y-73809806D01*
X153263967Y-73625041D01*
X153263970Y-73625037D01*
X153396882Y-73463082D01*
X153558837Y-73330170D01*
X153558838Y-73330169D01*
X153558841Y-73330167D01*
X153743606Y-73231408D01*
X153944100Y-73170589D01*
X154100349Y-73155200D01*
X154204851Y-73155200D01*
X154361100Y-73170589D01*
X154361100Y-73170589D01*
G37*
G36*
X151821100Y-73170589D02*
G01*
X152021594Y-73231408D01*
X152206359Y-73330167D01*
X152206362Y-73330169D01*
X152206363Y-73330170D01*
X152368318Y-73463082D01*
X152501230Y-73625037D01*
X152501233Y-73625041D01*
X152599992Y-73809806D01*
X152660811Y-74010300D01*
X152681346Y-74218800D01*
X152660811Y-74427300D01*
X152599992Y-74627794D01*
X152501233Y-74812559D01*
X152501231Y-74812562D01*
X152501230Y-74812563D01*
X152368318Y-74974518D01*
X152206363Y-75107430D01*
X152206359Y-75107433D01*
X152021594Y-75206192D01*
X151821100Y-75267011D01*
X151664851Y-75282400D01*
X151560349Y-75282400D01*
X151404100Y-75267011D01*
X151203606Y-75206192D01*
X151018841Y-75107433D01*
X151018837Y-75107430D01*
X150856882Y-74974518D01*
X150723970Y-74812563D01*
X150723969Y-74812562D01*
X150723967Y-74812559D01*
X150625208Y-74627794D01*
X150564389Y-74427300D01*
X150543854Y-74218800D01*
X150564389Y-74010300D01*
X150625208Y-73809806D01*
X150723967Y-73625041D01*
X150723970Y-73625037D01*
X150856882Y-73463082D01*
X151018837Y-73330170D01*
X151018838Y-73330169D01*
X151018841Y-73330167D01*
X151203606Y-73231408D01*
X151404100Y-73170589D01*
X151560349Y-73155200D01*
X151664851Y-73155200D01*
X151821100Y-73170589D01*
X151821100Y-73170589D01*
G37*
G36*
X149281100Y-73170589D02*
G01*
X149481594Y-73231408D01*
X149666359Y-73330167D01*
X149666362Y-73330169D01*
X149666363Y-73330170D01*
X149828318Y-73463082D01*
X149961230Y-73625037D01*
X149961233Y-73625041D01*
X150059992Y-73809806D01*
X150120811Y-74010300D01*
X150141346Y-74218800D01*
X150120811Y-74427300D01*
X150059992Y-74627794D01*
X149961233Y-74812559D01*
X149961231Y-74812562D01*
X149961230Y-74812563D01*
X149828318Y-74974518D01*
X149666363Y-75107430D01*
X149666359Y-75107433D01*
X149481594Y-75206192D01*
X149281100Y-75267011D01*
X149124851Y-75282400D01*
X149020349Y-75282400D01*
X148864100Y-75267011D01*
X148663606Y-75206192D01*
X148478841Y-75107433D01*
X148478837Y-75107430D01*
X148316882Y-74974518D01*
X148183970Y-74812563D01*
X148183969Y-74812562D01*
X148183967Y-74812559D01*
X148085208Y-74627794D01*
X148024389Y-74427300D01*
X148003854Y-74218800D01*
X148024389Y-74010300D01*
X148085208Y-73809806D01*
X148183967Y-73625041D01*
X148183970Y-73625037D01*
X148316882Y-73463082D01*
X148478837Y-73330170D01*
X148478838Y-73330169D01*
X148478841Y-73330167D01*
X148663606Y-73231408D01*
X148864100Y-73170589D01*
X149020349Y-73155200D01*
X149124851Y-73155200D01*
X149281100Y-73170589D01*
X149281100Y-73170589D01*
G37*
G36*
X174681100Y-73170589D02*
G01*
X174881594Y-73231408D01*
X175066359Y-73330167D01*
X175066362Y-73330169D01*
X175066363Y-73330170D01*
X175228318Y-73463082D01*
X175361230Y-73625037D01*
X175361233Y-73625041D01*
X175459992Y-73809806D01*
X175520811Y-74010300D01*
X175541346Y-74218800D01*
X175520811Y-74427300D01*
X175459992Y-74627794D01*
X175361233Y-74812559D01*
X175361231Y-74812562D01*
X175361230Y-74812563D01*
X175228318Y-74974518D01*
X175066363Y-75107430D01*
X175066359Y-75107433D01*
X174881594Y-75206192D01*
X174681100Y-75267011D01*
X174524851Y-75282400D01*
X174420349Y-75282400D01*
X174264100Y-75267011D01*
X174063606Y-75206192D01*
X173878841Y-75107433D01*
X173878837Y-75107430D01*
X173716882Y-74974518D01*
X173583970Y-74812563D01*
X173583969Y-74812562D01*
X173583967Y-74812559D01*
X173485208Y-74627794D01*
X173424389Y-74427300D01*
X173403854Y-74218800D01*
X173424389Y-74010300D01*
X173485208Y-73809806D01*
X173583967Y-73625041D01*
X173583970Y-73625037D01*
X173716882Y-73463082D01*
X173878837Y-73330170D01*
X173878838Y-73330169D01*
X173878841Y-73330167D01*
X174063606Y-73231408D01*
X174264100Y-73170589D01*
X174420349Y-73155200D01*
X174524851Y-73155200D01*
X174681100Y-73170589D01*
X174681100Y-73170589D01*
G37*
G36*
X146741100Y-73170589D02*
G01*
X146941594Y-73231408D01*
X147126359Y-73330167D01*
X147126362Y-73330169D01*
X147126363Y-73330170D01*
X147288318Y-73463082D01*
X147421230Y-73625037D01*
X147421233Y-73625041D01*
X147519992Y-73809806D01*
X147580811Y-74010300D01*
X147601346Y-74218800D01*
X147580811Y-74427300D01*
X147519992Y-74627794D01*
X147421233Y-74812559D01*
X147421231Y-74812562D01*
X147421230Y-74812563D01*
X147288318Y-74974518D01*
X147126363Y-75107430D01*
X147126359Y-75107433D01*
X146941594Y-75206192D01*
X146741100Y-75267011D01*
X146584851Y-75282400D01*
X146480349Y-75282400D01*
X146324100Y-75267011D01*
X146123606Y-75206192D01*
X145938841Y-75107433D01*
X145938837Y-75107430D01*
X145776882Y-74974518D01*
X145643970Y-74812563D01*
X145643969Y-74812562D01*
X145643967Y-74812559D01*
X145545208Y-74627794D01*
X145484389Y-74427300D01*
X145463854Y-74218800D01*
X145484389Y-74010300D01*
X145545208Y-73809806D01*
X145643967Y-73625041D01*
X145643970Y-73625037D01*
X145776882Y-73463082D01*
X145938837Y-73330170D01*
X145938838Y-73330169D01*
X145938841Y-73330167D01*
X146123606Y-73231408D01*
X146324100Y-73170589D01*
X146480349Y-73155200D01*
X146584851Y-73155200D01*
X146741100Y-73170589D01*
X146741100Y-73170589D01*
G37*
G36*
X144201100Y-73170589D02*
G01*
X144401594Y-73231408D01*
X144586359Y-73330167D01*
X144586362Y-73330169D01*
X144586363Y-73330170D01*
X144748318Y-73463082D01*
X144881230Y-73625037D01*
X144881233Y-73625041D01*
X144979992Y-73809806D01*
X145040811Y-74010300D01*
X145061346Y-74218800D01*
X145040811Y-74427300D01*
X144979992Y-74627794D01*
X144881233Y-74812559D01*
X144881231Y-74812562D01*
X144881230Y-74812563D01*
X144748318Y-74974518D01*
X144586363Y-75107430D01*
X144586359Y-75107433D01*
X144401594Y-75206192D01*
X144201100Y-75267011D01*
X144044851Y-75282400D01*
X143940349Y-75282400D01*
X143784100Y-75267011D01*
X143583606Y-75206192D01*
X143398841Y-75107433D01*
X143398837Y-75107430D01*
X143236882Y-74974518D01*
X143103970Y-74812563D01*
X143103969Y-74812562D01*
X143103967Y-74812559D01*
X143005208Y-74627794D01*
X142944389Y-74427300D01*
X142923854Y-74218800D01*
X142944389Y-74010300D01*
X143005208Y-73809806D01*
X143103967Y-73625041D01*
X143103970Y-73625037D01*
X143236882Y-73463082D01*
X143398837Y-73330170D01*
X143398838Y-73330169D01*
X143398841Y-73330167D01*
X143583606Y-73231408D01*
X143784100Y-73170589D01*
X143940349Y-73155200D01*
X144044851Y-73155200D01*
X144201100Y-73170589D01*
X144201100Y-73170589D01*
G37*
G36*
X141661100Y-73170589D02*
G01*
X141861594Y-73231408D01*
X142046359Y-73330167D01*
X142046362Y-73330169D01*
X142046363Y-73330170D01*
X142208318Y-73463082D01*
X142341230Y-73625037D01*
X142341233Y-73625041D01*
X142439992Y-73809806D01*
X142500811Y-74010300D01*
X142521346Y-74218800D01*
X142500811Y-74427300D01*
X142439992Y-74627794D01*
X142341233Y-74812559D01*
X142341231Y-74812562D01*
X142341230Y-74812563D01*
X142208318Y-74974518D01*
X142046363Y-75107430D01*
X142046359Y-75107433D01*
X141861594Y-75206192D01*
X141661100Y-75267011D01*
X141504851Y-75282400D01*
X141400349Y-75282400D01*
X141244100Y-75267011D01*
X141043606Y-75206192D01*
X140858841Y-75107433D01*
X140858837Y-75107430D01*
X140696882Y-74974518D01*
X140563970Y-74812563D01*
X140563969Y-74812562D01*
X140563967Y-74812559D01*
X140465208Y-74627794D01*
X140404389Y-74427300D01*
X140383854Y-74218800D01*
X140404389Y-74010300D01*
X140465208Y-73809806D01*
X140563967Y-73625041D01*
X140563970Y-73625037D01*
X140696882Y-73463082D01*
X140858837Y-73330170D01*
X140858838Y-73330169D01*
X140858841Y-73330167D01*
X141043606Y-73231408D01*
X141244100Y-73170589D01*
X141400349Y-73155200D01*
X141504851Y-73155200D01*
X141661100Y-73170589D01*
X141661100Y-73170589D01*
G37*
G36*
X139121100Y-73170589D02*
G01*
X139321594Y-73231408D01*
X139506359Y-73330167D01*
X139506362Y-73330169D01*
X139506363Y-73330170D01*
X139668318Y-73463082D01*
X139801230Y-73625037D01*
X139801233Y-73625041D01*
X139899992Y-73809806D01*
X139960811Y-74010300D01*
X139981346Y-74218800D01*
X139960811Y-74427300D01*
X139899992Y-74627794D01*
X139801233Y-74812559D01*
X139801231Y-74812562D01*
X139801230Y-74812563D01*
X139668318Y-74974518D01*
X139506363Y-75107430D01*
X139506359Y-75107433D01*
X139321594Y-75206192D01*
X139121100Y-75267011D01*
X138964851Y-75282400D01*
X138860349Y-75282400D01*
X138704100Y-75267011D01*
X138503606Y-75206192D01*
X138318841Y-75107433D01*
X138318837Y-75107430D01*
X138156882Y-74974518D01*
X138023970Y-74812563D01*
X138023969Y-74812562D01*
X138023967Y-74812559D01*
X137925208Y-74627794D01*
X137864389Y-74427300D01*
X137843854Y-74218800D01*
X137864389Y-74010300D01*
X137925208Y-73809806D01*
X138023967Y-73625041D01*
X138023970Y-73625037D01*
X138156882Y-73463082D01*
X138318837Y-73330170D01*
X138318838Y-73330169D01*
X138318841Y-73330167D01*
X138503606Y-73231408D01*
X138704100Y-73170589D01*
X138860349Y-73155200D01*
X138964851Y-73155200D01*
X139121100Y-73170589D01*
X139121100Y-73170589D01*
G37*
G36*
X136581100Y-73170589D02*
G01*
X136781594Y-73231408D01*
X136966359Y-73330167D01*
X136966362Y-73330169D01*
X136966363Y-73330170D01*
X137128318Y-73463082D01*
X137261230Y-73625037D01*
X137261233Y-73625041D01*
X137359992Y-73809806D01*
X137420811Y-74010300D01*
X137441346Y-74218800D01*
X137420811Y-74427300D01*
X137359992Y-74627794D01*
X137261233Y-74812559D01*
X137261231Y-74812562D01*
X137261230Y-74812563D01*
X137128318Y-74974518D01*
X136966363Y-75107430D01*
X136966359Y-75107433D01*
X136781594Y-75206192D01*
X136581100Y-75267011D01*
X136424851Y-75282400D01*
X136320349Y-75282400D01*
X136164100Y-75267011D01*
X135963606Y-75206192D01*
X135778841Y-75107433D01*
X135778837Y-75107430D01*
X135616882Y-74974518D01*
X135483970Y-74812563D01*
X135483969Y-74812562D01*
X135483967Y-74812559D01*
X135385208Y-74627794D01*
X135324389Y-74427300D01*
X135303854Y-74218800D01*
X135324389Y-74010300D01*
X135385208Y-73809806D01*
X135483967Y-73625041D01*
X135483970Y-73625037D01*
X135616882Y-73463082D01*
X135778837Y-73330170D01*
X135778838Y-73330169D01*
X135778841Y-73330167D01*
X135963606Y-73231408D01*
X136164100Y-73170589D01*
X136320349Y-73155200D01*
X136424851Y-73155200D01*
X136581100Y-73170589D01*
X136581100Y-73170589D01*
G37*
G36*
X159441100Y-73170589D02*
G01*
X159641594Y-73231408D01*
X159826359Y-73330167D01*
X159826362Y-73330169D01*
X159826363Y-73330170D01*
X159988318Y-73463082D01*
X160121230Y-73625037D01*
X160121233Y-73625041D01*
X160219992Y-73809806D01*
X160280811Y-74010300D01*
X160301346Y-74218800D01*
X160280811Y-74427300D01*
X160219992Y-74627794D01*
X160121233Y-74812559D01*
X160121231Y-74812562D01*
X160121230Y-74812563D01*
X159988318Y-74974518D01*
X159826363Y-75107430D01*
X159826359Y-75107433D01*
X159641594Y-75206192D01*
X159441100Y-75267011D01*
X159284851Y-75282400D01*
X159180349Y-75282400D01*
X159024100Y-75267011D01*
X158823606Y-75206192D01*
X158638841Y-75107433D01*
X158638837Y-75107430D01*
X158476882Y-74974518D01*
X158343970Y-74812563D01*
X158343969Y-74812562D01*
X158343967Y-74812559D01*
X158245208Y-74627794D01*
X158184389Y-74427300D01*
X158163854Y-74218800D01*
X158184389Y-74010300D01*
X158245208Y-73809806D01*
X158343967Y-73625041D01*
X158343970Y-73625037D01*
X158476882Y-73463082D01*
X158638837Y-73330170D01*
X158638838Y-73330169D01*
X158638841Y-73330167D01*
X158823606Y-73231408D01*
X159024100Y-73170589D01*
X159180349Y-73155200D01*
X159284851Y-73155200D01*
X159441100Y-73170589D01*
X159441100Y-73170589D01*
G37*
G36*
X184841100Y-73170589D02*
G01*
X185041594Y-73231408D01*
X185226359Y-73330167D01*
X185226362Y-73330169D01*
X185226363Y-73330170D01*
X185388318Y-73463082D01*
X185521230Y-73625037D01*
X185521233Y-73625041D01*
X185619992Y-73809806D01*
X185680811Y-74010300D01*
X185701346Y-74218800D01*
X185680811Y-74427300D01*
X185619992Y-74627794D01*
X185521233Y-74812559D01*
X185521231Y-74812562D01*
X185521230Y-74812563D01*
X185388318Y-74974518D01*
X185226363Y-75107430D01*
X185226359Y-75107433D01*
X185041594Y-75206192D01*
X184841100Y-75267011D01*
X184684851Y-75282400D01*
X184580349Y-75282400D01*
X184424100Y-75267011D01*
X184223606Y-75206192D01*
X184038841Y-75107433D01*
X184038837Y-75107430D01*
X183876882Y-74974518D01*
X183743970Y-74812563D01*
X183743969Y-74812562D01*
X183743967Y-74812559D01*
X183645208Y-74627794D01*
X183584389Y-74427300D01*
X183563854Y-74218800D01*
X183584389Y-74010300D01*
X183645208Y-73809806D01*
X183743967Y-73625041D01*
X183743970Y-73625037D01*
X183876882Y-73463082D01*
X184038837Y-73330170D01*
X184038838Y-73330169D01*
X184038841Y-73330167D01*
X184223606Y-73231408D01*
X184424100Y-73170589D01*
X184580349Y-73155200D01*
X184684851Y-73155200D01*
X184841100Y-73170589D01*
X184841100Y-73170589D01*
G37*
G36*
X179761100Y-73170589D02*
G01*
X179961594Y-73231408D01*
X180146359Y-73330167D01*
X180146362Y-73330169D01*
X180146363Y-73330170D01*
X180308318Y-73463082D01*
X180441230Y-73625037D01*
X180441233Y-73625041D01*
X180539992Y-73809806D01*
X180600811Y-74010300D01*
X180621346Y-74218800D01*
X180600811Y-74427300D01*
X180539992Y-74627794D01*
X180441233Y-74812559D01*
X180441231Y-74812562D01*
X180441230Y-74812563D01*
X180308318Y-74974518D01*
X180146363Y-75107430D01*
X180146359Y-75107433D01*
X179961594Y-75206192D01*
X179761100Y-75267011D01*
X179604851Y-75282400D01*
X179500349Y-75282400D01*
X179344100Y-75267011D01*
X179143606Y-75206192D01*
X178958841Y-75107433D01*
X178958837Y-75107430D01*
X178796882Y-74974518D01*
X178663970Y-74812563D01*
X178663969Y-74812562D01*
X178663967Y-74812559D01*
X178565208Y-74627794D01*
X178504389Y-74427300D01*
X178483854Y-74218800D01*
X178504389Y-74010300D01*
X178565208Y-73809806D01*
X178663967Y-73625041D01*
X178663970Y-73625037D01*
X178796882Y-73463082D01*
X178958837Y-73330170D01*
X178958838Y-73330169D01*
X178958841Y-73330167D01*
X179143606Y-73231408D01*
X179344100Y-73170589D01*
X179500349Y-73155200D01*
X179604851Y-73155200D01*
X179761100Y-73170589D01*
X179761100Y-73170589D01*
G37*
G36*
X177221100Y-73170589D02*
G01*
X177421594Y-73231408D01*
X177606359Y-73330167D01*
X177606362Y-73330169D01*
X177606363Y-73330170D01*
X177768318Y-73463082D01*
X177901230Y-73625037D01*
X177901233Y-73625041D01*
X177999992Y-73809806D01*
X178060811Y-74010300D01*
X178081346Y-74218800D01*
X178060811Y-74427300D01*
X177999992Y-74627794D01*
X177901233Y-74812559D01*
X177901231Y-74812562D01*
X177901230Y-74812563D01*
X177768318Y-74974518D01*
X177606363Y-75107430D01*
X177606359Y-75107433D01*
X177421594Y-75206192D01*
X177221100Y-75267011D01*
X177064851Y-75282400D01*
X176960349Y-75282400D01*
X176804100Y-75267011D01*
X176603606Y-75206192D01*
X176418841Y-75107433D01*
X176418837Y-75107430D01*
X176256882Y-74974518D01*
X176123970Y-74812563D01*
X176123969Y-74812562D01*
X176123967Y-74812559D01*
X176025208Y-74627794D01*
X175964389Y-74427300D01*
X175943854Y-74218800D01*
X175964389Y-74010300D01*
X176025208Y-73809806D01*
X176123967Y-73625041D01*
X176123970Y-73625037D01*
X176256882Y-73463082D01*
X176418837Y-73330170D01*
X176418838Y-73330169D01*
X176418841Y-73330167D01*
X176603606Y-73231408D01*
X176804100Y-73170589D01*
X176960349Y-73155200D01*
X177064851Y-73155200D01*
X177221100Y-73170589D01*
X177221100Y-73170589D01*
G37*
G36*
X182301100Y-73170589D02*
G01*
X182501594Y-73231408D01*
X182686359Y-73330167D01*
X182686362Y-73330169D01*
X182686363Y-73330170D01*
X182848318Y-73463082D01*
X182981230Y-73625037D01*
X182981233Y-73625041D01*
X183079992Y-73809806D01*
X183140811Y-74010300D01*
X183161346Y-74218800D01*
X183140811Y-74427300D01*
X183079992Y-74627794D01*
X182981233Y-74812559D01*
X182981231Y-74812562D01*
X182981230Y-74812563D01*
X182848318Y-74974518D01*
X182686363Y-75107430D01*
X182686359Y-75107433D01*
X182501594Y-75206192D01*
X182301100Y-75267011D01*
X182144851Y-75282400D01*
X182040349Y-75282400D01*
X181884100Y-75267011D01*
X181683606Y-75206192D01*
X181498841Y-75107433D01*
X181498837Y-75107430D01*
X181336882Y-74974518D01*
X181203970Y-74812563D01*
X181203969Y-74812562D01*
X181203967Y-74812559D01*
X181105208Y-74627794D01*
X181044389Y-74427300D01*
X181023854Y-74218800D01*
X181044389Y-74010300D01*
X181105208Y-73809806D01*
X181203967Y-73625041D01*
X181203970Y-73625037D01*
X181336882Y-73463082D01*
X181498837Y-73330170D01*
X181498838Y-73330169D01*
X181498841Y-73330167D01*
X181683606Y-73231408D01*
X181884100Y-73170589D01*
X182040349Y-73155200D01*
X182144851Y-73155200D01*
X182301100Y-73170589D01*
X182301100Y-73170589D01*
G37*
G36*
X172141100Y-73170589D02*
G01*
X172341594Y-73231408D01*
X172526359Y-73330167D01*
X172526362Y-73330169D01*
X172526363Y-73330170D01*
X172688318Y-73463082D01*
X172821230Y-73625037D01*
X172821233Y-73625041D01*
X172919992Y-73809806D01*
X172980811Y-74010300D01*
X173001346Y-74218800D01*
X172980811Y-74427300D01*
X172919992Y-74627794D01*
X172821233Y-74812559D01*
X172821231Y-74812562D01*
X172821230Y-74812563D01*
X172688318Y-74974518D01*
X172526363Y-75107430D01*
X172526359Y-75107433D01*
X172341594Y-75206192D01*
X172141100Y-75267011D01*
X171984851Y-75282400D01*
X171880349Y-75282400D01*
X171724100Y-75267011D01*
X171523606Y-75206192D01*
X171338841Y-75107433D01*
X171338837Y-75107430D01*
X171176882Y-74974518D01*
X171043970Y-74812563D01*
X171043969Y-74812562D01*
X171043967Y-74812559D01*
X170945208Y-74627794D01*
X170884389Y-74427300D01*
X170863854Y-74218800D01*
X170884389Y-74010300D01*
X170945208Y-73809806D01*
X171043967Y-73625041D01*
X171043970Y-73625037D01*
X171176882Y-73463082D01*
X171338837Y-73330170D01*
X171338838Y-73330169D01*
X171338841Y-73330167D01*
X171523606Y-73231408D01*
X171724100Y-73170589D01*
X171880349Y-73155200D01*
X171984851Y-73155200D01*
X172141100Y-73170589D01*
X172141100Y-73170589D01*
G37*
G36*
X164521100Y-73170589D02*
G01*
X164721594Y-73231408D01*
X164906359Y-73330167D01*
X164906362Y-73330169D01*
X164906363Y-73330170D01*
X165068318Y-73463082D01*
X165201230Y-73625037D01*
X165201233Y-73625041D01*
X165299992Y-73809806D01*
X165360811Y-74010300D01*
X165381346Y-74218800D01*
X165360811Y-74427300D01*
X165299992Y-74627794D01*
X165201233Y-74812559D01*
X165201231Y-74812562D01*
X165201230Y-74812563D01*
X165068318Y-74974518D01*
X164906363Y-75107430D01*
X164906359Y-75107433D01*
X164721594Y-75206192D01*
X164521100Y-75267011D01*
X164364851Y-75282400D01*
X164260349Y-75282400D01*
X164104100Y-75267011D01*
X163903606Y-75206192D01*
X163718841Y-75107433D01*
X163718837Y-75107430D01*
X163556882Y-74974518D01*
X163423970Y-74812563D01*
X163423969Y-74812562D01*
X163423967Y-74812559D01*
X163325208Y-74627794D01*
X163264389Y-74427300D01*
X163243854Y-74218800D01*
X163264389Y-74010300D01*
X163325208Y-73809806D01*
X163423967Y-73625041D01*
X163423970Y-73625037D01*
X163556882Y-73463082D01*
X163718837Y-73330170D01*
X163718838Y-73330169D01*
X163718841Y-73330167D01*
X163903606Y-73231408D01*
X164104100Y-73170589D01*
X164260349Y-73155200D01*
X164364851Y-73155200D01*
X164521100Y-73170589D01*
X164521100Y-73170589D01*
G37*
G36*
X169601100Y-73170589D02*
G01*
X169801594Y-73231408D01*
X169986359Y-73330167D01*
X169986362Y-73330169D01*
X169986363Y-73330170D01*
X170148318Y-73463082D01*
X170281230Y-73625037D01*
X170281233Y-73625041D01*
X170379992Y-73809806D01*
X170440811Y-74010300D01*
X170461346Y-74218800D01*
X170440811Y-74427300D01*
X170379992Y-74627794D01*
X170281233Y-74812559D01*
X170281231Y-74812562D01*
X170281230Y-74812563D01*
X170148318Y-74974518D01*
X169986363Y-75107430D01*
X169986359Y-75107433D01*
X169801594Y-75206192D01*
X169601100Y-75267011D01*
X169444851Y-75282400D01*
X169340349Y-75282400D01*
X169184100Y-75267011D01*
X168983606Y-75206192D01*
X168798841Y-75107433D01*
X168798837Y-75107430D01*
X168636882Y-74974518D01*
X168503970Y-74812563D01*
X168503969Y-74812562D01*
X168503967Y-74812559D01*
X168405208Y-74627794D01*
X168344389Y-74427300D01*
X168323854Y-74218800D01*
X168344389Y-74010300D01*
X168405208Y-73809806D01*
X168503967Y-73625041D01*
X168503970Y-73625037D01*
X168636882Y-73463082D01*
X168798837Y-73330170D01*
X168798838Y-73330169D01*
X168798841Y-73330167D01*
X168983606Y-73231408D01*
X169184100Y-73170589D01*
X169340349Y-73155200D01*
X169444851Y-73155200D01*
X169601100Y-73170589D01*
X169601100Y-73170589D01*
G37*
G36*
X167061100Y-73170589D02*
G01*
X167261594Y-73231408D01*
X167446359Y-73330167D01*
X167446362Y-73330169D01*
X167446363Y-73330170D01*
X167608318Y-73463082D01*
X167741230Y-73625037D01*
X167741233Y-73625041D01*
X167839992Y-73809806D01*
X167900811Y-74010300D01*
X167921346Y-74218800D01*
X167900811Y-74427300D01*
X167839992Y-74627794D01*
X167741233Y-74812559D01*
X167741231Y-74812562D01*
X167741230Y-74812563D01*
X167608318Y-74974518D01*
X167446363Y-75107430D01*
X167446359Y-75107433D01*
X167261594Y-75206192D01*
X167061100Y-75267011D01*
X166904851Y-75282400D01*
X166800349Y-75282400D01*
X166644100Y-75267011D01*
X166443606Y-75206192D01*
X166258841Y-75107433D01*
X166258837Y-75107430D01*
X166096882Y-74974518D01*
X165963970Y-74812563D01*
X165963969Y-74812562D01*
X165963967Y-74812559D01*
X165865208Y-74627794D01*
X165804389Y-74427300D01*
X165783854Y-74218800D01*
X165804389Y-74010300D01*
X165865208Y-73809806D01*
X165963967Y-73625041D01*
X165963970Y-73625037D01*
X166096882Y-73463082D01*
X166258837Y-73330170D01*
X166258838Y-73330169D01*
X166258841Y-73330167D01*
X166443606Y-73231408D01*
X166644100Y-73170589D01*
X166800349Y-73155200D01*
X166904851Y-73155200D01*
X167061100Y-73170589D01*
X167061100Y-73170589D01*
G37*
G36*
X200293477Y-72367937D02*
G01*
X200444172Y-72413650D01*
X200583053Y-72487884D01*
X200704785Y-72587785D01*
X200804686Y-72709516D01*
X200878920Y-72848397D01*
X200924633Y-72999092D01*
X200936200Y-73116537D01*
X200936200Y-73695463D01*
X200924633Y-73812908D01*
X200878920Y-73963603D01*
X200804686Y-74102484D01*
X200704785Y-74224215D01*
X200583054Y-74324116D01*
X200444173Y-74398350D01*
X200293478Y-74444063D01*
X200136760Y-74459498D01*
X199980043Y-74444063D01*
X199829348Y-74398350D01*
X199690467Y-74324116D01*
X199568736Y-74224215D01*
X199468834Y-74102484D01*
X199394600Y-73963603D01*
X199348887Y-73812908D01*
X199337320Y-73695463D01*
X199337320Y-73116538D01*
X199348887Y-72999093D01*
X199394600Y-72848398D01*
X199468834Y-72709517D01*
X199568735Y-72587785D01*
X199690466Y-72487884D01*
X199829347Y-72413650D01*
X199980042Y-72367937D01*
X200136760Y-72352502D01*
X200293477Y-72367937D01*
X200293477Y-72367937D01*
G37*
G36*
X202292457Y-72367937D02*
G01*
X202443152Y-72413650D01*
X202582033Y-72487884D01*
X202703765Y-72587785D01*
X202803666Y-72709516D01*
X202877900Y-72848397D01*
X202923613Y-72999092D01*
X202935180Y-73116537D01*
X202935180Y-73695463D01*
X202923613Y-73812908D01*
X202877900Y-73963603D01*
X202803666Y-74102484D01*
X202703765Y-74224215D01*
X202582034Y-74324116D01*
X202443153Y-74398350D01*
X202292458Y-74444063D01*
X202135740Y-74459498D01*
X201979023Y-74444063D01*
X201828328Y-74398350D01*
X201689447Y-74324116D01*
X201567716Y-74224215D01*
X201467814Y-74102484D01*
X201393580Y-73963603D01*
X201347867Y-73812908D01*
X201336300Y-73695463D01*
X201336300Y-73116538D01*
X201347867Y-72999093D01*
X201393580Y-72848398D01*
X201467814Y-72709517D01*
X201567715Y-72587785D01*
X201689446Y-72487884D01*
X201828327Y-72413650D01*
X201979022Y-72367937D01*
X202135740Y-72352502D01*
X202292457Y-72367937D01*
X202292457Y-72367937D01*
G37*
G36*
X198291957Y-72367937D02*
G01*
X198442652Y-72413650D01*
X198581533Y-72487884D01*
X198703265Y-72587785D01*
X198803166Y-72709516D01*
X198877400Y-72848397D01*
X198923113Y-72999092D01*
X198934680Y-73116537D01*
X198934680Y-73695463D01*
X198923113Y-73812908D01*
X198877400Y-73963603D01*
X198803166Y-74102484D01*
X198703265Y-74224215D01*
X198581534Y-74324116D01*
X198442653Y-74398350D01*
X198291958Y-74444063D01*
X198135240Y-74459498D01*
X197978523Y-74444063D01*
X197827828Y-74398350D01*
X197688947Y-74324116D01*
X197567216Y-74224215D01*
X197467314Y-74102484D01*
X197393080Y-73963603D01*
X197347367Y-73812908D01*
X197335800Y-73695463D01*
X197335800Y-73116538D01*
X197347367Y-72999093D01*
X197393080Y-72848398D01*
X197467314Y-72709517D01*
X197567215Y-72587785D01*
X197688946Y-72487884D01*
X197827827Y-72413650D01*
X197978522Y-72367937D01*
X198135240Y-72352502D01*
X198291957Y-72367937D01*
X198291957Y-72367937D01*
G37*
G36*
X196933160Y-74455630D02*
G01*
X195334280Y-74455630D01*
X195334280Y-72356370D01*
X196933160Y-72356370D01*
X196933160Y-74455630D01*
X196933160Y-74455630D01*
G37*
M02*
