M48
; DRILL file {KiCad 5.1.2-f72e74a~84~ubuntu18.04.1} date Mi 19 Jun 2019 19:43:17 CEST
; FORMAT={-:-/ absolute / metric / decimal}
; #@! TF.CreationDate,2019-06-19T19:43:17+02:00
; #@! TF.GenerationSoftware,Kicad,Pcbnew,5.1.2-f72e74a~84~ubuntu18.04.1
; #@! TF.FileFunction,Plated,1,2,PTH
FMAT,2
METRIC
T1C0.400
T2C0.600
T3C0.701
T4C0.800
T5C1.000
T6C1.016
T7C1.300
T8C2.750
%
G90
G05
T1
X129.184Y-95.352
X132.884Y-95.926
X136.601Y-112.674
X137.5Y-109.2
X137.541Y-93.599
X137.795Y-112.649
X138.5Y-109.2
X139.192Y-93.116
X139.903Y-97.434
X140.7Y-107.0
X141.396Y-98.387
X141.603Y-97.323
X142.164Y-107.925
X142.345Y-93.171
X143.956Y-103.384
X144.197Y-107.625
X144.22Y-93.28
X145.05Y-93.45
X146.05Y-105.359
X147.32Y-103.276
X148.959Y-95.059
X149.863Y-91.59
X150.104Y-87.767
X150.19Y-86.97
X151.206Y-94.945
X151.46Y-83.845
X151.892Y-98.095
X153.228Y-91.864
X153.949Y-83.769
X154.0Y-91.034
X154.754Y-94.376
X154.94Y-108.306
X155.142Y-101.498
X155.179Y-99.121
X155.815Y-96.782
X155.854Y-95.428
X156.037Y-89.01
X156.08Y-100.708
X156.249Y-93.028
X156.519Y-98.284
X157.294Y-101.897
X157.75Y-98.575
X157.808Y-108.089
X157.886Y-107.29
X157.988Y-105.41
X158.17Y-100.983
X158.267Y-93.066
X159.868Y-93.885
X160.255Y-99.626
X160.712Y-108.128
X161.054Y-101.546
X161.12Y-98.682
X161.456Y-104.85
X161.722Y-97.917
X161.783Y-94.604
X161.799Y-101.836
X162.179Y-107.874
X162.255Y-104.877
X162.417Y-101.327
X162.432Y-100.463
X162.568Y-99.494
X162.6Y-109.4
X162.966Y-107.391
X163.073Y-104.896
X163.169Y-100.022
X164.0Y-109.5
X164.338Y-107.391
X164.922Y-91.516
X165.862Y-108.737
X165.964Y-120.142
X166.2Y-102.4
X166.597Y-93.557
X166.827Y-104.75
X167.644Y-93.909
X170.288Y-103.949
X170.434Y-103.149
X170.712Y-105.379
X170.778Y-104.582
X171.018Y-94.894
X171.621Y-91.213
X174.041Y-110.439
X175.104Y-108.263
X175.26Y-109.626
X178.664Y-100.371
X181.102Y-103.353
X181.102Y-117.094
X182.347Y-117.17
X183.7Y-90.3
X183.82Y-99.365
X184.099Y-110.592
X184.704Y-111.821
X184.81Y-110.185
X184.912Y-84.734
X185.699Y-107.188
X185.968Y-109.536
X186.009Y-93.471
X186.15Y-105.45
X186.157Y-84.76
X186.2Y-90.5
X186.2Y-92.2
X186.499Y-117.157
X186.563Y-119.189
X187.198Y-110.185
X187.546Y-95.819
X187.769Y-98.919
X189.366Y-92.882
X190.525Y-108.636
X190.957Y-97.587
X191.209Y-84.038
X192.087Y-117.157
X192.344Y-95.517
X192.515Y-93.018
X194.744Y-105.396
X195.631Y-77.445
X195.631Y-79.375
X196.322Y-83.66
X196.418Y-99.924
X197.206Y-88.097
X197.402Y-85.867
X197.801Y-103.647
X198.476Y-86.182
X198.65Y-119.1
X199.187Y-93.98
X200.66Y-114.444
X200.736Y-88.722
X201.168Y-105.41
X201.295Y-124.714
X201.412Y-86.369
X201.574Y-100.279
X202.032Y-94.386
X202.311Y-85.369
X202.743Y-86.131
X202.946Y-121.158
X203.784Y-89.611
X204.103Y-90.719
X204.132Y-93.283
X204.241Y-81.026
X204.81Y-121.117
X204.851Y-106.172
X205.168Y-113.221
X205.334Y-115.926
X205.384Y-74.676
X205.539Y-89.206
X206.085Y-92.754
X206.308Y-93.522
X207.019Y-84.921
X207.823Y-87.63
X207.924Y-86.756
X208.35Y-106.0
X208.589Y-88.722
X209.202Y-86.756
X210.0Y-110.0
X210.414Y-77.419
X210.871Y-101.041
X211.709Y-80.747
T2
X128.88Y-105.258
X136.906Y-120.142
X137.312Y-81.178
X139.573Y-83.312
X140.919Y-83.16
X141.326Y-108.814
X143.256Y-119.075
X147.0Y-95.3
X152.298Y-108.102
X153.822Y-89.764
X154.618Y-106.485
X155.272Y-89.484
X156.261Y-80.518
X156.972Y-87.122
X157.978Y-78.115
X159.258Y-82.423
X160.338Y-96.23
X163.068Y-83.566
X167.508Y-105.662
X169.926Y-84.201
X170.028Y-97.79
X170.307Y-81.788
X172.161Y-100.838
X181.624Y-83.349
X183.032Y-98.875
X183.236Y-91.338
X186.131Y-122.174
X188.62Y-90.957
X190.204Y-92.183
X193.4Y-82.2
X196.444Y-111.557
X196.698Y-115.164
X196.85Y-105.562
X197.51Y-122.733
X198.628Y-82.906
T3
X131.191Y-81.011
X131.191Y-83.01
X131.191Y-85.011
X131.191Y-87.01
X174.29Y-92.456
X176.291Y-92.456
X178.293Y-92.456
X180.292Y-92.456
X196.134Y-73.406
X198.135Y-73.406
X200.137Y-73.406
X202.136Y-73.406
X174.292Y-98.425
X176.291Y-98.425
X178.293Y-98.425
X180.294Y-98.425
X210.185Y-117.269
X210.185Y-119.268
X210.185Y-121.27
X210.185Y-123.271
T4
X190.17Y-102.133
X190.17Y-107.213
X150.749Y-98.742
X150.749Y-103.822
X162.408Y-87.579
X167.488Y-87.579
T5
X153.67Y-109.982
X153.67Y-116.459
X165.354Y-116.967
X167.894Y-112.395
X168.783Y-117.475
X169.418Y-112.268
X171.196Y-117.094
X174.6Y-115.1
X175.895Y-116.586
X133.794Y-82.74
X133.794Y-85.28
X211.582Y-113.538
X134.112Y-99.06
X134.112Y-101.6
X134.112Y-104.14
X208.407Y-75.692
X210.947Y-75.692
X131.572Y-91.44
X131.572Y-93.98
X131.572Y-96.52
X131.572Y-99.06
X131.572Y-101.6
X131.572Y-104.14
X179.197Y-104.14
X179.197Y-106.68
X210.439Y-93.472
X210.439Y-96.012
X210.439Y-98.552
T6
X136.373Y-74.219
X136.373Y-76.759
X138.913Y-74.219
X138.913Y-76.759
X141.453Y-74.219
X141.453Y-76.759
X143.993Y-74.219
X143.993Y-76.759
X146.533Y-74.219
X146.533Y-76.759
X149.073Y-74.219
X149.073Y-76.759
X151.613Y-74.219
X151.613Y-76.759
X154.153Y-74.219
X154.153Y-76.759
X156.693Y-74.219
X156.693Y-76.759
X159.233Y-74.219
X159.233Y-76.759
X161.773Y-74.219
X161.773Y-76.759
X164.313Y-74.219
X164.313Y-76.759
X166.853Y-74.219
X166.853Y-76.759
X169.393Y-74.219
X169.393Y-76.759
X171.933Y-74.219
X171.933Y-76.759
X174.473Y-74.219
X174.473Y-76.759
X177.013Y-74.219
X177.013Y-76.759
X179.553Y-74.219
X179.553Y-76.759
X182.093Y-74.219
X182.093Y-76.759
X184.633Y-74.219
X184.633Y-76.759
T7
X143.804Y-123.444
X148.804Y-123.444
X166.196Y-123.444
X171.196Y-123.444
T8
X189.5Y-75.5
X131.5Y-75.5
X189.5Y-124.5
X131.5Y-124.5
T0
M30
