G04 #@! TF.GenerationSoftware,KiCad,Pcbnew,5.1.2-f72e74a~84~ubuntu16.04.1*
G04 #@! TF.CreationDate,2019-06-06T19:13:55+02:00*
G04 #@! TF.ProjectId,rs232-rs485,72733233-322d-4727-9334-38352e6b6963,1.0*
G04 #@! TF.SameCoordinates,Original*
G04 #@! TF.FileFunction,Copper,L2,Bot*
G04 #@! TF.FilePolarity,Positive*
%FSLAX46Y46*%
G04 Gerber Fmt 4.6, Leading zero omitted, Abs format (unit mm)*
G04 Created by KiCad (PCBNEW 5.1.2-f72e74a~84~ubuntu16.04.1) date 2019-06-06 19:13:55*
%MOMM*%
%LPD*%
G04 APERTURE LIST*
%ADD10C,0.050000*%
%ADD11O,1.350000X1.350000*%
%ADD12R,1.350000X1.350000*%
%ADD13C,0.100000*%
%ADD14C,0.975000*%
%ADD15R,1.060000X0.650000*%
%ADD16O,1.600000X1.600000*%
%ADD17R,1.600000X1.600000*%
%ADD18C,0.800000*%
%ADD19C,0.250000*%
G04 APERTURE END LIST*
D10*
X125603000Y-108839000D02*
X125476000Y-108839000D01*
X125476000Y-108712000D02*
X125476000Y-108839000D01*
X125476000Y-97917000D02*
X125603000Y-97917000D01*
X136398000Y-97917000D02*
X136271000Y-97917000D01*
X136271000Y-108839000D02*
X136398000Y-108839000D01*
X136271000Y-108839000D02*
X125603000Y-108839000D01*
X136398000Y-97917000D02*
X136398000Y-108839000D01*
X125603000Y-97917000D02*
X136271000Y-97917000D01*
X125476000Y-108712000D02*
X125476000Y-97917000D01*
D11*
X132930400Y-107467400D03*
X130930400Y-107467400D03*
D12*
X128930400Y-107467400D03*
D13*
G36*
X132269142Y-99758174D02*
G01*
X132292803Y-99761684D01*
X132316007Y-99767496D01*
X132338529Y-99775554D01*
X132360153Y-99785782D01*
X132380670Y-99798079D01*
X132399883Y-99812329D01*
X132417607Y-99828393D01*
X132433671Y-99846117D01*
X132447921Y-99865330D01*
X132460218Y-99885847D01*
X132470446Y-99907471D01*
X132478504Y-99929993D01*
X132484316Y-99953197D01*
X132487826Y-99976858D01*
X132489000Y-100000750D01*
X132489000Y-100913250D01*
X132487826Y-100937142D01*
X132484316Y-100960803D01*
X132478504Y-100984007D01*
X132470446Y-101006529D01*
X132460218Y-101028153D01*
X132447921Y-101048670D01*
X132433671Y-101067883D01*
X132417607Y-101085607D01*
X132399883Y-101101671D01*
X132380670Y-101115921D01*
X132360153Y-101128218D01*
X132338529Y-101138446D01*
X132316007Y-101146504D01*
X132292803Y-101152316D01*
X132269142Y-101155826D01*
X132245250Y-101157000D01*
X131757750Y-101157000D01*
X131733858Y-101155826D01*
X131710197Y-101152316D01*
X131686993Y-101146504D01*
X131664471Y-101138446D01*
X131642847Y-101128218D01*
X131622330Y-101115921D01*
X131603117Y-101101671D01*
X131585393Y-101085607D01*
X131569329Y-101067883D01*
X131555079Y-101048670D01*
X131542782Y-101028153D01*
X131532554Y-101006529D01*
X131524496Y-100984007D01*
X131518684Y-100960803D01*
X131515174Y-100937142D01*
X131514000Y-100913250D01*
X131514000Y-100000750D01*
X131515174Y-99976858D01*
X131518684Y-99953197D01*
X131524496Y-99929993D01*
X131532554Y-99907471D01*
X131542782Y-99885847D01*
X131555079Y-99865330D01*
X131569329Y-99846117D01*
X131585393Y-99828393D01*
X131603117Y-99812329D01*
X131622330Y-99798079D01*
X131642847Y-99785782D01*
X131664471Y-99775554D01*
X131686993Y-99767496D01*
X131710197Y-99761684D01*
X131733858Y-99758174D01*
X131757750Y-99757000D01*
X132245250Y-99757000D01*
X132269142Y-99758174D01*
X132269142Y-99758174D01*
G37*
D14*
X132001500Y-100457000D03*
D13*
G36*
X130394142Y-99758174D02*
G01*
X130417803Y-99761684D01*
X130441007Y-99767496D01*
X130463529Y-99775554D01*
X130485153Y-99785782D01*
X130505670Y-99798079D01*
X130524883Y-99812329D01*
X130542607Y-99828393D01*
X130558671Y-99846117D01*
X130572921Y-99865330D01*
X130585218Y-99885847D01*
X130595446Y-99907471D01*
X130603504Y-99929993D01*
X130609316Y-99953197D01*
X130612826Y-99976858D01*
X130614000Y-100000750D01*
X130614000Y-100913250D01*
X130612826Y-100937142D01*
X130609316Y-100960803D01*
X130603504Y-100984007D01*
X130595446Y-101006529D01*
X130585218Y-101028153D01*
X130572921Y-101048670D01*
X130558671Y-101067883D01*
X130542607Y-101085607D01*
X130524883Y-101101671D01*
X130505670Y-101115921D01*
X130485153Y-101128218D01*
X130463529Y-101138446D01*
X130441007Y-101146504D01*
X130417803Y-101152316D01*
X130394142Y-101155826D01*
X130370250Y-101157000D01*
X129882750Y-101157000D01*
X129858858Y-101155826D01*
X129835197Y-101152316D01*
X129811993Y-101146504D01*
X129789471Y-101138446D01*
X129767847Y-101128218D01*
X129747330Y-101115921D01*
X129728117Y-101101671D01*
X129710393Y-101085607D01*
X129694329Y-101067883D01*
X129680079Y-101048670D01*
X129667782Y-101028153D01*
X129657554Y-101006529D01*
X129649496Y-100984007D01*
X129643684Y-100960803D01*
X129640174Y-100937142D01*
X129639000Y-100913250D01*
X129639000Y-100000750D01*
X129640174Y-99976858D01*
X129643684Y-99953197D01*
X129649496Y-99929993D01*
X129657554Y-99907471D01*
X129667782Y-99885847D01*
X129680079Y-99865330D01*
X129694329Y-99846117D01*
X129710393Y-99828393D01*
X129728117Y-99812329D01*
X129747330Y-99798079D01*
X129767847Y-99785782D01*
X129789471Y-99775554D01*
X129811993Y-99767496D01*
X129835197Y-99761684D01*
X129858858Y-99758174D01*
X129882750Y-99757000D01*
X130370250Y-99757000D01*
X130394142Y-99758174D01*
X130394142Y-99758174D01*
G37*
D14*
X130126500Y-100457000D03*
D13*
G36*
X130394142Y-98107174D02*
G01*
X130417803Y-98110684D01*
X130441007Y-98116496D01*
X130463529Y-98124554D01*
X130485153Y-98134782D01*
X130505670Y-98147079D01*
X130524883Y-98161329D01*
X130542607Y-98177393D01*
X130558671Y-98195117D01*
X130572921Y-98214330D01*
X130585218Y-98234847D01*
X130595446Y-98256471D01*
X130603504Y-98278993D01*
X130609316Y-98302197D01*
X130612826Y-98325858D01*
X130614000Y-98349750D01*
X130614000Y-99262250D01*
X130612826Y-99286142D01*
X130609316Y-99309803D01*
X130603504Y-99333007D01*
X130595446Y-99355529D01*
X130585218Y-99377153D01*
X130572921Y-99397670D01*
X130558671Y-99416883D01*
X130542607Y-99434607D01*
X130524883Y-99450671D01*
X130505670Y-99464921D01*
X130485153Y-99477218D01*
X130463529Y-99487446D01*
X130441007Y-99495504D01*
X130417803Y-99501316D01*
X130394142Y-99504826D01*
X130370250Y-99506000D01*
X129882750Y-99506000D01*
X129858858Y-99504826D01*
X129835197Y-99501316D01*
X129811993Y-99495504D01*
X129789471Y-99487446D01*
X129767847Y-99477218D01*
X129747330Y-99464921D01*
X129728117Y-99450671D01*
X129710393Y-99434607D01*
X129694329Y-99416883D01*
X129680079Y-99397670D01*
X129667782Y-99377153D01*
X129657554Y-99355529D01*
X129649496Y-99333007D01*
X129643684Y-99309803D01*
X129640174Y-99286142D01*
X129639000Y-99262250D01*
X129639000Y-98349750D01*
X129640174Y-98325858D01*
X129643684Y-98302197D01*
X129649496Y-98278993D01*
X129657554Y-98256471D01*
X129667782Y-98234847D01*
X129680079Y-98214330D01*
X129694329Y-98195117D01*
X129710393Y-98177393D01*
X129728117Y-98161329D01*
X129747330Y-98147079D01*
X129767847Y-98134782D01*
X129789471Y-98124554D01*
X129811993Y-98116496D01*
X129835197Y-98110684D01*
X129858858Y-98107174D01*
X129882750Y-98106000D01*
X130370250Y-98106000D01*
X130394142Y-98107174D01*
X130394142Y-98107174D01*
G37*
D14*
X130126500Y-98806000D03*
D13*
G36*
X132269142Y-98107174D02*
G01*
X132292803Y-98110684D01*
X132316007Y-98116496D01*
X132338529Y-98124554D01*
X132360153Y-98134782D01*
X132380670Y-98147079D01*
X132399883Y-98161329D01*
X132417607Y-98177393D01*
X132433671Y-98195117D01*
X132447921Y-98214330D01*
X132460218Y-98234847D01*
X132470446Y-98256471D01*
X132478504Y-98278993D01*
X132484316Y-98302197D01*
X132487826Y-98325858D01*
X132489000Y-98349750D01*
X132489000Y-99262250D01*
X132487826Y-99286142D01*
X132484316Y-99309803D01*
X132478504Y-99333007D01*
X132470446Y-99355529D01*
X132460218Y-99377153D01*
X132447921Y-99397670D01*
X132433671Y-99416883D01*
X132417607Y-99434607D01*
X132399883Y-99450671D01*
X132380670Y-99464921D01*
X132360153Y-99477218D01*
X132338529Y-99487446D01*
X132316007Y-99495504D01*
X132292803Y-99501316D01*
X132269142Y-99504826D01*
X132245250Y-99506000D01*
X131757750Y-99506000D01*
X131733858Y-99504826D01*
X131710197Y-99501316D01*
X131686993Y-99495504D01*
X131664471Y-99487446D01*
X131642847Y-99477218D01*
X131622330Y-99464921D01*
X131603117Y-99450671D01*
X131585393Y-99434607D01*
X131569329Y-99416883D01*
X131555079Y-99397670D01*
X131542782Y-99377153D01*
X131532554Y-99355529D01*
X131524496Y-99333007D01*
X131518684Y-99309803D01*
X131515174Y-99286142D01*
X131514000Y-99262250D01*
X131514000Y-98349750D01*
X131515174Y-98325858D01*
X131518684Y-98302197D01*
X131524496Y-98278993D01*
X131532554Y-98256471D01*
X131542782Y-98234847D01*
X131555079Y-98214330D01*
X131569329Y-98195117D01*
X131585393Y-98177393D01*
X131603117Y-98161329D01*
X131622330Y-98147079D01*
X131642847Y-98134782D01*
X131664471Y-98124554D01*
X131686993Y-98116496D01*
X131710197Y-98110684D01*
X131733858Y-98107174D01*
X131757750Y-98106000D01*
X132245250Y-98106000D01*
X132269142Y-98107174D01*
X132269142Y-98107174D01*
G37*
D14*
X132001500Y-98806000D03*
D15*
X129837000Y-103124000D03*
X129837000Y-102174000D03*
X129837000Y-104074000D03*
X132037000Y-104074000D03*
X132037000Y-103124000D03*
X132037000Y-102174000D03*
D16*
X127127000Y-107188000D03*
X134747000Y-99568000D03*
X127127000Y-104648000D03*
X134747000Y-102108000D03*
X127127000Y-102108000D03*
X134747000Y-104648000D03*
X127127000Y-99568000D03*
D17*
X134747000Y-107188000D03*
D18*
X130463980Y-100457000D03*
X127806978Y-103377991D03*
X132867400Y-103149400D03*
X133629400Y-100482400D03*
X133858000Y-103505000D03*
X130907000Y-104010763D03*
D19*
X128981999Y-105333001D02*
X128981999Y-103199001D01*
X128981999Y-103199001D02*
X129057000Y-103124000D01*
X129057000Y-103124000D02*
X129837000Y-103124000D01*
X127127000Y-107188000D02*
X128981999Y-105333001D01*
X128981999Y-103048999D02*
X129057000Y-103124000D01*
X128981999Y-101588999D02*
X128981999Y-103048999D01*
X130605840Y-101482010D02*
X129088988Y-101482010D01*
X131188990Y-100898860D02*
X130605840Y-101482010D01*
X131188990Y-99618510D02*
X131188990Y-100898860D01*
X129088988Y-101482010D02*
X128981999Y-101588999D01*
X132001500Y-98806000D02*
X131188990Y-99618510D01*
X135546999Y-100367999D02*
X134747000Y-99568000D01*
X132037000Y-104074000D02*
X132037000Y-104649000D01*
X132037000Y-104649000D02*
X133161001Y-105773001D01*
X135399999Y-105773001D02*
X135872001Y-105300999D01*
X135872001Y-105300999D02*
X135872001Y-100693001D01*
X133161001Y-105773001D02*
X135399999Y-105773001D01*
X135872001Y-100693001D02*
X135546999Y-100367999D01*
X128258370Y-104648000D02*
X127127000Y-104648000D01*
X130126500Y-100457000D02*
X129477587Y-100457000D01*
X128531988Y-101402599D02*
X128531988Y-104374382D01*
X129477587Y-100457000D02*
X128531988Y-101402599D01*
X128531988Y-104374382D02*
X128258370Y-104648000D01*
X130126500Y-100457000D02*
X130463980Y-100457000D01*
X129837000Y-102174000D02*
X130617000Y-102174000D01*
X134162999Y-101523999D02*
X134747000Y-102108000D01*
X130617000Y-102174000D02*
X131267001Y-101523999D01*
X131267001Y-101523999D02*
X134162999Y-101523999D01*
X127127000Y-101805500D02*
X127127000Y-102108000D01*
X130126500Y-98806000D02*
X127127000Y-101805500D01*
X132037000Y-103124000D02*
X132051352Y-103109648D01*
X126327001Y-100367999D02*
X127127000Y-99568000D01*
X126001999Y-100693001D02*
X126327001Y-100367999D01*
X126001999Y-102648001D02*
X126001999Y-100693001D01*
X126731989Y-103377991D02*
X126001999Y-102648001D01*
X127806978Y-103377991D02*
X126731989Y-103377991D01*
X132062400Y-103149400D02*
X132037000Y-103124000D01*
X132867400Y-103149400D02*
X132062400Y-103149400D01*
X132001500Y-100457000D02*
X133604000Y-100457000D01*
X133604000Y-100457000D02*
X133629400Y-100482400D01*
X133416000Y-102174000D02*
X132655263Y-102174000D01*
X132655263Y-102174000D02*
X132037000Y-102174000D01*
X133858000Y-102939315D02*
X133604000Y-102685315D01*
X133858000Y-103505000D02*
X133858000Y-102939315D01*
X133604000Y-102362000D02*
X133416000Y-102174000D01*
X133604000Y-102685315D02*
X133604000Y-102362000D01*
X129900237Y-104010763D02*
X129837000Y-104074000D01*
X130907000Y-104010763D02*
X129900237Y-104010763D01*
M02*
