G04 #@! TF.GenerationSoftware,KiCad,Pcbnew,5.1.2-f72e74a~84~ubuntu16.04.1*
G04 #@! TF.CreationDate,2019-06-06T19:13:55+02:00*
G04 #@! TF.ProjectId,rs232-rs485,72733233-322d-4727-9334-38352e6b6963,1.0*
G04 #@! TF.SameCoordinates,Original*
G04 #@! TF.FileFunction,Soldermask,Bot*
G04 #@! TF.FilePolarity,Negative*
%FSLAX46Y46*%
G04 Gerber Fmt 4.6, Leading zero omitted, Abs format (unit mm)*
G04 Created by KiCad (PCBNEW 5.1.2-f72e74a~84~ubuntu16.04.1) date 2019-06-06 19:13:55*
%MOMM*%
%LPD*%
G04 APERTURE LIST*
%ADD10C,0.050000*%
%ADD11C,0.100000*%
G04 APERTURE END LIST*
D10*
X125603000Y-108839000D02*
X125476000Y-108839000D01*
X125476000Y-108712000D02*
X125476000Y-108839000D01*
X125476000Y-97917000D02*
X125603000Y-97917000D01*
X136398000Y-97917000D02*
X136271000Y-97917000D01*
X136271000Y-108839000D02*
X136398000Y-108839000D01*
X136271000Y-108839000D02*
X125603000Y-108839000D01*
X136398000Y-97917000D02*
X136398000Y-108839000D01*
X125603000Y-97917000D02*
X136271000Y-97917000D01*
X125476000Y-108712000D02*
X125476000Y-97917000D01*
D11*
G36*
X135598000Y-108039000D02*
G01*
X133896000Y-108039000D01*
X133896000Y-107614772D01*
X133893598Y-107590386D01*
X133886485Y-107566937D01*
X133874934Y-107545326D01*
X133859389Y-107526384D01*
X133840447Y-107510839D01*
X133818836Y-107499288D01*
X133795387Y-107492175D01*
X133771001Y-107489773D01*
X133746615Y-107492175D01*
X133723166Y-107499288D01*
X133701555Y-107510839D01*
X133682613Y-107526384D01*
X133667068Y-107545326D01*
X133655517Y-107566937D01*
X133646604Y-107602519D01*
X133645895Y-107609721D01*
X133629709Y-107663078D01*
X133604380Y-107746575D01*
X133536968Y-107872694D01*
X133446243Y-107983243D01*
X133335694Y-108073968D01*
X133209575Y-108141380D01*
X133209572Y-108141381D01*
X133072721Y-108182895D01*
X133001613Y-108189898D01*
X132966060Y-108193400D01*
X132894740Y-108193400D01*
X132859187Y-108189898D01*
X132788079Y-108182895D01*
X132651228Y-108141381D01*
X132651225Y-108141380D01*
X132525106Y-108073968D01*
X132414557Y-107983243D01*
X132323832Y-107872694D01*
X132256420Y-107746575D01*
X132231091Y-107663078D01*
X132214905Y-107609721D01*
X132200888Y-107467400D01*
X132214905Y-107325079D01*
X132256419Y-107188228D01*
X132256420Y-107188225D01*
X132323832Y-107062106D01*
X132414557Y-106951557D01*
X132525106Y-106860832D01*
X132651225Y-106793420D01*
X132651228Y-106793419D01*
X132788079Y-106751905D01*
X132859187Y-106744902D01*
X132894740Y-106741400D01*
X132966060Y-106741400D01*
X133001613Y-106744902D01*
X133072721Y-106751905D01*
X133209572Y-106793419D01*
X133209575Y-106793420D01*
X133335694Y-106860832D01*
X133446243Y-106951557D01*
X133536968Y-107062106D01*
X133604380Y-107188225D01*
X133604381Y-107188228D01*
X133645895Y-107325079D01*
X133645895Y-107325081D01*
X133646604Y-107332280D01*
X133651385Y-107356314D01*
X133660762Y-107378952D01*
X133674376Y-107399327D01*
X133691703Y-107416654D01*
X133712077Y-107430267D01*
X133734716Y-107439645D01*
X133758749Y-107444425D01*
X133783253Y-107444425D01*
X133807287Y-107439644D01*
X133829925Y-107430267D01*
X133850300Y-107416653D01*
X133867627Y-107399326D01*
X133881240Y-107378952D01*
X133890618Y-107356313D01*
X133896000Y-107320028D01*
X133896000Y-106337000D01*
X135598000Y-106337000D01*
X135598000Y-108039000D01*
X135598000Y-108039000D01*
G37*
G36*
X127293823Y-106349313D02*
G01*
X127454242Y-106397976D01*
X127586906Y-106468886D01*
X127602078Y-106476996D01*
X127731659Y-106583341D01*
X127838004Y-106712922D01*
X127838005Y-106712924D01*
X127917024Y-106860758D01*
X127917025Y-106860761D01*
X127917047Y-106860833D01*
X127959784Y-107001718D01*
X127969162Y-107024357D01*
X127982776Y-107044732D01*
X128000103Y-107062059D01*
X128020477Y-107075672D01*
X128043116Y-107085050D01*
X128067149Y-107089830D01*
X128091653Y-107089830D01*
X128115686Y-107085050D01*
X128138325Y-107075672D01*
X128158700Y-107062058D01*
X128176027Y-107044731D01*
X128189640Y-107024357D01*
X128199018Y-107001718D01*
X128204400Y-106965433D01*
X128204400Y-106741400D01*
X129656400Y-106741400D01*
X129656400Y-108193400D01*
X128204400Y-108193400D01*
X128204400Y-107410567D01*
X128201998Y-107386181D01*
X128194885Y-107362732D01*
X128183334Y-107341121D01*
X128167789Y-107322179D01*
X128148847Y-107306634D01*
X128127236Y-107295083D01*
X128103787Y-107287970D01*
X128079401Y-107285568D01*
X128055015Y-107287970D01*
X128031566Y-107295083D01*
X128009955Y-107306634D01*
X127991013Y-107322179D01*
X127975468Y-107341121D01*
X127959784Y-107374282D01*
X127917024Y-107515242D01*
X127870373Y-107602520D01*
X127838004Y-107663078D01*
X127731659Y-107792659D01*
X127602078Y-107899004D01*
X127602076Y-107899005D01*
X127454242Y-107978024D01*
X127454239Y-107978025D01*
X127424380Y-107987083D01*
X127293823Y-108026687D01*
X127168804Y-108039000D01*
X127085196Y-108039000D01*
X126960177Y-108026687D01*
X126829620Y-107987083D01*
X126799761Y-107978025D01*
X126799758Y-107978024D01*
X126651924Y-107899005D01*
X126651922Y-107899004D01*
X126522341Y-107792659D01*
X126415996Y-107663078D01*
X126383627Y-107602520D01*
X126336976Y-107515242D01*
X126288313Y-107354823D01*
X126271883Y-107188000D01*
X126288313Y-107021177D01*
X126336953Y-106860833D01*
X126336975Y-106860761D01*
X126336976Y-106860758D01*
X126415995Y-106712924D01*
X126415996Y-106712922D01*
X126522341Y-106583341D01*
X126651922Y-106476996D01*
X126667094Y-106468886D01*
X126799758Y-106397976D01*
X126960177Y-106349313D01*
X127085196Y-106337000D01*
X127168804Y-106337000D01*
X127293823Y-106349313D01*
X127293823Y-106349313D01*
G37*
G36*
X131001613Y-106744902D02*
G01*
X131072721Y-106751905D01*
X131209572Y-106793419D01*
X131209575Y-106793420D01*
X131335694Y-106860832D01*
X131446243Y-106951557D01*
X131536968Y-107062106D01*
X131604380Y-107188225D01*
X131604381Y-107188228D01*
X131645895Y-107325079D01*
X131659912Y-107467400D01*
X131645895Y-107609721D01*
X131629709Y-107663078D01*
X131604380Y-107746575D01*
X131536968Y-107872694D01*
X131446243Y-107983243D01*
X131335694Y-108073968D01*
X131209575Y-108141380D01*
X131209572Y-108141381D01*
X131072721Y-108182895D01*
X131001613Y-108189898D01*
X130966060Y-108193400D01*
X130894740Y-108193400D01*
X130859187Y-108189898D01*
X130788079Y-108182895D01*
X130651228Y-108141381D01*
X130651225Y-108141380D01*
X130525106Y-108073968D01*
X130414557Y-107983243D01*
X130323832Y-107872694D01*
X130256420Y-107746575D01*
X130231091Y-107663078D01*
X130214905Y-107609721D01*
X130200888Y-107467400D01*
X130214905Y-107325079D01*
X130256419Y-107188228D01*
X130256420Y-107188225D01*
X130323832Y-107062106D01*
X130414557Y-106951557D01*
X130525106Y-106860832D01*
X130651225Y-106793420D01*
X130651228Y-106793419D01*
X130788079Y-106751905D01*
X130859187Y-106744902D01*
X130894740Y-106741400D01*
X130966060Y-106741400D01*
X131001613Y-106744902D01*
X131001613Y-106744902D01*
G37*
G36*
X127293823Y-103809313D02*
G01*
X127454242Y-103857976D01*
X127586906Y-103928886D01*
X127602078Y-103936996D01*
X127731659Y-104043341D01*
X127838004Y-104172922D01*
X127838005Y-104172924D01*
X127917024Y-104320758D01*
X127965687Y-104481177D01*
X127982117Y-104648000D01*
X127965687Y-104814823D01*
X127917024Y-104975242D01*
X127846114Y-105107906D01*
X127838004Y-105123078D01*
X127731659Y-105252659D01*
X127602078Y-105359004D01*
X127602076Y-105359005D01*
X127454242Y-105438024D01*
X127293823Y-105486687D01*
X127168804Y-105499000D01*
X127085196Y-105499000D01*
X126960177Y-105486687D01*
X126799758Y-105438024D01*
X126651924Y-105359005D01*
X126651922Y-105359004D01*
X126522341Y-105252659D01*
X126415996Y-105123078D01*
X126407886Y-105107906D01*
X126336976Y-104975242D01*
X126288313Y-104814823D01*
X126271883Y-104648000D01*
X126288313Y-104481177D01*
X126336976Y-104320758D01*
X126415995Y-104172924D01*
X126415996Y-104172922D01*
X126522341Y-104043341D01*
X126651922Y-103936996D01*
X126667094Y-103928886D01*
X126799758Y-103857976D01*
X126960177Y-103809313D01*
X127085196Y-103797000D01*
X127168804Y-103797000D01*
X127293823Y-103809313D01*
X127293823Y-103809313D01*
G37*
G36*
X134913823Y-103809313D02*
G01*
X135074242Y-103857976D01*
X135206906Y-103928886D01*
X135222078Y-103936996D01*
X135351659Y-104043341D01*
X135458004Y-104172922D01*
X135458005Y-104172924D01*
X135537024Y-104320758D01*
X135585687Y-104481177D01*
X135602117Y-104648000D01*
X135585687Y-104814823D01*
X135537024Y-104975242D01*
X135466114Y-105107906D01*
X135458004Y-105123078D01*
X135351659Y-105252659D01*
X135222078Y-105359004D01*
X135222076Y-105359005D01*
X135074242Y-105438024D01*
X134913823Y-105486687D01*
X134788804Y-105499000D01*
X134705196Y-105499000D01*
X134580177Y-105486687D01*
X134419758Y-105438024D01*
X134271924Y-105359005D01*
X134271922Y-105359004D01*
X134142341Y-105252659D01*
X134035996Y-105123078D01*
X134027886Y-105107906D01*
X133956976Y-104975242D01*
X133908313Y-104814823D01*
X133891883Y-104648000D01*
X133908313Y-104481177D01*
X133956976Y-104320758D01*
X134035995Y-104172924D01*
X134035996Y-104172922D01*
X134142341Y-104043341D01*
X134271922Y-103936996D01*
X134287094Y-103928886D01*
X134419758Y-103857976D01*
X134580177Y-103809313D01*
X134705196Y-103797000D01*
X134788804Y-103797000D01*
X134913823Y-103809313D01*
X134913823Y-103809313D01*
G37*
G36*
X132618000Y-104450000D02*
G01*
X131456000Y-104450000D01*
X131456000Y-101798000D01*
X132618000Y-101798000D01*
X132618000Y-104450000D01*
X132618000Y-104450000D01*
G37*
G36*
X130418000Y-104450000D02*
G01*
X129256000Y-104450000D01*
X129256000Y-101798000D01*
X130418000Y-101798000D01*
X130418000Y-104450000D01*
X130418000Y-104450000D01*
G37*
G36*
X134913823Y-101269313D02*
G01*
X135074242Y-101317976D01*
X135206906Y-101388886D01*
X135222078Y-101396996D01*
X135351659Y-101503341D01*
X135458004Y-101632922D01*
X135458005Y-101632924D01*
X135537024Y-101780758D01*
X135585687Y-101941177D01*
X135602117Y-102108000D01*
X135585687Y-102274823D01*
X135537024Y-102435242D01*
X135466114Y-102567906D01*
X135458004Y-102583078D01*
X135351659Y-102712659D01*
X135222078Y-102819004D01*
X135222076Y-102819005D01*
X135074242Y-102898024D01*
X134913823Y-102946687D01*
X134788804Y-102959000D01*
X134705196Y-102959000D01*
X134580177Y-102946687D01*
X134419758Y-102898024D01*
X134271924Y-102819005D01*
X134271922Y-102819004D01*
X134142341Y-102712659D01*
X134035996Y-102583078D01*
X134027886Y-102567906D01*
X133956976Y-102435242D01*
X133908313Y-102274823D01*
X133891883Y-102108000D01*
X133908313Y-101941177D01*
X133956976Y-101780758D01*
X134035995Y-101632924D01*
X134035996Y-101632922D01*
X134142341Y-101503341D01*
X134271922Y-101396996D01*
X134287094Y-101388886D01*
X134419758Y-101317976D01*
X134580177Y-101269313D01*
X134705196Y-101257000D01*
X134788804Y-101257000D01*
X134913823Y-101269313D01*
X134913823Y-101269313D01*
G37*
G36*
X127293823Y-101269313D02*
G01*
X127454242Y-101317976D01*
X127586906Y-101388886D01*
X127602078Y-101396996D01*
X127731659Y-101503341D01*
X127838004Y-101632922D01*
X127838005Y-101632924D01*
X127917024Y-101780758D01*
X127965687Y-101941177D01*
X127982117Y-102108000D01*
X127965687Y-102274823D01*
X127917024Y-102435242D01*
X127846114Y-102567906D01*
X127838004Y-102583078D01*
X127731659Y-102712659D01*
X127602078Y-102819004D01*
X127602076Y-102819005D01*
X127454242Y-102898024D01*
X127293823Y-102946687D01*
X127168804Y-102959000D01*
X127085196Y-102959000D01*
X126960177Y-102946687D01*
X126799758Y-102898024D01*
X126651924Y-102819005D01*
X126651922Y-102819004D01*
X126522341Y-102712659D01*
X126415996Y-102583078D01*
X126407886Y-102567906D01*
X126336976Y-102435242D01*
X126288313Y-102274823D01*
X126271883Y-102108000D01*
X126288313Y-101941177D01*
X126336976Y-101780758D01*
X126415995Y-101632924D01*
X126415996Y-101632922D01*
X126522341Y-101503341D01*
X126651922Y-101396996D01*
X126667094Y-101388886D01*
X126799758Y-101317976D01*
X126960177Y-101269313D01*
X127085196Y-101257000D01*
X127168804Y-101257000D01*
X127293823Y-101269313D01*
X127293823Y-101269313D01*
G37*
G36*
X130498468Y-98059565D02*
G01*
X130537138Y-98071296D01*
X130572777Y-98090346D01*
X130604017Y-98115983D01*
X130629654Y-98147223D01*
X130648704Y-98182862D01*
X130660435Y-98221532D01*
X130665000Y-98267888D01*
X130665000Y-99344112D01*
X130660435Y-99390468D01*
X130648704Y-99429138D01*
X130629654Y-99464777D01*
X130604017Y-99496017D01*
X130572135Y-99522181D01*
X130553137Y-99534875D01*
X130535811Y-99552203D01*
X130522197Y-99572577D01*
X130512820Y-99595216D01*
X130508040Y-99619249D01*
X130508040Y-99643753D01*
X130512821Y-99667787D01*
X130522198Y-99690425D01*
X130535812Y-99710800D01*
X130553140Y-99728126D01*
X130572135Y-99740819D01*
X130604017Y-99766983D01*
X130629654Y-99798223D01*
X130648704Y-99833862D01*
X130660435Y-99872532D01*
X130665000Y-99918888D01*
X130665000Y-100995112D01*
X130660435Y-101041468D01*
X130648704Y-101080138D01*
X130629654Y-101115777D01*
X130604017Y-101147017D01*
X130572777Y-101172654D01*
X130537138Y-101191704D01*
X130498468Y-101203435D01*
X130452112Y-101208000D01*
X129800888Y-101208000D01*
X129754532Y-101203435D01*
X129715862Y-101191704D01*
X129680223Y-101172654D01*
X129648983Y-101147017D01*
X129623346Y-101115777D01*
X129604296Y-101080138D01*
X129592565Y-101041468D01*
X129588000Y-100995112D01*
X129588000Y-99918888D01*
X129592565Y-99872532D01*
X129604296Y-99833862D01*
X129623346Y-99798223D01*
X129648983Y-99766983D01*
X129680865Y-99740819D01*
X129699863Y-99728125D01*
X129717189Y-99710797D01*
X129730803Y-99690423D01*
X129740180Y-99667784D01*
X129744960Y-99643751D01*
X129744960Y-99619247D01*
X129740179Y-99595213D01*
X129730802Y-99572575D01*
X129717188Y-99552200D01*
X129699860Y-99534874D01*
X129680865Y-99522181D01*
X129648983Y-99496017D01*
X129623346Y-99464777D01*
X129604296Y-99429138D01*
X129592565Y-99390468D01*
X129588000Y-99344112D01*
X129588000Y-98267888D01*
X129592565Y-98221532D01*
X129604296Y-98182862D01*
X129623346Y-98147223D01*
X129648983Y-98115983D01*
X129680223Y-98090346D01*
X129715862Y-98071296D01*
X129754532Y-98059565D01*
X129800888Y-98055000D01*
X130452112Y-98055000D01*
X130498468Y-98059565D01*
X130498468Y-98059565D01*
G37*
G36*
X132373468Y-98059565D02*
G01*
X132412138Y-98071296D01*
X132447777Y-98090346D01*
X132479017Y-98115983D01*
X132504654Y-98147223D01*
X132523704Y-98182862D01*
X132535435Y-98221532D01*
X132540000Y-98267888D01*
X132540000Y-99344112D01*
X132535435Y-99390468D01*
X132523704Y-99429138D01*
X132504654Y-99464777D01*
X132479017Y-99496017D01*
X132447135Y-99522181D01*
X132428137Y-99534875D01*
X132410811Y-99552203D01*
X132397197Y-99572577D01*
X132387820Y-99595216D01*
X132383040Y-99619249D01*
X132383040Y-99643753D01*
X132387821Y-99667787D01*
X132397198Y-99690425D01*
X132410812Y-99710800D01*
X132428140Y-99728126D01*
X132447135Y-99740819D01*
X132479017Y-99766983D01*
X132504654Y-99798223D01*
X132523704Y-99833862D01*
X132535435Y-99872532D01*
X132540000Y-99918888D01*
X132540000Y-100995112D01*
X132535435Y-101041468D01*
X132523704Y-101080138D01*
X132504654Y-101115777D01*
X132479017Y-101147017D01*
X132447777Y-101172654D01*
X132412138Y-101191704D01*
X132373468Y-101203435D01*
X132327112Y-101208000D01*
X131675888Y-101208000D01*
X131629532Y-101203435D01*
X131590862Y-101191704D01*
X131555223Y-101172654D01*
X131523983Y-101147017D01*
X131498346Y-101115777D01*
X131479296Y-101080138D01*
X131467565Y-101041468D01*
X131463000Y-100995112D01*
X131463000Y-99918888D01*
X131467565Y-99872532D01*
X131479296Y-99833862D01*
X131498346Y-99798223D01*
X131523983Y-99766983D01*
X131555865Y-99740819D01*
X131574863Y-99728125D01*
X131592189Y-99710797D01*
X131605803Y-99690423D01*
X131615180Y-99667784D01*
X131619960Y-99643751D01*
X131619960Y-99619247D01*
X131615179Y-99595213D01*
X131605802Y-99572575D01*
X131592188Y-99552200D01*
X131574860Y-99534874D01*
X131555865Y-99522181D01*
X131523983Y-99496017D01*
X131498346Y-99464777D01*
X131479296Y-99429138D01*
X131467565Y-99390468D01*
X131463000Y-99344112D01*
X131463000Y-98267888D01*
X131467565Y-98221532D01*
X131479296Y-98182862D01*
X131498346Y-98147223D01*
X131523983Y-98115983D01*
X131555223Y-98090346D01*
X131590862Y-98071296D01*
X131629532Y-98059565D01*
X131675888Y-98055000D01*
X132327112Y-98055000D01*
X132373468Y-98059565D01*
X132373468Y-98059565D01*
G37*
G36*
X127293823Y-98729313D02*
G01*
X127454242Y-98777976D01*
X127586906Y-98848886D01*
X127602078Y-98856996D01*
X127731659Y-98963341D01*
X127838004Y-99092922D01*
X127838005Y-99092924D01*
X127917024Y-99240758D01*
X127965687Y-99401177D01*
X127982117Y-99568000D01*
X127965687Y-99734823D01*
X127917024Y-99895242D01*
X127874259Y-99975250D01*
X127838004Y-100043078D01*
X127731659Y-100172659D01*
X127602078Y-100279004D01*
X127602076Y-100279005D01*
X127454242Y-100358024D01*
X127293823Y-100406687D01*
X127168804Y-100419000D01*
X127085196Y-100419000D01*
X126960177Y-100406687D01*
X126799758Y-100358024D01*
X126651924Y-100279005D01*
X126651922Y-100279004D01*
X126522341Y-100172659D01*
X126415996Y-100043078D01*
X126379741Y-99975250D01*
X126336976Y-99895242D01*
X126288313Y-99734823D01*
X126271883Y-99568000D01*
X126288313Y-99401177D01*
X126336976Y-99240758D01*
X126415995Y-99092924D01*
X126415996Y-99092922D01*
X126522341Y-98963341D01*
X126651922Y-98856996D01*
X126667094Y-98848886D01*
X126799758Y-98777976D01*
X126960177Y-98729313D01*
X127085196Y-98717000D01*
X127168804Y-98717000D01*
X127293823Y-98729313D01*
X127293823Y-98729313D01*
G37*
G36*
X134913823Y-98729313D02*
G01*
X135074242Y-98777976D01*
X135206906Y-98848886D01*
X135222078Y-98856996D01*
X135351659Y-98963341D01*
X135458004Y-99092922D01*
X135458005Y-99092924D01*
X135537024Y-99240758D01*
X135585687Y-99401177D01*
X135602117Y-99568000D01*
X135585687Y-99734823D01*
X135537024Y-99895242D01*
X135494259Y-99975250D01*
X135458004Y-100043078D01*
X135351659Y-100172659D01*
X135222078Y-100279004D01*
X135222076Y-100279005D01*
X135074242Y-100358024D01*
X134913823Y-100406687D01*
X134788804Y-100419000D01*
X134705196Y-100419000D01*
X134580177Y-100406687D01*
X134419758Y-100358024D01*
X134271924Y-100279005D01*
X134271922Y-100279004D01*
X134142341Y-100172659D01*
X134035996Y-100043078D01*
X133999741Y-99975250D01*
X133956976Y-99895242D01*
X133908313Y-99734823D01*
X133891883Y-99568000D01*
X133908313Y-99401177D01*
X133956976Y-99240758D01*
X134035995Y-99092924D01*
X134035996Y-99092922D01*
X134142341Y-98963341D01*
X134271922Y-98856996D01*
X134287094Y-98848886D01*
X134419758Y-98777976D01*
X134580177Y-98729313D01*
X134705196Y-98717000D01*
X134788804Y-98717000D01*
X134913823Y-98729313D01*
X134913823Y-98729313D01*
G37*
M02*
