G04 #@! TF.FileFunction,Soldermask,Top*
%FSLAX46Y46*%
G04 Gerber Fmt 4.6, Leading zero omitted, Abs format (unit mm)*
G04 Created by KiCad (PCBNEW 4.0.7-e2-6376~58~ubuntu16.04.1) date Fri Aug  3 19:32:04 2018*
%MOMM*%
%LPD*%
G01*
G04 APERTURE LIST*
%ADD10C,0.100000*%
%ADD11C,0.150000*%
%ADD12C,5.400000*%
%ADD13O,2.127200X2.432000*%
%ADD14R,2.127200X2.432000*%
%ADD15R,2.432000X2.432000*%
%ADD16O,2.432000X2.432000*%
%ADD17C,2.800000*%
%ADD18R,2.800000X2.800000*%
%ADD19C,2.900000*%
%ADD20C,1.800000*%
%ADD21R,2.100000X2.100000*%
%ADD22O,2.100000X2.100000*%
G04 APERTURE END LIST*
D10*
D11*
X136500000Y-90000000D02*
G75*
G03X135000000Y-91500000I0J-1500000D01*
G01*
X165000000Y-91500000D02*
G75*
G03X163500000Y-90000000I-1500000J0D01*
G01*
X163500000Y-130000000D02*
G75*
G03X165000000Y-128500000I0J1500000D01*
G01*
X135000000Y-128500000D02*
G75*
G03X136500000Y-130000000I1500000J0D01*
G01*
X135000000Y-91500000D02*
X135000000Y-128500000D01*
X163500000Y-130000000D02*
X136500000Y-130000000D01*
X165000000Y-91500000D02*
X165000000Y-128500000D01*
X136500000Y-90000000D02*
X163500000Y-90000000D01*
D12*
X137500000Y-127500000D03*
X162500000Y-127500000D03*
X162500000Y-92500000D03*
D13*
X156337000Y-120015000D03*
X153797000Y-120015000D03*
X151257000Y-120015000D03*
X148717000Y-120015000D03*
X146177000Y-120015000D03*
D14*
X143637000Y-120015000D03*
D15*
X142494000Y-110363000D03*
D16*
X142494000Y-107823000D03*
D17*
X155764000Y-111351000D03*
D18*
X155764000Y-107851000D03*
D12*
X137500000Y-92500000D03*
D19*
X157762400Y-91539600D03*
X142262400Y-91539600D03*
D20*
X151917400Y-100929600D03*
X154457400Y-100929600D03*
X153187400Y-103469600D03*
X150647400Y-103469600D03*
X149377400Y-100929600D03*
X148107400Y-103469600D03*
X146837400Y-100929600D03*
X145567400Y-103469600D03*
D19*
X157762400Y-97639600D03*
X142262400Y-97639600D03*
D21*
X143637000Y-125984000D03*
D22*
X146177000Y-125984000D03*
X148717000Y-125984000D03*
X151257000Y-125984000D03*
X153797000Y-125984000D03*
X156337000Y-125984000D03*
M02*
