M48
;DRILL file {KiCad 4.0.7-e2-6376~58~ubuntu16.04.1} date Fri Aug  3 19:32:02 2018
;FORMAT={-:-/ absolute / metric / decimal}
FMAT,2
METRIC,TZ
T1C0.400
T2C0.900
T3C1.000
T4C1.016
T5C1.200
T6C1.600
T7C3.100
%
G90
G05
M71
T1
X144.78Y-115.824
X147.955Y-122.428
X149.504Y-122.428
X150.012Y-117.653
X150.495Y-122.428
X152.044Y-122.428
X152.781Y-113.792
X152.857Y-115.57
X152.857Y-117.094
X152.908Y-122.403
X154.559Y-122.377
T2
X145.567Y-103.47
X146.837Y-100.93
X148.107Y-103.47
X149.377Y-100.93
X150.647Y-103.47
X151.917Y-100.93
X153.187Y-103.47
X154.457Y-100.93
T3
X143.637Y-125.984
X146.177Y-125.984
X148.717Y-125.984
X151.257Y-125.984
X153.797Y-125.984
X156.337Y-125.984
T4
X142.494Y-107.823
X142.494Y-110.363
X143.637Y-120.015
X146.177Y-120.015
X148.717Y-120.015
X151.257Y-120.015
X153.797Y-120.015
X156.337Y-120.015
T5
X155.764Y-107.851
X155.764Y-111.351
T6
X142.262Y-91.54
X142.262Y-97.64
X157.762Y-91.54
X157.762Y-97.64
T7
X137.5Y-92.5
X137.5Y-127.5
X162.5Y-92.5
X162.5Y-127.5
T0
M30
