G04 #@! TF.FileFunction,Legend,Top*
%FSLAX46Y46*%
G04 Gerber Fmt 4.6, Leading zero omitted, Abs format (unit mm)*
G04 Created by KiCad (PCBNEW 4.0.7-e2-6376~58~ubuntu16.04.1) date Fri Aug  3 19:32:04 2018*
%MOMM*%
%LPD*%
G01*
G04 APERTURE LIST*
%ADD10C,0.100000*%
%ADD11C,0.300000*%
%ADD12C,0.200000*%
%ADD13C,0.150000*%
%ADD14C,0.381000*%
%ADD15C,0.120000*%
%ADD16C,0.304800*%
G04 APERTURE END LIST*
D10*
D11*
X161085715Y-110400000D02*
X160971429Y-110342857D01*
X160800000Y-110342857D01*
X160628572Y-110400000D01*
X160514286Y-110514286D01*
X160457143Y-110628571D01*
X160400000Y-110857143D01*
X160400000Y-111028571D01*
X160457143Y-111257143D01*
X160514286Y-111371429D01*
X160628572Y-111485714D01*
X160800000Y-111542857D01*
X160914286Y-111542857D01*
X161085715Y-111485714D01*
X161142858Y-111428571D01*
X161142858Y-111028571D01*
X160914286Y-111028571D01*
X161657143Y-111542857D02*
X161657143Y-110342857D01*
X162342858Y-111542857D01*
X162342858Y-110342857D01*
X162914286Y-111542857D02*
X162914286Y-110342857D01*
X163200001Y-110342857D01*
X163371429Y-110400000D01*
X163485715Y-110514286D01*
X163542858Y-110628571D01*
X163600001Y-110857143D01*
X163600001Y-111028571D01*
X163542858Y-111257143D01*
X163485715Y-111371429D01*
X163371429Y-111485714D01*
X163200001Y-111542857D01*
X162914286Y-111542857D01*
X160371430Y-106642857D02*
X160771430Y-107842857D01*
X161171430Y-106642857D01*
X162085715Y-107785714D02*
X161971429Y-107842857D01*
X161742858Y-107842857D01*
X161628572Y-107785714D01*
X161571429Y-107728571D01*
X161514286Y-107614286D01*
X161514286Y-107271429D01*
X161571429Y-107157143D01*
X161628572Y-107100000D01*
X161742858Y-107042857D01*
X161971429Y-107042857D01*
X162085715Y-107100000D01*
X163114286Y-107785714D02*
X163000000Y-107842857D01*
X162771429Y-107842857D01*
X162657143Y-107785714D01*
X162600000Y-107728571D01*
X162542857Y-107614286D01*
X162542857Y-107271429D01*
X162600000Y-107157143D01*
X162657143Y-107100000D01*
X162771429Y-107042857D01*
X163000000Y-107042857D01*
X163114286Y-107100000D01*
X136523809Y-117309524D02*
X136809524Y-117404762D01*
X137285714Y-117404762D01*
X137476190Y-117309524D01*
X137571428Y-117214286D01*
X137666667Y-117023810D01*
X137666667Y-116833333D01*
X137571428Y-116642857D01*
X137476190Y-116547619D01*
X137285714Y-116452381D01*
X136904762Y-116357143D01*
X136714286Y-116261905D01*
X136619047Y-116166667D01*
X136523809Y-115976190D01*
X136523809Y-115785714D01*
X136619047Y-115595238D01*
X136714286Y-115500000D01*
X136904762Y-115404762D01*
X137380952Y-115404762D01*
X137666667Y-115500000D01*
X138809524Y-116261905D02*
X138619048Y-116166667D01*
X138523809Y-116071429D01*
X138428571Y-115880952D01*
X138428571Y-115785714D01*
X138523809Y-115595238D01*
X138619048Y-115500000D01*
X138809524Y-115404762D01*
X139190476Y-115404762D01*
X139380952Y-115500000D01*
X139476190Y-115595238D01*
X139571429Y-115785714D01*
X139571429Y-115880952D01*
X139476190Y-116071429D01*
X139380952Y-116166667D01*
X139190476Y-116261905D01*
X138809524Y-116261905D01*
X138619048Y-116357143D01*
X138523809Y-116452381D01*
X138428571Y-116642857D01*
X138428571Y-117023810D01*
X138523809Y-117214286D01*
X138619048Y-117309524D01*
X138809524Y-117404762D01*
X139190476Y-117404762D01*
X139380952Y-117309524D01*
X139476190Y-117214286D01*
X139571429Y-117023810D01*
X139571429Y-116642857D01*
X139476190Y-116452381D01*
X139380952Y-116357143D01*
X139190476Y-116261905D01*
X140714286Y-116261905D02*
X140523810Y-116166667D01*
X140428571Y-116071429D01*
X140333333Y-115880952D01*
X140333333Y-115785714D01*
X140428571Y-115595238D01*
X140523810Y-115500000D01*
X140714286Y-115404762D01*
X141095238Y-115404762D01*
X141285714Y-115500000D01*
X141380952Y-115595238D01*
X141476191Y-115785714D01*
X141476191Y-115880952D01*
X141380952Y-116071429D01*
X141285714Y-116166667D01*
X141095238Y-116261905D01*
X140714286Y-116261905D01*
X140523810Y-116357143D01*
X140428571Y-116452381D01*
X140333333Y-116642857D01*
X140333333Y-117023810D01*
X140428571Y-117214286D01*
X140523810Y-117309524D01*
X140714286Y-117404762D01*
X141095238Y-117404762D01*
X141285714Y-117309524D01*
X141380952Y-117214286D01*
X141476191Y-117023810D01*
X141476191Y-116642857D01*
X141380952Y-116452381D01*
X141285714Y-116357143D01*
X141095238Y-116261905D01*
X144179857Y-118132000D02*
X142979857Y-118132000D01*
X142979857Y-117846285D01*
X143037000Y-117674857D01*
X143151286Y-117560571D01*
X143265571Y-117503428D01*
X143494143Y-117446285D01*
X143665571Y-117446285D01*
X143894143Y-117503428D01*
X144008429Y-117560571D01*
X144122714Y-117674857D01*
X144179857Y-117846285D01*
X144179857Y-118132000D01*
X143837000Y-116989143D02*
X143837000Y-116417714D01*
X144179857Y-117103428D02*
X142979857Y-116703428D01*
X144179857Y-116303428D01*
X142979857Y-116074857D02*
X142979857Y-115389143D01*
X144179857Y-115732000D02*
X142979857Y-115732000D01*
X143837000Y-115046286D02*
X143837000Y-114474857D01*
X144179857Y-115160571D02*
X142979857Y-114760571D01*
X144179857Y-114360571D01*
X145577000Y-117500285D02*
X145519857Y-117614571D01*
X145519857Y-117786000D01*
X145577000Y-117957428D01*
X145691286Y-118071714D01*
X145805571Y-118128857D01*
X146034143Y-118186000D01*
X146205571Y-118186000D01*
X146434143Y-118128857D01*
X146548429Y-118071714D01*
X146662714Y-117957428D01*
X146719857Y-117786000D01*
X146719857Y-117671714D01*
X146662714Y-117500285D01*
X146605571Y-117443142D01*
X146205571Y-117443142D01*
X146205571Y-117671714D01*
X146719857Y-116928857D02*
X145519857Y-116928857D01*
X146719857Y-116243142D01*
X145519857Y-116243142D01*
X146719857Y-115671714D02*
X145519857Y-115671714D01*
X145519857Y-115385999D01*
X145577000Y-115214571D01*
X145691286Y-115100285D01*
X145805571Y-115043142D01*
X146034143Y-114985999D01*
X146205571Y-114985999D01*
X146434143Y-115043142D01*
X146548429Y-115100285D01*
X146662714Y-115214571D01*
X146719857Y-115385999D01*
X146719857Y-115671714D01*
X149145571Y-117436713D02*
X149202714Y-117493856D01*
X149259857Y-117665285D01*
X149259857Y-117779571D01*
X149202714Y-117950999D01*
X149088429Y-118065285D01*
X148974143Y-118122428D01*
X148745571Y-118179571D01*
X148574143Y-118179571D01*
X148345571Y-118122428D01*
X148231286Y-118065285D01*
X148117000Y-117950999D01*
X148059857Y-117779571D01*
X148059857Y-117665285D01*
X148117000Y-117493856D01*
X148174143Y-117436713D01*
X149259857Y-116750999D02*
X149202714Y-116865285D01*
X149088429Y-116922428D01*
X148059857Y-116922428D01*
X149259857Y-116122428D02*
X149202714Y-116236714D01*
X149145571Y-116293857D01*
X149031286Y-116351000D01*
X148688429Y-116351000D01*
X148574143Y-116293857D01*
X148517000Y-116236714D01*
X148459857Y-116122428D01*
X148459857Y-115951000D01*
X148517000Y-115836714D01*
X148574143Y-115779571D01*
X148688429Y-115722428D01*
X149031286Y-115722428D01*
X149145571Y-115779571D01*
X149202714Y-115836714D01*
X149259857Y-115951000D01*
X149259857Y-116122428D01*
X149202714Y-114693857D02*
X149259857Y-114808143D01*
X149259857Y-115036714D01*
X149202714Y-115151000D01*
X149145571Y-115208143D01*
X149031286Y-115265286D01*
X148688429Y-115265286D01*
X148574143Y-115208143D01*
X148517000Y-115151000D01*
X148459857Y-115036714D01*
X148459857Y-114808143D01*
X148517000Y-114693857D01*
X149259857Y-114179572D02*
X148059857Y-114179572D01*
X148802714Y-114065286D02*
X149259857Y-113722429D01*
X148459857Y-113722429D02*
X148917000Y-114179572D01*
X151799857Y-117589142D02*
X151799857Y-118160571D01*
X150599857Y-118160571D01*
X151799857Y-117017713D02*
X151742714Y-117131999D01*
X151685571Y-117189142D01*
X151571286Y-117246285D01*
X151228429Y-117246285D01*
X151114143Y-117189142D01*
X151057000Y-117131999D01*
X150999857Y-117017713D01*
X150999857Y-116846285D01*
X151057000Y-116731999D01*
X151114143Y-116674856D01*
X151228429Y-116617713D01*
X151571286Y-116617713D01*
X151685571Y-116674856D01*
X151742714Y-116731999D01*
X151799857Y-116846285D01*
X151799857Y-117017713D01*
X151799857Y-115589142D02*
X151171286Y-115589142D01*
X151057000Y-115646285D01*
X150999857Y-115760571D01*
X150999857Y-115989142D01*
X151057000Y-116103428D01*
X151742714Y-115589142D02*
X151799857Y-115703428D01*
X151799857Y-115989142D01*
X151742714Y-116103428D01*
X151628429Y-116160571D01*
X151514143Y-116160571D01*
X151399857Y-116103428D01*
X151342714Y-115989142D01*
X151342714Y-115703428D01*
X151285571Y-115589142D01*
X151799857Y-114503428D02*
X150599857Y-114503428D01*
X151742714Y-114503428D02*
X151799857Y-114617714D01*
X151799857Y-114846285D01*
X151742714Y-114960571D01*
X151685571Y-115017714D01*
X151571286Y-115074857D01*
X151228429Y-115074857D01*
X151114143Y-115017714D01*
X151057000Y-114960571D01*
X150999857Y-114846285D01*
X150999857Y-114617714D01*
X151057000Y-114503428D01*
X154339857Y-117563713D02*
X153768429Y-117963713D01*
X154339857Y-118249428D02*
X153139857Y-118249428D01*
X153139857Y-117792285D01*
X153197000Y-117677999D01*
X153254143Y-117620856D01*
X153368429Y-117563713D01*
X153539857Y-117563713D01*
X153654143Y-117620856D01*
X153711286Y-117677999D01*
X153768429Y-117792285D01*
X153768429Y-118249428D01*
X154282714Y-116592285D02*
X154339857Y-116706571D01*
X154339857Y-116935142D01*
X154282714Y-117049428D01*
X154168429Y-117106571D01*
X153711286Y-117106571D01*
X153597000Y-117049428D01*
X153539857Y-116935142D01*
X153539857Y-116706571D01*
X153597000Y-116592285D01*
X153711286Y-116535142D01*
X153825571Y-116535142D01*
X153939857Y-117106571D01*
X154282714Y-116078000D02*
X154339857Y-115963714D01*
X154339857Y-115735142D01*
X154282714Y-115620857D01*
X154168429Y-115563714D01*
X154111286Y-115563714D01*
X153997000Y-115620857D01*
X153939857Y-115735142D01*
X153939857Y-115906571D01*
X153882714Y-116020857D01*
X153768429Y-116078000D01*
X153711286Y-116078000D01*
X153597000Y-116020857D01*
X153539857Y-115906571D01*
X153539857Y-115735142D01*
X153597000Y-115620857D01*
X154282714Y-114592285D02*
X154339857Y-114706571D01*
X154339857Y-114935142D01*
X154282714Y-115049428D01*
X154168429Y-115106571D01*
X153711286Y-115106571D01*
X153597000Y-115049428D01*
X153539857Y-114935142D01*
X153539857Y-114706571D01*
X153597000Y-114592285D01*
X153711286Y-114535142D01*
X153825571Y-114535142D01*
X153939857Y-115106571D01*
X153539857Y-114192285D02*
X153539857Y-113735142D01*
X153139857Y-114020857D02*
X154168429Y-114020857D01*
X154282714Y-113963714D01*
X154339857Y-113849428D01*
X154339857Y-113735142D01*
X155679857Y-118268570D02*
X156879857Y-117868570D01*
X155679857Y-117468570D01*
X156822714Y-116554285D02*
X156879857Y-116668571D01*
X156879857Y-116897142D01*
X156822714Y-117011428D01*
X156765571Y-117068571D01*
X156651286Y-117125714D01*
X156308429Y-117125714D01*
X156194143Y-117068571D01*
X156137000Y-117011428D01*
X156079857Y-116897142D01*
X156079857Y-116668571D01*
X156137000Y-116554285D01*
X156822714Y-115525714D02*
X156879857Y-115640000D01*
X156879857Y-115868571D01*
X156822714Y-115982857D01*
X156765571Y-116040000D01*
X156651286Y-116097143D01*
X156308429Y-116097143D01*
X156194143Y-116040000D01*
X156137000Y-115982857D01*
X156079857Y-115868571D01*
X156079857Y-115640000D01*
X156137000Y-115525714D01*
D12*
X162000000Y-122000000D02*
X161000000Y-123000000D01*
X163000000Y-123000000D02*
X162000000Y-122000000D01*
X161000000Y-123000000D02*
X163000000Y-123000000D01*
X138000000Y-121500000D02*
X137000000Y-122500000D01*
X139000000Y-122500000D02*
X138000000Y-121500000D01*
X137000000Y-122500000D02*
X139000000Y-122500000D01*
X138000000Y-98500000D02*
X139000000Y-99500000D01*
X137000000Y-99500000D02*
X138000000Y-98500000D01*
X139000000Y-99500000D02*
X137000000Y-99500000D01*
X162000000Y-98500000D02*
X161000000Y-99500000D01*
X163000000Y-99500000D02*
X162000000Y-98500000D01*
X161000000Y-99500000D02*
X163000000Y-99500000D01*
D13*
X136500000Y-90000000D02*
G75*
G03X135000000Y-91500000I0J-1500000D01*
G01*
X165000000Y-91500000D02*
G75*
G03X163500000Y-90000000I-1500000J0D01*
G01*
X163500000Y-130000000D02*
G75*
G03X165000000Y-128500000I0J1500000D01*
G01*
X135000000Y-128500000D02*
G75*
G03X136500000Y-130000000I1500000J0D01*
G01*
X135000000Y-91500000D02*
X135000000Y-128500000D01*
X163500000Y-130000000D02*
X136500000Y-130000000D01*
X165000000Y-91500000D02*
X165000000Y-128500000D01*
X136500000Y-90000000D02*
X163500000Y-90000000D01*
X139786000Y-127500000D02*
G75*
G03X139786000Y-127500000I-2286000J0D01*
G01*
X164786000Y-127500000D02*
G75*
G03X164786000Y-127500000I-2286000J0D01*
G01*
X164786000Y-92500000D02*
G75*
G03X164786000Y-92500000I-2286000J0D01*
G01*
X157887000Y-118715000D02*
X156337000Y-118715000D01*
X157887000Y-120015000D02*
X157887000Y-118715000D01*
X156464000Y-124206000D02*
X156464000Y-130048000D01*
X156464000Y-130048000D02*
X156210000Y-130048000D01*
X156210000Y-130048000D02*
X156210000Y-124206000D01*
X156210000Y-124206000D02*
X156337000Y-124206000D01*
X156337000Y-124206000D02*
X156337000Y-130048000D01*
X156591000Y-121539000D02*
X156591000Y-121158000D01*
X156083000Y-121539000D02*
X156083000Y-121158000D01*
X154051000Y-121539000D02*
X154051000Y-121158000D01*
X153543000Y-121539000D02*
X153543000Y-121158000D01*
X151511000Y-121539000D02*
X151511000Y-121158000D01*
X151003000Y-121539000D02*
X151003000Y-121158000D01*
X143383000Y-121539000D02*
X143383000Y-121158000D01*
X143891000Y-121539000D02*
X143891000Y-121158000D01*
X145923000Y-121539000D02*
X145923000Y-121158000D01*
X146431000Y-121539000D02*
X146431000Y-121158000D01*
X148463000Y-121539000D02*
X148463000Y-121158000D01*
X148971000Y-121539000D02*
X148971000Y-121158000D01*
X157607000Y-121539000D02*
X157607000Y-124079000D01*
X155067000Y-121539000D02*
X155067000Y-124079000D01*
X155067000Y-121539000D02*
X152527000Y-121539000D01*
X152527000Y-121539000D02*
X152527000Y-124079000D01*
X154051000Y-124079000D02*
X154051000Y-130175000D01*
X154051000Y-130175000D02*
X153543000Y-130175000D01*
X153543000Y-130175000D02*
X153543000Y-124079000D01*
X152527000Y-124079000D02*
X155067000Y-124079000D01*
X155067000Y-124079000D02*
X157607000Y-124079000D01*
X156083000Y-130175000D02*
X156083000Y-124079000D01*
X156591000Y-130175000D02*
X156083000Y-130175000D01*
X156591000Y-124079000D02*
X156591000Y-130175000D01*
X155067000Y-121539000D02*
X155067000Y-124079000D01*
X157607000Y-121539000D02*
X155067000Y-121539000D01*
X147447000Y-121539000D02*
X147447000Y-124079000D01*
X147447000Y-121539000D02*
X144907000Y-121539000D01*
X144907000Y-121539000D02*
X144907000Y-124079000D01*
X146431000Y-124079000D02*
X146431000Y-130175000D01*
X146431000Y-130175000D02*
X145923000Y-130175000D01*
X145923000Y-130175000D02*
X145923000Y-124079000D01*
X144907000Y-124079000D02*
X147447000Y-124079000D01*
X142367000Y-124079000D02*
X144907000Y-124079000D01*
X143383000Y-130175000D02*
X143383000Y-124079000D01*
X143891000Y-130175000D02*
X143383000Y-130175000D01*
X143891000Y-124079000D02*
X143891000Y-130175000D01*
X142367000Y-121539000D02*
X142367000Y-124079000D01*
X144907000Y-121539000D02*
X142367000Y-121539000D01*
X144907000Y-121539000D02*
X144907000Y-124079000D01*
X149987000Y-121539000D02*
X149987000Y-124079000D01*
X149987000Y-121539000D02*
X147447000Y-121539000D01*
X147447000Y-121539000D02*
X147447000Y-124079000D01*
X148971000Y-124079000D02*
X148971000Y-130175000D01*
X148971000Y-130175000D02*
X148463000Y-130175000D01*
X148463000Y-130175000D02*
X148463000Y-124079000D01*
X147447000Y-124079000D02*
X149987000Y-124079000D01*
X149987000Y-124079000D02*
X152527000Y-124079000D01*
X151003000Y-130175000D02*
X151003000Y-124079000D01*
X151511000Y-130175000D02*
X151003000Y-130175000D01*
X151511000Y-124079000D02*
X151511000Y-130175000D01*
X149987000Y-121539000D02*
X149987000Y-124079000D01*
X152527000Y-121539000D02*
X149987000Y-121539000D01*
X152527000Y-121539000D02*
X152527000Y-124079000D01*
X141224000Y-109093000D02*
X141224000Y-106553000D01*
X140944000Y-111913000D02*
X140944000Y-110363000D01*
X141224000Y-109093000D02*
X143764000Y-109093000D01*
X144044000Y-110363000D02*
X144044000Y-111913000D01*
X144044000Y-111913000D02*
X140944000Y-111913000D01*
X143764000Y-109093000D02*
X143764000Y-106553000D01*
X143764000Y-106553000D02*
X141224000Y-106553000D01*
D14*
X159864000Y-109601000D02*
X160264000Y-109601000D01*
X158764000Y-113101000D02*
X158764000Y-106101000D01*
X159864000Y-113101000D02*
X159864000Y-106101000D01*
X152664000Y-113101000D02*
X160264000Y-113101000D01*
X160264000Y-106101000D02*
X152664000Y-106101000D01*
X152664000Y-106101000D02*
X152664000Y-113101000D01*
D13*
X139786000Y-92500000D02*
G75*
G03X139786000Y-92500000I-2286000J0D01*
G01*
D14*
X158394400Y-105511600D02*
X158394400Y-91287600D01*
X158394400Y-91287600D02*
X156108400Y-91287600D01*
X141630400Y-105511600D02*
X141630400Y-91287600D01*
X141630400Y-91287600D02*
X143916400Y-91287600D01*
X158267400Y-105484600D02*
X141757400Y-105484600D01*
X156108400Y-91260600D02*
X143916400Y-91260600D01*
D15*
X157667000Y-127314000D02*
X157667000Y-124654000D01*
X144907000Y-127314000D02*
X157667000Y-127314000D01*
X144907000Y-124654000D02*
X157667000Y-124654000D01*
X144907000Y-127314000D02*
X144907000Y-124654000D01*
X143637000Y-127314000D02*
X142307000Y-127314000D01*
X142307000Y-127314000D02*
X142307000Y-125984000D01*
D13*
X159789381Y-120753095D02*
X158789381Y-120753095D01*
X158789381Y-120372142D01*
X158837000Y-120276904D01*
X158884619Y-120229285D01*
X158979857Y-120181666D01*
X159122714Y-120181666D01*
X159217952Y-120229285D01*
X159265571Y-120276904D01*
X159313190Y-120372142D01*
X159313190Y-120753095D01*
X159789381Y-119229285D02*
X159789381Y-119800714D01*
X159789381Y-119515000D02*
X158789381Y-119515000D01*
X158932238Y-119610238D01*
X159027476Y-119705476D01*
X159075095Y-119800714D01*
X145446381Y-109601095D02*
X144446381Y-109601095D01*
X144446381Y-109220142D01*
X144494000Y-109124904D01*
X144541619Y-109077285D01*
X144636857Y-109029666D01*
X144779714Y-109029666D01*
X144874952Y-109077285D01*
X144922571Y-109124904D01*
X144970190Y-109220142D01*
X144970190Y-109601095D01*
X144541619Y-108648714D02*
X144494000Y-108601095D01*
X144446381Y-108505857D01*
X144446381Y-108267761D01*
X144494000Y-108172523D01*
X144541619Y-108124904D01*
X144636857Y-108077285D01*
X144732095Y-108077285D01*
X144874952Y-108124904D01*
X145446381Y-108696333D01*
X145446381Y-108077285D01*
D11*
X160842571Y-105608142D02*
X159342571Y-105608142D01*
X159342571Y-105036714D01*
X159414000Y-104893856D01*
X159485429Y-104822428D01*
X159628286Y-104750999D01*
X159842571Y-104750999D01*
X159985429Y-104822428D01*
X160056857Y-104893856D01*
X160128286Y-105036714D01*
X160128286Y-105608142D01*
X159342571Y-104250999D02*
X159342571Y-103322428D01*
X159914000Y-103822428D01*
X159914000Y-103608142D01*
X159985429Y-103465285D01*
X160056857Y-103393856D01*
X160199714Y-103322428D01*
X160556857Y-103322428D01*
X160699714Y-103393856D01*
X160771143Y-103465285D01*
X160842571Y-103608142D01*
X160842571Y-104036714D01*
X160771143Y-104179571D01*
X160699714Y-104250999D01*
D16*
X149504400Y-88929029D02*
X149504400Y-90017600D01*
X149431828Y-90235314D01*
X149286685Y-90380457D01*
X149068971Y-90453029D01*
X148923828Y-90453029D01*
X151028400Y-90453029D02*
X150157543Y-90453029D01*
X150592971Y-90453029D02*
X150592971Y-88929029D01*
X150447828Y-89146743D01*
X150302686Y-89291886D01*
X150157543Y-89364457D01*
D13*
X158075381Y-126444333D02*
X158789667Y-126444333D01*
X158932524Y-126491953D01*
X159027762Y-126587191D01*
X159075381Y-126730048D01*
X159075381Y-126825286D01*
X158170619Y-126015762D02*
X158123000Y-125968143D01*
X158075381Y-125872905D01*
X158075381Y-125634809D01*
X158123000Y-125539571D01*
X158170619Y-125491952D01*
X158265857Y-125444333D01*
X158361095Y-125444333D01*
X158503952Y-125491952D01*
X159075381Y-126063381D01*
X159075381Y-125444333D01*
M02*
