G04 #@! TF.FileFunction,Legend,Bot*
%FSLAX46Y46*%
G04 Gerber Fmt 4.6, Leading zero omitted, Abs format (unit mm)*
G04 Created by KiCad (PCBNEW 4.0.2+dfsg1-stable) date Fr 03 Aug 2018 15:40:32 CEST*
%MOMM*%
G01*
G04 APERTURE LIST*
%ADD10C,0.100000*%
%ADD11C,0.300000*%
%ADD12C,0.150000*%
G04 APERTURE END LIST*
D10*
D11*
X144179857Y-114405000D02*
X142979857Y-114405000D01*
X142979857Y-114690715D01*
X143037000Y-114862143D01*
X143151286Y-114976429D01*
X143265571Y-115033572D01*
X143494143Y-115090715D01*
X143665571Y-115090715D01*
X143894143Y-115033572D01*
X144008429Y-114976429D01*
X144122714Y-114862143D01*
X144179857Y-114690715D01*
X144179857Y-114405000D01*
X143837000Y-115547857D02*
X143837000Y-116119286D01*
X144179857Y-115433572D02*
X142979857Y-115833572D01*
X144179857Y-116233572D01*
X142979857Y-116462143D02*
X142979857Y-117147857D01*
X144179857Y-116805000D02*
X142979857Y-116805000D01*
X143837000Y-117490714D02*
X143837000Y-118062143D01*
X144179857Y-117376429D02*
X142979857Y-117776429D01*
X144179857Y-118176429D01*
X145577000Y-115671715D02*
X145519857Y-115557429D01*
X145519857Y-115386000D01*
X145577000Y-115214572D01*
X145691286Y-115100286D01*
X145805571Y-115043143D01*
X146034143Y-114986000D01*
X146205571Y-114986000D01*
X146434143Y-115043143D01*
X146548429Y-115100286D01*
X146662714Y-115214572D01*
X146719857Y-115386000D01*
X146719857Y-115500286D01*
X146662714Y-115671715D01*
X146605571Y-115728858D01*
X146205571Y-115728858D01*
X146205571Y-115500286D01*
X146719857Y-116243143D02*
X145519857Y-116243143D01*
X146719857Y-116928858D01*
X145519857Y-116928858D01*
X146719857Y-117500286D02*
X145519857Y-117500286D01*
X145519857Y-117786001D01*
X145577000Y-117957429D01*
X145691286Y-118071715D01*
X145805571Y-118128858D01*
X146034143Y-118186001D01*
X146205571Y-118186001D01*
X146434143Y-118128858D01*
X146548429Y-118071715D01*
X146662714Y-117957429D01*
X146719857Y-117786001D01*
X146719857Y-117500286D01*
X149145571Y-114465287D02*
X149202714Y-114408144D01*
X149259857Y-114236715D01*
X149259857Y-114122429D01*
X149202714Y-113951001D01*
X149088429Y-113836715D01*
X148974143Y-113779572D01*
X148745571Y-113722429D01*
X148574143Y-113722429D01*
X148345571Y-113779572D01*
X148231286Y-113836715D01*
X148117000Y-113951001D01*
X148059857Y-114122429D01*
X148059857Y-114236715D01*
X148117000Y-114408144D01*
X148174143Y-114465287D01*
X149259857Y-115151001D02*
X149202714Y-115036715D01*
X149088429Y-114979572D01*
X148059857Y-114979572D01*
X149259857Y-115779572D02*
X149202714Y-115665286D01*
X149145571Y-115608143D01*
X149031286Y-115551000D01*
X148688429Y-115551000D01*
X148574143Y-115608143D01*
X148517000Y-115665286D01*
X148459857Y-115779572D01*
X148459857Y-115951000D01*
X148517000Y-116065286D01*
X148574143Y-116122429D01*
X148688429Y-116179572D01*
X149031286Y-116179572D01*
X149145571Y-116122429D01*
X149202714Y-116065286D01*
X149259857Y-115951000D01*
X149259857Y-115779572D01*
X149202714Y-117208143D02*
X149259857Y-117093857D01*
X149259857Y-116865286D01*
X149202714Y-116751000D01*
X149145571Y-116693857D01*
X149031286Y-116636714D01*
X148688429Y-116636714D01*
X148574143Y-116693857D01*
X148517000Y-116751000D01*
X148459857Y-116865286D01*
X148459857Y-117093857D01*
X148517000Y-117208143D01*
X149259857Y-117722428D02*
X148059857Y-117722428D01*
X148802714Y-117836714D02*
X149259857Y-118179571D01*
X148459857Y-118179571D02*
X148917000Y-117722428D01*
X151799857Y-115074858D02*
X151799857Y-114503429D01*
X150599857Y-114503429D01*
X151799857Y-115646287D02*
X151742714Y-115532001D01*
X151685571Y-115474858D01*
X151571286Y-115417715D01*
X151228429Y-115417715D01*
X151114143Y-115474858D01*
X151057000Y-115532001D01*
X150999857Y-115646287D01*
X150999857Y-115817715D01*
X151057000Y-115932001D01*
X151114143Y-115989144D01*
X151228429Y-116046287D01*
X151571286Y-116046287D01*
X151685571Y-115989144D01*
X151742714Y-115932001D01*
X151799857Y-115817715D01*
X151799857Y-115646287D01*
X151799857Y-117074858D02*
X151171286Y-117074858D01*
X151057000Y-117017715D01*
X150999857Y-116903429D01*
X150999857Y-116674858D01*
X151057000Y-116560572D01*
X151742714Y-117074858D02*
X151799857Y-116960572D01*
X151799857Y-116674858D01*
X151742714Y-116560572D01*
X151628429Y-116503429D01*
X151514143Y-116503429D01*
X151399857Y-116560572D01*
X151342714Y-116674858D01*
X151342714Y-116960572D01*
X151285571Y-117074858D01*
X151799857Y-118160572D02*
X150599857Y-118160572D01*
X151742714Y-118160572D02*
X151799857Y-118046286D01*
X151799857Y-117817715D01*
X151742714Y-117703429D01*
X151685571Y-117646286D01*
X151571286Y-117589143D01*
X151228429Y-117589143D01*
X151114143Y-117646286D01*
X151057000Y-117703429D01*
X150999857Y-117817715D01*
X150999857Y-118046286D01*
X151057000Y-118160572D01*
X154339857Y-114338287D02*
X153768429Y-113938287D01*
X154339857Y-113652572D02*
X153139857Y-113652572D01*
X153139857Y-114109715D01*
X153197000Y-114224001D01*
X153254143Y-114281144D01*
X153368429Y-114338287D01*
X153539857Y-114338287D01*
X153654143Y-114281144D01*
X153711286Y-114224001D01*
X153768429Y-114109715D01*
X153768429Y-113652572D01*
X154282714Y-115309715D02*
X154339857Y-115195429D01*
X154339857Y-114966858D01*
X154282714Y-114852572D01*
X154168429Y-114795429D01*
X153711286Y-114795429D01*
X153597000Y-114852572D01*
X153539857Y-114966858D01*
X153539857Y-115195429D01*
X153597000Y-115309715D01*
X153711286Y-115366858D01*
X153825571Y-115366858D01*
X153939857Y-114795429D01*
X154282714Y-115824000D02*
X154339857Y-115938286D01*
X154339857Y-116166858D01*
X154282714Y-116281143D01*
X154168429Y-116338286D01*
X154111286Y-116338286D01*
X153997000Y-116281143D01*
X153939857Y-116166858D01*
X153939857Y-115995429D01*
X153882714Y-115881143D01*
X153768429Y-115824000D01*
X153711286Y-115824000D01*
X153597000Y-115881143D01*
X153539857Y-115995429D01*
X153539857Y-116166858D01*
X153597000Y-116281143D01*
X154282714Y-117309715D02*
X154339857Y-117195429D01*
X154339857Y-116966858D01*
X154282714Y-116852572D01*
X154168429Y-116795429D01*
X153711286Y-116795429D01*
X153597000Y-116852572D01*
X153539857Y-116966858D01*
X153539857Y-117195429D01*
X153597000Y-117309715D01*
X153711286Y-117366858D01*
X153825571Y-117366858D01*
X153939857Y-116795429D01*
X153539857Y-117709715D02*
X153539857Y-118166858D01*
X153139857Y-117881143D02*
X154168429Y-117881143D01*
X154282714Y-117938286D01*
X154339857Y-118052572D01*
X154339857Y-118166858D01*
X155679857Y-115411430D02*
X156879857Y-115811430D01*
X155679857Y-116211430D01*
X156822714Y-117125715D02*
X156879857Y-117011429D01*
X156879857Y-116782858D01*
X156822714Y-116668572D01*
X156765571Y-116611429D01*
X156651286Y-116554286D01*
X156308429Y-116554286D01*
X156194143Y-116611429D01*
X156137000Y-116668572D01*
X156079857Y-116782858D01*
X156079857Y-117011429D01*
X156137000Y-117125715D01*
X156822714Y-118154286D02*
X156879857Y-118040000D01*
X156879857Y-117811429D01*
X156822714Y-117697143D01*
X156765571Y-117640000D01*
X156651286Y-117582857D01*
X156308429Y-117582857D01*
X156194143Y-117640000D01*
X156137000Y-117697143D01*
X156079857Y-117811429D01*
X156079857Y-118040000D01*
X156137000Y-118154286D01*
D12*
X136500000Y-90000000D02*
G75*
G03X135000000Y-91500000I0J-1500000D01*
G01*
X165000000Y-91500000D02*
G75*
G03X163500000Y-90000000I-1500000J0D01*
G01*
X163500000Y-130000000D02*
G75*
G03X165000000Y-128500000I0J1500000D01*
G01*
X135000000Y-128500000D02*
G75*
G03X136500000Y-130000000I1500000J0D01*
G01*
X135000000Y-91500000D02*
X135000000Y-128500000D01*
X163500000Y-130000000D02*
X136500000Y-130000000D01*
X165000000Y-91500000D02*
X165000000Y-128500000D01*
X136500000Y-90000000D02*
X163500000Y-90000000D01*
M02*
