G04 #@! TF.FileFunction,Copper,L1,Top,Signal*
%FSLAX46Y46*%
G04 Gerber Fmt 4.6, Leading zero omitted, Abs format (unit mm)*
G04 Created by KiCad (PCBNEW 4.0.2+dfsg1-stable) date Fr 03 Aug 2018 15:40:32 CEST*
%MOMM*%
G01*
G04 APERTURE LIST*
%ADD10C,0.100000*%
%ADD11C,0.150000*%
%ADD12C,5.000000*%
%ADD13O,1.727200X2.032000*%
%ADD14R,1.727200X2.032000*%
%ADD15R,2.032000X2.032000*%
%ADD16O,2.032000X2.032000*%
%ADD17C,2.400000*%
%ADD18R,2.400000X2.400000*%
%ADD19C,2.500000*%
%ADD20C,1.400000*%
%ADD21C,0.600000*%
%ADD22C,0.300000*%
%ADD23C,0.500000*%
%ADD24C,0.254000*%
G04 APERTURE END LIST*
D10*
D11*
X136500000Y-90000000D02*
G75*
G03X135000000Y-91500000I0J-1500000D01*
G01*
X165000000Y-91500000D02*
G75*
G03X163500000Y-90000000I-1500000J0D01*
G01*
X163500000Y-130000000D02*
G75*
G03X165000000Y-128500000I0J1500000D01*
G01*
X135000000Y-128500000D02*
G75*
G03X136500000Y-130000000I1500000J0D01*
G01*
X135000000Y-91500000D02*
X135000000Y-128500000D01*
X163500000Y-130000000D02*
X136500000Y-130000000D01*
X165000000Y-91500000D02*
X165000000Y-128500000D01*
X136500000Y-90000000D02*
X163500000Y-90000000D01*
D12*
X137500000Y-127500000D03*
X162500000Y-127500000D03*
X162500000Y-92500000D03*
D13*
X156337000Y-120015000D03*
X153797000Y-120015000D03*
X151257000Y-120015000D03*
X148717000Y-120015000D03*
X146177000Y-120015000D03*
D14*
X143637000Y-120015000D03*
D15*
X142494000Y-110363000D03*
D16*
X142494000Y-107823000D03*
D17*
X155764000Y-111351000D03*
D18*
X155764000Y-107851000D03*
D12*
X137500000Y-92500000D03*
D19*
X157762400Y-91539600D03*
X142262400Y-91539600D03*
D20*
X151917400Y-100929600D03*
X154457400Y-100929600D03*
X153187400Y-103469600D03*
X150647400Y-103469600D03*
X149377400Y-100929600D03*
X148107400Y-103469600D03*
X146837400Y-100929600D03*
X145567400Y-103469600D03*
D19*
X157762400Y-97639600D03*
X142262400Y-97639600D03*
D21*
X144780000Y-115824000D03*
X152781000Y-113792000D03*
D22*
X146825000Y-120485000D02*
X146840000Y-120500000D01*
D23*
X155764000Y-107851000D02*
X155764000Y-102170000D01*
X155764000Y-102170000D02*
X154523600Y-100929600D01*
X154523600Y-100929600D02*
X154457400Y-100929600D01*
D22*
X153187400Y-103469600D02*
X153187400Y-105511600D01*
X143637000Y-116967000D02*
X143637000Y-120015000D01*
X144780000Y-115824000D02*
X143637000Y-116967000D01*
X152781000Y-105918000D02*
X152781000Y-113792000D01*
X153187400Y-105511600D02*
X152781000Y-105918000D01*
X148717000Y-120015000D02*
X148717000Y-118618000D01*
X150647400Y-116687600D02*
X150647400Y-103469600D01*
X148717000Y-118618000D02*
X150647400Y-116687600D01*
X151257000Y-118699000D02*
X151257000Y-120015000D01*
X151257000Y-117983000D02*
X151257000Y-118699000D01*
X151892000Y-117348000D02*
X151257000Y-117983000D01*
X151892000Y-103022743D02*
X151892000Y-117348000D01*
X149342000Y-102235000D02*
X151104257Y-102235000D01*
X148107400Y-103469600D02*
X149342000Y-102235000D01*
X151104257Y-102235000D02*
X151892000Y-103022743D01*
X153289000Y-101854000D02*
X154686000Y-103251000D01*
X153289000Y-100584000D02*
X153289000Y-101854000D01*
X152273000Y-99568000D02*
X153289000Y-100584000D01*
X147955000Y-99568000D02*
X152273000Y-99568000D01*
X146837400Y-100685600D02*
X147955000Y-99568000D01*
X153797000Y-105791000D02*
X153797000Y-120015000D01*
X154686000Y-104902000D02*
X153797000Y-105791000D01*
X154686000Y-103251000D02*
X154686000Y-104902000D01*
X146837400Y-100929600D02*
X146837400Y-100685600D01*
X157762400Y-97639600D02*
X157762400Y-97304400D01*
X157762400Y-97304400D02*
X158851600Y-96215200D01*
X158851600Y-96215200D02*
X158851600Y-92628800D01*
X158851600Y-92628800D02*
X157762400Y-91539600D01*
X142262400Y-97639600D02*
X142191200Y-97639600D01*
X142191200Y-97639600D02*
X141020800Y-96469200D01*
X141020800Y-96469200D02*
X141020800Y-92781200D01*
X141020800Y-92781200D02*
X142262400Y-91539600D01*
X157762400Y-91539600D02*
X142262400Y-91539600D01*
D23*
X156337000Y-120015000D02*
X156337000Y-121666000D01*
X139065000Y-113935000D02*
X142500000Y-110500000D01*
X139065000Y-120142000D02*
X139065000Y-113935000D01*
X142367000Y-123444000D02*
X139065000Y-120142000D01*
X154559000Y-123444000D02*
X142367000Y-123444000D01*
X156337000Y-121666000D02*
X154559000Y-123444000D01*
D24*
G36*
X140841538Y-90588416D02*
X140585692Y-91204561D01*
X140585110Y-91871712D01*
X140739831Y-92246167D01*
X140612799Y-92373199D01*
X140487722Y-92560392D01*
X140443799Y-92781200D01*
X140443800Y-92781205D01*
X140443800Y-96469195D01*
X140443799Y-96469200D01*
X140487722Y-96690008D01*
X140612799Y-96877201D01*
X140719035Y-96983437D01*
X140585692Y-97304561D01*
X140585110Y-97971712D01*
X140839880Y-98588303D01*
X141311216Y-99060462D01*
X141927361Y-99316308D01*
X142594512Y-99316890D01*
X143211103Y-99062120D01*
X143683262Y-98590784D01*
X143939108Y-97974639D01*
X143939690Y-97307488D01*
X143684920Y-96690897D01*
X143456880Y-96462458D01*
X143887441Y-96641243D01*
X144703777Y-96641955D01*
X145458246Y-96330215D01*
X146035987Y-95753482D01*
X146349043Y-94999559D01*
X146349755Y-94183223D01*
X146038015Y-93428754D01*
X145461282Y-92851013D01*
X144707359Y-92537957D01*
X143891023Y-92537245D01*
X143457123Y-92716529D01*
X143683262Y-92490784D01*
X143838637Y-92116600D01*
X156186296Y-92116600D01*
X156339880Y-92488303D01*
X156567920Y-92716742D01*
X156137359Y-92537957D01*
X155321023Y-92537245D01*
X154566554Y-92848985D01*
X153988813Y-93425718D01*
X153675757Y-94179641D01*
X153675045Y-94995977D01*
X153986785Y-95750446D01*
X154563518Y-96328187D01*
X155317441Y-96641243D01*
X156133777Y-96641955D01*
X156567677Y-96462671D01*
X156341538Y-96688416D01*
X156085692Y-97304561D01*
X156085110Y-97971712D01*
X156339880Y-98588303D01*
X156811216Y-99060462D01*
X157427361Y-99316308D01*
X158094512Y-99316890D01*
X158711103Y-99062120D01*
X159183262Y-98590784D01*
X159439108Y-97974639D01*
X159439690Y-97307488D01*
X159186962Y-96695839D01*
X159259598Y-96623203D01*
X159259601Y-96623201D01*
X159362500Y-96469200D01*
X159384678Y-96436009D01*
X159428600Y-96215200D01*
X159428600Y-92628800D01*
X159384678Y-92407992D01*
X159384678Y-92407991D01*
X159281660Y-92253815D01*
X159439108Y-91874639D01*
X159439690Y-91207488D01*
X159184920Y-90590897D01*
X159050258Y-90456000D01*
X160404551Y-90456000D01*
X160020057Y-90839823D01*
X159573510Y-91915229D01*
X159572493Y-93079662D01*
X160017164Y-94155846D01*
X160839823Y-94979943D01*
X161915229Y-95426490D01*
X163079662Y-95427507D01*
X164155846Y-94982836D01*
X164544000Y-94595359D01*
X164544000Y-125404551D01*
X164160177Y-125020057D01*
X163084771Y-124573510D01*
X161920338Y-124572493D01*
X160844154Y-125017164D01*
X160020057Y-125839823D01*
X159573510Y-126915229D01*
X159572493Y-128079662D01*
X160017164Y-129155846D01*
X160404641Y-129544000D01*
X139595449Y-129544000D01*
X139979943Y-129160177D01*
X140426490Y-128084771D01*
X140427507Y-126920338D01*
X139982836Y-125844154D01*
X139160177Y-125020057D01*
X138084771Y-124573510D01*
X136920338Y-124572493D01*
X135844154Y-125017164D01*
X135456000Y-125404641D01*
X135456000Y-113935000D01*
X138388000Y-113935000D01*
X138388000Y-120142000D01*
X138439534Y-120401077D01*
X138537757Y-120548078D01*
X138586289Y-120620711D01*
X141888289Y-123922711D01*
X142107923Y-124069466D01*
X142367000Y-124121000D01*
X154559000Y-124121000D01*
X154818077Y-124069466D01*
X155037711Y-123922711D01*
X156815711Y-122144711D01*
X156962467Y-121925076D01*
X157014000Y-121666000D01*
X157014000Y-121265680D01*
X157249592Y-121108262D01*
X157529359Y-120689561D01*
X157627600Y-120195670D01*
X157627600Y-119834330D01*
X157529359Y-119340439D01*
X157249592Y-118921738D01*
X156830891Y-118641971D01*
X156337000Y-118543730D01*
X155843109Y-118641971D01*
X155424408Y-118921738D01*
X155144641Y-119340439D01*
X155067000Y-119730767D01*
X154989359Y-119340439D01*
X154709592Y-118921738D01*
X154374000Y-118697503D01*
X154374000Y-112648175D01*
X154646430Y-112648175D01*
X154769565Y-112935788D01*
X155451734Y-113195707D01*
X156181443Y-113174786D01*
X156758435Y-112935788D01*
X156881570Y-112648175D01*
X155764000Y-111530605D01*
X154646430Y-112648175D01*
X154374000Y-112648175D01*
X154374000Y-112428829D01*
X154466825Y-112468570D01*
X155584395Y-111351000D01*
X155943605Y-111351000D01*
X157061175Y-112468570D01*
X157348788Y-112345435D01*
X157608707Y-111663266D01*
X157587786Y-110933557D01*
X157348788Y-110356565D01*
X157061175Y-110233430D01*
X155943605Y-111351000D01*
X155584395Y-111351000D01*
X154466825Y-110233430D01*
X154374000Y-110273171D01*
X154374000Y-110053825D01*
X154646430Y-110053825D01*
X155764000Y-111171395D01*
X156881570Y-110053825D01*
X156758435Y-109766212D01*
X156076266Y-109506293D01*
X155346557Y-109527214D01*
X154769565Y-109766212D01*
X154646430Y-110053825D01*
X154374000Y-110053825D01*
X154374000Y-109437976D01*
X154394619Y-109452064D01*
X154564000Y-109486365D01*
X156964000Y-109486365D01*
X157122237Y-109456591D01*
X157267567Y-109363073D01*
X157365064Y-109220381D01*
X157399365Y-109051000D01*
X157399365Y-106651000D01*
X157369591Y-106492763D01*
X157276073Y-106347433D01*
X157133381Y-106249936D01*
X156964000Y-106215635D01*
X156441000Y-106215635D01*
X156441000Y-102170000D01*
X156418482Y-102056795D01*
X156389467Y-101910924D01*
X156242712Y-101691289D01*
X155584310Y-101032888D01*
X155584595Y-100706409D01*
X155413381Y-100292040D01*
X155096628Y-99974733D01*
X154682558Y-99802796D01*
X154234209Y-99802405D01*
X153819840Y-99973619D01*
X153657088Y-100136086D01*
X152681001Y-99159999D01*
X152493808Y-99034922D01*
X152273000Y-98990999D01*
X152272995Y-98991000D01*
X147955000Y-98991000D01*
X147734192Y-99034922D01*
X147546999Y-99159999D01*
X146904340Y-99802658D01*
X146614209Y-99802405D01*
X146199840Y-99973619D01*
X145882533Y-100290372D01*
X145710596Y-100704442D01*
X145710205Y-101152791D01*
X145881419Y-101567160D01*
X146198172Y-101884467D01*
X146612242Y-102056404D01*
X147060591Y-102056795D01*
X147474960Y-101885581D01*
X147792267Y-101568828D01*
X147964204Y-101154758D01*
X147964595Y-100706409D01*
X147867524Y-100471478D01*
X148194002Y-100145000D01*
X148413192Y-100145000D01*
X148442123Y-100173931D01*
X148206358Y-100235769D01*
X148029981Y-100736722D01*
X148058736Y-101267040D01*
X148206358Y-101623431D01*
X148442125Y-101685269D01*
X149197795Y-100929600D01*
X149183652Y-100915458D01*
X149363258Y-100735852D01*
X149377400Y-100749995D01*
X149391542Y-100735852D01*
X149571148Y-100915458D01*
X149557005Y-100929600D01*
X149571148Y-100943742D01*
X149391542Y-101123348D01*
X149377400Y-101109205D01*
X148621731Y-101864875D01*
X148678746Y-102082252D01*
X148393074Y-102367924D01*
X148332558Y-102342796D01*
X147884209Y-102342405D01*
X147469840Y-102513619D01*
X147152533Y-102830372D01*
X146980596Y-103244442D01*
X146980205Y-103692791D01*
X147151419Y-104107160D01*
X147468172Y-104424467D01*
X147882242Y-104596404D01*
X148330591Y-104596795D01*
X148744960Y-104425581D01*
X149062267Y-104108828D01*
X149234204Y-103694758D01*
X149234595Y-103246409D01*
X149208865Y-103184137D01*
X149581002Y-102812000D01*
X149710937Y-102812000D01*
X149692533Y-102830372D01*
X149520596Y-103244442D01*
X149520205Y-103692791D01*
X149691419Y-104107160D01*
X150008172Y-104424467D01*
X150070400Y-104450306D01*
X150070400Y-116448598D01*
X148308999Y-118209999D01*
X148183922Y-118397192D01*
X148139999Y-118618000D01*
X148140000Y-118618005D01*
X148140000Y-118697503D01*
X147804408Y-118921738D01*
X147543138Y-119312757D01*
X147468954Y-119100680D01*
X147079036Y-118664268D01*
X146551791Y-118410291D01*
X146536026Y-118407642D01*
X146304000Y-118528783D01*
X146304000Y-119888000D01*
X146324000Y-119888000D01*
X146324000Y-120142000D01*
X146304000Y-120142000D01*
X146304000Y-121501217D01*
X146536026Y-121622358D01*
X146551791Y-121619709D01*
X147079036Y-121365732D01*
X147468954Y-120929320D01*
X147543138Y-120717243D01*
X147804408Y-121108262D01*
X148223109Y-121388029D01*
X148717000Y-121486270D01*
X149210891Y-121388029D01*
X149629592Y-121108262D01*
X149909359Y-120689561D01*
X149987000Y-120299233D01*
X150064641Y-120689561D01*
X150344408Y-121108262D01*
X150763109Y-121388029D01*
X151257000Y-121486270D01*
X151750891Y-121388029D01*
X152169592Y-121108262D01*
X152449359Y-120689561D01*
X152527000Y-120299233D01*
X152604641Y-120689561D01*
X152884408Y-121108262D01*
X153303109Y-121388029D01*
X153797000Y-121486270D01*
X154290891Y-121388029D01*
X154709592Y-121108262D01*
X154989359Y-120689561D01*
X155067000Y-120299233D01*
X155144641Y-120689561D01*
X155424408Y-121108262D01*
X155660000Y-121265680D01*
X155660000Y-121385578D01*
X154278578Y-122767000D01*
X142647422Y-122767000D01*
X139742000Y-119861578D01*
X139742000Y-118999000D01*
X142338035Y-118999000D01*
X142338035Y-121031000D01*
X142367809Y-121189237D01*
X142461327Y-121334567D01*
X142604019Y-121432064D01*
X142773400Y-121466365D01*
X144500600Y-121466365D01*
X144658837Y-121436591D01*
X144804167Y-121343073D01*
X144901664Y-121200381D01*
X144935965Y-121031000D01*
X144935965Y-120986311D01*
X145274964Y-121365732D01*
X145802209Y-121619709D01*
X145817974Y-121622358D01*
X146050000Y-121501217D01*
X146050000Y-120142000D01*
X146030000Y-120142000D01*
X146030000Y-119888000D01*
X146050000Y-119888000D01*
X146050000Y-118528783D01*
X145817974Y-118407642D01*
X145802209Y-118410291D01*
X145274964Y-118664268D01*
X144935965Y-119043689D01*
X144935965Y-118999000D01*
X144906191Y-118840763D01*
X144812673Y-118695433D01*
X144669981Y-118597936D01*
X144500600Y-118563635D01*
X144214000Y-118563635D01*
X144214000Y-117206002D01*
X144868924Y-116551078D01*
X144923975Y-116551126D01*
X145191275Y-116440680D01*
X145395961Y-116236350D01*
X145506874Y-115969244D01*
X145507126Y-115680025D01*
X145396680Y-115412725D01*
X145192350Y-115208039D01*
X144925244Y-115097126D01*
X144636025Y-115096874D01*
X144368725Y-115207320D01*
X144164039Y-115411650D01*
X144053126Y-115678756D01*
X144053077Y-115734921D01*
X143228999Y-116558999D01*
X143103922Y-116746192D01*
X143059999Y-116967000D01*
X143060000Y-116967005D01*
X143060000Y-118563635D01*
X142773400Y-118563635D01*
X142615163Y-118593409D01*
X142469833Y-118686927D01*
X142372336Y-118829619D01*
X142338035Y-118999000D01*
X139742000Y-118999000D01*
X139742000Y-114215422D01*
X142143058Y-111814365D01*
X143510000Y-111814365D01*
X143668237Y-111784591D01*
X143813567Y-111691073D01*
X143911064Y-111548381D01*
X143945365Y-111379000D01*
X143945365Y-109347000D01*
X143915591Y-109188763D01*
X143822073Y-109043433D01*
X143679381Y-108945936D01*
X143510000Y-108911635D01*
X143440437Y-108911635D01*
X143542625Y-108843355D01*
X143855428Y-108375212D01*
X143965270Y-107823000D01*
X143855428Y-107270788D01*
X143542625Y-106802645D01*
X143074482Y-106489842D01*
X142522270Y-106380000D01*
X142465730Y-106380000D01*
X141913518Y-106489842D01*
X141445375Y-106802645D01*
X141132572Y-107270788D01*
X141022730Y-107823000D01*
X141132572Y-108375212D01*
X141445375Y-108843355D01*
X141547563Y-108911635D01*
X141478000Y-108911635D01*
X141319763Y-108941409D01*
X141174433Y-109034927D01*
X141076936Y-109177619D01*
X141042635Y-109347000D01*
X141042635Y-110999942D01*
X138586289Y-113456289D01*
X138439534Y-113675923D01*
X138388000Y-113935000D01*
X135456000Y-113935000D01*
X135456000Y-103692791D01*
X144440205Y-103692791D01*
X144611419Y-104107160D01*
X144928172Y-104424467D01*
X145342242Y-104596404D01*
X145790591Y-104596795D01*
X146204960Y-104425581D01*
X146522267Y-104108828D01*
X146694204Y-103694758D01*
X146694595Y-103246409D01*
X146523381Y-102832040D01*
X146206628Y-102514733D01*
X145792558Y-102342796D01*
X145344209Y-102342405D01*
X144929840Y-102513619D01*
X144612533Y-102830372D01*
X144440596Y-103244442D01*
X144440205Y-103692791D01*
X135456000Y-103692791D01*
X135456000Y-94595449D01*
X135839823Y-94979943D01*
X136915229Y-95426490D01*
X138079662Y-95427507D01*
X139155846Y-94982836D01*
X139979943Y-94160177D01*
X140426490Y-93084771D01*
X140427507Y-91920338D01*
X139982836Y-90844154D01*
X139595359Y-90456000D01*
X140974185Y-90456000D01*
X140841538Y-90588416D01*
X140841538Y-90588416D01*
G37*
X140841538Y-90588416D02*
X140585692Y-91204561D01*
X140585110Y-91871712D01*
X140739831Y-92246167D01*
X140612799Y-92373199D01*
X140487722Y-92560392D01*
X140443799Y-92781200D01*
X140443800Y-92781205D01*
X140443800Y-96469195D01*
X140443799Y-96469200D01*
X140487722Y-96690008D01*
X140612799Y-96877201D01*
X140719035Y-96983437D01*
X140585692Y-97304561D01*
X140585110Y-97971712D01*
X140839880Y-98588303D01*
X141311216Y-99060462D01*
X141927361Y-99316308D01*
X142594512Y-99316890D01*
X143211103Y-99062120D01*
X143683262Y-98590784D01*
X143939108Y-97974639D01*
X143939690Y-97307488D01*
X143684920Y-96690897D01*
X143456880Y-96462458D01*
X143887441Y-96641243D01*
X144703777Y-96641955D01*
X145458246Y-96330215D01*
X146035987Y-95753482D01*
X146349043Y-94999559D01*
X146349755Y-94183223D01*
X146038015Y-93428754D01*
X145461282Y-92851013D01*
X144707359Y-92537957D01*
X143891023Y-92537245D01*
X143457123Y-92716529D01*
X143683262Y-92490784D01*
X143838637Y-92116600D01*
X156186296Y-92116600D01*
X156339880Y-92488303D01*
X156567920Y-92716742D01*
X156137359Y-92537957D01*
X155321023Y-92537245D01*
X154566554Y-92848985D01*
X153988813Y-93425718D01*
X153675757Y-94179641D01*
X153675045Y-94995977D01*
X153986785Y-95750446D01*
X154563518Y-96328187D01*
X155317441Y-96641243D01*
X156133777Y-96641955D01*
X156567677Y-96462671D01*
X156341538Y-96688416D01*
X156085692Y-97304561D01*
X156085110Y-97971712D01*
X156339880Y-98588303D01*
X156811216Y-99060462D01*
X157427361Y-99316308D01*
X158094512Y-99316890D01*
X158711103Y-99062120D01*
X159183262Y-98590784D01*
X159439108Y-97974639D01*
X159439690Y-97307488D01*
X159186962Y-96695839D01*
X159259598Y-96623203D01*
X159259601Y-96623201D01*
X159362500Y-96469200D01*
X159384678Y-96436009D01*
X159428600Y-96215200D01*
X159428600Y-92628800D01*
X159384678Y-92407992D01*
X159384678Y-92407991D01*
X159281660Y-92253815D01*
X159439108Y-91874639D01*
X159439690Y-91207488D01*
X159184920Y-90590897D01*
X159050258Y-90456000D01*
X160404551Y-90456000D01*
X160020057Y-90839823D01*
X159573510Y-91915229D01*
X159572493Y-93079662D01*
X160017164Y-94155846D01*
X160839823Y-94979943D01*
X161915229Y-95426490D01*
X163079662Y-95427507D01*
X164155846Y-94982836D01*
X164544000Y-94595359D01*
X164544000Y-125404551D01*
X164160177Y-125020057D01*
X163084771Y-124573510D01*
X161920338Y-124572493D01*
X160844154Y-125017164D01*
X160020057Y-125839823D01*
X159573510Y-126915229D01*
X159572493Y-128079662D01*
X160017164Y-129155846D01*
X160404641Y-129544000D01*
X139595449Y-129544000D01*
X139979943Y-129160177D01*
X140426490Y-128084771D01*
X140427507Y-126920338D01*
X139982836Y-125844154D01*
X139160177Y-125020057D01*
X138084771Y-124573510D01*
X136920338Y-124572493D01*
X135844154Y-125017164D01*
X135456000Y-125404641D01*
X135456000Y-113935000D01*
X138388000Y-113935000D01*
X138388000Y-120142000D01*
X138439534Y-120401077D01*
X138537757Y-120548078D01*
X138586289Y-120620711D01*
X141888289Y-123922711D01*
X142107923Y-124069466D01*
X142367000Y-124121000D01*
X154559000Y-124121000D01*
X154818077Y-124069466D01*
X155037711Y-123922711D01*
X156815711Y-122144711D01*
X156962467Y-121925076D01*
X157014000Y-121666000D01*
X157014000Y-121265680D01*
X157249592Y-121108262D01*
X157529359Y-120689561D01*
X157627600Y-120195670D01*
X157627600Y-119834330D01*
X157529359Y-119340439D01*
X157249592Y-118921738D01*
X156830891Y-118641971D01*
X156337000Y-118543730D01*
X155843109Y-118641971D01*
X155424408Y-118921738D01*
X155144641Y-119340439D01*
X155067000Y-119730767D01*
X154989359Y-119340439D01*
X154709592Y-118921738D01*
X154374000Y-118697503D01*
X154374000Y-112648175D01*
X154646430Y-112648175D01*
X154769565Y-112935788D01*
X155451734Y-113195707D01*
X156181443Y-113174786D01*
X156758435Y-112935788D01*
X156881570Y-112648175D01*
X155764000Y-111530605D01*
X154646430Y-112648175D01*
X154374000Y-112648175D01*
X154374000Y-112428829D01*
X154466825Y-112468570D01*
X155584395Y-111351000D01*
X155943605Y-111351000D01*
X157061175Y-112468570D01*
X157348788Y-112345435D01*
X157608707Y-111663266D01*
X157587786Y-110933557D01*
X157348788Y-110356565D01*
X157061175Y-110233430D01*
X155943605Y-111351000D01*
X155584395Y-111351000D01*
X154466825Y-110233430D01*
X154374000Y-110273171D01*
X154374000Y-110053825D01*
X154646430Y-110053825D01*
X155764000Y-111171395D01*
X156881570Y-110053825D01*
X156758435Y-109766212D01*
X156076266Y-109506293D01*
X155346557Y-109527214D01*
X154769565Y-109766212D01*
X154646430Y-110053825D01*
X154374000Y-110053825D01*
X154374000Y-109437976D01*
X154394619Y-109452064D01*
X154564000Y-109486365D01*
X156964000Y-109486365D01*
X157122237Y-109456591D01*
X157267567Y-109363073D01*
X157365064Y-109220381D01*
X157399365Y-109051000D01*
X157399365Y-106651000D01*
X157369591Y-106492763D01*
X157276073Y-106347433D01*
X157133381Y-106249936D01*
X156964000Y-106215635D01*
X156441000Y-106215635D01*
X156441000Y-102170000D01*
X156418482Y-102056795D01*
X156389467Y-101910924D01*
X156242712Y-101691289D01*
X155584310Y-101032888D01*
X155584595Y-100706409D01*
X155413381Y-100292040D01*
X155096628Y-99974733D01*
X154682558Y-99802796D01*
X154234209Y-99802405D01*
X153819840Y-99973619D01*
X153657088Y-100136086D01*
X152681001Y-99159999D01*
X152493808Y-99034922D01*
X152273000Y-98990999D01*
X152272995Y-98991000D01*
X147955000Y-98991000D01*
X147734192Y-99034922D01*
X147546999Y-99159999D01*
X146904340Y-99802658D01*
X146614209Y-99802405D01*
X146199840Y-99973619D01*
X145882533Y-100290372D01*
X145710596Y-100704442D01*
X145710205Y-101152791D01*
X145881419Y-101567160D01*
X146198172Y-101884467D01*
X146612242Y-102056404D01*
X147060591Y-102056795D01*
X147474960Y-101885581D01*
X147792267Y-101568828D01*
X147964204Y-101154758D01*
X147964595Y-100706409D01*
X147867524Y-100471478D01*
X148194002Y-100145000D01*
X148413192Y-100145000D01*
X148442123Y-100173931D01*
X148206358Y-100235769D01*
X148029981Y-100736722D01*
X148058736Y-101267040D01*
X148206358Y-101623431D01*
X148442125Y-101685269D01*
X149197795Y-100929600D01*
X149183652Y-100915458D01*
X149363258Y-100735852D01*
X149377400Y-100749995D01*
X149391542Y-100735852D01*
X149571148Y-100915458D01*
X149557005Y-100929600D01*
X149571148Y-100943742D01*
X149391542Y-101123348D01*
X149377400Y-101109205D01*
X148621731Y-101864875D01*
X148678746Y-102082252D01*
X148393074Y-102367924D01*
X148332558Y-102342796D01*
X147884209Y-102342405D01*
X147469840Y-102513619D01*
X147152533Y-102830372D01*
X146980596Y-103244442D01*
X146980205Y-103692791D01*
X147151419Y-104107160D01*
X147468172Y-104424467D01*
X147882242Y-104596404D01*
X148330591Y-104596795D01*
X148744960Y-104425581D01*
X149062267Y-104108828D01*
X149234204Y-103694758D01*
X149234595Y-103246409D01*
X149208865Y-103184137D01*
X149581002Y-102812000D01*
X149710937Y-102812000D01*
X149692533Y-102830372D01*
X149520596Y-103244442D01*
X149520205Y-103692791D01*
X149691419Y-104107160D01*
X150008172Y-104424467D01*
X150070400Y-104450306D01*
X150070400Y-116448598D01*
X148308999Y-118209999D01*
X148183922Y-118397192D01*
X148139999Y-118618000D01*
X148140000Y-118618005D01*
X148140000Y-118697503D01*
X147804408Y-118921738D01*
X147543138Y-119312757D01*
X147468954Y-119100680D01*
X147079036Y-118664268D01*
X146551791Y-118410291D01*
X146536026Y-118407642D01*
X146304000Y-118528783D01*
X146304000Y-119888000D01*
X146324000Y-119888000D01*
X146324000Y-120142000D01*
X146304000Y-120142000D01*
X146304000Y-121501217D01*
X146536026Y-121622358D01*
X146551791Y-121619709D01*
X147079036Y-121365732D01*
X147468954Y-120929320D01*
X147543138Y-120717243D01*
X147804408Y-121108262D01*
X148223109Y-121388029D01*
X148717000Y-121486270D01*
X149210891Y-121388029D01*
X149629592Y-121108262D01*
X149909359Y-120689561D01*
X149987000Y-120299233D01*
X150064641Y-120689561D01*
X150344408Y-121108262D01*
X150763109Y-121388029D01*
X151257000Y-121486270D01*
X151750891Y-121388029D01*
X152169592Y-121108262D01*
X152449359Y-120689561D01*
X152527000Y-120299233D01*
X152604641Y-120689561D01*
X152884408Y-121108262D01*
X153303109Y-121388029D01*
X153797000Y-121486270D01*
X154290891Y-121388029D01*
X154709592Y-121108262D01*
X154989359Y-120689561D01*
X155067000Y-120299233D01*
X155144641Y-120689561D01*
X155424408Y-121108262D01*
X155660000Y-121265680D01*
X155660000Y-121385578D01*
X154278578Y-122767000D01*
X142647422Y-122767000D01*
X139742000Y-119861578D01*
X139742000Y-118999000D01*
X142338035Y-118999000D01*
X142338035Y-121031000D01*
X142367809Y-121189237D01*
X142461327Y-121334567D01*
X142604019Y-121432064D01*
X142773400Y-121466365D01*
X144500600Y-121466365D01*
X144658837Y-121436591D01*
X144804167Y-121343073D01*
X144901664Y-121200381D01*
X144935965Y-121031000D01*
X144935965Y-120986311D01*
X145274964Y-121365732D01*
X145802209Y-121619709D01*
X145817974Y-121622358D01*
X146050000Y-121501217D01*
X146050000Y-120142000D01*
X146030000Y-120142000D01*
X146030000Y-119888000D01*
X146050000Y-119888000D01*
X146050000Y-118528783D01*
X145817974Y-118407642D01*
X145802209Y-118410291D01*
X145274964Y-118664268D01*
X144935965Y-119043689D01*
X144935965Y-118999000D01*
X144906191Y-118840763D01*
X144812673Y-118695433D01*
X144669981Y-118597936D01*
X144500600Y-118563635D01*
X144214000Y-118563635D01*
X144214000Y-117206002D01*
X144868924Y-116551078D01*
X144923975Y-116551126D01*
X145191275Y-116440680D01*
X145395961Y-116236350D01*
X145506874Y-115969244D01*
X145507126Y-115680025D01*
X145396680Y-115412725D01*
X145192350Y-115208039D01*
X144925244Y-115097126D01*
X144636025Y-115096874D01*
X144368725Y-115207320D01*
X144164039Y-115411650D01*
X144053126Y-115678756D01*
X144053077Y-115734921D01*
X143228999Y-116558999D01*
X143103922Y-116746192D01*
X143059999Y-116967000D01*
X143060000Y-116967005D01*
X143060000Y-118563635D01*
X142773400Y-118563635D01*
X142615163Y-118593409D01*
X142469833Y-118686927D01*
X142372336Y-118829619D01*
X142338035Y-118999000D01*
X139742000Y-118999000D01*
X139742000Y-114215422D01*
X142143058Y-111814365D01*
X143510000Y-111814365D01*
X143668237Y-111784591D01*
X143813567Y-111691073D01*
X143911064Y-111548381D01*
X143945365Y-111379000D01*
X143945365Y-109347000D01*
X143915591Y-109188763D01*
X143822073Y-109043433D01*
X143679381Y-108945936D01*
X143510000Y-108911635D01*
X143440437Y-108911635D01*
X143542625Y-108843355D01*
X143855428Y-108375212D01*
X143965270Y-107823000D01*
X143855428Y-107270788D01*
X143542625Y-106802645D01*
X143074482Y-106489842D01*
X142522270Y-106380000D01*
X142465730Y-106380000D01*
X141913518Y-106489842D01*
X141445375Y-106802645D01*
X141132572Y-107270788D01*
X141022730Y-107823000D01*
X141132572Y-108375212D01*
X141445375Y-108843355D01*
X141547563Y-108911635D01*
X141478000Y-108911635D01*
X141319763Y-108941409D01*
X141174433Y-109034927D01*
X141076936Y-109177619D01*
X141042635Y-109347000D01*
X141042635Y-110999942D01*
X138586289Y-113456289D01*
X138439534Y-113675923D01*
X138388000Y-113935000D01*
X135456000Y-113935000D01*
X135456000Y-103692791D01*
X144440205Y-103692791D01*
X144611419Y-104107160D01*
X144928172Y-104424467D01*
X145342242Y-104596404D01*
X145790591Y-104596795D01*
X146204960Y-104425581D01*
X146522267Y-104108828D01*
X146694204Y-103694758D01*
X146694595Y-103246409D01*
X146523381Y-102832040D01*
X146206628Y-102514733D01*
X145792558Y-102342796D01*
X145344209Y-102342405D01*
X144929840Y-102513619D01*
X144612533Y-102830372D01*
X144440596Y-103244442D01*
X144440205Y-103692791D01*
X135456000Y-103692791D01*
X135456000Y-94595449D01*
X135839823Y-94979943D01*
X136915229Y-95426490D01*
X138079662Y-95427507D01*
X139155846Y-94982836D01*
X139979943Y-94160177D01*
X140426490Y-93084771D01*
X140427507Y-91920338D01*
X139982836Y-90844154D01*
X139595359Y-90456000D01*
X140974185Y-90456000D01*
X140841538Y-90588416D01*
G36*
X152111148Y-100915458D02*
X152097005Y-100929600D01*
X152111148Y-100943742D01*
X151931542Y-101123348D01*
X151917400Y-101109205D01*
X151903258Y-101123348D01*
X151723652Y-100943742D01*
X151737795Y-100929600D01*
X151723652Y-100915458D01*
X151903258Y-100735852D01*
X151917400Y-100749995D01*
X151931542Y-100735852D01*
X152111148Y-100915458D01*
X152111148Y-100915458D01*
G37*
X152111148Y-100915458D02*
X152097005Y-100929600D01*
X152111148Y-100943742D01*
X151931542Y-101123348D01*
X151917400Y-101109205D01*
X151903258Y-101123348D01*
X151723652Y-100943742D01*
X151737795Y-100929600D01*
X151723652Y-100915458D01*
X151903258Y-100735852D01*
X151917400Y-100749995D01*
X151931542Y-100735852D01*
X152111148Y-100915458D01*
M02*
