G04 #@! TF.GenerationSoftware,KiCad,Pcbnew,5.1.6-c6e7f7d~87~ubuntu18.04.1*
G04 #@! TF.CreationDate,2020-08-30T13:04:45+02:00*
G04 #@! TF.ProjectId,s88iso,73383869-736f-42e6-9b69-6361645f7063,2020/08*
G04 #@! TF.SameCoordinates,Original*
G04 #@! TF.FileFunction,Copper,L1,Top*
G04 #@! TF.FilePolarity,Positive*
%FSLAX46Y46*%
G04 Gerber Fmt 4.6, Leading zero omitted, Abs format (unit mm)*
G04 Created by KiCad (PCBNEW 5.1.6-c6e7f7d~87~ubuntu18.04.1) date 2020-08-30 13:04:45*
%MOMM*%
%LPD*%
G01*
G04 APERTURE LIST*
G04 #@! TA.AperFunction,NonConductor*
%ADD10C,0.150000*%
G04 #@! TD*
G04 #@! TA.AperFunction,Profile*
%ADD11C,0.050000*%
G04 #@! TD*
G04 #@! TA.AperFunction,ComponentPad*
%ADD12O,1.700000X1.700000*%
G04 #@! TD*
G04 #@! TA.AperFunction,ComponentPad*
%ADD13R,1.700000X1.700000*%
G04 #@! TD*
G04 #@! TA.AperFunction,ComponentPad*
%ADD14C,2.500000*%
G04 #@! TD*
G04 #@! TA.AperFunction,ComponentPad*
%ADD15C,1.400000*%
G04 #@! TD*
G04 #@! TA.AperFunction,SMDPad,CuDef*
%ADD16R,1.998980X0.599440*%
G04 #@! TD*
G04 #@! TA.AperFunction,ComponentPad*
%ADD17O,1.998980X4.000500*%
G04 #@! TD*
G04 #@! TA.AperFunction,ComponentPad*
%ADD18O,4.000500X1.998980*%
G04 #@! TD*
G04 #@! TA.AperFunction,ComponentPad*
%ADD19O,4.500880X1.998980*%
G04 #@! TD*
G04 #@! TA.AperFunction,SMDPad,CuDef*
%ADD20R,1.200000X2.200000*%
G04 #@! TD*
G04 #@! TA.AperFunction,SMDPad,CuDef*
%ADD21R,5.800000X6.400000*%
G04 #@! TD*
G04 #@! TA.AperFunction,ViaPad*
%ADD22C,0.800000*%
G04 #@! TD*
G04 #@! TA.AperFunction,ViaPad*
%ADD23C,1.000000*%
G04 #@! TD*
G04 #@! TA.AperFunction,Conductor*
%ADD24C,0.300000*%
G04 #@! TD*
G04 #@! TA.AperFunction,Conductor*
%ADD25C,0.500000*%
G04 #@! TD*
G04 #@! TA.AperFunction,Conductor*
%ADD26C,0.250000*%
G04 #@! TD*
G04 #@! TA.AperFunction,Conductor*
%ADD27C,1.000000*%
G04 #@! TD*
G04 #@! TA.AperFunction,Conductor*
%ADD28C,0.254000*%
G04 #@! TD*
G04 APERTURE END LIST*
D10*
X132122304Y-125309761D02*
X132265161Y-125357380D01*
X132503257Y-125357380D01*
X132598495Y-125309761D01*
X132646114Y-125262142D01*
X132693733Y-125166904D01*
X132693733Y-125071666D01*
X132646114Y-124976428D01*
X132598495Y-124928809D01*
X132503257Y-124881190D01*
X132312780Y-124833571D01*
X132217542Y-124785952D01*
X132169923Y-124738333D01*
X132122304Y-124643095D01*
X132122304Y-124547857D01*
X132169923Y-124452619D01*
X132217542Y-124405000D01*
X132312780Y-124357380D01*
X132550876Y-124357380D01*
X132693733Y-124405000D01*
X133265161Y-124785952D02*
X133169923Y-124738333D01*
X133122304Y-124690714D01*
X133074685Y-124595476D01*
X133074685Y-124547857D01*
X133122304Y-124452619D01*
X133169923Y-124405000D01*
X133265161Y-124357380D01*
X133455638Y-124357380D01*
X133550876Y-124405000D01*
X133598495Y-124452619D01*
X133646114Y-124547857D01*
X133646114Y-124595476D01*
X133598495Y-124690714D01*
X133550876Y-124738333D01*
X133455638Y-124785952D01*
X133265161Y-124785952D01*
X133169923Y-124833571D01*
X133122304Y-124881190D01*
X133074685Y-124976428D01*
X133074685Y-125166904D01*
X133122304Y-125262142D01*
X133169923Y-125309761D01*
X133265161Y-125357380D01*
X133455638Y-125357380D01*
X133550876Y-125309761D01*
X133598495Y-125262142D01*
X133646114Y-125166904D01*
X133646114Y-124976428D01*
X133598495Y-124881190D01*
X133550876Y-124833571D01*
X133455638Y-124785952D01*
X134217542Y-124785952D02*
X134122304Y-124738333D01*
X134074685Y-124690714D01*
X134027066Y-124595476D01*
X134027066Y-124547857D01*
X134074685Y-124452619D01*
X134122304Y-124405000D01*
X134217542Y-124357380D01*
X134408019Y-124357380D01*
X134503257Y-124405000D01*
X134550876Y-124452619D01*
X134598495Y-124547857D01*
X134598495Y-124595476D01*
X134550876Y-124690714D01*
X134503257Y-124738333D01*
X134408019Y-124785952D01*
X134217542Y-124785952D01*
X134122304Y-124833571D01*
X134074685Y-124881190D01*
X134027066Y-124976428D01*
X134027066Y-125166904D01*
X134074685Y-125262142D01*
X134122304Y-125309761D01*
X134217542Y-125357380D01*
X134408019Y-125357380D01*
X134503257Y-125309761D01*
X134550876Y-125262142D01*
X134598495Y-125166904D01*
X134598495Y-124976428D01*
X134550876Y-124881190D01*
X134503257Y-124833571D01*
X134408019Y-124785952D01*
X135788971Y-125357380D02*
X135788971Y-124357380D01*
X136217542Y-125309761D02*
X136312780Y-125357380D01*
X136503257Y-125357380D01*
X136598495Y-125309761D01*
X136646114Y-125214523D01*
X136646114Y-125166904D01*
X136598495Y-125071666D01*
X136503257Y-125024047D01*
X136360400Y-125024047D01*
X136265161Y-124976428D01*
X136217542Y-124881190D01*
X136217542Y-124833571D01*
X136265161Y-124738333D01*
X136360400Y-124690714D01*
X136503257Y-124690714D01*
X136598495Y-124738333D01*
X137217542Y-125357380D02*
X137122304Y-125309761D01*
X137074685Y-125262142D01*
X137027066Y-125166904D01*
X137027066Y-124881190D01*
X137074685Y-124785952D01*
X137122304Y-124738333D01*
X137217542Y-124690714D01*
X137360400Y-124690714D01*
X137455638Y-124738333D01*
X137503257Y-124785952D01*
X137550876Y-124881190D01*
X137550876Y-125166904D01*
X137503257Y-125262142D01*
X137455638Y-125309761D01*
X137360400Y-125357380D01*
X137217542Y-125357380D01*
X138122304Y-125357380D02*
X138027066Y-125309761D01*
X137979447Y-125214523D01*
X137979447Y-124357380D01*
X138931828Y-125357380D02*
X138931828Y-124833571D01*
X138884209Y-124738333D01*
X138788971Y-124690714D01*
X138598495Y-124690714D01*
X138503257Y-124738333D01*
X138931828Y-125309761D02*
X138836590Y-125357380D01*
X138598495Y-125357380D01*
X138503257Y-125309761D01*
X138455638Y-125214523D01*
X138455638Y-125119285D01*
X138503257Y-125024047D01*
X138598495Y-124976428D01*
X138836590Y-124976428D01*
X138931828Y-124928809D01*
X139265161Y-124690714D02*
X139646114Y-124690714D01*
X139408019Y-124357380D02*
X139408019Y-125214523D01*
X139455638Y-125309761D01*
X139550876Y-125357380D01*
X139646114Y-125357380D01*
X140122304Y-125357380D02*
X140027066Y-125309761D01*
X139979447Y-125262142D01*
X139931828Y-125166904D01*
X139931828Y-124881190D01*
X139979447Y-124785952D01*
X140027066Y-124738333D01*
X140122304Y-124690714D01*
X140265161Y-124690714D01*
X140360400Y-124738333D01*
X140408019Y-124785952D01*
X140455638Y-124881190D01*
X140455638Y-125166904D01*
X140408019Y-125262142D01*
X140360400Y-125309761D01*
X140265161Y-125357380D01*
X140122304Y-125357380D01*
X140884209Y-125357380D02*
X140884209Y-124690714D01*
X140884209Y-124881190D02*
X140931828Y-124785952D01*
X140979447Y-124738333D01*
X141074685Y-124690714D01*
X141169923Y-124690714D01*
X142217542Y-124452619D02*
X142265161Y-124405000D01*
X142360400Y-124357380D01*
X142598495Y-124357380D01*
X142693733Y-124405000D01*
X142741352Y-124452619D01*
X142788971Y-124547857D01*
X142788971Y-124643095D01*
X142741352Y-124785952D01*
X142169923Y-125357380D01*
X142788971Y-125357380D01*
X143408019Y-124357380D02*
X143503257Y-124357380D01*
X143598495Y-124405000D01*
X143646114Y-124452619D01*
X143693733Y-124547857D01*
X143741352Y-124738333D01*
X143741352Y-124976428D01*
X143693733Y-125166904D01*
X143646114Y-125262142D01*
X143598495Y-125309761D01*
X143503257Y-125357380D01*
X143408019Y-125357380D01*
X143312780Y-125309761D01*
X143265161Y-125262142D01*
X143217542Y-125166904D01*
X143169923Y-124976428D01*
X143169923Y-124738333D01*
X143217542Y-124547857D01*
X143265161Y-124452619D01*
X143312780Y-124405000D01*
X143408019Y-124357380D01*
X144122304Y-124452619D02*
X144169923Y-124405000D01*
X144265161Y-124357380D01*
X144503257Y-124357380D01*
X144598495Y-124405000D01*
X144646114Y-124452619D01*
X144693733Y-124547857D01*
X144693733Y-124643095D01*
X144646114Y-124785952D01*
X144074685Y-125357380D01*
X144693733Y-125357380D01*
X145312780Y-124357380D02*
X145408019Y-124357380D01*
X145503257Y-124405000D01*
X145550876Y-124452619D01*
X145598495Y-124547857D01*
X145646114Y-124738333D01*
X145646114Y-124976428D01*
X145598495Y-125166904D01*
X145550876Y-125262142D01*
X145503257Y-125309761D01*
X145408019Y-125357380D01*
X145312780Y-125357380D01*
X145217542Y-125309761D01*
X145169923Y-125262142D01*
X145122304Y-125166904D01*
X145074685Y-124976428D01*
X145074685Y-124738333D01*
X145122304Y-124547857D01*
X145169923Y-124452619D01*
X145217542Y-124405000D01*
X145312780Y-124357380D01*
X146788971Y-124309761D02*
X145931828Y-125595476D01*
X147312780Y-124357380D02*
X147408019Y-124357380D01*
X147503257Y-124405000D01*
X147550876Y-124452619D01*
X147598495Y-124547857D01*
X147646114Y-124738333D01*
X147646114Y-124976428D01*
X147598495Y-125166904D01*
X147550876Y-125262142D01*
X147503257Y-125309761D01*
X147408019Y-125357380D01*
X147312780Y-125357380D01*
X147217542Y-125309761D01*
X147169923Y-125262142D01*
X147122304Y-125166904D01*
X147074685Y-124976428D01*
X147074685Y-124738333D01*
X147122304Y-124547857D01*
X147169923Y-124452619D01*
X147217542Y-124405000D01*
X147312780Y-124357380D01*
X148217542Y-124785952D02*
X148122304Y-124738333D01*
X148074685Y-124690714D01*
X148027066Y-124595476D01*
X148027066Y-124547857D01*
X148074685Y-124452619D01*
X148122304Y-124405000D01*
X148217542Y-124357380D01*
X148408019Y-124357380D01*
X148503257Y-124405000D01*
X148550876Y-124452619D01*
X148598495Y-124547857D01*
X148598495Y-124595476D01*
X148550876Y-124690714D01*
X148503257Y-124738333D01*
X148408019Y-124785952D01*
X148217542Y-124785952D01*
X148122304Y-124833571D01*
X148074685Y-124881190D01*
X148027066Y-124976428D01*
X148027066Y-125166904D01*
X148074685Y-125262142D01*
X148122304Y-125309761D01*
X148217542Y-125357380D01*
X148408019Y-125357380D01*
X148503257Y-125309761D01*
X148550876Y-125262142D01*
X148598495Y-125166904D01*
X148598495Y-124976428D01*
X148550876Y-124881190D01*
X148503257Y-124833571D01*
X148408019Y-124785952D01*
X132812780Y-126055000D02*
X132717542Y-126007380D01*
X132574685Y-126007380D01*
X132431828Y-126055000D01*
X132336590Y-126150238D01*
X132288971Y-126245476D01*
X132241352Y-126435952D01*
X132241352Y-126578809D01*
X132288971Y-126769285D01*
X132336590Y-126864523D01*
X132431828Y-126959761D01*
X132574685Y-127007380D01*
X132669923Y-127007380D01*
X132812780Y-126959761D01*
X132860400Y-126912142D01*
X132860400Y-126578809D01*
X132669923Y-126578809D01*
X133669923Y-126959761D02*
X133574685Y-127007380D01*
X133384209Y-127007380D01*
X133288971Y-126959761D01*
X133241352Y-126864523D01*
X133241352Y-126483571D01*
X133288971Y-126388333D01*
X133384209Y-126340714D01*
X133574685Y-126340714D01*
X133669923Y-126388333D01*
X133717542Y-126483571D01*
X133717542Y-126578809D01*
X133241352Y-126674047D01*
X134146114Y-127007380D02*
X134146114Y-126340714D01*
X134146114Y-126531190D02*
X134193733Y-126435952D01*
X134241352Y-126388333D01*
X134336590Y-126340714D01*
X134431828Y-126340714D01*
X134765161Y-127007380D02*
X134765161Y-126007380D01*
X135193733Y-127007380D02*
X135193733Y-126483571D01*
X135146114Y-126388333D01*
X135050876Y-126340714D01*
X134908019Y-126340714D01*
X134812780Y-126388333D01*
X134765161Y-126435952D01*
X136098495Y-127007380D02*
X136098495Y-126483571D01*
X136050876Y-126388333D01*
X135955638Y-126340714D01*
X135765161Y-126340714D01*
X135669923Y-126388333D01*
X136098495Y-126959761D02*
X136003257Y-127007380D01*
X135765161Y-127007380D01*
X135669923Y-126959761D01*
X135622304Y-126864523D01*
X135622304Y-126769285D01*
X135669923Y-126674047D01*
X135765161Y-126626428D01*
X136003257Y-126626428D01*
X136098495Y-126578809D01*
X136574685Y-127007380D02*
X136574685Y-126340714D01*
X136574685Y-126531190D02*
X136622304Y-126435952D01*
X136669923Y-126388333D01*
X136765161Y-126340714D01*
X136860400Y-126340714D01*
X137622304Y-127007380D02*
X137622304Y-126007380D01*
X137622304Y-126959761D02*
X137527066Y-127007380D01*
X137336590Y-127007380D01*
X137241352Y-126959761D01*
X137193733Y-126912142D01*
X137146114Y-126816904D01*
X137146114Y-126531190D01*
X137193733Y-126435952D01*
X137241352Y-126388333D01*
X137336590Y-126340714D01*
X137527066Y-126340714D01*
X137622304Y-126388333D01*
X139193733Y-126483571D02*
X139336590Y-126531190D01*
X139384209Y-126578809D01*
X139431828Y-126674047D01*
X139431828Y-126816904D01*
X139384209Y-126912142D01*
X139336590Y-126959761D01*
X139241352Y-127007380D01*
X138860400Y-127007380D01*
X138860400Y-126007380D01*
X139193733Y-126007380D01*
X139288971Y-126055000D01*
X139336590Y-126102619D01*
X139384209Y-126197857D01*
X139384209Y-126293095D01*
X139336590Y-126388333D01*
X139288971Y-126435952D01*
X139193733Y-126483571D01*
X138860400Y-126483571D01*
X140241352Y-126959761D02*
X140146114Y-127007380D01*
X139955638Y-127007380D01*
X139860400Y-126959761D01*
X139812780Y-126864523D01*
X139812780Y-126483571D01*
X139860400Y-126388333D01*
X139955638Y-126340714D01*
X140146114Y-126340714D01*
X140241352Y-126388333D01*
X140288971Y-126483571D01*
X140288971Y-126578809D01*
X139812780Y-126674047D01*
X140717542Y-127007380D02*
X140717542Y-126340714D01*
X140717542Y-126531190D02*
X140765161Y-126435952D01*
X140812780Y-126388333D01*
X140908019Y-126340714D01*
X141003257Y-126340714D01*
X141193733Y-126340714D02*
X141574685Y-126340714D01*
X141336590Y-126007380D02*
X141336590Y-126864523D01*
X141384209Y-126959761D01*
X141479447Y-127007380D01*
X141574685Y-127007380D01*
X142288971Y-126959761D02*
X142193733Y-127007380D01*
X142003257Y-127007380D01*
X141908019Y-126959761D01*
X141860400Y-126864523D01*
X141860400Y-126483571D01*
X141908019Y-126388333D01*
X142003257Y-126340714D01*
X142193733Y-126340714D01*
X142288971Y-126388333D01*
X142336590Y-126483571D01*
X142336590Y-126578809D01*
X141860400Y-126674047D01*
X142908019Y-127007380D02*
X142812780Y-126959761D01*
X142765161Y-126864523D01*
X142765161Y-126007380D01*
X143241352Y-126959761D02*
X143336590Y-127007380D01*
X143527066Y-127007380D01*
X143622304Y-126959761D01*
X143669923Y-126864523D01*
X143669923Y-126816904D01*
X143622304Y-126721666D01*
X143527066Y-126674047D01*
X143384209Y-126674047D01*
X143288971Y-126626428D01*
X143241352Y-126531190D01*
X143241352Y-126483571D01*
X143288971Y-126388333D01*
X143384209Y-126340714D01*
X143527066Y-126340714D01*
X143622304Y-126388333D01*
X144098495Y-127007380D02*
X144098495Y-126340714D01*
X144098495Y-126435952D02*
X144146114Y-126388333D01*
X144241352Y-126340714D01*
X144384209Y-126340714D01*
X144479447Y-126388333D01*
X144527066Y-126483571D01*
X144527066Y-127007380D01*
X144527066Y-126483571D02*
X144574685Y-126388333D01*
X144669923Y-126340714D01*
X144812780Y-126340714D01*
X144908019Y-126388333D01*
X144955638Y-126483571D01*
X144955638Y-127007380D01*
X145860400Y-127007380D02*
X145860400Y-126483571D01*
X145812780Y-126388333D01*
X145717542Y-126340714D01*
X145527066Y-126340714D01*
X145431828Y-126388333D01*
X145860400Y-126959761D02*
X145765161Y-127007380D01*
X145527066Y-127007380D01*
X145431828Y-126959761D01*
X145384209Y-126864523D01*
X145384209Y-126769285D01*
X145431828Y-126674047D01*
X145527066Y-126626428D01*
X145765161Y-126626428D01*
X145860400Y-126578809D01*
X146336590Y-126340714D02*
X146336590Y-127007380D01*
X146336590Y-126435952D02*
X146384209Y-126388333D01*
X146479447Y-126340714D01*
X146622304Y-126340714D01*
X146717542Y-126388333D01*
X146765161Y-126483571D01*
X146765161Y-127007380D01*
X147241352Y-126340714D02*
X147241352Y-127007380D01*
X147241352Y-126435952D02*
X147288971Y-126388333D01*
X147384209Y-126340714D01*
X147527066Y-126340714D01*
X147622304Y-126388333D01*
X147669923Y-126483571D01*
X147669923Y-127007380D01*
D11*
X100000000Y-128000000D02*
X100000000Y-82000000D01*
X168000000Y-130000000D02*
X102000000Y-130000000D01*
X170000000Y-82000000D02*
X170000000Y-128000000D01*
X168000000Y-80000000D02*
X102000000Y-80000000D01*
X100000000Y-82000000D02*
G75*
G02*
X102000000Y-80000000I2000000J0D01*
G01*
X168000000Y-80000000D02*
G75*
G02*
X170000000Y-82000000I0J-2000000D01*
G01*
X170000000Y-128000000D02*
G75*
G02*
X168000000Y-130000000I-2000000J0D01*
G01*
X102000000Y-130000000D02*
G75*
G02*
X100000000Y-128000000I0J2000000D01*
G01*
D12*
X139920000Y-100500000D03*
X142460000Y-100500000D03*
D13*
X145000000Y-100500000D03*
D14*
X108979000Y-120899000D03*
X108979000Y-105399000D03*
D15*
X114809000Y-117594000D03*
X112269000Y-116324000D03*
X114809000Y-115054000D03*
X112269000Y-113784000D03*
X114809000Y-112514000D03*
X114809000Y-109974000D03*
X112269000Y-108704000D03*
X112269000Y-111244000D03*
D14*
X102879000Y-120899000D03*
X102879000Y-105399000D03*
G04 #@! TA.AperFunction,SMDPad,CuDef*
G36*
G01*
X118991500Y-116949000D02*
X118991500Y-117749000D01*
G75*
G02*
X118691500Y-118049000I-300000J0D01*
G01*
X118091500Y-118049000D01*
G75*
G02*
X117791500Y-117749000I0J300000D01*
G01*
X117791500Y-116949000D01*
G75*
G02*
X118091500Y-116649000I300000J0D01*
G01*
X118691500Y-116649000D01*
G75*
G02*
X118991500Y-116949000I0J-300000D01*
G01*
G37*
G04 #@! TD.AperFunction*
G04 #@! TA.AperFunction,SMDPad,CuDef*
G36*
G01*
X120866500Y-116949000D02*
X120866500Y-117749000D01*
G75*
G02*
X120566500Y-118049000I-300000J0D01*
G01*
X119966500Y-118049000D01*
G75*
G02*
X119666500Y-117749000I0J300000D01*
G01*
X119666500Y-116949000D01*
G75*
G02*
X119966500Y-116649000I300000J0D01*
G01*
X120566500Y-116649000D01*
G75*
G02*
X120866500Y-116949000I0J-300000D01*
G01*
G37*
G04 #@! TD.AperFunction*
D16*
X126873000Y-109728000D03*
X126873000Y-110998000D03*
X126873000Y-112268000D03*
X126873000Y-113538000D03*
X126873000Y-114808000D03*
X126873000Y-116078000D03*
X126873000Y-117348000D03*
X126873000Y-118618000D03*
X132461000Y-118618000D03*
X132461000Y-117348000D03*
X132461000Y-116078000D03*
X132461000Y-114808000D03*
X132461000Y-113538000D03*
X132461000Y-112268000D03*
X132461000Y-110998000D03*
X132461000Y-109728000D03*
D12*
X120015000Y-90551000D03*
X120015000Y-93091000D03*
X120015000Y-95631000D03*
D13*
X120015000Y-98171000D03*
G04 #@! TA.AperFunction,SMDPad,CuDef*
G36*
G01*
X134728000Y-91856000D02*
X135528000Y-91856000D01*
G75*
G02*
X135828000Y-92156000I0J-300000D01*
G01*
X135828000Y-92756000D01*
G75*
G02*
X135528000Y-93056000I-300000J0D01*
G01*
X134728000Y-93056000D01*
G75*
G02*
X134428000Y-92756000I0J300000D01*
G01*
X134428000Y-92156000D01*
G75*
G02*
X134728000Y-91856000I300000J0D01*
G01*
G37*
G04 #@! TD.AperFunction*
G04 #@! TA.AperFunction,SMDPad,CuDef*
G36*
G01*
X134728000Y-89981000D02*
X135528000Y-89981000D01*
G75*
G02*
X135828000Y-90281000I0J-300000D01*
G01*
X135828000Y-90881000D01*
G75*
G02*
X135528000Y-91181000I-300000J0D01*
G01*
X134728000Y-91181000D01*
G75*
G02*
X134428000Y-90881000I0J300000D01*
G01*
X134428000Y-90281000D01*
G75*
G02*
X134728000Y-89981000I300000J0D01*
G01*
G37*
G04 #@! TD.AperFunction*
G04 #@! TA.AperFunction,SMDPad,CuDef*
G36*
G01*
X125076000Y-89902500D02*
X125876000Y-89902500D01*
G75*
G02*
X126176000Y-90202500I0J-300000D01*
G01*
X126176000Y-90802500D01*
G75*
G02*
X125876000Y-91102500I-300000J0D01*
G01*
X125076000Y-91102500D01*
G75*
G02*
X124776000Y-90802500I0J300000D01*
G01*
X124776000Y-90202500D01*
G75*
G02*
X125076000Y-89902500I300000J0D01*
G01*
G37*
G04 #@! TD.AperFunction*
G04 #@! TA.AperFunction,SMDPad,CuDef*
G36*
G01*
X125076000Y-91777500D02*
X125876000Y-91777500D01*
G75*
G02*
X126176000Y-92077500I0J-300000D01*
G01*
X126176000Y-92677500D01*
G75*
G02*
X125876000Y-92977500I-300000J0D01*
G01*
X125076000Y-92977500D01*
G75*
G02*
X124776000Y-92677500I0J300000D01*
G01*
X124776000Y-92077500D01*
G75*
G02*
X125076000Y-91777500I300000J0D01*
G01*
G37*
G04 #@! TD.AperFunction*
G04 #@! TA.AperFunction,SMDPad,CuDef*
G36*
G01*
X139846000Y-108598500D02*
X139046000Y-108598500D01*
G75*
G02*
X138746000Y-108298500I0J300000D01*
G01*
X138746000Y-107698500D01*
G75*
G02*
X139046000Y-107398500I300000J0D01*
G01*
X139846000Y-107398500D01*
G75*
G02*
X140146000Y-107698500I0J-300000D01*
G01*
X140146000Y-108298500D01*
G75*
G02*
X139846000Y-108598500I-300000J0D01*
G01*
G37*
G04 #@! TD.AperFunction*
G04 #@! TA.AperFunction,SMDPad,CuDef*
G36*
G01*
X139846000Y-106723500D02*
X139046000Y-106723500D01*
G75*
G02*
X138746000Y-106423500I0J300000D01*
G01*
X138746000Y-105823500D01*
G75*
G02*
X139046000Y-105523500I300000J0D01*
G01*
X139846000Y-105523500D01*
G75*
G02*
X140146000Y-105823500I0J-300000D01*
G01*
X140146000Y-106423500D01*
G75*
G02*
X139846000Y-106723500I-300000J0D01*
G01*
G37*
G04 #@! TD.AperFunction*
G04 #@! TA.AperFunction,SMDPad,CuDef*
G36*
G01*
X127273000Y-108598500D02*
X126473000Y-108598500D01*
G75*
G02*
X126173000Y-108298500I0J300000D01*
G01*
X126173000Y-107698500D01*
G75*
G02*
X126473000Y-107398500I300000J0D01*
G01*
X127273000Y-107398500D01*
G75*
G02*
X127573000Y-107698500I0J-300000D01*
G01*
X127573000Y-108298500D01*
G75*
G02*
X127273000Y-108598500I-300000J0D01*
G01*
G37*
G04 #@! TD.AperFunction*
G04 #@! TA.AperFunction,SMDPad,CuDef*
G36*
G01*
X127273000Y-106723500D02*
X126473000Y-106723500D01*
G75*
G02*
X126173000Y-106423500I0J300000D01*
G01*
X126173000Y-105823500D01*
G75*
G02*
X126473000Y-105523500I300000J0D01*
G01*
X127273000Y-105523500D01*
G75*
G02*
X127573000Y-105823500I0J-300000D01*
G01*
X127573000Y-106423500D01*
G75*
G02*
X127273000Y-106723500I-300000J0D01*
G01*
G37*
G04 #@! TD.AperFunction*
G04 #@! TA.AperFunction,SMDPad,CuDef*
G36*
G01*
X135719500Y-121304000D02*
X135719500Y-120504000D01*
G75*
G02*
X136019500Y-120204000I300000J0D01*
G01*
X136619500Y-120204000D01*
G75*
G02*
X136919500Y-120504000I0J-300000D01*
G01*
X136919500Y-121304000D01*
G75*
G02*
X136619500Y-121604000I-300000J0D01*
G01*
X136019500Y-121604000D01*
G75*
G02*
X135719500Y-121304000I0J300000D01*
G01*
G37*
G04 #@! TD.AperFunction*
G04 #@! TA.AperFunction,SMDPad,CuDef*
G36*
G01*
X133844500Y-121304000D02*
X133844500Y-120504000D01*
G75*
G02*
X134144500Y-120204000I300000J0D01*
G01*
X134744500Y-120204000D01*
G75*
G02*
X135044500Y-120504000I0J-300000D01*
G01*
X135044500Y-121304000D01*
G75*
G02*
X134744500Y-121604000I-300000J0D01*
G01*
X134144500Y-121604000D01*
G75*
G02*
X133844500Y-121304000I0J300000D01*
G01*
G37*
G04 #@! TD.AperFunction*
D14*
X168012000Y-120899000D03*
X168012000Y-105399000D03*
D15*
X158622000Y-115054000D03*
X158622000Y-117594000D03*
X156082000Y-116324000D03*
X156082000Y-113784000D03*
X158622000Y-112514000D03*
X156082000Y-111244000D03*
X158622000Y-109974000D03*
X156082000Y-108704000D03*
D14*
X161912000Y-120899000D03*
X161912000Y-105399000D03*
D17*
X138971020Y-88500120D03*
D18*
X144272000Y-85248920D03*
D19*
X144272000Y-91250940D03*
G04 #@! TA.AperFunction,SMDPad,CuDef*
G36*
G01*
X153048500Y-109455000D02*
X153048500Y-110255000D01*
G75*
G02*
X152748500Y-110555000I-300000J0D01*
G01*
X152148500Y-110555000D01*
G75*
G02*
X151848500Y-110255000I0J300000D01*
G01*
X151848500Y-109455000D01*
G75*
G02*
X152148500Y-109155000I300000J0D01*
G01*
X152748500Y-109155000D01*
G75*
G02*
X153048500Y-109455000I0J-300000D01*
G01*
G37*
G04 #@! TD.AperFunction*
G04 #@! TA.AperFunction,SMDPad,CuDef*
G36*
G01*
X151173500Y-109455000D02*
X151173500Y-110255000D01*
G75*
G02*
X150873500Y-110555000I-300000J0D01*
G01*
X150273500Y-110555000D01*
G75*
G02*
X149973500Y-110255000I0J300000D01*
G01*
X149973500Y-109455000D01*
G75*
G02*
X150273500Y-109155000I300000J0D01*
G01*
X150873500Y-109155000D01*
G75*
G02*
X151173500Y-109455000I0J-300000D01*
G01*
G37*
G04 #@! TD.AperFunction*
G04 #@! TA.AperFunction,SMDPad,CuDef*
G36*
G01*
X151173500Y-112757000D02*
X151173500Y-113557000D01*
G75*
G02*
X150873500Y-113857000I-300000J0D01*
G01*
X150273500Y-113857000D01*
G75*
G02*
X149973500Y-113557000I0J300000D01*
G01*
X149973500Y-112757000D01*
G75*
G02*
X150273500Y-112457000I300000J0D01*
G01*
X150873500Y-112457000D01*
G75*
G02*
X151173500Y-112757000I0J-300000D01*
G01*
G37*
G04 #@! TD.AperFunction*
G04 #@! TA.AperFunction,SMDPad,CuDef*
G36*
G01*
X153048500Y-112757000D02*
X153048500Y-113557000D01*
G75*
G02*
X152748500Y-113857000I-300000J0D01*
G01*
X152148500Y-113857000D01*
G75*
G02*
X151848500Y-113557000I0J300000D01*
G01*
X151848500Y-112757000D01*
G75*
G02*
X152148500Y-112457000I300000J0D01*
G01*
X152748500Y-112457000D01*
G75*
G02*
X153048500Y-112757000I0J-300000D01*
G01*
G37*
G04 #@! TD.AperFunction*
G04 #@! TA.AperFunction,SMDPad,CuDef*
G36*
G01*
X153048500Y-116126000D02*
X153048500Y-116926000D01*
G75*
G02*
X152748500Y-117226000I-300000J0D01*
G01*
X152148500Y-117226000D01*
G75*
G02*
X151848500Y-116926000I0J300000D01*
G01*
X151848500Y-116126000D01*
G75*
G02*
X152148500Y-115826000I300000J0D01*
G01*
X152748500Y-115826000D01*
G75*
G02*
X153048500Y-116126000I0J-300000D01*
G01*
G37*
G04 #@! TD.AperFunction*
G04 #@! TA.AperFunction,SMDPad,CuDef*
G36*
G01*
X151173500Y-116126000D02*
X151173500Y-116926000D01*
G75*
G02*
X150873500Y-117226000I-300000J0D01*
G01*
X150273500Y-117226000D01*
G75*
G02*
X149973500Y-116926000I0J300000D01*
G01*
X149973500Y-116126000D01*
G75*
G02*
X150273500Y-115826000I300000J0D01*
G01*
X150873500Y-115826000D01*
G75*
G02*
X151173500Y-116126000I0J-300000D01*
G01*
G37*
G04 #@! TD.AperFunction*
G04 #@! TA.AperFunction,SMDPad,CuDef*
G36*
G01*
X153048500Y-119361000D02*
X153048500Y-120161000D01*
G75*
G02*
X152748500Y-120461000I-300000J0D01*
G01*
X152148500Y-120461000D01*
G75*
G02*
X151848500Y-120161000I0J300000D01*
G01*
X151848500Y-119361000D01*
G75*
G02*
X152148500Y-119061000I300000J0D01*
G01*
X152748500Y-119061000D01*
G75*
G02*
X153048500Y-119361000I0J-300000D01*
G01*
G37*
G04 #@! TD.AperFunction*
G04 #@! TA.AperFunction,SMDPad,CuDef*
G36*
G01*
X151173500Y-119361000D02*
X151173500Y-120161000D01*
G75*
G02*
X150873500Y-120461000I-300000J0D01*
G01*
X150273500Y-120461000D01*
G75*
G02*
X149973500Y-120161000I0J300000D01*
G01*
X149973500Y-119361000D01*
G75*
G02*
X150273500Y-119061000I300000J0D01*
G01*
X150873500Y-119061000D01*
G75*
G02*
X151173500Y-119361000I0J-300000D01*
G01*
G37*
G04 #@! TD.AperFunction*
G04 #@! TA.AperFunction,SMDPad,CuDef*
G36*
G01*
X142933100Y-121304000D02*
X142933100Y-120504000D01*
G75*
G02*
X143233100Y-120204000I300000J0D01*
G01*
X143833100Y-120204000D01*
G75*
G02*
X144133100Y-120504000I0J-300000D01*
G01*
X144133100Y-121304000D01*
G75*
G02*
X143833100Y-121604000I-300000J0D01*
G01*
X143233100Y-121604000D01*
G75*
G02*
X142933100Y-121304000I0J300000D01*
G01*
G37*
G04 #@! TD.AperFunction*
G04 #@! TA.AperFunction,SMDPad,CuDef*
G36*
G01*
X141058100Y-121304000D02*
X141058100Y-120504000D01*
G75*
G02*
X141358100Y-120204000I300000J0D01*
G01*
X141958100Y-120204000D01*
G75*
G02*
X142258100Y-120504000I0J-300000D01*
G01*
X142258100Y-121304000D01*
G75*
G02*
X141958100Y-121604000I-300000J0D01*
G01*
X141358100Y-121604000D01*
G75*
G02*
X141058100Y-121304000I0J300000D01*
G01*
G37*
G04 #@! TD.AperFunction*
G04 #@! TA.AperFunction,SMDPad,CuDef*
G36*
G01*
X118991500Y-109349000D02*
X118991500Y-110149000D01*
G75*
G02*
X118691500Y-110449000I-300000J0D01*
G01*
X118091500Y-110449000D01*
G75*
G02*
X117791500Y-110149000I0J300000D01*
G01*
X117791500Y-109349000D01*
G75*
G02*
X118091500Y-109049000I300000J0D01*
G01*
X118691500Y-109049000D01*
G75*
G02*
X118991500Y-109349000I0J-300000D01*
G01*
G37*
G04 #@! TD.AperFunction*
G04 #@! TA.AperFunction,SMDPad,CuDef*
G36*
G01*
X120866500Y-109349000D02*
X120866500Y-110149000D01*
G75*
G02*
X120566500Y-110449000I-300000J0D01*
G01*
X119966500Y-110449000D01*
G75*
G02*
X119666500Y-110149000I0J300000D01*
G01*
X119666500Y-109349000D01*
G75*
G02*
X119966500Y-109049000I300000J0D01*
G01*
X120566500Y-109049000D01*
G75*
G02*
X120866500Y-109349000I0J-300000D01*
G01*
G37*
G04 #@! TD.AperFunction*
G04 #@! TA.AperFunction,SMDPad,CuDef*
G36*
G01*
X120866500Y-111949000D02*
X120866500Y-112749000D01*
G75*
G02*
X120566500Y-113049000I-300000J0D01*
G01*
X119966500Y-113049000D01*
G75*
G02*
X119666500Y-112749000I0J300000D01*
G01*
X119666500Y-111949000D01*
G75*
G02*
X119966500Y-111649000I300000J0D01*
G01*
X120566500Y-111649000D01*
G75*
G02*
X120866500Y-111949000I0J-300000D01*
G01*
G37*
G04 #@! TD.AperFunction*
G04 #@! TA.AperFunction,SMDPad,CuDef*
G36*
G01*
X118991500Y-111949000D02*
X118991500Y-112749000D01*
G75*
G02*
X118691500Y-113049000I-300000J0D01*
G01*
X118091500Y-113049000D01*
G75*
G02*
X117791500Y-112749000I0J300000D01*
G01*
X117791500Y-111949000D01*
G75*
G02*
X118091500Y-111649000I300000J0D01*
G01*
X118691500Y-111649000D01*
G75*
G02*
X118991500Y-111949000I0J-300000D01*
G01*
G37*
G04 #@! TD.AperFunction*
G04 #@! TA.AperFunction,SMDPad,CuDef*
G36*
G01*
X120866500Y-114357200D02*
X120866500Y-115157200D01*
G75*
G02*
X120566500Y-115457200I-300000J0D01*
G01*
X119966500Y-115457200D01*
G75*
G02*
X119666500Y-115157200I0J300000D01*
G01*
X119666500Y-114357200D01*
G75*
G02*
X119966500Y-114057200I300000J0D01*
G01*
X120566500Y-114057200D01*
G75*
G02*
X120866500Y-114357200I0J-300000D01*
G01*
G37*
G04 #@! TD.AperFunction*
G04 #@! TA.AperFunction,SMDPad,CuDef*
G36*
G01*
X118991500Y-114357200D02*
X118991500Y-115157200D01*
G75*
G02*
X118691500Y-115457200I-300000J0D01*
G01*
X118091500Y-115457200D01*
G75*
G02*
X117791500Y-115157200I0J300000D01*
G01*
X117791500Y-114357200D01*
G75*
G02*
X118091500Y-114057200I300000J0D01*
G01*
X118691500Y-114057200D01*
G75*
G02*
X118991500Y-114357200I0J-300000D01*
G01*
G37*
G04 #@! TD.AperFunction*
D13*
X159512000Y-102000000D03*
D12*
X159512000Y-99460000D03*
X159512000Y-96920000D03*
X159512000Y-94380000D03*
X159512000Y-91840000D03*
X159512000Y-89300000D03*
D20*
X132582000Y-91050000D03*
X128022000Y-91050000D03*
D21*
X130302000Y-97350000D03*
D16*
X139446000Y-109728000D03*
X139446000Y-110998000D03*
X139446000Y-112268000D03*
X139446000Y-113538000D03*
X139446000Y-114808000D03*
X139446000Y-116078000D03*
X139446000Y-117348000D03*
X139446000Y-118618000D03*
X145034000Y-118618000D03*
X145034000Y-117348000D03*
X145034000Y-116078000D03*
X145034000Y-114808000D03*
X145034000Y-113538000D03*
X145034000Y-112268000D03*
X145034000Y-110998000D03*
X145034000Y-109728000D03*
G04 #@! TA.AperFunction,SMDPad,CuDef*
G36*
G01*
X145434000Y-108598500D02*
X144634000Y-108598500D01*
G75*
G02*
X144334000Y-108298500I0J300000D01*
G01*
X144334000Y-107698500D01*
G75*
G02*
X144634000Y-107398500I300000J0D01*
G01*
X145434000Y-107398500D01*
G75*
G02*
X145734000Y-107698500I0J-300000D01*
G01*
X145734000Y-108298500D01*
G75*
G02*
X145434000Y-108598500I-300000J0D01*
G01*
G37*
G04 #@! TD.AperFunction*
G04 #@! TA.AperFunction,SMDPad,CuDef*
G36*
G01*
X145434000Y-106723500D02*
X144634000Y-106723500D01*
G75*
G02*
X144334000Y-106423500I0J300000D01*
G01*
X144334000Y-105823500D01*
G75*
G02*
X144634000Y-105523500I300000J0D01*
G01*
X145434000Y-105523500D01*
G75*
G02*
X145734000Y-105823500I0J-300000D01*
G01*
X145734000Y-106423500D01*
G75*
G02*
X145434000Y-106723500I-300000J0D01*
G01*
G37*
G04 #@! TD.AperFunction*
G04 #@! TA.AperFunction,SMDPad,CuDef*
G36*
G01*
X132861000Y-106723500D02*
X132061000Y-106723500D01*
G75*
G02*
X131761000Y-106423500I0J300000D01*
G01*
X131761000Y-105823500D01*
G75*
G02*
X132061000Y-105523500I300000J0D01*
G01*
X132861000Y-105523500D01*
G75*
G02*
X133161000Y-105823500I0J-300000D01*
G01*
X133161000Y-106423500D01*
G75*
G02*
X132861000Y-106723500I-300000J0D01*
G01*
G37*
G04 #@! TD.AperFunction*
G04 #@! TA.AperFunction,SMDPad,CuDef*
G36*
G01*
X132861000Y-108598500D02*
X132061000Y-108598500D01*
G75*
G02*
X131761000Y-108298500I0J300000D01*
G01*
X131761000Y-107698500D01*
G75*
G02*
X132061000Y-107398500I300000J0D01*
G01*
X132861000Y-107398500D01*
G75*
G02*
X133161000Y-107698500I0J-300000D01*
G01*
X133161000Y-108298500D01*
G75*
G02*
X132861000Y-108598500I-300000J0D01*
G01*
G37*
G04 #@! TD.AperFunction*
D13*
X131318000Y-85090000D03*
D12*
X128778000Y-85090000D03*
D22*
X137820400Y-121818400D03*
X141224000Y-118618000D03*
X134620000Y-118618000D03*
X133350000Y-104394000D03*
X139446000Y-104394000D03*
X145034000Y-104648000D03*
D23*
X146659600Y-108051600D03*
X134670800Y-117348000D03*
X136141700Y-107998500D03*
D22*
X125000000Y-110000000D03*
X125000000Y-119000000D03*
X152400000Y-111709200D03*
X155600400Y-103530400D03*
X141605000Y-110998000D03*
X147447000Y-110998000D03*
X141859000Y-113538000D03*
X147574000Y-113157000D03*
X141859000Y-116078000D03*
X147447000Y-116459000D03*
X118364000Y-119253000D03*
D24*
X136906000Y-120904000D02*
X137820400Y-121818400D01*
X136319500Y-120904000D02*
X136906000Y-120904000D01*
X139446000Y-118618000D02*
X141224000Y-118618000D01*
X132461000Y-118618000D02*
X134620000Y-118618000D01*
X134620000Y-119204500D02*
X136319500Y-120904000D01*
X134620000Y-118618000D02*
X134620000Y-119204500D01*
X132461000Y-105283000D02*
X133350000Y-104394000D01*
X132461000Y-106123500D02*
X132461000Y-105283000D01*
X139446000Y-106123500D02*
X139446000Y-104394000D01*
X145034000Y-106123500D02*
X145034000Y-104648000D01*
D25*
X145034000Y-107998500D02*
X145034000Y-109728000D01*
X145034000Y-107998500D02*
X144625300Y-107998500D01*
X144625300Y-107998500D02*
X142460000Y-105833200D01*
X142460000Y-103513600D02*
X148403600Y-103513600D01*
X142460000Y-105833200D02*
X142460000Y-103513600D01*
X142460000Y-103513600D02*
X142460000Y-100500000D01*
X148403600Y-103513600D02*
X151485600Y-100431600D01*
X151485600Y-100431600D02*
X151485600Y-92202000D01*
X154387600Y-89300000D02*
X159512000Y-89300000D01*
X151485600Y-92202000D02*
X154387600Y-89300000D01*
X145087100Y-108051600D02*
X145034000Y-107998500D01*
X146659600Y-108051600D02*
X145087100Y-108051600D01*
X132461000Y-107998500D02*
X132461000Y-109728000D01*
X139446000Y-107998500D02*
X139446000Y-109728000D01*
X136141700Y-107998500D02*
X136141700Y-102669100D01*
X132461000Y-107998500D02*
X136141700Y-107998500D01*
X136141700Y-107998500D02*
X139446000Y-107998500D01*
X138310800Y-100500000D02*
X139920000Y-100500000D01*
X136141700Y-102669100D02*
X138310800Y-100500000D01*
X125427500Y-90551000D02*
X125476000Y-90502500D01*
X120015000Y-90551000D02*
X125427500Y-90551000D01*
X127474500Y-90502500D02*
X128022000Y-91050000D01*
X125476000Y-90502500D02*
X127474500Y-90502500D01*
X128022000Y-91050000D02*
X128022000Y-88132000D01*
X128778000Y-87376000D02*
X128778000Y-85090000D01*
X128022000Y-88132000D02*
X128778000Y-87376000D01*
X128022000Y-92312657D02*
X125231589Y-95103068D01*
X128022000Y-91050000D02*
X128022000Y-92312657D01*
X127271358Y-102669100D02*
X136141700Y-102669100D01*
X125231589Y-95103068D02*
X125231589Y-100629331D01*
X125231589Y-100629331D02*
X127271358Y-102669100D01*
X138785600Y-120904000D02*
X141658100Y-120904000D01*
X135229600Y-117348000D02*
X138785600Y-120904000D01*
X132461000Y-117348000D02*
X134670800Y-117348000D01*
X134670800Y-117348000D02*
X135229600Y-117348000D01*
X112974500Y-107998500D02*
X112269000Y-108704000D01*
X126873000Y-107998500D02*
X112974500Y-107998500D01*
X126873000Y-107998500D02*
X126873000Y-109728000D01*
X126873000Y-117348000D02*
X124968000Y-117348000D01*
X124968000Y-117348000D02*
X121666000Y-120650000D01*
X121666000Y-120650000D02*
X112776000Y-120650000D01*
X112776000Y-120650000D02*
X110236000Y-118110000D01*
X110236000Y-110737000D02*
X112269000Y-108704000D01*
X110236000Y-118110000D02*
X110236000Y-110737000D01*
D24*
X126873000Y-110998000D02*
X125998000Y-110998000D01*
X125382000Y-118618000D02*
X125000000Y-119000000D01*
X126873000Y-118618000D02*
X125382000Y-118618000D01*
X126873000Y-110998000D02*
X125222000Y-110998000D01*
X125000000Y-110776000D02*
X125000000Y-110000000D01*
X125222000Y-110998000D02*
X125000000Y-110776000D01*
X150573500Y-119761000D02*
X148666200Y-119761000D01*
X148666200Y-119761000D02*
X145440400Y-122986800D01*
X145440400Y-122986800D02*
X135077200Y-122986800D01*
X134444500Y-122354100D02*
X134444500Y-120904000D01*
X135077200Y-122986800D02*
X134444500Y-122354100D01*
X131111509Y-116128001D02*
X131111509Y-119833909D01*
X131161510Y-116078000D02*
X131111509Y-116128001D01*
X132461000Y-116078000D02*
X131161510Y-116078000D01*
X132181600Y-120904000D02*
X134444500Y-120904000D01*
X131111509Y-119833909D02*
X132181600Y-120904000D01*
X152448500Y-119761000D02*
X154609800Y-119761000D01*
X156082000Y-118288800D02*
X156082000Y-116324000D01*
X154609800Y-119761000D02*
X156082000Y-118288800D01*
X152448500Y-110150500D02*
X156082000Y-113784000D01*
X152448500Y-109855000D02*
X152448500Y-110150500D01*
X152448500Y-111757700D02*
X152400000Y-111709200D01*
X152448500Y-113157000D02*
X152448500Y-111757700D01*
X157132001Y-111463999D02*
X158622000Y-109974000D01*
X157132001Y-114288001D02*
X157132001Y-111463999D01*
X156586001Y-114834001D02*
X157132001Y-114288001D01*
X153440499Y-114834001D02*
X156586001Y-114834001D01*
X152448500Y-115826000D02*
X153440499Y-114834001D01*
X152448500Y-116526000D02*
X152448500Y-115826000D01*
X158622000Y-108330000D02*
X158622000Y-109974000D01*
X155600400Y-105308400D02*
X158622000Y-108330000D01*
X155600400Y-103530400D02*
X155600400Y-105308400D01*
X139446000Y-110998000D02*
X141605000Y-110998000D01*
X150573500Y-109855000D02*
X149098000Y-109855000D01*
X147955000Y-110998000D02*
X147447000Y-110998000D01*
X149098000Y-109855000D02*
X147955000Y-110998000D01*
X139446000Y-113538000D02*
X141859000Y-113538000D01*
X147574000Y-113157000D02*
X150573500Y-113157000D01*
X139446000Y-116078000D02*
X141859000Y-116078000D01*
D26*
X150506500Y-116459000D02*
X150573500Y-116526000D01*
D24*
X147447000Y-116459000D02*
X150506500Y-116459000D01*
X145034000Y-112268000D02*
X143256000Y-112268000D01*
X143256000Y-112268000D02*
X143002000Y-112522000D01*
X143533100Y-119911100D02*
X143533100Y-120904000D01*
X143002000Y-119380000D02*
X143533100Y-119911100D01*
X145034000Y-118618000D02*
X143002000Y-118618000D01*
X143002000Y-118618000D02*
X143002000Y-119380000D01*
X145034000Y-116078000D02*
X143002000Y-116078000D01*
X143002000Y-116078000D02*
X143002000Y-118618000D01*
X143256000Y-113538000D02*
X143002000Y-113792000D01*
X145034000Y-113538000D02*
X143256000Y-113538000D01*
X143002000Y-113792000D02*
X143002000Y-116078000D01*
X143002000Y-112522000D02*
X143002000Y-113792000D01*
X114809000Y-112514000D02*
X116020200Y-111302800D01*
X116020200Y-111302800D02*
X116020200Y-110903400D01*
X117174600Y-109749000D02*
X118391500Y-109749000D01*
X116020200Y-110903400D02*
X117174600Y-109749000D01*
X126873000Y-112268000D02*
X125095000Y-112268000D01*
X122576000Y-109749000D02*
X121433000Y-109749000D01*
X125095000Y-112268000D02*
X122576000Y-109749000D01*
X121433000Y-109749000D02*
X120266500Y-109749000D01*
X120266500Y-112349000D02*
X122382000Y-112349000D01*
X123571000Y-113538000D02*
X126873000Y-113538000D01*
X122382000Y-112349000D02*
X123571000Y-113538000D01*
X117514000Y-112349000D02*
X118391500Y-112349000D01*
X114809000Y-115054000D02*
X117514000Y-112349000D01*
D26*
X126814000Y-114749000D02*
X126873000Y-114808000D01*
D24*
X126822200Y-114757200D02*
X126873000Y-114808000D01*
X120266500Y-114757200D02*
X126822200Y-114757200D01*
X112269000Y-116324000D02*
X115324000Y-116324000D01*
X116899000Y-114749000D02*
X118391500Y-114749000D01*
X115324000Y-116324000D02*
X116899000Y-114749000D01*
D26*
X118391500Y-119225500D02*
X118364000Y-119253000D01*
D24*
X118391500Y-117349000D02*
X118391500Y-119225500D01*
X120266500Y-117349000D02*
X122376200Y-117349000D01*
X123647200Y-116078000D02*
X126873000Y-116078000D01*
X122376200Y-117349000D02*
X123647200Y-116078000D01*
X132461000Y-112268000D02*
X139446000Y-112268000D01*
X139446000Y-114808000D02*
X136904590Y-114808000D01*
X136904590Y-114808000D02*
X135634590Y-113538000D01*
X135634590Y-113538000D02*
X132461000Y-113538000D01*
X132461000Y-114808000D02*
X134366000Y-114808000D01*
X136906000Y-117348000D02*
X139446000Y-117348000D01*
X134366000Y-114808000D02*
X136906000Y-117348000D01*
D27*
X144272000Y-91250940D02*
X144272000Y-94843600D01*
X145000000Y-95571600D02*
X145000000Y-100500000D01*
X144272000Y-94843600D02*
X145000000Y-95571600D01*
X140110550Y-85090000D02*
X131318000Y-85090000D01*
X144272000Y-89251450D02*
X140110550Y-85090000D01*
X144272000Y-91250940D02*
X144272000Y-89251450D01*
X131318000Y-89786000D02*
X132582000Y-91050000D01*
X131318000Y-85090000D02*
X131318000Y-89786000D01*
X123701283Y-83539999D02*
X116702789Y-90538493D01*
X131318000Y-85090000D02*
X129767999Y-83539999D01*
X116702789Y-93763907D02*
X118569882Y-95631000D01*
X129767999Y-83539999D02*
X123701283Y-83539999D01*
X116702789Y-90538493D02*
X116702789Y-93763907D01*
X118569882Y-95631000D02*
X120015000Y-95631000D01*
X133051000Y-90581000D02*
X132582000Y-91050000D01*
X135128000Y-90581000D02*
X133051000Y-90581000D01*
D28*
G36*
X168259659Y-80688625D02*
G01*
X168509429Y-80764035D01*
X168739792Y-80886522D01*
X168941980Y-81051422D01*
X169108286Y-81252450D01*
X169232378Y-81481954D01*
X169309531Y-81731195D01*
X169340000Y-82021088D01*
X169340000Y-104061207D01*
X169213618Y-103934825D01*
X168904882Y-103728534D01*
X168561834Y-103586439D01*
X168197656Y-103514000D01*
X167826344Y-103514000D01*
X167462166Y-103586439D01*
X167119118Y-103728534D01*
X166810382Y-103934825D01*
X166547825Y-104197382D01*
X166341534Y-104506118D01*
X166199439Y-104849166D01*
X166127000Y-105213344D01*
X166127000Y-105494350D01*
X166032511Y-105431214D01*
X165621218Y-105260851D01*
X165184591Y-105174000D01*
X164739409Y-105174000D01*
X164302782Y-105260851D01*
X163891489Y-105431214D01*
X163797000Y-105494350D01*
X163797000Y-105213344D01*
X163724561Y-104849166D01*
X163582466Y-104506118D01*
X163376175Y-104197382D01*
X163113618Y-103934825D01*
X162804882Y-103728534D01*
X162461834Y-103586439D01*
X162097656Y-103514000D01*
X161726344Y-103514000D01*
X161362166Y-103586439D01*
X161019118Y-103728534D01*
X160710382Y-103934825D01*
X160447825Y-104197382D01*
X160241534Y-104506118D01*
X160099439Y-104849166D01*
X160027000Y-105213344D01*
X160027000Y-105584656D01*
X160099439Y-105948834D01*
X160241534Y-106291882D01*
X160447825Y-106600618D01*
X160710382Y-106863175D01*
X161019118Y-107069466D01*
X161362166Y-107211561D01*
X161726344Y-107284000D01*
X162097656Y-107284000D01*
X162461834Y-107211561D01*
X162723532Y-107103162D01*
X162702000Y-107211409D01*
X162702000Y-107656591D01*
X162788851Y-108093218D01*
X162959214Y-108504511D01*
X163206544Y-108874666D01*
X163521334Y-109189456D01*
X163891489Y-109436786D01*
X164302782Y-109607149D01*
X164739409Y-109694000D01*
X165184591Y-109694000D01*
X165621218Y-109607149D01*
X166032511Y-109436786D01*
X166402666Y-109189456D01*
X166717456Y-108874666D01*
X166964786Y-108504511D01*
X167135149Y-108093218D01*
X167222000Y-107656591D01*
X167222000Y-107211409D01*
X167200468Y-107103162D01*
X167462166Y-107211561D01*
X167826344Y-107284000D01*
X168197656Y-107284000D01*
X168561834Y-107211561D01*
X168904882Y-107069466D01*
X169213618Y-106863175D01*
X169340001Y-106736792D01*
X169340001Y-119561208D01*
X169213618Y-119434825D01*
X168904882Y-119228534D01*
X168561834Y-119086439D01*
X168197656Y-119014000D01*
X167826344Y-119014000D01*
X167462166Y-119086439D01*
X167200468Y-119194838D01*
X167222000Y-119086591D01*
X167222000Y-118641409D01*
X167135149Y-118204782D01*
X166964786Y-117793489D01*
X166717456Y-117423334D01*
X166402666Y-117108544D01*
X166032511Y-116861214D01*
X165621218Y-116690851D01*
X165184591Y-116604000D01*
X164739409Y-116604000D01*
X164302782Y-116690851D01*
X163891489Y-116861214D01*
X163521334Y-117108544D01*
X163206544Y-117423334D01*
X162959214Y-117793489D01*
X162788851Y-118204782D01*
X162702000Y-118641409D01*
X162702000Y-119086591D01*
X162723532Y-119194838D01*
X162461834Y-119086439D01*
X162097656Y-119014000D01*
X161726344Y-119014000D01*
X161362166Y-119086439D01*
X161019118Y-119228534D01*
X160710382Y-119434825D01*
X160447825Y-119697382D01*
X160241534Y-120006118D01*
X160099439Y-120349166D01*
X160027000Y-120713344D01*
X160027000Y-121084656D01*
X160099439Y-121448834D01*
X160241534Y-121791882D01*
X160447825Y-122100618D01*
X160710382Y-122363175D01*
X161019118Y-122569466D01*
X161362166Y-122711561D01*
X161726344Y-122784000D01*
X162097656Y-122784000D01*
X162461834Y-122711561D01*
X162804882Y-122569466D01*
X163113618Y-122363175D01*
X163376175Y-122100618D01*
X163582466Y-121791882D01*
X163724561Y-121448834D01*
X163797000Y-121084656D01*
X163797000Y-120803650D01*
X163891489Y-120866786D01*
X164302782Y-121037149D01*
X164739409Y-121124000D01*
X165184591Y-121124000D01*
X165621218Y-121037149D01*
X166032511Y-120866786D01*
X166127000Y-120803650D01*
X166127000Y-121084656D01*
X166199439Y-121448834D01*
X166341534Y-121791882D01*
X166547825Y-122100618D01*
X166810382Y-122363175D01*
X167119118Y-122569466D01*
X167462166Y-122711561D01*
X167826344Y-122784000D01*
X168197656Y-122784000D01*
X168561834Y-122711561D01*
X168904882Y-122569466D01*
X169213618Y-122363175D01*
X169340001Y-122236792D01*
X169340001Y-127967711D01*
X169311375Y-128259660D01*
X169235965Y-128509429D01*
X169113477Y-128739794D01*
X168948579Y-128941979D01*
X168747546Y-129108288D01*
X168518046Y-129232378D01*
X168268805Y-129309531D01*
X167978911Y-129340000D01*
X130627000Y-129340000D01*
X130627000Y-120459557D01*
X131599257Y-121431815D01*
X131623836Y-121461764D01*
X131653784Y-121486342D01*
X131653787Y-121486345D01*
X131683159Y-121510450D01*
X131743367Y-121559862D01*
X131879740Y-121632754D01*
X132027712Y-121677641D01*
X132042090Y-121679057D01*
X132143039Y-121689000D01*
X132143046Y-121689000D01*
X132181599Y-121692797D01*
X132220152Y-121689000D01*
X133291739Y-121689000D01*
X133364522Y-121825165D01*
X133481183Y-121967317D01*
X133623335Y-122083978D01*
X133659500Y-122103309D01*
X133659500Y-122315547D01*
X133655703Y-122354100D01*
X133659500Y-122392653D01*
X133659500Y-122392660D01*
X133670859Y-122507986D01*
X133715746Y-122655959D01*
X133788638Y-122792332D01*
X133886736Y-122911864D01*
X133916689Y-122936446D01*
X134492742Y-123512500D01*
X131221829Y-123512500D01*
X131221829Y-128082500D01*
X149498972Y-128082500D01*
X149498972Y-125779872D01*
X163765000Y-125779872D01*
X163765000Y-126220128D01*
X163850890Y-126651925D01*
X164019369Y-127058669D01*
X164263962Y-127424729D01*
X164575271Y-127736038D01*
X164941331Y-127980631D01*
X165348075Y-128149110D01*
X165779872Y-128235000D01*
X166220128Y-128235000D01*
X166651925Y-128149110D01*
X167058669Y-127980631D01*
X167424729Y-127736038D01*
X167736038Y-127424729D01*
X167980631Y-127058669D01*
X168149110Y-126651925D01*
X168235000Y-126220128D01*
X168235000Y-125779872D01*
X168149110Y-125348075D01*
X167980631Y-124941331D01*
X167736038Y-124575271D01*
X167424729Y-124263962D01*
X167058669Y-124019369D01*
X166651925Y-123850890D01*
X166220128Y-123765000D01*
X165779872Y-123765000D01*
X165348075Y-123850890D01*
X164941331Y-124019369D01*
X164575271Y-124263962D01*
X164263962Y-124575271D01*
X164019369Y-124941331D01*
X163850890Y-125348075D01*
X163765000Y-125779872D01*
X149498972Y-125779872D01*
X149498972Y-123512500D01*
X146024857Y-123512500D01*
X148991358Y-120546000D01*
X149420739Y-120546000D01*
X149493522Y-120682165D01*
X149610183Y-120824317D01*
X149752335Y-120940978D01*
X149914515Y-121027666D01*
X150090491Y-121081047D01*
X150273500Y-121099072D01*
X150873500Y-121099072D01*
X151056509Y-121081047D01*
X151232485Y-121027666D01*
X151394665Y-120940978D01*
X151511000Y-120845504D01*
X151627335Y-120940978D01*
X151789515Y-121027666D01*
X151965491Y-121081047D01*
X152148500Y-121099072D01*
X152748500Y-121099072D01*
X152931509Y-121081047D01*
X153107485Y-121027666D01*
X153269665Y-120940978D01*
X153411817Y-120824317D01*
X153528478Y-120682165D01*
X153601261Y-120546000D01*
X154571247Y-120546000D01*
X154609800Y-120549797D01*
X154648353Y-120546000D01*
X154648361Y-120546000D01*
X154763687Y-120534641D01*
X154911660Y-120489754D01*
X155048033Y-120416862D01*
X155167564Y-120318764D01*
X155192147Y-120288810D01*
X156609817Y-118871141D01*
X156639764Y-118846564D01*
X156737862Y-118727033D01*
X156810754Y-118590660D01*
X156829465Y-118528978D01*
X156855641Y-118442688D01*
X156858632Y-118412317D01*
X156867000Y-118327361D01*
X156867000Y-118327354D01*
X156870797Y-118288801D01*
X156867000Y-118250248D01*
X156867000Y-117462514D01*
X157287000Y-117462514D01*
X157287000Y-117725486D01*
X157338304Y-117983405D01*
X157438939Y-118226359D01*
X157585038Y-118445013D01*
X157770987Y-118630962D01*
X157989641Y-118777061D01*
X158232595Y-118877696D01*
X158490514Y-118929000D01*
X158753486Y-118929000D01*
X159011405Y-118877696D01*
X159254359Y-118777061D01*
X159473013Y-118630962D01*
X159658962Y-118445013D01*
X159805061Y-118226359D01*
X159905696Y-117983405D01*
X159957000Y-117725486D01*
X159957000Y-117462514D01*
X159905696Y-117204595D01*
X159805061Y-116961641D01*
X159658962Y-116742987D01*
X159473013Y-116557038D01*
X159254359Y-116410939D01*
X159040556Y-116322379D01*
X159203366Y-116262935D01*
X159304203Y-116209037D01*
X159363664Y-115975269D01*
X158622000Y-115233605D01*
X157880336Y-115975269D01*
X157939797Y-116209037D01*
X158178242Y-116319934D01*
X158197827Y-116324706D01*
X157989641Y-116410939D01*
X157770987Y-116557038D01*
X157585038Y-116742987D01*
X157438939Y-116961641D01*
X157338304Y-117204595D01*
X157287000Y-117462514D01*
X156867000Y-117462514D01*
X156867000Y-117405070D01*
X156933013Y-117360962D01*
X157118962Y-117175013D01*
X157265061Y-116956359D01*
X157365696Y-116713405D01*
X157417000Y-116455486D01*
X157417000Y-116192514D01*
X157365696Y-115934595D01*
X157265061Y-115691641D01*
X157118962Y-115472987D01*
X157085532Y-115439557D01*
X157143765Y-115391765D01*
X157168348Y-115361811D01*
X157298585Y-115231574D01*
X157322875Y-115388344D01*
X157413065Y-115635366D01*
X157466963Y-115736203D01*
X157700731Y-115795664D01*
X158442395Y-115054000D01*
X158801605Y-115054000D01*
X159543269Y-115795664D01*
X159777037Y-115736203D01*
X159887934Y-115497758D01*
X159950183Y-115242260D01*
X159961390Y-114979527D01*
X159921125Y-114719656D01*
X159830935Y-114472634D01*
X159777037Y-114371797D01*
X159543269Y-114312336D01*
X158801605Y-115054000D01*
X158442395Y-115054000D01*
X158428253Y-115039858D01*
X158607858Y-114860253D01*
X158622000Y-114874395D01*
X159363664Y-114132731D01*
X159304203Y-113898963D01*
X159065758Y-113788066D01*
X159041299Y-113782107D01*
X159203366Y-113722935D01*
X159304203Y-113669037D01*
X159363664Y-113435269D01*
X158622000Y-112693605D01*
X158607858Y-112707748D01*
X158428253Y-112528143D01*
X158442395Y-112514000D01*
X158801605Y-112514000D01*
X159543269Y-113255664D01*
X159777037Y-113196203D01*
X159887934Y-112957758D01*
X159950183Y-112702260D01*
X159961390Y-112439527D01*
X159921125Y-112179656D01*
X159830935Y-111932634D01*
X159777037Y-111831797D01*
X159543269Y-111772336D01*
X158801605Y-112514000D01*
X158442395Y-112514000D01*
X158428253Y-112499858D01*
X158607858Y-112320253D01*
X158622000Y-112334395D01*
X159363664Y-111592731D01*
X159304203Y-111358963D01*
X159065758Y-111248066D01*
X159046173Y-111243294D01*
X159254359Y-111157061D01*
X159473013Y-111010962D01*
X159658962Y-110825013D01*
X159805061Y-110606359D01*
X159905696Y-110363405D01*
X159957000Y-110105486D01*
X159957000Y-109842514D01*
X159905696Y-109584595D01*
X159805061Y-109341641D01*
X159658962Y-109122987D01*
X159473013Y-108937038D01*
X159407000Y-108892930D01*
X159407000Y-108368556D01*
X159410797Y-108330000D01*
X159407000Y-108291440D01*
X159407000Y-108291439D01*
X159400465Y-108225090D01*
X159395642Y-108176113D01*
X159350754Y-108028140D01*
X159311673Y-107955024D01*
X159277862Y-107891767D01*
X159179764Y-107772236D01*
X159149811Y-107747654D01*
X156385400Y-104983243D01*
X156385400Y-104209111D01*
X156404337Y-104190174D01*
X156517605Y-104020656D01*
X156595626Y-103832298D01*
X156635400Y-103632339D01*
X156635400Y-103428461D01*
X156595626Y-103228502D01*
X156517605Y-103040144D01*
X156404337Y-102870626D01*
X156260174Y-102726463D01*
X156090656Y-102613195D01*
X155902298Y-102535174D01*
X155702339Y-102495400D01*
X155498461Y-102495400D01*
X155298502Y-102535174D01*
X155110144Y-102613195D01*
X154940626Y-102726463D01*
X154796463Y-102870626D01*
X154683195Y-103040144D01*
X154605174Y-103228502D01*
X154565400Y-103428461D01*
X154565400Y-103632339D01*
X154605174Y-103832298D01*
X154683195Y-104020656D01*
X154796463Y-104190174D01*
X154815400Y-104209111D01*
X154815401Y-105269838D01*
X154811603Y-105308400D01*
X154826759Y-105462286D01*
X154871646Y-105610259D01*
X154898078Y-105659710D01*
X154944539Y-105746633D01*
X154985090Y-105796044D01*
X155018055Y-105836212D01*
X155018059Y-105836216D01*
X155042637Y-105866164D01*
X155072585Y-105890742D01*
X156694596Y-107512753D01*
X156471405Y-107420304D01*
X156213486Y-107369000D01*
X155950514Y-107369000D01*
X155692595Y-107420304D01*
X155449641Y-107520939D01*
X155230987Y-107667038D01*
X155045038Y-107852987D01*
X154898939Y-108071641D01*
X154798304Y-108314595D01*
X154747000Y-108572514D01*
X154747000Y-108835486D01*
X154798304Y-109093405D01*
X154898939Y-109336359D01*
X155045038Y-109555013D01*
X155230987Y-109740962D01*
X155449641Y-109887061D01*
X155659530Y-109974000D01*
X155449641Y-110060939D01*
X155230987Y-110207038D01*
X155045038Y-110392987D01*
X154898939Y-110611641D01*
X154798304Y-110854595D01*
X154747000Y-111112514D01*
X154747000Y-111338843D01*
X153684473Y-110276315D01*
X153686572Y-110255000D01*
X153686572Y-109455000D01*
X153668547Y-109271991D01*
X153615166Y-109096015D01*
X153528478Y-108933835D01*
X153411817Y-108791683D01*
X153269665Y-108675022D01*
X153107485Y-108588334D01*
X152931509Y-108534953D01*
X152748500Y-108516928D01*
X152148500Y-108516928D01*
X151965491Y-108534953D01*
X151789515Y-108588334D01*
X151627335Y-108675022D01*
X151511000Y-108770496D01*
X151394665Y-108675022D01*
X151232485Y-108588334D01*
X151056509Y-108534953D01*
X150873500Y-108516928D01*
X150273500Y-108516928D01*
X150090491Y-108534953D01*
X149914515Y-108588334D01*
X149752335Y-108675022D01*
X149610183Y-108791683D01*
X149493522Y-108933835D01*
X149420739Y-109070000D01*
X149136552Y-109070000D01*
X149097999Y-109066203D01*
X149059446Y-109070000D01*
X149059439Y-109070000D01*
X148958490Y-109079943D01*
X148944112Y-109081359D01*
X148796140Y-109126246D01*
X148659767Y-109199138D01*
X148603585Y-109245246D01*
X148570187Y-109272655D01*
X148570184Y-109272658D01*
X148540236Y-109297236D01*
X148515658Y-109327185D01*
X147813365Y-110029477D01*
X147748898Y-110002774D01*
X147548939Y-109963000D01*
X147345061Y-109963000D01*
X147145102Y-110002774D01*
X146956744Y-110080795D01*
X146787226Y-110194063D01*
X146643063Y-110338226D01*
X146597502Y-110406413D01*
X146574297Y-110363000D01*
X146622992Y-110271900D01*
X146659302Y-110152202D01*
X146671562Y-110027720D01*
X146671562Y-109428280D01*
X146659302Y-109303798D01*
X146623750Y-109186600D01*
X146771388Y-109186600D01*
X146990667Y-109142983D01*
X147197224Y-109057424D01*
X147383120Y-108933212D01*
X147541212Y-108775120D01*
X147665424Y-108589224D01*
X147750983Y-108382667D01*
X147794600Y-108163388D01*
X147794600Y-107939812D01*
X147750983Y-107720533D01*
X147665424Y-107513976D01*
X147541212Y-107328080D01*
X147383120Y-107169988D01*
X147197224Y-107045776D01*
X146990667Y-106960217D01*
X146771388Y-106916600D01*
X146547812Y-106916600D01*
X146328533Y-106960217D01*
X146325368Y-106961528D01*
X146359812Y-106847982D01*
X146372072Y-106723500D01*
X146369000Y-106409250D01*
X146210250Y-106250500D01*
X145161000Y-106250500D01*
X145161000Y-106270500D01*
X144907000Y-106270500D01*
X144907000Y-106250500D01*
X144887000Y-106250500D01*
X144887000Y-105996500D01*
X144907000Y-105996500D01*
X144907000Y-105047250D01*
X145161000Y-105047250D01*
X145161000Y-105996500D01*
X146210250Y-105996500D01*
X146369000Y-105837750D01*
X146372072Y-105523500D01*
X146359812Y-105399018D01*
X146323502Y-105279320D01*
X146264537Y-105169006D01*
X146185185Y-105072315D01*
X146088494Y-104992963D01*
X145978180Y-104933998D01*
X145858482Y-104897688D01*
X145734000Y-104885428D01*
X145319750Y-104888500D01*
X145161000Y-105047250D01*
X144907000Y-105047250D01*
X144748250Y-104888500D01*
X144334000Y-104885428D01*
X144209518Y-104897688D01*
X144089820Y-104933998D01*
X143979506Y-104992963D01*
X143882815Y-105072315D01*
X143803463Y-105169006D01*
X143744498Y-105279320D01*
X143708188Y-105399018D01*
X143695928Y-105523500D01*
X143698831Y-105820453D01*
X143345000Y-105466622D01*
X143345000Y-104398600D01*
X148360131Y-104398600D01*
X148403600Y-104402881D01*
X148447069Y-104398600D01*
X148447077Y-104398600D01*
X148577090Y-104385795D01*
X148743913Y-104335189D01*
X148897659Y-104253011D01*
X149032417Y-104142417D01*
X149060134Y-104108644D01*
X152018778Y-101150000D01*
X158023928Y-101150000D01*
X158023928Y-102850000D01*
X158036188Y-102974482D01*
X158072498Y-103094180D01*
X158131463Y-103204494D01*
X158210815Y-103301185D01*
X158307506Y-103380537D01*
X158417820Y-103439502D01*
X158537518Y-103475812D01*
X158662000Y-103488072D01*
X160362000Y-103488072D01*
X160486482Y-103475812D01*
X160606180Y-103439502D01*
X160716494Y-103380537D01*
X160813185Y-103301185D01*
X160892537Y-103204494D01*
X160951502Y-103094180D01*
X160987812Y-102974482D01*
X161000072Y-102850000D01*
X161000072Y-101150000D01*
X160987812Y-101025518D01*
X160951502Y-100905820D01*
X160892537Y-100795506D01*
X160813185Y-100698815D01*
X160716494Y-100619463D01*
X160606180Y-100560498D01*
X160525534Y-100536034D01*
X160609588Y-100460269D01*
X160783641Y-100226920D01*
X160908825Y-99964099D01*
X160953476Y-99816890D01*
X160832155Y-99587000D01*
X159639000Y-99587000D01*
X159639000Y-99607000D01*
X159385000Y-99607000D01*
X159385000Y-99587000D01*
X158191845Y-99587000D01*
X158070524Y-99816890D01*
X158115175Y-99964099D01*
X158240359Y-100226920D01*
X158414412Y-100460269D01*
X158498466Y-100536034D01*
X158417820Y-100560498D01*
X158307506Y-100619463D01*
X158210815Y-100698815D01*
X158131463Y-100795506D01*
X158072498Y-100905820D01*
X158036188Y-101025518D01*
X158023928Y-101150000D01*
X152018778Y-101150000D01*
X152080650Y-101088129D01*
X152114417Y-101060417D01*
X152142458Y-101026250D01*
X152225010Y-100925660D01*
X152225011Y-100925659D01*
X152307189Y-100771913D01*
X152357795Y-100605090D01*
X152370600Y-100475077D01*
X152370600Y-100475067D01*
X152374881Y-100431601D01*
X152370600Y-100388135D01*
X152370600Y-92568578D01*
X154754179Y-90185000D01*
X158317344Y-90185000D01*
X158358525Y-90246632D01*
X158565368Y-90453475D01*
X158739760Y-90570000D01*
X158565368Y-90686525D01*
X158358525Y-90893368D01*
X158196010Y-91136589D01*
X158084068Y-91406842D01*
X158027000Y-91693740D01*
X158027000Y-91986260D01*
X158084068Y-92273158D01*
X158196010Y-92543411D01*
X158358525Y-92786632D01*
X158565368Y-92993475D01*
X158739760Y-93110000D01*
X158565368Y-93226525D01*
X158358525Y-93433368D01*
X158196010Y-93676589D01*
X158084068Y-93946842D01*
X158027000Y-94233740D01*
X158027000Y-94526260D01*
X158084068Y-94813158D01*
X158196010Y-95083411D01*
X158358525Y-95326632D01*
X158565368Y-95533475D01*
X158739760Y-95650000D01*
X158565368Y-95766525D01*
X158358525Y-95973368D01*
X158196010Y-96216589D01*
X158084068Y-96486842D01*
X158027000Y-96773740D01*
X158027000Y-97066260D01*
X158084068Y-97353158D01*
X158196010Y-97623411D01*
X158358525Y-97866632D01*
X158565368Y-98073475D01*
X158747534Y-98195195D01*
X158630645Y-98264822D01*
X158414412Y-98459731D01*
X158240359Y-98693080D01*
X158115175Y-98955901D01*
X158070524Y-99103110D01*
X158191845Y-99333000D01*
X159385000Y-99333000D01*
X159385000Y-99313000D01*
X159639000Y-99313000D01*
X159639000Y-99333000D01*
X160832155Y-99333000D01*
X160953476Y-99103110D01*
X160908825Y-98955901D01*
X160783641Y-98693080D01*
X160609588Y-98459731D01*
X160393355Y-98264822D01*
X160276466Y-98195195D01*
X160458632Y-98073475D01*
X160665475Y-97866632D01*
X160827990Y-97623411D01*
X160939932Y-97353158D01*
X160997000Y-97066260D01*
X160997000Y-96773740D01*
X160939932Y-96486842D01*
X160827990Y-96216589D01*
X160665475Y-95973368D01*
X160458632Y-95766525D01*
X160284240Y-95650000D01*
X160458632Y-95533475D01*
X160665475Y-95326632D01*
X160827990Y-95083411D01*
X160939932Y-94813158D01*
X160997000Y-94526260D01*
X160997000Y-94233740D01*
X160939932Y-93946842D01*
X160827990Y-93676589D01*
X160665475Y-93433368D01*
X160458632Y-93226525D01*
X160284240Y-93110000D01*
X160458632Y-92993475D01*
X160665475Y-92786632D01*
X160827990Y-92543411D01*
X160939932Y-92273158D01*
X160997000Y-91986260D01*
X160997000Y-91693740D01*
X160939932Y-91406842D01*
X160827990Y-91136589D01*
X160665475Y-90893368D01*
X160458632Y-90686525D01*
X160284240Y-90570000D01*
X160458632Y-90453475D01*
X160665475Y-90246632D01*
X160827990Y-90003411D01*
X160939932Y-89733158D01*
X160997000Y-89446260D01*
X160997000Y-89153740D01*
X160939932Y-88866842D01*
X160827990Y-88596589D01*
X160665475Y-88353368D01*
X160458632Y-88146525D01*
X160215411Y-87984010D01*
X159945158Y-87872068D01*
X159658260Y-87815000D01*
X159365740Y-87815000D01*
X159078842Y-87872068D01*
X158808589Y-87984010D01*
X158565368Y-88146525D01*
X158358525Y-88353368D01*
X158317344Y-88415000D01*
X154431069Y-88415000D01*
X154387600Y-88410719D01*
X154344131Y-88415000D01*
X154344123Y-88415000D01*
X154214110Y-88427805D01*
X154047287Y-88478411D01*
X154028775Y-88488306D01*
X153893541Y-88560589D01*
X153792553Y-88643468D01*
X153792551Y-88643470D01*
X153758783Y-88671183D01*
X153731070Y-88704951D01*
X150890551Y-91545471D01*
X150856784Y-91573183D01*
X150829071Y-91606951D01*
X150829068Y-91606954D01*
X150746190Y-91707941D01*
X150664012Y-91861687D01*
X150613405Y-92028510D01*
X150596319Y-92202000D01*
X150600601Y-92245479D01*
X150600600Y-100065021D01*
X148037022Y-102628600D01*
X143345000Y-102628600D01*
X143345000Y-101694656D01*
X143406632Y-101653475D01*
X143538487Y-101521620D01*
X143560498Y-101594180D01*
X143619463Y-101704494D01*
X143698815Y-101801185D01*
X143795506Y-101880537D01*
X143905820Y-101939502D01*
X144025518Y-101975812D01*
X144150000Y-101988072D01*
X145850000Y-101988072D01*
X145974482Y-101975812D01*
X146094180Y-101939502D01*
X146204494Y-101880537D01*
X146301185Y-101801185D01*
X146380537Y-101704494D01*
X146439502Y-101594180D01*
X146475812Y-101474482D01*
X146488072Y-101350000D01*
X146488072Y-99650000D01*
X146475812Y-99525518D01*
X146439502Y-99405820D01*
X146380537Y-99295506D01*
X146301185Y-99198815D01*
X146204494Y-99119463D01*
X146135000Y-99082317D01*
X146135000Y-95627341D01*
X146140490Y-95571599D01*
X146135000Y-95515857D01*
X146135000Y-95515848D01*
X146118577Y-95349101D01*
X146053676Y-95135153D01*
X145948284Y-94937977D01*
X145806449Y-94765151D01*
X145763135Y-94729604D01*
X145407000Y-94373469D01*
X145407000Y-92885430D01*
X145603242Y-92885430D01*
X145843366Y-92861780D01*
X146151469Y-92768318D01*
X146435417Y-92616544D01*
X146684301Y-92412291D01*
X146888554Y-92163407D01*
X147040328Y-91879459D01*
X147133790Y-91571356D01*
X147165348Y-91250940D01*
X147133790Y-90930524D01*
X147040328Y-90622421D01*
X146888554Y-90338473D01*
X146684301Y-90089589D01*
X146435417Y-89885336D01*
X146151469Y-89733562D01*
X145843366Y-89640100D01*
X145603242Y-89616450D01*
X145407000Y-89616450D01*
X145407000Y-89307201D01*
X145412491Y-89251449D01*
X145390577Y-89028951D01*
X145325676Y-88815003D01*
X145281483Y-88732324D01*
X145220284Y-88617827D01*
X145078449Y-88445001D01*
X145035141Y-88409459D01*
X143509092Y-86883410D01*
X144145000Y-86883410D01*
X144145000Y-85375920D01*
X144399000Y-85375920D01*
X144399000Y-86883410D01*
X145399760Y-86883410D01*
X145716193Y-86827227D01*
X146015585Y-86710391D01*
X146286431Y-86537391D01*
X146518322Y-86314876D01*
X146702347Y-86051397D01*
X146831433Y-85757079D01*
X146862379Y-85629274D01*
X146743025Y-85375920D01*
X144399000Y-85375920D01*
X144145000Y-85375920D01*
X144125000Y-85375920D01*
X144125000Y-85121920D01*
X144145000Y-85121920D01*
X144145000Y-83614430D01*
X144399000Y-83614430D01*
X144399000Y-85121920D01*
X146743025Y-85121920D01*
X146862379Y-84868566D01*
X146831433Y-84740761D01*
X146702347Y-84446443D01*
X146518322Y-84182964D01*
X146286431Y-83960449D01*
X146015585Y-83787449D01*
X145996169Y-83779872D01*
X163765000Y-83779872D01*
X163765000Y-84220128D01*
X163850890Y-84651925D01*
X164019369Y-85058669D01*
X164263962Y-85424729D01*
X164575271Y-85736038D01*
X164941331Y-85980631D01*
X165348075Y-86149110D01*
X165779872Y-86235000D01*
X166220128Y-86235000D01*
X166651925Y-86149110D01*
X167058669Y-85980631D01*
X167424729Y-85736038D01*
X167736038Y-85424729D01*
X167980631Y-85058669D01*
X168149110Y-84651925D01*
X168235000Y-84220128D01*
X168235000Y-83779872D01*
X168149110Y-83348075D01*
X167980631Y-82941331D01*
X167736038Y-82575271D01*
X167424729Y-82263962D01*
X167058669Y-82019369D01*
X166651925Y-81850890D01*
X166220128Y-81765000D01*
X165779872Y-81765000D01*
X165348075Y-81850890D01*
X164941331Y-82019369D01*
X164575271Y-82263962D01*
X164263962Y-82575271D01*
X164019369Y-82941331D01*
X163850890Y-83348075D01*
X163765000Y-83779872D01*
X145996169Y-83779872D01*
X145716193Y-83670613D01*
X145399760Y-83614430D01*
X144399000Y-83614430D01*
X144145000Y-83614430D01*
X143144240Y-83614430D01*
X142827807Y-83670613D01*
X142528415Y-83787449D01*
X142257569Y-83960449D01*
X142025678Y-84182964D01*
X141841653Y-84446443D01*
X141712567Y-84740761D01*
X141681621Y-84868566D01*
X141800974Y-85121918D01*
X141747599Y-85121918D01*
X140952546Y-84326865D01*
X140916999Y-84283551D01*
X140744173Y-84141716D01*
X140546997Y-84036324D01*
X140333049Y-83971423D01*
X140166302Y-83955000D01*
X140166301Y-83955000D01*
X140110550Y-83949509D01*
X140054799Y-83955000D01*
X132735683Y-83955000D01*
X132698537Y-83885506D01*
X132619185Y-83788815D01*
X132522494Y-83709463D01*
X132412180Y-83650498D01*
X132292482Y-83614188D01*
X132168000Y-83601928D01*
X131435060Y-83601928D01*
X130609995Y-82776864D01*
X130574448Y-82733550D01*
X130401622Y-82591715D01*
X130204446Y-82486323D01*
X129990498Y-82421422D01*
X129823751Y-82404999D01*
X129823750Y-82404999D01*
X129767999Y-82399508D01*
X129712248Y-82404999D01*
X123757034Y-82404999D01*
X123701282Y-82399508D01*
X123478783Y-82421422D01*
X123469494Y-82424240D01*
X123264836Y-82486323D01*
X123067660Y-82591715D01*
X122894834Y-82733550D01*
X122859292Y-82776858D01*
X115939654Y-89696497D01*
X115896340Y-89732044D01*
X115754505Y-89904870D01*
X115672711Y-90057898D01*
X115649113Y-90102047D01*
X115584212Y-90315995D01*
X115562298Y-90538493D01*
X115567789Y-90594245D01*
X115567790Y-93708146D01*
X115562298Y-93763907D01*
X115584212Y-93986405D01*
X115649113Y-94200353D01*
X115666959Y-94233740D01*
X115754506Y-94397530D01*
X115896341Y-94570356D01*
X115939649Y-94605898D01*
X117727891Y-96394141D01*
X117763433Y-96437449D01*
X117936259Y-96579284D01*
X118133435Y-96684676D01*
X118347383Y-96749577D01*
X118514130Y-96766000D01*
X118514139Y-96766000D01*
X118569881Y-96771490D01*
X118625623Y-96766000D01*
X118856272Y-96766000D01*
X118810506Y-96790463D01*
X118713815Y-96869815D01*
X118634463Y-96966506D01*
X118575498Y-97076820D01*
X118539188Y-97196518D01*
X118526928Y-97321000D01*
X118526928Y-99021000D01*
X118539188Y-99145482D01*
X118575498Y-99265180D01*
X118634463Y-99375494D01*
X118713815Y-99472185D01*
X118810506Y-99551537D01*
X118920820Y-99610502D01*
X119040518Y-99646812D01*
X119165000Y-99659072D01*
X120865000Y-99659072D01*
X120989482Y-99646812D01*
X121109180Y-99610502D01*
X121219494Y-99551537D01*
X121316185Y-99472185D01*
X121395537Y-99375494D01*
X121454502Y-99265180D01*
X121490812Y-99145482D01*
X121503072Y-99021000D01*
X121503072Y-97321000D01*
X121490812Y-97196518D01*
X121454502Y-97076820D01*
X121395537Y-96966506D01*
X121316185Y-96869815D01*
X121219494Y-96790463D01*
X121109180Y-96731498D01*
X121036620Y-96709487D01*
X121168475Y-96577632D01*
X121330990Y-96334411D01*
X121442932Y-96064158D01*
X121500000Y-95777260D01*
X121500000Y-95484740D01*
X121442932Y-95197842D01*
X121330990Y-94927589D01*
X121168475Y-94684368D01*
X120961632Y-94477525D01*
X120779466Y-94355805D01*
X120896355Y-94286178D01*
X121112588Y-94091269D01*
X121286641Y-93857920D01*
X121411825Y-93595099D01*
X121456476Y-93447890D01*
X121335155Y-93218000D01*
X120142000Y-93218000D01*
X120142000Y-93238000D01*
X119888000Y-93238000D01*
X119888000Y-93218000D01*
X118694845Y-93218000D01*
X118573524Y-93447890D01*
X118618175Y-93595099D01*
X118743359Y-93857920D01*
X118917412Y-94091269D01*
X119133645Y-94286178D01*
X119250534Y-94355805D01*
X119068368Y-94477525D01*
X119049893Y-94496000D01*
X119040014Y-94496000D01*
X117837789Y-93293776D01*
X117837789Y-91008624D01*
X118551932Y-90294481D01*
X118530000Y-90404740D01*
X118530000Y-90697260D01*
X118587068Y-90984158D01*
X118699010Y-91254411D01*
X118861525Y-91497632D01*
X119068368Y-91704475D01*
X119250534Y-91826195D01*
X119133645Y-91895822D01*
X118917412Y-92090731D01*
X118743359Y-92324080D01*
X118618175Y-92586901D01*
X118573524Y-92734110D01*
X118694845Y-92964000D01*
X119888000Y-92964000D01*
X119888000Y-92944000D01*
X120142000Y-92944000D01*
X120142000Y-92964000D01*
X121335155Y-92964000D01*
X121456476Y-92734110D01*
X121411825Y-92586901D01*
X121286641Y-92324080D01*
X121112588Y-92090731D01*
X120896355Y-91895822D01*
X120779466Y-91826195D01*
X120961632Y-91704475D01*
X121168475Y-91497632D01*
X121209656Y-91436000D01*
X124238517Y-91436000D01*
X124186498Y-91533320D01*
X124150188Y-91653018D01*
X124137928Y-91777500D01*
X124141000Y-92091750D01*
X124299750Y-92250500D01*
X125349000Y-92250500D01*
X125349000Y-92230500D01*
X125603000Y-92230500D01*
X125603000Y-92250500D01*
X125623000Y-92250500D01*
X125623000Y-92504500D01*
X125603000Y-92504500D01*
X125603000Y-92524500D01*
X125349000Y-92524500D01*
X125349000Y-92504500D01*
X124299750Y-92504500D01*
X124141000Y-92663250D01*
X124137928Y-92977500D01*
X124150188Y-93101982D01*
X124186498Y-93221680D01*
X124245463Y-93331994D01*
X124324815Y-93428685D01*
X124421506Y-93508037D01*
X124531820Y-93567002D01*
X124651518Y-93603312D01*
X124776000Y-93615572D01*
X125190250Y-93612500D01*
X125348998Y-93453752D01*
X125348998Y-93612500D01*
X125470578Y-93612500D01*
X124636545Y-94446534D01*
X124602772Y-94474251D01*
X124492178Y-94609010D01*
X124410000Y-94762756D01*
X124385476Y-94843600D01*
X124359998Y-94927589D01*
X124359394Y-94929579D01*
X124346589Y-95059592D01*
X124346589Y-95059599D01*
X124342308Y-95103068D01*
X124346589Y-95146537D01*
X124346590Y-100585852D01*
X124342308Y-100629331D01*
X124359394Y-100802821D01*
X124410001Y-100969644D01*
X124492179Y-101123390D01*
X124575057Y-101224377D01*
X124575060Y-101224380D01*
X124602773Y-101258148D01*
X124636540Y-101285860D01*
X126223679Y-102873000D01*
X100660000Y-102873000D01*
X100660000Y-83779872D01*
X101765000Y-83779872D01*
X101765000Y-84220128D01*
X101850890Y-84651925D01*
X102019369Y-85058669D01*
X102263962Y-85424729D01*
X102575271Y-85736038D01*
X102941331Y-85980631D01*
X103348075Y-86149110D01*
X103779872Y-86235000D01*
X104220128Y-86235000D01*
X104651925Y-86149110D01*
X105058669Y-85980631D01*
X105424729Y-85736038D01*
X105736038Y-85424729D01*
X105980631Y-85058669D01*
X106149110Y-84651925D01*
X106235000Y-84220128D01*
X106235000Y-83779872D01*
X106149110Y-83348075D01*
X105980631Y-82941331D01*
X105736038Y-82575271D01*
X105424729Y-82263962D01*
X105058669Y-82019369D01*
X104651925Y-81850890D01*
X104220128Y-81765000D01*
X103779872Y-81765000D01*
X103348075Y-81850890D01*
X102941331Y-82019369D01*
X102575271Y-82263962D01*
X102263962Y-82575271D01*
X102019369Y-82941331D01*
X101850890Y-83348075D01*
X101765000Y-83779872D01*
X100660000Y-83779872D01*
X100660000Y-82032279D01*
X100688625Y-81740341D01*
X100764035Y-81490571D01*
X100886522Y-81260208D01*
X101051422Y-81058020D01*
X101252450Y-80891714D01*
X101481954Y-80767622D01*
X101731195Y-80690469D01*
X102021088Y-80660000D01*
X167967721Y-80660000D01*
X168259659Y-80688625D01*
G37*
X168259659Y-80688625D02*
X168509429Y-80764035D01*
X168739792Y-80886522D01*
X168941980Y-81051422D01*
X169108286Y-81252450D01*
X169232378Y-81481954D01*
X169309531Y-81731195D01*
X169340000Y-82021088D01*
X169340000Y-104061207D01*
X169213618Y-103934825D01*
X168904882Y-103728534D01*
X168561834Y-103586439D01*
X168197656Y-103514000D01*
X167826344Y-103514000D01*
X167462166Y-103586439D01*
X167119118Y-103728534D01*
X166810382Y-103934825D01*
X166547825Y-104197382D01*
X166341534Y-104506118D01*
X166199439Y-104849166D01*
X166127000Y-105213344D01*
X166127000Y-105494350D01*
X166032511Y-105431214D01*
X165621218Y-105260851D01*
X165184591Y-105174000D01*
X164739409Y-105174000D01*
X164302782Y-105260851D01*
X163891489Y-105431214D01*
X163797000Y-105494350D01*
X163797000Y-105213344D01*
X163724561Y-104849166D01*
X163582466Y-104506118D01*
X163376175Y-104197382D01*
X163113618Y-103934825D01*
X162804882Y-103728534D01*
X162461834Y-103586439D01*
X162097656Y-103514000D01*
X161726344Y-103514000D01*
X161362166Y-103586439D01*
X161019118Y-103728534D01*
X160710382Y-103934825D01*
X160447825Y-104197382D01*
X160241534Y-104506118D01*
X160099439Y-104849166D01*
X160027000Y-105213344D01*
X160027000Y-105584656D01*
X160099439Y-105948834D01*
X160241534Y-106291882D01*
X160447825Y-106600618D01*
X160710382Y-106863175D01*
X161019118Y-107069466D01*
X161362166Y-107211561D01*
X161726344Y-107284000D01*
X162097656Y-107284000D01*
X162461834Y-107211561D01*
X162723532Y-107103162D01*
X162702000Y-107211409D01*
X162702000Y-107656591D01*
X162788851Y-108093218D01*
X162959214Y-108504511D01*
X163206544Y-108874666D01*
X163521334Y-109189456D01*
X163891489Y-109436786D01*
X164302782Y-109607149D01*
X164739409Y-109694000D01*
X165184591Y-109694000D01*
X165621218Y-109607149D01*
X166032511Y-109436786D01*
X166402666Y-109189456D01*
X166717456Y-108874666D01*
X166964786Y-108504511D01*
X167135149Y-108093218D01*
X167222000Y-107656591D01*
X167222000Y-107211409D01*
X167200468Y-107103162D01*
X167462166Y-107211561D01*
X167826344Y-107284000D01*
X168197656Y-107284000D01*
X168561834Y-107211561D01*
X168904882Y-107069466D01*
X169213618Y-106863175D01*
X169340001Y-106736792D01*
X169340001Y-119561208D01*
X169213618Y-119434825D01*
X168904882Y-119228534D01*
X168561834Y-119086439D01*
X168197656Y-119014000D01*
X167826344Y-119014000D01*
X167462166Y-119086439D01*
X167200468Y-119194838D01*
X167222000Y-119086591D01*
X167222000Y-118641409D01*
X167135149Y-118204782D01*
X166964786Y-117793489D01*
X166717456Y-117423334D01*
X166402666Y-117108544D01*
X166032511Y-116861214D01*
X165621218Y-116690851D01*
X165184591Y-116604000D01*
X164739409Y-116604000D01*
X164302782Y-116690851D01*
X163891489Y-116861214D01*
X163521334Y-117108544D01*
X163206544Y-117423334D01*
X162959214Y-117793489D01*
X162788851Y-118204782D01*
X162702000Y-118641409D01*
X162702000Y-119086591D01*
X162723532Y-119194838D01*
X162461834Y-119086439D01*
X162097656Y-119014000D01*
X161726344Y-119014000D01*
X161362166Y-119086439D01*
X161019118Y-119228534D01*
X160710382Y-119434825D01*
X160447825Y-119697382D01*
X160241534Y-120006118D01*
X160099439Y-120349166D01*
X160027000Y-120713344D01*
X160027000Y-121084656D01*
X160099439Y-121448834D01*
X160241534Y-121791882D01*
X160447825Y-122100618D01*
X160710382Y-122363175D01*
X161019118Y-122569466D01*
X161362166Y-122711561D01*
X161726344Y-122784000D01*
X162097656Y-122784000D01*
X162461834Y-122711561D01*
X162804882Y-122569466D01*
X163113618Y-122363175D01*
X163376175Y-122100618D01*
X163582466Y-121791882D01*
X163724561Y-121448834D01*
X163797000Y-121084656D01*
X163797000Y-120803650D01*
X163891489Y-120866786D01*
X164302782Y-121037149D01*
X164739409Y-121124000D01*
X165184591Y-121124000D01*
X165621218Y-121037149D01*
X166032511Y-120866786D01*
X166127000Y-120803650D01*
X166127000Y-121084656D01*
X166199439Y-121448834D01*
X166341534Y-121791882D01*
X166547825Y-122100618D01*
X166810382Y-122363175D01*
X167119118Y-122569466D01*
X167462166Y-122711561D01*
X167826344Y-122784000D01*
X168197656Y-122784000D01*
X168561834Y-122711561D01*
X168904882Y-122569466D01*
X169213618Y-122363175D01*
X169340001Y-122236792D01*
X169340001Y-127967711D01*
X169311375Y-128259660D01*
X169235965Y-128509429D01*
X169113477Y-128739794D01*
X168948579Y-128941979D01*
X168747546Y-129108288D01*
X168518046Y-129232378D01*
X168268805Y-129309531D01*
X167978911Y-129340000D01*
X130627000Y-129340000D01*
X130627000Y-120459557D01*
X131599257Y-121431815D01*
X131623836Y-121461764D01*
X131653784Y-121486342D01*
X131653787Y-121486345D01*
X131683159Y-121510450D01*
X131743367Y-121559862D01*
X131879740Y-121632754D01*
X132027712Y-121677641D01*
X132042090Y-121679057D01*
X132143039Y-121689000D01*
X132143046Y-121689000D01*
X132181599Y-121692797D01*
X132220152Y-121689000D01*
X133291739Y-121689000D01*
X133364522Y-121825165D01*
X133481183Y-121967317D01*
X133623335Y-122083978D01*
X133659500Y-122103309D01*
X133659500Y-122315547D01*
X133655703Y-122354100D01*
X133659500Y-122392653D01*
X133659500Y-122392660D01*
X133670859Y-122507986D01*
X133715746Y-122655959D01*
X133788638Y-122792332D01*
X133886736Y-122911864D01*
X133916689Y-122936446D01*
X134492742Y-123512500D01*
X131221829Y-123512500D01*
X131221829Y-128082500D01*
X149498972Y-128082500D01*
X149498972Y-125779872D01*
X163765000Y-125779872D01*
X163765000Y-126220128D01*
X163850890Y-126651925D01*
X164019369Y-127058669D01*
X164263962Y-127424729D01*
X164575271Y-127736038D01*
X164941331Y-127980631D01*
X165348075Y-128149110D01*
X165779872Y-128235000D01*
X166220128Y-128235000D01*
X166651925Y-128149110D01*
X167058669Y-127980631D01*
X167424729Y-127736038D01*
X167736038Y-127424729D01*
X167980631Y-127058669D01*
X168149110Y-126651925D01*
X168235000Y-126220128D01*
X168235000Y-125779872D01*
X168149110Y-125348075D01*
X167980631Y-124941331D01*
X167736038Y-124575271D01*
X167424729Y-124263962D01*
X167058669Y-124019369D01*
X166651925Y-123850890D01*
X166220128Y-123765000D01*
X165779872Y-123765000D01*
X165348075Y-123850890D01*
X164941331Y-124019369D01*
X164575271Y-124263962D01*
X164263962Y-124575271D01*
X164019369Y-124941331D01*
X163850890Y-125348075D01*
X163765000Y-125779872D01*
X149498972Y-125779872D01*
X149498972Y-123512500D01*
X146024857Y-123512500D01*
X148991358Y-120546000D01*
X149420739Y-120546000D01*
X149493522Y-120682165D01*
X149610183Y-120824317D01*
X149752335Y-120940978D01*
X149914515Y-121027666D01*
X150090491Y-121081047D01*
X150273500Y-121099072D01*
X150873500Y-121099072D01*
X151056509Y-121081047D01*
X151232485Y-121027666D01*
X151394665Y-120940978D01*
X151511000Y-120845504D01*
X151627335Y-120940978D01*
X151789515Y-121027666D01*
X151965491Y-121081047D01*
X152148500Y-121099072D01*
X152748500Y-121099072D01*
X152931509Y-121081047D01*
X153107485Y-121027666D01*
X153269665Y-120940978D01*
X153411817Y-120824317D01*
X153528478Y-120682165D01*
X153601261Y-120546000D01*
X154571247Y-120546000D01*
X154609800Y-120549797D01*
X154648353Y-120546000D01*
X154648361Y-120546000D01*
X154763687Y-120534641D01*
X154911660Y-120489754D01*
X155048033Y-120416862D01*
X155167564Y-120318764D01*
X155192147Y-120288810D01*
X156609817Y-118871141D01*
X156639764Y-118846564D01*
X156737862Y-118727033D01*
X156810754Y-118590660D01*
X156829465Y-118528978D01*
X156855641Y-118442688D01*
X156858632Y-118412317D01*
X156867000Y-118327361D01*
X156867000Y-118327354D01*
X156870797Y-118288801D01*
X156867000Y-118250248D01*
X156867000Y-117462514D01*
X157287000Y-117462514D01*
X157287000Y-117725486D01*
X157338304Y-117983405D01*
X157438939Y-118226359D01*
X157585038Y-118445013D01*
X157770987Y-118630962D01*
X157989641Y-118777061D01*
X158232595Y-118877696D01*
X158490514Y-118929000D01*
X158753486Y-118929000D01*
X159011405Y-118877696D01*
X159254359Y-118777061D01*
X159473013Y-118630962D01*
X159658962Y-118445013D01*
X159805061Y-118226359D01*
X159905696Y-117983405D01*
X159957000Y-117725486D01*
X159957000Y-117462514D01*
X159905696Y-117204595D01*
X159805061Y-116961641D01*
X159658962Y-116742987D01*
X159473013Y-116557038D01*
X159254359Y-116410939D01*
X159040556Y-116322379D01*
X159203366Y-116262935D01*
X159304203Y-116209037D01*
X159363664Y-115975269D01*
X158622000Y-115233605D01*
X157880336Y-115975269D01*
X157939797Y-116209037D01*
X158178242Y-116319934D01*
X158197827Y-116324706D01*
X157989641Y-116410939D01*
X157770987Y-116557038D01*
X157585038Y-116742987D01*
X157438939Y-116961641D01*
X157338304Y-117204595D01*
X157287000Y-117462514D01*
X156867000Y-117462514D01*
X156867000Y-117405070D01*
X156933013Y-117360962D01*
X157118962Y-117175013D01*
X157265061Y-116956359D01*
X157365696Y-116713405D01*
X157417000Y-116455486D01*
X157417000Y-116192514D01*
X157365696Y-115934595D01*
X157265061Y-115691641D01*
X157118962Y-115472987D01*
X157085532Y-115439557D01*
X157143765Y-115391765D01*
X157168348Y-115361811D01*
X157298585Y-115231574D01*
X157322875Y-115388344D01*
X157413065Y-115635366D01*
X157466963Y-115736203D01*
X157700731Y-115795664D01*
X158442395Y-115054000D01*
X158801605Y-115054000D01*
X159543269Y-115795664D01*
X159777037Y-115736203D01*
X159887934Y-115497758D01*
X159950183Y-115242260D01*
X159961390Y-114979527D01*
X159921125Y-114719656D01*
X159830935Y-114472634D01*
X159777037Y-114371797D01*
X159543269Y-114312336D01*
X158801605Y-115054000D01*
X158442395Y-115054000D01*
X158428253Y-115039858D01*
X158607858Y-114860253D01*
X158622000Y-114874395D01*
X159363664Y-114132731D01*
X159304203Y-113898963D01*
X159065758Y-113788066D01*
X159041299Y-113782107D01*
X159203366Y-113722935D01*
X159304203Y-113669037D01*
X159363664Y-113435269D01*
X158622000Y-112693605D01*
X158607858Y-112707748D01*
X158428253Y-112528143D01*
X158442395Y-112514000D01*
X158801605Y-112514000D01*
X159543269Y-113255664D01*
X159777037Y-113196203D01*
X159887934Y-112957758D01*
X159950183Y-112702260D01*
X159961390Y-112439527D01*
X159921125Y-112179656D01*
X159830935Y-111932634D01*
X159777037Y-111831797D01*
X159543269Y-111772336D01*
X158801605Y-112514000D01*
X158442395Y-112514000D01*
X158428253Y-112499858D01*
X158607858Y-112320253D01*
X158622000Y-112334395D01*
X159363664Y-111592731D01*
X159304203Y-111358963D01*
X159065758Y-111248066D01*
X159046173Y-111243294D01*
X159254359Y-111157061D01*
X159473013Y-111010962D01*
X159658962Y-110825013D01*
X159805061Y-110606359D01*
X159905696Y-110363405D01*
X159957000Y-110105486D01*
X159957000Y-109842514D01*
X159905696Y-109584595D01*
X159805061Y-109341641D01*
X159658962Y-109122987D01*
X159473013Y-108937038D01*
X159407000Y-108892930D01*
X159407000Y-108368556D01*
X159410797Y-108330000D01*
X159407000Y-108291440D01*
X159407000Y-108291439D01*
X159400465Y-108225090D01*
X159395642Y-108176113D01*
X159350754Y-108028140D01*
X159311673Y-107955024D01*
X159277862Y-107891767D01*
X159179764Y-107772236D01*
X159149811Y-107747654D01*
X156385400Y-104983243D01*
X156385400Y-104209111D01*
X156404337Y-104190174D01*
X156517605Y-104020656D01*
X156595626Y-103832298D01*
X156635400Y-103632339D01*
X156635400Y-103428461D01*
X156595626Y-103228502D01*
X156517605Y-103040144D01*
X156404337Y-102870626D01*
X156260174Y-102726463D01*
X156090656Y-102613195D01*
X155902298Y-102535174D01*
X155702339Y-102495400D01*
X155498461Y-102495400D01*
X155298502Y-102535174D01*
X155110144Y-102613195D01*
X154940626Y-102726463D01*
X154796463Y-102870626D01*
X154683195Y-103040144D01*
X154605174Y-103228502D01*
X154565400Y-103428461D01*
X154565400Y-103632339D01*
X154605174Y-103832298D01*
X154683195Y-104020656D01*
X154796463Y-104190174D01*
X154815400Y-104209111D01*
X154815401Y-105269838D01*
X154811603Y-105308400D01*
X154826759Y-105462286D01*
X154871646Y-105610259D01*
X154898078Y-105659710D01*
X154944539Y-105746633D01*
X154985090Y-105796044D01*
X155018055Y-105836212D01*
X155018059Y-105836216D01*
X155042637Y-105866164D01*
X155072585Y-105890742D01*
X156694596Y-107512753D01*
X156471405Y-107420304D01*
X156213486Y-107369000D01*
X155950514Y-107369000D01*
X155692595Y-107420304D01*
X155449641Y-107520939D01*
X155230987Y-107667038D01*
X155045038Y-107852987D01*
X154898939Y-108071641D01*
X154798304Y-108314595D01*
X154747000Y-108572514D01*
X154747000Y-108835486D01*
X154798304Y-109093405D01*
X154898939Y-109336359D01*
X155045038Y-109555013D01*
X155230987Y-109740962D01*
X155449641Y-109887061D01*
X155659530Y-109974000D01*
X155449641Y-110060939D01*
X155230987Y-110207038D01*
X155045038Y-110392987D01*
X154898939Y-110611641D01*
X154798304Y-110854595D01*
X154747000Y-111112514D01*
X154747000Y-111338843D01*
X153684473Y-110276315D01*
X153686572Y-110255000D01*
X153686572Y-109455000D01*
X153668547Y-109271991D01*
X153615166Y-109096015D01*
X153528478Y-108933835D01*
X153411817Y-108791683D01*
X153269665Y-108675022D01*
X153107485Y-108588334D01*
X152931509Y-108534953D01*
X152748500Y-108516928D01*
X152148500Y-108516928D01*
X151965491Y-108534953D01*
X151789515Y-108588334D01*
X151627335Y-108675022D01*
X151511000Y-108770496D01*
X151394665Y-108675022D01*
X151232485Y-108588334D01*
X151056509Y-108534953D01*
X150873500Y-108516928D01*
X150273500Y-108516928D01*
X150090491Y-108534953D01*
X149914515Y-108588334D01*
X149752335Y-108675022D01*
X149610183Y-108791683D01*
X149493522Y-108933835D01*
X149420739Y-109070000D01*
X149136552Y-109070000D01*
X149097999Y-109066203D01*
X149059446Y-109070000D01*
X149059439Y-109070000D01*
X148958490Y-109079943D01*
X148944112Y-109081359D01*
X148796140Y-109126246D01*
X148659767Y-109199138D01*
X148603585Y-109245246D01*
X148570187Y-109272655D01*
X148570184Y-109272658D01*
X148540236Y-109297236D01*
X148515658Y-109327185D01*
X147813365Y-110029477D01*
X147748898Y-110002774D01*
X147548939Y-109963000D01*
X147345061Y-109963000D01*
X147145102Y-110002774D01*
X146956744Y-110080795D01*
X146787226Y-110194063D01*
X146643063Y-110338226D01*
X146597502Y-110406413D01*
X146574297Y-110363000D01*
X146622992Y-110271900D01*
X146659302Y-110152202D01*
X146671562Y-110027720D01*
X146671562Y-109428280D01*
X146659302Y-109303798D01*
X146623750Y-109186600D01*
X146771388Y-109186600D01*
X146990667Y-109142983D01*
X147197224Y-109057424D01*
X147383120Y-108933212D01*
X147541212Y-108775120D01*
X147665424Y-108589224D01*
X147750983Y-108382667D01*
X147794600Y-108163388D01*
X147794600Y-107939812D01*
X147750983Y-107720533D01*
X147665424Y-107513976D01*
X147541212Y-107328080D01*
X147383120Y-107169988D01*
X147197224Y-107045776D01*
X146990667Y-106960217D01*
X146771388Y-106916600D01*
X146547812Y-106916600D01*
X146328533Y-106960217D01*
X146325368Y-106961528D01*
X146359812Y-106847982D01*
X146372072Y-106723500D01*
X146369000Y-106409250D01*
X146210250Y-106250500D01*
X145161000Y-106250500D01*
X145161000Y-106270500D01*
X144907000Y-106270500D01*
X144907000Y-106250500D01*
X144887000Y-106250500D01*
X144887000Y-105996500D01*
X144907000Y-105996500D01*
X144907000Y-105047250D01*
X145161000Y-105047250D01*
X145161000Y-105996500D01*
X146210250Y-105996500D01*
X146369000Y-105837750D01*
X146372072Y-105523500D01*
X146359812Y-105399018D01*
X146323502Y-105279320D01*
X146264537Y-105169006D01*
X146185185Y-105072315D01*
X146088494Y-104992963D01*
X145978180Y-104933998D01*
X145858482Y-104897688D01*
X145734000Y-104885428D01*
X145319750Y-104888500D01*
X145161000Y-105047250D01*
X144907000Y-105047250D01*
X144748250Y-104888500D01*
X144334000Y-104885428D01*
X144209518Y-104897688D01*
X144089820Y-104933998D01*
X143979506Y-104992963D01*
X143882815Y-105072315D01*
X143803463Y-105169006D01*
X143744498Y-105279320D01*
X143708188Y-105399018D01*
X143695928Y-105523500D01*
X143698831Y-105820453D01*
X143345000Y-105466622D01*
X143345000Y-104398600D01*
X148360131Y-104398600D01*
X148403600Y-104402881D01*
X148447069Y-104398600D01*
X148447077Y-104398600D01*
X148577090Y-104385795D01*
X148743913Y-104335189D01*
X148897659Y-104253011D01*
X149032417Y-104142417D01*
X149060134Y-104108644D01*
X152018778Y-101150000D01*
X158023928Y-101150000D01*
X158023928Y-102850000D01*
X158036188Y-102974482D01*
X158072498Y-103094180D01*
X158131463Y-103204494D01*
X158210815Y-103301185D01*
X158307506Y-103380537D01*
X158417820Y-103439502D01*
X158537518Y-103475812D01*
X158662000Y-103488072D01*
X160362000Y-103488072D01*
X160486482Y-103475812D01*
X160606180Y-103439502D01*
X160716494Y-103380537D01*
X160813185Y-103301185D01*
X160892537Y-103204494D01*
X160951502Y-103094180D01*
X160987812Y-102974482D01*
X161000072Y-102850000D01*
X161000072Y-101150000D01*
X160987812Y-101025518D01*
X160951502Y-100905820D01*
X160892537Y-100795506D01*
X160813185Y-100698815D01*
X160716494Y-100619463D01*
X160606180Y-100560498D01*
X160525534Y-100536034D01*
X160609588Y-100460269D01*
X160783641Y-100226920D01*
X160908825Y-99964099D01*
X160953476Y-99816890D01*
X160832155Y-99587000D01*
X159639000Y-99587000D01*
X159639000Y-99607000D01*
X159385000Y-99607000D01*
X159385000Y-99587000D01*
X158191845Y-99587000D01*
X158070524Y-99816890D01*
X158115175Y-99964099D01*
X158240359Y-100226920D01*
X158414412Y-100460269D01*
X158498466Y-100536034D01*
X158417820Y-100560498D01*
X158307506Y-100619463D01*
X158210815Y-100698815D01*
X158131463Y-100795506D01*
X158072498Y-100905820D01*
X158036188Y-101025518D01*
X158023928Y-101150000D01*
X152018778Y-101150000D01*
X152080650Y-101088129D01*
X152114417Y-101060417D01*
X152142458Y-101026250D01*
X152225010Y-100925660D01*
X152225011Y-100925659D01*
X152307189Y-100771913D01*
X152357795Y-100605090D01*
X152370600Y-100475077D01*
X152370600Y-100475067D01*
X152374881Y-100431601D01*
X152370600Y-100388135D01*
X152370600Y-92568578D01*
X154754179Y-90185000D01*
X158317344Y-90185000D01*
X158358525Y-90246632D01*
X158565368Y-90453475D01*
X158739760Y-90570000D01*
X158565368Y-90686525D01*
X158358525Y-90893368D01*
X158196010Y-91136589D01*
X158084068Y-91406842D01*
X158027000Y-91693740D01*
X158027000Y-91986260D01*
X158084068Y-92273158D01*
X158196010Y-92543411D01*
X158358525Y-92786632D01*
X158565368Y-92993475D01*
X158739760Y-93110000D01*
X158565368Y-93226525D01*
X158358525Y-93433368D01*
X158196010Y-93676589D01*
X158084068Y-93946842D01*
X158027000Y-94233740D01*
X158027000Y-94526260D01*
X158084068Y-94813158D01*
X158196010Y-95083411D01*
X158358525Y-95326632D01*
X158565368Y-95533475D01*
X158739760Y-95650000D01*
X158565368Y-95766525D01*
X158358525Y-95973368D01*
X158196010Y-96216589D01*
X158084068Y-96486842D01*
X158027000Y-96773740D01*
X158027000Y-97066260D01*
X158084068Y-97353158D01*
X158196010Y-97623411D01*
X158358525Y-97866632D01*
X158565368Y-98073475D01*
X158747534Y-98195195D01*
X158630645Y-98264822D01*
X158414412Y-98459731D01*
X158240359Y-98693080D01*
X158115175Y-98955901D01*
X158070524Y-99103110D01*
X158191845Y-99333000D01*
X159385000Y-99333000D01*
X159385000Y-99313000D01*
X159639000Y-99313000D01*
X159639000Y-99333000D01*
X160832155Y-99333000D01*
X160953476Y-99103110D01*
X160908825Y-98955901D01*
X160783641Y-98693080D01*
X160609588Y-98459731D01*
X160393355Y-98264822D01*
X160276466Y-98195195D01*
X160458632Y-98073475D01*
X160665475Y-97866632D01*
X160827990Y-97623411D01*
X160939932Y-97353158D01*
X160997000Y-97066260D01*
X160997000Y-96773740D01*
X160939932Y-96486842D01*
X160827990Y-96216589D01*
X160665475Y-95973368D01*
X160458632Y-95766525D01*
X160284240Y-95650000D01*
X160458632Y-95533475D01*
X160665475Y-95326632D01*
X160827990Y-95083411D01*
X160939932Y-94813158D01*
X160997000Y-94526260D01*
X160997000Y-94233740D01*
X160939932Y-93946842D01*
X160827990Y-93676589D01*
X160665475Y-93433368D01*
X160458632Y-93226525D01*
X160284240Y-93110000D01*
X160458632Y-92993475D01*
X160665475Y-92786632D01*
X160827990Y-92543411D01*
X160939932Y-92273158D01*
X160997000Y-91986260D01*
X160997000Y-91693740D01*
X160939932Y-91406842D01*
X160827990Y-91136589D01*
X160665475Y-90893368D01*
X160458632Y-90686525D01*
X160284240Y-90570000D01*
X160458632Y-90453475D01*
X160665475Y-90246632D01*
X160827990Y-90003411D01*
X160939932Y-89733158D01*
X160997000Y-89446260D01*
X160997000Y-89153740D01*
X160939932Y-88866842D01*
X160827990Y-88596589D01*
X160665475Y-88353368D01*
X160458632Y-88146525D01*
X160215411Y-87984010D01*
X159945158Y-87872068D01*
X159658260Y-87815000D01*
X159365740Y-87815000D01*
X159078842Y-87872068D01*
X158808589Y-87984010D01*
X158565368Y-88146525D01*
X158358525Y-88353368D01*
X158317344Y-88415000D01*
X154431069Y-88415000D01*
X154387600Y-88410719D01*
X154344131Y-88415000D01*
X154344123Y-88415000D01*
X154214110Y-88427805D01*
X154047287Y-88478411D01*
X154028775Y-88488306D01*
X153893541Y-88560589D01*
X153792553Y-88643468D01*
X153792551Y-88643470D01*
X153758783Y-88671183D01*
X153731070Y-88704951D01*
X150890551Y-91545471D01*
X150856784Y-91573183D01*
X150829071Y-91606951D01*
X150829068Y-91606954D01*
X150746190Y-91707941D01*
X150664012Y-91861687D01*
X150613405Y-92028510D01*
X150596319Y-92202000D01*
X150600601Y-92245479D01*
X150600600Y-100065021D01*
X148037022Y-102628600D01*
X143345000Y-102628600D01*
X143345000Y-101694656D01*
X143406632Y-101653475D01*
X143538487Y-101521620D01*
X143560498Y-101594180D01*
X143619463Y-101704494D01*
X143698815Y-101801185D01*
X143795506Y-101880537D01*
X143905820Y-101939502D01*
X144025518Y-101975812D01*
X144150000Y-101988072D01*
X145850000Y-101988072D01*
X145974482Y-101975812D01*
X146094180Y-101939502D01*
X146204494Y-101880537D01*
X146301185Y-101801185D01*
X146380537Y-101704494D01*
X146439502Y-101594180D01*
X146475812Y-101474482D01*
X146488072Y-101350000D01*
X146488072Y-99650000D01*
X146475812Y-99525518D01*
X146439502Y-99405820D01*
X146380537Y-99295506D01*
X146301185Y-99198815D01*
X146204494Y-99119463D01*
X146135000Y-99082317D01*
X146135000Y-95627341D01*
X146140490Y-95571599D01*
X146135000Y-95515857D01*
X146135000Y-95515848D01*
X146118577Y-95349101D01*
X146053676Y-95135153D01*
X145948284Y-94937977D01*
X145806449Y-94765151D01*
X145763135Y-94729604D01*
X145407000Y-94373469D01*
X145407000Y-92885430D01*
X145603242Y-92885430D01*
X145843366Y-92861780D01*
X146151469Y-92768318D01*
X146435417Y-92616544D01*
X146684301Y-92412291D01*
X146888554Y-92163407D01*
X147040328Y-91879459D01*
X147133790Y-91571356D01*
X147165348Y-91250940D01*
X147133790Y-90930524D01*
X147040328Y-90622421D01*
X146888554Y-90338473D01*
X146684301Y-90089589D01*
X146435417Y-89885336D01*
X146151469Y-89733562D01*
X145843366Y-89640100D01*
X145603242Y-89616450D01*
X145407000Y-89616450D01*
X145407000Y-89307201D01*
X145412491Y-89251449D01*
X145390577Y-89028951D01*
X145325676Y-88815003D01*
X145281483Y-88732324D01*
X145220284Y-88617827D01*
X145078449Y-88445001D01*
X145035141Y-88409459D01*
X143509092Y-86883410D01*
X144145000Y-86883410D01*
X144145000Y-85375920D01*
X144399000Y-85375920D01*
X144399000Y-86883410D01*
X145399760Y-86883410D01*
X145716193Y-86827227D01*
X146015585Y-86710391D01*
X146286431Y-86537391D01*
X146518322Y-86314876D01*
X146702347Y-86051397D01*
X146831433Y-85757079D01*
X146862379Y-85629274D01*
X146743025Y-85375920D01*
X144399000Y-85375920D01*
X144145000Y-85375920D01*
X144125000Y-85375920D01*
X144125000Y-85121920D01*
X144145000Y-85121920D01*
X144145000Y-83614430D01*
X144399000Y-83614430D01*
X144399000Y-85121920D01*
X146743025Y-85121920D01*
X146862379Y-84868566D01*
X146831433Y-84740761D01*
X146702347Y-84446443D01*
X146518322Y-84182964D01*
X146286431Y-83960449D01*
X146015585Y-83787449D01*
X145996169Y-83779872D01*
X163765000Y-83779872D01*
X163765000Y-84220128D01*
X163850890Y-84651925D01*
X164019369Y-85058669D01*
X164263962Y-85424729D01*
X164575271Y-85736038D01*
X164941331Y-85980631D01*
X165348075Y-86149110D01*
X165779872Y-86235000D01*
X166220128Y-86235000D01*
X166651925Y-86149110D01*
X167058669Y-85980631D01*
X167424729Y-85736038D01*
X167736038Y-85424729D01*
X167980631Y-85058669D01*
X168149110Y-84651925D01*
X168235000Y-84220128D01*
X168235000Y-83779872D01*
X168149110Y-83348075D01*
X167980631Y-82941331D01*
X167736038Y-82575271D01*
X167424729Y-82263962D01*
X167058669Y-82019369D01*
X166651925Y-81850890D01*
X166220128Y-81765000D01*
X165779872Y-81765000D01*
X165348075Y-81850890D01*
X164941331Y-82019369D01*
X164575271Y-82263962D01*
X164263962Y-82575271D01*
X164019369Y-82941331D01*
X163850890Y-83348075D01*
X163765000Y-83779872D01*
X145996169Y-83779872D01*
X145716193Y-83670613D01*
X145399760Y-83614430D01*
X144399000Y-83614430D01*
X144145000Y-83614430D01*
X143144240Y-83614430D01*
X142827807Y-83670613D01*
X142528415Y-83787449D01*
X142257569Y-83960449D01*
X142025678Y-84182964D01*
X141841653Y-84446443D01*
X141712567Y-84740761D01*
X141681621Y-84868566D01*
X141800974Y-85121918D01*
X141747599Y-85121918D01*
X140952546Y-84326865D01*
X140916999Y-84283551D01*
X140744173Y-84141716D01*
X140546997Y-84036324D01*
X140333049Y-83971423D01*
X140166302Y-83955000D01*
X140166301Y-83955000D01*
X140110550Y-83949509D01*
X140054799Y-83955000D01*
X132735683Y-83955000D01*
X132698537Y-83885506D01*
X132619185Y-83788815D01*
X132522494Y-83709463D01*
X132412180Y-83650498D01*
X132292482Y-83614188D01*
X132168000Y-83601928D01*
X131435060Y-83601928D01*
X130609995Y-82776864D01*
X130574448Y-82733550D01*
X130401622Y-82591715D01*
X130204446Y-82486323D01*
X129990498Y-82421422D01*
X129823751Y-82404999D01*
X129823750Y-82404999D01*
X129767999Y-82399508D01*
X129712248Y-82404999D01*
X123757034Y-82404999D01*
X123701282Y-82399508D01*
X123478783Y-82421422D01*
X123469494Y-82424240D01*
X123264836Y-82486323D01*
X123067660Y-82591715D01*
X122894834Y-82733550D01*
X122859292Y-82776858D01*
X115939654Y-89696497D01*
X115896340Y-89732044D01*
X115754505Y-89904870D01*
X115672711Y-90057898D01*
X115649113Y-90102047D01*
X115584212Y-90315995D01*
X115562298Y-90538493D01*
X115567789Y-90594245D01*
X115567790Y-93708146D01*
X115562298Y-93763907D01*
X115584212Y-93986405D01*
X115649113Y-94200353D01*
X115666959Y-94233740D01*
X115754506Y-94397530D01*
X115896341Y-94570356D01*
X115939649Y-94605898D01*
X117727891Y-96394141D01*
X117763433Y-96437449D01*
X117936259Y-96579284D01*
X118133435Y-96684676D01*
X118347383Y-96749577D01*
X118514130Y-96766000D01*
X118514139Y-96766000D01*
X118569881Y-96771490D01*
X118625623Y-96766000D01*
X118856272Y-96766000D01*
X118810506Y-96790463D01*
X118713815Y-96869815D01*
X118634463Y-96966506D01*
X118575498Y-97076820D01*
X118539188Y-97196518D01*
X118526928Y-97321000D01*
X118526928Y-99021000D01*
X118539188Y-99145482D01*
X118575498Y-99265180D01*
X118634463Y-99375494D01*
X118713815Y-99472185D01*
X118810506Y-99551537D01*
X118920820Y-99610502D01*
X119040518Y-99646812D01*
X119165000Y-99659072D01*
X120865000Y-99659072D01*
X120989482Y-99646812D01*
X121109180Y-99610502D01*
X121219494Y-99551537D01*
X121316185Y-99472185D01*
X121395537Y-99375494D01*
X121454502Y-99265180D01*
X121490812Y-99145482D01*
X121503072Y-99021000D01*
X121503072Y-97321000D01*
X121490812Y-97196518D01*
X121454502Y-97076820D01*
X121395537Y-96966506D01*
X121316185Y-96869815D01*
X121219494Y-96790463D01*
X121109180Y-96731498D01*
X121036620Y-96709487D01*
X121168475Y-96577632D01*
X121330990Y-96334411D01*
X121442932Y-96064158D01*
X121500000Y-95777260D01*
X121500000Y-95484740D01*
X121442932Y-95197842D01*
X121330990Y-94927589D01*
X121168475Y-94684368D01*
X120961632Y-94477525D01*
X120779466Y-94355805D01*
X120896355Y-94286178D01*
X121112588Y-94091269D01*
X121286641Y-93857920D01*
X121411825Y-93595099D01*
X121456476Y-93447890D01*
X121335155Y-93218000D01*
X120142000Y-93218000D01*
X120142000Y-93238000D01*
X119888000Y-93238000D01*
X119888000Y-93218000D01*
X118694845Y-93218000D01*
X118573524Y-93447890D01*
X118618175Y-93595099D01*
X118743359Y-93857920D01*
X118917412Y-94091269D01*
X119133645Y-94286178D01*
X119250534Y-94355805D01*
X119068368Y-94477525D01*
X119049893Y-94496000D01*
X119040014Y-94496000D01*
X117837789Y-93293776D01*
X117837789Y-91008624D01*
X118551932Y-90294481D01*
X118530000Y-90404740D01*
X118530000Y-90697260D01*
X118587068Y-90984158D01*
X118699010Y-91254411D01*
X118861525Y-91497632D01*
X119068368Y-91704475D01*
X119250534Y-91826195D01*
X119133645Y-91895822D01*
X118917412Y-92090731D01*
X118743359Y-92324080D01*
X118618175Y-92586901D01*
X118573524Y-92734110D01*
X118694845Y-92964000D01*
X119888000Y-92964000D01*
X119888000Y-92944000D01*
X120142000Y-92944000D01*
X120142000Y-92964000D01*
X121335155Y-92964000D01*
X121456476Y-92734110D01*
X121411825Y-92586901D01*
X121286641Y-92324080D01*
X121112588Y-92090731D01*
X120896355Y-91895822D01*
X120779466Y-91826195D01*
X120961632Y-91704475D01*
X121168475Y-91497632D01*
X121209656Y-91436000D01*
X124238517Y-91436000D01*
X124186498Y-91533320D01*
X124150188Y-91653018D01*
X124137928Y-91777500D01*
X124141000Y-92091750D01*
X124299750Y-92250500D01*
X125349000Y-92250500D01*
X125349000Y-92230500D01*
X125603000Y-92230500D01*
X125603000Y-92250500D01*
X125623000Y-92250500D01*
X125623000Y-92504500D01*
X125603000Y-92504500D01*
X125603000Y-92524500D01*
X125349000Y-92524500D01*
X125349000Y-92504500D01*
X124299750Y-92504500D01*
X124141000Y-92663250D01*
X124137928Y-92977500D01*
X124150188Y-93101982D01*
X124186498Y-93221680D01*
X124245463Y-93331994D01*
X124324815Y-93428685D01*
X124421506Y-93508037D01*
X124531820Y-93567002D01*
X124651518Y-93603312D01*
X124776000Y-93615572D01*
X125190250Y-93612500D01*
X125348998Y-93453752D01*
X125348998Y-93612500D01*
X125470578Y-93612500D01*
X124636545Y-94446534D01*
X124602772Y-94474251D01*
X124492178Y-94609010D01*
X124410000Y-94762756D01*
X124385476Y-94843600D01*
X124359998Y-94927589D01*
X124359394Y-94929579D01*
X124346589Y-95059592D01*
X124346589Y-95059599D01*
X124342308Y-95103068D01*
X124346589Y-95146537D01*
X124346590Y-100585852D01*
X124342308Y-100629331D01*
X124359394Y-100802821D01*
X124410001Y-100969644D01*
X124492179Y-101123390D01*
X124575057Y-101224377D01*
X124575060Y-101224380D01*
X124602773Y-101258148D01*
X124636540Y-101285860D01*
X126223679Y-102873000D01*
X100660000Y-102873000D01*
X100660000Y-83779872D01*
X101765000Y-83779872D01*
X101765000Y-84220128D01*
X101850890Y-84651925D01*
X102019369Y-85058669D01*
X102263962Y-85424729D01*
X102575271Y-85736038D01*
X102941331Y-85980631D01*
X103348075Y-86149110D01*
X103779872Y-86235000D01*
X104220128Y-86235000D01*
X104651925Y-86149110D01*
X105058669Y-85980631D01*
X105424729Y-85736038D01*
X105736038Y-85424729D01*
X105980631Y-85058669D01*
X106149110Y-84651925D01*
X106235000Y-84220128D01*
X106235000Y-83779872D01*
X106149110Y-83348075D01*
X105980631Y-82941331D01*
X105736038Y-82575271D01*
X105424729Y-82263962D01*
X105058669Y-82019369D01*
X104651925Y-81850890D01*
X104220128Y-81765000D01*
X103779872Y-81765000D01*
X103348075Y-81850890D01*
X102941331Y-82019369D01*
X102575271Y-82263962D01*
X102263962Y-82575271D01*
X102019369Y-82941331D01*
X101850890Y-83348075D01*
X101765000Y-83779872D01*
X100660000Y-83779872D01*
X100660000Y-82032279D01*
X100688625Y-81740341D01*
X100764035Y-81490571D01*
X100886522Y-81260208D01*
X101051422Y-81058020D01*
X101252450Y-80891714D01*
X101481954Y-80767622D01*
X101731195Y-80690469D01*
X102021088Y-80660000D01*
X167967721Y-80660000D01*
X168259659Y-80688625D01*
G36*
X138129070Y-121499049D02*
G01*
X138156783Y-121532817D01*
X138190551Y-121560530D01*
X138190553Y-121560532D01*
X138214834Y-121580459D01*
X138291541Y-121643411D01*
X138445287Y-121725589D01*
X138612110Y-121776195D01*
X138742123Y-121789000D01*
X138742133Y-121789000D01*
X138785599Y-121793281D01*
X138829065Y-121789000D01*
X140558791Y-121789000D01*
X140578122Y-121825165D01*
X140694783Y-121967317D01*
X140836935Y-122083978D01*
X140999115Y-122170666D01*
X141101751Y-122201800D01*
X137136325Y-122201800D01*
X137163680Y-122193502D01*
X137273994Y-122134537D01*
X137370685Y-122055185D01*
X137450037Y-121958494D01*
X137509002Y-121848180D01*
X137545312Y-121728482D01*
X137557572Y-121604000D01*
X137554500Y-121189750D01*
X137395752Y-121031002D01*
X137554500Y-121031002D01*
X137554500Y-120924478D01*
X138129070Y-121499049D01*
G37*
X138129070Y-121499049D02*
X138156783Y-121532817D01*
X138190551Y-121560530D01*
X138190553Y-121560532D01*
X138214834Y-121580459D01*
X138291541Y-121643411D01*
X138445287Y-121725589D01*
X138612110Y-121776195D01*
X138742123Y-121789000D01*
X138742133Y-121789000D01*
X138785599Y-121793281D01*
X138829065Y-121789000D01*
X140558791Y-121789000D01*
X140578122Y-121825165D01*
X140694783Y-121967317D01*
X140836935Y-122083978D01*
X140999115Y-122170666D01*
X141101751Y-122201800D01*
X137136325Y-122201800D01*
X137163680Y-122193502D01*
X137273994Y-122134537D01*
X137370685Y-122055185D01*
X137450037Y-121958494D01*
X137509002Y-121848180D01*
X137545312Y-121728482D01*
X137557572Y-121604000D01*
X137554500Y-121189750D01*
X137395752Y-121031002D01*
X137554500Y-121031002D01*
X137554500Y-120924478D01*
X138129070Y-121499049D01*
G36*
X136446500Y-120777000D02*
G01*
X136466500Y-120777000D01*
X136466500Y-121031000D01*
X136446500Y-121031000D01*
X136446500Y-121051000D01*
X136192500Y-121051000D01*
X136192500Y-121031000D01*
X136172500Y-121031000D01*
X136172500Y-120777000D01*
X136192500Y-120777000D01*
X136192500Y-120757000D01*
X136446500Y-120757000D01*
X136446500Y-120777000D01*
G37*
X136446500Y-120777000D02*
X136466500Y-120777000D01*
X136466500Y-121031000D01*
X136446500Y-121031000D01*
X136446500Y-121051000D01*
X136192500Y-121051000D01*
X136192500Y-121031000D01*
X136172500Y-121031000D01*
X136172500Y-120777000D01*
X136192500Y-120777000D01*
X136192500Y-120757000D01*
X136446500Y-120757000D01*
X136446500Y-120777000D01*
G36*
X134133176Y-118353824D02*
G01*
X134339733Y-118439383D01*
X134559012Y-118483000D01*
X134782588Y-118483000D01*
X135001867Y-118439383D01*
X135049623Y-118419602D01*
X136199021Y-119569000D01*
X136192498Y-119569000D01*
X136192498Y-119727748D01*
X136033750Y-119569000D01*
X135719500Y-119565928D01*
X135595018Y-119578188D01*
X135475320Y-119614498D01*
X135365006Y-119673463D01*
X135284532Y-119739506D01*
X135265665Y-119724022D01*
X135103485Y-119637334D01*
X134927509Y-119583953D01*
X134744500Y-119565928D01*
X134144500Y-119565928D01*
X133961491Y-119583953D01*
X133785515Y-119637334D01*
X133623335Y-119724022D01*
X133481183Y-119840683D01*
X133364522Y-119982835D01*
X133291739Y-120119000D01*
X132506758Y-120119000D01*
X131941483Y-119553726D01*
X132175250Y-119552720D01*
X132334000Y-119393970D01*
X132334000Y-118745000D01*
X132588000Y-118745000D01*
X132588000Y-119393970D01*
X132746750Y-119552720D01*
X133460490Y-119555792D01*
X133584972Y-119543532D01*
X133704670Y-119507222D01*
X133814984Y-119448257D01*
X133911675Y-119368905D01*
X133991027Y-119272214D01*
X134049992Y-119161900D01*
X134086302Y-119042202D01*
X134098562Y-118917720D01*
X134095490Y-118903750D01*
X133936740Y-118745000D01*
X132588000Y-118745000D01*
X132334000Y-118745000D01*
X132314000Y-118745000D01*
X132314000Y-118491000D01*
X132334000Y-118491000D01*
X132334000Y-118471000D01*
X132588000Y-118471000D01*
X132588000Y-118491000D01*
X133936740Y-118491000D01*
X134095490Y-118332250D01*
X134096182Y-118329105D01*
X134133176Y-118353824D01*
G37*
X134133176Y-118353824D02*
X134339733Y-118439383D01*
X134559012Y-118483000D01*
X134782588Y-118483000D01*
X135001867Y-118439383D01*
X135049623Y-118419602D01*
X136199021Y-119569000D01*
X136192498Y-119569000D01*
X136192498Y-119727748D01*
X136033750Y-119569000D01*
X135719500Y-119565928D01*
X135595018Y-119578188D01*
X135475320Y-119614498D01*
X135365006Y-119673463D01*
X135284532Y-119739506D01*
X135265665Y-119724022D01*
X135103485Y-119637334D01*
X134927509Y-119583953D01*
X134744500Y-119565928D01*
X134144500Y-119565928D01*
X133961491Y-119583953D01*
X133785515Y-119637334D01*
X133623335Y-119724022D01*
X133481183Y-119840683D01*
X133364522Y-119982835D01*
X133291739Y-120119000D01*
X132506758Y-120119000D01*
X131941483Y-119553726D01*
X132175250Y-119552720D01*
X132334000Y-119393970D01*
X132334000Y-118745000D01*
X132588000Y-118745000D01*
X132588000Y-119393970D01*
X132746750Y-119552720D01*
X133460490Y-119555792D01*
X133584972Y-119543532D01*
X133704670Y-119507222D01*
X133814984Y-119448257D01*
X133911675Y-119368905D01*
X133991027Y-119272214D01*
X134049992Y-119161900D01*
X134086302Y-119042202D01*
X134098562Y-118917720D01*
X134095490Y-118903750D01*
X133936740Y-118745000D01*
X132588000Y-118745000D01*
X132334000Y-118745000D01*
X132314000Y-118745000D01*
X132314000Y-118491000D01*
X132334000Y-118491000D01*
X132334000Y-118471000D01*
X132588000Y-118471000D01*
X132588000Y-118491000D01*
X133936740Y-118491000D01*
X134095490Y-118332250D01*
X134096182Y-118329105D01*
X134133176Y-118353824D01*
G36*
X141199226Y-116881937D02*
G01*
X141368744Y-116995205D01*
X141557102Y-117073226D01*
X141757061Y-117113000D01*
X141960939Y-117113000D01*
X142160898Y-117073226D01*
X142217000Y-117049987D01*
X142217001Y-118579430D01*
X142213202Y-118618000D01*
X142217000Y-118656561D01*
X142217000Y-119341447D01*
X142213203Y-119380000D01*
X142217000Y-119418553D01*
X142217000Y-119418561D01*
X142220997Y-119459140D01*
X142228359Y-119533886D01*
X142253928Y-119618176D01*
X142141109Y-119583953D01*
X141958100Y-119565928D01*
X141358100Y-119565928D01*
X141175091Y-119583953D01*
X140999115Y-119637334D01*
X140836935Y-119724022D01*
X140694783Y-119840683D01*
X140578122Y-119982835D01*
X140558791Y-120019000D01*
X139152179Y-120019000D01*
X138687932Y-119554753D01*
X139160250Y-119552720D01*
X139319000Y-119393970D01*
X139319000Y-118745000D01*
X139573000Y-118745000D01*
X139573000Y-119393970D01*
X139731750Y-119552720D01*
X140445490Y-119555792D01*
X140569972Y-119543532D01*
X140689670Y-119507222D01*
X140799984Y-119448257D01*
X140896675Y-119368905D01*
X140976027Y-119272214D01*
X141034992Y-119161900D01*
X141071302Y-119042202D01*
X141083562Y-118917720D01*
X141080490Y-118903750D01*
X140921740Y-118745000D01*
X139573000Y-118745000D01*
X139319000Y-118745000D01*
X137970260Y-118745000D01*
X137924219Y-118791041D01*
X137266178Y-118133000D01*
X137839141Y-118133000D01*
X137820698Y-118193798D01*
X137808438Y-118318280D01*
X137811510Y-118332250D01*
X137970260Y-118491000D01*
X139319000Y-118491000D01*
X139319000Y-118471000D01*
X139573000Y-118471000D01*
X139573000Y-118491000D01*
X140921740Y-118491000D01*
X141080490Y-118332250D01*
X141083562Y-118318280D01*
X141071302Y-118193798D01*
X141034992Y-118074100D01*
X140986297Y-117983000D01*
X141034992Y-117891900D01*
X141071302Y-117772202D01*
X141083562Y-117647720D01*
X141083562Y-117048280D01*
X141071302Y-116923798D01*
X141052859Y-116863000D01*
X141180289Y-116863000D01*
X141199226Y-116881937D01*
G37*
X141199226Y-116881937D02*
X141368744Y-116995205D01*
X141557102Y-117073226D01*
X141757061Y-117113000D01*
X141960939Y-117113000D01*
X142160898Y-117073226D01*
X142217000Y-117049987D01*
X142217001Y-118579430D01*
X142213202Y-118618000D01*
X142217000Y-118656561D01*
X142217000Y-119341447D01*
X142213203Y-119380000D01*
X142217000Y-119418553D01*
X142217000Y-119418561D01*
X142220997Y-119459140D01*
X142228359Y-119533886D01*
X142253928Y-119618176D01*
X142141109Y-119583953D01*
X141958100Y-119565928D01*
X141358100Y-119565928D01*
X141175091Y-119583953D01*
X140999115Y-119637334D01*
X140836935Y-119724022D01*
X140694783Y-119840683D01*
X140578122Y-119982835D01*
X140558791Y-120019000D01*
X139152179Y-120019000D01*
X138687932Y-119554753D01*
X139160250Y-119552720D01*
X139319000Y-119393970D01*
X139319000Y-118745000D01*
X139573000Y-118745000D01*
X139573000Y-119393970D01*
X139731750Y-119552720D01*
X140445490Y-119555792D01*
X140569972Y-119543532D01*
X140689670Y-119507222D01*
X140799984Y-119448257D01*
X140896675Y-119368905D01*
X140976027Y-119272214D01*
X141034992Y-119161900D01*
X141071302Y-119042202D01*
X141083562Y-118917720D01*
X141080490Y-118903750D01*
X140921740Y-118745000D01*
X139573000Y-118745000D01*
X139319000Y-118745000D01*
X137970260Y-118745000D01*
X137924219Y-118791041D01*
X137266178Y-118133000D01*
X137839141Y-118133000D01*
X137820698Y-118193798D01*
X137808438Y-118318280D01*
X137811510Y-118332250D01*
X137970260Y-118491000D01*
X139319000Y-118491000D01*
X139319000Y-118471000D01*
X139573000Y-118471000D01*
X139573000Y-118491000D01*
X140921740Y-118491000D01*
X141080490Y-118332250D01*
X141083562Y-118318280D01*
X141071302Y-118193798D01*
X141034992Y-118074100D01*
X140986297Y-117983000D01*
X141034992Y-117891900D01*
X141071302Y-117772202D01*
X141083562Y-117647720D01*
X141083562Y-117048280D01*
X141071302Y-116923798D01*
X141052859Y-116863000D01*
X141180289Y-116863000D01*
X141199226Y-116881937D01*
G36*
X135256700Y-107113500D02*
G01*
X133662398Y-107113500D01*
X133691537Y-107077994D01*
X133750502Y-106967680D01*
X133786812Y-106847982D01*
X133799072Y-106723500D01*
X133796000Y-106409250D01*
X133637250Y-106250500D01*
X132588000Y-106250500D01*
X132588000Y-106270500D01*
X132334000Y-106270500D01*
X132334000Y-106250500D01*
X131284750Y-106250500D01*
X131126000Y-106409250D01*
X131122928Y-106723500D01*
X131135188Y-106847982D01*
X131171498Y-106967680D01*
X131230463Y-107077994D01*
X131296506Y-107158468D01*
X131281022Y-107177335D01*
X131194334Y-107339515D01*
X131140953Y-107515491D01*
X131122928Y-107698500D01*
X131122928Y-108298500D01*
X131140953Y-108481509D01*
X131194334Y-108657485D01*
X131280926Y-108819486D01*
X131217330Y-108838778D01*
X131107016Y-108897743D01*
X131010325Y-108977095D01*
X130930973Y-109073786D01*
X130872008Y-109184100D01*
X130835698Y-109303798D01*
X130823438Y-109428280D01*
X130823438Y-110027720D01*
X130835698Y-110152202D01*
X130872008Y-110271900D01*
X130920703Y-110363000D01*
X130872008Y-110454100D01*
X130835698Y-110573798D01*
X130823438Y-110698280D01*
X130826510Y-110712250D01*
X130985260Y-110871000D01*
X132334000Y-110871000D01*
X132334000Y-110851000D01*
X132588000Y-110851000D01*
X132588000Y-110871000D01*
X133936740Y-110871000D01*
X134095490Y-110712250D01*
X134098562Y-110698280D01*
X134086302Y-110573798D01*
X134049992Y-110454100D01*
X134001297Y-110363000D01*
X134049992Y-110271900D01*
X134086302Y-110152202D01*
X134098562Y-110027720D01*
X134098562Y-109428280D01*
X134086302Y-109303798D01*
X134049992Y-109184100D01*
X133991027Y-109073786D01*
X133911675Y-108977095D01*
X133814984Y-108897743D01*
X133788338Y-108883500D01*
X135423250Y-108883500D01*
X135604076Y-109004324D01*
X135810633Y-109089883D01*
X136029912Y-109133500D01*
X136253488Y-109133500D01*
X136472767Y-109089883D01*
X136679324Y-109004324D01*
X136860150Y-108883500D01*
X138118662Y-108883500D01*
X138092016Y-108897743D01*
X137995325Y-108977095D01*
X137915973Y-109073786D01*
X137857008Y-109184100D01*
X137820698Y-109303798D01*
X137808438Y-109428280D01*
X137808438Y-110027720D01*
X137820698Y-110152202D01*
X137857008Y-110271900D01*
X137905703Y-110363000D01*
X137857008Y-110454100D01*
X137820698Y-110573798D01*
X137808438Y-110698280D01*
X137808438Y-111297720D01*
X137820698Y-111422202D01*
X137839141Y-111483000D01*
X134067859Y-111483000D01*
X134086302Y-111422202D01*
X134098562Y-111297720D01*
X134095490Y-111283750D01*
X133936740Y-111125000D01*
X132588000Y-111125000D01*
X132588000Y-111145000D01*
X132334000Y-111145000D01*
X132334000Y-111125000D01*
X130985260Y-111125000D01*
X130826510Y-111283750D01*
X130823438Y-111297720D01*
X130835698Y-111422202D01*
X130872008Y-111541900D01*
X130920703Y-111633000D01*
X130872008Y-111724100D01*
X130835698Y-111843798D01*
X130823438Y-111968280D01*
X130823438Y-112567720D01*
X130835698Y-112692202D01*
X130872008Y-112811900D01*
X130920703Y-112903000D01*
X130872008Y-112994100D01*
X130835698Y-113113798D01*
X130823438Y-113238280D01*
X130823438Y-113837720D01*
X130835698Y-113962202D01*
X130872008Y-114081900D01*
X130920703Y-114173000D01*
X130872008Y-114264100D01*
X130835698Y-114383798D01*
X130823438Y-114508280D01*
X130823438Y-115107720D01*
X130835698Y-115232202D01*
X130870229Y-115346037D01*
X130859650Y-115349246D01*
X130723277Y-115422138D01*
X130627000Y-115501152D01*
X130627000Y-105523500D01*
X131122928Y-105523500D01*
X131126000Y-105837750D01*
X131284750Y-105996500D01*
X132334000Y-105996500D01*
X132334000Y-105047250D01*
X132588000Y-105047250D01*
X132588000Y-105996500D01*
X133637250Y-105996500D01*
X133796000Y-105837750D01*
X133799072Y-105523500D01*
X133786812Y-105399018D01*
X133750502Y-105279320D01*
X133691537Y-105169006D01*
X133612185Y-105072315D01*
X133515494Y-104992963D01*
X133405180Y-104933998D01*
X133285482Y-104897688D01*
X133161000Y-104885428D01*
X132746750Y-104888500D01*
X132588000Y-105047250D01*
X132334000Y-105047250D01*
X132175250Y-104888500D01*
X131761000Y-104885428D01*
X131636518Y-104897688D01*
X131516820Y-104933998D01*
X131406506Y-104992963D01*
X131309815Y-105072315D01*
X131230463Y-105169006D01*
X131171498Y-105279320D01*
X131135188Y-105399018D01*
X131122928Y-105523500D01*
X130627000Y-105523500D01*
X130627000Y-105500000D01*
X130624560Y-105475224D01*
X130617333Y-105451399D01*
X130605597Y-105429443D01*
X130589803Y-105410197D01*
X128733706Y-103554100D01*
X135256701Y-103554100D01*
X135256700Y-107113500D01*
G37*
X135256700Y-107113500D02*
X133662398Y-107113500D01*
X133691537Y-107077994D01*
X133750502Y-106967680D01*
X133786812Y-106847982D01*
X133799072Y-106723500D01*
X133796000Y-106409250D01*
X133637250Y-106250500D01*
X132588000Y-106250500D01*
X132588000Y-106270500D01*
X132334000Y-106270500D01*
X132334000Y-106250500D01*
X131284750Y-106250500D01*
X131126000Y-106409250D01*
X131122928Y-106723500D01*
X131135188Y-106847982D01*
X131171498Y-106967680D01*
X131230463Y-107077994D01*
X131296506Y-107158468D01*
X131281022Y-107177335D01*
X131194334Y-107339515D01*
X131140953Y-107515491D01*
X131122928Y-107698500D01*
X131122928Y-108298500D01*
X131140953Y-108481509D01*
X131194334Y-108657485D01*
X131280926Y-108819486D01*
X131217330Y-108838778D01*
X131107016Y-108897743D01*
X131010325Y-108977095D01*
X130930973Y-109073786D01*
X130872008Y-109184100D01*
X130835698Y-109303798D01*
X130823438Y-109428280D01*
X130823438Y-110027720D01*
X130835698Y-110152202D01*
X130872008Y-110271900D01*
X130920703Y-110363000D01*
X130872008Y-110454100D01*
X130835698Y-110573798D01*
X130823438Y-110698280D01*
X130826510Y-110712250D01*
X130985260Y-110871000D01*
X132334000Y-110871000D01*
X132334000Y-110851000D01*
X132588000Y-110851000D01*
X132588000Y-110871000D01*
X133936740Y-110871000D01*
X134095490Y-110712250D01*
X134098562Y-110698280D01*
X134086302Y-110573798D01*
X134049992Y-110454100D01*
X134001297Y-110363000D01*
X134049992Y-110271900D01*
X134086302Y-110152202D01*
X134098562Y-110027720D01*
X134098562Y-109428280D01*
X134086302Y-109303798D01*
X134049992Y-109184100D01*
X133991027Y-109073786D01*
X133911675Y-108977095D01*
X133814984Y-108897743D01*
X133788338Y-108883500D01*
X135423250Y-108883500D01*
X135604076Y-109004324D01*
X135810633Y-109089883D01*
X136029912Y-109133500D01*
X136253488Y-109133500D01*
X136472767Y-109089883D01*
X136679324Y-109004324D01*
X136860150Y-108883500D01*
X138118662Y-108883500D01*
X138092016Y-108897743D01*
X137995325Y-108977095D01*
X137915973Y-109073786D01*
X137857008Y-109184100D01*
X137820698Y-109303798D01*
X137808438Y-109428280D01*
X137808438Y-110027720D01*
X137820698Y-110152202D01*
X137857008Y-110271900D01*
X137905703Y-110363000D01*
X137857008Y-110454100D01*
X137820698Y-110573798D01*
X137808438Y-110698280D01*
X137808438Y-111297720D01*
X137820698Y-111422202D01*
X137839141Y-111483000D01*
X134067859Y-111483000D01*
X134086302Y-111422202D01*
X134098562Y-111297720D01*
X134095490Y-111283750D01*
X133936740Y-111125000D01*
X132588000Y-111125000D01*
X132588000Y-111145000D01*
X132334000Y-111145000D01*
X132334000Y-111125000D01*
X130985260Y-111125000D01*
X130826510Y-111283750D01*
X130823438Y-111297720D01*
X130835698Y-111422202D01*
X130872008Y-111541900D01*
X130920703Y-111633000D01*
X130872008Y-111724100D01*
X130835698Y-111843798D01*
X130823438Y-111968280D01*
X130823438Y-112567720D01*
X130835698Y-112692202D01*
X130872008Y-112811900D01*
X130920703Y-112903000D01*
X130872008Y-112994100D01*
X130835698Y-113113798D01*
X130823438Y-113238280D01*
X130823438Y-113837720D01*
X130835698Y-113962202D01*
X130872008Y-114081900D01*
X130920703Y-114173000D01*
X130872008Y-114264100D01*
X130835698Y-114383798D01*
X130823438Y-114508280D01*
X130823438Y-115107720D01*
X130835698Y-115232202D01*
X130870229Y-115346037D01*
X130859650Y-115349246D01*
X130723277Y-115422138D01*
X130627000Y-115501152D01*
X130627000Y-105523500D01*
X131122928Y-105523500D01*
X131126000Y-105837750D01*
X131284750Y-105996500D01*
X132334000Y-105996500D01*
X132334000Y-105047250D01*
X132588000Y-105047250D01*
X132588000Y-105996500D01*
X133637250Y-105996500D01*
X133796000Y-105837750D01*
X133799072Y-105523500D01*
X133786812Y-105399018D01*
X133750502Y-105279320D01*
X133691537Y-105169006D01*
X133612185Y-105072315D01*
X133515494Y-104992963D01*
X133405180Y-104933998D01*
X133285482Y-104897688D01*
X133161000Y-104885428D01*
X132746750Y-104888500D01*
X132588000Y-105047250D01*
X132334000Y-105047250D01*
X132175250Y-104888500D01*
X131761000Y-104885428D01*
X131636518Y-104897688D01*
X131516820Y-104933998D01*
X131406506Y-104992963D01*
X131309815Y-105072315D01*
X131230463Y-105169006D01*
X131171498Y-105279320D01*
X131135188Y-105399018D01*
X131122928Y-105523500D01*
X130627000Y-105523500D01*
X130627000Y-105500000D01*
X130624560Y-105475224D01*
X130617333Y-105451399D01*
X130605597Y-105429443D01*
X130589803Y-105410197D01*
X128733706Y-103554100D01*
X135256701Y-103554100D01*
X135256700Y-107113500D01*
G36*
X141306525Y-101446632D02*
G01*
X141513368Y-101653475D01*
X141575001Y-101694657D01*
X141575000Y-103470123D01*
X141570718Y-103513600D01*
X141575001Y-103557086D01*
X141575000Y-105789731D01*
X141570719Y-105833200D01*
X141575000Y-105876669D01*
X141575000Y-105876676D01*
X141586212Y-105990514D01*
X141587805Y-106006690D01*
X141603157Y-106057296D01*
X141638411Y-106173512D01*
X141720589Y-106327258D01*
X141831183Y-106462017D01*
X141864956Y-106489734D01*
X143698354Y-108323133D01*
X143713953Y-108481509D01*
X143767334Y-108657485D01*
X143853926Y-108819486D01*
X143790330Y-108838778D01*
X143680016Y-108897743D01*
X143583325Y-108977095D01*
X143503973Y-109073786D01*
X143445008Y-109184100D01*
X143408698Y-109303798D01*
X143396438Y-109428280D01*
X143396438Y-110027720D01*
X143408698Y-110152202D01*
X143445008Y-110271900D01*
X143493703Y-110363000D01*
X143445008Y-110454100D01*
X143408698Y-110573798D01*
X143396438Y-110698280D01*
X143396438Y-111297720D01*
X143408698Y-111422202D01*
X143427141Y-111483000D01*
X143294552Y-111483000D01*
X143255999Y-111479203D01*
X143217446Y-111483000D01*
X143217439Y-111483000D01*
X143116490Y-111492943D01*
X143102112Y-111494359D01*
X143074175Y-111502834D01*
X142954140Y-111539246D01*
X142817767Y-111612138D01*
X142698236Y-111710236D01*
X142673653Y-111740190D01*
X142474190Y-111939653D01*
X142444236Y-111964236D01*
X142346138Y-112083768D01*
X142273246Y-112220141D01*
X142228359Y-112368114D01*
X142217000Y-112483440D01*
X142217000Y-112483447D01*
X142213203Y-112522000D01*
X142217000Y-112560553D01*
X142217000Y-112566012D01*
X142160898Y-112542774D01*
X141960939Y-112503000D01*
X141757061Y-112503000D01*
X141557102Y-112542774D01*
X141368744Y-112620795D01*
X141199226Y-112734063D01*
X141180289Y-112753000D01*
X141052859Y-112753000D01*
X141071302Y-112692202D01*
X141083562Y-112567720D01*
X141083562Y-111968280D01*
X141075770Y-111889163D01*
X141114744Y-111915205D01*
X141303102Y-111993226D01*
X141503061Y-112033000D01*
X141706939Y-112033000D01*
X141906898Y-111993226D01*
X142095256Y-111915205D01*
X142264774Y-111801937D01*
X142408937Y-111657774D01*
X142522205Y-111488256D01*
X142600226Y-111299898D01*
X142640000Y-111099939D01*
X142640000Y-110896061D01*
X142600226Y-110696102D01*
X142522205Y-110507744D01*
X142408937Y-110338226D01*
X142264774Y-110194063D01*
X142095256Y-110080795D01*
X141906898Y-110002774D01*
X141706939Y-109963000D01*
X141503061Y-109963000D01*
X141303102Y-110002774D01*
X141114744Y-110080795D01*
X141075770Y-110106837D01*
X141083562Y-110027720D01*
X141083562Y-109428280D01*
X141071302Y-109303798D01*
X141034992Y-109184100D01*
X140976027Y-109073786D01*
X140896675Y-108977095D01*
X140799984Y-108897743D01*
X140689670Y-108838778D01*
X140626074Y-108819486D01*
X140712666Y-108657485D01*
X140766047Y-108481509D01*
X140784072Y-108298500D01*
X140784072Y-107698500D01*
X140766047Y-107515491D01*
X140712666Y-107339515D01*
X140625978Y-107177335D01*
X140610494Y-107158468D01*
X140676537Y-107077994D01*
X140735502Y-106967680D01*
X140771812Y-106847982D01*
X140784072Y-106723500D01*
X140781000Y-106409250D01*
X140622250Y-106250500D01*
X139573000Y-106250500D01*
X139573000Y-106270500D01*
X139319000Y-106270500D01*
X139319000Y-106250500D01*
X138269750Y-106250500D01*
X138111000Y-106409250D01*
X138107928Y-106723500D01*
X138120188Y-106847982D01*
X138156498Y-106967680D01*
X138215463Y-107077994D01*
X138244602Y-107113500D01*
X137026700Y-107113500D01*
X137026700Y-105523500D01*
X138107928Y-105523500D01*
X138111000Y-105837750D01*
X138269750Y-105996500D01*
X139319000Y-105996500D01*
X139319000Y-105047250D01*
X139573000Y-105047250D01*
X139573000Y-105996500D01*
X140622250Y-105996500D01*
X140781000Y-105837750D01*
X140784072Y-105523500D01*
X140771812Y-105399018D01*
X140735502Y-105279320D01*
X140676537Y-105169006D01*
X140597185Y-105072315D01*
X140500494Y-104992963D01*
X140390180Y-104933998D01*
X140270482Y-104897688D01*
X140146000Y-104885428D01*
X139731750Y-104888500D01*
X139573000Y-105047250D01*
X139319000Y-105047250D01*
X139160250Y-104888500D01*
X138746000Y-104885428D01*
X138621518Y-104897688D01*
X138501820Y-104933998D01*
X138391506Y-104992963D01*
X138294815Y-105072315D01*
X138215463Y-105169006D01*
X138156498Y-105279320D01*
X138120188Y-105399018D01*
X138107928Y-105523500D01*
X137026700Y-105523500D01*
X137026700Y-103035678D01*
X138677379Y-101385000D01*
X138725344Y-101385000D01*
X138766525Y-101446632D01*
X138973368Y-101653475D01*
X139216589Y-101815990D01*
X139486842Y-101927932D01*
X139773740Y-101985000D01*
X140066260Y-101985000D01*
X140353158Y-101927932D01*
X140623411Y-101815990D01*
X140866632Y-101653475D01*
X141073475Y-101446632D01*
X141190000Y-101272240D01*
X141306525Y-101446632D01*
G37*
X141306525Y-101446632D02*
X141513368Y-101653475D01*
X141575001Y-101694657D01*
X141575000Y-103470123D01*
X141570718Y-103513600D01*
X141575001Y-103557086D01*
X141575000Y-105789731D01*
X141570719Y-105833200D01*
X141575000Y-105876669D01*
X141575000Y-105876676D01*
X141586212Y-105990514D01*
X141587805Y-106006690D01*
X141603157Y-106057296D01*
X141638411Y-106173512D01*
X141720589Y-106327258D01*
X141831183Y-106462017D01*
X141864956Y-106489734D01*
X143698354Y-108323133D01*
X143713953Y-108481509D01*
X143767334Y-108657485D01*
X143853926Y-108819486D01*
X143790330Y-108838778D01*
X143680016Y-108897743D01*
X143583325Y-108977095D01*
X143503973Y-109073786D01*
X143445008Y-109184100D01*
X143408698Y-109303798D01*
X143396438Y-109428280D01*
X143396438Y-110027720D01*
X143408698Y-110152202D01*
X143445008Y-110271900D01*
X143493703Y-110363000D01*
X143445008Y-110454100D01*
X143408698Y-110573798D01*
X143396438Y-110698280D01*
X143396438Y-111297720D01*
X143408698Y-111422202D01*
X143427141Y-111483000D01*
X143294552Y-111483000D01*
X143255999Y-111479203D01*
X143217446Y-111483000D01*
X143217439Y-111483000D01*
X143116490Y-111492943D01*
X143102112Y-111494359D01*
X143074175Y-111502834D01*
X142954140Y-111539246D01*
X142817767Y-111612138D01*
X142698236Y-111710236D01*
X142673653Y-111740190D01*
X142474190Y-111939653D01*
X142444236Y-111964236D01*
X142346138Y-112083768D01*
X142273246Y-112220141D01*
X142228359Y-112368114D01*
X142217000Y-112483440D01*
X142217000Y-112483447D01*
X142213203Y-112522000D01*
X142217000Y-112560553D01*
X142217000Y-112566012D01*
X142160898Y-112542774D01*
X141960939Y-112503000D01*
X141757061Y-112503000D01*
X141557102Y-112542774D01*
X141368744Y-112620795D01*
X141199226Y-112734063D01*
X141180289Y-112753000D01*
X141052859Y-112753000D01*
X141071302Y-112692202D01*
X141083562Y-112567720D01*
X141083562Y-111968280D01*
X141075770Y-111889163D01*
X141114744Y-111915205D01*
X141303102Y-111993226D01*
X141503061Y-112033000D01*
X141706939Y-112033000D01*
X141906898Y-111993226D01*
X142095256Y-111915205D01*
X142264774Y-111801937D01*
X142408937Y-111657774D01*
X142522205Y-111488256D01*
X142600226Y-111299898D01*
X142640000Y-111099939D01*
X142640000Y-110896061D01*
X142600226Y-110696102D01*
X142522205Y-110507744D01*
X142408937Y-110338226D01*
X142264774Y-110194063D01*
X142095256Y-110080795D01*
X141906898Y-110002774D01*
X141706939Y-109963000D01*
X141503061Y-109963000D01*
X141303102Y-110002774D01*
X141114744Y-110080795D01*
X141075770Y-110106837D01*
X141083562Y-110027720D01*
X141083562Y-109428280D01*
X141071302Y-109303798D01*
X141034992Y-109184100D01*
X140976027Y-109073786D01*
X140896675Y-108977095D01*
X140799984Y-108897743D01*
X140689670Y-108838778D01*
X140626074Y-108819486D01*
X140712666Y-108657485D01*
X140766047Y-108481509D01*
X140784072Y-108298500D01*
X140784072Y-107698500D01*
X140766047Y-107515491D01*
X140712666Y-107339515D01*
X140625978Y-107177335D01*
X140610494Y-107158468D01*
X140676537Y-107077994D01*
X140735502Y-106967680D01*
X140771812Y-106847982D01*
X140784072Y-106723500D01*
X140781000Y-106409250D01*
X140622250Y-106250500D01*
X139573000Y-106250500D01*
X139573000Y-106270500D01*
X139319000Y-106270500D01*
X139319000Y-106250500D01*
X138269750Y-106250500D01*
X138111000Y-106409250D01*
X138107928Y-106723500D01*
X138120188Y-106847982D01*
X138156498Y-106967680D01*
X138215463Y-107077994D01*
X138244602Y-107113500D01*
X137026700Y-107113500D01*
X137026700Y-105523500D01*
X138107928Y-105523500D01*
X138111000Y-105837750D01*
X138269750Y-105996500D01*
X139319000Y-105996500D01*
X139319000Y-105047250D01*
X139573000Y-105047250D01*
X139573000Y-105996500D01*
X140622250Y-105996500D01*
X140781000Y-105837750D01*
X140784072Y-105523500D01*
X140771812Y-105399018D01*
X140735502Y-105279320D01*
X140676537Y-105169006D01*
X140597185Y-105072315D01*
X140500494Y-104992963D01*
X140390180Y-104933998D01*
X140270482Y-104897688D01*
X140146000Y-104885428D01*
X139731750Y-104888500D01*
X139573000Y-105047250D01*
X139319000Y-105047250D01*
X139160250Y-104888500D01*
X138746000Y-104885428D01*
X138621518Y-104897688D01*
X138501820Y-104933998D01*
X138391506Y-104992963D01*
X138294815Y-105072315D01*
X138215463Y-105169006D01*
X138156498Y-105279320D01*
X138120188Y-105399018D01*
X138107928Y-105523500D01*
X137026700Y-105523500D01*
X137026700Y-103035678D01*
X138677379Y-101385000D01*
X138725344Y-101385000D01*
X138766525Y-101446632D01*
X138973368Y-101653475D01*
X139216589Y-101815990D01*
X139486842Y-101927932D01*
X139773740Y-101985000D01*
X140066260Y-101985000D01*
X140353158Y-101927932D01*
X140623411Y-101815990D01*
X140866632Y-101653475D01*
X141073475Y-101446632D01*
X141190000Y-101272240D01*
X141306525Y-101446632D01*
G36*
X129878498Y-86184180D02*
G01*
X129937463Y-86294494D01*
X130016815Y-86391185D01*
X130113506Y-86470537D01*
X130183000Y-86507683D01*
X130183001Y-89730239D01*
X130177509Y-89786000D01*
X130199423Y-90008498D01*
X130264324Y-90222446D01*
X130311438Y-90310589D01*
X130369717Y-90419623D01*
X130511552Y-90592449D01*
X130554860Y-90627991D01*
X131343928Y-91417060D01*
X131343928Y-92150000D01*
X131356188Y-92274482D01*
X131392498Y-92394180D01*
X131451463Y-92504494D01*
X131530815Y-92601185D01*
X131627506Y-92680537D01*
X131737820Y-92739502D01*
X131857518Y-92775812D01*
X131982000Y-92788072D01*
X133182000Y-92788072D01*
X133306482Y-92775812D01*
X133426180Y-92739502D01*
X133536494Y-92680537D01*
X133633185Y-92601185D01*
X133712537Y-92504494D01*
X133771502Y-92394180D01*
X133807812Y-92274482D01*
X133815829Y-92193079D01*
X133951750Y-92329000D01*
X135001000Y-92329000D01*
X135001000Y-92309000D01*
X135255000Y-92309000D01*
X135255000Y-92329000D01*
X136304250Y-92329000D01*
X136463000Y-92170250D01*
X136466072Y-91856000D01*
X136453812Y-91731518D01*
X136417502Y-91611820D01*
X136358537Y-91501506D01*
X136292494Y-91421032D01*
X136307978Y-91402165D01*
X136394666Y-91239985D01*
X136448047Y-91064009D01*
X136466072Y-90881000D01*
X136466072Y-90281000D01*
X136448047Y-90097991D01*
X136394666Y-89922015D01*
X136307978Y-89759835D01*
X136191317Y-89617683D01*
X136049165Y-89501022D01*
X135886985Y-89414334D01*
X135711009Y-89360953D01*
X135528000Y-89342928D01*
X134728000Y-89342928D01*
X134544991Y-89360953D01*
X134369015Y-89414334D01*
X134309773Y-89446000D01*
X133568830Y-89446000D01*
X133536494Y-89419463D01*
X133426180Y-89360498D01*
X133306482Y-89324188D01*
X133182000Y-89311928D01*
X132453000Y-89311928D01*
X132453000Y-88627120D01*
X137336530Y-88627120D01*
X137336530Y-89627880D01*
X137392713Y-89944313D01*
X137509549Y-90243705D01*
X137682549Y-90514551D01*
X137905064Y-90746442D01*
X138168543Y-90930467D01*
X138462861Y-91059553D01*
X138590666Y-91090499D01*
X138844020Y-90971145D01*
X138844020Y-88627120D01*
X139098020Y-88627120D01*
X139098020Y-90971145D01*
X139351374Y-91090499D01*
X139479179Y-91059553D01*
X139773497Y-90930467D01*
X140036976Y-90746442D01*
X140259491Y-90514551D01*
X140432491Y-90243705D01*
X140549327Y-89944313D01*
X140605510Y-89627880D01*
X140605510Y-88627120D01*
X139098020Y-88627120D01*
X138844020Y-88627120D01*
X137336530Y-88627120D01*
X132453000Y-88627120D01*
X132453000Y-86507683D01*
X132522494Y-86470537D01*
X132619185Y-86391185D01*
X132698537Y-86294494D01*
X132735683Y-86225000D01*
X137946296Y-86225000D01*
X137905064Y-86253798D01*
X137682549Y-86485689D01*
X137509549Y-86756535D01*
X137392713Y-87055927D01*
X137336530Y-87372360D01*
X137336530Y-88373120D01*
X138844020Y-88373120D01*
X138844020Y-88353120D01*
X139098020Y-88353120D01*
X139098020Y-88373120D01*
X140605510Y-88373120D01*
X140605510Y-87372360D01*
X140566162Y-87150743D01*
X143031868Y-89616450D01*
X142940758Y-89616450D01*
X142700634Y-89640100D01*
X142392531Y-89733562D01*
X142108583Y-89885336D01*
X141859699Y-90089589D01*
X141655446Y-90338473D01*
X141503672Y-90622421D01*
X141410210Y-90930524D01*
X141378652Y-91250940D01*
X141410210Y-91571356D01*
X141503672Y-91879459D01*
X141655446Y-92163407D01*
X141859699Y-92412291D01*
X142108583Y-92616544D01*
X142392531Y-92768318D01*
X142700634Y-92861780D01*
X142940758Y-92885430D01*
X143137000Y-92885430D01*
X143137001Y-94787839D01*
X143131509Y-94843600D01*
X143153423Y-95066098D01*
X143218324Y-95280046D01*
X143218325Y-95280047D01*
X143323717Y-95477223D01*
X143465552Y-95650049D01*
X143508860Y-95685591D01*
X143865000Y-96041731D01*
X143865001Y-99082317D01*
X143795506Y-99119463D01*
X143698815Y-99198815D01*
X143619463Y-99295506D01*
X143560498Y-99405820D01*
X143538487Y-99478380D01*
X143406632Y-99346525D01*
X143163411Y-99184010D01*
X142893158Y-99072068D01*
X142606260Y-99015000D01*
X142313740Y-99015000D01*
X142026842Y-99072068D01*
X141756589Y-99184010D01*
X141513368Y-99346525D01*
X141306525Y-99553368D01*
X141190000Y-99727760D01*
X141073475Y-99553368D01*
X140866632Y-99346525D01*
X140623411Y-99184010D01*
X140353158Y-99072068D01*
X140066260Y-99015000D01*
X139773740Y-99015000D01*
X139486842Y-99072068D01*
X139216589Y-99184010D01*
X138973368Y-99346525D01*
X138766525Y-99553368D01*
X138725344Y-99615000D01*
X138354269Y-99615000D01*
X138310800Y-99610719D01*
X138267331Y-99615000D01*
X138267323Y-99615000D01*
X138137310Y-99627805D01*
X137970486Y-99678411D01*
X137816741Y-99760589D01*
X137715753Y-99843468D01*
X137715751Y-99843470D01*
X137681983Y-99871183D01*
X137654270Y-99904951D01*
X135775122Y-101784100D01*
X127637937Y-101784100D01*
X126403837Y-100550000D01*
X126763928Y-100550000D01*
X126776188Y-100674482D01*
X126812498Y-100794180D01*
X126871463Y-100904494D01*
X126950815Y-101001185D01*
X127047506Y-101080537D01*
X127157820Y-101139502D01*
X127277518Y-101175812D01*
X127402000Y-101188072D01*
X130016250Y-101185000D01*
X130175000Y-101026250D01*
X130175000Y-97477000D01*
X130429000Y-97477000D01*
X130429000Y-101026250D01*
X130587750Y-101185000D01*
X133202000Y-101188072D01*
X133326482Y-101175812D01*
X133446180Y-101139502D01*
X133556494Y-101080537D01*
X133653185Y-101001185D01*
X133732537Y-100904494D01*
X133791502Y-100794180D01*
X133827812Y-100674482D01*
X133840072Y-100550000D01*
X133837000Y-97635750D01*
X133678250Y-97477000D01*
X130429000Y-97477000D01*
X130175000Y-97477000D01*
X126925750Y-97477000D01*
X126767000Y-97635750D01*
X126763928Y-100550000D01*
X126403837Y-100550000D01*
X126116589Y-100262753D01*
X126116589Y-95469646D01*
X126764636Y-94821599D01*
X126767000Y-97064250D01*
X126925750Y-97223000D01*
X130175000Y-97223000D01*
X130175000Y-93673750D01*
X130429000Y-93673750D01*
X130429000Y-97223000D01*
X133678250Y-97223000D01*
X133837000Y-97064250D01*
X133840072Y-94150000D01*
X133827812Y-94025518D01*
X133791502Y-93905820D01*
X133732537Y-93795506D01*
X133653185Y-93698815D01*
X133556494Y-93619463D01*
X133446180Y-93560498D01*
X133326482Y-93524188D01*
X133202000Y-93511928D01*
X130587750Y-93515000D01*
X130429000Y-93673750D01*
X130175000Y-93673750D01*
X130016250Y-93515000D01*
X128073519Y-93512717D01*
X128530236Y-93056000D01*
X133789928Y-93056000D01*
X133802188Y-93180482D01*
X133838498Y-93300180D01*
X133897463Y-93410494D01*
X133976815Y-93507185D01*
X134073506Y-93586537D01*
X134183820Y-93645502D01*
X134303518Y-93681812D01*
X134428000Y-93694072D01*
X134842250Y-93691000D01*
X135001000Y-93532250D01*
X135001000Y-92583000D01*
X135255000Y-92583000D01*
X135255000Y-93532250D01*
X135413750Y-93691000D01*
X135828000Y-93694072D01*
X135952482Y-93681812D01*
X136072180Y-93645502D01*
X136182494Y-93586537D01*
X136279185Y-93507185D01*
X136358537Y-93410494D01*
X136417502Y-93300180D01*
X136453812Y-93180482D01*
X136466072Y-93056000D01*
X136463000Y-92741750D01*
X136304250Y-92583000D01*
X135255000Y-92583000D01*
X135001000Y-92583000D01*
X133951750Y-92583000D01*
X133793000Y-92741750D01*
X133789928Y-93056000D01*
X128530236Y-93056000D01*
X128617049Y-92969187D01*
X128650817Y-92941474D01*
X128761411Y-92806716D01*
X128784015Y-92764427D01*
X128866180Y-92739502D01*
X128976494Y-92680537D01*
X129073185Y-92601185D01*
X129152537Y-92504494D01*
X129211502Y-92394180D01*
X129247812Y-92274482D01*
X129260072Y-92150000D01*
X129260072Y-89950000D01*
X129247812Y-89825518D01*
X129211502Y-89705820D01*
X129152537Y-89595506D01*
X129073185Y-89498815D01*
X128976494Y-89419463D01*
X128907000Y-89382317D01*
X128907000Y-88498578D01*
X129373050Y-88032529D01*
X129406817Y-88004817D01*
X129517411Y-87870059D01*
X129599589Y-87716313D01*
X129650195Y-87549490D01*
X129663000Y-87419477D01*
X129663000Y-87419467D01*
X129667281Y-87376001D01*
X129663000Y-87332535D01*
X129663000Y-86284656D01*
X129724632Y-86243475D01*
X129856487Y-86111620D01*
X129878498Y-86184180D01*
G37*
X129878498Y-86184180D02*
X129937463Y-86294494D01*
X130016815Y-86391185D01*
X130113506Y-86470537D01*
X130183000Y-86507683D01*
X130183001Y-89730239D01*
X130177509Y-89786000D01*
X130199423Y-90008498D01*
X130264324Y-90222446D01*
X130311438Y-90310589D01*
X130369717Y-90419623D01*
X130511552Y-90592449D01*
X130554860Y-90627991D01*
X131343928Y-91417060D01*
X131343928Y-92150000D01*
X131356188Y-92274482D01*
X131392498Y-92394180D01*
X131451463Y-92504494D01*
X131530815Y-92601185D01*
X131627506Y-92680537D01*
X131737820Y-92739502D01*
X131857518Y-92775812D01*
X131982000Y-92788072D01*
X133182000Y-92788072D01*
X133306482Y-92775812D01*
X133426180Y-92739502D01*
X133536494Y-92680537D01*
X133633185Y-92601185D01*
X133712537Y-92504494D01*
X133771502Y-92394180D01*
X133807812Y-92274482D01*
X133815829Y-92193079D01*
X133951750Y-92329000D01*
X135001000Y-92329000D01*
X135001000Y-92309000D01*
X135255000Y-92309000D01*
X135255000Y-92329000D01*
X136304250Y-92329000D01*
X136463000Y-92170250D01*
X136466072Y-91856000D01*
X136453812Y-91731518D01*
X136417502Y-91611820D01*
X136358537Y-91501506D01*
X136292494Y-91421032D01*
X136307978Y-91402165D01*
X136394666Y-91239985D01*
X136448047Y-91064009D01*
X136466072Y-90881000D01*
X136466072Y-90281000D01*
X136448047Y-90097991D01*
X136394666Y-89922015D01*
X136307978Y-89759835D01*
X136191317Y-89617683D01*
X136049165Y-89501022D01*
X135886985Y-89414334D01*
X135711009Y-89360953D01*
X135528000Y-89342928D01*
X134728000Y-89342928D01*
X134544991Y-89360953D01*
X134369015Y-89414334D01*
X134309773Y-89446000D01*
X133568830Y-89446000D01*
X133536494Y-89419463D01*
X133426180Y-89360498D01*
X133306482Y-89324188D01*
X133182000Y-89311928D01*
X132453000Y-89311928D01*
X132453000Y-88627120D01*
X137336530Y-88627120D01*
X137336530Y-89627880D01*
X137392713Y-89944313D01*
X137509549Y-90243705D01*
X137682549Y-90514551D01*
X137905064Y-90746442D01*
X138168543Y-90930467D01*
X138462861Y-91059553D01*
X138590666Y-91090499D01*
X138844020Y-90971145D01*
X138844020Y-88627120D01*
X139098020Y-88627120D01*
X139098020Y-90971145D01*
X139351374Y-91090499D01*
X139479179Y-91059553D01*
X139773497Y-90930467D01*
X140036976Y-90746442D01*
X140259491Y-90514551D01*
X140432491Y-90243705D01*
X140549327Y-89944313D01*
X140605510Y-89627880D01*
X140605510Y-88627120D01*
X139098020Y-88627120D01*
X138844020Y-88627120D01*
X137336530Y-88627120D01*
X132453000Y-88627120D01*
X132453000Y-86507683D01*
X132522494Y-86470537D01*
X132619185Y-86391185D01*
X132698537Y-86294494D01*
X132735683Y-86225000D01*
X137946296Y-86225000D01*
X137905064Y-86253798D01*
X137682549Y-86485689D01*
X137509549Y-86756535D01*
X137392713Y-87055927D01*
X137336530Y-87372360D01*
X137336530Y-88373120D01*
X138844020Y-88373120D01*
X138844020Y-88353120D01*
X139098020Y-88353120D01*
X139098020Y-88373120D01*
X140605510Y-88373120D01*
X140605510Y-87372360D01*
X140566162Y-87150743D01*
X143031868Y-89616450D01*
X142940758Y-89616450D01*
X142700634Y-89640100D01*
X142392531Y-89733562D01*
X142108583Y-89885336D01*
X141859699Y-90089589D01*
X141655446Y-90338473D01*
X141503672Y-90622421D01*
X141410210Y-90930524D01*
X141378652Y-91250940D01*
X141410210Y-91571356D01*
X141503672Y-91879459D01*
X141655446Y-92163407D01*
X141859699Y-92412291D01*
X142108583Y-92616544D01*
X142392531Y-92768318D01*
X142700634Y-92861780D01*
X142940758Y-92885430D01*
X143137000Y-92885430D01*
X143137001Y-94787839D01*
X143131509Y-94843600D01*
X143153423Y-95066098D01*
X143218324Y-95280046D01*
X143218325Y-95280047D01*
X143323717Y-95477223D01*
X143465552Y-95650049D01*
X143508860Y-95685591D01*
X143865000Y-96041731D01*
X143865001Y-99082317D01*
X143795506Y-99119463D01*
X143698815Y-99198815D01*
X143619463Y-99295506D01*
X143560498Y-99405820D01*
X143538487Y-99478380D01*
X143406632Y-99346525D01*
X143163411Y-99184010D01*
X142893158Y-99072068D01*
X142606260Y-99015000D01*
X142313740Y-99015000D01*
X142026842Y-99072068D01*
X141756589Y-99184010D01*
X141513368Y-99346525D01*
X141306525Y-99553368D01*
X141190000Y-99727760D01*
X141073475Y-99553368D01*
X140866632Y-99346525D01*
X140623411Y-99184010D01*
X140353158Y-99072068D01*
X140066260Y-99015000D01*
X139773740Y-99015000D01*
X139486842Y-99072068D01*
X139216589Y-99184010D01*
X138973368Y-99346525D01*
X138766525Y-99553368D01*
X138725344Y-99615000D01*
X138354269Y-99615000D01*
X138310800Y-99610719D01*
X138267331Y-99615000D01*
X138267323Y-99615000D01*
X138137310Y-99627805D01*
X137970486Y-99678411D01*
X137816741Y-99760589D01*
X137715753Y-99843468D01*
X137715751Y-99843470D01*
X137681983Y-99871183D01*
X137654270Y-99904951D01*
X135775122Y-101784100D01*
X127637937Y-101784100D01*
X126403837Y-100550000D01*
X126763928Y-100550000D01*
X126776188Y-100674482D01*
X126812498Y-100794180D01*
X126871463Y-100904494D01*
X126950815Y-101001185D01*
X127047506Y-101080537D01*
X127157820Y-101139502D01*
X127277518Y-101175812D01*
X127402000Y-101188072D01*
X130016250Y-101185000D01*
X130175000Y-101026250D01*
X130175000Y-97477000D01*
X130429000Y-97477000D01*
X130429000Y-101026250D01*
X130587750Y-101185000D01*
X133202000Y-101188072D01*
X133326482Y-101175812D01*
X133446180Y-101139502D01*
X133556494Y-101080537D01*
X133653185Y-101001185D01*
X133732537Y-100904494D01*
X133791502Y-100794180D01*
X133827812Y-100674482D01*
X133840072Y-100550000D01*
X133837000Y-97635750D01*
X133678250Y-97477000D01*
X130429000Y-97477000D01*
X130175000Y-97477000D01*
X126925750Y-97477000D01*
X126767000Y-97635750D01*
X126763928Y-100550000D01*
X126403837Y-100550000D01*
X126116589Y-100262753D01*
X126116589Y-95469646D01*
X126764636Y-94821599D01*
X126767000Y-97064250D01*
X126925750Y-97223000D01*
X130175000Y-97223000D01*
X130175000Y-93673750D01*
X130429000Y-93673750D01*
X130429000Y-97223000D01*
X133678250Y-97223000D01*
X133837000Y-97064250D01*
X133840072Y-94150000D01*
X133827812Y-94025518D01*
X133791502Y-93905820D01*
X133732537Y-93795506D01*
X133653185Y-93698815D01*
X133556494Y-93619463D01*
X133446180Y-93560498D01*
X133326482Y-93524188D01*
X133202000Y-93511928D01*
X130587750Y-93515000D01*
X130429000Y-93673750D01*
X130175000Y-93673750D01*
X130016250Y-93515000D01*
X128073519Y-93512717D01*
X128530236Y-93056000D01*
X133789928Y-93056000D01*
X133802188Y-93180482D01*
X133838498Y-93300180D01*
X133897463Y-93410494D01*
X133976815Y-93507185D01*
X134073506Y-93586537D01*
X134183820Y-93645502D01*
X134303518Y-93681812D01*
X134428000Y-93694072D01*
X134842250Y-93691000D01*
X135001000Y-93532250D01*
X135001000Y-92583000D01*
X135255000Y-92583000D01*
X135255000Y-93532250D01*
X135413750Y-93691000D01*
X135828000Y-93694072D01*
X135952482Y-93681812D01*
X136072180Y-93645502D01*
X136182494Y-93586537D01*
X136279185Y-93507185D01*
X136358537Y-93410494D01*
X136417502Y-93300180D01*
X136453812Y-93180482D01*
X136466072Y-93056000D01*
X136463000Y-92741750D01*
X136304250Y-92583000D01*
X135255000Y-92583000D01*
X135001000Y-92583000D01*
X133951750Y-92583000D01*
X133793000Y-92741750D01*
X133789928Y-93056000D01*
X128530236Y-93056000D01*
X128617049Y-92969187D01*
X128650817Y-92941474D01*
X128761411Y-92806716D01*
X128784015Y-92764427D01*
X128866180Y-92739502D01*
X128976494Y-92680537D01*
X129073185Y-92601185D01*
X129152537Y-92504494D01*
X129211502Y-92394180D01*
X129247812Y-92274482D01*
X129260072Y-92150000D01*
X129260072Y-89950000D01*
X129247812Y-89825518D01*
X129211502Y-89705820D01*
X129152537Y-89595506D01*
X129073185Y-89498815D01*
X128976494Y-89419463D01*
X128907000Y-89382317D01*
X128907000Y-88498578D01*
X129373050Y-88032529D01*
X129406817Y-88004817D01*
X129517411Y-87870059D01*
X129599589Y-87716313D01*
X129650195Y-87549490D01*
X129663000Y-87419477D01*
X129663000Y-87419467D01*
X129667281Y-87376001D01*
X129663000Y-87332535D01*
X129663000Y-86284656D01*
X129724632Y-86243475D01*
X129856487Y-86111620D01*
X129878498Y-86184180D01*
G36*
X101414825Y-104197382D02*
G01*
X101208534Y-104506118D01*
X101066439Y-104849166D01*
X100994000Y-105213344D01*
X100994000Y-105584656D01*
X101066439Y-105948834D01*
X101208534Y-106291882D01*
X101414825Y-106600618D01*
X101677382Y-106863175D01*
X101986118Y-107069466D01*
X102329166Y-107211561D01*
X102693344Y-107284000D01*
X103064656Y-107284000D01*
X103428834Y-107211561D01*
X103690532Y-107103162D01*
X103669000Y-107211409D01*
X103669000Y-107656591D01*
X103755851Y-108093218D01*
X103926214Y-108504511D01*
X104173544Y-108874666D01*
X104488334Y-109189456D01*
X104858489Y-109436786D01*
X105269782Y-109607149D01*
X105706409Y-109694000D01*
X106151591Y-109694000D01*
X106588218Y-109607149D01*
X106999511Y-109436786D01*
X107369666Y-109189456D01*
X107684456Y-108874666D01*
X107931786Y-108504511D01*
X108102149Y-108093218D01*
X108189000Y-107656591D01*
X108189000Y-107211409D01*
X108167468Y-107103162D01*
X108429166Y-107211561D01*
X108793344Y-107284000D01*
X109164656Y-107284000D01*
X109528834Y-107211561D01*
X109871882Y-107069466D01*
X110180618Y-106863175D01*
X110443175Y-106600618D01*
X110649466Y-106291882D01*
X110791561Y-105948834D01*
X110864000Y-105584656D01*
X110864000Y-105523500D01*
X125534928Y-105523500D01*
X125538000Y-105837750D01*
X125696750Y-105996500D01*
X126746000Y-105996500D01*
X126746000Y-105047250D01*
X127000000Y-105047250D01*
X127000000Y-105996500D01*
X128049250Y-105996500D01*
X128208000Y-105837750D01*
X128211072Y-105523500D01*
X128198812Y-105399018D01*
X128162502Y-105279320D01*
X128103537Y-105169006D01*
X128024185Y-105072315D01*
X127927494Y-104992963D01*
X127817180Y-104933998D01*
X127697482Y-104897688D01*
X127573000Y-104885428D01*
X127158750Y-104888500D01*
X127000000Y-105047250D01*
X126746000Y-105047250D01*
X126587250Y-104888500D01*
X126173000Y-104885428D01*
X126048518Y-104897688D01*
X125928820Y-104933998D01*
X125818506Y-104992963D01*
X125721815Y-105072315D01*
X125642463Y-105169006D01*
X125583498Y-105279320D01*
X125547188Y-105399018D01*
X125534928Y-105523500D01*
X110864000Y-105523500D01*
X110864000Y-105213344D01*
X110791561Y-104849166D01*
X110649466Y-104506118D01*
X110443175Y-104197382D01*
X110372793Y-104127000D01*
X127947394Y-104127000D01*
X128873000Y-105052606D01*
X128873000Y-129340000D01*
X102032279Y-129340000D01*
X101740340Y-129311375D01*
X101490571Y-129235965D01*
X101260206Y-129113477D01*
X101058021Y-128948579D01*
X100891712Y-128747546D01*
X100767622Y-128518046D01*
X100690469Y-128268805D01*
X100660000Y-127978911D01*
X100660000Y-125779872D01*
X101765000Y-125779872D01*
X101765000Y-126220128D01*
X101850890Y-126651925D01*
X102019369Y-127058669D01*
X102263962Y-127424729D01*
X102575271Y-127736038D01*
X102941331Y-127980631D01*
X103348075Y-128149110D01*
X103779872Y-128235000D01*
X104220128Y-128235000D01*
X104651925Y-128149110D01*
X105058669Y-127980631D01*
X105424729Y-127736038D01*
X105736038Y-127424729D01*
X105980631Y-127058669D01*
X106149110Y-126651925D01*
X106235000Y-126220128D01*
X106235000Y-125779872D01*
X106149110Y-125348075D01*
X105980631Y-124941331D01*
X105736038Y-124575271D01*
X105424729Y-124263962D01*
X105058669Y-124019369D01*
X104651925Y-123850890D01*
X104220128Y-123765000D01*
X103779872Y-123765000D01*
X103348075Y-123850890D01*
X102941331Y-124019369D01*
X102575271Y-124263962D01*
X102263962Y-124575271D01*
X102019369Y-124941331D01*
X101850890Y-125348075D01*
X101765000Y-125779872D01*
X100660000Y-125779872D01*
X100660000Y-120713344D01*
X100994000Y-120713344D01*
X100994000Y-121084656D01*
X101066439Y-121448834D01*
X101208534Y-121791882D01*
X101414825Y-122100618D01*
X101677382Y-122363175D01*
X101986118Y-122569466D01*
X102329166Y-122711561D01*
X102693344Y-122784000D01*
X103064656Y-122784000D01*
X103428834Y-122711561D01*
X103771882Y-122569466D01*
X104080618Y-122363175D01*
X104343175Y-122100618D01*
X104549466Y-121791882D01*
X104691561Y-121448834D01*
X104764000Y-121084656D01*
X104764000Y-120803650D01*
X104858489Y-120866786D01*
X105269782Y-121037149D01*
X105706409Y-121124000D01*
X106151591Y-121124000D01*
X106588218Y-121037149D01*
X106999511Y-120866786D01*
X107094000Y-120803650D01*
X107094000Y-121084656D01*
X107166439Y-121448834D01*
X107308534Y-121791882D01*
X107514825Y-122100618D01*
X107777382Y-122363175D01*
X108086118Y-122569466D01*
X108429166Y-122711561D01*
X108793344Y-122784000D01*
X109164656Y-122784000D01*
X109528834Y-122711561D01*
X109871882Y-122569466D01*
X110180618Y-122363175D01*
X110443175Y-122100618D01*
X110649466Y-121791882D01*
X110791561Y-121448834D01*
X110864000Y-121084656D01*
X110864000Y-120713344D01*
X110791561Y-120349166D01*
X110649466Y-120006118D01*
X110443175Y-119697382D01*
X110180618Y-119434825D01*
X109871882Y-119228534D01*
X109528834Y-119086439D01*
X109164656Y-119014000D01*
X108793344Y-119014000D01*
X108429166Y-119086439D01*
X108167468Y-119194838D01*
X108189000Y-119086591D01*
X108189000Y-118641409D01*
X108102149Y-118204782D01*
X107931786Y-117793489D01*
X107684456Y-117423334D01*
X107369666Y-117108544D01*
X106999511Y-116861214D01*
X106588218Y-116690851D01*
X106151591Y-116604000D01*
X105706409Y-116604000D01*
X105269782Y-116690851D01*
X104858489Y-116861214D01*
X104488334Y-117108544D01*
X104173544Y-117423334D01*
X103926214Y-117793489D01*
X103755851Y-118204782D01*
X103669000Y-118641409D01*
X103669000Y-119086591D01*
X103690532Y-119194838D01*
X103428834Y-119086439D01*
X103064656Y-119014000D01*
X102693344Y-119014000D01*
X102329166Y-119086439D01*
X101986118Y-119228534D01*
X101677382Y-119434825D01*
X101414825Y-119697382D01*
X101208534Y-120006118D01*
X101066439Y-120349166D01*
X100994000Y-120713344D01*
X100660000Y-120713344D01*
X100660000Y-110737000D01*
X109346719Y-110737000D01*
X109351001Y-110780479D01*
X109351000Y-118066531D01*
X109346719Y-118110000D01*
X109351000Y-118153469D01*
X109351000Y-118153476D01*
X109359248Y-118237222D01*
X109363805Y-118283490D01*
X109374359Y-118318280D01*
X109414411Y-118450312D01*
X109496589Y-118604058D01*
X109607183Y-118738817D01*
X109640956Y-118766534D01*
X112119470Y-121245049D01*
X112147183Y-121278817D01*
X112180951Y-121306530D01*
X112180953Y-121306532D01*
X112252452Y-121365210D01*
X112281941Y-121389411D01*
X112435687Y-121471589D01*
X112602510Y-121522195D01*
X112732523Y-121535000D01*
X112732533Y-121535000D01*
X112775999Y-121539281D01*
X112819465Y-121535000D01*
X121622531Y-121535000D01*
X121666000Y-121539281D01*
X121709469Y-121535000D01*
X121709477Y-121535000D01*
X121839490Y-121522195D01*
X122006313Y-121471589D01*
X122160059Y-121389411D01*
X122294817Y-121278817D01*
X122322534Y-121245044D01*
X124649858Y-118917720D01*
X125235438Y-118917720D01*
X125247698Y-119042202D01*
X125284008Y-119161900D01*
X125342973Y-119272214D01*
X125422325Y-119368905D01*
X125519016Y-119448257D01*
X125629330Y-119507222D01*
X125749028Y-119543532D01*
X125873510Y-119555792D01*
X126587250Y-119552720D01*
X126746000Y-119393970D01*
X126746000Y-118745000D01*
X127000000Y-118745000D01*
X127000000Y-119393970D01*
X127158750Y-119552720D01*
X127872490Y-119555792D01*
X127996972Y-119543532D01*
X128116670Y-119507222D01*
X128226984Y-119448257D01*
X128323675Y-119368905D01*
X128403027Y-119272214D01*
X128461992Y-119161900D01*
X128498302Y-119042202D01*
X128510562Y-118917720D01*
X128507490Y-118903750D01*
X128348740Y-118745000D01*
X127000000Y-118745000D01*
X126746000Y-118745000D01*
X125397260Y-118745000D01*
X125238510Y-118903750D01*
X125235438Y-118917720D01*
X124649858Y-118917720D01*
X125237937Y-118329642D01*
X125238510Y-118332250D01*
X125397260Y-118491000D01*
X126746000Y-118491000D01*
X126746000Y-118471000D01*
X127000000Y-118471000D01*
X127000000Y-118491000D01*
X128348740Y-118491000D01*
X128507490Y-118332250D01*
X128510562Y-118318280D01*
X128498302Y-118193798D01*
X128461992Y-118074100D01*
X128413297Y-117983000D01*
X128461992Y-117891900D01*
X128498302Y-117772202D01*
X128510562Y-117647720D01*
X128510562Y-117048280D01*
X128498302Y-116923798D01*
X128461992Y-116804100D01*
X128413297Y-116713000D01*
X128461992Y-116621900D01*
X128498302Y-116502202D01*
X128510562Y-116377720D01*
X128510562Y-115778280D01*
X128498302Y-115653798D01*
X128461992Y-115534100D01*
X128413297Y-115443000D01*
X128461992Y-115351900D01*
X128498302Y-115232202D01*
X128510562Y-115107720D01*
X128510562Y-114508280D01*
X128498302Y-114383798D01*
X128461992Y-114264100D01*
X128413297Y-114173000D01*
X128461992Y-114081900D01*
X128498302Y-113962202D01*
X128510562Y-113837720D01*
X128510562Y-113238280D01*
X128498302Y-113113798D01*
X128461992Y-112994100D01*
X128413297Y-112903000D01*
X128461992Y-112811900D01*
X128498302Y-112692202D01*
X128510562Y-112567720D01*
X128510562Y-111968280D01*
X128498302Y-111843798D01*
X128461992Y-111724100D01*
X128413297Y-111633000D01*
X128461992Y-111541900D01*
X128498302Y-111422202D01*
X128510562Y-111297720D01*
X128507490Y-111283750D01*
X128348740Y-111125000D01*
X127000000Y-111125000D01*
X127000000Y-111145000D01*
X126746000Y-111145000D01*
X126746000Y-111125000D01*
X125397260Y-111125000D01*
X125238510Y-111283750D01*
X125235438Y-111297720D01*
X125235499Y-111298341D01*
X123158347Y-109221190D01*
X123133764Y-109191236D01*
X123014233Y-109093138D01*
X122877860Y-109020246D01*
X122729887Y-108975359D01*
X122614561Y-108964000D01*
X122614553Y-108964000D01*
X122576000Y-108960203D01*
X122537447Y-108964000D01*
X121419261Y-108964000D01*
X121376232Y-108883500D01*
X125545662Y-108883500D01*
X125519016Y-108897743D01*
X125422325Y-108977095D01*
X125342973Y-109073786D01*
X125284008Y-109184100D01*
X125247698Y-109303798D01*
X125235438Y-109428280D01*
X125235438Y-110027720D01*
X125247698Y-110152202D01*
X125284008Y-110271900D01*
X125332703Y-110363000D01*
X125284008Y-110454100D01*
X125247698Y-110573798D01*
X125235438Y-110698280D01*
X125238510Y-110712250D01*
X125397260Y-110871000D01*
X126746000Y-110871000D01*
X126746000Y-110851000D01*
X127000000Y-110851000D01*
X127000000Y-110871000D01*
X128348740Y-110871000D01*
X128507490Y-110712250D01*
X128510562Y-110698280D01*
X128498302Y-110573798D01*
X128461992Y-110454100D01*
X128413297Y-110363000D01*
X128461992Y-110271900D01*
X128498302Y-110152202D01*
X128510562Y-110027720D01*
X128510562Y-109428280D01*
X128498302Y-109303798D01*
X128461992Y-109184100D01*
X128403027Y-109073786D01*
X128323675Y-108977095D01*
X128226984Y-108897743D01*
X128116670Y-108838778D01*
X128053074Y-108819486D01*
X128139666Y-108657485D01*
X128193047Y-108481509D01*
X128211072Y-108298500D01*
X128211072Y-107698500D01*
X128193047Y-107515491D01*
X128139666Y-107339515D01*
X128052978Y-107177335D01*
X128037494Y-107158468D01*
X128103537Y-107077994D01*
X128162502Y-106967680D01*
X128198812Y-106847982D01*
X128211072Y-106723500D01*
X128208000Y-106409250D01*
X128049250Y-106250500D01*
X127000000Y-106250500D01*
X127000000Y-106270500D01*
X126746000Y-106270500D01*
X126746000Y-106250500D01*
X125696750Y-106250500D01*
X125538000Y-106409250D01*
X125534928Y-106723500D01*
X125547188Y-106847982D01*
X125583498Y-106967680D01*
X125642463Y-107077994D01*
X125671602Y-107113500D01*
X113017969Y-107113500D01*
X112974500Y-107109219D01*
X112931031Y-107113500D01*
X112931023Y-107113500D01*
X112801010Y-107126305D01*
X112634186Y-107176911D01*
X112480441Y-107259089D01*
X112379453Y-107341968D01*
X112379451Y-107341970D01*
X112346515Y-107369000D01*
X112137514Y-107369000D01*
X111879595Y-107420304D01*
X111636641Y-107520939D01*
X111417987Y-107667038D01*
X111232038Y-107852987D01*
X111085939Y-108071641D01*
X110985304Y-108314595D01*
X110934000Y-108572514D01*
X110934000Y-108787421D01*
X109640951Y-110080471D01*
X109607184Y-110108183D01*
X109579471Y-110141951D01*
X109579468Y-110141954D01*
X109496590Y-110242941D01*
X109414412Y-110396687D01*
X109363805Y-110563510D01*
X109346719Y-110737000D01*
X100660000Y-110737000D01*
X100660000Y-104127000D01*
X101485207Y-104127000D01*
X101414825Y-104197382D01*
G37*
X101414825Y-104197382D02*
X101208534Y-104506118D01*
X101066439Y-104849166D01*
X100994000Y-105213344D01*
X100994000Y-105584656D01*
X101066439Y-105948834D01*
X101208534Y-106291882D01*
X101414825Y-106600618D01*
X101677382Y-106863175D01*
X101986118Y-107069466D01*
X102329166Y-107211561D01*
X102693344Y-107284000D01*
X103064656Y-107284000D01*
X103428834Y-107211561D01*
X103690532Y-107103162D01*
X103669000Y-107211409D01*
X103669000Y-107656591D01*
X103755851Y-108093218D01*
X103926214Y-108504511D01*
X104173544Y-108874666D01*
X104488334Y-109189456D01*
X104858489Y-109436786D01*
X105269782Y-109607149D01*
X105706409Y-109694000D01*
X106151591Y-109694000D01*
X106588218Y-109607149D01*
X106999511Y-109436786D01*
X107369666Y-109189456D01*
X107684456Y-108874666D01*
X107931786Y-108504511D01*
X108102149Y-108093218D01*
X108189000Y-107656591D01*
X108189000Y-107211409D01*
X108167468Y-107103162D01*
X108429166Y-107211561D01*
X108793344Y-107284000D01*
X109164656Y-107284000D01*
X109528834Y-107211561D01*
X109871882Y-107069466D01*
X110180618Y-106863175D01*
X110443175Y-106600618D01*
X110649466Y-106291882D01*
X110791561Y-105948834D01*
X110864000Y-105584656D01*
X110864000Y-105523500D01*
X125534928Y-105523500D01*
X125538000Y-105837750D01*
X125696750Y-105996500D01*
X126746000Y-105996500D01*
X126746000Y-105047250D01*
X127000000Y-105047250D01*
X127000000Y-105996500D01*
X128049250Y-105996500D01*
X128208000Y-105837750D01*
X128211072Y-105523500D01*
X128198812Y-105399018D01*
X128162502Y-105279320D01*
X128103537Y-105169006D01*
X128024185Y-105072315D01*
X127927494Y-104992963D01*
X127817180Y-104933998D01*
X127697482Y-104897688D01*
X127573000Y-104885428D01*
X127158750Y-104888500D01*
X127000000Y-105047250D01*
X126746000Y-105047250D01*
X126587250Y-104888500D01*
X126173000Y-104885428D01*
X126048518Y-104897688D01*
X125928820Y-104933998D01*
X125818506Y-104992963D01*
X125721815Y-105072315D01*
X125642463Y-105169006D01*
X125583498Y-105279320D01*
X125547188Y-105399018D01*
X125534928Y-105523500D01*
X110864000Y-105523500D01*
X110864000Y-105213344D01*
X110791561Y-104849166D01*
X110649466Y-104506118D01*
X110443175Y-104197382D01*
X110372793Y-104127000D01*
X127947394Y-104127000D01*
X128873000Y-105052606D01*
X128873000Y-129340000D01*
X102032279Y-129340000D01*
X101740340Y-129311375D01*
X101490571Y-129235965D01*
X101260206Y-129113477D01*
X101058021Y-128948579D01*
X100891712Y-128747546D01*
X100767622Y-128518046D01*
X100690469Y-128268805D01*
X100660000Y-127978911D01*
X100660000Y-125779872D01*
X101765000Y-125779872D01*
X101765000Y-126220128D01*
X101850890Y-126651925D01*
X102019369Y-127058669D01*
X102263962Y-127424729D01*
X102575271Y-127736038D01*
X102941331Y-127980631D01*
X103348075Y-128149110D01*
X103779872Y-128235000D01*
X104220128Y-128235000D01*
X104651925Y-128149110D01*
X105058669Y-127980631D01*
X105424729Y-127736038D01*
X105736038Y-127424729D01*
X105980631Y-127058669D01*
X106149110Y-126651925D01*
X106235000Y-126220128D01*
X106235000Y-125779872D01*
X106149110Y-125348075D01*
X105980631Y-124941331D01*
X105736038Y-124575271D01*
X105424729Y-124263962D01*
X105058669Y-124019369D01*
X104651925Y-123850890D01*
X104220128Y-123765000D01*
X103779872Y-123765000D01*
X103348075Y-123850890D01*
X102941331Y-124019369D01*
X102575271Y-124263962D01*
X102263962Y-124575271D01*
X102019369Y-124941331D01*
X101850890Y-125348075D01*
X101765000Y-125779872D01*
X100660000Y-125779872D01*
X100660000Y-120713344D01*
X100994000Y-120713344D01*
X100994000Y-121084656D01*
X101066439Y-121448834D01*
X101208534Y-121791882D01*
X101414825Y-122100618D01*
X101677382Y-122363175D01*
X101986118Y-122569466D01*
X102329166Y-122711561D01*
X102693344Y-122784000D01*
X103064656Y-122784000D01*
X103428834Y-122711561D01*
X103771882Y-122569466D01*
X104080618Y-122363175D01*
X104343175Y-122100618D01*
X104549466Y-121791882D01*
X104691561Y-121448834D01*
X104764000Y-121084656D01*
X104764000Y-120803650D01*
X104858489Y-120866786D01*
X105269782Y-121037149D01*
X105706409Y-121124000D01*
X106151591Y-121124000D01*
X106588218Y-121037149D01*
X106999511Y-120866786D01*
X107094000Y-120803650D01*
X107094000Y-121084656D01*
X107166439Y-121448834D01*
X107308534Y-121791882D01*
X107514825Y-122100618D01*
X107777382Y-122363175D01*
X108086118Y-122569466D01*
X108429166Y-122711561D01*
X108793344Y-122784000D01*
X109164656Y-122784000D01*
X109528834Y-122711561D01*
X109871882Y-122569466D01*
X110180618Y-122363175D01*
X110443175Y-122100618D01*
X110649466Y-121791882D01*
X110791561Y-121448834D01*
X110864000Y-121084656D01*
X110864000Y-120713344D01*
X110791561Y-120349166D01*
X110649466Y-120006118D01*
X110443175Y-119697382D01*
X110180618Y-119434825D01*
X109871882Y-119228534D01*
X109528834Y-119086439D01*
X109164656Y-119014000D01*
X108793344Y-119014000D01*
X108429166Y-119086439D01*
X108167468Y-119194838D01*
X108189000Y-119086591D01*
X108189000Y-118641409D01*
X108102149Y-118204782D01*
X107931786Y-117793489D01*
X107684456Y-117423334D01*
X107369666Y-117108544D01*
X106999511Y-116861214D01*
X106588218Y-116690851D01*
X106151591Y-116604000D01*
X105706409Y-116604000D01*
X105269782Y-116690851D01*
X104858489Y-116861214D01*
X104488334Y-117108544D01*
X104173544Y-117423334D01*
X103926214Y-117793489D01*
X103755851Y-118204782D01*
X103669000Y-118641409D01*
X103669000Y-119086591D01*
X103690532Y-119194838D01*
X103428834Y-119086439D01*
X103064656Y-119014000D01*
X102693344Y-119014000D01*
X102329166Y-119086439D01*
X101986118Y-119228534D01*
X101677382Y-119434825D01*
X101414825Y-119697382D01*
X101208534Y-120006118D01*
X101066439Y-120349166D01*
X100994000Y-120713344D01*
X100660000Y-120713344D01*
X100660000Y-110737000D01*
X109346719Y-110737000D01*
X109351001Y-110780479D01*
X109351000Y-118066531D01*
X109346719Y-118110000D01*
X109351000Y-118153469D01*
X109351000Y-118153476D01*
X109359248Y-118237222D01*
X109363805Y-118283490D01*
X109374359Y-118318280D01*
X109414411Y-118450312D01*
X109496589Y-118604058D01*
X109607183Y-118738817D01*
X109640956Y-118766534D01*
X112119470Y-121245049D01*
X112147183Y-121278817D01*
X112180951Y-121306530D01*
X112180953Y-121306532D01*
X112252452Y-121365210D01*
X112281941Y-121389411D01*
X112435687Y-121471589D01*
X112602510Y-121522195D01*
X112732523Y-121535000D01*
X112732533Y-121535000D01*
X112775999Y-121539281D01*
X112819465Y-121535000D01*
X121622531Y-121535000D01*
X121666000Y-121539281D01*
X121709469Y-121535000D01*
X121709477Y-121535000D01*
X121839490Y-121522195D01*
X122006313Y-121471589D01*
X122160059Y-121389411D01*
X122294817Y-121278817D01*
X122322534Y-121245044D01*
X124649858Y-118917720D01*
X125235438Y-118917720D01*
X125247698Y-119042202D01*
X125284008Y-119161900D01*
X125342973Y-119272214D01*
X125422325Y-119368905D01*
X125519016Y-119448257D01*
X125629330Y-119507222D01*
X125749028Y-119543532D01*
X125873510Y-119555792D01*
X126587250Y-119552720D01*
X126746000Y-119393970D01*
X126746000Y-118745000D01*
X127000000Y-118745000D01*
X127000000Y-119393970D01*
X127158750Y-119552720D01*
X127872490Y-119555792D01*
X127996972Y-119543532D01*
X128116670Y-119507222D01*
X128226984Y-119448257D01*
X128323675Y-119368905D01*
X128403027Y-119272214D01*
X128461992Y-119161900D01*
X128498302Y-119042202D01*
X128510562Y-118917720D01*
X128507490Y-118903750D01*
X128348740Y-118745000D01*
X127000000Y-118745000D01*
X126746000Y-118745000D01*
X125397260Y-118745000D01*
X125238510Y-118903750D01*
X125235438Y-118917720D01*
X124649858Y-118917720D01*
X125237937Y-118329642D01*
X125238510Y-118332250D01*
X125397260Y-118491000D01*
X126746000Y-118491000D01*
X126746000Y-118471000D01*
X127000000Y-118471000D01*
X127000000Y-118491000D01*
X128348740Y-118491000D01*
X128507490Y-118332250D01*
X128510562Y-118318280D01*
X128498302Y-118193798D01*
X128461992Y-118074100D01*
X128413297Y-117983000D01*
X128461992Y-117891900D01*
X128498302Y-117772202D01*
X128510562Y-117647720D01*
X128510562Y-117048280D01*
X128498302Y-116923798D01*
X128461992Y-116804100D01*
X128413297Y-116713000D01*
X128461992Y-116621900D01*
X128498302Y-116502202D01*
X128510562Y-116377720D01*
X128510562Y-115778280D01*
X128498302Y-115653798D01*
X128461992Y-115534100D01*
X128413297Y-115443000D01*
X128461992Y-115351900D01*
X128498302Y-115232202D01*
X128510562Y-115107720D01*
X128510562Y-114508280D01*
X128498302Y-114383798D01*
X128461992Y-114264100D01*
X128413297Y-114173000D01*
X128461992Y-114081900D01*
X128498302Y-113962202D01*
X128510562Y-113837720D01*
X128510562Y-113238280D01*
X128498302Y-113113798D01*
X128461992Y-112994100D01*
X128413297Y-112903000D01*
X128461992Y-112811900D01*
X128498302Y-112692202D01*
X128510562Y-112567720D01*
X128510562Y-111968280D01*
X128498302Y-111843798D01*
X128461992Y-111724100D01*
X128413297Y-111633000D01*
X128461992Y-111541900D01*
X128498302Y-111422202D01*
X128510562Y-111297720D01*
X128507490Y-111283750D01*
X128348740Y-111125000D01*
X127000000Y-111125000D01*
X127000000Y-111145000D01*
X126746000Y-111145000D01*
X126746000Y-111125000D01*
X125397260Y-111125000D01*
X125238510Y-111283750D01*
X125235438Y-111297720D01*
X125235499Y-111298341D01*
X123158347Y-109221190D01*
X123133764Y-109191236D01*
X123014233Y-109093138D01*
X122877860Y-109020246D01*
X122729887Y-108975359D01*
X122614561Y-108964000D01*
X122614553Y-108964000D01*
X122576000Y-108960203D01*
X122537447Y-108964000D01*
X121419261Y-108964000D01*
X121376232Y-108883500D01*
X125545662Y-108883500D01*
X125519016Y-108897743D01*
X125422325Y-108977095D01*
X125342973Y-109073786D01*
X125284008Y-109184100D01*
X125247698Y-109303798D01*
X125235438Y-109428280D01*
X125235438Y-110027720D01*
X125247698Y-110152202D01*
X125284008Y-110271900D01*
X125332703Y-110363000D01*
X125284008Y-110454100D01*
X125247698Y-110573798D01*
X125235438Y-110698280D01*
X125238510Y-110712250D01*
X125397260Y-110871000D01*
X126746000Y-110871000D01*
X126746000Y-110851000D01*
X127000000Y-110851000D01*
X127000000Y-110871000D01*
X128348740Y-110871000D01*
X128507490Y-110712250D01*
X128510562Y-110698280D01*
X128498302Y-110573798D01*
X128461992Y-110454100D01*
X128413297Y-110363000D01*
X128461992Y-110271900D01*
X128498302Y-110152202D01*
X128510562Y-110027720D01*
X128510562Y-109428280D01*
X128498302Y-109303798D01*
X128461992Y-109184100D01*
X128403027Y-109073786D01*
X128323675Y-108977095D01*
X128226984Y-108897743D01*
X128116670Y-108838778D01*
X128053074Y-108819486D01*
X128139666Y-108657485D01*
X128193047Y-108481509D01*
X128211072Y-108298500D01*
X128211072Y-107698500D01*
X128193047Y-107515491D01*
X128139666Y-107339515D01*
X128052978Y-107177335D01*
X128037494Y-107158468D01*
X128103537Y-107077994D01*
X128162502Y-106967680D01*
X128198812Y-106847982D01*
X128211072Y-106723500D01*
X128208000Y-106409250D01*
X128049250Y-106250500D01*
X127000000Y-106250500D01*
X127000000Y-106270500D01*
X126746000Y-106270500D01*
X126746000Y-106250500D01*
X125696750Y-106250500D01*
X125538000Y-106409250D01*
X125534928Y-106723500D01*
X125547188Y-106847982D01*
X125583498Y-106967680D01*
X125642463Y-107077994D01*
X125671602Y-107113500D01*
X113017969Y-107113500D01*
X112974500Y-107109219D01*
X112931031Y-107113500D01*
X112931023Y-107113500D01*
X112801010Y-107126305D01*
X112634186Y-107176911D01*
X112480441Y-107259089D01*
X112379453Y-107341968D01*
X112379451Y-107341970D01*
X112346515Y-107369000D01*
X112137514Y-107369000D01*
X111879595Y-107420304D01*
X111636641Y-107520939D01*
X111417987Y-107667038D01*
X111232038Y-107852987D01*
X111085939Y-108071641D01*
X110985304Y-108314595D01*
X110934000Y-108572514D01*
X110934000Y-108787421D01*
X109640951Y-110080471D01*
X109607184Y-110108183D01*
X109579471Y-110141951D01*
X109579468Y-110141954D01*
X109496590Y-110242941D01*
X109414412Y-110396687D01*
X109363805Y-110563510D01*
X109346719Y-110737000D01*
X100660000Y-110737000D01*
X100660000Y-104127000D01*
X101485207Y-104127000D01*
X101414825Y-104197382D01*
G36*
X113957987Y-108937038D02*
G01*
X113772038Y-109122987D01*
X113625939Y-109341641D01*
X113525304Y-109584595D01*
X113474000Y-109842514D01*
X113474000Y-110105486D01*
X113525304Y-110363405D01*
X113625939Y-110606359D01*
X113772038Y-110825013D01*
X113957987Y-111010962D01*
X114176641Y-111157061D01*
X114386530Y-111244000D01*
X114176641Y-111330939D01*
X113957987Y-111477038D01*
X113772038Y-111662987D01*
X113625939Y-111881641D01*
X113525304Y-112124595D01*
X113474000Y-112382514D01*
X113474000Y-112645486D01*
X113525304Y-112903405D01*
X113625939Y-113146359D01*
X113772038Y-113365013D01*
X113957987Y-113550962D01*
X114176641Y-113697061D01*
X114386530Y-113784000D01*
X114176641Y-113870939D01*
X113957987Y-114017038D01*
X113772038Y-114202987D01*
X113625939Y-114421641D01*
X113525304Y-114664595D01*
X113474000Y-114922514D01*
X113474000Y-115185486D01*
X113525304Y-115443405D01*
X113564901Y-115539000D01*
X113350070Y-115539000D01*
X113305962Y-115472987D01*
X113120013Y-115287038D01*
X112901359Y-115140939D01*
X112687556Y-115052379D01*
X112850366Y-114992935D01*
X112951203Y-114939037D01*
X113010664Y-114705269D01*
X112269000Y-113963605D01*
X111527336Y-114705269D01*
X111586797Y-114939037D01*
X111825242Y-115049934D01*
X111844827Y-115054706D01*
X111636641Y-115140939D01*
X111417987Y-115287038D01*
X111232038Y-115472987D01*
X111121000Y-115639168D01*
X111121000Y-114467993D01*
X111347731Y-114525664D01*
X112089395Y-113784000D01*
X112448605Y-113784000D01*
X113190269Y-114525664D01*
X113424037Y-114466203D01*
X113534934Y-114227758D01*
X113597183Y-113972260D01*
X113608390Y-113709527D01*
X113568125Y-113449656D01*
X113477935Y-113202634D01*
X113424037Y-113101797D01*
X113190269Y-113042336D01*
X112448605Y-113784000D01*
X112089395Y-113784000D01*
X111347731Y-113042336D01*
X111121000Y-113100007D01*
X111121000Y-112165269D01*
X111527336Y-112165269D01*
X111586797Y-112399037D01*
X111825242Y-112509934D01*
X111849701Y-112515893D01*
X111687634Y-112575065D01*
X111586797Y-112628963D01*
X111527336Y-112862731D01*
X112269000Y-113604395D01*
X113010664Y-112862731D01*
X112951203Y-112628963D01*
X112712758Y-112518066D01*
X112688299Y-112512107D01*
X112850366Y-112452935D01*
X112951203Y-112399037D01*
X113010664Y-112165269D01*
X112269000Y-111423605D01*
X111527336Y-112165269D01*
X111121000Y-112165269D01*
X111121000Y-111927993D01*
X111347731Y-111985664D01*
X112089395Y-111244000D01*
X112448605Y-111244000D01*
X113190269Y-111985664D01*
X113424037Y-111926203D01*
X113534934Y-111687758D01*
X113597183Y-111432260D01*
X113608390Y-111169527D01*
X113568125Y-110909656D01*
X113477935Y-110662634D01*
X113424037Y-110561797D01*
X113190269Y-110502336D01*
X112448605Y-111244000D01*
X112089395Y-111244000D01*
X112075253Y-111229858D01*
X112254858Y-111050253D01*
X112269000Y-111064395D01*
X113010664Y-110322731D01*
X112951203Y-110088963D01*
X112712758Y-109978066D01*
X112693173Y-109973294D01*
X112901359Y-109887061D01*
X113120013Y-109740962D01*
X113305962Y-109555013D01*
X113452061Y-109336359D01*
X113552696Y-109093405D01*
X113594449Y-108883500D01*
X114038113Y-108883500D01*
X113957987Y-108937038D01*
G37*
X113957987Y-108937038D02*
X113772038Y-109122987D01*
X113625939Y-109341641D01*
X113525304Y-109584595D01*
X113474000Y-109842514D01*
X113474000Y-110105486D01*
X113525304Y-110363405D01*
X113625939Y-110606359D01*
X113772038Y-110825013D01*
X113957987Y-111010962D01*
X114176641Y-111157061D01*
X114386530Y-111244000D01*
X114176641Y-111330939D01*
X113957987Y-111477038D01*
X113772038Y-111662987D01*
X113625939Y-111881641D01*
X113525304Y-112124595D01*
X113474000Y-112382514D01*
X113474000Y-112645486D01*
X113525304Y-112903405D01*
X113625939Y-113146359D01*
X113772038Y-113365013D01*
X113957987Y-113550962D01*
X114176641Y-113697061D01*
X114386530Y-113784000D01*
X114176641Y-113870939D01*
X113957987Y-114017038D01*
X113772038Y-114202987D01*
X113625939Y-114421641D01*
X113525304Y-114664595D01*
X113474000Y-114922514D01*
X113474000Y-115185486D01*
X113525304Y-115443405D01*
X113564901Y-115539000D01*
X113350070Y-115539000D01*
X113305962Y-115472987D01*
X113120013Y-115287038D01*
X112901359Y-115140939D01*
X112687556Y-115052379D01*
X112850366Y-114992935D01*
X112951203Y-114939037D01*
X113010664Y-114705269D01*
X112269000Y-113963605D01*
X111527336Y-114705269D01*
X111586797Y-114939037D01*
X111825242Y-115049934D01*
X111844827Y-115054706D01*
X111636641Y-115140939D01*
X111417987Y-115287038D01*
X111232038Y-115472987D01*
X111121000Y-115639168D01*
X111121000Y-114467993D01*
X111347731Y-114525664D01*
X112089395Y-113784000D01*
X112448605Y-113784000D01*
X113190269Y-114525664D01*
X113424037Y-114466203D01*
X113534934Y-114227758D01*
X113597183Y-113972260D01*
X113608390Y-113709527D01*
X113568125Y-113449656D01*
X113477935Y-113202634D01*
X113424037Y-113101797D01*
X113190269Y-113042336D01*
X112448605Y-113784000D01*
X112089395Y-113784000D01*
X111347731Y-113042336D01*
X111121000Y-113100007D01*
X111121000Y-112165269D01*
X111527336Y-112165269D01*
X111586797Y-112399037D01*
X111825242Y-112509934D01*
X111849701Y-112515893D01*
X111687634Y-112575065D01*
X111586797Y-112628963D01*
X111527336Y-112862731D01*
X112269000Y-113604395D01*
X113010664Y-112862731D01*
X112951203Y-112628963D01*
X112712758Y-112518066D01*
X112688299Y-112512107D01*
X112850366Y-112452935D01*
X112951203Y-112399037D01*
X113010664Y-112165269D01*
X112269000Y-111423605D01*
X111527336Y-112165269D01*
X111121000Y-112165269D01*
X111121000Y-111927993D01*
X111347731Y-111985664D01*
X112089395Y-111244000D01*
X112448605Y-111244000D01*
X113190269Y-111985664D01*
X113424037Y-111926203D01*
X113534934Y-111687758D01*
X113597183Y-111432260D01*
X113608390Y-111169527D01*
X113568125Y-110909656D01*
X113477935Y-110662634D01*
X113424037Y-110561797D01*
X113190269Y-110502336D01*
X112448605Y-111244000D01*
X112089395Y-111244000D01*
X112075253Y-111229858D01*
X112254858Y-111050253D01*
X112269000Y-111064395D01*
X113010664Y-110322731D01*
X112951203Y-110088963D01*
X112712758Y-109978066D01*
X112693173Y-109973294D01*
X112901359Y-109887061D01*
X113120013Y-109740962D01*
X113305962Y-109555013D01*
X113452061Y-109336359D01*
X113552696Y-109093405D01*
X113594449Y-108883500D01*
X114038113Y-108883500D01*
X113957987Y-108937038D01*
M02*
