G04 #@! TF.GenerationSoftware,KiCad,Pcbnew,5.1.6-c6e7f7d~87~ubuntu18.04.1*
G04 #@! TF.CreationDate,2020-08-30T13:04:45+02:00*
G04 #@! TF.ProjectId,s88iso,73383869-736f-42e6-9b69-6361645f7063,2020/08*
G04 #@! TF.SameCoordinates,Original*
G04 #@! TF.FileFunction,Soldermask,Bot*
G04 #@! TF.FilePolarity,Negative*
%FSLAX46Y46*%
G04 Gerber Fmt 4.6, Leading zero omitted, Abs format (unit mm)*
G04 Created by KiCad (PCBNEW 5.1.6-c6e7f7d~87~ubuntu18.04.1) date 2020-08-30 13:04:45*
%MOMM*%
%LPD*%
G01*
G04 APERTURE LIST*
G04 #@! TA.AperFunction,Profile*
%ADD10C,0.050000*%
G04 #@! TD*
%ADD11C,0.100000*%
G04 APERTURE END LIST*
D10*
X100000000Y-128000000D02*
X100000000Y-82000000D01*
X168000000Y-130000000D02*
X102000000Y-130000000D01*
X170000000Y-82000000D02*
X170000000Y-128000000D01*
X168000000Y-80000000D02*
X102000000Y-80000000D01*
X100000000Y-82000000D02*
G75*
G02*
X102000000Y-80000000I2000000J0D01*
G01*
X168000000Y-80000000D02*
G75*
G02*
X170000000Y-82000000I0J-2000000D01*
G01*
X170000000Y-128000000D02*
G75*
G02*
X168000000Y-130000000I-2000000J0D01*
G01*
X102000000Y-130000000D02*
G75*
G02*
X100000000Y-128000000I0J2000000D01*
G01*
D11*
G36*
X166375256Y-124391298D02*
G01*
X166481579Y-124412447D01*
X166782042Y-124536903D01*
X167052451Y-124717585D01*
X167282415Y-124947549D01*
X167463097Y-125217958D01*
X167587553Y-125518421D01*
X167651000Y-125837391D01*
X167651000Y-126162609D01*
X167587553Y-126481579D01*
X167463097Y-126782042D01*
X167282415Y-127052451D01*
X167052451Y-127282415D01*
X166782042Y-127463097D01*
X166481579Y-127587553D01*
X166375256Y-127608702D01*
X166162611Y-127651000D01*
X165837389Y-127651000D01*
X165624744Y-127608702D01*
X165518421Y-127587553D01*
X165217958Y-127463097D01*
X164947549Y-127282415D01*
X164717585Y-127052451D01*
X164536903Y-126782042D01*
X164412447Y-126481579D01*
X164349000Y-126162609D01*
X164349000Y-125837391D01*
X164412447Y-125518421D01*
X164536903Y-125217958D01*
X164717585Y-124947549D01*
X164947549Y-124717585D01*
X165217958Y-124536903D01*
X165518421Y-124412447D01*
X165624744Y-124391298D01*
X165837389Y-124349000D01*
X166162611Y-124349000D01*
X166375256Y-124391298D01*
G37*
G36*
X104375256Y-124391298D02*
G01*
X104481579Y-124412447D01*
X104782042Y-124536903D01*
X105052451Y-124717585D01*
X105282415Y-124947549D01*
X105463097Y-125217958D01*
X105587553Y-125518421D01*
X105651000Y-125837391D01*
X105651000Y-126162609D01*
X105587553Y-126481579D01*
X105463097Y-126782042D01*
X105282415Y-127052451D01*
X105052451Y-127282415D01*
X104782042Y-127463097D01*
X104481579Y-127587553D01*
X104375256Y-127608702D01*
X104162611Y-127651000D01*
X103837389Y-127651000D01*
X103624744Y-127608702D01*
X103518421Y-127587553D01*
X103217958Y-127463097D01*
X102947549Y-127282415D01*
X102717585Y-127052451D01*
X102536903Y-126782042D01*
X102412447Y-126481579D01*
X102349000Y-126162609D01*
X102349000Y-125837391D01*
X102412447Y-125518421D01*
X102536903Y-125217958D01*
X102717585Y-124947549D01*
X102947549Y-124717585D01*
X103217958Y-124536903D01*
X103518421Y-124412447D01*
X103624744Y-124391298D01*
X103837389Y-124349000D01*
X104162611Y-124349000D01*
X104375256Y-124391298D01*
G37*
G36*
X137951952Y-121384731D02*
G01*
X138034027Y-121418728D01*
X138034029Y-121418729D01*
X138071213Y-121443575D01*
X138107895Y-121468085D01*
X138170715Y-121530905D01*
X138220072Y-121604773D01*
X138254069Y-121686848D01*
X138271400Y-121773979D01*
X138271400Y-121862821D01*
X138254069Y-121949952D01*
X138220072Y-122032027D01*
X138220071Y-122032029D01*
X138170714Y-122105896D01*
X138107896Y-122168714D01*
X138034029Y-122218071D01*
X138034028Y-122218072D01*
X138034027Y-122218072D01*
X137951952Y-122252069D01*
X137864821Y-122269400D01*
X137775979Y-122269400D01*
X137688848Y-122252069D01*
X137606773Y-122218072D01*
X137606772Y-122218072D01*
X137606771Y-122218071D01*
X137532904Y-122168714D01*
X137470086Y-122105896D01*
X137420729Y-122032029D01*
X137420728Y-122032027D01*
X137386731Y-121949952D01*
X137369400Y-121862821D01*
X137369400Y-121773979D01*
X137386731Y-121686848D01*
X137420728Y-121604773D01*
X137470085Y-121530905D01*
X137532905Y-121468085D01*
X137569587Y-121443575D01*
X137606771Y-121418729D01*
X137606773Y-121418728D01*
X137688848Y-121384731D01*
X137775979Y-121367400D01*
X137864821Y-121367400D01*
X137951952Y-121384731D01*
G37*
G36*
X168391487Y-119647996D02*
G01*
X168628253Y-119746068D01*
X168628255Y-119746069D01*
X168841339Y-119888447D01*
X169022553Y-120069661D01*
X169164932Y-120282747D01*
X169263004Y-120519513D01*
X169313000Y-120770861D01*
X169313000Y-121027139D01*
X169263004Y-121278487D01*
X169184469Y-121468086D01*
X169164931Y-121515255D01*
X169022553Y-121728339D01*
X168841339Y-121909553D01*
X168628255Y-122051931D01*
X168628254Y-122051932D01*
X168628253Y-122051932D01*
X168391487Y-122150004D01*
X168140139Y-122200000D01*
X167883861Y-122200000D01*
X167632513Y-122150004D01*
X167395747Y-122051932D01*
X167395746Y-122051932D01*
X167395745Y-122051931D01*
X167182661Y-121909553D01*
X167001447Y-121728339D01*
X166859069Y-121515255D01*
X166839531Y-121468086D01*
X166760996Y-121278487D01*
X166711000Y-121027139D01*
X166711000Y-120770861D01*
X166760996Y-120519513D01*
X166859068Y-120282747D01*
X167001447Y-120069661D01*
X167182661Y-119888447D01*
X167395745Y-119746069D01*
X167395747Y-119746068D01*
X167632513Y-119647996D01*
X167883861Y-119598000D01*
X168140139Y-119598000D01*
X168391487Y-119647996D01*
G37*
G36*
X103258487Y-119647996D02*
G01*
X103495253Y-119746068D01*
X103495255Y-119746069D01*
X103708339Y-119888447D01*
X103889553Y-120069661D01*
X104031932Y-120282747D01*
X104130004Y-120519513D01*
X104180000Y-120770861D01*
X104180000Y-121027139D01*
X104130004Y-121278487D01*
X104051469Y-121468086D01*
X104031931Y-121515255D01*
X103889553Y-121728339D01*
X103708339Y-121909553D01*
X103495255Y-122051931D01*
X103495254Y-122051932D01*
X103495253Y-122051932D01*
X103258487Y-122150004D01*
X103007139Y-122200000D01*
X102750861Y-122200000D01*
X102499513Y-122150004D01*
X102262747Y-122051932D01*
X102262746Y-122051932D01*
X102262745Y-122051931D01*
X102049661Y-121909553D01*
X101868447Y-121728339D01*
X101726069Y-121515255D01*
X101706531Y-121468086D01*
X101627996Y-121278487D01*
X101578000Y-121027139D01*
X101578000Y-120770861D01*
X101627996Y-120519513D01*
X101726068Y-120282747D01*
X101868447Y-120069661D01*
X102049661Y-119888447D01*
X102262745Y-119746069D01*
X102262747Y-119746068D01*
X102499513Y-119647996D01*
X102750861Y-119598000D01*
X103007139Y-119598000D01*
X103258487Y-119647996D01*
G37*
G36*
X109358487Y-119647996D02*
G01*
X109595253Y-119746068D01*
X109595255Y-119746069D01*
X109808339Y-119888447D01*
X109989553Y-120069661D01*
X110131932Y-120282747D01*
X110230004Y-120519513D01*
X110280000Y-120770861D01*
X110280000Y-121027139D01*
X110230004Y-121278487D01*
X110151469Y-121468086D01*
X110131931Y-121515255D01*
X109989553Y-121728339D01*
X109808339Y-121909553D01*
X109595255Y-122051931D01*
X109595254Y-122051932D01*
X109595253Y-122051932D01*
X109358487Y-122150004D01*
X109107139Y-122200000D01*
X108850861Y-122200000D01*
X108599513Y-122150004D01*
X108362747Y-122051932D01*
X108362746Y-122051932D01*
X108362745Y-122051931D01*
X108149661Y-121909553D01*
X107968447Y-121728339D01*
X107826069Y-121515255D01*
X107806531Y-121468086D01*
X107727996Y-121278487D01*
X107678000Y-121027139D01*
X107678000Y-120770861D01*
X107727996Y-120519513D01*
X107826068Y-120282747D01*
X107968447Y-120069661D01*
X108149661Y-119888447D01*
X108362745Y-119746069D01*
X108362747Y-119746068D01*
X108599513Y-119647996D01*
X108850861Y-119598000D01*
X109107139Y-119598000D01*
X109358487Y-119647996D01*
G37*
G36*
X162291487Y-119647996D02*
G01*
X162528253Y-119746068D01*
X162528255Y-119746069D01*
X162741339Y-119888447D01*
X162922553Y-120069661D01*
X163064932Y-120282747D01*
X163163004Y-120519513D01*
X163213000Y-120770861D01*
X163213000Y-121027139D01*
X163163004Y-121278487D01*
X163084469Y-121468086D01*
X163064931Y-121515255D01*
X162922553Y-121728339D01*
X162741339Y-121909553D01*
X162528255Y-122051931D01*
X162528254Y-122051932D01*
X162528253Y-122051932D01*
X162291487Y-122150004D01*
X162040139Y-122200000D01*
X161783861Y-122200000D01*
X161532513Y-122150004D01*
X161295747Y-122051932D01*
X161295746Y-122051932D01*
X161295745Y-122051931D01*
X161082661Y-121909553D01*
X160901447Y-121728339D01*
X160759069Y-121515255D01*
X160739531Y-121468086D01*
X160660996Y-121278487D01*
X160611000Y-121027139D01*
X160611000Y-120770861D01*
X160660996Y-120519513D01*
X160759068Y-120282747D01*
X160901447Y-120069661D01*
X161082661Y-119888447D01*
X161295745Y-119746069D01*
X161295747Y-119746068D01*
X161532513Y-119647996D01*
X161783861Y-119598000D01*
X162040139Y-119598000D01*
X162291487Y-119647996D01*
G37*
G36*
X118495552Y-118819331D02*
G01*
X118577627Y-118853328D01*
X118577629Y-118853329D01*
X118600256Y-118868448D01*
X118651495Y-118902685D01*
X118714315Y-118965505D01*
X118763672Y-119039373D01*
X118797669Y-119121448D01*
X118815000Y-119208579D01*
X118815000Y-119297421D01*
X118797669Y-119384552D01*
X118770145Y-119451000D01*
X118763671Y-119466629D01*
X118714314Y-119540496D01*
X118651496Y-119603314D01*
X118577629Y-119652671D01*
X118577628Y-119652672D01*
X118577627Y-119652672D01*
X118495552Y-119686669D01*
X118408421Y-119704000D01*
X118319579Y-119704000D01*
X118232448Y-119686669D01*
X118150373Y-119652672D01*
X118150372Y-119652672D01*
X118150371Y-119652671D01*
X118076504Y-119603314D01*
X118013686Y-119540496D01*
X117964329Y-119466629D01*
X117957855Y-119451000D01*
X117930331Y-119384552D01*
X117913000Y-119297421D01*
X117913000Y-119208579D01*
X117930331Y-119121448D01*
X117964328Y-119039373D01*
X118013685Y-118965505D01*
X118076505Y-118902685D01*
X118127744Y-118868448D01*
X118150371Y-118853329D01*
X118150373Y-118853328D01*
X118232448Y-118819331D01*
X118319579Y-118802000D01*
X118408421Y-118802000D01*
X118495552Y-118819331D01*
G37*
G36*
X125131552Y-118566331D02*
G01*
X125213627Y-118600328D01*
X125213629Y-118600329D01*
X125250813Y-118625175D01*
X125287495Y-118649685D01*
X125350315Y-118712505D01*
X125399672Y-118786373D01*
X125433669Y-118868448D01*
X125451000Y-118955579D01*
X125451000Y-119044421D01*
X125433669Y-119131552D01*
X125399672Y-119213627D01*
X125399671Y-119213629D01*
X125350314Y-119287496D01*
X125287496Y-119350314D01*
X125213629Y-119399671D01*
X125213628Y-119399672D01*
X125213627Y-119399672D01*
X125131552Y-119433669D01*
X125044421Y-119451000D01*
X124955579Y-119451000D01*
X124868448Y-119433669D01*
X124786373Y-119399672D01*
X124786372Y-119399672D01*
X124786371Y-119399671D01*
X124712504Y-119350314D01*
X124649686Y-119287496D01*
X124600329Y-119213629D01*
X124600328Y-119213627D01*
X124566331Y-119131552D01*
X124549000Y-119044421D01*
X124549000Y-118955579D01*
X124566331Y-118868448D01*
X124600328Y-118786373D01*
X124649685Y-118712505D01*
X124712505Y-118649685D01*
X124749187Y-118625175D01*
X124786371Y-118600329D01*
X124786373Y-118600328D01*
X124868448Y-118566331D01*
X124955579Y-118549000D01*
X125044421Y-118549000D01*
X125131552Y-118566331D01*
G37*
G36*
X134751552Y-118184331D02*
G01*
X134833627Y-118218328D01*
X134833629Y-118218329D01*
X134870813Y-118243175D01*
X134907495Y-118267685D01*
X134970315Y-118330505D01*
X135019672Y-118404373D01*
X135053669Y-118486448D01*
X135071000Y-118573579D01*
X135071000Y-118662421D01*
X135053669Y-118749552D01*
X135019672Y-118831627D01*
X134972193Y-118902685D01*
X134970314Y-118905496D01*
X134907496Y-118968314D01*
X134833629Y-119017671D01*
X134833628Y-119017672D01*
X134833627Y-119017672D01*
X134751552Y-119051669D01*
X134664421Y-119069000D01*
X134575579Y-119069000D01*
X134488448Y-119051669D01*
X134406373Y-119017672D01*
X134406372Y-119017672D01*
X134406371Y-119017671D01*
X134332504Y-118968314D01*
X134269686Y-118905496D01*
X134267808Y-118902685D01*
X134220328Y-118831627D01*
X134186331Y-118749552D01*
X134169000Y-118662421D01*
X134169000Y-118573579D01*
X134186331Y-118486448D01*
X134220328Y-118404373D01*
X134269685Y-118330505D01*
X134332505Y-118267685D01*
X134369187Y-118243175D01*
X134406371Y-118218329D01*
X134406373Y-118218328D01*
X134488448Y-118184331D01*
X134575579Y-118167000D01*
X134664421Y-118167000D01*
X134751552Y-118184331D01*
G37*
G36*
X141355552Y-118184331D02*
G01*
X141437627Y-118218328D01*
X141437629Y-118218329D01*
X141474813Y-118243175D01*
X141511495Y-118267685D01*
X141574315Y-118330505D01*
X141623672Y-118404373D01*
X141657669Y-118486448D01*
X141675000Y-118573579D01*
X141675000Y-118662421D01*
X141657669Y-118749552D01*
X141623672Y-118831627D01*
X141576193Y-118902685D01*
X141574314Y-118905496D01*
X141511496Y-118968314D01*
X141437629Y-119017671D01*
X141437628Y-119017672D01*
X141437627Y-119017672D01*
X141355552Y-119051669D01*
X141268421Y-119069000D01*
X141179579Y-119069000D01*
X141092448Y-119051669D01*
X141010373Y-119017672D01*
X141010372Y-119017672D01*
X141010371Y-119017671D01*
X140936504Y-118968314D01*
X140873686Y-118905496D01*
X140871808Y-118902685D01*
X140824328Y-118831627D01*
X140790331Y-118749552D01*
X140773000Y-118662421D01*
X140773000Y-118573579D01*
X140790331Y-118486448D01*
X140824328Y-118404373D01*
X140873685Y-118330505D01*
X140936505Y-118267685D01*
X140973187Y-118243175D01*
X141010371Y-118218329D01*
X141010373Y-118218328D01*
X141092448Y-118184331D01*
X141179579Y-118167000D01*
X141268421Y-118167000D01*
X141355552Y-118184331D01*
G37*
G36*
X115028059Y-116871860D02*
G01*
X115113718Y-116907341D01*
X115164732Y-116928472D01*
X115287735Y-117010660D01*
X115392340Y-117115265D01*
X115474528Y-117238268D01*
X115531140Y-117374941D01*
X115560000Y-117520033D01*
X115560000Y-117667967D01*
X115531140Y-117813059D01*
X115474528Y-117949732D01*
X115392340Y-118072735D01*
X115287735Y-118177340D01*
X115164732Y-118259528D01*
X115164731Y-118259529D01*
X115164730Y-118259529D01*
X115028059Y-118316140D01*
X114882968Y-118345000D01*
X114735032Y-118345000D01*
X114589941Y-118316140D01*
X114453270Y-118259529D01*
X114453269Y-118259529D01*
X114453268Y-118259528D01*
X114330265Y-118177340D01*
X114225660Y-118072735D01*
X114143472Y-117949732D01*
X114086860Y-117813059D01*
X114058000Y-117667967D01*
X114058000Y-117520033D01*
X114086860Y-117374941D01*
X114143472Y-117238268D01*
X114225660Y-117115265D01*
X114330265Y-117010660D01*
X114453268Y-116928472D01*
X114504283Y-116907341D01*
X114589941Y-116871860D01*
X114735032Y-116843000D01*
X114882968Y-116843000D01*
X115028059Y-116871860D01*
G37*
G36*
X158841059Y-116871860D02*
G01*
X158926718Y-116907341D01*
X158977732Y-116928472D01*
X159100735Y-117010660D01*
X159205340Y-117115265D01*
X159287528Y-117238268D01*
X159344140Y-117374941D01*
X159373000Y-117520033D01*
X159373000Y-117667967D01*
X159344140Y-117813059D01*
X159287528Y-117949732D01*
X159205340Y-118072735D01*
X159100735Y-118177340D01*
X158977732Y-118259528D01*
X158977731Y-118259529D01*
X158977730Y-118259529D01*
X158841059Y-118316140D01*
X158695968Y-118345000D01*
X158548032Y-118345000D01*
X158402941Y-118316140D01*
X158266270Y-118259529D01*
X158266269Y-118259529D01*
X158266268Y-118259528D01*
X158143265Y-118177340D01*
X158038660Y-118072735D01*
X157956472Y-117949732D01*
X157899860Y-117813059D01*
X157871000Y-117667967D01*
X157871000Y-117520033D01*
X157899860Y-117374941D01*
X157956472Y-117238268D01*
X158038660Y-117115265D01*
X158143265Y-117010660D01*
X158266268Y-116928472D01*
X158317283Y-116907341D01*
X158402941Y-116871860D01*
X158548032Y-116843000D01*
X158695968Y-116843000D01*
X158841059Y-116871860D01*
G37*
G36*
X134831521Y-116818174D02*
G01*
X134931795Y-116859709D01*
X134931796Y-116859710D01*
X135022042Y-116920010D01*
X135098790Y-116996758D01*
X135098791Y-116996760D01*
X135159091Y-117087005D01*
X135200626Y-117187279D01*
X135221800Y-117293730D01*
X135221800Y-117402270D01*
X135200626Y-117508721D01*
X135159091Y-117608995D01*
X135159090Y-117608996D01*
X135098790Y-117699242D01*
X135022042Y-117775990D01*
X134976612Y-117806345D01*
X134931795Y-117836291D01*
X134831521Y-117877826D01*
X134725070Y-117899000D01*
X134616530Y-117899000D01*
X134510079Y-117877826D01*
X134409805Y-117836291D01*
X134364988Y-117806345D01*
X134319558Y-117775990D01*
X134242810Y-117699242D01*
X134182510Y-117608996D01*
X134182509Y-117608995D01*
X134140974Y-117508721D01*
X134119800Y-117402270D01*
X134119800Y-117293730D01*
X134140974Y-117187279D01*
X134182509Y-117087005D01*
X134242809Y-116996760D01*
X134242810Y-116996758D01*
X134319558Y-116920010D01*
X134409804Y-116859710D01*
X134409805Y-116859709D01*
X134510079Y-116818174D01*
X134616530Y-116797000D01*
X134725070Y-116797000D01*
X134831521Y-116818174D01*
G37*
G36*
X156301059Y-115601860D02*
G01*
X156386718Y-115637341D01*
X156437732Y-115658472D01*
X156560735Y-115740660D01*
X156665340Y-115845265D01*
X156747528Y-115968268D01*
X156804140Y-116104941D01*
X156833000Y-116250033D01*
X156833000Y-116397967D01*
X156804140Y-116543059D01*
X156747528Y-116679732D01*
X156665340Y-116802735D01*
X156560735Y-116907340D01*
X156437732Y-116989528D01*
X156437731Y-116989529D01*
X156437730Y-116989529D01*
X156301059Y-117046140D01*
X156155968Y-117075000D01*
X156008032Y-117075000D01*
X155862941Y-117046140D01*
X155726270Y-116989529D01*
X155726269Y-116989529D01*
X155726268Y-116989528D01*
X155603265Y-116907340D01*
X155498660Y-116802735D01*
X155416472Y-116679732D01*
X155359860Y-116543059D01*
X155331000Y-116397967D01*
X155331000Y-116250033D01*
X155359860Y-116104941D01*
X155416472Y-115968268D01*
X155498660Y-115845265D01*
X155603265Y-115740660D01*
X155726268Y-115658472D01*
X155777283Y-115637341D01*
X155862941Y-115601860D01*
X156008032Y-115573000D01*
X156155968Y-115573000D01*
X156301059Y-115601860D01*
G37*
G36*
X112488059Y-115601860D02*
G01*
X112573718Y-115637341D01*
X112624732Y-115658472D01*
X112747735Y-115740660D01*
X112852340Y-115845265D01*
X112934528Y-115968268D01*
X112991140Y-116104941D01*
X113020000Y-116250033D01*
X113020000Y-116397967D01*
X112991140Y-116543059D01*
X112934528Y-116679732D01*
X112852340Y-116802735D01*
X112747735Y-116907340D01*
X112624732Y-116989528D01*
X112624731Y-116989529D01*
X112624730Y-116989529D01*
X112488059Y-117046140D01*
X112342968Y-117075000D01*
X112195032Y-117075000D01*
X112049941Y-117046140D01*
X111913270Y-116989529D01*
X111913269Y-116989529D01*
X111913268Y-116989528D01*
X111790265Y-116907340D01*
X111685660Y-116802735D01*
X111603472Y-116679732D01*
X111546860Y-116543059D01*
X111518000Y-116397967D01*
X111518000Y-116250033D01*
X111546860Y-116104941D01*
X111603472Y-115968268D01*
X111685660Y-115845265D01*
X111790265Y-115740660D01*
X111913268Y-115658472D01*
X111964283Y-115637341D01*
X112049941Y-115601860D01*
X112195032Y-115573000D01*
X112342968Y-115573000D01*
X112488059Y-115601860D01*
G37*
G36*
X147578552Y-116025331D02*
G01*
X147660627Y-116059328D01*
X147660629Y-116059329D01*
X147697813Y-116084175D01*
X147734495Y-116108685D01*
X147797315Y-116171505D01*
X147846672Y-116245373D01*
X147880669Y-116327448D01*
X147898000Y-116414579D01*
X147898000Y-116503421D01*
X147880669Y-116590552D01*
X147846672Y-116672627D01*
X147797315Y-116746495D01*
X147734495Y-116809315D01*
X147721235Y-116818175D01*
X147660629Y-116858671D01*
X147660628Y-116858672D01*
X147660627Y-116858672D01*
X147578552Y-116892669D01*
X147491421Y-116910000D01*
X147402579Y-116910000D01*
X147315448Y-116892669D01*
X147233373Y-116858672D01*
X147233372Y-116858672D01*
X147233371Y-116858671D01*
X147172765Y-116818175D01*
X147159505Y-116809315D01*
X147096685Y-116746495D01*
X147047328Y-116672627D01*
X147013331Y-116590552D01*
X146996000Y-116503421D01*
X146996000Y-116414579D01*
X147013331Y-116327448D01*
X147047328Y-116245373D01*
X147096685Y-116171505D01*
X147159505Y-116108685D01*
X147196187Y-116084175D01*
X147233371Y-116059329D01*
X147233373Y-116059328D01*
X147315448Y-116025331D01*
X147402579Y-116008000D01*
X147491421Y-116008000D01*
X147578552Y-116025331D01*
G37*
G36*
X141990552Y-115644331D02*
G01*
X142072627Y-115678328D01*
X142072629Y-115678329D01*
X142109813Y-115703175D01*
X142134289Y-115719529D01*
X142146496Y-115727686D01*
X142209314Y-115790504D01*
X142245905Y-115845265D01*
X142258672Y-115864373D01*
X142292669Y-115946448D01*
X142310000Y-116033579D01*
X142310000Y-116122421D01*
X142292669Y-116209552D01*
X142258672Y-116291627D01*
X142258671Y-116291629D01*
X142209314Y-116365496D01*
X142146496Y-116428314D01*
X142072629Y-116477671D01*
X142072628Y-116477672D01*
X142072627Y-116477672D01*
X141990552Y-116511669D01*
X141903421Y-116529000D01*
X141814579Y-116529000D01*
X141727448Y-116511669D01*
X141645373Y-116477672D01*
X141645372Y-116477672D01*
X141645371Y-116477671D01*
X141571504Y-116428314D01*
X141508686Y-116365496D01*
X141459329Y-116291629D01*
X141459328Y-116291627D01*
X141425331Y-116209552D01*
X141408000Y-116122421D01*
X141408000Y-116033579D01*
X141425331Y-115946448D01*
X141459328Y-115864373D01*
X141472096Y-115845265D01*
X141508686Y-115790504D01*
X141571504Y-115727686D01*
X141583712Y-115719529D01*
X141608187Y-115703175D01*
X141645371Y-115678329D01*
X141645373Y-115678328D01*
X141727448Y-115644331D01*
X141814579Y-115627000D01*
X141903421Y-115627000D01*
X141990552Y-115644331D01*
G37*
G36*
X115028059Y-114331860D02*
G01*
X115113718Y-114367341D01*
X115164732Y-114388472D01*
X115287735Y-114470660D01*
X115392340Y-114575265D01*
X115474528Y-114698268D01*
X115531140Y-114834941D01*
X115560000Y-114980033D01*
X115560000Y-115127967D01*
X115531140Y-115273059D01*
X115474528Y-115409732D01*
X115392340Y-115532735D01*
X115287735Y-115637340D01*
X115164732Y-115719528D01*
X115164731Y-115719529D01*
X115164730Y-115719529D01*
X115028059Y-115776140D01*
X114882968Y-115805000D01*
X114735032Y-115805000D01*
X114589941Y-115776140D01*
X114453270Y-115719529D01*
X114453269Y-115719529D01*
X114453268Y-115719528D01*
X114330265Y-115637340D01*
X114225660Y-115532735D01*
X114143472Y-115409732D01*
X114086860Y-115273059D01*
X114058000Y-115127967D01*
X114058000Y-114980033D01*
X114086860Y-114834941D01*
X114143472Y-114698268D01*
X114225660Y-114575265D01*
X114330265Y-114470660D01*
X114453268Y-114388472D01*
X114504283Y-114367341D01*
X114589941Y-114331860D01*
X114735032Y-114303000D01*
X114882968Y-114303000D01*
X115028059Y-114331860D01*
G37*
G36*
X158841059Y-114331860D02*
G01*
X158926718Y-114367341D01*
X158977732Y-114388472D01*
X159100735Y-114470660D01*
X159205340Y-114575265D01*
X159287528Y-114698268D01*
X159344140Y-114834941D01*
X159373000Y-114980033D01*
X159373000Y-115127967D01*
X159344140Y-115273059D01*
X159287528Y-115409732D01*
X159205340Y-115532735D01*
X159100735Y-115637340D01*
X158977732Y-115719528D01*
X158977731Y-115719529D01*
X158977730Y-115719529D01*
X158841059Y-115776140D01*
X158695968Y-115805000D01*
X158548032Y-115805000D01*
X158402941Y-115776140D01*
X158266270Y-115719529D01*
X158266269Y-115719529D01*
X158266268Y-115719528D01*
X158143265Y-115637340D01*
X158038660Y-115532735D01*
X157956472Y-115409732D01*
X157899860Y-115273059D01*
X157871000Y-115127967D01*
X157871000Y-114980033D01*
X157899860Y-114834941D01*
X157956472Y-114698268D01*
X158038660Y-114575265D01*
X158143265Y-114470660D01*
X158266268Y-114388472D01*
X158317283Y-114367341D01*
X158402941Y-114331860D01*
X158548032Y-114303000D01*
X158695968Y-114303000D01*
X158841059Y-114331860D01*
G37*
G36*
X156301059Y-113061860D02*
G01*
X156386718Y-113097341D01*
X156437732Y-113118472D01*
X156560735Y-113200660D01*
X156665340Y-113305265D01*
X156709015Y-113370629D01*
X156747529Y-113428270D01*
X156800714Y-113556671D01*
X156804140Y-113564941D01*
X156833000Y-113710033D01*
X156833000Y-113857967D01*
X156804140Y-114003059D01*
X156747528Y-114139732D01*
X156665340Y-114262735D01*
X156560735Y-114367340D01*
X156437732Y-114449528D01*
X156437731Y-114449529D01*
X156437730Y-114449529D01*
X156301059Y-114506140D01*
X156155968Y-114535000D01*
X156008032Y-114535000D01*
X155862941Y-114506140D01*
X155726270Y-114449529D01*
X155726269Y-114449529D01*
X155726268Y-114449528D01*
X155603265Y-114367340D01*
X155498660Y-114262735D01*
X155416472Y-114139732D01*
X155359860Y-114003059D01*
X155331000Y-113857967D01*
X155331000Y-113710033D01*
X155359860Y-113564941D01*
X155363286Y-113556671D01*
X155416471Y-113428270D01*
X155454985Y-113370629D01*
X155498660Y-113305265D01*
X155603265Y-113200660D01*
X155726268Y-113118472D01*
X155777283Y-113097341D01*
X155862941Y-113061860D01*
X156008032Y-113033000D01*
X156155968Y-113033000D01*
X156301059Y-113061860D01*
G37*
G36*
X112488059Y-113061860D02*
G01*
X112573718Y-113097341D01*
X112624732Y-113118472D01*
X112747735Y-113200660D01*
X112852340Y-113305265D01*
X112896015Y-113370629D01*
X112934529Y-113428270D01*
X112987714Y-113556671D01*
X112991140Y-113564941D01*
X113020000Y-113710033D01*
X113020000Y-113857967D01*
X112991140Y-114003059D01*
X112934528Y-114139732D01*
X112852340Y-114262735D01*
X112747735Y-114367340D01*
X112624732Y-114449528D01*
X112624731Y-114449529D01*
X112624730Y-114449529D01*
X112488059Y-114506140D01*
X112342968Y-114535000D01*
X112195032Y-114535000D01*
X112049941Y-114506140D01*
X111913270Y-114449529D01*
X111913269Y-114449529D01*
X111913268Y-114449528D01*
X111790265Y-114367340D01*
X111685660Y-114262735D01*
X111603472Y-114139732D01*
X111546860Y-114003059D01*
X111518000Y-113857967D01*
X111518000Y-113710033D01*
X111546860Y-113564941D01*
X111550286Y-113556671D01*
X111603471Y-113428270D01*
X111641985Y-113370629D01*
X111685660Y-113305265D01*
X111790265Y-113200660D01*
X111913268Y-113118472D01*
X111964283Y-113097341D01*
X112049941Y-113061860D01*
X112195032Y-113033000D01*
X112342968Y-113033000D01*
X112488059Y-113061860D01*
G37*
G36*
X141990552Y-113104331D02*
G01*
X142072627Y-113138328D01*
X142072629Y-113138329D01*
X142109813Y-113163175D01*
X142134289Y-113179529D01*
X142146496Y-113187686D01*
X142209314Y-113250504D01*
X142245905Y-113305265D01*
X142258672Y-113324373D01*
X142292669Y-113406448D01*
X142310000Y-113493579D01*
X142310000Y-113582421D01*
X142292669Y-113669552D01*
X142258672Y-113751627D01*
X142258671Y-113751629D01*
X142209314Y-113825496D01*
X142146496Y-113888314D01*
X142072629Y-113937671D01*
X142072628Y-113937672D01*
X142072627Y-113937672D01*
X141990552Y-113971669D01*
X141903421Y-113989000D01*
X141814579Y-113989000D01*
X141727448Y-113971669D01*
X141645373Y-113937672D01*
X141645372Y-113937672D01*
X141645371Y-113937671D01*
X141571504Y-113888314D01*
X141508686Y-113825496D01*
X141459329Y-113751629D01*
X141459328Y-113751627D01*
X141425331Y-113669552D01*
X141408000Y-113582421D01*
X141408000Y-113493579D01*
X141425331Y-113406448D01*
X141459328Y-113324373D01*
X141472096Y-113305265D01*
X141508686Y-113250504D01*
X141571504Y-113187686D01*
X141583712Y-113179529D01*
X141608187Y-113163175D01*
X141645371Y-113138329D01*
X141645373Y-113138328D01*
X141727448Y-113104331D01*
X141814579Y-113087000D01*
X141903421Y-113087000D01*
X141990552Y-113104331D01*
G37*
G36*
X147705552Y-112723331D02*
G01*
X147787627Y-112757328D01*
X147787629Y-112757329D01*
X147824813Y-112782175D01*
X147861495Y-112806685D01*
X147924315Y-112869505D01*
X147973672Y-112943373D01*
X148007669Y-113025448D01*
X148025000Y-113112579D01*
X148025000Y-113201421D01*
X148007669Y-113288552D01*
X147973672Y-113370627D01*
X147935158Y-113428268D01*
X147924314Y-113444496D01*
X147861496Y-113507314D01*
X147787629Y-113556671D01*
X147787628Y-113556672D01*
X147787627Y-113556672D01*
X147705552Y-113590669D01*
X147618421Y-113608000D01*
X147529579Y-113608000D01*
X147442448Y-113590669D01*
X147360373Y-113556672D01*
X147360372Y-113556672D01*
X147360371Y-113556671D01*
X147286504Y-113507314D01*
X147223686Y-113444496D01*
X147212843Y-113428268D01*
X147174328Y-113370627D01*
X147140331Y-113288552D01*
X147123000Y-113201421D01*
X147123000Y-113112579D01*
X147140331Y-113025448D01*
X147174328Y-112943373D01*
X147223685Y-112869505D01*
X147286505Y-112806685D01*
X147323187Y-112782175D01*
X147360371Y-112757329D01*
X147360373Y-112757328D01*
X147442448Y-112723331D01*
X147529579Y-112706000D01*
X147618421Y-112706000D01*
X147705552Y-112723331D01*
G37*
G36*
X158841059Y-111791860D02*
G01*
X158959095Y-111840752D01*
X158977732Y-111848472D01*
X159100735Y-111930660D01*
X159205340Y-112035265D01*
X159287528Y-112158268D01*
X159287529Y-112158270D01*
X159344140Y-112294941D01*
X159373000Y-112440032D01*
X159373000Y-112587968D01*
X159344140Y-112733059D01*
X159287623Y-112869504D01*
X159287528Y-112869732D01*
X159205340Y-112992735D01*
X159100735Y-113097340D01*
X158977732Y-113179528D01*
X158977731Y-113179529D01*
X158977730Y-113179529D01*
X158841059Y-113236140D01*
X158695968Y-113265000D01*
X158548032Y-113265000D01*
X158402941Y-113236140D01*
X158266270Y-113179529D01*
X158266269Y-113179529D01*
X158266268Y-113179528D01*
X158143265Y-113097340D01*
X158038660Y-112992735D01*
X157956472Y-112869732D01*
X157956378Y-112869504D01*
X157899860Y-112733059D01*
X157871000Y-112587968D01*
X157871000Y-112440032D01*
X157899860Y-112294941D01*
X157956471Y-112158270D01*
X157956472Y-112158268D01*
X158038660Y-112035265D01*
X158143265Y-111930660D01*
X158266268Y-111848472D01*
X158284906Y-111840752D01*
X158402941Y-111791860D01*
X158548032Y-111763000D01*
X158695968Y-111763000D01*
X158841059Y-111791860D01*
G37*
G36*
X115028059Y-111791860D02*
G01*
X115146095Y-111840752D01*
X115164732Y-111848472D01*
X115287735Y-111930660D01*
X115392340Y-112035265D01*
X115474528Y-112158268D01*
X115474529Y-112158270D01*
X115531140Y-112294941D01*
X115560000Y-112440032D01*
X115560000Y-112587968D01*
X115531140Y-112733059D01*
X115474623Y-112869504D01*
X115474528Y-112869732D01*
X115392340Y-112992735D01*
X115287735Y-113097340D01*
X115164732Y-113179528D01*
X115164731Y-113179529D01*
X115164730Y-113179529D01*
X115028059Y-113236140D01*
X114882968Y-113265000D01*
X114735032Y-113265000D01*
X114589941Y-113236140D01*
X114453270Y-113179529D01*
X114453269Y-113179529D01*
X114453268Y-113179528D01*
X114330265Y-113097340D01*
X114225660Y-112992735D01*
X114143472Y-112869732D01*
X114143378Y-112869504D01*
X114086860Y-112733059D01*
X114058000Y-112587968D01*
X114058000Y-112440032D01*
X114086860Y-112294941D01*
X114143471Y-112158270D01*
X114143472Y-112158268D01*
X114225660Y-112035265D01*
X114330265Y-111930660D01*
X114453268Y-111848472D01*
X114471906Y-111840752D01*
X114589941Y-111791860D01*
X114735032Y-111763000D01*
X114882968Y-111763000D01*
X115028059Y-111791860D01*
G37*
G36*
X152531552Y-111275531D02*
G01*
X152613627Y-111309528D01*
X152613629Y-111309529D01*
X152650813Y-111334375D01*
X152687495Y-111358885D01*
X152750315Y-111421705D01*
X152799672Y-111495573D01*
X152833669Y-111577648D01*
X152851000Y-111664779D01*
X152851000Y-111753621D01*
X152833669Y-111840752D01*
X152799672Y-111922827D01*
X152751448Y-111995000D01*
X152750314Y-111996696D01*
X152687496Y-112059514D01*
X152613629Y-112108871D01*
X152613628Y-112108872D01*
X152613627Y-112108872D01*
X152531552Y-112142869D01*
X152444421Y-112160200D01*
X152355579Y-112160200D01*
X152268448Y-112142869D01*
X152186373Y-112108872D01*
X152186372Y-112108872D01*
X152186371Y-112108871D01*
X152112504Y-112059514D01*
X152049686Y-111996696D01*
X152048553Y-111995000D01*
X152000328Y-111922827D01*
X151966331Y-111840752D01*
X151949000Y-111753621D01*
X151949000Y-111664779D01*
X151966331Y-111577648D01*
X152000328Y-111495573D01*
X152049685Y-111421705D01*
X152112505Y-111358885D01*
X152149187Y-111334375D01*
X152186371Y-111309529D01*
X152186373Y-111309528D01*
X152268448Y-111275531D01*
X152355579Y-111258200D01*
X152444421Y-111258200D01*
X152531552Y-111275531D01*
G37*
G36*
X156301059Y-110521860D02*
G01*
X156386718Y-110557341D01*
X156437732Y-110578472D01*
X156560735Y-110660660D01*
X156665340Y-110765265D01*
X156747528Y-110888268D01*
X156804140Y-111024941D01*
X156833000Y-111170033D01*
X156833000Y-111317967D01*
X156804140Y-111463059D01*
X156747528Y-111599732D01*
X156665340Y-111722735D01*
X156560735Y-111827340D01*
X156437732Y-111909528D01*
X156437731Y-111909529D01*
X156437730Y-111909529D01*
X156301059Y-111966140D01*
X156155968Y-111995000D01*
X156008032Y-111995000D01*
X155862941Y-111966140D01*
X155726270Y-111909529D01*
X155726269Y-111909529D01*
X155726268Y-111909528D01*
X155603265Y-111827340D01*
X155498660Y-111722735D01*
X155416472Y-111599732D01*
X155359860Y-111463059D01*
X155331000Y-111317967D01*
X155331000Y-111170033D01*
X155359860Y-111024941D01*
X155416472Y-110888268D01*
X155498660Y-110765265D01*
X155603265Y-110660660D01*
X155726268Y-110578472D01*
X155777283Y-110557341D01*
X155862941Y-110521860D01*
X156008032Y-110493000D01*
X156155968Y-110493000D01*
X156301059Y-110521860D01*
G37*
G36*
X112488059Y-110521860D02*
G01*
X112573718Y-110557341D01*
X112624732Y-110578472D01*
X112747735Y-110660660D01*
X112852340Y-110765265D01*
X112934528Y-110888268D01*
X112991140Y-111024941D01*
X113020000Y-111170033D01*
X113020000Y-111317967D01*
X112991140Y-111463059D01*
X112934528Y-111599732D01*
X112852340Y-111722735D01*
X112747735Y-111827340D01*
X112624732Y-111909528D01*
X112624731Y-111909529D01*
X112624730Y-111909529D01*
X112488059Y-111966140D01*
X112342968Y-111995000D01*
X112195032Y-111995000D01*
X112049941Y-111966140D01*
X111913270Y-111909529D01*
X111913269Y-111909529D01*
X111913268Y-111909528D01*
X111790265Y-111827340D01*
X111685660Y-111722735D01*
X111603472Y-111599732D01*
X111546860Y-111463059D01*
X111518000Y-111317967D01*
X111518000Y-111170033D01*
X111546860Y-111024941D01*
X111603472Y-110888268D01*
X111685660Y-110765265D01*
X111790265Y-110660660D01*
X111913268Y-110578472D01*
X111964283Y-110557341D01*
X112049941Y-110521860D01*
X112195032Y-110493000D01*
X112342968Y-110493000D01*
X112488059Y-110521860D01*
G37*
G36*
X147578552Y-110564331D02*
G01*
X147660627Y-110598328D01*
X147660629Y-110598329D01*
X147697813Y-110623175D01*
X147722289Y-110639529D01*
X147734496Y-110647686D01*
X147797314Y-110710504D01*
X147833905Y-110765265D01*
X147846672Y-110784373D01*
X147880669Y-110866448D01*
X147898000Y-110953579D01*
X147898000Y-111042421D01*
X147880669Y-111129552D01*
X147846672Y-111211627D01*
X147803973Y-111275531D01*
X147797314Y-111285496D01*
X147734496Y-111348314D01*
X147660629Y-111397671D01*
X147660628Y-111397672D01*
X147660627Y-111397672D01*
X147578552Y-111431669D01*
X147491421Y-111449000D01*
X147402579Y-111449000D01*
X147315448Y-111431669D01*
X147233373Y-111397672D01*
X147233372Y-111397672D01*
X147233371Y-111397671D01*
X147159504Y-111348314D01*
X147096686Y-111285496D01*
X147090028Y-111275531D01*
X147047328Y-111211627D01*
X147013331Y-111129552D01*
X146996000Y-111042421D01*
X146996000Y-110953579D01*
X147013331Y-110866448D01*
X147047328Y-110784373D01*
X147060096Y-110765265D01*
X147096686Y-110710504D01*
X147159504Y-110647686D01*
X147171712Y-110639529D01*
X147196187Y-110623175D01*
X147233371Y-110598329D01*
X147233373Y-110598328D01*
X147315448Y-110564331D01*
X147402579Y-110547000D01*
X147491421Y-110547000D01*
X147578552Y-110564331D01*
G37*
G36*
X141736552Y-110564331D02*
G01*
X141818627Y-110598328D01*
X141818629Y-110598329D01*
X141855813Y-110623175D01*
X141880289Y-110639529D01*
X141892496Y-110647686D01*
X141955314Y-110710504D01*
X141991905Y-110765265D01*
X142004672Y-110784373D01*
X142038669Y-110866448D01*
X142056000Y-110953579D01*
X142056000Y-111042421D01*
X142038669Y-111129552D01*
X142004672Y-111211627D01*
X141961973Y-111275531D01*
X141955314Y-111285496D01*
X141892496Y-111348314D01*
X141818629Y-111397671D01*
X141818628Y-111397672D01*
X141818627Y-111397672D01*
X141736552Y-111431669D01*
X141649421Y-111449000D01*
X141560579Y-111449000D01*
X141473448Y-111431669D01*
X141391373Y-111397672D01*
X141391372Y-111397672D01*
X141391371Y-111397671D01*
X141317504Y-111348314D01*
X141254686Y-111285496D01*
X141248028Y-111275531D01*
X141205328Y-111211627D01*
X141171331Y-111129552D01*
X141154000Y-111042421D01*
X141154000Y-110953579D01*
X141171331Y-110866448D01*
X141205328Y-110784373D01*
X141218096Y-110765265D01*
X141254686Y-110710504D01*
X141317504Y-110647686D01*
X141329712Y-110639529D01*
X141354187Y-110623175D01*
X141391371Y-110598329D01*
X141391373Y-110598328D01*
X141473448Y-110564331D01*
X141560579Y-110547000D01*
X141649421Y-110547000D01*
X141736552Y-110564331D01*
G37*
G36*
X158841059Y-109251860D02*
G01*
X158926718Y-109287341D01*
X158977732Y-109308472D01*
X159100735Y-109390660D01*
X159205340Y-109495265D01*
X159287528Y-109618268D01*
X159287529Y-109618270D01*
X159344140Y-109754941D01*
X159366718Y-109868448D01*
X159373000Y-109900033D01*
X159373000Y-110047967D01*
X159344140Y-110193059D01*
X159287528Y-110329732D01*
X159205340Y-110452735D01*
X159100735Y-110557340D01*
X158977732Y-110639528D01*
X158977731Y-110639529D01*
X158977730Y-110639529D01*
X158841059Y-110696140D01*
X158695968Y-110725000D01*
X158548032Y-110725000D01*
X158402941Y-110696140D01*
X158266270Y-110639529D01*
X158266269Y-110639529D01*
X158266268Y-110639528D01*
X158143265Y-110557340D01*
X158038660Y-110452735D01*
X157956472Y-110329732D01*
X157899860Y-110193059D01*
X157871000Y-110047967D01*
X157871000Y-109900033D01*
X157877283Y-109868448D01*
X157899860Y-109754941D01*
X157956471Y-109618270D01*
X157956472Y-109618268D01*
X158038660Y-109495265D01*
X158143265Y-109390660D01*
X158266268Y-109308472D01*
X158317283Y-109287341D01*
X158402941Y-109251860D01*
X158548032Y-109223000D01*
X158695968Y-109223000D01*
X158841059Y-109251860D01*
G37*
G36*
X115028059Y-109251860D02*
G01*
X115113718Y-109287341D01*
X115164732Y-109308472D01*
X115287735Y-109390660D01*
X115392340Y-109495265D01*
X115474528Y-109618268D01*
X115474529Y-109618270D01*
X115531140Y-109754941D01*
X115553718Y-109868448D01*
X115560000Y-109900033D01*
X115560000Y-110047967D01*
X115531140Y-110193059D01*
X115474528Y-110329732D01*
X115392340Y-110452735D01*
X115287735Y-110557340D01*
X115164732Y-110639528D01*
X115164731Y-110639529D01*
X115164730Y-110639529D01*
X115028059Y-110696140D01*
X114882968Y-110725000D01*
X114735032Y-110725000D01*
X114589941Y-110696140D01*
X114453270Y-110639529D01*
X114453269Y-110639529D01*
X114453268Y-110639528D01*
X114330265Y-110557340D01*
X114225660Y-110452735D01*
X114143472Y-110329732D01*
X114086860Y-110193059D01*
X114058000Y-110047967D01*
X114058000Y-109900033D01*
X114064283Y-109868448D01*
X114086860Y-109754941D01*
X114143471Y-109618270D01*
X114143472Y-109618268D01*
X114225660Y-109495265D01*
X114330265Y-109390660D01*
X114453268Y-109308472D01*
X114504283Y-109287341D01*
X114589941Y-109251860D01*
X114735032Y-109223000D01*
X114882968Y-109223000D01*
X115028059Y-109251860D01*
G37*
G36*
X125131552Y-109566331D02*
G01*
X125213627Y-109600328D01*
X125213629Y-109600329D01*
X125240476Y-109618268D01*
X125287495Y-109649685D01*
X125350315Y-109712505D01*
X125399672Y-109786373D01*
X125433669Y-109868448D01*
X125451000Y-109955579D01*
X125451000Y-110044421D01*
X125433669Y-110131552D01*
X125399672Y-110213627D01*
X125399671Y-110213629D01*
X125350314Y-110287496D01*
X125287496Y-110350314D01*
X125213629Y-110399671D01*
X125213628Y-110399672D01*
X125213627Y-110399672D01*
X125131552Y-110433669D01*
X125044421Y-110451000D01*
X124955579Y-110451000D01*
X124868448Y-110433669D01*
X124786373Y-110399672D01*
X124786372Y-110399672D01*
X124786371Y-110399671D01*
X124712504Y-110350314D01*
X124649686Y-110287496D01*
X124600329Y-110213629D01*
X124600328Y-110213627D01*
X124566331Y-110131552D01*
X124549000Y-110044421D01*
X124549000Y-109955579D01*
X124566331Y-109868448D01*
X124600328Y-109786373D01*
X124649685Y-109712505D01*
X124712505Y-109649685D01*
X124759524Y-109618268D01*
X124786371Y-109600329D01*
X124786373Y-109600328D01*
X124868448Y-109566331D01*
X124955579Y-109549000D01*
X125044421Y-109549000D01*
X125131552Y-109566331D01*
G37*
G36*
X156301059Y-107981860D02*
G01*
X156437732Y-108038472D01*
X156560735Y-108120660D01*
X156665340Y-108225265D01*
X156747528Y-108348268D01*
X156747529Y-108348270D01*
X156804140Y-108484941D01*
X156827544Y-108602600D01*
X156833000Y-108630033D01*
X156833000Y-108777967D01*
X156804140Y-108923059D01*
X156747528Y-109059732D01*
X156665340Y-109182735D01*
X156560735Y-109287340D01*
X156437732Y-109369528D01*
X156437731Y-109369529D01*
X156437730Y-109369529D01*
X156301059Y-109426140D01*
X156155968Y-109455000D01*
X156008032Y-109455000D01*
X155862941Y-109426140D01*
X155726270Y-109369529D01*
X155726269Y-109369529D01*
X155726268Y-109369528D01*
X155603265Y-109287340D01*
X155498660Y-109182735D01*
X155416472Y-109059732D01*
X155359860Y-108923059D01*
X155331000Y-108777967D01*
X155331000Y-108630033D01*
X155336457Y-108602600D01*
X155359860Y-108484941D01*
X155416471Y-108348270D01*
X155416472Y-108348268D01*
X155498660Y-108225265D01*
X155603265Y-108120660D01*
X155726268Y-108038472D01*
X155862941Y-107981860D01*
X156008032Y-107953000D01*
X156155968Y-107953000D01*
X156301059Y-107981860D01*
G37*
G36*
X112488059Y-107981860D02*
G01*
X112624732Y-108038472D01*
X112747735Y-108120660D01*
X112852340Y-108225265D01*
X112934528Y-108348268D01*
X112934529Y-108348270D01*
X112991140Y-108484941D01*
X113014544Y-108602600D01*
X113020000Y-108630033D01*
X113020000Y-108777967D01*
X112991140Y-108923059D01*
X112934528Y-109059732D01*
X112852340Y-109182735D01*
X112747735Y-109287340D01*
X112624732Y-109369528D01*
X112624731Y-109369529D01*
X112624730Y-109369529D01*
X112488059Y-109426140D01*
X112342968Y-109455000D01*
X112195032Y-109455000D01*
X112049941Y-109426140D01*
X111913270Y-109369529D01*
X111913269Y-109369529D01*
X111913268Y-109369528D01*
X111790265Y-109287340D01*
X111685660Y-109182735D01*
X111603472Y-109059732D01*
X111546860Y-108923059D01*
X111518000Y-108777967D01*
X111518000Y-108630033D01*
X111523457Y-108602600D01*
X111546860Y-108484941D01*
X111603471Y-108348270D01*
X111603472Y-108348268D01*
X111685660Y-108225265D01*
X111790265Y-108120660D01*
X111913268Y-108038472D01*
X112049941Y-107981860D01*
X112195032Y-107953000D01*
X112342968Y-107953000D01*
X112488059Y-107981860D01*
G37*
G36*
X146820321Y-107521774D02*
G01*
X146920595Y-107563309D01*
X146931372Y-107570510D01*
X147010842Y-107623610D01*
X147087590Y-107700358D01*
X147087591Y-107700360D01*
X147147891Y-107790605D01*
X147189426Y-107890879D01*
X147210600Y-107997330D01*
X147210600Y-108105870D01*
X147189426Y-108212321D01*
X147147891Y-108312595D01*
X147147890Y-108312596D01*
X147087590Y-108402842D01*
X147010842Y-108479590D01*
X146965412Y-108509945D01*
X146920595Y-108539891D01*
X146820321Y-108581426D01*
X146713870Y-108602600D01*
X146605330Y-108602600D01*
X146498879Y-108581426D01*
X146398605Y-108539891D01*
X146353788Y-108509945D01*
X146308358Y-108479590D01*
X146231610Y-108402842D01*
X146171310Y-108312596D01*
X146171309Y-108312595D01*
X146129774Y-108212321D01*
X146108600Y-108105870D01*
X146108600Y-107997330D01*
X146129774Y-107890879D01*
X146171309Y-107790605D01*
X146231609Y-107700360D01*
X146231610Y-107700358D01*
X146308358Y-107623610D01*
X146387828Y-107570510D01*
X146398605Y-107563309D01*
X146498879Y-107521774D01*
X146605330Y-107500600D01*
X146713870Y-107500600D01*
X146820321Y-107521774D01*
G37*
G36*
X136302421Y-107468674D02*
G01*
X136402695Y-107510209D01*
X136447512Y-107540155D01*
X136492942Y-107570510D01*
X136569690Y-107647258D01*
X136569691Y-107647260D01*
X136629991Y-107737505D01*
X136671526Y-107837779D01*
X136692700Y-107944230D01*
X136692700Y-108052770D01*
X136671526Y-108159221D01*
X136629991Y-108259495D01*
X136629990Y-108259496D01*
X136569690Y-108349742D01*
X136492942Y-108426490D01*
X136447512Y-108456845D01*
X136402695Y-108486791D01*
X136302421Y-108528326D01*
X136195970Y-108549500D01*
X136087430Y-108549500D01*
X135980979Y-108528326D01*
X135880705Y-108486791D01*
X135835888Y-108456845D01*
X135790458Y-108426490D01*
X135713710Y-108349742D01*
X135653410Y-108259496D01*
X135653409Y-108259495D01*
X135611874Y-108159221D01*
X135590700Y-108052770D01*
X135590700Y-107944230D01*
X135611874Y-107837779D01*
X135653409Y-107737505D01*
X135713709Y-107647260D01*
X135713710Y-107647258D01*
X135790458Y-107570510D01*
X135835888Y-107540155D01*
X135880705Y-107510209D01*
X135980979Y-107468674D01*
X136087430Y-107447500D01*
X136195970Y-107447500D01*
X136302421Y-107468674D01*
G37*
G36*
X103258487Y-104147996D02*
G01*
X103495253Y-104246068D01*
X103495255Y-104246069D01*
X103708339Y-104388447D01*
X103889553Y-104569661D01*
X104029798Y-104779552D01*
X104031932Y-104782747D01*
X104130004Y-105019513D01*
X104180000Y-105270861D01*
X104180000Y-105527139D01*
X104130004Y-105778487D01*
X104031932Y-106015253D01*
X104031931Y-106015255D01*
X103889553Y-106228339D01*
X103708339Y-106409553D01*
X103495255Y-106551931D01*
X103495254Y-106551932D01*
X103495253Y-106551932D01*
X103258487Y-106650004D01*
X103007139Y-106700000D01*
X102750861Y-106700000D01*
X102499513Y-106650004D01*
X102262747Y-106551932D01*
X102262746Y-106551932D01*
X102262745Y-106551931D01*
X102049661Y-106409553D01*
X101868447Y-106228339D01*
X101726069Y-106015255D01*
X101726068Y-106015253D01*
X101627996Y-105778487D01*
X101578000Y-105527139D01*
X101578000Y-105270861D01*
X101627996Y-105019513D01*
X101726068Y-104782747D01*
X101728203Y-104779552D01*
X101868447Y-104569661D01*
X102049661Y-104388447D01*
X102262745Y-104246069D01*
X102262747Y-104246068D01*
X102499513Y-104147996D01*
X102750861Y-104098000D01*
X103007139Y-104098000D01*
X103258487Y-104147996D01*
G37*
G36*
X109358487Y-104147996D02*
G01*
X109595253Y-104246068D01*
X109595255Y-104246069D01*
X109808339Y-104388447D01*
X109989553Y-104569661D01*
X110129798Y-104779552D01*
X110131932Y-104782747D01*
X110230004Y-105019513D01*
X110280000Y-105270861D01*
X110280000Y-105527139D01*
X110230004Y-105778487D01*
X110131932Y-106015253D01*
X110131931Y-106015255D01*
X109989553Y-106228339D01*
X109808339Y-106409553D01*
X109595255Y-106551931D01*
X109595254Y-106551932D01*
X109595253Y-106551932D01*
X109358487Y-106650004D01*
X109107139Y-106700000D01*
X108850861Y-106700000D01*
X108599513Y-106650004D01*
X108362747Y-106551932D01*
X108362746Y-106551932D01*
X108362745Y-106551931D01*
X108149661Y-106409553D01*
X107968447Y-106228339D01*
X107826069Y-106015255D01*
X107826068Y-106015253D01*
X107727996Y-105778487D01*
X107678000Y-105527139D01*
X107678000Y-105270861D01*
X107727996Y-105019513D01*
X107826068Y-104782747D01*
X107828203Y-104779552D01*
X107968447Y-104569661D01*
X108149661Y-104388447D01*
X108362745Y-104246069D01*
X108362747Y-104246068D01*
X108599513Y-104147996D01*
X108850861Y-104098000D01*
X109107139Y-104098000D01*
X109358487Y-104147996D01*
G37*
G36*
X162291487Y-104147996D02*
G01*
X162528253Y-104246068D01*
X162528255Y-104246069D01*
X162741339Y-104388447D01*
X162922553Y-104569661D01*
X163062798Y-104779552D01*
X163064932Y-104782747D01*
X163163004Y-105019513D01*
X163213000Y-105270861D01*
X163213000Y-105527139D01*
X163163004Y-105778487D01*
X163064932Y-106015253D01*
X163064931Y-106015255D01*
X162922553Y-106228339D01*
X162741339Y-106409553D01*
X162528255Y-106551931D01*
X162528254Y-106551932D01*
X162528253Y-106551932D01*
X162291487Y-106650004D01*
X162040139Y-106700000D01*
X161783861Y-106700000D01*
X161532513Y-106650004D01*
X161295747Y-106551932D01*
X161295746Y-106551932D01*
X161295745Y-106551931D01*
X161082661Y-106409553D01*
X160901447Y-106228339D01*
X160759069Y-106015255D01*
X160759068Y-106015253D01*
X160660996Y-105778487D01*
X160611000Y-105527139D01*
X160611000Y-105270861D01*
X160660996Y-105019513D01*
X160759068Y-104782747D01*
X160761203Y-104779552D01*
X160901447Y-104569661D01*
X161082661Y-104388447D01*
X161295745Y-104246069D01*
X161295747Y-104246068D01*
X161532513Y-104147996D01*
X161783861Y-104098000D01*
X162040139Y-104098000D01*
X162291487Y-104147996D01*
G37*
G36*
X168391487Y-104147996D02*
G01*
X168628253Y-104246068D01*
X168628255Y-104246069D01*
X168841339Y-104388447D01*
X169022553Y-104569661D01*
X169162798Y-104779552D01*
X169164932Y-104782747D01*
X169263004Y-105019513D01*
X169313000Y-105270861D01*
X169313000Y-105527139D01*
X169263004Y-105778487D01*
X169164932Y-106015253D01*
X169164931Y-106015255D01*
X169022553Y-106228339D01*
X168841339Y-106409553D01*
X168628255Y-106551931D01*
X168628254Y-106551932D01*
X168628253Y-106551932D01*
X168391487Y-106650004D01*
X168140139Y-106700000D01*
X167883861Y-106700000D01*
X167632513Y-106650004D01*
X167395747Y-106551932D01*
X167395746Y-106551932D01*
X167395745Y-106551931D01*
X167182661Y-106409553D01*
X167001447Y-106228339D01*
X166859069Y-106015255D01*
X166859068Y-106015253D01*
X166760996Y-105778487D01*
X166711000Y-105527139D01*
X166711000Y-105270861D01*
X166760996Y-105019513D01*
X166859068Y-104782747D01*
X166861203Y-104779552D01*
X167001447Y-104569661D01*
X167182661Y-104388447D01*
X167395745Y-104246069D01*
X167395747Y-104246068D01*
X167632513Y-104147996D01*
X167883861Y-104098000D01*
X168140139Y-104098000D01*
X168391487Y-104147996D01*
G37*
G36*
X145165552Y-104214331D02*
G01*
X145242173Y-104246069D01*
X145247629Y-104248329D01*
X145268759Y-104262448D01*
X145321495Y-104297685D01*
X145384315Y-104360505D01*
X145433672Y-104434373D01*
X145467669Y-104516448D01*
X145485000Y-104603579D01*
X145485000Y-104692421D01*
X145467669Y-104779552D01*
X145447738Y-104827668D01*
X145433671Y-104861629D01*
X145384314Y-104935496D01*
X145321496Y-104998314D01*
X145247629Y-105047671D01*
X145247628Y-105047672D01*
X145247627Y-105047672D01*
X145165552Y-105081669D01*
X145078421Y-105099000D01*
X144989579Y-105099000D01*
X144902448Y-105081669D01*
X144820373Y-105047672D01*
X144820372Y-105047672D01*
X144820371Y-105047671D01*
X144746504Y-104998314D01*
X144683686Y-104935496D01*
X144634329Y-104861629D01*
X144620262Y-104827668D01*
X144600331Y-104779552D01*
X144583000Y-104692421D01*
X144583000Y-104603579D01*
X144600331Y-104516448D01*
X144634328Y-104434373D01*
X144683685Y-104360505D01*
X144746505Y-104297685D01*
X144799241Y-104262448D01*
X144820371Y-104248329D01*
X144825827Y-104246069D01*
X144902448Y-104214331D01*
X144989579Y-104197000D01*
X145078421Y-104197000D01*
X145165552Y-104214331D01*
G37*
G36*
X139577552Y-103960331D02*
G01*
X139659627Y-103994328D01*
X139659629Y-103994329D01*
X139696813Y-104019175D01*
X139733495Y-104043685D01*
X139796315Y-104106505D01*
X139845672Y-104180373D01*
X139879669Y-104262448D01*
X139897000Y-104349579D01*
X139897000Y-104438421D01*
X139879669Y-104525552D01*
X139861398Y-104569661D01*
X139845671Y-104607629D01*
X139796314Y-104681496D01*
X139733496Y-104744314D01*
X139659629Y-104793671D01*
X139659628Y-104793672D01*
X139659627Y-104793672D01*
X139577552Y-104827669D01*
X139490421Y-104845000D01*
X139401579Y-104845000D01*
X139314448Y-104827669D01*
X139232373Y-104793672D01*
X139232372Y-104793672D01*
X139232371Y-104793671D01*
X139158504Y-104744314D01*
X139095686Y-104681496D01*
X139046329Y-104607629D01*
X139030602Y-104569661D01*
X139012331Y-104525552D01*
X138995000Y-104438421D01*
X138995000Y-104349579D01*
X139012331Y-104262448D01*
X139046328Y-104180373D01*
X139095685Y-104106505D01*
X139158505Y-104043685D01*
X139195187Y-104019175D01*
X139232371Y-103994329D01*
X139232373Y-103994328D01*
X139314448Y-103960331D01*
X139401579Y-103943000D01*
X139490421Y-103943000D01*
X139577552Y-103960331D01*
G37*
G36*
X133481552Y-103960331D02*
G01*
X133563627Y-103994328D01*
X133563629Y-103994329D01*
X133600813Y-104019175D01*
X133637495Y-104043685D01*
X133700315Y-104106505D01*
X133749672Y-104180373D01*
X133783669Y-104262448D01*
X133801000Y-104349579D01*
X133801000Y-104438421D01*
X133783669Y-104525552D01*
X133765398Y-104569661D01*
X133749671Y-104607629D01*
X133700314Y-104681496D01*
X133637496Y-104744314D01*
X133563629Y-104793671D01*
X133563628Y-104793672D01*
X133563627Y-104793672D01*
X133481552Y-104827669D01*
X133394421Y-104845000D01*
X133305579Y-104845000D01*
X133218448Y-104827669D01*
X133136373Y-104793672D01*
X133136372Y-104793672D01*
X133136371Y-104793671D01*
X133062504Y-104744314D01*
X132999686Y-104681496D01*
X132950329Y-104607629D01*
X132934602Y-104569661D01*
X132916331Y-104525552D01*
X132899000Y-104438421D01*
X132899000Y-104349579D01*
X132916331Y-104262448D01*
X132950328Y-104180373D01*
X132999685Y-104106505D01*
X133062505Y-104043685D01*
X133099187Y-104019175D01*
X133136371Y-103994329D01*
X133136373Y-103994328D01*
X133218448Y-103960331D01*
X133305579Y-103943000D01*
X133394421Y-103943000D01*
X133481552Y-103960331D01*
G37*
G36*
X155731952Y-103096731D02*
G01*
X155814027Y-103130728D01*
X155814029Y-103130729D01*
X155851213Y-103155575D01*
X155887895Y-103180085D01*
X155950715Y-103242905D01*
X156000072Y-103316773D01*
X156034069Y-103398848D01*
X156051400Y-103485979D01*
X156051400Y-103574821D01*
X156034069Y-103661952D01*
X156000072Y-103744027D01*
X156000071Y-103744029D01*
X155950714Y-103817896D01*
X155887896Y-103880714D01*
X155814029Y-103930071D01*
X155814028Y-103930072D01*
X155814027Y-103930072D01*
X155731952Y-103964069D01*
X155644821Y-103981400D01*
X155555979Y-103981400D01*
X155468848Y-103964069D01*
X155386773Y-103930072D01*
X155386772Y-103930072D01*
X155386771Y-103930071D01*
X155312904Y-103880714D01*
X155250086Y-103817896D01*
X155200729Y-103744029D01*
X155200728Y-103744027D01*
X155166731Y-103661952D01*
X155149400Y-103574821D01*
X155149400Y-103485979D01*
X155166731Y-103398848D01*
X155200728Y-103316773D01*
X155250085Y-103242905D01*
X155312905Y-103180085D01*
X155349587Y-103155575D01*
X155386771Y-103130729D01*
X155386773Y-103130728D01*
X155468848Y-103096731D01*
X155555979Y-103079400D01*
X155644821Y-103079400D01*
X155731952Y-103096731D01*
G37*
G36*
X160413000Y-102901000D02*
G01*
X158611000Y-102901000D01*
X158611000Y-101099000D01*
X160413000Y-101099000D01*
X160413000Y-102901000D01*
G37*
G36*
X142573512Y-99603927D02*
G01*
X142722812Y-99633624D01*
X142886784Y-99701544D01*
X143034354Y-99800147D01*
X143159853Y-99925646D01*
X143258456Y-100073216D01*
X143326376Y-100237188D01*
X143361000Y-100411259D01*
X143361000Y-100588741D01*
X143326376Y-100762812D01*
X143258456Y-100926784D01*
X143159853Y-101074354D01*
X143034354Y-101199853D01*
X142886784Y-101298456D01*
X142722812Y-101366376D01*
X142573512Y-101396073D01*
X142548742Y-101401000D01*
X142371258Y-101401000D01*
X142346488Y-101396073D01*
X142197188Y-101366376D01*
X142033216Y-101298456D01*
X141885646Y-101199853D01*
X141760147Y-101074354D01*
X141661544Y-100926784D01*
X141593624Y-100762812D01*
X141559000Y-100588741D01*
X141559000Y-100411259D01*
X141593624Y-100237188D01*
X141661544Y-100073216D01*
X141760147Y-99925646D01*
X141885646Y-99800147D01*
X142033216Y-99701544D01*
X142197188Y-99633624D01*
X142346488Y-99603927D01*
X142371258Y-99599000D01*
X142548742Y-99599000D01*
X142573512Y-99603927D01*
G37*
G36*
X145901000Y-101401000D02*
G01*
X144099000Y-101401000D01*
X144099000Y-99599000D01*
X145901000Y-99599000D01*
X145901000Y-101401000D01*
G37*
G36*
X140033512Y-99603927D02*
G01*
X140182812Y-99633624D01*
X140346784Y-99701544D01*
X140494354Y-99800147D01*
X140619853Y-99925646D01*
X140718456Y-100073216D01*
X140786376Y-100237188D01*
X140821000Y-100411259D01*
X140821000Y-100588741D01*
X140786376Y-100762812D01*
X140718456Y-100926784D01*
X140619853Y-101074354D01*
X140494354Y-101199853D01*
X140346784Y-101298456D01*
X140182812Y-101366376D01*
X140033512Y-101396073D01*
X140008742Y-101401000D01*
X139831258Y-101401000D01*
X139806488Y-101396073D01*
X139657188Y-101366376D01*
X139493216Y-101298456D01*
X139345646Y-101199853D01*
X139220147Y-101074354D01*
X139121544Y-100926784D01*
X139053624Y-100762812D01*
X139019000Y-100588741D01*
X139019000Y-100411259D01*
X139053624Y-100237188D01*
X139121544Y-100073216D01*
X139220147Y-99925646D01*
X139345646Y-99800147D01*
X139493216Y-99701544D01*
X139657188Y-99633624D01*
X139806488Y-99603927D01*
X139831258Y-99599000D01*
X140008742Y-99599000D01*
X140033512Y-99603927D01*
G37*
G36*
X159625512Y-98563927D02*
G01*
X159774812Y-98593624D01*
X159938784Y-98661544D01*
X160086354Y-98760147D01*
X160211853Y-98885646D01*
X160310456Y-99033216D01*
X160378376Y-99197188D01*
X160413000Y-99371259D01*
X160413000Y-99548741D01*
X160378376Y-99722812D01*
X160310456Y-99886784D01*
X160211853Y-100034354D01*
X160086354Y-100159853D01*
X159938784Y-100258456D01*
X159774812Y-100326376D01*
X159625512Y-100356073D01*
X159600742Y-100361000D01*
X159423258Y-100361000D01*
X159398488Y-100356073D01*
X159249188Y-100326376D01*
X159085216Y-100258456D01*
X158937646Y-100159853D01*
X158812147Y-100034354D01*
X158713544Y-99886784D01*
X158645624Y-99722812D01*
X158611000Y-99548741D01*
X158611000Y-99371259D01*
X158645624Y-99197188D01*
X158713544Y-99033216D01*
X158812147Y-98885646D01*
X158937646Y-98760147D01*
X159085216Y-98661544D01*
X159249188Y-98593624D01*
X159398488Y-98563927D01*
X159423258Y-98559000D01*
X159600742Y-98559000D01*
X159625512Y-98563927D01*
G37*
G36*
X120916000Y-99072000D02*
G01*
X119114000Y-99072000D01*
X119114000Y-97270000D01*
X120916000Y-97270000D01*
X120916000Y-99072000D01*
G37*
G36*
X159625512Y-96023927D02*
G01*
X159774812Y-96053624D01*
X159938784Y-96121544D01*
X160086354Y-96220147D01*
X160211853Y-96345646D01*
X160310456Y-96493216D01*
X160378376Y-96657188D01*
X160413000Y-96831259D01*
X160413000Y-97008741D01*
X160378376Y-97182812D01*
X160310456Y-97346784D01*
X160211853Y-97494354D01*
X160086354Y-97619853D01*
X159938784Y-97718456D01*
X159774812Y-97786376D01*
X159625512Y-97816073D01*
X159600742Y-97821000D01*
X159423258Y-97821000D01*
X159398488Y-97816073D01*
X159249188Y-97786376D01*
X159085216Y-97718456D01*
X158937646Y-97619853D01*
X158812147Y-97494354D01*
X158713544Y-97346784D01*
X158645624Y-97182812D01*
X158611000Y-97008741D01*
X158611000Y-96831259D01*
X158645624Y-96657188D01*
X158713544Y-96493216D01*
X158812147Y-96345646D01*
X158937646Y-96220147D01*
X159085216Y-96121544D01*
X159249188Y-96053624D01*
X159398488Y-96023927D01*
X159423258Y-96019000D01*
X159600742Y-96019000D01*
X159625512Y-96023927D01*
G37*
G36*
X120128512Y-94734927D02*
G01*
X120277812Y-94764624D01*
X120441784Y-94832544D01*
X120589354Y-94931147D01*
X120714853Y-95056646D01*
X120813456Y-95204216D01*
X120881376Y-95368188D01*
X120916000Y-95542259D01*
X120916000Y-95719741D01*
X120881376Y-95893812D01*
X120813456Y-96057784D01*
X120714853Y-96205354D01*
X120589354Y-96330853D01*
X120441784Y-96429456D01*
X120277812Y-96497376D01*
X120128512Y-96527073D01*
X120103742Y-96532000D01*
X119926258Y-96532000D01*
X119901488Y-96527073D01*
X119752188Y-96497376D01*
X119588216Y-96429456D01*
X119440646Y-96330853D01*
X119315147Y-96205354D01*
X119216544Y-96057784D01*
X119148624Y-95893812D01*
X119114000Y-95719741D01*
X119114000Y-95542259D01*
X119148624Y-95368188D01*
X119216544Y-95204216D01*
X119315147Y-95056646D01*
X119440646Y-94931147D01*
X119588216Y-94832544D01*
X119752188Y-94764624D01*
X119901488Y-94734927D01*
X119926258Y-94730000D01*
X120103742Y-94730000D01*
X120128512Y-94734927D01*
G37*
G36*
X159625512Y-93483927D02*
G01*
X159774812Y-93513624D01*
X159938784Y-93581544D01*
X160086354Y-93680147D01*
X160211853Y-93805646D01*
X160310456Y-93953216D01*
X160378376Y-94117188D01*
X160413000Y-94291259D01*
X160413000Y-94468741D01*
X160378376Y-94642812D01*
X160310456Y-94806784D01*
X160211853Y-94954354D01*
X160086354Y-95079853D01*
X159938784Y-95178456D01*
X159774812Y-95246376D01*
X159625512Y-95276073D01*
X159600742Y-95281000D01*
X159423258Y-95281000D01*
X159398488Y-95276073D01*
X159249188Y-95246376D01*
X159085216Y-95178456D01*
X158937646Y-95079853D01*
X158812147Y-94954354D01*
X158713544Y-94806784D01*
X158645624Y-94642812D01*
X158611000Y-94468741D01*
X158611000Y-94291259D01*
X158645624Y-94117188D01*
X158713544Y-93953216D01*
X158812147Y-93805646D01*
X158937646Y-93680147D01*
X159085216Y-93581544D01*
X159249188Y-93513624D01*
X159398488Y-93483927D01*
X159423258Y-93479000D01*
X159600742Y-93479000D01*
X159625512Y-93483927D01*
G37*
G36*
X120128512Y-92194927D02*
G01*
X120277812Y-92224624D01*
X120441784Y-92292544D01*
X120589354Y-92391147D01*
X120714853Y-92516646D01*
X120813456Y-92664216D01*
X120881376Y-92828188D01*
X120916000Y-93002259D01*
X120916000Y-93179741D01*
X120881376Y-93353812D01*
X120813456Y-93517784D01*
X120714853Y-93665354D01*
X120589354Y-93790853D01*
X120441784Y-93889456D01*
X120277812Y-93957376D01*
X120128512Y-93987073D01*
X120103742Y-93992000D01*
X119926258Y-93992000D01*
X119901488Y-93987073D01*
X119752188Y-93957376D01*
X119588216Y-93889456D01*
X119440646Y-93790853D01*
X119315147Y-93665354D01*
X119216544Y-93517784D01*
X119148624Y-93353812D01*
X119114000Y-93179741D01*
X119114000Y-93002259D01*
X119148624Y-92828188D01*
X119216544Y-92664216D01*
X119315147Y-92516646D01*
X119440646Y-92391147D01*
X119588216Y-92292544D01*
X119752188Y-92224624D01*
X119901488Y-92194927D01*
X119926258Y-92190000D01*
X120103742Y-92190000D01*
X120128512Y-92194927D01*
G37*
G36*
X159625512Y-90943927D02*
G01*
X159774812Y-90973624D01*
X159938784Y-91041544D01*
X160086354Y-91140147D01*
X160211853Y-91265646D01*
X160310456Y-91413216D01*
X160378376Y-91577188D01*
X160413000Y-91751259D01*
X160413000Y-91928741D01*
X160378376Y-92102812D01*
X160310456Y-92266784D01*
X160211853Y-92414354D01*
X160086354Y-92539853D01*
X159938784Y-92638456D01*
X159774812Y-92706376D01*
X159625512Y-92736073D01*
X159600742Y-92741000D01*
X159423258Y-92741000D01*
X159398488Y-92736073D01*
X159249188Y-92706376D01*
X159085216Y-92638456D01*
X158937646Y-92539853D01*
X158812147Y-92414354D01*
X158713544Y-92266784D01*
X158645624Y-92102812D01*
X158611000Y-91928741D01*
X158611000Y-91751259D01*
X158645624Y-91577188D01*
X158713544Y-91413216D01*
X158812147Y-91265646D01*
X158937646Y-91140147D01*
X159085216Y-91041544D01*
X159249188Y-90973624D01*
X159398488Y-90943927D01*
X159423258Y-90939000D01*
X159600742Y-90939000D01*
X159625512Y-90943927D01*
G37*
G36*
X145728878Y-90215650D02*
G01*
X145728881Y-90215651D01*
X145728882Y-90215651D01*
X145926900Y-90275719D01*
X145926903Y-90275721D01*
X145926904Y-90275721D01*
X146109393Y-90373263D01*
X146269353Y-90504537D01*
X146400627Y-90664497D01*
X146480437Y-90813812D01*
X146498171Y-90846990D01*
X146557188Y-91041544D01*
X146558240Y-91045012D01*
X146578522Y-91250940D01*
X146558240Y-91456868D01*
X146558239Y-91456871D01*
X146558239Y-91456872D01*
X146498171Y-91654890D01*
X146498169Y-91654893D01*
X146498169Y-91654894D01*
X146400627Y-91837383D01*
X146269353Y-91997343D01*
X146109393Y-92128617D01*
X145994553Y-92190000D01*
X145926900Y-92226161D01*
X145728882Y-92286229D01*
X145728881Y-92286229D01*
X145728878Y-92286230D01*
X145574551Y-92301430D01*
X142969449Y-92301430D01*
X142815122Y-92286230D01*
X142815119Y-92286229D01*
X142815118Y-92286229D01*
X142617100Y-92226161D01*
X142549447Y-92190000D01*
X142434607Y-92128617D01*
X142274647Y-91997343D01*
X142143373Y-91837383D01*
X142045831Y-91654894D01*
X142045831Y-91654893D01*
X142045829Y-91654890D01*
X141985761Y-91456872D01*
X141985761Y-91456871D01*
X141985760Y-91456868D01*
X141965478Y-91250940D01*
X141985760Y-91045012D01*
X141986812Y-91041544D01*
X142045829Y-90846990D01*
X142063563Y-90813812D01*
X142143373Y-90664497D01*
X142274647Y-90504537D01*
X142434607Y-90373263D01*
X142617096Y-90275721D01*
X142617097Y-90275721D01*
X142617100Y-90275719D01*
X142815118Y-90215651D01*
X142815119Y-90215651D01*
X142815122Y-90215650D01*
X142969449Y-90200450D01*
X145574551Y-90200450D01*
X145728878Y-90215650D01*
G37*
G36*
X120128512Y-89654927D02*
G01*
X120277812Y-89684624D01*
X120441784Y-89752544D01*
X120589354Y-89851147D01*
X120714853Y-89976646D01*
X120813456Y-90124216D01*
X120881376Y-90288188D01*
X120916000Y-90462259D01*
X120916000Y-90639741D01*
X120881376Y-90813812D01*
X120813456Y-90977784D01*
X120714853Y-91125354D01*
X120589354Y-91250853D01*
X120441784Y-91349456D01*
X120277812Y-91417376D01*
X120128512Y-91447073D01*
X120103742Y-91452000D01*
X119926258Y-91452000D01*
X119901488Y-91447073D01*
X119752188Y-91417376D01*
X119588216Y-91349456D01*
X119440646Y-91250853D01*
X119315147Y-91125354D01*
X119216544Y-90977784D01*
X119148624Y-90813812D01*
X119114000Y-90639741D01*
X119114000Y-90462259D01*
X119148624Y-90288188D01*
X119216544Y-90124216D01*
X119315147Y-89976646D01*
X119440646Y-89851147D01*
X119588216Y-89752544D01*
X119752188Y-89684624D01*
X119901488Y-89654927D01*
X119926258Y-89650000D01*
X120103742Y-89650000D01*
X120128512Y-89654927D01*
G37*
G36*
X139176948Y-86464070D02*
G01*
X139176951Y-86464071D01*
X139176952Y-86464071D01*
X139374970Y-86524139D01*
X139374973Y-86524141D01*
X139374974Y-86524141D01*
X139557463Y-86621683D01*
X139717423Y-86752957D01*
X139848696Y-86912916D01*
X139946241Y-87095410D01*
X140006309Y-87293428D01*
X140006310Y-87293432D01*
X140021510Y-87447759D01*
X140021510Y-89552481D01*
X140006310Y-89706808D01*
X140006309Y-89706811D01*
X140006309Y-89706812D01*
X139946241Y-89904830D01*
X139946239Y-89904833D01*
X139946239Y-89904834D01*
X139848697Y-90087323D01*
X139717423Y-90247283D01*
X139599132Y-90344360D01*
X139557464Y-90378556D01*
X139374969Y-90476101D01*
X139176951Y-90536169D01*
X139176950Y-90536169D01*
X139176947Y-90536170D01*
X138971020Y-90556452D01*
X138765092Y-90536170D01*
X138765089Y-90536169D01*
X138765088Y-90536169D01*
X138567070Y-90476101D01*
X138541173Y-90462259D01*
X138384577Y-90378557D01*
X138224617Y-90247283D01*
X138123622Y-90124218D01*
X138093344Y-90087324D01*
X137995799Y-89904829D01*
X137935731Y-89706811D01*
X137935731Y-89706810D01*
X137935730Y-89706807D01*
X137920530Y-89552480D01*
X137920531Y-87447759D01*
X137935731Y-87293432D01*
X137935732Y-87293428D01*
X137995800Y-87095410D01*
X138093345Y-86912916D01*
X138224618Y-86752957D01*
X138384578Y-86621683D01*
X138567067Y-86524141D01*
X138567068Y-86524141D01*
X138567071Y-86524139D01*
X138765089Y-86464071D01*
X138765090Y-86464071D01*
X138765093Y-86464070D01*
X138971020Y-86443788D01*
X139176948Y-86464070D01*
G37*
G36*
X159625512Y-88403927D02*
G01*
X159774812Y-88433624D01*
X159938784Y-88501544D01*
X160086354Y-88600147D01*
X160211853Y-88725646D01*
X160310456Y-88873216D01*
X160378376Y-89037188D01*
X160413000Y-89211259D01*
X160413000Y-89388741D01*
X160378376Y-89562812D01*
X160310456Y-89726784D01*
X160211853Y-89874354D01*
X160086354Y-89999853D01*
X159938784Y-90098456D01*
X159774812Y-90166376D01*
X159625512Y-90196073D01*
X159600742Y-90201000D01*
X159423258Y-90201000D01*
X159398488Y-90196073D01*
X159249188Y-90166376D01*
X159085216Y-90098456D01*
X158937646Y-89999853D01*
X158812147Y-89874354D01*
X158713544Y-89726784D01*
X158645624Y-89562812D01*
X158611000Y-89388741D01*
X158611000Y-89211259D01*
X158645624Y-89037188D01*
X158713544Y-88873216D01*
X158812147Y-88725646D01*
X158937646Y-88600147D01*
X159085216Y-88501544D01*
X159249188Y-88433624D01*
X159398488Y-88403927D01*
X159423258Y-88399000D01*
X159600742Y-88399000D01*
X159625512Y-88403927D01*
G37*
G36*
X145478688Y-84213630D02*
G01*
X145478691Y-84213631D01*
X145478692Y-84213631D01*
X145676710Y-84273699D01*
X145676713Y-84273701D01*
X145676714Y-84273701D01*
X145859203Y-84371243D01*
X146019163Y-84502517D01*
X146150437Y-84662477D01*
X146238477Y-84827189D01*
X146247981Y-84844970D01*
X146308049Y-85042988D01*
X146308050Y-85042992D01*
X146328332Y-85248920D01*
X146308050Y-85454848D01*
X146308049Y-85454851D01*
X146308049Y-85454852D01*
X146247981Y-85652870D01*
X146247979Y-85652873D01*
X146247979Y-85652874D01*
X146150437Y-85835363D01*
X146019163Y-85995323D01*
X145859203Y-86126597D01*
X145676714Y-86224139D01*
X145676710Y-86224141D01*
X145478692Y-86284209D01*
X145478691Y-86284209D01*
X145478688Y-86284210D01*
X145324361Y-86299410D01*
X143219639Y-86299410D01*
X143065312Y-86284210D01*
X143065309Y-86284209D01*
X143065308Y-86284209D01*
X142867290Y-86224141D01*
X142867286Y-86224139D01*
X142684797Y-86126597D01*
X142524837Y-85995323D01*
X142393563Y-85835363D01*
X142296021Y-85652874D01*
X142296021Y-85652873D01*
X142296019Y-85652870D01*
X142235951Y-85454852D01*
X142235951Y-85454851D01*
X142235950Y-85454848D01*
X142215668Y-85248920D01*
X142235950Y-85042992D01*
X142235951Y-85042988D01*
X142296019Y-84844970D01*
X142305523Y-84827189D01*
X142393563Y-84662477D01*
X142524837Y-84502517D01*
X142684797Y-84371243D01*
X142867286Y-84273701D01*
X142867287Y-84273701D01*
X142867290Y-84273699D01*
X143065308Y-84213631D01*
X143065309Y-84213631D01*
X143065312Y-84213630D01*
X143219639Y-84198430D01*
X145324361Y-84198430D01*
X145478688Y-84213630D01*
G37*
G36*
X132219000Y-85991000D02*
G01*
X130417000Y-85991000D01*
X130417000Y-84189000D01*
X132219000Y-84189000D01*
X132219000Y-85991000D01*
G37*
G36*
X128891512Y-84193927D02*
G01*
X129040812Y-84223624D01*
X129204784Y-84291544D01*
X129352354Y-84390147D01*
X129477853Y-84515646D01*
X129576456Y-84663216D01*
X129644376Y-84827188D01*
X129679000Y-85001259D01*
X129679000Y-85178741D01*
X129644376Y-85352812D01*
X129576456Y-85516784D01*
X129477853Y-85664354D01*
X129352354Y-85789853D01*
X129204784Y-85888456D01*
X129040812Y-85956376D01*
X128891512Y-85986073D01*
X128866742Y-85991000D01*
X128689258Y-85991000D01*
X128664488Y-85986073D01*
X128515188Y-85956376D01*
X128351216Y-85888456D01*
X128203646Y-85789853D01*
X128078147Y-85664354D01*
X127979544Y-85516784D01*
X127911624Y-85352812D01*
X127877000Y-85178741D01*
X127877000Y-85001259D01*
X127911624Y-84827188D01*
X127979544Y-84663216D01*
X128078147Y-84515646D01*
X128203646Y-84390147D01*
X128351216Y-84291544D01*
X128515188Y-84223624D01*
X128664488Y-84193927D01*
X128689258Y-84189000D01*
X128866742Y-84189000D01*
X128891512Y-84193927D01*
G37*
G36*
X166375256Y-82391298D02*
G01*
X166481579Y-82412447D01*
X166782042Y-82536903D01*
X167052451Y-82717585D01*
X167282415Y-82947549D01*
X167282416Y-82947551D01*
X167463098Y-83217960D01*
X167587553Y-83518422D01*
X167651000Y-83837389D01*
X167651000Y-84162611D01*
X167625353Y-84291544D01*
X167587553Y-84481579D01*
X167463097Y-84782042D01*
X167282415Y-85052451D01*
X167052451Y-85282415D01*
X166782042Y-85463097D01*
X166481579Y-85587553D01*
X166375256Y-85608702D01*
X166162611Y-85651000D01*
X165837389Y-85651000D01*
X165624744Y-85608702D01*
X165518421Y-85587553D01*
X165217958Y-85463097D01*
X164947549Y-85282415D01*
X164717585Y-85052451D01*
X164536903Y-84782042D01*
X164412447Y-84481579D01*
X164374647Y-84291544D01*
X164349000Y-84162611D01*
X164349000Y-83837389D01*
X164412447Y-83518422D01*
X164536902Y-83217960D01*
X164717584Y-82947551D01*
X164717585Y-82947549D01*
X164947549Y-82717585D01*
X165217958Y-82536903D01*
X165518421Y-82412447D01*
X165624744Y-82391298D01*
X165837389Y-82349000D01*
X166162611Y-82349000D01*
X166375256Y-82391298D01*
G37*
G36*
X104375256Y-82391298D02*
G01*
X104481579Y-82412447D01*
X104782042Y-82536903D01*
X105052451Y-82717585D01*
X105282415Y-82947549D01*
X105282416Y-82947551D01*
X105463098Y-83217960D01*
X105587553Y-83518422D01*
X105651000Y-83837389D01*
X105651000Y-84162611D01*
X105625353Y-84291544D01*
X105587553Y-84481579D01*
X105463097Y-84782042D01*
X105282415Y-85052451D01*
X105052451Y-85282415D01*
X104782042Y-85463097D01*
X104481579Y-85587553D01*
X104375256Y-85608702D01*
X104162611Y-85651000D01*
X103837389Y-85651000D01*
X103624744Y-85608702D01*
X103518421Y-85587553D01*
X103217958Y-85463097D01*
X102947549Y-85282415D01*
X102717585Y-85052451D01*
X102536903Y-84782042D01*
X102412447Y-84481579D01*
X102374647Y-84291544D01*
X102349000Y-84162611D01*
X102349000Y-83837389D01*
X102412447Y-83518422D01*
X102536902Y-83217960D01*
X102717584Y-82947551D01*
X102717585Y-82947549D01*
X102947549Y-82717585D01*
X103217958Y-82536903D01*
X103518421Y-82412447D01*
X103624744Y-82391298D01*
X103837389Y-82349000D01*
X104162611Y-82349000D01*
X104375256Y-82391298D01*
G37*
M02*
