M48
; DRILL file {KiCad 5.1.6-c6e7f7d~87~ubuntu18.04.1} date Sun Aug 30 13:04:42 2020
; FORMAT={-:-/ absolute / metric / decimal}
; #@! TF.CreationDate,2020-08-30T13:04:42+02:00
; #@! TF.GenerationSoftware,Kicad,Pcbnew,5.1.6-c6e7f7d~87~ubuntu18.04.1
; #@! TF.FileFunction,Plated,1,2,PTH
FMAT,2
METRIC
T1C0.400
T2C0.500
T3C0.900
T4C1.000
T5C1.001
T6C1.600
%
G90
G05
T1
X118.364Y-119.253
X125.0Y-110.0
X125.0Y-119.0
X133.35Y-104.394
X134.62Y-118.618
X137.82Y-121.818
X139.446Y-104.394
X141.224Y-118.618
X141.605Y-110.998
X141.859Y-113.538
X141.859Y-116.078
X145.034Y-104.648
X147.447Y-110.998
X147.447Y-116.459
X147.574Y-113.157
X152.4Y-111.709
X155.6Y-103.53
T2
X134.671Y-117.348
X136.142Y-107.998
X146.66Y-108.052
T3
X156.082Y-108.704
X156.082Y-111.244
X156.082Y-113.784
X156.082Y-116.324
X158.622Y-109.974
X158.622Y-112.514
X158.622Y-115.054
X158.622Y-117.594
X112.269Y-108.704
X112.269Y-111.244
X112.269Y-113.784
X112.269Y-116.324
X114.809Y-109.974
X114.809Y-112.514
X114.809Y-115.054
X114.809Y-117.594
T4
X159.512Y-89.3
X159.512Y-91.84
X159.512Y-94.38
X159.512Y-96.92
X159.512Y-99.46
X159.512Y-102.0
X128.778Y-85.09
X131.318Y-85.09
X139.92Y-100.5
X142.46Y-100.5
X145.0Y-100.5
X120.015Y-90.551
X120.015Y-93.091
X120.015Y-95.631
X120.015Y-98.171
T6
X161.912Y-105.399
X161.912Y-120.899
X168.012Y-105.399
X168.012Y-120.899
X102.879Y-105.399
X102.879Y-120.899
X108.979Y-105.399
X108.979Y-120.899
T5
G00X138.971Y-89.5
M15
G01X138.971Y-87.501
M16
G05
G00X145.271Y-85.249
M15
G01X143.273Y-85.249
M16
G05
G00X145.522Y-91.251
M15
G01X143.022Y-91.251
M16
G05
T0
M30
