G04 #@! TF.GenerationSoftware,KiCad,Pcbnew,5.1.6-c6e7f7d~87~ubuntu18.04.1*
G04 #@! TF.CreationDate,2020-09-01T07:34:22+02:00*
G04 #@! TF.ProjectId,s88iso,73383869-736f-42e6-9b69-6361645f7063,2020/08*
G04 #@! TF.SameCoordinates,Original*
G04 #@! TF.FileFunction,Legend,Top*
G04 #@! TF.FilePolarity,Positive*
%FSLAX46Y46*%
G04 Gerber Fmt 4.6, Leading zero omitted, Abs format (unit mm)*
G04 Created by KiCad (PCBNEW 5.1.6-c6e7f7d~87~ubuntu18.04.1) date 2020-09-01 07:34:22*
%MOMM*%
%LPD*%
G01*
G04 APERTURE LIST*
%ADD10C,0.150000*%
%ADD11C,0.254000*%
%ADD12C,0.300000*%
G04 #@! TA.AperFunction,Profile*
%ADD13C,0.050000*%
G04 #@! TD*
%ADD14C,0.120000*%
%ADD15C,0.381000*%
%ADD16C,0.127000*%
%ADD17C,0.100000*%
%ADD18C,0.304800*%
%ADD19C,0.149860*%
G04 APERTURE END LIST*
D10*
X101108904Y-101052761D02*
X101251761Y-101100380D01*
X101489857Y-101100380D01*
X101585095Y-101052761D01*
X101632714Y-101005142D01*
X101680333Y-100909904D01*
X101680333Y-100814666D01*
X101632714Y-100719428D01*
X101585095Y-100671809D01*
X101489857Y-100624190D01*
X101299380Y-100576571D01*
X101204142Y-100528952D01*
X101156523Y-100481333D01*
X101108904Y-100386095D01*
X101108904Y-100290857D01*
X101156523Y-100195619D01*
X101204142Y-100148000D01*
X101299380Y-100100380D01*
X101537476Y-100100380D01*
X101680333Y-100148000D01*
X102251761Y-100528952D02*
X102156523Y-100481333D01*
X102108904Y-100433714D01*
X102061285Y-100338476D01*
X102061285Y-100290857D01*
X102108904Y-100195619D01*
X102156523Y-100148000D01*
X102251761Y-100100380D01*
X102442238Y-100100380D01*
X102537476Y-100148000D01*
X102585095Y-100195619D01*
X102632714Y-100290857D01*
X102632714Y-100338476D01*
X102585095Y-100433714D01*
X102537476Y-100481333D01*
X102442238Y-100528952D01*
X102251761Y-100528952D01*
X102156523Y-100576571D01*
X102108904Y-100624190D01*
X102061285Y-100719428D01*
X102061285Y-100909904D01*
X102108904Y-101005142D01*
X102156523Y-101052761D01*
X102251761Y-101100380D01*
X102442238Y-101100380D01*
X102537476Y-101052761D01*
X102585095Y-101005142D01*
X102632714Y-100909904D01*
X102632714Y-100719428D01*
X102585095Y-100624190D01*
X102537476Y-100576571D01*
X102442238Y-100528952D01*
X103204142Y-100528952D02*
X103108904Y-100481333D01*
X103061285Y-100433714D01*
X103013666Y-100338476D01*
X103013666Y-100290857D01*
X103061285Y-100195619D01*
X103108904Y-100148000D01*
X103204142Y-100100380D01*
X103394619Y-100100380D01*
X103489857Y-100148000D01*
X103537476Y-100195619D01*
X103585095Y-100290857D01*
X103585095Y-100338476D01*
X103537476Y-100433714D01*
X103489857Y-100481333D01*
X103394619Y-100528952D01*
X103204142Y-100528952D01*
X103108904Y-100576571D01*
X103061285Y-100624190D01*
X103013666Y-100719428D01*
X103013666Y-100909904D01*
X103061285Y-101005142D01*
X103108904Y-101052761D01*
X103204142Y-101100380D01*
X103394619Y-101100380D01*
X103489857Y-101052761D01*
X103537476Y-101005142D01*
X103585095Y-100909904D01*
X103585095Y-100719428D01*
X103537476Y-100624190D01*
X103489857Y-100576571D01*
X103394619Y-100528952D01*
X104775571Y-101100380D02*
X104775571Y-100100380D01*
X105204142Y-101052761D02*
X105299380Y-101100380D01*
X105489857Y-101100380D01*
X105585095Y-101052761D01*
X105632714Y-100957523D01*
X105632714Y-100909904D01*
X105585095Y-100814666D01*
X105489857Y-100767047D01*
X105347000Y-100767047D01*
X105251761Y-100719428D01*
X105204142Y-100624190D01*
X105204142Y-100576571D01*
X105251761Y-100481333D01*
X105347000Y-100433714D01*
X105489857Y-100433714D01*
X105585095Y-100481333D01*
X106204142Y-101100380D02*
X106108904Y-101052761D01*
X106061285Y-101005142D01*
X106013666Y-100909904D01*
X106013666Y-100624190D01*
X106061285Y-100528952D01*
X106108904Y-100481333D01*
X106204142Y-100433714D01*
X106347000Y-100433714D01*
X106442238Y-100481333D01*
X106489857Y-100528952D01*
X106537476Y-100624190D01*
X106537476Y-100909904D01*
X106489857Y-101005142D01*
X106442238Y-101052761D01*
X106347000Y-101100380D01*
X106204142Y-101100380D01*
X107108904Y-101100380D02*
X107013666Y-101052761D01*
X106966047Y-100957523D01*
X106966047Y-100100380D01*
X107918428Y-101100380D02*
X107918428Y-100576571D01*
X107870809Y-100481333D01*
X107775571Y-100433714D01*
X107585095Y-100433714D01*
X107489857Y-100481333D01*
X107918428Y-101052761D02*
X107823190Y-101100380D01*
X107585095Y-101100380D01*
X107489857Y-101052761D01*
X107442238Y-100957523D01*
X107442238Y-100862285D01*
X107489857Y-100767047D01*
X107585095Y-100719428D01*
X107823190Y-100719428D01*
X107918428Y-100671809D01*
X108251761Y-100433714D02*
X108632714Y-100433714D01*
X108394619Y-100100380D02*
X108394619Y-100957523D01*
X108442238Y-101052761D01*
X108537476Y-101100380D01*
X108632714Y-101100380D01*
X109108904Y-101100380D02*
X109013666Y-101052761D01*
X108966047Y-101005142D01*
X108918428Y-100909904D01*
X108918428Y-100624190D01*
X108966047Y-100528952D01*
X109013666Y-100481333D01*
X109108904Y-100433714D01*
X109251761Y-100433714D01*
X109347000Y-100481333D01*
X109394619Y-100528952D01*
X109442238Y-100624190D01*
X109442238Y-100909904D01*
X109394619Y-101005142D01*
X109347000Y-101052761D01*
X109251761Y-101100380D01*
X109108904Y-101100380D01*
X109870809Y-101100380D02*
X109870809Y-100433714D01*
X109870809Y-100624190D02*
X109918428Y-100528952D01*
X109966047Y-100481333D01*
X110061285Y-100433714D01*
X110156523Y-100433714D01*
X111204142Y-100195619D02*
X111251761Y-100148000D01*
X111347000Y-100100380D01*
X111585095Y-100100380D01*
X111680333Y-100148000D01*
X111727952Y-100195619D01*
X111775571Y-100290857D01*
X111775571Y-100386095D01*
X111727952Y-100528952D01*
X111156523Y-101100380D01*
X111775571Y-101100380D01*
X112394619Y-100100380D02*
X112489857Y-100100380D01*
X112585095Y-100148000D01*
X112632714Y-100195619D01*
X112680333Y-100290857D01*
X112727952Y-100481333D01*
X112727952Y-100719428D01*
X112680333Y-100909904D01*
X112632714Y-101005142D01*
X112585095Y-101052761D01*
X112489857Y-101100380D01*
X112394619Y-101100380D01*
X112299380Y-101052761D01*
X112251761Y-101005142D01*
X112204142Y-100909904D01*
X112156523Y-100719428D01*
X112156523Y-100481333D01*
X112204142Y-100290857D01*
X112251761Y-100195619D01*
X112299380Y-100148000D01*
X112394619Y-100100380D01*
X113108904Y-100195619D02*
X113156523Y-100148000D01*
X113251761Y-100100380D01*
X113489857Y-100100380D01*
X113585095Y-100148000D01*
X113632714Y-100195619D01*
X113680333Y-100290857D01*
X113680333Y-100386095D01*
X113632714Y-100528952D01*
X113061285Y-101100380D01*
X113680333Y-101100380D01*
X114299380Y-100100380D02*
X114394619Y-100100380D01*
X114489857Y-100148000D01*
X114537476Y-100195619D01*
X114585095Y-100290857D01*
X114632714Y-100481333D01*
X114632714Y-100719428D01*
X114585095Y-100909904D01*
X114537476Y-101005142D01*
X114489857Y-101052761D01*
X114394619Y-101100380D01*
X114299380Y-101100380D01*
X114204142Y-101052761D01*
X114156523Y-101005142D01*
X114108904Y-100909904D01*
X114061285Y-100719428D01*
X114061285Y-100481333D01*
X114108904Y-100290857D01*
X114156523Y-100195619D01*
X114204142Y-100148000D01*
X114299380Y-100100380D01*
X115775571Y-100052761D02*
X114918428Y-101338476D01*
X116299380Y-100100380D02*
X116394619Y-100100380D01*
X116489857Y-100148000D01*
X116537476Y-100195619D01*
X116585095Y-100290857D01*
X116632714Y-100481333D01*
X116632714Y-100719428D01*
X116585095Y-100909904D01*
X116537476Y-101005142D01*
X116489857Y-101052761D01*
X116394619Y-101100380D01*
X116299380Y-101100380D01*
X116204142Y-101052761D01*
X116156523Y-101005142D01*
X116108904Y-100909904D01*
X116061285Y-100719428D01*
X116061285Y-100481333D01*
X116108904Y-100290857D01*
X116156523Y-100195619D01*
X116204142Y-100148000D01*
X116299380Y-100100380D01*
X117204142Y-100528952D02*
X117108904Y-100481333D01*
X117061285Y-100433714D01*
X117013666Y-100338476D01*
X117013666Y-100290857D01*
X117061285Y-100195619D01*
X117108904Y-100148000D01*
X117204142Y-100100380D01*
X117394619Y-100100380D01*
X117489857Y-100148000D01*
X117537476Y-100195619D01*
X117585095Y-100290857D01*
X117585095Y-100338476D01*
X117537476Y-100433714D01*
X117489857Y-100481333D01*
X117394619Y-100528952D01*
X117204142Y-100528952D01*
X117108904Y-100576571D01*
X117061285Y-100624190D01*
X117013666Y-100719428D01*
X117013666Y-100909904D01*
X117061285Y-101005142D01*
X117108904Y-101052761D01*
X117204142Y-101100380D01*
X117394619Y-101100380D01*
X117489857Y-101052761D01*
X117537476Y-101005142D01*
X117585095Y-100909904D01*
X117585095Y-100719428D01*
X117537476Y-100624190D01*
X117489857Y-100576571D01*
X117394619Y-100528952D01*
X101799380Y-101798000D02*
X101704142Y-101750380D01*
X101561285Y-101750380D01*
X101418428Y-101798000D01*
X101323190Y-101893238D01*
X101275571Y-101988476D01*
X101227952Y-102178952D01*
X101227952Y-102321809D01*
X101275571Y-102512285D01*
X101323190Y-102607523D01*
X101418428Y-102702761D01*
X101561285Y-102750380D01*
X101656523Y-102750380D01*
X101799380Y-102702761D01*
X101847000Y-102655142D01*
X101847000Y-102321809D01*
X101656523Y-102321809D01*
X102656523Y-102702761D02*
X102561285Y-102750380D01*
X102370809Y-102750380D01*
X102275571Y-102702761D01*
X102227952Y-102607523D01*
X102227952Y-102226571D01*
X102275571Y-102131333D01*
X102370809Y-102083714D01*
X102561285Y-102083714D01*
X102656523Y-102131333D01*
X102704142Y-102226571D01*
X102704142Y-102321809D01*
X102227952Y-102417047D01*
X103132714Y-102750380D02*
X103132714Y-102083714D01*
X103132714Y-102274190D02*
X103180333Y-102178952D01*
X103227952Y-102131333D01*
X103323190Y-102083714D01*
X103418428Y-102083714D01*
X103751761Y-102750380D02*
X103751761Y-101750380D01*
X104180333Y-102750380D02*
X104180333Y-102226571D01*
X104132714Y-102131333D01*
X104037476Y-102083714D01*
X103894619Y-102083714D01*
X103799380Y-102131333D01*
X103751761Y-102178952D01*
X105085095Y-102750380D02*
X105085095Y-102226571D01*
X105037476Y-102131333D01*
X104942238Y-102083714D01*
X104751761Y-102083714D01*
X104656523Y-102131333D01*
X105085095Y-102702761D02*
X104989857Y-102750380D01*
X104751761Y-102750380D01*
X104656523Y-102702761D01*
X104608904Y-102607523D01*
X104608904Y-102512285D01*
X104656523Y-102417047D01*
X104751761Y-102369428D01*
X104989857Y-102369428D01*
X105085095Y-102321809D01*
X105561285Y-102750380D02*
X105561285Y-102083714D01*
X105561285Y-102274190D02*
X105608904Y-102178952D01*
X105656523Y-102131333D01*
X105751761Y-102083714D01*
X105847000Y-102083714D01*
X106608904Y-102750380D02*
X106608904Y-101750380D01*
X106608904Y-102702761D02*
X106513666Y-102750380D01*
X106323190Y-102750380D01*
X106227952Y-102702761D01*
X106180333Y-102655142D01*
X106132714Y-102559904D01*
X106132714Y-102274190D01*
X106180333Y-102178952D01*
X106227952Y-102131333D01*
X106323190Y-102083714D01*
X106513666Y-102083714D01*
X106608904Y-102131333D01*
X108180333Y-102226571D02*
X108323190Y-102274190D01*
X108370809Y-102321809D01*
X108418428Y-102417047D01*
X108418428Y-102559904D01*
X108370809Y-102655142D01*
X108323190Y-102702761D01*
X108227952Y-102750380D01*
X107847000Y-102750380D01*
X107847000Y-101750380D01*
X108180333Y-101750380D01*
X108275571Y-101798000D01*
X108323190Y-101845619D01*
X108370809Y-101940857D01*
X108370809Y-102036095D01*
X108323190Y-102131333D01*
X108275571Y-102178952D01*
X108180333Y-102226571D01*
X107847000Y-102226571D01*
X109227952Y-102702761D02*
X109132714Y-102750380D01*
X108942238Y-102750380D01*
X108847000Y-102702761D01*
X108799380Y-102607523D01*
X108799380Y-102226571D01*
X108847000Y-102131333D01*
X108942238Y-102083714D01*
X109132714Y-102083714D01*
X109227952Y-102131333D01*
X109275571Y-102226571D01*
X109275571Y-102321809D01*
X108799380Y-102417047D01*
X109704142Y-102750380D02*
X109704142Y-102083714D01*
X109704142Y-102274190D02*
X109751761Y-102178952D01*
X109799380Y-102131333D01*
X109894619Y-102083714D01*
X109989857Y-102083714D01*
X110180333Y-102083714D02*
X110561285Y-102083714D01*
X110323190Y-101750380D02*
X110323190Y-102607523D01*
X110370809Y-102702761D01*
X110466047Y-102750380D01*
X110561285Y-102750380D01*
X111275571Y-102702761D02*
X111180333Y-102750380D01*
X110989857Y-102750380D01*
X110894619Y-102702761D01*
X110847000Y-102607523D01*
X110847000Y-102226571D01*
X110894619Y-102131333D01*
X110989857Y-102083714D01*
X111180333Y-102083714D01*
X111275571Y-102131333D01*
X111323190Y-102226571D01*
X111323190Y-102321809D01*
X110847000Y-102417047D01*
X111894619Y-102750380D02*
X111799380Y-102702761D01*
X111751761Y-102607523D01*
X111751761Y-101750380D01*
X112227952Y-102702761D02*
X112323190Y-102750380D01*
X112513666Y-102750380D01*
X112608904Y-102702761D01*
X112656523Y-102607523D01*
X112656523Y-102559904D01*
X112608904Y-102464666D01*
X112513666Y-102417047D01*
X112370809Y-102417047D01*
X112275571Y-102369428D01*
X112227952Y-102274190D01*
X112227952Y-102226571D01*
X112275571Y-102131333D01*
X112370809Y-102083714D01*
X112513666Y-102083714D01*
X112608904Y-102131333D01*
X113085095Y-102750380D02*
X113085095Y-102083714D01*
X113085095Y-102178952D02*
X113132714Y-102131333D01*
X113227952Y-102083714D01*
X113370809Y-102083714D01*
X113466047Y-102131333D01*
X113513666Y-102226571D01*
X113513666Y-102750380D01*
X113513666Y-102226571D02*
X113561285Y-102131333D01*
X113656523Y-102083714D01*
X113799380Y-102083714D01*
X113894619Y-102131333D01*
X113942238Y-102226571D01*
X113942238Y-102750380D01*
X114847000Y-102750380D02*
X114847000Y-102226571D01*
X114799380Y-102131333D01*
X114704142Y-102083714D01*
X114513666Y-102083714D01*
X114418428Y-102131333D01*
X114847000Y-102702761D02*
X114751761Y-102750380D01*
X114513666Y-102750380D01*
X114418428Y-102702761D01*
X114370809Y-102607523D01*
X114370809Y-102512285D01*
X114418428Y-102417047D01*
X114513666Y-102369428D01*
X114751761Y-102369428D01*
X114847000Y-102321809D01*
X115323190Y-102083714D02*
X115323190Y-102750380D01*
X115323190Y-102178952D02*
X115370809Y-102131333D01*
X115466047Y-102083714D01*
X115608904Y-102083714D01*
X115704142Y-102131333D01*
X115751761Y-102226571D01*
X115751761Y-102750380D01*
X116227952Y-102083714D02*
X116227952Y-102750380D01*
X116227952Y-102178952D02*
X116275571Y-102131333D01*
X116370809Y-102083714D01*
X116513666Y-102083714D01*
X116608904Y-102131333D01*
X116656523Y-102226571D01*
X116656523Y-102750380D01*
D11*
X150942523Y-91034809D02*
X150942523Y-91760523D01*
X150942523Y-91397666D02*
X149672523Y-91397666D01*
X149853952Y-91518619D01*
X149974904Y-91639571D01*
X150035380Y-91760523D01*
X149793476Y-90551000D02*
X149733000Y-90490523D01*
X149672523Y-90369571D01*
X149672523Y-90067190D01*
X149733000Y-89946238D01*
X149793476Y-89885761D01*
X149914428Y-89825285D01*
X150035380Y-89825285D01*
X150216809Y-89885761D01*
X150942523Y-90611476D01*
X150942523Y-89825285D01*
X149672523Y-89462428D02*
X150942523Y-89039095D01*
X149672523Y-88615761D01*
X150942523Y-87224809D02*
X149672523Y-87224809D01*
X150095857Y-86620047D02*
X150942523Y-86620047D01*
X150216809Y-86620047D02*
X150156333Y-86559571D01*
X150095857Y-86438619D01*
X150095857Y-86257190D01*
X150156333Y-86136238D01*
X150277285Y-86075761D01*
X150942523Y-86075761D01*
X150095857Y-85471000D02*
X151365857Y-85471000D01*
X150156333Y-85471000D02*
X150095857Y-85350047D01*
X150095857Y-85108142D01*
X150156333Y-84987190D01*
X150216809Y-84926714D01*
X150337761Y-84866238D01*
X150700619Y-84866238D01*
X150821571Y-84926714D01*
X150882047Y-84987190D01*
X150942523Y-85108142D01*
X150942523Y-85350047D01*
X150882047Y-85471000D01*
X150095857Y-83777666D02*
X150942523Y-83777666D01*
X150095857Y-84321952D02*
X150761095Y-84321952D01*
X150882047Y-84261476D01*
X150942523Y-84140523D01*
X150942523Y-83959095D01*
X150882047Y-83838142D01*
X150821571Y-83777666D01*
X150095857Y-83354333D02*
X150095857Y-82870523D01*
X149672523Y-83172904D02*
X150761095Y-83172904D01*
X150882047Y-83112428D01*
X150942523Y-82991476D01*
X150942523Y-82870523D01*
X154988380Y-98933000D02*
X154867428Y-98872523D01*
X154686000Y-98872523D01*
X154504571Y-98933000D01*
X154383619Y-99053952D01*
X154323142Y-99174904D01*
X154262666Y-99416809D01*
X154262666Y-99598238D01*
X154323142Y-99840142D01*
X154383619Y-99961095D01*
X154504571Y-100082047D01*
X154686000Y-100142523D01*
X154806952Y-100142523D01*
X154988380Y-100082047D01*
X155048857Y-100021571D01*
X155048857Y-99598238D01*
X154806952Y-99598238D01*
X155593142Y-100142523D02*
X155593142Y-98872523D01*
X156318857Y-100142523D01*
X156318857Y-98872523D01*
X156923619Y-100142523D02*
X156923619Y-98872523D01*
X157226000Y-98872523D01*
X157407428Y-98933000D01*
X157528380Y-99053952D01*
X157588857Y-99174904D01*
X157649333Y-99416809D01*
X157649333Y-99598238D01*
X157588857Y-99840142D01*
X157528380Y-99961095D01*
X157407428Y-100082047D01*
X157226000Y-100142523D01*
X156923619Y-100142523D01*
X153857476Y-102428523D02*
X153857476Y-101158523D01*
X154159857Y-101158523D01*
X154341285Y-101219000D01*
X154462238Y-101339952D01*
X154522714Y-101460904D01*
X154583190Y-101702809D01*
X154583190Y-101884238D01*
X154522714Y-102126142D01*
X154462238Y-102247095D01*
X154341285Y-102368047D01*
X154159857Y-102428523D01*
X153857476Y-102428523D01*
X155671761Y-102428523D02*
X155671761Y-101763285D01*
X155611285Y-101642333D01*
X155490333Y-101581857D01*
X155248428Y-101581857D01*
X155127476Y-101642333D01*
X155671761Y-102368047D02*
X155550809Y-102428523D01*
X155248428Y-102428523D01*
X155127476Y-102368047D01*
X155067000Y-102247095D01*
X155067000Y-102126142D01*
X155127476Y-102005190D01*
X155248428Y-101944714D01*
X155550809Y-101944714D01*
X155671761Y-101884238D01*
X156095095Y-101581857D02*
X156578904Y-101581857D01*
X156276523Y-101158523D02*
X156276523Y-102247095D01*
X156337000Y-102368047D01*
X156457952Y-102428523D01*
X156578904Y-102428523D01*
X157546523Y-102428523D02*
X157546523Y-101763285D01*
X157486047Y-101642333D01*
X157365095Y-101581857D01*
X157123190Y-101581857D01*
X157002238Y-101642333D01*
X157546523Y-102368047D02*
X157425571Y-102428523D01*
X157123190Y-102428523D01*
X157002238Y-102368047D01*
X156941761Y-102247095D01*
X156941761Y-102126142D01*
X157002238Y-102005190D01*
X157123190Y-101944714D01*
X157425571Y-101944714D01*
X157546523Y-101884238D01*
X153621619Y-97227571D02*
X153561142Y-97288047D01*
X153379714Y-97348523D01*
X153258761Y-97348523D01*
X153077333Y-97288047D01*
X152956380Y-97167095D01*
X152895904Y-97046142D01*
X152835428Y-96804238D01*
X152835428Y-96622809D01*
X152895904Y-96380904D01*
X152956380Y-96259952D01*
X153077333Y-96139000D01*
X153258761Y-96078523D01*
X153379714Y-96078523D01*
X153561142Y-96139000D01*
X153621619Y-96199476D01*
X154347333Y-97348523D02*
X154226380Y-97288047D01*
X154165904Y-97167095D01*
X154165904Y-96078523D01*
X155012571Y-97348523D02*
X154891619Y-97288047D01*
X154831142Y-97227571D01*
X154770666Y-97106619D01*
X154770666Y-96743761D01*
X154831142Y-96622809D01*
X154891619Y-96562333D01*
X155012571Y-96501857D01*
X155194000Y-96501857D01*
X155314952Y-96562333D01*
X155375428Y-96622809D01*
X155435904Y-96743761D01*
X155435904Y-97106619D01*
X155375428Y-97227571D01*
X155314952Y-97288047D01*
X155194000Y-97348523D01*
X155012571Y-97348523D01*
X156524476Y-97288047D02*
X156403523Y-97348523D01*
X156161619Y-97348523D01*
X156040666Y-97288047D01*
X155980190Y-97227571D01*
X155919714Y-97106619D01*
X155919714Y-96743761D01*
X155980190Y-96622809D01*
X156040666Y-96562333D01*
X156161619Y-96501857D01*
X156403523Y-96501857D01*
X156524476Y-96562333D01*
X157068761Y-97348523D02*
X157068761Y-96078523D01*
X157189714Y-96864714D02*
X157552571Y-97348523D01*
X157552571Y-96501857D02*
X157068761Y-96985666D01*
X153875619Y-92268523D02*
X153452285Y-91663761D01*
X153149904Y-92268523D02*
X153149904Y-90998523D01*
X153633714Y-90998523D01*
X153754666Y-91059000D01*
X153815142Y-91119476D01*
X153875619Y-91240428D01*
X153875619Y-91421857D01*
X153815142Y-91542809D01*
X153754666Y-91603285D01*
X153633714Y-91663761D01*
X153149904Y-91663761D01*
X154903714Y-92208047D02*
X154782761Y-92268523D01*
X154540857Y-92268523D01*
X154419904Y-92208047D01*
X154359428Y-92087095D01*
X154359428Y-91603285D01*
X154419904Y-91482333D01*
X154540857Y-91421857D01*
X154782761Y-91421857D01*
X154903714Y-91482333D01*
X154964190Y-91603285D01*
X154964190Y-91724238D01*
X154359428Y-91845190D01*
X155448000Y-92208047D02*
X155568952Y-92268523D01*
X155810857Y-92268523D01*
X155931809Y-92208047D01*
X155992285Y-92087095D01*
X155992285Y-92026619D01*
X155931809Y-91905666D01*
X155810857Y-91845190D01*
X155629428Y-91845190D01*
X155508476Y-91784714D01*
X155448000Y-91663761D01*
X155448000Y-91603285D01*
X155508476Y-91482333D01*
X155629428Y-91421857D01*
X155810857Y-91421857D01*
X155931809Y-91482333D01*
X157020380Y-92208047D02*
X156899428Y-92268523D01*
X156657523Y-92268523D01*
X156536571Y-92208047D01*
X156476095Y-92087095D01*
X156476095Y-91603285D01*
X156536571Y-91482333D01*
X156657523Y-91421857D01*
X156899428Y-91421857D01*
X157020380Y-91482333D01*
X157080857Y-91603285D01*
X157080857Y-91724238D01*
X156476095Y-91845190D01*
X157443714Y-91421857D02*
X157927523Y-91421857D01*
X157625142Y-90998523D02*
X157625142Y-92087095D01*
X157685619Y-92208047D01*
X157806571Y-92268523D01*
X157927523Y-92268523D01*
X154244523Y-94808523D02*
X153639761Y-94808523D01*
X153639761Y-93538523D01*
X154849285Y-94808523D02*
X154728333Y-94748047D01*
X154667857Y-94687571D01*
X154607380Y-94566619D01*
X154607380Y-94203761D01*
X154667857Y-94082809D01*
X154728333Y-94022333D01*
X154849285Y-93961857D01*
X155030714Y-93961857D01*
X155151666Y-94022333D01*
X155212142Y-94082809D01*
X155272619Y-94203761D01*
X155272619Y-94566619D01*
X155212142Y-94687571D01*
X155151666Y-94748047D01*
X155030714Y-94808523D01*
X154849285Y-94808523D01*
X156361190Y-94808523D02*
X156361190Y-94143285D01*
X156300714Y-94022333D01*
X156179761Y-93961857D01*
X155937857Y-93961857D01*
X155816904Y-94022333D01*
X156361190Y-94748047D02*
X156240238Y-94808523D01*
X155937857Y-94808523D01*
X155816904Y-94748047D01*
X155756428Y-94627095D01*
X155756428Y-94506142D01*
X155816904Y-94385190D01*
X155937857Y-94324714D01*
X156240238Y-94324714D01*
X156361190Y-94264238D01*
X157510238Y-94808523D02*
X157510238Y-93538523D01*
X157510238Y-94748047D02*
X157389285Y-94808523D01*
X157147380Y-94808523D01*
X157026428Y-94748047D01*
X156965952Y-94687571D01*
X156905476Y-94566619D01*
X156905476Y-94203761D01*
X156965952Y-94082809D01*
X157026428Y-94022333D01*
X157147380Y-93961857D01*
X157389285Y-93961857D01*
X157510238Y-94022333D01*
X154637619Y-88458523D02*
X155060952Y-89728523D01*
X155484285Y-88458523D01*
X156451904Y-89728523D02*
X156451904Y-88458523D01*
X156451904Y-89668047D02*
X156330952Y-89728523D01*
X156089047Y-89728523D01*
X155968095Y-89668047D01*
X155907619Y-89607571D01*
X155847142Y-89486619D01*
X155847142Y-89123761D01*
X155907619Y-89002809D01*
X155968095Y-88942333D01*
X156089047Y-88881857D01*
X156330952Y-88881857D01*
X156451904Y-88942333D01*
X157600952Y-89728523D02*
X157600952Y-88458523D01*
X157600952Y-89668047D02*
X157480000Y-89728523D01*
X157238095Y-89728523D01*
X157117142Y-89668047D01*
X157056666Y-89607571D01*
X156996190Y-89486619D01*
X156996190Y-89123761D01*
X157056666Y-89002809D01*
X157117142Y-88942333D01*
X157238095Y-88881857D01*
X157480000Y-88881857D01*
X157600952Y-88942333D01*
X139536666Y-97304523D02*
X138931904Y-97304523D01*
X138871428Y-97909285D01*
X138931904Y-97848809D01*
X139052857Y-97788333D01*
X139355238Y-97788333D01*
X139476190Y-97848809D01*
X139536666Y-97909285D01*
X139597142Y-98030238D01*
X139597142Y-98332619D01*
X139536666Y-98453571D01*
X139476190Y-98514047D01*
X139355238Y-98574523D01*
X139052857Y-98574523D01*
X138931904Y-98514047D01*
X138871428Y-98453571D01*
X139960000Y-97304523D02*
X140383333Y-98574523D01*
X140806666Y-97304523D01*
X143830476Y-98574523D02*
X143104761Y-98574523D01*
X143467619Y-98574523D02*
X143467619Y-97304523D01*
X143346666Y-97485952D01*
X143225714Y-97606904D01*
X143104761Y-97667380D01*
X144314285Y-97425476D02*
X144374761Y-97365000D01*
X144495714Y-97304523D01*
X144798095Y-97304523D01*
X144919047Y-97365000D01*
X144979523Y-97425476D01*
X145040000Y-97546428D01*
X145040000Y-97667380D01*
X144979523Y-97848809D01*
X144253809Y-98574523D01*
X145040000Y-98574523D01*
X145402857Y-97304523D02*
X145826190Y-98574523D01*
X146249523Y-97304523D01*
D12*
X151963800Y-123485400D02*
X151963800Y-126485400D01*
X149963800Y-124985400D02*
X151963800Y-123485400D01*
X151963800Y-126485400D02*
X149963800Y-124985400D01*
X122388000Y-125087000D02*
X124388000Y-123587000D01*
X124388000Y-126587000D02*
X122388000Y-125087000D01*
X124388000Y-123587000D02*
X124388000Y-126587000D01*
D13*
X100000000Y-128000000D02*
X100000000Y-82000000D01*
X168000000Y-130000000D02*
X102000000Y-130000000D01*
X170000000Y-82000000D02*
X170000000Y-128000000D01*
X168000000Y-80000000D02*
X102000000Y-80000000D01*
X100000000Y-82000000D02*
G75*
G02*
X102000000Y-80000000I2000000J0D01*
G01*
X168000000Y-80000000D02*
G75*
G02*
X170000000Y-82000000I0J-2000000D01*
G01*
X170000000Y-128000000D02*
G75*
G02*
X168000000Y-130000000I-2000000J0D01*
G01*
X102000000Y-130000000D02*
G75*
G02*
X100000000Y-128000000I0J2000000D01*
G01*
D14*
X138590000Y-99170000D02*
X138590000Y-101830000D01*
X143730000Y-99170000D02*
X138590000Y-99170000D01*
X143730000Y-101830000D02*
X138590000Y-101830000D01*
X143730000Y-99170000D02*
X143730000Y-101830000D01*
X145000000Y-99170000D02*
X146330000Y-99170000D01*
X146330000Y-99170000D02*
X146330000Y-100500000D01*
D15*
X102600000Y-107053000D02*
X102600000Y-119245000D01*
X116824000Y-104894000D02*
X116824000Y-121404000D01*
X102627000Y-121531000D02*
X102627000Y-119245000D01*
X116851000Y-121531000D02*
X102627000Y-121531000D01*
X102627000Y-104767000D02*
X102627000Y-107053000D01*
X116851000Y-104767000D02*
X102627000Y-104767000D01*
D14*
X119587578Y-116639000D02*
X119070422Y-116639000D01*
X119587578Y-118059000D02*
X119070422Y-118059000D01*
D16*
X131648200Y-112268000D02*
X132740400Y-112268000D01*
X131648200Y-113538000D02*
X132740400Y-113538000D01*
X131648200Y-114808000D02*
X132740400Y-114808000D01*
X131648200Y-110998000D02*
X132740400Y-110998000D01*
X132740400Y-109728000D02*
X131648200Y-109728000D01*
X132740400Y-116078000D02*
X131648200Y-116078000D01*
X132740400Y-117348000D02*
X131648200Y-117348000D01*
X132740400Y-118618000D02*
X131648200Y-118618000D01*
X127685800Y-118618000D02*
X126593600Y-118618000D01*
X127685800Y-117348000D02*
X126593600Y-117348000D01*
X127685800Y-116078000D02*
X126593600Y-116078000D01*
X127685800Y-109728000D02*
X126593600Y-109728000D01*
X126593600Y-110998000D02*
X127685800Y-110998000D01*
X126593600Y-114808000D02*
X127685800Y-114808000D01*
X126593600Y-113538000D02*
X127685800Y-113538000D01*
X126593600Y-112268000D02*
X127685800Y-112268000D01*
X128894867Y-110109000D02*
G75*
G03*
X128894867Y-110109000I-472467J0D01*
G01*
X131648200Y-109347000D02*
X127685800Y-109347000D01*
X127685800Y-109347000D02*
X127685800Y-118999000D01*
X127685800Y-118999000D02*
X131648200Y-118999000D01*
X131648200Y-118999000D02*
X131648200Y-109347000D01*
D14*
X120015000Y-99501000D02*
X118685000Y-99501000D01*
X118685000Y-99501000D02*
X118685000Y-98171000D01*
X118685000Y-96901000D02*
X118685000Y-89221000D01*
X121345000Y-89221000D02*
X118685000Y-89221000D01*
X121345000Y-96901000D02*
X121345000Y-89221000D01*
X121345000Y-96901000D02*
X118685000Y-96901000D01*
X134418000Y-91259922D02*
X134418000Y-91777078D01*
X135838000Y-91259922D02*
X135838000Y-91777078D01*
X126186000Y-91181422D02*
X126186000Y-91698578D01*
X124766000Y-91181422D02*
X124766000Y-91698578D01*
X138736000Y-107319578D02*
X138736000Y-106802422D01*
X140156000Y-107319578D02*
X140156000Y-106802422D01*
X126163000Y-107319578D02*
X126163000Y-106802422D01*
X127583000Y-107319578D02*
X127583000Y-106802422D01*
X135123422Y-121614000D02*
X135640578Y-121614000D01*
X135123422Y-120194000D02*
X135640578Y-120194000D01*
D15*
X154040000Y-121531000D02*
X168264000Y-121531000D01*
X168264000Y-121531000D02*
X168264000Y-119245000D01*
X154040000Y-104767000D02*
X168264000Y-104767000D01*
X168264000Y-104767000D02*
X168264000Y-107053000D01*
X154067000Y-121404000D02*
X154067000Y-104894000D01*
X168291000Y-119245000D02*
X168291000Y-107053000D01*
X148772880Y-82200920D02*
X139771120Y-82200920D01*
X148772880Y-77700040D02*
X139771120Y-77700040D01*
X139771120Y-77700040D02*
X139771120Y-92299960D01*
X139771120Y-92299960D02*
X148772880Y-92299960D01*
X148772880Y-92299960D02*
X148772880Y-77700040D01*
D14*
X151769578Y-110565000D02*
X151252422Y-110565000D01*
X151769578Y-109145000D02*
X151252422Y-109145000D01*
X151769578Y-112447000D02*
X151252422Y-112447000D01*
X151769578Y-113867000D02*
X151252422Y-113867000D01*
X151769578Y-117236000D02*
X151252422Y-117236000D01*
X151769578Y-115816000D02*
X151252422Y-115816000D01*
X151769578Y-120471000D02*
X151252422Y-120471000D01*
X151769578Y-119051000D02*
X151252422Y-119051000D01*
X142337022Y-121614000D02*
X142854178Y-121614000D01*
X142337022Y-120194000D02*
X142854178Y-120194000D01*
X119587578Y-109039000D02*
X119070422Y-109039000D01*
X119587578Y-110459000D02*
X119070422Y-110459000D01*
X119587578Y-113059000D02*
X119070422Y-113059000D01*
X119587578Y-111639000D02*
X119070422Y-111639000D01*
X119587578Y-115467200D02*
X119070422Y-115467200D01*
X119587578Y-114047200D02*
X119070422Y-114047200D01*
X169602000Y-103210000D02*
X160972000Y-103210000D01*
X169602000Y-103091905D02*
X160972000Y-103091905D01*
X169602000Y-102973810D02*
X160972000Y-102973810D01*
X169602000Y-102855715D02*
X160972000Y-102855715D01*
X169602000Y-102737620D02*
X160972000Y-102737620D01*
X169602000Y-102619525D02*
X160972000Y-102619525D01*
X169602000Y-102501430D02*
X160972000Y-102501430D01*
X169602000Y-102383335D02*
X160972000Y-102383335D01*
X169602000Y-102265240D02*
X160972000Y-102265240D01*
X169602000Y-102147145D02*
X160972000Y-102147145D01*
X169602000Y-102029050D02*
X160972000Y-102029050D01*
X169602000Y-101910955D02*
X160972000Y-101910955D01*
X169602000Y-101792860D02*
X160972000Y-101792860D01*
X169602000Y-101674765D02*
X160972000Y-101674765D01*
X169602000Y-101556670D02*
X160972000Y-101556670D01*
X169602000Y-101438575D02*
X160972000Y-101438575D01*
X169602000Y-101320480D02*
X160972000Y-101320480D01*
X169602000Y-101202385D02*
X160972000Y-101202385D01*
X169602000Y-101084290D02*
X160972000Y-101084290D01*
X169602000Y-100966195D02*
X160972000Y-100966195D01*
X169602000Y-100848100D02*
X160972000Y-100848100D01*
X160972000Y-102360000D02*
X160622000Y-102360000D01*
X160972000Y-101640000D02*
X160622000Y-101640000D01*
X160972000Y-99820000D02*
X160562000Y-99820000D01*
X160972000Y-99100000D02*
X160562000Y-99100000D01*
X160972000Y-97280000D02*
X160562000Y-97280000D01*
X160972000Y-96560000D02*
X160562000Y-96560000D01*
X160972000Y-94740000D02*
X160562000Y-94740000D01*
X160972000Y-94020000D02*
X160562000Y-94020000D01*
X160972000Y-92200000D02*
X160562000Y-92200000D01*
X160972000Y-91480000D02*
X160562000Y-91480000D01*
X160972000Y-89660000D02*
X160562000Y-89660000D01*
X160972000Y-88940000D02*
X160562000Y-88940000D01*
X169602000Y-100730000D02*
X160972000Y-100730000D01*
X169602000Y-98190000D02*
X160972000Y-98190000D01*
X169602000Y-95650000D02*
X160972000Y-95650000D01*
X169602000Y-93110000D02*
X160972000Y-93110000D01*
X169602000Y-90570000D02*
X160972000Y-90570000D01*
X169602000Y-103330000D02*
X160972000Y-103330000D01*
X160972000Y-103330000D02*
X160972000Y-87970000D01*
X169602000Y-87970000D02*
X160972000Y-87970000D01*
X169602000Y-103330000D02*
X169602000Y-87970000D01*
X158402000Y-103330000D02*
X158402000Y-102000000D01*
X159512000Y-103330000D02*
X158402000Y-103330000D01*
X133752000Y-94280000D02*
X133752000Y-92780000D01*
X133752000Y-92780000D02*
X133482000Y-92780000D01*
X133482000Y-92780000D02*
X133482000Y-89950000D01*
X126852000Y-94280000D02*
X126852000Y-92780000D01*
X126852000Y-92780000D02*
X127122000Y-92780000D01*
X127122000Y-92780000D02*
X127122000Y-91680000D01*
D16*
X144221200Y-112268000D02*
X145313400Y-112268000D01*
X144221200Y-113538000D02*
X145313400Y-113538000D01*
X144221200Y-114808000D02*
X145313400Y-114808000D01*
X144221200Y-110998000D02*
X145313400Y-110998000D01*
X145313400Y-109728000D02*
X144221200Y-109728000D01*
X145313400Y-116078000D02*
X144221200Y-116078000D01*
X145313400Y-117348000D02*
X144221200Y-117348000D01*
X145313400Y-118618000D02*
X144221200Y-118618000D01*
X140258800Y-118618000D02*
X139166600Y-118618000D01*
X140258800Y-117348000D02*
X139166600Y-117348000D01*
X140258800Y-116078000D02*
X139166600Y-116078000D01*
X140258800Y-109728000D02*
X139166600Y-109728000D01*
X139166600Y-110998000D02*
X140258800Y-110998000D01*
X139166600Y-114808000D02*
X140258800Y-114808000D01*
X139166600Y-113538000D02*
X140258800Y-113538000D01*
X139166600Y-112268000D02*
X140258800Y-112268000D01*
X141467867Y-110109000D02*
G75*
G03*
X141467867Y-110109000I-472467J0D01*
G01*
X144221200Y-109347000D02*
X140258800Y-109347000D01*
X140258800Y-109347000D02*
X140258800Y-118999000D01*
X140258800Y-118999000D02*
X144221200Y-118999000D01*
X144221200Y-118999000D02*
X144221200Y-109347000D01*
D14*
X144324000Y-107319578D02*
X144324000Y-106802422D01*
X145744000Y-107319578D02*
X145744000Y-106802422D01*
X133171000Y-107319578D02*
X133171000Y-106802422D01*
X131751000Y-107319578D02*
X131751000Y-106802422D01*
X127448000Y-83760000D02*
X127448000Y-86420000D01*
X130048000Y-83760000D02*
X127448000Y-83760000D01*
X130048000Y-86420000D02*
X127448000Y-86420000D01*
X130048000Y-83760000D02*
X130048000Y-86420000D01*
X131318000Y-83760000D02*
X132648000Y-83760000D01*
X132648000Y-83760000D02*
X132648000Y-85090000D01*
D17*
X139920510Y-89500880D02*
X139920510Y-87499360D01*
X138021530Y-89500880D02*
X138021530Y-87499360D01*
X139920510Y-87499360D02*
G75*
G03*
X138021530Y-87499360I-949490J0D01*
G01*
X138021530Y-89500880D02*
G75*
G03*
X139920510Y-89500880I949490J0D01*
G01*
X145272760Y-84299430D02*
X143271240Y-84299430D01*
X145272760Y-86198410D02*
X143271240Y-86198410D01*
X143271240Y-84299430D02*
G75*
G03*
X143271240Y-86198410I0J-949490D01*
G01*
X145272760Y-86198410D02*
G75*
G03*
X145272760Y-84299430I0J949490D01*
G01*
X145522950Y-90301450D02*
X143021050Y-90301450D01*
X145522950Y-92200430D02*
X143021050Y-92200430D01*
X143021050Y-90301450D02*
G75*
G03*
X143021050Y-92200430I0J-949490D01*
G01*
X145522950Y-92200430D02*
G75*
G03*
X145522950Y-90301450I0J949490D01*
G01*
D10*
X147436666Y-99952380D02*
X147436666Y-100666666D01*
X147389047Y-100809523D01*
X147293809Y-100904761D01*
X147150952Y-100952380D01*
X147055714Y-100952380D01*
X147817619Y-99952380D02*
X148436666Y-99952380D01*
X148103333Y-100333333D01*
X148246190Y-100333333D01*
X148341428Y-100380952D01*
X148389047Y-100428571D01*
X148436666Y-100523809D01*
X148436666Y-100761904D01*
X148389047Y-100857142D01*
X148341428Y-100904761D01*
X148246190Y-100952380D01*
X147960476Y-100952380D01*
X147865238Y-100904761D01*
X147817619Y-100857142D01*
D18*
X107296857Y-124165428D02*
X108312857Y-124165428D01*
X107296857Y-125689428D01*
X108312857Y-125689428D01*
X109474000Y-125616857D02*
X109328857Y-125689428D01*
X109038571Y-125689428D01*
X108893428Y-125616857D01*
X108820857Y-125471714D01*
X108820857Y-124891142D01*
X108893428Y-124746000D01*
X109038571Y-124673428D01*
X109328857Y-124673428D01*
X109474000Y-124746000D01*
X109546571Y-124891142D01*
X109546571Y-125036285D01*
X108820857Y-125181428D01*
X110199714Y-124673428D02*
X110199714Y-125689428D01*
X110199714Y-124818571D02*
X110272285Y-124746000D01*
X110417428Y-124673428D01*
X110635142Y-124673428D01*
X110780285Y-124746000D01*
X110852857Y-124891142D01*
X110852857Y-125689428D01*
X111360857Y-124673428D02*
X111941428Y-124673428D01*
X111578571Y-124165428D02*
X111578571Y-125471714D01*
X111651142Y-125616857D01*
X111796285Y-125689428D01*
X111941428Y-125689428D01*
X112449428Y-125689428D02*
X112449428Y-124673428D01*
X112449428Y-124963714D02*
X112522000Y-124818571D01*
X112594571Y-124746000D01*
X112739714Y-124673428D01*
X112884857Y-124673428D01*
X114046000Y-125689428D02*
X114046000Y-124891142D01*
X113973428Y-124746000D01*
X113828285Y-124673428D01*
X113538000Y-124673428D01*
X113392857Y-124746000D01*
X114046000Y-125616857D02*
X113900857Y-125689428D01*
X113538000Y-125689428D01*
X113392857Y-125616857D01*
X113320285Y-125471714D01*
X113320285Y-125326571D01*
X113392857Y-125181428D01*
X113538000Y-125108857D01*
X113900857Y-125108857D01*
X114046000Y-125036285D01*
X114989428Y-125689428D02*
X114844285Y-125616857D01*
X114771714Y-125471714D01*
X114771714Y-124165428D01*
X116150571Y-125616857D02*
X116005428Y-125689428D01*
X115715142Y-125689428D01*
X115570000Y-125616857D01*
X115497428Y-125471714D01*
X115497428Y-124891142D01*
X115570000Y-124746000D01*
X115715142Y-124673428D01*
X116005428Y-124673428D01*
X116150571Y-124746000D01*
X116223142Y-124891142D01*
X116223142Y-125036285D01*
X115497428Y-125181428D01*
X116513428Y-125834571D02*
X117674571Y-125834571D01*
X117964857Y-125616857D02*
X118182571Y-125689428D01*
X118545428Y-125689428D01*
X118690571Y-125616857D01*
X118763142Y-125544285D01*
X118835714Y-125399142D01*
X118835714Y-125254000D01*
X118763142Y-125108857D01*
X118690571Y-125036285D01*
X118545428Y-124963714D01*
X118255142Y-124891142D01*
X118110000Y-124818571D01*
X118037428Y-124746000D01*
X117964857Y-124600857D01*
X117964857Y-124455714D01*
X118037428Y-124310571D01*
X118110000Y-124238000D01*
X118255142Y-124165428D01*
X118618000Y-124165428D01*
X118835714Y-124238000D01*
X119706571Y-124818571D02*
X119561428Y-124746000D01*
X119488857Y-124673428D01*
X119416285Y-124528285D01*
X119416285Y-124455714D01*
X119488857Y-124310571D01*
X119561428Y-124238000D01*
X119706571Y-124165428D01*
X119996857Y-124165428D01*
X120142000Y-124238000D01*
X120214571Y-124310571D01*
X120287142Y-124455714D01*
X120287142Y-124528285D01*
X120214571Y-124673428D01*
X120142000Y-124746000D01*
X119996857Y-124818571D01*
X119706571Y-124818571D01*
X119561428Y-124891142D01*
X119488857Y-124963714D01*
X119416285Y-125108857D01*
X119416285Y-125399142D01*
X119488857Y-125544285D01*
X119561428Y-125616857D01*
X119706571Y-125689428D01*
X119996857Y-125689428D01*
X120142000Y-125616857D01*
X120214571Y-125544285D01*
X120287142Y-125399142D01*
X120287142Y-125108857D01*
X120214571Y-124963714D01*
X120142000Y-124891142D01*
X119996857Y-124818571D01*
X121158000Y-124818571D02*
X121012857Y-124746000D01*
X120940285Y-124673428D01*
X120867714Y-124528285D01*
X120867714Y-124455714D01*
X120940285Y-124310571D01*
X121012857Y-124238000D01*
X121158000Y-124165428D01*
X121448285Y-124165428D01*
X121593428Y-124238000D01*
X121666000Y-124310571D01*
X121738571Y-124455714D01*
X121738571Y-124528285D01*
X121666000Y-124673428D01*
X121593428Y-124746000D01*
X121448285Y-124818571D01*
X121158000Y-124818571D01*
X121012857Y-124891142D01*
X120940285Y-124963714D01*
X120867714Y-125108857D01*
X120867714Y-125399142D01*
X120940285Y-125544285D01*
X121012857Y-125616857D01*
X121158000Y-125689428D01*
X121448285Y-125689428D01*
X121593428Y-125616857D01*
X121666000Y-125544285D01*
X121738571Y-125399142D01*
X121738571Y-125108857D01*
X121666000Y-124963714D01*
X121593428Y-124891142D01*
X121448285Y-124818571D01*
X108893428Y-114844285D02*
X108167714Y-115352285D01*
X108893428Y-115715142D02*
X107369428Y-115715142D01*
X107369428Y-115134571D01*
X107442000Y-114989428D01*
X107514571Y-114916857D01*
X107659714Y-114844285D01*
X107877428Y-114844285D01*
X108022571Y-114916857D01*
X108095142Y-114989428D01*
X108167714Y-115134571D01*
X108167714Y-115715142D01*
X107369428Y-113755714D02*
X108458000Y-113755714D01*
X108675714Y-113828285D01*
X108820857Y-113973428D01*
X108893428Y-114191142D01*
X108893428Y-114336285D01*
X107877428Y-112376857D02*
X108893428Y-112376857D01*
X107296857Y-112739714D02*
X108385428Y-113102571D01*
X108385428Y-112159142D01*
X107369428Y-110852857D02*
X107369428Y-111578571D01*
X108095142Y-111651142D01*
X108022571Y-111578571D01*
X107950000Y-111433428D01*
X107950000Y-111070571D01*
X108022571Y-110925428D01*
X108095142Y-110852857D01*
X108240285Y-110780285D01*
X108603142Y-110780285D01*
X108748285Y-110852857D01*
X108820857Y-110925428D01*
X108893428Y-111070571D01*
X108893428Y-111433428D01*
X108820857Y-111578571D01*
X108748285Y-111651142D01*
D10*
X121753333Y-117927380D02*
X121420000Y-117451190D01*
X121181904Y-117927380D02*
X121181904Y-116927380D01*
X121562857Y-116927380D01*
X121658095Y-116975000D01*
X121705714Y-117022619D01*
X121753333Y-117117857D01*
X121753333Y-117260714D01*
X121705714Y-117355952D01*
X121658095Y-117403571D01*
X121562857Y-117451190D01*
X121181904Y-117451190D01*
X122229523Y-117927380D02*
X122420000Y-117927380D01*
X122515238Y-117879761D01*
X122562857Y-117832142D01*
X122658095Y-117689285D01*
X122705714Y-117498809D01*
X122705714Y-117117857D01*
X122658095Y-117022619D01*
X122610476Y-116975000D01*
X122515238Y-116927380D01*
X122324761Y-116927380D01*
X122229523Y-116975000D01*
X122181904Y-117022619D01*
X122134285Y-117117857D01*
X122134285Y-117355952D01*
X122181904Y-117451190D01*
X122229523Y-117498809D01*
X122324761Y-117546428D01*
X122515238Y-117546428D01*
X122610476Y-117498809D01*
X122658095Y-117451190D01*
X122705714Y-117355952D01*
D19*
X128875669Y-114616895D02*
X129482245Y-114616895D01*
X129553607Y-114581214D01*
X129589288Y-114545533D01*
X129624969Y-114474171D01*
X129624969Y-114331447D01*
X129589288Y-114260085D01*
X129553607Y-114224404D01*
X129482245Y-114188723D01*
X128875669Y-114188723D01*
X128875669Y-113903276D02*
X128875669Y-113439423D01*
X129161116Y-113689190D01*
X129161116Y-113582147D01*
X129196797Y-113510785D01*
X129232478Y-113475104D01*
X129303840Y-113439423D01*
X129482245Y-113439423D01*
X129553607Y-113475104D01*
X129589288Y-113510785D01*
X129624969Y-113582147D01*
X129624969Y-113796233D01*
X129589288Y-113867595D01*
X129553607Y-113903276D01*
X130859288Y-117580530D02*
X130894969Y-117473488D01*
X130894969Y-117295083D01*
X130859288Y-117223721D01*
X130823607Y-117188040D01*
X130752245Y-117152359D01*
X130680883Y-117152359D01*
X130609521Y-117188040D01*
X130573840Y-117223721D01*
X130538159Y-117295083D01*
X130502478Y-117437807D01*
X130466797Y-117509169D01*
X130431116Y-117544850D01*
X130359754Y-117580530D01*
X130288392Y-117580530D01*
X130217030Y-117544850D01*
X130181350Y-117509169D01*
X130145669Y-117437807D01*
X130145669Y-117259402D01*
X130181350Y-117152359D01*
X130894969Y-116831230D02*
X130395435Y-116831230D01*
X130145669Y-116831230D02*
X130181350Y-116866911D01*
X130217030Y-116831230D01*
X130181350Y-116795550D01*
X130145669Y-116831230D01*
X130217030Y-116831230D01*
X130466797Y-116367378D02*
X130431116Y-116438740D01*
X130395435Y-116474421D01*
X130324073Y-116510102D01*
X130288392Y-116510102D01*
X130217030Y-116474421D01*
X130181350Y-116438740D01*
X130145669Y-116367378D01*
X130145669Y-116224654D01*
X130181350Y-116153292D01*
X130217030Y-116117611D01*
X130288392Y-116081930D01*
X130324073Y-116081930D01*
X130395435Y-116117611D01*
X130431116Y-116153292D01*
X130466797Y-116224654D01*
X130466797Y-116367378D01*
X130502478Y-116438740D01*
X130538159Y-116474421D01*
X130609521Y-116510102D01*
X130752245Y-116510102D01*
X130823607Y-116474421D01*
X130859288Y-116438740D01*
X130894969Y-116367378D01*
X130894969Y-116224654D01*
X130859288Y-116153292D01*
X130823607Y-116117611D01*
X130752245Y-116081930D01*
X130609521Y-116081930D01*
X130538159Y-116117611D01*
X130502478Y-116153292D01*
X130466797Y-116224654D01*
X130145669Y-115439673D02*
X130145669Y-115582397D01*
X130181350Y-115653759D01*
X130217030Y-115689440D01*
X130324073Y-115760802D01*
X130466797Y-115796483D01*
X130752245Y-115796483D01*
X130823607Y-115760802D01*
X130859288Y-115725121D01*
X130894969Y-115653759D01*
X130894969Y-115511035D01*
X130859288Y-115439673D01*
X130823607Y-115403992D01*
X130752245Y-115368311D01*
X130573840Y-115368311D01*
X130502478Y-115403992D01*
X130466797Y-115439673D01*
X130431116Y-115511035D01*
X130431116Y-115653759D01*
X130466797Y-115725121D01*
X130502478Y-115760802D01*
X130573840Y-115796483D01*
X130395435Y-114726054D02*
X130894969Y-114726054D01*
X130109988Y-114904459D02*
X130645202Y-115082864D01*
X130645202Y-114619011D01*
X130894969Y-113941073D02*
X130894969Y-114369245D01*
X130894969Y-114155159D02*
X130145669Y-114155159D01*
X130252711Y-114226521D01*
X130324073Y-114297883D01*
X130359754Y-114369245D01*
X130502478Y-113370178D02*
X130538159Y-113263135D01*
X130573840Y-113227454D01*
X130645202Y-113191773D01*
X130752245Y-113191773D01*
X130823607Y-113227454D01*
X130859288Y-113263135D01*
X130894969Y-113334497D01*
X130894969Y-113619945D01*
X130145669Y-113619945D01*
X130145669Y-113370178D01*
X130181350Y-113298816D01*
X130217030Y-113263135D01*
X130288392Y-113227454D01*
X130359754Y-113227454D01*
X130431116Y-113263135D01*
X130466797Y-113298816D01*
X130502478Y-113370178D01*
X130502478Y-113619945D01*
X130502478Y-112620878D02*
X130538159Y-112513835D01*
X130573840Y-112478154D01*
X130645202Y-112442473D01*
X130752245Y-112442473D01*
X130823607Y-112478154D01*
X130859288Y-112513835D01*
X130894969Y-112585197D01*
X130894969Y-112870645D01*
X130145669Y-112870645D01*
X130145669Y-112620878D01*
X130181350Y-112549516D01*
X130217030Y-112513835D01*
X130288392Y-112478154D01*
X130359754Y-112478154D01*
X130431116Y-112513835D01*
X130466797Y-112549516D01*
X130502478Y-112620878D01*
X130502478Y-112870645D01*
X130609521Y-112121345D02*
X130609521Y-111550450D01*
X130502478Y-110943873D02*
X130538159Y-110836830D01*
X130573840Y-110801150D01*
X130645202Y-110765469D01*
X130752245Y-110765469D01*
X130823607Y-110801150D01*
X130859288Y-110836830D01*
X130894969Y-110908192D01*
X130894969Y-111193640D01*
X130145669Y-111193640D01*
X130145669Y-110943873D01*
X130181350Y-110872511D01*
X130217030Y-110836830D01*
X130288392Y-110801150D01*
X130359754Y-110801150D01*
X130431116Y-110836830D01*
X130466797Y-110872511D01*
X130502478Y-110943873D01*
X130502478Y-111193640D01*
D10*
X119554666Y-87590380D02*
X119554666Y-88304666D01*
X119507047Y-88447523D01*
X119411809Y-88542761D01*
X119268952Y-88590380D01*
X119173714Y-88590380D01*
X120459428Y-87923714D02*
X120459428Y-88590380D01*
X120221333Y-87542761D02*
X119983238Y-88257047D01*
X120602285Y-88257047D01*
X137263142Y-91606666D02*
X137310761Y-91654285D01*
X137358380Y-91797142D01*
X137358380Y-91892380D01*
X137310761Y-92035238D01*
X137215523Y-92130476D01*
X137120285Y-92178095D01*
X136929809Y-92225714D01*
X136786952Y-92225714D01*
X136596476Y-92178095D01*
X136501238Y-92130476D01*
X136406000Y-92035238D01*
X136358380Y-91892380D01*
X136358380Y-91797142D01*
X136406000Y-91654285D01*
X136453619Y-91606666D01*
X137358380Y-90654285D02*
X137358380Y-91225714D01*
X137358380Y-90940000D02*
X136358380Y-90940000D01*
X136501238Y-91035238D01*
X136596476Y-91130476D01*
X136644095Y-91225714D01*
X124033142Y-91556666D02*
X124080761Y-91604285D01*
X124128380Y-91747142D01*
X124128380Y-91842380D01*
X124080761Y-91985238D01*
X123985523Y-92080476D01*
X123890285Y-92128095D01*
X123699809Y-92175714D01*
X123556952Y-92175714D01*
X123366476Y-92128095D01*
X123271238Y-92080476D01*
X123176000Y-91985238D01*
X123128380Y-91842380D01*
X123128380Y-91747142D01*
X123176000Y-91604285D01*
X123223619Y-91556666D01*
X123223619Y-91175714D02*
X123176000Y-91128095D01*
X123128380Y-91032857D01*
X123128380Y-90794761D01*
X123176000Y-90699523D01*
X123223619Y-90651904D01*
X123318857Y-90604285D01*
X123414095Y-90604285D01*
X123556952Y-90651904D01*
X124128380Y-91223333D01*
X124128380Y-90604285D01*
X138153142Y-107227666D02*
X138200761Y-107275285D01*
X138248380Y-107418142D01*
X138248380Y-107513380D01*
X138200761Y-107656238D01*
X138105523Y-107751476D01*
X138010285Y-107799095D01*
X137819809Y-107846714D01*
X137676952Y-107846714D01*
X137486476Y-107799095D01*
X137391238Y-107751476D01*
X137296000Y-107656238D01*
X137248380Y-107513380D01*
X137248380Y-107418142D01*
X137296000Y-107275285D01*
X137343619Y-107227666D01*
X137581714Y-106370523D02*
X138248380Y-106370523D01*
X137200761Y-106608619D02*
X137915047Y-106846714D01*
X137915047Y-106227666D01*
X125580142Y-107227666D02*
X125627761Y-107275285D01*
X125675380Y-107418142D01*
X125675380Y-107513380D01*
X125627761Y-107656238D01*
X125532523Y-107751476D01*
X125437285Y-107799095D01*
X125246809Y-107846714D01*
X125103952Y-107846714D01*
X124913476Y-107799095D01*
X124818238Y-107751476D01*
X124723000Y-107656238D01*
X124675380Y-107513380D01*
X124675380Y-107418142D01*
X124723000Y-107275285D01*
X124770619Y-107227666D01*
X124675380Y-106894333D02*
X124675380Y-106227666D01*
X125675380Y-106656238D01*
X135215333Y-122861142D02*
X135167714Y-122908761D01*
X135024857Y-122956380D01*
X134929619Y-122956380D01*
X134786761Y-122908761D01*
X134691523Y-122813523D01*
X134643904Y-122718285D01*
X134596285Y-122527809D01*
X134596285Y-122384952D01*
X134643904Y-122194476D01*
X134691523Y-122099238D01*
X134786761Y-122004000D01*
X134929619Y-121956380D01*
X135024857Y-121956380D01*
X135167714Y-122004000D01*
X135215333Y-122051619D01*
X136120095Y-121956380D02*
X135643904Y-121956380D01*
X135596285Y-122432571D01*
X135643904Y-122384952D01*
X135739142Y-122337333D01*
X135977238Y-122337333D01*
X136072476Y-122384952D01*
X136120095Y-122432571D01*
X136167714Y-122527809D01*
X136167714Y-122765904D01*
X136120095Y-122861142D01*
X136072476Y-122908761D01*
X135977238Y-122956380D01*
X135739142Y-122956380D01*
X135643904Y-122908761D01*
X135596285Y-122861142D01*
D18*
X152726571Y-125657428D02*
X152726571Y-124133428D01*
X153452285Y-124641428D02*
X153452285Y-125657428D01*
X153452285Y-124786571D02*
X153524857Y-124714000D01*
X153670000Y-124641428D01*
X153887714Y-124641428D01*
X154032857Y-124714000D01*
X154105428Y-124859142D01*
X154105428Y-125657428D01*
X154831142Y-124641428D02*
X154831142Y-126165428D01*
X154831142Y-124714000D02*
X154976285Y-124641428D01*
X155266571Y-124641428D01*
X155411714Y-124714000D01*
X155484285Y-124786571D01*
X155556857Y-124931714D01*
X155556857Y-125367142D01*
X155484285Y-125512285D01*
X155411714Y-125584857D01*
X155266571Y-125657428D01*
X154976285Y-125657428D01*
X154831142Y-125584857D01*
X156863142Y-124641428D02*
X156863142Y-125657428D01*
X156210000Y-124641428D02*
X156210000Y-125439714D01*
X156282571Y-125584857D01*
X156427714Y-125657428D01*
X156645428Y-125657428D01*
X156790571Y-125584857D01*
X156863142Y-125512285D01*
X157371142Y-124641428D02*
X157951714Y-124641428D01*
X157588857Y-124133428D02*
X157588857Y-125439714D01*
X157661428Y-125584857D01*
X157806571Y-125657428D01*
X157951714Y-125657428D01*
X158096857Y-125802571D02*
X159258000Y-125802571D01*
X159548285Y-125584857D02*
X159766000Y-125657428D01*
X160128857Y-125657428D01*
X160274000Y-125584857D01*
X160346571Y-125512285D01*
X160419142Y-125367142D01*
X160419142Y-125222000D01*
X160346571Y-125076857D01*
X160274000Y-125004285D01*
X160128857Y-124931714D01*
X159838571Y-124859142D01*
X159693428Y-124786571D01*
X159620857Y-124714000D01*
X159548285Y-124568857D01*
X159548285Y-124423714D01*
X159620857Y-124278571D01*
X159693428Y-124206000D01*
X159838571Y-124133428D01*
X160201428Y-124133428D01*
X160419142Y-124206000D01*
X161290000Y-124786571D02*
X161144857Y-124714000D01*
X161072285Y-124641428D01*
X160999714Y-124496285D01*
X160999714Y-124423714D01*
X161072285Y-124278571D01*
X161144857Y-124206000D01*
X161290000Y-124133428D01*
X161580285Y-124133428D01*
X161725428Y-124206000D01*
X161798000Y-124278571D01*
X161870571Y-124423714D01*
X161870571Y-124496285D01*
X161798000Y-124641428D01*
X161725428Y-124714000D01*
X161580285Y-124786571D01*
X161290000Y-124786571D01*
X161144857Y-124859142D01*
X161072285Y-124931714D01*
X160999714Y-125076857D01*
X160999714Y-125367142D01*
X161072285Y-125512285D01*
X161144857Y-125584857D01*
X161290000Y-125657428D01*
X161580285Y-125657428D01*
X161725428Y-125584857D01*
X161798000Y-125512285D01*
X161870571Y-125367142D01*
X161870571Y-125076857D01*
X161798000Y-124931714D01*
X161725428Y-124859142D01*
X161580285Y-124786571D01*
X162741428Y-124786571D02*
X162596285Y-124714000D01*
X162523714Y-124641428D01*
X162451142Y-124496285D01*
X162451142Y-124423714D01*
X162523714Y-124278571D01*
X162596285Y-124206000D01*
X162741428Y-124133428D01*
X163031714Y-124133428D01*
X163176857Y-124206000D01*
X163249428Y-124278571D01*
X163322000Y-124423714D01*
X163322000Y-124496285D01*
X163249428Y-124641428D01*
X163176857Y-124714000D01*
X163031714Y-124786571D01*
X162741428Y-124786571D01*
X162596285Y-124859142D01*
X162523714Y-124931714D01*
X162451142Y-125076857D01*
X162451142Y-125367142D01*
X162523714Y-125512285D01*
X162596285Y-125584857D01*
X162741428Y-125657428D01*
X163031714Y-125657428D01*
X163176857Y-125584857D01*
X163249428Y-125512285D01*
X163322000Y-125367142D01*
X163322000Y-125076857D01*
X163249428Y-124931714D01*
X163176857Y-124859142D01*
X163031714Y-124786571D01*
X163249428Y-114709285D02*
X162523714Y-115217285D01*
X163249428Y-115580142D02*
X161725428Y-115580142D01*
X161725428Y-114999571D01*
X161798000Y-114854428D01*
X161870571Y-114781857D01*
X162015714Y-114709285D01*
X162233428Y-114709285D01*
X162378571Y-114781857D01*
X162451142Y-114854428D01*
X162523714Y-114999571D01*
X162523714Y-115580142D01*
X161725428Y-113620714D02*
X162814000Y-113620714D01*
X163031714Y-113693285D01*
X163176857Y-113838428D01*
X163249428Y-114056142D01*
X163249428Y-114201285D01*
X162233428Y-112241857D02*
X163249428Y-112241857D01*
X161652857Y-112604714D02*
X162741428Y-112967571D01*
X162741428Y-112024142D01*
X161725428Y-110717857D02*
X161725428Y-111443571D01*
X162451142Y-111516142D01*
X162378571Y-111443571D01*
X162306000Y-111298428D01*
X162306000Y-110935571D01*
X162378571Y-110790428D01*
X162451142Y-110717857D01*
X162596285Y-110645285D01*
X162959142Y-110645285D01*
X163104285Y-110717857D01*
X163176857Y-110790428D01*
X163249428Y-110935571D01*
X163249428Y-111298428D01*
X163176857Y-111443571D01*
X163104285Y-111516142D01*
X137541000Y-81080428D02*
X137541000Y-82169000D01*
X137468428Y-82386714D01*
X137323285Y-82531857D01*
X137105571Y-82604428D01*
X136960428Y-82604428D01*
X139065000Y-82604428D02*
X138194142Y-82604428D01*
X138629571Y-82604428D02*
X138629571Y-81080428D01*
X138484428Y-81298142D01*
X138339285Y-81443285D01*
X138194142Y-81515857D01*
D10*
X148677333Y-110386380D02*
X148344000Y-109910190D01*
X148105904Y-110386380D02*
X148105904Y-109386380D01*
X148486857Y-109386380D01*
X148582095Y-109434000D01*
X148629714Y-109481619D01*
X148677333Y-109576857D01*
X148677333Y-109719714D01*
X148629714Y-109814952D01*
X148582095Y-109862571D01*
X148486857Y-109910190D01*
X148105904Y-109910190D01*
X149629714Y-110386380D02*
X149058285Y-110386380D01*
X149344000Y-110386380D02*
X149344000Y-109386380D01*
X149248761Y-109529238D01*
X149153523Y-109624476D01*
X149058285Y-109672095D01*
X148677333Y-113609380D02*
X148344000Y-113133190D01*
X148105904Y-113609380D02*
X148105904Y-112609380D01*
X148486857Y-112609380D01*
X148582095Y-112657000D01*
X148629714Y-112704619D01*
X148677333Y-112799857D01*
X148677333Y-112942714D01*
X148629714Y-113037952D01*
X148582095Y-113085571D01*
X148486857Y-113133190D01*
X148105904Y-113133190D01*
X149058285Y-112704619D02*
X149105904Y-112657000D01*
X149201142Y-112609380D01*
X149439238Y-112609380D01*
X149534476Y-112657000D01*
X149582095Y-112704619D01*
X149629714Y-112799857D01*
X149629714Y-112895095D01*
X149582095Y-113037952D01*
X149010666Y-113609380D01*
X149629714Y-113609380D01*
X148677333Y-117038380D02*
X148344000Y-116562190D01*
X148105904Y-117038380D02*
X148105904Y-116038380D01*
X148486857Y-116038380D01*
X148582095Y-116086000D01*
X148629714Y-116133619D01*
X148677333Y-116228857D01*
X148677333Y-116371714D01*
X148629714Y-116466952D01*
X148582095Y-116514571D01*
X148486857Y-116562190D01*
X148105904Y-116562190D01*
X149010666Y-116038380D02*
X149629714Y-116038380D01*
X149296380Y-116419333D01*
X149439238Y-116419333D01*
X149534476Y-116466952D01*
X149582095Y-116514571D01*
X149629714Y-116609809D01*
X149629714Y-116847904D01*
X149582095Y-116943142D01*
X149534476Y-116990761D01*
X149439238Y-117038380D01*
X149153523Y-117038380D01*
X149058285Y-116990761D01*
X149010666Y-116943142D01*
X148677333Y-120213380D02*
X148344000Y-119737190D01*
X148105904Y-120213380D02*
X148105904Y-119213380D01*
X148486857Y-119213380D01*
X148582095Y-119261000D01*
X148629714Y-119308619D01*
X148677333Y-119403857D01*
X148677333Y-119546714D01*
X148629714Y-119641952D01*
X148582095Y-119689571D01*
X148486857Y-119737190D01*
X148105904Y-119737190D01*
X149534476Y-119546714D02*
X149534476Y-120213380D01*
X149296380Y-119165761D02*
X149058285Y-119880047D01*
X149677333Y-119880047D01*
X142428933Y-123083580D02*
X142095600Y-122607390D01*
X141857504Y-123083580D02*
X141857504Y-122083580D01*
X142238457Y-122083580D01*
X142333695Y-122131200D01*
X142381314Y-122178819D01*
X142428933Y-122274057D01*
X142428933Y-122416914D01*
X142381314Y-122512152D01*
X142333695Y-122559771D01*
X142238457Y-122607390D01*
X141857504Y-122607390D01*
X143333695Y-122083580D02*
X142857504Y-122083580D01*
X142809885Y-122559771D01*
X142857504Y-122512152D01*
X142952742Y-122464533D01*
X143190838Y-122464533D01*
X143286076Y-122512152D01*
X143333695Y-122559771D01*
X143381314Y-122655009D01*
X143381314Y-122893104D01*
X143333695Y-122988342D01*
X143286076Y-123035961D01*
X143190838Y-123083580D01*
X142952742Y-123083580D01*
X142857504Y-123035961D01*
X142809885Y-122988342D01*
X121753333Y-110180380D02*
X121420000Y-109704190D01*
X121181904Y-110180380D02*
X121181904Y-109180380D01*
X121562857Y-109180380D01*
X121658095Y-109228000D01*
X121705714Y-109275619D01*
X121753333Y-109370857D01*
X121753333Y-109513714D01*
X121705714Y-109608952D01*
X121658095Y-109656571D01*
X121562857Y-109704190D01*
X121181904Y-109704190D01*
X122610476Y-109180380D02*
X122420000Y-109180380D01*
X122324761Y-109228000D01*
X122277142Y-109275619D01*
X122181904Y-109418476D01*
X122134285Y-109608952D01*
X122134285Y-109989904D01*
X122181904Y-110085142D01*
X122229523Y-110132761D01*
X122324761Y-110180380D01*
X122515238Y-110180380D01*
X122610476Y-110132761D01*
X122658095Y-110085142D01*
X122705714Y-109989904D01*
X122705714Y-109751809D01*
X122658095Y-109656571D01*
X122610476Y-109608952D01*
X122515238Y-109561333D01*
X122324761Y-109561333D01*
X122229523Y-109608952D01*
X122181904Y-109656571D01*
X122134285Y-109751809D01*
X121753333Y-112847380D02*
X121420000Y-112371190D01*
X121181904Y-112847380D02*
X121181904Y-111847380D01*
X121562857Y-111847380D01*
X121658095Y-111895000D01*
X121705714Y-111942619D01*
X121753333Y-112037857D01*
X121753333Y-112180714D01*
X121705714Y-112275952D01*
X121658095Y-112323571D01*
X121562857Y-112371190D01*
X121181904Y-112371190D01*
X122086666Y-111847380D02*
X122753333Y-111847380D01*
X122324761Y-112847380D01*
X121753333Y-115268580D02*
X121420000Y-114792390D01*
X121181904Y-115268580D02*
X121181904Y-114268580D01*
X121562857Y-114268580D01*
X121658095Y-114316200D01*
X121705714Y-114363819D01*
X121753333Y-114459057D01*
X121753333Y-114601914D01*
X121705714Y-114697152D01*
X121658095Y-114744771D01*
X121562857Y-114792390D01*
X121181904Y-114792390D01*
X122324761Y-114697152D02*
X122229523Y-114649533D01*
X122181904Y-114601914D01*
X122134285Y-114506676D01*
X122134285Y-114459057D01*
X122181904Y-114363819D01*
X122229523Y-114316200D01*
X122324761Y-114268580D01*
X122515238Y-114268580D01*
X122610476Y-114316200D01*
X122658095Y-114363819D01*
X122705714Y-114459057D01*
X122705714Y-114506676D01*
X122658095Y-114601914D01*
X122610476Y-114649533D01*
X122515238Y-114697152D01*
X122324761Y-114697152D01*
X122229523Y-114744771D01*
X122181904Y-114792390D01*
X122134285Y-114887628D01*
X122134285Y-115078104D01*
X122181904Y-115173342D01*
X122229523Y-115220961D01*
X122324761Y-115268580D01*
X122515238Y-115268580D01*
X122610476Y-115220961D01*
X122658095Y-115173342D01*
X122705714Y-115078104D01*
X122705714Y-114887628D01*
X122658095Y-114792390D01*
X122610476Y-114744771D01*
X122515238Y-114697152D01*
X159543904Y-86764761D02*
X159686761Y-86812380D01*
X159924857Y-86812380D01*
X160020095Y-86764761D01*
X160067714Y-86717142D01*
X160115333Y-86621904D01*
X160115333Y-86526666D01*
X160067714Y-86431428D01*
X160020095Y-86383809D01*
X159924857Y-86336190D01*
X159734380Y-86288571D01*
X159639142Y-86240952D01*
X159591523Y-86193333D01*
X159543904Y-86098095D01*
X159543904Y-86002857D01*
X159591523Y-85907619D01*
X159639142Y-85860000D01*
X159734380Y-85812380D01*
X159972476Y-85812380D01*
X160115333Y-85860000D01*
X160686761Y-86240952D02*
X160591523Y-86193333D01*
X160543904Y-86145714D01*
X160496285Y-86050476D01*
X160496285Y-86002857D01*
X160543904Y-85907619D01*
X160591523Y-85860000D01*
X160686761Y-85812380D01*
X160877238Y-85812380D01*
X160972476Y-85860000D01*
X161020095Y-85907619D01*
X161067714Y-86002857D01*
X161067714Y-86050476D01*
X161020095Y-86145714D01*
X160972476Y-86193333D01*
X160877238Y-86240952D01*
X160686761Y-86240952D01*
X160591523Y-86288571D01*
X160543904Y-86336190D01*
X160496285Y-86431428D01*
X160496285Y-86621904D01*
X160543904Y-86717142D01*
X160591523Y-86764761D01*
X160686761Y-86812380D01*
X160877238Y-86812380D01*
X160972476Y-86764761D01*
X161020095Y-86717142D01*
X161067714Y-86621904D01*
X161067714Y-86431428D01*
X161020095Y-86336190D01*
X160972476Y-86288571D01*
X160877238Y-86240952D01*
X161639142Y-86240952D02*
X161543904Y-86193333D01*
X161496285Y-86145714D01*
X161448666Y-86050476D01*
X161448666Y-86002857D01*
X161496285Y-85907619D01*
X161543904Y-85860000D01*
X161639142Y-85812380D01*
X161829619Y-85812380D01*
X161924857Y-85860000D01*
X161972476Y-85907619D01*
X162020095Y-86002857D01*
X162020095Y-86050476D01*
X161972476Y-86145714D01*
X161924857Y-86193333D01*
X161829619Y-86240952D01*
X161639142Y-86240952D01*
X161543904Y-86288571D01*
X161496285Y-86336190D01*
X161448666Y-86431428D01*
X161448666Y-86621904D01*
X161496285Y-86717142D01*
X161543904Y-86764761D01*
X161639142Y-86812380D01*
X161829619Y-86812380D01*
X161924857Y-86764761D01*
X161972476Y-86717142D01*
X162020095Y-86621904D01*
X162020095Y-86431428D01*
X161972476Y-86336190D01*
X161924857Y-86288571D01*
X161829619Y-86240952D01*
X134072380Y-98297904D02*
X134881904Y-98297904D01*
X134977142Y-98250285D01*
X135024761Y-98202666D01*
X135072380Y-98107428D01*
X135072380Y-97916952D01*
X135024761Y-97821714D01*
X134977142Y-97774095D01*
X134881904Y-97726476D01*
X134072380Y-97726476D01*
X135072380Y-96726476D02*
X135072380Y-97297904D01*
X135072380Y-97012190D02*
X134072380Y-97012190D01*
X134215238Y-97107428D01*
X134310476Y-97202666D01*
X134358095Y-97297904D01*
D19*
X142845669Y-115886895D02*
X143452245Y-115886895D01*
X143523607Y-115851214D01*
X143559288Y-115815533D01*
X143594969Y-115744171D01*
X143594969Y-115601447D01*
X143559288Y-115530085D01*
X143523607Y-115494404D01*
X143452245Y-115458723D01*
X142845669Y-115458723D01*
X142917030Y-115137595D02*
X142881350Y-115101914D01*
X142845669Y-115030552D01*
X142845669Y-114852147D01*
X142881350Y-114780785D01*
X142917030Y-114745104D01*
X142988392Y-114709423D01*
X143059754Y-114709423D01*
X143166797Y-114745104D01*
X143594969Y-115173276D01*
X143594969Y-114709423D01*
X143095435Y-113449704D02*
X143594969Y-113449704D01*
X142809988Y-113628109D02*
X143345202Y-113806514D01*
X143345202Y-113342661D01*
X142845669Y-112700404D02*
X142845669Y-113057214D01*
X143202478Y-113092895D01*
X143166797Y-113057214D01*
X143131116Y-112985852D01*
X143131116Y-112807447D01*
X143166797Y-112736085D01*
X143202478Y-112700404D01*
X143273840Y-112664723D01*
X143452245Y-112664723D01*
X143523607Y-112700404D01*
X143559288Y-112736085D01*
X143594969Y-112807447D01*
X143594969Y-112985852D01*
X143559288Y-113057214D01*
X143523607Y-113092895D01*
X142845669Y-112200871D02*
X142845669Y-112129509D01*
X142881350Y-112058147D01*
X142917030Y-112022466D01*
X142988392Y-111986785D01*
X143131116Y-111951104D01*
X143309521Y-111951104D01*
X143452245Y-111986785D01*
X143523607Y-112022466D01*
X143559288Y-112058147D01*
X143594969Y-112129509D01*
X143594969Y-112200871D01*
X143559288Y-112272233D01*
X143523607Y-112307914D01*
X143452245Y-112343595D01*
X143309521Y-112379276D01*
X143131116Y-112379276D01*
X142988392Y-112343595D01*
X142917030Y-112307914D01*
X142881350Y-112272233D01*
X142845669Y-112200871D01*
X143095435Y-111308847D02*
X143594969Y-111308847D01*
X142809988Y-111487252D02*
X143345202Y-111665657D01*
X143345202Y-111201804D01*
D10*
X143741142Y-107227666D02*
X143788761Y-107275285D01*
X143836380Y-107418142D01*
X143836380Y-107513380D01*
X143788761Y-107656238D01*
X143693523Y-107751476D01*
X143598285Y-107799095D01*
X143407809Y-107846714D01*
X143264952Y-107846714D01*
X143074476Y-107799095D01*
X142979238Y-107751476D01*
X142884000Y-107656238D01*
X142836380Y-107513380D01*
X142836380Y-107418142D01*
X142884000Y-107275285D01*
X142931619Y-107227666D01*
X142836380Y-106894333D02*
X142836380Y-106275285D01*
X143217333Y-106608619D01*
X143217333Y-106465761D01*
X143264952Y-106370523D01*
X143312571Y-106322904D01*
X143407809Y-106275285D01*
X143645904Y-106275285D01*
X143741142Y-106322904D01*
X143788761Y-106370523D01*
X143836380Y-106465761D01*
X143836380Y-106751476D01*
X143788761Y-106846714D01*
X143741142Y-106894333D01*
X131168142Y-107227666D02*
X131215761Y-107275285D01*
X131263380Y-107418142D01*
X131263380Y-107513380D01*
X131215761Y-107656238D01*
X131120523Y-107751476D01*
X131025285Y-107799095D01*
X130834809Y-107846714D01*
X130691952Y-107846714D01*
X130501476Y-107799095D01*
X130406238Y-107751476D01*
X130311000Y-107656238D01*
X130263380Y-107513380D01*
X130263380Y-107418142D01*
X130311000Y-107275285D01*
X130358619Y-107227666D01*
X130263380Y-106370523D02*
X130263380Y-106561000D01*
X130311000Y-106656238D01*
X130358619Y-106703857D01*
X130501476Y-106799095D01*
X130691952Y-106846714D01*
X131072904Y-106846714D01*
X131168142Y-106799095D01*
X131215761Y-106751476D01*
X131263380Y-106656238D01*
X131263380Y-106465761D01*
X131215761Y-106370523D01*
X131168142Y-106322904D01*
X131072904Y-106275285D01*
X130834809Y-106275285D01*
X130739571Y-106322904D01*
X130691952Y-106370523D01*
X130644333Y-106465761D01*
X130644333Y-106656238D01*
X130691952Y-106751476D01*
X130739571Y-106799095D01*
X130834809Y-106846714D01*
X133314666Y-84542380D02*
X133314666Y-85256666D01*
X133267047Y-85399523D01*
X133171809Y-85494761D01*
X133028952Y-85542380D01*
X132933714Y-85542380D01*
X133743238Y-84637619D02*
X133790857Y-84590000D01*
X133886095Y-84542380D01*
X134124190Y-84542380D01*
X134219428Y-84590000D01*
X134267047Y-84637619D01*
X134314666Y-84732857D01*
X134314666Y-84828095D01*
X134267047Y-84970952D01*
X133695619Y-85542380D01*
X134314666Y-85542380D01*
M02*
