G04 #@! TF.GenerationSoftware,KiCad,Pcbnew,5.1.8-db9833491~88~ubuntu20.04.1*
G04 #@! TF.CreationDate,2020-12-16T09:57:55+01:00*
G04 #@! TF.ProjectId,c6021light,63363032-316c-4696-9768-742e6b696361,rev?*
G04 #@! TF.SameCoordinates,Original*
G04 #@! TF.FileFunction,Legend,Top*
G04 #@! TF.FilePolarity,Positive*
%FSLAX46Y46*%
G04 Gerber Fmt 4.6, Leading zero omitted, Abs format (unit mm)*
G04 Created by KiCad (PCBNEW 5.1.8-db9833491~88~ubuntu20.04.1) date 2020-12-16 09:57:55*
%MOMM*%
%LPD*%
G01*
G04 APERTURE LIST*
%ADD10C,0.200000*%
G04 #@! TA.AperFunction,Profile*
%ADD11C,0.050000*%
G04 #@! TD*
%ADD12C,0.120000*%
%ADD13C,0.254000*%
%ADD14C,0.381000*%
%ADD15C,2.540000*%
%ADD16C,0.304800*%
%ADD17C,0.100000*%
%ADD18C,0.150000*%
G04 APERTURE END LIST*
D10*
X178623933Y-59888380D02*
X178290600Y-59412190D01*
X178052504Y-59888380D02*
X178052504Y-58888380D01*
X178433457Y-58888380D01*
X178528695Y-58936000D01*
X178576314Y-58983619D01*
X178623933Y-59078857D01*
X178623933Y-59221714D01*
X178576314Y-59316952D01*
X178528695Y-59364571D01*
X178433457Y-59412190D01*
X178052504Y-59412190D01*
X178957266Y-58888380D02*
X179623933Y-59888380D01*
X179623933Y-58888380D02*
X178957266Y-59888380D01*
X182457885Y-55685580D02*
X181886457Y-55685580D01*
X182172171Y-55685580D02*
X182172171Y-54685580D01*
X182076933Y-54828438D01*
X181981695Y-54923676D01*
X181886457Y-54971295D01*
X183362647Y-54685580D02*
X182886457Y-54685580D01*
X182838838Y-55161771D01*
X182886457Y-55114152D01*
X182981695Y-55066533D01*
X183219790Y-55066533D01*
X183315028Y-55114152D01*
X183362647Y-55161771D01*
X183410266Y-55257009D01*
X183410266Y-55495104D01*
X183362647Y-55590342D01*
X183315028Y-55637961D01*
X183219790Y-55685580D01*
X182981695Y-55685580D01*
X182886457Y-55637961D01*
X182838838Y-55590342D01*
X183838838Y-55685580D02*
X183838838Y-55018914D01*
X183838838Y-55114152D02*
X183886457Y-55066533D01*
X183981695Y-55018914D01*
X184124552Y-55018914D01*
X184219790Y-55066533D01*
X184267409Y-55161771D01*
X184267409Y-55685580D01*
X184267409Y-55161771D02*
X184315028Y-55066533D01*
X184410266Y-55018914D01*
X184553123Y-55018914D01*
X184648361Y-55066533D01*
X184695980Y-55161771D01*
X184695980Y-55685580D01*
X185124552Y-55399866D02*
X185600742Y-55399866D01*
X185029314Y-55685580D02*
X185362647Y-54685580D01*
X185695980Y-55685580D01*
X181600742Y-57385580D02*
X181600742Y-56385580D01*
X181981695Y-56385580D01*
X182076933Y-56433200D01*
X182124552Y-56480819D01*
X182172171Y-56576057D01*
X182172171Y-56718914D01*
X182124552Y-56814152D01*
X182076933Y-56861771D01*
X181981695Y-56909390D01*
X181600742Y-56909390D01*
X183029314Y-56718914D02*
X183029314Y-57385580D01*
X182600742Y-56718914D02*
X182600742Y-57242723D01*
X182648361Y-57337961D01*
X182743600Y-57385580D01*
X182886457Y-57385580D01*
X182981695Y-57337961D01*
X183029314Y-57290342D01*
X183648361Y-57385580D02*
X183553123Y-57337961D01*
X183505504Y-57242723D01*
X183505504Y-56385580D01*
X184172171Y-57385580D02*
X184076933Y-57337961D01*
X184029314Y-57242723D01*
X184029314Y-56385580D01*
X184981695Y-56718914D02*
X184981695Y-57385580D01*
X184553123Y-56718914D02*
X184553123Y-57242723D01*
X184600742Y-57337961D01*
X184695980Y-57385580D01*
X184838838Y-57385580D01*
X184934076Y-57337961D01*
X184981695Y-57290342D01*
X185457885Y-56718914D02*
X185457885Y-57718914D01*
X185457885Y-56766533D02*
X185553123Y-56718914D01*
X185743600Y-56718914D01*
X185838838Y-56766533D01*
X185886457Y-56814152D01*
X185934076Y-56909390D01*
X185934076Y-57195104D01*
X185886457Y-57290342D01*
X185838838Y-57337961D01*
X185743600Y-57385580D01*
X185553123Y-57385580D01*
X185457885Y-57337961D01*
X108373942Y-51627942D02*
X108326323Y-51675561D01*
X108183466Y-51723180D01*
X108088228Y-51723180D01*
X107945371Y-51675561D01*
X107850133Y-51580323D01*
X107802514Y-51485085D01*
X107754895Y-51294609D01*
X107754895Y-51151752D01*
X107802514Y-50961276D01*
X107850133Y-50866038D01*
X107945371Y-50770800D01*
X108088228Y-50723180D01*
X108183466Y-50723180D01*
X108326323Y-50770800D01*
X108373942Y-50818419D01*
X108754895Y-51437466D02*
X109231085Y-51437466D01*
X108659657Y-51723180D02*
X108992990Y-50723180D01*
X109326323Y-51723180D01*
X109659657Y-51723180D02*
X109659657Y-50723180D01*
X110231085Y-51723180D01*
X110231085Y-50723180D01*
X107326323Y-52423180D02*
X107897752Y-52423180D01*
X107612038Y-53423180D02*
X107612038Y-52423180D01*
X108612038Y-53375561D02*
X108516800Y-53423180D01*
X108326323Y-53423180D01*
X108231085Y-53375561D01*
X108183466Y-53280323D01*
X108183466Y-52899371D01*
X108231085Y-52804133D01*
X108326323Y-52756514D01*
X108516800Y-52756514D01*
X108612038Y-52804133D01*
X108659657Y-52899371D01*
X108659657Y-52994609D01*
X108183466Y-53089847D01*
X109088228Y-53423180D02*
X109088228Y-52756514D01*
X109088228Y-52946990D02*
X109135847Y-52851752D01*
X109183466Y-52804133D01*
X109278704Y-52756514D01*
X109373942Y-52756514D01*
X109707276Y-53423180D02*
X109707276Y-52756514D01*
X109707276Y-52851752D02*
X109754895Y-52804133D01*
X109850133Y-52756514D01*
X109992990Y-52756514D01*
X110088228Y-52804133D01*
X110135847Y-52899371D01*
X110135847Y-53423180D01*
X110135847Y-52899371D02*
X110183466Y-52804133D01*
X110278704Y-52756514D01*
X110421561Y-52756514D01*
X110516800Y-52804133D01*
X110564419Y-52899371D01*
X110564419Y-53423180D01*
X170492800Y-55371904D02*
X170445180Y-55467142D01*
X170445180Y-55610000D01*
X170492800Y-55752857D01*
X170588038Y-55848095D01*
X170683276Y-55895714D01*
X170873752Y-55943333D01*
X171016609Y-55943333D01*
X171207085Y-55895714D01*
X171302323Y-55848095D01*
X171397561Y-55752857D01*
X171445180Y-55610000D01*
X171445180Y-55514761D01*
X171397561Y-55371904D01*
X171349942Y-55324285D01*
X171016609Y-55324285D01*
X171016609Y-55514761D01*
X171445180Y-54895714D02*
X170445180Y-54895714D01*
X171445180Y-54324285D01*
X170445180Y-54324285D01*
X171445180Y-53848095D02*
X170445180Y-53848095D01*
X170445180Y-53610000D01*
X170492800Y-53467142D01*
X170588038Y-53371904D01*
X170683276Y-53324285D01*
X170873752Y-53276666D01*
X171016609Y-53276666D01*
X171207085Y-53324285D01*
X171302323Y-53371904D01*
X171397561Y-53467142D01*
X171445180Y-53610000D01*
X171445180Y-53848095D01*
X194508380Y-70516476D02*
X194508380Y-70992666D01*
X193508380Y-70992666D01*
X194508380Y-70040285D02*
X194460761Y-70135523D01*
X194413142Y-70183142D01*
X194317904Y-70230761D01*
X194032190Y-70230761D01*
X193936952Y-70183142D01*
X193889333Y-70135523D01*
X193841714Y-70040285D01*
X193841714Y-69897428D01*
X193889333Y-69802190D01*
X193936952Y-69754571D01*
X194032190Y-69706952D01*
X194317904Y-69706952D01*
X194413142Y-69754571D01*
X194460761Y-69802190D01*
X194508380Y-69897428D01*
X194508380Y-70040285D01*
X194460761Y-68849809D02*
X194508380Y-68945047D01*
X194508380Y-69135523D01*
X194460761Y-69230761D01*
X194413142Y-69278380D01*
X194317904Y-69326000D01*
X194032190Y-69326000D01*
X193936952Y-69278380D01*
X193889333Y-69230761D01*
X193841714Y-69135523D01*
X193841714Y-68945047D01*
X193889333Y-68849809D01*
X194508380Y-68278380D02*
X194460761Y-68373619D01*
X194413142Y-68421238D01*
X194317904Y-68468857D01*
X194032190Y-68468857D01*
X193936952Y-68421238D01*
X193889333Y-68373619D01*
X193841714Y-68278380D01*
X193841714Y-68135523D01*
X193889333Y-68040285D01*
X193936952Y-67992666D01*
X194032190Y-67945047D01*
X194317904Y-67945047D01*
X194413142Y-67992666D01*
X194460761Y-68040285D01*
X194508380Y-68135523D01*
X194508380Y-68278380D01*
X193841714Y-67516476D02*
X194508380Y-67516476D01*
X193936952Y-67516476D02*
X193889333Y-67468857D01*
X193841714Y-67373619D01*
X193841714Y-67230761D01*
X193889333Y-67135523D01*
X193984571Y-67087904D01*
X194508380Y-67087904D01*
X194460761Y-66230761D02*
X194508380Y-66326000D01*
X194508380Y-66516476D01*
X194460761Y-66611714D01*
X194365523Y-66659333D01*
X193984571Y-66659333D01*
X193889333Y-66611714D01*
X193841714Y-66516476D01*
X193841714Y-66326000D01*
X193889333Y-66230761D01*
X193984571Y-66183142D01*
X194079809Y-66183142D01*
X194175047Y-66659333D01*
X193841714Y-65897428D02*
X193841714Y-65516476D01*
X193508380Y-65754571D02*
X194365523Y-65754571D01*
X194460761Y-65706952D01*
X194508380Y-65611714D01*
X194508380Y-65516476D01*
X193531380Y-84526238D02*
X193055190Y-84859571D01*
X193531380Y-85097666D02*
X192531380Y-85097666D01*
X192531380Y-84716714D01*
X192579000Y-84621476D01*
X192626619Y-84573857D01*
X192721857Y-84526238D01*
X192864714Y-84526238D01*
X192959952Y-84573857D01*
X193007571Y-84621476D01*
X193055190Y-84716714D01*
X193055190Y-85097666D01*
X193483761Y-84145285D02*
X193531380Y-84002428D01*
X193531380Y-83764333D01*
X193483761Y-83669095D01*
X193436142Y-83621476D01*
X193340904Y-83573857D01*
X193245666Y-83573857D01*
X193150428Y-83621476D01*
X193102809Y-83669095D01*
X193055190Y-83764333D01*
X193007571Y-83954809D01*
X192959952Y-84050047D01*
X192912333Y-84097666D01*
X192817095Y-84145285D01*
X192721857Y-84145285D01*
X192626619Y-84097666D01*
X192579000Y-84050047D01*
X192531380Y-83954809D01*
X192531380Y-83716714D01*
X192579000Y-83573857D01*
X192864714Y-82716714D02*
X193531380Y-82716714D01*
X192483761Y-82954809D02*
X193198047Y-83192904D01*
X193198047Y-82573857D01*
X192959952Y-82050047D02*
X192912333Y-82145285D01*
X192864714Y-82192904D01*
X192769476Y-82240523D01*
X192721857Y-82240523D01*
X192626619Y-82192904D01*
X192579000Y-82145285D01*
X192531380Y-82050047D01*
X192531380Y-81859571D01*
X192579000Y-81764333D01*
X192626619Y-81716714D01*
X192721857Y-81669095D01*
X192769476Y-81669095D01*
X192864714Y-81716714D01*
X192912333Y-81764333D01*
X192959952Y-81859571D01*
X192959952Y-82050047D01*
X193007571Y-82145285D01*
X193055190Y-82192904D01*
X193150428Y-82240523D01*
X193340904Y-82240523D01*
X193436142Y-82192904D01*
X193483761Y-82145285D01*
X193531380Y-82050047D01*
X193531380Y-81859571D01*
X193483761Y-81764333D01*
X193436142Y-81716714D01*
X193340904Y-81669095D01*
X193150428Y-81669095D01*
X193055190Y-81716714D01*
X193007571Y-81764333D01*
X192959952Y-81859571D01*
X192531380Y-80764333D02*
X192531380Y-81240523D01*
X193007571Y-81288142D01*
X192959952Y-81240523D01*
X192912333Y-81145285D01*
X192912333Y-80907190D01*
X192959952Y-80811952D01*
X193007571Y-80764333D01*
X193102809Y-80716714D01*
X193340904Y-80716714D01*
X193436142Y-80764333D01*
X193483761Y-80811952D01*
X193531380Y-80907190D01*
X193531380Y-81145285D01*
X193483761Y-81240523D01*
X193436142Y-81288142D01*
X194231380Y-86431000D02*
X195231380Y-85764333D01*
X194231380Y-85764333D02*
X195231380Y-86431000D01*
X194564714Y-85383380D02*
X195564714Y-85383380D01*
X194612333Y-85383380D02*
X194564714Y-85288142D01*
X194564714Y-85097666D01*
X194612333Y-85002428D01*
X194659952Y-84954809D01*
X194755190Y-84907190D01*
X195040904Y-84907190D01*
X195136142Y-84954809D01*
X195183761Y-85002428D01*
X195231380Y-85097666D01*
X195231380Y-85288142D01*
X195183761Y-85383380D01*
X195231380Y-84478619D02*
X194564714Y-84478619D01*
X194755190Y-84478619D02*
X194659952Y-84431000D01*
X194612333Y-84383380D01*
X194564714Y-84288142D01*
X194564714Y-84192904D01*
X195183761Y-83478619D02*
X195231380Y-83573857D01*
X195231380Y-83764333D01*
X195183761Y-83859571D01*
X195088523Y-83907190D01*
X194707571Y-83907190D01*
X194612333Y-83859571D01*
X194564714Y-83764333D01*
X194564714Y-83573857D01*
X194612333Y-83478619D01*
X194707571Y-83431000D01*
X194802809Y-83431000D01*
X194898047Y-83907190D01*
X195183761Y-83050047D02*
X195231380Y-82954809D01*
X195231380Y-82764333D01*
X195183761Y-82669095D01*
X195088523Y-82621476D01*
X195040904Y-82621476D01*
X194945666Y-82669095D01*
X194898047Y-82764333D01*
X194898047Y-82907190D01*
X194850428Y-83002428D01*
X194755190Y-83050047D01*
X194707571Y-83050047D01*
X194612333Y-83002428D01*
X194564714Y-82907190D01*
X194564714Y-82764333D01*
X194612333Y-82669095D01*
X195183761Y-82240523D02*
X195231380Y-82145285D01*
X195231380Y-81954809D01*
X195183761Y-81859571D01*
X195088523Y-81811952D01*
X195040904Y-81811952D01*
X194945666Y-81859571D01*
X194898047Y-81954809D01*
X194898047Y-82097666D01*
X194850428Y-82192904D01*
X194755190Y-82240523D01*
X194707571Y-82240523D01*
X194612333Y-82192904D01*
X194564714Y-82097666D01*
X194564714Y-81954809D01*
X194612333Y-81859571D01*
X194564714Y-81383380D02*
X195231380Y-81383380D01*
X194659952Y-81383380D02*
X194612333Y-81335761D01*
X194564714Y-81240523D01*
X194564714Y-81097666D01*
X194612333Y-81002428D01*
X194707571Y-80954809D01*
X195231380Y-80954809D01*
X195183761Y-80097666D02*
X195231380Y-80192904D01*
X195231380Y-80383380D01*
X195183761Y-80478619D01*
X195088523Y-80526238D01*
X194707571Y-80526238D01*
X194612333Y-80478619D01*
X194564714Y-80383380D01*
X194564714Y-80192904D01*
X194612333Y-80097666D01*
X194707571Y-80050047D01*
X194802809Y-80050047D01*
X194898047Y-80526238D01*
X194564714Y-79764333D02*
X194564714Y-79383380D01*
X194231380Y-79621476D02*
X195088523Y-79621476D01*
X195183761Y-79573857D01*
X195231380Y-79478619D01*
X195231380Y-79383380D01*
X146717142Y-51434380D02*
X147336190Y-51434380D01*
X147002857Y-51815333D01*
X147145714Y-51815333D01*
X147240952Y-51862952D01*
X147288571Y-51910571D01*
X147336190Y-52005809D01*
X147336190Y-52243904D01*
X147288571Y-52339142D01*
X147240952Y-52386761D01*
X147145714Y-52434380D01*
X146860000Y-52434380D01*
X146764761Y-52386761D01*
X146717142Y-52339142D01*
X147621904Y-51434380D02*
X147955238Y-52434380D01*
X148288571Y-51434380D01*
X148526666Y-51434380D02*
X149145714Y-51434380D01*
X148812380Y-51815333D01*
X148955238Y-51815333D01*
X149050476Y-51862952D01*
X149098095Y-51910571D01*
X149145714Y-52005809D01*
X149145714Y-52243904D01*
X149098095Y-52339142D01*
X149050476Y-52386761D01*
X148955238Y-52434380D01*
X148669523Y-52434380D01*
X148574285Y-52386761D01*
X148526666Y-52339142D01*
X150860000Y-51482000D02*
X150764761Y-51434380D01*
X150621904Y-51434380D01*
X150479047Y-51482000D01*
X150383809Y-51577238D01*
X150336190Y-51672476D01*
X150288571Y-51862952D01*
X150288571Y-52005809D01*
X150336190Y-52196285D01*
X150383809Y-52291523D01*
X150479047Y-52386761D01*
X150621904Y-52434380D01*
X150717142Y-52434380D01*
X150860000Y-52386761D01*
X150907619Y-52339142D01*
X150907619Y-52005809D01*
X150717142Y-52005809D01*
X151336190Y-52434380D02*
X151336190Y-51434380D01*
X151907619Y-52434380D01*
X151907619Y-51434380D01*
X152383809Y-52434380D02*
X152383809Y-51434380D01*
X152621904Y-51434380D01*
X152764761Y-51482000D01*
X152860000Y-51577238D01*
X152907619Y-51672476D01*
X152955238Y-51862952D01*
X152955238Y-52005809D01*
X152907619Y-52196285D01*
X152860000Y-52291523D01*
X152764761Y-52386761D01*
X152621904Y-52434380D01*
X152383809Y-52434380D01*
X117298742Y-79214361D02*
X117346361Y-79261980D01*
X117393980Y-79404838D01*
X117393980Y-79500076D01*
X117346361Y-79642933D01*
X117251123Y-79738171D01*
X117155885Y-79785790D01*
X116965409Y-79833409D01*
X116822552Y-79833409D01*
X116632076Y-79785790D01*
X116536838Y-79738171D01*
X116441600Y-79642933D01*
X116393980Y-79500076D01*
X116393980Y-79404838D01*
X116441600Y-79261980D01*
X116489219Y-79214361D01*
X117108266Y-78833409D02*
X117108266Y-78357219D01*
X117393980Y-78928647D02*
X116393980Y-78595314D01*
X117393980Y-78261980D01*
X117393980Y-77928647D02*
X116393980Y-77928647D01*
X117393980Y-77357219D01*
X116393980Y-77357219D01*
X117393980Y-75595314D02*
X117393980Y-76166742D01*
X117393980Y-75881028D02*
X116393980Y-75881028D01*
X116536838Y-75976266D01*
X116632076Y-76071504D01*
X116679695Y-76166742D01*
X116822552Y-75023885D02*
X116774933Y-75119123D01*
X116727314Y-75166742D01*
X116632076Y-75214361D01*
X116584457Y-75214361D01*
X116489219Y-75166742D01*
X116441600Y-75119123D01*
X116393980Y-75023885D01*
X116393980Y-74833409D01*
X116441600Y-74738171D01*
X116489219Y-74690552D01*
X116584457Y-74642933D01*
X116632076Y-74642933D01*
X116727314Y-74690552D01*
X116774933Y-74738171D01*
X116822552Y-74833409D01*
X116822552Y-75023885D01*
X116870171Y-75119123D01*
X116917790Y-75166742D01*
X117013028Y-75214361D01*
X117203504Y-75214361D01*
X117298742Y-75166742D01*
X117346361Y-75119123D01*
X117393980Y-75023885D01*
X117393980Y-74833409D01*
X117346361Y-74738171D01*
X117298742Y-74690552D01*
X117203504Y-74642933D01*
X117013028Y-74642933D01*
X116917790Y-74690552D01*
X116870171Y-74738171D01*
X116822552Y-74833409D01*
X116393980Y-74357219D02*
X117393980Y-74023885D01*
X116393980Y-73690552D01*
X109977657Y-83383380D02*
X109644323Y-82907190D01*
X109406228Y-83383380D02*
X109406228Y-82383380D01*
X109787180Y-82383380D01*
X109882419Y-82431000D01*
X109930038Y-82478619D01*
X109977657Y-82573857D01*
X109977657Y-82716714D01*
X109930038Y-82811952D01*
X109882419Y-82859571D01*
X109787180Y-82907190D01*
X109406228Y-82907190D01*
X110358609Y-83335761D02*
X110501466Y-83383380D01*
X110739561Y-83383380D01*
X110834800Y-83335761D01*
X110882419Y-83288142D01*
X110930038Y-83192904D01*
X110930038Y-83097666D01*
X110882419Y-83002428D01*
X110834800Y-82954809D01*
X110739561Y-82907190D01*
X110549085Y-82859571D01*
X110453847Y-82811952D01*
X110406228Y-82764333D01*
X110358609Y-82669095D01*
X110358609Y-82573857D01*
X110406228Y-82478619D01*
X110453847Y-82431000D01*
X110549085Y-82383380D01*
X110787180Y-82383380D01*
X110930038Y-82431000D01*
X111787180Y-82716714D02*
X111787180Y-83383380D01*
X111549085Y-82335761D02*
X111310990Y-83050047D01*
X111930038Y-83050047D01*
X112453847Y-82811952D02*
X112358609Y-82764333D01*
X112310990Y-82716714D01*
X112263371Y-82621476D01*
X112263371Y-82573857D01*
X112310990Y-82478619D01*
X112358609Y-82431000D01*
X112453847Y-82383380D01*
X112644323Y-82383380D01*
X112739561Y-82431000D01*
X112787180Y-82478619D01*
X112834800Y-82573857D01*
X112834800Y-82621476D01*
X112787180Y-82716714D01*
X112739561Y-82764333D01*
X112644323Y-82811952D01*
X112453847Y-82811952D01*
X112358609Y-82859571D01*
X112310990Y-82907190D01*
X112263371Y-83002428D01*
X112263371Y-83192904D01*
X112310990Y-83288142D01*
X112358609Y-83335761D01*
X112453847Y-83383380D01*
X112644323Y-83383380D01*
X112739561Y-83335761D01*
X112787180Y-83288142D01*
X112834800Y-83192904D01*
X112834800Y-83002428D01*
X112787180Y-82907190D01*
X112739561Y-82859571D01*
X112644323Y-82811952D01*
X113739561Y-82383380D02*
X113263371Y-82383380D01*
X113215752Y-82859571D01*
X113263371Y-82811952D01*
X113358609Y-82764333D01*
X113596704Y-82764333D01*
X113691942Y-82811952D01*
X113739561Y-82859571D01*
X113787180Y-82954809D01*
X113787180Y-83192904D01*
X113739561Y-83288142D01*
X113691942Y-83335761D01*
X113596704Y-83383380D01*
X113358609Y-83383380D01*
X113263371Y-83335761D01*
X113215752Y-83288142D01*
X115501466Y-83383380D02*
X114930038Y-83383380D01*
X115215752Y-83383380D02*
X115215752Y-82383380D01*
X115120514Y-82526238D01*
X115025276Y-82621476D01*
X114930038Y-82669095D01*
X115882419Y-82478619D02*
X115930038Y-82431000D01*
X116025276Y-82383380D01*
X116263371Y-82383380D01*
X116358609Y-82431000D01*
X116406228Y-82478619D01*
X116453847Y-82573857D01*
X116453847Y-82669095D01*
X116406228Y-82811952D01*
X115834800Y-83383380D01*
X116453847Y-83383380D01*
X116739561Y-82383380D02*
X117072895Y-83383380D01*
X117406228Y-82383380D01*
X156972142Y-54630580D02*
X156972142Y-53630580D01*
X157210238Y-53630580D01*
X157353095Y-53678200D01*
X157448333Y-53773438D01*
X157495952Y-53868676D01*
X157543571Y-54059152D01*
X157543571Y-54202009D01*
X157495952Y-54392485D01*
X157448333Y-54487723D01*
X157353095Y-54582961D01*
X157210238Y-54630580D01*
X156972142Y-54630580D01*
X157829285Y-53630580D02*
X158400714Y-53630580D01*
X158115000Y-54630580D02*
X158115000Y-53630580D01*
X159305476Y-54630580D02*
X158972142Y-54154390D01*
X158734047Y-54630580D02*
X158734047Y-53630580D01*
X159115000Y-53630580D01*
X159210238Y-53678200D01*
X159257857Y-53725819D01*
X159305476Y-53821057D01*
X159305476Y-53963914D01*
X159257857Y-54059152D01*
X159210238Y-54106771D01*
X159115000Y-54154390D01*
X158734047Y-54154390D01*
X177901695Y-63409580D02*
X178473123Y-63409580D01*
X178187409Y-64409580D02*
X178187409Y-63409580D01*
X178711219Y-63409580D02*
X179377885Y-64409580D01*
X179377885Y-63409580D02*
X178711219Y-64409580D01*
X175203123Y-62174380D02*
X174726933Y-62174380D01*
X174726933Y-61174380D01*
X175679314Y-62174380D02*
X175584076Y-62126761D01*
X175536457Y-62079142D01*
X175488838Y-61983904D01*
X175488838Y-61698190D01*
X175536457Y-61602952D01*
X175584076Y-61555333D01*
X175679314Y-61507714D01*
X175822171Y-61507714D01*
X175917409Y-61555333D01*
X175965028Y-61602952D01*
X176012647Y-61698190D01*
X176012647Y-61983904D01*
X175965028Y-62079142D01*
X175917409Y-62126761D01*
X175822171Y-62174380D01*
X175679314Y-62174380D01*
X176869790Y-62126761D02*
X176774552Y-62174380D01*
X176584076Y-62174380D01*
X176488838Y-62126761D01*
X176441219Y-62079142D01*
X176393600Y-61983904D01*
X176393600Y-61698190D01*
X176441219Y-61602952D01*
X176488838Y-61555333D01*
X176584076Y-61507714D01*
X176774552Y-61507714D01*
X176869790Y-61555333D01*
X177441219Y-62174380D02*
X177345980Y-62126761D01*
X177298361Y-62079142D01*
X177250742Y-61983904D01*
X177250742Y-61698190D01*
X177298361Y-61602952D01*
X177345980Y-61555333D01*
X177441219Y-61507714D01*
X177584076Y-61507714D01*
X177679314Y-61555333D01*
X177726933Y-61602952D01*
X177774552Y-61698190D01*
X177774552Y-61983904D01*
X177726933Y-62079142D01*
X177679314Y-62126761D01*
X177584076Y-62174380D01*
X177441219Y-62174380D01*
X178203123Y-61507714D02*
X178203123Y-62174380D01*
X178203123Y-61602952D02*
X178250742Y-61555333D01*
X178345980Y-61507714D01*
X178488838Y-61507714D01*
X178584076Y-61555333D01*
X178631695Y-61650571D01*
X178631695Y-62174380D01*
X179488838Y-62126761D02*
X179393600Y-62174380D01*
X179203123Y-62174380D01*
X179107885Y-62126761D01*
X179060266Y-62031523D01*
X179060266Y-61650571D01*
X179107885Y-61555333D01*
X179203123Y-61507714D01*
X179393600Y-61507714D01*
X179488838Y-61555333D01*
X179536457Y-61650571D01*
X179536457Y-61745809D01*
X179060266Y-61841047D01*
X179822171Y-61507714D02*
X180203123Y-61507714D01*
X179965028Y-61174380D02*
X179965028Y-62031523D01*
X180012647Y-62126761D01*
X180107885Y-62174380D01*
X180203123Y-62174380D01*
D11*
X102000000Y-100000000D02*
G75*
G02*
X100000000Y-98000000I0J2000000D01*
G01*
X100000000Y-52000000D02*
G75*
G02*
X102000000Y-50000000I2000000J0D01*
G01*
X200000000Y-98000000D02*
G75*
G02*
X198000000Y-100000000I-2000000J0D01*
G01*
X198000000Y-50000000D02*
G75*
G02*
X200000000Y-52000000I0J-2000000D01*
G01*
X100000000Y-52000000D02*
X100000000Y-98000000D01*
X198000000Y-50000000D02*
X102000000Y-50000000D01*
X200000000Y-98000000D02*
X200000000Y-52000000D01*
X102000000Y-100000000D02*
X198000000Y-100000000D01*
D12*
X185893400Y-55540600D02*
X187223400Y-55540600D01*
X185893400Y-56870600D02*
X185893400Y-55540600D01*
X185893400Y-58140600D02*
X188553400Y-58140600D01*
X188553400Y-58140600D02*
X188553400Y-60740600D01*
X185893400Y-58140600D02*
X185893400Y-60740600D01*
X185893400Y-60740600D02*
X188553400Y-60740600D01*
X184648800Y-61408000D02*
X185978800Y-61408000D01*
X184648800Y-62738000D02*
X184648800Y-61408000D01*
X184648800Y-64008000D02*
X187308800Y-64008000D01*
X187308800Y-64008000D02*
X187308800Y-66608000D01*
X184648800Y-64008000D02*
X184648800Y-66608000D01*
X184648800Y-66608000D02*
X187308800Y-66608000D01*
X193742000Y-92897000D02*
X193742000Y-91567000D01*
X195072000Y-92897000D02*
X193742000Y-92897000D01*
X196342000Y-92897000D02*
X196342000Y-90237000D01*
X196342000Y-90237000D02*
X198942000Y-90237000D01*
X196342000Y-92897000D02*
X198942000Y-92897000D01*
X198942000Y-92897000D02*
X198942000Y-90237000D01*
X113478000Y-73600000D02*
X114808000Y-73600000D01*
X113478000Y-74930000D02*
X113478000Y-73600000D01*
X113478000Y-76200000D02*
X116138000Y-76200000D01*
X116138000Y-76200000D02*
X116138000Y-78800000D01*
X113478000Y-76200000D02*
X113478000Y-78800000D01*
X113478000Y-78800000D02*
X116138000Y-78800000D01*
D13*
X191236600Y-97129600D02*
X191236600Y-92811600D01*
X189458600Y-97129600D02*
X191236600Y-97129600D01*
X189458600Y-92811600D02*
X189458600Y-97129600D01*
X191236600Y-92811600D02*
X189458600Y-92811600D01*
X190347600Y-92811600D02*
X190347600Y-91160600D01*
X190347600Y-97129600D02*
X190347600Y-98780600D01*
X189128400Y-97129600D02*
X189128400Y-92811600D01*
X187350400Y-97129600D02*
X189128400Y-97129600D01*
X187350400Y-92811600D02*
X187350400Y-97129600D01*
X189128400Y-92811600D02*
X187350400Y-92811600D01*
X188239400Y-92811600D02*
X188239400Y-91160600D01*
X188239400Y-97129600D02*
X188239400Y-98780600D01*
X193370200Y-97104200D02*
X193370200Y-92786200D01*
X191592200Y-97104200D02*
X193370200Y-97104200D01*
X191592200Y-92786200D02*
X191592200Y-97104200D01*
X193370200Y-92786200D02*
X191592200Y-92786200D01*
X192481200Y-92786200D02*
X192481200Y-91135200D01*
X192481200Y-97104200D02*
X192481200Y-98755200D01*
D12*
X119645400Y-51556400D02*
X120903400Y-51556400D01*
X119645400Y-53396400D02*
X120903400Y-53396400D01*
X125462000Y-61246500D02*
X126720000Y-61246500D01*
X125462000Y-63086500D02*
X126720000Y-63086500D01*
X132746000Y-73138000D02*
X132746000Y-74396000D01*
X130906000Y-73138000D02*
X130906000Y-74396000D01*
X125462000Y-73756000D02*
X126720000Y-73756000D01*
X125462000Y-75596000D02*
X126720000Y-75596000D01*
X117367800Y-95645000D02*
X117367800Y-94387000D01*
X119207800Y-95645000D02*
X119207800Y-94387000D01*
X119233200Y-89495600D02*
X119233200Y-90753600D01*
X117393200Y-89495600D02*
X117393200Y-90753600D01*
X111750800Y-86318400D02*
X111750800Y-84988400D01*
X113080800Y-86318400D02*
X111750800Y-86318400D01*
X114350800Y-86318400D02*
X114350800Y-83658400D01*
X114350800Y-83658400D02*
X116950800Y-83658400D01*
X114350800Y-86318400D02*
X116950800Y-86318400D01*
X116950800Y-86318400D02*
X116950800Y-83658400D01*
D13*
X185940700Y-52463700D02*
X190258700Y-52463700D01*
X185940700Y-50685700D02*
X185940700Y-52463700D01*
X190258700Y-50685700D02*
X185940700Y-50685700D01*
X190258700Y-52463700D02*
X190258700Y-50685700D01*
X190258700Y-51574700D02*
X191909700Y-51574700D01*
X185940700Y-51574700D02*
X184289700Y-51574700D01*
X185953400Y-54533800D02*
X190271400Y-54533800D01*
X185953400Y-52755800D02*
X185953400Y-54533800D01*
X190271400Y-52755800D02*
X185953400Y-52755800D01*
X190271400Y-54533800D02*
X190271400Y-52755800D01*
X190271400Y-53644800D02*
X191922400Y-53644800D01*
X185953400Y-53644800D02*
X184302400Y-53644800D01*
D12*
X189995400Y-61057400D02*
X193595400Y-61057400D01*
X193633878Y-61045878D02*
G75*
G03*
X191795400Y-56607400I-1838478J1838478D01*
G01*
X189956922Y-61045878D02*
G75*
G02*
X191795400Y-56607400I1838478J1838478D01*
G01*
X195469100Y-61057400D02*
X199069100Y-61057400D01*
X199107578Y-61045878D02*
G75*
G03*
X197269100Y-56607400I-1838478J1838478D01*
G01*
X195430622Y-61045878D02*
G75*
G02*
X197269100Y-56607400I1838478J1838478D01*
G01*
X168318200Y-57090000D02*
X167515730Y-57090000D01*
X166900670Y-57090000D02*
X166098200Y-57090000D01*
X168318200Y-63375000D02*
X168318200Y-57090000D01*
X166098200Y-63375000D02*
X166098200Y-57090000D01*
X168318200Y-63375000D02*
X167771671Y-63375000D01*
X166644729Y-63375000D02*
X166098200Y-63375000D01*
X168318200Y-64135000D02*
X168318200Y-64895000D01*
X168318200Y-64895000D02*
X167208200Y-64895000D01*
X125063000Y-83031000D02*
X125063000Y-82701000D01*
X118523000Y-83031000D02*
X125063000Y-83031000D01*
X118523000Y-82701000D02*
X118523000Y-83031000D01*
X125063000Y-80291000D02*
X125063000Y-80621000D01*
X118523000Y-80291000D02*
X125063000Y-80291000D01*
X118523000Y-80621000D02*
X118523000Y-80291000D01*
X125063000Y-86079000D02*
X125063000Y-85749000D01*
X118523000Y-86079000D02*
X125063000Y-86079000D01*
X118523000Y-85749000D02*
X118523000Y-86079000D01*
X125063000Y-83339000D02*
X125063000Y-83669000D01*
X118523000Y-83339000D02*
X125063000Y-83339000D01*
X118523000Y-83669000D02*
X118523000Y-83339000D01*
X165504800Y-57156600D02*
X165174800Y-57156600D01*
X165504800Y-63696600D02*
X165504800Y-57156600D01*
X165174800Y-63696600D02*
X165504800Y-63696600D01*
X162764800Y-57156600D02*
X163094800Y-57156600D01*
X162764800Y-63696600D02*
X162764800Y-57156600D01*
X163094800Y-63696600D02*
X162764800Y-63696600D01*
X161004000Y-62126800D02*
X161004000Y-61796800D01*
X154464000Y-62126800D02*
X161004000Y-62126800D01*
X154464000Y-61796800D02*
X154464000Y-62126800D01*
X161004000Y-59386800D02*
X161004000Y-59716800D01*
X154464000Y-59386800D02*
X161004000Y-59386800D01*
X154464000Y-59716800D02*
X154464000Y-59386800D01*
X161004000Y-65149400D02*
X161004000Y-64819400D01*
X154464000Y-65149400D02*
X161004000Y-65149400D01*
X154464000Y-64819400D02*
X154464000Y-65149400D01*
X161004000Y-62409400D02*
X161004000Y-62739400D01*
X154464000Y-62409400D02*
X161004000Y-62409400D01*
X154464000Y-62739400D02*
X154464000Y-62409400D01*
X183821400Y-84651600D02*
X184151400Y-84651600D01*
X183821400Y-78111600D02*
X183821400Y-84651600D01*
X184151400Y-78111600D02*
X183821400Y-78111600D01*
X186561400Y-84651600D02*
X186231400Y-84651600D01*
X186561400Y-78111600D02*
X186561400Y-84651600D01*
X186231400Y-78111600D02*
X186561400Y-78111600D01*
X144499000Y-73692000D02*
X144169000Y-73692000D01*
X144499000Y-80232000D02*
X144499000Y-73692000D01*
X144169000Y-80232000D02*
X144499000Y-80232000D01*
X141759000Y-73692000D02*
X142089000Y-73692000D01*
X141759000Y-80232000D02*
X141759000Y-73692000D01*
X142089000Y-80232000D02*
X141759000Y-80232000D01*
X138403000Y-73692000D02*
X138073000Y-73692000D01*
X138403000Y-80232000D02*
X138403000Y-73692000D01*
X138073000Y-80232000D02*
X138403000Y-80232000D01*
X135663000Y-73692000D02*
X135993000Y-73692000D01*
X135663000Y-80232000D02*
X135663000Y-73692000D01*
X135993000Y-80232000D02*
X135663000Y-80232000D01*
X141451000Y-73692000D02*
X141121000Y-73692000D01*
X141451000Y-80232000D02*
X141451000Y-73692000D01*
X141121000Y-80232000D02*
X141451000Y-80232000D01*
X138711000Y-73692000D02*
X139041000Y-73692000D01*
X138711000Y-80232000D02*
X138711000Y-73692000D01*
X139041000Y-80232000D02*
X138711000Y-80232000D01*
X173963000Y-74073000D02*
X173633000Y-74073000D01*
X173963000Y-80613000D02*
X173963000Y-74073000D01*
X173633000Y-80613000D02*
X173963000Y-80613000D01*
X171223000Y-74073000D02*
X171553000Y-74073000D01*
X171223000Y-80613000D02*
X171223000Y-74073000D01*
X171553000Y-80613000D02*
X171223000Y-80613000D01*
X147855000Y-80232000D02*
X148185000Y-80232000D01*
X147855000Y-73692000D02*
X147855000Y-80232000D01*
X148185000Y-73692000D02*
X147855000Y-73692000D01*
X150595000Y-80232000D02*
X150265000Y-80232000D01*
X150595000Y-73692000D02*
X150595000Y-80232000D01*
X150265000Y-73692000D02*
X150595000Y-73692000D01*
X167921000Y-80613000D02*
X168251000Y-80613000D01*
X167921000Y-74073000D02*
X167921000Y-80613000D01*
X168251000Y-74073000D02*
X167921000Y-74073000D01*
X170661000Y-80613000D02*
X170331000Y-80613000D01*
X170661000Y-74073000D02*
X170661000Y-80613000D01*
X170331000Y-74073000D02*
X170661000Y-74073000D01*
X144807000Y-80232000D02*
X145137000Y-80232000D01*
X144807000Y-73692000D02*
X144807000Y-80232000D01*
X145137000Y-73692000D02*
X144807000Y-73692000D01*
X147547000Y-80232000D02*
X147217000Y-80232000D01*
X147547000Y-73692000D02*
X147547000Y-80232000D01*
X147217000Y-73692000D02*
X147547000Y-73692000D01*
X153643000Y-73692000D02*
X153313000Y-73692000D01*
X153643000Y-80232000D02*
X153643000Y-73692000D01*
X153313000Y-80232000D02*
X153643000Y-80232000D01*
X150903000Y-73692000D02*
X151233000Y-73692000D01*
X150903000Y-80232000D02*
X150903000Y-73692000D01*
X151233000Y-80232000D02*
X150903000Y-80232000D01*
X177138000Y-74073000D02*
X176808000Y-74073000D01*
X177138000Y-80613000D02*
X177138000Y-74073000D01*
X176808000Y-80613000D02*
X177138000Y-80613000D01*
X174398000Y-74073000D02*
X174728000Y-74073000D01*
X174398000Y-80613000D02*
X174398000Y-74073000D01*
X174728000Y-80613000D02*
X174398000Y-80613000D01*
X115284000Y-56793000D02*
X115284000Y-57123000D01*
X115284000Y-57123000D02*
X108744000Y-57123000D01*
X108744000Y-57123000D02*
X108744000Y-56793000D01*
X115284000Y-54713000D02*
X115284000Y-54383000D01*
X115284000Y-54383000D02*
X108744000Y-54383000D01*
X108744000Y-54383000D02*
X108744000Y-54713000D01*
X183821400Y-74898000D02*
X184151400Y-74898000D01*
X183821400Y-68358000D02*
X183821400Y-74898000D01*
X184151400Y-68358000D02*
X183821400Y-68358000D01*
X186561400Y-74898000D02*
X186231400Y-74898000D01*
X186561400Y-68358000D02*
X186561400Y-74898000D01*
X186231400Y-68358000D02*
X186561400Y-68358000D01*
D13*
X179959000Y-96139000D02*
X179959000Y-92075000D01*
X182499000Y-92075000D02*
X182499000Y-96139000D01*
D14*
X176149000Y-99187000D02*
X176149000Y-89027000D01*
X186309000Y-99187000D02*
X186309000Y-89027000D01*
D13*
X182499000Y-92075000D02*
X179959000Y-92075000D01*
X179959000Y-96139000D02*
X182499000Y-96139000D01*
D14*
X186309000Y-99187000D02*
X176149000Y-99187000D01*
X176149000Y-89027000D02*
X186309000Y-89027000D01*
D13*
X179959000Y-89027000D02*
G75*
G03*
X181229000Y-90297000I1270000J0D01*
G01*
X181229000Y-90297000D02*
G75*
G03*
X182499000Y-89027000I0J1270000D01*
G01*
D12*
X182143600Y-86702000D02*
X182143600Y-86637000D01*
X182143600Y-88877000D02*
X182143600Y-88812000D01*
X185383600Y-86702000D02*
X185383600Y-86637000D01*
X185383600Y-88877000D02*
X185383600Y-88812000D01*
X185383600Y-86637000D02*
X182143600Y-86637000D01*
X185383600Y-88877000D02*
X182143600Y-88877000D01*
X180453000Y-76307200D02*
X181711000Y-76307200D01*
X180453000Y-74467200D02*
X181711000Y-74467200D01*
X181700200Y-72282800D02*
X180442200Y-72282800D01*
X181700200Y-74122800D02*
X180442200Y-74122800D01*
D14*
X99060000Y-59944000D02*
X99060000Y-72136000D01*
X91694000Y-65024000D02*
X97282000Y-65024000D01*
X97282000Y-64516000D02*
X99060000Y-64516000D01*
X99060000Y-67564000D02*
X97282000Y-67564000D01*
X97282000Y-67056000D02*
X91694000Y-67056000D01*
X97282000Y-67564000D02*
X97282000Y-64516000D01*
X91694000Y-57785000D02*
X91694000Y-74295000D01*
X113284000Y-74295000D02*
X91694000Y-74295000D01*
X113284000Y-57785000D02*
X113284000Y-74295000D01*
X91694000Y-57785000D02*
X113284000Y-57785000D01*
X99060000Y-59944000D02*
X91694000Y-59944000D01*
X99060000Y-72136000D02*
X91694000Y-72136000D01*
X91313000Y-59690000D02*
X91694000Y-59690000D01*
X91313000Y-58039000D02*
X91313000Y-59690000D01*
X91313000Y-58039000D02*
X91694000Y-58039000D01*
X91313000Y-74041000D02*
X91694000Y-74041000D01*
X91313000Y-72390000D02*
X91313000Y-74041000D01*
X91313000Y-72390000D02*
X91694000Y-72390000D01*
D12*
X109742000Y-75280000D02*
X108484000Y-75280000D01*
X109742000Y-77120000D02*
X108484000Y-77120000D01*
X103479000Y-75280000D02*
X102221000Y-75280000D01*
X103479000Y-77120000D02*
X102221000Y-77120000D01*
X129854000Y-87690000D02*
X128524000Y-87690000D01*
X129854000Y-86360000D02*
X129854000Y-87690000D01*
X129854000Y-85090000D02*
X127194000Y-85090000D01*
X127194000Y-85090000D02*
X127194000Y-82490000D01*
X129854000Y-85090000D02*
X129854000Y-82490000D01*
X129854000Y-82490000D02*
X127194000Y-82490000D01*
D15*
X137582219Y-54356000D02*
G75*
G03*
X137582219Y-54356000I-803219J0D01*
G01*
D16*
X139827000Y-57404000D02*
X133731000Y-57404000D01*
X139827000Y-51308000D02*
X139827000Y-57404000D01*
X133731000Y-51308000D02*
X139827000Y-51308000D01*
X133731000Y-57404000D02*
X133731000Y-51308000D01*
D12*
X152396500Y-53026000D02*
X147196500Y-53026000D01*
X152396500Y-60706000D02*
X152396500Y-53026000D01*
X147196500Y-63306000D02*
X147196500Y-53026000D01*
X152396500Y-60706000D02*
X149796500Y-60706000D01*
X149796500Y-60706000D02*
X149796500Y-63306000D01*
X149796500Y-63306000D02*
X147196500Y-63306000D01*
X152396500Y-61976000D02*
X152396500Y-63306000D01*
X152396500Y-63306000D02*
X151066500Y-63306000D01*
X156835800Y-53120600D02*
X156835800Y-51790600D01*
X158165800Y-53120600D02*
X156835800Y-53120600D01*
X159435800Y-53120600D02*
X159435800Y-50460600D01*
X159435800Y-50460600D02*
X172195800Y-50460600D01*
X159435800Y-53120600D02*
X172195800Y-53120600D01*
X172195800Y-53120600D02*
X172195800Y-50460600D01*
X123181000Y-72594000D02*
X125461000Y-72594000D01*
X123181000Y-72884000D02*
X123181000Y-72594000D01*
X119761000Y-72884000D02*
X123181000Y-72884000D01*
X116341000Y-72884000D02*
X116341000Y-72594000D01*
X119761000Y-72884000D02*
X116341000Y-72884000D01*
X123181000Y-63514000D02*
X123181000Y-63804000D01*
X119761000Y-63514000D02*
X123181000Y-63514000D01*
X116341000Y-63514000D02*
X116341000Y-63804000D01*
X119761000Y-63514000D02*
X116341000Y-63514000D01*
X187238000Y-75058000D02*
X187238000Y-61858000D01*
X187238000Y-61858000D02*
X196258000Y-61858000D01*
D17*
X205118000Y-61858000D02*
X205238000Y-61858000D01*
D12*
X205238000Y-61858000D02*
X198458000Y-61858000D01*
D17*
X205228000Y-61858000D02*
X205238000Y-61858000D01*
D12*
X205238000Y-61858000D02*
X205238000Y-75058000D01*
X205238000Y-75058000D02*
X198458000Y-75058000D01*
D17*
X196188000Y-75058000D02*
X196258000Y-75058000D01*
D12*
X196258000Y-75058000D02*
X187238000Y-75058000D01*
X189238000Y-75528000D02*
X187708000Y-75528000D01*
D18*
X116079000Y-62103000D02*
X121921000Y-62103000D01*
D12*
X142688000Y-52137000D02*
X144018000Y-52137000D01*
X142688000Y-53467000D02*
X142688000Y-52137000D01*
X142688000Y-54737000D02*
X145348000Y-54737000D01*
X145348000Y-54737000D02*
X145348000Y-57337000D01*
X142688000Y-54737000D02*
X142688000Y-57337000D01*
X142688000Y-57337000D02*
X145348000Y-57337000D01*
X142688000Y-58360000D02*
X144018000Y-58360000D01*
X142688000Y-59690000D02*
X142688000Y-58360000D01*
X142688000Y-60960000D02*
X145348000Y-60960000D01*
X145348000Y-60960000D02*
X145348000Y-63560000D01*
X142688000Y-60960000D02*
X142688000Y-63560000D01*
X142688000Y-63560000D02*
X145348000Y-63560000D01*
X180875500Y-60465200D02*
X180875500Y-60621200D01*
X180875500Y-58149200D02*
X180875500Y-58305200D01*
X183476630Y-60465037D02*
G75*
G02*
X181394539Y-60465200I-1041130J1079837D01*
G01*
X183476630Y-58305363D02*
G75*
G03*
X181394539Y-58305200I-1041130J-1079837D01*
G01*
X184107835Y-60463808D02*
G75*
G02*
X180875500Y-60620716I-1672335J1078608D01*
G01*
X184107835Y-58306592D02*
G75*
G03*
X180875500Y-58149684I-1672335J-1078608D01*
G01*
X180875500Y-65011800D02*
X180875500Y-65167800D01*
X180875500Y-62695800D02*
X180875500Y-62851800D01*
X183476630Y-65011637D02*
G75*
G02*
X181394539Y-65011800I-1041130J1079837D01*
G01*
X183476630Y-62851963D02*
G75*
G03*
X181394539Y-62851800I-1041130J-1079837D01*
G01*
X184107835Y-65010408D02*
G75*
G02*
X180875500Y-65167316I-1672335J1078608D01*
G01*
X184107835Y-62853192D02*
G75*
G03*
X180875500Y-62696284I-1672335J-1078608D01*
G01*
X157012200Y-58052200D02*
X157012200Y-58208200D01*
X157012200Y-55736200D02*
X157012200Y-55892200D01*
X159613330Y-58052037D02*
G75*
G02*
X157531239Y-58052200I-1041130J1079837D01*
G01*
X159613330Y-55892363D02*
G75*
G03*
X157531239Y-55892200I-1041130J-1079837D01*
G01*
X160244535Y-58050808D02*
G75*
G02*
X157012200Y-58207716I-1672335J1078608D01*
G01*
X160244535Y-55893592D02*
G75*
G03*
X157012200Y-55736684I-1672335J-1078608D01*
G01*
D13*
X161163000Y-79375000D02*
X161163000Y-75311000D01*
X163703000Y-75311000D02*
X163703000Y-79375000D01*
D14*
X157353000Y-82423000D02*
X157353000Y-72263000D01*
X167513000Y-82423000D02*
X167513000Y-72263000D01*
D13*
X163703000Y-75311000D02*
X161163000Y-75311000D01*
X161163000Y-79375000D02*
X163703000Y-79375000D01*
D14*
X167513000Y-82423000D02*
X157353000Y-82423000D01*
X157353000Y-72263000D02*
X167513000Y-72263000D01*
D13*
X161163000Y-72263000D02*
G75*
G03*
X162433000Y-73533000I1270000J0D01*
G01*
X162433000Y-73533000D02*
G75*
G03*
X163703000Y-72263000I0J1270000D01*
G01*
X125857000Y-66167000D02*
X125857000Y-70231000D01*
X123317000Y-70231000D02*
X123317000Y-66167000D01*
D14*
X129667000Y-63119000D02*
X129667000Y-73279000D01*
X119507000Y-63119000D02*
X119507000Y-73279000D01*
D13*
X123317000Y-70231000D02*
X125857000Y-70231000D01*
X125857000Y-66167000D02*
X123317000Y-66167000D01*
D14*
X119507000Y-63119000D02*
X129667000Y-63119000D01*
X129667000Y-73279000D02*
X119507000Y-73279000D01*
D13*
X125857000Y-73279000D02*
G75*
G03*
X124587000Y-72009000I-1270000J0D01*
G01*
X124587000Y-72009000D02*
G75*
G03*
X123317000Y-73279000I0J-1270000D01*
G01*
D12*
X116960400Y-94713400D02*
X115450400Y-94713400D01*
X116960400Y-91012400D02*
X115450400Y-91012400D01*
X115450400Y-87742400D02*
X115450400Y-97982400D01*
X116960400Y-97982400D02*
X112319400Y-97982400D01*
X116960400Y-87742400D02*
X112319400Y-87742400D01*
X112319400Y-87742400D02*
X112319400Y-97982400D01*
X116960400Y-87742400D02*
X116960400Y-97982400D01*
X108150000Y-77502000D02*
X108150000Y-79012000D01*
X104449000Y-77502000D02*
X104449000Y-79012000D01*
X101179000Y-79012000D02*
X111419000Y-79012000D01*
X111419000Y-77502000D02*
X111419000Y-82143000D01*
X101179000Y-77502000D02*
X101179000Y-82143000D01*
X101179000Y-82143000D02*
X111419000Y-82143000D01*
X101179000Y-77502000D02*
X111419000Y-77502000D01*
X179149600Y-82495000D02*
X182749600Y-82495000D01*
X182788078Y-82483478D02*
G75*
G03*
X180949600Y-78045000I-1838478J1838478D01*
G01*
X179111122Y-82483478D02*
G75*
G02*
X180949600Y-78045000I1838478J1838478D01*
G01*
X129069000Y-53872000D02*
X127869000Y-53872000D01*
X129069000Y-55072000D02*
X129069000Y-53872000D01*
X117049000Y-60462000D02*
X117049000Y-54122000D01*
X128819000Y-54122000D02*
X117049000Y-54122000D01*
X128819000Y-60462000D02*
X128819000Y-54122000D01*
X128819000Y-60462000D02*
X117049000Y-60462000D01*
X187238000Y-89536000D02*
X187238000Y-76336000D01*
X187238000Y-76336000D02*
X196258000Y-76336000D01*
D17*
X205118000Y-76336000D02*
X205238000Y-76336000D01*
D12*
X205238000Y-76336000D02*
X198458000Y-76336000D01*
D17*
X205228000Y-76336000D02*
X205238000Y-76336000D01*
D12*
X205238000Y-76336000D02*
X205238000Y-89536000D01*
X205238000Y-89536000D02*
X198458000Y-89536000D01*
D17*
X196188000Y-89536000D02*
X196258000Y-89536000D01*
D12*
X196258000Y-89536000D02*
X187238000Y-89536000D01*
X189238000Y-90006000D02*
X187708000Y-90006000D01*
X111928600Y-53323800D02*
X111928600Y-51993800D01*
X113258600Y-53323800D02*
X111928600Y-53323800D01*
X114528600Y-53323800D02*
X114528600Y-50663800D01*
X114528600Y-50663800D02*
X117128600Y-50663800D01*
X114528600Y-53323800D02*
X117128600Y-53323800D01*
X117128600Y-53323800D02*
X117128600Y-50663800D01*
D14*
X132669280Y-59949080D02*
X132669280Y-60149740D01*
X132969000Y-59949080D02*
X132669280Y-59949080D01*
X132969000Y-60149740D02*
X132969000Y-59949080D01*
X141272260Y-60149740D02*
X141272260Y-64648080D01*
X131269740Y-60149740D02*
X131269740Y-64648080D01*
X138772900Y-60650120D02*
X138772900Y-60149740D01*
X140771880Y-60650120D02*
X138772900Y-60650120D01*
X140771880Y-64150240D02*
X140771880Y-60650120D01*
X131770120Y-60650120D02*
X131770120Y-64150240D01*
X133769100Y-60650120D02*
X131770120Y-60650120D01*
X133769100Y-60149740D02*
X133769100Y-60650120D01*
X131770120Y-61348620D02*
X131269740Y-61348620D01*
X131770120Y-62649100D02*
X131269740Y-62649100D01*
X140771880Y-62649100D02*
X141272260Y-62649100D01*
X141272260Y-61348620D02*
X140771880Y-61348620D01*
X138369040Y-63649860D02*
X138369040Y-64150240D01*
X138170920Y-63649860D02*
X138369040Y-63649860D01*
X138170920Y-64150240D02*
X138170920Y-63649860D01*
X134170420Y-64150240D02*
X134170420Y-63649860D01*
X134170420Y-63649860D02*
X134368540Y-63649860D01*
X134368540Y-63649860D02*
X134368540Y-64150240D01*
X131269740Y-60149740D02*
X141272260Y-60149740D01*
X140771880Y-64150240D02*
X131770120Y-64150240D01*
X131269740Y-64648080D02*
X141272260Y-64648080D01*
X136171940Y-64150240D02*
X136171940Y-63649860D01*
X136171940Y-63649860D02*
X136370060Y-63649860D01*
X136370060Y-63649860D02*
X136370060Y-64150240D01*
X111084360Y-82544920D02*
X96484440Y-82544920D01*
X111084360Y-91546680D02*
X111084360Y-82544920D01*
X96484440Y-91546680D02*
X111084360Y-91546680D01*
X96484440Y-82544920D02*
X96484440Y-91546680D01*
X100985320Y-82544920D02*
X100985320Y-91546680D01*
D18*
X133230904Y-65921000D02*
X133135666Y-65873380D01*
X132992809Y-65873380D01*
X132849952Y-65921000D01*
X132754714Y-66016238D01*
X132707095Y-66111476D01*
X132659476Y-66301952D01*
X132659476Y-66444809D01*
X132707095Y-66635285D01*
X132754714Y-66730523D01*
X132849952Y-66825761D01*
X132992809Y-66873380D01*
X133088047Y-66873380D01*
X133230904Y-66825761D01*
X133278523Y-66778142D01*
X133278523Y-66444809D01*
X133088047Y-66444809D01*
X137001380Y-65873380D02*
X137620428Y-65873380D01*
X137287095Y-66254333D01*
X137429952Y-66254333D01*
X137525190Y-66301952D01*
X137572809Y-66349571D01*
X137620428Y-66444809D01*
X137620428Y-66682904D01*
X137572809Y-66778142D01*
X137525190Y-66825761D01*
X137429952Y-66873380D01*
X137144238Y-66873380D01*
X137049000Y-66825761D01*
X137001380Y-66778142D01*
X138049000Y-66778142D02*
X138096619Y-66825761D01*
X138049000Y-66873380D01*
X138001380Y-66825761D01*
X138049000Y-66778142D01*
X138049000Y-66873380D01*
X138429952Y-65873380D02*
X139049000Y-65873380D01*
X138715666Y-66254333D01*
X138858523Y-66254333D01*
X138953761Y-66301952D01*
X139001380Y-66349571D01*
X139049000Y-66444809D01*
X139049000Y-66682904D01*
X139001380Y-66778142D01*
X138953761Y-66825761D01*
X138858523Y-66873380D01*
X138572809Y-66873380D01*
X138477571Y-66825761D01*
X138429952Y-66778142D01*
X175958523Y-86701380D02*
X175482333Y-86701380D01*
X175434714Y-87177571D01*
X175482333Y-87129952D01*
X175577571Y-87082333D01*
X175815666Y-87082333D01*
X175910904Y-87129952D01*
X175958523Y-87177571D01*
X176006142Y-87272809D01*
X176006142Y-87510904D01*
X175958523Y-87606142D01*
X175910904Y-87653761D01*
X175815666Y-87701380D01*
X175577571Y-87701380D01*
X175482333Y-87653761D01*
X175434714Y-87606142D01*
X176291857Y-86701380D02*
X176625190Y-87701380D01*
X176958523Y-86701380D01*
X173204238Y-87177571D02*
X173347095Y-87225190D01*
X173394714Y-87272809D01*
X173442333Y-87368047D01*
X173442333Y-87510904D01*
X173394714Y-87606142D01*
X173347095Y-87653761D01*
X173251857Y-87701380D01*
X172870904Y-87701380D01*
X172870904Y-86701380D01*
X173204238Y-86701380D01*
X173299476Y-86749000D01*
X173347095Y-86796619D01*
X173394714Y-86891857D01*
X173394714Y-86987095D01*
X173347095Y-87082333D01*
X173299476Y-87129952D01*
X173204238Y-87177571D01*
X172870904Y-87177571D01*
X173918523Y-87701380D02*
X174109000Y-87701380D01*
X174204238Y-87653761D01*
X174251857Y-87606142D01*
X174347095Y-87463285D01*
X174394714Y-87272809D01*
X174394714Y-86891857D01*
X174347095Y-86796619D01*
X174299476Y-86749000D01*
X174204238Y-86701380D01*
X174013761Y-86701380D01*
X173918523Y-86749000D01*
X173870904Y-86796619D01*
X173823285Y-86891857D01*
X173823285Y-87129952D01*
X173870904Y-87225190D01*
X173918523Y-87272809D01*
X174013761Y-87320428D01*
X174204238Y-87320428D01*
X174299476Y-87272809D01*
X174347095Y-87225190D01*
X174394714Y-87129952D01*
X170664238Y-87177571D02*
X170807095Y-87225190D01*
X170854714Y-87272809D01*
X170902333Y-87368047D01*
X170902333Y-87510904D01*
X170854714Y-87606142D01*
X170807095Y-87653761D01*
X170711857Y-87701380D01*
X170330904Y-87701380D01*
X170330904Y-86701380D01*
X170664238Y-86701380D01*
X170759476Y-86749000D01*
X170807095Y-86796619D01*
X170854714Y-86891857D01*
X170854714Y-86987095D01*
X170807095Y-87082333D01*
X170759476Y-87129952D01*
X170664238Y-87177571D01*
X170330904Y-87177571D01*
X171473761Y-87129952D02*
X171378523Y-87082333D01*
X171330904Y-87034714D01*
X171283285Y-86939476D01*
X171283285Y-86891857D01*
X171330904Y-86796619D01*
X171378523Y-86749000D01*
X171473761Y-86701380D01*
X171664238Y-86701380D01*
X171759476Y-86749000D01*
X171807095Y-86796619D01*
X171854714Y-86891857D01*
X171854714Y-86939476D01*
X171807095Y-87034714D01*
X171759476Y-87082333D01*
X171664238Y-87129952D01*
X171473761Y-87129952D01*
X171378523Y-87177571D01*
X171330904Y-87225190D01*
X171283285Y-87320428D01*
X171283285Y-87510904D01*
X171330904Y-87606142D01*
X171378523Y-87653761D01*
X171473761Y-87701380D01*
X171664238Y-87701380D01*
X171759476Y-87653761D01*
X171807095Y-87606142D01*
X171854714Y-87510904D01*
X171854714Y-87320428D01*
X171807095Y-87225190D01*
X171759476Y-87177571D01*
X171664238Y-87129952D01*
X168124238Y-87177571D02*
X168267095Y-87225190D01*
X168314714Y-87272809D01*
X168362333Y-87368047D01*
X168362333Y-87510904D01*
X168314714Y-87606142D01*
X168267095Y-87653761D01*
X168171857Y-87701380D01*
X167790904Y-87701380D01*
X167790904Y-86701380D01*
X168124238Y-86701380D01*
X168219476Y-86749000D01*
X168267095Y-86796619D01*
X168314714Y-86891857D01*
X168314714Y-86987095D01*
X168267095Y-87082333D01*
X168219476Y-87129952D01*
X168124238Y-87177571D01*
X167790904Y-87177571D01*
X168695666Y-86701380D02*
X169362333Y-86701380D01*
X168933761Y-87701380D01*
X165584238Y-87177571D02*
X165727095Y-87225190D01*
X165774714Y-87272809D01*
X165822333Y-87368047D01*
X165822333Y-87510904D01*
X165774714Y-87606142D01*
X165727095Y-87653761D01*
X165631857Y-87701380D01*
X165250904Y-87701380D01*
X165250904Y-86701380D01*
X165584238Y-86701380D01*
X165679476Y-86749000D01*
X165727095Y-86796619D01*
X165774714Y-86891857D01*
X165774714Y-86987095D01*
X165727095Y-87082333D01*
X165679476Y-87129952D01*
X165584238Y-87177571D01*
X165250904Y-87177571D01*
X166679476Y-86701380D02*
X166489000Y-86701380D01*
X166393761Y-86749000D01*
X166346142Y-86796619D01*
X166250904Y-86939476D01*
X166203285Y-87129952D01*
X166203285Y-87510904D01*
X166250904Y-87606142D01*
X166298523Y-87653761D01*
X166393761Y-87701380D01*
X166584238Y-87701380D01*
X166679476Y-87653761D01*
X166727095Y-87606142D01*
X166774714Y-87510904D01*
X166774714Y-87272809D01*
X166727095Y-87177571D01*
X166679476Y-87129952D01*
X166584238Y-87082333D01*
X166393761Y-87082333D01*
X166298523Y-87129952D01*
X166250904Y-87177571D01*
X166203285Y-87272809D01*
X163044238Y-87177571D02*
X163187095Y-87225190D01*
X163234714Y-87272809D01*
X163282333Y-87368047D01*
X163282333Y-87510904D01*
X163234714Y-87606142D01*
X163187095Y-87653761D01*
X163091857Y-87701380D01*
X162710904Y-87701380D01*
X162710904Y-86701380D01*
X163044238Y-86701380D01*
X163139476Y-86749000D01*
X163187095Y-86796619D01*
X163234714Y-86891857D01*
X163234714Y-86987095D01*
X163187095Y-87082333D01*
X163139476Y-87129952D01*
X163044238Y-87177571D01*
X162710904Y-87177571D01*
X164187095Y-86701380D02*
X163710904Y-86701380D01*
X163663285Y-87177571D01*
X163710904Y-87129952D01*
X163806142Y-87082333D01*
X164044238Y-87082333D01*
X164139476Y-87129952D01*
X164187095Y-87177571D01*
X164234714Y-87272809D01*
X164234714Y-87510904D01*
X164187095Y-87606142D01*
X164139476Y-87653761D01*
X164044238Y-87701380D01*
X163806142Y-87701380D01*
X163710904Y-87653761D01*
X163663285Y-87606142D01*
X160504238Y-87177571D02*
X160647095Y-87225190D01*
X160694714Y-87272809D01*
X160742333Y-87368047D01*
X160742333Y-87510904D01*
X160694714Y-87606142D01*
X160647095Y-87653761D01*
X160551857Y-87701380D01*
X160170904Y-87701380D01*
X160170904Y-86701380D01*
X160504238Y-86701380D01*
X160599476Y-86749000D01*
X160647095Y-86796619D01*
X160694714Y-86891857D01*
X160694714Y-86987095D01*
X160647095Y-87082333D01*
X160599476Y-87129952D01*
X160504238Y-87177571D01*
X160170904Y-87177571D01*
X161599476Y-87034714D02*
X161599476Y-87701380D01*
X161361380Y-86653761D02*
X161123285Y-87368047D01*
X161742333Y-87368047D01*
X157964238Y-87177571D02*
X158107095Y-87225190D01*
X158154714Y-87272809D01*
X158202333Y-87368047D01*
X158202333Y-87510904D01*
X158154714Y-87606142D01*
X158107095Y-87653761D01*
X158011857Y-87701380D01*
X157630904Y-87701380D01*
X157630904Y-86701380D01*
X157964238Y-86701380D01*
X158059476Y-86749000D01*
X158107095Y-86796619D01*
X158154714Y-86891857D01*
X158154714Y-86987095D01*
X158107095Y-87082333D01*
X158059476Y-87129952D01*
X157964238Y-87177571D01*
X157630904Y-87177571D01*
X158535666Y-86701380D02*
X159154714Y-86701380D01*
X158821380Y-87082333D01*
X158964238Y-87082333D01*
X159059476Y-87129952D01*
X159107095Y-87177571D01*
X159154714Y-87272809D01*
X159154714Y-87510904D01*
X159107095Y-87606142D01*
X159059476Y-87653761D01*
X158964238Y-87701380D01*
X158678523Y-87701380D01*
X158583285Y-87653761D01*
X158535666Y-87606142D01*
X154921857Y-87415666D02*
X155284714Y-87415666D01*
X154849285Y-87701380D02*
X155103285Y-86701380D01*
X155357285Y-87701380D01*
X156010428Y-87701380D02*
X155575000Y-87701380D01*
X155792714Y-87701380D02*
X155792714Y-86701380D01*
X155720142Y-86844238D01*
X155647571Y-86939476D01*
X155575000Y-86987095D01*
X156699857Y-86701380D02*
X156337000Y-86701380D01*
X156300714Y-87177571D01*
X156337000Y-87129952D01*
X156409571Y-87082333D01*
X156591000Y-87082333D01*
X156663571Y-87129952D01*
X156699857Y-87177571D01*
X156736142Y-87272809D01*
X156736142Y-87510904D01*
X156699857Y-87606142D01*
X156663571Y-87653761D01*
X156591000Y-87701380D01*
X156409571Y-87701380D01*
X156337000Y-87653761D01*
X156300714Y-87606142D01*
X152381857Y-87415666D02*
X152744714Y-87415666D01*
X152309285Y-87701380D02*
X152563285Y-86701380D01*
X152817285Y-87701380D01*
X153470428Y-87701380D02*
X153035000Y-87701380D01*
X153252714Y-87701380D02*
X153252714Y-86701380D01*
X153180142Y-86844238D01*
X153107571Y-86939476D01*
X153035000Y-86987095D01*
X153760714Y-86796619D02*
X153797000Y-86749000D01*
X153869571Y-86701380D01*
X154051000Y-86701380D01*
X154123571Y-86749000D01*
X154159857Y-86796619D01*
X154196142Y-86891857D01*
X154196142Y-86987095D01*
X154159857Y-87129952D01*
X153724428Y-87701380D01*
X154196142Y-87701380D01*
X149841857Y-87415666D02*
X150204714Y-87415666D01*
X149769285Y-87701380D02*
X150023285Y-86701380D01*
X150277285Y-87701380D01*
X150930428Y-87701380D02*
X150495000Y-87701380D01*
X150712714Y-87701380D02*
X150712714Y-86701380D01*
X150640142Y-86844238D01*
X150567571Y-86939476D01*
X150495000Y-86987095D01*
X151656142Y-87701380D02*
X151220714Y-87701380D01*
X151438428Y-87701380D02*
X151438428Y-86701380D01*
X151365857Y-86844238D01*
X151293285Y-86939476D01*
X151220714Y-86987095D01*
X147301857Y-87415666D02*
X147664714Y-87415666D01*
X147229285Y-87701380D02*
X147483285Y-86701380D01*
X147737285Y-87701380D01*
X148390428Y-87701380D02*
X147955000Y-87701380D01*
X148172714Y-87701380D02*
X148172714Y-86701380D01*
X148100142Y-86844238D01*
X148027571Y-86939476D01*
X147955000Y-86987095D01*
X148862142Y-86701380D02*
X148934714Y-86701380D01*
X149007285Y-86749000D01*
X149043571Y-86796619D01*
X149079857Y-86891857D01*
X149116142Y-87082333D01*
X149116142Y-87320428D01*
X149079857Y-87510904D01*
X149043571Y-87606142D01*
X149007285Y-87653761D01*
X148934714Y-87701380D01*
X148862142Y-87701380D01*
X148789571Y-87653761D01*
X148753285Y-87606142D01*
X148717000Y-87510904D01*
X148680714Y-87320428D01*
X148680714Y-87082333D01*
X148717000Y-86891857D01*
X148753285Y-86796619D01*
X148789571Y-86749000D01*
X148862142Y-86701380D01*
X144954714Y-87415666D02*
X145430904Y-87415666D01*
X144859476Y-87701380D02*
X145192809Y-86701380D01*
X145526142Y-87701380D01*
X145907095Y-87701380D02*
X146097571Y-87701380D01*
X146192809Y-87653761D01*
X146240428Y-87606142D01*
X146335666Y-87463285D01*
X146383285Y-87272809D01*
X146383285Y-86891857D01*
X146335666Y-86796619D01*
X146288047Y-86749000D01*
X146192809Y-86701380D01*
X146002333Y-86701380D01*
X145907095Y-86749000D01*
X145859476Y-86796619D01*
X145811857Y-86891857D01*
X145811857Y-87129952D01*
X145859476Y-87225190D01*
X145907095Y-87272809D01*
X146002333Y-87320428D01*
X146192809Y-87320428D01*
X146288047Y-87272809D01*
X146335666Y-87225190D01*
X146383285Y-87129952D01*
X142414714Y-87415666D02*
X142890904Y-87415666D01*
X142319476Y-87701380D02*
X142652809Y-86701380D01*
X142986142Y-87701380D01*
X143462333Y-87129952D02*
X143367095Y-87082333D01*
X143319476Y-87034714D01*
X143271857Y-86939476D01*
X143271857Y-86891857D01*
X143319476Y-86796619D01*
X143367095Y-86749000D01*
X143462333Y-86701380D01*
X143652809Y-86701380D01*
X143748047Y-86749000D01*
X143795666Y-86796619D01*
X143843285Y-86891857D01*
X143843285Y-86939476D01*
X143795666Y-87034714D01*
X143748047Y-87082333D01*
X143652809Y-87129952D01*
X143462333Y-87129952D01*
X143367095Y-87177571D01*
X143319476Y-87225190D01*
X143271857Y-87320428D01*
X143271857Y-87510904D01*
X143319476Y-87606142D01*
X143367095Y-87653761D01*
X143462333Y-87701380D01*
X143652809Y-87701380D01*
X143748047Y-87653761D01*
X143795666Y-87606142D01*
X143843285Y-87510904D01*
X143843285Y-87320428D01*
X143795666Y-87225190D01*
X143748047Y-87177571D01*
X143652809Y-87129952D01*
X139917714Y-87177571D02*
X140026571Y-87225190D01*
X140062857Y-87272809D01*
X140099142Y-87368047D01*
X140099142Y-87510904D01*
X140062857Y-87606142D01*
X140026571Y-87653761D01*
X139954000Y-87701380D01*
X139663714Y-87701380D01*
X139663714Y-86701380D01*
X139917714Y-86701380D01*
X139990285Y-86749000D01*
X140026571Y-86796619D01*
X140062857Y-86891857D01*
X140062857Y-86987095D01*
X140026571Y-87082333D01*
X139990285Y-87129952D01*
X139917714Y-87177571D01*
X139663714Y-87177571D01*
X140824857Y-87701380D02*
X140389428Y-87701380D01*
X140607142Y-87701380D02*
X140607142Y-86701380D01*
X140534571Y-86844238D01*
X140462000Y-86939476D01*
X140389428Y-86987095D01*
X141514285Y-86701380D02*
X141151428Y-86701380D01*
X141115142Y-87177571D01*
X141151428Y-87129952D01*
X141224000Y-87082333D01*
X141405428Y-87082333D01*
X141478000Y-87129952D01*
X141514285Y-87177571D01*
X141550571Y-87272809D01*
X141550571Y-87510904D01*
X141514285Y-87606142D01*
X141478000Y-87653761D01*
X141405428Y-87701380D01*
X141224000Y-87701380D01*
X141151428Y-87653761D01*
X141115142Y-87606142D01*
X137377714Y-87177571D02*
X137486571Y-87225190D01*
X137522857Y-87272809D01*
X137559142Y-87368047D01*
X137559142Y-87510904D01*
X137522857Y-87606142D01*
X137486571Y-87653761D01*
X137414000Y-87701380D01*
X137123714Y-87701380D01*
X137123714Y-86701380D01*
X137377714Y-86701380D01*
X137450285Y-86749000D01*
X137486571Y-86796619D01*
X137522857Y-86891857D01*
X137522857Y-86987095D01*
X137486571Y-87082333D01*
X137450285Y-87129952D01*
X137377714Y-87177571D01*
X137123714Y-87177571D01*
X138284857Y-87701380D02*
X137849428Y-87701380D01*
X138067142Y-87701380D02*
X138067142Y-86701380D01*
X137994571Y-86844238D01*
X137922000Y-86939476D01*
X137849428Y-86987095D01*
X138938000Y-87034714D02*
X138938000Y-87701380D01*
X138756571Y-86653761D02*
X138575142Y-87368047D01*
X139046857Y-87368047D01*
X134837714Y-87177571D02*
X134946571Y-87225190D01*
X134982857Y-87272809D01*
X135019142Y-87368047D01*
X135019142Y-87510904D01*
X134982857Y-87606142D01*
X134946571Y-87653761D01*
X134874000Y-87701380D01*
X134583714Y-87701380D01*
X134583714Y-86701380D01*
X134837714Y-86701380D01*
X134910285Y-86749000D01*
X134946571Y-86796619D01*
X134982857Y-86891857D01*
X134982857Y-86987095D01*
X134946571Y-87082333D01*
X134910285Y-87129952D01*
X134837714Y-87177571D01*
X134583714Y-87177571D01*
X135744857Y-87701380D02*
X135309428Y-87701380D01*
X135527142Y-87701380D02*
X135527142Y-86701380D01*
X135454571Y-86844238D01*
X135382000Y-86939476D01*
X135309428Y-86987095D01*
X135998857Y-86701380D02*
X136470571Y-86701380D01*
X136216571Y-87082333D01*
X136325428Y-87082333D01*
X136398000Y-87129952D01*
X136434285Y-87177571D01*
X136470571Y-87272809D01*
X136470571Y-87510904D01*
X136434285Y-87606142D01*
X136398000Y-87653761D01*
X136325428Y-87701380D01*
X136107714Y-87701380D01*
X136035142Y-87653761D01*
X135998857Y-87606142D01*
X132297714Y-87177571D02*
X132406571Y-87225190D01*
X132442857Y-87272809D01*
X132479142Y-87368047D01*
X132479142Y-87510904D01*
X132442857Y-87606142D01*
X132406571Y-87653761D01*
X132334000Y-87701380D01*
X132043714Y-87701380D01*
X132043714Y-86701380D01*
X132297714Y-86701380D01*
X132370285Y-86749000D01*
X132406571Y-86796619D01*
X132442857Y-86891857D01*
X132442857Y-86987095D01*
X132406571Y-87082333D01*
X132370285Y-87129952D01*
X132297714Y-87177571D01*
X132043714Y-87177571D01*
X133204857Y-87701380D02*
X132769428Y-87701380D01*
X132987142Y-87701380D02*
X132987142Y-86701380D01*
X132914571Y-86844238D01*
X132842000Y-86939476D01*
X132769428Y-86987095D01*
X133495142Y-86796619D02*
X133531428Y-86749000D01*
X133604000Y-86701380D01*
X133785428Y-86701380D01*
X133858000Y-86749000D01*
X133894285Y-86796619D01*
X133930571Y-86891857D01*
X133930571Y-86987095D01*
X133894285Y-87129952D01*
X133458857Y-87701380D01*
X133930571Y-87701380D01*
X180395666Y-65873380D02*
X180729000Y-66873380D01*
X181062333Y-65873380D01*
X181729000Y-66349571D02*
X181871857Y-66397190D01*
X181919476Y-66444809D01*
X181967095Y-66540047D01*
X181967095Y-66682904D01*
X181919476Y-66778142D01*
X181871857Y-66825761D01*
X181776619Y-66873380D01*
X181395666Y-66873380D01*
X181395666Y-65873380D01*
X181729000Y-65873380D01*
X181824238Y-65921000D01*
X181871857Y-65968619D01*
X181919476Y-66063857D01*
X181919476Y-66159095D01*
X181871857Y-66254333D01*
X181824238Y-66301952D01*
X181729000Y-66349571D01*
X181395666Y-66349571D01*
X178199142Y-66778142D02*
X178162857Y-66825761D01*
X178054000Y-66873380D01*
X177981428Y-66873380D01*
X177872571Y-66825761D01*
X177800000Y-66730523D01*
X177763714Y-66635285D01*
X177727428Y-66444809D01*
X177727428Y-66301952D01*
X177763714Y-66111476D01*
X177800000Y-66016238D01*
X177872571Y-65921000D01*
X177981428Y-65873380D01*
X178054000Y-65873380D01*
X178162857Y-65921000D01*
X178199142Y-65968619D01*
X178924857Y-66873380D02*
X178489428Y-66873380D01*
X178707142Y-66873380D02*
X178707142Y-65873380D01*
X178634571Y-66016238D01*
X178562000Y-66111476D01*
X178489428Y-66159095D01*
X179178857Y-65873380D02*
X179650571Y-65873380D01*
X179396571Y-66254333D01*
X179505428Y-66254333D01*
X179578000Y-66301952D01*
X179614285Y-66349571D01*
X179650571Y-66444809D01*
X179650571Y-66682904D01*
X179614285Y-66778142D01*
X179578000Y-66825761D01*
X179505428Y-66873380D01*
X179287714Y-66873380D01*
X179215142Y-66825761D01*
X179178857Y-66778142D01*
X175659142Y-66778142D02*
X175622857Y-66825761D01*
X175514000Y-66873380D01*
X175441428Y-66873380D01*
X175332571Y-66825761D01*
X175260000Y-66730523D01*
X175223714Y-66635285D01*
X175187428Y-66444809D01*
X175187428Y-66301952D01*
X175223714Y-66111476D01*
X175260000Y-66016238D01*
X175332571Y-65921000D01*
X175441428Y-65873380D01*
X175514000Y-65873380D01*
X175622857Y-65921000D01*
X175659142Y-65968619D01*
X176384857Y-66873380D02*
X175949428Y-66873380D01*
X176167142Y-66873380D02*
X176167142Y-65873380D01*
X176094571Y-66016238D01*
X176022000Y-66111476D01*
X175949428Y-66159095D01*
X177038000Y-66206714D02*
X177038000Y-66873380D01*
X176856571Y-65825761D02*
X176675142Y-66540047D01*
X177146857Y-66540047D01*
X173119142Y-66778142D02*
X173082857Y-66825761D01*
X172974000Y-66873380D01*
X172901428Y-66873380D01*
X172792571Y-66825761D01*
X172720000Y-66730523D01*
X172683714Y-66635285D01*
X172647428Y-66444809D01*
X172647428Y-66301952D01*
X172683714Y-66111476D01*
X172720000Y-66016238D01*
X172792571Y-65921000D01*
X172901428Y-65873380D01*
X172974000Y-65873380D01*
X173082857Y-65921000D01*
X173119142Y-65968619D01*
X173844857Y-66873380D02*
X173409428Y-66873380D01*
X173627142Y-66873380D02*
X173627142Y-65873380D01*
X173554571Y-66016238D01*
X173482000Y-66111476D01*
X173409428Y-66159095D01*
X174534285Y-65873380D02*
X174171428Y-65873380D01*
X174135142Y-66349571D01*
X174171428Y-66301952D01*
X174244000Y-66254333D01*
X174425428Y-66254333D01*
X174498000Y-66301952D01*
X174534285Y-66349571D01*
X174570571Y-66444809D01*
X174570571Y-66682904D01*
X174534285Y-66778142D01*
X174498000Y-66825761D01*
X174425428Y-66873380D01*
X174244000Y-66873380D01*
X174171428Y-66825761D01*
X174135142Y-66778142D01*
X170354714Y-66587666D02*
X170830904Y-66587666D01*
X170259476Y-66873380D02*
X170592809Y-65873380D01*
X170926142Y-66873380D01*
X171449952Y-65873380D02*
X171545190Y-65873380D01*
X171640428Y-65921000D01*
X171688047Y-65968619D01*
X171735666Y-66063857D01*
X171783285Y-66254333D01*
X171783285Y-66492428D01*
X171735666Y-66682904D01*
X171688047Y-66778142D01*
X171640428Y-66825761D01*
X171545190Y-66873380D01*
X171449952Y-66873380D01*
X171354714Y-66825761D01*
X171307095Y-66778142D01*
X171259476Y-66682904D01*
X171211857Y-66492428D01*
X171211857Y-66254333D01*
X171259476Y-66063857D01*
X171307095Y-65968619D01*
X171354714Y-65921000D01*
X171449952Y-65873380D01*
X167814714Y-66587666D02*
X168290904Y-66587666D01*
X167719476Y-66873380D02*
X168052809Y-65873380D01*
X168386142Y-66873380D01*
X169243285Y-66873380D02*
X168671857Y-66873380D01*
X168957571Y-66873380D02*
X168957571Y-65873380D01*
X168862333Y-66016238D01*
X168767095Y-66111476D01*
X168671857Y-66159095D01*
X165274714Y-66587666D02*
X165750904Y-66587666D01*
X165179476Y-66873380D02*
X165512809Y-65873380D01*
X165846142Y-66873380D01*
X166131857Y-65968619D02*
X166179476Y-65921000D01*
X166274714Y-65873380D01*
X166512809Y-65873380D01*
X166608047Y-65921000D01*
X166655666Y-65968619D01*
X166703285Y-66063857D01*
X166703285Y-66159095D01*
X166655666Y-66301952D01*
X166084238Y-66873380D01*
X166703285Y-66873380D01*
X162734714Y-66587666D02*
X163210904Y-66587666D01*
X162639476Y-66873380D02*
X162972809Y-65873380D01*
X163306142Y-66873380D01*
X163544238Y-65873380D02*
X164163285Y-65873380D01*
X163829952Y-66254333D01*
X163972809Y-66254333D01*
X164068047Y-66301952D01*
X164115666Y-66349571D01*
X164163285Y-66444809D01*
X164163285Y-66682904D01*
X164115666Y-66778142D01*
X164068047Y-66825761D01*
X163972809Y-66873380D01*
X163687095Y-66873380D01*
X163591857Y-66825761D01*
X163544238Y-66778142D01*
X160194714Y-66587666D02*
X160670904Y-66587666D01*
X160099476Y-66873380D02*
X160432809Y-65873380D01*
X160766142Y-66873380D01*
X161528047Y-66206714D02*
X161528047Y-66873380D01*
X161289952Y-65825761D02*
X161051857Y-66540047D01*
X161670904Y-66540047D01*
X157654714Y-66587666D02*
X158130904Y-66587666D01*
X157559476Y-66873380D02*
X157892809Y-65873380D01*
X158226142Y-66873380D01*
X159035666Y-65873380D02*
X158559476Y-65873380D01*
X158511857Y-66349571D01*
X158559476Y-66301952D01*
X158654714Y-66254333D01*
X158892809Y-66254333D01*
X158988047Y-66301952D01*
X159035666Y-66349571D01*
X159083285Y-66444809D01*
X159083285Y-66682904D01*
X159035666Y-66778142D01*
X158988047Y-66825761D01*
X158892809Y-66873380D01*
X158654714Y-66873380D01*
X158559476Y-66825761D01*
X158511857Y-66778142D01*
X155114714Y-66587666D02*
X155590904Y-66587666D01*
X155019476Y-66873380D02*
X155352809Y-65873380D01*
X155686142Y-66873380D01*
X156448047Y-65873380D02*
X156257571Y-65873380D01*
X156162333Y-65921000D01*
X156114714Y-65968619D01*
X156019476Y-66111476D01*
X155971857Y-66301952D01*
X155971857Y-66682904D01*
X156019476Y-66778142D01*
X156067095Y-66825761D01*
X156162333Y-66873380D01*
X156352809Y-66873380D01*
X156448047Y-66825761D01*
X156495666Y-66778142D01*
X156543285Y-66682904D01*
X156543285Y-66444809D01*
X156495666Y-66349571D01*
X156448047Y-66301952D01*
X156352809Y-66254333D01*
X156162333Y-66254333D01*
X156067095Y-66301952D01*
X156019476Y-66349571D01*
X155971857Y-66444809D01*
X152574714Y-66587666D02*
X153050904Y-66587666D01*
X152479476Y-66873380D02*
X152812809Y-65873380D01*
X153146142Y-66873380D01*
X153384238Y-65873380D02*
X154050904Y-65873380D01*
X153622333Y-66873380D01*
X150344238Y-66349571D02*
X150487095Y-66397190D01*
X150534714Y-66444809D01*
X150582333Y-66540047D01*
X150582333Y-66682904D01*
X150534714Y-66778142D01*
X150487095Y-66825761D01*
X150391857Y-66873380D01*
X150010904Y-66873380D01*
X150010904Y-65873380D01*
X150344238Y-65873380D01*
X150439476Y-65921000D01*
X150487095Y-65968619D01*
X150534714Y-66063857D01*
X150534714Y-66159095D01*
X150487095Y-66254333D01*
X150439476Y-66301952D01*
X150344238Y-66349571D01*
X150010904Y-66349571D01*
X151201380Y-65873380D02*
X151296619Y-65873380D01*
X151391857Y-65921000D01*
X151439476Y-65968619D01*
X151487095Y-66063857D01*
X151534714Y-66254333D01*
X151534714Y-66492428D01*
X151487095Y-66682904D01*
X151439476Y-66778142D01*
X151391857Y-66825761D01*
X151296619Y-66873380D01*
X151201380Y-66873380D01*
X151106142Y-66825761D01*
X151058523Y-66778142D01*
X151010904Y-66682904D01*
X150963285Y-66492428D01*
X150963285Y-66254333D01*
X151010904Y-66063857D01*
X151058523Y-65968619D01*
X151106142Y-65921000D01*
X151201380Y-65873380D01*
X147804238Y-66349571D02*
X147947095Y-66397190D01*
X147994714Y-66444809D01*
X148042333Y-66540047D01*
X148042333Y-66682904D01*
X147994714Y-66778142D01*
X147947095Y-66825761D01*
X147851857Y-66873380D01*
X147470904Y-66873380D01*
X147470904Y-65873380D01*
X147804238Y-65873380D01*
X147899476Y-65921000D01*
X147947095Y-65968619D01*
X147994714Y-66063857D01*
X147994714Y-66159095D01*
X147947095Y-66254333D01*
X147899476Y-66301952D01*
X147804238Y-66349571D01*
X147470904Y-66349571D01*
X148994714Y-66873380D02*
X148423285Y-66873380D01*
X148709000Y-66873380D02*
X148709000Y-65873380D01*
X148613761Y-66016238D01*
X148518523Y-66111476D01*
X148423285Y-66159095D01*
X144997714Y-66349571D02*
X145106571Y-66397190D01*
X145142857Y-66444809D01*
X145179142Y-66540047D01*
X145179142Y-66682904D01*
X145142857Y-66778142D01*
X145106571Y-66825761D01*
X145034000Y-66873380D01*
X144743714Y-66873380D01*
X144743714Y-65873380D01*
X144997714Y-65873380D01*
X145070285Y-65921000D01*
X145106571Y-65968619D01*
X145142857Y-66063857D01*
X145142857Y-66159095D01*
X145106571Y-66254333D01*
X145070285Y-66301952D01*
X144997714Y-66349571D01*
X144743714Y-66349571D01*
X145904857Y-66873380D02*
X145469428Y-66873380D01*
X145687142Y-66873380D02*
X145687142Y-65873380D01*
X145614571Y-66016238D01*
X145542000Y-66111476D01*
X145469428Y-66159095D01*
X146376571Y-65873380D02*
X146449142Y-65873380D01*
X146521714Y-65921000D01*
X146558000Y-65968619D01*
X146594285Y-66063857D01*
X146630571Y-66254333D01*
X146630571Y-66492428D01*
X146594285Y-66682904D01*
X146558000Y-66778142D01*
X146521714Y-66825761D01*
X146449142Y-66873380D01*
X146376571Y-66873380D01*
X146304000Y-66825761D01*
X146267714Y-66778142D01*
X146231428Y-66682904D01*
X146195142Y-66492428D01*
X146195142Y-66254333D01*
X146231428Y-66063857D01*
X146267714Y-65968619D01*
X146304000Y-65921000D01*
X146376571Y-65873380D01*
X142457714Y-66349571D02*
X142566571Y-66397190D01*
X142602857Y-66444809D01*
X142639142Y-66540047D01*
X142639142Y-66682904D01*
X142602857Y-66778142D01*
X142566571Y-66825761D01*
X142494000Y-66873380D01*
X142203714Y-66873380D01*
X142203714Y-65873380D01*
X142457714Y-65873380D01*
X142530285Y-65921000D01*
X142566571Y-65968619D01*
X142602857Y-66063857D01*
X142602857Y-66159095D01*
X142566571Y-66254333D01*
X142530285Y-66301952D01*
X142457714Y-66349571D01*
X142203714Y-66349571D01*
X143364857Y-66873380D02*
X142929428Y-66873380D01*
X143147142Y-66873380D02*
X143147142Y-65873380D01*
X143074571Y-66016238D01*
X143002000Y-66111476D01*
X142929428Y-66159095D01*
X144090571Y-66873380D02*
X143655142Y-66873380D01*
X143872857Y-66873380D02*
X143872857Y-65873380D01*
X143800285Y-66016238D01*
X143727714Y-66111476D01*
X143655142Y-66159095D01*
X140898523Y-66873380D02*
X140565190Y-66397190D01*
X140327095Y-66873380D02*
X140327095Y-65873380D01*
X140708047Y-65873380D01*
X140803285Y-65921000D01*
X140850904Y-65968619D01*
X140898523Y-66063857D01*
X140898523Y-66206714D01*
X140850904Y-66301952D01*
X140803285Y-66349571D01*
X140708047Y-66397190D01*
X140327095Y-66397190D01*
X137001380Y-65873380D02*
X137620428Y-65873380D01*
X137287095Y-66254333D01*
X137429952Y-66254333D01*
X137525190Y-66301952D01*
X137572809Y-66349571D01*
X137620428Y-66444809D01*
X137620428Y-66682904D01*
X137572809Y-66778142D01*
X137525190Y-66825761D01*
X137429952Y-66873380D01*
X137144238Y-66873380D01*
X137049000Y-66825761D01*
X137001380Y-66778142D01*
X138049000Y-66778142D02*
X138096619Y-66825761D01*
X138049000Y-66873380D01*
X138001380Y-66825761D01*
X138049000Y-66778142D01*
X138049000Y-66873380D01*
X138429952Y-65873380D02*
X139049000Y-65873380D01*
X138715666Y-66254333D01*
X138858523Y-66254333D01*
X138953761Y-66301952D01*
X139001380Y-66349571D01*
X139049000Y-66444809D01*
X139049000Y-66682904D01*
X139001380Y-66778142D01*
X138953761Y-66825761D01*
X138858523Y-66873380D01*
X138572809Y-66873380D01*
X138477571Y-66825761D01*
X138429952Y-66778142D01*
X135770904Y-65921000D02*
X135675666Y-65873380D01*
X135532809Y-65873380D01*
X135389952Y-65921000D01*
X135294714Y-66016238D01*
X135247095Y-66111476D01*
X135199476Y-66301952D01*
X135199476Y-66444809D01*
X135247095Y-66635285D01*
X135294714Y-66730523D01*
X135389952Y-66825761D01*
X135532809Y-66873380D01*
X135628047Y-66873380D01*
X135770904Y-66825761D01*
X135818523Y-66778142D01*
X135818523Y-66444809D01*
X135628047Y-66444809D01*
X133230904Y-65921000D02*
X133135666Y-65873380D01*
X132992809Y-65873380D01*
X132849952Y-65921000D01*
X132754714Y-66016238D01*
X132707095Y-66111476D01*
X132659476Y-66301952D01*
X132659476Y-66444809D01*
X132707095Y-66635285D01*
X132754714Y-66730523D01*
X132849952Y-66825761D01*
X132992809Y-66873380D01*
X133088047Y-66873380D01*
X133230904Y-66825761D01*
X133278523Y-66778142D01*
X133278523Y-66444809D01*
X133088047Y-66444809D01*
M02*
