%TF.GenerationSoftware,KiCad,Pcbnew,5.1.6-c6e7f7d~86~ubuntu18.04.1*%
%TF.CreationDate,2020-06-09T18:52:52+02:00*%
%TF.ProjectId,c6021light,63363032-316c-4696-9768-742e6b696361,rev?*%
%TF.SameCoordinates,Original*%
%TF.FileFunction,Soldermask,Bot*%
%TF.FilePolarity,Negative*%
%FSLAX46Y46*%
G04 Gerber Fmt 4.6, Leading zero omitted, Abs format (unit mm)*
G04 Created by KiCad (PCBNEW 5.1.6-c6e7f7d~86~ubuntu18.04.1) date 2020-06-09 18:52:52*
%MOMM*%
%LPD*%
G01*
G04 APERTURE LIST*
%TA.AperFunction,Profile*%
%ADD10C,0.050000*%
%TD*%
%ADD11O,1.800000X1.800000*%
%ADD12R,1.800000X1.800000*%
%ADD13C,2.950000*%
%ADD14C,1.650000*%
%ADD15C,1.500000*%
%ADD16C,1.700000*%
%ADD17R,1.150000X1.600000*%
%ADD18O,1.150000X1.600000*%
%ADD19R,1.300000X2.000000*%
%ADD20O,1.300000X2.000000*%
%ADD21R,1.600000X2.000000*%
%ADD22C,1.550000*%
%ADD23R,0.500000X1.450000*%
%ADD24O,1.100000X1.100000*%
%ADD25R,1.100000X1.100000*%
%ADD26O,1.700000X1.700000*%
%ADD27O,2.299640X1.601140*%
%ADD28C,2.599360*%
%ADD29C,1.499540*%
%ADD30O,1.400000X3.100000*%
%ADD31C,2.098980*%
%ADD32R,1.620000X1.620000*%
%ADD33C,3.350000*%
%ADD34C,1.620000*%
%ADD35C,1.350000*%
%ADD36C,1.900000*%
%ADD37R,1.900000X1.900000*%
%ADD38O,2.100000X2.005000*%
%ADD39R,2.100000X2.005000*%
%ADD40O,2.005000X2.100000*%
%ADD41R,2.005000X2.100000*%
%ADD42R,1.850000X2.350000*%
%ADD43O,1.850000X2.350000*%
%ADD44O,1.298880X1.799260*%
%ADD45R,1.298880X1.799260*%
%ADD46O,2.098980X4.600880*%
%ADD47O,2.098980X4.100500*%
%ADD48O,4.100500X2.098980*%
%ADD49C,3.300000*%
G04 APERTURE END LIST*
D10*
X102000000Y-100000000D02*
G75*
G02*
X100000000Y-98000000I0J2000000D01*
G01*
X100000000Y-52000000D02*
G75*
G02*
X102000000Y-50000000I2000000J0D01*
G01*
X200000000Y-98000000D02*
G75*
G02*
X198000000Y-100000000I-2000000J0D01*
G01*
X198000000Y-50000000D02*
G75*
G02*
X200000000Y-52000000I0J-2000000D01*
G01*
X100000000Y-52000000D02*
X100000000Y-98000000D01*
X198000000Y-50000000D02*
X102000000Y-50000000D01*
X200000000Y-98000000D02*
X200000000Y-52000000D01*
X102000000Y-100000000D02*
X198000000Y-100000000D01*
D11*
%TO.C,J31*%
X187223400Y-59410600D03*
D12*
X187223400Y-56870600D03*
%TD*%
D11*
%TO.C,J32*%
X185978800Y-65278000D03*
D12*
X185978800Y-62738000D03*
%TD*%
D11*
%TO.C,J10*%
X197612000Y-91567000D03*
D12*
X195072000Y-91567000D03*
%TD*%
D11*
%TO.C,J7*%
X114808000Y-77470000D03*
D12*
X114808000Y-74930000D03*
%TD*%
D13*
%TO.C,J3*%
X122828000Y-91867000D03*
X172828000Y-91867000D03*
D14*
X128778000Y-91567000D03*
X131318000Y-91567000D03*
X133858000Y-91567000D03*
X136398000Y-91567000D03*
X138938000Y-91567000D03*
X141478000Y-91567000D03*
X144018000Y-91567000D03*
X146558000Y-91567000D03*
X149098000Y-91567000D03*
X151638000Y-91567000D03*
X154178000Y-91567000D03*
X156718000Y-91567000D03*
X159258000Y-91567000D03*
X161798000Y-91567000D03*
X164338000Y-91567000D03*
X166878000Y-91567000D03*
X128778000Y-94107000D03*
X131318000Y-94107000D03*
X133858000Y-94107000D03*
X136398000Y-94107000D03*
X138938000Y-94107000D03*
X141478000Y-94107000D03*
X144018000Y-94107000D03*
X146558000Y-94107000D03*
X149098000Y-94107000D03*
X151638000Y-94107000D03*
X154178000Y-94107000D03*
X156718000Y-94107000D03*
X159258000Y-94107000D03*
X161798000Y-94107000D03*
X164338000Y-94107000D03*
G36*
G01*
X167436872Y-94932000D02*
X166319128Y-94932000D01*
G75*
G02*
X166053000Y-94665872I0J266128D01*
G01*
X166053000Y-93548128D01*
G75*
G02*
X166319128Y-93282000I266128J0D01*
G01*
X167436872Y-93282000D01*
G75*
G02*
X167703000Y-93548128I0J-266128D01*
G01*
X167703000Y-94665872D01*
G75*
G02*
X167436872Y-94932000I-266128J0D01*
G01*
G37*
%TD*%
D15*
%TO.C,R15*%
X190347600Y-98780600D03*
X190347600Y-91160600D03*
%TD*%
%TO.C,R14*%
X188239400Y-98780600D03*
X188239400Y-91160600D03*
%TD*%
%TO.C,R13*%
X192481200Y-98755200D03*
X192481200Y-91135200D03*
%TD*%
D16*
%TO.C,C32*%
X155575000Y-76113000D03*
X155575000Y-78613000D03*
%TD*%
%TO.C,C8*%
X121524400Y-52476400D03*
X119024400Y-52476400D03*
%TD*%
%TO.C,C7*%
X127341000Y-62166500D03*
X124841000Y-62166500D03*
%TD*%
%TO.C,C6*%
X131826000Y-75017000D03*
X131826000Y-72517000D03*
%TD*%
%TO.C,C5*%
X127341000Y-74676000D03*
X124841000Y-74676000D03*
%TD*%
%TO.C,C4*%
X116078000Y-93766000D03*
X116078000Y-96266000D03*
%TD*%
%TO.C,C3*%
X116078000Y-90765000D03*
X116078000Y-88265000D03*
%TD*%
D11*
%TO.C,J11*%
X114960400Y-84759800D03*
D12*
X112420400Y-84759800D03*
%TD*%
%TO.C,U50*%
G36*
G01*
X172057400Y-56009800D02*
X172057400Y-56359800D01*
G75*
G02*
X171882400Y-56534800I-175000J0D01*
G01*
X170182400Y-56534800D01*
G75*
G02*
X170007400Y-56359800I0J175000D01*
G01*
X170007400Y-56009800D01*
G75*
G02*
X170182400Y-55834800I175000J0D01*
G01*
X171882400Y-55834800D01*
G75*
G02*
X172057400Y-56009800I0J-175000D01*
G01*
G37*
G36*
G01*
X172057400Y-57279800D02*
X172057400Y-57629800D01*
G75*
G02*
X171882400Y-57804800I-175000J0D01*
G01*
X170182400Y-57804800D01*
G75*
G02*
X170007400Y-57629800I0J175000D01*
G01*
X170007400Y-57279800D01*
G75*
G02*
X170182400Y-57104800I175000J0D01*
G01*
X171882400Y-57104800D01*
G75*
G02*
X172057400Y-57279800I0J-175000D01*
G01*
G37*
G36*
G01*
X172057400Y-58549800D02*
X172057400Y-58899800D01*
G75*
G02*
X171882400Y-59074800I-175000J0D01*
G01*
X170182400Y-59074800D01*
G75*
G02*
X170007400Y-58899800I0J175000D01*
G01*
X170007400Y-58549800D01*
G75*
G02*
X170182400Y-58374800I175000J0D01*
G01*
X171882400Y-58374800D01*
G75*
G02*
X172057400Y-58549800I0J-175000D01*
G01*
G37*
G36*
G01*
X172057400Y-59819800D02*
X172057400Y-60169800D01*
G75*
G02*
X171882400Y-60344800I-175000J0D01*
G01*
X170182400Y-60344800D01*
G75*
G02*
X170007400Y-60169800I0J175000D01*
G01*
X170007400Y-59819800D01*
G75*
G02*
X170182400Y-59644800I175000J0D01*
G01*
X171882400Y-59644800D01*
G75*
G02*
X172057400Y-59819800I0J-175000D01*
G01*
G37*
G36*
G01*
X172057400Y-61089800D02*
X172057400Y-61439800D01*
G75*
G02*
X171882400Y-61614800I-175000J0D01*
G01*
X170182400Y-61614800D01*
G75*
G02*
X170007400Y-61439800I0J175000D01*
G01*
X170007400Y-61089800D01*
G75*
G02*
X170182400Y-60914800I175000J0D01*
G01*
X171882400Y-60914800D01*
G75*
G02*
X172057400Y-61089800I0J-175000D01*
G01*
G37*
G36*
G01*
X172057400Y-62359800D02*
X172057400Y-62709800D01*
G75*
G02*
X171882400Y-62884800I-175000J0D01*
G01*
X170182400Y-62884800D01*
G75*
G02*
X170007400Y-62709800I0J175000D01*
G01*
X170007400Y-62359800D01*
G75*
G02*
X170182400Y-62184800I175000J0D01*
G01*
X171882400Y-62184800D01*
G75*
G02*
X172057400Y-62359800I0J-175000D01*
G01*
G37*
G36*
G01*
X172057400Y-63629800D02*
X172057400Y-63979800D01*
G75*
G02*
X171882400Y-64154800I-175000J0D01*
G01*
X170182400Y-64154800D01*
G75*
G02*
X170007400Y-63979800I0J175000D01*
G01*
X170007400Y-63629800D01*
G75*
G02*
X170182400Y-63454800I175000J0D01*
G01*
X171882400Y-63454800D01*
G75*
G02*
X172057400Y-63629800I0J-175000D01*
G01*
G37*
G36*
G01*
X172057400Y-64899800D02*
X172057400Y-65249800D01*
G75*
G02*
X171882400Y-65424800I-175000J0D01*
G01*
X170182400Y-65424800D01*
G75*
G02*
X170007400Y-65249800I0J175000D01*
G01*
X170007400Y-64899800D01*
G75*
G02*
X170182400Y-64724800I175000J0D01*
G01*
X171882400Y-64724800D01*
G75*
G02*
X172057400Y-64899800I0J-175000D01*
G01*
G37*
G36*
G01*
X177007400Y-64899800D02*
X177007400Y-65249800D01*
G75*
G02*
X176832400Y-65424800I-175000J0D01*
G01*
X175132400Y-65424800D01*
G75*
G02*
X174957400Y-65249800I0J175000D01*
G01*
X174957400Y-64899800D01*
G75*
G02*
X175132400Y-64724800I175000J0D01*
G01*
X176832400Y-64724800D01*
G75*
G02*
X177007400Y-64899800I0J-175000D01*
G01*
G37*
G36*
G01*
X177007400Y-63629800D02*
X177007400Y-63979800D01*
G75*
G02*
X176832400Y-64154800I-175000J0D01*
G01*
X175132400Y-64154800D01*
G75*
G02*
X174957400Y-63979800I0J175000D01*
G01*
X174957400Y-63629800D01*
G75*
G02*
X175132400Y-63454800I175000J0D01*
G01*
X176832400Y-63454800D01*
G75*
G02*
X177007400Y-63629800I0J-175000D01*
G01*
G37*
G36*
G01*
X177007400Y-62359800D02*
X177007400Y-62709800D01*
G75*
G02*
X176832400Y-62884800I-175000J0D01*
G01*
X175132400Y-62884800D01*
G75*
G02*
X174957400Y-62709800I0J175000D01*
G01*
X174957400Y-62359800D01*
G75*
G02*
X175132400Y-62184800I175000J0D01*
G01*
X176832400Y-62184800D01*
G75*
G02*
X177007400Y-62359800I0J-175000D01*
G01*
G37*
G36*
G01*
X177007400Y-61089800D02*
X177007400Y-61439800D01*
G75*
G02*
X176832400Y-61614800I-175000J0D01*
G01*
X175132400Y-61614800D01*
G75*
G02*
X174957400Y-61439800I0J175000D01*
G01*
X174957400Y-61089800D01*
G75*
G02*
X175132400Y-60914800I175000J0D01*
G01*
X176832400Y-60914800D01*
G75*
G02*
X177007400Y-61089800I0J-175000D01*
G01*
G37*
G36*
G01*
X177007400Y-59819800D02*
X177007400Y-60169800D01*
G75*
G02*
X176832400Y-60344800I-175000J0D01*
G01*
X175132400Y-60344800D01*
G75*
G02*
X174957400Y-60169800I0J175000D01*
G01*
X174957400Y-59819800D01*
G75*
G02*
X175132400Y-59644800I175000J0D01*
G01*
X176832400Y-59644800D01*
G75*
G02*
X177007400Y-59819800I0J-175000D01*
G01*
G37*
G36*
G01*
X177007400Y-58549800D02*
X177007400Y-58899800D01*
G75*
G02*
X176832400Y-59074800I-175000J0D01*
G01*
X175132400Y-59074800D01*
G75*
G02*
X174957400Y-58899800I0J175000D01*
G01*
X174957400Y-58549800D01*
G75*
G02*
X175132400Y-58374800I175000J0D01*
G01*
X176832400Y-58374800D01*
G75*
G02*
X177007400Y-58549800I0J-175000D01*
G01*
G37*
G36*
G01*
X177007400Y-57279800D02*
X177007400Y-57629800D01*
G75*
G02*
X176832400Y-57804800I-175000J0D01*
G01*
X175132400Y-57804800D01*
G75*
G02*
X174957400Y-57629800I0J175000D01*
G01*
X174957400Y-57279800D01*
G75*
G02*
X175132400Y-57104800I175000J0D01*
G01*
X176832400Y-57104800D01*
G75*
G02*
X177007400Y-57279800I0J-175000D01*
G01*
G37*
G36*
G01*
X177007400Y-56009800D02*
X177007400Y-56359800D01*
G75*
G02*
X176832400Y-56534800I-175000J0D01*
G01*
X175132400Y-56534800D01*
G75*
G02*
X174957400Y-56359800I0J175000D01*
G01*
X174957400Y-56009800D01*
G75*
G02*
X175132400Y-55834800I175000J0D01*
G01*
X176832400Y-55834800D01*
G75*
G02*
X177007400Y-56009800I0J-175000D01*
G01*
G37*
%TD*%
D15*
%TO.C,R42*%
X184289700Y-51574700D03*
X191909700Y-51574700D03*
%TD*%
%TO.C,R41*%
X184302400Y-53644800D03*
X191922400Y-53644800D03*
%TD*%
D17*
%TO.C,Q32*%
X190525400Y-59207400D03*
D18*
X193065400Y-59207400D03*
X191795400Y-59207400D03*
%TD*%
D17*
%TO.C,Q31*%
X195999100Y-59207400D03*
D18*
X198539100Y-59207400D03*
X197269100Y-59207400D03*
%TD*%
%TO.C,C50*%
G36*
G01*
X172218300Y-54938850D02*
X172218300Y-53976350D01*
G75*
G02*
X172487050Y-53707600I268750J0D01*
G01*
X173024550Y-53707600D01*
G75*
G02*
X173293300Y-53976350I0J-268750D01*
G01*
X173293300Y-54938850D01*
G75*
G02*
X173024550Y-55207600I-268750J0D01*
G01*
X172487050Y-55207600D01*
G75*
G02*
X172218300Y-54938850I0J268750D01*
G01*
G37*
G36*
G01*
X170343300Y-54938850D02*
X170343300Y-53976350D01*
G75*
G02*
X170612050Y-53707600I268750J0D01*
G01*
X171149550Y-53707600D01*
G75*
G02*
X171418300Y-53976350I0J-268750D01*
G01*
X171418300Y-54938850D01*
G75*
G02*
X171149550Y-55207600I-268750J0D01*
G01*
X170612050Y-55207600D01*
G75*
G02*
X170343300Y-54938850I0J268750D01*
G01*
G37*
%TD*%
D19*
%TO.C,J50*%
X175611200Y-51683400D03*
X181411200Y-51683400D03*
D20*
X182011200Y-51683400D03*
X175011200Y-51683400D03*
D21*
X177511200Y-51683400D03*
D22*
X181011200Y-54383400D03*
D23*
X178511200Y-54383400D03*
X179161200Y-54383400D03*
X179811200Y-54383400D03*
X177211200Y-54383400D03*
X177861200Y-54383400D03*
D22*
X176011200Y-54383400D03*
D21*
X179511200Y-51683400D03*
%TD*%
D24*
%TO.C,J51*%
X168338500Y-58115200D03*
X168338500Y-59385200D03*
X168338500Y-60655200D03*
X168338500Y-61925200D03*
X168338500Y-63195200D03*
D25*
X168338500Y-64465200D03*
%TD*%
D26*
%TO.C,R1*%
X125603000Y-81661000D03*
D16*
X117983000Y-81661000D03*
%TD*%
D26*
%TO.C,R2*%
X125603000Y-84709000D03*
D16*
X117983000Y-84709000D03*
%TD*%
D26*
%TO.C,R3*%
X164960300Y-56591200D03*
D16*
X164960300Y-64211200D03*
%TD*%
D26*
%TO.C,R11*%
X162306000Y-60452000D03*
D16*
X154686000Y-60452000D03*
%TD*%
D26*
%TO.C,R12*%
X162306000Y-63754000D03*
D16*
X154686000Y-63754000D03*
%TD*%
D26*
%TO.C,R31*%
X185191400Y-85191600D03*
D16*
X185191400Y-77571600D03*
%TD*%
D26*
%TO.C,R32*%
X143129000Y-73152000D03*
D16*
X143129000Y-80772000D03*
%TD*%
D26*
%TO.C,R33*%
X137033000Y-73152000D03*
D16*
X137033000Y-80772000D03*
%TD*%
D26*
%TO.C,R34*%
X140081000Y-73152000D03*
D16*
X140081000Y-80772000D03*
%TD*%
D26*
%TO.C,R35*%
X172593000Y-73533000D03*
D16*
X172593000Y-81153000D03*
%TD*%
D26*
%TO.C,R36*%
X149225000Y-80772000D03*
D16*
X149225000Y-73152000D03*
%TD*%
D26*
%TO.C,R37*%
X169291000Y-81153000D03*
D16*
X169291000Y-73533000D03*
%TD*%
D26*
%TO.C,R38*%
X146177000Y-80772000D03*
D16*
X146177000Y-73152000D03*
%TD*%
D26*
%TO.C,R39*%
X152273000Y-73152000D03*
D16*
X152273000Y-80772000D03*
%TD*%
D26*
%TO.C,R40*%
X175768000Y-73533000D03*
D16*
X175768000Y-81153000D03*
%TD*%
D26*
%TO.C,R5*%
X108204000Y-55753000D03*
D16*
X115824000Y-55753000D03*
%TD*%
D26*
%TO.C,R30*%
X185191400Y-75438000D03*
D16*
X185191400Y-67818000D03*
%TD*%
D27*
%TO.C,U10*%
X185039000Y-90297000D03*
X185039000Y-92837000D03*
X185039000Y-95377000D03*
X185039000Y-97917000D03*
X177419000Y-97917000D03*
X177419000Y-95377000D03*
X177419000Y-92837000D03*
X177419000Y-90297000D03*
%TD*%
D16*
%TO.C,C10*%
X182513600Y-87757000D03*
X185013600Y-87757000D03*
%TD*%
%TO.C,C31*%
X182332000Y-75387200D03*
X179832000Y-75387200D03*
%TD*%
%TO.C,C30*%
X179821200Y-73202800D03*
X182321200Y-73202800D03*
%TD*%
D28*
%TO.C,J8*%
X105537000Y-73787000D03*
X105537000Y-58293000D03*
D29*
X111379000Y-70485000D03*
X108839000Y-69215000D03*
X111379000Y-67945000D03*
X108839000Y-66675000D03*
X111379000Y-65405000D03*
X111379000Y-62865000D03*
X108839000Y-61595000D03*
X108839000Y-64135000D03*
%TD*%
D16*
%TO.C,C2*%
X107863000Y-76200000D03*
X110363000Y-76200000D03*
%TD*%
%TO.C,C1*%
X101600000Y-76200000D03*
X104100000Y-76200000D03*
%TD*%
D30*
%TO.C,BP1*%
X132969000Y-69207380D03*
X132969000Y-84455000D03*
X135509000Y-69207380D03*
X135509000Y-84455000D03*
X138049000Y-69215000D03*
X138049000Y-84447380D03*
X140589000Y-69215000D03*
X140589000Y-84455000D03*
X143129000Y-69215000D03*
X143129000Y-84455000D03*
X145669000Y-69215000D03*
X145669000Y-84455000D03*
X148209000Y-69215000D03*
X148209000Y-84455000D03*
X150749000Y-69215000D03*
X150749000Y-84455000D03*
X153289000Y-69207380D03*
X153289000Y-84455000D03*
X155829000Y-69215000D03*
X155829000Y-84455000D03*
X158369000Y-69215000D03*
X158369000Y-84455000D03*
X160909000Y-69215000D03*
X160909000Y-84455000D03*
X163449000Y-69215000D03*
X163449000Y-84447380D03*
X165989000Y-69215000D03*
X165989000Y-84455000D03*
X168529000Y-69215000D03*
X168529000Y-84455000D03*
X171069000Y-69215000D03*
X171069000Y-84455000D03*
X173609000Y-69215000D03*
X173609000Y-84455000D03*
X176149000Y-69207380D03*
X176149000Y-84455000D03*
X178689000Y-69215000D03*
X178689000Y-84455000D03*
X181229000Y-69215000D03*
X181229000Y-84455000D03*
%TD*%
D11*
%TO.C,J4*%
X128524000Y-83820000D03*
D12*
X128524000Y-86360000D03*
%TD*%
D31*
%TO.C,SW1*%
X140030200Y-56606440D03*
X133527800Y-52105560D03*
X140030200Y-52105560D03*
X133527800Y-56606440D03*
%TD*%
D11*
%TO.C,J2*%
X148526500Y-54356000D03*
X151066500Y-54356000D03*
X148526500Y-56896000D03*
X151066500Y-56896000D03*
X148526500Y-59436000D03*
X151066500Y-59436000D03*
X148526500Y-61976000D03*
D12*
X151066500Y-61976000D03*
%TD*%
D16*
%TO.C,TP2*%
X110998000Y-87376000D03*
%TD*%
%TO.C,TP1*%
X101219000Y-80772000D03*
%TD*%
D11*
%TO.C,J52*%
X170865800Y-51790600D03*
X168325800Y-51790600D03*
X165785800Y-51790600D03*
X163245800Y-51790600D03*
X160705800Y-51790600D03*
D12*
X158165800Y-51790600D03*
%TD*%
D32*
%TO.C,J30*%
X188468000Y-71628000D03*
D33*
X197358000Y-73538000D03*
D34*
X191008000Y-70358000D03*
X188468000Y-69088000D03*
X191008000Y-67818000D03*
X188468000Y-66548000D03*
X191008000Y-65278000D03*
D33*
X197358000Y-63378000D03*
%TD*%
D35*
%TO.C,R4*%
X122810000Y-62103000D03*
X115190000Y-62103000D03*
%TD*%
%TO.C,C51*%
G36*
G01*
X167671800Y-54878050D02*
X167671800Y-55840550D01*
G75*
G02*
X167403050Y-56109300I-268750J0D01*
G01*
X166865550Y-56109300D01*
G75*
G02*
X166596800Y-55840550I0J268750D01*
G01*
X166596800Y-54878050D01*
G75*
G02*
X166865550Y-54609300I268750J0D01*
G01*
X167403050Y-54609300D01*
G75*
G02*
X167671800Y-54878050I0J-268750D01*
G01*
G37*
G36*
G01*
X169546800Y-54878050D02*
X169546800Y-55840550D01*
G75*
G02*
X169278050Y-56109300I-268750J0D01*
G01*
X168740550Y-56109300D01*
G75*
G02*
X168471800Y-55840550I0J268750D01*
G01*
X168471800Y-54878050D01*
G75*
G02*
X168740550Y-54609300I268750J0D01*
G01*
X169278050Y-54609300D01*
G75*
G02*
X169546800Y-54878050I0J-268750D01*
G01*
G37*
%TD*%
D11*
%TO.C,JP1*%
X144018000Y-56007000D03*
D12*
X144018000Y-53467000D03*
%TD*%
D11*
%TO.C,JP2*%
X144018000Y-62230000D03*
D12*
X144018000Y-59690000D03*
%TD*%
D36*
%TO.C,D21*%
X183705500Y-59385200D03*
D37*
X181165500Y-59385200D03*
%TD*%
D36*
%TO.C,D20*%
X183705500Y-63931800D03*
D37*
X181165500Y-63931800D03*
%TD*%
D36*
%TO.C,D1*%
X161886900Y-56134000D03*
D37*
X159346900Y-56134000D03*
%TD*%
%TO.C,C52*%
G36*
G01*
X178029950Y-63724500D02*
X178992450Y-63724500D01*
G75*
G02*
X179261200Y-63993250I0J-268750D01*
G01*
X179261200Y-64530750D01*
G75*
G02*
X178992450Y-64799500I-268750J0D01*
G01*
X178029950Y-64799500D01*
G75*
G02*
X177761200Y-64530750I0J268750D01*
G01*
X177761200Y-63993250D01*
G75*
G02*
X178029950Y-63724500I268750J0D01*
G01*
G37*
G36*
G01*
X178029950Y-61849500D02*
X178992450Y-61849500D01*
G75*
G02*
X179261200Y-62118250I0J-268750D01*
G01*
X179261200Y-62655750D01*
G75*
G02*
X178992450Y-62924500I-268750J0D01*
G01*
X178029950Y-62924500D01*
G75*
G02*
X177761200Y-62655750I0J268750D01*
G01*
X177761200Y-62118250D01*
G75*
G02*
X178029950Y-61849500I268750J0D01*
G01*
G37*
%TD*%
D27*
%TO.C,U30*%
X166243000Y-73533000D03*
X166243000Y-76073000D03*
X166243000Y-78613000D03*
X166243000Y-81153000D03*
X158623000Y-81153000D03*
X158623000Y-78613000D03*
X158623000Y-76073000D03*
X158623000Y-73533000D03*
%TD*%
%TO.C,U3*%
X120777000Y-72009000D03*
X120777000Y-69469000D03*
X120777000Y-66929000D03*
X120777000Y-64389000D03*
X128397000Y-64389000D03*
X128397000Y-66929000D03*
X128397000Y-69469000D03*
X128397000Y-72009000D03*
%TD*%
D38*
%TO.C,U2*%
X110998000Y-94996000D03*
X110998000Y-92456000D03*
D39*
X110998000Y-89916000D03*
%TD*%
D40*
%TO.C,U1*%
X108839000Y-80772000D03*
X106299000Y-80772000D03*
D41*
X103759000Y-80772000D03*
%TD*%
%TO.C,R51*%
G36*
G01*
X179346456Y-57377500D02*
X178031544Y-57377500D01*
G75*
G02*
X177764000Y-57109956I0J267544D01*
G01*
X177764000Y-56120044D01*
G75*
G02*
X178031544Y-55852500I267544J0D01*
G01*
X179346456Y-55852500D01*
G75*
G02*
X179614000Y-56120044I0J-267544D01*
G01*
X179614000Y-57109956D01*
G75*
G02*
X179346456Y-57377500I-267544J0D01*
G01*
G37*
G36*
G01*
X179346456Y-60352500D02*
X178031544Y-60352500D01*
G75*
G02*
X177764000Y-60084956I0J267544D01*
G01*
X177764000Y-59095044D01*
G75*
G02*
X178031544Y-58827500I267544J0D01*
G01*
X179346456Y-58827500D01*
G75*
G02*
X179614000Y-59095044I0J-267544D01*
G01*
X179614000Y-60084956D01*
G75*
G02*
X179346456Y-60352500I-267544J0D01*
G01*
G37*
%TD*%
%TO.C,R50*%
G36*
G01*
X181913700Y-55933744D02*
X181913700Y-57248656D01*
G75*
G02*
X181646156Y-57516200I-267544J0D01*
G01*
X180656244Y-57516200D01*
G75*
G02*
X180388700Y-57248656I0J267544D01*
G01*
X180388700Y-55933744D01*
G75*
G02*
X180656244Y-55666200I267544J0D01*
G01*
X181646156Y-55666200D01*
G75*
G02*
X181913700Y-55933744I0J-267544D01*
G01*
G37*
G36*
G01*
X184888700Y-55933744D02*
X184888700Y-57248656D01*
G75*
G02*
X184621156Y-57516200I-267544J0D01*
G01*
X183631244Y-57516200D01*
G75*
G02*
X183363700Y-57248656I0J267544D01*
G01*
X183363700Y-55933744D01*
G75*
G02*
X183631244Y-55666200I267544J0D01*
G01*
X184621156Y-55666200D01*
G75*
G02*
X184888700Y-55933744I0J-267544D01*
G01*
G37*
%TD*%
D17*
%TO.C,Q30*%
X179679600Y-80645000D03*
D18*
X182219600Y-80645000D03*
X180949600Y-80645000D03*
%TD*%
D42*
%TO.C,PS1*%
X126619000Y-55372000D03*
D43*
X124079000Y-55372000D03*
X121539000Y-55372000D03*
X118999000Y-55372000D03*
%TD*%
D32*
%TO.C,J12*%
X188468000Y-86106000D03*
D33*
X197358000Y-88016000D03*
D34*
X191008000Y-84836000D03*
X188468000Y-83566000D03*
X191008000Y-82296000D03*
X188468000Y-81026000D03*
X191008000Y-79756000D03*
D33*
X197358000Y-77856000D03*
%TD*%
D11*
%TO.C,J6*%
X115798600Y-51993800D03*
D12*
X113258600Y-51993800D03*
%TD*%
D44*
%TO.C,J5*%
X139270740Y-61849000D03*
X135270240Y-61849000D03*
X137271760Y-61849000D03*
D45*
X133268720Y-61849000D03*
%TD*%
D46*
%TO.C,J1*%
X107977940Y-86614000D03*
D47*
X101975920Y-86614000D03*
D48*
X105227120Y-91914980D03*
%TD*%
D49*
%TO.C,REF\u002A\u002A*%
X196000000Y-96000000D03*
%TD*%
%TO.C,REF\u002A\u002A*%
X196000000Y-54000000D03*
%TD*%
%TO.C,REF\u002A\u002A*%
X104000000Y-54000000D03*
%TD*%
%TO.C,REF\u002A\u002A*%
X104000000Y-96000000D03*
%TD*%
M02*
