G04 #@! TF.GenerationSoftware,KiCad,Pcbnew,5.1.6-c6e7f7d~87~ubuntu18.04.1*
G04 #@! TF.CreationDate,2020-08-16T14:47:30+02:00*
G04 #@! TF.ProjectId,c6021light,63363032-316c-4696-9768-742e6b696361,rev?*
G04 #@! TF.SameCoordinates,Original*
G04 #@! TF.FileFunction,Legend,Bot*
G04 #@! TF.FilePolarity,Positive*
%FSLAX46Y46*%
G04 Gerber Fmt 4.6, Leading zero omitted, Abs format (unit mm)*
G04 Created by KiCad (PCBNEW 5.1.6-c6e7f7d~87~ubuntu18.04.1) date 2020-08-16 14:47:30*
%MOMM*%
%LPD*%
G01*
G04 APERTURE LIST*
%ADD10C,0.200000*%
G04 #@! TA.AperFunction,Profile*
%ADD11C,0.050000*%
G04 #@! TD*
%ADD12C,0.120000*%
G04 APERTURE END LIST*
D10*
X194381380Y-66008523D02*
X194381380Y-65532333D01*
X193381380Y-65532333D01*
X194381380Y-66484714D02*
X194333761Y-66389476D01*
X194286142Y-66341857D01*
X194190904Y-66294238D01*
X193905190Y-66294238D01*
X193809952Y-66341857D01*
X193762333Y-66389476D01*
X193714714Y-66484714D01*
X193714714Y-66627571D01*
X193762333Y-66722809D01*
X193809952Y-66770428D01*
X193905190Y-66818047D01*
X194190904Y-66818047D01*
X194286142Y-66770428D01*
X194333761Y-66722809D01*
X194381380Y-66627571D01*
X194381380Y-66484714D01*
X194333761Y-67675190D02*
X194381380Y-67579952D01*
X194381380Y-67389476D01*
X194333761Y-67294238D01*
X194286142Y-67246619D01*
X194190904Y-67199000D01*
X193905190Y-67199000D01*
X193809952Y-67246619D01*
X193762333Y-67294238D01*
X193714714Y-67389476D01*
X193714714Y-67579952D01*
X193762333Y-67675190D01*
X194381380Y-68246619D02*
X194333761Y-68151380D01*
X194286142Y-68103761D01*
X194190904Y-68056142D01*
X193905190Y-68056142D01*
X193809952Y-68103761D01*
X193762333Y-68151380D01*
X193714714Y-68246619D01*
X193714714Y-68389476D01*
X193762333Y-68484714D01*
X193809952Y-68532333D01*
X193905190Y-68579952D01*
X194190904Y-68579952D01*
X194286142Y-68532333D01*
X194333761Y-68484714D01*
X194381380Y-68389476D01*
X194381380Y-68246619D01*
X193714714Y-69008523D02*
X194381380Y-69008523D01*
X193809952Y-69008523D02*
X193762333Y-69056142D01*
X193714714Y-69151380D01*
X193714714Y-69294238D01*
X193762333Y-69389476D01*
X193857571Y-69437095D01*
X194381380Y-69437095D01*
X194333761Y-70294238D02*
X194381380Y-70199000D01*
X194381380Y-70008523D01*
X194333761Y-69913285D01*
X194238523Y-69865666D01*
X193857571Y-69865666D01*
X193762333Y-69913285D01*
X193714714Y-70008523D01*
X193714714Y-70199000D01*
X193762333Y-70294238D01*
X193857571Y-70341857D01*
X193952809Y-70341857D01*
X194048047Y-69865666D01*
X193714714Y-70627571D02*
X193714714Y-71008523D01*
X193381380Y-70770428D02*
X194238523Y-70770428D01*
X194333761Y-70818047D01*
X194381380Y-70913285D01*
X194381380Y-71008523D01*
X193531380Y-81335761D02*
X193055190Y-81002428D01*
X193531380Y-80764333D02*
X192531380Y-80764333D01*
X192531380Y-81145285D01*
X192579000Y-81240523D01*
X192626619Y-81288142D01*
X192721857Y-81335761D01*
X192864714Y-81335761D01*
X192959952Y-81288142D01*
X193007571Y-81240523D01*
X193055190Y-81145285D01*
X193055190Y-80764333D01*
X193483761Y-81716714D02*
X193531380Y-81859571D01*
X193531380Y-82097666D01*
X193483761Y-82192904D01*
X193436142Y-82240523D01*
X193340904Y-82288142D01*
X193245666Y-82288142D01*
X193150428Y-82240523D01*
X193102809Y-82192904D01*
X193055190Y-82097666D01*
X193007571Y-81907190D01*
X192959952Y-81811952D01*
X192912333Y-81764333D01*
X192817095Y-81716714D01*
X192721857Y-81716714D01*
X192626619Y-81764333D01*
X192579000Y-81811952D01*
X192531380Y-81907190D01*
X192531380Y-82145285D01*
X192579000Y-82288142D01*
X192864714Y-83145285D02*
X193531380Y-83145285D01*
X192483761Y-82907190D02*
X193198047Y-82669095D01*
X193198047Y-83288142D01*
X192959952Y-83811952D02*
X192912333Y-83716714D01*
X192864714Y-83669095D01*
X192769476Y-83621476D01*
X192721857Y-83621476D01*
X192626619Y-83669095D01*
X192579000Y-83716714D01*
X192531380Y-83811952D01*
X192531380Y-84002428D01*
X192579000Y-84097666D01*
X192626619Y-84145285D01*
X192721857Y-84192904D01*
X192769476Y-84192904D01*
X192864714Y-84145285D01*
X192912333Y-84097666D01*
X192959952Y-84002428D01*
X192959952Y-83811952D01*
X193007571Y-83716714D01*
X193055190Y-83669095D01*
X193150428Y-83621476D01*
X193340904Y-83621476D01*
X193436142Y-83669095D01*
X193483761Y-83716714D01*
X193531380Y-83811952D01*
X193531380Y-84002428D01*
X193483761Y-84097666D01*
X193436142Y-84145285D01*
X193340904Y-84192904D01*
X193150428Y-84192904D01*
X193055190Y-84145285D01*
X193007571Y-84097666D01*
X192959952Y-84002428D01*
X192531380Y-85097666D02*
X192531380Y-84621476D01*
X193007571Y-84573857D01*
X192959952Y-84621476D01*
X192912333Y-84716714D01*
X192912333Y-84954809D01*
X192959952Y-85050047D01*
X193007571Y-85097666D01*
X193102809Y-85145285D01*
X193340904Y-85145285D01*
X193436142Y-85097666D01*
X193483761Y-85050047D01*
X193531380Y-84954809D01*
X193531380Y-84716714D01*
X193483761Y-84621476D01*
X193436142Y-84573857D01*
X194231380Y-79431000D02*
X195231380Y-80097666D01*
X194231380Y-80097666D02*
X195231380Y-79431000D01*
X194564714Y-80478619D02*
X195564714Y-80478619D01*
X194612333Y-80478619D02*
X194564714Y-80573857D01*
X194564714Y-80764333D01*
X194612333Y-80859571D01*
X194659952Y-80907190D01*
X194755190Y-80954809D01*
X195040904Y-80954809D01*
X195136142Y-80907190D01*
X195183761Y-80859571D01*
X195231380Y-80764333D01*
X195231380Y-80573857D01*
X195183761Y-80478619D01*
X195231380Y-81383380D02*
X194564714Y-81383380D01*
X194755190Y-81383380D02*
X194659952Y-81431000D01*
X194612333Y-81478619D01*
X194564714Y-81573857D01*
X194564714Y-81669095D01*
X195183761Y-82383380D02*
X195231380Y-82288142D01*
X195231380Y-82097666D01*
X195183761Y-82002428D01*
X195088523Y-81954809D01*
X194707571Y-81954809D01*
X194612333Y-82002428D01*
X194564714Y-82097666D01*
X194564714Y-82288142D01*
X194612333Y-82383380D01*
X194707571Y-82431000D01*
X194802809Y-82431000D01*
X194898047Y-81954809D01*
X195183761Y-82811952D02*
X195231380Y-82907190D01*
X195231380Y-83097666D01*
X195183761Y-83192904D01*
X195088523Y-83240523D01*
X195040904Y-83240523D01*
X194945666Y-83192904D01*
X194898047Y-83097666D01*
X194898047Y-82954809D01*
X194850428Y-82859571D01*
X194755190Y-82811952D01*
X194707571Y-82811952D01*
X194612333Y-82859571D01*
X194564714Y-82954809D01*
X194564714Y-83097666D01*
X194612333Y-83192904D01*
X195183761Y-83621476D02*
X195231380Y-83716714D01*
X195231380Y-83907190D01*
X195183761Y-84002428D01*
X195088523Y-84050047D01*
X195040904Y-84050047D01*
X194945666Y-84002428D01*
X194898047Y-83907190D01*
X194898047Y-83764333D01*
X194850428Y-83669095D01*
X194755190Y-83621476D01*
X194707571Y-83621476D01*
X194612333Y-83669095D01*
X194564714Y-83764333D01*
X194564714Y-83907190D01*
X194612333Y-84002428D01*
X194564714Y-84478619D02*
X195231380Y-84478619D01*
X194659952Y-84478619D02*
X194612333Y-84526238D01*
X194564714Y-84621476D01*
X194564714Y-84764333D01*
X194612333Y-84859571D01*
X194707571Y-84907190D01*
X195231380Y-84907190D01*
X195183761Y-85764333D02*
X195231380Y-85669095D01*
X195231380Y-85478619D01*
X195183761Y-85383380D01*
X195088523Y-85335761D01*
X194707571Y-85335761D01*
X194612333Y-85383380D01*
X194564714Y-85478619D01*
X194564714Y-85669095D01*
X194612333Y-85764333D01*
X194707571Y-85811952D01*
X194802809Y-85811952D01*
X194898047Y-85335761D01*
X194564714Y-86097666D02*
X194564714Y-86478619D01*
X194231380Y-86240523D02*
X195088523Y-86240523D01*
X195183761Y-86288142D01*
X195231380Y-86383380D01*
X195231380Y-86478619D01*
D11*
X102000000Y-100000000D02*
G75*
G02*
X100000000Y-98000000I0J2000000D01*
G01*
X100000000Y-52000000D02*
G75*
G02*
X102000000Y-50000000I2000000J0D01*
G01*
X200000000Y-98000000D02*
G75*
G02*
X198000000Y-100000000I-2000000J0D01*
G01*
X198000000Y-50000000D02*
G75*
G02*
X200000000Y-52000000I0J-2000000D01*
G01*
X100000000Y-52000000D02*
X100000000Y-98000000D01*
X198000000Y-50000000D02*
X102000000Y-50000000D01*
X200000000Y-98000000D02*
X200000000Y-52000000D01*
X102000000Y-100000000D02*
X198000000Y-100000000D01*
D12*
X172466000Y-55519000D02*
X175916000Y-55519000D01*
X172466000Y-55519000D02*
X170516000Y-55519000D01*
X172466000Y-65639000D02*
X174416000Y-65639000D01*
X172466000Y-65639000D02*
X170516000Y-65639000D01*
X125628000Y-96030000D02*
X170028000Y-96030000D01*
X125628000Y-93030000D02*
X125628000Y-96030000D01*
X126628000Y-93030000D02*
X125628000Y-93030000D01*
X126628000Y-90030000D02*
X126628000Y-93030000D01*
X169028000Y-90030000D02*
X126628000Y-90030000D01*
X169028000Y-93030000D02*
X169028000Y-90030000D01*
X170028000Y-93030000D02*
X169028000Y-93030000D01*
X170028000Y-96030000D02*
X170028000Y-93030000D01*
X166578000Y-98060000D02*
X166878000Y-97380000D01*
X167178000Y-98060000D02*
X166578000Y-98060000D01*
X166878000Y-97380000D02*
X167178000Y-98060000D01*
X120218000Y-97190000D02*
X175438000Y-97190000D01*
X120218000Y-88870000D02*
X120218000Y-97190000D01*
X175438000Y-88870000D02*
X120218000Y-88870000D01*
X175438000Y-97190000D02*
X175438000Y-88870000D01*
X170810422Y-53265000D02*
X171327578Y-53265000D01*
X170810422Y-54685000D02*
X171327578Y-54685000D01*
X176811200Y-55144500D02*
X176811200Y-54694500D01*
X176811200Y-55144500D02*
X177261200Y-55144500D01*
X182411200Y-54594500D02*
X181961200Y-54594500D01*
X182411200Y-52744500D02*
X182411200Y-54594500D01*
X174611200Y-50194500D02*
X174611200Y-50444500D01*
X182411200Y-50194500D02*
X182411200Y-50444500D01*
X174611200Y-52744500D02*
X174611200Y-54594500D01*
X174611200Y-54594500D02*
X175061200Y-54594500D01*
X167263578Y-55574000D02*
X166746422Y-55574000D01*
X167263578Y-54154000D02*
X166746422Y-54154000D01*
X177900400Y-60673722D02*
X177900400Y-61190878D01*
X176480400Y-60673722D02*
X176480400Y-61190878D01*
M02*
