G04 #@! TF.GenerationSoftware,KiCad,Pcbnew,5.1.6-c6e7f7d~87~ubuntu18.04.1*
G04 #@! TF.CreationDate,2020-08-16T14:47:30+02:00*
G04 #@! TF.ProjectId,c6021light,63363032-316c-4696-9768-742e6b696361,rev?*
G04 #@! TF.SameCoordinates,Original*
G04 #@! TF.FileFunction,Soldermask,Bot*
G04 #@! TF.FilePolarity,Negative*
%FSLAX46Y46*%
G04 Gerber Fmt 4.6, Leading zero omitted, Abs format (unit mm)*
G04 Created by KiCad (PCBNEW 5.1.6-c6e7f7d~87~ubuntu18.04.1) date 2020-08-16 14:47:30*
%MOMM*%
%LPD*%
G01*
G04 APERTURE LIST*
G04 #@! TA.AperFunction,Profile*
%ADD10C,0.050000*%
G04 #@! TD*
%ADD11C,2.950000*%
%ADD12C,1.650000*%
%ADD13O,1.800000X1.800000*%
%ADD14R,1.800000X1.800000*%
%ADD15C,1.500000*%
%ADD16C,1.700000*%
%ADD17R,1.150000X1.600000*%
%ADD18O,1.150000X1.600000*%
%ADD19R,1.300000X2.000000*%
%ADD20O,1.300000X2.000000*%
%ADD21R,1.600000X2.000000*%
%ADD22C,1.550000*%
%ADD23R,0.500000X1.450000*%
%ADD24O,1.100000X1.100000*%
%ADD25R,1.100000X1.100000*%
%ADD26O,1.700000X1.700000*%
%ADD27O,2.299640X1.601140*%
%ADD28C,2.599360*%
%ADD29C,1.499540*%
%ADD30O,1.400000X3.100000*%
%ADD31C,2.098980*%
%ADD32R,1.620000X1.620000*%
%ADD33C,3.350000*%
%ADD34C,1.620000*%
%ADD35C,1.350000*%
%ADD36C,1.900000*%
%ADD37R,1.900000X1.900000*%
%ADD38O,2.100000X2.005000*%
%ADD39R,2.100000X2.005000*%
%ADD40O,2.005000X2.100000*%
%ADD41R,2.005000X2.100000*%
%ADD42R,1.850000X2.350000*%
%ADD43O,1.850000X2.350000*%
%ADD44O,1.298880X1.799260*%
%ADD45R,1.298880X1.799260*%
%ADD46O,2.098980X4.600880*%
%ADD47O,2.098980X4.100500*%
%ADD48O,4.100500X2.098980*%
%ADD49C,3.300000*%
G04 APERTURE END LIST*
D10*
X102000000Y-100000000D02*
G75*
G02*
X100000000Y-98000000I0J2000000D01*
G01*
X100000000Y-52000000D02*
G75*
G02*
X102000000Y-50000000I2000000J0D01*
G01*
X200000000Y-98000000D02*
G75*
G02*
X198000000Y-100000000I-2000000J0D01*
G01*
X198000000Y-50000000D02*
G75*
G02*
X200000000Y-52000000I0J-2000000D01*
G01*
X100000000Y-52000000D02*
X100000000Y-98000000D01*
X198000000Y-50000000D02*
X102000000Y-50000000D01*
X200000000Y-98000000D02*
X200000000Y-52000000D01*
X102000000Y-100000000D02*
X198000000Y-100000000D01*
G36*
G01*
X171016000Y-55959000D02*
X171016000Y-56309000D01*
G75*
G02*
X170841000Y-56484000I-175000J0D01*
G01*
X169141000Y-56484000D01*
G75*
G02*
X168966000Y-56309000I0J175000D01*
G01*
X168966000Y-55959000D01*
G75*
G02*
X169141000Y-55784000I175000J0D01*
G01*
X170841000Y-55784000D01*
G75*
G02*
X171016000Y-55959000I0J-175000D01*
G01*
G37*
G36*
G01*
X171016000Y-57229000D02*
X171016000Y-57579000D01*
G75*
G02*
X170841000Y-57754000I-175000J0D01*
G01*
X169141000Y-57754000D01*
G75*
G02*
X168966000Y-57579000I0J175000D01*
G01*
X168966000Y-57229000D01*
G75*
G02*
X169141000Y-57054000I175000J0D01*
G01*
X170841000Y-57054000D01*
G75*
G02*
X171016000Y-57229000I0J-175000D01*
G01*
G37*
G36*
G01*
X171016000Y-58499000D02*
X171016000Y-58849000D01*
G75*
G02*
X170841000Y-59024000I-175000J0D01*
G01*
X169141000Y-59024000D01*
G75*
G02*
X168966000Y-58849000I0J175000D01*
G01*
X168966000Y-58499000D01*
G75*
G02*
X169141000Y-58324000I175000J0D01*
G01*
X170841000Y-58324000D01*
G75*
G02*
X171016000Y-58499000I0J-175000D01*
G01*
G37*
G36*
G01*
X171016000Y-59769000D02*
X171016000Y-60119000D01*
G75*
G02*
X170841000Y-60294000I-175000J0D01*
G01*
X169141000Y-60294000D01*
G75*
G02*
X168966000Y-60119000I0J175000D01*
G01*
X168966000Y-59769000D01*
G75*
G02*
X169141000Y-59594000I175000J0D01*
G01*
X170841000Y-59594000D01*
G75*
G02*
X171016000Y-59769000I0J-175000D01*
G01*
G37*
G36*
G01*
X171016000Y-61039000D02*
X171016000Y-61389000D01*
G75*
G02*
X170841000Y-61564000I-175000J0D01*
G01*
X169141000Y-61564000D01*
G75*
G02*
X168966000Y-61389000I0J175000D01*
G01*
X168966000Y-61039000D01*
G75*
G02*
X169141000Y-60864000I175000J0D01*
G01*
X170841000Y-60864000D01*
G75*
G02*
X171016000Y-61039000I0J-175000D01*
G01*
G37*
G36*
G01*
X171016000Y-62309000D02*
X171016000Y-62659000D01*
G75*
G02*
X170841000Y-62834000I-175000J0D01*
G01*
X169141000Y-62834000D01*
G75*
G02*
X168966000Y-62659000I0J175000D01*
G01*
X168966000Y-62309000D01*
G75*
G02*
X169141000Y-62134000I175000J0D01*
G01*
X170841000Y-62134000D01*
G75*
G02*
X171016000Y-62309000I0J-175000D01*
G01*
G37*
G36*
G01*
X171016000Y-63579000D02*
X171016000Y-63929000D01*
G75*
G02*
X170841000Y-64104000I-175000J0D01*
G01*
X169141000Y-64104000D01*
G75*
G02*
X168966000Y-63929000I0J175000D01*
G01*
X168966000Y-63579000D01*
G75*
G02*
X169141000Y-63404000I175000J0D01*
G01*
X170841000Y-63404000D01*
G75*
G02*
X171016000Y-63579000I0J-175000D01*
G01*
G37*
G36*
G01*
X171016000Y-64849000D02*
X171016000Y-65199000D01*
G75*
G02*
X170841000Y-65374000I-175000J0D01*
G01*
X169141000Y-65374000D01*
G75*
G02*
X168966000Y-65199000I0J175000D01*
G01*
X168966000Y-64849000D01*
G75*
G02*
X169141000Y-64674000I175000J0D01*
G01*
X170841000Y-64674000D01*
G75*
G02*
X171016000Y-64849000I0J-175000D01*
G01*
G37*
G36*
G01*
X175966000Y-64849000D02*
X175966000Y-65199000D01*
G75*
G02*
X175791000Y-65374000I-175000J0D01*
G01*
X174091000Y-65374000D01*
G75*
G02*
X173916000Y-65199000I0J175000D01*
G01*
X173916000Y-64849000D01*
G75*
G02*
X174091000Y-64674000I175000J0D01*
G01*
X175791000Y-64674000D01*
G75*
G02*
X175966000Y-64849000I0J-175000D01*
G01*
G37*
G36*
G01*
X175966000Y-63579000D02*
X175966000Y-63929000D01*
G75*
G02*
X175791000Y-64104000I-175000J0D01*
G01*
X174091000Y-64104000D01*
G75*
G02*
X173916000Y-63929000I0J175000D01*
G01*
X173916000Y-63579000D01*
G75*
G02*
X174091000Y-63404000I175000J0D01*
G01*
X175791000Y-63404000D01*
G75*
G02*
X175966000Y-63579000I0J-175000D01*
G01*
G37*
G36*
G01*
X175966000Y-62309000D02*
X175966000Y-62659000D01*
G75*
G02*
X175791000Y-62834000I-175000J0D01*
G01*
X174091000Y-62834000D01*
G75*
G02*
X173916000Y-62659000I0J175000D01*
G01*
X173916000Y-62309000D01*
G75*
G02*
X174091000Y-62134000I175000J0D01*
G01*
X175791000Y-62134000D01*
G75*
G02*
X175966000Y-62309000I0J-175000D01*
G01*
G37*
G36*
G01*
X175966000Y-61039000D02*
X175966000Y-61389000D01*
G75*
G02*
X175791000Y-61564000I-175000J0D01*
G01*
X174091000Y-61564000D01*
G75*
G02*
X173916000Y-61389000I0J175000D01*
G01*
X173916000Y-61039000D01*
G75*
G02*
X174091000Y-60864000I175000J0D01*
G01*
X175791000Y-60864000D01*
G75*
G02*
X175966000Y-61039000I0J-175000D01*
G01*
G37*
G36*
G01*
X175966000Y-59769000D02*
X175966000Y-60119000D01*
G75*
G02*
X175791000Y-60294000I-175000J0D01*
G01*
X174091000Y-60294000D01*
G75*
G02*
X173916000Y-60119000I0J175000D01*
G01*
X173916000Y-59769000D01*
G75*
G02*
X174091000Y-59594000I175000J0D01*
G01*
X175791000Y-59594000D01*
G75*
G02*
X175966000Y-59769000I0J-175000D01*
G01*
G37*
G36*
G01*
X175966000Y-58499000D02*
X175966000Y-58849000D01*
G75*
G02*
X175791000Y-59024000I-175000J0D01*
G01*
X174091000Y-59024000D01*
G75*
G02*
X173916000Y-58849000I0J175000D01*
G01*
X173916000Y-58499000D01*
G75*
G02*
X174091000Y-58324000I175000J0D01*
G01*
X175791000Y-58324000D01*
G75*
G02*
X175966000Y-58499000I0J-175000D01*
G01*
G37*
G36*
G01*
X175966000Y-57229000D02*
X175966000Y-57579000D01*
G75*
G02*
X175791000Y-57754000I-175000J0D01*
G01*
X174091000Y-57754000D01*
G75*
G02*
X173916000Y-57579000I0J175000D01*
G01*
X173916000Y-57229000D01*
G75*
G02*
X174091000Y-57054000I175000J0D01*
G01*
X175791000Y-57054000D01*
G75*
G02*
X175966000Y-57229000I0J-175000D01*
G01*
G37*
G36*
G01*
X175966000Y-55959000D02*
X175966000Y-56309000D01*
G75*
G02*
X175791000Y-56484000I-175000J0D01*
G01*
X174091000Y-56484000D01*
G75*
G02*
X173916000Y-56309000I0J175000D01*
G01*
X173916000Y-55959000D01*
G75*
G02*
X174091000Y-55784000I175000J0D01*
G01*
X175791000Y-55784000D01*
G75*
G02*
X175966000Y-55959000I0J-175000D01*
G01*
G37*
D11*
X122828000Y-92060000D03*
X172828000Y-92060000D03*
D12*
X128778000Y-91760000D03*
X131318000Y-91760000D03*
X133858000Y-91760000D03*
X136398000Y-91760000D03*
X138938000Y-91760000D03*
X141478000Y-91760000D03*
X144018000Y-91760000D03*
X146558000Y-91760000D03*
X149098000Y-91760000D03*
X151638000Y-91760000D03*
X154178000Y-91760000D03*
X156718000Y-91760000D03*
X159258000Y-91760000D03*
X161798000Y-91760000D03*
X164338000Y-91760000D03*
X166878000Y-91760000D03*
X128778000Y-94300000D03*
X131318000Y-94300000D03*
X133858000Y-94300000D03*
X136398000Y-94300000D03*
X138938000Y-94300000D03*
X141478000Y-94300000D03*
X144018000Y-94300000D03*
X146558000Y-94300000D03*
X149098000Y-94300000D03*
X151638000Y-94300000D03*
X154178000Y-94300000D03*
X156718000Y-94300000D03*
X159258000Y-94300000D03*
X161798000Y-94300000D03*
X164338000Y-94300000D03*
G36*
G01*
X167436872Y-95125000D02*
X166319128Y-95125000D01*
G75*
G02*
X166053000Y-94858872I0J266128D01*
G01*
X166053000Y-93741128D01*
G75*
G02*
X166319128Y-93475000I266128J0D01*
G01*
X167436872Y-93475000D01*
G75*
G02*
X167703000Y-93741128I0J-266128D01*
G01*
X167703000Y-94858872D01*
G75*
G02*
X167436872Y-95125000I-266128J0D01*
G01*
G37*
D13*
X187223400Y-59410600D03*
D14*
X187223400Y-56870600D03*
D13*
X185978800Y-65278000D03*
D14*
X185978800Y-62738000D03*
D13*
X197612000Y-91567000D03*
D14*
X195072000Y-91567000D03*
D13*
X114808000Y-77470000D03*
D14*
X114808000Y-74930000D03*
D15*
X190347600Y-98780600D03*
X190347600Y-91160600D03*
X188239400Y-98780600D03*
X188239400Y-91160600D03*
X192481200Y-98755200D03*
X192481200Y-91135200D03*
D16*
X155575000Y-76113000D03*
X155575000Y-78613000D03*
X121524400Y-52476400D03*
X119024400Y-52476400D03*
X127341000Y-62166500D03*
X124841000Y-62166500D03*
X131826000Y-75017000D03*
X131826000Y-72517000D03*
X127341000Y-74676000D03*
X124841000Y-74676000D03*
X118287800Y-93766000D03*
X118287800Y-96266000D03*
X118313200Y-91374600D03*
X118313200Y-88874600D03*
D13*
X115620800Y-84988400D03*
D14*
X113080800Y-84988400D03*
D15*
X184289700Y-51574700D03*
X191909700Y-51574700D03*
X184302400Y-53644800D03*
X191922400Y-53644800D03*
D17*
X190525400Y-59207400D03*
D18*
X193065400Y-59207400D03*
X191795400Y-59207400D03*
D17*
X195999100Y-59207400D03*
D18*
X198539100Y-59207400D03*
X197269100Y-59207400D03*
G36*
G01*
X171469000Y-54456250D02*
X171469000Y-53493750D01*
G75*
G02*
X171737750Y-53225000I268750J0D01*
G01*
X172275250Y-53225000D01*
G75*
G02*
X172544000Y-53493750I0J-268750D01*
G01*
X172544000Y-54456250D01*
G75*
G02*
X172275250Y-54725000I-268750J0D01*
G01*
X171737750Y-54725000D01*
G75*
G02*
X171469000Y-54456250I0J268750D01*
G01*
G37*
G36*
G01*
X169594000Y-54456250D02*
X169594000Y-53493750D01*
G75*
G02*
X169862750Y-53225000I268750J0D01*
G01*
X170400250Y-53225000D01*
G75*
G02*
X170669000Y-53493750I0J-268750D01*
G01*
X170669000Y-54456250D01*
G75*
G02*
X170400250Y-54725000I-268750J0D01*
G01*
X169862750Y-54725000D01*
G75*
G02*
X169594000Y-54456250I0J268750D01*
G01*
G37*
D19*
X175611200Y-51594500D03*
X181411200Y-51594500D03*
D20*
X182011200Y-51594500D03*
X175011200Y-51594500D03*
D21*
X177511200Y-51594500D03*
D22*
X181011200Y-54294500D03*
D23*
X178511200Y-54294500D03*
X179161200Y-54294500D03*
X179811200Y-54294500D03*
X177211200Y-54294500D03*
X177861200Y-54294500D03*
D22*
X176011200Y-54294500D03*
D21*
X179511200Y-51594500D03*
D24*
X167208200Y-57785000D03*
X167208200Y-59055000D03*
X167208200Y-60325000D03*
X167208200Y-61595000D03*
X167208200Y-62865000D03*
D25*
X167208200Y-64135000D03*
D26*
X125603000Y-81661000D03*
D16*
X117983000Y-81661000D03*
D26*
X125603000Y-84709000D03*
D16*
X117983000Y-84709000D03*
D26*
X164134800Y-56616600D03*
D16*
X164134800Y-64236600D03*
D26*
X161544000Y-60756800D03*
D16*
X153924000Y-60756800D03*
D26*
X161544000Y-63779400D03*
D16*
X153924000Y-63779400D03*
D26*
X185191400Y-85191600D03*
D16*
X185191400Y-77571600D03*
D26*
X143129000Y-73152000D03*
D16*
X143129000Y-80772000D03*
D26*
X137033000Y-73152000D03*
D16*
X137033000Y-80772000D03*
D26*
X140081000Y-73152000D03*
D16*
X140081000Y-80772000D03*
D26*
X172593000Y-73533000D03*
D16*
X172593000Y-81153000D03*
D26*
X149225000Y-80772000D03*
D16*
X149225000Y-73152000D03*
D26*
X169291000Y-81153000D03*
D16*
X169291000Y-73533000D03*
D26*
X146177000Y-80772000D03*
D16*
X146177000Y-73152000D03*
D26*
X152273000Y-73152000D03*
D16*
X152273000Y-80772000D03*
D26*
X175768000Y-73533000D03*
D16*
X175768000Y-81153000D03*
D26*
X108204000Y-55753000D03*
D16*
X115824000Y-55753000D03*
D26*
X185191400Y-75438000D03*
D16*
X185191400Y-67818000D03*
D27*
X185039000Y-90297000D03*
X185039000Y-92837000D03*
X185039000Y-95377000D03*
X185039000Y-97917000D03*
X177419000Y-97917000D03*
X177419000Y-95377000D03*
X177419000Y-92837000D03*
X177419000Y-90297000D03*
D16*
X182513600Y-87757000D03*
X185013600Y-87757000D03*
X182332000Y-75387200D03*
X179832000Y-75387200D03*
X179821200Y-73202800D03*
X182321200Y-73202800D03*
D28*
X105537000Y-73787000D03*
X105537000Y-58293000D03*
D29*
X111379000Y-70485000D03*
X108839000Y-69215000D03*
X111379000Y-67945000D03*
X108839000Y-66675000D03*
X111379000Y-65405000D03*
X111379000Y-62865000D03*
X108839000Y-61595000D03*
X108839000Y-64135000D03*
D16*
X107863000Y-76200000D03*
X110363000Y-76200000D03*
X101600000Y-76200000D03*
X104100000Y-76200000D03*
D30*
X132969000Y-69207380D03*
X132969000Y-84455000D03*
X135509000Y-69207380D03*
X135509000Y-84455000D03*
X138049000Y-69215000D03*
X138049000Y-84447380D03*
X140589000Y-69215000D03*
X140589000Y-84455000D03*
X143129000Y-69215000D03*
X143129000Y-84455000D03*
X145669000Y-69215000D03*
X145669000Y-84455000D03*
X148209000Y-69215000D03*
X148209000Y-84455000D03*
X150749000Y-69215000D03*
X150749000Y-84455000D03*
X153289000Y-69207380D03*
X153289000Y-84455000D03*
X155829000Y-69215000D03*
X155829000Y-84455000D03*
X158369000Y-69215000D03*
X158369000Y-84455000D03*
X160909000Y-69215000D03*
X160909000Y-84455000D03*
X163449000Y-69215000D03*
X163449000Y-84447380D03*
X165989000Y-69215000D03*
X165989000Y-84455000D03*
X168529000Y-69215000D03*
X168529000Y-84455000D03*
X171069000Y-69215000D03*
X171069000Y-84455000D03*
X173609000Y-69215000D03*
X173609000Y-84455000D03*
X176149000Y-69207380D03*
X176149000Y-84455000D03*
X178689000Y-69215000D03*
X178689000Y-84455000D03*
X181229000Y-69215000D03*
X181229000Y-84455000D03*
D13*
X128524000Y-83820000D03*
D14*
X128524000Y-86360000D03*
D31*
X140030200Y-56606440D03*
X133527800Y-52105560D03*
X140030200Y-52105560D03*
X133527800Y-56606440D03*
D13*
X148526500Y-54356000D03*
X151066500Y-54356000D03*
X148526500Y-56896000D03*
X151066500Y-56896000D03*
X148526500Y-59436000D03*
X151066500Y-59436000D03*
X148526500Y-61976000D03*
D14*
X151066500Y-61976000D03*
D16*
X113690400Y-87782400D03*
X101219000Y-80772000D03*
D13*
X170865800Y-51790600D03*
X168325800Y-51790600D03*
X165785800Y-51790600D03*
X163245800Y-51790600D03*
X160705800Y-51790600D03*
D14*
X158165800Y-51790600D03*
D32*
X188468000Y-71628000D03*
D33*
X197358000Y-73538000D03*
D34*
X191008000Y-70358000D03*
X188468000Y-69088000D03*
X191008000Y-67818000D03*
X188468000Y-66548000D03*
X191008000Y-65278000D03*
D33*
X197358000Y-63378000D03*
D35*
X122810000Y-62103000D03*
X115190000Y-62103000D03*
G36*
G01*
X166605000Y-54382750D02*
X166605000Y-55345250D01*
G75*
G02*
X166336250Y-55614000I-268750J0D01*
G01*
X165798750Y-55614000D01*
G75*
G02*
X165530000Y-55345250I0J268750D01*
G01*
X165530000Y-54382750D01*
G75*
G02*
X165798750Y-54114000I268750J0D01*
G01*
X166336250Y-54114000D01*
G75*
G02*
X166605000Y-54382750I0J-268750D01*
G01*
G37*
G36*
G01*
X168480000Y-54382750D02*
X168480000Y-55345250D01*
G75*
G02*
X168211250Y-55614000I-268750J0D01*
G01*
X167673750Y-55614000D01*
G75*
G02*
X167405000Y-55345250I0J268750D01*
G01*
X167405000Y-54382750D01*
G75*
G02*
X167673750Y-54114000I268750J0D01*
G01*
X168211250Y-54114000D01*
G75*
G02*
X168480000Y-54382750I0J-268750D01*
G01*
G37*
D13*
X144018000Y-56007000D03*
D14*
X144018000Y-53467000D03*
D13*
X144018000Y-62230000D03*
D14*
X144018000Y-59690000D03*
D36*
X183705500Y-59385200D03*
D37*
X181165500Y-59385200D03*
D36*
X183705500Y-63931800D03*
D37*
X181165500Y-63931800D03*
D36*
X159842200Y-56972200D03*
D37*
X157302200Y-56972200D03*
G36*
G01*
X176709150Y-61332300D02*
X177671650Y-61332300D01*
G75*
G02*
X177940400Y-61601050I0J-268750D01*
G01*
X177940400Y-62138550D01*
G75*
G02*
X177671650Y-62407300I-268750J0D01*
G01*
X176709150Y-62407300D01*
G75*
G02*
X176440400Y-62138550I0J268750D01*
G01*
X176440400Y-61601050D01*
G75*
G02*
X176709150Y-61332300I268750J0D01*
G01*
G37*
G36*
G01*
X176709150Y-59457300D02*
X177671650Y-59457300D01*
G75*
G02*
X177940400Y-59726050I0J-268750D01*
G01*
X177940400Y-60263550D01*
G75*
G02*
X177671650Y-60532300I-268750J0D01*
G01*
X176709150Y-60532300D01*
G75*
G02*
X176440400Y-60263550I0J268750D01*
G01*
X176440400Y-59726050D01*
G75*
G02*
X176709150Y-59457300I268750J0D01*
G01*
G37*
D27*
X166243000Y-73533000D03*
X166243000Y-76073000D03*
X166243000Y-78613000D03*
X166243000Y-81153000D03*
X158623000Y-81153000D03*
X158623000Y-78613000D03*
X158623000Y-76073000D03*
X158623000Y-73533000D03*
X120777000Y-72009000D03*
X120777000Y-69469000D03*
X120777000Y-66929000D03*
X120777000Y-64389000D03*
X128397000Y-64389000D03*
X128397000Y-66929000D03*
X128397000Y-69469000D03*
X128397000Y-72009000D03*
D38*
X113690400Y-95402400D03*
X113690400Y-92862400D03*
D39*
X113690400Y-90322400D03*
D40*
X108839000Y-80772000D03*
X106299000Y-80772000D03*
D41*
X103759000Y-80772000D03*
D17*
X179679600Y-80645000D03*
D18*
X182219600Y-80645000D03*
X180949600Y-80645000D03*
D42*
X126619000Y-55372000D03*
D43*
X124079000Y-55372000D03*
X121539000Y-55372000D03*
X118999000Y-55372000D03*
D32*
X188468000Y-86106000D03*
D33*
X197358000Y-88016000D03*
D34*
X191008000Y-84836000D03*
X188468000Y-83566000D03*
X191008000Y-82296000D03*
X188468000Y-81026000D03*
X191008000Y-79756000D03*
D33*
X197358000Y-77856000D03*
D13*
X115798600Y-51993800D03*
D14*
X113258600Y-51993800D03*
D44*
X139270740Y-61849000D03*
X135270240Y-61849000D03*
X137271760Y-61849000D03*
D45*
X133268720Y-61849000D03*
D46*
X110035340Y-87045800D03*
D47*
X104033320Y-87045800D03*
D48*
X107284520Y-92346780D03*
D49*
X196000000Y-96000000D03*
X196000000Y-54000000D03*
X104000000Y-54000000D03*
X104000000Y-96000000D03*
M02*
