%TF.GenerationSoftware,KiCad,Pcbnew,5.1.6-c6e7f7d~86~ubuntu18.04.1*%
%TF.CreationDate,2020-06-08T16:06:21+02:00*%
%TF.ProjectId,c6021light,63363032-316c-4696-9768-742e6b696361,rev?*%
%TF.SameCoordinates,Original*%
%TF.FileFunction,Legend,Bot*%
%TF.FilePolarity,Positive*%
%FSLAX46Y46*%
G04 Gerber Fmt 4.6, Leading zero omitted, Abs format (unit mm)*
G04 Created by KiCad (PCBNEW 5.1.6-c6e7f7d~86~ubuntu18.04.1) date 2020-06-08 16:06:21*
%MOMM*%
%LPD*%
G01*
G04 APERTURE LIST*
%TA.AperFunction,Profile*%
%ADD10C,0.050000*%
%TD*%
%ADD11C,0.120000*%
%ADD12C,0.150000*%
G04 APERTURE END LIST*
D10*
X102000000Y-100000000D02*
G75*
G02*
X100000000Y-98000000I0J2000000D01*
G01*
X100000000Y-52000000D02*
G75*
G02*
X102000000Y-50000000I2000000J0D01*
G01*
X200000000Y-98000000D02*
G75*
G02*
X198000000Y-100000000I-2000000J0D01*
G01*
X198000000Y-50000000D02*
G75*
G02*
X200000000Y-52000000I0J-2000000D01*
G01*
X100000000Y-52000000D02*
X100000000Y-98000000D01*
X198000000Y-50000000D02*
X102000000Y-50000000D01*
X200000000Y-98000000D02*
X200000000Y-52000000D01*
X102000000Y-100000000D02*
X198000000Y-100000000D01*
D11*
%TO.C,J3*%
X125628000Y-95837000D02*
X170028000Y-95837000D01*
X125628000Y-92837000D02*
X125628000Y-95837000D01*
X126628000Y-92837000D02*
X125628000Y-92837000D01*
X126628000Y-89837000D02*
X126628000Y-92837000D01*
X169028000Y-89837000D02*
X126628000Y-89837000D01*
X169028000Y-92837000D02*
X169028000Y-89837000D01*
X170028000Y-92837000D02*
X169028000Y-92837000D01*
X170028000Y-95837000D02*
X170028000Y-92837000D01*
X166578000Y-97867000D02*
X166878000Y-97187000D01*
X167178000Y-97867000D02*
X166578000Y-97867000D01*
X166878000Y-97187000D02*
X167178000Y-97867000D01*
X120218000Y-96997000D02*
X175438000Y-96997000D01*
X120218000Y-88677000D02*
X120218000Y-96997000D01*
X175438000Y-88677000D02*
X120218000Y-88677000D01*
X175438000Y-96997000D02*
X175438000Y-88677000D01*
%TD*%
%TO.C,J3*%
D12*
X175780380Y-92503666D02*
X176494666Y-92503666D01*
X176637523Y-92456047D01*
X176732761Y-92360809D01*
X176780380Y-92217952D01*
X176780380Y-92122714D01*
X175780380Y-92884619D02*
X175780380Y-93503666D01*
X176161333Y-93170333D01*
X176161333Y-93313190D01*
X176208952Y-93408428D01*
X176256571Y-93456047D01*
X176351809Y-93503666D01*
X176589904Y-93503666D01*
X176685142Y-93456047D01*
X176732761Y-93408428D01*
X176780380Y-93313190D01*
X176780380Y-93027476D01*
X176732761Y-92932238D01*
X176685142Y-92884619D01*
%TD*%
M02*
