M48
; DRILL file {KiCad 5.1.6-c6e7f7d~86~ubuntu18.04.1} date Tue Jun  9 18:52:50 2020
; FORMAT={-:-/ absolute / metric / decimal}
; #@! TF.CreationDate,2020-06-09T18:52:50+02:00
; #@! TF.GenerationSoftware,Kicad,Pcbnew,5.1.6-c6e7f7d~86~ubuntu18.04.1
; #@! TF.FileFunction,Plated,1,2,PTH
FMAT,2
METRIC
T1C0.400
T2C0.500
T3C0.600
T4C0.650
T5C0.700
T6C0.701
T7C0.750
T8C0.760
T9C0.800
T10C0.800
T11C0.850
T12C0.889
T13C0.900
T14C1.000
T15C1.001
T16C1.075
T17C1.100
T18C1.575
%
G90
G05
T1
X114.046Y-60.579
X121.475Y-89.408
X122.936Y-75.819
X124.13Y-77.013
X126.111Y-68.326
X127.508Y-78.105
X128.397Y-89.344
X129.032Y-76.708
X129.949Y-90.211
X132.08Y-78.486
X133.985Y-72.453
X134.302Y-79.311
X134.356Y-87.642
X134.874Y-75.946
X137.096Y-65.468
X137.795Y-88.392
X139.319Y-66.421
X144.272Y-65.786
X145.921Y-66.074
X148.362Y-65.685
X149.415Y-66.802
X152.4Y-75.755
X154.432Y-73.025
X156.921Y-87.986
X158.42Y-92.812
X159.702Y-71.31
X160.528Y-75.374
X160.655Y-78.74
X160.678Y-76.875
X164.211Y-78.105
X164.401Y-88.519
X164.973Y-54.483
X168.951Y-75.289
X169.164Y-79.248
X169.189Y-53.213
X169.291Y-90.614
X170.053Y-77.153
X170.117Y-93.853
X172.022Y-77.153
X172.263Y-97.841
X172.28Y-70.375
X172.466Y-79.311
X172.541Y-56.247
X173.457Y-55.702
X173.736Y-72.517
X173.848Y-51.038
X174.18Y-80.962
X174.346Y-57.95
X174.346Y-59.08
X174.377Y-67.125
X174.434Y-94.932
X174.498Y-89.471
X174.843Y-53.524
X176.847Y-78.232
X177.406Y-61.29
X177.495Y-66.695
X177.515Y-83.176
X177.922Y-81.943
X177.93Y-58.428
X178.143Y-65.253
X178.752Y-88.011
X179.591Y-61.112
X180.01Y-66.396
X180.359Y-53.23
X182.347Y-90.348
X184.404Y-82.423
X185.217Y-80.543
X188.9Y-64.592
X189.205Y-55.194
X189.255Y-57.81
X190.297Y-89.129
X190.957Y-54.915
X192.837Y-69.063
X193.218Y-88.265
X194.018Y-56.921
X197.028Y-66.573
X198.933Y-56.007
T2
X115.19Y-62.103
X122.81Y-62.103
T4
X168.338Y-58.115
X168.338Y-59.385
X168.338Y-60.655
X168.338Y-61.925
X168.338Y-63.195
X168.338Y-64.465
T5
X190.348Y-91.161
X190.348Y-98.781
X184.302Y-53.645
X191.922Y-53.645
X184.29Y-51.575
X191.91Y-51.575
X192.481Y-91.135
X192.481Y-98.755
X188.239Y-91.161
X188.239Y-98.781
T6
X133.269Y-61.849
X135.27Y-61.849
X137.272Y-61.849
X139.271Y-61.849
T7
X195.999Y-59.207
X197.269Y-59.207
X198.539Y-59.207
X179.68Y-80.645
X180.95Y-80.645
X182.22Y-80.645
X190.525Y-59.207
X191.795Y-59.207
X193.065Y-59.207
T8
X188.468Y-66.548
X188.468Y-69.088
X188.468Y-71.628
X191.008Y-65.278
X191.008Y-67.818
X191.008Y-70.358
X188.468Y-81.026
X188.468Y-83.566
X188.468Y-86.106
X191.008Y-79.756
X191.008Y-82.296
X191.008Y-84.836
T9
X108.204Y-55.753
X115.824Y-55.753
X164.96Y-56.591
X164.96Y-64.211
X117.983Y-84.709
X125.603Y-84.709
X116.078Y-93.766
X116.078Y-96.266
X119.024Y-52.476
X121.524Y-52.476
X124.841Y-74.676
X127.341Y-74.676
X182.514Y-87.757
X185.014Y-87.757
X146.177Y-73.152
X146.177Y-80.772
X124.841Y-62.166
X127.341Y-62.166
X131.826Y-72.517
X131.826Y-75.017
X149.225Y-73.152
X149.225Y-80.772
X107.863Y-76.2
X110.363Y-76.2
X140.081Y-73.152
X140.081Y-80.772
X143.129Y-73.152
X143.129Y-80.772
X101.6Y-76.2
X104.1Y-76.2
X179.832Y-75.387
X182.332Y-75.387
X154.686Y-60.452
X162.306Y-60.452
X169.291Y-73.533
X169.291Y-81.153
X179.821Y-73.203
X182.321Y-73.203
X116.078Y-88.265
X116.078Y-90.765
X185.191Y-67.818
X185.191Y-75.438
X175.768Y-73.533
X175.768Y-81.153
X110.998Y-87.376
X101.219Y-80.772
X172.593Y-73.533
X172.593Y-81.153
X154.686Y-63.754
X162.306Y-63.754
X117.983Y-81.661
X125.603Y-81.661
X137.033Y-73.152
X137.033Y-80.772
X152.273Y-73.152
X152.273Y-80.772
X185.191Y-77.572
X185.191Y-85.192
X155.575Y-76.113
X155.575Y-78.613
T10
X158.623Y-73.533
X158.623Y-76.073
X158.623Y-78.613
X158.623Y-81.153
X166.243Y-73.533
X166.243Y-76.073
X166.243Y-78.613
X166.243Y-81.153
X120.777Y-64.389
X120.777Y-66.929
X120.777Y-69.469
X120.777Y-72.009
X128.397Y-64.389
X128.397Y-66.929
X128.397Y-69.469
X128.397Y-72.009
X177.419Y-90.297
X177.419Y-92.837
X177.419Y-95.377
X177.419Y-97.917
X185.039Y-90.297
X185.039Y-92.837
X185.039Y-95.377
X185.039Y-97.917
T11
X176.011Y-54.383
X181.011Y-54.383
T12
X108.839Y-61.595
X108.839Y-64.135
X108.839Y-66.675
X108.839Y-69.215
X111.379Y-62.865
X111.379Y-65.405
X111.379Y-67.945
X111.379Y-70.485
T13
X181.165Y-63.932
X183.706Y-63.932
X181.165Y-59.385
X183.706Y-59.385
X159.347Y-56.134
X161.887Y-56.134
T14
X148.526Y-54.356
X148.526Y-56.896
X148.526Y-59.436
X148.526Y-61.976
X151.066Y-54.356
X151.066Y-56.896
X151.066Y-59.436
X151.066Y-61.976
X128.524Y-83.82
X128.524Y-86.36
X144.018Y-59.69
X144.018Y-62.23
X114.808Y-74.93
X114.808Y-77.47
X128.778Y-91.567
X128.778Y-94.107
X131.318Y-91.567
X131.318Y-94.107
X133.858Y-91.567
X133.858Y-94.107
X136.398Y-91.567
X136.398Y-94.107
X138.938Y-91.567
X138.938Y-94.107
X141.478Y-91.567
X141.478Y-94.107
X144.018Y-91.567
X144.018Y-94.107
X146.558Y-91.567
X146.558Y-94.107
X149.098Y-91.567
X149.098Y-94.107
X151.638Y-91.567
X151.638Y-94.107
X154.178Y-91.567
X154.178Y-94.107
X156.718Y-91.567
X156.718Y-94.107
X159.258Y-91.567
X159.258Y-94.107
X161.798Y-91.567
X161.798Y-94.107
X164.338Y-91.567
X164.338Y-94.107
X166.878Y-91.567
X166.878Y-94.107
X158.166Y-51.791
X160.706Y-51.791
X163.246Y-51.791
X165.786Y-51.791
X168.326Y-51.791
X170.866Y-51.791
X132.969Y-69.207
X132.969Y-84.455
X135.509Y-69.207
X135.509Y-84.455
X138.049Y-69.215
X138.049Y-84.447
X140.589Y-69.215
X140.589Y-84.455
X143.129Y-69.215
X143.129Y-84.455
X145.669Y-69.215
X145.669Y-84.455
X148.209Y-69.215
X148.209Y-84.455
X150.749Y-69.215
X150.749Y-84.455
X153.289Y-69.207
X153.289Y-84.455
X155.829Y-69.215
X155.829Y-84.455
X158.369Y-69.215
X158.369Y-84.455
X160.909Y-69.215
X160.909Y-84.455
X163.449Y-69.215
X163.449Y-84.447
X165.989Y-69.215
X165.989Y-84.455
X168.529Y-69.215
X168.529Y-84.455
X171.069Y-69.215
X171.069Y-84.455
X173.609Y-69.215
X173.609Y-84.455
X176.149Y-69.207
X176.149Y-84.455
X178.689Y-69.215
X178.689Y-84.455
X181.229Y-69.215
X181.229Y-84.455
X187.223Y-56.871
X187.223Y-59.411
X195.072Y-91.567
X197.612Y-91.567
X144.018Y-53.467
X144.018Y-56.007
X113.259Y-51.994
X115.799Y-51.994
X112.42Y-84.76
X114.96Y-84.76
X185.979Y-62.738
X185.979Y-65.278
T15
X133.528Y-52.106
X133.528Y-56.606
X140.03Y-52.106
X140.03Y-56.606
T16
X118.999Y-55.372
X121.539Y-55.372
X124.079Y-55.372
X126.619Y-55.372
T17
X110.998Y-89.916
X110.998Y-92.456
X110.998Y-94.996
X103.759Y-80.772
X106.299Y-80.772
X108.839Y-80.772
T18
X105.537Y-58.293
X105.537Y-73.787
T3
G00X175.011Y-52.033
M15
G01X175.011Y-51.333
M16
G05
G00X182.011Y-51.333
M15
G01X182.011Y-52.033
M16
G05
T15
G00X101.976Y-85.615
M15
G01X101.976Y-87.613
M16
G05
G00X106.227Y-91.915
M15
G01X104.228Y-91.915
M16
G05
G00X107.978Y-85.364
M15
G01X107.978Y-87.864
M16
G05
T0
M30
