%TF.GenerationSoftware,KiCad,Pcbnew,5.1.6-c6e7f7d~86~ubuntu18.04.1*%
%TF.CreationDate,2020-06-09T18:52:52+02:00*%
%TF.ProjectId,c6021light,63363032-316c-4696-9768-742e6b696361,rev?*%
%TF.SameCoordinates,Original*%
%TF.FileFunction,Legend,Top*%
%TF.FilePolarity,Positive*%
%FSLAX46Y46*%
G04 Gerber Fmt 4.6, Leading zero omitted, Abs format (unit mm)*
G04 Created by KiCad (PCBNEW 5.1.6-c6e7f7d~86~ubuntu18.04.1) date 2020-06-09 18:52:52*
%MOMM*%
%LPD*%
G01*
G04 APERTURE LIST*
%ADD10C,0.200000*%
%TA.AperFunction,Profile*%
%ADD11C,0.050000*%
%TD*%
%ADD12C,0.120000*%
%ADD13C,0.254000*%
%ADD14C,0.381000*%
%ADD15C,0.304800*%
%ADD16C,2.540000*%
%ADD17C,0.100000*%
%ADD18C,0.150000*%
%ADD19C,0.203200*%
%ADD20C,0.285750*%
%ADD21C,0.287020*%
%ADD22C,0.317500*%
%ADD23C,0.300000*%
G04 APERTURE END LIST*
D10*
X108373942Y-51627942D02*
X108326323Y-51675561D01*
X108183466Y-51723180D01*
X108088228Y-51723180D01*
X107945371Y-51675561D01*
X107850133Y-51580323D01*
X107802514Y-51485085D01*
X107754895Y-51294609D01*
X107754895Y-51151752D01*
X107802514Y-50961276D01*
X107850133Y-50866038D01*
X107945371Y-50770800D01*
X108088228Y-50723180D01*
X108183466Y-50723180D01*
X108326323Y-50770800D01*
X108373942Y-50818419D01*
X108754895Y-51437466D02*
X109231085Y-51437466D01*
X108659657Y-51723180D02*
X108992990Y-50723180D01*
X109326323Y-51723180D01*
X109659657Y-51723180D02*
X109659657Y-50723180D01*
X110231085Y-51723180D01*
X110231085Y-50723180D01*
X107326323Y-52423180D02*
X107897752Y-52423180D01*
X107612038Y-53423180D02*
X107612038Y-52423180D01*
X108612038Y-53375561D02*
X108516800Y-53423180D01*
X108326323Y-53423180D01*
X108231085Y-53375561D01*
X108183466Y-53280323D01*
X108183466Y-52899371D01*
X108231085Y-52804133D01*
X108326323Y-52756514D01*
X108516800Y-52756514D01*
X108612038Y-52804133D01*
X108659657Y-52899371D01*
X108659657Y-52994609D01*
X108183466Y-53089847D01*
X109088228Y-53423180D02*
X109088228Y-52756514D01*
X109088228Y-52946990D02*
X109135847Y-52851752D01*
X109183466Y-52804133D01*
X109278704Y-52756514D01*
X109373942Y-52756514D01*
X109707276Y-53423180D02*
X109707276Y-52756514D01*
X109707276Y-52851752D02*
X109754895Y-52804133D01*
X109850133Y-52756514D01*
X109992990Y-52756514D01*
X110088228Y-52804133D01*
X110135847Y-52899371D01*
X110135847Y-53423180D01*
X110135847Y-52899371D02*
X110183466Y-52804133D01*
X110278704Y-52756514D01*
X110421561Y-52756514D01*
X110516800Y-52804133D01*
X110564419Y-52899371D01*
X110564419Y-53423180D01*
X182457885Y-55685580D02*
X181886457Y-55685580D01*
X182172171Y-55685580D02*
X182172171Y-54685580D01*
X182076933Y-54828438D01*
X181981695Y-54923676D01*
X181886457Y-54971295D01*
X183362647Y-54685580D02*
X182886457Y-54685580D01*
X182838838Y-55161771D01*
X182886457Y-55114152D01*
X182981695Y-55066533D01*
X183219790Y-55066533D01*
X183315028Y-55114152D01*
X183362647Y-55161771D01*
X183410266Y-55257009D01*
X183410266Y-55495104D01*
X183362647Y-55590342D01*
X183315028Y-55637961D01*
X183219790Y-55685580D01*
X182981695Y-55685580D01*
X182886457Y-55637961D01*
X182838838Y-55590342D01*
X183838838Y-55685580D02*
X183838838Y-55018914D01*
X183838838Y-55114152D02*
X183886457Y-55066533D01*
X183981695Y-55018914D01*
X184124552Y-55018914D01*
X184219790Y-55066533D01*
X184267409Y-55161771D01*
X184267409Y-55685580D01*
X184267409Y-55161771D02*
X184315028Y-55066533D01*
X184410266Y-55018914D01*
X184553123Y-55018914D01*
X184648361Y-55066533D01*
X184695980Y-55161771D01*
X184695980Y-55685580D01*
X185124552Y-55399866D02*
X185600742Y-55399866D01*
X185029314Y-55685580D02*
X185362647Y-54685580D01*
X185695980Y-55685580D01*
X181600742Y-57385580D02*
X181600742Y-56385580D01*
X181981695Y-56385580D01*
X182076933Y-56433200D01*
X182124552Y-56480819D01*
X182172171Y-56576057D01*
X182172171Y-56718914D01*
X182124552Y-56814152D01*
X182076933Y-56861771D01*
X181981695Y-56909390D01*
X181600742Y-56909390D01*
X183029314Y-56718914D02*
X183029314Y-57385580D01*
X182600742Y-56718914D02*
X182600742Y-57242723D01*
X182648361Y-57337961D01*
X182743600Y-57385580D01*
X182886457Y-57385580D01*
X182981695Y-57337961D01*
X183029314Y-57290342D01*
X183648361Y-57385580D02*
X183553123Y-57337961D01*
X183505504Y-57242723D01*
X183505504Y-56385580D01*
X184172171Y-57385580D02*
X184076933Y-57337961D01*
X184029314Y-57242723D01*
X184029314Y-56385580D01*
X184981695Y-56718914D02*
X184981695Y-57385580D01*
X184553123Y-56718914D02*
X184553123Y-57242723D01*
X184600742Y-57337961D01*
X184695980Y-57385580D01*
X184838838Y-57385580D01*
X184934076Y-57337961D01*
X184981695Y-57290342D01*
X185457885Y-56718914D02*
X185457885Y-57718914D01*
X185457885Y-56766533D02*
X185553123Y-56718914D01*
X185743600Y-56718914D01*
X185838838Y-56766533D01*
X185886457Y-56814152D01*
X185934076Y-56909390D01*
X185934076Y-57195104D01*
X185886457Y-57290342D01*
X185838838Y-57337961D01*
X185743600Y-57385580D01*
X185553123Y-57385580D01*
X185457885Y-57337961D01*
X170492800Y-55371904D02*
X170445180Y-55467142D01*
X170445180Y-55610000D01*
X170492800Y-55752857D01*
X170588038Y-55848095D01*
X170683276Y-55895714D01*
X170873752Y-55943333D01*
X171016609Y-55943333D01*
X171207085Y-55895714D01*
X171302323Y-55848095D01*
X171397561Y-55752857D01*
X171445180Y-55610000D01*
X171445180Y-55514761D01*
X171397561Y-55371904D01*
X171349942Y-55324285D01*
X171016609Y-55324285D01*
X171016609Y-55514761D01*
X171445180Y-54895714D02*
X170445180Y-54895714D01*
X171445180Y-54324285D01*
X170445180Y-54324285D01*
X171445180Y-53848095D02*
X170445180Y-53848095D01*
X170445180Y-53610000D01*
X170492800Y-53467142D01*
X170588038Y-53371904D01*
X170683276Y-53324285D01*
X170873752Y-53276666D01*
X171016609Y-53276666D01*
X171207085Y-53324285D01*
X171302323Y-53371904D01*
X171397561Y-53467142D01*
X171445180Y-53610000D01*
X171445180Y-53848095D01*
X194508380Y-70516476D02*
X194508380Y-70992666D01*
X193508380Y-70992666D01*
X194508380Y-70040285D02*
X194460761Y-70135523D01*
X194413142Y-70183142D01*
X194317904Y-70230761D01*
X194032190Y-70230761D01*
X193936952Y-70183142D01*
X193889333Y-70135523D01*
X193841714Y-70040285D01*
X193841714Y-69897428D01*
X193889333Y-69802190D01*
X193936952Y-69754571D01*
X194032190Y-69706952D01*
X194317904Y-69706952D01*
X194413142Y-69754571D01*
X194460761Y-69802190D01*
X194508380Y-69897428D01*
X194508380Y-70040285D01*
X194460761Y-68849809D02*
X194508380Y-68945047D01*
X194508380Y-69135523D01*
X194460761Y-69230761D01*
X194413142Y-69278380D01*
X194317904Y-69326000D01*
X194032190Y-69326000D01*
X193936952Y-69278380D01*
X193889333Y-69230761D01*
X193841714Y-69135523D01*
X193841714Y-68945047D01*
X193889333Y-68849809D01*
X194508380Y-68278380D02*
X194460761Y-68373619D01*
X194413142Y-68421238D01*
X194317904Y-68468857D01*
X194032190Y-68468857D01*
X193936952Y-68421238D01*
X193889333Y-68373619D01*
X193841714Y-68278380D01*
X193841714Y-68135523D01*
X193889333Y-68040285D01*
X193936952Y-67992666D01*
X194032190Y-67945047D01*
X194317904Y-67945047D01*
X194413142Y-67992666D01*
X194460761Y-68040285D01*
X194508380Y-68135523D01*
X194508380Y-68278380D01*
X193841714Y-67516476D02*
X194508380Y-67516476D01*
X193936952Y-67516476D02*
X193889333Y-67468857D01*
X193841714Y-67373619D01*
X193841714Y-67230761D01*
X193889333Y-67135523D01*
X193984571Y-67087904D01*
X194508380Y-67087904D01*
X194460761Y-66230761D02*
X194508380Y-66326000D01*
X194508380Y-66516476D01*
X194460761Y-66611714D01*
X194365523Y-66659333D01*
X193984571Y-66659333D01*
X193889333Y-66611714D01*
X193841714Y-66516476D01*
X193841714Y-66326000D01*
X193889333Y-66230761D01*
X193984571Y-66183142D01*
X194079809Y-66183142D01*
X194175047Y-66659333D01*
X193841714Y-65897428D02*
X193841714Y-65516476D01*
X193508380Y-65754571D02*
X194365523Y-65754571D01*
X194460761Y-65706952D01*
X194508380Y-65611714D01*
X194508380Y-65516476D01*
X193531380Y-84526238D02*
X193055190Y-84859571D01*
X193531380Y-85097666D02*
X192531380Y-85097666D01*
X192531380Y-84716714D01*
X192579000Y-84621476D01*
X192626619Y-84573857D01*
X192721857Y-84526238D01*
X192864714Y-84526238D01*
X192959952Y-84573857D01*
X193007571Y-84621476D01*
X193055190Y-84716714D01*
X193055190Y-85097666D01*
X193483761Y-84145285D02*
X193531380Y-84002428D01*
X193531380Y-83764333D01*
X193483761Y-83669095D01*
X193436142Y-83621476D01*
X193340904Y-83573857D01*
X193245666Y-83573857D01*
X193150428Y-83621476D01*
X193102809Y-83669095D01*
X193055190Y-83764333D01*
X193007571Y-83954809D01*
X192959952Y-84050047D01*
X192912333Y-84097666D01*
X192817095Y-84145285D01*
X192721857Y-84145285D01*
X192626619Y-84097666D01*
X192579000Y-84050047D01*
X192531380Y-83954809D01*
X192531380Y-83716714D01*
X192579000Y-83573857D01*
X192864714Y-82716714D02*
X193531380Y-82716714D01*
X192483761Y-82954809D02*
X193198047Y-83192904D01*
X193198047Y-82573857D01*
X192959952Y-82050047D02*
X192912333Y-82145285D01*
X192864714Y-82192904D01*
X192769476Y-82240523D01*
X192721857Y-82240523D01*
X192626619Y-82192904D01*
X192579000Y-82145285D01*
X192531380Y-82050047D01*
X192531380Y-81859571D01*
X192579000Y-81764333D01*
X192626619Y-81716714D01*
X192721857Y-81669095D01*
X192769476Y-81669095D01*
X192864714Y-81716714D01*
X192912333Y-81764333D01*
X192959952Y-81859571D01*
X192959952Y-82050047D01*
X193007571Y-82145285D01*
X193055190Y-82192904D01*
X193150428Y-82240523D01*
X193340904Y-82240523D01*
X193436142Y-82192904D01*
X193483761Y-82145285D01*
X193531380Y-82050047D01*
X193531380Y-81859571D01*
X193483761Y-81764333D01*
X193436142Y-81716714D01*
X193340904Y-81669095D01*
X193150428Y-81669095D01*
X193055190Y-81716714D01*
X193007571Y-81764333D01*
X192959952Y-81859571D01*
X192531380Y-80764333D02*
X192531380Y-81240523D01*
X193007571Y-81288142D01*
X192959952Y-81240523D01*
X192912333Y-81145285D01*
X192912333Y-80907190D01*
X192959952Y-80811952D01*
X193007571Y-80764333D01*
X193102809Y-80716714D01*
X193340904Y-80716714D01*
X193436142Y-80764333D01*
X193483761Y-80811952D01*
X193531380Y-80907190D01*
X193531380Y-81145285D01*
X193483761Y-81240523D01*
X193436142Y-81288142D01*
X194231380Y-86431000D02*
X195231380Y-85764333D01*
X194231380Y-85764333D02*
X195231380Y-86431000D01*
X194564714Y-85383380D02*
X195564714Y-85383380D01*
X194612333Y-85383380D02*
X194564714Y-85288142D01*
X194564714Y-85097666D01*
X194612333Y-85002428D01*
X194659952Y-84954809D01*
X194755190Y-84907190D01*
X195040904Y-84907190D01*
X195136142Y-84954809D01*
X195183761Y-85002428D01*
X195231380Y-85097666D01*
X195231380Y-85288142D01*
X195183761Y-85383380D01*
X195231380Y-84478619D02*
X194564714Y-84478619D01*
X194755190Y-84478619D02*
X194659952Y-84431000D01*
X194612333Y-84383380D01*
X194564714Y-84288142D01*
X194564714Y-84192904D01*
X195183761Y-83478619D02*
X195231380Y-83573857D01*
X195231380Y-83764333D01*
X195183761Y-83859571D01*
X195088523Y-83907190D01*
X194707571Y-83907190D01*
X194612333Y-83859571D01*
X194564714Y-83764333D01*
X194564714Y-83573857D01*
X194612333Y-83478619D01*
X194707571Y-83431000D01*
X194802809Y-83431000D01*
X194898047Y-83907190D01*
X195183761Y-83050047D02*
X195231380Y-82954809D01*
X195231380Y-82764333D01*
X195183761Y-82669095D01*
X195088523Y-82621476D01*
X195040904Y-82621476D01*
X194945666Y-82669095D01*
X194898047Y-82764333D01*
X194898047Y-82907190D01*
X194850428Y-83002428D01*
X194755190Y-83050047D01*
X194707571Y-83050047D01*
X194612333Y-83002428D01*
X194564714Y-82907190D01*
X194564714Y-82764333D01*
X194612333Y-82669095D01*
X195183761Y-82240523D02*
X195231380Y-82145285D01*
X195231380Y-81954809D01*
X195183761Y-81859571D01*
X195088523Y-81811952D01*
X195040904Y-81811952D01*
X194945666Y-81859571D01*
X194898047Y-81954809D01*
X194898047Y-82097666D01*
X194850428Y-82192904D01*
X194755190Y-82240523D01*
X194707571Y-82240523D01*
X194612333Y-82192904D01*
X194564714Y-82097666D01*
X194564714Y-81954809D01*
X194612333Y-81859571D01*
X194564714Y-81383380D02*
X195231380Y-81383380D01*
X194659952Y-81383380D02*
X194612333Y-81335761D01*
X194564714Y-81240523D01*
X194564714Y-81097666D01*
X194612333Y-81002428D01*
X194707571Y-80954809D01*
X195231380Y-80954809D01*
X195183761Y-80097666D02*
X195231380Y-80192904D01*
X195231380Y-80383380D01*
X195183761Y-80478619D01*
X195088523Y-80526238D01*
X194707571Y-80526238D01*
X194612333Y-80478619D01*
X194564714Y-80383380D01*
X194564714Y-80192904D01*
X194612333Y-80097666D01*
X194707571Y-80050047D01*
X194802809Y-80050047D01*
X194898047Y-80526238D01*
X194564714Y-79764333D02*
X194564714Y-79383380D01*
X194231380Y-79621476D02*
X195088523Y-79621476D01*
X195183761Y-79573857D01*
X195231380Y-79478619D01*
X195231380Y-79383380D01*
X146717142Y-51434380D02*
X147336190Y-51434380D01*
X147002857Y-51815333D01*
X147145714Y-51815333D01*
X147240952Y-51862952D01*
X147288571Y-51910571D01*
X147336190Y-52005809D01*
X147336190Y-52243904D01*
X147288571Y-52339142D01*
X147240952Y-52386761D01*
X147145714Y-52434380D01*
X146860000Y-52434380D01*
X146764761Y-52386761D01*
X146717142Y-52339142D01*
X147621904Y-51434380D02*
X147955238Y-52434380D01*
X148288571Y-51434380D01*
X148526666Y-51434380D02*
X149145714Y-51434380D01*
X148812380Y-51815333D01*
X148955238Y-51815333D01*
X149050476Y-51862952D01*
X149098095Y-51910571D01*
X149145714Y-52005809D01*
X149145714Y-52243904D01*
X149098095Y-52339142D01*
X149050476Y-52386761D01*
X148955238Y-52434380D01*
X148669523Y-52434380D01*
X148574285Y-52386761D01*
X148526666Y-52339142D01*
X150860000Y-51482000D02*
X150764761Y-51434380D01*
X150621904Y-51434380D01*
X150479047Y-51482000D01*
X150383809Y-51577238D01*
X150336190Y-51672476D01*
X150288571Y-51862952D01*
X150288571Y-52005809D01*
X150336190Y-52196285D01*
X150383809Y-52291523D01*
X150479047Y-52386761D01*
X150621904Y-52434380D01*
X150717142Y-52434380D01*
X150860000Y-52386761D01*
X150907619Y-52339142D01*
X150907619Y-52005809D01*
X150717142Y-52005809D01*
X151336190Y-52434380D02*
X151336190Y-51434380D01*
X151907619Y-52434380D01*
X151907619Y-51434380D01*
X152383809Y-52434380D02*
X152383809Y-51434380D01*
X152621904Y-51434380D01*
X152764761Y-51482000D01*
X152860000Y-51577238D01*
X152907619Y-51672476D01*
X152955238Y-51862952D01*
X152955238Y-52005809D01*
X152907619Y-52196285D01*
X152860000Y-52291523D01*
X152764761Y-52386761D01*
X152621904Y-52434380D01*
X152383809Y-52434380D01*
X117298742Y-79214361D02*
X117346361Y-79261980D01*
X117393980Y-79404838D01*
X117393980Y-79500076D01*
X117346361Y-79642933D01*
X117251123Y-79738171D01*
X117155885Y-79785790D01*
X116965409Y-79833409D01*
X116822552Y-79833409D01*
X116632076Y-79785790D01*
X116536838Y-79738171D01*
X116441600Y-79642933D01*
X116393980Y-79500076D01*
X116393980Y-79404838D01*
X116441600Y-79261980D01*
X116489219Y-79214361D01*
X117108266Y-78833409D02*
X117108266Y-78357219D01*
X117393980Y-78928647D02*
X116393980Y-78595314D01*
X117393980Y-78261980D01*
X117393980Y-77928647D02*
X116393980Y-77928647D01*
X117393980Y-77357219D01*
X116393980Y-77357219D01*
X117393980Y-75595314D02*
X117393980Y-76166742D01*
X117393980Y-75881028D02*
X116393980Y-75881028D01*
X116536838Y-75976266D01*
X116632076Y-76071504D01*
X116679695Y-76166742D01*
X116822552Y-75023885D02*
X116774933Y-75119123D01*
X116727314Y-75166742D01*
X116632076Y-75214361D01*
X116584457Y-75214361D01*
X116489219Y-75166742D01*
X116441600Y-75119123D01*
X116393980Y-75023885D01*
X116393980Y-74833409D01*
X116441600Y-74738171D01*
X116489219Y-74690552D01*
X116584457Y-74642933D01*
X116632076Y-74642933D01*
X116727314Y-74690552D01*
X116774933Y-74738171D01*
X116822552Y-74833409D01*
X116822552Y-75023885D01*
X116870171Y-75119123D01*
X116917790Y-75166742D01*
X117013028Y-75214361D01*
X117203504Y-75214361D01*
X117298742Y-75166742D01*
X117346361Y-75119123D01*
X117393980Y-75023885D01*
X117393980Y-74833409D01*
X117346361Y-74738171D01*
X117298742Y-74690552D01*
X117203504Y-74642933D01*
X117013028Y-74642933D01*
X116917790Y-74690552D01*
X116870171Y-74738171D01*
X116822552Y-74833409D01*
X116393980Y-74357219D02*
X117393980Y-74023885D01*
X116393980Y-73690552D01*
X109977657Y-83383380D02*
X109644323Y-82907190D01*
X109406228Y-83383380D02*
X109406228Y-82383380D01*
X109787180Y-82383380D01*
X109882419Y-82431000D01*
X109930038Y-82478619D01*
X109977657Y-82573857D01*
X109977657Y-82716714D01*
X109930038Y-82811952D01*
X109882419Y-82859571D01*
X109787180Y-82907190D01*
X109406228Y-82907190D01*
X110358609Y-83335761D02*
X110501466Y-83383380D01*
X110739561Y-83383380D01*
X110834800Y-83335761D01*
X110882419Y-83288142D01*
X110930038Y-83192904D01*
X110930038Y-83097666D01*
X110882419Y-83002428D01*
X110834800Y-82954809D01*
X110739561Y-82907190D01*
X110549085Y-82859571D01*
X110453847Y-82811952D01*
X110406228Y-82764333D01*
X110358609Y-82669095D01*
X110358609Y-82573857D01*
X110406228Y-82478619D01*
X110453847Y-82431000D01*
X110549085Y-82383380D01*
X110787180Y-82383380D01*
X110930038Y-82431000D01*
X111787180Y-82716714D02*
X111787180Y-83383380D01*
X111549085Y-82335761D02*
X111310990Y-83050047D01*
X111930038Y-83050047D01*
X112453847Y-82811952D02*
X112358609Y-82764333D01*
X112310990Y-82716714D01*
X112263371Y-82621476D01*
X112263371Y-82573857D01*
X112310990Y-82478619D01*
X112358609Y-82431000D01*
X112453847Y-82383380D01*
X112644323Y-82383380D01*
X112739561Y-82431000D01*
X112787180Y-82478619D01*
X112834800Y-82573857D01*
X112834800Y-82621476D01*
X112787180Y-82716714D01*
X112739561Y-82764333D01*
X112644323Y-82811952D01*
X112453847Y-82811952D01*
X112358609Y-82859571D01*
X112310990Y-82907190D01*
X112263371Y-83002428D01*
X112263371Y-83192904D01*
X112310990Y-83288142D01*
X112358609Y-83335761D01*
X112453847Y-83383380D01*
X112644323Y-83383380D01*
X112739561Y-83335761D01*
X112787180Y-83288142D01*
X112834800Y-83192904D01*
X112834800Y-83002428D01*
X112787180Y-82907190D01*
X112739561Y-82859571D01*
X112644323Y-82811952D01*
X113739561Y-82383380D02*
X113263371Y-82383380D01*
X113215752Y-82859571D01*
X113263371Y-82811952D01*
X113358609Y-82764333D01*
X113596704Y-82764333D01*
X113691942Y-82811952D01*
X113739561Y-82859571D01*
X113787180Y-82954809D01*
X113787180Y-83192904D01*
X113739561Y-83288142D01*
X113691942Y-83335761D01*
X113596704Y-83383380D01*
X113358609Y-83383380D01*
X113263371Y-83335761D01*
X113215752Y-83288142D01*
X115501466Y-83383380D02*
X114930038Y-83383380D01*
X115215752Y-83383380D02*
X115215752Y-82383380D01*
X115120514Y-82526238D01*
X115025276Y-82621476D01*
X114930038Y-82669095D01*
X115882419Y-82478619D02*
X115930038Y-82431000D01*
X116025276Y-82383380D01*
X116263371Y-82383380D01*
X116358609Y-82431000D01*
X116406228Y-82478619D01*
X116453847Y-82573857D01*
X116453847Y-82669095D01*
X116406228Y-82811952D01*
X115834800Y-83383380D01*
X116453847Y-83383380D01*
X116739561Y-82383380D02*
X117072895Y-83383380D01*
X117406228Y-82383380D01*
X158059380Y-55752857D02*
X157059380Y-55752857D01*
X157059380Y-55514761D01*
X157107000Y-55371904D01*
X157202238Y-55276666D01*
X157297476Y-55229047D01*
X157487952Y-55181428D01*
X157630809Y-55181428D01*
X157821285Y-55229047D01*
X157916523Y-55276666D01*
X158011761Y-55371904D01*
X158059380Y-55514761D01*
X158059380Y-55752857D01*
X157059380Y-54895714D02*
X157059380Y-54324285D01*
X158059380Y-54610000D02*
X157059380Y-54610000D01*
X158059380Y-53419523D02*
X157583190Y-53752857D01*
X158059380Y-53990952D02*
X157059380Y-53990952D01*
X157059380Y-53610000D01*
X157107000Y-53514761D01*
X157154619Y-53467142D01*
X157249857Y-53419523D01*
X157392714Y-53419523D01*
X157487952Y-53467142D01*
X157535571Y-53514761D01*
X157583190Y-53610000D01*
X157583190Y-53990952D01*
X178623933Y-59888380D02*
X178290600Y-59412190D01*
X178052504Y-59888380D02*
X178052504Y-58888380D01*
X178433457Y-58888380D01*
X178528695Y-58936000D01*
X178576314Y-58983619D01*
X178623933Y-59078857D01*
X178623933Y-59221714D01*
X178576314Y-59316952D01*
X178528695Y-59364571D01*
X178433457Y-59412190D01*
X178052504Y-59412190D01*
X178957266Y-58888380D02*
X179623933Y-59888380D01*
X179623933Y-58888380D02*
X178957266Y-59888380D01*
X177901695Y-63409580D02*
X178473123Y-63409580D01*
X178187409Y-64409580D02*
X178187409Y-63409580D01*
X178711219Y-63409580D02*
X179377885Y-64409580D01*
X179377885Y-63409580D02*
X178711219Y-64409580D01*
X175203123Y-62174380D02*
X174726933Y-62174380D01*
X174726933Y-61174380D01*
X175679314Y-62174380D02*
X175584076Y-62126761D01*
X175536457Y-62079142D01*
X175488838Y-61983904D01*
X175488838Y-61698190D01*
X175536457Y-61602952D01*
X175584076Y-61555333D01*
X175679314Y-61507714D01*
X175822171Y-61507714D01*
X175917409Y-61555333D01*
X175965028Y-61602952D01*
X176012647Y-61698190D01*
X176012647Y-61983904D01*
X175965028Y-62079142D01*
X175917409Y-62126761D01*
X175822171Y-62174380D01*
X175679314Y-62174380D01*
X176869790Y-62126761D02*
X176774552Y-62174380D01*
X176584076Y-62174380D01*
X176488838Y-62126761D01*
X176441219Y-62079142D01*
X176393600Y-61983904D01*
X176393600Y-61698190D01*
X176441219Y-61602952D01*
X176488838Y-61555333D01*
X176584076Y-61507714D01*
X176774552Y-61507714D01*
X176869790Y-61555333D01*
X177441219Y-62174380D02*
X177345980Y-62126761D01*
X177298361Y-62079142D01*
X177250742Y-61983904D01*
X177250742Y-61698190D01*
X177298361Y-61602952D01*
X177345980Y-61555333D01*
X177441219Y-61507714D01*
X177584076Y-61507714D01*
X177679314Y-61555333D01*
X177726933Y-61602952D01*
X177774552Y-61698190D01*
X177774552Y-61983904D01*
X177726933Y-62079142D01*
X177679314Y-62126761D01*
X177584076Y-62174380D01*
X177441219Y-62174380D01*
X178203123Y-61507714D02*
X178203123Y-62174380D01*
X178203123Y-61602952D02*
X178250742Y-61555333D01*
X178345980Y-61507714D01*
X178488838Y-61507714D01*
X178584076Y-61555333D01*
X178631695Y-61650571D01*
X178631695Y-62174380D01*
X179488838Y-62126761D02*
X179393600Y-62174380D01*
X179203123Y-62174380D01*
X179107885Y-62126761D01*
X179060266Y-62031523D01*
X179060266Y-61650571D01*
X179107885Y-61555333D01*
X179203123Y-61507714D01*
X179393600Y-61507714D01*
X179488838Y-61555333D01*
X179536457Y-61650571D01*
X179536457Y-61745809D01*
X179060266Y-61841047D01*
X179822171Y-61507714D02*
X180203123Y-61507714D01*
X179965028Y-61174380D02*
X179965028Y-62031523D01*
X180012647Y-62126761D01*
X180107885Y-62174380D01*
X180203123Y-62174380D01*
D11*
X102000000Y-100000000D02*
G75*
G02*
X100000000Y-98000000I0J2000000D01*
G01*
X100000000Y-52000000D02*
G75*
G02*
X102000000Y-50000000I2000000J0D01*
G01*
X200000000Y-98000000D02*
G75*
G02*
X198000000Y-100000000I-2000000J0D01*
G01*
X198000000Y-50000000D02*
G75*
G02*
X200000000Y-52000000I0J-2000000D01*
G01*
X100000000Y-52000000D02*
X100000000Y-98000000D01*
X198000000Y-50000000D02*
X102000000Y-50000000D01*
X200000000Y-98000000D02*
X200000000Y-52000000D01*
X102000000Y-100000000D02*
X198000000Y-100000000D01*
D12*
%TO.C,J31*%
X185893400Y-60740600D02*
X188553400Y-60740600D01*
X185893400Y-58140600D02*
X185893400Y-60740600D01*
X188553400Y-58140600D02*
X188553400Y-60740600D01*
X185893400Y-58140600D02*
X188553400Y-58140600D01*
X185893400Y-56870600D02*
X185893400Y-55540600D01*
X185893400Y-55540600D02*
X187223400Y-55540600D01*
%TO.C,J32*%
X184648800Y-66608000D02*
X187308800Y-66608000D01*
X184648800Y-64008000D02*
X184648800Y-66608000D01*
X187308800Y-64008000D02*
X187308800Y-66608000D01*
X184648800Y-64008000D02*
X187308800Y-64008000D01*
X184648800Y-62738000D02*
X184648800Y-61408000D01*
X184648800Y-61408000D02*
X185978800Y-61408000D01*
%TO.C,J10*%
X198942000Y-92897000D02*
X198942000Y-90237000D01*
X196342000Y-92897000D02*
X198942000Y-92897000D01*
X196342000Y-90237000D02*
X198942000Y-90237000D01*
X196342000Y-92897000D02*
X196342000Y-90237000D01*
X195072000Y-92897000D02*
X193742000Y-92897000D01*
X193742000Y-92897000D02*
X193742000Y-91567000D01*
%TO.C,J7*%
X113478000Y-78800000D02*
X116138000Y-78800000D01*
X113478000Y-76200000D02*
X113478000Y-78800000D01*
X116138000Y-76200000D02*
X116138000Y-78800000D01*
X113478000Y-76200000D02*
X116138000Y-76200000D01*
X113478000Y-74930000D02*
X113478000Y-73600000D01*
X113478000Y-73600000D02*
X114808000Y-73600000D01*
D13*
%TO.C,R15*%
X190347600Y-97129600D02*
X190347600Y-98780600D01*
X190347600Y-92811600D02*
X190347600Y-91160600D01*
X191236600Y-92811600D02*
X189458600Y-92811600D01*
X189458600Y-92811600D02*
X189458600Y-97129600D01*
X189458600Y-97129600D02*
X191236600Y-97129600D01*
X191236600Y-97129600D02*
X191236600Y-92811600D01*
%TO.C,R14*%
X188239400Y-97129600D02*
X188239400Y-98780600D01*
X188239400Y-92811600D02*
X188239400Y-91160600D01*
X189128400Y-92811600D02*
X187350400Y-92811600D01*
X187350400Y-92811600D02*
X187350400Y-97129600D01*
X187350400Y-97129600D02*
X189128400Y-97129600D01*
X189128400Y-97129600D02*
X189128400Y-92811600D01*
%TO.C,R13*%
X192481200Y-97104200D02*
X192481200Y-98755200D01*
X192481200Y-92786200D02*
X192481200Y-91135200D01*
X193370200Y-92786200D02*
X191592200Y-92786200D01*
X191592200Y-92786200D02*
X191592200Y-97104200D01*
X191592200Y-97104200D02*
X193370200Y-97104200D01*
X193370200Y-97104200D02*
X193370200Y-92786200D01*
D12*
%TO.C,C32*%
X156495000Y-77992000D02*
X156495000Y-76734000D01*
X154655000Y-77992000D02*
X154655000Y-76734000D01*
%TO.C,C8*%
X119645400Y-53396400D02*
X120903400Y-53396400D01*
X119645400Y-51556400D02*
X120903400Y-51556400D01*
%TO.C,C7*%
X125462000Y-63086500D02*
X126720000Y-63086500D01*
X125462000Y-61246500D02*
X126720000Y-61246500D01*
%TO.C,C6*%
X130906000Y-73138000D02*
X130906000Y-74396000D01*
X132746000Y-73138000D02*
X132746000Y-74396000D01*
%TO.C,C5*%
X125462000Y-75596000D02*
X126720000Y-75596000D01*
X125462000Y-73756000D02*
X126720000Y-73756000D01*
%TO.C,C4*%
X116998000Y-95645000D02*
X116998000Y-94387000D01*
X115158000Y-95645000D02*
X115158000Y-94387000D01*
%TO.C,C3*%
X115158000Y-88886000D02*
X115158000Y-90144000D01*
X116998000Y-88886000D02*
X116998000Y-90144000D01*
%TO.C,J11*%
X116290400Y-86089800D02*
X116290400Y-83429800D01*
X113690400Y-86089800D02*
X116290400Y-86089800D01*
X113690400Y-83429800D02*
X116290400Y-83429800D01*
X113690400Y-86089800D02*
X113690400Y-83429800D01*
X112420400Y-86089800D02*
X111090400Y-86089800D01*
X111090400Y-86089800D02*
X111090400Y-84759800D01*
D13*
%TO.C,R42*%
X185940700Y-51574700D02*
X184289700Y-51574700D01*
X190258700Y-51574700D02*
X191909700Y-51574700D01*
X190258700Y-52463700D02*
X190258700Y-50685700D01*
X190258700Y-50685700D02*
X185940700Y-50685700D01*
X185940700Y-50685700D02*
X185940700Y-52463700D01*
X185940700Y-52463700D02*
X190258700Y-52463700D01*
%TO.C,R41*%
X185953400Y-53644800D02*
X184302400Y-53644800D01*
X190271400Y-53644800D02*
X191922400Y-53644800D01*
X190271400Y-54533800D02*
X190271400Y-52755800D01*
X190271400Y-52755800D02*
X185953400Y-52755800D01*
X185953400Y-52755800D02*
X185953400Y-54533800D01*
X185953400Y-54533800D02*
X190271400Y-54533800D01*
D12*
%TO.C,Q32*%
X189995400Y-61057400D02*
X193595400Y-61057400D01*
X193633878Y-61045878D02*
G75*
G03*
X191795400Y-56607400I-1838478J1838478D01*
G01*
X189956922Y-61045878D02*
G75*
G02*
X191795400Y-56607400I1838478J1838478D01*
G01*
%TO.C,Q31*%
X195469100Y-61057400D02*
X199069100Y-61057400D01*
X199107578Y-61045878D02*
G75*
G03*
X197269100Y-56607400I-1838478J1838478D01*
G01*
X195430622Y-61045878D02*
G75*
G02*
X197269100Y-56607400I1838478J1838478D01*
G01*
%TO.C,J51*%
X169448500Y-65225200D02*
X168338500Y-65225200D01*
X169448500Y-64465200D02*
X169448500Y-65225200D01*
X167775029Y-63705200D02*
X167228500Y-63705200D01*
X169448500Y-63705200D02*
X168901971Y-63705200D01*
X167228500Y-63705200D02*
X167228500Y-57420200D01*
X169448500Y-63705200D02*
X169448500Y-57420200D01*
X168030970Y-57420200D02*
X167228500Y-57420200D01*
X169448500Y-57420200D02*
X168646030Y-57420200D01*
%TO.C,R1*%
X118523000Y-80621000D02*
X118523000Y-80291000D01*
X118523000Y-80291000D02*
X125063000Y-80291000D01*
X125063000Y-80291000D02*
X125063000Y-80621000D01*
X118523000Y-82701000D02*
X118523000Y-83031000D01*
X118523000Y-83031000D02*
X125063000Y-83031000D01*
X125063000Y-83031000D02*
X125063000Y-82701000D01*
%TO.C,R2*%
X118523000Y-83669000D02*
X118523000Y-83339000D01*
X118523000Y-83339000D02*
X125063000Y-83339000D01*
X125063000Y-83339000D02*
X125063000Y-83669000D01*
X118523000Y-85749000D02*
X118523000Y-86079000D01*
X118523000Y-86079000D02*
X125063000Y-86079000D01*
X125063000Y-86079000D02*
X125063000Y-85749000D01*
%TO.C,R3*%
X163920300Y-63671200D02*
X163590300Y-63671200D01*
X163590300Y-63671200D02*
X163590300Y-57131200D01*
X163590300Y-57131200D02*
X163920300Y-57131200D01*
X166000300Y-63671200D02*
X166330300Y-63671200D01*
X166330300Y-63671200D02*
X166330300Y-57131200D01*
X166330300Y-57131200D02*
X166000300Y-57131200D01*
%TO.C,R11*%
X155226000Y-59412000D02*
X155226000Y-59082000D01*
X155226000Y-59082000D02*
X161766000Y-59082000D01*
X161766000Y-59082000D02*
X161766000Y-59412000D01*
X155226000Y-61492000D02*
X155226000Y-61822000D01*
X155226000Y-61822000D02*
X161766000Y-61822000D01*
X161766000Y-61822000D02*
X161766000Y-61492000D01*
%TO.C,R12*%
X155226000Y-62714000D02*
X155226000Y-62384000D01*
X155226000Y-62384000D02*
X161766000Y-62384000D01*
X161766000Y-62384000D02*
X161766000Y-62714000D01*
X155226000Y-64794000D02*
X155226000Y-65124000D01*
X155226000Y-65124000D02*
X161766000Y-65124000D01*
X161766000Y-65124000D02*
X161766000Y-64794000D01*
%TO.C,R31*%
X186231400Y-78111600D02*
X186561400Y-78111600D01*
X186561400Y-78111600D02*
X186561400Y-84651600D01*
X186561400Y-84651600D02*
X186231400Y-84651600D01*
X184151400Y-78111600D02*
X183821400Y-78111600D01*
X183821400Y-78111600D02*
X183821400Y-84651600D01*
X183821400Y-84651600D02*
X184151400Y-84651600D01*
%TO.C,R32*%
X142089000Y-80232000D02*
X141759000Y-80232000D01*
X141759000Y-80232000D02*
X141759000Y-73692000D01*
X141759000Y-73692000D02*
X142089000Y-73692000D01*
X144169000Y-80232000D02*
X144499000Y-80232000D01*
X144499000Y-80232000D02*
X144499000Y-73692000D01*
X144499000Y-73692000D02*
X144169000Y-73692000D01*
%TO.C,R33*%
X135993000Y-80232000D02*
X135663000Y-80232000D01*
X135663000Y-80232000D02*
X135663000Y-73692000D01*
X135663000Y-73692000D02*
X135993000Y-73692000D01*
X138073000Y-80232000D02*
X138403000Y-80232000D01*
X138403000Y-80232000D02*
X138403000Y-73692000D01*
X138403000Y-73692000D02*
X138073000Y-73692000D01*
%TO.C,R34*%
X139041000Y-80232000D02*
X138711000Y-80232000D01*
X138711000Y-80232000D02*
X138711000Y-73692000D01*
X138711000Y-73692000D02*
X139041000Y-73692000D01*
X141121000Y-80232000D02*
X141451000Y-80232000D01*
X141451000Y-80232000D02*
X141451000Y-73692000D01*
X141451000Y-73692000D02*
X141121000Y-73692000D01*
%TO.C,R35*%
X171553000Y-80613000D02*
X171223000Y-80613000D01*
X171223000Y-80613000D02*
X171223000Y-74073000D01*
X171223000Y-74073000D02*
X171553000Y-74073000D01*
X173633000Y-80613000D02*
X173963000Y-80613000D01*
X173963000Y-80613000D02*
X173963000Y-74073000D01*
X173963000Y-74073000D02*
X173633000Y-74073000D01*
%TO.C,R36*%
X150265000Y-73692000D02*
X150595000Y-73692000D01*
X150595000Y-73692000D02*
X150595000Y-80232000D01*
X150595000Y-80232000D02*
X150265000Y-80232000D01*
X148185000Y-73692000D02*
X147855000Y-73692000D01*
X147855000Y-73692000D02*
X147855000Y-80232000D01*
X147855000Y-80232000D02*
X148185000Y-80232000D01*
%TO.C,R37*%
X170331000Y-74073000D02*
X170661000Y-74073000D01*
X170661000Y-74073000D02*
X170661000Y-80613000D01*
X170661000Y-80613000D02*
X170331000Y-80613000D01*
X168251000Y-74073000D02*
X167921000Y-74073000D01*
X167921000Y-74073000D02*
X167921000Y-80613000D01*
X167921000Y-80613000D02*
X168251000Y-80613000D01*
%TO.C,R38*%
X147217000Y-73692000D02*
X147547000Y-73692000D01*
X147547000Y-73692000D02*
X147547000Y-80232000D01*
X147547000Y-80232000D02*
X147217000Y-80232000D01*
X145137000Y-73692000D02*
X144807000Y-73692000D01*
X144807000Y-73692000D02*
X144807000Y-80232000D01*
X144807000Y-80232000D02*
X145137000Y-80232000D01*
%TO.C,R39*%
X151233000Y-80232000D02*
X150903000Y-80232000D01*
X150903000Y-80232000D02*
X150903000Y-73692000D01*
X150903000Y-73692000D02*
X151233000Y-73692000D01*
X153313000Y-80232000D02*
X153643000Y-80232000D01*
X153643000Y-80232000D02*
X153643000Y-73692000D01*
X153643000Y-73692000D02*
X153313000Y-73692000D01*
%TO.C,R40*%
X174728000Y-80613000D02*
X174398000Y-80613000D01*
X174398000Y-80613000D02*
X174398000Y-74073000D01*
X174398000Y-74073000D02*
X174728000Y-74073000D01*
X176808000Y-80613000D02*
X177138000Y-80613000D01*
X177138000Y-80613000D02*
X177138000Y-74073000D01*
X177138000Y-74073000D02*
X176808000Y-74073000D01*
%TO.C,R5*%
X108744000Y-54383000D02*
X108744000Y-54713000D01*
X115284000Y-54383000D02*
X108744000Y-54383000D01*
X115284000Y-54713000D02*
X115284000Y-54383000D01*
X108744000Y-57123000D02*
X108744000Y-56793000D01*
X115284000Y-57123000D02*
X108744000Y-57123000D01*
X115284000Y-56793000D02*
X115284000Y-57123000D01*
%TO.C,R30*%
X186231400Y-68358000D02*
X186561400Y-68358000D01*
X186561400Y-68358000D02*
X186561400Y-74898000D01*
X186561400Y-74898000D02*
X186231400Y-74898000D01*
X184151400Y-68358000D02*
X183821400Y-68358000D01*
X183821400Y-68358000D02*
X183821400Y-74898000D01*
X183821400Y-74898000D02*
X184151400Y-74898000D01*
D14*
%TO.C,U10*%
X176149000Y-89027000D02*
X186309000Y-89027000D01*
X186309000Y-99187000D02*
X176149000Y-99187000D01*
D13*
X179959000Y-96139000D02*
X182499000Y-96139000D01*
X182499000Y-92075000D02*
X179959000Y-92075000D01*
D14*
X186309000Y-99187000D02*
X186309000Y-89027000D01*
X176149000Y-99187000D02*
X176149000Y-89027000D01*
D13*
X182499000Y-92075000D02*
X182499000Y-96139000D01*
X179959000Y-96139000D02*
X179959000Y-92075000D01*
X179959000Y-89027000D02*
G75*
G03*
X181229000Y-90297000I1270000J0D01*
G01*
X181229000Y-90297000D02*
G75*
G03*
X182499000Y-89027000I0J1270000D01*
G01*
D12*
%TO.C,C10*%
X185383600Y-88877000D02*
X182143600Y-88877000D01*
X185383600Y-86637000D02*
X182143600Y-86637000D01*
X185383600Y-88877000D02*
X185383600Y-88812000D01*
X185383600Y-86702000D02*
X185383600Y-86637000D01*
X182143600Y-88877000D02*
X182143600Y-88812000D01*
X182143600Y-86702000D02*
X182143600Y-86637000D01*
%TO.C,C31*%
X180453000Y-74467200D02*
X181711000Y-74467200D01*
X180453000Y-76307200D02*
X181711000Y-76307200D01*
%TO.C,C30*%
X181700200Y-74122800D02*
X180442200Y-74122800D01*
X181700200Y-72282800D02*
X180442200Y-72282800D01*
D14*
%TO.C,J8*%
X91313000Y-72390000D02*
X91694000Y-72390000D01*
X91313000Y-72390000D02*
X91313000Y-74041000D01*
X91313000Y-74041000D02*
X91694000Y-74041000D01*
X91313000Y-58039000D02*
X91694000Y-58039000D01*
X91313000Y-58039000D02*
X91313000Y-59690000D01*
X91313000Y-59690000D02*
X91694000Y-59690000D01*
X99060000Y-72136000D02*
X91694000Y-72136000D01*
X99060000Y-59944000D02*
X91694000Y-59944000D01*
X91694000Y-57785000D02*
X113284000Y-57785000D01*
X113284000Y-57785000D02*
X113284000Y-74295000D01*
X113284000Y-74295000D02*
X91694000Y-74295000D01*
X91694000Y-57785000D02*
X91694000Y-74295000D01*
X97282000Y-67564000D02*
X97282000Y-64516000D01*
X97282000Y-67056000D02*
X91694000Y-67056000D01*
X99060000Y-67564000D02*
X97282000Y-67564000D01*
X97282000Y-64516000D02*
X99060000Y-64516000D01*
X91694000Y-65024000D02*
X97282000Y-65024000D01*
X99060000Y-59944000D02*
X99060000Y-72136000D01*
D12*
%TO.C,C2*%
X109742000Y-77120000D02*
X108484000Y-77120000D01*
X109742000Y-75280000D02*
X108484000Y-75280000D01*
%TO.C,C1*%
X103479000Y-77120000D02*
X102221000Y-77120000D01*
X103479000Y-75280000D02*
X102221000Y-75280000D01*
%TO.C,J4*%
X129854000Y-82490000D02*
X127194000Y-82490000D01*
X129854000Y-85090000D02*
X129854000Y-82490000D01*
X127194000Y-85090000D02*
X127194000Y-82490000D01*
X129854000Y-85090000D02*
X127194000Y-85090000D01*
X129854000Y-86360000D02*
X129854000Y-87690000D01*
X129854000Y-87690000D02*
X128524000Y-87690000D01*
D15*
%TO.C,SW1*%
X133731000Y-57404000D02*
X133731000Y-51308000D01*
X133731000Y-51308000D02*
X139827000Y-51308000D01*
X139827000Y-51308000D02*
X139827000Y-57404000D01*
X139827000Y-57404000D02*
X133731000Y-57404000D01*
D16*
X137582219Y-54356000D02*
G75*
G03*
X137582219Y-54356000I-803219J0D01*
G01*
D12*
%TO.C,J2*%
X152396500Y-63306000D02*
X151066500Y-63306000D01*
X152396500Y-61976000D02*
X152396500Y-63306000D01*
X149796500Y-63306000D02*
X147196500Y-63306000D01*
X149796500Y-60706000D02*
X149796500Y-63306000D01*
X152396500Y-60706000D02*
X149796500Y-60706000D01*
X147196500Y-63306000D02*
X147196500Y-53026000D01*
X152396500Y-60706000D02*
X152396500Y-53026000D01*
X152396500Y-53026000D02*
X147196500Y-53026000D01*
%TO.C,J52*%
X172195800Y-53120600D02*
X172195800Y-50460600D01*
X159435800Y-53120600D02*
X172195800Y-53120600D01*
X159435800Y-50460600D02*
X172195800Y-50460600D01*
X159435800Y-53120600D02*
X159435800Y-50460600D01*
X158165800Y-53120600D02*
X156835800Y-53120600D01*
X156835800Y-53120600D02*
X156835800Y-51790600D01*
%TO.C,U4*%
X119761000Y-63514000D02*
X116341000Y-63514000D01*
X116341000Y-63514000D02*
X116341000Y-63804000D01*
X119761000Y-63514000D02*
X123181000Y-63514000D01*
X123181000Y-63514000D02*
X123181000Y-63804000D01*
X119761000Y-72884000D02*
X116341000Y-72884000D01*
X116341000Y-72884000D02*
X116341000Y-72594000D01*
X119761000Y-72884000D02*
X123181000Y-72884000D01*
X123181000Y-72884000D02*
X123181000Y-72594000D01*
X123181000Y-72594000D02*
X125461000Y-72594000D01*
%TO.C,J30*%
X189238000Y-75528000D02*
X187708000Y-75528000D01*
X196258000Y-75058000D02*
X187238000Y-75058000D01*
D17*
X196188000Y-75058000D02*
X196258000Y-75058000D01*
D12*
X205238000Y-75058000D02*
X198458000Y-75058000D01*
X205238000Y-61858000D02*
X205238000Y-75058000D01*
D17*
X205228000Y-61858000D02*
X205238000Y-61858000D01*
D12*
X205238000Y-61858000D02*
X198458000Y-61858000D01*
D17*
X205118000Y-61858000D02*
X205238000Y-61858000D01*
D12*
X187238000Y-61858000D02*
X196258000Y-61858000D01*
X187238000Y-75058000D02*
X187238000Y-61858000D01*
D18*
%TO.C,R4*%
X116079000Y-62103000D02*
X121921000Y-62103000D01*
D12*
%TO.C,JP1*%
X142688000Y-57337000D02*
X145348000Y-57337000D01*
X142688000Y-54737000D02*
X142688000Y-57337000D01*
X145348000Y-54737000D02*
X145348000Y-57337000D01*
X142688000Y-54737000D02*
X145348000Y-54737000D01*
X142688000Y-53467000D02*
X142688000Y-52137000D01*
X142688000Y-52137000D02*
X144018000Y-52137000D01*
%TO.C,JP2*%
X142688000Y-63560000D02*
X145348000Y-63560000D01*
X142688000Y-60960000D02*
X142688000Y-63560000D01*
X145348000Y-60960000D02*
X145348000Y-63560000D01*
X142688000Y-60960000D02*
X145348000Y-60960000D01*
X142688000Y-59690000D02*
X142688000Y-58360000D01*
X142688000Y-58360000D02*
X144018000Y-58360000D01*
%TO.C,D21*%
X180875500Y-58149200D02*
X180875500Y-58305200D01*
X180875500Y-60465200D02*
X180875500Y-60621200D01*
X183476630Y-60465037D02*
G75*
G02*
X181394539Y-60465200I-1041130J1079837D01*
G01*
X183476630Y-58305363D02*
G75*
G03*
X181394539Y-58305200I-1041130J-1079837D01*
G01*
X184107835Y-60463808D02*
G75*
G02*
X180875500Y-60620716I-1672335J1078608D01*
G01*
X184107835Y-58306592D02*
G75*
G03*
X180875500Y-58149684I-1672335J-1078608D01*
G01*
%TO.C,D20*%
X180875500Y-62695800D02*
X180875500Y-62851800D01*
X180875500Y-65011800D02*
X180875500Y-65167800D01*
X183476630Y-65011637D02*
G75*
G02*
X181394539Y-65011800I-1041130J1079837D01*
G01*
X183476630Y-62851963D02*
G75*
G03*
X181394539Y-62851800I-1041130J-1079837D01*
G01*
X184107835Y-65010408D02*
G75*
G02*
X180875500Y-65167316I-1672335J1078608D01*
G01*
X184107835Y-62853192D02*
G75*
G03*
X180875500Y-62696284I-1672335J-1078608D01*
G01*
%TO.C,D1*%
X159056900Y-54898000D02*
X159056900Y-55054000D01*
X159056900Y-57214000D02*
X159056900Y-57370000D01*
X161658030Y-57213837D02*
G75*
G02*
X159575939Y-57214000I-1041130J1079837D01*
G01*
X161658030Y-55054163D02*
G75*
G03*
X159575939Y-55054000I-1041130J-1079837D01*
G01*
X162289235Y-57212608D02*
G75*
G02*
X159056900Y-57369516I-1672335J1078608D01*
G01*
X162289235Y-55055392D02*
G75*
G03*
X159056900Y-54898484I-1672335J-1078608D01*
G01*
D14*
%TO.C,U30*%
X157353000Y-72263000D02*
X167513000Y-72263000D01*
X167513000Y-82423000D02*
X157353000Y-82423000D01*
D13*
X161163000Y-79375000D02*
X163703000Y-79375000D01*
X163703000Y-75311000D02*
X161163000Y-75311000D01*
D14*
X167513000Y-82423000D02*
X167513000Y-72263000D01*
X157353000Y-82423000D02*
X157353000Y-72263000D01*
D13*
X163703000Y-75311000D02*
X163703000Y-79375000D01*
X161163000Y-79375000D02*
X161163000Y-75311000D01*
X161163000Y-72263000D02*
G75*
G03*
X162433000Y-73533000I1270000J0D01*
G01*
X162433000Y-73533000D02*
G75*
G03*
X163703000Y-72263000I0J1270000D01*
G01*
D14*
%TO.C,U3*%
X129667000Y-73279000D02*
X119507000Y-73279000D01*
X119507000Y-63119000D02*
X129667000Y-63119000D01*
D13*
X125857000Y-66167000D02*
X123317000Y-66167000D01*
X123317000Y-70231000D02*
X125857000Y-70231000D01*
D14*
X119507000Y-63119000D02*
X119507000Y-73279000D01*
X129667000Y-63119000D02*
X129667000Y-73279000D01*
D13*
X123317000Y-70231000D02*
X123317000Y-66167000D01*
X125857000Y-66167000D02*
X125857000Y-70231000D01*
X125857000Y-73279000D02*
G75*
G03*
X124587000Y-72009000I-1270000J0D01*
G01*
X124587000Y-72009000D02*
G75*
G03*
X123317000Y-73279000I0J-1270000D01*
G01*
D12*
%TO.C,U2*%
X114268000Y-87336000D02*
X114268000Y-97576000D01*
X109627000Y-87336000D02*
X109627000Y-97576000D01*
X114268000Y-87336000D02*
X109627000Y-87336000D01*
X114268000Y-97576000D02*
X109627000Y-97576000D01*
X112758000Y-87336000D02*
X112758000Y-97576000D01*
X114268000Y-90606000D02*
X112758000Y-90606000D01*
X114268000Y-94307000D02*
X112758000Y-94307000D01*
%TO.C,U1*%
X101179000Y-77502000D02*
X111419000Y-77502000D01*
X101179000Y-82143000D02*
X111419000Y-82143000D01*
X101179000Y-77502000D02*
X101179000Y-82143000D01*
X111419000Y-77502000D02*
X111419000Y-82143000D01*
X101179000Y-79012000D02*
X111419000Y-79012000D01*
X104449000Y-77502000D02*
X104449000Y-79012000D01*
X108150000Y-77502000D02*
X108150000Y-79012000D01*
%TO.C,Q30*%
X179149600Y-82495000D02*
X182749600Y-82495000D01*
X182788078Y-82483478D02*
G75*
G03*
X180949600Y-78045000I-1838478J1838478D01*
G01*
X179111122Y-82483478D02*
G75*
G02*
X180949600Y-78045000I1838478J1838478D01*
G01*
%TO.C,PS1*%
X128819000Y-60462000D02*
X117049000Y-60462000D01*
X128819000Y-60462000D02*
X128819000Y-54122000D01*
X128819000Y-54122000D02*
X117049000Y-54122000D01*
X117049000Y-60462000D02*
X117049000Y-54122000D01*
X129069000Y-55072000D02*
X129069000Y-53872000D01*
X129069000Y-53872000D02*
X127869000Y-53872000D01*
%TO.C,J12*%
X189238000Y-90006000D02*
X187708000Y-90006000D01*
X196258000Y-89536000D02*
X187238000Y-89536000D01*
D17*
X196188000Y-89536000D02*
X196258000Y-89536000D01*
D12*
X205238000Y-89536000D02*
X198458000Y-89536000D01*
X205238000Y-76336000D02*
X205238000Y-89536000D01*
D17*
X205228000Y-76336000D02*
X205238000Y-76336000D01*
D12*
X205238000Y-76336000D02*
X198458000Y-76336000D01*
D17*
X205118000Y-76336000D02*
X205238000Y-76336000D01*
D12*
X187238000Y-76336000D02*
X196258000Y-76336000D01*
X187238000Y-89536000D02*
X187238000Y-76336000D01*
%TO.C,J6*%
X117128600Y-53323800D02*
X117128600Y-50663800D01*
X114528600Y-53323800D02*
X117128600Y-53323800D01*
X114528600Y-50663800D02*
X117128600Y-50663800D01*
X114528600Y-53323800D02*
X114528600Y-50663800D01*
X113258600Y-53323800D02*
X111928600Y-53323800D01*
X111928600Y-53323800D02*
X111928600Y-51993800D01*
D14*
%TO.C,J5*%
X136370060Y-63649860D02*
X136370060Y-64150240D01*
X136171940Y-63649860D02*
X136370060Y-63649860D01*
X136171940Y-64150240D02*
X136171940Y-63649860D01*
X131269740Y-64648080D02*
X141272260Y-64648080D01*
X140771880Y-64150240D02*
X131770120Y-64150240D01*
X131269740Y-60149740D02*
X141272260Y-60149740D01*
X134368540Y-63649860D02*
X134368540Y-64150240D01*
X134170420Y-63649860D02*
X134368540Y-63649860D01*
X134170420Y-64150240D02*
X134170420Y-63649860D01*
X138170920Y-64150240D02*
X138170920Y-63649860D01*
X138170920Y-63649860D02*
X138369040Y-63649860D01*
X138369040Y-63649860D02*
X138369040Y-64150240D01*
X141272260Y-61348620D02*
X140771880Y-61348620D01*
X140771880Y-62649100D02*
X141272260Y-62649100D01*
X131770120Y-62649100D02*
X131269740Y-62649100D01*
X131770120Y-61348620D02*
X131269740Y-61348620D01*
X133769100Y-60149740D02*
X133769100Y-60650120D01*
X133769100Y-60650120D02*
X131770120Y-60650120D01*
X131770120Y-60650120D02*
X131770120Y-64150240D01*
X140771880Y-64150240D02*
X140771880Y-60650120D01*
X140771880Y-60650120D02*
X138772900Y-60650120D01*
X138772900Y-60650120D02*
X138772900Y-60149740D01*
X131269740Y-60149740D02*
X131269740Y-64648080D01*
X141272260Y-60149740D02*
X141272260Y-64648080D01*
X132969000Y-60149740D02*
X132969000Y-59949080D01*
X132969000Y-59949080D02*
X132669280Y-59949080D01*
X132669280Y-59949080D02*
X132669280Y-60149740D01*
%TO.C,J1*%
X98927920Y-82113120D02*
X98927920Y-91114880D01*
X94427040Y-82113120D02*
X94427040Y-91114880D01*
X94427040Y-91114880D02*
X109026960Y-91114880D01*
X109026960Y-91114880D02*
X109026960Y-82113120D01*
X109026960Y-82113120D02*
X94427040Y-82113120D01*
%TD*%
%TO.C,J31*%
D18*
X189030076Y-55357780D02*
X189030076Y-56072066D01*
X188982457Y-56214923D01*
X188887219Y-56310161D01*
X188744361Y-56357780D01*
X188649123Y-56357780D01*
X189411028Y-55357780D02*
X190030076Y-55357780D01*
X189696742Y-55738733D01*
X189839600Y-55738733D01*
X189934838Y-55786352D01*
X189982457Y-55833971D01*
X190030076Y-55929209D01*
X190030076Y-56167304D01*
X189982457Y-56262542D01*
X189934838Y-56310161D01*
X189839600Y-56357780D01*
X189553885Y-56357780D01*
X189458647Y-56310161D01*
X189411028Y-56262542D01*
X190982457Y-56357780D02*
X190411028Y-56357780D01*
X190696742Y-56357780D02*
X190696742Y-55357780D01*
X190601504Y-55500638D01*
X190506266Y-55595876D01*
X190411028Y-55643495D01*
%TO.C,J32*%
X187836276Y-62469780D02*
X187836276Y-63184066D01*
X187788657Y-63326923D01*
X187693419Y-63422161D01*
X187550561Y-63469780D01*
X187455323Y-63469780D01*
X188217228Y-62469780D02*
X188836276Y-62469780D01*
X188502942Y-62850733D01*
X188645800Y-62850733D01*
X188741038Y-62898352D01*
X188788657Y-62945971D01*
X188836276Y-63041209D01*
X188836276Y-63279304D01*
X188788657Y-63374542D01*
X188741038Y-63422161D01*
X188645800Y-63469780D01*
X188360085Y-63469780D01*
X188264847Y-63422161D01*
X188217228Y-63374542D01*
X189217228Y-62565019D02*
X189264847Y-62517400D01*
X189360085Y-62469780D01*
X189598180Y-62469780D01*
X189693419Y-62517400D01*
X189741038Y-62565019D01*
X189788657Y-62660257D01*
X189788657Y-62755495D01*
X189741038Y-62898352D01*
X189169609Y-63469780D01*
X189788657Y-63469780D01*
%TO.C,J10*%
X197869276Y-93229180D02*
X197869276Y-93943466D01*
X197821657Y-94086323D01*
X197726419Y-94181561D01*
X197583561Y-94229180D01*
X197488323Y-94229180D01*
X198869276Y-94229180D02*
X198297847Y-94229180D01*
X198583561Y-94229180D02*
X198583561Y-93229180D01*
X198488323Y-93372038D01*
X198393085Y-93467276D01*
X198297847Y-93514895D01*
X199488323Y-93229180D02*
X199583561Y-93229180D01*
X199678800Y-93276800D01*
X199726419Y-93324419D01*
X199774038Y-93419657D01*
X199821657Y-93610133D01*
X199821657Y-93848228D01*
X199774038Y-94038704D01*
X199726419Y-94133942D01*
X199678800Y-94181561D01*
X199583561Y-94229180D01*
X199488323Y-94229180D01*
X199393085Y-94181561D01*
X199345466Y-94133942D01*
X199297847Y-94038704D01*
X199250228Y-93848228D01*
X199250228Y-93610133D01*
X199297847Y-93419657D01*
X199345466Y-93324419D01*
X199393085Y-93276800D01*
X199488323Y-93229180D01*
%TO.C,J7*%
X114347666Y-79462380D02*
X114347666Y-80176666D01*
X114300047Y-80319523D01*
X114204809Y-80414761D01*
X114061952Y-80462380D01*
X113966714Y-80462380D01*
X114728619Y-79462380D02*
X115395285Y-79462380D01*
X114966714Y-80462380D01*
%TO.C,R15*%
D19*
X190979576Y-95787028D02*
X190314338Y-96210361D01*
X190979576Y-96512742D02*
X189582576Y-96512742D01*
X189582576Y-96028933D01*
X189649100Y-95907980D01*
X189715623Y-95847504D01*
X189848671Y-95787028D01*
X190048242Y-95787028D01*
X190181290Y-95847504D01*
X190247814Y-95907980D01*
X190314338Y-96028933D01*
X190314338Y-96512742D01*
X190979576Y-94577504D02*
X190979576Y-95303219D01*
X190979576Y-94940361D02*
X189582576Y-94940361D01*
X189782147Y-95061314D01*
X189915195Y-95182266D01*
X189981719Y-95303219D01*
X189582576Y-93428457D02*
X189582576Y-94033219D01*
X190247814Y-94093695D01*
X190181290Y-94033219D01*
X190114766Y-93912266D01*
X190114766Y-93609885D01*
X190181290Y-93488933D01*
X190247814Y-93428457D01*
X190380861Y-93367980D01*
X190713480Y-93367980D01*
X190846528Y-93428457D01*
X190913052Y-93488933D01*
X190979576Y-93609885D01*
X190979576Y-93912266D01*
X190913052Y-94033219D01*
X190846528Y-94093695D01*
%TO.C,R14*%
X188871376Y-95787028D02*
X188206138Y-96210361D01*
X188871376Y-96512742D02*
X187474376Y-96512742D01*
X187474376Y-96028933D01*
X187540900Y-95907980D01*
X187607423Y-95847504D01*
X187740471Y-95787028D01*
X187940042Y-95787028D01*
X188073090Y-95847504D01*
X188139614Y-95907980D01*
X188206138Y-96028933D01*
X188206138Y-96512742D01*
X188871376Y-94577504D02*
X188871376Y-95303219D01*
X188871376Y-94940361D02*
X187474376Y-94940361D01*
X187673947Y-95061314D01*
X187806995Y-95182266D01*
X187873519Y-95303219D01*
X187940042Y-93488933D02*
X188871376Y-93488933D01*
X187407852Y-93791314D02*
X188405709Y-94093695D01*
X188405709Y-93307504D01*
%TO.C,R13*%
X193113176Y-95761628D02*
X192447938Y-96184961D01*
X193113176Y-96487342D02*
X191716176Y-96487342D01*
X191716176Y-96003533D01*
X191782700Y-95882580D01*
X191849223Y-95822104D01*
X191982271Y-95761628D01*
X192181842Y-95761628D01*
X192314890Y-95822104D01*
X192381414Y-95882580D01*
X192447938Y-96003533D01*
X192447938Y-96487342D01*
X193113176Y-94552104D02*
X193113176Y-95277819D01*
X193113176Y-94914961D02*
X191716176Y-94914961D01*
X191915747Y-95035914D01*
X192048795Y-95156866D01*
X192115319Y-95277819D01*
X191716176Y-94128771D02*
X191716176Y-93342580D01*
X192248366Y-93765914D01*
X192248366Y-93584485D01*
X192314890Y-93463533D01*
X192381414Y-93403057D01*
X192514461Y-93342580D01*
X192847080Y-93342580D01*
X192980128Y-93403057D01*
X193046652Y-93463533D01*
X193113176Y-93584485D01*
X193113176Y-93947342D01*
X193046652Y-94068295D01*
X192980128Y-94128771D01*
%TO.C,C32*%
D18*
X155805142Y-73413857D02*
X155852761Y-73461476D01*
X155900380Y-73604333D01*
X155900380Y-73699571D01*
X155852761Y-73842428D01*
X155757523Y-73937666D01*
X155662285Y-73985285D01*
X155471809Y-74032904D01*
X155328952Y-74032904D01*
X155138476Y-73985285D01*
X155043238Y-73937666D01*
X154948000Y-73842428D01*
X154900380Y-73699571D01*
X154900380Y-73604333D01*
X154948000Y-73461476D01*
X154995619Y-73413857D01*
X154900380Y-73080523D02*
X154900380Y-72461476D01*
X155281333Y-72794809D01*
X155281333Y-72651952D01*
X155328952Y-72556714D01*
X155376571Y-72509095D01*
X155471809Y-72461476D01*
X155709904Y-72461476D01*
X155805142Y-72509095D01*
X155852761Y-72556714D01*
X155900380Y-72651952D01*
X155900380Y-72937666D01*
X155852761Y-73032904D01*
X155805142Y-73080523D01*
X154995619Y-72080523D02*
X154948000Y-72032904D01*
X154900380Y-71937666D01*
X154900380Y-71699571D01*
X154948000Y-71604333D01*
X154995619Y-71556714D01*
X155090857Y-71509095D01*
X155186095Y-71509095D01*
X155328952Y-71556714D01*
X155900380Y-72128142D01*
X155900380Y-71509095D01*
%TO.C,C8*%
X123429733Y-52909742D02*
X123382114Y-52957361D01*
X123239257Y-53004980D01*
X123144019Y-53004980D01*
X123001161Y-52957361D01*
X122905923Y-52862123D01*
X122858304Y-52766885D01*
X122810685Y-52576409D01*
X122810685Y-52433552D01*
X122858304Y-52243076D01*
X122905923Y-52147838D01*
X123001161Y-52052600D01*
X123144019Y-52004980D01*
X123239257Y-52004980D01*
X123382114Y-52052600D01*
X123429733Y-52100219D01*
X124001161Y-52433552D02*
X123905923Y-52385933D01*
X123858304Y-52338314D01*
X123810685Y-52243076D01*
X123810685Y-52195457D01*
X123858304Y-52100219D01*
X123905923Y-52052600D01*
X124001161Y-52004980D01*
X124191638Y-52004980D01*
X124286876Y-52052600D01*
X124334495Y-52100219D01*
X124382114Y-52195457D01*
X124382114Y-52243076D01*
X124334495Y-52338314D01*
X124286876Y-52385933D01*
X124191638Y-52433552D01*
X124001161Y-52433552D01*
X123905923Y-52481171D01*
X123858304Y-52528790D01*
X123810685Y-52624028D01*
X123810685Y-52814504D01*
X123858304Y-52909742D01*
X123905923Y-52957361D01*
X124001161Y-53004980D01*
X124191638Y-53004980D01*
X124286876Y-52957361D01*
X124334495Y-52909742D01*
X124382114Y-52814504D01*
X124382114Y-52624028D01*
X124334495Y-52528790D01*
X124286876Y-52481171D01*
X124191638Y-52433552D01*
%TO.C,C7*%
X125924333Y-60491642D02*
X125876714Y-60539261D01*
X125733857Y-60586880D01*
X125638619Y-60586880D01*
X125495761Y-60539261D01*
X125400523Y-60444023D01*
X125352904Y-60348785D01*
X125305285Y-60158309D01*
X125305285Y-60015452D01*
X125352904Y-59824976D01*
X125400523Y-59729738D01*
X125495761Y-59634500D01*
X125638619Y-59586880D01*
X125733857Y-59586880D01*
X125876714Y-59634500D01*
X125924333Y-59682119D01*
X126257666Y-59586880D02*
X126924333Y-59586880D01*
X126495761Y-60586880D01*
%TO.C,C6*%
X131548142Y-77763666D02*
X131595761Y-77811285D01*
X131643380Y-77954142D01*
X131643380Y-78049380D01*
X131595761Y-78192238D01*
X131500523Y-78287476D01*
X131405285Y-78335095D01*
X131214809Y-78382714D01*
X131071952Y-78382714D01*
X130881476Y-78335095D01*
X130786238Y-78287476D01*
X130691000Y-78192238D01*
X130643380Y-78049380D01*
X130643380Y-77954142D01*
X130691000Y-77811285D01*
X130738619Y-77763666D01*
X130643380Y-76906523D02*
X130643380Y-77097000D01*
X130691000Y-77192238D01*
X130738619Y-77239857D01*
X130881476Y-77335095D01*
X131071952Y-77382714D01*
X131452904Y-77382714D01*
X131548142Y-77335095D01*
X131595761Y-77287476D01*
X131643380Y-77192238D01*
X131643380Y-77001761D01*
X131595761Y-76906523D01*
X131548142Y-76858904D01*
X131452904Y-76811285D01*
X131214809Y-76811285D01*
X131119571Y-76858904D01*
X131071952Y-76906523D01*
X131024333Y-77001761D01*
X131024333Y-77192238D01*
X131071952Y-77287476D01*
X131119571Y-77335095D01*
X131214809Y-77382714D01*
%TO.C,C5*%
X126045933Y-76760342D02*
X125998314Y-76807961D01*
X125855457Y-76855580D01*
X125760219Y-76855580D01*
X125617361Y-76807961D01*
X125522123Y-76712723D01*
X125474504Y-76617485D01*
X125426885Y-76427009D01*
X125426885Y-76284152D01*
X125474504Y-76093676D01*
X125522123Y-75998438D01*
X125617361Y-75903200D01*
X125760219Y-75855580D01*
X125855457Y-75855580D01*
X125998314Y-75903200D01*
X126045933Y-75950819D01*
X126950695Y-75855580D02*
X126474504Y-75855580D01*
X126426885Y-76331771D01*
X126474504Y-76284152D01*
X126569742Y-76236533D01*
X126807838Y-76236533D01*
X126903076Y-76284152D01*
X126950695Y-76331771D01*
X126998314Y-76427009D01*
X126998314Y-76665104D01*
X126950695Y-76760342D01*
X126903076Y-76807961D01*
X126807838Y-76855580D01*
X126569742Y-76855580D01*
X126474504Y-76807961D01*
X126426885Y-76760342D01*
%TO.C,C4*%
X118784642Y-95543666D02*
X118832261Y-95591285D01*
X118879880Y-95734142D01*
X118879880Y-95829380D01*
X118832261Y-95972238D01*
X118737023Y-96067476D01*
X118641785Y-96115095D01*
X118451309Y-96162714D01*
X118308452Y-96162714D01*
X118117976Y-96115095D01*
X118022738Y-96067476D01*
X117927500Y-95972238D01*
X117879880Y-95829380D01*
X117879880Y-95734142D01*
X117927500Y-95591285D01*
X117975119Y-95543666D01*
X118213214Y-94686523D02*
X118879880Y-94686523D01*
X117832261Y-94924619D02*
X118546547Y-95162714D01*
X118546547Y-94543666D01*
%TO.C,C3*%
X118935142Y-89681666D02*
X118982761Y-89729285D01*
X119030380Y-89872142D01*
X119030380Y-89967380D01*
X118982761Y-90110238D01*
X118887523Y-90205476D01*
X118792285Y-90253095D01*
X118601809Y-90300714D01*
X118458952Y-90300714D01*
X118268476Y-90253095D01*
X118173238Y-90205476D01*
X118078000Y-90110238D01*
X118030380Y-89967380D01*
X118030380Y-89872142D01*
X118078000Y-89729285D01*
X118125619Y-89681666D01*
X118030380Y-89348333D02*
X118030380Y-88729285D01*
X118411333Y-89062619D01*
X118411333Y-88919761D01*
X118458952Y-88824523D01*
X118506571Y-88776904D01*
X118601809Y-88729285D01*
X118839904Y-88729285D01*
X118935142Y-88776904D01*
X118982761Y-88824523D01*
X119030380Y-88919761D01*
X119030380Y-89205476D01*
X118982761Y-89300714D01*
X118935142Y-89348333D01*
%TO.C,J11*%
X114887476Y-86167980D02*
X114887476Y-86882266D01*
X114839857Y-87025123D01*
X114744619Y-87120361D01*
X114601761Y-87167980D01*
X114506523Y-87167980D01*
X115887476Y-87167980D02*
X115316047Y-87167980D01*
X115601761Y-87167980D02*
X115601761Y-86167980D01*
X115506523Y-86310838D01*
X115411285Y-86406076D01*
X115316047Y-86453695D01*
X116839857Y-87167980D02*
X116268428Y-87167980D01*
X116554142Y-87167980D02*
X116554142Y-86167980D01*
X116458904Y-86310838D01*
X116363666Y-86406076D01*
X116268428Y-86453695D01*
%TO.C,R42*%
D19*
X187283271Y-52206676D02*
X186859938Y-51541438D01*
X186557557Y-52206676D02*
X186557557Y-50809676D01*
X187041366Y-50809676D01*
X187162319Y-50876200D01*
X187222795Y-50942723D01*
X187283271Y-51075771D01*
X187283271Y-51275342D01*
X187222795Y-51408390D01*
X187162319Y-51474914D01*
X187041366Y-51541438D01*
X186557557Y-51541438D01*
X188371842Y-51275342D02*
X188371842Y-52206676D01*
X188069461Y-50743152D02*
X187767080Y-51741009D01*
X188553271Y-51741009D01*
X188976604Y-50942723D02*
X189037080Y-50876200D01*
X189158033Y-50809676D01*
X189460414Y-50809676D01*
X189581366Y-50876200D01*
X189641842Y-50942723D01*
X189702319Y-51075771D01*
X189702319Y-51208819D01*
X189641842Y-51408390D01*
X188916128Y-52206676D01*
X189702319Y-52206676D01*
%TO.C,R41*%
X187295971Y-54352976D02*
X186872638Y-53687738D01*
X186570257Y-54352976D02*
X186570257Y-52955976D01*
X187054066Y-52955976D01*
X187175019Y-53022500D01*
X187235495Y-53089023D01*
X187295971Y-53222071D01*
X187295971Y-53421642D01*
X187235495Y-53554690D01*
X187175019Y-53621214D01*
X187054066Y-53687738D01*
X186570257Y-53687738D01*
X188384542Y-53421642D02*
X188384542Y-54352976D01*
X188082161Y-52889452D02*
X187779780Y-53887309D01*
X188565971Y-53887309D01*
X189715019Y-54352976D02*
X188989304Y-54352976D01*
X189352161Y-54352976D02*
X189352161Y-52955976D01*
X189231209Y-53155547D01*
X189110257Y-53288595D01*
X188989304Y-53355119D01*
%TO.C,Q32*%
D18*
X191312857Y-57956395D02*
X191236666Y-57918300D01*
X191160476Y-57842109D01*
X191046190Y-57727823D01*
X190970000Y-57689728D01*
X190893809Y-57689728D01*
X190931904Y-57880204D02*
X190855714Y-57842109D01*
X190779523Y-57765919D01*
X190741428Y-57613538D01*
X190741428Y-57346871D01*
X190779523Y-57194490D01*
X190855714Y-57118300D01*
X190931904Y-57080204D01*
X191084285Y-57080204D01*
X191160476Y-57118300D01*
X191236666Y-57194490D01*
X191274761Y-57346871D01*
X191274761Y-57613538D01*
X191236666Y-57765919D01*
X191160476Y-57842109D01*
X191084285Y-57880204D01*
X190931904Y-57880204D01*
X191541428Y-57080204D02*
X192036666Y-57080204D01*
X191770000Y-57384966D01*
X191884285Y-57384966D01*
X191960476Y-57423061D01*
X191998571Y-57461157D01*
X192036666Y-57537347D01*
X192036666Y-57727823D01*
X191998571Y-57804014D01*
X191960476Y-57842109D01*
X191884285Y-57880204D01*
X191655714Y-57880204D01*
X191579523Y-57842109D01*
X191541428Y-57804014D01*
X192341428Y-57156395D02*
X192379523Y-57118300D01*
X192455714Y-57080204D01*
X192646190Y-57080204D01*
X192722380Y-57118300D01*
X192760476Y-57156395D01*
X192798571Y-57232585D01*
X192798571Y-57308776D01*
X192760476Y-57423061D01*
X192303333Y-57880204D01*
X192798571Y-57880204D01*
%TO.C,Q31*%
X196837357Y-58032595D02*
X196761166Y-57994500D01*
X196684976Y-57918309D01*
X196570690Y-57804023D01*
X196494500Y-57765928D01*
X196418309Y-57765928D01*
X196456404Y-57956404D02*
X196380214Y-57918309D01*
X196304023Y-57842119D01*
X196265928Y-57689738D01*
X196265928Y-57423071D01*
X196304023Y-57270690D01*
X196380214Y-57194500D01*
X196456404Y-57156404D01*
X196608785Y-57156404D01*
X196684976Y-57194500D01*
X196761166Y-57270690D01*
X196799261Y-57423071D01*
X196799261Y-57689738D01*
X196761166Y-57842119D01*
X196684976Y-57918309D01*
X196608785Y-57956404D01*
X196456404Y-57956404D01*
X197065928Y-57156404D02*
X197561166Y-57156404D01*
X197294500Y-57461166D01*
X197408785Y-57461166D01*
X197484976Y-57499261D01*
X197523071Y-57537357D01*
X197561166Y-57613547D01*
X197561166Y-57804023D01*
X197523071Y-57880214D01*
X197484976Y-57918309D01*
X197408785Y-57956404D01*
X197180214Y-57956404D01*
X197104023Y-57918309D01*
X197065928Y-57880214D01*
X198323071Y-57956404D02*
X197865928Y-57956404D01*
X198094500Y-57956404D02*
X198094500Y-57156404D01*
X198018309Y-57270690D01*
X197942119Y-57346880D01*
X197865928Y-57384976D01*
%TO.C,J51*%
X167567076Y-55916580D02*
X167567076Y-56630866D01*
X167519457Y-56773723D01*
X167424219Y-56868961D01*
X167281361Y-56916580D01*
X167186123Y-56916580D01*
X168519457Y-55916580D02*
X168043266Y-55916580D01*
X167995647Y-56392771D01*
X168043266Y-56345152D01*
X168138504Y-56297533D01*
X168376600Y-56297533D01*
X168471838Y-56345152D01*
X168519457Y-56392771D01*
X168567076Y-56488009D01*
X168567076Y-56726104D01*
X168519457Y-56821342D01*
X168471838Y-56868961D01*
X168376600Y-56916580D01*
X168138504Y-56916580D01*
X168043266Y-56868961D01*
X167995647Y-56821342D01*
X169519457Y-56916580D02*
X168948028Y-56916580D01*
X169233742Y-56916580D02*
X169233742Y-55916580D01*
X169138504Y-56059438D01*
X169043266Y-56154676D01*
X168948028Y-56202295D01*
%TO.C,R1*%
X121626333Y-82113380D02*
X121293000Y-81637190D01*
X121054904Y-82113380D02*
X121054904Y-81113380D01*
X121435857Y-81113380D01*
X121531095Y-81161000D01*
X121578714Y-81208619D01*
X121626333Y-81303857D01*
X121626333Y-81446714D01*
X121578714Y-81541952D01*
X121531095Y-81589571D01*
X121435857Y-81637190D01*
X121054904Y-81637190D01*
X122578714Y-82113380D02*
X122007285Y-82113380D01*
X122293000Y-82113380D02*
X122293000Y-81113380D01*
X122197761Y-81256238D01*
X122102523Y-81351476D01*
X122007285Y-81399095D01*
%TO.C,R2*%
X121626333Y-85161380D02*
X121293000Y-84685190D01*
X121054904Y-85161380D02*
X121054904Y-84161380D01*
X121435857Y-84161380D01*
X121531095Y-84209000D01*
X121578714Y-84256619D01*
X121626333Y-84351857D01*
X121626333Y-84494714D01*
X121578714Y-84589952D01*
X121531095Y-84637571D01*
X121435857Y-84685190D01*
X121054904Y-84685190D01*
X122007285Y-84256619D02*
X122054904Y-84209000D01*
X122150142Y-84161380D01*
X122388238Y-84161380D01*
X122483476Y-84209000D01*
X122531095Y-84256619D01*
X122578714Y-84351857D01*
X122578714Y-84447095D01*
X122531095Y-84589952D01*
X121959666Y-85161380D01*
X122578714Y-85161380D01*
%TO.C,R3*%
X165412680Y-60631366D02*
X164936490Y-60964700D01*
X165412680Y-61202795D02*
X164412680Y-61202795D01*
X164412680Y-60821842D01*
X164460300Y-60726604D01*
X164507919Y-60678985D01*
X164603157Y-60631366D01*
X164746014Y-60631366D01*
X164841252Y-60678985D01*
X164888871Y-60726604D01*
X164936490Y-60821842D01*
X164936490Y-61202795D01*
X164412680Y-60298033D02*
X164412680Y-59678985D01*
X164793633Y-60012319D01*
X164793633Y-59869461D01*
X164841252Y-59774223D01*
X164888871Y-59726604D01*
X164984109Y-59678985D01*
X165222204Y-59678985D01*
X165317442Y-59726604D01*
X165365061Y-59774223D01*
X165412680Y-59869461D01*
X165412680Y-60155176D01*
X165365061Y-60250414D01*
X165317442Y-60298033D01*
%TO.C,R11*%
X157853142Y-60904380D02*
X157519809Y-60428190D01*
X157281714Y-60904380D02*
X157281714Y-59904380D01*
X157662666Y-59904380D01*
X157757904Y-59952000D01*
X157805523Y-59999619D01*
X157853142Y-60094857D01*
X157853142Y-60237714D01*
X157805523Y-60332952D01*
X157757904Y-60380571D01*
X157662666Y-60428190D01*
X157281714Y-60428190D01*
X158805523Y-60904380D02*
X158234095Y-60904380D01*
X158519809Y-60904380D02*
X158519809Y-59904380D01*
X158424571Y-60047238D01*
X158329333Y-60142476D01*
X158234095Y-60190095D01*
X159757904Y-60904380D02*
X159186476Y-60904380D01*
X159472190Y-60904380D02*
X159472190Y-59904380D01*
X159376952Y-60047238D01*
X159281714Y-60142476D01*
X159186476Y-60190095D01*
%TO.C,R12*%
X157853142Y-64206380D02*
X157519809Y-63730190D01*
X157281714Y-64206380D02*
X157281714Y-63206380D01*
X157662666Y-63206380D01*
X157757904Y-63254000D01*
X157805523Y-63301619D01*
X157853142Y-63396857D01*
X157853142Y-63539714D01*
X157805523Y-63634952D01*
X157757904Y-63682571D01*
X157662666Y-63730190D01*
X157281714Y-63730190D01*
X158805523Y-64206380D02*
X158234095Y-64206380D01*
X158519809Y-64206380D02*
X158519809Y-63206380D01*
X158424571Y-63349238D01*
X158329333Y-63444476D01*
X158234095Y-63492095D01*
X159186476Y-63301619D02*
X159234095Y-63254000D01*
X159329333Y-63206380D01*
X159567428Y-63206380D01*
X159662666Y-63254000D01*
X159710285Y-63301619D01*
X159757904Y-63396857D01*
X159757904Y-63492095D01*
X159710285Y-63634952D01*
X159138857Y-64206380D01*
X159757904Y-64206380D01*
%TO.C,R31*%
X185643780Y-82024457D02*
X185167590Y-82357790D01*
X185643780Y-82595885D02*
X184643780Y-82595885D01*
X184643780Y-82214933D01*
X184691400Y-82119695D01*
X184739019Y-82072076D01*
X184834257Y-82024457D01*
X184977114Y-82024457D01*
X185072352Y-82072076D01*
X185119971Y-82119695D01*
X185167590Y-82214933D01*
X185167590Y-82595885D01*
X184643780Y-81691123D02*
X184643780Y-81072076D01*
X185024733Y-81405409D01*
X185024733Y-81262552D01*
X185072352Y-81167314D01*
X185119971Y-81119695D01*
X185215209Y-81072076D01*
X185453304Y-81072076D01*
X185548542Y-81119695D01*
X185596161Y-81167314D01*
X185643780Y-81262552D01*
X185643780Y-81548266D01*
X185596161Y-81643504D01*
X185548542Y-81691123D01*
X185643780Y-80119695D02*
X185643780Y-80691123D01*
X185643780Y-80405409D02*
X184643780Y-80405409D01*
X184786638Y-80500647D01*
X184881876Y-80595885D01*
X184929495Y-80691123D01*
%TO.C,R32*%
X143581380Y-77604857D02*
X143105190Y-77938190D01*
X143581380Y-78176285D02*
X142581380Y-78176285D01*
X142581380Y-77795333D01*
X142629000Y-77700095D01*
X142676619Y-77652476D01*
X142771857Y-77604857D01*
X142914714Y-77604857D01*
X143009952Y-77652476D01*
X143057571Y-77700095D01*
X143105190Y-77795333D01*
X143105190Y-78176285D01*
X142581380Y-77271523D02*
X142581380Y-76652476D01*
X142962333Y-76985809D01*
X142962333Y-76842952D01*
X143009952Y-76747714D01*
X143057571Y-76700095D01*
X143152809Y-76652476D01*
X143390904Y-76652476D01*
X143486142Y-76700095D01*
X143533761Y-76747714D01*
X143581380Y-76842952D01*
X143581380Y-77128666D01*
X143533761Y-77223904D01*
X143486142Y-77271523D01*
X142676619Y-76271523D02*
X142629000Y-76223904D01*
X142581380Y-76128666D01*
X142581380Y-75890571D01*
X142629000Y-75795333D01*
X142676619Y-75747714D01*
X142771857Y-75700095D01*
X142867095Y-75700095D01*
X143009952Y-75747714D01*
X143581380Y-76319142D01*
X143581380Y-75700095D01*
%TO.C,R33*%
X137485380Y-77604857D02*
X137009190Y-77938190D01*
X137485380Y-78176285D02*
X136485380Y-78176285D01*
X136485380Y-77795333D01*
X136533000Y-77700095D01*
X136580619Y-77652476D01*
X136675857Y-77604857D01*
X136818714Y-77604857D01*
X136913952Y-77652476D01*
X136961571Y-77700095D01*
X137009190Y-77795333D01*
X137009190Y-78176285D01*
X136485380Y-77271523D02*
X136485380Y-76652476D01*
X136866333Y-76985809D01*
X136866333Y-76842952D01*
X136913952Y-76747714D01*
X136961571Y-76700095D01*
X137056809Y-76652476D01*
X137294904Y-76652476D01*
X137390142Y-76700095D01*
X137437761Y-76747714D01*
X137485380Y-76842952D01*
X137485380Y-77128666D01*
X137437761Y-77223904D01*
X137390142Y-77271523D01*
X136485380Y-76319142D02*
X136485380Y-75700095D01*
X136866333Y-76033428D01*
X136866333Y-75890571D01*
X136913952Y-75795333D01*
X136961571Y-75747714D01*
X137056809Y-75700095D01*
X137294904Y-75700095D01*
X137390142Y-75747714D01*
X137437761Y-75795333D01*
X137485380Y-75890571D01*
X137485380Y-76176285D01*
X137437761Y-76271523D01*
X137390142Y-76319142D01*
%TO.C,R34*%
X140533380Y-77604857D02*
X140057190Y-77938190D01*
X140533380Y-78176285D02*
X139533380Y-78176285D01*
X139533380Y-77795333D01*
X139581000Y-77700095D01*
X139628619Y-77652476D01*
X139723857Y-77604857D01*
X139866714Y-77604857D01*
X139961952Y-77652476D01*
X140009571Y-77700095D01*
X140057190Y-77795333D01*
X140057190Y-78176285D01*
X139533380Y-77271523D02*
X139533380Y-76652476D01*
X139914333Y-76985809D01*
X139914333Y-76842952D01*
X139961952Y-76747714D01*
X140009571Y-76700095D01*
X140104809Y-76652476D01*
X140342904Y-76652476D01*
X140438142Y-76700095D01*
X140485761Y-76747714D01*
X140533380Y-76842952D01*
X140533380Y-77128666D01*
X140485761Y-77223904D01*
X140438142Y-77271523D01*
X139866714Y-75795333D02*
X140533380Y-75795333D01*
X139485761Y-76033428D02*
X140200047Y-76271523D01*
X140200047Y-75652476D01*
%TO.C,R35*%
X173045380Y-77984857D02*
X172569190Y-78318190D01*
X173045380Y-78556285D02*
X172045380Y-78556285D01*
X172045380Y-78175333D01*
X172093000Y-78080095D01*
X172140619Y-78032476D01*
X172235857Y-77984857D01*
X172378714Y-77984857D01*
X172473952Y-78032476D01*
X172521571Y-78080095D01*
X172569190Y-78175333D01*
X172569190Y-78556285D01*
X172045380Y-77651523D02*
X172045380Y-77032476D01*
X172426333Y-77365809D01*
X172426333Y-77222952D01*
X172473952Y-77127714D01*
X172521571Y-77080095D01*
X172616809Y-77032476D01*
X172854904Y-77032476D01*
X172950142Y-77080095D01*
X172997761Y-77127714D01*
X173045380Y-77222952D01*
X173045380Y-77508666D01*
X172997761Y-77603904D01*
X172950142Y-77651523D01*
X172045380Y-76127714D02*
X172045380Y-76603904D01*
X172521571Y-76651523D01*
X172473952Y-76603904D01*
X172426333Y-76508666D01*
X172426333Y-76270571D01*
X172473952Y-76175333D01*
X172521571Y-76127714D01*
X172616809Y-76080095D01*
X172854904Y-76080095D01*
X172950142Y-76127714D01*
X172997761Y-76175333D01*
X173045380Y-76270571D01*
X173045380Y-76508666D01*
X172997761Y-76603904D01*
X172950142Y-76651523D01*
%TO.C,R36*%
X149677380Y-77604857D02*
X149201190Y-77938190D01*
X149677380Y-78176285D02*
X148677380Y-78176285D01*
X148677380Y-77795333D01*
X148725000Y-77700095D01*
X148772619Y-77652476D01*
X148867857Y-77604857D01*
X149010714Y-77604857D01*
X149105952Y-77652476D01*
X149153571Y-77700095D01*
X149201190Y-77795333D01*
X149201190Y-78176285D01*
X148677380Y-77271523D02*
X148677380Y-76652476D01*
X149058333Y-76985809D01*
X149058333Y-76842952D01*
X149105952Y-76747714D01*
X149153571Y-76700095D01*
X149248809Y-76652476D01*
X149486904Y-76652476D01*
X149582142Y-76700095D01*
X149629761Y-76747714D01*
X149677380Y-76842952D01*
X149677380Y-77128666D01*
X149629761Y-77223904D01*
X149582142Y-77271523D01*
X148677380Y-75795333D02*
X148677380Y-75985809D01*
X148725000Y-76081047D01*
X148772619Y-76128666D01*
X148915476Y-76223904D01*
X149105952Y-76271523D01*
X149486904Y-76271523D01*
X149582142Y-76223904D01*
X149629761Y-76176285D01*
X149677380Y-76081047D01*
X149677380Y-75890571D01*
X149629761Y-75795333D01*
X149582142Y-75747714D01*
X149486904Y-75700095D01*
X149248809Y-75700095D01*
X149153571Y-75747714D01*
X149105952Y-75795333D01*
X149058333Y-75890571D01*
X149058333Y-76081047D01*
X149105952Y-76176285D01*
X149153571Y-76223904D01*
X149248809Y-76271523D01*
%TO.C,R37*%
X169743380Y-77985857D02*
X169267190Y-78319190D01*
X169743380Y-78557285D02*
X168743380Y-78557285D01*
X168743380Y-78176333D01*
X168791000Y-78081095D01*
X168838619Y-78033476D01*
X168933857Y-77985857D01*
X169076714Y-77985857D01*
X169171952Y-78033476D01*
X169219571Y-78081095D01*
X169267190Y-78176333D01*
X169267190Y-78557285D01*
X168743380Y-77652523D02*
X168743380Y-77033476D01*
X169124333Y-77366809D01*
X169124333Y-77223952D01*
X169171952Y-77128714D01*
X169219571Y-77081095D01*
X169314809Y-77033476D01*
X169552904Y-77033476D01*
X169648142Y-77081095D01*
X169695761Y-77128714D01*
X169743380Y-77223952D01*
X169743380Y-77509666D01*
X169695761Y-77604904D01*
X169648142Y-77652523D01*
X168743380Y-76700142D02*
X168743380Y-76033476D01*
X169743380Y-76462047D01*
%TO.C,R38*%
X146629380Y-77604857D02*
X146153190Y-77938190D01*
X146629380Y-78176285D02*
X145629380Y-78176285D01*
X145629380Y-77795333D01*
X145677000Y-77700095D01*
X145724619Y-77652476D01*
X145819857Y-77604857D01*
X145962714Y-77604857D01*
X146057952Y-77652476D01*
X146105571Y-77700095D01*
X146153190Y-77795333D01*
X146153190Y-78176285D01*
X145629380Y-77271523D02*
X145629380Y-76652476D01*
X146010333Y-76985809D01*
X146010333Y-76842952D01*
X146057952Y-76747714D01*
X146105571Y-76700095D01*
X146200809Y-76652476D01*
X146438904Y-76652476D01*
X146534142Y-76700095D01*
X146581761Y-76747714D01*
X146629380Y-76842952D01*
X146629380Y-77128666D01*
X146581761Y-77223904D01*
X146534142Y-77271523D01*
X146057952Y-76081047D02*
X146010333Y-76176285D01*
X145962714Y-76223904D01*
X145867476Y-76271523D01*
X145819857Y-76271523D01*
X145724619Y-76223904D01*
X145677000Y-76176285D01*
X145629380Y-76081047D01*
X145629380Y-75890571D01*
X145677000Y-75795333D01*
X145724619Y-75747714D01*
X145819857Y-75700095D01*
X145867476Y-75700095D01*
X145962714Y-75747714D01*
X146010333Y-75795333D01*
X146057952Y-75890571D01*
X146057952Y-76081047D01*
X146105571Y-76176285D01*
X146153190Y-76223904D01*
X146248428Y-76271523D01*
X146438904Y-76271523D01*
X146534142Y-76223904D01*
X146581761Y-76176285D01*
X146629380Y-76081047D01*
X146629380Y-75890571D01*
X146581761Y-75795333D01*
X146534142Y-75747714D01*
X146438904Y-75700095D01*
X146248428Y-75700095D01*
X146153190Y-75747714D01*
X146105571Y-75795333D01*
X146057952Y-75890571D01*
%TO.C,R39*%
X152725380Y-77604857D02*
X152249190Y-77938190D01*
X152725380Y-78176285D02*
X151725380Y-78176285D01*
X151725380Y-77795333D01*
X151773000Y-77700095D01*
X151820619Y-77652476D01*
X151915857Y-77604857D01*
X152058714Y-77604857D01*
X152153952Y-77652476D01*
X152201571Y-77700095D01*
X152249190Y-77795333D01*
X152249190Y-78176285D01*
X151725380Y-77271523D02*
X151725380Y-76652476D01*
X152106333Y-76985809D01*
X152106333Y-76842952D01*
X152153952Y-76747714D01*
X152201571Y-76700095D01*
X152296809Y-76652476D01*
X152534904Y-76652476D01*
X152630142Y-76700095D01*
X152677761Y-76747714D01*
X152725380Y-76842952D01*
X152725380Y-77128666D01*
X152677761Y-77223904D01*
X152630142Y-77271523D01*
X152725380Y-76176285D02*
X152725380Y-75985809D01*
X152677761Y-75890571D01*
X152630142Y-75842952D01*
X152487285Y-75747714D01*
X152296809Y-75700095D01*
X151915857Y-75700095D01*
X151820619Y-75747714D01*
X151773000Y-75795333D01*
X151725380Y-75890571D01*
X151725380Y-76081047D01*
X151773000Y-76176285D01*
X151820619Y-76223904D01*
X151915857Y-76271523D01*
X152153952Y-76271523D01*
X152249190Y-76223904D01*
X152296809Y-76176285D01*
X152344428Y-76081047D01*
X152344428Y-75890571D01*
X152296809Y-75795333D01*
X152249190Y-75747714D01*
X152153952Y-75700095D01*
%TO.C,R40*%
X176220380Y-77985857D02*
X175744190Y-78319190D01*
X176220380Y-78557285D02*
X175220380Y-78557285D01*
X175220380Y-78176333D01*
X175268000Y-78081095D01*
X175315619Y-78033476D01*
X175410857Y-77985857D01*
X175553714Y-77985857D01*
X175648952Y-78033476D01*
X175696571Y-78081095D01*
X175744190Y-78176333D01*
X175744190Y-78557285D01*
X175553714Y-77128714D02*
X176220380Y-77128714D01*
X175172761Y-77366809D02*
X175887047Y-77604904D01*
X175887047Y-76985857D01*
X175220380Y-76414428D02*
X175220380Y-76319190D01*
X175268000Y-76223952D01*
X175315619Y-76176333D01*
X175410857Y-76128714D01*
X175601333Y-76081095D01*
X175839428Y-76081095D01*
X176029904Y-76128714D01*
X176125142Y-76176333D01*
X176172761Y-76223952D01*
X176220380Y-76319190D01*
X176220380Y-76414428D01*
X176172761Y-76509666D01*
X176125142Y-76557285D01*
X176029904Y-76604904D01*
X175839428Y-76652523D01*
X175601333Y-76652523D01*
X175410857Y-76604904D01*
X175315619Y-76557285D01*
X175268000Y-76509666D01*
X175220380Y-76414428D01*
%TO.C,R5*%
X111847333Y-56205380D02*
X111514000Y-55729190D01*
X111275904Y-56205380D02*
X111275904Y-55205380D01*
X111656857Y-55205380D01*
X111752095Y-55253000D01*
X111799714Y-55300619D01*
X111847333Y-55395857D01*
X111847333Y-55538714D01*
X111799714Y-55633952D01*
X111752095Y-55681571D01*
X111656857Y-55729190D01*
X111275904Y-55729190D01*
X112752095Y-55205380D02*
X112275904Y-55205380D01*
X112228285Y-55681571D01*
X112275904Y-55633952D01*
X112371142Y-55586333D01*
X112609238Y-55586333D01*
X112704476Y-55633952D01*
X112752095Y-55681571D01*
X112799714Y-55776809D01*
X112799714Y-56014904D01*
X112752095Y-56110142D01*
X112704476Y-56157761D01*
X112609238Y-56205380D01*
X112371142Y-56205380D01*
X112275904Y-56157761D01*
X112228285Y-56110142D01*
%TO.C,R30*%
X185643780Y-72270857D02*
X185167590Y-72604190D01*
X185643780Y-72842285D02*
X184643780Y-72842285D01*
X184643780Y-72461333D01*
X184691400Y-72366095D01*
X184739019Y-72318476D01*
X184834257Y-72270857D01*
X184977114Y-72270857D01*
X185072352Y-72318476D01*
X185119971Y-72366095D01*
X185167590Y-72461333D01*
X185167590Y-72842285D01*
X184643780Y-71937523D02*
X184643780Y-71318476D01*
X185024733Y-71651809D01*
X185024733Y-71508952D01*
X185072352Y-71413714D01*
X185119971Y-71366095D01*
X185215209Y-71318476D01*
X185453304Y-71318476D01*
X185548542Y-71366095D01*
X185596161Y-71413714D01*
X185643780Y-71508952D01*
X185643780Y-71794666D01*
X185596161Y-71889904D01*
X185548542Y-71937523D01*
X184643780Y-70699428D02*
X184643780Y-70604190D01*
X184691400Y-70508952D01*
X184739019Y-70461333D01*
X184834257Y-70413714D01*
X185024733Y-70366095D01*
X185262828Y-70366095D01*
X185453304Y-70413714D01*
X185548542Y-70461333D01*
X185596161Y-70508952D01*
X185643780Y-70604190D01*
X185643780Y-70699428D01*
X185596161Y-70794666D01*
X185548542Y-70842285D01*
X185453304Y-70889904D01*
X185262828Y-70937523D01*
X185024733Y-70937523D01*
X184834257Y-70889904D01*
X184739019Y-70842285D01*
X184691400Y-70794666D01*
X184643780Y-70699428D01*
%TO.C,U10*%
D20*
X180394428Y-95522142D02*
X181628142Y-95522142D01*
X181773285Y-95467714D01*
X181845857Y-95413285D01*
X181918428Y-95304428D01*
X181918428Y-95086714D01*
X181845857Y-94977857D01*
X181773285Y-94923428D01*
X181628142Y-94869000D01*
X180394428Y-94869000D01*
X181918428Y-93726000D02*
X181918428Y-94379142D01*
X181918428Y-94052571D02*
X180394428Y-94052571D01*
X180612142Y-94161428D01*
X180757285Y-94270285D01*
X180829857Y-94379142D01*
X180394428Y-93018428D02*
X180394428Y-92909571D01*
X180467000Y-92800714D01*
X180539571Y-92746285D01*
X180684714Y-92691857D01*
X180975000Y-92637428D01*
X181337857Y-92637428D01*
X181628142Y-92691857D01*
X181773285Y-92746285D01*
X181845857Y-92800714D01*
X181918428Y-92909571D01*
X181918428Y-93018428D01*
X181845857Y-93127285D01*
X181773285Y-93181714D01*
X181628142Y-93236142D01*
X181337857Y-93290571D01*
X180975000Y-93290571D01*
X180684714Y-93236142D01*
X180539571Y-93181714D01*
X180467000Y-93127285D01*
X180394428Y-93018428D01*
D21*
D20*
X181718857Y-98007714D02*
X181791428Y-97844428D01*
X181791428Y-97572285D01*
X181718857Y-97463428D01*
X181646285Y-97409000D01*
X181501142Y-97354571D01*
X181356000Y-97354571D01*
X181210857Y-97409000D01*
X181138285Y-97463428D01*
X181065714Y-97572285D01*
X180993142Y-97790000D01*
X180920571Y-97898857D01*
X180848000Y-97953285D01*
X180702857Y-98007714D01*
X180557714Y-98007714D01*
X180412571Y-97953285D01*
X180340000Y-97898857D01*
X180267428Y-97790000D01*
X180267428Y-97517857D01*
X180340000Y-97354571D01*
X181791428Y-96864714D02*
X180267428Y-96864714D01*
X181791428Y-96211571D01*
X180267428Y-96211571D01*
X180267428Y-95776142D02*
X180267428Y-95014142D01*
X181791428Y-95504000D01*
X180267428Y-94034428D02*
X180267428Y-94578714D01*
X180993142Y-94633142D01*
X180920571Y-94578714D01*
X180848000Y-94469857D01*
X180848000Y-94197714D01*
X180920571Y-94088857D01*
X180993142Y-94034428D01*
X181138285Y-93980000D01*
X181501142Y-93980000D01*
X181646285Y-94034428D01*
X181718857Y-94088857D01*
X181791428Y-94197714D01*
X181791428Y-94469857D01*
X181718857Y-94578714D01*
X181646285Y-94633142D01*
X181791428Y-92891428D02*
X181791428Y-93544571D01*
X181791428Y-93218000D02*
X180267428Y-93218000D01*
X180485142Y-93326857D01*
X180630285Y-93435714D01*
X180702857Y-93544571D01*
X180267428Y-92510428D02*
X180267428Y-91748428D01*
X181791428Y-92238285D01*
X180267428Y-90823142D02*
X180267428Y-91040857D01*
X180340000Y-91149714D01*
X180412571Y-91204142D01*
X180630285Y-91313000D01*
X180920571Y-91367428D01*
X181501142Y-91367428D01*
X181646285Y-91313000D01*
X181718857Y-91258571D01*
X181791428Y-91149714D01*
X181791428Y-90932000D01*
X181718857Y-90823142D01*
X181646285Y-90768714D01*
X181501142Y-90714285D01*
X181138285Y-90714285D01*
X180993142Y-90768714D01*
X180920571Y-90823142D01*
X180848000Y-90932000D01*
X180848000Y-91149714D01*
X180920571Y-91258571D01*
X180993142Y-91313000D01*
X181138285Y-91367428D01*
D21*
%TO.C,C10*%
D18*
X183287942Y-85859857D02*
X183335561Y-85907476D01*
X183383180Y-86050333D01*
X183383180Y-86145571D01*
X183335561Y-86288428D01*
X183240323Y-86383666D01*
X183145085Y-86431285D01*
X182954609Y-86478904D01*
X182811752Y-86478904D01*
X182621276Y-86431285D01*
X182526038Y-86383666D01*
X182430800Y-86288428D01*
X182383180Y-86145571D01*
X182383180Y-86050333D01*
X182430800Y-85907476D01*
X182478419Y-85859857D01*
X183383180Y-84907476D02*
X183383180Y-85478904D01*
X183383180Y-85193190D02*
X182383180Y-85193190D01*
X182526038Y-85288428D01*
X182621276Y-85383666D01*
X182668895Y-85478904D01*
X182383180Y-84288428D02*
X182383180Y-84193190D01*
X182430800Y-84097952D01*
X182478419Y-84050333D01*
X182573657Y-84002714D01*
X182764133Y-83955095D01*
X183002228Y-83955095D01*
X183192704Y-84002714D01*
X183287942Y-84050333D01*
X183335561Y-84097952D01*
X183383180Y-84193190D01*
X183383180Y-84288428D01*
X183335561Y-84383666D01*
X183287942Y-84431285D01*
X183192704Y-84478904D01*
X183002228Y-84526523D01*
X182764133Y-84526523D01*
X182573657Y-84478904D01*
X182478419Y-84431285D01*
X182430800Y-84383666D01*
X182383180Y-84288428D01*
%TO.C,C31*%
X180509942Y-77496942D02*
X180462323Y-77544561D01*
X180319466Y-77592180D01*
X180224228Y-77592180D01*
X180081371Y-77544561D01*
X179986133Y-77449323D01*
X179938514Y-77354085D01*
X179890895Y-77163609D01*
X179890895Y-77020752D01*
X179938514Y-76830276D01*
X179986133Y-76735038D01*
X180081371Y-76639800D01*
X180224228Y-76592180D01*
X180319466Y-76592180D01*
X180462323Y-76639800D01*
X180509942Y-76687419D01*
X180843276Y-76592180D02*
X181462323Y-76592180D01*
X181128990Y-76973133D01*
X181271847Y-76973133D01*
X181367085Y-77020752D01*
X181414704Y-77068371D01*
X181462323Y-77163609D01*
X181462323Y-77401704D01*
X181414704Y-77496942D01*
X181367085Y-77544561D01*
X181271847Y-77592180D01*
X180986133Y-77592180D01*
X180890895Y-77544561D01*
X180843276Y-77496942D01*
X182414704Y-77592180D02*
X181843276Y-77592180D01*
X182128990Y-77592180D02*
X182128990Y-76592180D01*
X182033752Y-76735038D01*
X181938514Y-76830276D01*
X181843276Y-76877895D01*
%TO.C,C30*%
X180687742Y-71985142D02*
X180640123Y-72032761D01*
X180497266Y-72080380D01*
X180402028Y-72080380D01*
X180259171Y-72032761D01*
X180163933Y-71937523D01*
X180116314Y-71842285D01*
X180068695Y-71651809D01*
X180068695Y-71508952D01*
X180116314Y-71318476D01*
X180163933Y-71223238D01*
X180259171Y-71128000D01*
X180402028Y-71080380D01*
X180497266Y-71080380D01*
X180640123Y-71128000D01*
X180687742Y-71175619D01*
X181021076Y-71080380D02*
X181640123Y-71080380D01*
X181306790Y-71461333D01*
X181449647Y-71461333D01*
X181544885Y-71508952D01*
X181592504Y-71556571D01*
X181640123Y-71651809D01*
X181640123Y-71889904D01*
X181592504Y-71985142D01*
X181544885Y-72032761D01*
X181449647Y-72080380D01*
X181163933Y-72080380D01*
X181068695Y-72032761D01*
X181021076Y-71985142D01*
X182259171Y-71080380D02*
X182354409Y-71080380D01*
X182449647Y-71128000D01*
X182497266Y-71175619D01*
X182544885Y-71270857D01*
X182592504Y-71461333D01*
X182592504Y-71699428D01*
X182544885Y-71889904D01*
X182497266Y-71985142D01*
X182449647Y-72032761D01*
X182354409Y-72080380D01*
X182259171Y-72080380D01*
X182163933Y-72032761D01*
X182116314Y-71985142D01*
X182068695Y-71889904D01*
X182021076Y-71699428D01*
X182021076Y-71461333D01*
X182068695Y-71270857D01*
X182116314Y-71175619D01*
X182163933Y-71128000D01*
X182259171Y-71080380D01*
%TO.C,J8*%
D15*
X89208428Y-66548000D02*
X90297000Y-66548000D01*
X90514714Y-66620571D01*
X90659857Y-66765714D01*
X90732428Y-66983428D01*
X90732428Y-67128571D01*
X89861571Y-65604571D02*
X89789000Y-65749714D01*
X89716428Y-65822285D01*
X89571285Y-65894857D01*
X89498714Y-65894857D01*
X89353571Y-65822285D01*
X89281000Y-65749714D01*
X89208428Y-65604571D01*
X89208428Y-65314285D01*
X89281000Y-65169142D01*
X89353571Y-65096571D01*
X89498714Y-65024000D01*
X89571285Y-65024000D01*
X89716428Y-65096571D01*
X89789000Y-65169142D01*
X89861571Y-65314285D01*
X89861571Y-65604571D01*
X89934142Y-65749714D01*
X90006714Y-65822285D01*
X90151857Y-65894857D01*
X90442142Y-65894857D01*
X90587285Y-65822285D01*
X90659857Y-65749714D01*
X90732428Y-65604571D01*
X90732428Y-65314285D01*
X90659857Y-65169142D01*
X90587285Y-65096571D01*
X90442142Y-65024000D01*
X90151857Y-65024000D01*
X90006714Y-65096571D01*
X89934142Y-65169142D01*
X89861571Y-65314285D01*
X104067428Y-67854285D02*
X103341714Y-68362285D01*
X104067428Y-68725142D02*
X102543428Y-68725142D01*
X102543428Y-68144571D01*
X102616000Y-67999428D01*
X102688571Y-67926857D01*
X102833714Y-67854285D01*
X103051428Y-67854285D01*
X103196571Y-67926857D01*
X103269142Y-67999428D01*
X103341714Y-68144571D01*
X103341714Y-68725142D01*
X102543428Y-66765714D02*
X103632000Y-66765714D01*
X103849714Y-66838285D01*
X103994857Y-66983428D01*
X104067428Y-67201142D01*
X104067428Y-67346285D01*
X103051428Y-65386857D02*
X104067428Y-65386857D01*
X102470857Y-65749714D02*
X103559428Y-66112571D01*
X103559428Y-65169142D01*
X102543428Y-63862857D02*
X102543428Y-64588571D01*
X103269142Y-64661142D01*
X103196571Y-64588571D01*
X103124000Y-64443428D01*
X103124000Y-64080571D01*
X103196571Y-63935428D01*
X103269142Y-63862857D01*
X103414285Y-63790285D01*
X103777142Y-63790285D01*
X103922285Y-63862857D01*
X103994857Y-63935428D01*
X104067428Y-64080571D01*
X104067428Y-64443428D01*
X103994857Y-64588571D01*
X103922285Y-64661142D01*
%TO.C,C2*%
D18*
X108946333Y-78607142D02*
X108898714Y-78654761D01*
X108755857Y-78702380D01*
X108660619Y-78702380D01*
X108517761Y-78654761D01*
X108422523Y-78559523D01*
X108374904Y-78464285D01*
X108327285Y-78273809D01*
X108327285Y-78130952D01*
X108374904Y-77940476D01*
X108422523Y-77845238D01*
X108517761Y-77750000D01*
X108660619Y-77702380D01*
X108755857Y-77702380D01*
X108898714Y-77750000D01*
X108946333Y-77797619D01*
X109327285Y-77797619D02*
X109374904Y-77750000D01*
X109470142Y-77702380D01*
X109708238Y-77702380D01*
X109803476Y-77750000D01*
X109851095Y-77797619D01*
X109898714Y-77892857D01*
X109898714Y-77988095D01*
X109851095Y-78130952D01*
X109279666Y-78702380D01*
X109898714Y-78702380D01*
%TO.C,C1*%
X102683333Y-78607142D02*
X102635714Y-78654761D01*
X102492857Y-78702380D01*
X102397619Y-78702380D01*
X102254761Y-78654761D01*
X102159523Y-78559523D01*
X102111904Y-78464285D01*
X102064285Y-78273809D01*
X102064285Y-78130952D01*
X102111904Y-77940476D01*
X102159523Y-77845238D01*
X102254761Y-77750000D01*
X102397619Y-77702380D01*
X102492857Y-77702380D01*
X102635714Y-77750000D01*
X102683333Y-77797619D01*
X103635714Y-78702380D02*
X103064285Y-78702380D01*
X103350000Y-78702380D02*
X103350000Y-77702380D01*
X103254761Y-77845238D01*
X103159523Y-77940476D01*
X103064285Y-77988095D01*
%TO.C,BP1*%
X133814298Y-89836951D02*
X133957155Y-89884570D01*
X134004774Y-89932189D01*
X134052393Y-90027427D01*
X134052393Y-90170284D01*
X134004774Y-90265522D01*
X133957155Y-90313141D01*
X133861917Y-90360760D01*
X133480964Y-90360760D01*
X133480964Y-89360760D01*
X133814298Y-89360760D01*
X133909536Y-89408380D01*
X133957155Y-89455999D01*
X134004774Y-89551237D01*
X134004774Y-89646475D01*
X133957155Y-89741713D01*
X133909536Y-89789332D01*
X133814298Y-89836951D01*
X133480964Y-89836951D01*
X134480964Y-90360760D02*
X134480964Y-89360760D01*
X134861917Y-89360760D01*
X134957155Y-89408380D01*
X135004774Y-89455999D01*
X135052393Y-89551237D01*
X135052393Y-89694094D01*
X135004774Y-89789332D01*
X134957155Y-89836951D01*
X134861917Y-89884570D01*
X134480964Y-89884570D01*
X136004774Y-90360760D02*
X135433345Y-90360760D01*
X135719060Y-90360760D02*
X135719060Y-89360760D01*
X135623821Y-89503618D01*
X135528583Y-89598856D01*
X135433345Y-89646475D01*
X133230904Y-65921000D02*
X133135666Y-65873380D01*
X132992809Y-65873380D01*
X132849952Y-65921000D01*
X132754714Y-66016238D01*
X132707095Y-66111476D01*
X132659476Y-66301952D01*
X132659476Y-66444809D01*
X132707095Y-66635285D01*
X132754714Y-66730523D01*
X132849952Y-66825761D01*
X132992809Y-66873380D01*
X133088047Y-66873380D01*
X133230904Y-66825761D01*
X133278523Y-66778142D01*
X133278523Y-66444809D01*
X133088047Y-66444809D01*
X137001380Y-65873380D02*
X137620428Y-65873380D01*
X137287095Y-66254333D01*
X137429952Y-66254333D01*
X137525190Y-66301952D01*
X137572809Y-66349571D01*
X137620428Y-66444809D01*
X137620428Y-66682904D01*
X137572809Y-66778142D01*
X137525190Y-66825761D01*
X137429952Y-66873380D01*
X137144238Y-66873380D01*
X137049000Y-66825761D01*
X137001380Y-66778142D01*
X138049000Y-66778142D02*
X138096619Y-66825761D01*
X138049000Y-66873380D01*
X138001380Y-66825761D01*
X138049000Y-66778142D01*
X138049000Y-66873380D01*
X138429952Y-65873380D02*
X139049000Y-65873380D01*
X138715666Y-66254333D01*
X138858523Y-66254333D01*
X138953761Y-66301952D01*
X139001380Y-66349571D01*
X139049000Y-66444809D01*
X139049000Y-66682904D01*
X139001380Y-66778142D01*
X138953761Y-66825761D01*
X138858523Y-66873380D01*
X138572809Y-66873380D01*
X138477571Y-66825761D01*
X138429952Y-66778142D01*
X175958523Y-86701380D02*
X175482333Y-86701380D01*
X175434714Y-87177571D01*
X175482333Y-87129952D01*
X175577571Y-87082333D01*
X175815666Y-87082333D01*
X175910904Y-87129952D01*
X175958523Y-87177571D01*
X176006142Y-87272809D01*
X176006142Y-87510904D01*
X175958523Y-87606142D01*
X175910904Y-87653761D01*
X175815666Y-87701380D01*
X175577571Y-87701380D01*
X175482333Y-87653761D01*
X175434714Y-87606142D01*
X176291857Y-86701380D02*
X176625190Y-87701380D01*
X176958523Y-86701380D01*
X173204238Y-87177571D02*
X173347095Y-87225190D01*
X173394714Y-87272809D01*
X173442333Y-87368047D01*
X173442333Y-87510904D01*
X173394714Y-87606142D01*
X173347095Y-87653761D01*
X173251857Y-87701380D01*
X172870904Y-87701380D01*
X172870904Y-86701380D01*
X173204238Y-86701380D01*
X173299476Y-86749000D01*
X173347095Y-86796619D01*
X173394714Y-86891857D01*
X173394714Y-86987095D01*
X173347095Y-87082333D01*
X173299476Y-87129952D01*
X173204238Y-87177571D01*
X172870904Y-87177571D01*
X173918523Y-87701380D02*
X174109000Y-87701380D01*
X174204238Y-87653761D01*
X174251857Y-87606142D01*
X174347095Y-87463285D01*
X174394714Y-87272809D01*
X174394714Y-86891857D01*
X174347095Y-86796619D01*
X174299476Y-86749000D01*
X174204238Y-86701380D01*
X174013761Y-86701380D01*
X173918523Y-86749000D01*
X173870904Y-86796619D01*
X173823285Y-86891857D01*
X173823285Y-87129952D01*
X173870904Y-87225190D01*
X173918523Y-87272809D01*
X174013761Y-87320428D01*
X174204238Y-87320428D01*
X174299476Y-87272809D01*
X174347095Y-87225190D01*
X174394714Y-87129952D01*
X170664238Y-87177571D02*
X170807095Y-87225190D01*
X170854714Y-87272809D01*
X170902333Y-87368047D01*
X170902333Y-87510904D01*
X170854714Y-87606142D01*
X170807095Y-87653761D01*
X170711857Y-87701380D01*
X170330904Y-87701380D01*
X170330904Y-86701380D01*
X170664238Y-86701380D01*
X170759476Y-86749000D01*
X170807095Y-86796619D01*
X170854714Y-86891857D01*
X170854714Y-86987095D01*
X170807095Y-87082333D01*
X170759476Y-87129952D01*
X170664238Y-87177571D01*
X170330904Y-87177571D01*
X171473761Y-87129952D02*
X171378523Y-87082333D01*
X171330904Y-87034714D01*
X171283285Y-86939476D01*
X171283285Y-86891857D01*
X171330904Y-86796619D01*
X171378523Y-86749000D01*
X171473761Y-86701380D01*
X171664238Y-86701380D01*
X171759476Y-86749000D01*
X171807095Y-86796619D01*
X171854714Y-86891857D01*
X171854714Y-86939476D01*
X171807095Y-87034714D01*
X171759476Y-87082333D01*
X171664238Y-87129952D01*
X171473761Y-87129952D01*
X171378523Y-87177571D01*
X171330904Y-87225190D01*
X171283285Y-87320428D01*
X171283285Y-87510904D01*
X171330904Y-87606142D01*
X171378523Y-87653761D01*
X171473761Y-87701380D01*
X171664238Y-87701380D01*
X171759476Y-87653761D01*
X171807095Y-87606142D01*
X171854714Y-87510904D01*
X171854714Y-87320428D01*
X171807095Y-87225190D01*
X171759476Y-87177571D01*
X171664238Y-87129952D01*
X168124238Y-87177571D02*
X168267095Y-87225190D01*
X168314714Y-87272809D01*
X168362333Y-87368047D01*
X168362333Y-87510904D01*
X168314714Y-87606142D01*
X168267095Y-87653761D01*
X168171857Y-87701380D01*
X167790904Y-87701380D01*
X167790904Y-86701380D01*
X168124238Y-86701380D01*
X168219476Y-86749000D01*
X168267095Y-86796619D01*
X168314714Y-86891857D01*
X168314714Y-86987095D01*
X168267095Y-87082333D01*
X168219476Y-87129952D01*
X168124238Y-87177571D01*
X167790904Y-87177571D01*
X168695666Y-86701380D02*
X169362333Y-86701380D01*
X168933761Y-87701380D01*
X165584238Y-87177571D02*
X165727095Y-87225190D01*
X165774714Y-87272809D01*
X165822333Y-87368047D01*
X165822333Y-87510904D01*
X165774714Y-87606142D01*
X165727095Y-87653761D01*
X165631857Y-87701380D01*
X165250904Y-87701380D01*
X165250904Y-86701380D01*
X165584238Y-86701380D01*
X165679476Y-86749000D01*
X165727095Y-86796619D01*
X165774714Y-86891857D01*
X165774714Y-86987095D01*
X165727095Y-87082333D01*
X165679476Y-87129952D01*
X165584238Y-87177571D01*
X165250904Y-87177571D01*
X166679476Y-86701380D02*
X166489000Y-86701380D01*
X166393761Y-86749000D01*
X166346142Y-86796619D01*
X166250904Y-86939476D01*
X166203285Y-87129952D01*
X166203285Y-87510904D01*
X166250904Y-87606142D01*
X166298523Y-87653761D01*
X166393761Y-87701380D01*
X166584238Y-87701380D01*
X166679476Y-87653761D01*
X166727095Y-87606142D01*
X166774714Y-87510904D01*
X166774714Y-87272809D01*
X166727095Y-87177571D01*
X166679476Y-87129952D01*
X166584238Y-87082333D01*
X166393761Y-87082333D01*
X166298523Y-87129952D01*
X166250904Y-87177571D01*
X166203285Y-87272809D01*
X163044238Y-87177571D02*
X163187095Y-87225190D01*
X163234714Y-87272809D01*
X163282333Y-87368047D01*
X163282333Y-87510904D01*
X163234714Y-87606142D01*
X163187095Y-87653761D01*
X163091857Y-87701380D01*
X162710904Y-87701380D01*
X162710904Y-86701380D01*
X163044238Y-86701380D01*
X163139476Y-86749000D01*
X163187095Y-86796619D01*
X163234714Y-86891857D01*
X163234714Y-86987095D01*
X163187095Y-87082333D01*
X163139476Y-87129952D01*
X163044238Y-87177571D01*
X162710904Y-87177571D01*
X164187095Y-86701380D02*
X163710904Y-86701380D01*
X163663285Y-87177571D01*
X163710904Y-87129952D01*
X163806142Y-87082333D01*
X164044238Y-87082333D01*
X164139476Y-87129952D01*
X164187095Y-87177571D01*
X164234714Y-87272809D01*
X164234714Y-87510904D01*
X164187095Y-87606142D01*
X164139476Y-87653761D01*
X164044238Y-87701380D01*
X163806142Y-87701380D01*
X163710904Y-87653761D01*
X163663285Y-87606142D01*
X160504238Y-87177571D02*
X160647095Y-87225190D01*
X160694714Y-87272809D01*
X160742333Y-87368047D01*
X160742333Y-87510904D01*
X160694714Y-87606142D01*
X160647095Y-87653761D01*
X160551857Y-87701380D01*
X160170904Y-87701380D01*
X160170904Y-86701380D01*
X160504238Y-86701380D01*
X160599476Y-86749000D01*
X160647095Y-86796619D01*
X160694714Y-86891857D01*
X160694714Y-86987095D01*
X160647095Y-87082333D01*
X160599476Y-87129952D01*
X160504238Y-87177571D01*
X160170904Y-87177571D01*
X161599476Y-87034714D02*
X161599476Y-87701380D01*
X161361380Y-86653761D02*
X161123285Y-87368047D01*
X161742333Y-87368047D01*
X157964238Y-87177571D02*
X158107095Y-87225190D01*
X158154714Y-87272809D01*
X158202333Y-87368047D01*
X158202333Y-87510904D01*
X158154714Y-87606142D01*
X158107095Y-87653761D01*
X158011857Y-87701380D01*
X157630904Y-87701380D01*
X157630904Y-86701380D01*
X157964238Y-86701380D01*
X158059476Y-86749000D01*
X158107095Y-86796619D01*
X158154714Y-86891857D01*
X158154714Y-86987095D01*
X158107095Y-87082333D01*
X158059476Y-87129952D01*
X157964238Y-87177571D01*
X157630904Y-87177571D01*
X158535666Y-86701380D02*
X159154714Y-86701380D01*
X158821380Y-87082333D01*
X158964238Y-87082333D01*
X159059476Y-87129952D01*
X159107095Y-87177571D01*
X159154714Y-87272809D01*
X159154714Y-87510904D01*
X159107095Y-87606142D01*
X159059476Y-87653761D01*
X158964238Y-87701380D01*
X158678523Y-87701380D01*
X158583285Y-87653761D01*
X158535666Y-87606142D01*
X154921857Y-87415666D02*
X155284714Y-87415666D01*
X154849285Y-87701380D02*
X155103285Y-86701380D01*
X155357285Y-87701380D01*
X156010428Y-87701380D02*
X155575000Y-87701380D01*
X155792714Y-87701380D02*
X155792714Y-86701380D01*
X155720142Y-86844238D01*
X155647571Y-86939476D01*
X155575000Y-86987095D01*
X156699857Y-86701380D02*
X156337000Y-86701380D01*
X156300714Y-87177571D01*
X156337000Y-87129952D01*
X156409571Y-87082333D01*
X156591000Y-87082333D01*
X156663571Y-87129952D01*
X156699857Y-87177571D01*
X156736142Y-87272809D01*
X156736142Y-87510904D01*
X156699857Y-87606142D01*
X156663571Y-87653761D01*
X156591000Y-87701380D01*
X156409571Y-87701380D01*
X156337000Y-87653761D01*
X156300714Y-87606142D01*
X152381857Y-87415666D02*
X152744714Y-87415666D01*
X152309285Y-87701380D02*
X152563285Y-86701380D01*
X152817285Y-87701380D01*
X153470428Y-87701380D02*
X153035000Y-87701380D01*
X153252714Y-87701380D02*
X153252714Y-86701380D01*
X153180142Y-86844238D01*
X153107571Y-86939476D01*
X153035000Y-86987095D01*
X153760714Y-86796619D02*
X153797000Y-86749000D01*
X153869571Y-86701380D01*
X154051000Y-86701380D01*
X154123571Y-86749000D01*
X154159857Y-86796619D01*
X154196142Y-86891857D01*
X154196142Y-86987095D01*
X154159857Y-87129952D01*
X153724428Y-87701380D01*
X154196142Y-87701380D01*
X149841857Y-87415666D02*
X150204714Y-87415666D01*
X149769285Y-87701380D02*
X150023285Y-86701380D01*
X150277285Y-87701380D01*
X150930428Y-87701380D02*
X150495000Y-87701380D01*
X150712714Y-87701380D02*
X150712714Y-86701380D01*
X150640142Y-86844238D01*
X150567571Y-86939476D01*
X150495000Y-86987095D01*
X151656142Y-87701380D02*
X151220714Y-87701380D01*
X151438428Y-87701380D02*
X151438428Y-86701380D01*
X151365857Y-86844238D01*
X151293285Y-86939476D01*
X151220714Y-86987095D01*
X147301857Y-87415666D02*
X147664714Y-87415666D01*
X147229285Y-87701380D02*
X147483285Y-86701380D01*
X147737285Y-87701380D01*
X148390428Y-87701380D02*
X147955000Y-87701380D01*
X148172714Y-87701380D02*
X148172714Y-86701380D01*
X148100142Y-86844238D01*
X148027571Y-86939476D01*
X147955000Y-86987095D01*
X148862142Y-86701380D02*
X148934714Y-86701380D01*
X149007285Y-86749000D01*
X149043571Y-86796619D01*
X149079857Y-86891857D01*
X149116142Y-87082333D01*
X149116142Y-87320428D01*
X149079857Y-87510904D01*
X149043571Y-87606142D01*
X149007285Y-87653761D01*
X148934714Y-87701380D01*
X148862142Y-87701380D01*
X148789571Y-87653761D01*
X148753285Y-87606142D01*
X148717000Y-87510904D01*
X148680714Y-87320428D01*
X148680714Y-87082333D01*
X148717000Y-86891857D01*
X148753285Y-86796619D01*
X148789571Y-86749000D01*
X148862142Y-86701380D01*
X144954714Y-87415666D02*
X145430904Y-87415666D01*
X144859476Y-87701380D02*
X145192809Y-86701380D01*
X145526142Y-87701380D01*
X145907095Y-87701380D02*
X146097571Y-87701380D01*
X146192809Y-87653761D01*
X146240428Y-87606142D01*
X146335666Y-87463285D01*
X146383285Y-87272809D01*
X146383285Y-86891857D01*
X146335666Y-86796619D01*
X146288047Y-86749000D01*
X146192809Y-86701380D01*
X146002333Y-86701380D01*
X145907095Y-86749000D01*
X145859476Y-86796619D01*
X145811857Y-86891857D01*
X145811857Y-87129952D01*
X145859476Y-87225190D01*
X145907095Y-87272809D01*
X146002333Y-87320428D01*
X146192809Y-87320428D01*
X146288047Y-87272809D01*
X146335666Y-87225190D01*
X146383285Y-87129952D01*
X142414714Y-87415666D02*
X142890904Y-87415666D01*
X142319476Y-87701380D02*
X142652809Y-86701380D01*
X142986142Y-87701380D01*
X143462333Y-87129952D02*
X143367095Y-87082333D01*
X143319476Y-87034714D01*
X143271857Y-86939476D01*
X143271857Y-86891857D01*
X143319476Y-86796619D01*
X143367095Y-86749000D01*
X143462333Y-86701380D01*
X143652809Y-86701380D01*
X143748047Y-86749000D01*
X143795666Y-86796619D01*
X143843285Y-86891857D01*
X143843285Y-86939476D01*
X143795666Y-87034714D01*
X143748047Y-87082333D01*
X143652809Y-87129952D01*
X143462333Y-87129952D01*
X143367095Y-87177571D01*
X143319476Y-87225190D01*
X143271857Y-87320428D01*
X143271857Y-87510904D01*
X143319476Y-87606142D01*
X143367095Y-87653761D01*
X143462333Y-87701380D01*
X143652809Y-87701380D01*
X143748047Y-87653761D01*
X143795666Y-87606142D01*
X143843285Y-87510904D01*
X143843285Y-87320428D01*
X143795666Y-87225190D01*
X143748047Y-87177571D01*
X143652809Y-87129952D01*
X139917714Y-87177571D02*
X140026571Y-87225190D01*
X140062857Y-87272809D01*
X140099142Y-87368047D01*
X140099142Y-87510904D01*
X140062857Y-87606142D01*
X140026571Y-87653761D01*
X139954000Y-87701380D01*
X139663714Y-87701380D01*
X139663714Y-86701380D01*
X139917714Y-86701380D01*
X139990285Y-86749000D01*
X140026571Y-86796619D01*
X140062857Y-86891857D01*
X140062857Y-86987095D01*
X140026571Y-87082333D01*
X139990285Y-87129952D01*
X139917714Y-87177571D01*
X139663714Y-87177571D01*
X140824857Y-87701380D02*
X140389428Y-87701380D01*
X140607142Y-87701380D02*
X140607142Y-86701380D01*
X140534571Y-86844238D01*
X140462000Y-86939476D01*
X140389428Y-86987095D01*
X141514285Y-86701380D02*
X141151428Y-86701380D01*
X141115142Y-87177571D01*
X141151428Y-87129952D01*
X141224000Y-87082333D01*
X141405428Y-87082333D01*
X141478000Y-87129952D01*
X141514285Y-87177571D01*
X141550571Y-87272809D01*
X141550571Y-87510904D01*
X141514285Y-87606142D01*
X141478000Y-87653761D01*
X141405428Y-87701380D01*
X141224000Y-87701380D01*
X141151428Y-87653761D01*
X141115142Y-87606142D01*
X137377714Y-87177571D02*
X137486571Y-87225190D01*
X137522857Y-87272809D01*
X137559142Y-87368047D01*
X137559142Y-87510904D01*
X137522857Y-87606142D01*
X137486571Y-87653761D01*
X137414000Y-87701380D01*
X137123714Y-87701380D01*
X137123714Y-86701380D01*
X137377714Y-86701380D01*
X137450285Y-86749000D01*
X137486571Y-86796619D01*
X137522857Y-86891857D01*
X137522857Y-86987095D01*
X137486571Y-87082333D01*
X137450285Y-87129952D01*
X137377714Y-87177571D01*
X137123714Y-87177571D01*
X138284857Y-87701380D02*
X137849428Y-87701380D01*
X138067142Y-87701380D02*
X138067142Y-86701380D01*
X137994571Y-86844238D01*
X137922000Y-86939476D01*
X137849428Y-86987095D01*
X138938000Y-87034714D02*
X138938000Y-87701380D01*
X138756571Y-86653761D02*
X138575142Y-87368047D01*
X139046857Y-87368047D01*
X134837714Y-87177571D02*
X134946571Y-87225190D01*
X134982857Y-87272809D01*
X135019142Y-87368047D01*
X135019142Y-87510904D01*
X134982857Y-87606142D01*
X134946571Y-87653761D01*
X134874000Y-87701380D01*
X134583714Y-87701380D01*
X134583714Y-86701380D01*
X134837714Y-86701380D01*
X134910285Y-86749000D01*
X134946571Y-86796619D01*
X134982857Y-86891857D01*
X134982857Y-86987095D01*
X134946571Y-87082333D01*
X134910285Y-87129952D01*
X134837714Y-87177571D01*
X134583714Y-87177571D01*
X135744857Y-87701380D02*
X135309428Y-87701380D01*
X135527142Y-87701380D02*
X135527142Y-86701380D01*
X135454571Y-86844238D01*
X135382000Y-86939476D01*
X135309428Y-86987095D01*
X135998857Y-86701380D02*
X136470571Y-86701380D01*
X136216571Y-87082333D01*
X136325428Y-87082333D01*
X136398000Y-87129952D01*
X136434285Y-87177571D01*
X136470571Y-87272809D01*
X136470571Y-87510904D01*
X136434285Y-87606142D01*
X136398000Y-87653761D01*
X136325428Y-87701380D01*
X136107714Y-87701380D01*
X136035142Y-87653761D01*
X135998857Y-87606142D01*
X132297714Y-87177571D02*
X132406571Y-87225190D01*
X132442857Y-87272809D01*
X132479142Y-87368047D01*
X132479142Y-87510904D01*
X132442857Y-87606142D01*
X132406571Y-87653761D01*
X132334000Y-87701380D01*
X132043714Y-87701380D01*
X132043714Y-86701380D01*
X132297714Y-86701380D01*
X132370285Y-86749000D01*
X132406571Y-86796619D01*
X132442857Y-86891857D01*
X132442857Y-86987095D01*
X132406571Y-87082333D01*
X132370285Y-87129952D01*
X132297714Y-87177571D01*
X132043714Y-87177571D01*
X133204857Y-87701380D02*
X132769428Y-87701380D01*
X132987142Y-87701380D02*
X132987142Y-86701380D01*
X132914571Y-86844238D01*
X132842000Y-86939476D01*
X132769428Y-86987095D01*
X133495142Y-86796619D02*
X133531428Y-86749000D01*
X133604000Y-86701380D01*
X133785428Y-86701380D01*
X133858000Y-86749000D01*
X133894285Y-86796619D01*
X133930571Y-86891857D01*
X133930571Y-86987095D01*
X133894285Y-87129952D01*
X133458857Y-87701380D01*
X133930571Y-87701380D01*
X180395666Y-65873380D02*
X180729000Y-66873380D01*
X181062333Y-65873380D01*
X181729000Y-66349571D02*
X181871857Y-66397190D01*
X181919476Y-66444809D01*
X181967095Y-66540047D01*
X181967095Y-66682904D01*
X181919476Y-66778142D01*
X181871857Y-66825761D01*
X181776619Y-66873380D01*
X181395666Y-66873380D01*
X181395666Y-65873380D01*
X181729000Y-65873380D01*
X181824238Y-65921000D01*
X181871857Y-65968619D01*
X181919476Y-66063857D01*
X181919476Y-66159095D01*
X181871857Y-66254333D01*
X181824238Y-66301952D01*
X181729000Y-66349571D01*
X181395666Y-66349571D01*
X178199142Y-66778142D02*
X178162857Y-66825761D01*
X178054000Y-66873380D01*
X177981428Y-66873380D01*
X177872571Y-66825761D01*
X177800000Y-66730523D01*
X177763714Y-66635285D01*
X177727428Y-66444809D01*
X177727428Y-66301952D01*
X177763714Y-66111476D01*
X177800000Y-66016238D01*
X177872571Y-65921000D01*
X177981428Y-65873380D01*
X178054000Y-65873380D01*
X178162857Y-65921000D01*
X178199142Y-65968619D01*
X178924857Y-66873380D02*
X178489428Y-66873380D01*
X178707142Y-66873380D02*
X178707142Y-65873380D01*
X178634571Y-66016238D01*
X178562000Y-66111476D01*
X178489428Y-66159095D01*
X179178857Y-65873380D02*
X179650571Y-65873380D01*
X179396571Y-66254333D01*
X179505428Y-66254333D01*
X179578000Y-66301952D01*
X179614285Y-66349571D01*
X179650571Y-66444809D01*
X179650571Y-66682904D01*
X179614285Y-66778142D01*
X179578000Y-66825761D01*
X179505428Y-66873380D01*
X179287714Y-66873380D01*
X179215142Y-66825761D01*
X179178857Y-66778142D01*
X175659142Y-66778142D02*
X175622857Y-66825761D01*
X175514000Y-66873380D01*
X175441428Y-66873380D01*
X175332571Y-66825761D01*
X175260000Y-66730523D01*
X175223714Y-66635285D01*
X175187428Y-66444809D01*
X175187428Y-66301952D01*
X175223714Y-66111476D01*
X175260000Y-66016238D01*
X175332571Y-65921000D01*
X175441428Y-65873380D01*
X175514000Y-65873380D01*
X175622857Y-65921000D01*
X175659142Y-65968619D01*
X176384857Y-66873380D02*
X175949428Y-66873380D01*
X176167142Y-66873380D02*
X176167142Y-65873380D01*
X176094571Y-66016238D01*
X176022000Y-66111476D01*
X175949428Y-66159095D01*
X177038000Y-66206714D02*
X177038000Y-66873380D01*
X176856571Y-65825761D02*
X176675142Y-66540047D01*
X177146857Y-66540047D01*
X173119142Y-66778142D02*
X173082857Y-66825761D01*
X172974000Y-66873380D01*
X172901428Y-66873380D01*
X172792571Y-66825761D01*
X172720000Y-66730523D01*
X172683714Y-66635285D01*
X172647428Y-66444809D01*
X172647428Y-66301952D01*
X172683714Y-66111476D01*
X172720000Y-66016238D01*
X172792571Y-65921000D01*
X172901428Y-65873380D01*
X172974000Y-65873380D01*
X173082857Y-65921000D01*
X173119142Y-65968619D01*
X173844857Y-66873380D02*
X173409428Y-66873380D01*
X173627142Y-66873380D02*
X173627142Y-65873380D01*
X173554571Y-66016238D01*
X173482000Y-66111476D01*
X173409428Y-66159095D01*
X174534285Y-65873380D02*
X174171428Y-65873380D01*
X174135142Y-66349571D01*
X174171428Y-66301952D01*
X174244000Y-66254333D01*
X174425428Y-66254333D01*
X174498000Y-66301952D01*
X174534285Y-66349571D01*
X174570571Y-66444809D01*
X174570571Y-66682904D01*
X174534285Y-66778142D01*
X174498000Y-66825761D01*
X174425428Y-66873380D01*
X174244000Y-66873380D01*
X174171428Y-66825761D01*
X174135142Y-66778142D01*
X170354714Y-66587666D02*
X170830904Y-66587666D01*
X170259476Y-66873380D02*
X170592809Y-65873380D01*
X170926142Y-66873380D01*
X171449952Y-65873380D02*
X171545190Y-65873380D01*
X171640428Y-65921000D01*
X171688047Y-65968619D01*
X171735666Y-66063857D01*
X171783285Y-66254333D01*
X171783285Y-66492428D01*
X171735666Y-66682904D01*
X171688047Y-66778142D01*
X171640428Y-66825761D01*
X171545190Y-66873380D01*
X171449952Y-66873380D01*
X171354714Y-66825761D01*
X171307095Y-66778142D01*
X171259476Y-66682904D01*
X171211857Y-66492428D01*
X171211857Y-66254333D01*
X171259476Y-66063857D01*
X171307095Y-65968619D01*
X171354714Y-65921000D01*
X171449952Y-65873380D01*
X167814714Y-66587666D02*
X168290904Y-66587666D01*
X167719476Y-66873380D02*
X168052809Y-65873380D01*
X168386142Y-66873380D01*
X169243285Y-66873380D02*
X168671857Y-66873380D01*
X168957571Y-66873380D02*
X168957571Y-65873380D01*
X168862333Y-66016238D01*
X168767095Y-66111476D01*
X168671857Y-66159095D01*
X165274714Y-66587666D02*
X165750904Y-66587666D01*
X165179476Y-66873380D02*
X165512809Y-65873380D01*
X165846142Y-66873380D01*
X166131857Y-65968619D02*
X166179476Y-65921000D01*
X166274714Y-65873380D01*
X166512809Y-65873380D01*
X166608047Y-65921000D01*
X166655666Y-65968619D01*
X166703285Y-66063857D01*
X166703285Y-66159095D01*
X166655666Y-66301952D01*
X166084238Y-66873380D01*
X166703285Y-66873380D01*
X162734714Y-66587666D02*
X163210904Y-66587666D01*
X162639476Y-66873380D02*
X162972809Y-65873380D01*
X163306142Y-66873380D01*
X163544238Y-65873380D02*
X164163285Y-65873380D01*
X163829952Y-66254333D01*
X163972809Y-66254333D01*
X164068047Y-66301952D01*
X164115666Y-66349571D01*
X164163285Y-66444809D01*
X164163285Y-66682904D01*
X164115666Y-66778142D01*
X164068047Y-66825761D01*
X163972809Y-66873380D01*
X163687095Y-66873380D01*
X163591857Y-66825761D01*
X163544238Y-66778142D01*
X160194714Y-66587666D02*
X160670904Y-66587666D01*
X160099476Y-66873380D02*
X160432809Y-65873380D01*
X160766142Y-66873380D01*
X161528047Y-66206714D02*
X161528047Y-66873380D01*
X161289952Y-65825761D02*
X161051857Y-66540047D01*
X161670904Y-66540047D01*
X157654714Y-66587666D02*
X158130904Y-66587666D01*
X157559476Y-66873380D02*
X157892809Y-65873380D01*
X158226142Y-66873380D01*
X159035666Y-65873380D02*
X158559476Y-65873380D01*
X158511857Y-66349571D01*
X158559476Y-66301952D01*
X158654714Y-66254333D01*
X158892809Y-66254333D01*
X158988047Y-66301952D01*
X159035666Y-66349571D01*
X159083285Y-66444809D01*
X159083285Y-66682904D01*
X159035666Y-66778142D01*
X158988047Y-66825761D01*
X158892809Y-66873380D01*
X158654714Y-66873380D01*
X158559476Y-66825761D01*
X158511857Y-66778142D01*
X155114714Y-66587666D02*
X155590904Y-66587666D01*
X155019476Y-66873380D02*
X155352809Y-65873380D01*
X155686142Y-66873380D01*
X156448047Y-65873380D02*
X156257571Y-65873380D01*
X156162333Y-65921000D01*
X156114714Y-65968619D01*
X156019476Y-66111476D01*
X155971857Y-66301952D01*
X155971857Y-66682904D01*
X156019476Y-66778142D01*
X156067095Y-66825761D01*
X156162333Y-66873380D01*
X156352809Y-66873380D01*
X156448047Y-66825761D01*
X156495666Y-66778142D01*
X156543285Y-66682904D01*
X156543285Y-66444809D01*
X156495666Y-66349571D01*
X156448047Y-66301952D01*
X156352809Y-66254333D01*
X156162333Y-66254333D01*
X156067095Y-66301952D01*
X156019476Y-66349571D01*
X155971857Y-66444809D01*
X152574714Y-66587666D02*
X153050904Y-66587666D01*
X152479476Y-66873380D02*
X152812809Y-65873380D01*
X153146142Y-66873380D01*
X153384238Y-65873380D02*
X154050904Y-65873380D01*
X153622333Y-66873380D01*
X150344238Y-66349571D02*
X150487095Y-66397190D01*
X150534714Y-66444809D01*
X150582333Y-66540047D01*
X150582333Y-66682904D01*
X150534714Y-66778142D01*
X150487095Y-66825761D01*
X150391857Y-66873380D01*
X150010904Y-66873380D01*
X150010904Y-65873380D01*
X150344238Y-65873380D01*
X150439476Y-65921000D01*
X150487095Y-65968619D01*
X150534714Y-66063857D01*
X150534714Y-66159095D01*
X150487095Y-66254333D01*
X150439476Y-66301952D01*
X150344238Y-66349571D01*
X150010904Y-66349571D01*
X151201380Y-65873380D02*
X151296619Y-65873380D01*
X151391857Y-65921000D01*
X151439476Y-65968619D01*
X151487095Y-66063857D01*
X151534714Y-66254333D01*
X151534714Y-66492428D01*
X151487095Y-66682904D01*
X151439476Y-66778142D01*
X151391857Y-66825761D01*
X151296619Y-66873380D01*
X151201380Y-66873380D01*
X151106142Y-66825761D01*
X151058523Y-66778142D01*
X151010904Y-66682904D01*
X150963285Y-66492428D01*
X150963285Y-66254333D01*
X151010904Y-66063857D01*
X151058523Y-65968619D01*
X151106142Y-65921000D01*
X151201380Y-65873380D01*
X147804238Y-66349571D02*
X147947095Y-66397190D01*
X147994714Y-66444809D01*
X148042333Y-66540047D01*
X148042333Y-66682904D01*
X147994714Y-66778142D01*
X147947095Y-66825761D01*
X147851857Y-66873380D01*
X147470904Y-66873380D01*
X147470904Y-65873380D01*
X147804238Y-65873380D01*
X147899476Y-65921000D01*
X147947095Y-65968619D01*
X147994714Y-66063857D01*
X147994714Y-66159095D01*
X147947095Y-66254333D01*
X147899476Y-66301952D01*
X147804238Y-66349571D01*
X147470904Y-66349571D01*
X148994714Y-66873380D02*
X148423285Y-66873380D01*
X148709000Y-66873380D02*
X148709000Y-65873380D01*
X148613761Y-66016238D01*
X148518523Y-66111476D01*
X148423285Y-66159095D01*
X144997714Y-66349571D02*
X145106571Y-66397190D01*
X145142857Y-66444809D01*
X145179142Y-66540047D01*
X145179142Y-66682904D01*
X145142857Y-66778142D01*
X145106571Y-66825761D01*
X145034000Y-66873380D01*
X144743714Y-66873380D01*
X144743714Y-65873380D01*
X144997714Y-65873380D01*
X145070285Y-65921000D01*
X145106571Y-65968619D01*
X145142857Y-66063857D01*
X145142857Y-66159095D01*
X145106571Y-66254333D01*
X145070285Y-66301952D01*
X144997714Y-66349571D01*
X144743714Y-66349571D01*
X145904857Y-66873380D02*
X145469428Y-66873380D01*
X145687142Y-66873380D02*
X145687142Y-65873380D01*
X145614571Y-66016238D01*
X145542000Y-66111476D01*
X145469428Y-66159095D01*
X146376571Y-65873380D02*
X146449142Y-65873380D01*
X146521714Y-65921000D01*
X146558000Y-65968619D01*
X146594285Y-66063857D01*
X146630571Y-66254333D01*
X146630571Y-66492428D01*
X146594285Y-66682904D01*
X146558000Y-66778142D01*
X146521714Y-66825761D01*
X146449142Y-66873380D01*
X146376571Y-66873380D01*
X146304000Y-66825761D01*
X146267714Y-66778142D01*
X146231428Y-66682904D01*
X146195142Y-66492428D01*
X146195142Y-66254333D01*
X146231428Y-66063857D01*
X146267714Y-65968619D01*
X146304000Y-65921000D01*
X146376571Y-65873380D01*
X142457714Y-66349571D02*
X142566571Y-66397190D01*
X142602857Y-66444809D01*
X142639142Y-66540047D01*
X142639142Y-66682904D01*
X142602857Y-66778142D01*
X142566571Y-66825761D01*
X142494000Y-66873380D01*
X142203714Y-66873380D01*
X142203714Y-65873380D01*
X142457714Y-65873380D01*
X142530285Y-65921000D01*
X142566571Y-65968619D01*
X142602857Y-66063857D01*
X142602857Y-66159095D01*
X142566571Y-66254333D01*
X142530285Y-66301952D01*
X142457714Y-66349571D01*
X142203714Y-66349571D01*
X143364857Y-66873380D02*
X142929428Y-66873380D01*
X143147142Y-66873380D02*
X143147142Y-65873380D01*
X143074571Y-66016238D01*
X143002000Y-66111476D01*
X142929428Y-66159095D01*
X144090571Y-66873380D02*
X143655142Y-66873380D01*
X143872857Y-66873380D02*
X143872857Y-65873380D01*
X143800285Y-66016238D01*
X143727714Y-66111476D01*
X143655142Y-66159095D01*
X140898523Y-66873380D02*
X140565190Y-66397190D01*
X140327095Y-66873380D02*
X140327095Y-65873380D01*
X140708047Y-65873380D01*
X140803285Y-65921000D01*
X140850904Y-65968619D01*
X140898523Y-66063857D01*
X140898523Y-66206714D01*
X140850904Y-66301952D01*
X140803285Y-66349571D01*
X140708047Y-66397190D01*
X140327095Y-66397190D01*
X137001380Y-65873380D02*
X137620428Y-65873380D01*
X137287095Y-66254333D01*
X137429952Y-66254333D01*
X137525190Y-66301952D01*
X137572809Y-66349571D01*
X137620428Y-66444809D01*
X137620428Y-66682904D01*
X137572809Y-66778142D01*
X137525190Y-66825761D01*
X137429952Y-66873380D01*
X137144238Y-66873380D01*
X137049000Y-66825761D01*
X137001380Y-66778142D01*
X138049000Y-66778142D02*
X138096619Y-66825761D01*
X138049000Y-66873380D01*
X138001380Y-66825761D01*
X138049000Y-66778142D01*
X138049000Y-66873380D01*
X138429952Y-65873380D02*
X139049000Y-65873380D01*
X138715666Y-66254333D01*
X138858523Y-66254333D01*
X138953761Y-66301952D01*
X139001380Y-66349571D01*
X139049000Y-66444809D01*
X139049000Y-66682904D01*
X139001380Y-66778142D01*
X138953761Y-66825761D01*
X138858523Y-66873380D01*
X138572809Y-66873380D01*
X138477571Y-66825761D01*
X138429952Y-66778142D01*
X135770904Y-65921000D02*
X135675666Y-65873380D01*
X135532809Y-65873380D01*
X135389952Y-65921000D01*
X135294714Y-66016238D01*
X135247095Y-66111476D01*
X135199476Y-66301952D01*
X135199476Y-66444809D01*
X135247095Y-66635285D01*
X135294714Y-66730523D01*
X135389952Y-66825761D01*
X135532809Y-66873380D01*
X135628047Y-66873380D01*
X135770904Y-66825761D01*
X135818523Y-66778142D01*
X135818523Y-66444809D01*
X135628047Y-66444809D01*
X133230904Y-65921000D02*
X133135666Y-65873380D01*
X132992809Y-65873380D01*
X132849952Y-65921000D01*
X132754714Y-66016238D01*
X132707095Y-66111476D01*
X132659476Y-66301952D01*
X132659476Y-66444809D01*
X132707095Y-66635285D01*
X132754714Y-66730523D01*
X132849952Y-66825761D01*
X132992809Y-66873380D01*
X133088047Y-66873380D01*
X133230904Y-66825761D01*
X133278523Y-66778142D01*
X133278523Y-66444809D01*
X133088047Y-66444809D01*
%TO.C,REF\u002A\u002A*%
X119128706Y-71028820D02*
X118795373Y-70552630D01*
X118557278Y-71028820D02*
X118557278Y-70028820D01*
X118938230Y-70028820D01*
X119033468Y-70076440D01*
X119081087Y-70124059D01*
X119128706Y-70219297D01*
X119128706Y-70362154D01*
X119081087Y-70457392D01*
X119033468Y-70505011D01*
X118938230Y-70552630D01*
X118557278Y-70552630D01*
X119557278Y-70505011D02*
X119890611Y-70505011D01*
X120033468Y-71028820D02*
X119557278Y-71028820D01*
X119557278Y-70028820D01*
X120033468Y-70028820D01*
X120795373Y-70505011D02*
X120462040Y-70505011D01*
X120462040Y-71028820D02*
X120462040Y-70028820D01*
X120938230Y-70028820D01*
X121462040Y-70028820D02*
X121462040Y-70266916D01*
X121223944Y-70171678D02*
X121462040Y-70266916D01*
X121700135Y-70171678D01*
X121319182Y-70457392D02*
X121462040Y-70266916D01*
X121604897Y-70457392D01*
X122223944Y-70028820D02*
X122223944Y-70266916D01*
X121985849Y-70171678D02*
X122223944Y-70266916D01*
X122462040Y-70171678D01*
X122081087Y-70457392D02*
X122223944Y-70266916D01*
X122366801Y-70457392D01*
%TO.C,J4*%
X128190666Y-88142380D02*
X128190666Y-88856666D01*
X128143047Y-88999523D01*
X128047809Y-89094761D01*
X127904952Y-89142380D01*
X127809714Y-89142380D01*
X129095428Y-88475714D02*
X129095428Y-89142380D01*
X128857333Y-88094761D02*
X128619238Y-88809047D01*
X129238285Y-88809047D01*
%TO.C,SW1*%
D22*
X132213047Y-56049333D02*
X132273523Y-55867904D01*
X132273523Y-55565523D01*
X132213047Y-55444571D01*
X132152571Y-55384095D01*
X132031619Y-55323619D01*
X131910666Y-55323619D01*
X131789714Y-55384095D01*
X131729238Y-55444571D01*
X131668761Y-55565523D01*
X131608285Y-55807428D01*
X131547809Y-55928380D01*
X131487333Y-55988857D01*
X131366380Y-56049333D01*
X131245428Y-56049333D01*
X131124476Y-55988857D01*
X131064000Y-55928380D01*
X131003523Y-55807428D01*
X131003523Y-55505047D01*
X131064000Y-55323619D01*
X131003523Y-54900285D02*
X132273523Y-54597904D01*
X131366380Y-54356000D01*
X132273523Y-54114095D01*
X131003523Y-53811714D01*
X132273523Y-52662666D02*
X132273523Y-53388380D01*
X132273523Y-53025523D02*
X131003523Y-53025523D01*
X131184952Y-53146476D01*
X131305904Y-53267428D01*
X131366380Y-53388380D01*
%TO.C,J2*%
D18*
X149463166Y-63758380D02*
X149463166Y-64472666D01*
X149415547Y-64615523D01*
X149320309Y-64710761D01*
X149177452Y-64758380D01*
X149082214Y-64758380D01*
X149891738Y-63853619D02*
X149939357Y-63806000D01*
X150034595Y-63758380D01*
X150272690Y-63758380D01*
X150367928Y-63806000D01*
X150415547Y-63853619D01*
X150463166Y-63948857D01*
X150463166Y-64044095D01*
X150415547Y-64186952D01*
X149844119Y-64758380D01*
X150463166Y-64758380D01*
%TO.C,TP2*%
X112202980Y-88841104D02*
X112202980Y-88269676D01*
X113202980Y-88555390D02*
X112202980Y-88555390D01*
X113202980Y-87936342D02*
X112202980Y-87936342D01*
X112202980Y-87555390D01*
X112250600Y-87460152D01*
X112298219Y-87412533D01*
X112393457Y-87364914D01*
X112536314Y-87364914D01*
X112631552Y-87412533D01*
X112679171Y-87460152D01*
X112726790Y-87555390D01*
X112726790Y-87936342D01*
X112298219Y-86983961D02*
X112250600Y-86936342D01*
X112202980Y-86841104D01*
X112202980Y-86603009D01*
X112250600Y-86507771D01*
X112298219Y-86460152D01*
X112393457Y-86412533D01*
X112488695Y-86412533D01*
X112631552Y-86460152D01*
X113202980Y-87031580D01*
X113202980Y-86412533D01*
%TO.C,TP1*%
X100084095Y-82637380D02*
X100655523Y-82637380D01*
X100369809Y-83637380D02*
X100369809Y-82637380D01*
X100988857Y-83637380D02*
X100988857Y-82637380D01*
X101369809Y-82637380D01*
X101465047Y-82685000D01*
X101512666Y-82732619D01*
X101560285Y-82827857D01*
X101560285Y-82970714D01*
X101512666Y-83065952D01*
X101465047Y-83113571D01*
X101369809Y-83161190D01*
X100988857Y-83161190D01*
X102512666Y-83637380D02*
X101941238Y-83637380D01*
X102226952Y-83637380D02*
X102226952Y-82637380D01*
X102131714Y-82780238D01*
X102036476Y-82875476D01*
X101941238Y-82923095D01*
%TO.C,J52*%
X155288180Y-52600123D02*
X156002466Y-52600123D01*
X156145323Y-52647742D01*
X156240561Y-52742980D01*
X156288180Y-52885838D01*
X156288180Y-52981076D01*
X155288180Y-51647742D02*
X155288180Y-52123933D01*
X155764371Y-52171552D01*
X155716752Y-52123933D01*
X155669133Y-52028695D01*
X155669133Y-51790600D01*
X155716752Y-51695361D01*
X155764371Y-51647742D01*
X155859609Y-51600123D01*
X156097704Y-51600123D01*
X156192942Y-51647742D01*
X156240561Y-51695361D01*
X156288180Y-51790600D01*
X156288180Y-52028695D01*
X156240561Y-52123933D01*
X156192942Y-52171552D01*
X155383419Y-51219171D02*
X155335800Y-51171552D01*
X155288180Y-51076314D01*
X155288180Y-50838219D01*
X155335800Y-50742980D01*
X155383419Y-50695361D01*
X155478657Y-50647742D01*
X155573895Y-50647742D01*
X155716752Y-50695361D01*
X156288180Y-51266790D01*
X156288180Y-50647742D01*
%TO.C,U4*%
X117348095Y-67778380D02*
X117348095Y-68587904D01*
X117395714Y-68683142D01*
X117443333Y-68730761D01*
X117538571Y-68778380D01*
X117729047Y-68778380D01*
X117824285Y-68730761D01*
X117871904Y-68683142D01*
X117919523Y-68587904D01*
X117919523Y-67778380D01*
X118824285Y-68111714D02*
X118824285Y-68778380D01*
X118586190Y-67730761D02*
X118348095Y-68445047D01*
X118967142Y-68445047D01*
%TO.C,J30*%
X195667380Y-69262523D02*
X196381666Y-69262523D01*
X196524523Y-69310142D01*
X196619761Y-69405380D01*
X196667380Y-69548238D01*
X196667380Y-69643476D01*
X195667380Y-68881571D02*
X195667380Y-68262523D01*
X196048333Y-68595857D01*
X196048333Y-68453000D01*
X196095952Y-68357761D01*
X196143571Y-68310142D01*
X196238809Y-68262523D01*
X196476904Y-68262523D01*
X196572142Y-68310142D01*
X196619761Y-68357761D01*
X196667380Y-68453000D01*
X196667380Y-68738714D01*
X196619761Y-68833952D01*
X196572142Y-68881571D01*
X195667380Y-67643476D02*
X195667380Y-67548238D01*
X195715000Y-67453000D01*
X195762619Y-67405380D01*
X195857857Y-67357761D01*
X196048333Y-67310142D01*
X196286428Y-67310142D01*
X196476904Y-67357761D01*
X196572142Y-67405380D01*
X196619761Y-67453000D01*
X196667380Y-67548238D01*
X196667380Y-67643476D01*
X196619761Y-67738714D01*
X196572142Y-67786333D01*
X196476904Y-67833952D01*
X196286428Y-67881571D01*
X196048333Y-67881571D01*
X195857857Y-67833952D01*
X195762619Y-67786333D01*
X195715000Y-67738714D01*
X195667380Y-67643476D01*
%TO.C,R4*%
X116673333Y-61920380D02*
X116340000Y-61444190D01*
X116101904Y-61920380D02*
X116101904Y-60920380D01*
X116482857Y-60920380D01*
X116578095Y-60968000D01*
X116625714Y-61015619D01*
X116673333Y-61110857D01*
X116673333Y-61253714D01*
X116625714Y-61348952D01*
X116578095Y-61396571D01*
X116482857Y-61444190D01*
X116101904Y-61444190D01*
X117530476Y-61253714D02*
X117530476Y-61920380D01*
X117292380Y-60872761D02*
X117054285Y-61587047D01*
X117673333Y-61587047D01*
%TO.C,JP1*%
X143184666Y-50760380D02*
X143184666Y-51474666D01*
X143137047Y-51617523D01*
X143041809Y-51712761D01*
X142898952Y-51760380D01*
X142803714Y-51760380D01*
X143660857Y-51760380D02*
X143660857Y-50760380D01*
X144041809Y-50760380D01*
X144137047Y-50808000D01*
X144184666Y-50855619D01*
X144232285Y-50950857D01*
X144232285Y-51093714D01*
X144184666Y-51188952D01*
X144137047Y-51236571D01*
X144041809Y-51284190D01*
X143660857Y-51284190D01*
X145184666Y-51760380D02*
X144613238Y-51760380D01*
X144898952Y-51760380D02*
X144898952Y-50760380D01*
X144803714Y-50903238D01*
X144708476Y-50998476D01*
X144613238Y-51046095D01*
%TO.C,JP2*%
X142930666Y-64222380D02*
X142930666Y-64936666D01*
X142883047Y-65079523D01*
X142787809Y-65174761D01*
X142644952Y-65222380D01*
X142549714Y-65222380D01*
X143406857Y-65222380D02*
X143406857Y-64222380D01*
X143787809Y-64222380D01*
X143883047Y-64270000D01*
X143930666Y-64317619D01*
X143978285Y-64412857D01*
X143978285Y-64555714D01*
X143930666Y-64650952D01*
X143883047Y-64698571D01*
X143787809Y-64746190D01*
X143406857Y-64746190D01*
X144359238Y-64317619D02*
X144406857Y-64270000D01*
X144502095Y-64222380D01*
X144740190Y-64222380D01*
X144835428Y-64270000D01*
X144883047Y-64317619D01*
X144930666Y-64412857D01*
X144930666Y-64508095D01*
X144883047Y-64650952D01*
X144311619Y-65222380D01*
X144930666Y-65222380D01*
%TO.C,D21*%
X174706114Y-59913780D02*
X174706114Y-58913780D01*
X174944209Y-58913780D01*
X175087066Y-58961400D01*
X175182304Y-59056638D01*
X175229923Y-59151876D01*
X175277542Y-59342352D01*
X175277542Y-59485209D01*
X175229923Y-59675685D01*
X175182304Y-59770923D01*
X175087066Y-59866161D01*
X174944209Y-59913780D01*
X174706114Y-59913780D01*
X175658495Y-59009019D02*
X175706114Y-58961400D01*
X175801352Y-58913780D01*
X176039447Y-58913780D01*
X176134685Y-58961400D01*
X176182304Y-59009019D01*
X176229923Y-59104257D01*
X176229923Y-59199495D01*
X176182304Y-59342352D01*
X175610876Y-59913780D01*
X176229923Y-59913780D01*
X177182304Y-59913780D02*
X176610876Y-59913780D01*
X176896590Y-59913780D02*
X176896590Y-58913780D01*
X176801352Y-59056638D01*
X176706114Y-59151876D01*
X176610876Y-59199495D01*
%TO.C,D20*%
X174680714Y-64384180D02*
X174680714Y-63384180D01*
X174918809Y-63384180D01*
X175061666Y-63431800D01*
X175156904Y-63527038D01*
X175204523Y-63622276D01*
X175252142Y-63812752D01*
X175252142Y-63955609D01*
X175204523Y-64146085D01*
X175156904Y-64241323D01*
X175061666Y-64336561D01*
X174918809Y-64384180D01*
X174680714Y-64384180D01*
X175633095Y-63479419D02*
X175680714Y-63431800D01*
X175775952Y-63384180D01*
X176014047Y-63384180D01*
X176109285Y-63431800D01*
X176156904Y-63479419D01*
X176204523Y-63574657D01*
X176204523Y-63669895D01*
X176156904Y-63812752D01*
X175585476Y-64384180D01*
X176204523Y-64384180D01*
X176823571Y-63384180D02*
X176918809Y-63384180D01*
X177014047Y-63431800D01*
X177061666Y-63479419D01*
X177109285Y-63574657D01*
X177156904Y-63765133D01*
X177156904Y-64003228D01*
X177109285Y-64193704D01*
X177061666Y-64288942D01*
X177014047Y-64336561D01*
X176918809Y-64384180D01*
X176823571Y-64384180D01*
X176728333Y-64336561D01*
X176680714Y-64288942D01*
X176633095Y-64193704D01*
X176585476Y-64003228D01*
X176585476Y-63765133D01*
X176633095Y-63574657D01*
X176680714Y-63479419D01*
X176728333Y-63431800D01*
X176823571Y-63384180D01*
%TO.C,D1*%
X162736304Y-55392580D02*
X162736304Y-54392580D01*
X162974400Y-54392580D01*
X163117257Y-54440200D01*
X163212495Y-54535438D01*
X163260114Y-54630676D01*
X163307733Y-54821152D01*
X163307733Y-54964009D01*
X163260114Y-55154485D01*
X163212495Y-55249723D01*
X163117257Y-55344961D01*
X162974400Y-55392580D01*
X162736304Y-55392580D01*
X164260114Y-55392580D02*
X163688685Y-55392580D01*
X163974400Y-55392580D02*
X163974400Y-54392580D01*
X163879161Y-54535438D01*
X163783923Y-54630676D01*
X163688685Y-54678295D01*
%TO.C,U30*%
D20*
X160763857Y-80445428D02*
X160763857Y-81679142D01*
X160818285Y-81824285D01*
X160872714Y-81896857D01*
X160981571Y-81969428D01*
X161199285Y-81969428D01*
X161308142Y-81896857D01*
X161362571Y-81824285D01*
X161417000Y-81679142D01*
X161417000Y-80445428D01*
X161852428Y-80445428D02*
X162560000Y-80445428D01*
X162179000Y-81026000D01*
X162342285Y-81026000D01*
X162451142Y-81098571D01*
X162505571Y-81171142D01*
X162560000Y-81316285D01*
X162560000Y-81679142D01*
X162505571Y-81824285D01*
X162451142Y-81896857D01*
X162342285Y-81969428D01*
X162015714Y-81969428D01*
X161906857Y-81896857D01*
X161852428Y-81824285D01*
X163267571Y-80445428D02*
X163376428Y-80445428D01*
X163485285Y-80518000D01*
X163539714Y-80590571D01*
X163594142Y-80735714D01*
X163648571Y-81026000D01*
X163648571Y-81388857D01*
X163594142Y-81679142D01*
X163539714Y-81824285D01*
X163485285Y-81896857D01*
X163376428Y-81969428D01*
X163267571Y-81969428D01*
X163158714Y-81896857D01*
X163104285Y-81824285D01*
X163049857Y-81679142D01*
X162995428Y-81388857D01*
X162995428Y-81026000D01*
X163049857Y-80735714D01*
X163104285Y-80590571D01*
X163158714Y-80518000D01*
X163267571Y-80445428D01*
D21*
D20*
X162995428Y-79529214D02*
X162995428Y-80073500D01*
X161471428Y-80073500D01*
X162995428Y-79148214D02*
X161471428Y-79148214D01*
X162560000Y-78767214D01*
X161471428Y-78386214D01*
X162995428Y-78386214D01*
X161471428Y-77950785D02*
X161471428Y-77243214D01*
X162052000Y-77624214D01*
X162052000Y-77460928D01*
X162124571Y-77352071D01*
X162197142Y-77297642D01*
X162342285Y-77243214D01*
X162705142Y-77243214D01*
X162850285Y-77297642D01*
X162922857Y-77352071D01*
X162995428Y-77460928D01*
X162995428Y-77787500D01*
X162922857Y-77896357D01*
X162850285Y-77950785D01*
X162995428Y-76698928D02*
X162995428Y-76481214D01*
X162922857Y-76372357D01*
X162850285Y-76317928D01*
X162632571Y-76209071D01*
X162342285Y-76154642D01*
X161761714Y-76154642D01*
X161616571Y-76209071D01*
X161544000Y-76263500D01*
X161471428Y-76372357D01*
X161471428Y-76590071D01*
X161544000Y-76698928D01*
X161616571Y-76753357D01*
X161761714Y-76807785D01*
X162124571Y-76807785D01*
X162269714Y-76753357D01*
X162342285Y-76698928D01*
X162414857Y-76590071D01*
X162414857Y-76372357D01*
X162342285Y-76263500D01*
X162269714Y-76209071D01*
X162124571Y-76154642D01*
X161471428Y-75773642D02*
X161471428Y-75066071D01*
X162052000Y-75447071D01*
X162052000Y-75283785D01*
X162124571Y-75174928D01*
X162197142Y-75120500D01*
X162342285Y-75066071D01*
X162705142Y-75066071D01*
X162850285Y-75120500D01*
X162922857Y-75174928D01*
X162995428Y-75283785D01*
X162995428Y-75610357D01*
X162922857Y-75719214D01*
X162850285Y-75773642D01*
D21*
%TO.C,U3*%
X119684914Y-73714057D02*
X119684914Y-74685485D01*
X119742057Y-74799771D01*
X119799200Y-74856914D01*
X119913485Y-74914057D01*
X120142057Y-74914057D01*
X120256342Y-74856914D01*
X120313485Y-74799771D01*
X120370628Y-74685485D01*
X120370628Y-73714057D01*
X120827771Y-73714057D02*
X121570628Y-73714057D01*
X121170628Y-74171200D01*
X121342057Y-74171200D01*
X121456342Y-74228342D01*
X121513485Y-74285485D01*
X121570628Y-74399771D01*
X121570628Y-74685485D01*
X121513485Y-74799771D01*
X121456342Y-74856914D01*
X121342057Y-74914057D01*
X120999200Y-74914057D01*
X120884914Y-74856914D01*
X120827771Y-74799771D01*
D10*
X131606857Y-71310095D02*
X130406857Y-71310095D01*
X131264000Y-70976761D01*
X130406857Y-70643428D01*
X131606857Y-70643428D01*
X131492571Y-69595809D02*
X131549714Y-69643428D01*
X131606857Y-69786285D01*
X131606857Y-69881523D01*
X131549714Y-70024380D01*
X131435428Y-70119619D01*
X131321142Y-70167238D01*
X131092571Y-70214857D01*
X130921142Y-70214857D01*
X130692571Y-70167238D01*
X130578285Y-70119619D01*
X130464000Y-70024380D01*
X130406857Y-69881523D01*
X130406857Y-69786285D01*
X130464000Y-69643428D01*
X130521142Y-69595809D01*
X131606857Y-69167238D02*
X130406857Y-69167238D01*
X130406857Y-68786285D01*
X130464000Y-68691047D01*
X130521142Y-68643428D01*
X130635428Y-68595809D01*
X130806857Y-68595809D01*
X130921142Y-68643428D01*
X130978285Y-68691047D01*
X131035428Y-68786285D01*
X131035428Y-69167238D01*
X130521142Y-68214857D02*
X130464000Y-68167238D01*
X130406857Y-68072000D01*
X130406857Y-67833904D01*
X130464000Y-67738666D01*
X130521142Y-67691047D01*
X130635428Y-67643428D01*
X130749714Y-67643428D01*
X130921142Y-67691047D01*
X131606857Y-68262476D01*
X131606857Y-67643428D01*
X130406857Y-66738666D02*
X130406857Y-67214857D01*
X130978285Y-67262476D01*
X130921142Y-67214857D01*
X130864000Y-67119619D01*
X130864000Y-66881523D01*
X130921142Y-66786285D01*
X130978285Y-66738666D01*
X131092571Y-66691047D01*
X131378285Y-66691047D01*
X131492571Y-66738666D01*
X131549714Y-66786285D01*
X131606857Y-66881523D01*
X131606857Y-67119619D01*
X131549714Y-67214857D01*
X131492571Y-67262476D01*
X130406857Y-65833904D02*
X130406857Y-66024380D01*
X130464000Y-66119619D01*
X130521142Y-66167238D01*
X130692571Y-66262476D01*
X130921142Y-66310095D01*
X131378285Y-66310095D01*
X131492571Y-66262476D01*
X131549714Y-66214857D01*
X131606857Y-66119619D01*
X131606857Y-65929142D01*
X131549714Y-65833904D01*
X131492571Y-65786285D01*
X131378285Y-65738666D01*
X131092571Y-65738666D01*
X130978285Y-65786285D01*
X130921142Y-65833904D01*
X130864000Y-65929142D01*
X130864000Y-66119619D01*
X130921142Y-66214857D01*
X130978285Y-66262476D01*
X131092571Y-66310095D01*
X130521142Y-65357714D02*
X130464000Y-65310095D01*
X130406857Y-65214857D01*
X130406857Y-64976761D01*
X130464000Y-64881523D01*
X130521142Y-64833904D01*
X130635428Y-64786285D01*
X130749714Y-64786285D01*
X130921142Y-64833904D01*
X131606857Y-65405333D01*
X131606857Y-64786285D01*
%TO.C,U2*%
D18*
X112990380Y-93725904D02*
X113799904Y-93725904D01*
X113895142Y-93678285D01*
X113942761Y-93630666D01*
X113990380Y-93535428D01*
X113990380Y-93344952D01*
X113942761Y-93249714D01*
X113895142Y-93202095D01*
X113799904Y-93154476D01*
X112990380Y-93154476D01*
X113085619Y-92725904D02*
X113038000Y-92678285D01*
X112990380Y-92583047D01*
X112990380Y-92344952D01*
X113038000Y-92249714D01*
X113085619Y-92202095D01*
X113180857Y-92154476D01*
X113276095Y-92154476D01*
X113418952Y-92202095D01*
X113990380Y-92773523D01*
X113990380Y-92154476D01*
%TO.C,U1*%
X106172095Y-77684380D02*
X106172095Y-78493904D01*
X106219714Y-78589142D01*
X106267333Y-78636761D01*
X106362571Y-78684380D01*
X106553047Y-78684380D01*
X106648285Y-78636761D01*
X106695904Y-78589142D01*
X106743523Y-78493904D01*
X106743523Y-77684380D01*
X107743523Y-78684380D02*
X107172095Y-78684380D01*
X107457809Y-78684380D02*
X107457809Y-77684380D01*
X107362571Y-77827238D01*
X107267333Y-77922476D01*
X107172095Y-77970095D01*
%TO.C,Q30*%
X180378171Y-79541619D02*
X180282933Y-79494000D01*
X180187695Y-79398761D01*
X180044838Y-79255904D01*
X179949600Y-79208285D01*
X179854361Y-79208285D01*
X179901980Y-79446380D02*
X179806742Y-79398761D01*
X179711504Y-79303523D01*
X179663885Y-79113047D01*
X179663885Y-78779714D01*
X179711504Y-78589238D01*
X179806742Y-78494000D01*
X179901980Y-78446380D01*
X180092457Y-78446380D01*
X180187695Y-78494000D01*
X180282933Y-78589238D01*
X180330552Y-78779714D01*
X180330552Y-79113047D01*
X180282933Y-79303523D01*
X180187695Y-79398761D01*
X180092457Y-79446380D01*
X179901980Y-79446380D01*
X180663885Y-78446380D02*
X181282933Y-78446380D01*
X180949600Y-78827333D01*
X181092457Y-78827333D01*
X181187695Y-78874952D01*
X181235314Y-78922571D01*
X181282933Y-79017809D01*
X181282933Y-79255904D01*
X181235314Y-79351142D01*
X181187695Y-79398761D01*
X181092457Y-79446380D01*
X180806742Y-79446380D01*
X180711504Y-79398761D01*
X180663885Y-79351142D01*
X181901980Y-78446380D02*
X181997219Y-78446380D01*
X182092457Y-78494000D01*
X182140076Y-78541619D01*
X182187695Y-78636857D01*
X182235314Y-78827333D01*
X182235314Y-79065428D01*
X182187695Y-79255904D01*
X182140076Y-79351142D01*
X182092457Y-79398761D01*
X181997219Y-79446380D01*
X181901980Y-79446380D01*
X181806742Y-79398761D01*
X181759123Y-79351142D01*
X181711504Y-79255904D01*
X181663885Y-79065428D01*
X181663885Y-78827333D01*
X181711504Y-78636857D01*
X181759123Y-78541619D01*
X181806742Y-78494000D01*
X181901980Y-78446380D01*
%TO.C,PS1*%
X121848714Y-58618380D02*
X121848714Y-57618380D01*
X122229666Y-57618380D01*
X122324904Y-57666000D01*
X122372523Y-57713619D01*
X122420142Y-57808857D01*
X122420142Y-57951714D01*
X122372523Y-58046952D01*
X122324904Y-58094571D01*
X122229666Y-58142190D01*
X121848714Y-58142190D01*
X122801095Y-58570761D02*
X122943952Y-58618380D01*
X123182047Y-58618380D01*
X123277285Y-58570761D01*
X123324904Y-58523142D01*
X123372523Y-58427904D01*
X123372523Y-58332666D01*
X123324904Y-58237428D01*
X123277285Y-58189809D01*
X123182047Y-58142190D01*
X122991571Y-58094571D01*
X122896333Y-58046952D01*
X122848714Y-57999333D01*
X122801095Y-57904095D01*
X122801095Y-57808857D01*
X122848714Y-57713619D01*
X122896333Y-57666000D01*
X122991571Y-57618380D01*
X123229666Y-57618380D01*
X123372523Y-57666000D01*
X124324904Y-58618380D02*
X123753476Y-58618380D01*
X124039190Y-58618380D02*
X124039190Y-57618380D01*
X123943952Y-57761238D01*
X123848714Y-57856476D01*
X123753476Y-57904095D01*
%TO.C,J12*%
X195667380Y-83740523D02*
X196381666Y-83740523D01*
X196524523Y-83788142D01*
X196619761Y-83883380D01*
X196667380Y-84026238D01*
X196667380Y-84121476D01*
X196667380Y-82740523D02*
X196667380Y-83311952D01*
X196667380Y-83026238D02*
X195667380Y-83026238D01*
X195810238Y-83121476D01*
X195905476Y-83216714D01*
X195953095Y-83311952D01*
X195762619Y-82359571D02*
X195715000Y-82311952D01*
X195667380Y-82216714D01*
X195667380Y-81978619D01*
X195715000Y-81883380D01*
X195762619Y-81835761D01*
X195857857Y-81788142D01*
X195953095Y-81788142D01*
X196095952Y-81835761D01*
X196667380Y-82407190D01*
X196667380Y-81788142D01*
%TO.C,J6*%
X110653580Y-52403333D02*
X111367866Y-52403333D01*
X111510723Y-52450952D01*
X111605961Y-52546190D01*
X111653580Y-52689047D01*
X111653580Y-52784285D01*
X110653580Y-51498571D02*
X110653580Y-51689047D01*
X110701200Y-51784285D01*
X110748819Y-51831904D01*
X110891676Y-51927142D01*
X111082152Y-51974761D01*
X111463104Y-51974761D01*
X111558342Y-51927142D01*
X111605961Y-51879523D01*
X111653580Y-51784285D01*
X111653580Y-51593809D01*
X111605961Y-51498571D01*
X111558342Y-51450952D01*
X111463104Y-51403333D01*
X111225009Y-51403333D01*
X111129771Y-51450952D01*
X111082152Y-51498571D01*
X111034533Y-51593809D01*
X111034533Y-51784285D01*
X111082152Y-51879523D01*
X111129771Y-51927142D01*
X111225009Y-51974761D01*
%TO.C,J5*%
D15*
X129365828Y-62509400D02*
X130454400Y-62509400D01*
X130672114Y-62581971D01*
X130817257Y-62727114D01*
X130889828Y-62944828D01*
X130889828Y-63089971D01*
X129365828Y-61057971D02*
X129365828Y-61783685D01*
X130091542Y-61856257D01*
X130018971Y-61783685D01*
X129946400Y-61638542D01*
X129946400Y-61275685D01*
X130018971Y-61130542D01*
X130091542Y-61057971D01*
X130236685Y-60985400D01*
X130599542Y-60985400D01*
X130744685Y-61057971D01*
X130817257Y-61130542D01*
X130889828Y-61275685D01*
X130889828Y-61638542D01*
X130817257Y-61783685D01*
X130744685Y-61856257D01*
D23*
X133293285Y-58201000D02*
X133179000Y-58143857D01*
X133007571Y-58143857D01*
X132836142Y-58201000D01*
X132721857Y-58315285D01*
X132664714Y-58429571D01*
X132607571Y-58658142D01*
X132607571Y-58829571D01*
X132664714Y-59058142D01*
X132721857Y-59172428D01*
X132836142Y-59286714D01*
X133007571Y-59343857D01*
X133121857Y-59343857D01*
X133293285Y-59286714D01*
X133350428Y-59229571D01*
X133350428Y-58829571D01*
X133121857Y-58829571D01*
X133864714Y-59343857D02*
X133864714Y-58543857D01*
X133864714Y-58772428D02*
X133921857Y-58658142D01*
X133979000Y-58601000D01*
X134093285Y-58543857D01*
X134207571Y-58543857D01*
X134779000Y-59343857D02*
X134664714Y-59286714D01*
X134607571Y-59229571D01*
X134550428Y-59115285D01*
X134550428Y-58772428D01*
X134607571Y-58658142D01*
X134664714Y-58601000D01*
X134779000Y-58543857D01*
X134950428Y-58543857D01*
X135064714Y-58601000D01*
X135121857Y-58658142D01*
X135179000Y-58772428D01*
X135179000Y-59115285D01*
X135121857Y-59229571D01*
X135064714Y-59286714D01*
X134950428Y-59343857D01*
X134779000Y-59343857D01*
X135579000Y-58543857D02*
X135864714Y-59343857D01*
X136150428Y-58543857D01*
X137064714Y-59286714D02*
X136950428Y-59343857D01*
X136721857Y-59343857D01*
X136607571Y-59286714D01*
X136550428Y-59172428D01*
X136550428Y-58715285D01*
X136607571Y-58601000D01*
X136721857Y-58543857D01*
X136950428Y-58543857D01*
X137064714Y-58601000D01*
X137121857Y-58715285D01*
X137121857Y-58829571D01*
X136550428Y-58943857D01*
X138550428Y-59343857D02*
X138550428Y-58143857D01*
X139064714Y-58258142D02*
X139121857Y-58201000D01*
X139236142Y-58143857D01*
X139521857Y-58143857D01*
X139636142Y-58201000D01*
X139693285Y-58258142D01*
X139750428Y-58372428D01*
X139750428Y-58486714D01*
X139693285Y-58658142D01*
X139007571Y-59343857D01*
X139750428Y-59343857D01*
X140950428Y-59229571D02*
X140893285Y-59286714D01*
X140721857Y-59343857D01*
X140607571Y-59343857D01*
X140436142Y-59286714D01*
X140321857Y-59172428D01*
X140264714Y-59058142D01*
X140207571Y-58829571D01*
X140207571Y-58658142D01*
X140264714Y-58429571D01*
X140321857Y-58315285D01*
X140436142Y-58201000D01*
X140607571Y-58143857D01*
X140721857Y-58143857D01*
X140893285Y-58201000D01*
X140950428Y-58258142D01*
%TO.C,J1*%
D15*
X92192928Y-87122000D02*
X93281500Y-87122000D01*
X93499214Y-87194571D01*
X93644357Y-87339714D01*
X93716928Y-87557428D01*
X93716928Y-87702571D01*
X93716928Y-85598000D02*
X93716928Y-86468857D01*
X93716928Y-86033428D02*
X92192928Y-86033428D01*
X92410642Y-86178571D01*
X92555785Y-86323714D01*
X92628357Y-86468857D01*
%TD*%
M02*
