<?xml version="1.0" encoding="UTF-8" standalone="no"?>
<!-- Created with Inkscape (http://www.inkscape.org/) -->

<svg
   xmlns:dc="http://purl.org/dc/elements/1.1/"
   xmlns:cc="http://creativecommons.org/ns#"
   xmlns:rdf="http://www.w3.org/1999/02/22-rdf-syntax-ns#"
   xmlns:svg="http://www.w3.org/2000/svg"
   xmlns="http://www.w3.org/2000/svg"
   xmlns:sodipodi="http://sodipodi.sourceforge.net/DTD/sodipodi-0.dtd"
   xmlns:inkscape="http://www.inkscape.org/namespaces/inkscape"
   width="210mm"
   height="297mm"
   viewBox="0 0 210 297"
   id="svg3415"
   version="1.1"
   inkscape:version="0.91pre2 r13516"
   sodipodi:docname="connection.svg">
  <defs
     id="defs3" />
  <sodipodi:namedview
     inkscape:document-units="mm"
     id="base"
     pagecolor="#ffffff"
     bordercolor="#666666"
     borderopacity="1.0"
     inkscape:pageopacity="0.0"
     inkscape:pageshadow="2"
     inkscape:zoom="1.8974502"
     inkscape:cx="423.17184"
     inkscape:cy="874.49826"
     inkscape:current-layer="layer1"
     showgrid="false"
     inkscape:window-width="906"
     inkscape:window-height="715"
     inkscape:window-x="-3"
     inkscape:window-y="40"
     inkscape:window-maximized="0" />
  <metadata
     id="metadata4">
    <rdf:RDF>
      <cc:Work
         rdf:about="">
        <dc:format>image/svg+xml</dc:format>
        <dc:type
           rdf:resource="http://purl.org/dc/dcmitype/StillImage" />
        <dc:title></dc:title>
      </cc:Work>
    </rdf:RDF>
  </metadata>
  <g
     inkscape:label="Layer 1"
     inkscape:groupmode="layer"
     id="layer1">
    <g
       transform="matrix(0.50505048,0,0,0.50505048,-72.299966,-43.689815)"
       id="g4">
      <path
         inkscape:connector-curvature="0"
         style="fill:#b7b79d"
         d="m 452.897,138.814 39.968,0 0,7.386 -39.968,0 0,-7.386 z"
         id="path6" />
      <path
         inkscape:connector-curvature="0"
         style="fill:none;fill-opacity:0;stroke:#494936;stroke-width:0.02"
         d="m 452.897,138.814 39.968,0 0,7.386 -39.968,0 0,-7.386"
         id="path8" />
      <path
         inkscape:connector-curvature="0"
         style="fill:#c9c9b6"
         d="m 452.897,138.814 4.238,-4.018 39.968,0 -4.238,4.018 -39.968,0 z"
         id="path10" />
      <path
         inkscape:connector-curvature="0"
         style="fill:none;fill-opacity:0;stroke:#494936;stroke-width:0.02"
         d="m 452.897,138.814 4.238,-4.018 39.968,0 -4.238,4.018 -39.968,0"
         id="path12" />
      <path
         inkscape:connector-curvature="0"
         style="fill:none;fill-opacity:0;stroke:#000000;stroke-width:2.11999989"
         d="m 490.63,142.176 -9.591,0"
         id="path14" />
      <path
         inkscape:connector-curvature="0"
         style="fill:#7a7a5a"
         d="m 492.865,146.2 4.238,-4.25 0,-7.154 -4.238,4.018 0,7.386 z"
         id="path16" />
      <path
         inkscape:connector-curvature="0"
         style="fill:none;fill-opacity:0;stroke:#494936;stroke-width:0.02"
         d="m 492.865,146.2 4.238,-4.25 0,-7.154 -4.238,4.018 0,7.386"
         id="path18" />
      <path
         inkscape:connector-curvature="0"
         style="fill:#c9c9b6"
         d="m 453.123,150.885 4.459,-5.585 30.819,0 -4.459,5.585 -30.819,0 z"
         id="path20" />
      <path
         inkscape:connector-curvature="0"
         style="fill:none;fill-opacity:0;stroke:#494936;stroke-width:0.02"
         d="m 453.123,150.885 4.459,-5.585 30.819,0 -4.459,5.585 -30.819,0"
         id="path22" />
      <path
         inkscape:connector-curvature="0"
         style="fill:#7a7a5a"
         d="m 483.942,152 4.459,-4.685 0,-2.015 -4.459,5.585 0,1.115 z"
         id="path24" />
      <path
         inkscape:connector-curvature="0"
         style="fill:none;fill-opacity:0;stroke:#494936;stroke-width:0.02"
         d="m 483.942,152 4.459,-4.685 0,-2.015 -4.459,5.585 0,1.115"
         id="path26" />
      <path
         inkscape:connector-curvature="0"
         style="fill:#b7b79d"
         d="m 453.123,150.885 30.819,0 0,1.115 -30.819,0 0,-1.115 z"
         id="path28" />
      <path
         inkscape:connector-curvature="0"
         style="fill:none;fill-opacity:0;stroke:#494936;stroke-width:0.02"
         d="m 453.123,150.885 30.819,0 0,1.115 -30.819,0 0,-1.115"
         id="path30" />
      <path
         inkscape:connector-curvature="0"
         style="fill:#000000"
         d="m 458.923,137.926 3.357,-3.13 28.35,0 -3.117,3.13 -28.59,0 z"
         id="path32" />
      <path
         inkscape:connector-curvature="0"
         style="fill:none;fill-opacity:0;stroke:#000000;stroke-width:0.02"
         d="m 458.923,137.926 3.357,-3.13 28.35,0 -3.117,3.13 -28.59,0"
         id="path34" />
      <path
         inkscape:connector-curvature="0"
         style="fill:#c9c9b6"
         d="m 458.696,114.903 3.136,-2.903 28.363,0 -3.136,2.903 -28.363,0 z"
         id="path36" />
      <path
         inkscape:connector-curvature="0"
         style="fill:none;fill-opacity:0;stroke:#494936;stroke-width:0.02"
         d="m 458.696,114.903 3.136,-2.903 28.363,0 -3.136,2.903 -28.363,0"
         id="path38" />
      <path
         inkscape:connector-curvature="0"
         style="fill:#b7b79d"
         d="m 458.696,114.903 28.59,0 0,22.569 -28.59,0 0,-22.569 z"
         id="path40" />
      <path
         inkscape:connector-curvature="0"
         style="fill:none;fill-opacity:0;stroke:#494936;stroke-width:0.02"
         d="m 458.696,114.903 28.577,0 0,22.563 -28.577,0 0,-22.563"
         id="path42" />
      <path
         inkscape:connector-curvature="0"
         style="fill:#ffffff"
         d="m 461.152,117.8 23.672,0 0,17.437 -23.672,0 0,-17.437 z"
         id="path44" />
      <path
         inkscape:connector-curvature="0"
         style="fill:none;fill-opacity:0;stroke:#494936;stroke-width:0.02"
         d="m 461.152,117.8 23.672,0 0,17.43 -23.672,0 0,-17.43"
         id="path46" />
      <path
         inkscape:connector-curvature="0"
         style="fill:#7a7a5a"
         d="m 487.059,137.258 3.136,-3.13 0,-22.128 -3.136,2.903 0,22.355 z"
         id="path48" />
      <path
         inkscape:connector-curvature="0"
         style="fill:none;fill-opacity:0;stroke:#494936;stroke-width:0.02"
         d="m 487.059,137.258 3.136,-3.13 0,-22.128 -3.136,2.903 0,22.355"
         id="path50" />
    </g>
    <g
       transform="matrix(0.50505048,0,0,0.50505048,-51.456449,-15.467592)"
       id="g52">
      <path
         inkscape:connector-curvature="0"
         style="fill:#0096d4"
         d="m 281.43,75.6364 0,18.3636 72.644,0 0,-18.3636 -72.644,0 z"
         id="path54" />
      <path
         inkscape:connector-curvature="0"
         style="fill:none;fill-opacity:0;stroke:#aae6ff;stroke-width:0.02"
         d="m 281.43,75.6364 0,18.3636 72.644,0 0,-18.3636 -72.644,0"
         id="path56" />
      <path
         inkscape:connector-curvature="0"
         style="fill:#005a80"
         d="M 354.074,75.6364 376.57,54 l 0,18.3636 L 354.074,94 l 0,-18.3636 z"
         id="path58" />
      <path
         inkscape:connector-curvature="0"
         style="fill:none;fill-opacity:0;stroke:#aae6ff;stroke-width:0.02"
         d="M 354.074,75.6364 376.57,54 l 0,18.3636 L 354.074,94 l 0,-18.3636"
         id="path60" />
      <path
         inkscape:connector-curvature="0"
         style="fill:#00b4ff"
         d="M 354.074,75.6364 376.57,54 l -72.694,0 -22.446,21.6364 72.644,0 z"
         id="path62" />
      <path
         inkscape:connector-curvature="0"
         style="fill:none;fill-opacity:0;stroke:#aae6ff;stroke-width:0.02"
         d="M 354.074,75.6364 376.57,54 l -72.694,0 -22.446,21.6364 72.644,0"
         id="path64" />
      <path
         inkscape:connector-curvature="0"
         style="fill:#000000"
         d="m 326.983,65.157 -2.628,2.5785 18.48,0 -2.628,3.3058 15.19,-3.9504 -7.918,-3.2562 -2,1.3223 -18.496,0 z"
         id="path66" />
      <path
         inkscape:connector-curvature="0"
         style="fill:#000000"
         d="m 336.24,56.6281 -2.645,2.6116 18.496,0 -3.306,3.2727 15.851,-4.562 -8.578,-3.3058 -1.289,1.9835 -18.529,0 z"
         id="path68" />
      <path
         inkscape:connector-curvature="0"
         style="fill:#000000"
         d="m 320.372,72.3636 2.694,-2.6446 -19.19,0 3.306,-3.2727 -15.223,3.9173 7.95,3.3058 1.339,-1.3058 19.124,0 z"
         id="path70" />
      <path
         inkscape:connector-curvature="0"
         style="fill:#000000"
         d="m 328.983,63.1405 2.645,-2.562 -18.496,0 3.323,-3.3058 -15.885,4.5785 8.579,3.3058 1.322,-2.0165 18.512,0 z"
         id="path72" />
      <path
         inkscape:connector-curvature="0"
         style="fill:#ffffff"
         d="m 327.645,65.7686 -2.628,2.6281 18.495,0 -2.644,3.2893 15.19,-3.9505 -7.951,-3.2562 -1.95,1.2893 -18.512,0 z"
         id="path74" />
      <path
         inkscape:connector-curvature="0"
         style="fill:#ffffff"
         d="m 336.901,57.2727 -2.645,2.6116 18.496,0 -3.306,3.2562 15.868,-4.5785 -8.578,-3.2562 -1.339,1.9669 -18.496,0 z"
         id="path76" />
      <path
         inkscape:connector-curvature="0"
         style="fill:#ffffff"
         d="m 321.033,73.0083 2.645,-2.6447 -19.124,0 3.256,-3.2727 -15.174,3.9504 7.934,3.2727 1.306,-1.3057 19.157,0 z"
         id="path78" />
      <path
         inkscape:connector-curvature="0"
         style="fill:#ffffff"
         d="m 329.612,63.8347 2.677,-2.6446 -18.529,0 3.323,-3.2397 -15.835,4.562 8.578,3.2562 1.29,-1.9339 18.496,0 z"
         id="path80" />
    </g>
    <g
       transform="matrix(0.13286348,0,0,0.13286348,96.991519,31.417606)"
       id="g3843">
      <rect
         rx="17.142857"
         ry="17.142857"
         y="88.076469"
         x="57.14286"
         height="145.71428"
         width="100"
         id="rect3761"
         style="fill:#000000;fill-opacity:1;fill-rule:nonzero;stroke:#000000;stroke-width:1;stroke-linejoin:miter;stroke-miterlimit:4;stroke-dasharray:none;stroke-dashoffset:0;stroke-opacity:1" />
      <rect
         ry="0"
         rx="0"
         y="82.615738"
         x="94.954346"
         height="35.355339"
         width="32.324883"
         id="rect3811"
         style="fill:#cccccc;fill-opacity:1;fill-rule:nonzero;stroke:#000000;stroke-width:1;stroke-linejoin:miter;stroke-miterlimit:4;stroke-dasharray:none;stroke-dashoffset:0;stroke-opacity:1" />
      <rect
         y="121.50661"
         x="58.083771"
         height="99.500023"
         width="10.606602"
         id="rect3813"
         style="fill:#333333;fill-opacity:1;fill-rule:nonzero;stroke:#000000;stroke-width:1;stroke-linejoin:miter;stroke-miterlimit:4;stroke-dasharray:none;stroke-dashoffset:0;stroke-opacity:1" />
      <rect
         y="121.75915"
         x="144.70435"
         height="99.500023"
         width="10.606602"
         id="rect3813-1"
         style="fill:#333333;fill-opacity:1;fill-rule:nonzero;stroke:#000000;stroke-width:1;stroke-linejoin:miter;stroke-miterlimit:4;stroke-dasharray:none;stroke-dashoffset:0;stroke-opacity:1" />
      <rect
         y="132.61829"
         x="124.24876"
         height="25.253813"
         width="19.697975"
         id="rect3833"
         style="fill:#333333;fill-opacity:1;fill-rule:nonzero;stroke:#000000;stroke-width:1;stroke-linejoin:miter;stroke-miterlimit:4;stroke-dasharray:none;stroke-dashoffset:0;stroke-opacity:1" />
      <rect
         y="156.35687"
         x="94.954338"
         height="27.274118"
         width="27.779196"
         id="rect3835"
         style="fill:#333333;fill-opacity:1;fill-rule:nonzero;stroke:#000000;stroke-width:1;stroke-linejoin:miter;stroke-miterlimit:4;stroke-dasharray:none;stroke-dashoffset:0;stroke-opacity:1" />
      <rect
         y="190.19699"
         x="89.90358"
         height="22.223356"
         width="28.789347"
         id="rect3837"
         style="fill:#333333;fill-opacity:1;fill-rule:nonzero;stroke:#000000;stroke-width:1;stroke-linejoin:miter;stroke-miterlimit:4;stroke-dasharray:none;stroke-dashoffset:0;stroke-opacity:1" />
      <rect
         y="221.00664"
         x="79.296974"
         height="17.172594"
         width="20.203051"
         id="rect3839"
         style="fill:#b3b3b3;fill-opacity:1;fill-rule:nonzero;stroke:#000000;stroke-width:1;stroke-linejoin:miter;stroke-miterlimit:4;stroke-dasharray:none;stroke-dashoffset:0;stroke-opacity:1" />
      <rect
         y="83.120811"
         x="73.741135"
         height="20.203051"
         width="15.152288"
         id="rect3841"
         style="fill:#1a1a1a;fill-opacity:1;fill-rule:nonzero;stroke:#000000;stroke-width:1;stroke-linejoin:miter;stroke-miterlimit:4;stroke-dasharray:none;stroke-dashoffset:0;stroke-opacity:1" />
    </g>
    <g
       id="g3533"
       transform="matrix(0.10641166,0,0,0.10641166,24.530375,40.701361)">
      <rect
         ry="0"
         rx="0"
         y="48.270554"
         x="347.49249"
         height="123.23861"
         width="206.57619"
         id="rect3486"
         style="fill:#999999" />
      <ellipse
         ry="25.001276"
         rx="25.506351"
         cy="109.63731"
         cx="392.19171"
         id="path3490"
         style="fill:#000000"
         d="m 417.69806,109.63731 a 25.506351,25.001276 0 0 1 -25.50635,25.00127 25.506351,25.001276 0 0 1 -25.50635,-25.00127 25.506351,25.001276 0 0 1 25.50635,-25.00128 25.506351,25.001276 0 0 1 25.50635,25.00128 z" />
      <ellipse
         ry="25.001276"
         rx="25.506351"
         cy="108.37462"
         cx="514.1676"
         id="path3490-1"
         style="fill:#000000"
         d="M 539.67395,108.37462 A 25.506351,25.001276 0 0 1 514.1676,133.37589 25.506351,25.001276 0 0 1 488.66125,108.37462 25.506351,25.001276 0 0 1 514.1676,83.373343 25.506351,25.001276 0 0 1 539.67395,108.37462 Z" />
      <ellipse
         ry="29.294424"
         rx="31.062191"
         cy="107.36448"
         cx="454.82117"
         id="path3531"
         style="fill:#000000"
         d="m 485.88336,107.36448 a 31.062191,29.294424 0 0 1 -31.06219,29.29442 31.062191,29.294424 0 0 1 -31.06219,-29.29442 31.062191,29.294424 0 0 1 31.06219,-29.294425 31.062191,29.294424 0 0 1 31.06219,29.294425 z" />
    </g>
    <g
       id="g3467"
       transform="matrix(0.09407408,0,0,0.09407408,41.076355,65.909455)">
      <rect
         y="77.56498"
         x="202.0305"
         height="163.13963"
         width="269.20566"
         id="rect3344"
         style="fill:#808080" />
      <rect
         y="100.29341"
         x="271.73105"
         height="84.34774"
         width="137.88582"
         id="rect3346"
         style="fill:#4d4d4d" />
      <rect
         rx="6.5659914"
         ry="5.0507627"
         y="106.85941"
         x="220.71832"
         height="10.606602"
         width="41.416256"
         id="rect3350"
         style="fill:#000000" />
      <rect
         rx="6.5659914"
         ry="5.0507627"
         y="127.82007"
         x="221.72847"
         height="10.606602"
         width="41.416256"
         id="rect3350-2"
         style="fill:#000000" />
      <rect
         rx="6.5659914"
         ry="5.0507627"
         y="148.5282"
         x="221.72847"
         height="10.606602"
         width="41.416256"
         id="rect3350-4"
         style="fill:#000000" />
      <rect
         rx="6.5659914"
         ry="5.0507627"
         y="168.73123"
         x="222.73863"
         height="10.606602"
         width="41.416256"
         id="rect3350-6"
         style="fill:#000000" />
      <rect
         rx="6.5659914"
         ry="5.0507627"
         y="107.99583"
         x="416.6879"
         height="10.606602"
         width="41.416256"
         id="rect3350-1"
         style="fill:#000000" />
      <rect
         rx="6.5659914"
         ry="5.0507627"
         y="128.9565"
         x="417.69806"
         height="10.606602"
         width="41.416256"
         id="rect3350-2-9"
         style="fill:#000000" />
      <rect
         rx="6.5659914"
         ry="5.0507627"
         y="149.66463"
         x="417.69806"
         height="10.606602"
         width="41.416256"
         id="rect3350-4-6"
         style="fill:#000000" />
      <rect
         rx="6.5659914"
         ry="5.0507627"
         y="169.86766"
         x="418.70822"
         height="10.606602"
         width="41.416256"
         id="rect3350-6-0"
         style="fill:#000000" />
      <ellipse
         ry="24.24366"
         rx="24.748737"
         cy="216.96603"
         cx="341.93665"
         id="path3414"
         style="fill:#ff0000"
         d="m 366.68538,216.96603 a 24.748737,24.24366 0 0 1 -24.74873,24.24366 24.748737,24.24366 0 0 1 -24.74874,-24.24366 24.748737,24.24366 0 0 1 24.74874,-24.24366 24.748737,24.24366 0 0 1 24.74873,24.24366 z" />
      <rect
         y="191.71222"
         x="272.74118"
         height="18.687822"
         width="14.142136"
         id="rect3416"
         style="fill:#000000" />
      <rect
         rx="4.0406103"
         ry="5.5558391"
         y="191.20714"
         x="297.48993"
         height="19.192898"
         width="16.667517"
         id="rect3418"
         style="fill:#000000" />
      <rect
         rx="4.0406103"
         ry="5.5558391"
         y="190.70206"
         x="370.47345"
         height="19.192898"
         width="16.667517"
         id="rect3418-3"
         style="fill:#000000" />
      <rect
         y="191.96475"
         x="394.46457"
         height="18.687822"
         width="14.142136"
         id="rect3416-9"
         style="fill:#000000" />
      <rect
         rx="7.0710678"
         ry="6.060915"
         y="216.46095"
         x="278.80209"
         height="19.192898"
         width="34.345188"
         id="rect3450"
         style="fill:#000000" />
      <rect
         rx="7.0710678"
         ry="6.060915"
         y="216.96603"
         x="374.26151"
         height="19.192898"
         width="34.345188"
         id="rect3450-8"
         style="fill:#000000" />
    </g>
    <path
       style="fill:none;fill-rule:evenodd;stroke:#000000;stroke-width:0.28222224px;stroke-linecap:butt;stroke-linejoin:miter;stroke-opacity:1"
       d="M 72.583957,72.852403 72.286484,53.367775"
       id="path3757"
       inkscape:connector-curvature="0" />
    <path
       style="fill:none;fill-rule:evenodd;stroke:#000000;stroke-width:0.28222224px;stroke-linecap:butt;stroke-linejoin:miter;stroke-opacity:1"
       d="M 79.425888,52.326612 105.1575,52.177875"
       id="path3759"
       inkscape:connector-curvature="0" />
    <path
       style="fill:none;fill-rule:evenodd;stroke:#000000;stroke-width:0.28222224px;stroke-linecap:butt;stroke-linejoin:miter;stroke-opacity:1"
       d="m 111.55321,42.361192 0,-10.411635"
       id="path3761"
       inkscape:connector-curvature="0" />
    <path
       style="fill:none;fill-rule:evenodd;stroke:#000000;stroke-width:0.28222224px;stroke-linecap:butt;stroke-linejoin:miter;stroke-opacity:1"
       d="m 156.1745,28.08238 -25.43413,0.446212"
       id="path3763"
       inkscape:connector-curvature="0" />
  </g>
</svg>
