G04 #@! TF.FileFunction,Soldermask,Top*
%FSLAX46Y46*%
G04 Gerber Fmt 4.6, Leading zero omitted, Abs format (unit mm)*
G04 Created by KiCad (PCBNEW 4.0.1-stable) date Samstag, 15. Juli 2017 15:02:31*
%MOMM*%
G01*
G04 APERTURE LIST*
%ADD10C,0.100000*%
%ADD11C,0.150000*%
%ADD12C,4.464000*%
%ADD13R,2.099260X1.598880*%
%ADD14O,2.099260X1.598880*%
%ADD15R,2.127200X2.127200*%
%ADD16O,2.127200X2.127200*%
%ADD17O,1.901140X2.599640*%
%ADD18R,1.700000X1.700000*%
%ADD19C,1.700000*%
%ADD20C,1.900000*%
%ADD21R,2.300000X2.400000*%
%ADD22C,2.300000*%
%ADD23R,2.432000X2.432000*%
%ADD24O,2.432000X2.432000*%
%ADD25O,2.899360X1.901140*%
%ADD26C,4.199840*%
%ADD27C,2.127200*%
%ADD28O,2.432000X2.127200*%
%ADD29R,2.000200X2.597100*%
%ADD30O,2.000200X2.597100*%
%ADD31R,2.432000X2.127200*%
%ADD32C,2.800000*%
%ADD33R,2.800000X2.800000*%
%ADD34O,2.599640X1.901140*%
G04 APERTURE END LIST*
D10*
D11*
X129500000Y-71500000D02*
X191500000Y-71500000D01*
X128000000Y-90500000D02*
X128000000Y-73000000D01*
X128000000Y-90500000D02*
G75*
G03X129000000Y-91500000I1000000J0D01*
G01*
X129000000Y-91500000D02*
X132000000Y-91500000D01*
X133000000Y-92500000D02*
G75*
G03X132000000Y-91500000I-1000000J0D01*
G01*
X133000000Y-107500000D02*
X133000000Y-92500000D01*
X128000000Y-126500000D02*
X128000000Y-109500000D01*
X129000000Y-108500000D02*
X132000000Y-108500000D01*
X132000000Y-108500000D02*
G75*
G03X133000000Y-107500000I0J1000000D01*
G01*
X129000000Y-108500000D02*
G75*
G03X128000000Y-109500000I0J-1000000D01*
G01*
X191500000Y-128000000D02*
X129500000Y-128000000D01*
X193000000Y-73000000D02*
X193000000Y-126500000D01*
X129500000Y-71500000D02*
G75*
G03X128000000Y-73000000I0J-1500000D01*
G01*
X128000000Y-126500000D02*
G75*
G03X129500000Y-128000000I1500000J0D01*
G01*
X191500000Y-128000000D02*
G75*
G03X193000000Y-126500000I0J1500000D01*
G01*
X193000000Y-73000000D02*
G75*
G03X191500000Y-71500000I-1500000J0D01*
G01*
D12*
X189500000Y-75500000D03*
D13*
X183642000Y-97233740D03*
D14*
X183642000Y-95234760D03*
X183642000Y-93233240D03*
X183642000Y-91234260D03*
D12*
X131500000Y-124500000D03*
X131500000Y-75500000D03*
D15*
X136372600Y-76758800D03*
D16*
X136372600Y-74218800D03*
X138912600Y-76758800D03*
X138912600Y-74218800D03*
X141452600Y-76758800D03*
X141452600Y-74218800D03*
X143992600Y-76758800D03*
X143992600Y-74218800D03*
X146532600Y-76758800D03*
X146532600Y-74218800D03*
X149072600Y-76758800D03*
X149072600Y-74218800D03*
X151612600Y-76758800D03*
X151612600Y-74218800D03*
X154152600Y-76758800D03*
X154152600Y-74218800D03*
X156692600Y-76758800D03*
X156692600Y-74218800D03*
X159232600Y-76758800D03*
X159232600Y-74218800D03*
X161772600Y-76758800D03*
X161772600Y-74218800D03*
X164312600Y-76758800D03*
X164312600Y-74218800D03*
X166852600Y-76758800D03*
X166852600Y-74218800D03*
X169392600Y-76758800D03*
X169392600Y-74218800D03*
X171932600Y-76758800D03*
X171932600Y-74218800D03*
X174472600Y-76758800D03*
X174472600Y-74218800D03*
X177012600Y-76758800D03*
X177012600Y-74218800D03*
X179552600Y-76758800D03*
X179552600Y-74218800D03*
X182092600Y-76758800D03*
X182092600Y-74218800D03*
X184632600Y-76758800D03*
X184632600Y-74218800D03*
D17*
X150495000Y-96520000D03*
X153035000Y-96520000D03*
X155575000Y-96520000D03*
X158115000Y-96520000D03*
X158115000Y-104140000D03*
X155575000Y-104140000D03*
X153035000Y-104140000D03*
X150495000Y-104140000D03*
D18*
X161290000Y-82550000D03*
D19*
X161290000Y-85050000D03*
D20*
X146050000Y-80010000D03*
X153670000Y-80010000D03*
D18*
X146050000Y-97790000D03*
D19*
X143550000Y-97790000D03*
D18*
X139065000Y-97790000D03*
D19*
X141565000Y-97790000D03*
D18*
X178562000Y-90170000D03*
D19*
X178562000Y-92670000D03*
D20*
X163830000Y-80010000D03*
X156210000Y-80010000D03*
X135255000Y-90805000D03*
X135255000Y-98425000D03*
D18*
X154051000Y-93573600D03*
D19*
X151551000Y-93573600D03*
D20*
X135890000Y-80010000D03*
X143510000Y-80010000D03*
D12*
X189500000Y-124500000D03*
D18*
X151892000Y-110998000D03*
D19*
X151892000Y-113498000D03*
D18*
X151892000Y-117983000D03*
D19*
X151892000Y-115483000D03*
D21*
X138430000Y-124460000D03*
D22*
X135890000Y-124460000D03*
D23*
X160020000Y-123825000D03*
D24*
X160020000Y-126365000D03*
D20*
X132715000Y-120650000D03*
X140335000Y-120650000D03*
D25*
X148590000Y-114300000D03*
X148590000Y-111760000D03*
X148590000Y-116840000D03*
D26*
X131826000Y-114300000D03*
D20*
X145415000Y-93980000D03*
X140335000Y-93980000D03*
D17*
X158750000Y-90170000D03*
X156210000Y-90170000D03*
X153670000Y-90170000D03*
X151130000Y-90170000D03*
X148590000Y-90170000D03*
X146050000Y-90170000D03*
X143510000Y-90170000D03*
X140970000Y-90170000D03*
X138430000Y-90170000D03*
X138430000Y-82550000D03*
X140970000Y-82550000D03*
X143510000Y-82550000D03*
X146050000Y-82550000D03*
X148590000Y-82550000D03*
X151130000Y-82550000D03*
X153670000Y-82550000D03*
X156210000Y-82550000D03*
X158750000Y-82550000D03*
D20*
X162560000Y-126746000D03*
X162560000Y-119126000D03*
D27*
X175895000Y-104140000D03*
D28*
X175895000Y-106680000D03*
X175895000Y-109220000D03*
X175895000Y-111760000D03*
X175895000Y-114300000D03*
X175895000Y-116840000D03*
X175895000Y-119380000D03*
X175895000Y-121920000D03*
D27*
X180975000Y-104140000D03*
D16*
X178435000Y-104140000D03*
X180975000Y-106680000D03*
X178435000Y-106680000D03*
X180975000Y-109220000D03*
X178435000Y-109220000D03*
X180975000Y-111760000D03*
X178435000Y-111760000D03*
X180975000Y-114300000D03*
X178435000Y-114300000D03*
X180975000Y-116840000D03*
X178435000Y-116840000D03*
X180975000Y-119380000D03*
X178435000Y-119380000D03*
X180975000Y-121920000D03*
X178435000Y-121920000D03*
D27*
X186055000Y-104140000D03*
D16*
X183515000Y-104140000D03*
X186055000Y-106680000D03*
X183515000Y-106680000D03*
X186055000Y-109220000D03*
X183515000Y-109220000D03*
X186055000Y-111760000D03*
X183515000Y-111760000D03*
X186055000Y-114300000D03*
X183515000Y-114300000D03*
X186055000Y-116840000D03*
X183515000Y-116840000D03*
X186055000Y-119380000D03*
X183515000Y-119380000D03*
X186055000Y-121920000D03*
X183515000Y-121920000D03*
D20*
X163830000Y-82042000D03*
X163830000Y-89662000D03*
X175260000Y-92456000D03*
X167640000Y-92456000D03*
X177800000Y-87630000D03*
X177800000Y-80010000D03*
X175260000Y-90170000D03*
X167640000Y-90170000D03*
D27*
X168275000Y-104140000D03*
D16*
X165735000Y-104140000D03*
X168275000Y-106680000D03*
X165735000Y-106680000D03*
X168275000Y-109220000D03*
X165735000Y-109220000D03*
X168275000Y-111760000D03*
X165735000Y-111760000D03*
X168275000Y-114300000D03*
X165735000Y-114300000D03*
X168275000Y-116840000D03*
X165735000Y-116840000D03*
X168275000Y-119380000D03*
X165735000Y-119380000D03*
X168275000Y-121920000D03*
X165735000Y-121920000D03*
D27*
X173355000Y-104140000D03*
D16*
X170815000Y-104140000D03*
X173355000Y-106680000D03*
X170815000Y-106680000D03*
X173355000Y-109220000D03*
X170815000Y-109220000D03*
X173355000Y-111760000D03*
X170815000Y-111760000D03*
X173355000Y-114300000D03*
X170815000Y-114300000D03*
X173355000Y-116840000D03*
X170815000Y-116840000D03*
X173355000Y-119380000D03*
X170815000Y-119380000D03*
X173355000Y-121920000D03*
X170815000Y-121920000D03*
D23*
X130810000Y-80010000D03*
D24*
X133350000Y-80010000D03*
D18*
X152400000Y-107315000D03*
D19*
X149900000Y-107315000D03*
D18*
X154940000Y-119380000D03*
D19*
X157440000Y-119380000D03*
D29*
X143510000Y-104775000D03*
D30*
X140970000Y-104775000D03*
X138430000Y-104775000D03*
X135890000Y-104775000D03*
D13*
X183642000Y-86819740D03*
D14*
X183642000Y-84820760D03*
X183642000Y-82819240D03*
X183642000Y-80820260D03*
D27*
X165735000Y-101600000D03*
X168275000Y-101600000D03*
X170815000Y-101600000D03*
X173355000Y-101600000D03*
D16*
X175895000Y-101600000D03*
X178435000Y-101600000D03*
D27*
X180975000Y-101600000D03*
D16*
X183515000Y-101600000D03*
D27*
X186055000Y-101600000D03*
D23*
X180594000Y-85344000D03*
D24*
X180594000Y-82804000D03*
D31*
X130810000Y-83820000D03*
D28*
X130810000Y-86360000D03*
X130810000Y-88900000D03*
D32*
X152725000Y-124395000D03*
D33*
X156225000Y-124395000D03*
D32*
X149225000Y-124395000D03*
X145725000Y-124395000D03*
X142225000Y-124395000D03*
D34*
X167640000Y-87630000D03*
X167640000Y-85090000D03*
X167640000Y-82550000D03*
X167640000Y-80010000D03*
X175260000Y-80010000D03*
X175260000Y-82550000D03*
X175260000Y-85090000D03*
X175260000Y-87630000D03*
D23*
X146126200Y-116865400D03*
D24*
X146126200Y-119405400D03*
D31*
X191135000Y-104140000D03*
D28*
X191135000Y-106680000D03*
X191135000Y-109220000D03*
X191135000Y-111760000D03*
X191135000Y-114300000D03*
X191135000Y-116840000D03*
M02*
