G04 #@! TF.FileFunction,Legend,Bot*
%FSLAX46Y46*%
G04 Gerber Fmt 4.6, Leading zero omitted, Abs format (unit mm)*
G04 Created by KiCad (PCBNEW 4.0.2+dfsg1-stable) date Do 04 Mai 2017 16:16:20 CEST*
%MOMM*%
G01*
G04 APERTURE LIST*
%ADD10C,0.100000*%
%ADD11C,0.150000*%
%ADD12C,0.254000*%
%ADD13C,0.381000*%
%ADD14C,0.285750*%
%ADD15C,0.287020*%
%ADD16C,0.203200*%
%ADD17C,0.152400*%
%ADD18C,0.284480*%
G04 APERTURE END LIST*
D10*
D11*
X129500000Y-71500000D02*
X191500000Y-71500000D01*
X128000000Y-90500000D02*
X128000000Y-73000000D01*
X128000000Y-90500000D02*
G75*
G03X129000000Y-91500000I1000000J0D01*
G01*
X129000000Y-91500000D02*
X132000000Y-91500000D01*
X133000000Y-92500000D02*
G75*
G03X132000000Y-91500000I-1000000J0D01*
G01*
X133000000Y-107500000D02*
X133000000Y-92500000D01*
X128000000Y-126500000D02*
X128000000Y-109500000D01*
X129000000Y-108500000D02*
X132000000Y-108500000D01*
X132000000Y-108500000D02*
G75*
G03X133000000Y-107500000I0J1000000D01*
G01*
X129000000Y-108500000D02*
G75*
G03X128000000Y-109500000I0J-1000000D01*
G01*
X191500000Y-128000000D02*
X129500000Y-128000000D01*
X193000000Y-73000000D02*
X193000000Y-126500000D01*
X129500000Y-71500000D02*
G75*
G03X128000000Y-73000000I0J-1500000D01*
G01*
X128000000Y-126500000D02*
G75*
G03X129500000Y-128000000I1500000J0D01*
G01*
X191500000Y-128000000D02*
G75*
G03X193000000Y-126500000I0J1500000D01*
G01*
X193000000Y-73000000D02*
G75*
G03X191500000Y-71500000I-1500000J0D01*
G01*
X185902600Y-72948800D02*
X135102600Y-72948800D01*
X137642600Y-78028800D02*
X185902600Y-78028800D01*
X185902600Y-72948800D02*
X185902600Y-78028800D01*
X135102600Y-72948800D02*
X135102600Y-75488800D01*
X136372600Y-78308800D02*
X134822600Y-78308800D01*
X135102600Y-75488800D02*
X137642600Y-75488800D01*
X137642600Y-75488800D02*
X137642600Y-78028800D01*
X134822600Y-78308800D02*
X134822600Y-76758800D01*
D12*
X156337000Y-99060000D02*
X152273000Y-99060000D01*
X152273000Y-101600000D02*
X156337000Y-101600000D01*
X159385000Y-95250000D02*
X149225000Y-95250000D01*
X159385000Y-105410000D02*
X149225000Y-105410000D01*
X150495000Y-100330000D02*
G75*
G02X149225000Y-101600000I-1270000J0D01*
G01*
X149225000Y-99060000D02*
G75*
G02X150495000Y-100330000I0J-1270000D01*
G01*
X152273000Y-101600000D02*
X152273000Y-99060000D01*
X156337000Y-99060000D02*
X156337000Y-101600000D01*
X159385000Y-105410000D02*
X159385000Y-95250000D01*
X149225000Y-95250000D02*
X149225000Y-105410000D01*
D11*
X162540000Y-104390000D02*
X162540000Y-101390000D01*
X160040000Y-101390000D02*
X160040000Y-104390000D01*
D12*
X152019000Y-80010000D02*
X153670000Y-80010000D01*
X147701000Y-80010000D02*
X146050000Y-80010000D01*
X147701000Y-80899000D02*
X147701000Y-79121000D01*
X147701000Y-79121000D02*
X152019000Y-79121000D01*
X152019000Y-79121000D02*
X152019000Y-80899000D01*
X152019000Y-80899000D02*
X147701000Y-80899000D01*
D11*
X146300000Y-96540000D02*
X143300000Y-96540000D01*
X143300000Y-99040000D02*
X146300000Y-99040000D01*
X138815000Y-99040000D02*
X141815000Y-99040000D01*
X141815000Y-96540000D02*
X138815000Y-96540000D01*
X179455000Y-91420000D02*
X182455000Y-91420000D01*
X182455000Y-88920000D02*
X179455000Y-88920000D01*
D12*
X157861000Y-80010000D02*
X156210000Y-80010000D01*
X162179000Y-80010000D02*
X163830000Y-80010000D01*
X162179000Y-79121000D02*
X162179000Y-80899000D01*
X162179000Y-80899000D02*
X157861000Y-80899000D01*
X157861000Y-80899000D02*
X157861000Y-79121000D01*
X157861000Y-79121000D02*
X162179000Y-79121000D01*
X135255000Y-96774000D02*
X135255000Y-98425000D01*
X135255000Y-92456000D02*
X135255000Y-90805000D01*
X134366000Y-92456000D02*
X136144000Y-92456000D01*
X136144000Y-92456000D02*
X136144000Y-96774000D01*
X136144000Y-96774000D02*
X134366000Y-96774000D01*
X134366000Y-96774000D02*
X134366000Y-92456000D01*
D11*
X154301000Y-92323600D02*
X151301000Y-92323600D01*
X151301000Y-94823600D02*
X154301000Y-94823600D01*
D12*
X141859000Y-80010000D02*
X143510000Y-80010000D01*
X137541000Y-80010000D02*
X135890000Y-80010000D01*
X137541000Y-80899000D02*
X137541000Y-79121000D01*
X137541000Y-79121000D02*
X141859000Y-79121000D01*
X141859000Y-79121000D02*
X141859000Y-80899000D01*
X141859000Y-80899000D02*
X137541000Y-80899000D01*
D11*
X150642000Y-110748000D02*
X150642000Y-113748000D01*
X153142000Y-113748000D02*
X153142000Y-110748000D01*
X153142000Y-118233000D02*
X153142000Y-115233000D01*
X150642000Y-115233000D02*
X150642000Y-118233000D01*
X158750000Y-125095000D02*
X158750000Y-127635000D01*
X158470000Y-122275000D02*
X158470000Y-123825000D01*
X158750000Y-125095000D02*
X161290000Y-125095000D01*
X161570000Y-123825000D02*
X161570000Y-122275000D01*
X161570000Y-122275000D02*
X158470000Y-122275000D01*
X161290000Y-125095000D02*
X161290000Y-127635000D01*
X161290000Y-127635000D02*
X158750000Y-127635000D01*
D12*
X138684000Y-120650000D02*
X140335000Y-120650000D01*
X134366000Y-120650000D02*
X132715000Y-120650000D01*
X134366000Y-121539000D02*
X134366000Y-119761000D01*
X134366000Y-119761000D02*
X138684000Y-119761000D01*
X138684000Y-119761000D02*
X138684000Y-121539000D01*
X138684000Y-121539000D02*
X134366000Y-121539000D01*
D11*
X134340472Y-114300000D02*
G75*
G03X134340472Y-114300000I-2514472J0D01*
G01*
X144907000Y-111760000D02*
X146685000Y-111760000D01*
X144907000Y-114300000D02*
X146685000Y-114300000D01*
X144907000Y-116840000D02*
X146685000Y-116840000D01*
X136398000Y-119634000D02*
X128397000Y-119634000D01*
X128397000Y-119634000D02*
X128397000Y-108966000D01*
X128397000Y-108966000D02*
X136398000Y-108966000D01*
X144907000Y-119634000D02*
X136398000Y-119634000D01*
X136398000Y-119634000D02*
X136398000Y-108966000D01*
X136398000Y-108966000D02*
X144907000Y-108966000D01*
X144907000Y-114300000D02*
X144907000Y-108966000D01*
X144907000Y-114300000D02*
X144907000Y-119634000D01*
D13*
X156050000Y-109760000D02*
G75*
G03X156050000Y-109760000I-800000J0D01*
G01*
X153650000Y-115260000D02*
X153650000Y-108260000D01*
X153650000Y-108260000D02*
X163850000Y-108260000D01*
X163850000Y-108260000D02*
X163850000Y-115260000D01*
X163850000Y-115260000D02*
X153650000Y-115260000D01*
D12*
X137287000Y-93980000D02*
G75*
G02X139573000Y-91694000I2286000J0D01*
G01*
X146177000Y-95758000D02*
X139573000Y-95758000D01*
X139573000Y-92202000D02*
X146177000Y-92202000D01*
X139573000Y-95758000D02*
G75*
G02X137795000Y-93980000I0J1778000D01*
G01*
X137795000Y-93980000D02*
G75*
G02X139573000Y-92202000I1778000J0D01*
G01*
X147955000Y-93980000D02*
G75*
G02X146177000Y-95758000I-1778000J0D01*
G01*
X146177000Y-92202000D02*
G75*
G02X147955000Y-93980000I0J-1778000D01*
G01*
X139573000Y-96266000D02*
G75*
G02X137287000Y-93980000I0J2286000D01*
G01*
X139573000Y-96266000D02*
X146177000Y-96266000D01*
X146177000Y-91694000D02*
X139573000Y-91694000D01*
X148463000Y-93980000D02*
G75*
G02X146177000Y-96266000I-2286000J0D01*
G01*
X146177000Y-91694000D02*
G75*
G02X148463000Y-93980000I0J-2286000D01*
G01*
X140208000Y-87630000D02*
X156972000Y-87630000D01*
X156972000Y-85090000D02*
X140208000Y-85090000D01*
D13*
X137160000Y-91440000D02*
X160020000Y-91440000D01*
X160020000Y-81280000D02*
X137160000Y-81280000D01*
D12*
X158750000Y-86360000D02*
G75*
G02X160020000Y-85090000I1270000J0D01*
G01*
X160020000Y-87630000D02*
G75*
G02X158750000Y-86360000I0J1270000D01*
G01*
X156972000Y-85090000D02*
X156972000Y-87630000D01*
X140208000Y-87630000D02*
X140208000Y-85090000D01*
D13*
X137160000Y-81280000D02*
X137160000Y-91440000D01*
X160020000Y-91440000D02*
X160020000Y-81280000D01*
D12*
X170815000Y-81788000D02*
X170815000Y-85852000D01*
X173355000Y-85852000D02*
X173355000Y-81788000D01*
X167005000Y-78740000D02*
X167005000Y-88900000D01*
X177165000Y-78740000D02*
X177165000Y-88900000D01*
X172085000Y-87630000D02*
G75*
G02X173355000Y-88900000I0J-1270000D01*
G01*
X170815000Y-88900000D02*
G75*
G02X172085000Y-87630000I1270000J0D01*
G01*
X173355000Y-85852000D02*
X170815000Y-85852000D01*
X170815000Y-81788000D02*
X173355000Y-81788000D01*
X177165000Y-78740000D02*
X167005000Y-78740000D01*
X167005000Y-88900000D02*
X177165000Y-88900000D01*
X162560000Y-120396000D02*
X162560000Y-118745000D01*
X162560000Y-124714000D02*
X162560000Y-126365000D01*
X163449000Y-124714000D02*
X161671000Y-124714000D01*
X161671000Y-124714000D02*
X161671000Y-120396000D01*
X161671000Y-120396000D02*
X163449000Y-120396000D01*
X163449000Y-120396000D02*
X163449000Y-124714000D01*
X163195000Y-88519000D02*
X163195000Y-90170000D01*
X163195000Y-84201000D02*
X163195000Y-82550000D01*
X162306000Y-84201000D02*
X164084000Y-84201000D01*
X164084000Y-84201000D02*
X164084000Y-88519000D01*
X164084000Y-88519000D02*
X162306000Y-88519000D01*
X162306000Y-88519000D02*
X162306000Y-84201000D01*
X171196000Y-92710000D02*
X169545000Y-92710000D01*
X175514000Y-92710000D02*
X177165000Y-92710000D01*
X175514000Y-91821000D02*
X175514000Y-93599000D01*
X175514000Y-93599000D02*
X171196000Y-93599000D01*
X171196000Y-93599000D02*
X171196000Y-91821000D01*
X171196000Y-91821000D02*
X175514000Y-91821000D01*
X178435000Y-81661000D02*
X178435000Y-80010000D01*
X178435000Y-85979000D02*
X178435000Y-87630000D01*
X179324000Y-85979000D02*
X177546000Y-85979000D01*
X177546000Y-85979000D02*
X177546000Y-81661000D01*
X177546000Y-81661000D02*
X179324000Y-81661000D01*
X179324000Y-81661000D02*
X179324000Y-85979000D01*
X171196000Y-90170000D02*
X169545000Y-90170000D01*
X175514000Y-90170000D02*
X177165000Y-90170000D01*
X175514000Y-89281000D02*
X175514000Y-91059000D01*
X175514000Y-91059000D02*
X171196000Y-91059000D01*
X171196000Y-91059000D02*
X171196000Y-89281000D01*
X171196000Y-89281000D02*
X175514000Y-89281000D01*
D11*
X132080000Y-81280000D02*
X134620000Y-81280000D01*
X129260000Y-81560000D02*
X130810000Y-81560000D01*
X132080000Y-81280000D02*
X132080000Y-78740000D01*
X130810000Y-78460000D02*
X129260000Y-78460000D01*
X129260000Y-78460000D02*
X129260000Y-81560000D01*
X132080000Y-78740000D02*
X134620000Y-78740000D01*
X134620000Y-78740000D02*
X134620000Y-81280000D01*
X152650000Y-106065000D02*
X149650000Y-106065000D01*
X149650000Y-108565000D02*
X152650000Y-108565000D01*
X154690000Y-120630000D02*
X157690000Y-120630000D01*
X157690000Y-118130000D02*
X154690000Y-118130000D01*
D13*
X133799580Y-106174540D02*
X145600420Y-106174540D01*
X145600420Y-100076000D02*
X133799580Y-100076000D01*
X133799580Y-106174540D02*
X133799580Y-100076000D01*
X145600420Y-100076000D02*
X145600420Y-106174540D01*
X144999456Y-101178360D02*
G75*
G03X144999456Y-101178360I-498856J0D01*
G01*
D11*
X132080000Y-85090000D02*
X132080000Y-90170000D01*
X132080000Y-90170000D02*
X129540000Y-90170000D01*
X129540000Y-90170000D02*
X129540000Y-85090000D01*
X129260000Y-82270000D02*
X129260000Y-83820000D01*
X129540000Y-85090000D02*
X132080000Y-85090000D01*
X132360000Y-83820000D02*
X132360000Y-82270000D01*
X132360000Y-82270000D02*
X129260000Y-82270000D01*
X134596095Y-73350381D02*
X134596095Y-72350381D01*
X134215142Y-72350381D01*
X134119904Y-72398000D01*
X134072285Y-72445619D01*
X134024666Y-72540857D01*
X134024666Y-72683714D01*
X134072285Y-72778952D01*
X134119904Y-72826571D01*
X134215142Y-72874190D01*
X134596095Y-72874190D01*
X133072285Y-73350381D02*
X133643714Y-73350381D01*
X133358000Y-73350381D02*
X133358000Y-72350381D01*
X133453238Y-72493238D01*
X133548476Y-72588476D01*
X133643714Y-72636095D01*
D14*
X155239357Y-99431929D02*
X155239357Y-100665643D01*
X155184929Y-100810786D01*
X155130500Y-100883357D01*
X155021643Y-100955929D01*
X154803929Y-100955929D01*
X154695071Y-100883357D01*
X154640643Y-100810786D01*
X154586214Y-100665643D01*
X154586214Y-99431929D01*
X154096357Y-99577071D02*
X154041928Y-99504500D01*
X153933071Y-99431929D01*
X153660928Y-99431929D01*
X153552071Y-99504500D01*
X153497642Y-99577071D01*
X153443214Y-99722214D01*
X153443214Y-99867357D01*
X153497642Y-100085071D01*
X154150785Y-100955929D01*
X153443214Y-100955929D01*
D15*
D14*
X161344429Y-92818858D02*
X159820429Y-92818858D01*
X160909000Y-93199858D01*
X159820429Y-93580858D01*
X161344429Y-93580858D01*
X161199286Y-94778287D02*
X161271857Y-94723858D01*
X161344429Y-94560572D01*
X161344429Y-94451715D01*
X161271857Y-94288430D01*
X161126714Y-94179572D01*
X160981571Y-94125144D01*
X160691286Y-94070715D01*
X160473571Y-94070715D01*
X160183286Y-94125144D01*
X160038143Y-94179572D01*
X159893000Y-94288430D01*
X159820429Y-94451715D01*
X159820429Y-94560572D01*
X159893000Y-94723858D01*
X159965571Y-94778287D01*
X161344429Y-95268144D02*
X159820429Y-95268144D01*
X159820429Y-95703572D01*
X159893000Y-95812430D01*
X159965571Y-95866858D01*
X160110714Y-95921287D01*
X160328429Y-95921287D01*
X160473571Y-95866858D01*
X160546143Y-95812430D01*
X160618714Y-95703572D01*
X160618714Y-95268144D01*
X159965571Y-96356715D02*
X159893000Y-96411144D01*
X159820429Y-96520001D01*
X159820429Y-96792144D01*
X159893000Y-96901001D01*
X159965571Y-96955430D01*
X160110714Y-97009858D01*
X160255857Y-97009858D01*
X160473571Y-96955430D01*
X161344429Y-96302287D01*
X161344429Y-97009858D01*
X159820429Y-98044001D02*
X159820429Y-97499715D01*
X160546143Y-97445286D01*
X160473571Y-97499715D01*
X160401000Y-97608572D01*
X160401000Y-97880715D01*
X160473571Y-97989572D01*
X160546143Y-98044001D01*
X160691286Y-98098429D01*
X161054143Y-98098429D01*
X161199286Y-98044001D01*
X161271857Y-97989572D01*
X161344429Y-97880715D01*
X161344429Y-97608572D01*
X161271857Y-97499715D01*
X161199286Y-97445286D01*
X159820429Y-99078143D02*
X159820429Y-98860429D01*
X159893000Y-98751572D01*
X159965571Y-98697143D01*
X160183286Y-98588286D01*
X160473571Y-98533857D01*
X161054143Y-98533857D01*
X161199286Y-98588286D01*
X161271857Y-98642714D01*
X161344429Y-98751572D01*
X161344429Y-98969286D01*
X161271857Y-99078143D01*
X161199286Y-99132572D01*
X161054143Y-99187000D01*
X160691286Y-99187000D01*
X160546143Y-99132572D01*
X160473571Y-99078143D01*
X160401000Y-98969286D01*
X160401000Y-98751572D01*
X160473571Y-98642714D01*
X160546143Y-98588286D01*
X160691286Y-98533857D01*
X159965571Y-99622428D02*
X159893000Y-99676857D01*
X159820429Y-99785714D01*
X159820429Y-100057857D01*
X159893000Y-100166714D01*
X159965571Y-100221143D01*
X160110714Y-100275571D01*
X160255857Y-100275571D01*
X160473571Y-100221143D01*
X161344429Y-99568000D01*
X161344429Y-100275571D01*
D15*
D11*
X163552143Y-103973334D02*
X163599762Y-103925715D01*
X163647381Y-103782858D01*
X163647381Y-103687620D01*
X163599762Y-103544762D01*
X163504524Y-103449524D01*
X163409286Y-103401905D01*
X163218810Y-103354286D01*
X163075952Y-103354286D01*
X162885476Y-103401905D01*
X162790238Y-103449524D01*
X162695000Y-103544762D01*
X162647381Y-103687620D01*
X162647381Y-103782858D01*
X162695000Y-103925715D01*
X162742619Y-103973334D01*
X162647381Y-104306667D02*
X162647381Y-104925715D01*
X163028333Y-104592381D01*
X163028333Y-104735239D01*
X163075952Y-104830477D01*
X163123571Y-104878096D01*
X163218810Y-104925715D01*
X163456905Y-104925715D01*
X163552143Y-104878096D01*
X163599762Y-104830477D01*
X163647381Y-104735239D01*
X163647381Y-104449524D01*
X163599762Y-104354286D01*
X163552143Y-104306667D01*
D16*
X150071667Y-80641976D02*
X150495000Y-79976738D01*
X150797381Y-80641976D02*
X150797381Y-79244976D01*
X150313572Y-79244976D01*
X150192619Y-79311500D01*
X150132143Y-79378024D01*
X150071667Y-79511071D01*
X150071667Y-79710643D01*
X150132143Y-79843690D01*
X150192619Y-79910214D01*
X150313572Y-79976738D01*
X150797381Y-79976738D01*
X148862143Y-80641976D02*
X149587857Y-80641976D01*
X149225000Y-80641976D02*
X149225000Y-79244976D01*
X149345952Y-79444548D01*
X149466905Y-79577595D01*
X149587857Y-79644119D01*
D11*
X148121666Y-98147143D02*
X148169285Y-98194762D01*
X148312142Y-98242381D01*
X148407380Y-98242381D01*
X148550238Y-98194762D01*
X148645476Y-98099524D01*
X148693095Y-98004286D01*
X148740714Y-97813810D01*
X148740714Y-97670952D01*
X148693095Y-97480476D01*
X148645476Y-97385238D01*
X148550238Y-97290000D01*
X148407380Y-97242381D01*
X148312142Y-97242381D01*
X148169285Y-97290000D01*
X148121666Y-97337619D01*
X147169285Y-98242381D02*
X147740714Y-98242381D01*
X147455000Y-98242381D02*
X147455000Y-97242381D01*
X147550238Y-97385238D01*
X147645476Y-97480476D01*
X147740714Y-97528095D01*
X137326666Y-98147143D02*
X137374285Y-98194762D01*
X137517142Y-98242381D01*
X137612380Y-98242381D01*
X137755238Y-98194762D01*
X137850476Y-98099524D01*
X137898095Y-98004286D01*
X137945714Y-97813810D01*
X137945714Y-97670952D01*
X137898095Y-97480476D01*
X137850476Y-97385238D01*
X137755238Y-97290000D01*
X137612380Y-97242381D01*
X137517142Y-97242381D01*
X137374285Y-97290000D01*
X137326666Y-97337619D01*
X136945714Y-97337619D02*
X136898095Y-97290000D01*
X136802857Y-97242381D01*
X136564761Y-97242381D01*
X136469523Y-97290000D01*
X136421904Y-97337619D01*
X136374285Y-97432857D01*
X136374285Y-97528095D01*
X136421904Y-97670952D01*
X136993333Y-98242381D01*
X136374285Y-98242381D01*
X181121666Y-93027143D02*
X181169285Y-93074762D01*
X181312142Y-93122381D01*
X181407380Y-93122381D01*
X181550238Y-93074762D01*
X181645476Y-92979524D01*
X181693095Y-92884286D01*
X181740714Y-92693810D01*
X181740714Y-92550952D01*
X181693095Y-92360476D01*
X181645476Y-92265238D01*
X181550238Y-92170000D01*
X181407380Y-92122381D01*
X181312142Y-92122381D01*
X181169285Y-92170000D01*
X181121666Y-92217619D01*
X180264523Y-92455714D02*
X180264523Y-93122381D01*
X180502619Y-92074762D02*
X180740714Y-92789048D01*
X180121666Y-92789048D01*
D16*
X160231667Y-80641976D02*
X160655000Y-79976738D01*
X160957381Y-80641976D02*
X160957381Y-79244976D01*
X160473572Y-79244976D01*
X160352619Y-79311500D01*
X160292143Y-79378024D01*
X160231667Y-79511071D01*
X160231667Y-79710643D01*
X160292143Y-79843690D01*
X160352619Y-79910214D01*
X160473572Y-79976738D01*
X160957381Y-79976738D01*
X159808333Y-79244976D02*
X159022143Y-79244976D01*
X159445476Y-79777167D01*
X159264048Y-79777167D01*
X159143095Y-79843690D01*
X159082619Y-79910214D01*
X159022143Y-80043262D01*
X159022143Y-80375881D01*
X159082619Y-80508929D01*
X159143095Y-80575452D01*
X159264048Y-80641976D01*
X159626905Y-80641976D01*
X159747857Y-80575452D01*
X159808333Y-80508929D01*
X135886976Y-94403333D02*
X135221738Y-93980000D01*
X135886976Y-93677619D02*
X134489976Y-93677619D01*
X134489976Y-94161428D01*
X134556500Y-94282381D01*
X134623024Y-94342857D01*
X134756071Y-94403333D01*
X134955643Y-94403333D01*
X135088690Y-94342857D01*
X135155214Y-94282381D01*
X135221738Y-94161428D01*
X135221738Y-93677619D01*
X134955643Y-95491905D02*
X135886976Y-95491905D01*
X134423452Y-95189524D02*
X135421310Y-94887143D01*
X135421310Y-95673333D01*
D11*
X152967666Y-91430743D02*
X153015285Y-91478362D01*
X153158142Y-91525981D01*
X153253380Y-91525981D01*
X153396238Y-91478362D01*
X153491476Y-91383124D01*
X153539095Y-91287886D01*
X153586714Y-91097410D01*
X153586714Y-90954552D01*
X153539095Y-90764076D01*
X153491476Y-90668838D01*
X153396238Y-90573600D01*
X153253380Y-90525981D01*
X153158142Y-90525981D01*
X153015285Y-90573600D01*
X152967666Y-90621219D01*
X152062904Y-90525981D02*
X152539095Y-90525981D01*
X152586714Y-91002171D01*
X152539095Y-90954552D01*
X152443857Y-90906933D01*
X152205761Y-90906933D01*
X152110523Y-90954552D01*
X152062904Y-91002171D01*
X152015285Y-91097410D01*
X152015285Y-91335505D01*
X152062904Y-91430743D01*
X152110523Y-91478362D01*
X152205761Y-91525981D01*
X152443857Y-91525981D01*
X152539095Y-91478362D01*
X152586714Y-91430743D01*
D16*
X139911667Y-80641976D02*
X140335000Y-79976738D01*
X140637381Y-80641976D02*
X140637381Y-79244976D01*
X140153572Y-79244976D01*
X140032619Y-79311500D01*
X139972143Y-79378024D01*
X139911667Y-79511071D01*
X139911667Y-79710643D01*
X139972143Y-79843690D01*
X140032619Y-79910214D01*
X140153572Y-79976738D01*
X140637381Y-79976738D01*
X139427857Y-79378024D02*
X139367381Y-79311500D01*
X139246429Y-79244976D01*
X138944048Y-79244976D01*
X138823095Y-79311500D01*
X138762619Y-79378024D01*
X138702143Y-79511071D01*
X138702143Y-79644119D01*
X138762619Y-79843690D01*
X139488333Y-80641976D01*
X138702143Y-80641976D01*
D11*
X152249143Y-108926334D02*
X152296762Y-108878715D01*
X152344381Y-108735858D01*
X152344381Y-108640620D01*
X152296762Y-108497762D01*
X152201524Y-108402524D01*
X152106286Y-108354905D01*
X151915810Y-108307286D01*
X151772952Y-108307286D01*
X151582476Y-108354905D01*
X151487238Y-108402524D01*
X151392000Y-108497762D01*
X151344381Y-108640620D01*
X151344381Y-108735858D01*
X151392000Y-108878715D01*
X151439619Y-108926334D01*
X151344381Y-109783477D02*
X151344381Y-109593000D01*
X151392000Y-109497762D01*
X151439619Y-109450143D01*
X151582476Y-109354905D01*
X151772952Y-109307286D01*
X152153905Y-109307286D01*
X152249143Y-109354905D01*
X152296762Y-109402524D01*
X152344381Y-109497762D01*
X152344381Y-109688239D01*
X152296762Y-109783477D01*
X152249143Y-109831096D01*
X152153905Y-109878715D01*
X151915810Y-109878715D01*
X151820571Y-109831096D01*
X151772952Y-109783477D01*
X151725333Y-109688239D01*
X151725333Y-109497762D01*
X151772952Y-109402524D01*
X151820571Y-109354905D01*
X151915810Y-109307286D01*
X154789143Y-118451334D02*
X154836762Y-118403715D01*
X154884381Y-118260858D01*
X154884381Y-118165620D01*
X154836762Y-118022762D01*
X154741524Y-117927524D01*
X154646286Y-117879905D01*
X154455810Y-117832286D01*
X154312952Y-117832286D01*
X154122476Y-117879905D01*
X154027238Y-117927524D01*
X153932000Y-118022762D01*
X153884381Y-118165620D01*
X153884381Y-118260858D01*
X153932000Y-118403715D01*
X153979619Y-118451334D01*
X153884381Y-118784667D02*
X153884381Y-119451334D01*
X154884381Y-119022762D01*
X157583095Y-125547381D02*
X157583095Y-124547381D01*
X157202142Y-124547381D01*
X157106904Y-124595000D01*
X157059285Y-124642619D01*
X157011666Y-124737857D01*
X157011666Y-124880714D01*
X157059285Y-124975952D01*
X157106904Y-125023571D01*
X157202142Y-125071190D01*
X157583095Y-125071190D01*
X156154523Y-124547381D02*
X156345000Y-124547381D01*
X156440238Y-124595000D01*
X156487857Y-124642619D01*
X156583095Y-124785476D01*
X156630714Y-124975952D01*
X156630714Y-125356905D01*
X156583095Y-125452143D01*
X156535476Y-125499762D01*
X156440238Y-125547381D01*
X156249761Y-125547381D01*
X156154523Y-125499762D01*
X156106904Y-125452143D01*
X156059285Y-125356905D01*
X156059285Y-125118810D01*
X156106904Y-125023571D01*
X156154523Y-124975952D01*
X156249761Y-124928333D01*
X156440238Y-124928333D01*
X156535476Y-124975952D01*
X156583095Y-125023571D01*
X156630714Y-125118810D01*
D16*
X136736667Y-121281976D02*
X137160000Y-120616738D01*
X137462381Y-121281976D02*
X137462381Y-119884976D01*
X136978572Y-119884976D01*
X136857619Y-119951500D01*
X136797143Y-120018024D01*
X136736667Y-120151071D01*
X136736667Y-120350643D01*
X136797143Y-120483690D01*
X136857619Y-120550214D01*
X136978572Y-120616738D01*
X137462381Y-120616738D01*
X135587619Y-119884976D02*
X136192381Y-119884976D01*
X136252857Y-120550214D01*
X136192381Y-120483690D01*
X136071429Y-120417167D01*
X135769048Y-120417167D01*
X135648095Y-120483690D01*
X135587619Y-120550214D01*
X135527143Y-120683262D01*
X135527143Y-121015881D01*
X135587619Y-121148929D01*
X135648095Y-121215452D01*
X135769048Y-121281976D01*
X136071429Y-121281976D01*
X136192381Y-121215452D01*
X136252857Y-121148929D01*
D11*
X140166581Y-113257095D02*
X140976105Y-113257095D01*
X141071343Y-113304714D01*
X141118962Y-113352333D01*
X141166581Y-113447571D01*
X141166581Y-113638048D01*
X141118962Y-113733286D01*
X141071343Y-113780905D01*
X140976105Y-113828524D01*
X140166581Y-113828524D01*
X140166581Y-114209476D02*
X140166581Y-114876143D01*
X141166581Y-114447571D01*
D14*
X159620857Y-110290429D02*
X159620857Y-111524143D01*
X159566429Y-111669286D01*
X159512000Y-111741857D01*
X159403143Y-111814429D01*
X159185429Y-111814429D01*
X159076571Y-111741857D01*
X159022143Y-111669286D01*
X158967714Y-111524143D01*
X158967714Y-110290429D01*
X157933571Y-110290429D02*
X158151285Y-110290429D01*
X158260142Y-110363000D01*
X158314571Y-110435571D01*
X158423428Y-110653286D01*
X158477857Y-110943571D01*
X158477857Y-111524143D01*
X158423428Y-111669286D01*
X158369000Y-111741857D01*
X158260142Y-111814429D01*
X158042428Y-111814429D01*
X157933571Y-111741857D01*
X157879142Y-111669286D01*
X157824714Y-111524143D01*
X157824714Y-111161286D01*
X157879142Y-111016143D01*
X157933571Y-110943571D01*
X158042428Y-110871000D01*
X158260142Y-110871000D01*
X158369000Y-110943571D01*
X158423428Y-111016143D01*
X158477857Y-111161286D01*
D15*
D14*
X162070142Y-114354429D02*
X162070142Y-112830429D01*
X161580285Y-114281857D02*
X161416999Y-114354429D01*
X161144856Y-114354429D01*
X161035999Y-114281857D01*
X160981570Y-114209286D01*
X160927142Y-114064143D01*
X160927142Y-113919000D01*
X160981570Y-113773857D01*
X161035999Y-113701286D01*
X161144856Y-113628714D01*
X161362570Y-113556143D01*
X161471428Y-113483571D01*
X161525856Y-113411000D01*
X161580285Y-113265857D01*
X161580285Y-113120714D01*
X161525856Y-112975571D01*
X161471428Y-112903000D01*
X161362570Y-112830429D01*
X161090428Y-112830429D01*
X160927142Y-112903000D01*
X160219571Y-112830429D02*
X160001857Y-112830429D01*
X159892999Y-112903000D01*
X159784142Y-113048143D01*
X159729714Y-113338429D01*
X159729714Y-113846429D01*
X159784142Y-114136714D01*
X159892999Y-114281857D01*
X160001857Y-114354429D01*
X160219571Y-114354429D01*
X160328428Y-114281857D01*
X160437285Y-114136714D01*
X160491714Y-113846429D01*
X160491714Y-113338429D01*
X160437285Y-113048143D01*
X160328428Y-112903000D01*
X160219571Y-112830429D01*
X158641142Y-114354429D02*
X159294285Y-114354429D01*
X158967713Y-114354429D02*
X158967713Y-112830429D01*
X159076570Y-113048143D01*
X159185428Y-113193286D01*
X159294285Y-113265857D01*
X157933571Y-112830429D02*
X157824714Y-112830429D01*
X157715857Y-112903000D01*
X157661428Y-112975571D01*
X157606999Y-113120714D01*
X157552571Y-113411000D01*
X157552571Y-113773857D01*
X157606999Y-114064143D01*
X157661428Y-114209286D01*
X157715857Y-114281857D01*
X157824714Y-114354429D01*
X157933571Y-114354429D01*
X158042428Y-114281857D01*
X158096857Y-114209286D01*
X158151285Y-114064143D01*
X158205714Y-113773857D01*
X158205714Y-113411000D01*
X158151285Y-113120714D01*
X158096857Y-112975571D01*
X158042428Y-112903000D01*
X157933571Y-112830429D01*
X156518428Y-112830429D02*
X157062714Y-112830429D01*
X157117143Y-113556143D01*
X157062714Y-113483571D01*
X156953857Y-113411000D01*
X156681714Y-113411000D01*
X156572857Y-113483571D01*
X156518428Y-113556143D01*
X156464000Y-113701286D01*
X156464000Y-114064143D01*
X156518428Y-114209286D01*
X156572857Y-114281857D01*
X156681714Y-114354429D01*
X156953857Y-114354429D01*
X157062714Y-114281857D01*
X157117143Y-114209286D01*
X155756429Y-112830429D02*
X155647572Y-112830429D01*
X155538715Y-112903000D01*
X155484286Y-112975571D01*
X155429857Y-113120714D01*
X155375429Y-113411000D01*
X155375429Y-113773857D01*
X155429857Y-114064143D01*
X155484286Y-114209286D01*
X155538715Y-114281857D01*
X155647572Y-114354429D01*
X155756429Y-114354429D01*
X155865286Y-114281857D01*
X155919715Y-114209286D01*
X155974143Y-114064143D01*
X156028572Y-113773857D01*
X156028572Y-113411000D01*
X155974143Y-113120714D01*
X155919715Y-112975571D01*
X155865286Y-112903000D01*
X155756429Y-112830429D01*
D17*
X150274961Y-92985386D02*
X150274961Y-93529671D01*
X150698295Y-92386671D02*
X150274961Y-92985386D01*
X149851628Y-92386671D01*
X148763057Y-93529671D02*
X149488771Y-93529671D01*
X149125914Y-93529671D02*
X149125914Y-92386671D01*
X149246866Y-92549957D01*
X149367819Y-92658814D01*
X149488771Y-92713243D01*
D14*
X155924857Y-85546829D02*
X155924857Y-86780543D01*
X155870429Y-86925686D01*
X155816000Y-86998257D01*
X155707143Y-87070829D01*
X155489429Y-87070829D01*
X155380571Y-86998257D01*
X155326143Y-86925686D01*
X155271714Y-86780543D01*
X155271714Y-85546829D01*
X154128714Y-87070829D02*
X154781857Y-87070829D01*
X154455285Y-87070829D02*
X154455285Y-85546829D01*
X154564142Y-85764543D01*
X154673000Y-85909686D01*
X154781857Y-85982257D01*
D15*
D14*
X151783142Y-87049429D02*
X151783142Y-85525429D01*
X151402142Y-86614000D01*
X151021142Y-85525429D01*
X151021142Y-87049429D01*
X149823713Y-86904286D02*
X149878142Y-86976857D01*
X150041428Y-87049429D01*
X150150285Y-87049429D01*
X150313570Y-86976857D01*
X150422428Y-86831714D01*
X150476856Y-86686571D01*
X150531285Y-86396286D01*
X150531285Y-86178571D01*
X150476856Y-85888286D01*
X150422428Y-85743143D01*
X150313570Y-85598000D01*
X150150285Y-85525429D01*
X150041428Y-85525429D01*
X149878142Y-85598000D01*
X149823713Y-85670571D01*
X149333856Y-87049429D02*
X149333856Y-85525429D01*
X148898428Y-85525429D01*
X148789570Y-85598000D01*
X148735142Y-85670571D01*
X148680713Y-85815714D01*
X148680713Y-86033429D01*
X148735142Y-86178571D01*
X148789570Y-86251143D01*
X148898428Y-86323714D01*
X149333856Y-86323714D01*
X148245285Y-85670571D02*
X148190856Y-85598000D01*
X148081999Y-85525429D01*
X147809856Y-85525429D01*
X147700999Y-85598000D01*
X147646570Y-85670571D01*
X147592142Y-85815714D01*
X147592142Y-85960857D01*
X147646570Y-86178571D01*
X148299713Y-87049429D01*
X147592142Y-87049429D01*
X146557999Y-85525429D02*
X147102285Y-85525429D01*
X147156714Y-86251143D01*
X147102285Y-86178571D01*
X146993428Y-86106000D01*
X146721285Y-86106000D01*
X146612428Y-86178571D01*
X146557999Y-86251143D01*
X146503571Y-86396286D01*
X146503571Y-86759143D01*
X146557999Y-86904286D01*
X146612428Y-86976857D01*
X146721285Y-87049429D01*
X146993428Y-87049429D01*
X147102285Y-86976857D01*
X147156714Y-86904286D01*
X145415000Y-87049429D02*
X146068143Y-87049429D01*
X145741571Y-87049429D02*
X145741571Y-85525429D01*
X145850428Y-85743143D01*
X145959286Y-85888286D01*
X146068143Y-85960857D01*
X144380857Y-85525429D02*
X144925143Y-85525429D01*
X144979572Y-86251143D01*
X144925143Y-86178571D01*
X144816286Y-86106000D01*
X144544143Y-86106000D01*
X144435286Y-86178571D01*
X144380857Y-86251143D01*
X144326429Y-86396286D01*
X144326429Y-86759143D01*
X144380857Y-86904286D01*
X144435286Y-86976857D01*
X144544143Y-87049429D01*
X144816286Y-87049429D01*
X144925143Y-86976857D01*
X144979572Y-86904286D01*
D15*
D14*
X169713729Y-79228043D02*
X170947443Y-79228043D01*
X171092586Y-79282471D01*
X171165157Y-79336900D01*
X171237729Y-79445757D01*
X171237729Y-79663471D01*
X171165157Y-79772329D01*
X171092586Y-79826757D01*
X170947443Y-79881186D01*
X169713729Y-79881186D01*
X170366871Y-80588758D02*
X170294300Y-80479900D01*
X170221729Y-80425472D01*
X170076586Y-80371043D01*
X170004014Y-80371043D01*
X169858871Y-80425472D01*
X169786300Y-80479900D01*
X169713729Y-80588758D01*
X169713729Y-80806472D01*
X169786300Y-80915329D01*
X169858871Y-80969758D01*
X170004014Y-81024186D01*
X170076586Y-81024186D01*
X170221729Y-80969758D01*
X170294300Y-80915329D01*
X170366871Y-80806472D01*
X170366871Y-80588758D01*
X170439443Y-80479900D01*
X170512014Y-80425472D01*
X170657157Y-80371043D01*
X170947443Y-80371043D01*
X171092586Y-80425472D01*
X171165157Y-80479900D01*
X171237729Y-80588758D01*
X171237729Y-80806472D01*
X171165157Y-80915329D01*
X171092586Y-80969758D01*
X170947443Y-81024186D01*
X170657157Y-81024186D01*
X170512014Y-80969758D01*
X170439443Y-80915329D01*
X170366871Y-80806472D01*
D15*
D14*
X173282429Y-79440316D02*
X171758429Y-79440316D01*
X171758429Y-79875744D01*
X171831000Y-79984602D01*
X171903571Y-80039030D01*
X172048714Y-80093459D01*
X172266429Y-80093459D01*
X172411571Y-80039030D01*
X172484143Y-79984602D01*
X172556714Y-79875744D01*
X172556714Y-79440316D01*
X172411571Y-80746602D02*
X172339000Y-80637744D01*
X172266429Y-80583316D01*
X172121286Y-80528887D01*
X172048714Y-80528887D01*
X171903571Y-80583316D01*
X171831000Y-80637744D01*
X171758429Y-80746602D01*
X171758429Y-80964316D01*
X171831000Y-81073173D01*
X171903571Y-81127602D01*
X172048714Y-81182030D01*
X172121286Y-81182030D01*
X172266429Y-81127602D01*
X172339000Y-81073173D01*
X172411571Y-80964316D01*
X172411571Y-80746602D01*
X172484143Y-80637744D01*
X172556714Y-80583316D01*
X172701857Y-80528887D01*
X172992143Y-80528887D01*
X173137286Y-80583316D01*
X173209857Y-80637744D01*
X173282429Y-80746602D01*
X173282429Y-80964316D01*
X173209857Y-81073173D01*
X173137286Y-81127602D01*
X172992143Y-81182030D01*
X172701857Y-81182030D01*
X172556714Y-81127602D01*
X172484143Y-81073173D01*
X172411571Y-80964316D01*
X171903571Y-81617458D02*
X171831000Y-81671887D01*
X171758429Y-81780744D01*
X171758429Y-82052887D01*
X171831000Y-82161744D01*
X171903571Y-82216173D01*
X172048714Y-82270601D01*
X172193857Y-82270601D01*
X172411571Y-82216173D01*
X173282429Y-81563030D01*
X173282429Y-82270601D01*
X172484143Y-83141458D02*
X172556714Y-83304744D01*
X172629286Y-83359172D01*
X172774429Y-83413601D01*
X172992143Y-83413601D01*
X173137286Y-83359172D01*
X173209857Y-83304744D01*
X173282429Y-83195886D01*
X173282429Y-82760458D01*
X171758429Y-82760458D01*
X171758429Y-83141458D01*
X171831000Y-83250315D01*
X171903571Y-83304744D01*
X172048714Y-83359172D01*
X172193857Y-83359172D01*
X172339000Y-83304744D01*
X172411571Y-83250315D01*
X172484143Y-83141458D01*
X172484143Y-82760458D01*
X171758429Y-83794601D02*
X171758429Y-84556601D01*
X173282429Y-84066744D01*
X173282429Y-85590743D02*
X173282429Y-84937600D01*
X173282429Y-85264172D02*
X171758429Y-85264172D01*
X171976143Y-85155315D01*
X172121286Y-85046457D01*
X172193857Y-84937600D01*
X171758429Y-86624886D02*
X171758429Y-86080600D01*
X172484143Y-86026171D01*
X172411571Y-86080600D01*
X172339000Y-86189457D01*
X172339000Y-86461600D01*
X172411571Y-86570457D01*
X172484143Y-86624886D01*
X172629286Y-86679314D01*
X172992143Y-86679314D01*
X173137286Y-86624886D01*
X173209857Y-86570457D01*
X173282429Y-86461600D01*
X173282429Y-86189457D01*
X173209857Y-86080600D01*
X173137286Y-86026171D01*
D15*
D16*
X163191976Y-121738571D02*
X162526738Y-121315238D01*
X163191976Y-121012857D02*
X161794976Y-121012857D01*
X161794976Y-121496666D01*
X161861500Y-121617619D01*
X161928024Y-121678095D01*
X162061071Y-121738571D01*
X162260643Y-121738571D01*
X162393690Y-121678095D01*
X162460214Y-121617619D01*
X162526738Y-121496666D01*
X162526738Y-121012857D01*
X163191976Y-122948095D02*
X163191976Y-122222381D01*
X163191976Y-122585238D02*
X161794976Y-122585238D01*
X161994548Y-122464286D01*
X162127595Y-122343333D01*
X162194119Y-122222381D01*
X161794976Y-123371429D02*
X161794976Y-124157619D01*
X162327167Y-123734286D01*
X162327167Y-123915714D01*
X162393690Y-124036667D01*
X162460214Y-124097143D01*
X162593262Y-124157619D01*
X162925881Y-124157619D01*
X163058929Y-124097143D01*
X163125452Y-124036667D01*
X163191976Y-123915714D01*
X163191976Y-123552857D01*
X163125452Y-123431905D01*
X163058929Y-123371429D01*
X163826976Y-85543571D02*
X163161738Y-85120238D01*
X163826976Y-84817857D02*
X162429976Y-84817857D01*
X162429976Y-85301666D01*
X162496500Y-85422619D01*
X162563024Y-85483095D01*
X162696071Y-85543571D01*
X162895643Y-85543571D01*
X163028690Y-85483095D01*
X163095214Y-85422619D01*
X163161738Y-85301666D01*
X163161738Y-84817857D01*
X163826976Y-86753095D02*
X163826976Y-86027381D01*
X163826976Y-86390238D02*
X162429976Y-86390238D01*
X162629548Y-86269286D01*
X162762595Y-86148333D01*
X162829119Y-86027381D01*
X162895643Y-87841667D02*
X163826976Y-87841667D01*
X162363452Y-87539286D02*
X163361310Y-87236905D01*
X163361310Y-88023095D01*
X174171429Y-93341976D02*
X174594762Y-92676738D01*
X174897143Y-93341976D02*
X174897143Y-91944976D01*
X174413334Y-91944976D01*
X174292381Y-92011500D01*
X174231905Y-92078024D01*
X174171429Y-92211071D01*
X174171429Y-92410643D01*
X174231905Y-92543690D01*
X174292381Y-92610214D01*
X174413334Y-92676738D01*
X174897143Y-92676738D01*
X172961905Y-93341976D02*
X173687619Y-93341976D01*
X173324762Y-93341976D02*
X173324762Y-91944976D01*
X173445714Y-92144548D01*
X173566667Y-92277595D01*
X173687619Y-92344119D01*
X171812857Y-91944976D02*
X172417619Y-91944976D01*
X172478095Y-92610214D01*
X172417619Y-92543690D01*
X172296667Y-92477167D01*
X171994286Y-92477167D01*
X171873333Y-92543690D01*
X171812857Y-92610214D01*
X171752381Y-92743262D01*
X171752381Y-93075881D01*
X171812857Y-93208929D01*
X171873333Y-93275452D01*
X171994286Y-93341976D01*
X172296667Y-93341976D01*
X172417619Y-93275452D01*
X172478095Y-93208929D01*
X179054276Y-82990871D02*
X178389038Y-82567538D01*
X179054276Y-82265157D02*
X177657276Y-82265157D01*
X177657276Y-82748966D01*
X177723800Y-82869919D01*
X177790324Y-82930395D01*
X177923371Y-82990871D01*
X178122943Y-82990871D01*
X178255990Y-82930395D01*
X178322514Y-82869919D01*
X178389038Y-82748966D01*
X178389038Y-82265157D01*
X177790324Y-83474681D02*
X177723800Y-83535157D01*
X177657276Y-83656109D01*
X177657276Y-83958490D01*
X177723800Y-84079443D01*
X177790324Y-84139919D01*
X177923371Y-84200395D01*
X178056419Y-84200395D01*
X178255990Y-84139919D01*
X179054276Y-83414205D01*
X179054276Y-84200395D01*
X178122943Y-85288967D02*
X179054276Y-85288967D01*
X177590752Y-84986586D02*
X178588610Y-84684205D01*
X178588610Y-85470395D01*
X174260329Y-90852776D02*
X174683662Y-90187538D01*
X174986043Y-90852776D02*
X174986043Y-89455776D01*
X174502234Y-89455776D01*
X174381281Y-89522300D01*
X174320805Y-89588824D01*
X174260329Y-89721871D01*
X174260329Y-89921443D01*
X174320805Y-90054490D01*
X174381281Y-90121014D01*
X174502234Y-90187538D01*
X174986043Y-90187538D01*
X173776519Y-89588824D02*
X173716043Y-89522300D01*
X173595091Y-89455776D01*
X173292710Y-89455776D01*
X173171757Y-89522300D01*
X173111281Y-89588824D01*
X173050805Y-89721871D01*
X173050805Y-89854919D01*
X173111281Y-90054490D01*
X173836995Y-90852776D01*
X173050805Y-90852776D01*
X171901757Y-89455776D02*
X172506519Y-89455776D01*
X172566995Y-90121014D01*
X172506519Y-90054490D01*
X172385567Y-89987967D01*
X172083186Y-89987967D01*
X171962233Y-90054490D01*
X171901757Y-90121014D01*
X171841281Y-90254062D01*
X171841281Y-90586681D01*
X171901757Y-90719729D01*
X171962233Y-90786252D01*
X172083186Y-90852776D01*
X172385567Y-90852776D01*
X172506519Y-90786252D01*
X172566995Y-90719729D01*
D11*
X129770095Y-78049381D02*
X129770095Y-77049381D01*
X129389142Y-77049381D01*
X129293904Y-77097000D01*
X129246285Y-77144619D01*
X129198666Y-77239857D01*
X129198666Y-77382714D01*
X129246285Y-77477952D01*
X129293904Y-77525571D01*
X129389142Y-77573190D01*
X129770095Y-77573190D01*
X128817714Y-77144619D02*
X128770095Y-77097000D01*
X128674857Y-77049381D01*
X128436761Y-77049381D01*
X128341523Y-77097000D01*
X128293904Y-77144619D01*
X128246285Y-77239857D01*
X128246285Y-77335095D01*
X128293904Y-77477952D01*
X128865333Y-78049381D01*
X128246285Y-78049381D01*
X153201666Y-105132143D02*
X153249285Y-105179762D01*
X153392142Y-105227381D01*
X153487380Y-105227381D01*
X153630238Y-105179762D01*
X153725476Y-105084524D01*
X153773095Y-104989286D01*
X153820714Y-104798810D01*
X153820714Y-104655952D01*
X153773095Y-104465476D01*
X153725476Y-104370238D01*
X153630238Y-104275000D01*
X153487380Y-104227381D01*
X153392142Y-104227381D01*
X153249285Y-104275000D01*
X153201666Y-104322619D01*
X152630238Y-104655952D02*
X152725476Y-104608333D01*
X152773095Y-104560714D01*
X152820714Y-104465476D01*
X152820714Y-104417857D01*
X152773095Y-104322619D01*
X152725476Y-104275000D01*
X152630238Y-104227381D01*
X152439761Y-104227381D01*
X152344523Y-104275000D01*
X152296904Y-104322619D01*
X152249285Y-104417857D01*
X152249285Y-104465476D01*
X152296904Y-104560714D01*
X152344523Y-104608333D01*
X152439761Y-104655952D01*
X152630238Y-104655952D01*
X152725476Y-104703571D01*
X152773095Y-104751190D01*
X152820714Y-104846429D01*
X152820714Y-105036905D01*
X152773095Y-105132143D01*
X152725476Y-105179762D01*
X152630238Y-105227381D01*
X152439761Y-105227381D01*
X152344523Y-105179762D01*
X152296904Y-105132143D01*
X152249285Y-105036905D01*
X152249285Y-104846429D01*
X152296904Y-104751190D01*
X152344523Y-104703571D01*
X152439761Y-104655952D01*
X159551666Y-119737143D02*
X159599285Y-119784762D01*
X159742142Y-119832381D01*
X159837380Y-119832381D01*
X159980238Y-119784762D01*
X160075476Y-119689524D01*
X160123095Y-119594286D01*
X160170714Y-119403810D01*
X160170714Y-119260952D01*
X160123095Y-119070476D01*
X160075476Y-118975238D01*
X159980238Y-118880000D01*
X159837380Y-118832381D01*
X159742142Y-118832381D01*
X159599285Y-118880000D01*
X159551666Y-118927619D01*
X159075476Y-119832381D02*
X158885000Y-119832381D01*
X158789761Y-119784762D01*
X158742142Y-119737143D01*
X158646904Y-119594286D01*
X158599285Y-119403810D01*
X158599285Y-119022857D01*
X158646904Y-118927619D01*
X158694523Y-118880000D01*
X158789761Y-118832381D01*
X158980238Y-118832381D01*
X159075476Y-118880000D01*
X159123095Y-118927619D01*
X159170714Y-119022857D01*
X159170714Y-119260952D01*
X159123095Y-119356190D01*
X159075476Y-119403810D01*
X158980238Y-119451429D01*
X158789761Y-119451429D01*
X158694523Y-119403810D01*
X158646904Y-119356190D01*
X158599285Y-119260952D01*
D15*
X141296572Y-101654429D02*
X141296572Y-100130429D01*
X140716000Y-100130429D01*
X140570858Y-100203000D01*
X140498286Y-100275571D01*
X140425715Y-100420714D01*
X140425715Y-100638429D01*
X140498286Y-100783571D01*
X140570858Y-100856143D01*
X140716000Y-100928714D01*
X141296572Y-100928714D01*
X138974286Y-101654429D02*
X139845143Y-101654429D01*
X139409715Y-101654429D02*
X139409715Y-100130429D01*
X139554858Y-100348143D01*
X139700000Y-100493286D01*
X139845143Y-100565857D01*
X137668000Y-100130429D02*
X137958286Y-100130429D01*
X138103429Y-100203000D01*
X138176000Y-100275571D01*
X138321143Y-100493286D01*
X138393714Y-100783571D01*
X138393714Y-101364143D01*
X138321143Y-101509286D01*
X138248571Y-101581857D01*
X138103429Y-101654429D01*
X137813143Y-101654429D01*
X137668000Y-101581857D01*
X137595429Y-101509286D01*
X137522857Y-101364143D01*
X137522857Y-101001286D01*
X137595429Y-100856143D01*
X137668000Y-100783571D01*
X137813143Y-100711000D01*
X138103429Y-100711000D01*
X138248571Y-100783571D01*
X138321143Y-100856143D01*
X138393714Y-101001286D01*
D18*
X144344572Y-103432429D02*
X144344572Y-101908429D01*
X143981715Y-101908429D01*
X143764000Y-101981000D01*
X143618858Y-102126143D01*
X143546286Y-102271286D01*
X143473715Y-102561571D01*
X143473715Y-102779286D01*
X143546286Y-103069571D01*
X143618858Y-103214714D01*
X143764000Y-103359857D01*
X143981715Y-103432429D01*
X144344572Y-103432429D01*
X141949715Y-103287286D02*
X142022286Y-103359857D01*
X142240000Y-103432429D01*
X142385143Y-103432429D01*
X142602858Y-103359857D01*
X142748000Y-103214714D01*
X142820572Y-103069571D01*
X142893143Y-102779286D01*
X142893143Y-102561571D01*
X142820572Y-102271286D01*
X142748000Y-102126143D01*
X142602858Y-101981000D01*
X142385143Y-101908429D01*
X142240000Y-101908429D01*
X142022286Y-101981000D01*
X141949715Y-102053571D01*
X141296572Y-103432429D02*
X141296572Y-101908429D01*
X140933715Y-101908429D01*
X140716000Y-101981000D01*
X140570858Y-102126143D01*
X140498286Y-102271286D01*
X140425715Y-102561571D01*
X140425715Y-102779286D01*
X140498286Y-103069571D01*
X140570858Y-103214714D01*
X140716000Y-103359857D01*
X140933715Y-103432429D01*
X141296572Y-103432429D01*
X138901715Y-103287286D02*
X138974286Y-103359857D01*
X139192000Y-103432429D01*
X139337143Y-103432429D01*
X139554858Y-103359857D01*
X139700000Y-103214714D01*
X139772572Y-103069571D01*
X139845143Y-102779286D01*
X139845143Y-102561571D01*
X139772572Y-102271286D01*
X139700000Y-102126143D01*
X139554858Y-101981000D01*
X139337143Y-101908429D01*
X139192000Y-101908429D01*
X138974286Y-101981000D01*
X138901715Y-102053571D01*
X136361715Y-101908429D02*
X137087429Y-101908429D01*
X137160000Y-102634143D01*
X137087429Y-102561571D01*
X136942286Y-102489000D01*
X136579429Y-102489000D01*
X136434286Y-102561571D01*
X136361715Y-102634143D01*
X136289143Y-102779286D01*
X136289143Y-103142143D01*
X136361715Y-103287286D01*
X136434286Y-103359857D01*
X136579429Y-103432429D01*
X136942286Y-103432429D01*
X137087429Y-103359857D01*
X137160000Y-103287286D01*
X135853714Y-101908429D02*
X135345714Y-103432429D01*
X134837714Y-101908429D01*
D11*
X131421095Y-91384381D02*
X131421095Y-90384381D01*
X131040142Y-90384381D01*
X130944904Y-90432000D01*
X130897285Y-90479619D01*
X130849666Y-90574857D01*
X130849666Y-90717714D01*
X130897285Y-90812952D01*
X130944904Y-90860571D01*
X131040142Y-90908190D01*
X131421095Y-90908190D01*
X130516333Y-90384381D02*
X129897285Y-90384381D01*
X130230619Y-90765333D01*
X130087761Y-90765333D01*
X129992523Y-90812952D01*
X129944904Y-90860571D01*
X129897285Y-90955810D01*
X129897285Y-91193905D01*
X129944904Y-91289143D01*
X129992523Y-91336762D01*
X130087761Y-91384381D01*
X130373476Y-91384381D01*
X130468714Y-91336762D01*
X130516333Y-91289143D01*
M02*
