M48
;DRILL file {KiCad 4.0.2+dfsg1-stable} date So 30 Apr 2017 08:42:16 CEST
;FORMAT={2:4/ absolute / inch / keep zeros}
FMAT,2
INCH,TZ
T1C0.024
T2C0.028
T3C0.031
T4C0.032
T5C0.039
T6C0.039
T7C0.040
T8C0.047
T9C0.108
%
G90
G05
M72
T1
X056050Y-031050
X056050Y-033339
X057500Y-028550
X059000Y-032150
X059600Y-039600
X059959Y-034033
X060543Y-033398
X060900Y-038650
X061300Y-039400
X062000Y-043200
X062350Y-033650
X062700Y-034000
X062997Y-041414
X063010Y-038933
X063248Y-047011
X063250Y-032300
X063439Y-037421
X063700Y-038250
X063800Y-048400
X064000Y-041100
X064163Y-044813
X064200Y-043250
X064450Y-040500
X064589Y-037449
X065050Y-033100
X065050Y-033700
X065200Y-035150
X065500Y-035450
X068500Y-033400
X069000Y-038200
X071550Y-048550
X072800Y-048850
T2
X073500Y-031819
X073500Y-032606
X073500Y-033394
X073500Y-034181
X073500Y-035919
X073500Y-036706
X073500Y-037494
X073500Y-038281
T3
X054750Y-038500
X057500Y-038500
X059800Y-043700
X059800Y-046450
X060000Y-042250
X060650Y-036840
X061000Y-047000
X063500Y-041000
X070750Y-035500
T4
X052250Y-047500
X053250Y-035750
X053250Y-038750
X053500Y-031500
X054500Y-032500
X054500Y-035500
X055250Y-037000
X055250Y-047500
X055500Y-032500
X055500Y-035500
X055734Y-038500
X056500Y-031500
X056500Y-032500
X056500Y-035500
X056516Y-038500
X057250Y-037000
X057500Y-031500
X057500Y-032500
X057500Y-035500
X058500Y-032500
X058500Y-035500
X059016Y-042250
X059250Y-038000
X059250Y-041000
X059500Y-032500
X059500Y-035500
X059666Y-036840
X059800Y-044684
X059800Y-045466
X060250Y-038000
X060250Y-041000
X060500Y-031500
X060500Y-032500
X060500Y-035500
X061250Y-038000
X061250Y-041000
X061500Y-031500
X061500Y-032500
X061500Y-035500
X061984Y-047000
X062250Y-038000
X062250Y-041000
X062500Y-032500
X062500Y-035500
X063500Y-040016
X064000Y-046750
X064000Y-049750
X064250Y-032500
X064250Y-035500
X064500Y-031500
X066250Y-031500
X066250Y-032500
X066250Y-033500
X066250Y-034500
X066750Y-035500
X066750Y-036500
X069250Y-031500
X069250Y-032500
X069250Y-033500
X069250Y-034500
X069750Y-035500
X069750Y-036500
X070250Y-031500
X070250Y-034500
X071734Y-035500
T5
X065150Y-049000
T6
X053500Y-041250
X053500Y-049000
X054500Y-041250
X054500Y-049000
X055500Y-041250
X056500Y-041250
X058500Y-044000
X058500Y-045000
X058500Y-046000
T7
X051500Y-031500
X051500Y-033000
X051500Y-034000
X051500Y-035000
X052500Y-031500
X053690Y-029220
X053690Y-030220
X054690Y-029220
X054690Y-030220
X055690Y-029220
X055690Y-030220
X056690Y-029220
X056690Y-030220
X057690Y-029220
X057690Y-030220
X058690Y-029220
X058690Y-030220
X059690Y-029220
X059690Y-030220
X060690Y-029220
X060690Y-030220
X061690Y-029220
X061690Y-030220
X062690Y-029220
X062690Y-030220
X063000Y-048750
X063000Y-049750
X063690Y-029220
X063690Y-030220
X064690Y-029220
X064690Y-030220
X065250Y-040000
X065250Y-041000
X065250Y-042000
X065250Y-043000
X065250Y-044000
X065250Y-045000
X065250Y-046000
X065250Y-047000
X065250Y-048000
X065690Y-029220
X065690Y-030220
X066250Y-040000
X066250Y-041000
X066250Y-042000
X066250Y-043000
X066250Y-044000
X066250Y-045000
X066250Y-046000
X066250Y-047000
X066250Y-048000
X066690Y-029220
X066690Y-030220
X067250Y-040000
X067250Y-041000
X067250Y-042000
X067250Y-043000
X067250Y-044000
X067250Y-045000
X067250Y-046000
X067250Y-047000
X067250Y-048000
X067690Y-029220
X067690Y-030220
X068250Y-040000
X068250Y-041000
X068250Y-042000
X068250Y-043000
X068250Y-044000
X068250Y-045000
X068250Y-046000
X068250Y-047000
X068250Y-048000
X068690Y-029220
X068690Y-030220
X069250Y-040000
X069250Y-041000
X069250Y-042000
X069250Y-043000
X069250Y-044000
X069250Y-045000
X069250Y-046000
X069250Y-047000
X069250Y-048000
X069690Y-029220
X069690Y-030220
X070250Y-040000
X070250Y-041000
X070250Y-042000
X070250Y-043000
X070250Y-044000
X070250Y-045000
X070250Y-046000
X070250Y-047000
X070250Y-048000
X070690Y-029220
X070690Y-030220
X071250Y-040000
X071250Y-041000
X071250Y-042000
X071250Y-043000
X071250Y-044000
X071250Y-045000
X071250Y-046000
X071250Y-047000
X071250Y-048000
X071690Y-029220
X071690Y-030220
X071750Y-032250
X071750Y-033250
X072250Y-040000
X072250Y-041000
X072250Y-042000
X072250Y-043000
X072250Y-044000
X072250Y-045000
X072250Y-046000
X072250Y-047000
X072250Y-048000
X072690Y-029220
X072690Y-030220
X073250Y-040000
X073250Y-041000
X073250Y-042000
X073250Y-043000
X073250Y-044000
X073250Y-045000
X073250Y-046000
X073250Y-047000
X073250Y-048000
X075050Y-041050
X075050Y-042050
X075050Y-043050
X075050Y-044050
X075050Y-045050
X075050Y-046050
T8
X055994Y-048974
X057372Y-048974
X058750Y-048974
X060128Y-048974
X061506Y-048974
T9
X051772Y-029724
X051772Y-049016
X074606Y-029724
X074606Y-049016
T0
M30
