M48
; DRILL file {KiCad 5.1.10-88a1d61d58~88~ubuntu20.04.1} date Thu May 27 11:01:47 2021
; FORMAT={-:-/ absolute / metric / decimal}
; #@! TF.CreationDate,2021-05-27T11:01:47+02:00
; #@! TF.GenerationSoftware,Kicad,Pcbnew,5.1.10-88a1d61d58~88~ubuntu20.04.1
; #@! TF.FileFunction,Plated,1,2,PTH
FMAT,2
METRIC
T1C0.600
T2C0.701
T3C0.800
T4C0.800
T5C1.001
T6C1.016
T7C1.200
T8C2.750
%
G90
G05
T1
X142.367Y-78.867
X142.367Y-84.68
X146.05Y-72.517
X146.812Y-104.902
X148.336Y-104.902
X149.86Y-81.661
X151.384Y-100.584
X152.295Y-86.444
X153.78Y-84.831
X155.194Y-100.076
X156.592Y-93.183
X157.48Y-109.728
X158.369Y-85.471
X159.258Y-86.36
X159.759Y-92.741
X160.012Y-105.192
X160.047Y-98.889
X160.274Y-119.126
X161.138Y-93.574
X161.733Y-102.907
X161.798Y-88.138
X161.798Y-101.6
X162.052Y-90.932
X162.973Y-113.824
X163.068Y-109.855
X163.322Y-100.752
X163.626Y-101.743
X163.754Y-99.851
X164.056Y-95.12
X165.227Y-84.074
X165.227Y-85.598
X165.354Y-78.232
X165.535Y-90.312
X165.608Y-89.281
X171.958Y-81.28
X175.26Y-97.028
T2
X183.642Y-80.82
X183.642Y-82.819
X183.642Y-84.821
X183.642Y-86.82
X183.642Y-91.234
X183.642Y-93.233
X183.642Y-95.235
X183.642Y-97.234
T3
X139.065Y-97.79
X146.05Y-97.79
X151.892Y-110.998
X151.892Y-117.983
X152.4Y-107.315
X154.051Y-93.574
X154.94Y-119.38
X161.29Y-82.55
X178.562Y-90.17
T4
X132.715Y-120.65
X135.255Y-90.805
X135.255Y-98.425
X135.89Y-80.01
X138.43Y-82.55
X138.43Y-90.17
X140.335Y-93.98
X140.335Y-120.65
X140.97Y-82.55
X140.97Y-90.17
X141.565Y-97.79
X143.51Y-80.01
X143.51Y-82.55
X143.51Y-90.17
X143.55Y-97.79
X145.415Y-93.98
X146.05Y-80.01
X146.05Y-82.55
X146.05Y-90.17
X148.59Y-82.55
X148.59Y-90.17
X149.9Y-107.315
X150.495Y-96.52
X150.495Y-104.14
X151.13Y-82.55
X151.13Y-90.17
X151.551Y-93.574
X151.892Y-113.498
X151.892Y-115.483
X153.035Y-96.52
X153.035Y-104.14
X153.67Y-80.01
X153.67Y-82.55
X153.67Y-90.17
X155.575Y-96.52
X155.575Y-104.14
X156.21Y-80.01
X156.21Y-82.55
X156.21Y-90.17
X157.44Y-119.38
X158.115Y-96.52
X158.115Y-104.14
X158.75Y-82.55
X158.75Y-90.17
X161.29Y-85.05
X162.56Y-119.126
X162.56Y-126.746
X163.83Y-80.01
X163.83Y-82.042
X163.83Y-89.662
X167.64Y-80.01
X167.64Y-82.55
X167.64Y-85.09
X167.64Y-87.63
X167.64Y-90.17
X167.64Y-92.456
X175.26Y-80.01
X175.26Y-82.55
X175.26Y-85.09
X175.26Y-87.63
X175.26Y-90.17
X175.26Y-92.456
X177.8Y-80.01
X177.8Y-87.63
X178.562Y-92.67
T5
X135.89Y-104.775
X135.89Y-124.46
X138.43Y-104.775
X138.43Y-124.46
X140.97Y-104.775
X143.51Y-104.775
X148.59Y-111.76
X148.59Y-114.3
X148.59Y-116.84
T6
X130.81Y-80.01
X130.81Y-83.82
X130.81Y-86.36
X130.81Y-88.9
X133.35Y-80.01
X136.373Y-74.219
X136.373Y-76.759
X138.913Y-74.219
X138.913Y-76.759
X141.453Y-74.219
X141.453Y-76.759
X143.993Y-74.219
X143.993Y-76.759
X146.533Y-74.219
X146.533Y-76.759
X149.073Y-74.219
X149.073Y-76.759
X151.613Y-74.219
X151.613Y-76.759
X154.153Y-74.219
X154.153Y-76.759
X156.693Y-74.219
X156.693Y-76.759
X159.233Y-74.219
X159.233Y-76.759
X160.02Y-123.825
X160.02Y-126.365
X161.773Y-74.219
X161.773Y-76.759
X164.313Y-74.219
X164.313Y-76.759
X165.735Y-101.6
X165.735Y-104.14
X165.735Y-106.68
X165.735Y-109.22
X165.735Y-111.76
X165.735Y-114.3
X165.735Y-116.84
X165.735Y-119.38
X165.735Y-121.92
X166.853Y-74.219
X166.853Y-76.759
X168.275Y-101.6
X168.275Y-104.14
X168.275Y-106.68
X168.275Y-109.22
X168.275Y-111.76
X168.275Y-114.3
X168.275Y-116.84
X168.275Y-119.38
X168.275Y-121.92
X169.393Y-74.219
X169.393Y-76.759
X170.815Y-101.6
X170.815Y-104.14
X170.815Y-106.68
X170.815Y-109.22
X170.815Y-111.76
X170.815Y-114.3
X170.815Y-116.84
X170.815Y-119.38
X170.815Y-121.92
X171.933Y-74.219
X171.933Y-76.759
X173.355Y-101.6
X173.355Y-104.14
X173.355Y-106.68
X173.355Y-109.22
X173.355Y-111.76
X173.355Y-114.3
X173.355Y-116.84
X173.355Y-119.38
X173.355Y-121.92
X174.473Y-74.219
X174.473Y-76.759
X175.895Y-101.6
X175.895Y-104.14
X175.895Y-106.68
X175.895Y-109.22
X175.895Y-111.76
X175.895Y-114.3
X175.895Y-116.84
X175.895Y-119.38
X175.895Y-121.92
X177.013Y-74.219
X177.013Y-76.759
X178.435Y-101.6
X178.435Y-104.14
X178.435Y-106.68
X178.435Y-109.22
X178.435Y-111.76
X178.435Y-114.3
X178.435Y-116.84
X178.435Y-119.38
X178.435Y-121.92
X179.553Y-74.219
X179.553Y-76.759
X180.594Y-82.804
X180.594Y-85.344
X180.975Y-101.6
X180.975Y-104.14
X180.975Y-106.68
X180.975Y-109.22
X180.975Y-111.76
X180.975Y-114.3
X180.975Y-116.84
X180.975Y-119.38
X180.975Y-121.92
X182.093Y-74.219
X182.093Y-76.759
X183.515Y-101.6
X183.515Y-104.14
X183.515Y-106.68
X183.515Y-109.22
X183.515Y-111.76
X183.515Y-114.3
X183.515Y-116.84
X183.515Y-119.38
X183.515Y-121.92
X184.633Y-74.219
X184.633Y-76.759
X186.055Y-101.6
X186.055Y-104.14
X186.055Y-106.68
X186.055Y-109.22
X186.055Y-111.76
X186.055Y-114.3
X186.055Y-116.84
X186.055Y-119.38
X186.055Y-121.92
X191.135Y-104.14
X191.135Y-106.68
X191.135Y-109.22
X191.135Y-111.76
X191.135Y-114.3
X191.135Y-116.84
T7
X142.225Y-124.395
X145.725Y-124.395
X149.225Y-124.395
X152.725Y-124.395
X156.225Y-124.395
T8
X131.5Y-75.5
X131.5Y-124.5
X189.5Y-75.5
X189.5Y-124.5
T0
M30
