M48
;DRILL file {KiCad 4.0.2+dfsg1-stable} date Di 24 Jul 2018 15:00:52 CEST
;FORMAT={-:-/ absolute / metric / decimal}
FMAT,2
METRIC,TZ
T1C0.400
T2C0.600
T3C0.650
T4C0.800
T5C0.800
T6C1.001
T7C1.016
T8C1.300
T9C3.100
%
G90
G05
M71
T1
X154.559Y-135.001
X158.877Y-124.714
T2
X143.637Y-141.605
X144.907Y-141.605
X146.177Y-141.605
X164.338Y-116.84
X165.608Y-116.84
X166.878Y-116.84
T3
X123.71Y-107.188
X125.21Y-107.188
T4
X133.096Y-127.381
X133.096Y-132.381
T5
X128.778Y-106.172
X128.778Y-108.712
X131.572Y-142.494
X133.096Y-114.3
X133.096Y-121.92
X135.636Y-117.348
X135.636Y-124.968
X135.636Y-127.762
X135.89Y-114.554
X138.176Y-117.348
X138.176Y-124.968
X139.192Y-142.494
X140.716Y-117.348
X140.716Y-124.968
X143.256Y-117.348
X143.256Y-124.968
X143.256Y-127.762
X143.51Y-114.554
X143.637Y-130.683
X143.637Y-138.303
X146.177Y-117.348
X146.177Y-119.888
X146.177Y-130.683
X146.177Y-138.303
X149.352Y-115.316
X149.352Y-117.602
X149.352Y-120.142
X149.352Y-127.762
X149.352Y-130.683
X149.352Y-132.969
X149.352Y-135.255
X151.892Y-120.142
X151.892Y-127.762
X154.432Y-120.142
X154.432Y-127.762
X156.972Y-115.316
X156.972Y-117.602
X156.972Y-120.142
X156.972Y-127.762
X156.972Y-130.683
X156.972Y-132.969
X156.972Y-135.255
X160.02Y-128.524
X160.02Y-131.064
X164.084Y-105.41
X164.084Y-113.03
X166.624Y-105.41
X166.624Y-113.03
T6
X123.698Y-111.76
X126.238Y-111.76
X128.778Y-111.76
X129.032Y-136.271
X131.572Y-136.271
X135.89Y-136.271
X138.43Y-136.271
T7
X151.43Y-139.45
X151.43Y-141.99
X153.97Y-139.45
X153.97Y-141.99
X156.51Y-139.45
X156.51Y-141.99
X159.05Y-139.45
X159.05Y-141.99
X163.195Y-134.493
X165.608Y-120.904
X165.608Y-123.444
X165.608Y-125.984
X165.735Y-134.493
X168.148Y-120.904
X168.148Y-123.444
X168.148Y-125.984
X168.275Y-134.493
T8
X143.33Y-108.45
X148.41Y-108.45
X153.49Y-108.45
X158.57Y-108.45
T9
X125.45Y-100.35
X125.45Y-140.35
X165.45Y-100.35
X165.45Y-140.35
T0
M30
