G04 #@! TF.FileFunction,Soldermask,Top*
%FSLAX46Y46*%
G04 Gerber Fmt 4.6, Leading zero omitted, Abs format (unit mm)*
G04 Created by KiCad (PCBNEW 4.0.7-e2-6376~58~ubuntu16.04.1) date Wed Jul 25 09:27:13 2018*
%MOMM*%
%LPD*%
G01*
G04 APERTURE LIST*
%ADD10C,0.100000*%
%ADD11C,0.150000*%
%ADD12O,1.901140X2.599640*%
%ADD13C,2.900000*%
%ADD14C,5.400000*%
%ADD15R,2.127200X2.127200*%
%ADD16O,2.127200X2.127200*%
%ADD17C,1.901140*%
%ADD18R,1.600000X1.600000*%
%ADD19C,1.600000*%
%ADD20C,1.900000*%
%ADD21R,2.127200X2.432000*%
%ADD22O,2.127200X2.432000*%
%ADD23O,1.299160X1.901140*%
%ADD24O,1.901140X2.899360*%
%ADD25C,4.199840*%
%ADD26R,2.300000X2.400000*%
%ADD27C,2.300000*%
%ADD28R,1.700000X1.700000*%
%ADD29C,1.700000*%
G04 APERTURE END LIST*
D10*
D11*
X161950000Y-95350000D02*
X161950000Y-103350000D01*
X168950000Y-93850000D02*
X163450000Y-93850000D01*
X127450000Y-93850000D02*
X121950000Y-93850000D01*
X128950000Y-103350000D02*
X128950000Y-95350000D01*
X160950000Y-104350000D02*
X129950000Y-104350000D01*
X160950000Y-104350000D02*
G75*
G03X161950000Y-103350000I0J1000000D01*
G01*
X128950000Y-103350000D02*
G75*
G03X129950000Y-104350000I1000000J0D01*
G01*
X128950000Y-95350000D02*
G75*
G03X127450000Y-93850000I-1500000J0D01*
G01*
X163450000Y-93850000D02*
G75*
G03X161950000Y-95350000I0J-1500000D01*
G01*
X120450000Y-95350000D02*
X120450000Y-142350000D01*
X170450000Y-142350000D02*
X170450000Y-95350000D01*
X120450000Y-142350000D02*
G75*
G03X121950000Y-143850000I1500000J0D01*
G01*
X168950000Y-143850000D02*
G75*
G03X170450000Y-142350000I0J1500000D01*
G01*
X121950000Y-93850000D02*
G75*
G03X120450000Y-95350000I0J-1500000D01*
G01*
X170450000Y-95350000D02*
G75*
G03X168950000Y-93850000I-1500000J0D01*
G01*
X168950000Y-143850000D02*
X121950000Y-143850000D01*
D12*
X156972000Y-120142000D03*
X154432000Y-120142000D03*
X151892000Y-120142000D03*
X149352000Y-120142000D03*
X149352000Y-127762000D03*
X151892000Y-127762000D03*
X154432000Y-127762000D03*
X156972000Y-127762000D03*
D13*
X143330000Y-108450000D03*
X148410000Y-108450000D03*
X158570000Y-108450000D03*
X153490000Y-108450000D03*
D14*
X125450000Y-140350000D03*
X165450000Y-140350000D03*
X125450000Y-100350000D03*
D15*
X159050000Y-139450000D03*
D16*
X159050000Y-141990000D03*
X156510000Y-139450000D03*
X156510000Y-141990000D03*
X153970000Y-139450000D03*
X153970000Y-141990000D03*
X151430000Y-139450000D03*
X151430000Y-141990000D03*
D14*
X165450000Y-100350000D03*
D17*
X128778000Y-108712000D03*
X128778000Y-106172000D03*
X160020000Y-128524000D03*
X160020000Y-131064000D03*
D18*
X123710000Y-107188000D03*
D19*
X125210000Y-107188000D03*
D20*
X156972000Y-117602000D03*
X149352000Y-117602000D03*
D15*
X163576000Y-120650000D03*
D16*
X166116000Y-120650000D03*
X163576000Y-123190000D03*
X166116000Y-123190000D03*
X163576000Y-125730000D03*
X166116000Y-125730000D03*
D21*
X163195000Y-134493000D03*
D22*
X165735000Y-134493000D03*
X168275000Y-134493000D03*
D23*
X144907000Y-141605000D03*
X146177000Y-141605000D03*
X143637000Y-141605000D03*
D20*
X146177000Y-138303000D03*
X146177000Y-130683000D03*
X156972000Y-135255000D03*
X149352000Y-135255000D03*
X156972000Y-130683000D03*
X149352000Y-130683000D03*
X156972000Y-132969000D03*
X149352000Y-132969000D03*
D24*
X126238000Y-111760000D03*
X128778000Y-111760000D03*
X123698000Y-111760000D03*
D25*
X126238000Y-128524000D03*
D26*
X129032000Y-136271000D03*
D27*
X131572000Y-136271000D03*
D20*
X131572000Y-142494000D03*
X139192000Y-142494000D03*
X156972000Y-115316000D03*
X149352000Y-115316000D03*
D17*
X146177000Y-117348000D03*
X146177000Y-119888000D03*
D20*
X133096000Y-121920000D03*
X133096000Y-114300000D03*
D26*
X135890000Y-136271000D03*
D27*
X138430000Y-136271000D03*
D20*
X143510000Y-114554000D03*
X135890000Y-114554000D03*
X143256000Y-127762000D03*
X135636000Y-127762000D03*
D12*
X135636000Y-124968000D03*
X138176000Y-124968000D03*
X140716000Y-124968000D03*
X143256000Y-124968000D03*
X143256000Y-117348000D03*
X140716000Y-117348000D03*
X138176000Y-117348000D03*
X135636000Y-117348000D03*
D28*
X133096000Y-127381000D03*
D29*
X133096000Y-132381000D03*
D23*
X165608000Y-116840000D03*
X166878000Y-116840000D03*
X164338000Y-116840000D03*
D20*
X166624000Y-113030000D03*
X166624000Y-105410000D03*
X164084000Y-105410000D03*
X164084000Y-113030000D03*
X143637000Y-130683000D03*
X143637000Y-138303000D03*
M02*
