%TF.GenerationSoftware,KiCad,Pcbnew,5.1.10-88a1d61d58~88~ubuntu20.04.1*%
%TF.CreationDate,2021-05-10T22:45:26+02:00*%
%TF.ProjectId,mfx-link2,6d66782d-6c69-46e6-9b32-2e6b69636164,rev?*%
%TF.SameCoordinates,Original*%
%TF.FileFunction,Soldermask,Bot*%
%TF.FilePolarity,Negative*%
%FSLAX46Y46*%
G04 Gerber Fmt 4.6, Leading zero omitted, Abs format (unit mm)*
G04 Created by KiCad (PCBNEW 5.1.10-88a1d61d58~88~ubuntu20.04.1) date 2021-05-10 22:45:26*
%MOMM*%
%LPD*%
G01*
G04 APERTURE LIST*
%TA.AperFunction,Profile*%
%ADD10C,0.150000*%
%TD*%
%ADD11O,1.400000X1.400000*%
%ADD12O,1.901140X2.599640*%
%ADD13C,5.400000*%
%ADD14O,1.598880X2.099260*%
%ADD15O,2.127200X2.127200*%
%ADD16O,2.127200X2.432000*%
%ADD17C,2.432000*%
%ADD18C,2.800000*%
%ADD19C,2.900000*%
%ADD20C,2.398980*%
G04 APERTURE END LIST*
D10*
X161950000Y-95350000D02*
X161950000Y-103350000D01*
X168950000Y-93850000D02*
X163450000Y-93850000D01*
X127450000Y-93850000D02*
X121950000Y-93850000D01*
X128950000Y-103350000D02*
X128950000Y-95350000D01*
X160950000Y-104350000D02*
X129950000Y-104350000D01*
X160950000Y-104350000D02*
G75*
G03*
X161950000Y-103350000I0J1000000D01*
G01*
X128950000Y-103350000D02*
G75*
G03*
X129950000Y-104350000I1000000J0D01*
G01*
X128950000Y-95350000D02*
G75*
G03*
X127450000Y-93850000I-1500000J0D01*
G01*
X163450000Y-93850000D02*
G75*
G03*
X161950000Y-95350000I0J-1500000D01*
G01*
X120450000Y-95350000D02*
X120450000Y-142350000D01*
X170450000Y-142350000D02*
X170450000Y-95350000D01*
X120450000Y-142350000D02*
G75*
G03*
X121950000Y-143850000I1500000J0D01*
G01*
X168950000Y-143850000D02*
G75*
G03*
X170450000Y-142350000I0J1500000D01*
G01*
X121950000Y-93850000D02*
G75*
G03*
X120450000Y-95350000I0J-1500000D01*
G01*
X170450000Y-95350000D02*
G75*
G03*
X168950000Y-93850000I-1500000J0D01*
G01*
X168950000Y-143850000D02*
X121950000Y-143850000D01*
D11*
%TO.C,J1*%
X147472400Y-130352800D03*
X148742400Y-130352800D03*
X150012400Y-130352800D03*
G36*
G01*
X151782400Y-131052800D02*
X150782400Y-131052800D01*
G75*
G02*
X150582400Y-130852800I0J200000D01*
G01*
X150582400Y-129852800D01*
G75*
G02*
X150782400Y-129652800I200000J0D01*
G01*
X151782400Y-129652800D01*
G75*
G02*
X151982400Y-129852800I0J-200000D01*
G01*
X151982400Y-130852800D01*
G75*
G02*
X151782400Y-131052800I-200000J0D01*
G01*
G37*
%TD*%
D12*
%TO.C,U1*%
X167995600Y-128473200D03*
X165455600Y-128473200D03*
X162915600Y-128473200D03*
X160375600Y-128473200D03*
X160375600Y-136093200D03*
X162915600Y-136093200D03*
X165455600Y-136093200D03*
X167995600Y-136093200D03*
%TD*%
%TO.C,D11*%
G36*
G01*
X153077570Y-112914430D02*
X153077570Y-111215170D01*
G75*
G02*
X153277570Y-111015170I200000J0D01*
G01*
X155378150Y-111015170D01*
G75*
G02*
X155578150Y-111215170I0J-200000D01*
G01*
X155578150Y-112914430D01*
G75*
G02*
X155378150Y-113114430I-200000J0D01*
G01*
X153277570Y-113114430D01*
G75*
G02*
X153077570Y-112914430I0J200000D01*
G01*
G37*
G36*
G01*
X156537050Y-112914430D02*
X156537050Y-111215170D01*
G75*
G02*
X156737050Y-111015170I200000J0D01*
G01*
X158837630Y-111015170D01*
G75*
G02*
X159037630Y-111215170I0J-200000D01*
G01*
X159037630Y-112914430D01*
G75*
G02*
X158837630Y-113114430I-200000J0D01*
G01*
X156737050Y-113114430D01*
G75*
G02*
X156537050Y-112914430I0J200000D01*
G01*
G37*
%TD*%
%TO.C,D12*%
G36*
G01*
X159037630Y-114364770D02*
X159037630Y-116064030D01*
G75*
G02*
X158837630Y-116264030I-200000J0D01*
G01*
X156737050Y-116264030D01*
G75*
G02*
X156537050Y-116064030I0J200000D01*
G01*
X156537050Y-114364770D01*
G75*
G02*
X156737050Y-114164770I200000J0D01*
G01*
X158837630Y-114164770D01*
G75*
G02*
X159037630Y-114364770I0J-200000D01*
G01*
G37*
G36*
G01*
X155578150Y-114364770D02*
X155578150Y-116064030D01*
G75*
G02*
X155378150Y-116264030I-200000J0D01*
G01*
X153277570Y-116264030D01*
G75*
G02*
X153077570Y-116064030I0J200000D01*
G01*
X153077570Y-114364770D01*
G75*
G02*
X153277570Y-114164770I200000J0D01*
G01*
X155378150Y-114164770D01*
G75*
G02*
X155578150Y-114364770I0J-200000D01*
G01*
G37*
%TD*%
D13*
%TO.C,REF\u002A\u002A*%
X165450000Y-140350000D03*
%TD*%
%TO.C,REF\u002A\u002A*%
X125450000Y-140350000D03*
%TD*%
%TO.C,REF\u002A\u002A*%
X125450000Y-100350000D03*
%TD*%
%TO.C,P4*%
G36*
G01*
X139869520Y-133211570D02*
X139869520Y-134910830D01*
G75*
G02*
X139669520Y-135110830I-200000J0D01*
G01*
X138470640Y-135110830D01*
G75*
G02*
X138270640Y-134910830I0J200000D01*
G01*
X138270640Y-133211570D01*
G75*
G02*
X138470640Y-133011570I200000J0D01*
G01*
X139669520Y-133011570D01*
G75*
G02*
X139869520Y-133211570I0J-200000D01*
G01*
G37*
D14*
X135067040Y-134061200D03*
X137068560Y-134061200D03*
X133068060Y-134061200D03*
%TD*%
%TO.C,P5*%
G36*
G01*
X129468220Y-133211570D02*
X129468220Y-134910830D01*
G75*
G02*
X129268220Y-135110830I-200000J0D01*
G01*
X128069340Y-135110830D01*
G75*
G02*
X127869340Y-134910830I0J200000D01*
G01*
X127869340Y-133211570D01*
G75*
G02*
X128069340Y-133011570I200000J0D01*
G01*
X129268220Y-133011570D01*
G75*
G02*
X129468220Y-133211570I0J-200000D01*
G01*
G37*
X124665740Y-134061200D03*
X126667260Y-134061200D03*
X122666760Y-134061200D03*
%TD*%
%TO.C,P6*%
G36*
G01*
X128890400Y-106984600D02*
X128890400Y-105257400D01*
G75*
G02*
X129090400Y-105057400I200000J0D01*
G01*
X130817600Y-105057400D01*
G75*
G02*
X131017600Y-105257400I0J-200000D01*
G01*
X131017600Y-106984600D01*
G75*
G02*
X130817600Y-107184600I-200000J0D01*
G01*
X129090400Y-107184600D01*
G75*
G02*
X128890400Y-106984600I0J200000D01*
G01*
G37*
D15*
X132494000Y-106121000D03*
X129954000Y-108661000D03*
X132494000Y-108661000D03*
X129954000Y-111201000D03*
X132494000Y-111201000D03*
%TD*%
%TO.C,P7*%
G36*
G01*
X138936400Y-129441600D02*
X140663600Y-129441600D01*
G75*
G02*
X140863600Y-129641600I0J-200000D01*
G01*
X140863600Y-131673600D01*
G75*
G02*
X140663600Y-131873600I-200000J0D01*
G01*
X138936400Y-131873600D01*
G75*
G02*
X138736400Y-131673600I0J200000D01*
G01*
X138736400Y-129641600D01*
G75*
G02*
X138936400Y-129441600I200000J0D01*
G01*
G37*
D16*
X137260000Y-130657600D03*
X134720000Y-130657600D03*
%TD*%
%TO.C,JP1*%
G36*
G01*
X128273200Y-143306800D02*
X128273200Y-141274800D01*
G75*
G02*
X128473200Y-141074800I200000J0D01*
G01*
X130505200Y-141074800D01*
G75*
G02*
X130705200Y-141274800I0J-200000D01*
G01*
X130705200Y-143306800D01*
G75*
G02*
X130505200Y-143506800I-200000J0D01*
G01*
X128473200Y-143506800D01*
G75*
G02*
X128273200Y-143306800I0J200000D01*
G01*
G37*
D17*
X132029200Y-142494000D03*
X134569200Y-142290800D03*
X137109200Y-142494000D03*
X139649200Y-142290800D03*
X142189200Y-142494000D03*
%TD*%
%TO.C,P8*%
G36*
G01*
X160113600Y-138586400D02*
X160113600Y-140313600D01*
G75*
G02*
X159913600Y-140513600I-200000J0D01*
G01*
X158186400Y-140513600D01*
G75*
G02*
X157986400Y-140313600I0J200000D01*
G01*
X157986400Y-138586400D01*
G75*
G02*
X158186400Y-138386400I200000J0D01*
G01*
X159913600Y-138386400D01*
G75*
G02*
X160113600Y-138586400I0J-200000D01*
G01*
G37*
D15*
X159050000Y-141990000D03*
X156510000Y-139450000D03*
X156510000Y-141990000D03*
X153970000Y-139450000D03*
X153970000Y-141990000D03*
X151430000Y-139450000D03*
X151430000Y-141990000D03*
%TD*%
D13*
%TO.C,REF\u002A\u002A*%
X165450000Y-100350000D03*
%TD*%
D18*
%TO.C,P2*%
X166700000Y-124350000D03*
G36*
G01*
X167900000Y-122250000D02*
X165500000Y-122250000D01*
G75*
G02*
X165300000Y-122050000I0J200000D01*
G01*
X165300000Y-119650000D01*
G75*
G02*
X165500000Y-119450000I200000J0D01*
G01*
X167900000Y-119450000D01*
G75*
G02*
X168100000Y-119650000I0J-200000D01*
G01*
X168100000Y-122050000D01*
G75*
G02*
X167900000Y-122250000I-200000J0D01*
G01*
G37*
%TD*%
D19*
%TO.C,P1*%
X143330000Y-108450000D03*
X148410000Y-108450000D03*
X158570000Y-108450000D03*
X153490000Y-108450000D03*
%TD*%
D20*
%TO.C,SW1*%
X149214840Y-142595600D03*
X144713960Y-136093200D03*
X144713960Y-142595600D03*
X149214840Y-136093200D03*
%TD*%
M02*
