M48
; DRILL file {KiCad 5.1.10-88a1d61d58~88~ubuntu20.04.1} date Sun May 16 15:44:19 2021
; FORMAT={-:-/ absolute / metric / decimal}
; #@! TF.CreationDate,2021-05-16T15:44:19+02:00
; #@! TF.GenerationSoftware,Kicad,Pcbnew,5.1.10-88a1d61d58~88~ubuntu20.04.1
; #@! TF.FileFunction,Plated,1,2,PTH
FMAT,2
METRIC
T1C0.400
T2C0.650
T3C0.700
T4C0.701
T5C0.762
T6C0.800
T7C1.001
T8C1.016
T9C1.200
T10C1.300
T11C3.100
%
G90
G05
T1
X122.098Y-142.316
X122.123Y-138.506
X127.508Y-119.532
X130.124Y-124.816
X131.191Y-107.632
X131.191Y-109.791
X136.525Y-125.451
X137.211Y-118.72
X138.026Y-113.795
X140.64Y-119.837
X142.672Y-111.354
X144.402Y-128.484
X144.526Y-140.462
X144.938Y-127.89
X145.847Y-109.753
X146.101Y-118.669
X146.101Y-120.498
X147.223Y-135.89
X148.082Y-125.84
X149.149Y-137.77
X149.174Y-140.741
X149.352Y-126.619
X150.8Y-135.341
X154.686Y-124.46
X156.083Y-109.957
X156.134Y-106.578
X156.151Y-134.832
X157.531Y-126.822
X158.306Y-136.273
X159.969Y-111.328
X161.798Y-109.22
X162.992Y-102.794
X163.043Y-96.037
X163.219Y-130.675
X164.084Y-114.097
X164.541Y-122.25
X166.141Y-108.306
X167.234Y-130.683
X168.351Y-113.944
X168.859Y-125.044
X168.885Y-120.015
T2
X147.472Y-130.353
X148.742Y-130.353
X150.012Y-130.353
X151.282Y-130.353
T3
X124.358Y-121.971
X124.562Y-129.642
X130.099Y-126.136
X133.325Y-125.984
X134.379Y-112.057
X134.559Y-109.233
X137.645Y-138.493
X138.684Y-127.508
X139.015Y-136.972
X142.43Y-130.493
X153.213Y-137.973
X155.55Y-119.99
X159.156Y-126.695
X164.847Y-118.109
T4
X122.667Y-134.061
X124.666Y-134.061
X126.667Y-134.061
X128.669Y-134.061
X133.068Y-134.061
X135.067Y-134.061
X137.069Y-134.061
X139.07Y-134.061
T5
X129.489Y-142.291
X132.029Y-142.494
X134.569Y-142.291
X137.109Y-142.494
X139.649Y-142.291
X142.189Y-142.494
T6
X160.376Y-128.473
X160.376Y-136.093
X162.916Y-128.473
X162.916Y-136.093
X165.456Y-128.473
X165.456Y-136.093
X167.996Y-128.473
X167.996Y-136.093
T7
X144.714Y-136.093
X144.714Y-142.596
X149.215Y-136.093
X149.215Y-142.596
T8
X129.954Y-106.121
X129.954Y-108.661
X129.954Y-111.201
X132.494Y-106.121
X132.494Y-108.661
X132.494Y-111.201
X134.72Y-130.658
X137.26Y-130.658
X139.8Y-130.658
X151.43Y-139.45
X151.43Y-141.99
X153.97Y-139.45
X153.97Y-141.99
X156.51Y-139.45
X156.51Y-141.99
X159.05Y-139.45
X159.05Y-141.99
T9
X166.7Y-120.85
X166.7Y-124.35
T10
X143.33Y-108.45
X148.41Y-108.45
X153.49Y-108.45
X158.57Y-108.45
T11
X125.45Y-100.35
X125.45Y-140.35
X165.45Y-100.35
X165.45Y-140.35
T0
M30
