G04 #@! TF.FileFunction,Legend,Top*
%FSLAX46Y46*%
G04 Gerber Fmt 4.6, Leading zero omitted, Abs format (unit mm)*
G04 Created by KiCad (PCBNEW 4.0.2+dfsg1-stable) date Do 08 Jun 2017 16:22:29 CEST*
%MOMM*%
G01*
G04 APERTURE LIST*
%ADD10C,0.100000*%
%ADD11C,0.200000*%
%ADD12C,0.150000*%
%ADD13C,0.381000*%
%ADD14C,0.127000*%
%ADD15C,0.254000*%
%ADD16C,0.304800*%
%ADD17C,2.540000*%
%ADD18C,0.300000*%
%ADD19C,0.250000*%
%ADD20C,0.149860*%
%ADD21C,0.175000*%
%ADD22C,0.099060*%
%ADD23C,0.285750*%
%ADD24C,0.287020*%
%ADD25C,0.119380*%
G04 APERTURE END LIST*
D10*
D11*
X120850000Y-120250000D02*
X120850000Y-100950000D01*
X168313219Y-118816381D02*
X168313219Y-118149714D01*
X168313219Y-118340190D02*
X168360838Y-118244952D01*
X168408457Y-118197333D01*
X168503695Y-118149714D01*
X168598934Y-118149714D01*
X169313220Y-118768762D02*
X169217982Y-118816381D01*
X169027505Y-118816381D01*
X168932267Y-118768762D01*
X168884648Y-118673524D01*
X168884648Y-118292571D01*
X168932267Y-118197333D01*
X169027505Y-118149714D01*
X169217982Y-118149714D01*
X169313220Y-118197333D01*
X169360839Y-118292571D01*
X169360839Y-118387810D01*
X168884648Y-118483048D01*
X170217982Y-118816381D02*
X170217982Y-117816381D01*
X170217982Y-118768762D02*
X170122744Y-118816381D01*
X169932267Y-118816381D01*
X169837029Y-118768762D01*
X169789410Y-118721143D01*
X169741791Y-118625905D01*
X169741791Y-118340190D01*
X169789410Y-118244952D01*
X169837029Y-118197333D01*
X169932267Y-118149714D01*
X170122744Y-118149714D01*
X170217982Y-118197333D01*
X127803100Y-142939700D02*
X127739600Y-142939700D01*
X127803100Y-142558700D02*
X127803100Y-142939700D01*
X127612600Y-142495200D02*
X127612600Y-143003200D01*
X127485600Y-143257200D02*
X127485600Y-142241200D01*
X127993600Y-142749200D02*
X127485600Y-143257200D01*
X127485600Y-142241200D02*
X127993600Y-142749200D01*
D12*
X123150000Y-108375000D02*
X125150000Y-108375000D01*
X125150000Y-110525000D02*
X123150000Y-110525000D01*
X123150000Y-105975000D02*
X125150000Y-105975000D01*
X125150000Y-108125000D02*
X123150000Y-108125000D01*
X167736000Y-140350000D02*
G75*
G03X167736000Y-140350000I-2286000J0D01*
G01*
X127736000Y-140350000D02*
G75*
G03X127736000Y-140350000I-2286000J0D01*
G01*
X127736000Y-100350000D02*
G75*
G03X127736000Y-100350000I-2286000J0D01*
G01*
X143170000Y-117639000D02*
X144170000Y-117639000D01*
X144170000Y-115939000D02*
X143170000Y-115939000D01*
X159520000Y-114489600D02*
X160520000Y-114489600D01*
X160520000Y-112789600D02*
X159520000Y-112789600D01*
X128184000Y-130974000D02*
X129184000Y-130974000D01*
X129184000Y-129274000D02*
X128184000Y-129274000D01*
X142996000Y-137609000D02*
X142996000Y-136609000D01*
X141296000Y-136609000D02*
X141296000Y-137609000D01*
D13*
X125409940Y-133530140D02*
X125409940Y-133029760D01*
X125608060Y-133530140D02*
X125409940Y-133530140D01*
X125608060Y-133029760D02*
X125608060Y-133530140D01*
X130510260Y-132531920D02*
X120507740Y-132531920D01*
X121008120Y-133029760D02*
X130009880Y-133029760D01*
X130510260Y-137030260D02*
X120507740Y-137030260D01*
X127411460Y-133530140D02*
X127411460Y-133029760D01*
X127609580Y-133530140D02*
X127411460Y-133530140D01*
X127609580Y-133029760D02*
X127609580Y-133530140D01*
X123609080Y-133029760D02*
X123609080Y-133530140D01*
X123609080Y-133530140D02*
X123410960Y-133530140D01*
X123410960Y-133530140D02*
X123410960Y-133029760D01*
X120507740Y-135831380D02*
X121008120Y-135831380D01*
X121008120Y-134530900D02*
X120507740Y-134530900D01*
X130009880Y-134530900D02*
X130510260Y-134530900D01*
X130009880Y-135831380D02*
X130510260Y-135831380D01*
X128010900Y-137030260D02*
X128010900Y-136529880D01*
X128010900Y-136529880D02*
X130009880Y-136529880D01*
X130009880Y-136529880D02*
X130009880Y-133029760D01*
X121008120Y-133029760D02*
X121008120Y-136529880D01*
X121008120Y-136529880D02*
X123007100Y-136529880D01*
X123007100Y-136529880D02*
X123007100Y-137030260D01*
X130510260Y-137030260D02*
X130510260Y-132531920D01*
X120507740Y-137030260D02*
X120507740Y-132531920D01*
X128811000Y-137030260D02*
X128811000Y-137230920D01*
X128811000Y-137230920D02*
X129110720Y-137230920D01*
X129110720Y-137230920D02*
X129110720Y-137030260D01*
X135823940Y-133530140D02*
X135823940Y-133029760D01*
X136022060Y-133530140D02*
X135823940Y-133530140D01*
X136022060Y-133029760D02*
X136022060Y-133530140D01*
X140924260Y-132531920D02*
X130921740Y-132531920D01*
X131422120Y-133029760D02*
X140423880Y-133029760D01*
X140924260Y-137030260D02*
X130921740Y-137030260D01*
X137825460Y-133530140D02*
X137825460Y-133029760D01*
X138023580Y-133530140D02*
X137825460Y-133530140D01*
X138023580Y-133029760D02*
X138023580Y-133530140D01*
X134023080Y-133029760D02*
X134023080Y-133530140D01*
X134023080Y-133530140D02*
X133824960Y-133530140D01*
X133824960Y-133530140D02*
X133824960Y-133029760D01*
X130921740Y-135831380D02*
X131422120Y-135831380D01*
X131422120Y-134530900D02*
X130921740Y-134530900D01*
X140423880Y-134530900D02*
X140924260Y-134530900D01*
X140423880Y-135831380D02*
X140924260Y-135831380D01*
X138424900Y-137030260D02*
X138424900Y-136529880D01*
X138424900Y-136529880D02*
X140423880Y-136529880D01*
X140423880Y-136529880D02*
X140423880Y-133029760D01*
X131422120Y-133029760D02*
X131422120Y-136529880D01*
X131422120Y-136529880D02*
X133421100Y-136529880D01*
X133421100Y-136529880D02*
X133421100Y-137030260D01*
X140924260Y-137030260D02*
X140924260Y-132531920D01*
X130921740Y-137030260D02*
X130921740Y-132531920D01*
X139225000Y-137030260D02*
X139225000Y-137230920D01*
X139225000Y-137230920D02*
X139524720Y-137230920D01*
X139524720Y-137230920D02*
X139524720Y-137030260D01*
D12*
X128684000Y-107391000D02*
X128684000Y-112471000D01*
X128404000Y-104571000D02*
X129954000Y-104571000D01*
X131224000Y-104851000D02*
X131224000Y-107391000D01*
X131224000Y-107391000D02*
X128684000Y-107391000D01*
X128684000Y-112471000D02*
X133764000Y-112471000D01*
X133764000Y-112471000D02*
X133764000Y-107391000D01*
X128404000Y-104571000D02*
X128404000Y-106121000D01*
X133764000Y-104851000D02*
X131224000Y-104851000D01*
X133764000Y-107391000D02*
X133764000Y-104851000D01*
X137193000Y-129362000D02*
X132113000Y-129362000D01*
X132113000Y-129362000D02*
X132113000Y-131902000D01*
X132113000Y-131902000D02*
X137193000Y-131902000D01*
X140013000Y-132182000D02*
X138463000Y-132182000D01*
X137193000Y-131902000D02*
X137193000Y-129362000D01*
X138463000Y-129082000D02*
X140013000Y-129082000D01*
X140013000Y-129082000D02*
X140013000Y-132182000D01*
X128889760Y-114372440D02*
X128889760Y-114420700D01*
X129590800Y-117171420D02*
X128889760Y-117171420D01*
X128889760Y-117171420D02*
X128889760Y-116922500D01*
X128889760Y-114372440D02*
X128889760Y-114171780D01*
X128889760Y-114171780D02*
X129590800Y-114171780D01*
X129192000Y-124155000D02*
X132367000Y-124155000D01*
X132367000Y-124155000D02*
X132367000Y-122377000D01*
X132367000Y-122377000D02*
X129192000Y-122377000D01*
X129192000Y-128727000D02*
X132367000Y-128727000D01*
X132367000Y-128727000D02*
X132367000Y-126949000D01*
X132367000Y-126949000D02*
X129192000Y-126949000D01*
X123096000Y-122123000D02*
X129192000Y-122123000D01*
X129192000Y-122123000D02*
X129192000Y-128981000D01*
X129192000Y-128981000D02*
X121318000Y-128981000D01*
X121191000Y-128981000D02*
X121191000Y-122123000D01*
X121318000Y-122123000D02*
X123096000Y-122123000D01*
D14*
X135001000Y-107492800D02*
X135001000Y-111455200D01*
X135001000Y-111455200D02*
X139827000Y-111455200D01*
X139827000Y-111455200D02*
X139827000Y-107492800D01*
X139827000Y-107492800D02*
X135001000Y-107492800D01*
X135509000Y-107492800D02*
X135509000Y-106400600D01*
X136779000Y-107492800D02*
X136779000Y-106400600D01*
X138049000Y-107492800D02*
X138049000Y-106400600D01*
X139319000Y-106400600D02*
X139319000Y-107492800D01*
X139319000Y-111455200D02*
X139319000Y-112547400D01*
X138049000Y-112547400D02*
X138049000Y-111455200D01*
X136779000Y-112547400D02*
X136779000Y-111455200D01*
X135509000Y-112547400D02*
X135509000Y-111455200D01*
X136210067Y-110718600D02*
G75*
G03X136210067Y-110718600I-472467J0D01*
G01*
D15*
X141325600Y-132679440D02*
X154127200Y-132679440D01*
X154127200Y-125181360D02*
X141325600Y-125181360D01*
D14*
X153441400Y-124079000D02*
X153441400Y-125171200D01*
X152171400Y-125171200D02*
X152171400Y-124079000D01*
X150901400Y-125171200D02*
X150901400Y-124079000D01*
X149631400Y-125171200D02*
X149631400Y-124079000D01*
X142011400Y-133781800D02*
X142011400Y-132689600D01*
X153441400Y-132689600D02*
X153441400Y-133781800D01*
D15*
X154127200Y-132679440D02*
X154127200Y-125181360D01*
X141325600Y-125181360D02*
X141325600Y-132679440D01*
D14*
X142011400Y-125171200D02*
X142011400Y-124079000D01*
X143281400Y-125171200D02*
X143281400Y-124079000D01*
X144551400Y-125171200D02*
X144551400Y-124079000D01*
X145821400Y-124079000D02*
X145821400Y-125171200D01*
X147091400Y-124079000D02*
X147091400Y-125171200D01*
X148361400Y-124079000D02*
X148361400Y-125171200D01*
X152171400Y-132689600D02*
X152171400Y-133781800D01*
X150901400Y-132689600D02*
X150901400Y-133781800D01*
X149631400Y-132689600D02*
X149631400Y-133781800D01*
X143281400Y-132689600D02*
X143281400Y-133781800D01*
X144551400Y-133781800D02*
X144551400Y-132689600D01*
X148361400Y-133781800D02*
X148361400Y-132689600D01*
X147091400Y-133781800D02*
X147091400Y-132689600D01*
X145821400Y-133781800D02*
X145821400Y-132689600D01*
D15*
X142984247Y-131577080D02*
G75*
G03X142984247Y-131577080I-472467J0D01*
G01*
D16*
X128219200Y-143764000D02*
X143459200Y-143764000D01*
X143459200Y-143764000D02*
X143459200Y-141020800D01*
X143459200Y-141020800D02*
X128219200Y-141020800D01*
X128219200Y-141020800D02*
X128219200Y-143764000D01*
D14*
X142869900Y-121427040D02*
X142869900Y-120024960D01*
X142968960Y-120024960D02*
X142968960Y-121427040D01*
X143070560Y-121427040D02*
X143070560Y-120024960D01*
X143169620Y-121427040D02*
X143169620Y-120024960D01*
X142770840Y-121427040D02*
X144569160Y-121427040D01*
X144569160Y-121427040D02*
X144569160Y-120024960D01*
X144569160Y-120024960D02*
X142770840Y-120024960D01*
X142770840Y-120024960D02*
X142770840Y-121427040D01*
X144470100Y-117992960D02*
X144470100Y-119395040D01*
X144371040Y-119395040D02*
X144371040Y-117992960D01*
X144269440Y-117992960D02*
X144269440Y-119395040D01*
X144170380Y-117992960D02*
X144170380Y-119395040D01*
X144569160Y-117992960D02*
X142770840Y-117992960D01*
X142770840Y-117992960D02*
X142770840Y-119395040D01*
X142770840Y-119395040D02*
X144569160Y-119395040D01*
X144569160Y-119395040D02*
X144569160Y-117992960D01*
X131389100Y-137296960D02*
X131389100Y-138699040D01*
X131290040Y-138699040D02*
X131290040Y-137296960D01*
X131188440Y-137296960D02*
X131188440Y-138699040D01*
X131089380Y-137296960D02*
X131089380Y-138699040D01*
X131488160Y-137296960D02*
X129689840Y-137296960D01*
X129689840Y-137296960D02*
X129689840Y-138699040D01*
X129689840Y-138699040D02*
X131488160Y-138699040D01*
X131488160Y-138699040D02*
X131488160Y-137296960D01*
D12*
X136321600Y-138035600D02*
X133621600Y-138035600D01*
X136321600Y-139535600D02*
X133621600Y-139535600D01*
X134821600Y-138635600D02*
X134821600Y-138885600D01*
X134821600Y-138885600D02*
X134971600Y-138735600D01*
X135071600Y-139135600D02*
X135071600Y-138435600D01*
X134721600Y-138785600D02*
X134371600Y-138785600D01*
X135071600Y-138785600D02*
X134721600Y-139135600D01*
X134721600Y-139135600D02*
X134721600Y-138435600D01*
X134721600Y-138435600D02*
X135071600Y-138785600D01*
X167736000Y-100350000D02*
G75*
G03X167736000Y-100350000I-2286000J0D01*
G01*
D15*
X162212000Y-130632000D02*
X166276000Y-130632000D01*
X166276000Y-133172000D02*
X162212000Y-133172000D01*
X159164000Y-126822000D02*
X169324000Y-126822000D01*
X159164000Y-136982000D02*
X169324000Y-136982000D01*
X168054000Y-131902000D02*
G75*
G03X169324000Y-133172000I1270000J0D01*
G01*
X169324000Y-130632000D02*
G75*
G03X168054000Y-131902000I0J-1270000D01*
G01*
X166276000Y-133172000D02*
X166276000Y-130632000D01*
X162212000Y-130632000D02*
X162212000Y-133172000D01*
X159164000Y-136982000D02*
X159164000Y-126822000D01*
X169324000Y-126822000D02*
X169324000Y-136982000D01*
X151939000Y-121306000D02*
X152066000Y-121306000D01*
X151939000Y-114194000D02*
X152066000Y-114194000D01*
X150034000Y-114194000D02*
X150161000Y-114194000D01*
X150034000Y-121306000D02*
X150161000Y-121306000D01*
X147748000Y-119528000D02*
X147748000Y-121306000D01*
X147748000Y-121306000D02*
X148256000Y-121306000D01*
X148383000Y-114194000D02*
X147748000Y-114194000D01*
X147748000Y-114194000D02*
X147748000Y-115972000D01*
X154352000Y-115972000D02*
X154352000Y-114194000D01*
X154352000Y-114194000D02*
X153717000Y-114194000D01*
X153717000Y-121306000D02*
X154479000Y-121306000D01*
X154479000Y-121306000D02*
X154479000Y-119528000D01*
D13*
X170800000Y-122600000D02*
X171200000Y-122600000D01*
X169700000Y-126100000D02*
X169700000Y-119100000D01*
X170800000Y-126100000D02*
X170800000Y-119100000D01*
X163600000Y-126100000D02*
X171200000Y-126100000D01*
X171200000Y-119100000D02*
X163600000Y-119100000D01*
X163600000Y-119100000D02*
X163600000Y-126100000D01*
D12*
X166270940Y-110368080D02*
X166570660Y-110617000D01*
X166570660Y-110617000D02*
X166720520Y-110718600D01*
X166720520Y-110718600D02*
X165872160Y-110718600D01*
X167772080Y-110017560D02*
X165971220Y-110017560D01*
X167772080Y-110017560D02*
X167772080Y-110667800D01*
X167772080Y-114518440D02*
X165971220Y-114518440D01*
X167772080Y-114518440D02*
X167772080Y-113868200D01*
D13*
X145950000Y-104350000D02*
X145950000Y-103850000D01*
X145330000Y-108350000D02*
G75*
G03X145330000Y-108350000I-2000000J0D01*
G01*
X150410000Y-108350000D02*
G75*
G03X150410000Y-108350000I-2000000J0D01*
G01*
X150950000Y-104350000D02*
X150950000Y-103850000D01*
X155950000Y-104350000D02*
X155950000Y-103850000D01*
X155490000Y-108350000D02*
G75*
G03X155490000Y-108350000I-2000000J0D01*
G01*
X160570000Y-108350000D02*
G75*
G03X160570000Y-108350000I-2000000J0D01*
G01*
X160950000Y-105850000D02*
X140950000Y-105850000D01*
X160950000Y-110750000D02*
X140950000Y-110750000D01*
X160950000Y-104350000D02*
X140950000Y-104350000D01*
X140950000Y-103850000D02*
X140950000Y-112450000D01*
X140950000Y-112450000D02*
X160950000Y-112450000D01*
X160950000Y-112450000D02*
X160950000Y-103850000D01*
D14*
X157868620Y-123670060D02*
X157868620Y-126469140D01*
X157970220Y-126469140D02*
X157970220Y-123670060D01*
X158069280Y-123670060D02*
X158069280Y-126469140D01*
X158168340Y-126469140D02*
X158168340Y-123670060D01*
X158269940Y-126469140D02*
X158269940Y-123670060D01*
X157769560Y-126469140D02*
X162168840Y-126469140D01*
X162168840Y-126469140D02*
X162168840Y-123670060D01*
X162168840Y-123670060D02*
X157769560Y-123670060D01*
X157769560Y-123670060D02*
X157769560Y-126469140D01*
X162120580Y-123319540D02*
X162120580Y-120520460D01*
X162018980Y-120520460D02*
X162018980Y-123319540D01*
X161919920Y-123319540D02*
X161919920Y-120520460D01*
X161820860Y-120520460D02*
X161820860Y-123319540D01*
X161719260Y-120520460D02*
X161719260Y-123319540D01*
X162219640Y-120520460D02*
X157820360Y-120520460D01*
X157820360Y-120520460D02*
X157820360Y-123319540D01*
X157820360Y-123319540D02*
X162219640Y-123319540D01*
X162219640Y-123319540D02*
X162219640Y-120520460D01*
X157868620Y-117523260D02*
X157868620Y-120322340D01*
X157970220Y-120322340D02*
X157970220Y-117523260D01*
X158069280Y-117523260D02*
X158069280Y-120322340D01*
X158168340Y-120322340D02*
X158168340Y-117523260D01*
X158269940Y-120322340D02*
X158269940Y-117523260D01*
X157769560Y-120322340D02*
X162168840Y-120322340D01*
X162168840Y-120322340D02*
X162168840Y-117523260D01*
X162168840Y-117523260D02*
X157769560Y-117523260D01*
X157769560Y-117523260D02*
X157769560Y-120322340D01*
X162120580Y-117325140D02*
X162120580Y-114526060D01*
X162018980Y-114526060D02*
X162018980Y-117325140D01*
X161919920Y-117325140D02*
X161919920Y-114526060D01*
X161820860Y-114526060D02*
X161820860Y-117325140D01*
X161719260Y-114526060D02*
X161719260Y-117325140D01*
X162219640Y-114526060D02*
X157820360Y-114526060D01*
X157820360Y-114526060D02*
X157820360Y-117325140D01*
X157820360Y-117325140D02*
X162219640Y-117325140D01*
X162219640Y-117325140D02*
X162219640Y-114526060D01*
X168521380Y-117883940D02*
X168521380Y-115084860D01*
X168419780Y-115084860D02*
X168419780Y-117883940D01*
X168320720Y-117883940D02*
X168320720Y-115084860D01*
X168221660Y-115084860D02*
X168221660Y-117883940D01*
X168120060Y-115084860D02*
X168120060Y-117883940D01*
X168620440Y-115084860D02*
X164221160Y-115084860D01*
X164221160Y-115084860D02*
X164221160Y-117883940D01*
X164221160Y-117883940D02*
X168620440Y-117883940D01*
X168620440Y-117883940D02*
X168620440Y-115084860D01*
X156403040Y-125971300D02*
X155000960Y-125971300D01*
X155000960Y-125872240D02*
X156403040Y-125872240D01*
X156403040Y-125770640D02*
X155000960Y-125770640D01*
X156403040Y-125671580D02*
X155000960Y-125671580D01*
X156403040Y-126070360D02*
X156403040Y-124272040D01*
X156403040Y-124272040D02*
X155000960Y-124272040D01*
X155000960Y-124272040D02*
X155000960Y-126070360D01*
X155000960Y-126070360D02*
X156403040Y-126070360D01*
D12*
X168554400Y-107264200D02*
X168554400Y-105867200D01*
X168427400Y-107518200D02*
X168427400Y-105740200D01*
X168300400Y-107899200D02*
X168300400Y-105359200D01*
X168173400Y-105232200D02*
X168173400Y-108026200D01*
X168046400Y-108153200D02*
X168046400Y-105105200D01*
X167919400Y-104978200D02*
X167919400Y-108280200D01*
X167792400Y-108407200D02*
X167792400Y-104851200D01*
X168935400Y-109296200D02*
X164363400Y-109296200D01*
X164363400Y-109296200D02*
X163601400Y-108534200D01*
X163601400Y-108534200D02*
X163601400Y-104724200D01*
X163601400Y-104724200D02*
X164363400Y-103962200D01*
X164363400Y-103962200D02*
X168935400Y-103962200D01*
X168935400Y-103962200D02*
X168935400Y-109296200D01*
X164109400Y-106629200D02*
X164871400Y-106629200D01*
X164490400Y-107010200D02*
X164490400Y-106248200D01*
X168681400Y-106629200D02*
G75*
G03X168681400Y-106629200I-2413000J0D01*
G01*
X138938000Y-125907800D02*
X138938000Y-124510800D01*
X138811000Y-126161800D02*
X138811000Y-124383800D01*
X138684000Y-126542800D02*
X138684000Y-124002800D01*
X138557000Y-123875800D02*
X138557000Y-126669800D01*
X138430000Y-126796800D02*
X138430000Y-123748800D01*
X138303000Y-123621800D02*
X138303000Y-126923800D01*
X138176000Y-127050800D02*
X138176000Y-123494800D01*
X139319000Y-127939800D02*
X134747000Y-127939800D01*
X134747000Y-127939800D02*
X133985000Y-127177800D01*
X133985000Y-127177800D02*
X133985000Y-123367800D01*
X133985000Y-123367800D02*
X134747000Y-122605800D01*
X134747000Y-122605800D02*
X139319000Y-122605800D01*
X139319000Y-122605800D02*
X139319000Y-127939800D01*
X134493000Y-125272800D02*
X135255000Y-125272800D01*
X134874000Y-125653800D02*
X134874000Y-124891800D01*
X139065000Y-125272800D02*
G75*
G03X139065000Y-125272800I-2413000J0D01*
G01*
D16*
X150012400Y-142392400D02*
X143916400Y-142392400D01*
X143916400Y-142392400D02*
X143916400Y-136296400D01*
X143916400Y-136296400D02*
X150012400Y-136296400D01*
X150012400Y-136296400D02*
X150012400Y-142392400D01*
D17*
X147767619Y-139344400D02*
G75*
G03X147767619Y-139344400I-803219J0D01*
G01*
D12*
X123150000Y-110775000D02*
X125150000Y-110775000D01*
X125150000Y-112925000D02*
X123150000Y-112925000D01*
X123150000Y-113175000D02*
X125150000Y-113175000D01*
X125150000Y-115325000D02*
X123150000Y-115325000D01*
X123155200Y-115561800D02*
X125155200Y-115561800D01*
X125155200Y-117711800D02*
X123155200Y-117711800D01*
X123155200Y-118457400D02*
X125155200Y-118457400D01*
X125155200Y-120607400D02*
X123155200Y-120607400D01*
X158707400Y-129098800D02*
X158707400Y-131098800D01*
X156557400Y-131098800D02*
X156557400Y-129098800D01*
X123150000Y-103575000D02*
X125150000Y-103575000D01*
X125150000Y-105725000D02*
X123150000Y-105725000D01*
X131713000Y-116932000D02*
X131713000Y-115732000D01*
X133463000Y-115732000D02*
X133463000Y-116932000D01*
X135749000Y-115732000D02*
X135749000Y-116932000D01*
X133999000Y-116932000D02*
X133999000Y-115732000D01*
X136285000Y-116932000D02*
X136285000Y-115732000D01*
X138035000Y-115732000D02*
X138035000Y-116932000D01*
X138571000Y-116932000D02*
X138571000Y-115732000D01*
X140321000Y-115732000D02*
X140321000Y-116932000D01*
X144262400Y-115530600D02*
X143062400Y-115530600D01*
X143062400Y-113780600D02*
X144262400Y-113780600D01*
X129900000Y-138925000D02*
X131100000Y-138925000D01*
X131100000Y-140675000D02*
X129900000Y-140675000D01*
X162063400Y-139100000D02*
X162063400Y-140300000D01*
X160313400Y-140300000D02*
X160313400Y-139100000D01*
X138287200Y-139028200D02*
X139487200Y-139028200D01*
X139487200Y-140778200D02*
X138287200Y-140778200D01*
X170115200Y-99577600D02*
X170115200Y-100777600D01*
X168365200Y-100777600D02*
X168365200Y-99577600D01*
X164008000Y-96838200D02*
X166708000Y-96838200D01*
X164008000Y-95338200D02*
X166708000Y-95338200D01*
X165508000Y-96238200D02*
X165508000Y-95988200D01*
X165508000Y-95988200D02*
X165358000Y-96138200D01*
X165258000Y-95738200D02*
X165258000Y-96438200D01*
X165608000Y-96088200D02*
X165958000Y-96088200D01*
X165258000Y-96088200D02*
X165608000Y-95738200D01*
X165608000Y-95738200D02*
X165608000Y-96438200D01*
X165608000Y-96438200D02*
X165258000Y-96088200D01*
X154016000Y-137069800D02*
X152816000Y-137069800D01*
X152816000Y-135319800D02*
X154016000Y-135319800D01*
X121151714Y-98278905D02*
X120885047Y-97897952D01*
X120694571Y-98278905D02*
X120694571Y-97478905D01*
X120999333Y-97478905D01*
X121075524Y-97517000D01*
X121113619Y-97555095D01*
X121151714Y-97631286D01*
X121151714Y-97745571D01*
X121113619Y-97821762D01*
X121075524Y-97859857D01*
X120999333Y-97897952D01*
X120694571Y-97897952D01*
X121913619Y-98278905D02*
X121456476Y-98278905D01*
X121685047Y-98278905D02*
X121685047Y-97478905D01*
X121608857Y-97593190D01*
X121532666Y-97669381D01*
X121456476Y-97707476D01*
X122218381Y-97555095D02*
X122256476Y-97517000D01*
X122332667Y-97478905D01*
X122523143Y-97478905D01*
X122599333Y-97517000D01*
X122637429Y-97555095D01*
X122675524Y-97631286D01*
X122675524Y-97707476D01*
X122637429Y-97821762D01*
X122180286Y-98278905D01*
X122675524Y-98278905D01*
X121151714Y-97262905D02*
X120885047Y-96881952D01*
X120694571Y-97262905D02*
X120694571Y-96462905D01*
X120999333Y-96462905D01*
X121075524Y-96501000D01*
X121113619Y-96539095D01*
X121151714Y-96615286D01*
X121151714Y-96729571D01*
X121113619Y-96805762D01*
X121075524Y-96843857D01*
X120999333Y-96881952D01*
X120694571Y-96881952D01*
X121913619Y-97262905D02*
X121456476Y-97262905D01*
X121685047Y-97262905D02*
X121685047Y-96462905D01*
X121608857Y-96577190D01*
X121532666Y-96653381D01*
X121456476Y-96691476D01*
X122180286Y-96462905D02*
X122675524Y-96462905D01*
X122408857Y-96767667D01*
X122523143Y-96767667D01*
X122599333Y-96805762D01*
X122637429Y-96843857D01*
X122675524Y-96920048D01*
X122675524Y-97110524D01*
X122637429Y-97186714D01*
X122599333Y-97224810D01*
X122523143Y-97262905D01*
X122294571Y-97262905D01*
X122218381Y-97224810D01*
X122180286Y-97186714D01*
D10*
X141047800Y-117028886D02*
X141019229Y-117057457D01*
X140933515Y-117086029D01*
X140876372Y-117086029D01*
X140790657Y-117057457D01*
X140733515Y-117000314D01*
X140704943Y-116943171D01*
X140676372Y-116828886D01*
X140676372Y-116743171D01*
X140704943Y-116628886D01*
X140733515Y-116571743D01*
X140790657Y-116514600D01*
X140876372Y-116486029D01*
X140933515Y-116486029D01*
X141019229Y-116514600D01*
X141047800Y-116543171D01*
X141619229Y-117086029D02*
X141276372Y-117086029D01*
X141447800Y-117086029D02*
X141447800Y-116486029D01*
X141390657Y-116571743D01*
X141333515Y-116628886D01*
X141276372Y-116657457D01*
D12*
X156627534Y-114047543D02*
X156579915Y-114095162D01*
X156437058Y-114142781D01*
X156341820Y-114142781D01*
X156198962Y-114095162D01*
X156103724Y-113999924D01*
X156056105Y-113904686D01*
X156008486Y-113714210D01*
X156008486Y-113571352D01*
X156056105Y-113380876D01*
X156103724Y-113285638D01*
X156198962Y-113190400D01*
X156341820Y-113142781D01*
X156437058Y-113142781D01*
X156579915Y-113190400D01*
X156627534Y-113238019D01*
X157008486Y-113238019D02*
X157056105Y-113190400D01*
X157151343Y-113142781D01*
X157389439Y-113142781D01*
X157484677Y-113190400D01*
X157532296Y-113238019D01*
X157579915Y-113333257D01*
X157579915Y-113428495D01*
X157532296Y-113571352D01*
X156960867Y-114142781D01*
X157579915Y-114142781D01*
X125633334Y-130557143D02*
X125585715Y-130604762D01*
X125442858Y-130652381D01*
X125347620Y-130652381D01*
X125204762Y-130604762D01*
X125109524Y-130509524D01*
X125061905Y-130414286D01*
X125014286Y-130223810D01*
X125014286Y-130080952D01*
X125061905Y-129890476D01*
X125109524Y-129795238D01*
X125204762Y-129700000D01*
X125347620Y-129652381D01*
X125442858Y-129652381D01*
X125585715Y-129700000D01*
X125633334Y-129747619D01*
X125966667Y-129652381D02*
X126585715Y-129652381D01*
X126252381Y-130033333D01*
X126395239Y-130033333D01*
X126490477Y-130080952D01*
X126538096Y-130128571D01*
X126585715Y-130223810D01*
X126585715Y-130461905D01*
X126538096Y-130557143D01*
X126490477Y-130604762D01*
X126395239Y-130652381D01*
X126109524Y-130652381D01*
X126014286Y-130604762D01*
X125966667Y-130557143D01*
X142124134Y-140158743D02*
X142076515Y-140206362D01*
X141933658Y-140253981D01*
X141838420Y-140253981D01*
X141695562Y-140206362D01*
X141600324Y-140111124D01*
X141552705Y-140015886D01*
X141505086Y-139825410D01*
X141505086Y-139682552D01*
X141552705Y-139492076D01*
X141600324Y-139396838D01*
X141695562Y-139301600D01*
X141838420Y-139253981D01*
X141933658Y-139253981D01*
X142076515Y-139301600D01*
X142124134Y-139349219D01*
X142981277Y-139253981D02*
X142790800Y-139253981D01*
X142695562Y-139301600D01*
X142647943Y-139349219D01*
X142552705Y-139492076D01*
X142505086Y-139682552D01*
X142505086Y-140063505D01*
X142552705Y-140158743D01*
X142600324Y-140206362D01*
X142695562Y-140253981D01*
X142886039Y-140253981D01*
X142981277Y-140206362D01*
X143028896Y-140158743D01*
X143076515Y-140063505D01*
X143076515Y-139825410D01*
X143028896Y-139730171D01*
X142981277Y-139682552D01*
X142886039Y-139634933D01*
X142695562Y-139634933D01*
X142600324Y-139682552D01*
X142552705Y-139730171D01*
X142505086Y-139825410D01*
D18*
X121194286Y-138540857D02*
X121194286Y-137340857D01*
X121651429Y-137340857D01*
X121765715Y-137398000D01*
X121822858Y-137455143D01*
X121880001Y-137569429D01*
X121880001Y-137740857D01*
X121822858Y-137855143D01*
X121765715Y-137912286D01*
X121651429Y-137969429D01*
X121194286Y-137969429D01*
X122908572Y-137740857D02*
X122908572Y-138540857D01*
X122622858Y-137283714D02*
X122337143Y-138140857D01*
X123080001Y-138140857D01*
D19*
X121004762Y-131052381D02*
X121004762Y-131861905D01*
X121052381Y-131957143D01*
X121100000Y-132004762D01*
X121195238Y-132052381D01*
X121385715Y-132052381D01*
X121480953Y-132004762D01*
X121528572Y-131957143D01*
X121576191Y-131861905D01*
X121576191Y-131052381D01*
X122004762Y-131766667D02*
X122480953Y-131766667D01*
X121909524Y-132052381D02*
X122242857Y-131052381D01*
X122576191Y-132052381D01*
X123480953Y-132052381D02*
X123147619Y-131576190D01*
X122909524Y-132052381D02*
X122909524Y-131052381D01*
X123290477Y-131052381D01*
X123385715Y-131100000D01*
X123433334Y-131147619D01*
X123480953Y-131242857D01*
X123480953Y-131385714D01*
X123433334Y-131480952D01*
X123385715Y-131528571D01*
X123290477Y-131576190D01*
X122909524Y-131576190D01*
X123766667Y-131052381D02*
X124338096Y-131052381D01*
X124052381Y-132052381D02*
X124052381Y-131052381D01*
D16*
X128143343Y-135652129D02*
X128143343Y-134128129D01*
X128723915Y-134128129D01*
X128869057Y-134200700D01*
X128941629Y-134273271D01*
X129014200Y-134418414D01*
X129014200Y-134636129D01*
X128941629Y-134781271D01*
X128869057Y-134853843D01*
X128723915Y-134926414D01*
X128143343Y-134926414D01*
X130393057Y-134128129D02*
X129667343Y-134128129D01*
X129594772Y-134853843D01*
X129667343Y-134781271D01*
X129812486Y-134708700D01*
X130175343Y-134708700D01*
X130320486Y-134781271D01*
X130393057Y-134853843D01*
X130465629Y-134998986D01*
X130465629Y-135361843D01*
X130393057Y-135506986D01*
X130320486Y-135579557D01*
X130175343Y-135652129D01*
X129812486Y-135652129D01*
X129667343Y-135579557D01*
X129594772Y-135506986D01*
D19*
X129823810Y-132052381D02*
X129823810Y-131052381D01*
X130252381Y-131147619D02*
X130300000Y-131100000D01*
X130395238Y-131052381D01*
X130633334Y-131052381D01*
X130728572Y-131100000D01*
X130776191Y-131147619D01*
X130823810Y-131242857D01*
X130823810Y-131338095D01*
X130776191Y-131480952D01*
X130204762Y-132052381D01*
X130823810Y-132052381D01*
X131823810Y-131957143D02*
X131776191Y-132004762D01*
X131633334Y-132052381D01*
X131538096Y-132052381D01*
X131395238Y-132004762D01*
X131300000Y-131909524D01*
X131252381Y-131814286D01*
X131204762Y-131623810D01*
X131204762Y-131480952D01*
X131252381Y-131290476D01*
X131300000Y-131195238D01*
X131395238Y-131100000D01*
X131538096Y-131052381D01*
X131633334Y-131052381D01*
X131776191Y-131100000D01*
X131823810Y-131147619D01*
D12*
X129182905Y-113799881D02*
X129182905Y-112799881D01*
X129563858Y-112799881D01*
X129659096Y-112847500D01*
X129706715Y-112895119D01*
X129754334Y-112990357D01*
X129754334Y-113133214D01*
X129706715Y-113228452D01*
X129659096Y-113276071D01*
X129563858Y-113323690D01*
X129182905Y-113323690D01*
X130611477Y-112799881D02*
X130421000Y-112799881D01*
X130325762Y-112847500D01*
X130278143Y-112895119D01*
X130182905Y-113037976D01*
X130135286Y-113228452D01*
X130135286Y-113609405D01*
X130182905Y-113704643D01*
X130230524Y-113752262D01*
X130325762Y-113799881D01*
X130516239Y-113799881D01*
X130611477Y-113752262D01*
X130659096Y-113704643D01*
X130706715Y-113609405D01*
X130706715Y-113371310D01*
X130659096Y-113276071D01*
X130611477Y-113228452D01*
X130516239Y-113180833D01*
X130325762Y-113180833D01*
X130230524Y-113228452D01*
X130182905Y-113276071D01*
X130135286Y-113371310D01*
X140812781Y-128855695D02*
X139812781Y-128855695D01*
X139812781Y-128474742D01*
X139860400Y-128379504D01*
X139908019Y-128331885D01*
X140003257Y-128284266D01*
X140146114Y-128284266D01*
X140241352Y-128331885D01*
X140288971Y-128379504D01*
X140336590Y-128474742D01*
X140336590Y-128855695D01*
X139812781Y-127950933D02*
X139812781Y-127284266D01*
X140812781Y-127712838D01*
X129774962Y-118733819D02*
X129679724Y-118686200D01*
X129584486Y-118590962D01*
X129441629Y-118448105D01*
X129346390Y-118400486D01*
X129251152Y-118400486D01*
X129298771Y-118638581D02*
X129203533Y-118590962D01*
X129108295Y-118495724D01*
X129060676Y-118305248D01*
X129060676Y-117971914D01*
X129108295Y-117781438D01*
X129203533Y-117686200D01*
X129298771Y-117638581D01*
X129489248Y-117638581D01*
X129584486Y-117686200D01*
X129679724Y-117781438D01*
X129727343Y-117971914D01*
X129727343Y-118305248D01*
X129679724Y-118495724D01*
X129584486Y-118590962D01*
X129489248Y-118638581D01*
X129298771Y-118638581D01*
X130679724Y-118638581D02*
X130108295Y-118638581D01*
X130394009Y-118638581D02*
X130394009Y-117638581D01*
X130298771Y-117781438D01*
X130203533Y-117876676D01*
X130108295Y-117924295D01*
X130188095Y-124902381D02*
X130188095Y-125711905D01*
X130235714Y-125807143D01*
X130283333Y-125854762D01*
X130378571Y-125902381D01*
X130569048Y-125902381D01*
X130664286Y-125854762D01*
X130711905Y-125807143D01*
X130759524Y-125711905D01*
X130759524Y-124902381D01*
X131188095Y-124997619D02*
X131235714Y-124950000D01*
X131330952Y-124902381D01*
X131569048Y-124902381D01*
X131664286Y-124950000D01*
X131711905Y-124997619D01*
X131759524Y-125092857D01*
X131759524Y-125188095D01*
X131711905Y-125330952D01*
X131140476Y-125902381D01*
X131759524Y-125902381D01*
D20*
X134430105Y-104593269D02*
X134430105Y-105199845D01*
X134465786Y-105271207D01*
X134501467Y-105306888D01*
X134572829Y-105342569D01*
X134715552Y-105342569D01*
X134786914Y-105306888D01*
X134822595Y-105271207D01*
X134858276Y-105199845D01*
X134858276Y-104593269D01*
X135143724Y-104593269D02*
X135607576Y-104593269D01*
X135357810Y-104878717D01*
X135464852Y-104878717D01*
X135536214Y-104914398D01*
X135571895Y-104950079D01*
X135607576Y-105021440D01*
X135607576Y-105199845D01*
X135571895Y-105271207D01*
X135536214Y-105306888D01*
X135464852Y-105342569D01*
X135250767Y-105342569D01*
X135179405Y-105306888D01*
X135143724Y-105271207D01*
X136528326Y-105266369D02*
X136171517Y-105266369D01*
X136171517Y-104517069D01*
X136778093Y-105266369D02*
X136778093Y-104517069D01*
X137027859Y-105052283D01*
X137277626Y-104517069D01*
X137277626Y-105266369D01*
X137563074Y-104517069D02*
X138026926Y-104517069D01*
X137777160Y-104802517D01*
X137884202Y-104802517D01*
X137955564Y-104838198D01*
X137991245Y-104873879D01*
X138026926Y-104945240D01*
X138026926Y-105123645D01*
X137991245Y-105195007D01*
X137955564Y-105230688D01*
X137884202Y-105266369D01*
X137670117Y-105266369D01*
X137598755Y-105230688D01*
X137563074Y-105195007D01*
X138383736Y-105266369D02*
X138526460Y-105266369D01*
X138597821Y-105230688D01*
X138633502Y-105195007D01*
X138704864Y-105087964D01*
X138740545Y-104945240D01*
X138740545Y-104659793D01*
X138704864Y-104588431D01*
X138669183Y-104552750D01*
X138597821Y-104517069D01*
X138455098Y-104517069D01*
X138383736Y-104552750D01*
X138348055Y-104588431D01*
X138312374Y-104659793D01*
X138312374Y-104838198D01*
X138348055Y-104909560D01*
X138383736Y-104945240D01*
X138455098Y-104980921D01*
X138597821Y-104980921D01*
X138669183Y-104945240D01*
X138704864Y-104909560D01*
X138740545Y-104838198D01*
X138990312Y-104517069D02*
X139454164Y-104517069D01*
X139204398Y-104802517D01*
X139311440Y-104802517D01*
X139382802Y-104838198D01*
X139418483Y-104873879D01*
X139454164Y-104945240D01*
X139454164Y-105123645D01*
X139418483Y-105195007D01*
X139382802Y-105230688D01*
X139311440Y-105266369D01*
X139097355Y-105266369D01*
X139025993Y-105230688D01*
X138990312Y-105195007D01*
X140145105Y-123287669D02*
X140145105Y-123894245D01*
X140180786Y-123965607D01*
X140216467Y-124001288D01*
X140287829Y-124036969D01*
X140430552Y-124036969D01*
X140501914Y-124001288D01*
X140537595Y-123965607D01*
X140573276Y-123894245D01*
X140573276Y-123287669D01*
X141286895Y-123287669D02*
X140930086Y-123287669D01*
X140894405Y-123644479D01*
X140930086Y-123608798D01*
X141001448Y-123573117D01*
X141179852Y-123573117D01*
X141251214Y-123608798D01*
X141286895Y-123644479D01*
X141322576Y-123715840D01*
X141322576Y-123894245D01*
X141286895Y-123965607D01*
X141251214Y-124001288D01*
X141179852Y-124036969D01*
X141001448Y-124036969D01*
X140930086Y-124001288D01*
X140894405Y-123965607D01*
X141780000Y-122744667D02*
X141780000Y-122044667D01*
X142046666Y-122044667D01*
X142113333Y-122078000D01*
X142146666Y-122111333D01*
X142180000Y-122178000D01*
X142180000Y-122278000D01*
X142146666Y-122344667D01*
X142113333Y-122378000D01*
X142046666Y-122411333D01*
X141780000Y-122411333D01*
X142480000Y-122744667D02*
X142480000Y-122044667D01*
X143213333Y-122678000D02*
X143179999Y-122711333D01*
X143079999Y-122744667D01*
X143013333Y-122744667D01*
X142913333Y-122711333D01*
X142846666Y-122644667D01*
X142813333Y-122578000D01*
X142779999Y-122444667D01*
X142779999Y-122344667D01*
X142813333Y-122211333D01*
X142846666Y-122144667D01*
X142913333Y-122078000D01*
X143013333Y-122044667D01*
X143079999Y-122044667D01*
X143179999Y-122078000D01*
X143213333Y-122111333D01*
X143879999Y-122744667D02*
X143479999Y-122744667D01*
X143679999Y-122744667D02*
X143679999Y-122044667D01*
X143613333Y-122144667D01*
X143546666Y-122211333D01*
X143479999Y-122244667D01*
X144480000Y-122044667D02*
X144346666Y-122044667D01*
X144280000Y-122078000D01*
X144246666Y-122111333D01*
X144180000Y-122211333D01*
X144146666Y-122344667D01*
X144146666Y-122611333D01*
X144180000Y-122678000D01*
X144213333Y-122711333D01*
X144280000Y-122744667D01*
X144413333Y-122744667D01*
X144480000Y-122711333D01*
X144513333Y-122678000D01*
X144546666Y-122611333D01*
X144546666Y-122444667D01*
X144513333Y-122378000D01*
X144480000Y-122344667D01*
X144413333Y-122311333D01*
X144280000Y-122311333D01*
X144213333Y-122344667D01*
X144180000Y-122378000D01*
X144146666Y-122444667D01*
X145080000Y-122378000D02*
X144846667Y-122378000D01*
X144846667Y-122744667D02*
X144846667Y-122044667D01*
X145180000Y-122044667D01*
X145813333Y-122744667D02*
X145413333Y-122744667D01*
X145613333Y-122744667D02*
X145613333Y-122044667D01*
X145546667Y-122144667D01*
X145480000Y-122211333D01*
X145413333Y-122244667D01*
X146046667Y-122044667D02*
X146513334Y-122044667D01*
X146213334Y-122744667D01*
X146913334Y-122044667D02*
X146980001Y-122044667D01*
X147046667Y-122078000D01*
X147080001Y-122111333D01*
X147113334Y-122178000D01*
X147146667Y-122311333D01*
X147146667Y-122478000D01*
X147113334Y-122611333D01*
X147080001Y-122678000D01*
X147046667Y-122711333D01*
X146980001Y-122744667D01*
X146913334Y-122744667D01*
X146846667Y-122711333D01*
X146813334Y-122678000D01*
X146780001Y-122611333D01*
X146746667Y-122478000D01*
X146746667Y-122311333D01*
X146780001Y-122178000D01*
X146813334Y-122111333D01*
X146846667Y-122078000D01*
X146913334Y-122044667D01*
X147480001Y-122744667D02*
X147613334Y-122744667D01*
X147680001Y-122711333D01*
X147713334Y-122678000D01*
X147780001Y-122578000D01*
X147813334Y-122444667D01*
X147813334Y-122178000D01*
X147780001Y-122111333D01*
X147746668Y-122078000D01*
X147680001Y-122044667D01*
X147546668Y-122044667D01*
X147480001Y-122078000D01*
X147446668Y-122111333D01*
X147413334Y-122178000D01*
X147413334Y-122344667D01*
X147446668Y-122411333D01*
X147480001Y-122444667D01*
X147546668Y-122478000D01*
X147680001Y-122478000D01*
X147746668Y-122444667D01*
X147780001Y-122411333D01*
X147813334Y-122344667D01*
D21*
X124950667Y-143648867D02*
X124950667Y-142948867D01*
X125684000Y-143582200D02*
X125650666Y-143615533D01*
X125550666Y-143648867D01*
X125484000Y-143648867D01*
X125384000Y-143615533D01*
X125317333Y-143548867D01*
X125284000Y-143482200D01*
X125250666Y-143348867D01*
X125250666Y-143248867D01*
X125284000Y-143115533D01*
X125317333Y-143048867D01*
X125384000Y-142982200D01*
X125484000Y-142948867D01*
X125550666Y-142948867D01*
X125650666Y-142982200D01*
X125684000Y-143015533D01*
X125950666Y-143615533D02*
X126050666Y-143648867D01*
X126217333Y-143648867D01*
X126284000Y-143615533D01*
X126317333Y-143582200D01*
X126350666Y-143515533D01*
X126350666Y-143448867D01*
X126317333Y-143382200D01*
X126284000Y-143348867D01*
X126217333Y-143315533D01*
X126084000Y-143282200D01*
X126017333Y-143248867D01*
X125984000Y-143215533D01*
X125950666Y-143148867D01*
X125950666Y-143082200D01*
X125984000Y-143015533D01*
X126017333Y-142982200D01*
X126084000Y-142948867D01*
X126250666Y-142948867D01*
X126350666Y-142982200D01*
X126650667Y-143648867D02*
X126650667Y-142948867D01*
X126917333Y-142948867D01*
X126984000Y-142982200D01*
X127017333Y-143015533D01*
X127050667Y-143082200D01*
X127050667Y-143182200D01*
X127017333Y-143248867D01*
X126984000Y-143282200D01*
X126917333Y-143315533D01*
X126650667Y-143315533D01*
D22*
X140560143Y-120997429D02*
X140560143Y-120397429D01*
X140703000Y-120397429D01*
X140788715Y-120426000D01*
X140845857Y-120483143D01*
X140874429Y-120540286D01*
X140903000Y-120654571D01*
X140903000Y-120740286D01*
X140874429Y-120854571D01*
X140845857Y-120911714D01*
X140788715Y-120968857D01*
X140703000Y-120997429D01*
X140560143Y-120997429D01*
X141417286Y-120397429D02*
X141303000Y-120397429D01*
X141245857Y-120426000D01*
X141217286Y-120454571D01*
X141160143Y-120540286D01*
X141131572Y-120654571D01*
X141131572Y-120883143D01*
X141160143Y-120940286D01*
X141188715Y-120968857D01*
X141245857Y-120997429D01*
X141360143Y-120997429D01*
X141417286Y-120968857D01*
X141445857Y-120940286D01*
X141474429Y-120883143D01*
X141474429Y-120740286D01*
X141445857Y-120683143D01*
X141417286Y-120654571D01*
X141360143Y-120626000D01*
X141245857Y-120626000D01*
X141188715Y-120654571D01*
X141160143Y-120683143D01*
X141131572Y-120740286D01*
X140560143Y-118965429D02*
X140560143Y-118365429D01*
X140703000Y-118365429D01*
X140788715Y-118394000D01*
X140845857Y-118451143D01*
X140874429Y-118508286D01*
X140903000Y-118622571D01*
X140903000Y-118708286D01*
X140874429Y-118822571D01*
X140845857Y-118879714D01*
X140788715Y-118936857D01*
X140703000Y-118965429D01*
X140560143Y-118965429D01*
X141103000Y-118365429D02*
X141503000Y-118365429D01*
X141245857Y-118965429D01*
D12*
X127278334Y-138314667D02*
X127278334Y-137614667D01*
X127445000Y-137614667D01*
X127545000Y-137648000D01*
X127611667Y-137714667D01*
X127645000Y-137781333D01*
X127678334Y-137914667D01*
X127678334Y-138014667D01*
X127645000Y-138148000D01*
X127611667Y-138214667D01*
X127545000Y-138281333D01*
X127445000Y-138314667D01*
X127278334Y-138314667D01*
X128011667Y-138314667D02*
X128145000Y-138314667D01*
X128211667Y-138281333D01*
X128245000Y-138248000D01*
X128311667Y-138148000D01*
X128345000Y-138014667D01*
X128345000Y-137748000D01*
X128311667Y-137681333D01*
X128278334Y-137648000D01*
X128211667Y-137614667D01*
X128078334Y-137614667D01*
X128011667Y-137648000D01*
X127978334Y-137681333D01*
X127945000Y-137748000D01*
X127945000Y-137914667D01*
X127978334Y-137981333D01*
X128011667Y-138014667D01*
X128078334Y-138048000D01*
X128211667Y-138048000D01*
X128278334Y-138014667D01*
X128311667Y-137981333D01*
X128345000Y-137914667D01*
X134850000Y-140616667D02*
X134850000Y-139916667D01*
X135016666Y-139916667D01*
X135116666Y-139950000D01*
X135183333Y-140016667D01*
X135216666Y-140083333D01*
X135250000Y-140216667D01*
X135250000Y-140316667D01*
X135216666Y-140450000D01*
X135183333Y-140516667D01*
X135116666Y-140583333D01*
X135016666Y-140616667D01*
X134850000Y-140616667D01*
X135916666Y-140616667D02*
X135516666Y-140616667D01*
X135716666Y-140616667D02*
X135716666Y-139916667D01*
X135650000Y-140016667D01*
X135583333Y-140083333D01*
X135516666Y-140116667D01*
X136350000Y-139916667D02*
X136416667Y-139916667D01*
X136483333Y-139950000D01*
X136516667Y-139983333D01*
X136550000Y-140050000D01*
X136583333Y-140183333D01*
X136583333Y-140350000D01*
X136550000Y-140483333D01*
X136516667Y-140550000D01*
X136483333Y-140583333D01*
X136416667Y-140616667D01*
X136350000Y-140616667D01*
X136283333Y-140583333D01*
X136250000Y-140550000D01*
X136216667Y-140483333D01*
X136183333Y-140350000D01*
X136183333Y-140183333D01*
X136216667Y-140050000D01*
X136250000Y-139983333D01*
X136283333Y-139950000D01*
X136350000Y-139916667D01*
D23*
X167937543Y-137417629D02*
X167937543Y-138651343D01*
X167991971Y-138796486D01*
X168046400Y-138869057D01*
X168155257Y-138941629D01*
X168372971Y-138941629D01*
X168481829Y-138869057D01*
X168536257Y-138796486D01*
X168590686Y-138651343D01*
X168590686Y-137417629D01*
X169733686Y-138941629D02*
X169080543Y-138941629D01*
X169407115Y-138941629D02*
X169407115Y-137417629D01*
X169298258Y-137635343D01*
X169189400Y-137780486D01*
X169080543Y-137853057D01*
D24*
D23*
X160314429Y-134035856D02*
X160314429Y-134253570D01*
X160387000Y-134362427D01*
X160459571Y-134416856D01*
X160677286Y-134525713D01*
X160967571Y-134580142D01*
X161548143Y-134580142D01*
X161693286Y-134525713D01*
X161765857Y-134471285D01*
X161838429Y-134362427D01*
X161838429Y-134144713D01*
X161765857Y-134035856D01*
X161693286Y-133981427D01*
X161548143Y-133926999D01*
X161185286Y-133926999D01*
X161040143Y-133981427D01*
X160967571Y-134035856D01*
X160895000Y-134144713D01*
X160895000Y-134362427D01*
X160967571Y-134471285D01*
X161040143Y-134525713D01*
X161185286Y-134580142D01*
X161838429Y-133437142D02*
X160314429Y-133437142D01*
X161838429Y-132783999D01*
X160314429Y-132783999D01*
X161838429Y-131640999D02*
X161838429Y-132294142D01*
X161838429Y-131967570D02*
X160314429Y-131967570D01*
X160532143Y-132076427D01*
X160677286Y-132185285D01*
X160749857Y-132294142D01*
X160314429Y-131259999D02*
X160314429Y-130552428D01*
X160895000Y-130933428D01*
X160895000Y-130770142D01*
X160967571Y-130661285D01*
X161040143Y-130606856D01*
X161185286Y-130552428D01*
X161548143Y-130552428D01*
X161693286Y-130606856D01*
X161765857Y-130661285D01*
X161838429Y-130770142D01*
X161838429Y-131096714D01*
X161765857Y-131205571D01*
X161693286Y-131259999D01*
X160314429Y-130171428D02*
X160314429Y-129409428D01*
X161838429Y-129899285D01*
D24*
D12*
X154352095Y-121520381D02*
X154923524Y-121520381D01*
X154637809Y-122520381D02*
X154637809Y-121520381D01*
X155780667Y-122520381D02*
X155209238Y-122520381D01*
X155494952Y-122520381D02*
X155494952Y-121520381D01*
X155399714Y-121663238D01*
X155304476Y-121758476D01*
X155209238Y-121806095D01*
D18*
X169729571Y-123834142D02*
X168229571Y-123834142D01*
X168229571Y-123262714D01*
X168301000Y-123119856D01*
X168372429Y-123048428D01*
X168515286Y-122976999D01*
X168729571Y-122976999D01*
X168872429Y-123048428D01*
X168943857Y-123119856D01*
X169015286Y-123262714D01*
X169015286Y-123834142D01*
X168372429Y-122405571D02*
X168301000Y-122334142D01*
X168229571Y-122191285D01*
X168229571Y-121834142D01*
X168301000Y-121691285D01*
X168372429Y-121619856D01*
X168515286Y-121548428D01*
X168658143Y-121548428D01*
X168872429Y-121619856D01*
X169729571Y-122476999D01*
X169729571Y-121548428D01*
D12*
X168351295Y-113650781D02*
X168351295Y-114460305D01*
X168398914Y-114555543D01*
X168446533Y-114603162D01*
X168541771Y-114650781D01*
X168732248Y-114650781D01*
X168827486Y-114603162D01*
X168875105Y-114555543D01*
X168922724Y-114460305D01*
X168922724Y-113650781D01*
X169827486Y-113984114D02*
X169827486Y-114650781D01*
X169589390Y-113603162D02*
X169351295Y-114317448D01*
X169970343Y-114317448D01*
D18*
X145111286Y-112167857D02*
X145111286Y-110967857D01*
X145568429Y-110967857D01*
X145682715Y-111025000D01*
X145739858Y-111082143D01*
X145797001Y-111196429D01*
X145797001Y-111367857D01*
X145739858Y-111482143D01*
X145682715Y-111539286D01*
X145568429Y-111596429D01*
X145111286Y-111596429D01*
X146939858Y-112167857D02*
X146254143Y-112167857D01*
X146597001Y-112167857D02*
X146597001Y-110967857D01*
X146482715Y-111139286D01*
X146368429Y-111253571D01*
X146254143Y-111310714D01*
D25*
X156678872Y-126692962D02*
X156678872Y-126192582D01*
X156798010Y-126192582D01*
X156869493Y-126216410D01*
X156917148Y-126264065D01*
X156940976Y-126311720D01*
X156964804Y-126407031D01*
X156964804Y-126478514D01*
X156940976Y-126573824D01*
X156917148Y-126621480D01*
X156869493Y-126669135D01*
X156798010Y-126692962D01*
X156678872Y-126692962D01*
X157393701Y-126359376D02*
X157393701Y-126692962D01*
X157274563Y-126168755D02*
X157155424Y-126526169D01*
X157465184Y-126526169D01*
X156729672Y-120368362D02*
X156729672Y-119867982D01*
X156848810Y-119867982D01*
X156920293Y-119891810D01*
X156967948Y-119939465D01*
X156991776Y-119987120D01*
X157015604Y-120082431D01*
X157015604Y-120153914D01*
X156991776Y-120249224D01*
X156967948Y-120296880D01*
X156920293Y-120344535D01*
X156848810Y-120368362D01*
X156729672Y-120368362D01*
X157206224Y-119915638D02*
X157230052Y-119891810D01*
X157277707Y-119867982D01*
X157396845Y-119867982D01*
X157444501Y-119891810D01*
X157468328Y-119915638D01*
X157492156Y-119963293D01*
X157492156Y-120010948D01*
X157468328Y-120082431D01*
X157182397Y-120368362D01*
X157492156Y-120368362D01*
X156678872Y-123467162D02*
X156678872Y-122966782D01*
X156798010Y-122966782D01*
X156869493Y-122990610D01*
X156917148Y-123038265D01*
X156940976Y-123085920D01*
X156964804Y-123181231D01*
X156964804Y-123252714D01*
X156940976Y-123348024D01*
X156917148Y-123395680D01*
X156869493Y-123443335D01*
X156798010Y-123467162D01*
X156678872Y-123467162D01*
X157131597Y-122966782D02*
X157441356Y-122966782D01*
X157274563Y-123157403D01*
X157346045Y-123157403D01*
X157393701Y-123181231D01*
X157417528Y-123205059D01*
X157441356Y-123252714D01*
X157441356Y-123371852D01*
X157417528Y-123419507D01*
X157393701Y-123443335D01*
X157346045Y-123467162D01*
X157203080Y-123467162D01*
X157155424Y-123443335D01*
X157131597Y-123419507D01*
X156729672Y-117421962D02*
X156729672Y-116921582D01*
X156848810Y-116921582D01*
X156920293Y-116945410D01*
X156967948Y-116993065D01*
X156991776Y-117040720D01*
X157015604Y-117136031D01*
X157015604Y-117207514D01*
X156991776Y-117302824D01*
X156967948Y-117350480D01*
X156920293Y-117398135D01*
X156848810Y-117421962D01*
X156729672Y-117421962D01*
X157492156Y-117421962D02*
X157206224Y-117421962D01*
X157349190Y-117421962D02*
X157349190Y-116921582D01*
X157301535Y-116993065D01*
X157253880Y-117040720D01*
X157206224Y-117064548D01*
X169451472Y-116710762D02*
X169451472Y-116210382D01*
X169570610Y-116210382D01*
X169642093Y-116234210D01*
X169689748Y-116281865D01*
X169713576Y-116329520D01*
X169737404Y-116424831D01*
X169737404Y-116496314D01*
X169713576Y-116591624D01*
X169689748Y-116639280D01*
X169642093Y-116686935D01*
X169570610Y-116710762D01*
X169451472Y-116710762D01*
X170190128Y-116210382D02*
X169951852Y-116210382D01*
X169928024Y-116448659D01*
X169951852Y-116424831D01*
X169999507Y-116401003D01*
X170118645Y-116401003D01*
X170166301Y-116424831D01*
X170190128Y-116448659D01*
X170213956Y-116496314D01*
X170213956Y-116615452D01*
X170190128Y-116663107D01*
X170166301Y-116686935D01*
X170118645Y-116710762D01*
X169999507Y-116710762D01*
X169951852Y-116686935D01*
X169928024Y-116663107D01*
D22*
X156063905Y-128733476D02*
X155263905Y-128733476D01*
X155263905Y-128543000D01*
X155302000Y-128428714D01*
X155378190Y-128352523D01*
X155454381Y-128314428D01*
X155606762Y-128276333D01*
X155721048Y-128276333D01*
X155873429Y-128314428D01*
X155949619Y-128352523D01*
X156025810Y-128428714D01*
X156063905Y-128543000D01*
X156063905Y-128733476D01*
X155606762Y-127819190D02*
X155568667Y-127895381D01*
X155530571Y-127933476D01*
X155454381Y-127971571D01*
X155416286Y-127971571D01*
X155340095Y-127933476D01*
X155302000Y-127895381D01*
X155263905Y-127819190D01*
X155263905Y-127666809D01*
X155302000Y-127590619D01*
X155340095Y-127552523D01*
X155416286Y-127514428D01*
X155454381Y-127514428D01*
X155530571Y-127552523D01*
X155568667Y-127590619D01*
X155606762Y-127666809D01*
X155606762Y-127819190D01*
X155644857Y-127895381D01*
X155682952Y-127933476D01*
X155759143Y-127971571D01*
X155911524Y-127971571D01*
X155987714Y-127933476D01*
X156025810Y-127895381D01*
X156063905Y-127819190D01*
X156063905Y-127666809D01*
X156025810Y-127590619D01*
X155987714Y-127552523D01*
X155911524Y-127514428D01*
X155759143Y-127514428D01*
X155682952Y-127552523D01*
X155644857Y-127590619D01*
X155606762Y-127666809D01*
D12*
X168794134Y-103455743D02*
X168746515Y-103503362D01*
X168603658Y-103550981D01*
X168508420Y-103550981D01*
X168365562Y-103503362D01*
X168270324Y-103408124D01*
X168222705Y-103312886D01*
X168175086Y-103122410D01*
X168175086Y-102979552D01*
X168222705Y-102789076D01*
X168270324Y-102693838D01*
X168365562Y-102598600D01*
X168508420Y-102550981D01*
X168603658Y-102550981D01*
X168746515Y-102598600D01*
X168794134Y-102646219D01*
X169651277Y-102884314D02*
X169651277Y-103550981D01*
X169413181Y-102503362D02*
X169175086Y-103217648D01*
X169794134Y-103217648D01*
X133437334Y-122327943D02*
X133389715Y-122375562D01*
X133246858Y-122423181D01*
X133151620Y-122423181D01*
X133008762Y-122375562D01*
X132913524Y-122280324D01*
X132865905Y-122185086D01*
X132818286Y-121994610D01*
X132818286Y-121851752D01*
X132865905Y-121661276D01*
X132913524Y-121566038D01*
X133008762Y-121470800D01*
X133151620Y-121423181D01*
X133246858Y-121423181D01*
X133389715Y-121470800D01*
X133437334Y-121518419D01*
X134342096Y-121423181D02*
X133865905Y-121423181D01*
X133818286Y-121899371D01*
X133865905Y-121851752D01*
X133961143Y-121804133D01*
X134199239Y-121804133D01*
X134294477Y-121851752D01*
X134342096Y-121899371D01*
X134389715Y-121994610D01*
X134389715Y-122232705D01*
X134342096Y-122327943D01*
X134294477Y-122375562D01*
X134199239Y-122423181D01*
X133961143Y-122423181D01*
X133865905Y-122375562D01*
X133818286Y-122327943D01*
D11*
X151306162Y-138188533D02*
X151353781Y-138045676D01*
X151353781Y-137807580D01*
X151306162Y-137712342D01*
X151258543Y-137664723D01*
X151163305Y-137617104D01*
X151068067Y-137617104D01*
X150972829Y-137664723D01*
X150925210Y-137712342D01*
X150877590Y-137807580D01*
X150829971Y-137998057D01*
X150782352Y-138093295D01*
X150734733Y-138140914D01*
X150639495Y-138188533D01*
X150544257Y-138188533D01*
X150449019Y-138140914D01*
X150401400Y-138093295D01*
X150353781Y-137998057D01*
X150353781Y-137759961D01*
X150401400Y-137617104D01*
X150353781Y-137283771D02*
X151353781Y-137045676D01*
X150639495Y-136855199D01*
X151353781Y-136664723D01*
X150353781Y-136426628D01*
X151353781Y-135521866D02*
X151353781Y-136093295D01*
X151353781Y-135807581D02*
X150353781Y-135807581D01*
X150496638Y-135902819D01*
X150591876Y-135998057D01*
X150639495Y-136093295D01*
D12*
X121151714Y-99294905D02*
X120885047Y-98913952D01*
X120694571Y-99294905D02*
X120694571Y-98494905D01*
X120999333Y-98494905D01*
X121075524Y-98533000D01*
X121113619Y-98571095D01*
X121151714Y-98647286D01*
X121151714Y-98761571D01*
X121113619Y-98837762D01*
X121075524Y-98875857D01*
X120999333Y-98913952D01*
X120694571Y-98913952D01*
X121913619Y-99294905D02*
X121456476Y-99294905D01*
X121685047Y-99294905D02*
X121685047Y-98494905D01*
X121608857Y-98609190D01*
X121532666Y-98685381D01*
X121456476Y-98723476D01*
X122675524Y-99294905D02*
X122218381Y-99294905D01*
X122446952Y-99294905D02*
X122446952Y-98494905D01*
X122370762Y-98609190D01*
X122294571Y-98685381D01*
X122218381Y-98723476D01*
X121151714Y-100437905D02*
X120885047Y-100056952D01*
X120694571Y-100437905D02*
X120694571Y-99637905D01*
X120999333Y-99637905D01*
X121075524Y-99676000D01*
X121113619Y-99714095D01*
X121151714Y-99790286D01*
X121151714Y-99904571D01*
X121113619Y-99980762D01*
X121075524Y-100018857D01*
X120999333Y-100056952D01*
X120694571Y-100056952D01*
X121913619Y-100437905D02*
X121456476Y-100437905D01*
X121685047Y-100437905D02*
X121685047Y-99637905D01*
X121608857Y-99752190D01*
X121532666Y-99828381D01*
X121456476Y-99866476D01*
X122408857Y-99637905D02*
X122485048Y-99637905D01*
X122561238Y-99676000D01*
X122599333Y-99714095D01*
X122637429Y-99790286D01*
X122675524Y-99942667D01*
X122675524Y-100133143D01*
X122637429Y-100285524D01*
X122599333Y-100361714D01*
X122561238Y-100399810D01*
X122485048Y-100437905D01*
X122408857Y-100437905D01*
X122332667Y-100399810D01*
X122294571Y-100361714D01*
X122256476Y-100285524D01*
X122218381Y-100133143D01*
X122218381Y-99942667D01*
X122256476Y-99790286D01*
X122294571Y-99714095D01*
X122332667Y-99676000D01*
X122408857Y-99637905D01*
X121786667Y-101580905D02*
X121520000Y-101199952D01*
X121329524Y-101580905D02*
X121329524Y-100780905D01*
X121634286Y-100780905D01*
X121710477Y-100819000D01*
X121748572Y-100857095D01*
X121786667Y-100933286D01*
X121786667Y-101047571D01*
X121748572Y-101123762D01*
X121710477Y-101161857D01*
X121634286Y-101199952D01*
X121329524Y-101199952D01*
X122167619Y-101580905D02*
X122320000Y-101580905D01*
X122396191Y-101542810D01*
X122434286Y-101504714D01*
X122510477Y-101390429D01*
X122548572Y-101238048D01*
X122548572Y-100933286D01*
X122510477Y-100857095D01*
X122472381Y-100819000D01*
X122396191Y-100780905D01*
X122243810Y-100780905D01*
X122167619Y-100819000D01*
X122129524Y-100857095D01*
X122091429Y-100933286D01*
X122091429Y-101123762D01*
X122129524Y-101199952D01*
X122167619Y-101238048D01*
X122243810Y-101276143D01*
X122396191Y-101276143D01*
X122472381Y-101238048D01*
X122510477Y-101199952D01*
X122548572Y-101123762D01*
X121786667Y-102723905D02*
X121520000Y-102342952D01*
X121329524Y-102723905D02*
X121329524Y-101923905D01*
X121634286Y-101923905D01*
X121710477Y-101962000D01*
X121748572Y-102000095D01*
X121786667Y-102076286D01*
X121786667Y-102190571D01*
X121748572Y-102266762D01*
X121710477Y-102304857D01*
X121634286Y-102342952D01*
X121329524Y-102342952D01*
X122243810Y-102266762D02*
X122167619Y-102228667D01*
X122129524Y-102190571D01*
X122091429Y-102114381D01*
X122091429Y-102076286D01*
X122129524Y-102000095D01*
X122167619Y-101962000D01*
X122243810Y-101923905D01*
X122396191Y-101923905D01*
X122472381Y-101962000D01*
X122510477Y-102000095D01*
X122548572Y-102076286D01*
X122548572Y-102114381D01*
X122510477Y-102190571D01*
X122472381Y-102228667D01*
X122396191Y-102266762D01*
X122243810Y-102266762D01*
X122167619Y-102304857D01*
X122129524Y-102342952D01*
X122091429Y-102419143D01*
X122091429Y-102571524D01*
X122129524Y-102647714D01*
X122167619Y-102685810D01*
X122243810Y-102723905D01*
X122396191Y-102723905D01*
X122472381Y-102685810D01*
X122510477Y-102647714D01*
X122548572Y-102571524D01*
X122548572Y-102419143D01*
X122510477Y-102342952D01*
X122472381Y-102304857D01*
X122396191Y-102266762D01*
X158135581Y-134177066D02*
X157659390Y-134510400D01*
X158135581Y-134748495D02*
X157135581Y-134748495D01*
X157135581Y-134367542D01*
X157183200Y-134272304D01*
X157230819Y-134224685D01*
X157326057Y-134177066D01*
X157468914Y-134177066D01*
X157564152Y-134224685D01*
X157611771Y-134272304D01*
X157659390Y-134367542D01*
X157659390Y-134748495D01*
X158135581Y-133224685D02*
X158135581Y-133796114D01*
X158135581Y-133510400D02*
X157135581Y-133510400D01*
X157278438Y-133605638D01*
X157373676Y-133700876D01*
X157421295Y-133796114D01*
X121151714Y-96246905D02*
X120885047Y-95865952D01*
X120694571Y-96246905D02*
X120694571Y-95446905D01*
X120999333Y-95446905D01*
X121075524Y-95485000D01*
X121113619Y-95523095D01*
X121151714Y-95599286D01*
X121151714Y-95713571D01*
X121113619Y-95789762D01*
X121075524Y-95827857D01*
X120999333Y-95865952D01*
X120694571Y-95865952D01*
X121913619Y-96246905D02*
X121456476Y-96246905D01*
X121685047Y-96246905D02*
X121685047Y-95446905D01*
X121608857Y-95561190D01*
X121532666Y-95637381D01*
X121456476Y-95675476D01*
X122599333Y-95713571D02*
X122599333Y-96246905D01*
X122408857Y-95408810D02*
X122218381Y-95980238D01*
X122713619Y-95980238D01*
X132472134Y-119629181D02*
X132138800Y-119152990D01*
X131900705Y-119629181D02*
X131900705Y-118629181D01*
X132281658Y-118629181D01*
X132376896Y-118676800D01*
X132424515Y-118724419D01*
X132472134Y-118819657D01*
X132472134Y-118962514D01*
X132424515Y-119057752D01*
X132376896Y-119105371D01*
X132281658Y-119152990D01*
X131900705Y-119152990D01*
X132805467Y-118629181D02*
X133472134Y-118629181D01*
X133043562Y-119629181D01*
X134707334Y-119629181D02*
X134374000Y-119152990D01*
X134135905Y-119629181D02*
X134135905Y-118629181D01*
X134516858Y-118629181D01*
X134612096Y-118676800D01*
X134659715Y-118724419D01*
X134707334Y-118819657D01*
X134707334Y-118962514D01*
X134659715Y-119057752D01*
X134612096Y-119105371D01*
X134516858Y-119152990D01*
X134135905Y-119152990D01*
X135564477Y-118962514D02*
X135564477Y-119629181D01*
X135326381Y-118581562D02*
X135088286Y-119295848D01*
X135707334Y-119295848D01*
X137044134Y-119629181D02*
X136710800Y-119152990D01*
X136472705Y-119629181D02*
X136472705Y-118629181D01*
X136853658Y-118629181D01*
X136948896Y-118676800D01*
X136996515Y-118724419D01*
X137044134Y-118819657D01*
X137044134Y-118962514D01*
X136996515Y-119057752D01*
X136948896Y-119105371D01*
X136853658Y-119152990D01*
X136472705Y-119152990D01*
X137901277Y-118629181D02*
X137710800Y-118629181D01*
X137615562Y-118676800D01*
X137567943Y-118724419D01*
X137472705Y-118867276D01*
X137425086Y-119057752D01*
X137425086Y-119438705D01*
X137472705Y-119533943D01*
X137520324Y-119581562D01*
X137615562Y-119629181D01*
X137806039Y-119629181D01*
X137901277Y-119581562D01*
X137948896Y-119533943D01*
X137996515Y-119438705D01*
X137996515Y-119200610D01*
X137948896Y-119105371D01*
X137901277Y-119057752D01*
X137806039Y-119010133D01*
X137615562Y-119010133D01*
X137520324Y-119057752D01*
X137472705Y-119105371D01*
X137425086Y-119200610D01*
X139279334Y-119629181D02*
X138946000Y-119152990D01*
X138707905Y-119629181D02*
X138707905Y-118629181D01*
X139088858Y-118629181D01*
X139184096Y-118676800D01*
X139231715Y-118724419D01*
X139279334Y-118819657D01*
X139279334Y-118962514D01*
X139231715Y-119057752D01*
X139184096Y-119105371D01*
X139088858Y-119152990D01*
X138707905Y-119152990D01*
X140184096Y-118629181D02*
X139707905Y-118629181D01*
X139660286Y-119105371D01*
X139707905Y-119057752D01*
X139803143Y-119010133D01*
X140041239Y-119010133D01*
X140136477Y-119057752D01*
X140184096Y-119105371D01*
X140231715Y-119200610D01*
X140231715Y-119438705D01*
X140184096Y-119533943D01*
X140136477Y-119581562D01*
X140041239Y-119629181D01*
X139803143Y-119629181D01*
X139707905Y-119581562D01*
X139660286Y-119533943D01*
D10*
X140946200Y-115028629D02*
X140746200Y-114742914D01*
X140603343Y-115028629D02*
X140603343Y-114428629D01*
X140831915Y-114428629D01*
X140889057Y-114457200D01*
X140917629Y-114485771D01*
X140946200Y-114542914D01*
X140946200Y-114628629D01*
X140917629Y-114685771D01*
X140889057Y-114714343D01*
X140831915Y-114742914D01*
X140603343Y-114742914D01*
X141146200Y-114428629D02*
X141517629Y-114428629D01*
X141317629Y-114657200D01*
X141403343Y-114657200D01*
X141460486Y-114685771D01*
X141489057Y-114714343D01*
X141517629Y-114771486D01*
X141517629Y-114914343D01*
X141489057Y-114971486D01*
X141460486Y-115000057D01*
X141403343Y-115028629D01*
X141231915Y-115028629D01*
X141174772Y-115000057D01*
X141146200Y-114971486D01*
D12*
X133050000Y-140616667D02*
X132816666Y-140283333D01*
X132650000Y-140616667D02*
X132650000Y-139916667D01*
X132916666Y-139916667D01*
X132983333Y-139950000D01*
X133016666Y-139983333D01*
X133050000Y-140050000D01*
X133050000Y-140150000D01*
X133016666Y-140216667D01*
X132983333Y-140250000D01*
X132916666Y-140283333D01*
X132650000Y-140283333D01*
X133716666Y-140616667D02*
X133316666Y-140616667D01*
X133516666Y-140616667D02*
X133516666Y-139916667D01*
X133450000Y-140016667D01*
X133383333Y-140083333D01*
X133316666Y-140116667D01*
X134316667Y-139916667D02*
X134183333Y-139916667D01*
X134116667Y-139950000D01*
X134083333Y-139983333D01*
X134016667Y-140083333D01*
X133983333Y-140216667D01*
X133983333Y-140483333D01*
X134016667Y-140550000D01*
X134050000Y-140583333D01*
X134116667Y-140616667D01*
X134250000Y-140616667D01*
X134316667Y-140583333D01*
X134350000Y-140550000D01*
X134383333Y-140483333D01*
X134383333Y-140316667D01*
X134350000Y-140250000D01*
X134316667Y-140216667D01*
X134250000Y-140183333D01*
X134116667Y-140183333D01*
X134050000Y-140216667D01*
X134016667Y-140250000D01*
X133983333Y-140316667D01*
X161224934Y-143098781D02*
X160891600Y-142622590D01*
X160653505Y-143098781D02*
X160653505Y-142098781D01*
X161034458Y-142098781D01*
X161129696Y-142146400D01*
X161177315Y-142194019D01*
X161224934Y-142289257D01*
X161224934Y-142432114D01*
X161177315Y-142527352D01*
X161129696Y-142574971D01*
X161034458Y-142622590D01*
X160653505Y-142622590D01*
X161605886Y-142194019D02*
X161653505Y-142146400D01*
X161748743Y-142098781D01*
X161986839Y-142098781D01*
X162082077Y-142146400D01*
X162129696Y-142194019D01*
X162177315Y-142289257D01*
X162177315Y-142384495D01*
X162129696Y-142527352D01*
X161558267Y-143098781D01*
X162177315Y-143098781D01*
X138931714Y-138664905D02*
X138665047Y-138283952D01*
X138474571Y-138664905D02*
X138474571Y-137864905D01*
X138779333Y-137864905D01*
X138855524Y-137903000D01*
X138893619Y-137941095D01*
X138931714Y-138017286D01*
X138931714Y-138131571D01*
X138893619Y-138207762D01*
X138855524Y-138245857D01*
X138779333Y-138283952D01*
X138474571Y-138283952D01*
X139693619Y-138664905D02*
X139236476Y-138664905D01*
X139465047Y-138664905D02*
X139465047Y-137864905D01*
X139388857Y-137979190D01*
X139312666Y-138055381D01*
X139236476Y-138093476D01*
X140417429Y-137864905D02*
X140036476Y-137864905D01*
X139998381Y-138245857D01*
X140036476Y-138207762D01*
X140112667Y-138169667D01*
X140303143Y-138169667D01*
X140379333Y-138207762D01*
X140417429Y-138245857D01*
X140455524Y-138322048D01*
X140455524Y-138512524D01*
X140417429Y-138588714D01*
X140379333Y-138626810D01*
X140303143Y-138664905D01*
X140112667Y-138664905D01*
X140036476Y-138626810D01*
X139998381Y-138588714D01*
X167592581Y-100820457D02*
X167116390Y-101153791D01*
X167592581Y-101391886D02*
X166592581Y-101391886D01*
X166592581Y-101010933D01*
X166640200Y-100915695D01*
X166687819Y-100868076D01*
X166783057Y-100820457D01*
X166925914Y-100820457D01*
X167021152Y-100868076D01*
X167068771Y-100915695D01*
X167116390Y-101010933D01*
X167116390Y-101391886D01*
X167592581Y-99868076D02*
X167592581Y-100439505D01*
X167592581Y-100153791D02*
X166592581Y-100153791D01*
X166735438Y-100249029D01*
X166830676Y-100344267D01*
X166878295Y-100439505D01*
X167021152Y-99296648D02*
X166973533Y-99391886D01*
X166925914Y-99439505D01*
X166830676Y-99487124D01*
X166783057Y-99487124D01*
X166687819Y-99439505D01*
X166640200Y-99391886D01*
X166592581Y-99296648D01*
X166592581Y-99106171D01*
X166640200Y-99010933D01*
X166687819Y-98963314D01*
X166783057Y-98915695D01*
X166830676Y-98915695D01*
X166925914Y-98963314D01*
X166973533Y-99010933D01*
X167021152Y-99106171D01*
X167021152Y-99296648D01*
X167068771Y-99391886D01*
X167116390Y-99439505D01*
X167211629Y-99487124D01*
X167402105Y-99487124D01*
X167497343Y-99439505D01*
X167544962Y-99391886D01*
X167592581Y-99296648D01*
X167592581Y-99106171D01*
X167544962Y-99010933D01*
X167497343Y-98963314D01*
X167402105Y-98915695D01*
X167211629Y-98915695D01*
X167116390Y-98963314D01*
X167068771Y-99010933D01*
X167021152Y-99106171D01*
X167568714Y-96540581D02*
X167568714Y-95540581D01*
X167806809Y-95540581D01*
X167949667Y-95588200D01*
X168044905Y-95683438D01*
X168092524Y-95778676D01*
X168140143Y-95969152D01*
X168140143Y-96112010D01*
X168092524Y-96302486D01*
X168044905Y-96397724D01*
X167949667Y-96492962D01*
X167806809Y-96540581D01*
X167568714Y-96540581D01*
X169092524Y-96540581D02*
X168521095Y-96540581D01*
X168806809Y-96540581D02*
X168806809Y-95540581D01*
X168711571Y-95683438D01*
X168616333Y-95778676D01*
X168521095Y-95826295D01*
X169425857Y-95540581D02*
X170044905Y-95540581D01*
X169711571Y-95921533D01*
X169854429Y-95921533D01*
X169949667Y-95969152D01*
X169997286Y-96016771D01*
X170044905Y-96112010D01*
X170044905Y-96350105D01*
X169997286Y-96445343D01*
X169949667Y-96492962D01*
X169854429Y-96540581D01*
X169568714Y-96540581D01*
X169473476Y-96492962D01*
X169425857Y-96445343D01*
X156252943Y-136774181D02*
X155919609Y-136297990D01*
X155681514Y-136774181D02*
X155681514Y-135774181D01*
X156062467Y-135774181D01*
X156157705Y-135821800D01*
X156205324Y-135869419D01*
X156252943Y-135964657D01*
X156252943Y-136107514D01*
X156205324Y-136202752D01*
X156157705Y-136250371D01*
X156062467Y-136297990D01*
X155681514Y-136297990D01*
X157205324Y-136774181D02*
X156633895Y-136774181D01*
X156919609Y-136774181D02*
X156919609Y-135774181D01*
X156824371Y-135917038D01*
X156729133Y-136012276D01*
X156633895Y-136059895D01*
X157538657Y-135774181D02*
X158205324Y-135774181D01*
X157776752Y-136774181D01*
M02*
