M48
;DRILL file {KiCad 4.0.2+dfsg1-stable} date Fr 09 Jun 2017 15:08:51 CEST
;FORMAT={-:-/ absolute / metric / decimal}
FMAT,2
METRIC,TZ
T1C0.400
T2C0.700
T3C0.701
T4C0.762
T5C0.800
T6C1.001
T7C1.016
T8C1.200
T9C1.300
T10C3.100
%
G90
G05
M71
T1
X127.508Y-119.532
X134.163Y-118.72
X137.033Y-133.274
X137.211Y-113.944
X137.211Y-118.72
X137.668Y-133.858
X138.026Y-113.795
X144.39Y-128.581
X144.526Y-140.462
X144.925Y-127.905
X146.101Y-118.669
X146.101Y-120.498
X147.223Y-135.89
X148.082Y-125.84
X149.352Y-126.619
X150.673Y-135.331
X156.292Y-134.691
X158.674Y-135.746
X161.798Y-109.22
X163.246Y-96.088
X168.351Y-108.509
T2
X123.985Y-121.869
X128.303Y-127.838
X134.379Y-112.057
X134.379Y-110.185
X138.684Y-127.508
X153.254Y-137.557
X155.55Y-119.99
X157.632Y-126.848
X159.156Y-126.695
X164.643Y-118.313
T3
X122.73Y-135.128
X124.729Y-135.128
X126.731Y-135.128
X128.732Y-135.128
X133.017Y-135.128
X135.016Y-135.128
X137.018Y-135.128
X139.019Y-135.128
T4
X129.489Y-142.291
X132.029Y-142.494
X134.569Y-142.291
X137.109Y-142.494
X139.649Y-142.291
X142.189Y-142.494
T5
X160.434Y-128.092
X160.434Y-135.712
X162.974Y-128.092
X162.974Y-135.712
X165.514Y-128.092
X165.514Y-135.712
X168.054Y-128.092
X168.054Y-135.712
T6
X144.714Y-136.093
X144.714Y-142.596
X149.215Y-136.093
X149.215Y-142.596
T7
X129.954Y-106.121
X129.954Y-108.661
X129.954Y-111.201
X132.494Y-106.121
X132.494Y-108.661
X132.494Y-111.201
X134.72Y-130.5
X137.26Y-130.5
X139.8Y-130.5
X151.43Y-139.45
X151.43Y-141.99
X153.97Y-139.45
X153.97Y-141.99
X156.51Y-139.45
X156.51Y-141.99
X159.05Y-139.45
X159.05Y-141.99
T8
X166.7Y-120.85
X166.7Y-124.35
T9
X143.33Y-108.45
X148.41Y-108.45
X153.49Y-108.45
X158.57Y-108.45
T10
X125.45Y-100.35
X125.45Y-140.35
X165.45Y-100.35
X165.45Y-140.35
T0
M30
