G04 #@! TF.GenerationSoftware,KiCad,Pcbnew,6.0.11-2627ca5db0~126~ubuntu22.04.1*
G04 #@! TF.CreationDate,2023-02-26T13:01:28+01:00*
G04 #@! TF.ProjectId,mini-adapter,6d696e69-2d61-4646-9170-7465722e6b69,rev?*
G04 #@! TF.SameCoordinates,Original*
G04 #@! TF.FileFunction,Soldermask,Bot*
G04 #@! TF.FilePolarity,Negative*
%FSLAX46Y46*%
G04 Gerber Fmt 4.6, Leading zero omitted, Abs format (unit mm)*
G04 Created by KiCad (PCBNEW 6.0.11-2627ca5db0~126~ubuntu22.04.1) date 2023-02-26 13:01:28*
%MOMM*%
%LPD*%
G01*
G04 APERTURE LIST*
G04 Aperture macros list*
%AMRoundRect*
0 Rectangle with rounded corners*
0 $1 Rounding radius*
0 $2 $3 $4 $5 $6 $7 $8 $9 X,Y pos of 4 corners*
0 Add a 4 corners polygon primitive as box body*
4,1,4,$2,$3,$4,$5,$6,$7,$8,$9,$2,$3,0*
0 Add four circle primitives for the rounded corners*
1,1,$1+$1,$2,$3*
1,1,$1+$1,$4,$5*
1,1,$1+$1,$6,$7*
1,1,$1+$1,$8,$9*
0 Add four rect primitives between the rounded corners*
20,1,$1+$1,$2,$3,$4,$5,0*
20,1,$1+$1,$4,$5,$6,$7,0*
20,1,$1+$1,$6,$7,$8,$9,0*
20,1,$1+$1,$8,$9,$2,$3,0*%
G04 Aperture macros list end*
%ADD10C,1.400000*%
%ADD11O,1.400000X1.400000*%
%ADD12C,2.500000*%
%ADD13O,2.500000X4.000000*%
%ADD14R,1.700000X1.700000*%
%ADD15O,1.700000X1.700000*%
%ADD16C,3.200000*%
%ADD17RoundRect,0.250000X-0.350000X-0.625000X0.350000X-0.625000X0.350000X0.625000X-0.350000X0.625000X0*%
%ADD18O,1.200000X1.750000*%
%ADD19R,1.800000X1.800000*%
%ADD20C,1.800000*%
%ADD21C,1.500000*%
%ADD22C,3.500000*%
%ADD23C,1.200000*%
G04 APERTURE END LIST*
D10*
X142875000Y-97790000D03*
D11*
X142875000Y-105410000D03*
D10*
X131445000Y-88342000D03*
X130175000Y-90882000D03*
X128905000Y-88342000D03*
X127635000Y-90882000D03*
X126365000Y-88342000D03*
X125095000Y-90882000D03*
X123825000Y-88342000D03*
X122555000Y-90882000D03*
D12*
X134750000Y-85052000D03*
D13*
X134750000Y-78335200D03*
D12*
X119250000Y-85052000D03*
D13*
X119250000Y-78335200D03*
D14*
X114808000Y-111247000D03*
D15*
X114808000Y-113787000D03*
D16*
X114500000Y-78500000D03*
D10*
X135255000Y-108204000D03*
D11*
X142875000Y-108204000D03*
D16*
X114500000Y-121500000D03*
D17*
X124587000Y-102489000D03*
D18*
X126587000Y-102489000D03*
X128587000Y-102489000D03*
X130587000Y-102489000D03*
D16*
X157500000Y-78500000D03*
D19*
X145725000Y-108170000D03*
D20*
X148265000Y-108170000D03*
D16*
X157500000Y-121500000D03*
D14*
X137922000Y-101351000D03*
D15*
X137922000Y-98811000D03*
D14*
X114808000Y-95123000D03*
D15*
X114808000Y-97663000D03*
X114808000Y-100203000D03*
X114808000Y-102743000D03*
X114808000Y-105283000D03*
D21*
X146550000Y-118000000D03*
X143950000Y-118000000D03*
X148650000Y-118000000D03*
X141850000Y-118000000D03*
X148650000Y-115500000D03*
X144350000Y-115500000D03*
X141850000Y-115500000D03*
D22*
X138500000Y-121000000D03*
X145250000Y-121800000D03*
X152000000Y-121000000D03*
D21*
X129550000Y-118000000D03*
X127550000Y-118000000D03*
X125550000Y-118000000D03*
X131200000Y-118000000D03*
X129250000Y-115500000D03*
X127250000Y-115500000D03*
X123300000Y-118000000D03*
X131200000Y-115500000D03*
X125250000Y-115500000D03*
X123300000Y-115500000D03*
D22*
X120000000Y-121000000D03*
X127250000Y-121800000D03*
X134500000Y-121000000D03*
D10*
X149427000Y-88342000D03*
X148157000Y-90882000D03*
X146887000Y-88342000D03*
X145617000Y-90882000D03*
X144347000Y-88342000D03*
X143077000Y-90882000D03*
X141807000Y-88342000D03*
X140537000Y-90882000D03*
D13*
X152732000Y-78335200D03*
X137232000Y-78335200D03*
D12*
X137232000Y-85052000D03*
X152732000Y-85052000D03*
D23*
X147610000Y-100515000D03*
X149110000Y-100515000D03*
X150610000Y-100515000D03*
X152110000Y-100515000D03*
D14*
X114808000Y-90302000D03*
D15*
X114808000Y-87762000D03*
M02*
