G04 #@! TF.GenerationSoftware,KiCad,Pcbnew,6.0.11-2627ca5db0~126~ubuntu22.04.1*
G04 #@! TF.CreationDate,2023-02-12T13:28:32+01:00*
G04 #@! TF.ProjectId,mini-adapter,6d696e69-2d61-4646-9170-7465722e6b69,rev?*
G04 #@! TF.SameCoordinates,Original*
G04 #@! TF.FileFunction,Copper,L2,Bot*
G04 #@! TF.FilePolarity,Positive*
%FSLAX46Y46*%
G04 Gerber Fmt 4.6, Leading zero omitted, Abs format (unit mm)*
G04 Created by KiCad (PCBNEW 6.0.11-2627ca5db0~126~ubuntu22.04.1) date 2023-02-12 13:28:32*
%MOMM*%
%LPD*%
G01*
G04 APERTURE LIST*
G04 #@! TA.AperFunction,ComponentPad*
%ADD10C,1.400000*%
G04 #@! TD*
G04 #@! TA.AperFunction,ComponentPad*
%ADD11C,2.500000*%
G04 #@! TD*
G04 #@! TA.AperFunction,ComponentPad*
%ADD12O,2.500000X4.000000*%
G04 #@! TD*
G04 #@! TA.AperFunction,ComponentPad*
%ADD13O,1.400000X1.400000*%
G04 #@! TD*
G04 #@! TA.AperFunction,ComponentPad*
%ADD14R,1.800000X1.800000*%
G04 #@! TD*
G04 #@! TA.AperFunction,ComponentPad*
%ADD15C,1.800000*%
G04 #@! TD*
G04 #@! TA.AperFunction,ComponentPad*
%ADD16R,1.700000X1.700000*%
G04 #@! TD*
G04 #@! TA.AperFunction,ComponentPad*
%ADD17O,1.700000X1.700000*%
G04 #@! TD*
G04 #@! TA.AperFunction,ComponentPad*
%ADD18C,1.500000*%
G04 #@! TD*
G04 #@! TA.AperFunction,ComponentPad*
%ADD19C,3.500000*%
G04 #@! TD*
G04 #@! TA.AperFunction,ComponentPad*
%ADD20C,1.200000*%
G04 #@! TD*
G04 #@! TA.AperFunction,ComponentPad*
%ADD21C,1.524000*%
G04 #@! TD*
G04 #@! TA.AperFunction,ViaPad*
%ADD22C,0.800000*%
G04 #@! TD*
G04 #@! TA.AperFunction,ViaPad*
%ADD23C,1.000000*%
G04 #@! TD*
G04 #@! TA.AperFunction,Conductor*
%ADD24C,0.250000*%
G04 #@! TD*
G04 #@! TA.AperFunction,Conductor*
%ADD25C,0.500000*%
G04 #@! TD*
G04 APERTURE END LIST*
D10*
X131445000Y-88342000D03*
X130175000Y-90882000D03*
X128905000Y-88342000D03*
X127635000Y-90882000D03*
X126365000Y-88342000D03*
X125095000Y-90882000D03*
X123825000Y-88342000D03*
X122555000Y-90882000D03*
D11*
X134750000Y-85052000D03*
D12*
X134750000Y-78335200D03*
D11*
X119250000Y-85052000D03*
D12*
X119250000Y-78335200D03*
D10*
X134060000Y-108200000D03*
D13*
X139140000Y-108200000D03*
D14*
X141725000Y-108170000D03*
D15*
X144265000Y-108170000D03*
D16*
X138000000Y-98737500D03*
D17*
X138000000Y-101277500D03*
D16*
X114500000Y-102380000D03*
D17*
X114500000Y-104920000D03*
X114500000Y-107460000D03*
X114500000Y-110000000D03*
X114500000Y-112540000D03*
D18*
X146550000Y-118000000D03*
X143950000Y-118000000D03*
X148650000Y-118000000D03*
X141850000Y-118000000D03*
X148650000Y-115500000D03*
X144350000Y-115500000D03*
X141850000Y-115500000D03*
D19*
X138500000Y-121000000D03*
X145250000Y-121800000D03*
X152000000Y-121000000D03*
D18*
X129550000Y-118000000D03*
X127550000Y-118000000D03*
X125550000Y-118000000D03*
X131200000Y-118000000D03*
X129250000Y-115500000D03*
X127250000Y-115500000D03*
X123300000Y-118000000D03*
X131200000Y-115500000D03*
X125250000Y-115500000D03*
X123300000Y-115500000D03*
D19*
X120000000Y-121000000D03*
X127250000Y-121800000D03*
X134500000Y-121000000D03*
D10*
X149427000Y-88342000D03*
X148157000Y-90882000D03*
X146887000Y-88342000D03*
X145617000Y-90882000D03*
X144347000Y-88342000D03*
X143077000Y-90882000D03*
X141807000Y-88342000D03*
X140537000Y-90882000D03*
D12*
X152732000Y-78335200D03*
X137232000Y-78335200D03*
D11*
X137232000Y-85052000D03*
X152732000Y-85052000D03*
D20*
X147610000Y-104140000D03*
X149110000Y-104140000D03*
X150610000Y-104140000D03*
X152110000Y-104140000D03*
D10*
X142310000Y-103340000D03*
D13*
X142310000Y-98260000D03*
D21*
X124610000Y-102495000D03*
X126610000Y-102495000D03*
X128610000Y-102495000D03*
X130610000Y-102495000D03*
D16*
X114600000Y-96200000D03*
D17*
X114600000Y-93660000D03*
D22*
X141800000Y-94200000D03*
D23*
X125400000Y-96200000D03*
X143400000Y-96200000D03*
X120800000Y-102400000D03*
X129230000Y-110370000D03*
D22*
X150600000Y-116200000D03*
X152400000Y-90400000D03*
X135600000Y-94200000D03*
X128600000Y-94200000D03*
X122600000Y-95200000D03*
X132400000Y-111219500D03*
X140400000Y-95200000D03*
X130600000Y-95200000D03*
X140002325Y-111219500D03*
X120800000Y-110400000D03*
X140400000Y-78400000D03*
X148800000Y-78400000D03*
D24*
X131445000Y-88342000D02*
X132987000Y-86800000D01*
X149427000Y-87427000D02*
X149427000Y-88342000D01*
X132987000Y-86800000D02*
X148800000Y-86800000D01*
X148800000Y-86800000D02*
X149427000Y-87427000D01*
X141807000Y-88342000D02*
X141807000Y-94193000D01*
X141807000Y-94193000D02*
X141800000Y-94200000D01*
X141725000Y-108170000D02*
X139170000Y-108170000D01*
X139170000Y-108170000D02*
X139140000Y-108200000D01*
D25*
X129250000Y-110390000D02*
X129230000Y-110370000D01*
X125095000Y-90882000D02*
X125095000Y-95895000D01*
X144265000Y-108170000D02*
X147610000Y-104825000D01*
X129250000Y-115500000D02*
X129250000Y-110390000D01*
X129550000Y-115800000D02*
X129250000Y-115500000D01*
X125095000Y-95895000D02*
X125400000Y-96200000D01*
X143077000Y-95877000D02*
X143400000Y-96200000D01*
X147610000Y-104825000D02*
X147610000Y-104140000D01*
X114500000Y-102380000D02*
X120780000Y-102380000D01*
X143077000Y-90882000D02*
X143077000Y-95877000D01*
X120780000Y-102380000D02*
X120800000Y-102400000D01*
X129550000Y-118000000D02*
X129550000Y-115800000D01*
D24*
X149725000Y-116575000D02*
X149725000Y-121875000D01*
X148650000Y-115500000D02*
X149725000Y-116575000D01*
X147275499Y-124324501D02*
X124524501Y-124324501D01*
X155600000Y-108550000D02*
X155600000Y-95504949D01*
X123300000Y-123100000D02*
X123300000Y-118000000D01*
X149725000Y-121875000D02*
X147275499Y-124324501D01*
X149427000Y-89331949D02*
X149427000Y-88342000D01*
X148650000Y-115500000D02*
X155600000Y-108550000D01*
X124524501Y-124324501D02*
X123300000Y-123100000D01*
X155600000Y-95504949D02*
X149427000Y-89331949D01*
X146109494Y-123875000D02*
X126390506Y-123875000D01*
X156400000Y-93200000D02*
X153600000Y-90400000D01*
X148650000Y-118000000D02*
X148650000Y-121334494D01*
X124475000Y-116275000D02*
X125250000Y-115500000D01*
X126390506Y-123875000D02*
X124475000Y-121959494D01*
X124475000Y-116725000D02*
X124475000Y-116275000D01*
X124475000Y-121959494D02*
X124475000Y-116725000D01*
X124475000Y-116675000D02*
X123300000Y-115500000D01*
X124475000Y-116725000D02*
X124475000Y-116675000D01*
X156400000Y-110400000D02*
X156400000Y-93200000D01*
X150600000Y-116200000D02*
X156400000Y-110400000D01*
X148650000Y-121334494D02*
X146109494Y-123875000D01*
X153600000Y-90400000D02*
X152400000Y-90400000D01*
X135600000Y-100800000D02*
X135600000Y-94200000D01*
X128610000Y-94210000D02*
X128600000Y-94200000D01*
X138000000Y-101277500D02*
X136077500Y-101277500D01*
X128610000Y-102495000D02*
X128610000Y-94210000D01*
X136077500Y-101277500D02*
X135600000Y-100800000D01*
X149110000Y-104140000D02*
X147610000Y-102640000D01*
X122555000Y-95155000D02*
X122600000Y-95200000D01*
X122555000Y-90882000D02*
X122555000Y-95155000D01*
X147610000Y-102640000D02*
X143010000Y-102640000D01*
X140002325Y-116152325D02*
X140002325Y-111219500D01*
X114500000Y-112540000D02*
X118660000Y-112540000D01*
X130610000Y-102495000D02*
X130610000Y-95210000D01*
X140537000Y-95063000D02*
X140400000Y-95200000D01*
X140537000Y-90882000D02*
X140537000Y-95063000D01*
X131200000Y-118000000D02*
X132400000Y-116800000D01*
X143010000Y-102640000D02*
X142310000Y-103340000D01*
X130610000Y-95210000D02*
X130600000Y-95200000D01*
X141850000Y-118000000D02*
X140002325Y-116152325D01*
X118660000Y-112540000D02*
X120800000Y-110400000D01*
X132400000Y-116800000D02*
X132400000Y-111219500D01*
X126610000Y-102495000D02*
X117775000Y-93660000D01*
X117775000Y-93660000D02*
X114600000Y-93660000D01*
D25*
X112500499Y-105460499D02*
X112500499Y-98299501D01*
X114500000Y-107460000D02*
X112500499Y-105460499D01*
X112500499Y-98299501D02*
X114600000Y-96200000D01*
D24*
X138477500Y-98260000D02*
X138000000Y-98737500D01*
X142310000Y-98260000D02*
X138477500Y-98260000D01*
X140400000Y-78400000D02*
X148800000Y-78400000D01*
X134750000Y-78335200D02*
X119250000Y-78335200D01*
G04 #@! TA.AperFunction,Conductor*
G36*
X158044339Y-75528502D02*
G01*
X158090832Y-75582158D01*
X158100936Y-75652432D01*
X158078174Y-75701542D01*
X158081491Y-75703721D01*
X158076564Y-75711222D01*
X158070621Y-75717951D01*
X158008718Y-75849800D01*
X158007338Y-75858665D01*
X158007337Y-75858667D01*
X157993089Y-75950175D01*
X157986308Y-75993724D01*
X157987472Y-76002626D01*
X157987472Y-76002629D01*
X157992478Y-76040911D01*
X158005194Y-76138152D01*
X158058282Y-76258803D01*
X158067410Y-76329209D01*
X158037023Y-76393374D01*
X157976770Y-76430925D01*
X157916112Y-76432656D01*
X157812925Y-76410158D01*
X157812920Y-76410157D01*
X157808736Y-76409245D01*
X157777685Y-76406801D01*
X157585718Y-76391693D01*
X157585709Y-76391693D01*
X157583261Y-76391500D01*
X157427729Y-76391500D01*
X157425593Y-76391646D01*
X157425582Y-76391646D01*
X157217452Y-76405835D01*
X157217446Y-76405836D01*
X157213175Y-76406127D01*
X157208980Y-76406996D01*
X157208978Y-76406996D01*
X157093429Y-76430925D01*
X156931658Y-76464426D01*
X156660657Y-76560393D01*
X156405188Y-76692250D01*
X156401687Y-76694711D01*
X156401683Y-76694713D01*
X156391594Y-76701804D01*
X156169977Y-76857559D01*
X155959378Y-77053260D01*
X155777287Y-77275732D01*
X155627073Y-77520858D01*
X155625347Y-77524791D01*
X155625346Y-77524792D01*
X155540861Y-77717255D01*
X155511517Y-77784102D01*
X155432756Y-78060594D01*
X155392249Y-78345216D01*
X155392227Y-78349505D01*
X155392226Y-78349512D01*
X155391001Y-78583365D01*
X155390743Y-78632703D01*
X155428268Y-78917734D01*
X155429401Y-78921874D01*
X155429401Y-78921876D01*
X155447683Y-78988702D01*
X155504129Y-79195036D01*
X155505813Y-79198984D01*
X155589828Y-79395952D01*
X155616923Y-79459476D01*
X155764561Y-79706161D01*
X155944313Y-79930528D01*
X155963174Y-79948426D01*
X156088378Y-80067240D01*
X156152851Y-80128423D01*
X156386317Y-80296186D01*
X156390112Y-80298195D01*
X156390113Y-80298196D01*
X156411869Y-80309715D01*
X156640392Y-80430712D01*
X156910373Y-80529511D01*
X157191264Y-80590755D01*
X157219841Y-80593004D01*
X157414282Y-80608307D01*
X157414291Y-80608307D01*
X157416739Y-80608500D01*
X157572271Y-80608500D01*
X157574407Y-80608354D01*
X157574418Y-80608354D01*
X157782548Y-80594165D01*
X157782554Y-80594164D01*
X157786825Y-80593873D01*
X157791020Y-80593004D01*
X157791022Y-80593004D01*
X157976898Y-80554511D01*
X158068342Y-80535574D01*
X158339343Y-80439607D01*
X158509527Y-80351769D01*
X158591005Y-80309715D01*
X158591006Y-80309715D01*
X158594812Y-80307750D01*
X158598313Y-80305289D01*
X158598317Y-80305287D01*
X158783299Y-80175279D01*
X158830023Y-80142441D01*
X158931226Y-80048397D01*
X159037479Y-79949661D01*
X159037481Y-79949658D01*
X159040622Y-79946740D01*
X159222713Y-79724268D01*
X159372927Y-79479142D01*
X159488483Y-79215898D01*
X159567244Y-78939406D01*
X159607751Y-78654784D01*
X159607845Y-78636951D01*
X159609235Y-78371583D01*
X159609235Y-78371576D01*
X159609257Y-78367297D01*
X159571732Y-78082266D01*
X159495871Y-77804964D01*
X159413890Y-77612763D01*
X159384763Y-77544476D01*
X159384761Y-77544472D01*
X159383077Y-77540524D01*
X159253818Y-77324548D01*
X159237643Y-77297521D01*
X159237640Y-77297517D01*
X159235439Y-77293839D01*
X159055687Y-77069472D01*
X158847149Y-76871577D01*
X158618899Y-76707562D01*
X158575251Y-76651568D01*
X158568805Y-76580864D01*
X158601608Y-76517900D01*
X158659282Y-76483677D01*
X158675006Y-76479390D01*
X158704027Y-76471478D01*
X158711677Y-76466781D01*
X158711679Y-76466780D01*
X158820502Y-76399963D01*
X158820505Y-76399960D01*
X158828154Y-76395264D01*
X158862696Y-76357103D01*
X158919879Y-76293927D01*
X158925901Y-76287274D01*
X158974883Y-76186176D01*
X158985498Y-76164268D01*
X158985499Y-76164266D01*
X158989411Y-76156191D01*
X158990900Y-76147341D01*
X159012771Y-76017344D01*
X159012771Y-76017341D01*
X159013577Y-76012552D01*
X159013730Y-76000000D01*
X159004479Y-75935404D01*
X158994354Y-75864699D01*
X158994353Y-75864696D01*
X158993081Y-75855813D01*
X158989367Y-75847644D01*
X158936510Y-75731391D01*
X158936508Y-75731388D01*
X158932793Y-75723217D01*
X158926932Y-75716415D01*
X158922097Y-75708855D01*
X158923293Y-75708090D01*
X158897905Y-75652085D01*
X158908204Y-75581839D01*
X158954846Y-75528313D01*
X159022672Y-75508500D01*
X159450633Y-75508500D01*
X159470018Y-75510000D01*
X159484851Y-75512310D01*
X159484855Y-75512310D01*
X159493724Y-75513691D01*
X159506397Y-75512034D01*
X159533707Y-75511449D01*
X159661194Y-75522603D01*
X159682817Y-75526415D01*
X159828466Y-75565442D01*
X159849104Y-75572954D01*
X159985760Y-75636678D01*
X160004780Y-75647660D01*
X160128297Y-75734147D01*
X160145122Y-75748265D01*
X160251735Y-75854878D01*
X160265853Y-75871703D01*
X160352340Y-75995220D01*
X160363322Y-76014240D01*
X160427046Y-76150896D01*
X160434557Y-76171534D01*
X160473583Y-76317178D01*
X160477398Y-76338809D01*
X160487947Y-76459393D01*
X160487393Y-76475871D01*
X160487800Y-76475876D01*
X160487690Y-76484853D01*
X160486309Y-76493724D01*
X160487473Y-76502626D01*
X160487473Y-76502628D01*
X160490436Y-76525283D01*
X160491500Y-76541621D01*
X160491500Y-123450633D01*
X160490000Y-123470018D01*
X160487690Y-123484851D01*
X160487690Y-123484855D01*
X160486309Y-123493724D01*
X160487966Y-123506397D01*
X160488551Y-123533707D01*
X160477398Y-123661191D01*
X160473585Y-123682817D01*
X160471478Y-123690680D01*
X160434558Y-123828466D01*
X160427046Y-123849104D01*
X160363322Y-123985760D01*
X160352340Y-124004780D01*
X160265853Y-124128297D01*
X160251735Y-124145122D01*
X160145122Y-124251735D01*
X160128297Y-124265853D01*
X160004780Y-124352340D01*
X159985760Y-124363322D01*
X159849104Y-124427046D01*
X159828466Y-124434557D01*
X159682822Y-124473583D01*
X159661194Y-124477397D01*
X159604659Y-124482344D01*
X159540607Y-124487947D01*
X159524129Y-124487393D01*
X159524124Y-124487800D01*
X159515147Y-124487690D01*
X159506276Y-124486309D01*
X159497374Y-124487473D01*
X159497372Y-124487473D01*
X159483548Y-124489281D01*
X159474714Y-124490436D01*
X159458379Y-124491500D01*
X148308594Y-124491500D01*
X148240473Y-124471498D01*
X148193980Y-124417842D01*
X148183876Y-124347568D01*
X148213370Y-124282988D01*
X148219499Y-124276405D01*
X149727048Y-122768856D01*
X150596601Y-122768856D01*
X150603059Y-122778216D01*
X150619361Y-122792512D01*
X150625901Y-122797530D01*
X150865144Y-122957387D01*
X150872281Y-122961508D01*
X151130349Y-123088772D01*
X151137953Y-123091922D01*
X151410420Y-123184412D01*
X151418383Y-123186546D01*
X151700600Y-123242683D01*
X151708751Y-123243756D01*
X151995881Y-123262575D01*
X152004119Y-123262575D01*
X152291249Y-123243756D01*
X152299400Y-123242683D01*
X152581617Y-123186546D01*
X152589580Y-123184412D01*
X152862047Y-123091922D01*
X152869651Y-123088772D01*
X153127719Y-122961508D01*
X153134856Y-122957387D01*
X153374099Y-122797530D01*
X153380639Y-122792512D01*
X153395074Y-122779853D01*
X153403472Y-122766614D01*
X153397638Y-122756849D01*
X152012810Y-121372020D01*
X151998869Y-121364408D01*
X151997034Y-121364539D01*
X151990420Y-121368790D01*
X150604116Y-122755095D01*
X150596601Y-122768856D01*
X149727048Y-122768856D01*
X150075776Y-122420128D01*
X150138088Y-122386102D01*
X150208903Y-122391167D01*
X150232360Y-122402821D01*
X150233386Y-122403472D01*
X150243151Y-122397638D01*
X151639659Y-121001131D01*
X152364408Y-121001131D01*
X152364539Y-121002966D01*
X152368790Y-121009580D01*
X153755095Y-122395884D01*
X153768856Y-122403399D01*
X153778216Y-122396941D01*
X153792512Y-122380639D01*
X153797530Y-122374099D01*
X153957387Y-122134855D01*
X153961508Y-122127718D01*
X154088772Y-121869651D01*
X154091922Y-121862047D01*
X154169774Y-121632703D01*
X155390743Y-121632703D01*
X155391302Y-121636947D01*
X155391302Y-121636951D01*
X155407810Y-121762340D01*
X155428268Y-121917734D01*
X155504129Y-122195036D01*
X155505813Y-122198984D01*
X155600140Y-122420128D01*
X155616923Y-122459476D01*
X155764561Y-122706161D01*
X155944313Y-122930528D01*
X156039896Y-123021233D01*
X156143183Y-123119248D01*
X156152851Y-123128423D01*
X156386317Y-123296186D01*
X156390112Y-123298195D01*
X156390113Y-123298196D01*
X156411869Y-123309715D01*
X156640392Y-123430712D01*
X156694829Y-123450633D01*
X156884449Y-123520024D01*
X156910373Y-123529511D01*
X157191264Y-123590755D01*
X157219841Y-123593004D01*
X157414282Y-123608307D01*
X157414291Y-123608307D01*
X157416739Y-123608500D01*
X157572271Y-123608500D01*
X157574407Y-123608354D01*
X157574418Y-123608354D01*
X157782548Y-123594165D01*
X157782554Y-123594164D01*
X157786825Y-123593873D01*
X157791020Y-123593004D01*
X157791022Y-123593004D01*
X157953058Y-123559448D01*
X158068342Y-123535574D01*
X158339343Y-123439607D01*
X158594812Y-123307750D01*
X158598313Y-123305289D01*
X158598317Y-123305287D01*
X158793881Y-123167842D01*
X158830023Y-123142441D01*
X159024730Y-122961508D01*
X159037479Y-122949661D01*
X159037481Y-122949658D01*
X159040622Y-122946740D01*
X159222713Y-122724268D01*
X159372927Y-122479142D01*
X159415738Y-122381617D01*
X159486757Y-122219830D01*
X159488483Y-122215898D01*
X159567244Y-121939406D01*
X159607751Y-121654784D01*
X159607845Y-121636951D01*
X159609235Y-121371583D01*
X159609235Y-121371576D01*
X159609257Y-121367297D01*
X159606835Y-121348896D01*
X159575251Y-121108995D01*
X159571732Y-121082266D01*
X159495871Y-120804964D01*
X159425871Y-120640852D01*
X159384763Y-120544476D01*
X159384761Y-120544472D01*
X159383077Y-120540524D01*
X159235439Y-120293839D01*
X159055687Y-120069472D01*
X158847149Y-119871577D01*
X158613683Y-119703814D01*
X158591843Y-119692250D01*
X158447053Y-119615588D01*
X158359608Y-119569288D01*
X158089627Y-119470489D01*
X157808736Y-119409245D01*
X157777685Y-119406801D01*
X157585718Y-119391693D01*
X157585709Y-119391693D01*
X157583261Y-119391500D01*
X157427729Y-119391500D01*
X157425593Y-119391646D01*
X157425582Y-119391646D01*
X157217452Y-119405835D01*
X157217446Y-119405836D01*
X157213175Y-119406127D01*
X157208980Y-119406996D01*
X157208978Y-119406996D01*
X157072416Y-119435277D01*
X156931658Y-119464426D01*
X156660657Y-119560393D01*
X156405188Y-119692250D01*
X156401687Y-119694711D01*
X156401683Y-119694713D01*
X156391594Y-119701804D01*
X156169977Y-119857559D01*
X156154892Y-119871577D01*
X155970257Y-120043151D01*
X155959378Y-120053260D01*
X155777287Y-120275732D01*
X155627073Y-120520858D01*
X155625347Y-120524791D01*
X155625346Y-120524792D01*
X155548172Y-120700600D01*
X155511517Y-120784102D01*
X155432756Y-121060594D01*
X155429672Y-121082266D01*
X155399930Y-121291249D01*
X155392249Y-121345216D01*
X155392227Y-121349505D01*
X155392226Y-121349512D01*
X155390765Y-121628417D01*
X155390743Y-121632703D01*
X154169774Y-121632703D01*
X154184412Y-121589580D01*
X154186546Y-121581617D01*
X154242683Y-121299400D01*
X154243756Y-121291249D01*
X154262575Y-121004119D01*
X154262575Y-120995881D01*
X154243756Y-120708751D01*
X154242683Y-120700600D01*
X154186546Y-120418383D01*
X154184412Y-120410420D01*
X154091922Y-120137953D01*
X154088772Y-120130349D01*
X153961508Y-119872282D01*
X153957387Y-119865145D01*
X153797530Y-119625901D01*
X153792512Y-119619361D01*
X153779853Y-119604926D01*
X153766614Y-119596528D01*
X153756849Y-119602362D01*
X152372020Y-120987190D01*
X152364408Y-121001131D01*
X151639659Y-121001131D01*
X152000000Y-120640790D01*
X153395886Y-119244903D01*
X153403399Y-119231145D01*
X153396940Y-119221783D01*
X153380639Y-119207488D01*
X153374099Y-119202470D01*
X153134856Y-119042613D01*
X153127719Y-119038492D01*
X152869651Y-118911228D01*
X152862047Y-118908078D01*
X152589580Y-118815588D01*
X152581617Y-118813454D01*
X152299400Y-118757317D01*
X152291249Y-118756244D01*
X152004119Y-118737425D01*
X151995881Y-118737425D01*
X151708751Y-118756244D01*
X151700600Y-118757317D01*
X151418383Y-118813454D01*
X151410420Y-118815588D01*
X151137953Y-118908078D01*
X151130349Y-118911228D01*
X150872282Y-119038492D01*
X150865145Y-119042613D01*
X150625898Y-119202472D01*
X150619358Y-119207489D01*
X150567578Y-119252900D01*
X150503174Y-119282777D01*
X150432841Y-119273092D01*
X150378910Y-119226920D01*
X150358500Y-119158169D01*
X150358500Y-117232397D01*
X150378502Y-117164276D01*
X150432158Y-117117783D01*
X150497668Y-117107087D01*
X150498058Y-117107128D01*
X150504513Y-117108500D01*
X150695487Y-117108500D01*
X150701939Y-117107128D01*
X150701944Y-117107128D01*
X150788887Y-117088647D01*
X150882288Y-117068794D01*
X150935252Y-117045213D01*
X151050722Y-116993803D01*
X151050724Y-116993802D01*
X151056752Y-116991118D01*
X151083413Y-116971748D01*
X151152120Y-116921829D01*
X151211253Y-116878866D01*
X151237372Y-116849858D01*
X151334621Y-116741852D01*
X151334622Y-116741851D01*
X151339040Y-116736944D01*
X151423359Y-116590899D01*
X151431223Y-116577279D01*
X151431224Y-116577278D01*
X151434527Y-116571556D01*
X151493542Y-116389928D01*
X151496924Y-116357756D01*
X151505972Y-116271664D01*
X151510907Y-116224706D01*
X151537920Y-116159050D01*
X151547122Y-116148782D01*
X156792247Y-110903657D01*
X156800537Y-110896113D01*
X156807018Y-110892000D01*
X156853659Y-110842332D01*
X156856413Y-110839491D01*
X156876135Y-110819769D01*
X156878612Y-110816576D01*
X156886317Y-110807555D01*
X156911159Y-110781100D01*
X156916586Y-110775321D01*
X156922111Y-110765271D01*
X156926346Y-110757568D01*
X156937202Y-110741041D01*
X156944757Y-110731302D01*
X156944758Y-110731300D01*
X156949614Y-110725040D01*
X156967174Y-110684460D01*
X156972391Y-110673812D01*
X156989875Y-110642009D01*
X156989876Y-110642007D01*
X156993695Y-110635060D01*
X156998733Y-110615437D01*
X157005137Y-110596734D01*
X157010033Y-110585420D01*
X157010033Y-110585419D01*
X157013181Y-110578145D01*
X157014420Y-110570322D01*
X157014423Y-110570312D01*
X157020099Y-110534476D01*
X157022505Y-110522856D01*
X157031528Y-110487711D01*
X157031528Y-110487710D01*
X157033500Y-110480030D01*
X157033500Y-110459776D01*
X157035051Y-110440065D01*
X157036980Y-110427886D01*
X157038220Y-110420057D01*
X157034059Y-110376038D01*
X157033500Y-110364181D01*
X157033500Y-93278767D01*
X157034027Y-93267584D01*
X157035702Y-93260091D01*
X157033562Y-93192000D01*
X157033500Y-93188043D01*
X157033500Y-93160144D01*
X157032996Y-93156153D01*
X157032063Y-93144311D01*
X157031150Y-93115242D01*
X157030674Y-93100111D01*
X157028462Y-93092497D01*
X157028461Y-93092492D01*
X157025023Y-93080659D01*
X157021012Y-93061295D01*
X157021009Y-93061267D01*
X157018474Y-93041203D01*
X157015557Y-93033836D01*
X157015556Y-93033831D01*
X157002198Y-93000092D01*
X156998354Y-92988865D01*
X156988230Y-92954022D01*
X156986018Y-92946407D01*
X156975707Y-92928972D01*
X156967012Y-92911224D01*
X156959552Y-92892383D01*
X156933564Y-92856613D01*
X156927048Y-92846693D01*
X156908580Y-92815465D01*
X156908578Y-92815462D01*
X156904542Y-92808638D01*
X156890221Y-92794317D01*
X156877380Y-92779283D01*
X156870131Y-92769306D01*
X156865472Y-92762893D01*
X156831395Y-92734702D01*
X156822616Y-92726712D01*
X154103652Y-90007747D01*
X154096112Y-89999461D01*
X154092000Y-89992982D01*
X154042348Y-89946356D01*
X154039507Y-89943602D01*
X154019770Y-89923865D01*
X154016573Y-89921385D01*
X154007551Y-89913680D01*
X153981100Y-89888841D01*
X153975321Y-89883414D01*
X153968375Y-89879595D01*
X153968372Y-89879593D01*
X153957566Y-89873652D01*
X153941047Y-89862801D01*
X153935048Y-89858148D01*
X153925041Y-89850386D01*
X153917772Y-89847241D01*
X153917768Y-89847238D01*
X153884463Y-89832826D01*
X153873813Y-89827609D01*
X153835060Y-89806305D01*
X153815437Y-89801267D01*
X153796734Y-89794863D01*
X153785420Y-89789967D01*
X153785419Y-89789967D01*
X153778145Y-89786819D01*
X153770322Y-89785580D01*
X153770312Y-89785577D01*
X153734476Y-89779901D01*
X153722856Y-89777495D01*
X153687711Y-89768472D01*
X153687710Y-89768472D01*
X153680030Y-89766500D01*
X153659776Y-89766500D01*
X153640065Y-89764949D01*
X153627886Y-89763020D01*
X153620057Y-89761780D01*
X153612165Y-89762526D01*
X153576039Y-89765941D01*
X153564181Y-89766500D01*
X153108200Y-89766500D01*
X153040079Y-89746498D01*
X153020853Y-89730157D01*
X153020580Y-89730460D01*
X153015668Y-89726037D01*
X153011253Y-89721134D01*
X152975137Y-89694894D01*
X152862094Y-89612763D01*
X152862093Y-89612762D01*
X152856752Y-89608882D01*
X152850724Y-89606198D01*
X152850722Y-89606197D01*
X152688319Y-89533891D01*
X152688318Y-89533891D01*
X152682288Y-89531206D01*
X152588887Y-89511353D01*
X152501944Y-89492872D01*
X152501939Y-89492872D01*
X152495487Y-89491500D01*
X152304513Y-89491500D01*
X152298061Y-89492872D01*
X152298056Y-89492872D01*
X152211113Y-89511353D01*
X152117712Y-89531206D01*
X152111682Y-89533891D01*
X152111681Y-89533891D01*
X151949278Y-89606197D01*
X151949276Y-89606198D01*
X151943248Y-89608882D01*
X151937907Y-89612762D01*
X151937906Y-89612763D01*
X151889968Y-89647592D01*
X151788747Y-89721134D01*
X151784326Y-89726044D01*
X151784325Y-89726045D01*
X151675203Y-89847238D01*
X151660960Y-89863056D01*
X151565473Y-90028444D01*
X151506458Y-90210072D01*
X151505768Y-90216635D01*
X151505768Y-90216636D01*
X151505022Y-90223735D01*
X151478010Y-90289392D01*
X151419788Y-90330023D01*
X151348843Y-90332726D01*
X151290617Y-90299661D01*
X150323612Y-89332656D01*
X150289586Y-89270344D01*
X150294651Y-89199529D01*
X150323612Y-89154466D01*
X150352407Y-89125671D01*
X150352412Y-89125665D01*
X150356301Y-89121776D01*
X150359461Y-89117264D01*
X150386587Y-89078522D01*
X150477589Y-88948558D01*
X150566956Y-88756910D01*
X150621686Y-88552655D01*
X150640116Y-88342000D01*
X150621686Y-88131345D01*
X150619031Y-88121437D01*
X150568379Y-87932400D01*
X150568378Y-87932398D01*
X150566956Y-87927090D01*
X150477589Y-87735442D01*
X150356301Y-87562224D01*
X150206776Y-87412699D01*
X150202266Y-87409541D01*
X150202260Y-87409536D01*
X150092280Y-87332528D01*
X150047951Y-87277071D01*
X150045758Y-87270455D01*
X150045474Y-87268203D01*
X150042640Y-87261044D01*
X150042637Y-87261036D01*
X150029198Y-87227092D01*
X150025354Y-87215865D01*
X150015230Y-87181022D01*
X150013018Y-87173407D01*
X150002707Y-87155972D01*
X149994012Y-87138224D01*
X149986552Y-87119383D01*
X149960564Y-87083613D01*
X149954048Y-87073693D01*
X149935580Y-87042465D01*
X149935578Y-87042462D01*
X149931542Y-87035638D01*
X149917221Y-87021317D01*
X149904380Y-87006283D01*
X149897132Y-86996307D01*
X149892472Y-86989893D01*
X149858407Y-86961712D01*
X149849626Y-86953722D01*
X149303647Y-86407742D01*
X149296113Y-86399463D01*
X149292000Y-86392982D01*
X149242348Y-86346356D01*
X149239507Y-86343602D01*
X149219770Y-86323865D01*
X149216573Y-86321385D01*
X149207551Y-86313680D01*
X149194116Y-86301064D01*
X149175321Y-86283414D01*
X149168375Y-86279595D01*
X149168372Y-86279593D01*
X149157566Y-86273652D01*
X149141047Y-86262801D01*
X149140583Y-86262441D01*
X149125041Y-86250386D01*
X149117772Y-86247241D01*
X149117768Y-86247238D01*
X149084463Y-86232826D01*
X149073813Y-86227609D01*
X149035060Y-86206305D01*
X149015437Y-86201267D01*
X148996734Y-86194863D01*
X148985420Y-86189967D01*
X148985419Y-86189967D01*
X148978145Y-86186819D01*
X148970322Y-86185580D01*
X148970312Y-86185577D01*
X148934476Y-86179901D01*
X148922856Y-86177495D01*
X148887711Y-86168472D01*
X148887710Y-86168472D01*
X148880030Y-86166500D01*
X148859776Y-86166500D01*
X148840065Y-86164949D01*
X148827886Y-86163020D01*
X148820057Y-86161780D01*
X148790786Y-86164547D01*
X148776039Y-86165941D01*
X148764181Y-86166500D01*
X138836954Y-86166500D01*
X138768833Y-86146498D01*
X138722340Y-86092842D01*
X138712236Y-86022568D01*
X138730983Y-85972337D01*
X138779205Y-85897368D01*
X138779208Y-85897363D01*
X138781733Y-85893437D01*
X138889083Y-85655129D01*
X138960030Y-85403572D01*
X138976832Y-85271496D01*
X138992616Y-85147421D01*
X138992616Y-85147417D01*
X138993014Y-85144291D01*
X138995431Y-85052000D01*
X138976061Y-84791348D01*
X138964725Y-84741248D01*
X138919408Y-84540980D01*
X138918377Y-84536423D01*
X138823647Y-84292823D01*
X138824385Y-84292536D01*
X138813753Y-84226421D01*
X138842168Y-84161358D01*
X138901247Y-84121986D01*
X138954582Y-84117828D01*
X138954604Y-84117544D01*
X138956405Y-84117686D01*
X138956407Y-84117686D01*
X138958868Y-84117880D01*
X138958871Y-84117880D01*
X139180297Y-84135307D01*
X139180304Y-84135307D01*
X139182753Y-84135500D01*
X139340121Y-84135500D01*
X139342257Y-84135354D01*
X139342268Y-84135354D01*
X139552949Y-84120991D01*
X139552955Y-84120990D01*
X139557226Y-84120699D01*
X139561421Y-84119830D01*
X139561423Y-84119830D01*
X139699654Y-84091204D01*
X139842081Y-84061709D01*
X140116295Y-83964605D01*
X140374793Y-83831184D01*
X140378294Y-83828723D01*
X140378298Y-83828721D01*
X140523280Y-83726825D01*
X140612792Y-83663915D01*
X140756355Y-83530508D01*
X140822745Y-83468815D01*
X140822748Y-83468812D01*
X140825888Y-83465894D01*
X140836895Y-83452447D01*
X141007423Y-83244102D01*
X141010139Y-83240784D01*
X141162133Y-82992752D01*
X141170869Y-82972852D01*
X141277334Y-82730315D01*
X141279059Y-82726386D01*
X141285073Y-82705276D01*
X141304782Y-82636087D01*
X141358754Y-82446616D01*
X141361286Y-82428829D01*
X141399137Y-82162870D01*
X141399742Y-82158619D01*
X141399859Y-82136277D01*
X148562735Y-82136277D01*
X148600705Y-82424687D01*
X148677465Y-82705276D01*
X148791596Y-82972852D01*
X148940985Y-83222462D01*
X148943669Y-83225813D01*
X148943671Y-83225815D01*
X149024312Y-83326472D01*
X149122867Y-83449489D01*
X149333878Y-83649731D01*
X149570113Y-83819483D01*
X149827200Y-83955603D01*
X149831223Y-83957075D01*
X149831227Y-83957077D01*
X150096351Y-84054099D01*
X150100382Y-84055574D01*
X150384604Y-84117544D01*
X150413650Y-84119830D01*
X150610297Y-84135307D01*
X150610304Y-84135307D01*
X150612753Y-84135500D01*
X150770121Y-84135500D01*
X150772257Y-84135354D01*
X150772268Y-84135354D01*
X150982949Y-84120991D01*
X150982955Y-84120990D01*
X150987226Y-84120699D01*
X151003045Y-84117423D01*
X151073806Y-84123197D01*
X151130212Y-84166311D01*
X151154356Y-84233077D01*
X151144791Y-84289528D01*
X151059697Y-84492455D01*
X150995359Y-84745783D01*
X150969173Y-85005839D01*
X150981713Y-85266908D01*
X151032704Y-85523256D01*
X151121026Y-85769252D01*
X151123242Y-85773376D01*
X151187753Y-85893437D01*
X151244737Y-85999491D01*
X151247532Y-86003234D01*
X151247534Y-86003237D01*
X151398330Y-86205177D01*
X151398335Y-86205183D01*
X151401122Y-86208915D01*
X151404431Y-86212195D01*
X151404436Y-86212201D01*
X151581327Y-86387554D01*
X151586743Y-86392923D01*
X151590505Y-86395681D01*
X151590508Y-86395684D01*
X151793750Y-86544707D01*
X151797524Y-86547474D01*
X151801667Y-86549654D01*
X151801669Y-86549655D01*
X152024684Y-86666989D01*
X152024689Y-86666991D01*
X152028834Y-86669172D01*
X152275590Y-86755344D01*
X152280183Y-86756216D01*
X152527785Y-86803224D01*
X152527788Y-86803224D01*
X152532374Y-86804095D01*
X152662959Y-86809226D01*
X152788875Y-86814174D01*
X152788881Y-86814174D01*
X152793543Y-86814357D01*
X152872977Y-86805657D01*
X153048707Y-86786412D01*
X153048712Y-86786411D01*
X153053360Y-86785902D01*
X153166116Y-86756216D01*
X153301594Y-86720548D01*
X153301596Y-86720547D01*
X153306117Y-86719357D01*
X153546262Y-86616182D01*
X153768519Y-86478646D01*
X153772082Y-86475629D01*
X153772087Y-86475626D01*
X153964439Y-86312787D01*
X153964440Y-86312786D01*
X153968005Y-86309768D01*
X154020082Y-86250386D01*
X154137257Y-86116774D01*
X154137261Y-86116769D01*
X154140339Y-86113259D01*
X154281733Y-85893437D01*
X154389083Y-85655129D01*
X154460030Y-85403572D01*
X154476832Y-85271496D01*
X154492616Y-85147421D01*
X154492616Y-85147417D01*
X154493014Y-85144291D01*
X154495431Y-85052000D01*
X154476061Y-84791348D01*
X154464725Y-84741248D01*
X154419408Y-84540980D01*
X154418377Y-84536423D01*
X154323647Y-84292823D01*
X154193951Y-84065902D01*
X154032138Y-83860643D01*
X153841763Y-83681557D01*
X153627009Y-83532576D01*
X153622816Y-83530508D01*
X153396781Y-83419040D01*
X153396778Y-83419039D01*
X153392593Y-83416975D01*
X153346449Y-83402204D01*
X153148123Y-83338720D01*
X153143665Y-83337293D01*
X152885693Y-83295279D01*
X152632111Y-83291960D01*
X152564259Y-83271068D01*
X152518472Y-83216809D01*
X152509289Y-83146409D01*
X152526328Y-83100136D01*
X152589896Y-82996402D01*
X152592133Y-82992752D01*
X152600869Y-82972852D01*
X152707334Y-82730315D01*
X152709059Y-82726386D01*
X152715073Y-82705276D01*
X152734782Y-82636087D01*
X152788754Y-82446616D01*
X152791286Y-82428829D01*
X152829137Y-82162870D01*
X152829742Y-82158619D01*
X152831265Y-81867723D01*
X152793295Y-81579313D01*
X152716535Y-81298724D01*
X152602404Y-81031148D01*
X152600201Y-81027468D01*
X152599905Y-81026886D01*
X152586801Y-80957109D01*
X152613502Y-80891325D01*
X152671529Y-80850419D01*
X152713821Y-80843695D01*
X152834978Y-80845281D01*
X152834981Y-80845281D01*
X152839655Y-80845342D01*
X153098638Y-80810096D01*
X153349567Y-80736957D01*
X153385862Y-80720225D01*
X153404112Y-80711811D01*
X153586928Y-80627532D01*
X153698304Y-80554511D01*
X153801596Y-80486790D01*
X153801601Y-80486786D01*
X153805509Y-80484224D01*
X154000506Y-80310182D01*
X154167637Y-80109230D01*
X154265770Y-79947512D01*
X154300804Y-79889778D01*
X154300806Y-79889774D01*
X154303229Y-79885781D01*
X154404303Y-79644745D01*
X154468641Y-79391417D01*
X154477129Y-79307128D01*
X154490184Y-79177471D01*
X154490500Y-79174333D01*
X154490500Y-77518846D01*
X154476061Y-77324548D01*
X154469946Y-77297521D01*
X154419408Y-77074180D01*
X154418377Y-77069623D01*
X154341362Y-76871577D01*
X154325340Y-76830376D01*
X154325339Y-76830373D01*
X154323647Y-76826023D01*
X154193951Y-76599102D01*
X154032138Y-76393843D01*
X153841763Y-76214757D01*
X153627009Y-76065776D01*
X153622816Y-76063708D01*
X153396781Y-75952240D01*
X153396778Y-75952239D01*
X153392593Y-75950175D01*
X153346449Y-75935404D01*
X153148123Y-75871920D01*
X153143665Y-75870493D01*
X152885693Y-75828479D01*
X152771942Y-75826990D01*
X152629022Y-75825119D01*
X152629019Y-75825119D01*
X152624345Y-75825058D01*
X152365362Y-75860304D01*
X152114433Y-75933443D01*
X152110180Y-75935403D01*
X152110179Y-75935404D01*
X152073659Y-75952240D01*
X151877072Y-76042868D01*
X151838067Y-76068441D01*
X151662404Y-76183610D01*
X151662399Y-76183614D01*
X151658491Y-76186176D01*
X151463494Y-76360218D01*
X151296363Y-76561170D01*
X151293934Y-76565173D01*
X151209805Y-76703814D01*
X151160771Y-76784619D01*
X151059697Y-77025655D01*
X150995359Y-77278983D01*
X150973500Y-77496067D01*
X150973500Y-79151554D01*
X150973673Y-79153879D01*
X150973673Y-79153885D01*
X150982213Y-79268794D01*
X150987939Y-79345852D01*
X150988968Y-79350400D01*
X150988969Y-79350406D01*
X151018927Y-79482799D01*
X151045623Y-79600777D01*
X151085173Y-79702479D01*
X151088639Y-79711393D01*
X151094686Y-79782132D01*
X151061530Y-79844910D01*
X150999696Y-79879797D01*
X150961320Y-79882672D01*
X150783704Y-79868693D01*
X150783695Y-79868693D01*
X150781247Y-79868500D01*
X150623879Y-79868500D01*
X150621743Y-79868646D01*
X150621732Y-79868646D01*
X150411051Y-79883009D01*
X150411045Y-79883010D01*
X150406774Y-79883301D01*
X150402579Y-79884170D01*
X150402577Y-79884170D01*
X150387130Y-79887369D01*
X150121919Y-79942291D01*
X149847705Y-80039395D01*
X149589207Y-80172816D01*
X149585706Y-80175277D01*
X149585702Y-80175279D01*
X149572558Y-80184517D01*
X149351208Y-80340085D01*
X149275567Y-80410375D01*
X149142376Y-80534144D01*
X149138112Y-80538106D01*
X149135398Y-80541422D01*
X149135395Y-80541425D01*
X149021426Y-80680668D01*
X148953861Y-80763216D01*
X148801867Y-81011248D01*
X148800148Y-81015165D01*
X148800146Y-81015168D01*
X148791399Y-81035094D01*
X148684941Y-81277614D01*
X148683765Y-81281742D01*
X148683764Y-81281745D01*
X148659218Y-81367913D01*
X148605246Y-81557384D01*
X148604642Y-81561626D01*
X148604641Y-81561632D01*
X148602125Y-81579313D01*
X148564258Y-81845381D01*
X148562735Y-82136277D01*
X141399859Y-82136277D01*
X141401265Y-81867723D01*
X141363295Y-81579313D01*
X141286535Y-81298724D01*
X141172404Y-81031148D01*
X141023015Y-80781538D01*
X141008337Y-80763216D01*
X140901201Y-80629489D01*
X140841133Y-80554511D01*
X140666730Y-80389009D01*
X140633231Y-80357219D01*
X140633228Y-80357217D01*
X140630122Y-80354269D01*
X140393887Y-80184517D01*
X140180053Y-80071298D01*
X140140587Y-80050402D01*
X140140586Y-80050401D01*
X140136800Y-80048397D01*
X140132777Y-80046925D01*
X140132773Y-80046923D01*
X139867649Y-79949901D01*
X139867647Y-79949900D01*
X139863618Y-79948426D01*
X139579396Y-79886456D01*
X139535598Y-79883009D01*
X139353703Y-79868693D01*
X139353696Y-79868693D01*
X139351247Y-79868500D01*
X139193879Y-79868500D01*
X139191743Y-79868646D01*
X139191732Y-79868646D01*
X139043399Y-79878759D01*
X139002929Y-79881518D01*
X138933606Y-79866196D01*
X138883571Y-79815827D01*
X138868711Y-79746403D01*
X138878160Y-79707090D01*
X138904303Y-79644745D01*
X138968641Y-79391417D01*
X138977129Y-79307128D01*
X138990184Y-79177471D01*
X138990500Y-79174333D01*
X138990500Y-78400000D01*
X139486496Y-78400000D01*
X139506458Y-78589928D01*
X139565473Y-78771556D01*
X139660960Y-78936944D01*
X139665378Y-78941851D01*
X139665379Y-78941852D01*
X139747899Y-79033500D01*
X139788747Y-79078866D01*
X139810541Y-79094700D01*
X139924465Y-79177471D01*
X139943248Y-79191118D01*
X139949276Y-79193802D01*
X139949278Y-79193803D01*
X140111681Y-79266109D01*
X140117712Y-79268794D01*
X140211112Y-79288647D01*
X140298056Y-79307128D01*
X140298061Y-79307128D01*
X140304513Y-79308500D01*
X140495487Y-79308500D01*
X140501939Y-79307128D01*
X140501944Y-79307128D01*
X140588888Y-79288647D01*
X140682288Y-79268794D01*
X140688319Y-79266109D01*
X140850722Y-79193803D01*
X140850724Y-79193802D01*
X140856752Y-79191118D01*
X140875536Y-79177471D01*
X140989671Y-79094546D01*
X141011253Y-79078866D01*
X141015668Y-79073963D01*
X141020580Y-79069540D01*
X141021705Y-79070789D01*
X141075014Y-79037949D01*
X141108200Y-79033500D01*
X148091800Y-79033500D01*
X148159921Y-79053502D01*
X148179147Y-79069843D01*
X148179420Y-79069540D01*
X148184332Y-79073963D01*
X148188747Y-79078866D01*
X148210329Y-79094546D01*
X148324465Y-79177471D01*
X148343248Y-79191118D01*
X148349276Y-79193802D01*
X148349278Y-79193803D01*
X148511681Y-79266109D01*
X148517712Y-79268794D01*
X148611112Y-79288647D01*
X148698056Y-79307128D01*
X148698061Y-79307128D01*
X148704513Y-79308500D01*
X148895487Y-79308500D01*
X148901939Y-79307128D01*
X148901944Y-79307128D01*
X148988888Y-79288647D01*
X149082288Y-79268794D01*
X149088319Y-79266109D01*
X149250722Y-79193803D01*
X149250724Y-79193802D01*
X149256752Y-79191118D01*
X149275536Y-79177471D01*
X149389459Y-79094700D01*
X149411253Y-79078866D01*
X149452101Y-79033500D01*
X149534621Y-78941852D01*
X149534622Y-78941851D01*
X149539040Y-78936944D01*
X149634527Y-78771556D01*
X149693542Y-78589928D01*
X149713504Y-78400000D01*
X149693542Y-78210072D01*
X149634527Y-78028444D01*
X149539040Y-77863056D01*
X149471667Y-77788230D01*
X149415675Y-77726045D01*
X149415674Y-77726044D01*
X149411253Y-77721134D01*
X149304841Y-77643821D01*
X149262094Y-77612763D01*
X149262093Y-77612762D01*
X149256752Y-77608882D01*
X149250724Y-77606198D01*
X149250722Y-77606197D01*
X149088319Y-77533891D01*
X149088318Y-77533891D01*
X149082288Y-77531206D01*
X148988887Y-77511353D01*
X148901944Y-77492872D01*
X148901939Y-77492872D01*
X148895487Y-77491500D01*
X148704513Y-77491500D01*
X148698061Y-77492872D01*
X148698056Y-77492872D01*
X148611113Y-77511353D01*
X148517712Y-77531206D01*
X148511682Y-77533891D01*
X148511681Y-77533891D01*
X148349278Y-77606197D01*
X148349276Y-77606198D01*
X148343248Y-77608882D01*
X148337907Y-77612762D01*
X148337906Y-77612763D01*
X148295159Y-77643821D01*
X148188747Y-77721134D01*
X148184332Y-77726037D01*
X148179420Y-77730460D01*
X148178295Y-77729211D01*
X148124986Y-77762051D01*
X148091800Y-77766500D01*
X141108200Y-77766500D01*
X141040079Y-77746498D01*
X141020853Y-77730157D01*
X141020580Y-77730460D01*
X141015668Y-77726037D01*
X141011253Y-77721134D01*
X140904841Y-77643821D01*
X140862094Y-77612763D01*
X140862093Y-77612762D01*
X140856752Y-77608882D01*
X140850724Y-77606198D01*
X140850722Y-77606197D01*
X140688319Y-77533891D01*
X140688318Y-77533891D01*
X140682288Y-77531206D01*
X140588887Y-77511353D01*
X140501944Y-77492872D01*
X140501939Y-77492872D01*
X140495487Y-77491500D01*
X140304513Y-77491500D01*
X140298061Y-77492872D01*
X140298056Y-77492872D01*
X140211113Y-77511353D01*
X140117712Y-77531206D01*
X140111682Y-77533891D01*
X140111681Y-77533891D01*
X139949278Y-77606197D01*
X139949276Y-77606198D01*
X139943248Y-77608882D01*
X139937907Y-77612762D01*
X139937906Y-77612763D01*
X139895159Y-77643821D01*
X139788747Y-77721134D01*
X139784326Y-77726044D01*
X139784325Y-77726045D01*
X139728334Y-77788230D01*
X139660960Y-77863056D01*
X139565473Y-78028444D01*
X139506458Y-78210072D01*
X139486496Y-78400000D01*
X138990500Y-78400000D01*
X138990500Y-77518846D01*
X138976061Y-77324548D01*
X138969946Y-77297521D01*
X138919408Y-77074180D01*
X138918377Y-77069623D01*
X138841362Y-76871577D01*
X138825340Y-76830376D01*
X138825339Y-76830373D01*
X138823647Y-76826023D01*
X138693951Y-76599102D01*
X138532138Y-76393843D01*
X138341763Y-76214757D01*
X138127009Y-76065776D01*
X138122816Y-76063708D01*
X137896781Y-75952240D01*
X137896778Y-75952239D01*
X137892593Y-75950175D01*
X137846449Y-75935404D01*
X137648123Y-75871920D01*
X137643665Y-75870493D01*
X137385693Y-75828479D01*
X137271942Y-75826990D01*
X137129022Y-75825119D01*
X137129019Y-75825119D01*
X137124345Y-75825058D01*
X136865362Y-75860304D01*
X136614433Y-75933443D01*
X136610180Y-75935403D01*
X136610179Y-75935404D01*
X136573659Y-75952240D01*
X136377072Y-76042868D01*
X136338067Y-76068441D01*
X136162404Y-76183610D01*
X136162399Y-76183614D01*
X136158491Y-76186176D01*
X136154999Y-76189293D01*
X136075750Y-76260025D01*
X136011609Y-76290463D01*
X135941194Y-76281391D01*
X135905516Y-76257797D01*
X135883702Y-76237276D01*
X135859763Y-76214757D01*
X135645009Y-76065776D01*
X135640816Y-76063708D01*
X135414781Y-75952240D01*
X135414778Y-75952239D01*
X135410593Y-75950175D01*
X135364449Y-75935404D01*
X135166123Y-75871920D01*
X135161665Y-75870493D01*
X134903693Y-75828479D01*
X134789942Y-75826990D01*
X134647022Y-75825119D01*
X134647019Y-75825119D01*
X134642345Y-75825058D01*
X134383362Y-75860304D01*
X134132433Y-75933443D01*
X134128180Y-75935403D01*
X134128179Y-75935404D01*
X134091659Y-75952240D01*
X133895072Y-76042868D01*
X133856067Y-76068441D01*
X133680404Y-76183610D01*
X133680399Y-76183614D01*
X133676491Y-76186176D01*
X133481494Y-76360218D01*
X133314363Y-76561170D01*
X133311934Y-76565173D01*
X133227805Y-76703814D01*
X133178771Y-76784619D01*
X133077697Y-77025655D01*
X133013359Y-77278983D01*
X132991500Y-77496067D01*
X132991500Y-77575700D01*
X132971498Y-77643821D01*
X132917842Y-77690314D01*
X132865500Y-77701700D01*
X121134500Y-77701700D01*
X121066379Y-77681698D01*
X121019886Y-77628042D01*
X121008500Y-77575700D01*
X121008500Y-77518846D01*
X120994061Y-77324548D01*
X120987946Y-77297521D01*
X120937408Y-77074180D01*
X120936377Y-77069623D01*
X120859362Y-76871577D01*
X120843340Y-76830376D01*
X120843339Y-76830373D01*
X120841647Y-76826023D01*
X120711951Y-76599102D01*
X120550138Y-76393843D01*
X120359763Y-76214757D01*
X120145009Y-76065776D01*
X120140816Y-76063708D01*
X119914781Y-75952240D01*
X119914778Y-75952239D01*
X119910593Y-75950175D01*
X119864449Y-75935404D01*
X119666123Y-75871920D01*
X119661665Y-75870493D01*
X119403693Y-75828479D01*
X119289942Y-75826990D01*
X119147022Y-75825119D01*
X119147019Y-75825119D01*
X119142345Y-75825058D01*
X118883362Y-75860304D01*
X118632433Y-75933443D01*
X118628180Y-75935403D01*
X118628179Y-75935404D01*
X118591659Y-75952240D01*
X118395072Y-76042868D01*
X118356067Y-76068441D01*
X118180404Y-76183610D01*
X118180399Y-76183614D01*
X118176491Y-76186176D01*
X117981494Y-76360218D01*
X117814363Y-76561170D01*
X117811934Y-76565173D01*
X117727805Y-76703814D01*
X117678771Y-76784619D01*
X117577697Y-77025655D01*
X117513359Y-77278983D01*
X117491500Y-77496067D01*
X117491500Y-79151554D01*
X117491673Y-79153879D01*
X117491673Y-79153885D01*
X117500213Y-79268794D01*
X117505939Y-79345852D01*
X117506968Y-79350400D01*
X117506969Y-79350406D01*
X117536927Y-79482799D01*
X117563623Y-79600777D01*
X117565315Y-79605129D01*
X117565316Y-79605131D01*
X117647251Y-79815827D01*
X117658353Y-79844377D01*
X117660670Y-79848431D01*
X117660671Y-79848433D01*
X117682017Y-79885781D01*
X117788049Y-80071298D01*
X117949862Y-80276557D01*
X118140237Y-80455643D01*
X118256709Y-80536443D01*
X118339494Y-80593873D01*
X118354991Y-80604624D01*
X118359181Y-80606690D01*
X118359184Y-80606692D01*
X118585219Y-80718160D01*
X118585222Y-80718161D01*
X118589407Y-80720225D01*
X118593850Y-80721647D01*
X118593852Y-80721648D01*
X118735127Y-80766870D01*
X118838335Y-80799907D01*
X119096307Y-80841921D01*
X119181206Y-80843032D01*
X119271925Y-80844220D01*
X119339778Y-80865112D01*
X119385565Y-80919371D01*
X119394748Y-80989772D01*
X119385650Y-81020854D01*
X119379399Y-81035094D01*
X119272941Y-81277614D01*
X119271765Y-81281742D01*
X119271764Y-81281745D01*
X119247218Y-81367913D01*
X119193246Y-81557384D01*
X119192642Y-81561626D01*
X119192641Y-81561632D01*
X119190125Y-81579313D01*
X119152258Y-81845381D01*
X119150735Y-82136277D01*
X119188705Y-82424687D01*
X119265465Y-82705276D01*
X119379596Y-82972852D01*
X119458003Y-83103860D01*
X119475822Y-83172581D01*
X119453658Y-83240030D01*
X119398547Y-83284788D01*
X119348237Y-83294553D01*
X119147022Y-83291919D01*
X119147019Y-83291919D01*
X119142345Y-83291858D01*
X118883362Y-83327104D01*
X118632433Y-83400243D01*
X118628180Y-83402203D01*
X118628179Y-83402204D01*
X118591659Y-83419040D01*
X118395072Y-83509668D01*
X118356067Y-83535241D01*
X118180404Y-83650410D01*
X118180399Y-83650414D01*
X118176491Y-83652976D01*
X117981494Y-83827018D01*
X117814363Y-84027970D01*
X117811934Y-84031973D01*
X117730416Y-84166311D01*
X117678771Y-84251419D01*
X117577697Y-84492455D01*
X117513359Y-84745783D01*
X117487173Y-85005839D01*
X117499713Y-85266908D01*
X117550704Y-85523256D01*
X117639026Y-85769252D01*
X117641242Y-85773376D01*
X117705753Y-85893437D01*
X117762737Y-85999491D01*
X117765532Y-86003234D01*
X117765534Y-86003237D01*
X117916330Y-86205177D01*
X117916335Y-86205183D01*
X117919122Y-86208915D01*
X117922431Y-86212195D01*
X117922436Y-86212201D01*
X118099327Y-86387554D01*
X118104743Y-86392923D01*
X118108505Y-86395681D01*
X118108508Y-86395684D01*
X118311750Y-86544707D01*
X118315524Y-86547474D01*
X118319667Y-86549654D01*
X118319669Y-86549655D01*
X118542684Y-86666989D01*
X118542689Y-86666991D01*
X118546834Y-86669172D01*
X118793590Y-86755344D01*
X118798183Y-86756216D01*
X119045785Y-86803224D01*
X119045788Y-86803224D01*
X119050374Y-86804095D01*
X119180959Y-86809226D01*
X119306875Y-86814174D01*
X119306881Y-86814174D01*
X119311543Y-86814357D01*
X119390977Y-86805657D01*
X119566707Y-86786412D01*
X119566712Y-86786411D01*
X119571360Y-86785902D01*
X119684116Y-86756216D01*
X119819594Y-86720548D01*
X119819596Y-86720547D01*
X119824117Y-86719357D01*
X120064262Y-86616182D01*
X120286519Y-86478646D01*
X120290082Y-86475629D01*
X120290087Y-86475626D01*
X120482439Y-86312787D01*
X120482440Y-86312786D01*
X120486005Y-86309768D01*
X120538082Y-86250386D01*
X120655257Y-86116774D01*
X120655261Y-86116769D01*
X120658339Y-86113259D01*
X120799733Y-85893437D01*
X120907083Y-85655129D01*
X120978030Y-85403572D01*
X120994832Y-85271496D01*
X121010616Y-85147421D01*
X121010616Y-85147417D01*
X121011014Y-85144291D01*
X121013431Y-85052000D01*
X120994061Y-84791348D01*
X120982725Y-84741248D01*
X120937408Y-84540980D01*
X120936377Y-84536423D01*
X120841647Y-84292823D01*
X120842385Y-84292536D01*
X120831753Y-84226421D01*
X120860168Y-84161358D01*
X120919247Y-84121986D01*
X120972582Y-84117828D01*
X120972604Y-84117544D01*
X120974405Y-84117686D01*
X120974407Y-84117686D01*
X120976868Y-84117880D01*
X120976871Y-84117880D01*
X121198297Y-84135307D01*
X121198304Y-84135307D01*
X121200753Y-84135500D01*
X121358121Y-84135500D01*
X121360257Y-84135354D01*
X121360268Y-84135354D01*
X121570949Y-84120991D01*
X121570955Y-84120990D01*
X121575226Y-84120699D01*
X121579421Y-84119830D01*
X121579423Y-84119830D01*
X121717654Y-84091204D01*
X121860081Y-84061709D01*
X122134295Y-83964605D01*
X122392793Y-83831184D01*
X122396294Y-83828723D01*
X122396298Y-83828721D01*
X122541280Y-83726825D01*
X122630792Y-83663915D01*
X122774355Y-83530508D01*
X122840745Y-83468815D01*
X122840748Y-83468812D01*
X122843888Y-83465894D01*
X122854895Y-83452447D01*
X123025423Y-83244102D01*
X123028139Y-83240784D01*
X123180133Y-82992752D01*
X123188869Y-82972852D01*
X123295334Y-82730315D01*
X123297059Y-82726386D01*
X123303073Y-82705276D01*
X123322782Y-82636087D01*
X123376754Y-82446616D01*
X123379286Y-82428829D01*
X123417137Y-82162870D01*
X123417742Y-82158619D01*
X123419265Y-81867723D01*
X123381295Y-81579313D01*
X123304535Y-81298724D01*
X123190404Y-81031148D01*
X123041015Y-80781538D01*
X123026337Y-80763216D01*
X122919201Y-80629489D01*
X122859133Y-80554511D01*
X122684730Y-80389009D01*
X122651231Y-80357219D01*
X122651228Y-80357217D01*
X122648122Y-80354269D01*
X122411887Y-80184517D01*
X122198053Y-80071298D01*
X122158587Y-80050402D01*
X122158586Y-80050401D01*
X122154800Y-80048397D01*
X122150777Y-80046925D01*
X122150773Y-80046923D01*
X121885649Y-79949901D01*
X121885647Y-79949900D01*
X121881618Y-79948426D01*
X121597396Y-79886456D01*
X121553598Y-79883009D01*
X121371703Y-79868693D01*
X121371696Y-79868693D01*
X121369247Y-79868500D01*
X121211879Y-79868500D01*
X121209743Y-79868646D01*
X121209732Y-79868646D01*
X121061399Y-79878759D01*
X121020929Y-79881518D01*
X120951606Y-79866196D01*
X120901571Y-79815827D01*
X120886711Y-79746403D01*
X120896160Y-79707090D01*
X120922303Y-79644745D01*
X120986641Y-79391417D01*
X120995129Y-79307128D01*
X121008184Y-79177471D01*
X121008500Y-79174333D01*
X121008500Y-79094700D01*
X121028502Y-79026579D01*
X121082158Y-78980086D01*
X121134500Y-78968700D01*
X132865500Y-78968700D01*
X132933621Y-78988702D01*
X132980114Y-79042358D01*
X132991500Y-79094700D01*
X132991500Y-79151554D01*
X132991673Y-79153879D01*
X132991673Y-79153885D01*
X133000213Y-79268794D01*
X133005939Y-79345852D01*
X133006968Y-79350400D01*
X133006969Y-79350406D01*
X133036927Y-79482799D01*
X133063623Y-79600777D01*
X133103173Y-79702479D01*
X133106639Y-79711393D01*
X133112686Y-79782132D01*
X133079530Y-79844910D01*
X133017696Y-79879797D01*
X132979320Y-79882672D01*
X132801704Y-79868693D01*
X132801695Y-79868693D01*
X132799247Y-79868500D01*
X132641879Y-79868500D01*
X132639743Y-79868646D01*
X132639732Y-79868646D01*
X132429051Y-79883009D01*
X132429045Y-79883010D01*
X132424774Y-79883301D01*
X132420579Y-79884170D01*
X132420577Y-79884170D01*
X132405130Y-79887369D01*
X132139919Y-79942291D01*
X131865705Y-80039395D01*
X131607207Y-80172816D01*
X131603706Y-80175277D01*
X131603702Y-80175279D01*
X131590558Y-80184517D01*
X131369208Y-80340085D01*
X131293567Y-80410375D01*
X131160376Y-80534144D01*
X131156112Y-80538106D01*
X131153398Y-80541422D01*
X131153395Y-80541425D01*
X131039426Y-80680668D01*
X130971861Y-80763216D01*
X130819867Y-81011248D01*
X130818148Y-81015165D01*
X130818146Y-81015168D01*
X130809399Y-81035094D01*
X130702941Y-81277614D01*
X130701765Y-81281742D01*
X130701764Y-81281745D01*
X130677218Y-81367913D01*
X130623246Y-81557384D01*
X130622642Y-81561626D01*
X130622641Y-81561632D01*
X130620125Y-81579313D01*
X130582258Y-81845381D01*
X130580735Y-82136277D01*
X130618705Y-82424687D01*
X130695465Y-82705276D01*
X130809596Y-82972852D01*
X130958985Y-83222462D01*
X130961669Y-83225813D01*
X130961671Y-83225815D01*
X131042312Y-83326472D01*
X131140867Y-83449489D01*
X131351878Y-83649731D01*
X131588113Y-83819483D01*
X131845200Y-83955603D01*
X131849223Y-83957075D01*
X131849227Y-83957077D01*
X132114351Y-84054099D01*
X132118382Y-84055574D01*
X132402604Y-84117544D01*
X132431650Y-84119830D01*
X132628297Y-84135307D01*
X132628304Y-84135307D01*
X132630753Y-84135500D01*
X132788121Y-84135500D01*
X132790257Y-84135354D01*
X132790268Y-84135354D01*
X133000949Y-84120991D01*
X133000955Y-84120990D01*
X133005226Y-84120699D01*
X133021045Y-84117423D01*
X133091806Y-84123197D01*
X133148212Y-84166311D01*
X133172356Y-84233077D01*
X133162791Y-84289528D01*
X133077697Y-84492455D01*
X133013359Y-84745783D01*
X132987173Y-85005839D01*
X132999713Y-85266908D01*
X133050704Y-85523256D01*
X133139026Y-85769252D01*
X133141242Y-85773376D01*
X133252727Y-85980862D01*
X133267350Y-86050337D01*
X133242091Y-86116688D01*
X133184970Y-86158850D01*
X133141735Y-86166500D01*
X133065767Y-86166500D01*
X133054584Y-86165973D01*
X133047091Y-86164298D01*
X133039165Y-86164547D01*
X133039164Y-86164547D01*
X132979014Y-86166438D01*
X132975055Y-86166500D01*
X132947144Y-86166500D01*
X132943210Y-86166997D01*
X132943209Y-86166997D01*
X132943144Y-86167005D01*
X132931307Y-86167938D01*
X132899490Y-86168938D01*
X132895029Y-86169078D01*
X132887110Y-86169327D01*
X132869454Y-86174456D01*
X132867658Y-86174978D01*
X132848306Y-86178986D01*
X132841235Y-86179880D01*
X132828203Y-86181526D01*
X132820834Y-86184443D01*
X132820832Y-86184444D01*
X132787097Y-86197800D01*
X132775869Y-86201645D01*
X132733407Y-86213982D01*
X132726585Y-86218016D01*
X132726579Y-86218019D01*
X132715968Y-86224294D01*
X132698218Y-86232990D01*
X132686756Y-86237528D01*
X132686751Y-86237531D01*
X132679383Y-86240448D01*
X132661970Y-86253099D01*
X132643625Y-86266427D01*
X132633707Y-86272943D01*
X132622463Y-86279593D01*
X132595637Y-86295458D01*
X132581313Y-86309782D01*
X132566281Y-86322621D01*
X132549893Y-86334528D01*
X132521712Y-86368593D01*
X132513722Y-86377373D01*
X131776538Y-87114557D01*
X131714226Y-87148583D01*
X131665561Y-87149547D01*
X131660961Y-87148736D01*
X131655655Y-87147314D01*
X131650188Y-87146836D01*
X131650184Y-87146835D01*
X131450475Y-87129363D01*
X131445000Y-87128884D01*
X131234345Y-87147314D01*
X131229032Y-87148738D01*
X131229030Y-87148738D01*
X131035400Y-87200621D01*
X131035398Y-87200622D01*
X131030090Y-87202044D01*
X131025109Y-87204366D01*
X131025108Y-87204367D01*
X130843423Y-87289088D01*
X130843420Y-87289090D01*
X130838442Y-87291411D01*
X130665224Y-87412699D01*
X130515699Y-87562224D01*
X130394411Y-87735442D01*
X130305044Y-87927090D01*
X130303622Y-87932398D01*
X130303621Y-87932400D01*
X130296707Y-87958204D01*
X130259755Y-88018827D01*
X130195894Y-88049848D01*
X130125400Y-88041420D01*
X130070653Y-87996217D01*
X130053293Y-87958204D01*
X130046379Y-87932400D01*
X130046378Y-87932398D01*
X130044956Y-87927090D01*
X129955589Y-87735442D01*
X129834301Y-87562224D01*
X129684776Y-87412699D01*
X129511558Y-87291411D01*
X129506580Y-87289090D01*
X129506577Y-87289088D01*
X129324892Y-87204367D01*
X129324891Y-87204366D01*
X129319910Y-87202044D01*
X129314602Y-87200622D01*
X129314600Y-87200621D01*
X129120970Y-87148738D01*
X129120968Y-87148738D01*
X129115655Y-87147314D01*
X128905000Y-87128884D01*
X128694345Y-87147314D01*
X128689032Y-87148738D01*
X128689030Y-87148738D01*
X128495400Y-87200621D01*
X128495398Y-87200622D01*
X128490090Y-87202044D01*
X128485109Y-87204366D01*
X128485108Y-87204367D01*
X128303423Y-87289088D01*
X128303420Y-87289090D01*
X128298442Y-87291411D01*
X128125224Y-87412699D01*
X127975699Y-87562224D01*
X127854411Y-87735442D01*
X127765044Y-87927090D01*
X127763622Y-87932398D01*
X127763621Y-87932400D01*
X127756707Y-87958204D01*
X127719755Y-88018827D01*
X127655894Y-88049848D01*
X127585400Y-88041420D01*
X127530653Y-87996217D01*
X127513293Y-87958204D01*
X127506379Y-87932400D01*
X127506378Y-87932398D01*
X127504956Y-87927090D01*
X127415589Y-87735442D01*
X127294301Y-87562224D01*
X127144776Y-87412699D01*
X126971558Y-87291411D01*
X126966580Y-87289090D01*
X126966577Y-87289088D01*
X126784892Y-87204367D01*
X126784891Y-87204366D01*
X126779910Y-87202044D01*
X126774602Y-87200622D01*
X126774600Y-87200621D01*
X126580970Y-87148738D01*
X126580968Y-87148738D01*
X126575655Y-87147314D01*
X126365000Y-87128884D01*
X126154345Y-87147314D01*
X126149032Y-87148738D01*
X126149030Y-87148738D01*
X125955400Y-87200621D01*
X125955398Y-87200622D01*
X125950090Y-87202044D01*
X125945109Y-87204366D01*
X125945108Y-87204367D01*
X125763423Y-87289088D01*
X125763420Y-87289090D01*
X125758442Y-87291411D01*
X125585224Y-87412699D01*
X125435699Y-87562224D01*
X125314411Y-87735442D01*
X125225044Y-87927090D01*
X125223622Y-87932398D01*
X125223621Y-87932400D01*
X125216707Y-87958204D01*
X125179755Y-88018827D01*
X125115894Y-88049848D01*
X125045400Y-88041420D01*
X124990653Y-87996217D01*
X124973293Y-87958204D01*
X124966379Y-87932400D01*
X124966378Y-87932398D01*
X124964956Y-87927090D01*
X124875589Y-87735442D01*
X124754301Y-87562224D01*
X124604776Y-87412699D01*
X124431558Y-87291411D01*
X124426580Y-87289090D01*
X124426577Y-87289088D01*
X124244892Y-87204367D01*
X124244891Y-87204366D01*
X124239910Y-87202044D01*
X124234602Y-87200622D01*
X124234600Y-87200621D01*
X124040970Y-87148738D01*
X124040968Y-87148738D01*
X124035655Y-87147314D01*
X123825000Y-87128884D01*
X123614345Y-87147314D01*
X123609032Y-87148738D01*
X123609030Y-87148738D01*
X123415400Y-87200621D01*
X123415398Y-87200622D01*
X123410090Y-87202044D01*
X123405109Y-87204366D01*
X123405108Y-87204367D01*
X123223423Y-87289088D01*
X123223420Y-87289090D01*
X123218442Y-87291411D01*
X123045224Y-87412699D01*
X122895699Y-87562224D01*
X122774411Y-87735442D01*
X122685044Y-87927090D01*
X122683622Y-87932398D01*
X122683621Y-87932400D01*
X122632969Y-88121437D01*
X122630314Y-88131345D01*
X122611884Y-88342000D01*
X122630314Y-88552655D01*
X122685044Y-88756910D01*
X122774411Y-88948558D01*
X122895699Y-89121776D01*
X123045224Y-89271301D01*
X123218442Y-89392589D01*
X123223420Y-89394910D01*
X123223423Y-89394912D01*
X123344322Y-89451288D01*
X123410090Y-89481956D01*
X123415398Y-89483378D01*
X123415400Y-89483379D01*
X123609030Y-89535262D01*
X123609032Y-89535262D01*
X123614345Y-89536686D01*
X123825000Y-89555116D01*
X124035655Y-89536686D01*
X124040968Y-89535262D01*
X124040970Y-89535262D01*
X124234600Y-89483379D01*
X124234602Y-89483378D01*
X124239910Y-89481956D01*
X124305678Y-89451288D01*
X124426577Y-89394912D01*
X124426580Y-89394910D01*
X124431558Y-89392589D01*
X124604776Y-89271301D01*
X124754301Y-89121776D01*
X124875589Y-88948558D01*
X124964956Y-88756910D01*
X124973293Y-88725796D01*
X125010245Y-88665173D01*
X125074106Y-88634152D01*
X125144600Y-88642580D01*
X125199347Y-88687783D01*
X125216707Y-88725796D01*
X125225044Y-88756910D01*
X125314411Y-88948558D01*
X125435699Y-89121776D01*
X125585224Y-89271301D01*
X125758442Y-89392589D01*
X125763420Y-89394910D01*
X125763423Y-89394912D01*
X125884322Y-89451288D01*
X125950090Y-89481956D01*
X125955398Y-89483378D01*
X125955400Y-89483379D01*
X126149030Y-89535262D01*
X126149032Y-89535262D01*
X126154345Y-89536686D01*
X126365000Y-89555116D01*
X126575655Y-89536686D01*
X126580968Y-89535262D01*
X126580970Y-89535262D01*
X126774600Y-89483379D01*
X126774602Y-89483378D01*
X126779910Y-89481956D01*
X126845678Y-89451288D01*
X126966577Y-89394912D01*
X126966580Y-89394910D01*
X126971558Y-89392589D01*
X127144776Y-89271301D01*
X127294301Y-89121776D01*
X127415589Y-88948558D01*
X127504956Y-88756910D01*
X127513293Y-88725796D01*
X127550245Y-88665173D01*
X127614106Y-88634152D01*
X127684600Y-88642580D01*
X127739347Y-88687783D01*
X127756707Y-88725796D01*
X127765044Y-88756910D01*
X127854411Y-88948558D01*
X127975699Y-89121776D01*
X128125224Y-89271301D01*
X128298442Y-89392589D01*
X128303420Y-89394910D01*
X128303423Y-89394912D01*
X128424322Y-89451288D01*
X128490090Y-89481956D01*
X128495398Y-89483378D01*
X128495400Y-89483379D01*
X128689030Y-89535262D01*
X128689032Y-89535262D01*
X128694345Y-89536686D01*
X128905000Y-89555116D01*
X129115655Y-89536686D01*
X129120968Y-89535262D01*
X129120970Y-89535262D01*
X129314600Y-89483379D01*
X129314602Y-89483378D01*
X129319910Y-89481956D01*
X129385678Y-89451288D01*
X129506577Y-89394912D01*
X129506580Y-89394910D01*
X129511558Y-89392589D01*
X129684776Y-89271301D01*
X129834301Y-89121776D01*
X129955589Y-88948558D01*
X130044956Y-88756910D01*
X130053293Y-88725796D01*
X130090245Y-88665173D01*
X130154106Y-88634152D01*
X130224600Y-88642580D01*
X130279347Y-88687783D01*
X130296707Y-88725796D01*
X130305044Y-88756910D01*
X130394411Y-88948558D01*
X130515699Y-89121776D01*
X130665224Y-89271301D01*
X130838442Y-89392589D01*
X130843420Y-89394910D01*
X130843423Y-89394912D01*
X130964322Y-89451288D01*
X131030090Y-89481956D01*
X131035398Y-89483378D01*
X131035400Y-89483379D01*
X131229030Y-89535262D01*
X131229032Y-89535262D01*
X131234345Y-89536686D01*
X131445000Y-89555116D01*
X131655655Y-89536686D01*
X131660968Y-89535262D01*
X131660970Y-89535262D01*
X131854600Y-89483379D01*
X131854602Y-89483378D01*
X131859910Y-89481956D01*
X131925678Y-89451288D01*
X132046577Y-89394912D01*
X132046580Y-89394910D01*
X132051558Y-89392589D01*
X132224776Y-89271301D01*
X132374301Y-89121776D01*
X132495589Y-88948558D01*
X132584956Y-88756910D01*
X132639686Y-88552655D01*
X132658116Y-88342000D01*
X132639686Y-88131345D01*
X132638262Y-88126029D01*
X132637452Y-88121437D01*
X132645321Y-88050877D01*
X132672443Y-88010461D01*
X133212499Y-87470405D01*
X133274811Y-87436379D01*
X133301594Y-87433500D01*
X140725790Y-87433500D01*
X140793911Y-87453502D01*
X140840404Y-87507158D01*
X140850508Y-87577432D01*
X140829004Y-87631767D01*
X140756411Y-87735442D01*
X140667044Y-87927090D01*
X140665622Y-87932398D01*
X140665621Y-87932400D01*
X140614969Y-88121437D01*
X140612314Y-88131345D01*
X140593884Y-88342000D01*
X140612314Y-88552655D01*
X140667044Y-88756910D01*
X140756411Y-88948558D01*
X140877699Y-89121776D01*
X141027224Y-89271301D01*
X141119770Y-89336102D01*
X141164099Y-89391559D01*
X141173500Y-89439315D01*
X141173500Y-89647592D01*
X141153498Y-89715713D01*
X141099842Y-89762206D01*
X141029568Y-89772310D01*
X140994251Y-89761787D01*
X140956897Y-89744369D01*
X140956892Y-89744367D01*
X140951910Y-89742044D01*
X140946602Y-89740622D01*
X140946600Y-89740621D01*
X140752970Y-89688738D01*
X140752968Y-89688738D01*
X140747655Y-89687314D01*
X140537000Y-89668884D01*
X140326345Y-89687314D01*
X140321032Y-89688738D01*
X140321030Y-89688738D01*
X140127400Y-89740621D01*
X140127398Y-89740622D01*
X140122090Y-89742044D01*
X140117109Y-89744366D01*
X140117108Y-89744367D01*
X139935423Y-89829088D01*
X139935420Y-89829090D01*
X139930442Y-89831411D01*
X139757224Y-89952699D01*
X139607699Y-90102224D01*
X139486411Y-90275442D01*
X139484090Y-90280420D01*
X139484088Y-90280423D01*
X139417705Y-90422783D01*
X139397044Y-90467090D01*
X139395622Y-90472398D01*
X139395621Y-90472400D01*
X139364151Y-90589848D01*
X139342314Y-90671345D01*
X139323884Y-90882000D01*
X139342314Y-91092655D01*
X139343738Y-91097968D01*
X139343738Y-91097970D01*
X139395575Y-91291426D01*
X139397044Y-91296910D01*
X139399366Y-91301891D01*
X139399367Y-91301892D01*
X139402449Y-91308500D01*
X139486411Y-91488558D01*
X139607699Y-91661776D01*
X139757224Y-91811301D01*
X139778501Y-91826199D01*
X139849770Y-91876102D01*
X139894099Y-91931559D01*
X139903500Y-91979315D01*
X139903500Y-94373561D01*
X139883498Y-94441682D01*
X139851561Y-94475497D01*
X139788747Y-94521134D01*
X139784326Y-94526044D01*
X139784325Y-94526045D01*
X139721273Y-94596072D01*
X139660960Y-94663056D01*
X139565473Y-94828444D01*
X139506458Y-95010072D01*
X139505768Y-95016633D01*
X139505768Y-95016635D01*
X139500568Y-95066108D01*
X139486496Y-95200000D01*
X139487186Y-95206565D01*
X139503712Y-95363797D01*
X139506458Y-95389928D01*
X139565473Y-95571556D01*
X139660960Y-95736944D01*
X139665378Y-95741851D01*
X139665379Y-95741852D01*
X139751465Y-95837460D01*
X139788747Y-95878866D01*
X139943248Y-95991118D01*
X139949276Y-95993802D01*
X139949278Y-95993803D01*
X140092480Y-96057560D01*
X140117712Y-96068794D01*
X140211113Y-96088647D01*
X140298056Y-96107128D01*
X140298061Y-96107128D01*
X140304513Y-96108500D01*
X140495487Y-96108500D01*
X140501939Y-96107128D01*
X140501944Y-96107128D01*
X140588887Y-96088647D01*
X140682288Y-96068794D01*
X140707520Y-96057560D01*
X140850722Y-95993803D01*
X140850724Y-95993802D01*
X140856752Y-95991118D01*
X141011253Y-95878866D01*
X141048535Y-95837460D01*
X141134621Y-95741852D01*
X141134622Y-95741851D01*
X141139040Y-95736944D01*
X141234527Y-95571556D01*
X141293542Y-95389928D01*
X141296289Y-95363797D01*
X141312814Y-95206565D01*
X141313504Y-95200000D01*
X141311824Y-95184011D01*
X141324597Y-95114173D01*
X141373100Y-95062327D01*
X141441933Y-95044934D01*
X141488382Y-95055736D01*
X141511677Y-95066108D01*
X141511685Y-95066111D01*
X141517712Y-95068794D01*
X141611113Y-95088647D01*
X141698056Y-95107128D01*
X141698061Y-95107128D01*
X141704513Y-95108500D01*
X141895487Y-95108500D01*
X141901939Y-95107128D01*
X141901944Y-95107128D01*
X141988887Y-95088647D01*
X142082288Y-95068794D01*
X142141251Y-95042542D01*
X142211618Y-95033108D01*
X142275915Y-95063214D01*
X142313729Y-95123303D01*
X142318500Y-95157649D01*
X142318500Y-95809930D01*
X142317067Y-95828880D01*
X142315762Y-95837460D01*
X142313801Y-95850349D01*
X142314394Y-95857641D01*
X142314394Y-95857644D01*
X142318085Y-95903018D01*
X142318500Y-95913233D01*
X142318500Y-95921293D01*
X142318925Y-95924937D01*
X142321789Y-95949507D01*
X142322222Y-95953882D01*
X142328140Y-96026637D01*
X142330396Y-96033601D01*
X142331587Y-96039560D01*
X142332971Y-96045415D01*
X142333818Y-96052681D01*
X142358735Y-96121327D01*
X142360152Y-96125455D01*
X142382649Y-96194900D01*
X142381783Y-96195180D01*
X142390194Y-96227236D01*
X142403268Y-96382934D01*
X142457783Y-96573050D01*
X142548187Y-96748956D01*
X142552010Y-96753780D01*
X142552013Y-96753784D01*
X142638552Y-96862970D01*
X142665189Y-96928780D01*
X142652018Y-96998544D01*
X142603220Y-97050113D01*
X142534289Y-97067113D01*
X142522576Y-97065829D01*
X142520655Y-97065314D01*
X142366521Y-97051829D01*
X142315475Y-97047363D01*
X142310000Y-97046884D01*
X142099345Y-97065314D01*
X142094032Y-97066738D01*
X142094030Y-97066738D01*
X141900400Y-97118621D01*
X141900398Y-97118622D01*
X141895090Y-97120044D01*
X141890109Y-97122366D01*
X141890108Y-97122367D01*
X141708423Y-97207088D01*
X141708420Y-97207090D01*
X141703442Y-97209411D01*
X141530224Y-97330699D01*
X141380699Y-97480224D01*
X141326148Y-97558131D01*
X141315898Y-97572770D01*
X141260441Y-97617099D01*
X141212685Y-97626500D01*
X139352928Y-97626500D01*
X139284807Y-97606498D01*
X139252105Y-97576069D01*
X139213261Y-97524239D01*
X139096705Y-97436885D01*
X138960316Y-97385755D01*
X138898134Y-97379000D01*
X137101866Y-97379000D01*
X137039684Y-97385755D01*
X136903295Y-97436885D01*
X136786739Y-97524239D01*
X136699385Y-97640795D01*
X136648255Y-97777184D01*
X136641500Y-97839366D01*
X136641500Y-99635634D01*
X136648255Y-99697816D01*
X136699385Y-99834205D01*
X136786739Y-99950761D01*
X136903295Y-100038115D01*
X136911704Y-100041267D01*
X136911705Y-100041268D01*
X137020451Y-100082035D01*
X137077216Y-100124676D01*
X137101916Y-100191238D01*
X137086709Y-100260587D01*
X137067316Y-100287068D01*
X136940629Y-100419638D01*
X136937715Y-100423910D01*
X136937714Y-100423911D01*
X136825095Y-100589004D01*
X136770184Y-100634007D01*
X136721007Y-100644000D01*
X136392095Y-100644000D01*
X136323974Y-100623998D01*
X136302998Y-100607094D01*
X136270403Y-100574498D01*
X136236379Y-100512185D01*
X136233500Y-100485404D01*
X136233500Y-94902524D01*
X136253502Y-94834403D01*
X136265858Y-94818221D01*
X136339040Y-94736944D01*
X136434527Y-94571556D01*
X136493542Y-94389928D01*
X136513504Y-94200000D01*
X136512814Y-94193435D01*
X136494232Y-94016635D01*
X136494232Y-94016633D01*
X136493542Y-94010072D01*
X136434527Y-93828444D01*
X136339040Y-93663056D01*
X136306301Y-93626695D01*
X136215675Y-93526045D01*
X136215674Y-93526044D01*
X136211253Y-93521134D01*
X136056752Y-93408882D01*
X136050724Y-93406198D01*
X136050722Y-93406197D01*
X135888319Y-93333891D01*
X135888318Y-93333891D01*
X135882288Y-93331206D01*
X135788888Y-93311353D01*
X135701944Y-93292872D01*
X135701939Y-93292872D01*
X135695487Y-93291500D01*
X135504513Y-93291500D01*
X135498061Y-93292872D01*
X135498056Y-93292872D01*
X135411113Y-93311353D01*
X135317712Y-93331206D01*
X135311682Y-93333891D01*
X135311681Y-93333891D01*
X135149278Y-93406197D01*
X135149276Y-93406198D01*
X135143248Y-93408882D01*
X134988747Y-93521134D01*
X134984326Y-93526044D01*
X134984325Y-93526045D01*
X134893700Y-93626695D01*
X134860960Y-93663056D01*
X134765473Y-93828444D01*
X134706458Y-94010072D01*
X134705768Y-94016633D01*
X134705768Y-94016635D01*
X134687186Y-94193435D01*
X134686496Y-94200000D01*
X134706458Y-94389928D01*
X134765473Y-94571556D01*
X134860960Y-94736944D01*
X134934137Y-94818215D01*
X134964853Y-94882221D01*
X134966500Y-94902524D01*
X134966500Y-100721233D01*
X134965973Y-100732416D01*
X134964298Y-100739909D01*
X134964547Y-100747835D01*
X134964547Y-100747836D01*
X134966438Y-100807986D01*
X134966500Y-100811945D01*
X134966500Y-100839856D01*
X134966997Y-100843790D01*
X134966997Y-100843791D01*
X134967005Y-100843856D01*
X134967938Y-100855693D01*
X134969327Y-100899889D01*
X134974978Y-100919339D01*
X134978987Y-100938700D01*
X134981526Y-100958797D01*
X134984445Y-100966168D01*
X134984445Y-100966170D01*
X134997804Y-100999912D01*
X135001649Y-101011142D01*
X135006373Y-101027402D01*
X135013982Y-101053593D01*
X135018015Y-101060412D01*
X135018017Y-101060417D01*
X135024293Y-101071028D01*
X135032988Y-101088776D01*
X135040448Y-101107617D01*
X135045110Y-101114033D01*
X135045110Y-101114034D01*
X135066436Y-101143387D01*
X135072952Y-101153307D01*
X135095458Y-101191362D01*
X135109779Y-101205683D01*
X135122619Y-101220716D01*
X135134528Y-101237107D01*
X135149492Y-101249486D01*
X135168593Y-101265288D01*
X135177374Y-101273278D01*
X135573853Y-101669758D01*
X135581387Y-101678037D01*
X135585500Y-101684518D01*
X135635151Y-101731143D01*
X135637993Y-101733898D01*
X135657730Y-101753635D01*
X135660927Y-101756115D01*
X135669947Y-101763818D01*
X135702179Y-101794086D01*
X135709125Y-101797905D01*
X135709128Y-101797907D01*
X135719934Y-101803848D01*
X135736453Y-101814699D01*
X135752459Y-101827114D01*
X135759728Y-101830259D01*
X135759732Y-101830262D01*
X135793037Y-101844674D01*
X135803687Y-101849891D01*
X135842440Y-101871195D01*
X135850115Y-101873166D01*
X135850116Y-101873166D01*
X135862062Y-101876233D01*
X135880767Y-101882637D01*
X135899355Y-101890681D01*
X135907178Y-101891920D01*
X135907188Y-101891923D01*
X135943024Y-101897599D01*
X135954644Y-101900005D01*
X135989789Y-101909028D01*
X135997470Y-101911000D01*
X136017724Y-101911000D01*
X136037434Y-101912551D01*
X136057443Y-101915720D01*
X136065335Y-101914974D01*
X136101461Y-101911559D01*
X136113319Y-101911000D01*
X136724274Y-101911000D01*
X136792395Y-101931002D01*
X136831707Y-101971165D01*
X136899987Y-102082588D01*
X137046250Y-102251438D01*
X137218126Y-102394132D01*
X137411000Y-102506838D01*
X137619692Y-102586530D01*
X137624760Y-102587561D01*
X137624763Y-102587562D01*
X137732017Y-102609383D01*
X137838597Y-102631067D01*
X137843772Y-102631257D01*
X137843774Y-102631257D01*
X138056673Y-102639064D01*
X138056677Y-102639064D01*
X138061837Y-102639253D01*
X138066957Y-102638597D01*
X138066959Y-102638597D01*
X138278288Y-102611525D01*
X138278289Y-102611525D01*
X138283416Y-102610868D01*
X138288366Y-102609383D01*
X138492429Y-102548161D01*
X138492434Y-102548159D01*
X138497384Y-102546674D01*
X138697994Y-102448396D01*
X138879860Y-102318673D01*
X138906059Y-102292566D01*
X139034435Y-102164637D01*
X139038096Y-102160989D01*
X139101327Y-102072994D01*
X139165435Y-101983777D01*
X139168453Y-101979577D01*
X139172611Y-101971165D01*
X139265136Y-101783953D01*
X139265137Y-101783951D01*
X139267430Y-101779311D01*
X139332370Y-101565569D01*
X139361529Y-101344090D01*
X139362634Y-101298883D01*
X139363074Y-101280865D01*
X139363074Y-101280861D01*
X139363156Y-101277500D01*
X139344852Y-101054861D01*
X139290431Y-100838202D01*
X139201354Y-100633340D01*
X139080014Y-100445777D01*
X139076532Y-100441950D01*
X138932798Y-100283988D01*
X138901746Y-100220142D01*
X138910141Y-100149643D01*
X138955317Y-100094875D01*
X138981761Y-100081206D01*
X139088297Y-100041267D01*
X139096705Y-100038115D01*
X139213261Y-99950761D01*
X139300615Y-99834205D01*
X139351745Y-99697816D01*
X139358500Y-99635634D01*
X139358500Y-99019500D01*
X139378502Y-98951379D01*
X139432158Y-98904886D01*
X139484500Y-98893500D01*
X141212685Y-98893500D01*
X141280806Y-98913502D01*
X141315898Y-98947230D01*
X141380699Y-99039776D01*
X141530224Y-99189301D01*
X141703442Y-99310589D01*
X141708420Y-99312910D01*
X141708423Y-99312912D01*
X141890108Y-99397633D01*
X141895090Y-99399956D01*
X141900398Y-99401378D01*
X141900400Y-99401379D01*
X142094030Y-99453262D01*
X142094032Y-99453262D01*
X142099345Y-99454686D01*
X142310000Y-99473116D01*
X142520655Y-99454686D01*
X142525968Y-99453262D01*
X142525970Y-99453262D01*
X142719600Y-99401379D01*
X142719602Y-99401378D01*
X142724910Y-99399956D01*
X142729892Y-99397633D01*
X142911577Y-99312912D01*
X142911580Y-99312910D01*
X142916558Y-99310589D01*
X143089776Y-99189301D01*
X143239301Y-99039776D01*
X143360589Y-98866558D01*
X143449956Y-98674910D01*
X143504686Y-98470655D01*
X143523116Y-98260000D01*
X143504686Y-98049345D01*
X143465967Y-97904842D01*
X143451379Y-97850400D01*
X143451378Y-97850398D01*
X143449956Y-97845090D01*
X143360589Y-97653442D01*
X143239301Y-97480224D01*
X143174486Y-97415409D01*
X143140460Y-97353097D01*
X143145525Y-97282282D01*
X143188072Y-97225446D01*
X143254592Y-97200635D01*
X143278495Y-97201200D01*
X143378777Y-97213158D01*
X143384912Y-97212686D01*
X143384914Y-97212686D01*
X143569830Y-97198457D01*
X143569834Y-97198456D01*
X143575972Y-97197984D01*
X143766463Y-97144798D01*
X143771967Y-97142018D01*
X143771969Y-97142017D01*
X143937495Y-97058404D01*
X143937497Y-97058403D01*
X143942996Y-97055625D01*
X144098847Y-96933861D01*
X144228078Y-96784145D01*
X144325769Y-96612179D01*
X144388197Y-96424513D01*
X144412985Y-96228295D01*
X144413380Y-96200000D01*
X144394080Y-96003167D01*
X144389271Y-95987237D01*
X144360341Y-95891418D01*
X144336916Y-95813831D01*
X144244066Y-95639204D01*
X144173709Y-95552938D01*
X144122960Y-95490713D01*
X144122957Y-95490710D01*
X144119065Y-95485938D01*
X143966675Y-95359870D01*
X143901571Y-95324668D01*
X143851162Y-95274674D01*
X143835500Y-95213833D01*
X143835500Y-91896261D01*
X144967294Y-91896261D01*
X144976590Y-91908276D01*
X145006189Y-91929001D01*
X145015677Y-91934479D01*
X145197277Y-92019159D01*
X145207571Y-92022907D01*
X145401122Y-92074769D01*
X145411909Y-92076671D01*
X145611525Y-92094135D01*
X145622475Y-92094135D01*
X145822091Y-92076671D01*
X145832878Y-92074769D01*
X146026429Y-92022907D01*
X146036723Y-92019159D01*
X146218323Y-91934479D01*
X146227811Y-91929001D01*
X146258248Y-91907689D01*
X146266623Y-91897212D01*
X146259554Y-91883764D01*
X145629812Y-91254022D01*
X145615868Y-91246408D01*
X145614035Y-91246539D01*
X145607420Y-91250790D01*
X144973724Y-91884486D01*
X144967294Y-91896261D01*
X143835500Y-91896261D01*
X143835500Y-91884767D01*
X143855502Y-91816646D01*
X143872405Y-91795672D01*
X144006301Y-91661776D01*
X144127589Y-91488558D01*
X144211552Y-91308500D01*
X144214633Y-91301892D01*
X144214634Y-91301891D01*
X144216956Y-91296910D01*
X144218379Y-91291600D01*
X144218382Y-91291592D01*
X144225553Y-91264829D01*
X144262504Y-91204207D01*
X144326365Y-91173185D01*
X144396860Y-91181614D01*
X144451606Y-91226818D01*
X144468966Y-91264830D01*
X144476092Y-91291426D01*
X144479841Y-91301723D01*
X144564521Y-91483323D01*
X144569999Y-91492811D01*
X144591311Y-91523248D01*
X144601788Y-91531623D01*
X144615236Y-91524554D01*
X145244978Y-90894812D01*
X145252592Y-90880868D01*
X145252461Y-90879035D01*
X145248210Y-90872420D01*
X144614514Y-90238724D01*
X144602739Y-90232294D01*
X144590724Y-90241590D01*
X144569999Y-90271189D01*
X144564521Y-90280677D01*
X144479841Y-90462277D01*
X144476092Y-90472574D01*
X144468966Y-90499170D01*
X144432014Y-90559793D01*
X144368154Y-90590814D01*
X144297659Y-90582386D01*
X144242912Y-90537183D01*
X144225553Y-90499171D01*
X144218382Y-90472408D01*
X144218378Y-90472397D01*
X144216956Y-90467090D01*
X144196295Y-90422783D01*
X144129912Y-90280423D01*
X144129910Y-90280420D01*
X144127589Y-90275442D01*
X144006301Y-90102224D01*
X143856776Y-89952699D01*
X143734082Y-89866788D01*
X144967377Y-89866788D01*
X144974446Y-89880236D01*
X145604188Y-90509978D01*
X145618132Y-90517592D01*
X145619965Y-90517461D01*
X145626580Y-90513210D01*
X146260276Y-89879514D01*
X146266706Y-89867739D01*
X146257410Y-89855724D01*
X146227811Y-89834999D01*
X146218323Y-89829521D01*
X146036723Y-89744841D01*
X146026429Y-89741093D01*
X145832878Y-89689231D01*
X145822091Y-89687329D01*
X145622475Y-89669865D01*
X145611525Y-89669865D01*
X145411909Y-89687329D01*
X145401122Y-89689231D01*
X145207571Y-89741093D01*
X145197277Y-89744841D01*
X145015677Y-89829521D01*
X145006189Y-89834999D01*
X144975752Y-89856311D01*
X144967377Y-89866788D01*
X143734082Y-89866788D01*
X143683558Y-89831411D01*
X143678580Y-89829090D01*
X143678577Y-89829088D01*
X143496892Y-89744367D01*
X143496891Y-89744366D01*
X143491910Y-89742044D01*
X143486602Y-89740622D01*
X143486600Y-89740621D01*
X143292970Y-89688738D01*
X143292968Y-89688738D01*
X143287655Y-89687314D01*
X143077000Y-89668884D01*
X142866345Y-89687314D01*
X142861032Y-89688738D01*
X142861030Y-89688738D01*
X142667400Y-89740621D01*
X142667398Y-89740622D01*
X142662090Y-89742044D01*
X142657108Y-89744367D01*
X142657103Y-89744369D01*
X142619749Y-89761787D01*
X142549557Y-89772448D01*
X142484745Y-89743467D01*
X142445889Y-89684047D01*
X142440500Y-89647592D01*
X142440500Y-89439315D01*
X142460502Y-89371194D01*
X142494230Y-89336102D01*
X142586776Y-89271301D01*
X142736301Y-89121776D01*
X142857589Y-88948558D01*
X142946956Y-88756910D01*
X142955293Y-88725796D01*
X142992245Y-88665173D01*
X143056106Y-88634152D01*
X143126600Y-88642580D01*
X143181347Y-88687783D01*
X143198707Y-88725796D01*
X143207044Y-88756910D01*
X143296411Y-88948558D01*
X143417699Y-89121776D01*
X143567224Y-89271301D01*
X143740442Y-89392589D01*
X143745420Y-89394910D01*
X143745423Y-89394912D01*
X143866322Y-89451288D01*
X143932090Y-89481956D01*
X143937398Y-89483378D01*
X143937400Y-89483379D01*
X144131030Y-89535262D01*
X144131032Y-89535262D01*
X144136345Y-89536686D01*
X144347000Y-89555116D01*
X144557655Y-89536686D01*
X144562968Y-89535262D01*
X144562970Y-89535262D01*
X144756600Y-89483379D01*
X144756602Y-89483378D01*
X144761910Y-89481956D01*
X144827678Y-89451288D01*
X144948577Y-89394912D01*
X144948580Y-89394910D01*
X144953558Y-89392589D01*
X145126776Y-89271301D01*
X145276301Y-89121776D01*
X145397589Y-88948558D01*
X145486956Y-88756910D01*
X145495293Y-88725796D01*
X145532245Y-88665173D01*
X145596106Y-88634152D01*
X145666600Y-88642580D01*
X145721347Y-88687783D01*
X145738707Y-88725796D01*
X145747044Y-88756910D01*
X145836411Y-88948558D01*
X145957699Y-89121776D01*
X146107224Y-89271301D01*
X146280442Y-89392589D01*
X146285420Y-89394910D01*
X146285423Y-89394912D01*
X146406322Y-89451288D01*
X146472090Y-89481956D01*
X146477398Y-89483378D01*
X146477400Y-89483379D01*
X146671030Y-89535262D01*
X146671032Y-89535262D01*
X146676345Y-89536686D01*
X146887000Y-89555116D01*
X147097655Y-89536686D01*
X147102968Y-89535262D01*
X147102970Y-89535262D01*
X147296600Y-89483379D01*
X147296602Y-89483378D01*
X147301910Y-89481956D01*
X147367678Y-89451288D01*
X147488577Y-89394912D01*
X147488580Y-89394910D01*
X147493558Y-89392589D01*
X147666776Y-89271301D01*
X147816301Y-89121776D01*
X147937589Y-88948558D01*
X148026956Y-88756910D01*
X148035293Y-88725796D01*
X148072245Y-88665173D01*
X148136106Y-88634152D01*
X148206600Y-88642580D01*
X148261347Y-88687783D01*
X148278707Y-88725796D01*
X148287044Y-88756910D01*
X148376411Y-88948558D01*
X148497699Y-89121776D01*
X148647224Y-89271301D01*
X148651736Y-89274460D01*
X148743646Y-89338816D01*
X148787975Y-89394273D01*
X148795824Y-89422316D01*
X148796078Y-89423920D01*
X148796327Y-89431838D01*
X148798537Y-89439445D01*
X148801978Y-89451288D01*
X148805987Y-89470649D01*
X148807416Y-89481956D01*
X148808526Y-89490746D01*
X148811445Y-89498117D01*
X148811445Y-89498119D01*
X148824804Y-89531861D01*
X148828649Y-89543091D01*
X148840982Y-89585542D01*
X148845015Y-89592361D01*
X148845017Y-89592366D01*
X148851293Y-89602977D01*
X148859988Y-89620725D01*
X148867448Y-89639566D01*
X148864255Y-89640830D01*
X148876189Y-89694894D01*
X148851581Y-89761490D01*
X148794875Y-89804209D01*
X148724075Y-89809489D01*
X148697233Y-89800483D01*
X148576892Y-89744367D01*
X148576891Y-89744366D01*
X148571910Y-89742044D01*
X148566602Y-89740622D01*
X148566600Y-89740621D01*
X148372970Y-89688738D01*
X148372968Y-89688738D01*
X148367655Y-89687314D01*
X148157000Y-89668884D01*
X147946345Y-89687314D01*
X147941032Y-89688738D01*
X147941030Y-89688738D01*
X147747400Y-89740621D01*
X147747398Y-89740622D01*
X147742090Y-89742044D01*
X147737109Y-89744366D01*
X147737108Y-89744367D01*
X147555423Y-89829088D01*
X147555420Y-89829090D01*
X147550442Y-89831411D01*
X147377224Y-89952699D01*
X147227699Y-90102224D01*
X147106411Y-90275442D01*
X147104090Y-90280420D01*
X147104088Y-90280423D01*
X147037705Y-90422783D01*
X147017044Y-90467090D01*
X147015622Y-90472397D01*
X147015618Y-90472408D01*
X147008447Y-90499171D01*
X146971496Y-90559793D01*
X146907635Y-90590815D01*
X146837140Y-90582386D01*
X146782394Y-90537182D01*
X146765034Y-90499170D01*
X146757908Y-90472574D01*
X146754159Y-90462277D01*
X146669479Y-90280677D01*
X146664001Y-90271189D01*
X146642689Y-90240752D01*
X146632212Y-90232377D01*
X146618764Y-90239446D01*
X145989022Y-90869188D01*
X145981408Y-90883132D01*
X145981539Y-90884965D01*
X145985790Y-90891580D01*
X146619486Y-91525276D01*
X146631261Y-91531706D01*
X146643276Y-91522410D01*
X146664001Y-91492811D01*
X146669479Y-91483323D01*
X146754159Y-91301723D01*
X146757908Y-91291426D01*
X146765034Y-91264830D01*
X146801986Y-91204207D01*
X146865846Y-91173186D01*
X146936341Y-91181614D01*
X146991088Y-91226817D01*
X147008447Y-91264829D01*
X147015618Y-91291592D01*
X147015621Y-91291600D01*
X147017044Y-91296910D01*
X147019366Y-91301891D01*
X147019367Y-91301892D01*
X147022449Y-91308500D01*
X147106411Y-91488558D01*
X147227699Y-91661776D01*
X147377224Y-91811301D01*
X147550442Y-91932589D01*
X147555420Y-91934910D01*
X147555423Y-91934912D01*
X147650646Y-91979315D01*
X147742090Y-92021956D01*
X147747398Y-92023378D01*
X147747400Y-92023379D01*
X147941030Y-92075262D01*
X147941032Y-92075262D01*
X147946345Y-92076686D01*
X148157000Y-92095116D01*
X148367655Y-92076686D01*
X148372968Y-92075262D01*
X148372970Y-92075262D01*
X148566600Y-92023379D01*
X148566602Y-92023378D01*
X148571910Y-92021956D01*
X148663354Y-91979315D01*
X148758577Y-91934912D01*
X148758580Y-91934910D01*
X148763558Y-91932589D01*
X148936776Y-91811301D01*
X149086301Y-91661776D01*
X149207589Y-91488558D01*
X149291552Y-91308500D01*
X149294633Y-91301892D01*
X149294634Y-91301891D01*
X149296956Y-91296910D01*
X149298426Y-91291426D01*
X149350262Y-91097970D01*
X149350262Y-91097968D01*
X149351686Y-91092655D01*
X149370116Y-90882000D01*
X149351686Y-90671345D01*
X149329849Y-90589848D01*
X149298379Y-90472400D01*
X149298378Y-90472398D01*
X149296956Y-90467090D01*
X149294631Y-90462103D01*
X149276296Y-90422783D01*
X149265635Y-90352592D01*
X149294615Y-90287779D01*
X149354035Y-90248923D01*
X149425030Y-90248360D01*
X149479586Y-90280439D01*
X154929595Y-95730448D01*
X154963621Y-95792760D01*
X154966500Y-95819543D01*
X154966500Y-108235405D01*
X154946498Y-108303526D01*
X154929595Y-108324500D01*
X149022423Y-114231672D01*
X148960111Y-114265698D01*
X148900717Y-114264284D01*
X148884556Y-114259954D01*
X148869371Y-114255885D01*
X148650000Y-114236693D01*
X148430629Y-114255885D01*
X148217924Y-114312880D01*
X148124562Y-114356415D01*
X148023334Y-114403618D01*
X148023329Y-114403621D01*
X148018347Y-114405944D01*
X148013840Y-114409100D01*
X148013838Y-114409101D01*
X147842473Y-114529092D01*
X147842470Y-114529094D01*
X147837962Y-114532251D01*
X147682251Y-114687962D01*
X147679094Y-114692470D01*
X147679092Y-114692473D01*
X147587214Y-114823689D01*
X147555944Y-114868347D01*
X147553621Y-114873329D01*
X147553618Y-114873334D01*
X147553502Y-114873583D01*
X147462880Y-115067924D01*
X147405885Y-115280629D01*
X147386693Y-115500000D01*
X147405885Y-115719371D01*
X147462880Y-115932076D01*
X147465205Y-115937061D01*
X147553618Y-116126666D01*
X147553621Y-116126671D01*
X147555944Y-116131653D01*
X147559100Y-116136160D01*
X147559101Y-116136162D01*
X147667538Y-116291025D01*
X147682251Y-116312038D01*
X147837962Y-116467749D01*
X148018346Y-116594056D01*
X148023331Y-116596380D01*
X148023337Y-116596384D01*
X148107877Y-116635805D01*
X148161163Y-116682722D01*
X148180624Y-116750999D01*
X148160082Y-116818959D01*
X148107878Y-116864195D01*
X148023334Y-116903618D01*
X148023329Y-116903621D01*
X148018347Y-116905944D01*
X148013840Y-116909100D01*
X148013838Y-116909101D01*
X147842473Y-117029092D01*
X147842470Y-117029094D01*
X147837962Y-117032251D01*
X147689095Y-117181118D01*
X147626783Y-117215144D01*
X147555968Y-117210079D01*
X147510905Y-117181118D01*
X147362038Y-117032251D01*
X147352706Y-117025716D01*
X147244342Y-116949839D01*
X147181654Y-116905944D01*
X146982076Y-116812880D01*
X146769371Y-116755885D01*
X146550000Y-116736693D01*
X146330629Y-116755885D01*
X146117924Y-116812880D01*
X146047226Y-116845847D01*
X145923334Y-116903618D01*
X145923329Y-116903621D01*
X145918347Y-116905944D01*
X145913840Y-116909100D01*
X145913838Y-116909101D01*
X145742473Y-117029092D01*
X145742470Y-117029094D01*
X145737962Y-117032251D01*
X145582251Y-117187962D01*
X145579094Y-117192470D01*
X145579092Y-117192473D01*
X145459101Y-117363838D01*
X145455944Y-117368347D01*
X145453619Y-117373332D01*
X145453616Y-117373338D01*
X145363920Y-117565694D01*
X145317003Y-117618980D01*
X145248726Y-117638441D01*
X145180766Y-117617899D01*
X145135530Y-117565695D01*
X145045946Y-117373583D01*
X145040466Y-117364093D01*
X145011589Y-117322851D01*
X145001113Y-117314477D01*
X144987666Y-117321545D01*
X144322021Y-117987189D01*
X144314408Y-118001132D01*
X144314539Y-118002966D01*
X144318790Y-118009580D01*
X144988391Y-118679180D01*
X145000161Y-118685607D01*
X145012176Y-118676311D01*
X145040466Y-118635907D01*
X145045946Y-118626417D01*
X145135530Y-118434305D01*
X145182448Y-118381020D01*
X145250725Y-118361559D01*
X145318685Y-118382101D01*
X145363920Y-118434306D01*
X145453616Y-118626662D01*
X145453619Y-118626668D01*
X145455944Y-118631653D01*
X145459100Y-118636160D01*
X145459101Y-118636162D01*
X145566765Y-118789921D01*
X145582251Y-118812038D01*
X145737962Y-118967749D01*
X145742471Y-118970906D01*
X145742473Y-118970908D01*
X145789555Y-119003875D01*
X145918346Y-119094056D01*
X146117924Y-119187120D01*
X146330629Y-119244115D01*
X146550000Y-119263307D01*
X146769371Y-119244115D01*
X146982076Y-119187120D01*
X147181654Y-119094056D01*
X147310445Y-119003875D01*
X147357527Y-118970908D01*
X147357529Y-118970906D01*
X147362038Y-118967749D01*
X147510905Y-118818882D01*
X147573217Y-118784856D01*
X147644032Y-118789921D01*
X147689095Y-118818882D01*
X147837962Y-118967749D01*
X147842470Y-118970906D01*
X147842473Y-118970908D01*
X147889555Y-119003875D01*
X147962772Y-119055142D01*
X148007099Y-119110598D01*
X148016500Y-119158354D01*
X148016500Y-121019900D01*
X147996498Y-121088021D01*
X147979595Y-121108995D01*
X147675181Y-121413409D01*
X147612869Y-121447435D01*
X147542054Y-121442370D01*
X147485218Y-121399823D01*
X147462507Y-121348896D01*
X147436546Y-121218383D01*
X147434412Y-121210420D01*
X147341922Y-120937953D01*
X147338772Y-120930349D01*
X147211508Y-120672282D01*
X147207387Y-120665145D01*
X147047530Y-120425901D01*
X147042512Y-120419361D01*
X147029853Y-120404926D01*
X147016614Y-120396528D01*
X147006849Y-120402362D01*
X145609210Y-121800000D01*
X145339095Y-122070115D01*
X145276783Y-122104141D01*
X145205967Y-122099076D01*
X145160905Y-122070115D01*
X144890790Y-121800000D01*
X143494905Y-120404116D01*
X143481144Y-120396602D01*
X143471783Y-120403060D01*
X143457488Y-120419361D01*
X143452470Y-120425901D01*
X143292613Y-120665145D01*
X143288492Y-120672282D01*
X143161228Y-120930349D01*
X143158078Y-120937953D01*
X143065588Y-121210420D01*
X143063454Y-121218383D01*
X143007317Y-121500600D01*
X143006244Y-121508751D01*
X142987425Y-121795881D01*
X142987425Y-121804119D01*
X143006244Y-122091249D01*
X143007317Y-122099400D01*
X143063454Y-122381617D01*
X143065588Y-122389580D01*
X143158078Y-122662047D01*
X143161228Y-122669651D01*
X143288492Y-122927718D01*
X143292613Y-122934855D01*
X143366542Y-123045498D01*
X143387757Y-123113251D01*
X143368974Y-123181718D01*
X143316157Y-123229161D01*
X143261777Y-123241500D01*
X139600335Y-123241500D01*
X139532214Y-123221498D01*
X139485721Y-123167842D01*
X139475617Y-123097568D01*
X139505111Y-123032988D01*
X139544607Y-123002494D01*
X139627719Y-122961508D01*
X139634856Y-122957387D01*
X139874099Y-122797530D01*
X139880639Y-122792512D01*
X139895074Y-122779853D01*
X139903472Y-122766614D01*
X139897638Y-122756849D01*
X138512810Y-121372020D01*
X138498869Y-121364408D01*
X138497034Y-121364539D01*
X138490420Y-121368790D01*
X137104116Y-122755095D01*
X137096601Y-122768856D01*
X137103059Y-122778216D01*
X137119361Y-122792512D01*
X137125901Y-122797530D01*
X137365144Y-122957387D01*
X137372281Y-122961508D01*
X137455393Y-123002494D01*
X137507642Y-123050562D01*
X137525609Y-123119248D01*
X137503590Y-123186744D01*
X137448575Y-123231620D01*
X137399665Y-123241500D01*
X135600335Y-123241500D01*
X135532214Y-123221498D01*
X135485721Y-123167842D01*
X135475617Y-123097568D01*
X135505111Y-123032988D01*
X135544607Y-123002494D01*
X135627719Y-122961508D01*
X135634856Y-122957387D01*
X135874099Y-122797530D01*
X135880639Y-122792512D01*
X135895074Y-122779853D01*
X135903472Y-122766614D01*
X135897638Y-122756849D01*
X134512810Y-121372020D01*
X134498869Y-121364408D01*
X134497034Y-121364539D01*
X134490420Y-121368790D01*
X133104116Y-122755095D01*
X133096601Y-122768856D01*
X133103059Y-122778216D01*
X133119361Y-122792512D01*
X133125901Y-122797530D01*
X133365144Y-122957387D01*
X133372281Y-122961508D01*
X133455393Y-123002494D01*
X133507642Y-123050562D01*
X133525609Y-123119248D01*
X133503590Y-123186744D01*
X133448575Y-123231620D01*
X133399665Y-123241500D01*
X129238223Y-123241500D01*
X129170102Y-123221498D01*
X129123609Y-123167842D01*
X129113505Y-123097568D01*
X129133458Y-123045498D01*
X129207387Y-122934855D01*
X129211508Y-122927718D01*
X129338772Y-122669651D01*
X129341922Y-122662047D01*
X129434412Y-122389580D01*
X129436546Y-122381617D01*
X129492683Y-122099400D01*
X129493756Y-122091249D01*
X129512575Y-121804119D01*
X129512575Y-121795881D01*
X129493756Y-121508751D01*
X129492683Y-121500600D01*
X129436546Y-121218383D01*
X129434412Y-121210420D01*
X129364382Y-121004119D01*
X132237425Y-121004119D01*
X132256244Y-121291249D01*
X132257317Y-121299400D01*
X132313454Y-121581617D01*
X132315588Y-121589580D01*
X132408078Y-121862047D01*
X132411228Y-121869651D01*
X132538492Y-122127718D01*
X132542613Y-122134855D01*
X132702470Y-122374099D01*
X132707488Y-122380639D01*
X132720147Y-122395074D01*
X132733386Y-122403472D01*
X132743151Y-122397638D01*
X134127980Y-121012810D01*
X134134357Y-121001131D01*
X134864408Y-121001131D01*
X134864539Y-121002966D01*
X134868790Y-121009580D01*
X136255095Y-122395884D01*
X136268856Y-122403399D01*
X136278216Y-122396941D01*
X136292512Y-122380639D01*
X136297530Y-122374099D01*
X136395235Y-122227873D01*
X136449711Y-122182346D01*
X136520155Y-122173497D01*
X136584199Y-122204138D01*
X136604765Y-122227873D01*
X136702470Y-122374099D01*
X136707488Y-122380639D01*
X136720147Y-122395074D01*
X136733386Y-122403472D01*
X136743151Y-122397638D01*
X138127980Y-121012810D01*
X138134357Y-121001131D01*
X138864408Y-121001131D01*
X138864539Y-121002966D01*
X138868790Y-121009580D01*
X140255095Y-122395884D01*
X140268856Y-122403399D01*
X140278216Y-122396941D01*
X140292512Y-122380639D01*
X140297530Y-122374099D01*
X140457387Y-122134855D01*
X140461508Y-122127718D01*
X140588772Y-121869651D01*
X140591922Y-121862047D01*
X140684412Y-121589580D01*
X140686546Y-121581617D01*
X140742683Y-121299400D01*
X140743756Y-121291249D01*
X140762575Y-121004119D01*
X140762575Y-120995881D01*
X140743756Y-120708751D01*
X140742683Y-120700600D01*
X140686546Y-120418383D01*
X140684412Y-120410420D01*
X140591922Y-120137953D01*
X140588772Y-120130349D01*
X140540955Y-120033386D01*
X143846528Y-120033386D01*
X143852362Y-120043151D01*
X145237190Y-121427980D01*
X145251131Y-121435592D01*
X145252966Y-121435461D01*
X145259580Y-121431210D01*
X146645884Y-120044905D01*
X146653399Y-120031144D01*
X146646941Y-120021784D01*
X146630639Y-120007488D01*
X146624099Y-120002470D01*
X146384856Y-119842613D01*
X146377719Y-119838492D01*
X146119651Y-119711228D01*
X146112047Y-119708078D01*
X145839580Y-119615588D01*
X145831617Y-119613454D01*
X145549400Y-119557317D01*
X145541249Y-119556244D01*
X145254119Y-119537425D01*
X145245881Y-119537425D01*
X144958751Y-119556244D01*
X144950600Y-119557317D01*
X144668383Y-119613454D01*
X144660420Y-119615588D01*
X144387953Y-119708078D01*
X144380349Y-119711228D01*
X144122282Y-119838492D01*
X144115145Y-119842613D01*
X143875901Y-120002470D01*
X143869361Y-120007488D01*
X143854926Y-120020147D01*
X143846528Y-120033386D01*
X140540955Y-120033386D01*
X140461508Y-119872282D01*
X140457387Y-119865145D01*
X140297530Y-119625901D01*
X140292512Y-119619361D01*
X140279853Y-119604926D01*
X140266614Y-119596528D01*
X140256849Y-119602362D01*
X138872020Y-120987190D01*
X138864408Y-121001131D01*
X138134357Y-121001131D01*
X138135592Y-120998869D01*
X138135461Y-120997034D01*
X138131210Y-120990420D01*
X136744905Y-119604116D01*
X136731144Y-119596601D01*
X136721784Y-119603059D01*
X136707488Y-119619361D01*
X136702470Y-119625901D01*
X136604765Y-119772127D01*
X136550289Y-119817654D01*
X136479845Y-119826503D01*
X136415801Y-119795862D01*
X136395235Y-119772127D01*
X136297530Y-119625901D01*
X136292512Y-119619361D01*
X136279853Y-119604926D01*
X136266614Y-119596528D01*
X136256849Y-119602362D01*
X134872020Y-120987190D01*
X134864408Y-121001131D01*
X134134357Y-121001131D01*
X134135592Y-120998869D01*
X134135461Y-120997034D01*
X134131210Y-120990420D01*
X132744905Y-119604116D01*
X132731144Y-119596601D01*
X132721784Y-119603059D01*
X132707488Y-119619361D01*
X132702470Y-119625901D01*
X132542613Y-119865145D01*
X132538492Y-119872282D01*
X132411228Y-120130349D01*
X132408078Y-120137953D01*
X132315588Y-120410420D01*
X132313454Y-120418383D01*
X132257317Y-120700600D01*
X132256244Y-120708751D01*
X132237425Y-120995881D01*
X132237425Y-121004119D01*
X129364382Y-121004119D01*
X129341922Y-120937953D01*
X129338772Y-120930349D01*
X129211508Y-120672282D01*
X129207387Y-120665145D01*
X129047530Y-120425901D01*
X129042512Y-120419361D01*
X129029853Y-120404926D01*
X129016614Y-120396528D01*
X129006849Y-120402362D01*
X127339095Y-122070115D01*
X127276783Y-122104141D01*
X127205967Y-122099076D01*
X127160905Y-122070115D01*
X125494905Y-120404116D01*
X125481144Y-120396601D01*
X125471784Y-120403059D01*
X125457488Y-120419361D01*
X125452465Y-120425907D01*
X125339265Y-120595324D01*
X125284789Y-120640852D01*
X125214346Y-120649701D01*
X125150301Y-120619060D01*
X125112990Y-120558658D01*
X125108500Y-120525323D01*
X125108500Y-120033386D01*
X125846528Y-120033386D01*
X125852362Y-120043151D01*
X127237190Y-121427980D01*
X127251131Y-121435592D01*
X127252966Y-121435461D01*
X127259580Y-121431210D01*
X128645884Y-120044905D01*
X128653399Y-120031144D01*
X128646941Y-120021784D01*
X128630639Y-120007488D01*
X128624099Y-120002470D01*
X128384856Y-119842613D01*
X128377719Y-119838492D01*
X128119651Y-119711228D01*
X128112047Y-119708078D01*
X127839580Y-119615588D01*
X127831617Y-119613454D01*
X127549400Y-119557317D01*
X127541249Y-119556244D01*
X127254119Y-119537425D01*
X127245881Y-119537425D01*
X126958751Y-119556244D01*
X126950600Y-119557317D01*
X126668383Y-119613454D01*
X126660420Y-119615588D01*
X126387953Y-119708078D01*
X126380349Y-119711228D01*
X126122282Y-119838492D01*
X126115145Y-119842613D01*
X125875901Y-120002470D01*
X125869361Y-120007488D01*
X125854926Y-120020147D01*
X125846528Y-120033386D01*
X125108500Y-120033386D01*
X125108500Y-119348802D01*
X125128502Y-119280681D01*
X125182158Y-119234188D01*
X125252432Y-119224084D01*
X125267112Y-119227096D01*
X125325309Y-119242690D01*
X125325315Y-119242691D01*
X125330629Y-119244115D01*
X125550000Y-119263307D01*
X125769371Y-119244115D01*
X125982076Y-119187120D01*
X126181654Y-119094056D01*
X126244342Y-119050161D01*
X126864393Y-119050161D01*
X126873687Y-119062175D01*
X126914088Y-119090464D01*
X126923584Y-119095947D01*
X127113113Y-119184326D01*
X127123405Y-119188072D01*
X127325401Y-119242196D01*
X127336196Y-119244099D01*
X127544525Y-119262326D01*
X127555475Y-119262326D01*
X127763804Y-119244099D01*
X127774599Y-119242196D01*
X127976595Y-119188072D01*
X127986887Y-119184326D01*
X128176416Y-119095947D01*
X128185912Y-119090464D01*
X128227148Y-119061590D01*
X128235523Y-119051112D01*
X128228457Y-119037668D01*
X127562811Y-118372021D01*
X127548868Y-118364408D01*
X127547034Y-118364539D01*
X127540420Y-118368790D01*
X126870820Y-119038391D01*
X126864393Y-119050161D01*
X126244342Y-119050161D01*
X126310445Y-119003875D01*
X126357527Y-118970908D01*
X126357529Y-118970906D01*
X126362038Y-118967749D01*
X126517749Y-118812038D01*
X126533236Y-118789921D01*
X126640899Y-118636162D01*
X126640900Y-118636160D01*
X126644056Y-118631653D01*
X126646379Y-118626671D01*
X126646382Y-118626666D01*
X126708864Y-118492671D01*
X126733964Y-118456825D01*
X127177979Y-118012811D01*
X127185592Y-117998868D01*
X127185461Y-117997034D01*
X127181210Y-117990420D01*
X126733964Y-117543175D01*
X126708864Y-117507329D01*
X126646382Y-117373334D01*
X126646379Y-117373329D01*
X126644056Y-117368347D01*
X126640899Y-117363838D01*
X126520908Y-117192473D01*
X126520906Y-117192470D01*
X126517749Y-117187962D01*
X126362038Y-117032251D01*
X126352706Y-117025716D01*
X126244342Y-116949839D01*
X126181654Y-116905944D01*
X125982076Y-116812880D01*
X125976766Y-116811457D01*
X125976760Y-116811455D01*
X125944428Y-116802792D01*
X125883805Y-116765841D01*
X125852783Y-116701980D01*
X125861211Y-116631486D01*
X125904767Y-116577872D01*
X125944342Y-116550161D01*
X126564393Y-116550161D01*
X126573687Y-116562175D01*
X126614088Y-116590464D01*
X126623584Y-116595947D01*
X126813113Y-116684326D01*
X126823407Y-116688073D01*
X126856737Y-116697003D01*
X126917360Y-116733954D01*
X126948382Y-116797814D01*
X126939954Y-116868309D01*
X126896397Y-116921924D01*
X126872851Y-116938411D01*
X126864477Y-116948887D01*
X126871545Y-116962334D01*
X127537189Y-117627979D01*
X127551132Y-117635592D01*
X127552966Y-117635461D01*
X127559580Y-117631210D01*
X128229180Y-116961609D01*
X128235607Y-116949839D01*
X128226313Y-116937825D01*
X128185912Y-116909536D01*
X128176416Y-116904053D01*
X127986887Y-116815674D01*
X127976593Y-116811927D01*
X127943263Y-116802997D01*
X127882640Y-116766046D01*
X127851618Y-116702186D01*
X127860046Y-116631691D01*
X127903603Y-116578077D01*
X127927147Y-116561591D01*
X127935523Y-116551112D01*
X127928457Y-116537668D01*
X127262811Y-115872021D01*
X127248868Y-115864408D01*
X127247034Y-115864539D01*
X127240420Y-115868790D01*
X126570820Y-116538391D01*
X126564393Y-116550161D01*
X125944342Y-116550161D01*
X126057527Y-116470908D01*
X126057529Y-116470906D01*
X126062038Y-116467749D01*
X126217749Y-116312038D01*
X126232463Y-116291025D01*
X126340899Y-116136162D01*
X126340900Y-116136160D01*
X126344056Y-116131653D01*
X126346379Y-116126671D01*
X126346382Y-116126666D01*
X126408864Y-115992671D01*
X126433964Y-115956825D01*
X126877979Y-115512811D01*
X126884356Y-115501132D01*
X127614408Y-115501132D01*
X127614539Y-115502966D01*
X127618790Y-115509580D01*
X128066036Y-115956825D01*
X128091136Y-115992671D01*
X128153618Y-116126666D01*
X128153621Y-116126671D01*
X128155944Y-116131653D01*
X128159100Y-116136160D01*
X128159101Y-116136162D01*
X128267538Y-116291025D01*
X128282251Y-116312038D01*
X128437962Y-116467749D01*
X128442471Y-116470906D01*
X128442473Y-116470908D01*
X128613842Y-116590903D01*
X128613848Y-116590907D01*
X128618346Y-116594056D01*
X128676991Y-116621402D01*
X128718749Y-116640874D01*
X128772035Y-116687791D01*
X128791500Y-116755069D01*
X128791500Y-116929198D01*
X128771498Y-116997319D01*
X128746496Y-117025716D01*
X128742473Y-117029092D01*
X128737962Y-117032251D01*
X128582251Y-117187962D01*
X128579094Y-117192470D01*
X128579092Y-117192473D01*
X128459101Y-117363838D01*
X128455944Y-117368347D01*
X128453621Y-117373329D01*
X128453618Y-117373334D01*
X128391136Y-117507329D01*
X128366036Y-117543175D01*
X127922021Y-117987189D01*
X127914408Y-118001132D01*
X127914539Y-118002966D01*
X127918790Y-118009580D01*
X128366036Y-118456825D01*
X128391136Y-118492671D01*
X128453618Y-118626666D01*
X128453621Y-118626671D01*
X128455944Y-118631653D01*
X128459100Y-118636160D01*
X128459101Y-118636162D01*
X128566765Y-118789921D01*
X128582251Y-118812038D01*
X128737962Y-118967749D01*
X128742471Y-118970906D01*
X128742473Y-118970908D01*
X128789555Y-119003875D01*
X128918346Y-119094056D01*
X129117924Y-119187120D01*
X129330629Y-119244115D01*
X129550000Y-119263307D01*
X129769371Y-119244115D01*
X129982076Y-119187120D01*
X130181654Y-119094056D01*
X130302729Y-119009278D01*
X130370003Y-118986590D01*
X130438863Y-119003875D01*
X130447271Y-119009278D01*
X130568346Y-119094056D01*
X130767924Y-119187120D01*
X130980629Y-119244115D01*
X131200000Y-119263307D01*
X131419371Y-119244115D01*
X131459412Y-119233386D01*
X133096528Y-119233386D01*
X133102362Y-119243151D01*
X134487190Y-120627980D01*
X134501131Y-120635592D01*
X134502966Y-120635461D01*
X134509580Y-120631210D01*
X135895884Y-119244905D01*
X135902175Y-119233386D01*
X137096528Y-119233386D01*
X137102362Y-119243151D01*
X138487190Y-120627980D01*
X138501131Y-120635592D01*
X138502966Y-120635461D01*
X138509580Y-120631210D01*
X139895884Y-119244905D01*
X139903399Y-119231144D01*
X139896941Y-119221784D01*
X139880639Y-119207488D01*
X139874099Y-119202470D01*
X139634856Y-119042613D01*
X139627719Y-119038492D01*
X139369651Y-118911228D01*
X139362047Y-118908078D01*
X139089580Y-118815588D01*
X139081617Y-118813454D01*
X138799400Y-118757317D01*
X138791249Y-118756244D01*
X138504119Y-118737425D01*
X138495881Y-118737425D01*
X138208751Y-118756244D01*
X138200600Y-118757317D01*
X137918383Y-118813454D01*
X137910420Y-118815588D01*
X137637953Y-118908078D01*
X137630349Y-118911228D01*
X137372282Y-119038492D01*
X137365145Y-119042613D01*
X137125901Y-119202470D01*
X137119361Y-119207488D01*
X137104926Y-119220147D01*
X137096528Y-119233386D01*
X135902175Y-119233386D01*
X135903399Y-119231144D01*
X135896941Y-119221784D01*
X135880639Y-119207488D01*
X135874099Y-119202470D01*
X135634856Y-119042613D01*
X135627719Y-119038492D01*
X135369651Y-118911228D01*
X135362047Y-118908078D01*
X135089580Y-118815588D01*
X135081617Y-118813454D01*
X134799400Y-118757317D01*
X134791249Y-118756244D01*
X134504119Y-118737425D01*
X134495881Y-118737425D01*
X134208751Y-118756244D01*
X134200600Y-118757317D01*
X133918383Y-118813454D01*
X133910420Y-118815588D01*
X133637953Y-118908078D01*
X133630349Y-118911228D01*
X133372282Y-119038492D01*
X133365145Y-119042613D01*
X133125901Y-119202470D01*
X133119361Y-119207488D01*
X133104926Y-119220147D01*
X133096528Y-119233386D01*
X131459412Y-119233386D01*
X131632076Y-119187120D01*
X131831654Y-119094056D01*
X131960445Y-119003875D01*
X132007527Y-118970908D01*
X132007529Y-118970906D01*
X132012038Y-118967749D01*
X132167749Y-118812038D01*
X132183236Y-118789921D01*
X132290899Y-118636162D01*
X132290900Y-118636160D01*
X132294056Y-118631653D01*
X132296379Y-118626671D01*
X132296382Y-118626666D01*
X132384795Y-118437061D01*
X132387120Y-118432076D01*
X132444115Y-118219371D01*
X132463307Y-118000000D01*
X132444115Y-117780629D01*
X132442692Y-117775319D01*
X132442691Y-117775312D01*
X132435716Y-117749281D01*
X132437406Y-117678304D01*
X132468328Y-117627576D01*
X132792247Y-117303657D01*
X132800537Y-117296113D01*
X132807018Y-117292000D01*
X132853659Y-117242332D01*
X132856413Y-117239491D01*
X132876134Y-117219770D01*
X132878612Y-117216575D01*
X132886318Y-117207553D01*
X132911158Y-117181101D01*
X132916586Y-117175321D01*
X132926346Y-117157568D01*
X132937199Y-117141045D01*
X132944753Y-117131306D01*
X132949613Y-117125041D01*
X132967176Y-117084457D01*
X132972383Y-117073827D01*
X132993695Y-117035060D01*
X132995666Y-117027383D01*
X132995668Y-117027378D01*
X132998732Y-117015442D01*
X133005138Y-116996730D01*
X133005990Y-116994763D01*
X133013181Y-116978145D01*
X133014421Y-116970317D01*
X133014423Y-116970310D01*
X133020099Y-116934476D01*
X133022505Y-116922856D01*
X133031528Y-116887711D01*
X133031528Y-116887710D01*
X133033500Y-116880030D01*
X133033500Y-116859776D01*
X133035051Y-116840065D01*
X133036980Y-116827886D01*
X133038220Y-116820057D01*
X133037452Y-116811927D01*
X133034059Y-116776039D01*
X133033500Y-116764181D01*
X133033500Y-111922024D01*
X133053502Y-111853903D01*
X133065858Y-111837721D01*
X133139040Y-111756444D01*
X133234527Y-111591056D01*
X133293542Y-111409428D01*
X133306793Y-111283357D01*
X133312814Y-111226065D01*
X133313504Y-111219500D01*
X139088821Y-111219500D01*
X139089511Y-111226065D01*
X139095533Y-111283357D01*
X139108783Y-111409428D01*
X139167798Y-111591056D01*
X139263285Y-111756444D01*
X139336462Y-111837715D01*
X139367178Y-111901721D01*
X139368825Y-111922024D01*
X139368825Y-116073558D01*
X139368298Y-116084741D01*
X139366623Y-116092234D01*
X139366872Y-116100160D01*
X139366872Y-116100161D01*
X139368763Y-116160311D01*
X139368825Y-116164270D01*
X139368825Y-116192181D01*
X139369322Y-116196115D01*
X139369322Y-116196116D01*
X139369330Y-116196181D01*
X139370263Y-116208018D01*
X139371652Y-116252214D01*
X139377303Y-116271664D01*
X139381312Y-116291025D01*
X139383851Y-116311122D01*
X139386770Y-116318493D01*
X139386770Y-116318495D01*
X139400129Y-116352237D01*
X139403974Y-116363467D01*
X139413485Y-116396206D01*
X139416307Y-116405918D01*
X139420340Y-116412737D01*
X139420342Y-116412742D01*
X139426618Y-116423353D01*
X139435313Y-116441101D01*
X139442773Y-116459942D01*
X139447435Y-116466358D01*
X139447435Y-116466359D01*
X139468761Y-116495712D01*
X139475277Y-116505632D01*
X139497783Y-116543687D01*
X139512104Y-116558008D01*
X139524944Y-116573041D01*
X139536853Y-116589432D01*
X139570930Y-116617623D01*
X139579709Y-116625613D01*
X140581672Y-117627577D01*
X140615698Y-117689889D01*
X140614284Y-117749283D01*
X140605885Y-117780629D01*
X140586693Y-118000000D01*
X140605885Y-118219371D01*
X140662880Y-118432076D01*
X140665205Y-118437061D01*
X140753618Y-118626666D01*
X140753621Y-118626671D01*
X140755944Y-118631653D01*
X140759100Y-118636160D01*
X140759101Y-118636162D01*
X140866765Y-118789921D01*
X140882251Y-118812038D01*
X141037962Y-118967749D01*
X141042471Y-118970906D01*
X141042473Y-118970908D01*
X141089555Y-119003875D01*
X141218346Y-119094056D01*
X141417924Y-119187120D01*
X141630629Y-119244115D01*
X141850000Y-119263307D01*
X142069371Y-119244115D01*
X142282076Y-119187120D01*
X142481654Y-119094056D01*
X142544342Y-119050161D01*
X143264393Y-119050161D01*
X143273687Y-119062175D01*
X143314088Y-119090464D01*
X143323584Y-119095947D01*
X143513113Y-119184326D01*
X143523405Y-119188072D01*
X143725401Y-119242196D01*
X143736196Y-119244099D01*
X143944525Y-119262326D01*
X143955475Y-119262326D01*
X144163804Y-119244099D01*
X144174599Y-119242196D01*
X144376595Y-119188072D01*
X144386887Y-119184326D01*
X144576416Y-119095947D01*
X144585912Y-119090464D01*
X144627148Y-119061590D01*
X144635523Y-119051112D01*
X144628457Y-119037668D01*
X143962811Y-118372021D01*
X143948868Y-118364408D01*
X143947034Y-118364539D01*
X143940420Y-118368790D01*
X143270820Y-119038391D01*
X143264393Y-119050161D01*
X142544342Y-119050161D01*
X142610445Y-119003875D01*
X142657527Y-118970908D01*
X142657529Y-118970906D01*
X142662038Y-118967749D01*
X142817749Y-118812038D01*
X142833236Y-118789921D01*
X142902511Y-118690985D01*
X142916629Y-118674160D01*
X143577979Y-118012811D01*
X143585592Y-117998868D01*
X143585461Y-117997034D01*
X143581210Y-117990420D01*
X142916629Y-117325840D01*
X142902511Y-117309015D01*
X142898760Y-117303657D01*
X142840021Y-117219770D01*
X142820908Y-117192473D01*
X142820906Y-117192470D01*
X142817749Y-117187962D01*
X142662038Y-117032251D01*
X142652706Y-117025716D01*
X142544342Y-116949839D01*
X142542982Y-116948887D01*
X143264477Y-116948887D01*
X143271545Y-116962334D01*
X143937189Y-117627979D01*
X143951132Y-117635592D01*
X143952966Y-117635461D01*
X143959580Y-117631210D01*
X144629180Y-116961609D01*
X144635607Y-116949839D01*
X144614602Y-116922688D01*
X144615713Y-116921829D01*
X144586950Y-116885847D01*
X144579640Y-116815227D01*
X144611670Y-116751866D01*
X144670938Y-116716382D01*
X144776595Y-116688072D01*
X144786887Y-116684326D01*
X144976416Y-116595947D01*
X144985912Y-116590464D01*
X145027148Y-116561590D01*
X145035523Y-116551112D01*
X145028457Y-116537668D01*
X144362811Y-115872021D01*
X144348868Y-115864408D01*
X144347034Y-115864539D01*
X144340420Y-115868790D01*
X143670820Y-116538391D01*
X143664393Y-116550161D01*
X143685398Y-116577312D01*
X143684287Y-116578171D01*
X143713050Y-116614153D01*
X143720360Y-116684773D01*
X143688330Y-116748134D01*
X143629062Y-116783618D01*
X143523405Y-116811928D01*
X143513113Y-116815674D01*
X143323583Y-116904054D01*
X143314093Y-116909534D01*
X143272851Y-116938411D01*
X143264477Y-116948887D01*
X142542982Y-116948887D01*
X142481654Y-116905944D01*
X142476666Y-116903618D01*
X142476663Y-116903616D01*
X142392123Y-116864195D01*
X142338837Y-116817278D01*
X142319376Y-116749001D01*
X142339918Y-116681041D01*
X142392123Y-116635805D01*
X142476663Y-116596384D01*
X142476669Y-116596380D01*
X142481654Y-116594056D01*
X142662038Y-116467749D01*
X142817749Y-116312038D01*
X142832463Y-116291025D01*
X142940899Y-116136162D01*
X142940900Y-116136160D01*
X142944056Y-116131653D01*
X142946379Y-116126671D01*
X142946382Y-116126666D01*
X142986081Y-116041530D01*
X143032998Y-115988245D01*
X143101276Y-115968784D01*
X143169235Y-115989326D01*
X143214471Y-116041530D01*
X143254054Y-116126417D01*
X143259534Y-116135907D01*
X143288411Y-116177149D01*
X143298887Y-116185523D01*
X143312334Y-116178455D01*
X143977979Y-115512811D01*
X143984356Y-115501132D01*
X144714408Y-115501132D01*
X144714539Y-115502966D01*
X144718790Y-115509580D01*
X145388391Y-116179180D01*
X145400161Y-116185607D01*
X145412176Y-116176311D01*
X145440466Y-116135907D01*
X145445946Y-116126417D01*
X145534326Y-115936887D01*
X145538072Y-115926595D01*
X145592196Y-115724599D01*
X145594099Y-115713804D01*
X145612326Y-115505475D01*
X145612326Y-115494525D01*
X145594099Y-115286196D01*
X145592196Y-115275401D01*
X145538072Y-115073405D01*
X145534326Y-115063113D01*
X145445946Y-114873583D01*
X145440466Y-114864093D01*
X145411589Y-114822851D01*
X145401113Y-114814477D01*
X145387666Y-114821545D01*
X144722021Y-115487189D01*
X144714408Y-115501132D01*
X143984356Y-115501132D01*
X143985592Y-115498868D01*
X143985461Y-115497034D01*
X143981210Y-115490420D01*
X143311609Y-114820820D01*
X143299839Y-114814393D01*
X143287824Y-114823689D01*
X143259534Y-114864093D01*
X143254054Y-114873583D01*
X143214471Y-114958470D01*
X143167554Y-115011755D01*
X143099276Y-115031216D01*
X143031316Y-115010674D01*
X142986081Y-114958470D01*
X142946382Y-114873334D01*
X142946379Y-114873329D01*
X142944056Y-114868347D01*
X142912786Y-114823689D01*
X142820908Y-114692473D01*
X142820906Y-114692470D01*
X142817749Y-114687962D01*
X142662038Y-114532251D01*
X142652706Y-114525716D01*
X142544342Y-114449839D01*
X142542982Y-114448887D01*
X143664477Y-114448887D01*
X143671545Y-114462334D01*
X144337189Y-115127979D01*
X144351132Y-115135592D01*
X144352966Y-115135461D01*
X144359580Y-115131210D01*
X145029180Y-114461609D01*
X145035607Y-114449839D01*
X145026313Y-114437825D01*
X144985912Y-114409536D01*
X144976416Y-114404053D01*
X144786887Y-114315674D01*
X144776595Y-114311928D01*
X144574599Y-114257804D01*
X144563804Y-114255901D01*
X144355475Y-114237674D01*
X144344525Y-114237674D01*
X144136196Y-114255901D01*
X144125401Y-114257804D01*
X143923405Y-114311928D01*
X143913113Y-114315674D01*
X143723583Y-114404054D01*
X143714093Y-114409534D01*
X143672851Y-114438411D01*
X143664477Y-114448887D01*
X142542982Y-114448887D01*
X142481654Y-114405944D01*
X142282076Y-114312880D01*
X142069371Y-114255885D01*
X141850000Y-114236693D01*
X141630629Y-114255885D01*
X141417924Y-114312880D01*
X141324562Y-114356415D01*
X141223334Y-114403618D01*
X141223329Y-114403621D01*
X141218347Y-114405944D01*
X141213840Y-114409100D01*
X141213838Y-114409101D01*
X141042473Y-114529092D01*
X141042470Y-114529094D01*
X141037962Y-114532251D01*
X140882251Y-114687962D01*
X140865038Y-114712545D01*
X140809582Y-114756873D01*
X140738962Y-114764182D01*
X140675602Y-114732152D01*
X140639616Y-114670951D01*
X140635825Y-114640274D01*
X140635825Y-111922024D01*
X140655827Y-111853903D01*
X140668183Y-111837721D01*
X140741365Y-111756444D01*
X140836852Y-111591056D01*
X140895867Y-111409428D01*
X140909118Y-111283357D01*
X140915139Y-111226065D01*
X140915829Y-111219500D01*
X140898901Y-111058441D01*
X140896557Y-111036135D01*
X140896557Y-111036133D01*
X140895867Y-111029572D01*
X140836852Y-110847944D01*
X140822204Y-110822572D01*
X140772869Y-110737123D01*
X140741365Y-110682556D01*
X140704857Y-110642009D01*
X140618000Y-110545545D01*
X140617999Y-110545544D01*
X140613578Y-110540634D01*
X140488636Y-110449858D01*
X140464419Y-110432263D01*
X140464418Y-110432262D01*
X140459077Y-110428382D01*
X140453049Y-110425698D01*
X140453047Y-110425697D01*
X140290644Y-110353391D01*
X140290643Y-110353391D01*
X140284613Y-110350706D01*
X140191212Y-110330853D01*
X140104269Y-110312372D01*
X140104264Y-110312372D01*
X140097812Y-110311000D01*
X139906838Y-110311000D01*
X139900386Y-110312372D01*
X139900381Y-110312372D01*
X139813438Y-110330853D01*
X139720037Y-110350706D01*
X139714007Y-110353391D01*
X139714006Y-110353391D01*
X139551603Y-110425697D01*
X139551601Y-110425698D01*
X139545573Y-110428382D01*
X139540232Y-110432262D01*
X139540231Y-110432263D01*
X139516014Y-110449858D01*
X139391072Y-110540634D01*
X139386651Y-110545544D01*
X139386650Y-110545545D01*
X139299794Y-110642009D01*
X139263285Y-110682556D01*
X139231781Y-110737123D01*
X139182447Y-110822572D01*
X139167798Y-110847944D01*
X139108783Y-111029572D01*
X139108093Y-111036133D01*
X139108093Y-111036135D01*
X139105749Y-111058441D01*
X139088821Y-111219500D01*
X133313504Y-111219500D01*
X133296576Y-111058441D01*
X133294232Y-111036135D01*
X133294232Y-111036133D01*
X133293542Y-111029572D01*
X133234527Y-110847944D01*
X133219879Y-110822572D01*
X133170544Y-110737123D01*
X133139040Y-110682556D01*
X133102532Y-110642009D01*
X133015675Y-110545545D01*
X133015674Y-110545544D01*
X133011253Y-110540634D01*
X132886311Y-110449858D01*
X132862094Y-110432263D01*
X132862093Y-110432262D01*
X132856752Y-110428382D01*
X132850724Y-110425698D01*
X132850722Y-110425697D01*
X132688319Y-110353391D01*
X132688318Y-110353391D01*
X132682288Y-110350706D01*
X132588887Y-110330853D01*
X132501944Y-110312372D01*
X132501939Y-110312372D01*
X132495487Y-110311000D01*
X132304513Y-110311000D01*
X132298061Y-110312372D01*
X132298056Y-110312372D01*
X132211113Y-110330853D01*
X132117712Y-110350706D01*
X132111682Y-110353391D01*
X132111681Y-110353391D01*
X131949278Y-110425697D01*
X131949276Y-110425698D01*
X131943248Y-110428382D01*
X131937907Y-110432262D01*
X131937906Y-110432263D01*
X131913689Y-110449858D01*
X131788747Y-110540634D01*
X131784326Y-110545544D01*
X131784325Y-110545545D01*
X131697469Y-110642009D01*
X131660960Y-110682556D01*
X131629456Y-110737123D01*
X131580122Y-110822572D01*
X131565473Y-110847944D01*
X131506458Y-111029572D01*
X131505768Y-111036133D01*
X131505768Y-111036135D01*
X131503424Y-111058441D01*
X131486496Y-111219500D01*
X131487186Y-111226065D01*
X131493208Y-111283357D01*
X131506458Y-111409428D01*
X131565473Y-111591056D01*
X131660960Y-111756444D01*
X131734137Y-111837715D01*
X131764853Y-111901721D01*
X131766500Y-111922024D01*
X131766500Y-114184692D01*
X131746498Y-114252813D01*
X131692842Y-114299306D01*
X131622568Y-114309410D01*
X131607888Y-114306398D01*
X131424692Y-114257310D01*
X131424683Y-114257309D01*
X131419371Y-114255885D01*
X131200000Y-114236693D01*
X130980629Y-114255885D01*
X130767924Y-114312880D01*
X130674562Y-114356415D01*
X130573334Y-114403618D01*
X130573329Y-114403621D01*
X130568347Y-114405944D01*
X130563840Y-114409100D01*
X130563838Y-114409101D01*
X130392473Y-114529092D01*
X130392470Y-114529094D01*
X130387962Y-114532251D01*
X130314095Y-114606118D01*
X130251783Y-114640144D01*
X130180968Y-114635079D01*
X130135905Y-114606118D01*
X130062038Y-114532251D01*
X130057527Y-114529092D01*
X130053504Y-114525716D01*
X130014181Y-114466605D01*
X130008500Y-114429198D01*
X130008500Y-111058441D01*
X130028502Y-110990320D01*
X130039119Y-110976109D01*
X130044366Y-110970031D01*
X130058078Y-110954145D01*
X130065062Y-110941852D01*
X130100601Y-110879292D01*
X130155769Y-110782179D01*
X130218197Y-110594513D01*
X130242985Y-110398295D01*
X130243380Y-110370000D01*
X130224080Y-110173167D01*
X130218151Y-110153527D01*
X130180385Y-110028444D01*
X130166916Y-109983831D01*
X130074066Y-109809204D01*
X129999071Y-109717251D01*
X129952960Y-109660713D01*
X129952957Y-109660710D01*
X129949065Y-109655938D01*
X129942724Y-109650692D01*
X129801425Y-109533799D01*
X129801421Y-109533797D01*
X129796675Y-109529870D01*
X129622701Y-109435802D01*
X129433768Y-109377318D01*
X129427643Y-109376674D01*
X129427642Y-109376674D01*
X129243204Y-109357289D01*
X129243202Y-109357289D01*
X129237075Y-109356645D01*
X129154576Y-109364153D01*
X129046251Y-109374011D01*
X129046248Y-109374012D01*
X129040112Y-109374570D01*
X129034206Y-109376308D01*
X129034202Y-109376309D01*
X128970135Y-109395165D01*
X128850381Y-109430410D01*
X128844923Y-109433263D01*
X128844919Y-109433265D01*
X128754147Y-109480720D01*
X128675110Y-109522040D01*
X128520975Y-109645968D01*
X128393846Y-109797474D01*
X128390879Y-109802872D01*
X128390875Y-109802877D01*
X128312095Y-109946180D01*
X128298567Y-109970787D01*
X128296706Y-109976654D01*
X128296705Y-109976656D01*
X128245652Y-110137596D01*
X128238765Y-110159306D01*
X128216719Y-110355851D01*
X128217613Y-110366495D01*
X128232648Y-110545545D01*
X128233268Y-110552934D01*
X128250955Y-110614616D01*
X128282619Y-110725040D01*
X128287783Y-110743050D01*
X128290602Y-110748535D01*
X128366219Y-110895668D01*
X128378187Y-110918956D01*
X128406077Y-110954145D01*
X128464246Y-111027537D01*
X128490883Y-111093347D01*
X128491500Y-111105801D01*
X128491500Y-114429198D01*
X128471498Y-114497319D01*
X128446496Y-114525716D01*
X128442473Y-114529092D01*
X128437962Y-114532251D01*
X128282251Y-114687962D01*
X128279094Y-114692470D01*
X128279092Y-114692473D01*
X128187214Y-114823689D01*
X128155944Y-114868347D01*
X128153621Y-114873329D01*
X128153618Y-114873334D01*
X128091136Y-115007329D01*
X128066036Y-115043175D01*
X127622021Y-115487189D01*
X127614408Y-115501132D01*
X126884356Y-115501132D01*
X126885592Y-115498868D01*
X126885461Y-115497034D01*
X126881210Y-115490420D01*
X126433964Y-115043175D01*
X126408864Y-115007329D01*
X126346382Y-114873334D01*
X126346379Y-114873329D01*
X126344056Y-114868347D01*
X126312786Y-114823689D01*
X126220908Y-114692473D01*
X126220906Y-114692470D01*
X126217749Y-114687962D01*
X126062038Y-114532251D01*
X126052706Y-114525716D01*
X125944342Y-114449839D01*
X125942982Y-114448887D01*
X126564477Y-114448887D01*
X126571545Y-114462334D01*
X127237189Y-115127979D01*
X127251132Y-115135592D01*
X127252966Y-115135461D01*
X127259580Y-115131210D01*
X127929180Y-114461609D01*
X127935607Y-114449839D01*
X127926313Y-114437825D01*
X127885912Y-114409536D01*
X127876416Y-114404053D01*
X127686887Y-114315674D01*
X127676595Y-114311928D01*
X127474599Y-114257804D01*
X127463804Y-114255901D01*
X127255475Y-114237674D01*
X127244525Y-114237674D01*
X127036196Y-114255901D01*
X127025401Y-114257804D01*
X126823405Y-114311928D01*
X126813113Y-114315674D01*
X126623583Y-114404054D01*
X126614093Y-114409534D01*
X126572851Y-114438411D01*
X126564477Y-114448887D01*
X125942982Y-114448887D01*
X125881654Y-114405944D01*
X125682076Y-114312880D01*
X125469371Y-114255885D01*
X125250000Y-114236693D01*
X125030629Y-114255885D01*
X124817924Y-114312880D01*
X124724562Y-114356415D01*
X124623334Y-114403618D01*
X124623329Y-114403621D01*
X124618347Y-114405944D01*
X124613840Y-114409100D01*
X124613838Y-114409101D01*
X124442473Y-114529092D01*
X124442470Y-114529094D01*
X124437962Y-114532251D01*
X124364095Y-114606118D01*
X124301783Y-114640144D01*
X124230968Y-114635079D01*
X124185905Y-114606118D01*
X124112038Y-114532251D01*
X124102706Y-114525716D01*
X123994342Y-114449839D01*
X123931654Y-114405944D01*
X123732076Y-114312880D01*
X123519371Y-114255885D01*
X123300000Y-114236693D01*
X123080629Y-114255885D01*
X122867924Y-114312880D01*
X122774562Y-114356415D01*
X122673334Y-114403618D01*
X122673329Y-114403621D01*
X122668347Y-114405944D01*
X122663840Y-114409100D01*
X122663838Y-114409101D01*
X122492473Y-114529092D01*
X122492470Y-114529094D01*
X122487962Y-114532251D01*
X122332251Y-114687962D01*
X122329094Y-114692470D01*
X122329092Y-114692473D01*
X122237214Y-114823689D01*
X122205944Y-114868347D01*
X122203621Y-114873329D01*
X122203618Y-114873334D01*
X122203502Y-114873583D01*
X122112880Y-115067924D01*
X122055885Y-115280629D01*
X122036693Y-115500000D01*
X122055885Y-115719371D01*
X122112880Y-115932076D01*
X122115205Y-115937061D01*
X122203618Y-116126666D01*
X122203621Y-116126671D01*
X122205944Y-116131653D01*
X122209100Y-116136160D01*
X122209101Y-116136162D01*
X122317538Y-116291025D01*
X122332251Y-116312038D01*
X122487962Y-116467749D01*
X122668346Y-116594056D01*
X122673331Y-116596380D01*
X122673337Y-116596384D01*
X122757877Y-116635805D01*
X122811163Y-116682722D01*
X122830624Y-116750999D01*
X122810082Y-116818959D01*
X122757878Y-116864195D01*
X122673334Y-116903618D01*
X122673329Y-116903621D01*
X122668347Y-116905944D01*
X122663840Y-116909100D01*
X122663838Y-116909101D01*
X122492473Y-117029092D01*
X122492470Y-117029094D01*
X122487962Y-117032251D01*
X122332251Y-117187962D01*
X122329094Y-117192470D01*
X122329092Y-117192473D01*
X122209101Y-117363838D01*
X122205944Y-117368347D01*
X122203621Y-117373329D01*
X122203618Y-117373334D01*
X122203502Y-117373583D01*
X122112880Y-117567924D01*
X122055885Y-117780629D01*
X122036693Y-118000000D01*
X122055885Y-118219371D01*
X122112880Y-118432076D01*
X122115205Y-118437061D01*
X122203618Y-118626666D01*
X122203621Y-118626671D01*
X122205944Y-118631653D01*
X122209100Y-118636160D01*
X122209101Y-118636162D01*
X122316765Y-118789921D01*
X122332251Y-118812038D01*
X122487962Y-118967749D01*
X122492470Y-118970906D01*
X122492473Y-118970908D01*
X122539555Y-119003875D01*
X122612772Y-119055142D01*
X122657099Y-119110598D01*
X122666500Y-119158354D01*
X122666500Y-123021233D01*
X122665973Y-123032416D01*
X122664298Y-123039909D01*
X122664547Y-123047835D01*
X122664547Y-123047836D01*
X122666438Y-123107986D01*
X122666500Y-123111945D01*
X122666500Y-123139856D01*
X122666997Y-123143790D01*
X122666997Y-123143791D01*
X122667005Y-123143856D01*
X122667938Y-123155693D01*
X122669327Y-123199889D01*
X122674978Y-123219339D01*
X122678987Y-123238700D01*
X122681526Y-123258797D01*
X122684445Y-123266168D01*
X122684445Y-123266170D01*
X122697804Y-123299912D01*
X122701649Y-123311142D01*
X122713982Y-123353593D01*
X122718015Y-123360412D01*
X122718017Y-123360417D01*
X122724293Y-123371028D01*
X122732988Y-123388776D01*
X122740448Y-123407617D01*
X122745110Y-123414033D01*
X122745110Y-123414034D01*
X122766436Y-123443387D01*
X122772952Y-123453307D01*
X122778973Y-123463487D01*
X122795458Y-123491362D01*
X122809779Y-123505683D01*
X122822619Y-123520716D01*
X122834528Y-123537107D01*
X122840632Y-123542157D01*
X122840637Y-123542162D01*
X122868598Y-123565293D01*
X122877379Y-123573283D01*
X123580500Y-124276405D01*
X123614525Y-124338717D01*
X123609460Y-124409533D01*
X123566913Y-124466368D01*
X123500393Y-124491179D01*
X123491404Y-124491500D01*
X112549367Y-124491500D01*
X112529982Y-124490000D01*
X112515149Y-124487690D01*
X112515145Y-124487690D01*
X112506276Y-124486309D01*
X112493603Y-124487966D01*
X112466293Y-124488551D01*
X112338806Y-124477397D01*
X112317183Y-124473585D01*
X112171531Y-124434557D01*
X112150896Y-124427046D01*
X112014240Y-124363322D01*
X111995220Y-124352340D01*
X111871703Y-124265853D01*
X111854878Y-124251735D01*
X111748265Y-124145122D01*
X111734147Y-124128297D01*
X111647660Y-124004780D01*
X111636678Y-123985760D01*
X111572954Y-123849104D01*
X111565443Y-123828466D01*
X111526417Y-123682822D01*
X111522602Y-123661191D01*
X111521982Y-123654096D01*
X111512349Y-123543993D01*
X111512374Y-123521758D01*
X111512770Y-123517344D01*
X111513576Y-123512552D01*
X111513729Y-123500000D01*
X111513040Y-123495188D01*
X111513039Y-123495174D01*
X111510090Y-123474585D01*
X111508819Y-123455951D01*
X111508867Y-123448192D01*
X111508976Y-123430279D01*
X111508592Y-123428935D01*
X111508500Y-123427590D01*
X111508500Y-121632703D01*
X112390743Y-121632703D01*
X112391302Y-121636947D01*
X112391302Y-121636951D01*
X112407810Y-121762340D01*
X112428268Y-121917734D01*
X112504129Y-122195036D01*
X112505813Y-122198984D01*
X112600140Y-122420128D01*
X112616923Y-122459476D01*
X112764561Y-122706161D01*
X112944313Y-122930528D01*
X113039896Y-123021233D01*
X113143183Y-123119248D01*
X113152851Y-123128423D01*
X113386317Y-123296186D01*
X113390112Y-123298195D01*
X113390113Y-123298196D01*
X113411869Y-123309715D01*
X113640392Y-123430712D01*
X113694829Y-123450633D01*
X113884449Y-123520024D01*
X113910373Y-123529511D01*
X114191264Y-123590755D01*
X114219841Y-123593004D01*
X114414282Y-123608307D01*
X114414291Y-123608307D01*
X114416739Y-123608500D01*
X114572271Y-123608500D01*
X114574407Y-123608354D01*
X114574418Y-123608354D01*
X114782548Y-123594165D01*
X114782554Y-123594164D01*
X114786825Y-123593873D01*
X114791020Y-123593004D01*
X114791022Y-123593004D01*
X114953058Y-123559448D01*
X115068342Y-123535574D01*
X115339343Y-123439607D01*
X115594812Y-123307750D01*
X115598313Y-123305289D01*
X115598317Y-123305287D01*
X115793881Y-123167842D01*
X115830023Y-123142441D01*
X116024730Y-122961508D01*
X116037479Y-122949661D01*
X116037481Y-122949658D01*
X116040622Y-122946740D01*
X116186218Y-122768856D01*
X118596601Y-122768856D01*
X118603059Y-122778216D01*
X118619361Y-122792512D01*
X118625901Y-122797530D01*
X118865144Y-122957387D01*
X118872281Y-122961508D01*
X119130349Y-123088772D01*
X119137953Y-123091922D01*
X119410420Y-123184412D01*
X119418383Y-123186546D01*
X119700600Y-123242683D01*
X119708751Y-123243756D01*
X119995881Y-123262575D01*
X120004119Y-123262575D01*
X120291249Y-123243756D01*
X120299400Y-123242683D01*
X120581617Y-123186546D01*
X120589580Y-123184412D01*
X120862047Y-123091922D01*
X120869651Y-123088772D01*
X121127719Y-122961508D01*
X121134856Y-122957387D01*
X121374099Y-122797530D01*
X121380639Y-122792512D01*
X121395074Y-122779853D01*
X121403472Y-122766614D01*
X121397638Y-122756849D01*
X120012810Y-121372020D01*
X119998869Y-121364408D01*
X119997034Y-121364539D01*
X119990420Y-121368790D01*
X118604116Y-122755095D01*
X118596601Y-122768856D01*
X116186218Y-122768856D01*
X116222713Y-122724268D01*
X116372927Y-122479142D01*
X116415738Y-122381617D01*
X116486757Y-122219830D01*
X116488483Y-122215898D01*
X116567244Y-121939406D01*
X116607751Y-121654784D01*
X116607845Y-121636951D01*
X116609235Y-121371583D01*
X116609235Y-121371576D01*
X116609257Y-121367297D01*
X116606835Y-121348896D01*
X116575251Y-121108995D01*
X116571732Y-121082266D01*
X116550353Y-121004119D01*
X117737425Y-121004119D01*
X117756244Y-121291249D01*
X117757317Y-121299400D01*
X117813454Y-121581617D01*
X117815588Y-121589580D01*
X117908078Y-121862047D01*
X117911228Y-121869651D01*
X118038492Y-122127718D01*
X118042613Y-122134855D01*
X118202470Y-122374099D01*
X118207488Y-122380639D01*
X118220147Y-122395074D01*
X118233386Y-122403472D01*
X118243151Y-122397638D01*
X119627980Y-121012810D01*
X119634357Y-121001131D01*
X120364408Y-121001131D01*
X120364539Y-121002966D01*
X120368790Y-121009580D01*
X121755095Y-122395884D01*
X121768856Y-122403399D01*
X121778216Y-122396941D01*
X121792512Y-122380639D01*
X121797530Y-122374099D01*
X121957387Y-122134855D01*
X121961508Y-122127718D01*
X122088772Y-121869651D01*
X122091922Y-121862047D01*
X122184412Y-121589580D01*
X122186546Y-121581617D01*
X122242683Y-121299400D01*
X122243756Y-121291249D01*
X122262575Y-121004119D01*
X122262575Y-120995881D01*
X122243756Y-120708751D01*
X122242683Y-120700600D01*
X122186546Y-120418383D01*
X122184412Y-120410420D01*
X122091922Y-120137953D01*
X122088772Y-120130349D01*
X121961508Y-119872282D01*
X121957387Y-119865145D01*
X121797530Y-119625901D01*
X121792512Y-119619361D01*
X121779853Y-119604926D01*
X121766614Y-119596528D01*
X121756849Y-119602362D01*
X120372020Y-120987190D01*
X120364408Y-121001131D01*
X119634357Y-121001131D01*
X119635592Y-120998869D01*
X119635461Y-120997034D01*
X119631210Y-120990420D01*
X118244905Y-119604116D01*
X118231144Y-119596601D01*
X118221784Y-119603059D01*
X118207488Y-119619361D01*
X118202470Y-119625901D01*
X118042613Y-119865145D01*
X118038492Y-119872282D01*
X117911228Y-120130349D01*
X117908078Y-120137953D01*
X117815588Y-120410420D01*
X117813454Y-120418383D01*
X117757317Y-120700600D01*
X117756244Y-120708751D01*
X117737425Y-120995881D01*
X117737425Y-121004119D01*
X116550353Y-121004119D01*
X116495871Y-120804964D01*
X116425871Y-120640852D01*
X116384763Y-120544476D01*
X116384761Y-120544472D01*
X116383077Y-120540524D01*
X116235439Y-120293839D01*
X116055687Y-120069472D01*
X115847149Y-119871577D01*
X115613683Y-119703814D01*
X115591843Y-119692250D01*
X115447053Y-119615588D01*
X115359608Y-119569288D01*
X115089627Y-119470489D01*
X114808736Y-119409245D01*
X114777685Y-119406801D01*
X114585718Y-119391693D01*
X114585709Y-119391693D01*
X114583261Y-119391500D01*
X114427729Y-119391500D01*
X114425593Y-119391646D01*
X114425582Y-119391646D01*
X114217452Y-119405835D01*
X114217446Y-119405836D01*
X114213175Y-119406127D01*
X114208980Y-119406996D01*
X114208978Y-119406996D01*
X114072416Y-119435277D01*
X113931658Y-119464426D01*
X113660657Y-119560393D01*
X113405188Y-119692250D01*
X113401687Y-119694711D01*
X113401683Y-119694713D01*
X113391594Y-119701804D01*
X113169977Y-119857559D01*
X113154892Y-119871577D01*
X112970257Y-120043151D01*
X112959378Y-120053260D01*
X112777287Y-120275732D01*
X112627073Y-120520858D01*
X112625347Y-120524791D01*
X112625346Y-120524792D01*
X112548172Y-120700600D01*
X112511517Y-120784102D01*
X112432756Y-121060594D01*
X112429672Y-121082266D01*
X112399930Y-121291249D01*
X112392249Y-121345216D01*
X112392227Y-121349505D01*
X112392226Y-121349512D01*
X112390765Y-121628417D01*
X112390743Y-121632703D01*
X111508500Y-121632703D01*
X111508500Y-119233386D01*
X118596528Y-119233386D01*
X118602362Y-119243151D01*
X119987190Y-120627980D01*
X120001131Y-120635592D01*
X120002966Y-120635461D01*
X120009580Y-120631210D01*
X121395884Y-119244905D01*
X121403399Y-119231144D01*
X121396941Y-119221784D01*
X121380639Y-119207488D01*
X121374099Y-119202470D01*
X121134856Y-119042613D01*
X121127719Y-119038492D01*
X120869651Y-118911228D01*
X120862047Y-118908078D01*
X120589580Y-118815588D01*
X120581617Y-118813454D01*
X120299400Y-118757317D01*
X120291249Y-118756244D01*
X120004119Y-118737425D01*
X119995881Y-118737425D01*
X119708751Y-118756244D01*
X119700600Y-118757317D01*
X119418383Y-118813454D01*
X119410420Y-118815588D01*
X119137953Y-118908078D01*
X119130349Y-118911228D01*
X118872282Y-119038492D01*
X118865145Y-119042613D01*
X118625901Y-119202470D01*
X118619361Y-119207488D01*
X118604926Y-119220147D01*
X118596528Y-119233386D01*
X111508500Y-119233386D01*
X111508500Y-105660651D01*
X111528502Y-105592530D01*
X111582158Y-105546037D01*
X111652432Y-105535933D01*
X111717012Y-105565427D01*
X111756712Y-105630990D01*
X111757317Y-105636180D01*
X111782234Y-105704826D01*
X111783651Y-105708954D01*
X111806148Y-105778398D01*
X111809944Y-105784653D01*
X111812450Y-105790127D01*
X111815169Y-105795557D01*
X111817666Y-105802436D01*
X111821679Y-105808556D01*
X111821679Y-105808557D01*
X111857685Y-105863475D01*
X111860022Y-105867179D01*
X111897904Y-105929606D01*
X111901620Y-105933814D01*
X111901621Y-105933815D01*
X111905302Y-105937983D01*
X111905275Y-105938007D01*
X111907928Y-105940999D01*
X111910631Y-105944232D01*
X111914643Y-105950351D01*
X111919955Y-105955383D01*
X111970882Y-106003627D01*
X111973324Y-106006005D01*
X113119449Y-107152130D01*
X113153475Y-107214442D01*
X113155641Y-107254613D01*
X113137251Y-107426695D01*
X113137548Y-107431848D01*
X113137548Y-107431851D01*
X113146606Y-107588937D01*
X113150110Y-107649715D01*
X113151247Y-107654761D01*
X113151248Y-107654767D01*
X113171119Y-107742939D01*
X113199222Y-107867639D01*
X113283266Y-108074616D01*
X113285965Y-108079020D01*
X113386059Y-108242359D01*
X113399987Y-108265088D01*
X113546250Y-108433938D01*
X113718126Y-108576632D01*
X113774252Y-108609429D01*
X113791445Y-108619476D01*
X113840169Y-108671114D01*
X113853240Y-108740897D01*
X113826509Y-108806669D01*
X113786055Y-108840027D01*
X113773607Y-108846507D01*
X113769474Y-108849610D01*
X113769471Y-108849612D01*
X113599100Y-108977530D01*
X113594965Y-108980635D01*
X113591393Y-108984373D01*
X113449878Y-109132460D01*
X113440629Y-109142138D01*
X113314743Y-109326680D01*
X113275076Y-109412135D01*
X113223259Y-109523767D01*
X113220688Y-109529305D01*
X113160989Y-109744570D01*
X113137251Y-109966695D01*
X113137548Y-109971848D01*
X113137548Y-109971851D01*
X113149156Y-110173167D01*
X113150110Y-110189715D01*
X113151247Y-110194761D01*
X113151248Y-110194767D01*
X113171119Y-110282939D01*
X113199222Y-110407639D01*
X113248343Y-110528611D01*
X113275791Y-110596206D01*
X113283266Y-110614616D01*
X113319541Y-110673812D01*
X113382946Y-110777279D01*
X113399987Y-110805088D01*
X113546250Y-110973938D01*
X113718126Y-111116632D01*
X113788595Y-111157811D01*
X113791445Y-111159476D01*
X113840169Y-111211114D01*
X113853240Y-111280897D01*
X113826509Y-111346669D01*
X113786055Y-111380027D01*
X113773607Y-111386507D01*
X113769474Y-111389610D01*
X113769471Y-111389612D01*
X113599100Y-111517530D01*
X113594965Y-111520635D01*
X113440629Y-111682138D01*
X113314743Y-111866680D01*
X113220688Y-112069305D01*
X113160989Y-112284570D01*
X113137251Y-112506695D01*
X113150110Y-112729715D01*
X113151247Y-112734761D01*
X113151248Y-112734767D01*
X113175304Y-112841508D01*
X113199222Y-112947639D01*
X113259014Y-113094890D01*
X113276662Y-113138351D01*
X113283266Y-113154616D01*
X113399987Y-113345088D01*
X113546250Y-113513938D01*
X113718126Y-113656632D01*
X113911000Y-113769338D01*
X114119692Y-113849030D01*
X114124760Y-113850061D01*
X114124763Y-113850062D01*
X114232017Y-113871883D01*
X114338597Y-113893567D01*
X114343772Y-113893757D01*
X114343774Y-113893757D01*
X114556673Y-113901564D01*
X114556677Y-113901564D01*
X114561837Y-113901753D01*
X114566957Y-113901097D01*
X114566959Y-113901097D01*
X114778288Y-113874025D01*
X114778289Y-113874025D01*
X114783416Y-113873368D01*
X114788366Y-113871883D01*
X114992429Y-113810661D01*
X114992434Y-113810659D01*
X114997384Y-113809174D01*
X115197994Y-113710896D01*
X115379860Y-113581173D01*
X115538096Y-113423489D01*
X115597594Y-113340689D01*
X115665435Y-113246277D01*
X115668453Y-113242077D01*
X115670746Y-113237437D01*
X115672446Y-113234608D01*
X115724674Y-113186518D01*
X115780451Y-113173500D01*
X118581233Y-113173500D01*
X118592416Y-113174027D01*
X118599909Y-113175702D01*
X118607835Y-113175453D01*
X118607836Y-113175453D01*
X118667986Y-113173562D01*
X118671945Y-113173500D01*
X118699856Y-113173500D01*
X118703791Y-113173003D01*
X118703856Y-113172995D01*
X118715693Y-113172062D01*
X118747951Y-113171048D01*
X118751970Y-113170922D01*
X118759889Y-113170673D01*
X118779343Y-113165021D01*
X118798700Y-113161013D01*
X118810930Y-113159468D01*
X118810931Y-113159468D01*
X118818797Y-113158474D01*
X118826168Y-113155555D01*
X118826170Y-113155555D01*
X118859912Y-113142196D01*
X118871142Y-113138351D01*
X118905983Y-113128229D01*
X118905984Y-113128229D01*
X118913593Y-113126018D01*
X118920412Y-113121985D01*
X118920417Y-113121983D01*
X118931028Y-113115707D01*
X118948776Y-113107012D01*
X118967617Y-113099552D01*
X119003387Y-113073564D01*
X119013307Y-113067048D01*
X119044535Y-113048580D01*
X119044538Y-113048578D01*
X119051362Y-113044542D01*
X119065683Y-113030221D01*
X119080717Y-113017380D01*
X119090694Y-113010131D01*
X119097107Y-113005472D01*
X119125298Y-112971395D01*
X119133288Y-112962616D01*
X120750500Y-111345405D01*
X120812812Y-111311379D01*
X120839595Y-111308500D01*
X120895487Y-111308500D01*
X120901939Y-111307128D01*
X120901944Y-111307128D01*
X120988887Y-111288647D01*
X121082288Y-111268794D01*
X121097725Y-111261921D01*
X121250722Y-111193803D01*
X121250724Y-111193802D01*
X121256752Y-111191118D01*
X121411253Y-111078866D01*
X121429644Y-111058441D01*
X121534621Y-110941852D01*
X121534622Y-110941851D01*
X121539040Y-110936944D01*
X121611243Y-110811885D01*
X121631223Y-110777279D01*
X121631224Y-110777278D01*
X121634527Y-110771556D01*
X121693542Y-110589928D01*
X121694781Y-110578145D01*
X121712814Y-110406565D01*
X121713504Y-110400000D01*
X121704150Y-110311000D01*
X121694232Y-110216635D01*
X121694232Y-110216633D01*
X121693542Y-110210072D01*
X121634527Y-110028444D01*
X121539040Y-109863056D01*
X121490552Y-109809204D01*
X121415675Y-109726045D01*
X121415674Y-109726044D01*
X121411253Y-109721134D01*
X121256752Y-109608882D01*
X121250724Y-109606198D01*
X121250722Y-109606197D01*
X121088319Y-109533891D01*
X121088318Y-109533891D01*
X121082288Y-109531206D01*
X120973513Y-109508085D01*
X120901944Y-109492872D01*
X120901939Y-109492872D01*
X120895487Y-109491500D01*
X120704513Y-109491500D01*
X120698061Y-109492872D01*
X120698056Y-109492872D01*
X120626487Y-109508085D01*
X120517712Y-109531206D01*
X120511682Y-109533891D01*
X120511681Y-109533891D01*
X120349278Y-109606197D01*
X120349276Y-109606198D01*
X120343248Y-109608882D01*
X120188747Y-109721134D01*
X120184326Y-109726044D01*
X120184325Y-109726045D01*
X120109449Y-109809204D01*
X120060960Y-109863056D01*
X119965473Y-110028444D01*
X119906458Y-110210072D01*
X119890018Y-110366495D01*
X119889093Y-110375293D01*
X119862080Y-110440950D01*
X119852878Y-110451218D01*
X118434500Y-111869595D01*
X118372188Y-111903621D01*
X118345405Y-111906500D01*
X115776805Y-111906500D01*
X115708684Y-111886498D01*
X115671013Y-111848940D01*
X115582822Y-111712617D01*
X115582820Y-111712614D01*
X115580014Y-111708277D01*
X115429670Y-111543051D01*
X115425619Y-111539852D01*
X115425615Y-111539848D01*
X115258414Y-111407800D01*
X115258410Y-111407798D01*
X115254359Y-111404598D01*
X115213053Y-111381796D01*
X115163084Y-111331364D01*
X115148312Y-111261921D01*
X115173428Y-111195516D01*
X115200780Y-111168909D01*
X115244603Y-111137650D01*
X115379860Y-111041173D01*
X115538096Y-110883489D01*
X115567670Y-110842333D01*
X115665435Y-110706277D01*
X115668453Y-110702077D01*
X115677153Y-110684475D01*
X115765136Y-110506453D01*
X115765137Y-110506451D01*
X115767430Y-110501811D01*
X115809245Y-110364181D01*
X115830865Y-110293023D01*
X115830865Y-110293021D01*
X115832370Y-110288069D01*
X115861529Y-110066590D01*
X115861611Y-110063240D01*
X115863074Y-110003365D01*
X115863074Y-110003361D01*
X115863156Y-110000000D01*
X115844852Y-109777361D01*
X115790431Y-109560702D01*
X115701354Y-109355840D01*
X115610378Y-109215212D01*
X115609763Y-109214261D01*
X133410294Y-109214261D01*
X133419590Y-109226276D01*
X133449189Y-109247001D01*
X133458677Y-109252479D01*
X133640277Y-109337159D01*
X133650571Y-109340907D01*
X133844122Y-109392769D01*
X133854909Y-109394671D01*
X134054525Y-109412135D01*
X134065475Y-109412135D01*
X134265091Y-109394671D01*
X134275878Y-109392769D01*
X134469429Y-109340907D01*
X134479723Y-109337159D01*
X134661323Y-109252479D01*
X134670811Y-109247001D01*
X134701248Y-109225689D01*
X134709623Y-109215212D01*
X134702554Y-109201764D01*
X134072812Y-108572022D01*
X134058868Y-108564408D01*
X134057035Y-108564539D01*
X134050420Y-108568790D01*
X133416724Y-109202486D01*
X133410294Y-109214261D01*
X115609763Y-109214261D01*
X115582822Y-109172617D01*
X115582820Y-109172614D01*
X115580014Y-109168277D01*
X115429670Y-109003051D01*
X115425619Y-108999852D01*
X115425615Y-108999848D01*
X115258414Y-108867800D01*
X115258410Y-108867798D01*
X115254359Y-108864598D01*
X115213053Y-108841796D01*
X115163084Y-108791364D01*
X115148312Y-108721921D01*
X115173428Y-108655516D01*
X115200780Y-108628909D01*
X115244603Y-108597650D01*
X115379860Y-108501173D01*
X115407513Y-108473617D01*
X115534435Y-108347137D01*
X115538096Y-108343489D01*
X115597594Y-108260689D01*
X115637269Y-108205475D01*
X132847865Y-108205475D01*
X132865329Y-108405091D01*
X132867231Y-108415878D01*
X132919093Y-108609429D01*
X132922841Y-108619723D01*
X133007521Y-108801323D01*
X133012999Y-108810811D01*
X133034311Y-108841248D01*
X133044788Y-108849623D01*
X133058236Y-108842554D01*
X133687978Y-108212812D01*
X133694356Y-108201132D01*
X134424408Y-108201132D01*
X134424539Y-108202965D01*
X134428790Y-108209580D01*
X135062486Y-108843276D01*
X135074261Y-108849706D01*
X135086276Y-108840410D01*
X135107001Y-108810811D01*
X135112479Y-108801323D01*
X135197159Y-108619723D01*
X135200907Y-108609429D01*
X135252769Y-108415878D01*
X135254671Y-108405091D01*
X135272135Y-108205475D01*
X135272135Y-108200000D01*
X137926884Y-108200000D01*
X137945314Y-108410655D01*
X137946738Y-108415968D01*
X137946738Y-108415970D01*
X137970372Y-108504171D01*
X138000044Y-108614910D01*
X138002366Y-108619891D01*
X138002367Y-108619892D01*
X138058793Y-108740897D01*
X138089411Y-108806558D01*
X138210699Y-108979776D01*
X138360224Y-109129301D01*
X138533442Y-109250589D01*
X138538420Y-109252910D01*
X138538423Y-109252912D01*
X138698871Y-109327730D01*
X138725090Y-109339956D01*
X138730398Y-109341378D01*
X138730400Y-109341379D01*
X138924030Y-109393262D01*
X138924032Y-109393262D01*
X138929345Y-109394686D01*
X139140000Y-109413116D01*
X139350655Y-109394686D01*
X139355968Y-109393262D01*
X139355970Y-109393262D01*
X139549600Y-109341379D01*
X139549602Y-109341378D01*
X139554910Y-109339956D01*
X139581129Y-109327730D01*
X139741577Y-109252912D01*
X139741580Y-109252910D01*
X139746558Y-109250589D01*
X139919776Y-109129301D01*
X140069301Y-108979776D01*
X140087289Y-108954087D01*
X140142743Y-108909760D01*
X140213363Y-108902451D01*
X140276723Y-108934481D01*
X140312709Y-108995682D01*
X140316500Y-109026359D01*
X140316500Y-109118134D01*
X140323255Y-109180316D01*
X140374385Y-109316705D01*
X140461739Y-109433261D01*
X140578295Y-109520615D01*
X140714684Y-109571745D01*
X140776866Y-109578500D01*
X142673134Y-109578500D01*
X142735316Y-109571745D01*
X142871705Y-109520615D01*
X142988261Y-109433261D01*
X143075615Y-109316705D01*
X143100180Y-109251178D01*
X143142822Y-109194414D01*
X143209383Y-109169714D01*
X143278732Y-109184921D01*
X143298647Y-109198464D01*
X143363724Y-109252492D01*
X143454349Y-109327730D01*
X143654322Y-109444584D01*
X143870694Y-109527209D01*
X143875760Y-109528240D01*
X143875761Y-109528240D01*
X143928846Y-109539040D01*
X144097656Y-109573385D01*
X144227089Y-109578131D01*
X144323949Y-109581683D01*
X144323953Y-109581683D01*
X144329113Y-109581872D01*
X144334233Y-109581216D01*
X144334235Y-109581216D01*
X144408166Y-109571745D01*
X144558847Y-109552442D01*
X144563795Y-109550957D01*
X144563802Y-109550956D01*
X144775747Y-109487369D01*
X144780690Y-109485886D01*
X144822226Y-109465538D01*
X144984049Y-109386262D01*
X144984052Y-109386260D01*
X144988684Y-109383991D01*
X145177243Y-109249494D01*
X145341303Y-109086005D01*
X145476458Y-108897917D01*
X145500327Y-108849623D01*
X145576784Y-108694922D01*
X145576785Y-108694920D01*
X145579078Y-108690280D01*
X145646408Y-108468671D01*
X145676640Y-108239041D01*
X145677622Y-108198868D01*
X145678245Y-108173365D01*
X145678245Y-108173361D01*
X145678327Y-108170000D01*
X145659349Y-107939167D01*
X145658088Y-107934147D01*
X145657244Y-107929047D01*
X145658797Y-107928790D01*
X145661316Y-107864917D01*
X145691624Y-107816057D01*
X148098911Y-105408770D01*
X148113323Y-105396384D01*
X148124918Y-105387851D01*
X148124923Y-105387846D01*
X148130818Y-105383508D01*
X148135557Y-105377930D01*
X148135560Y-105377927D01*
X148165035Y-105343232D01*
X148171965Y-105335716D01*
X148177660Y-105330021D01*
X148195281Y-105307749D01*
X148198072Y-105304345D01*
X148240591Y-105254297D01*
X148240592Y-105254295D01*
X148245333Y-105248715D01*
X148248661Y-105242199D01*
X148252028Y-105237150D01*
X148255195Y-105232021D01*
X148259734Y-105226284D01*
X148290655Y-105160125D01*
X148292561Y-105156225D01*
X148315376Y-105111545D01*
X148364170Y-105059972D01*
X148433100Y-105042966D01*
X148497594Y-105064081D01*
X148573994Y-105115129D01*
X148578803Y-105118342D01*
X148584106Y-105120620D01*
X148584109Y-105120622D01*
X148760680Y-105196483D01*
X148765987Y-105198763D01*
X148828508Y-105212910D01*
X148959055Y-105242450D01*
X148959060Y-105242451D01*
X148964692Y-105243725D01*
X148970463Y-105243952D01*
X148970465Y-105243952D01*
X149033470Y-105246427D01*
X149168263Y-105251723D01*
X149369883Y-105222490D01*
X149375347Y-105220635D01*
X149375352Y-105220634D01*
X149557327Y-105158862D01*
X149557332Y-105158860D01*
X149562799Y-105157004D01*
X149568653Y-105153726D01*
X149679054Y-105091898D01*
X149740551Y-105057458D01*
X149744994Y-105053762D01*
X149744998Y-105053760D01*
X149761107Y-105040362D01*
X149778307Y-105026056D01*
X149843470Y-104997875D01*
X149913525Y-105009398D01*
X149928877Y-105018164D01*
X150078803Y-105118342D01*
X150084106Y-105120620D01*
X150084109Y-105120622D01*
X150260680Y-105196483D01*
X150265987Y-105198763D01*
X150328508Y-105212910D01*
X150459055Y-105242450D01*
X150459060Y-105242451D01*
X150464692Y-105243725D01*
X150470463Y-105243952D01*
X150470465Y-105243952D01*
X150533470Y-105246427D01*
X150668263Y-105251723D01*
X150869883Y-105222490D01*
X150875347Y-105220635D01*
X150875352Y-105220634D01*
X151057327Y-105158862D01*
X151057332Y-105158860D01*
X151062799Y-105157004D01*
X151068653Y-105153726D01*
X151179054Y-105091898D01*
X151240551Y-105057458D01*
X151278709Y-105025722D01*
X151343872Y-104997542D01*
X151413927Y-105009065D01*
X151429279Y-105017832D01*
X151574239Y-105114691D01*
X151584349Y-105120181D01*
X151760835Y-105196005D01*
X151771778Y-105199560D01*
X151959120Y-105241952D01*
X151970530Y-105243454D01*
X152162469Y-105250995D01*
X152173951Y-105250393D01*
X152364045Y-105222832D01*
X152375240Y-105220144D01*
X152557131Y-105158400D01*
X152567628Y-105153726D01*
X152678032Y-105091898D01*
X152687895Y-105081821D01*
X152684939Y-105074149D01*
X151839885Y-104229095D01*
X151805859Y-104166783D01*
X151807694Y-104141132D01*
X152474408Y-104141132D01*
X152474539Y-104142966D01*
X152478790Y-104149580D01*
X153040239Y-104711028D01*
X153052614Y-104717785D01*
X153059194Y-104712859D01*
X153123726Y-104597628D01*
X153128400Y-104587131D01*
X153190144Y-104405240D01*
X153192832Y-104394045D01*
X153220689Y-104201911D01*
X153221319Y-104194528D01*
X153222650Y-104143704D01*
X153222407Y-104136305D01*
X153204643Y-103942975D01*
X153202545Y-103931654D01*
X153150408Y-103746791D01*
X153146283Y-103736044D01*
X153062163Y-103565465D01*
X153054869Y-103559990D01*
X153042449Y-103566762D01*
X152482021Y-104127189D01*
X152474408Y-104141132D01*
X151807694Y-104141132D01*
X151810924Y-104095968D01*
X151839885Y-104050905D01*
X152110000Y-103780790D01*
X152680281Y-103210508D01*
X152687041Y-103198128D01*
X152681011Y-103190073D01*
X152620061Y-103151616D01*
X152609813Y-103146395D01*
X152431401Y-103075216D01*
X152420373Y-103071949D01*
X152231982Y-103034476D01*
X152220535Y-103033273D01*
X152028477Y-103030759D01*
X152016997Y-103031662D01*
X151827697Y-103064190D01*
X151816577Y-103067170D01*
X151636366Y-103133653D01*
X151625988Y-103138603D01*
X151460912Y-103236813D01*
X151451593Y-103243583D01*
X151444416Y-103249878D01*
X151380012Y-103279756D01*
X151309679Y-103270072D01*
X151288144Y-103257208D01*
X151287703Y-103256800D01*
X151282812Y-103253714D01*
X151120288Y-103151169D01*
X151120283Y-103151167D01*
X151115404Y-103148088D01*
X150926180Y-103072595D01*
X150750718Y-103037693D01*
X150732032Y-103033976D01*
X150732031Y-103033976D01*
X150726366Y-103032849D01*
X150720592Y-103032773D01*
X150720588Y-103032773D01*
X150617452Y-103031424D01*
X150522655Y-103030183D01*
X150516958Y-103031162D01*
X150516957Y-103031162D01*
X150497671Y-103034476D01*
X150321870Y-103064684D01*
X150130734Y-103135198D01*
X150125773Y-103138150D01*
X150125772Y-103138150D01*
X149960617Y-103236407D01*
X149960614Y-103236409D01*
X149955649Y-103239363D01*
X149951307Y-103243171D01*
X149951304Y-103243173D01*
X149944014Y-103249567D01*
X149879611Y-103279446D01*
X149809278Y-103269763D01*
X149787937Y-103257016D01*
X149787703Y-103256800D01*
X149766755Y-103243583D01*
X149620288Y-103151169D01*
X149620283Y-103151167D01*
X149615404Y-103148088D01*
X149426180Y-103072595D01*
X149250718Y-103037693D01*
X149232032Y-103033976D01*
X149232031Y-103033976D01*
X149226366Y-103032849D01*
X149220592Y-103032773D01*
X149220588Y-103032773D01*
X149117452Y-103031424D01*
X149022655Y-103030183D01*
X149016962Y-103031161D01*
X149016952Y-103031162D01*
X148978944Y-103037693D01*
X148908420Y-103029515D01*
X148868513Y-103002608D01*
X148113652Y-102247747D01*
X148106112Y-102239461D01*
X148102000Y-102232982D01*
X148052348Y-102186356D01*
X148049507Y-102183602D01*
X148029770Y-102163865D01*
X148026573Y-102161385D01*
X148017551Y-102153680D01*
X147985321Y-102123414D01*
X147978375Y-102119595D01*
X147978372Y-102119593D01*
X147967566Y-102113652D01*
X147951047Y-102102801D01*
X147950583Y-102102441D01*
X147935041Y-102090386D01*
X147927772Y-102087241D01*
X147927768Y-102087238D01*
X147894463Y-102072826D01*
X147883813Y-102067609D01*
X147845060Y-102046305D01*
X147825437Y-102041267D01*
X147806734Y-102034863D01*
X147795420Y-102029967D01*
X147795419Y-102029967D01*
X147788145Y-102026819D01*
X147780322Y-102025580D01*
X147780312Y-102025577D01*
X147744476Y-102019901D01*
X147732856Y-102017495D01*
X147697711Y-102008472D01*
X147697710Y-102008472D01*
X147690030Y-102006500D01*
X147669776Y-102006500D01*
X147650065Y-102004949D01*
X147647534Y-102004548D01*
X147630057Y-102001780D01*
X147622165Y-102002526D01*
X147586039Y-102005941D01*
X147574181Y-102006500D01*
X143088763Y-102006500D01*
X143077579Y-102005973D01*
X143070091Y-102004299D01*
X143062168Y-102004548D01*
X143002033Y-102006438D01*
X142998075Y-102006500D01*
X142970144Y-102006500D01*
X142966229Y-102006995D01*
X142966225Y-102006995D01*
X142966167Y-102007003D01*
X142966138Y-102007006D01*
X142954296Y-102007939D01*
X142910110Y-102009327D01*
X142894606Y-102013831D01*
X142890658Y-102014978D01*
X142871306Y-102018986D01*
X142859068Y-102020532D01*
X142859066Y-102020533D01*
X142851203Y-102021526D01*
X142810086Y-102037806D01*
X142798885Y-102041641D01*
X142756406Y-102053982D01*
X142749587Y-102058015D01*
X142749582Y-102058017D01*
X142738971Y-102064293D01*
X142721221Y-102072990D01*
X142702383Y-102080448D01*
X142695967Y-102085109D01*
X142695966Y-102085110D01*
X142666625Y-102106428D01*
X142656703Y-102112946D01*
X142646642Y-102118896D01*
X142622204Y-102133348D01*
X142553388Y-102150806D01*
X142531419Y-102147498D01*
X142531385Y-102147693D01*
X142525971Y-102146739D01*
X142520655Y-102145314D01*
X142310000Y-102126884D01*
X142099345Y-102145314D01*
X142094032Y-102146738D01*
X142094030Y-102146738D01*
X141900400Y-102198621D01*
X141900398Y-102198622D01*
X141895090Y-102200044D01*
X141890109Y-102202366D01*
X141890108Y-102202367D01*
X141708423Y-102287088D01*
X141708420Y-102287090D01*
X141703442Y-102289411D01*
X141530224Y-102410699D01*
X141380699Y-102560224D01*
X141259411Y-102733442D01*
X141257090Y-102738420D01*
X141257088Y-102738423D01*
X141172367Y-102920108D01*
X141170044Y-102925090D01*
X141168622Y-102930398D01*
X141168621Y-102930400D01*
X141132902Y-103063705D01*
X141115314Y-103129345D01*
X141096884Y-103340000D01*
X141115314Y-103550655D01*
X141116738Y-103555968D01*
X141116738Y-103555970D01*
X141167869Y-103746791D01*
X141170044Y-103754910D01*
X141172366Y-103759891D01*
X141172367Y-103759892D01*
X141255747Y-103938700D01*
X141259411Y-103946558D01*
X141380699Y-104119776D01*
X141530224Y-104269301D01*
X141703442Y-104390589D01*
X141708420Y-104392910D01*
X141708423Y-104392912D01*
X141734861Y-104405240D01*
X141895090Y-104479956D01*
X141900398Y-104481378D01*
X141900400Y-104481379D01*
X142094030Y-104533262D01*
X142094032Y-104533262D01*
X142099345Y-104534686D01*
X142310000Y-104553116D01*
X142520655Y-104534686D01*
X142525968Y-104533262D01*
X142525970Y-104533262D01*
X142719600Y-104481379D01*
X142719602Y-104481378D01*
X142724910Y-104479956D01*
X142885139Y-104405240D01*
X142911577Y-104392912D01*
X142911580Y-104392910D01*
X142916558Y-104390589D01*
X143089776Y-104269301D01*
X143239301Y-104119776D01*
X143360589Y-103946558D01*
X143364254Y-103938700D01*
X143447633Y-103759892D01*
X143447634Y-103759891D01*
X143449956Y-103754910D01*
X143452132Y-103746791D01*
X143503262Y-103555970D01*
X143503262Y-103555968D01*
X143504686Y-103550655D01*
X143518871Y-103388517D01*
X143544734Y-103322400D01*
X143602238Y-103280761D01*
X143644392Y-103273500D01*
X146621686Y-103273500D01*
X146689807Y-103293502D01*
X146736300Y-103347158D01*
X146746404Y-103417432D01*
X146720636Y-103477506D01*
X146676351Y-103533681D01*
X146673662Y-103538792D01*
X146673660Y-103538795D01*
X146659456Y-103565793D01*
X146581492Y-103713978D01*
X146521078Y-103908543D01*
X146497132Y-104110859D01*
X146510457Y-104314151D01*
X146560605Y-104511610D01*
X146563024Y-104516857D01*
X146615379Y-104630425D01*
X146625734Y-104700663D01*
X146596471Y-104765348D01*
X146590048Y-104772271D01*
X144615407Y-106746912D01*
X144553095Y-106780938D01*
X144504216Y-106781864D01*
X144403095Y-106763851D01*
X144403089Y-106763850D01*
X144398006Y-106762945D01*
X144325096Y-106762054D01*
X144171581Y-106760179D01*
X144171579Y-106760179D01*
X144166411Y-106760116D01*
X143937464Y-106795150D01*
X143717314Y-106867106D01*
X143712726Y-106869494D01*
X143712722Y-106869496D01*
X143516461Y-106971663D01*
X143511872Y-106974052D01*
X143507739Y-106977155D01*
X143507736Y-106977157D01*
X143393616Y-107062841D01*
X143326655Y-107113117D01*
X143309170Y-107131414D01*
X143247646Y-107166844D01*
X143176733Y-107163387D01*
X143118947Y-107122141D01*
X143100094Y-107088592D01*
X143078768Y-107031705D01*
X143078767Y-107031703D01*
X143075615Y-107023295D01*
X142988261Y-106906739D01*
X142871705Y-106819385D01*
X142735316Y-106768255D01*
X142673134Y-106761500D01*
X140776866Y-106761500D01*
X140714684Y-106768255D01*
X140578295Y-106819385D01*
X140461739Y-106906739D01*
X140374385Y-107023295D01*
X140323255Y-107159684D01*
X140316500Y-107221866D01*
X140316500Y-107373641D01*
X140296498Y-107441762D01*
X140242842Y-107488255D01*
X140172568Y-107498359D01*
X140107988Y-107468865D01*
X140087291Y-107445917D01*
X140069301Y-107420224D01*
X139919776Y-107270699D01*
X139746558Y-107149411D01*
X139741580Y-107147090D01*
X139741577Y-107147088D01*
X139559892Y-107062367D01*
X139559891Y-107062366D01*
X139554910Y-107060044D01*
X139549602Y-107058622D01*
X139549600Y-107058621D01*
X139355970Y-107006738D01*
X139355968Y-107006738D01*
X139350655Y-107005314D01*
X139140000Y-106986884D01*
X138929345Y-107005314D01*
X138924032Y-107006738D01*
X138924030Y-107006738D01*
X138730400Y-107058621D01*
X138730398Y-107058622D01*
X138725090Y-107060044D01*
X138720109Y-107062366D01*
X138720108Y-107062367D01*
X138538423Y-107147088D01*
X138538420Y-107147090D01*
X138533442Y-107149411D01*
X138360224Y-107270699D01*
X138210699Y-107420224D01*
X138089411Y-107593442D01*
X138087090Y-107598420D01*
X138087088Y-107598423D01*
X138019699Y-107742939D01*
X138000044Y-107785090D01*
X137998622Y-107790398D01*
X137998621Y-107790400D01*
X137961540Y-107928790D01*
X137945314Y-107989345D01*
X137926884Y-108200000D01*
X135272135Y-108200000D01*
X135272135Y-108194525D01*
X135254671Y-107994909D01*
X135252769Y-107984122D01*
X135200907Y-107790571D01*
X135197159Y-107780277D01*
X135112479Y-107598677D01*
X135107001Y-107589189D01*
X135085689Y-107558752D01*
X135075212Y-107550377D01*
X135061764Y-107557446D01*
X134432022Y-108187188D01*
X134424408Y-108201132D01*
X133694356Y-108201132D01*
X133695592Y-108198868D01*
X133695461Y-108197035D01*
X133691210Y-108190420D01*
X133057514Y-107556724D01*
X133045739Y-107550294D01*
X133033724Y-107559590D01*
X133012999Y-107589189D01*
X133007521Y-107598677D01*
X132922841Y-107780277D01*
X132919093Y-107790571D01*
X132867231Y-107984122D01*
X132865329Y-107994909D01*
X132847865Y-108194525D01*
X132847865Y-108205475D01*
X115637269Y-108205475D01*
X115665435Y-108166277D01*
X115668453Y-108162077D01*
X115767430Y-107961811D01*
X115821122Y-107785090D01*
X115830865Y-107753023D01*
X115830865Y-107753021D01*
X115832370Y-107748069D01*
X115861529Y-107526590D01*
X115862466Y-107488255D01*
X115863074Y-107463365D01*
X115863074Y-107463361D01*
X115863156Y-107460000D01*
X115844852Y-107237361D01*
X115831647Y-107184788D01*
X133410377Y-107184788D01*
X133417446Y-107198236D01*
X134047188Y-107827978D01*
X134061132Y-107835592D01*
X134062965Y-107835461D01*
X134069580Y-107831210D01*
X134703276Y-107197514D01*
X134709706Y-107185739D01*
X134700410Y-107173724D01*
X134670811Y-107152999D01*
X134661323Y-107147521D01*
X134479723Y-107062841D01*
X134469429Y-107059093D01*
X134275878Y-107007231D01*
X134265091Y-107005329D01*
X134065475Y-106987865D01*
X134054525Y-106987865D01*
X133854909Y-107005329D01*
X133844122Y-107007231D01*
X133650571Y-107059093D01*
X133640277Y-107062841D01*
X133458677Y-107147521D01*
X133449189Y-107152999D01*
X133418752Y-107174311D01*
X133410377Y-107184788D01*
X115831647Y-107184788D01*
X115790431Y-107020702D01*
X115701354Y-106815840D01*
X115580014Y-106628277D01*
X115429670Y-106463051D01*
X115425619Y-106459852D01*
X115425615Y-106459848D01*
X115258414Y-106327800D01*
X115258410Y-106327798D01*
X115254359Y-106324598D01*
X115212569Y-106301529D01*
X115162598Y-106251097D01*
X115147826Y-106181654D01*
X115172942Y-106115248D01*
X115200294Y-106088641D01*
X115375328Y-105963792D01*
X115383200Y-105957139D01*
X115534052Y-105806812D01*
X115540730Y-105798965D01*
X115665003Y-105626020D01*
X115670313Y-105617183D01*
X115764670Y-105426267D01*
X115768469Y-105416672D01*
X115830377Y-105212910D01*
X115832555Y-105202837D01*
X115833986Y-105191962D01*
X115831775Y-105177778D01*
X115818617Y-105174000D01*
X114372000Y-105174000D01*
X114303879Y-105153998D01*
X114257386Y-105100342D01*
X114246000Y-105048000D01*
X114246000Y-104792000D01*
X114266002Y-104723879D01*
X114319658Y-104677386D01*
X114372000Y-104666000D01*
X115818344Y-104666000D01*
X115831875Y-104662027D01*
X115833180Y-104652947D01*
X115791214Y-104485875D01*
X115787894Y-104476124D01*
X115702972Y-104280814D01*
X115698105Y-104271739D01*
X115582426Y-104092926D01*
X115576136Y-104084757D01*
X115432293Y-103926677D01*
X115401241Y-103862831D01*
X115409635Y-103792333D01*
X115454812Y-103737564D01*
X115481256Y-103723895D01*
X115588297Y-103683767D01*
X115596705Y-103680615D01*
X115713261Y-103593261D01*
X115742853Y-103553777D01*
X123915777Y-103553777D01*
X123925074Y-103565793D01*
X123968069Y-103595898D01*
X123977555Y-103601376D01*
X124168993Y-103690645D01*
X124179285Y-103694391D01*
X124383309Y-103749059D01*
X124394104Y-103750962D01*
X124604525Y-103769372D01*
X124615475Y-103769372D01*
X124825896Y-103750962D01*
X124836691Y-103749059D01*
X125040715Y-103694391D01*
X125051007Y-103690645D01*
X125242445Y-103601376D01*
X125251931Y-103595898D01*
X125295764Y-103565207D01*
X125304139Y-103554729D01*
X125297071Y-103541281D01*
X124622812Y-102867022D01*
X124608868Y-102859408D01*
X124607035Y-102859539D01*
X124600420Y-102863790D01*
X123922207Y-103542003D01*
X123915777Y-103553777D01*
X115742853Y-103553777D01*
X115800615Y-103476705D01*
X115851745Y-103340316D01*
X115858500Y-103278134D01*
X115858500Y-103264500D01*
X115878502Y-103196379D01*
X115932158Y-103149886D01*
X115984500Y-103138500D01*
X120065269Y-103138500D01*
X120133390Y-103158502D01*
X120146932Y-103168546D01*
X120221650Y-103232136D01*
X120394294Y-103328624D01*
X120582392Y-103389740D01*
X120778777Y-103413158D01*
X120784912Y-103412686D01*
X120784914Y-103412686D01*
X120969830Y-103398457D01*
X120969834Y-103398456D01*
X120975972Y-103397984D01*
X121166463Y-103344798D01*
X121171967Y-103342018D01*
X121171969Y-103342017D01*
X121337495Y-103258404D01*
X121337497Y-103258403D01*
X121342996Y-103255625D01*
X121498847Y-103133861D01*
X121628078Y-102984145D01*
X121725769Y-102812179D01*
X121788197Y-102624513D01*
X121803867Y-102500475D01*
X123335628Y-102500475D01*
X123354038Y-102710896D01*
X123355941Y-102721691D01*
X123410609Y-102925715D01*
X123414355Y-102936007D01*
X123503623Y-103127441D01*
X123509103Y-103136932D01*
X123539794Y-103180765D01*
X123550271Y-103189140D01*
X123563718Y-103182072D01*
X124237978Y-102507812D01*
X124245592Y-102493868D01*
X124245461Y-102492035D01*
X124241210Y-102485420D01*
X123562997Y-101807207D01*
X123551223Y-101800777D01*
X123539207Y-101810074D01*
X123509103Y-101853068D01*
X123503623Y-101862559D01*
X123414355Y-102053993D01*
X123410609Y-102064285D01*
X123355941Y-102268309D01*
X123354038Y-102279104D01*
X123335628Y-102489525D01*
X123335628Y-102500475D01*
X121803867Y-102500475D01*
X121812985Y-102428295D01*
X121813380Y-102400000D01*
X121794080Y-102203167D01*
X121736916Y-102013831D01*
X121644066Y-101839204D01*
X121557027Y-101732484D01*
X121522960Y-101690713D01*
X121522957Y-101690710D01*
X121519065Y-101685938D01*
X121506108Y-101675219D01*
X121371425Y-101563799D01*
X121371421Y-101563797D01*
X121366675Y-101559870D01*
X121192701Y-101465802D01*
X121003768Y-101407318D01*
X120997643Y-101406674D01*
X120997642Y-101406674D01*
X120813204Y-101387289D01*
X120813202Y-101387289D01*
X120807075Y-101386645D01*
X120729894Y-101393669D01*
X120616251Y-101404011D01*
X120616248Y-101404012D01*
X120610112Y-101404570D01*
X120604206Y-101406308D01*
X120604202Y-101406309D01*
X120532065Y-101427540D01*
X120420381Y-101460410D01*
X120414923Y-101463263D01*
X120414919Y-101463265D01*
X120353260Y-101495500D01*
X120245110Y-101552040D01*
X120240312Y-101555898D01*
X120240310Y-101555899D01*
X120193299Y-101593697D01*
X120127676Y-101620793D01*
X120114347Y-101621500D01*
X115984500Y-101621500D01*
X115916379Y-101601498D01*
X115869886Y-101547842D01*
X115858500Y-101495500D01*
X115858500Y-101481866D01*
X115851745Y-101419684D01*
X115800615Y-101283295D01*
X115713261Y-101166739D01*
X115596705Y-101079385D01*
X115460316Y-101028255D01*
X115398134Y-101021500D01*
X113601866Y-101021500D01*
X113539684Y-101028255D01*
X113429228Y-101069663D01*
X113358422Y-101074846D01*
X113296053Y-101040925D01*
X113261923Y-100978670D01*
X113258999Y-100951681D01*
X113258999Y-98665872D01*
X113279001Y-98597751D01*
X113295904Y-98576777D01*
X114277276Y-97595405D01*
X114339588Y-97561379D01*
X114366371Y-97558500D01*
X115498134Y-97558500D01*
X115560316Y-97551745D01*
X115696705Y-97500615D01*
X115813261Y-97413261D01*
X115900615Y-97296705D01*
X115951745Y-97160316D01*
X115958500Y-97098134D01*
X115958500Y-95301866D01*
X115951745Y-95239684D01*
X115900615Y-95103295D01*
X115813261Y-94986739D01*
X115696705Y-94899385D01*
X115675453Y-94891418D01*
X115578203Y-94854960D01*
X115521439Y-94812318D01*
X115496739Y-94745756D01*
X115511947Y-94676408D01*
X115533493Y-94647727D01*
X115616238Y-94565271D01*
X115638096Y-94543489D01*
X115697594Y-94460689D01*
X115765435Y-94366277D01*
X115768453Y-94362077D01*
X115770746Y-94357437D01*
X115772446Y-94354608D01*
X115824674Y-94306518D01*
X115880451Y-94293500D01*
X117460406Y-94293500D01*
X117528527Y-94313502D01*
X117549501Y-94330405D01*
X124289506Y-101070411D01*
X124323531Y-101132721D01*
X124318466Y-101203536D01*
X124275919Y-101260372D01*
X124233021Y-101281211D01*
X124179285Y-101295609D01*
X124168993Y-101299355D01*
X123977559Y-101388623D01*
X123968068Y-101394103D01*
X123924235Y-101424794D01*
X123915860Y-101435271D01*
X123922928Y-101448718D01*
X125401225Y-102927015D01*
X125426325Y-102962860D01*
X125503186Y-103127689D01*
X125503189Y-103127694D01*
X125505512Y-103132676D01*
X125508668Y-103137183D01*
X125508669Y-103137185D01*
X125607363Y-103278134D01*
X125633023Y-103314781D01*
X125790219Y-103471977D01*
X125794727Y-103475134D01*
X125794730Y-103475136D01*
X125870495Y-103528187D01*
X125972323Y-103599488D01*
X125977305Y-103601811D01*
X125977310Y-103601814D01*
X126167810Y-103690645D01*
X126173804Y-103693440D01*
X126179112Y-103694862D01*
X126179114Y-103694863D01*
X126231359Y-103708862D01*
X126388537Y-103750978D01*
X126610000Y-103770353D01*
X126831463Y-103750978D01*
X126988641Y-103708862D01*
X127040886Y-103694863D01*
X127040888Y-103694862D01*
X127046196Y-103693440D01*
X127052190Y-103690645D01*
X127242690Y-103601814D01*
X127242695Y-103601811D01*
X127247677Y-103599488D01*
X127349505Y-103528187D01*
X127425270Y-103475136D01*
X127425273Y-103475134D01*
X127429781Y-103471977D01*
X127520905Y-103380853D01*
X127583217Y-103346827D01*
X127654032Y-103351892D01*
X127699095Y-103380853D01*
X127790219Y-103471977D01*
X127794727Y-103475134D01*
X127794730Y-103475136D01*
X127870495Y-103528187D01*
X127972323Y-103599488D01*
X127977305Y-103601811D01*
X127977310Y-103601814D01*
X128167810Y-103690645D01*
X128173804Y-103693440D01*
X128179112Y-103694862D01*
X128179114Y-103694863D01*
X128231359Y-103708862D01*
X128388537Y-103750978D01*
X128610000Y-103770353D01*
X128831463Y-103750978D01*
X128988641Y-103708862D01*
X129040886Y-103694863D01*
X129040888Y-103694862D01*
X129046196Y-103693440D01*
X129052190Y-103690645D01*
X129242690Y-103601814D01*
X129242695Y-103601811D01*
X129247677Y-103599488D01*
X129349505Y-103528187D01*
X129425270Y-103475136D01*
X129425273Y-103475134D01*
X129429781Y-103471977D01*
X129520905Y-103380853D01*
X129583217Y-103346827D01*
X129654032Y-103351892D01*
X129699095Y-103380853D01*
X129790219Y-103471977D01*
X129794727Y-103475134D01*
X129794730Y-103475136D01*
X129870495Y-103528187D01*
X129972323Y-103599488D01*
X129977305Y-103601811D01*
X129977310Y-103601814D01*
X130167810Y-103690645D01*
X130173804Y-103693440D01*
X130179112Y-103694862D01*
X130179114Y-103694863D01*
X130231359Y-103708862D01*
X130388537Y-103750978D01*
X130610000Y-103770353D01*
X130831463Y-103750978D01*
X130988641Y-103708862D01*
X131040886Y-103694863D01*
X131040888Y-103694862D01*
X131046196Y-103693440D01*
X131052190Y-103690645D01*
X131242690Y-103601814D01*
X131242695Y-103601811D01*
X131247677Y-103599488D01*
X131349505Y-103528187D01*
X131425270Y-103475136D01*
X131425273Y-103475134D01*
X131429781Y-103471977D01*
X131586977Y-103314781D01*
X131612638Y-103278134D01*
X131711331Y-103137185D01*
X131711332Y-103137183D01*
X131714488Y-103132676D01*
X131716811Y-103127694D01*
X131716814Y-103127689D01*
X131806117Y-102936178D01*
X131806118Y-102936177D01*
X131808440Y-102931196D01*
X131865978Y-102716463D01*
X131885353Y-102495000D01*
X131865978Y-102273537D01*
X131825752Y-102123414D01*
X131809863Y-102064114D01*
X131809862Y-102064112D01*
X131808440Y-102058804D01*
X131806117Y-102053822D01*
X131716814Y-101862311D01*
X131716811Y-101862306D01*
X131714488Y-101857324D01*
X131707282Y-101847033D01*
X131590136Y-101679730D01*
X131590134Y-101679727D01*
X131586977Y-101675219D01*
X131429781Y-101518023D01*
X131425273Y-101514866D01*
X131425270Y-101514864D01*
X131344275Y-101458151D01*
X131297229Y-101425209D01*
X131252901Y-101369752D01*
X131243500Y-101321996D01*
X131243500Y-95891418D01*
X131263502Y-95823297D01*
X131275864Y-95807108D01*
X131334621Y-95741852D01*
X131334622Y-95741851D01*
X131339040Y-95736944D01*
X131434527Y-95571556D01*
X131493542Y-95389928D01*
X131496289Y-95363797D01*
X131512814Y-95206565D01*
X131513504Y-95200000D01*
X131499432Y-95066108D01*
X131494232Y-95016635D01*
X131494232Y-95016633D01*
X131493542Y-95010072D01*
X131434527Y-94828444D01*
X131339040Y-94663056D01*
X131278728Y-94596072D01*
X131215675Y-94526045D01*
X131215674Y-94526044D01*
X131211253Y-94521134D01*
X131056752Y-94408882D01*
X131050724Y-94406198D01*
X131050722Y-94406197D01*
X130888319Y-94333891D01*
X130888318Y-94333891D01*
X130882288Y-94331206D01*
X130766141Y-94306518D01*
X130701944Y-94292872D01*
X130701939Y-94292872D01*
X130695487Y-94291500D01*
X130504513Y-94291500D01*
X130498061Y-94292872D01*
X130498056Y-94292872D01*
X130433859Y-94306518D01*
X130317712Y-94331206D01*
X130311682Y-94333891D01*
X130311681Y-94333891D01*
X130149278Y-94406197D01*
X130149276Y-94406198D01*
X130143248Y-94408882D01*
X129988747Y-94521134D01*
X129984326Y-94526044D01*
X129984325Y-94526045D01*
X129921273Y-94596072D01*
X129860960Y-94663056D01*
X129765473Y-94828444D01*
X129706458Y-95010072D01*
X129705768Y-95016633D01*
X129705768Y-95016635D01*
X129700568Y-95066108D01*
X129686496Y-95200000D01*
X129687186Y-95206565D01*
X129703712Y-95363797D01*
X129706458Y-95389928D01*
X129765473Y-95571556D01*
X129860960Y-95736944D01*
X129930190Y-95813831D01*
X129944136Y-95829320D01*
X129974853Y-95893328D01*
X129976500Y-95913631D01*
X129976500Y-101321996D01*
X129956498Y-101390117D01*
X129922771Y-101425209D01*
X129794730Y-101514864D01*
X129794727Y-101514866D01*
X129790219Y-101518023D01*
X129699095Y-101609147D01*
X129636783Y-101643173D01*
X129565968Y-101638108D01*
X129520905Y-101609147D01*
X129429781Y-101518023D01*
X129425273Y-101514866D01*
X129425270Y-101514864D01*
X129344275Y-101458151D01*
X129297229Y-101425209D01*
X129252901Y-101369752D01*
X129243500Y-101321996D01*
X129243500Y-94891418D01*
X129263502Y-94823297D01*
X129275864Y-94807108D01*
X129334621Y-94741852D01*
X129334625Y-94741847D01*
X129339040Y-94736944D01*
X129434527Y-94571556D01*
X129493542Y-94389928D01*
X129513504Y-94200000D01*
X129512814Y-94193435D01*
X129494232Y-94016635D01*
X129494232Y-94016633D01*
X129493542Y-94010072D01*
X129434527Y-93828444D01*
X129339040Y-93663056D01*
X129306301Y-93626695D01*
X129215675Y-93526045D01*
X129215674Y-93526044D01*
X129211253Y-93521134D01*
X129056752Y-93408882D01*
X129050724Y-93406198D01*
X129050722Y-93406197D01*
X128888319Y-93333891D01*
X128888318Y-93333891D01*
X128882288Y-93331206D01*
X128788888Y-93311353D01*
X128701944Y-93292872D01*
X128701939Y-93292872D01*
X128695487Y-93291500D01*
X128504513Y-93291500D01*
X128498061Y-93292872D01*
X128498056Y-93292872D01*
X128411113Y-93311353D01*
X128317712Y-93331206D01*
X128311682Y-93333891D01*
X128311681Y-93333891D01*
X128149278Y-93406197D01*
X128149276Y-93406198D01*
X128143248Y-93408882D01*
X127988747Y-93521134D01*
X127984326Y-93526044D01*
X127984325Y-93526045D01*
X127893700Y-93626695D01*
X127860960Y-93663056D01*
X127765473Y-93828444D01*
X127706458Y-94010072D01*
X127705768Y-94016633D01*
X127705768Y-94016635D01*
X127687186Y-94193435D01*
X127686496Y-94200000D01*
X127706458Y-94389928D01*
X127765473Y-94571556D01*
X127768776Y-94577278D01*
X127768777Y-94577279D01*
X127809450Y-94647727D01*
X127860960Y-94736944D01*
X127865375Y-94741847D01*
X127865379Y-94741852D01*
X127944136Y-94829320D01*
X127974853Y-94893328D01*
X127976500Y-94913631D01*
X127976500Y-101321996D01*
X127956498Y-101390117D01*
X127922771Y-101425209D01*
X127794730Y-101514864D01*
X127794727Y-101514866D01*
X127790219Y-101518023D01*
X127699095Y-101609147D01*
X127636783Y-101643173D01*
X127565968Y-101638108D01*
X127520905Y-101609147D01*
X127429781Y-101518023D01*
X127425273Y-101514866D01*
X127425270Y-101514864D01*
X127345016Y-101458670D01*
X127247677Y-101390512D01*
X127242695Y-101388189D01*
X127242690Y-101388186D01*
X127051178Y-101298883D01*
X127051177Y-101298882D01*
X127046196Y-101296560D01*
X127040888Y-101295138D01*
X127040886Y-101295137D01*
X126929488Y-101265288D01*
X126831463Y-101239022D01*
X126610000Y-101219647D01*
X126388537Y-101239022D01*
X126383222Y-101240446D01*
X126383223Y-101240446D01*
X126349484Y-101249486D01*
X126278507Y-101247796D01*
X126227778Y-101216874D01*
X118278652Y-93267747D01*
X118271112Y-93259461D01*
X118267000Y-93252982D01*
X118217348Y-93206356D01*
X118214507Y-93203602D01*
X118194770Y-93183865D01*
X118191573Y-93181385D01*
X118182551Y-93173680D01*
X118156100Y-93148841D01*
X118150321Y-93143414D01*
X118143375Y-93139595D01*
X118143372Y-93139593D01*
X118132566Y-93133652D01*
X118116047Y-93122801D01*
X118115583Y-93122441D01*
X118100041Y-93110386D01*
X118092772Y-93107241D01*
X118092768Y-93107238D01*
X118059463Y-93092826D01*
X118048813Y-93087609D01*
X118010060Y-93066305D01*
X117990437Y-93061267D01*
X117971734Y-93054863D01*
X117960420Y-93049967D01*
X117960419Y-93049967D01*
X117953145Y-93046819D01*
X117945322Y-93045580D01*
X117945312Y-93045577D01*
X117909476Y-93039901D01*
X117897856Y-93037495D01*
X117862711Y-93028472D01*
X117862710Y-93028472D01*
X117855030Y-93026500D01*
X117834776Y-93026500D01*
X117815065Y-93024949D01*
X117802886Y-93023020D01*
X117795057Y-93021780D01*
X117787165Y-93022526D01*
X117751039Y-93025941D01*
X117739181Y-93026500D01*
X115876805Y-93026500D01*
X115808684Y-93006498D01*
X115771013Y-92968940D01*
X115682822Y-92832617D01*
X115682820Y-92832614D01*
X115680014Y-92828277D01*
X115529670Y-92663051D01*
X115525619Y-92659852D01*
X115525615Y-92659848D01*
X115358414Y-92527800D01*
X115358410Y-92527798D01*
X115354359Y-92524598D01*
X115158789Y-92416638D01*
X115153920Y-92414914D01*
X115153916Y-92414912D01*
X114953087Y-92343795D01*
X114953083Y-92343794D01*
X114948212Y-92342069D01*
X114943119Y-92341162D01*
X114943116Y-92341161D01*
X114733373Y-92303800D01*
X114733367Y-92303799D01*
X114728284Y-92302894D01*
X114654452Y-92301992D01*
X114510081Y-92300228D01*
X114510079Y-92300228D01*
X114504911Y-92300165D01*
X114284091Y-92333955D01*
X114071756Y-92403357D01*
X113873607Y-92506507D01*
X113869474Y-92509610D01*
X113869471Y-92509612D01*
X113845247Y-92527800D01*
X113694965Y-92640635D01*
X113540629Y-92802138D01*
X113414743Y-92986680D01*
X113376011Y-93070121D01*
X113336050Y-93156211D01*
X113320688Y-93189305D01*
X113260989Y-93404570D01*
X113237251Y-93626695D01*
X113237548Y-93631848D01*
X113237548Y-93631851D01*
X113239677Y-93668774D01*
X113250110Y-93849715D01*
X113251247Y-93854761D01*
X113251248Y-93854767D01*
X113275304Y-93961508D01*
X113299222Y-94067639D01*
X113383266Y-94274616D01*
X113499987Y-94465088D01*
X113646250Y-94633938D01*
X113650230Y-94637242D01*
X113654981Y-94641187D01*
X113694616Y-94700090D01*
X113696113Y-94771071D01*
X113658997Y-94831593D01*
X113618725Y-94856112D01*
X113549080Y-94882221D01*
X113503295Y-94899385D01*
X113386739Y-94986739D01*
X113299385Y-95103295D01*
X113248255Y-95239684D01*
X113241500Y-95301866D01*
X113241500Y-96433629D01*
X113221498Y-96501750D01*
X113204595Y-96522724D01*
X112011588Y-97715731D01*
X111997176Y-97728117D01*
X111985581Y-97736650D01*
X111985576Y-97736655D01*
X111979681Y-97740993D01*
X111974942Y-97746571D01*
X111974939Y-97746574D01*
X111945464Y-97781269D01*
X111938534Y-97788785D01*
X111932839Y-97794480D01*
X111930559Y-97797362D01*
X111915218Y-97816752D01*
X111912427Y-97820156D01*
X111893204Y-97842783D01*
X111865166Y-97875786D01*
X111861838Y-97882302D01*
X111858471Y-97887351D01*
X111855304Y-97892480D01*
X111850765Y-97898217D01*
X111819844Y-97964376D01*
X111817941Y-97968270D01*
X111784730Y-98033309D01*
X111782991Y-98040417D01*
X111780892Y-98046060D01*
X111778975Y-98051823D01*
X111775877Y-98058451D01*
X111774387Y-98065613D01*
X111774387Y-98065614D01*
X111761013Y-98129913D01*
X111760042Y-98134203D01*
X111756889Y-98147088D01*
X111721269Y-98208502D01*
X111658100Y-98240909D01*
X111587438Y-98234020D01*
X111531718Y-98190022D01*
X111508500Y-98117139D01*
X111508500Y-90882000D01*
X121341884Y-90882000D01*
X121360314Y-91092655D01*
X121361738Y-91097968D01*
X121361738Y-91097970D01*
X121413575Y-91291426D01*
X121415044Y-91296910D01*
X121417366Y-91301891D01*
X121417367Y-91301892D01*
X121420449Y-91308500D01*
X121504411Y-91488558D01*
X121625699Y-91661776D01*
X121775224Y-91811301D01*
X121796501Y-91826199D01*
X121867770Y-91876102D01*
X121912099Y-91931559D01*
X121921500Y-91979315D01*
X121921500Y-94547452D01*
X121901498Y-94615573D01*
X121889137Y-94631762D01*
X121860960Y-94663056D01*
X121857659Y-94668774D01*
X121857656Y-94668778D01*
X121777791Y-94807108D01*
X121765473Y-94828444D01*
X121706458Y-95010072D01*
X121705768Y-95016633D01*
X121705768Y-95016635D01*
X121700568Y-95066108D01*
X121686496Y-95200000D01*
X121687186Y-95206565D01*
X121703712Y-95363797D01*
X121706458Y-95389928D01*
X121765473Y-95571556D01*
X121860960Y-95736944D01*
X121865378Y-95741851D01*
X121865379Y-95741852D01*
X121951465Y-95837460D01*
X121988747Y-95878866D01*
X122143248Y-95991118D01*
X122149276Y-95993802D01*
X122149278Y-95993803D01*
X122292480Y-96057560D01*
X122317712Y-96068794D01*
X122411113Y-96088647D01*
X122498056Y-96107128D01*
X122498061Y-96107128D01*
X122504513Y-96108500D01*
X122695487Y-96108500D01*
X122701939Y-96107128D01*
X122701944Y-96107128D01*
X122788887Y-96088647D01*
X122882288Y-96068794D01*
X122907520Y-96057560D01*
X123050722Y-95993803D01*
X123050724Y-95993802D01*
X123056752Y-95991118D01*
X123211253Y-95878866D01*
X123248535Y-95837460D01*
X123334621Y-95741852D01*
X123334622Y-95741851D01*
X123339040Y-95736944D01*
X123434527Y-95571556D01*
X123493542Y-95389928D01*
X123496289Y-95363797D01*
X123512814Y-95206565D01*
X123513504Y-95200000D01*
X123499432Y-95066108D01*
X123494232Y-95016635D01*
X123494232Y-95016633D01*
X123493542Y-95010072D01*
X123434527Y-94828444D01*
X123339040Y-94663056D01*
X123278728Y-94596072D01*
X123220864Y-94531808D01*
X123190146Y-94467801D01*
X123188500Y-94447498D01*
X123188500Y-91979315D01*
X123208502Y-91911194D01*
X123242230Y-91876102D01*
X123313499Y-91826199D01*
X123334776Y-91811301D01*
X123484301Y-91661776D01*
X123605589Y-91488558D01*
X123689552Y-91308500D01*
X123692633Y-91301892D01*
X123692634Y-91301891D01*
X123694956Y-91296910D01*
X123696426Y-91291426D01*
X123703293Y-91265796D01*
X123740245Y-91205173D01*
X123804106Y-91174152D01*
X123874600Y-91182580D01*
X123929347Y-91227783D01*
X123946707Y-91265796D01*
X123953575Y-91291426D01*
X123955044Y-91296910D01*
X123957366Y-91301891D01*
X123957367Y-91301892D01*
X123960449Y-91308500D01*
X124044411Y-91488558D01*
X124165699Y-91661776D01*
X124299595Y-91795672D01*
X124333621Y-91857984D01*
X124336500Y-91884767D01*
X124336500Y-95827930D01*
X124335067Y-95846880D01*
X124333430Y-95857644D01*
X124331801Y-95868349D01*
X124332394Y-95875641D01*
X124332394Y-95875644D01*
X124336085Y-95921018D01*
X124336500Y-95931233D01*
X124336500Y-95939293D01*
X124336925Y-95942937D01*
X124339789Y-95967507D01*
X124340222Y-95971882D01*
X124342287Y-95997264D01*
X124346140Y-96044637D01*
X124348396Y-96051601D01*
X124349587Y-96057560D01*
X124350971Y-96063415D01*
X124351818Y-96070681D01*
X124376735Y-96139327D01*
X124378152Y-96143455D01*
X124381098Y-96152549D01*
X124386127Y-96185901D01*
X124386719Y-96185851D01*
X124403268Y-96382934D01*
X124457783Y-96573050D01*
X124548187Y-96748956D01*
X124671035Y-96903953D01*
X124821650Y-97032136D01*
X124994294Y-97128624D01*
X125182392Y-97189740D01*
X125378777Y-97213158D01*
X125384912Y-97212686D01*
X125384914Y-97212686D01*
X125569830Y-97198457D01*
X125569834Y-97198456D01*
X125575972Y-97197984D01*
X125766463Y-97144798D01*
X125771967Y-97142018D01*
X125771969Y-97142017D01*
X125937495Y-97058404D01*
X125937497Y-97058403D01*
X125942996Y-97055625D01*
X126098847Y-96933861D01*
X126228078Y-96784145D01*
X126325769Y-96612179D01*
X126388197Y-96424513D01*
X126412985Y-96228295D01*
X126413380Y-96200000D01*
X126394080Y-96003167D01*
X126389271Y-95987237D01*
X126360341Y-95891418D01*
X126336916Y-95813831D01*
X126244066Y-95639204D01*
X126173709Y-95552938D01*
X126122960Y-95490713D01*
X126122957Y-95490710D01*
X126119065Y-95485938D01*
X125995076Y-95383365D01*
X125971425Y-95363799D01*
X125971421Y-95363797D01*
X125966675Y-95359870D01*
X125919570Y-95334400D01*
X125869163Y-95284406D01*
X125853500Y-95223565D01*
X125853500Y-91896261D01*
X126985294Y-91896261D01*
X126994590Y-91908276D01*
X127024189Y-91929001D01*
X127033677Y-91934479D01*
X127215277Y-92019159D01*
X127225571Y-92022907D01*
X127419122Y-92074769D01*
X127429909Y-92076671D01*
X127629525Y-92094135D01*
X127640475Y-92094135D01*
X127840091Y-92076671D01*
X127850878Y-92074769D01*
X128044429Y-92022907D01*
X128054723Y-92019159D01*
X128236323Y-91934479D01*
X128245811Y-91929001D01*
X128276248Y-91907689D01*
X128284623Y-91897212D01*
X128277554Y-91883764D01*
X127647812Y-91254022D01*
X127633868Y-91246408D01*
X127632035Y-91246539D01*
X127625420Y-91250790D01*
X126991724Y-91884486D01*
X126985294Y-91896261D01*
X125853500Y-91896261D01*
X125853500Y-91884767D01*
X125873502Y-91816646D01*
X125890405Y-91795672D01*
X126024301Y-91661776D01*
X126145589Y-91488558D01*
X126229552Y-91308500D01*
X126232633Y-91301892D01*
X126232634Y-91301891D01*
X126234956Y-91296910D01*
X126236379Y-91291600D01*
X126236382Y-91291592D01*
X126243553Y-91264829D01*
X126280504Y-91204207D01*
X126344365Y-91173185D01*
X126414860Y-91181614D01*
X126469606Y-91226818D01*
X126486966Y-91264830D01*
X126494092Y-91291426D01*
X126497841Y-91301723D01*
X126582521Y-91483323D01*
X126587999Y-91492811D01*
X126609311Y-91523248D01*
X126619788Y-91531623D01*
X126633236Y-91524554D01*
X127262978Y-90894812D01*
X127269356Y-90883132D01*
X127999408Y-90883132D01*
X127999539Y-90884965D01*
X128003790Y-90891580D01*
X128637486Y-91525276D01*
X128649261Y-91531706D01*
X128661276Y-91522410D01*
X128682001Y-91492811D01*
X128687479Y-91483323D01*
X128772159Y-91301723D01*
X128775908Y-91291426D01*
X128783034Y-91264830D01*
X128819986Y-91204207D01*
X128883846Y-91173186D01*
X128954341Y-91181614D01*
X129009088Y-91226817D01*
X129026447Y-91264829D01*
X129033618Y-91291592D01*
X129033621Y-91291600D01*
X129035044Y-91296910D01*
X129037366Y-91301891D01*
X129037367Y-91301892D01*
X129040449Y-91308500D01*
X129124411Y-91488558D01*
X129245699Y-91661776D01*
X129395224Y-91811301D01*
X129568442Y-91932589D01*
X129573420Y-91934910D01*
X129573423Y-91934912D01*
X129668646Y-91979315D01*
X129760090Y-92021956D01*
X129765398Y-92023378D01*
X129765400Y-92023379D01*
X129959030Y-92075262D01*
X129959032Y-92075262D01*
X129964345Y-92076686D01*
X130175000Y-92095116D01*
X130385655Y-92076686D01*
X130390968Y-92075262D01*
X130390970Y-92075262D01*
X130584600Y-92023379D01*
X130584602Y-92023378D01*
X130589910Y-92021956D01*
X130681354Y-91979315D01*
X130776577Y-91934912D01*
X130776580Y-91934910D01*
X130781558Y-91932589D01*
X130954776Y-91811301D01*
X131104301Y-91661776D01*
X131225589Y-91488558D01*
X131309552Y-91308500D01*
X131312633Y-91301892D01*
X131312634Y-91301891D01*
X131314956Y-91296910D01*
X131316426Y-91291426D01*
X131368262Y-91097970D01*
X131368262Y-91097968D01*
X131369686Y-91092655D01*
X131388116Y-90882000D01*
X131369686Y-90671345D01*
X131347849Y-90589848D01*
X131316379Y-90472400D01*
X131316378Y-90472398D01*
X131314956Y-90467090D01*
X131294295Y-90422783D01*
X131227912Y-90280423D01*
X131227910Y-90280420D01*
X131225589Y-90275442D01*
X131104301Y-90102224D01*
X130954776Y-89952699D01*
X130781558Y-89831411D01*
X130776580Y-89829090D01*
X130776577Y-89829088D01*
X130594892Y-89744367D01*
X130594891Y-89744366D01*
X130589910Y-89742044D01*
X130584602Y-89740622D01*
X130584600Y-89740621D01*
X130390970Y-89688738D01*
X130390968Y-89688738D01*
X130385655Y-89687314D01*
X130175000Y-89668884D01*
X129964345Y-89687314D01*
X129959032Y-89688738D01*
X129959030Y-89688738D01*
X129765400Y-89740621D01*
X129765398Y-89740622D01*
X129760090Y-89742044D01*
X129755109Y-89744366D01*
X129755108Y-89744367D01*
X129573423Y-89829088D01*
X129573420Y-89829090D01*
X129568442Y-89831411D01*
X129395224Y-89952699D01*
X129245699Y-90102224D01*
X129124411Y-90275442D01*
X129122090Y-90280420D01*
X129122088Y-90280423D01*
X129055705Y-90422783D01*
X129035044Y-90467090D01*
X129033622Y-90472397D01*
X129033618Y-90472408D01*
X129026447Y-90499171D01*
X128989496Y-90559793D01*
X128925635Y-90590815D01*
X128855140Y-90582386D01*
X128800394Y-90537182D01*
X128783034Y-90499170D01*
X128775908Y-90472574D01*
X128772159Y-90462277D01*
X128687479Y-90280677D01*
X128682001Y-90271189D01*
X128660689Y-90240752D01*
X128650212Y-90232377D01*
X128636764Y-90239446D01*
X128007022Y-90869188D01*
X127999408Y-90883132D01*
X127269356Y-90883132D01*
X127270592Y-90880868D01*
X127270461Y-90879035D01*
X127266210Y-90872420D01*
X126632514Y-90238724D01*
X126620739Y-90232294D01*
X126608724Y-90241590D01*
X126587999Y-90271189D01*
X126582521Y-90280677D01*
X126497841Y-90462277D01*
X126494092Y-90472574D01*
X126486966Y-90499170D01*
X126450014Y-90559793D01*
X126386154Y-90590814D01*
X126315659Y-90582386D01*
X126260912Y-90537183D01*
X126243553Y-90499171D01*
X126236382Y-90472408D01*
X126236378Y-90472397D01*
X126234956Y-90467090D01*
X126214295Y-90422783D01*
X126147912Y-90280423D01*
X126147910Y-90280420D01*
X126145589Y-90275442D01*
X126024301Y-90102224D01*
X125874776Y-89952699D01*
X125752082Y-89866788D01*
X126985377Y-89866788D01*
X126992446Y-89880236D01*
X127622188Y-90509978D01*
X127636132Y-90517592D01*
X127637965Y-90517461D01*
X127644580Y-90513210D01*
X128278276Y-89879514D01*
X128284706Y-89867739D01*
X128275410Y-89855724D01*
X128245811Y-89834999D01*
X128236323Y-89829521D01*
X128054723Y-89744841D01*
X128044429Y-89741093D01*
X127850878Y-89689231D01*
X127840091Y-89687329D01*
X127640475Y-89669865D01*
X127629525Y-89669865D01*
X127429909Y-89687329D01*
X127419122Y-89689231D01*
X127225571Y-89741093D01*
X127215277Y-89744841D01*
X127033677Y-89829521D01*
X127024189Y-89834999D01*
X126993752Y-89856311D01*
X126985377Y-89866788D01*
X125752082Y-89866788D01*
X125701558Y-89831411D01*
X125696580Y-89829090D01*
X125696577Y-89829088D01*
X125514892Y-89744367D01*
X125514891Y-89744366D01*
X125509910Y-89742044D01*
X125504602Y-89740622D01*
X125504600Y-89740621D01*
X125310970Y-89688738D01*
X125310968Y-89688738D01*
X125305655Y-89687314D01*
X125095000Y-89668884D01*
X124884345Y-89687314D01*
X124879032Y-89688738D01*
X124879030Y-89688738D01*
X124685400Y-89740621D01*
X124685398Y-89740622D01*
X124680090Y-89742044D01*
X124675109Y-89744366D01*
X124675108Y-89744367D01*
X124493423Y-89829088D01*
X124493420Y-89829090D01*
X124488442Y-89831411D01*
X124315224Y-89952699D01*
X124165699Y-90102224D01*
X124044411Y-90275442D01*
X124042090Y-90280420D01*
X124042088Y-90280423D01*
X123975705Y-90422783D01*
X123955044Y-90467090D01*
X123953622Y-90472398D01*
X123953621Y-90472400D01*
X123946707Y-90498204D01*
X123909755Y-90558827D01*
X123845894Y-90589848D01*
X123775400Y-90581420D01*
X123720653Y-90536217D01*
X123703293Y-90498204D01*
X123696379Y-90472400D01*
X123696378Y-90472398D01*
X123694956Y-90467090D01*
X123674295Y-90422783D01*
X123607912Y-90280423D01*
X123607910Y-90280420D01*
X123605589Y-90275442D01*
X123484301Y-90102224D01*
X123334776Y-89952699D01*
X123161558Y-89831411D01*
X123156580Y-89829090D01*
X123156577Y-89829088D01*
X122974892Y-89744367D01*
X122974891Y-89744366D01*
X122969910Y-89742044D01*
X122964602Y-89740622D01*
X122964600Y-89740621D01*
X122770970Y-89688738D01*
X122770968Y-89688738D01*
X122765655Y-89687314D01*
X122555000Y-89668884D01*
X122344345Y-89687314D01*
X122339032Y-89688738D01*
X122339030Y-89688738D01*
X122145400Y-89740621D01*
X122145398Y-89740622D01*
X122140090Y-89742044D01*
X122135109Y-89744366D01*
X122135108Y-89744367D01*
X121953423Y-89829088D01*
X121953420Y-89829090D01*
X121948442Y-89831411D01*
X121775224Y-89952699D01*
X121625699Y-90102224D01*
X121504411Y-90275442D01*
X121502090Y-90280420D01*
X121502088Y-90280423D01*
X121435705Y-90422783D01*
X121415044Y-90467090D01*
X121413622Y-90472398D01*
X121413621Y-90472400D01*
X121382151Y-90589848D01*
X121360314Y-90671345D01*
X121341884Y-90882000D01*
X111508500Y-90882000D01*
X111508500Y-78632703D01*
X112390743Y-78632703D01*
X112428268Y-78917734D01*
X112429401Y-78921874D01*
X112429401Y-78921876D01*
X112447683Y-78988702D01*
X112504129Y-79195036D01*
X112505813Y-79198984D01*
X112589828Y-79395952D01*
X112616923Y-79459476D01*
X112764561Y-79706161D01*
X112944313Y-79930528D01*
X112963174Y-79948426D01*
X113088378Y-80067240D01*
X113152851Y-80128423D01*
X113386317Y-80296186D01*
X113390112Y-80298195D01*
X113390113Y-80298196D01*
X113411869Y-80309715D01*
X113640392Y-80430712D01*
X113910373Y-80529511D01*
X114191264Y-80590755D01*
X114219841Y-80593004D01*
X114414282Y-80608307D01*
X114414291Y-80608307D01*
X114416739Y-80608500D01*
X114572271Y-80608500D01*
X114574407Y-80608354D01*
X114574418Y-80608354D01*
X114782548Y-80594165D01*
X114782554Y-80594164D01*
X114786825Y-80593873D01*
X114791020Y-80593004D01*
X114791022Y-80593004D01*
X114976898Y-80554511D01*
X115068342Y-80535574D01*
X115339343Y-80439607D01*
X115509527Y-80351769D01*
X115591005Y-80309715D01*
X115591006Y-80309715D01*
X115594812Y-80307750D01*
X115598313Y-80305289D01*
X115598317Y-80305287D01*
X115783299Y-80175279D01*
X115830023Y-80142441D01*
X115931226Y-80048397D01*
X116037479Y-79949661D01*
X116037481Y-79949658D01*
X116040622Y-79946740D01*
X116222713Y-79724268D01*
X116372927Y-79479142D01*
X116488483Y-79215898D01*
X116567244Y-78939406D01*
X116607751Y-78654784D01*
X116607845Y-78636951D01*
X116609235Y-78371583D01*
X116609235Y-78371576D01*
X116609257Y-78367297D01*
X116571732Y-78082266D01*
X116495871Y-77804964D01*
X116413890Y-77612763D01*
X116384763Y-77544476D01*
X116384761Y-77544472D01*
X116383077Y-77540524D01*
X116253818Y-77324548D01*
X116237643Y-77297521D01*
X116237640Y-77297517D01*
X116235439Y-77293839D01*
X116055687Y-77069472D01*
X115847149Y-76871577D01*
X115613683Y-76703814D01*
X115591843Y-76692250D01*
X115568654Y-76679972D01*
X115359608Y-76569288D01*
X115153120Y-76493724D01*
X115093658Y-76471964D01*
X115093656Y-76471963D01*
X115089627Y-76470489D01*
X114808736Y-76409245D01*
X114777685Y-76406801D01*
X114585718Y-76391693D01*
X114585709Y-76391693D01*
X114583261Y-76391500D01*
X114427729Y-76391500D01*
X114425593Y-76391646D01*
X114425582Y-76391646D01*
X114217452Y-76405835D01*
X114217446Y-76405836D01*
X114213175Y-76406127D01*
X114208980Y-76406996D01*
X114208978Y-76406996D01*
X114093429Y-76430925D01*
X113931658Y-76464426D01*
X113660657Y-76560393D01*
X113405188Y-76692250D01*
X113401687Y-76694711D01*
X113401683Y-76694713D01*
X113391594Y-76701804D01*
X113169977Y-76857559D01*
X112959378Y-77053260D01*
X112777287Y-77275732D01*
X112627073Y-77520858D01*
X112625347Y-77524791D01*
X112625346Y-77524792D01*
X112540861Y-77717255D01*
X112511517Y-77784102D01*
X112432756Y-78060594D01*
X112392249Y-78345216D01*
X112392227Y-78349505D01*
X112392226Y-78349512D01*
X112391001Y-78583365D01*
X112390743Y-78632703D01*
X111508500Y-78632703D01*
X111508500Y-76553250D01*
X111510246Y-76532345D01*
X111512770Y-76517344D01*
X111512770Y-76517341D01*
X111513576Y-76512552D01*
X111513729Y-76500000D01*
X111512542Y-76491709D01*
X111511748Y-76462870D01*
X111512053Y-76459393D01*
X111522603Y-76338804D01*
X111526417Y-76317178D01*
X111565443Y-76171534D01*
X111572954Y-76150896D01*
X111636678Y-76014240D01*
X111647660Y-75995220D01*
X111734147Y-75871703D01*
X111748265Y-75854878D01*
X111854878Y-75748265D01*
X111871703Y-75734147D01*
X111995220Y-75647660D01*
X112014240Y-75636678D01*
X112150896Y-75572954D01*
X112171534Y-75565443D01*
X112317178Y-75526417D01*
X112338806Y-75522603D01*
X112395341Y-75517656D01*
X112459393Y-75512053D01*
X112475871Y-75512607D01*
X112475876Y-75512200D01*
X112484853Y-75512310D01*
X112493724Y-75513691D01*
X112502626Y-75512527D01*
X112502628Y-75512527D01*
X112520023Y-75510252D01*
X112525286Y-75509564D01*
X112541621Y-75508500D01*
X157976218Y-75508500D01*
X158044339Y-75528502D01*
G37*
G04 #@! TD.AperFunction*
M02*
