G04 #@! TF.GenerationSoftware,KiCad,Pcbnew,6.0.11-2627ca5db0~126~ubuntu22.04.1*
G04 #@! TF.CreationDate,2023-03-04T00:28:54+01:00*
G04 #@! TF.ProjectId,mini-adapter,6d696e69-2d61-4646-9170-7465722e6b69,rev?*
G04 #@! TF.SameCoordinates,Original*
G04 #@! TF.FileFunction,Legend,Top*
G04 #@! TF.FilePolarity,Positive*
%FSLAX46Y46*%
G04 Gerber Fmt 4.6, Leading zero omitted, Abs format (unit mm)*
G04 Created by KiCad (PCBNEW 6.0.11-2627ca5db0~126~ubuntu22.04.1) date 2023-03-04 00:28:54*
%MOMM*%
%LPD*%
G01*
G04 APERTURE LIST*
G04 Aperture macros list*
%AMRoundRect*
0 Rectangle with rounded corners*
0 $1 Rounding radius*
0 $2 $3 $4 $5 $6 $7 $8 $9 X,Y pos of 4 corners*
0 Add a 4 corners polygon primitive as box body*
4,1,4,$2,$3,$4,$5,$6,$7,$8,$9,$2,$3,0*
0 Add four circle primitives for the rounded corners*
1,1,$1+$1,$2,$3*
1,1,$1+$1,$4,$5*
1,1,$1+$1,$6,$7*
1,1,$1+$1,$8,$9*
0 Add four rect primitives between the rounded corners*
20,1,$1+$1,$2,$3,$4,$5,0*
20,1,$1+$1,$4,$5,$6,$7,0*
20,1,$1+$1,$6,$7,$8,$9,0*
20,1,$1+$1,$8,$9,$2,$3,0*%
G04 Aperture macros list end*
%ADD10C,0.150000*%
%ADD11C,0.200000*%
%ADD12C,0.304800*%
%ADD13C,0.125000*%
%ADD14C,0.120000*%
%ADD15C,0.381000*%
%ADD16C,0.010000*%
%ADD17C,0.500000*%
%ADD18C,1.500000*%
%ADD19C,3.500000*%
%ADD20C,1.400000*%
%ADD21O,1.400000X1.400000*%
%ADD22C,2.500000*%
%ADD23O,2.500000X4.000000*%
%ADD24R,1.700000X1.700000*%
%ADD25O,1.700000X1.700000*%
%ADD26C,3.200000*%
%ADD27RoundRect,0.250000X-0.350000X-0.625000X0.350000X-0.625000X0.350000X0.625000X-0.350000X0.625000X0*%
%ADD28O,1.200000X1.750000*%
%ADD29R,1.800000X1.800000*%
%ADD30C,1.800000*%
%ADD31C,1.200000*%
G04 APERTURE END LIST*
D10*
X124036200Y-108127704D02*
X123988580Y-108222942D01*
X123988580Y-108365800D01*
X124036200Y-108508657D01*
X124131438Y-108603895D01*
X124226676Y-108651514D01*
X124417152Y-108699133D01*
X124560009Y-108699133D01*
X124750485Y-108651514D01*
X124845723Y-108603895D01*
X124940961Y-108508657D01*
X124988580Y-108365800D01*
X124988580Y-108270561D01*
X124940961Y-108127704D01*
X124893342Y-108080085D01*
X124560009Y-108080085D01*
X124560009Y-108270561D01*
X124988580Y-107651514D02*
X123988580Y-107651514D01*
X124988580Y-107080085D01*
X123988580Y-107080085D01*
X124988580Y-106603895D02*
X123988580Y-106603895D01*
X123988580Y-106365800D01*
X124036200Y-106222942D01*
X124131438Y-106127704D01*
X124226676Y-106080085D01*
X124417152Y-106032466D01*
X124560009Y-106032466D01*
X124750485Y-106080085D01*
X124845723Y-106127704D01*
X124940961Y-106222942D01*
X124988580Y-106365800D01*
X124988580Y-106603895D01*
X116968733Y-105614742D02*
X116921114Y-105662361D01*
X116778257Y-105709980D01*
X116683019Y-105709980D01*
X116540161Y-105662361D01*
X116444923Y-105567123D01*
X116397304Y-105471885D01*
X116349685Y-105281409D01*
X116349685Y-105138552D01*
X116397304Y-104948076D01*
X116444923Y-104852838D01*
X116540161Y-104757600D01*
X116683019Y-104709980D01*
X116778257Y-104709980D01*
X116921114Y-104757600D01*
X116968733Y-104805219D01*
X117349685Y-105424266D02*
X117825876Y-105424266D01*
X117254447Y-105709980D02*
X117587780Y-104709980D01*
X117921114Y-105709980D01*
X118254447Y-105709980D02*
X118254447Y-104709980D01*
X118825876Y-105709980D01*
X118825876Y-104709980D01*
X119302066Y-105709980D02*
X119302066Y-104709980D01*
X119302066Y-105186171D02*
X119873495Y-105186171D01*
X119873495Y-105709980D02*
X119873495Y-104709980D01*
X129008142Y-108642019D02*
X129055761Y-108689638D01*
X129103380Y-108832495D01*
X129103380Y-108927733D01*
X129055761Y-109070590D01*
X128960523Y-109165828D01*
X128865285Y-109213447D01*
X128674809Y-109261066D01*
X128531952Y-109261066D01*
X128341476Y-109213447D01*
X128246238Y-109165828D01*
X128151000Y-109070590D01*
X128103380Y-108927733D01*
X128103380Y-108832495D01*
X128151000Y-108689638D01*
X128198619Y-108642019D01*
X128817666Y-108261066D02*
X128817666Y-107784876D01*
X129103380Y-108356304D02*
X128103380Y-108022971D01*
X129103380Y-107689638D01*
X129103380Y-107356304D02*
X128103380Y-107356304D01*
X129103380Y-106784876D01*
X128103380Y-106784876D01*
X129103380Y-105832495D02*
X129103380Y-106308685D01*
X128103380Y-106308685D01*
X116411523Y-94651580D02*
X116744857Y-95651580D01*
X117078190Y-94651580D01*
X117840095Y-95603961D02*
X117744857Y-95651580D01*
X117554380Y-95651580D01*
X117459142Y-95603961D01*
X117411523Y-95556342D01*
X117363904Y-95461104D01*
X117363904Y-95175390D01*
X117411523Y-95080152D01*
X117459142Y-95032533D01*
X117554380Y-94984914D01*
X117744857Y-94984914D01*
X117840095Y-95032533D01*
X118697238Y-95603961D02*
X118602000Y-95651580D01*
X118411523Y-95651580D01*
X118316285Y-95603961D01*
X118268666Y-95556342D01*
X118221047Y-95461104D01*
X118221047Y-95175390D01*
X118268666Y-95080152D01*
X118316285Y-95032533D01*
X118411523Y-94984914D01*
X118602000Y-94984914D01*
X118697238Y-95032533D01*
X117087780Y-103100142D02*
X117040161Y-103147761D01*
X116897304Y-103195380D01*
X116802066Y-103195380D01*
X116659209Y-103147761D01*
X116563971Y-103052523D01*
X116516352Y-102957285D01*
X116468733Y-102766809D01*
X116468733Y-102623952D01*
X116516352Y-102433476D01*
X116563971Y-102338238D01*
X116659209Y-102243000D01*
X116802066Y-102195380D01*
X116897304Y-102195380D01*
X117040161Y-102243000D01*
X117087780Y-102290619D01*
X117468733Y-102909666D02*
X117944923Y-102909666D01*
X117373495Y-103195380D02*
X117706828Y-102195380D01*
X118040161Y-103195380D01*
X118373495Y-103195380D02*
X118373495Y-102195380D01*
X118944923Y-103195380D01*
X118944923Y-102195380D01*
X119897304Y-103195380D02*
X119421114Y-103195380D01*
X119421114Y-102195380D01*
X127426933Y-108540419D02*
X127379314Y-108588038D01*
X127236457Y-108683276D01*
X127141219Y-108730895D01*
X126998361Y-108778514D01*
X126760266Y-108826133D01*
X126569790Y-108826133D01*
X126331695Y-108778514D01*
X126188838Y-108730895D01*
X126093600Y-108683276D01*
X125950742Y-108588038D01*
X125903123Y-108540419D01*
X126045980Y-107683276D02*
X126045980Y-108159466D01*
X126522171Y-108207085D01*
X126474552Y-108159466D01*
X126426933Y-108064228D01*
X126426933Y-107826133D01*
X126474552Y-107730895D01*
X126522171Y-107683276D01*
X126617409Y-107635657D01*
X126855504Y-107635657D01*
X126950742Y-107683276D01*
X126998361Y-107730895D01*
X127045980Y-107826133D01*
X127045980Y-108064228D01*
X126998361Y-108159466D01*
X126950742Y-108207085D01*
X126045980Y-107349942D02*
X127045980Y-107016609D01*
X126045980Y-106683276D01*
X127426933Y-106445180D02*
X127379314Y-106397561D01*
X127236457Y-106302323D01*
X127141219Y-106254704D01*
X126998361Y-106207085D01*
X126760266Y-106159466D01*
X126569790Y-106159466D01*
X126331695Y-106207085D01*
X126188838Y-106254704D01*
X126093600Y-106302323D01*
X125950742Y-106397561D01*
X125903123Y-106445180D01*
X131057142Y-108710266D02*
X131104761Y-108757885D01*
X131152380Y-108900742D01*
X131152380Y-108995980D01*
X131104761Y-109138838D01*
X131009523Y-109234076D01*
X130914285Y-109281695D01*
X130723809Y-109329314D01*
X130580952Y-109329314D01*
X130390476Y-109281695D01*
X130295238Y-109234076D01*
X130200000Y-109138838D01*
X130152380Y-108995980D01*
X130152380Y-108900742D01*
X130200000Y-108757885D01*
X130247619Y-108710266D01*
X130866666Y-108329314D02*
X130866666Y-107853123D01*
X131152380Y-108424552D02*
X130152380Y-108091219D01*
X131152380Y-107757885D01*
X131152380Y-107424552D02*
X130152380Y-107424552D01*
X131152380Y-106853123D01*
X130152380Y-106853123D01*
X131152380Y-106376933D02*
X130152380Y-106376933D01*
X130628571Y-106376933D02*
X130628571Y-105805504D01*
X131152380Y-105805504D02*
X130152380Y-105805504D01*
X117043295Y-97163000D02*
X116948057Y-97115380D01*
X116805200Y-97115380D01*
X116662342Y-97163000D01*
X116567104Y-97258238D01*
X116519485Y-97353476D01*
X116471866Y-97543952D01*
X116471866Y-97686809D01*
X116519485Y-97877285D01*
X116567104Y-97972523D01*
X116662342Y-98067761D01*
X116805200Y-98115380D01*
X116900438Y-98115380D01*
X117043295Y-98067761D01*
X117090914Y-98020142D01*
X117090914Y-97686809D01*
X116900438Y-97686809D01*
X117519485Y-98115380D02*
X117519485Y-97115380D01*
X118090914Y-98115380D01*
X118090914Y-97115380D01*
X118567104Y-98115380D02*
X118567104Y-97115380D01*
X118805200Y-97115380D01*
X118948057Y-97163000D01*
X119043295Y-97258238D01*
X119090914Y-97353476D01*
X119138533Y-97543952D01*
X119138533Y-97686809D01*
X119090914Y-97877285D01*
X119043295Y-97972523D01*
X118948057Y-98067761D01*
X118805200Y-98115380D01*
X118567104Y-98115380D01*
D11*
X156947380Y-101347619D02*
X157756904Y-101347619D01*
X157852142Y-101300000D01*
X157899761Y-101252380D01*
X157947380Y-101157142D01*
X157947380Y-100966666D01*
X157899761Y-100871428D01*
X157852142Y-100823809D01*
X157756904Y-100776190D01*
X156947380Y-100776190D01*
X157280714Y-100300000D02*
X157947380Y-100300000D01*
X157375952Y-100300000D02*
X157328333Y-100252380D01*
X157280714Y-100157142D01*
X157280714Y-100014285D01*
X157328333Y-99919047D01*
X157423571Y-99871428D01*
X157947380Y-99871428D01*
X157947380Y-99395238D02*
X157280714Y-99395238D01*
X156947380Y-99395238D02*
X156995000Y-99442857D01*
X157042619Y-99395238D01*
X156995000Y-99347619D01*
X156947380Y-99395238D01*
X157042619Y-99395238D01*
X157280714Y-99014285D02*
X157947380Y-98776190D01*
X157280714Y-98538095D01*
X157899761Y-97776190D02*
X157947380Y-97871428D01*
X157947380Y-98061904D01*
X157899761Y-98157142D01*
X157804523Y-98204761D01*
X157423571Y-98204761D01*
X157328333Y-98157142D01*
X157280714Y-98061904D01*
X157280714Y-97871428D01*
X157328333Y-97776190D01*
X157423571Y-97728571D01*
X157518809Y-97728571D01*
X157614047Y-98204761D01*
X157947380Y-97300000D02*
X157280714Y-97300000D01*
X157471190Y-97300000D02*
X157375952Y-97252380D01*
X157328333Y-97204761D01*
X157280714Y-97109523D01*
X157280714Y-97014285D01*
X157899761Y-96728571D02*
X157947380Y-96633333D01*
X157947380Y-96442857D01*
X157899761Y-96347619D01*
X157804523Y-96300000D01*
X157756904Y-96300000D01*
X157661666Y-96347619D01*
X157614047Y-96442857D01*
X157614047Y-96585714D01*
X157566428Y-96680952D01*
X157471190Y-96728571D01*
X157423571Y-96728571D01*
X157328333Y-96680952D01*
X157280714Y-96585714D01*
X157280714Y-96442857D01*
X157328333Y-96347619D01*
X157947380Y-95442857D02*
X157423571Y-95442857D01*
X157328333Y-95490476D01*
X157280714Y-95585714D01*
X157280714Y-95776190D01*
X157328333Y-95871428D01*
X157899761Y-95442857D02*
X157947380Y-95538095D01*
X157947380Y-95776190D01*
X157899761Y-95871428D01*
X157804523Y-95919047D01*
X157709285Y-95919047D01*
X157614047Y-95871428D01*
X157566428Y-95776190D01*
X157566428Y-95538095D01*
X157518809Y-95442857D01*
X157947380Y-94823809D02*
X157899761Y-94919047D01*
X157804523Y-94966666D01*
X156947380Y-94966666D01*
X157566428Y-94442857D02*
X157566428Y-93680952D01*
X157852142Y-92633333D02*
X157899761Y-92680952D01*
X157947380Y-92823809D01*
X157947380Y-92919047D01*
X157899761Y-93061904D01*
X157804523Y-93157142D01*
X157709285Y-93204761D01*
X157518809Y-93252380D01*
X157375952Y-93252380D01*
X157185476Y-93204761D01*
X157090238Y-93157142D01*
X156995000Y-93061904D01*
X156947380Y-92919047D01*
X156947380Y-92823809D01*
X156995000Y-92680952D01*
X157042619Y-92633333D01*
X157661666Y-92252380D02*
X157661666Y-91776190D01*
X157947380Y-92347619D02*
X156947380Y-92014285D01*
X157947380Y-91680952D01*
X157947380Y-91347619D02*
X156947380Y-91347619D01*
X157947380Y-90776190D01*
X156947380Y-90776190D01*
X156947380Y-89347619D02*
X156947380Y-89252380D01*
X156995000Y-89157142D01*
X157042619Y-89109523D01*
X157137857Y-89061904D01*
X157328333Y-89014285D01*
X157566428Y-89014285D01*
X157756904Y-89061904D01*
X157852142Y-89109523D01*
X157899761Y-89157142D01*
X157947380Y-89252380D01*
X157947380Y-89347619D01*
X157899761Y-89442857D01*
X157852142Y-89490476D01*
X157756904Y-89538095D01*
X157566428Y-89585714D01*
X157328333Y-89585714D01*
X157137857Y-89538095D01*
X157042619Y-89490476D01*
X156995000Y-89442857D01*
X156947380Y-89347619D01*
X156947380Y-88680952D02*
X156947380Y-88061904D01*
X157328333Y-88395238D01*
X157328333Y-88252380D01*
X157375952Y-88157142D01*
X157423571Y-88109523D01*
X157518809Y-88061904D01*
X157756904Y-88061904D01*
X157852142Y-88109523D01*
X157899761Y-88157142D01*
X157947380Y-88252380D01*
X157947380Y-88538095D01*
X157899761Y-88633333D01*
X157852142Y-88680952D01*
X156899761Y-86919047D02*
X158185476Y-87776190D01*
X157042619Y-86633333D02*
X156995000Y-86585714D01*
X156947380Y-86490476D01*
X156947380Y-86252380D01*
X156995000Y-86157142D01*
X157042619Y-86109523D01*
X157137857Y-86061904D01*
X157233095Y-86061904D01*
X157375952Y-86109523D01*
X157947380Y-86680952D01*
X157947380Y-86061904D01*
X156947380Y-85442857D02*
X156947380Y-85347619D01*
X156995000Y-85252380D01*
X157042619Y-85204761D01*
X157137857Y-85157142D01*
X157328333Y-85109523D01*
X157566428Y-85109523D01*
X157756904Y-85157142D01*
X157852142Y-85204761D01*
X157899761Y-85252380D01*
X157947380Y-85347619D01*
X157947380Y-85442857D01*
X157899761Y-85538095D01*
X157852142Y-85585714D01*
X157756904Y-85633333D01*
X157566428Y-85680952D01*
X157328333Y-85680952D01*
X157137857Y-85633333D01*
X157042619Y-85585714D01*
X156995000Y-85538095D01*
X156947380Y-85442857D01*
X157042619Y-84728571D02*
X156995000Y-84680952D01*
X156947380Y-84585714D01*
X156947380Y-84347619D01*
X156995000Y-84252380D01*
X157042619Y-84204761D01*
X157137857Y-84157142D01*
X157233095Y-84157142D01*
X157375952Y-84204761D01*
X157947380Y-84776190D01*
X157947380Y-84157142D01*
X156947380Y-83823809D02*
X156947380Y-83204761D01*
X157328333Y-83538095D01*
X157328333Y-83395238D01*
X157375952Y-83300000D01*
X157423571Y-83252380D01*
X157518809Y-83204761D01*
X157756904Y-83204761D01*
X157852142Y-83252380D01*
X157899761Y-83300000D01*
X157947380Y-83395238D01*
X157947380Y-83680952D01*
X157899761Y-83776190D01*
X157852142Y-83823809D01*
X158605000Y-99466666D02*
X158557380Y-99561904D01*
X158557380Y-99704761D01*
X158605000Y-99847619D01*
X158700238Y-99942857D01*
X158795476Y-99990476D01*
X158985952Y-100038095D01*
X159128809Y-100038095D01*
X159319285Y-99990476D01*
X159414523Y-99942857D01*
X159509761Y-99847619D01*
X159557380Y-99704761D01*
X159557380Y-99609523D01*
X159509761Y-99466666D01*
X159462142Y-99419047D01*
X159128809Y-99419047D01*
X159128809Y-99609523D01*
X159509761Y-98609523D02*
X159557380Y-98704761D01*
X159557380Y-98895238D01*
X159509761Y-98990476D01*
X159414523Y-99038095D01*
X159033571Y-99038095D01*
X158938333Y-98990476D01*
X158890714Y-98895238D01*
X158890714Y-98704761D01*
X158938333Y-98609523D01*
X159033571Y-98561904D01*
X159128809Y-98561904D01*
X159224047Y-99038095D01*
X159557380Y-98133333D02*
X158890714Y-98133333D01*
X159081190Y-98133333D02*
X158985952Y-98085714D01*
X158938333Y-98038095D01*
X158890714Y-97942857D01*
X158890714Y-97847619D01*
X159557380Y-97514285D02*
X158557380Y-97514285D01*
X159557380Y-97085714D02*
X159033571Y-97085714D01*
X158938333Y-97133333D01*
X158890714Y-97228571D01*
X158890714Y-97371428D01*
X158938333Y-97466666D01*
X158985952Y-97514285D01*
X159557380Y-96180952D02*
X159033571Y-96180952D01*
X158938333Y-96228571D01*
X158890714Y-96323809D01*
X158890714Y-96514285D01*
X158938333Y-96609523D01*
X159509761Y-96180952D02*
X159557380Y-96276190D01*
X159557380Y-96514285D01*
X159509761Y-96609523D01*
X159414523Y-96657142D01*
X159319285Y-96657142D01*
X159224047Y-96609523D01*
X159176428Y-96514285D01*
X159176428Y-96276190D01*
X159128809Y-96180952D01*
X159557380Y-95704761D02*
X158890714Y-95704761D01*
X159081190Y-95704761D02*
X158985952Y-95657142D01*
X158938333Y-95609523D01*
X158890714Y-95514285D01*
X158890714Y-95419047D01*
X159557380Y-94657142D02*
X158557380Y-94657142D01*
X159509761Y-94657142D02*
X159557380Y-94752380D01*
X159557380Y-94942857D01*
X159509761Y-95038095D01*
X159462142Y-95085714D01*
X159366904Y-95133333D01*
X159081190Y-95133333D01*
X158985952Y-95085714D01*
X158938333Y-95038095D01*
X158890714Y-94942857D01*
X158890714Y-94752380D01*
X158938333Y-94657142D01*
X159033571Y-93085714D02*
X159081190Y-92942857D01*
X159128809Y-92895238D01*
X159224047Y-92847619D01*
X159366904Y-92847619D01*
X159462142Y-92895238D01*
X159509761Y-92942857D01*
X159557380Y-93038095D01*
X159557380Y-93419047D01*
X158557380Y-93419047D01*
X158557380Y-93085714D01*
X158605000Y-92990476D01*
X158652619Y-92942857D01*
X158747857Y-92895238D01*
X158843095Y-92895238D01*
X158938333Y-92942857D01*
X158985952Y-92990476D01*
X159033571Y-93085714D01*
X159033571Y-93419047D01*
X159509761Y-92038095D02*
X159557380Y-92133333D01*
X159557380Y-92323809D01*
X159509761Y-92419047D01*
X159414523Y-92466666D01*
X159033571Y-92466666D01*
X158938333Y-92419047D01*
X158890714Y-92323809D01*
X158890714Y-92133333D01*
X158938333Y-92038095D01*
X159033571Y-91990476D01*
X159128809Y-91990476D01*
X159224047Y-92466666D01*
X159557380Y-91561904D02*
X158890714Y-91561904D01*
X159081190Y-91561904D02*
X158985952Y-91514285D01*
X158938333Y-91466666D01*
X158890714Y-91371428D01*
X158890714Y-91276190D01*
X158890714Y-91085714D02*
X158890714Y-90704761D01*
X158557380Y-90942857D02*
X159414523Y-90942857D01*
X159509761Y-90895238D01*
X159557380Y-90800000D01*
X159557380Y-90704761D01*
X159509761Y-89990476D02*
X159557380Y-90085714D01*
X159557380Y-90276190D01*
X159509761Y-90371428D01*
X159414523Y-90419047D01*
X159033571Y-90419047D01*
X158938333Y-90371428D01*
X158890714Y-90276190D01*
X158890714Y-90085714D01*
X158938333Y-89990476D01*
X159033571Y-89942857D01*
X159128809Y-89942857D01*
X159224047Y-90419047D01*
X159557380Y-89371428D02*
X159509761Y-89466666D01*
X159414523Y-89514285D01*
X158557380Y-89514285D01*
X159509761Y-89038095D02*
X159557380Y-88942857D01*
X159557380Y-88752380D01*
X159509761Y-88657142D01*
X159414523Y-88609523D01*
X159366904Y-88609523D01*
X159271666Y-88657142D01*
X159224047Y-88752380D01*
X159224047Y-88895238D01*
X159176428Y-88990476D01*
X159081190Y-89038095D01*
X159033571Y-89038095D01*
X158938333Y-88990476D01*
X158890714Y-88895238D01*
X158890714Y-88752380D01*
X158938333Y-88657142D01*
X159557380Y-88180952D02*
X158890714Y-88180952D01*
X158985952Y-88180952D02*
X158938333Y-88133333D01*
X158890714Y-88038095D01*
X158890714Y-87895238D01*
X158938333Y-87800000D01*
X159033571Y-87752380D01*
X159557380Y-87752380D01*
X159033571Y-87752380D02*
X158938333Y-87704761D01*
X158890714Y-87609523D01*
X158890714Y-87466666D01*
X158938333Y-87371428D01*
X159033571Y-87323809D01*
X159557380Y-87323809D01*
X159557380Y-86419047D02*
X159033571Y-86419047D01*
X158938333Y-86466666D01*
X158890714Y-86561904D01*
X158890714Y-86752380D01*
X158938333Y-86847619D01*
X159509761Y-86419047D02*
X159557380Y-86514285D01*
X159557380Y-86752380D01*
X159509761Y-86847619D01*
X159414523Y-86895238D01*
X159319285Y-86895238D01*
X159224047Y-86847619D01*
X159176428Y-86752380D01*
X159176428Y-86514285D01*
X159128809Y-86419047D01*
X158890714Y-85942857D02*
X159557380Y-85942857D01*
X158985952Y-85942857D02*
X158938333Y-85895238D01*
X158890714Y-85800000D01*
X158890714Y-85657142D01*
X158938333Y-85561904D01*
X159033571Y-85514285D01*
X159557380Y-85514285D01*
X158890714Y-85038095D02*
X159557380Y-85038095D01*
X158985952Y-85038095D02*
X158938333Y-84990476D01*
X158890714Y-84895238D01*
X158890714Y-84752380D01*
X158938333Y-84657142D01*
X159033571Y-84609523D01*
X159557380Y-84609523D01*
D10*
X116782980Y-101036333D02*
X116735361Y-100988714D01*
X116640123Y-100845857D01*
X116592504Y-100750619D01*
X116544885Y-100607761D01*
X116497266Y-100369666D01*
X116497266Y-100179190D01*
X116544885Y-99941095D01*
X116592504Y-99798238D01*
X116640123Y-99703000D01*
X116735361Y-99560142D01*
X116782980Y-99512523D01*
X117640123Y-99655380D02*
X117163933Y-99655380D01*
X117116314Y-100131571D01*
X117163933Y-100083952D01*
X117259171Y-100036333D01*
X117497266Y-100036333D01*
X117592504Y-100083952D01*
X117640123Y-100131571D01*
X117687742Y-100226809D01*
X117687742Y-100464904D01*
X117640123Y-100560142D01*
X117592504Y-100607761D01*
X117497266Y-100655380D01*
X117259171Y-100655380D01*
X117163933Y-100607761D01*
X117116314Y-100560142D01*
X117973457Y-99655380D02*
X118306790Y-100655380D01*
X118640123Y-99655380D01*
X118878219Y-101036333D02*
X118925838Y-100988714D01*
X119021076Y-100845857D01*
X119068695Y-100750619D01*
X119116314Y-100607761D01*
X119163933Y-100369666D01*
X119163933Y-100179190D01*
X119116314Y-99941095D01*
X119068695Y-99798238D01*
X119021076Y-99703000D01*
X118925838Y-99560142D01*
X118878219Y-99512523D01*
X141549380Y-101893666D02*
X141073190Y-102227000D01*
X141549380Y-102465095D02*
X140549380Y-102465095D01*
X140549380Y-102084142D01*
X140597000Y-101988904D01*
X140644619Y-101941285D01*
X140739857Y-101893666D01*
X140882714Y-101893666D01*
X140977952Y-101941285D01*
X141025571Y-101988904D01*
X141073190Y-102084142D01*
X141073190Y-102465095D01*
X141549380Y-100941285D02*
X141549380Y-101512714D01*
X141549380Y-101227000D02*
X140549380Y-101227000D01*
X140692238Y-101322238D01*
X140787476Y-101417476D01*
X140835095Y-101512714D01*
X143327380Y-102266666D02*
X143327380Y-102838095D01*
X143327380Y-102552380D02*
X142327380Y-102552380D01*
X142470238Y-102647619D01*
X142565476Y-102742857D01*
X142613095Y-102838095D01*
X142422619Y-101885714D02*
X142375000Y-101838095D01*
X142327380Y-101742857D01*
X142327380Y-101504761D01*
X142375000Y-101409523D01*
X142422619Y-101361904D01*
X142517857Y-101314285D01*
X142613095Y-101314285D01*
X142755952Y-101361904D01*
X143327380Y-101933333D01*
X143327380Y-101314285D01*
X142327380Y-100695238D02*
X142327380Y-100600000D01*
X142375000Y-100504761D01*
X142422619Y-100457142D01*
X142517857Y-100409523D01*
X142708333Y-100361904D01*
X142946428Y-100361904D01*
X143136904Y-100409523D01*
X143232142Y-100457142D01*
X143279761Y-100504761D01*
X143327380Y-100600000D01*
X143327380Y-100695238D01*
X143279761Y-100790476D01*
X143232142Y-100838095D01*
X143136904Y-100885714D01*
X142946428Y-100933333D01*
X142708333Y-100933333D01*
X142517857Y-100885714D01*
X142422619Y-100838095D01*
X142375000Y-100790476D01*
X142327380Y-100695238D01*
D12*
X126492000Y-84255428D02*
X126492000Y-85344000D01*
X126419428Y-85561714D01*
X126274285Y-85706857D01*
X126056571Y-85779428D01*
X125911428Y-85779428D01*
X127943428Y-84255428D02*
X127217714Y-84255428D01*
X127145142Y-84981142D01*
X127217714Y-84908571D01*
X127362857Y-84836000D01*
X127725714Y-84836000D01*
X127870857Y-84908571D01*
X127943428Y-84981142D01*
X128016000Y-85126285D01*
X128016000Y-85489142D01*
X127943428Y-85634285D01*
X127870857Y-85706857D01*
X127725714Y-85779428D01*
X127362857Y-85779428D01*
X127217714Y-85706857D01*
X127145142Y-85634285D01*
X125457714Y-80699428D02*
X124949714Y-79973714D01*
X124586857Y-80699428D02*
X124586857Y-79175428D01*
X125167428Y-79175428D01*
X125312571Y-79248000D01*
X125385142Y-79320571D01*
X125457714Y-79465714D01*
X125457714Y-79683428D01*
X125385142Y-79828571D01*
X125312571Y-79901142D01*
X125167428Y-79973714D01*
X124586857Y-79973714D01*
X126546285Y-79175428D02*
X126546285Y-80264000D01*
X126473714Y-80481714D01*
X126328571Y-80626857D01*
X126110857Y-80699428D01*
X125965714Y-80699428D01*
X127925142Y-79683428D02*
X127925142Y-80699428D01*
X127562285Y-79102857D02*
X127199428Y-80191428D01*
X128142857Y-80191428D01*
X129449142Y-79175428D02*
X128723428Y-79175428D01*
X128650857Y-79901142D01*
X128723428Y-79828571D01*
X128868571Y-79756000D01*
X129231428Y-79756000D01*
X129376571Y-79828571D01*
X129449142Y-79901142D01*
X129521714Y-80046285D01*
X129521714Y-80409142D01*
X129449142Y-80554285D01*
X129376571Y-80626857D01*
X129231428Y-80699428D01*
X128868571Y-80699428D01*
X128723428Y-80626857D01*
X128650857Y-80554285D01*
D10*
X113974666Y-108369380D02*
X113974666Y-109083666D01*
X113927047Y-109226523D01*
X113831809Y-109321761D01*
X113688952Y-109369380D01*
X113593714Y-109369380D01*
X114450857Y-109369380D02*
X114450857Y-108369380D01*
X114831809Y-108369380D01*
X114927047Y-108417000D01*
X114974666Y-108464619D01*
X115022285Y-108559857D01*
X115022285Y-108702714D01*
X114974666Y-108797952D01*
X114927047Y-108845571D01*
X114831809Y-108893190D01*
X114450857Y-108893190D01*
X115403238Y-108464619D02*
X115450857Y-108417000D01*
X115546095Y-108369380D01*
X115784190Y-108369380D01*
X115879428Y-108417000D01*
X115927047Y-108464619D01*
X115974666Y-108559857D01*
X115974666Y-108655095D01*
X115927047Y-108797952D01*
X115355619Y-109369380D01*
X115974666Y-109369380D01*
X111837457Y-116840742D02*
X111837457Y-115940742D01*
X112137457Y-116583600D01*
X112437457Y-115940742D01*
X112437457Y-116840742D01*
X112823171Y-116797885D02*
X112951742Y-116840742D01*
X113166028Y-116840742D01*
X113251742Y-116797885D01*
X113294600Y-116755028D01*
X113337457Y-116669314D01*
X113337457Y-116583600D01*
X113294600Y-116497885D01*
X113251742Y-116455028D01*
X113166028Y-116412171D01*
X112994600Y-116369314D01*
X112908885Y-116326457D01*
X112866028Y-116283600D01*
X112823171Y-116197885D01*
X112823171Y-116112171D01*
X112866028Y-116026457D01*
X112908885Y-115983600D01*
X112994600Y-115940742D01*
X113208885Y-115940742D01*
X113337457Y-115983600D01*
X114194600Y-116840742D02*
X113680314Y-116840742D01*
X113937457Y-116840742D02*
X113937457Y-115940742D01*
X113851742Y-116069314D01*
X113766028Y-116155028D01*
X113680314Y-116197885D01*
X115266028Y-116840742D02*
X115266028Y-115940742D01*
X115566028Y-116583600D01*
X115866028Y-115940742D01*
X115866028Y-116840742D01*
X116680314Y-116840742D02*
X116680314Y-116369314D01*
X116637457Y-116283600D01*
X116551742Y-116240742D01*
X116380314Y-116240742D01*
X116294600Y-116283600D01*
X116680314Y-116797885D02*
X116594600Y-116840742D01*
X116380314Y-116840742D01*
X116294600Y-116797885D01*
X116251742Y-116712171D01*
X116251742Y-116626457D01*
X116294600Y-116540742D01*
X116380314Y-116497885D01*
X116594600Y-116497885D01*
X116680314Y-116455028D01*
X117066028Y-116797885D02*
X117151742Y-116840742D01*
X117323171Y-116840742D01*
X117408885Y-116797885D01*
X117451742Y-116712171D01*
X117451742Y-116669314D01*
X117408885Y-116583600D01*
X117323171Y-116540742D01*
X117194600Y-116540742D01*
X117108885Y-116497885D01*
X117066028Y-116412171D01*
X117066028Y-116369314D01*
X117108885Y-116283600D01*
X117194600Y-116240742D01*
X117323171Y-116240742D01*
X117408885Y-116283600D01*
X117708885Y-116240742D02*
X118051742Y-116240742D01*
X117837457Y-115940742D02*
X117837457Y-116712171D01*
X117880314Y-116797885D01*
X117966028Y-116840742D01*
X118051742Y-116840742D01*
X118694600Y-116797885D02*
X118608885Y-116840742D01*
X118437457Y-116840742D01*
X118351742Y-116797885D01*
X118308885Y-116712171D01*
X118308885Y-116369314D01*
X118351742Y-116283600D01*
X118437457Y-116240742D01*
X118608885Y-116240742D01*
X118694600Y-116283600D01*
X118737457Y-116369314D01*
X118737457Y-116455028D01*
X118308885Y-116540742D01*
X119123171Y-116840742D02*
X119123171Y-116240742D01*
X119123171Y-116412171D02*
X119166028Y-116326457D01*
X119208885Y-116283600D01*
X119294600Y-116240742D01*
X119380314Y-116240742D01*
X138898333Y-106736380D02*
X138565000Y-106260190D01*
X138326904Y-106736380D02*
X138326904Y-105736380D01*
X138707857Y-105736380D01*
X138803095Y-105784000D01*
X138850714Y-105831619D01*
X138898333Y-105926857D01*
X138898333Y-106069714D01*
X138850714Y-106164952D01*
X138803095Y-106212571D01*
X138707857Y-106260190D01*
X138326904Y-106260190D01*
X139279285Y-105831619D02*
X139326904Y-105784000D01*
X139422142Y-105736380D01*
X139660238Y-105736380D01*
X139755476Y-105784000D01*
X139803095Y-105831619D01*
X139850714Y-105926857D01*
X139850714Y-106022095D01*
X139803095Y-106164952D01*
X139231666Y-106736380D01*
X139850714Y-106736380D01*
X138088809Y-108184952D02*
X137993571Y-108137333D01*
X137945952Y-108089714D01*
X137898333Y-107994476D01*
X137898333Y-107946857D01*
X137945952Y-107851619D01*
X137993571Y-107804000D01*
X138088809Y-107756380D01*
X138279285Y-107756380D01*
X138374523Y-107804000D01*
X138422142Y-107851619D01*
X138469761Y-107946857D01*
X138469761Y-107994476D01*
X138422142Y-108089714D01*
X138374523Y-108137333D01*
X138279285Y-108184952D01*
X138088809Y-108184952D01*
X137993571Y-108232571D01*
X137945952Y-108280190D01*
X137898333Y-108375428D01*
X137898333Y-108565904D01*
X137945952Y-108661142D01*
X137993571Y-108708761D01*
X138088809Y-108756380D01*
X138279285Y-108756380D01*
X138374523Y-108708761D01*
X138422142Y-108661142D01*
X138469761Y-108565904D01*
X138469761Y-108375428D01*
X138422142Y-108280190D01*
X138374523Y-108232571D01*
X138279285Y-108184952D01*
X138898333Y-108756380D02*
X138898333Y-107756380D01*
X138993571Y-108375428D02*
X139279285Y-108756380D01*
X139279285Y-108089714D02*
X138898333Y-108470666D01*
X139660238Y-107851619D02*
X139707857Y-107804000D01*
X139803095Y-107756380D01*
X140041190Y-107756380D01*
X140136428Y-107804000D01*
X140184047Y-107851619D01*
X140231666Y-107946857D01*
X140231666Y-108042095D01*
X140184047Y-108184952D01*
X139612619Y-108756380D01*
X140231666Y-108756380D01*
X122628066Y-98969580D02*
X122628066Y-99683866D01*
X122580447Y-99826723D01*
X122485209Y-99921961D01*
X122342352Y-99969580D01*
X122247114Y-99969580D01*
X123532828Y-99302914D02*
X123532828Y-99969580D01*
X123294733Y-98921961D02*
X123056638Y-99636247D01*
X123675685Y-99636247D01*
X129525876Y-99144200D02*
X129430638Y-99096580D01*
X129287780Y-99096580D01*
X129144923Y-99144200D01*
X129049685Y-99239438D01*
X129002066Y-99334676D01*
X128954447Y-99525152D01*
X128954447Y-99668009D01*
X129002066Y-99858485D01*
X129049685Y-99953723D01*
X129144923Y-100048961D01*
X129287780Y-100096580D01*
X129383019Y-100096580D01*
X129525876Y-100048961D01*
X129573495Y-100001342D01*
X129573495Y-99668009D01*
X129383019Y-99668009D01*
X130002066Y-100096580D02*
X130002066Y-99429914D01*
X130002066Y-99620390D02*
X130049685Y-99525152D01*
X130097304Y-99477533D01*
X130192542Y-99429914D01*
X130287780Y-99429914D01*
X130763971Y-100096580D02*
X130668733Y-100048961D01*
X130621114Y-100001342D01*
X130573495Y-99906104D01*
X130573495Y-99620390D01*
X130621114Y-99525152D01*
X130668733Y-99477533D01*
X130763971Y-99429914D01*
X130906828Y-99429914D01*
X131002066Y-99477533D01*
X131049685Y-99525152D01*
X131097304Y-99620390D01*
X131097304Y-99906104D01*
X131049685Y-100001342D01*
X131002066Y-100048961D01*
X130906828Y-100096580D01*
X130763971Y-100096580D01*
X131430638Y-99429914D02*
X131668733Y-100096580D01*
X131906828Y-99429914D01*
X132668733Y-100048961D02*
X132573495Y-100096580D01*
X132383019Y-100096580D01*
X132287780Y-100048961D01*
X132240161Y-99953723D01*
X132240161Y-99572771D01*
X132287780Y-99477533D01*
X132383019Y-99429914D01*
X132573495Y-99429914D01*
X132668733Y-99477533D01*
X132716352Y-99572771D01*
X132716352Y-99668009D01*
X132240161Y-99763247D01*
X149961904Y-108652380D02*
X149961904Y-107652380D01*
X150200000Y-107652380D01*
X150342857Y-107700000D01*
X150438095Y-107795238D01*
X150485714Y-107890476D01*
X150533333Y-108080952D01*
X150533333Y-108223809D01*
X150485714Y-108414285D01*
X150438095Y-108509523D01*
X150342857Y-108604761D01*
X150200000Y-108652380D01*
X149961904Y-108652380D01*
X151485714Y-108652380D02*
X150914285Y-108652380D01*
X151200000Y-108652380D02*
X151200000Y-107652380D01*
X151104761Y-107795238D01*
X151009523Y-107890476D01*
X150914285Y-107938095D01*
X144926514Y-105557580D02*
X144926514Y-104557580D01*
X145307466Y-104557580D01*
X145402704Y-104605200D01*
X145450323Y-104652819D01*
X145497942Y-104748057D01*
X145497942Y-104890914D01*
X145450323Y-104986152D01*
X145402704Y-105033771D01*
X145307466Y-105081390D01*
X144926514Y-105081390D01*
X146069371Y-105557580D02*
X145974133Y-105509961D01*
X145926514Y-105462342D01*
X145878895Y-105367104D01*
X145878895Y-105081390D01*
X145926514Y-104986152D01*
X145974133Y-104938533D01*
X146069371Y-104890914D01*
X146212228Y-104890914D01*
X146307466Y-104938533D01*
X146355085Y-104986152D01*
X146402704Y-105081390D01*
X146402704Y-105367104D01*
X146355085Y-105462342D01*
X146307466Y-105509961D01*
X146212228Y-105557580D01*
X146069371Y-105557580D01*
X146736038Y-104890914D02*
X146926514Y-105557580D01*
X147116990Y-105081390D01*
X147307466Y-105557580D01*
X147497942Y-104890914D01*
X148259847Y-105509961D02*
X148164609Y-105557580D01*
X147974133Y-105557580D01*
X147878895Y-105509961D01*
X147831276Y-105414723D01*
X147831276Y-105033771D01*
X147878895Y-104938533D01*
X147974133Y-104890914D01*
X148164609Y-104890914D01*
X148259847Y-104938533D01*
X148307466Y-105033771D01*
X148307466Y-105129009D01*
X147831276Y-105224247D01*
X148736038Y-105557580D02*
X148736038Y-104890914D01*
X148736038Y-105081390D02*
X148783657Y-104986152D01*
X148831276Y-104938533D01*
X148926514Y-104890914D01*
X149021752Y-104890914D01*
X150593180Y-105557580D02*
X150116990Y-105557580D01*
X150116990Y-104557580D01*
X150926514Y-105033771D02*
X151259847Y-105033771D01*
X151402704Y-105557580D02*
X150926514Y-105557580D01*
X150926514Y-104557580D01*
X151402704Y-104557580D01*
X151831276Y-105557580D02*
X151831276Y-104557580D01*
X152069371Y-104557580D01*
X152212228Y-104605200D01*
X152307466Y-104700438D01*
X152355085Y-104795676D01*
X152402704Y-104986152D01*
X152402704Y-105129009D01*
X152355085Y-105319485D01*
X152307466Y-105414723D01*
X152212228Y-105509961D01*
X152069371Y-105557580D01*
X151831276Y-105557580D01*
X137183904Y-96845380D02*
X137183904Y-95845380D01*
X137564857Y-95845380D01*
X137660095Y-95893000D01*
X137707714Y-95940619D01*
X137755333Y-96035857D01*
X137755333Y-96178714D01*
X137707714Y-96273952D01*
X137660095Y-96321571D01*
X137564857Y-96369190D01*
X137183904Y-96369190D01*
X138612476Y-96178714D02*
X138612476Y-96845380D01*
X138374380Y-95797761D02*
X138136285Y-96512047D01*
X138755333Y-96512047D01*
X135739142Y-103012523D02*
X135786761Y-103060142D01*
X135834380Y-103203000D01*
X135834380Y-103298238D01*
X135786761Y-103441095D01*
X135691523Y-103536333D01*
X135596285Y-103583952D01*
X135405809Y-103631571D01*
X135262952Y-103631571D01*
X135072476Y-103583952D01*
X134977238Y-103536333D01*
X134882000Y-103441095D01*
X134834380Y-103298238D01*
X134834380Y-103203000D01*
X134882000Y-103060142D01*
X134929619Y-103012523D01*
X135548666Y-102631571D02*
X135548666Y-102155380D01*
X135834380Y-102726809D02*
X134834380Y-102393476D01*
X135834380Y-102060142D01*
X135834380Y-101726809D02*
X134834380Y-101726809D01*
X135834380Y-101155380D01*
X134834380Y-101155380D01*
X134834380Y-100060142D02*
X134834380Y-99488714D01*
X135834380Y-99774428D02*
X134834380Y-99774428D01*
X135786761Y-98774428D02*
X135834380Y-98869666D01*
X135834380Y-99060142D01*
X135786761Y-99155380D01*
X135691523Y-99203000D01*
X135310571Y-99203000D01*
X135215333Y-99155380D01*
X135167714Y-99060142D01*
X135167714Y-98869666D01*
X135215333Y-98774428D01*
X135310571Y-98726809D01*
X135405809Y-98726809D01*
X135501047Y-99203000D01*
X135834380Y-98298238D02*
X135167714Y-98298238D01*
X135358190Y-98298238D02*
X135262952Y-98250619D01*
X135215333Y-98203000D01*
X135167714Y-98107761D01*
X135167714Y-98012523D01*
X135834380Y-97679190D02*
X135167714Y-97679190D01*
X135262952Y-97679190D02*
X135215333Y-97631571D01*
X135167714Y-97536333D01*
X135167714Y-97393476D01*
X135215333Y-97298238D01*
X135310571Y-97250619D01*
X135834380Y-97250619D01*
X135310571Y-97250619D02*
X135215333Y-97203000D01*
X135167714Y-97107761D01*
X135167714Y-96964904D01*
X135215333Y-96869666D01*
X135310571Y-96822047D01*
X135834380Y-96822047D01*
X112974380Y-100814095D02*
X111974380Y-100814095D01*
X111974380Y-100433142D01*
X112022000Y-100337904D01*
X112069619Y-100290285D01*
X112164857Y-100242666D01*
X112307714Y-100242666D01*
X112402952Y-100290285D01*
X112450571Y-100337904D01*
X112498190Y-100433142D01*
X112498190Y-100814095D01*
X111974380Y-99909333D02*
X111974380Y-99290285D01*
X112355333Y-99623619D01*
X112355333Y-99480761D01*
X112402952Y-99385523D01*
X112450571Y-99337904D01*
X112545809Y-99290285D01*
X112783904Y-99290285D01*
X112879142Y-99337904D01*
X112926761Y-99385523D01*
X112974380Y-99480761D01*
X112974380Y-99766476D01*
X112926761Y-99861714D01*
X112879142Y-99909333D01*
D12*
X147775142Y-123989428D02*
X147775142Y-122465428D01*
X148355714Y-122465428D01*
X148500857Y-122538000D01*
X148573428Y-122610571D01*
X148646000Y-122755714D01*
X148646000Y-122973428D01*
X148573428Y-123118571D01*
X148500857Y-123191142D01*
X148355714Y-123263714D01*
X147775142Y-123263714D01*
X149226571Y-122610571D02*
X149299142Y-122538000D01*
X149444285Y-122465428D01*
X149807142Y-122465428D01*
X149952285Y-122538000D01*
X150024857Y-122610571D01*
X150097428Y-122755714D01*
X150097428Y-122900857D01*
X150024857Y-123118571D01*
X149154000Y-123989428D01*
X150097428Y-123989428D01*
X142976600Y-112957428D02*
X142976600Y-111433428D01*
X143339457Y-111433428D01*
X143557171Y-111506000D01*
X143702314Y-111651142D01*
X143774885Y-111796285D01*
X143847457Y-112086571D01*
X143847457Y-112304285D01*
X143774885Y-112594571D01*
X143702314Y-112739714D01*
X143557171Y-112884857D01*
X143339457Y-112957428D01*
X142976600Y-112957428D01*
X144500600Y-112957428D02*
X144500600Y-111433428D01*
X145226314Y-112957428D02*
X145226314Y-111433428D01*
X146097171Y-112957428D01*
X146097171Y-111433428D01*
X146677742Y-111433428D02*
X147693742Y-111433428D01*
X147040600Y-112957428D01*
X129975142Y-124089428D02*
X129975142Y-122565428D01*
X130555714Y-122565428D01*
X130700857Y-122638000D01*
X130773428Y-122710571D01*
X130846000Y-122855714D01*
X130846000Y-123073428D01*
X130773428Y-123218571D01*
X130700857Y-123291142D01*
X130555714Y-123363714D01*
X129975142Y-123363714D01*
X132297428Y-124089428D02*
X131426571Y-124089428D01*
X131862000Y-124089428D02*
X131862000Y-122565428D01*
X131716857Y-122783142D01*
X131571714Y-122928285D01*
X131426571Y-123000857D01*
X124267685Y-112779628D02*
X124267685Y-111255628D01*
X124630542Y-111255628D01*
X124848257Y-111328200D01*
X124993400Y-111473342D01*
X125065971Y-111618485D01*
X125138542Y-111908771D01*
X125138542Y-112126485D01*
X125065971Y-112416771D01*
X124993400Y-112561914D01*
X124848257Y-112707057D01*
X124630542Y-112779628D01*
X124267685Y-112779628D01*
X125791685Y-112779628D02*
X125791685Y-111255628D01*
X126517400Y-112779628D02*
X126517400Y-111255628D01*
X127388257Y-112779628D01*
X127388257Y-111255628D01*
X128912257Y-112779628D02*
X128041400Y-112779628D01*
X128476828Y-112779628D02*
X128476828Y-111255628D01*
X128331685Y-111473342D01*
X128186542Y-111618485D01*
X128041400Y-111691057D01*
X129855685Y-111255628D02*
X130000828Y-111255628D01*
X130145971Y-111328200D01*
X130218542Y-111400771D01*
X130291114Y-111545914D01*
X130363685Y-111836200D01*
X130363685Y-112199057D01*
X130291114Y-112489342D01*
X130218542Y-112634485D01*
X130145971Y-112707057D01*
X130000828Y-112779628D01*
X129855685Y-112779628D01*
X129710542Y-112707057D01*
X129637971Y-112634485D01*
X129565400Y-112489342D01*
X129492828Y-112199057D01*
X129492828Y-111836200D01*
X129565400Y-111545914D01*
X129637971Y-111400771D01*
X129710542Y-111328200D01*
X129855685Y-111255628D01*
X144474000Y-84255428D02*
X144474000Y-85344000D01*
X144401428Y-85561714D01*
X144256285Y-85706857D01*
X144038571Y-85779428D01*
X143893428Y-85779428D01*
X145998000Y-85779428D02*
X145127142Y-85779428D01*
X145562571Y-85779428D02*
X145562571Y-84255428D01*
X145417428Y-84473142D01*
X145272285Y-84618285D01*
X145127142Y-84690857D01*
X143439714Y-80699428D02*
X142931714Y-79973714D01*
X142568857Y-80699428D02*
X142568857Y-79175428D01*
X143149428Y-79175428D01*
X143294571Y-79248000D01*
X143367142Y-79320571D01*
X143439714Y-79465714D01*
X143439714Y-79683428D01*
X143367142Y-79828571D01*
X143294571Y-79901142D01*
X143149428Y-79973714D01*
X142568857Y-79973714D01*
X144528285Y-79175428D02*
X144528285Y-80264000D01*
X144455714Y-80481714D01*
X144310571Y-80626857D01*
X144092857Y-80699428D01*
X143947714Y-80699428D01*
X145907142Y-79683428D02*
X145907142Y-80699428D01*
X145544285Y-79102857D02*
X145181428Y-80191428D01*
X146124857Y-80191428D01*
X147431142Y-79175428D02*
X146705428Y-79175428D01*
X146632857Y-79901142D01*
X146705428Y-79828571D01*
X146850571Y-79756000D01*
X147213428Y-79756000D01*
X147358571Y-79828571D01*
X147431142Y-79901142D01*
X147503714Y-80046285D01*
X147503714Y-80409142D01*
X147431142Y-80554285D01*
X147358571Y-80626857D01*
X147213428Y-80699428D01*
X146850571Y-80699428D01*
X146705428Y-80626857D01*
X146632857Y-80554285D01*
D13*
X154671733Y-100589590D02*
X154671733Y-100946733D01*
X154647923Y-101018161D01*
X154600304Y-101065780D01*
X154528876Y-101089590D01*
X154481257Y-101089590D01*
X154862209Y-100589590D02*
X155171733Y-100589590D01*
X155005066Y-100780066D01*
X155076495Y-100780066D01*
X155124114Y-100803876D01*
X155147923Y-100827685D01*
X155171733Y-100875304D01*
X155171733Y-100994352D01*
X155147923Y-101041971D01*
X155124114Y-101065780D01*
X155076495Y-101089590D01*
X154933638Y-101089590D01*
X154886019Y-101065780D01*
X154862209Y-101041971D01*
D11*
X145869495Y-98216980D02*
X145869495Y-97216980D01*
X146202828Y-97931266D01*
X146536161Y-97216980D01*
X146536161Y-98216980D01*
X146964733Y-98169361D02*
X147107590Y-98216980D01*
X147345685Y-98216980D01*
X147440923Y-98169361D01*
X147488542Y-98121742D01*
X147536161Y-98026504D01*
X147536161Y-97931266D01*
X147488542Y-97836028D01*
X147440923Y-97788409D01*
X147345685Y-97740790D01*
X147155209Y-97693171D01*
X147059971Y-97645552D01*
X147012352Y-97597933D01*
X146964733Y-97502695D01*
X146964733Y-97407457D01*
X147012352Y-97312219D01*
X147059971Y-97264600D01*
X147155209Y-97216980D01*
X147393304Y-97216980D01*
X147536161Y-97264600D01*
X147917114Y-97312219D02*
X147964733Y-97264600D01*
X148059971Y-97216980D01*
X148298066Y-97216980D01*
X148393304Y-97264600D01*
X148440923Y-97312219D01*
X148488542Y-97407457D01*
X148488542Y-97502695D01*
X148440923Y-97645552D01*
X147869495Y-98216980D01*
X148488542Y-98216980D01*
X149679019Y-98216980D02*
X149679019Y-97216980D01*
X150250447Y-98216980D02*
X149821876Y-97645552D01*
X150250447Y-97216980D02*
X149679019Y-97788409D01*
X151107590Y-98216980D02*
X151107590Y-97693171D01*
X151059971Y-97597933D01*
X150964733Y-97550314D01*
X150774257Y-97550314D01*
X150679019Y-97597933D01*
X151107590Y-98169361D02*
X151012352Y-98216980D01*
X150774257Y-98216980D01*
X150679019Y-98169361D01*
X150631400Y-98074123D01*
X150631400Y-97978885D01*
X150679019Y-97883647D01*
X150774257Y-97836028D01*
X151012352Y-97836028D01*
X151107590Y-97788409D01*
X151583780Y-98216980D02*
X151583780Y-97216980D01*
X151583780Y-97597933D02*
X151679019Y-97550314D01*
X151869495Y-97550314D01*
X151964733Y-97597933D01*
X152012352Y-97645552D01*
X152059971Y-97740790D01*
X152059971Y-98026504D01*
X152012352Y-98121742D01*
X151964733Y-98169361D01*
X151869495Y-98216980D01*
X151679019Y-98216980D01*
X151583780Y-98169361D01*
X152869495Y-98169361D02*
X152774257Y-98216980D01*
X152583780Y-98216980D01*
X152488542Y-98169361D01*
X152440923Y-98074123D01*
X152440923Y-97693171D01*
X152488542Y-97597933D01*
X152583780Y-97550314D01*
X152774257Y-97550314D01*
X152869495Y-97597933D01*
X152917114Y-97693171D01*
X152917114Y-97788409D01*
X152440923Y-97883647D01*
X153488542Y-98216980D02*
X153393304Y-98169361D01*
X153345685Y-98074123D01*
X153345685Y-97216980D01*
D10*
X114000066Y-84643980D02*
X114000066Y-85358266D01*
X113952447Y-85501123D01*
X113857209Y-85596361D01*
X113714352Y-85643980D01*
X113619114Y-85643980D01*
X114476257Y-85643980D02*
X114476257Y-84643980D01*
X114857209Y-84643980D01*
X114952447Y-84691600D01*
X115000066Y-84739219D01*
X115047685Y-84834457D01*
X115047685Y-84977314D01*
X115000066Y-85072552D01*
X114952447Y-85120171D01*
X114857209Y-85167790D01*
X114476257Y-85167790D01*
X116000066Y-85643980D02*
X115428638Y-85643980D01*
X115714352Y-85643980D02*
X115714352Y-84643980D01*
X115619114Y-84786838D01*
X115523876Y-84882076D01*
X115428638Y-84929695D01*
D14*
X143795000Y-103520000D02*
X143795000Y-99680000D01*
X142875000Y-98730000D02*
X142875000Y-99680000D01*
X141955000Y-103520000D02*
X143795000Y-103520000D01*
X143795000Y-99680000D02*
X141955000Y-99680000D01*
X141955000Y-99680000D02*
X141955000Y-103520000D01*
X142875000Y-104470000D02*
X142875000Y-103520000D01*
D15*
X135400000Y-92922000D02*
X118745000Y-92922000D01*
X118585200Y-76107200D02*
X118585200Y-75396000D01*
X135400000Y-92922000D02*
X135400000Y-86521200D01*
X135349200Y-83625600D02*
X135349200Y-80577600D01*
X133114000Y-75400000D02*
X120922000Y-75400000D01*
X118686800Y-92922000D02*
X118686800Y-86521200D01*
X135382000Y-75400000D02*
X133096000Y-75400000D01*
X118636000Y-83574800D02*
X118636000Y-80526800D01*
X118618000Y-75400000D02*
X120904000Y-75400000D01*
X135400000Y-76158000D02*
X135400000Y-75446800D01*
D14*
X113478000Y-112517000D02*
X113478000Y-115117000D01*
X113478000Y-111247000D02*
X113478000Y-109917000D01*
X113478000Y-115117000D02*
X116138000Y-115117000D01*
X113478000Y-112517000D02*
X116138000Y-112517000D01*
X113478000Y-109917000D02*
X114808000Y-109917000D01*
X116138000Y-112517000D02*
X116138000Y-115117000D01*
X140985000Y-109124000D02*
X140985000Y-107284000D01*
X141935000Y-108204000D02*
X140985000Y-108204000D01*
X137145000Y-107284000D02*
X137145000Y-109124000D01*
X140985000Y-107284000D02*
X137145000Y-107284000D01*
X137145000Y-109124000D02*
X140985000Y-109124000D01*
X136195000Y-108204000D02*
X137145000Y-108204000D01*
X123137000Y-104789000D02*
X132037000Y-104789000D01*
X125587000Y-104789000D02*
X125587000Y-104289000D01*
X124287000Y-100479000D02*
X123987000Y-100479000D01*
X132647000Y-101989000D02*
X132037000Y-101989000D01*
X122527000Y-105399000D02*
X132647000Y-105399000D01*
X122527000Y-100679000D02*
X122527000Y-105399000D01*
X122227000Y-100379000D02*
X122227000Y-101629000D01*
X129487000Y-104289000D02*
X129687000Y-104289000D01*
X129687000Y-104289000D02*
X129687000Y-104789000D01*
X125087000Y-100679000D02*
X125087000Y-101289000D01*
X123987000Y-100479000D02*
X123987000Y-100679000D01*
X127687000Y-104289000D02*
X127687000Y-104789000D01*
X125087000Y-101289000D02*
X123137000Y-101289000D01*
X130087000Y-101289000D02*
X130087000Y-100679000D01*
X122527000Y-101989000D02*
X123137000Y-101989000D01*
X124287000Y-100579000D02*
X123987000Y-100579000D01*
X125487000Y-104289000D02*
X125687000Y-104289000D01*
X125687000Y-104289000D02*
X125687000Y-104789000D01*
X132037000Y-104789000D02*
X132037000Y-101289000D01*
X127587000Y-104789000D02*
X127587000Y-104289000D01*
X123477000Y-100379000D02*
X122227000Y-100379000D01*
X129487000Y-104789000D02*
X129487000Y-104289000D01*
X124287000Y-100679000D02*
X124287000Y-100479000D01*
X132037000Y-101289000D02*
X130087000Y-101289000D01*
X127487000Y-104289000D02*
X127687000Y-104289000D01*
X127487000Y-104789000D02*
X127487000Y-104289000D01*
X129587000Y-104789000D02*
X129587000Y-104289000D01*
X132647000Y-105399000D02*
X132647000Y-100679000D01*
X132647000Y-100679000D02*
X122527000Y-100679000D01*
X132647000Y-103289000D02*
X132037000Y-103289000D01*
X122527000Y-103289000D02*
X123137000Y-103289000D01*
X123137000Y-101289000D02*
X123137000Y-104789000D01*
X125487000Y-104789000D02*
X125487000Y-104289000D01*
G36*
X159525799Y-103212162D02*
G01*
X159597840Y-103212505D01*
X159652780Y-103213308D01*
X159693360Y-103214759D01*
X159722317Y-103217048D01*
X159742391Y-103220364D01*
X159756321Y-103224895D01*
X159766845Y-103230831D01*
X159773100Y-103235486D01*
X159797673Y-103266217D01*
X159800341Y-103301504D01*
X159785271Y-103333755D01*
X159776374Y-103344412D01*
X159764557Y-103351536D01*
X159745526Y-103355833D01*
X159714992Y-103358009D01*
X159668662Y-103358772D01*
X159632871Y-103358845D01*
X159498045Y-103358845D01*
X159498045Y-103855556D01*
X159620700Y-103855556D01*
X159676787Y-103856069D01*
X159715333Y-103858124D01*
X159741361Y-103862492D01*
X159759897Y-103869944D01*
X159773100Y-103878953D01*
X159797604Y-103909856D01*
X159800506Y-103944804D01*
X159783089Y-103978262D01*
X159773959Y-103987396D01*
X159761855Y-103993848D01*
X159743001Y-103998103D01*
X159713620Y-104000648D01*
X159669937Y-104001971D01*
X159608175Y-104002557D01*
X159594000Y-104002625D01*
X159477631Y-104003109D01*
X159381727Y-104003359D01*
X159304177Y-104003277D01*
X159242869Y-104002769D01*
X159195690Y-104001738D01*
X159160530Y-104000087D01*
X159135276Y-103997721D01*
X159117817Y-103994543D01*
X159106041Y-103990456D01*
X159097835Y-103985366D01*
X159091645Y-103979734D01*
X159071844Y-103947872D01*
X159074533Y-103914643D01*
X159096776Y-103883265D01*
X159111126Y-103870567D01*
X159126978Y-103862474D01*
X159149554Y-103857958D01*
X159184078Y-103855994D01*
X159235776Y-103855556D01*
X159351289Y-103855556D01*
X159351289Y-103358845D01*
X159232756Y-103358845D01*
X159178148Y-103358338D01*
X159141275Y-103356302D01*
X159117307Y-103351965D01*
X159101415Y-103344553D01*
X159091645Y-103336267D01*
X159071844Y-103304406D01*
X159074533Y-103271177D01*
X159096776Y-103239798D01*
X159124485Y-103212089D01*
X159433920Y-103212089D01*
X159525799Y-103212162D01*
G37*
D16*
X159525799Y-103212162D02*
X159597840Y-103212505D01*
X159652780Y-103213308D01*
X159693360Y-103214759D01*
X159722317Y-103217048D01*
X159742391Y-103220364D01*
X159756321Y-103224895D01*
X159766845Y-103230831D01*
X159773100Y-103235486D01*
X159797673Y-103266217D01*
X159800341Y-103301504D01*
X159785271Y-103333755D01*
X159776374Y-103344412D01*
X159764557Y-103351536D01*
X159745526Y-103355833D01*
X159714992Y-103358009D01*
X159668662Y-103358772D01*
X159632871Y-103358845D01*
X159498045Y-103358845D01*
X159498045Y-103855556D01*
X159620700Y-103855556D01*
X159676787Y-103856069D01*
X159715333Y-103858124D01*
X159741361Y-103862492D01*
X159759897Y-103869944D01*
X159773100Y-103878953D01*
X159797604Y-103909856D01*
X159800506Y-103944804D01*
X159783089Y-103978262D01*
X159773959Y-103987396D01*
X159761855Y-103993848D01*
X159743001Y-103998103D01*
X159713620Y-104000648D01*
X159669937Y-104001971D01*
X159608175Y-104002557D01*
X159594000Y-104002625D01*
X159477631Y-104003109D01*
X159381727Y-104003359D01*
X159304177Y-104003277D01*
X159242869Y-104002769D01*
X159195690Y-104001738D01*
X159160530Y-104000087D01*
X159135276Y-103997721D01*
X159117817Y-103994543D01*
X159106041Y-103990456D01*
X159097835Y-103985366D01*
X159091645Y-103979734D01*
X159071844Y-103947872D01*
X159074533Y-103914643D01*
X159096776Y-103883265D01*
X159111126Y-103870567D01*
X159126978Y-103862474D01*
X159149554Y-103857958D01*
X159184078Y-103855994D01*
X159235776Y-103855556D01*
X159351289Y-103855556D01*
X159351289Y-103358845D01*
X159232756Y-103358845D01*
X159178148Y-103358338D01*
X159141275Y-103356302D01*
X159117307Y-103351965D01*
X159101415Y-103344553D01*
X159091645Y-103336267D01*
X159071844Y-103304406D01*
X159074533Y-103271177D01*
X159096776Y-103239798D01*
X159124485Y-103212089D01*
X159433920Y-103212089D01*
X159525799Y-103212162D01*
G36*
X159529802Y-112401314D02*
G01*
X159603689Y-112401638D01*
X159660232Y-112402386D01*
X159702049Y-112403732D01*
X159731757Y-112405846D01*
X159751973Y-112408900D01*
X159765314Y-112413066D01*
X159774398Y-112418516D01*
X159780267Y-112423822D01*
X159799947Y-112456826D01*
X159798181Y-112491991D01*
X159776717Y-112523455D01*
X159768337Y-112530684D01*
X159758614Y-112536334D01*
X159744861Y-112540599D01*
X159724389Y-112543673D01*
X159694512Y-112545752D01*
X159652541Y-112547030D01*
X159595789Y-112547701D01*
X159521567Y-112547959D01*
X159437537Y-112548000D01*
X159124485Y-112548000D01*
X159096776Y-112520291D01*
X159073463Y-112486137D01*
X159072623Y-112453006D01*
X159091645Y-112423822D01*
X159099218Y-112417242D01*
X159108987Y-112412079D01*
X159123571Y-112408164D01*
X159145585Y-112405324D01*
X159177648Y-112403387D01*
X159222375Y-112402183D01*
X159282385Y-112401539D01*
X159360294Y-112401284D01*
X159435956Y-112401245D01*
X159529802Y-112401314D01*
G37*
X159529802Y-112401314D02*
X159603689Y-112401638D01*
X159660232Y-112402386D01*
X159702049Y-112403732D01*
X159731757Y-112405846D01*
X159751973Y-112408900D01*
X159765314Y-112413066D01*
X159774398Y-112418516D01*
X159780267Y-112423822D01*
X159799947Y-112456826D01*
X159798181Y-112491991D01*
X159776717Y-112523455D01*
X159768337Y-112530684D01*
X159758614Y-112536334D01*
X159744861Y-112540599D01*
X159724389Y-112543673D01*
X159694512Y-112545752D01*
X159652541Y-112547030D01*
X159595789Y-112547701D01*
X159521567Y-112547959D01*
X159437537Y-112548000D01*
X159124485Y-112548000D01*
X159096776Y-112520291D01*
X159073463Y-112486137D01*
X159072623Y-112453006D01*
X159091645Y-112423822D01*
X159099218Y-112417242D01*
X159108987Y-112412079D01*
X159123571Y-112408164D01*
X159145585Y-112405324D01*
X159177648Y-112403387D01*
X159222375Y-112402183D01*
X159282385Y-112401539D01*
X159360294Y-112401284D01*
X159435956Y-112401245D01*
X159529802Y-112401314D01*
G36*
X159145055Y-115770998D02*
G01*
X159111778Y-115762830D01*
X159089759Y-115749556D01*
X159076739Y-115729974D01*
X159070457Y-115702883D01*
X159068653Y-115667082D01*
X159069066Y-115621371D01*
X159069467Y-115581889D01*
X159070148Y-115553667D01*
X159215808Y-115553667D01*
X159215822Y-115629867D01*
X159656089Y-115629867D01*
X159656004Y-115536734D01*
X159654396Y-115480693D01*
X159650256Y-115421999D01*
X159644464Y-115373028D01*
X159644226Y-115371538D01*
X159625090Y-115292392D01*
X159595287Y-115231002D01*
X159552878Y-115184305D01*
X159506961Y-115154635D01*
X159456026Y-115136353D01*
X159408200Y-115137771D01*
X159356933Y-115158988D01*
X159303899Y-115200489D01*
X159264600Y-115257998D01*
X159238331Y-115332750D01*
X159229035Y-115382708D01*
X159222507Y-115439416D01*
X159217782Y-115499519D01*
X159215817Y-115550639D01*
X159215808Y-115553667D01*
X159070148Y-115553667D01*
X159072259Y-115466200D01*
X159080550Y-115369311D01*
X159095232Y-115287919D01*
X159117193Y-115218723D01*
X159147322Y-115158420D01*
X159186510Y-115103708D01*
X159203532Y-115084167D01*
X159243363Y-115051750D01*
X159297413Y-115022520D01*
X159357323Y-114999991D01*
X159414739Y-114987679D01*
X159435956Y-114986400D01*
X159494769Y-114994417D01*
X159559013Y-115015899D01*
X159619821Y-115046999D01*
X159668330Y-115083866D01*
X159674182Y-115089854D01*
X159715321Y-115140579D01*
X159747435Y-115196125D01*
X159771365Y-115259696D01*
X159787953Y-115334494D01*
X159798041Y-115423722D01*
X159802469Y-115530582D01*
X159802845Y-115579528D01*
X159802545Y-115641762D01*
X159801292Y-115685528D01*
X159798554Y-115714931D01*
X159793801Y-115734079D01*
X159786501Y-115747077D01*
X159780267Y-115754045D01*
X159772694Y-115760626D01*
X159762924Y-115765788D01*
X159748340Y-115769703D01*
X159726326Y-115772543D01*
X159694264Y-115774480D01*
X159649536Y-115775684D01*
X159589526Y-115776328D01*
X159511617Y-115776583D01*
X159435956Y-115776622D01*
X159335041Y-115776870D01*
X159254427Y-115776817D01*
X159215822Y-115775857D01*
X159191851Y-115775260D01*
X159145055Y-115770998D01*
G37*
X159145055Y-115770998D02*
X159111778Y-115762830D01*
X159089759Y-115749556D01*
X159076739Y-115729974D01*
X159070457Y-115702883D01*
X159068653Y-115667082D01*
X159069066Y-115621371D01*
X159069467Y-115581889D01*
X159070148Y-115553667D01*
X159215808Y-115553667D01*
X159215822Y-115629867D01*
X159656089Y-115629867D01*
X159656004Y-115536734D01*
X159654396Y-115480693D01*
X159650256Y-115421999D01*
X159644464Y-115373028D01*
X159644226Y-115371538D01*
X159625090Y-115292392D01*
X159595287Y-115231002D01*
X159552878Y-115184305D01*
X159506961Y-115154635D01*
X159456026Y-115136353D01*
X159408200Y-115137771D01*
X159356933Y-115158988D01*
X159303899Y-115200489D01*
X159264600Y-115257998D01*
X159238331Y-115332750D01*
X159229035Y-115382708D01*
X159222507Y-115439416D01*
X159217782Y-115499519D01*
X159215817Y-115550639D01*
X159215808Y-115553667D01*
X159070148Y-115553667D01*
X159072259Y-115466200D01*
X159080550Y-115369311D01*
X159095232Y-115287919D01*
X159117193Y-115218723D01*
X159147322Y-115158420D01*
X159186510Y-115103708D01*
X159203532Y-115084167D01*
X159243363Y-115051750D01*
X159297413Y-115022520D01*
X159357323Y-114999991D01*
X159414739Y-114987679D01*
X159435956Y-114986400D01*
X159494769Y-114994417D01*
X159559013Y-115015899D01*
X159619821Y-115046999D01*
X159668330Y-115083866D01*
X159674182Y-115089854D01*
X159715321Y-115140579D01*
X159747435Y-115196125D01*
X159771365Y-115259696D01*
X159787953Y-115334494D01*
X159798041Y-115423722D01*
X159802469Y-115530582D01*
X159802845Y-115579528D01*
X159802545Y-115641762D01*
X159801292Y-115685528D01*
X159798554Y-115714931D01*
X159793801Y-115734079D01*
X159786501Y-115747077D01*
X159780267Y-115754045D01*
X159772694Y-115760626D01*
X159762924Y-115765788D01*
X159748340Y-115769703D01*
X159726326Y-115772543D01*
X159694264Y-115774480D01*
X159649536Y-115775684D01*
X159589526Y-115776328D01*
X159511617Y-115776583D01*
X159435956Y-115776622D01*
X159335041Y-115776870D01*
X159254427Y-115776817D01*
X159215822Y-115775857D01*
X159191851Y-115775260D01*
X159145055Y-115770998D01*
G36*
X159639535Y-111228609D02*
G01*
X159686786Y-111232848D01*
X159712012Y-111239936D01*
X159713988Y-111241311D01*
X159745508Y-111280228D01*
X159770470Y-111337286D01*
X159788340Y-111408869D01*
X159798586Y-111491358D01*
X159800673Y-111581139D01*
X159794068Y-111674592D01*
X159785956Y-111729556D01*
X159761554Y-111815766D01*
X159721662Y-111895892D01*
X159669887Y-111962977D01*
X159659539Y-111973173D01*
X159616035Y-112006302D01*
X159562118Y-112036194D01*
X159505592Y-112059357D01*
X159454259Y-112072298D01*
X159434544Y-112073858D01*
X159393419Y-112067218D01*
X159342252Y-112049568D01*
X159288394Y-112024297D01*
X159239195Y-111994789D01*
X159206334Y-111968719D01*
X159157452Y-111907765D01*
X159118545Y-111828969D01*
X159090494Y-111735157D01*
X159074179Y-111629150D01*
X159070192Y-111532000D01*
X159074599Y-111450081D01*
X159086095Y-111381565D01*
X159103967Y-111328943D01*
X159127499Y-111294708D01*
X159140924Y-111285379D01*
X159172148Y-111275893D01*
X159200395Y-111282277D01*
X159227182Y-111302430D01*
X159239713Y-111333745D01*
X159238696Y-111379183D01*
X159231906Y-111414326D01*
X159218971Y-111492419D01*
X159217742Y-111572226D01*
X159228241Y-111661555D01*
X159232690Y-111686229D01*
X159256108Y-111769291D01*
X159290945Y-111834273D01*
X159336604Y-111880461D01*
X159392494Y-111907145D01*
X159421388Y-111912663D01*
X159480012Y-111909051D01*
X159531879Y-111885729D01*
X159575978Y-111844824D01*
X159611299Y-111788459D01*
X159636829Y-111718760D01*
X159651559Y-111637852D01*
X159654478Y-111547860D01*
X159644575Y-111450910D01*
X159643641Y-111445436D01*
X159636459Y-111406875D01*
X159629521Y-111385494D01*
X159619227Y-111376227D01*
X159601976Y-111374006D01*
X159592841Y-111373956D01*
X159554489Y-111373956D01*
X159554489Y-111442431D01*
X159550347Y-111502900D01*
X159537147Y-111544165D01*
X159513730Y-111568175D01*
X159478936Y-111576877D01*
X159474394Y-111576983D01*
X159444654Y-111571892D01*
X159423419Y-111554433D01*
X159409366Y-111521939D01*
X159401173Y-111471743D01*
X159398161Y-111423123D01*
X159396433Y-111352456D01*
X159399070Y-111301198D01*
X159408800Y-111266239D01*
X159428353Y-111244470D01*
X159460456Y-111232780D01*
X159507838Y-111228060D01*
X159570071Y-111227200D01*
X159639535Y-111228609D01*
G37*
X159639535Y-111228609D02*
X159686786Y-111232848D01*
X159712012Y-111239936D01*
X159713988Y-111241311D01*
X159745508Y-111280228D01*
X159770470Y-111337286D01*
X159788340Y-111408869D01*
X159798586Y-111491358D01*
X159800673Y-111581139D01*
X159794068Y-111674592D01*
X159785956Y-111729556D01*
X159761554Y-111815766D01*
X159721662Y-111895892D01*
X159669887Y-111962977D01*
X159659539Y-111973173D01*
X159616035Y-112006302D01*
X159562118Y-112036194D01*
X159505592Y-112059357D01*
X159454259Y-112072298D01*
X159434544Y-112073858D01*
X159393419Y-112067218D01*
X159342252Y-112049568D01*
X159288394Y-112024297D01*
X159239195Y-111994789D01*
X159206334Y-111968719D01*
X159157452Y-111907765D01*
X159118545Y-111828969D01*
X159090494Y-111735157D01*
X159074179Y-111629150D01*
X159070192Y-111532000D01*
X159074599Y-111450081D01*
X159086095Y-111381565D01*
X159103967Y-111328943D01*
X159127499Y-111294708D01*
X159140924Y-111285379D01*
X159172148Y-111275893D01*
X159200395Y-111282277D01*
X159227182Y-111302430D01*
X159239713Y-111333745D01*
X159238696Y-111379183D01*
X159231906Y-111414326D01*
X159218971Y-111492419D01*
X159217742Y-111572226D01*
X159228241Y-111661555D01*
X159232690Y-111686229D01*
X159256108Y-111769291D01*
X159290945Y-111834273D01*
X159336604Y-111880461D01*
X159392494Y-111907145D01*
X159421388Y-111912663D01*
X159480012Y-111909051D01*
X159531879Y-111885729D01*
X159575978Y-111844824D01*
X159611299Y-111788459D01*
X159636829Y-111718760D01*
X159651559Y-111637852D01*
X159654478Y-111547860D01*
X159644575Y-111450910D01*
X159643641Y-111445436D01*
X159636459Y-111406875D01*
X159629521Y-111385494D01*
X159619227Y-111376227D01*
X159601976Y-111374006D01*
X159592841Y-111373956D01*
X159554489Y-111373956D01*
X159554489Y-111442431D01*
X159550347Y-111502900D01*
X159537147Y-111544165D01*
X159513730Y-111568175D01*
X159478936Y-111576877D01*
X159474394Y-111576983D01*
X159444654Y-111571892D01*
X159423419Y-111554433D01*
X159409366Y-111521939D01*
X159401173Y-111471743D01*
X159398161Y-111423123D01*
X159396433Y-111352456D01*
X159399070Y-111301198D01*
X159408800Y-111266239D01*
X159428353Y-111244470D01*
X159460456Y-111232780D01*
X159507838Y-111228060D01*
X159570071Y-111227200D01*
X159639535Y-111228609D01*
G36*
X159635021Y-108686332D02*
G01*
X159574311Y-108686950D01*
X159495526Y-108687175D01*
X159433920Y-108687200D01*
X159124485Y-108687200D01*
X159096776Y-108659491D01*
X159085544Y-108647194D01*
X159077853Y-108633897D01*
X159073040Y-108615328D01*
X159070446Y-108587214D01*
X159069410Y-108545283D01*
X159069372Y-108529156D01*
X159215822Y-108529156D01*
X159656089Y-108529156D01*
X159656089Y-108435274D01*
X159654483Y-108380336D01*
X159650255Y-108323940D01*
X159644292Y-108277655D01*
X159643790Y-108274861D01*
X159621736Y-108192652D01*
X159588600Y-108128886D01*
X159542847Y-108081548D01*
X159482939Y-108048618D01*
X159467061Y-108042892D01*
X159442333Y-108037279D01*
X159417902Y-108039709D01*
X159385400Y-108051533D01*
X159369434Y-108058660D01*
X159327006Y-108082000D01*
X159297240Y-108110120D01*
X159276511Y-108141060D01*
X159249537Y-108203034D01*
X159229998Y-108282349D01*
X159218746Y-108374747D01*
X159216270Y-108441667D01*
X159215822Y-108529156D01*
X159069372Y-108529156D01*
X159069270Y-108485263D01*
X159069275Y-108481691D01*
X159073636Y-108352712D01*
X159086861Y-108243009D01*
X159109741Y-108150774D01*
X159143070Y-108074198D01*
X159187638Y-108011473D01*
X159244236Y-107960788D01*
X159313658Y-107920337D01*
X159315351Y-107919541D01*
X159377483Y-107895399D01*
X159432509Y-107886797D01*
X159487887Y-107893769D01*
X159551073Y-107916346D01*
X159560689Y-107920628D01*
X159616966Y-107949828D01*
X159660451Y-107982644D01*
X159697417Y-108024998D01*
X159734135Y-108082810D01*
X159736052Y-108086169D01*
X159760227Y-108136496D01*
X159778282Y-108193379D01*
X159790839Y-108260473D01*
X159798522Y-108341435D01*
X159801953Y-108439918D01*
X159802251Y-108474714D01*
X159802845Y-108640406D01*
X159773100Y-108663803D01*
X159763319Y-108670743D01*
X159751897Y-108676158D01*
X159736095Y-108680235D01*
X159713175Y-108683163D01*
X159680396Y-108685133D01*
X159656089Y-108685775D01*
X159635021Y-108686332D01*
G37*
X159635021Y-108686332D02*
X159574311Y-108686950D01*
X159495526Y-108687175D01*
X159433920Y-108687200D01*
X159124485Y-108687200D01*
X159096776Y-108659491D01*
X159085544Y-108647194D01*
X159077853Y-108633897D01*
X159073040Y-108615328D01*
X159070446Y-108587214D01*
X159069410Y-108545283D01*
X159069372Y-108529156D01*
X159215822Y-108529156D01*
X159656089Y-108529156D01*
X159656089Y-108435274D01*
X159654483Y-108380336D01*
X159650255Y-108323940D01*
X159644292Y-108277655D01*
X159643790Y-108274861D01*
X159621736Y-108192652D01*
X159588600Y-108128886D01*
X159542847Y-108081548D01*
X159482939Y-108048618D01*
X159467061Y-108042892D01*
X159442333Y-108037279D01*
X159417902Y-108039709D01*
X159385400Y-108051533D01*
X159369434Y-108058660D01*
X159327006Y-108082000D01*
X159297240Y-108110120D01*
X159276511Y-108141060D01*
X159249537Y-108203034D01*
X159229998Y-108282349D01*
X159218746Y-108374747D01*
X159216270Y-108441667D01*
X159215822Y-108529156D01*
X159069372Y-108529156D01*
X159069270Y-108485263D01*
X159069275Y-108481691D01*
X159073636Y-108352712D01*
X159086861Y-108243009D01*
X159109741Y-108150774D01*
X159143070Y-108074198D01*
X159187638Y-108011473D01*
X159244236Y-107960788D01*
X159313658Y-107920337D01*
X159315351Y-107919541D01*
X159377483Y-107895399D01*
X159432509Y-107886797D01*
X159487887Y-107893769D01*
X159551073Y-107916346D01*
X159560689Y-107920628D01*
X159616966Y-107949828D01*
X159660451Y-107982644D01*
X159697417Y-108024998D01*
X159734135Y-108082810D01*
X159736052Y-108086169D01*
X159760227Y-108136496D01*
X159778282Y-108193379D01*
X159790839Y-108260473D01*
X159798522Y-108341435D01*
X159801953Y-108439918D01*
X159802251Y-108474714D01*
X159802845Y-108640406D01*
X159773100Y-108663803D01*
X159763319Y-108670743D01*
X159751897Y-108676158D01*
X159736095Y-108680235D01*
X159713175Y-108683163D01*
X159680396Y-108685133D01*
X159656089Y-108685775D01*
X159635021Y-108686332D01*
G36*
X154404654Y-111392140D02*
G01*
X154492511Y-111425840D01*
X154571770Y-111476528D01*
X154639836Y-111542345D01*
X154694112Y-111621434D01*
X154732002Y-111711934D01*
X154744426Y-111763200D01*
X154751947Y-111807698D01*
X154754919Y-111841999D01*
X154753094Y-111874960D01*
X154746225Y-111915434D01*
X154739250Y-111948531D01*
X154707741Y-112041947D01*
X154656617Y-112125619D01*
X154587429Y-112197665D01*
X154501728Y-112256200D01*
X154474489Y-112270148D01*
X154438122Y-112286586D01*
X154407582Y-112296894D01*
X154375450Y-112302460D01*
X154334307Y-112304669D01*
X154288222Y-112304948D01*
X154203865Y-112300861D01*
X154134586Y-112287446D01*
X154073961Y-112262256D01*
X154015567Y-112222846D01*
X153971302Y-112184298D01*
X153905484Y-112112406D01*
X153860053Y-112037313D01*
X153832850Y-111954562D01*
X153822576Y-111876928D01*
X153826571Y-111773043D01*
X153850809Y-111676768D01*
X153893641Y-111590184D01*
X153953419Y-111515373D01*
X154028494Y-111454418D01*
X154117220Y-111409399D01*
X154213530Y-111383136D01*
X154310795Y-111377286D01*
X154404654Y-111392140D01*
G37*
X154404654Y-111392140D02*
X154492511Y-111425840D01*
X154571770Y-111476528D01*
X154639836Y-111542345D01*
X154694112Y-111621434D01*
X154732002Y-111711934D01*
X154744426Y-111763200D01*
X154751947Y-111807698D01*
X154754919Y-111841999D01*
X154753094Y-111874960D01*
X154746225Y-111915434D01*
X154739250Y-111948531D01*
X154707741Y-112041947D01*
X154656617Y-112125619D01*
X154587429Y-112197665D01*
X154501728Y-112256200D01*
X154474489Y-112270148D01*
X154438122Y-112286586D01*
X154407582Y-112296894D01*
X154375450Y-112302460D01*
X154334307Y-112304669D01*
X154288222Y-112304948D01*
X154203865Y-112300861D01*
X154134586Y-112287446D01*
X154073961Y-112262256D01*
X154015567Y-112222846D01*
X153971302Y-112184298D01*
X153905484Y-112112406D01*
X153860053Y-112037313D01*
X153832850Y-111954562D01*
X153822576Y-111876928D01*
X153826571Y-111773043D01*
X153850809Y-111676768D01*
X153893641Y-111590184D01*
X153953419Y-111515373D01*
X154028494Y-111454418D01*
X154117220Y-111409399D01*
X154213530Y-111383136D01*
X154310795Y-111377286D01*
X154404654Y-111392140D01*
G36*
X159527830Y-105261107D02*
G01*
X159601932Y-105261471D01*
X159658704Y-105262276D01*
X159700768Y-105263687D01*
X159730748Y-105265867D01*
X159751267Y-105268979D01*
X159764949Y-105273186D01*
X159774416Y-105278652D01*
X159779082Y-105282528D01*
X159799575Y-105313966D01*
X159798739Y-105349767D01*
X159781264Y-105381127D01*
X159759684Y-105407778D01*
X159112227Y-105407778D01*
X159090647Y-105381127D01*
X159074949Y-105355406D01*
X159069067Y-105334400D01*
X159075877Y-105311386D01*
X159090647Y-105287673D01*
X159112227Y-105261022D01*
X159433773Y-105261022D01*
X159527830Y-105261107D01*
G37*
X159527830Y-105261107D02*
X159601932Y-105261471D01*
X159658704Y-105262276D01*
X159700768Y-105263687D01*
X159730748Y-105265867D01*
X159751267Y-105268979D01*
X159764949Y-105273186D01*
X159774416Y-105278652D01*
X159779082Y-105282528D01*
X159799575Y-105313966D01*
X159798739Y-105349767D01*
X159781264Y-105381127D01*
X159759684Y-105407778D01*
X159112227Y-105407778D01*
X159090647Y-105381127D01*
X159074949Y-105355406D01*
X159069067Y-105334400D01*
X159075877Y-105311386D01*
X159090647Y-105287673D01*
X159112227Y-105261022D01*
X159433773Y-105261022D01*
X159527830Y-105261107D01*
G36*
X159163992Y-109026869D02*
G01*
X159181503Y-109031604D01*
X159194574Y-109042667D01*
X159203913Y-109062652D01*
X159210227Y-109094154D01*
X159214222Y-109139768D01*
X159216606Y-109202087D01*
X159218086Y-109283707D01*
X159218414Y-109308723D01*
X159221467Y-109550800D01*
X159286378Y-109554186D01*
X159351289Y-109557571D01*
X159351289Y-109389424D01*
X159351531Y-109323734D01*
X159352556Y-109276828D01*
X159354811Y-109244917D01*
X159358742Y-109224209D01*
X159364798Y-109210916D01*
X159373424Y-109201245D01*
X159373493Y-109201183D01*
X159407112Y-109183644D01*
X159443448Y-109184278D01*
X159474423Y-109202686D01*
X159477607Y-109206329D01*
X159485812Y-109219259D01*
X159491521Y-109236976D01*
X159495162Y-109263430D01*
X159497167Y-109302568D01*
X159497964Y-109358338D01*
X159498045Y-109394006D01*
X159498045Y-109556445D01*
X159656089Y-109556445D01*
X159656089Y-109309839D01*
X159656231Y-109228420D01*
X159656814Y-109166590D01*
X159658068Y-109121363D01*
X159660227Y-109089752D01*
X159663523Y-109068769D01*
X159668189Y-109055427D01*
X159674457Y-109046739D01*
X159676733Y-109044550D01*
X159708280Y-109028386D01*
X159744168Y-109027203D01*
X159775285Y-109040464D01*
X159785271Y-109050957D01*
X159790769Y-109061871D01*
X159795022Y-109078783D01*
X159798180Y-109104367D01*
X159800392Y-109141299D01*
X159801806Y-109192254D01*
X159802572Y-109259906D01*
X159802838Y-109346931D01*
X159802845Y-109366606D01*
X159802787Y-109455089D01*
X159802467Y-109523773D01*
X159801667Y-109575436D01*
X159800167Y-109612855D01*
X159797749Y-109638810D01*
X159794194Y-109656078D01*
X159789282Y-109667438D01*
X159782795Y-109675668D01*
X159778138Y-109680183D01*
X159769889Y-109686979D01*
X159759669Y-109692288D01*
X159744800Y-109696294D01*
X159722602Y-109699179D01*
X159690393Y-109701126D01*
X159645496Y-109702319D01*
X159585228Y-109702939D01*
X159506911Y-109703171D01*
X159440994Y-109703200D01*
X159348628Y-109703129D01*
X159276117Y-109702792D01*
X159220737Y-109702002D01*
X159179765Y-109700574D01*
X159150478Y-109698321D01*
X159130153Y-109695057D01*
X159116066Y-109690596D01*
X159105495Y-109684752D01*
X159098811Y-109679803D01*
X159069067Y-109656406D01*
X159069067Y-109366226D01*
X159069260Y-109269657D01*
X159070174Y-109193299D01*
X159072311Y-109134783D01*
X159076175Y-109091745D01*
X159082267Y-109061817D01*
X159091090Y-109042632D01*
X159103146Y-109031824D01*
X159118939Y-109027027D01*
X159138970Y-109025873D01*
X159141335Y-109025867D01*
X159163992Y-109026869D01*
G37*
X159163992Y-109026869D02*
X159181503Y-109031604D01*
X159194574Y-109042667D01*
X159203913Y-109062652D01*
X159210227Y-109094154D01*
X159214222Y-109139768D01*
X159216606Y-109202087D01*
X159218086Y-109283707D01*
X159218414Y-109308723D01*
X159221467Y-109550800D01*
X159286378Y-109554186D01*
X159351289Y-109557571D01*
X159351289Y-109389424D01*
X159351531Y-109323734D01*
X159352556Y-109276828D01*
X159354811Y-109244917D01*
X159358742Y-109224209D01*
X159364798Y-109210916D01*
X159373424Y-109201245D01*
X159373493Y-109201183D01*
X159407112Y-109183644D01*
X159443448Y-109184278D01*
X159474423Y-109202686D01*
X159477607Y-109206329D01*
X159485812Y-109219259D01*
X159491521Y-109236976D01*
X159495162Y-109263430D01*
X159497167Y-109302568D01*
X159497964Y-109358338D01*
X159498045Y-109394006D01*
X159498045Y-109556445D01*
X159656089Y-109556445D01*
X159656089Y-109309839D01*
X159656231Y-109228420D01*
X159656814Y-109166590D01*
X159658068Y-109121363D01*
X159660227Y-109089752D01*
X159663523Y-109068769D01*
X159668189Y-109055427D01*
X159674457Y-109046739D01*
X159676733Y-109044550D01*
X159708280Y-109028386D01*
X159744168Y-109027203D01*
X159775285Y-109040464D01*
X159785271Y-109050957D01*
X159790769Y-109061871D01*
X159795022Y-109078783D01*
X159798180Y-109104367D01*
X159800392Y-109141299D01*
X159801806Y-109192254D01*
X159802572Y-109259906D01*
X159802838Y-109346931D01*
X159802845Y-109366606D01*
X159802787Y-109455089D01*
X159802467Y-109523773D01*
X159801667Y-109575436D01*
X159800167Y-109612855D01*
X159797749Y-109638810D01*
X159794194Y-109656078D01*
X159789282Y-109667438D01*
X159782795Y-109675668D01*
X159778138Y-109680183D01*
X159769889Y-109686979D01*
X159759669Y-109692288D01*
X159744800Y-109696294D01*
X159722602Y-109699179D01*
X159690393Y-109701126D01*
X159645496Y-109702319D01*
X159585228Y-109702939D01*
X159506911Y-109703171D01*
X159440994Y-109703200D01*
X159348628Y-109703129D01*
X159276117Y-109702792D01*
X159220737Y-109702002D01*
X159179765Y-109700574D01*
X159150478Y-109698321D01*
X159130153Y-109695057D01*
X159116066Y-109690596D01*
X159105495Y-109684752D01*
X159098811Y-109679803D01*
X159069067Y-109656406D01*
X159069067Y-109366226D01*
X159069260Y-109269657D01*
X159070174Y-109193299D01*
X159072311Y-109134783D01*
X159076175Y-109091745D01*
X159082267Y-109061817D01*
X159091090Y-109042632D01*
X159103146Y-109031824D01*
X159118939Y-109027027D01*
X159138970Y-109025873D01*
X159141335Y-109025867D01*
X159163992Y-109026869D01*
G36*
X159142361Y-105691004D02*
G01*
X159160895Y-105695039D01*
X159187257Y-105703854D01*
X159223752Y-105718331D01*
X159272687Y-105739355D01*
X159336365Y-105767812D01*
X159417093Y-105804585D01*
X159461216Y-105824825D01*
X159539985Y-105861375D01*
X159612423Y-105895685D01*
X159675880Y-105926448D01*
X159727708Y-105952352D01*
X159765259Y-105972090D01*
X159785884Y-105984350D01*
X159788733Y-105986776D01*
X159801302Y-106017817D01*
X159799619Y-106052879D01*
X159784332Y-106081000D01*
X159783089Y-106082146D01*
X159766154Y-106093332D01*
X159733170Y-106112096D01*
X159688380Y-106136125D01*
X159636032Y-106163103D01*
X159616742Y-106172799D01*
X159470150Y-106245986D01*
X159629393Y-106325760D01*
X159684415Y-106354233D01*
X159732132Y-106380650D01*
X159768893Y-106402852D01*
X159791044Y-106418681D01*
X159795741Y-106424046D01*
X159802102Y-106465743D01*
X159788733Y-106500151D01*
X159774446Y-106510272D01*
X159742692Y-106527786D01*
X159696597Y-106551265D01*
X159639285Y-106579280D01*
X159573880Y-106610401D01*
X159503507Y-106643201D01*
X159431291Y-106676250D01*
X159360355Y-106708119D01*
X159293825Y-106737381D01*
X159234826Y-106762605D01*
X159186481Y-106782364D01*
X159151915Y-106795228D01*
X159134253Y-106799769D01*
X159133613Y-106799723D01*
X159111388Y-106788674D01*
X159088753Y-106766590D01*
X159087768Y-106765290D01*
X159072425Y-106738147D01*
X159072574Y-106713042D01*
X159075466Y-106703632D01*
X159081718Y-106692166D01*
X159094014Y-106679990D01*
X159114908Y-106665643D01*
X159146949Y-106647664D01*
X159192688Y-106624593D01*
X159254677Y-106594970D01*
X159311898Y-106568255D01*
X159378226Y-106537520D01*
X159437874Y-106509979D01*
X159487725Y-106487062D01*
X159524664Y-106470202D01*
X159545573Y-106460827D01*
X159548845Y-106459460D01*
X159543497Y-106453311D01*
X159521109Y-106439178D01*
X159484946Y-106418943D01*
X159438277Y-106394485D01*
X159419022Y-106384752D01*
X159354004Y-106351783D01*
X159306654Y-106326357D01*
X159274219Y-106306388D01*
X159253946Y-106289790D01*
X159243082Y-106274476D01*
X159238875Y-106258360D01*
X159238400Y-106247857D01*
X159240042Y-106229330D01*
X159246831Y-106213096D01*
X159261566Y-106196965D01*
X159287044Y-106178749D01*
X159326061Y-106156261D01*
X159381414Y-106127311D01*
X159412903Y-106111338D01*
X159463087Y-106085430D01*
X159504704Y-106062833D01*
X159534242Y-106045542D01*
X159548189Y-106035550D01*
X159548770Y-106034191D01*
X159537793Y-106027739D01*
X159509290Y-106013292D01*
X159466244Y-105992297D01*
X159411638Y-105966203D01*
X159348454Y-105936454D01*
X159317071Y-105921820D01*
X159236078Y-105883750D01*
X159173756Y-105853095D01*
X159128071Y-105828263D01*
X159096989Y-105807663D01*
X159078478Y-105789702D01*
X159070504Y-105772790D01*
X159071034Y-105755335D01*
X159078035Y-105735745D01*
X159078377Y-105734990D01*
X159098678Y-105708387D01*
X159119561Y-105693730D01*
X159129352Y-105690862D01*
X159142361Y-105691004D01*
G37*
X159142361Y-105691004D02*
X159160895Y-105695039D01*
X159187257Y-105703854D01*
X159223752Y-105718331D01*
X159272687Y-105739355D01*
X159336365Y-105767812D01*
X159417093Y-105804585D01*
X159461216Y-105824825D01*
X159539985Y-105861375D01*
X159612423Y-105895685D01*
X159675880Y-105926448D01*
X159727708Y-105952352D01*
X159765259Y-105972090D01*
X159785884Y-105984350D01*
X159788733Y-105986776D01*
X159801302Y-106017817D01*
X159799619Y-106052879D01*
X159784332Y-106081000D01*
X159783089Y-106082146D01*
X159766154Y-106093332D01*
X159733170Y-106112096D01*
X159688380Y-106136125D01*
X159636032Y-106163103D01*
X159616742Y-106172799D01*
X159470150Y-106245986D01*
X159629393Y-106325760D01*
X159684415Y-106354233D01*
X159732132Y-106380650D01*
X159768893Y-106402852D01*
X159791044Y-106418681D01*
X159795741Y-106424046D01*
X159802102Y-106465743D01*
X159788733Y-106500151D01*
X159774446Y-106510272D01*
X159742692Y-106527786D01*
X159696597Y-106551265D01*
X159639285Y-106579280D01*
X159573880Y-106610401D01*
X159503507Y-106643201D01*
X159431291Y-106676250D01*
X159360355Y-106708119D01*
X159293825Y-106737381D01*
X159234826Y-106762605D01*
X159186481Y-106782364D01*
X159151915Y-106795228D01*
X159134253Y-106799769D01*
X159133613Y-106799723D01*
X159111388Y-106788674D01*
X159088753Y-106766590D01*
X159087768Y-106765290D01*
X159072425Y-106738147D01*
X159072574Y-106713042D01*
X159075466Y-106703632D01*
X159081718Y-106692166D01*
X159094014Y-106679990D01*
X159114908Y-106665643D01*
X159146949Y-106647664D01*
X159192688Y-106624593D01*
X159254677Y-106594970D01*
X159311898Y-106568255D01*
X159378226Y-106537520D01*
X159437874Y-106509979D01*
X159487725Y-106487062D01*
X159524664Y-106470202D01*
X159545573Y-106460827D01*
X159548845Y-106459460D01*
X159543497Y-106453311D01*
X159521109Y-106439178D01*
X159484946Y-106418943D01*
X159438277Y-106394485D01*
X159419022Y-106384752D01*
X159354004Y-106351783D01*
X159306654Y-106326357D01*
X159274219Y-106306388D01*
X159253946Y-106289790D01*
X159243082Y-106274476D01*
X159238875Y-106258360D01*
X159238400Y-106247857D01*
X159240042Y-106229330D01*
X159246831Y-106213096D01*
X159261566Y-106196965D01*
X159287044Y-106178749D01*
X159326061Y-106156261D01*
X159381414Y-106127311D01*
X159412903Y-106111338D01*
X159463087Y-106085430D01*
X159504704Y-106062833D01*
X159534242Y-106045542D01*
X159548189Y-106035550D01*
X159548770Y-106034191D01*
X159537793Y-106027739D01*
X159509290Y-106013292D01*
X159466244Y-105992297D01*
X159411638Y-105966203D01*
X159348454Y-105936454D01*
X159317071Y-105921820D01*
X159236078Y-105883750D01*
X159173756Y-105853095D01*
X159128071Y-105828263D01*
X159096989Y-105807663D01*
X159078478Y-105789702D01*
X159070504Y-105772790D01*
X159071034Y-105755335D01*
X159078035Y-105735745D01*
X159078377Y-105734990D01*
X159098678Y-105708387D01*
X159119561Y-105693730D01*
X159129352Y-105690862D01*
X159142361Y-105691004D01*
G36*
X159648161Y-110088113D02*
G01*
X159689342Y-110089032D01*
X159718803Y-110090887D01*
X159739255Y-110093839D01*
X159753413Y-110098050D01*
X159763991Y-110103682D01*
X159772474Y-110109927D01*
X159788207Y-110123439D01*
X159798636Y-110136883D01*
X159802639Y-110152124D01*
X159799094Y-110171026D01*
X159786879Y-110195455D01*
X159764871Y-110227273D01*
X159731949Y-110268348D01*
X159686991Y-110320542D01*
X159628875Y-110385722D01*
X159562099Y-110459556D01*
X159321458Y-110724845D01*
X159540589Y-110730489D01*
X159616128Y-110732531D01*
X159672354Y-110734502D01*
X159712524Y-110736839D01*
X159739896Y-110739981D01*
X159757728Y-110744364D01*
X159769279Y-110750424D01*
X159777807Y-110758600D01*
X159781282Y-110762784D01*
X159800372Y-110799765D01*
X159797493Y-110834708D01*
X159773100Y-110865136D01*
X159763286Y-110872097D01*
X159751826Y-110877523D01*
X159735968Y-110881603D01*
X159712963Y-110884529D01*
X159680062Y-110886492D01*
X159634516Y-110887683D01*
X159573573Y-110888292D01*
X159494486Y-110888511D01*
X159435956Y-110888534D01*
X159344407Y-110888460D01*
X159272687Y-110888113D01*
X159218045Y-110887301D01*
X159177732Y-110885833D01*
X159148998Y-110883519D01*
X159129093Y-110880167D01*
X159115268Y-110875588D01*
X159104772Y-110869589D01*
X159098811Y-110865136D01*
X159084691Y-110853850D01*
X159074029Y-110843301D01*
X159067892Y-110831893D01*
X159067343Y-110818030D01*
X159073448Y-110800114D01*
X159087273Y-110776548D01*
X159109881Y-110745735D01*
X159142338Y-110706078D01*
X159185708Y-110655980D01*
X159241058Y-110593843D01*
X159309451Y-110518072D01*
X159388084Y-110431334D01*
X159551878Y-110250711D01*
X159332029Y-110245067D01*
X159256351Y-110243029D01*
X159199994Y-110241063D01*
X159159706Y-110238734D01*
X159132235Y-110235606D01*
X159114329Y-110231245D01*
X159102737Y-110225216D01*
X159094208Y-110217084D01*
X159090623Y-110212772D01*
X159071670Y-110178241D01*
X159074441Y-110145383D01*
X159090633Y-110119318D01*
X159112199Y-110092667D01*
X159427151Y-110089352D01*
X159519779Y-110088435D01*
X159592544Y-110087968D01*
X159648161Y-110088113D01*
G37*
X159648161Y-110088113D02*
X159689342Y-110089032D01*
X159718803Y-110090887D01*
X159739255Y-110093839D01*
X159753413Y-110098050D01*
X159763991Y-110103682D01*
X159772474Y-110109927D01*
X159788207Y-110123439D01*
X159798636Y-110136883D01*
X159802639Y-110152124D01*
X159799094Y-110171026D01*
X159786879Y-110195455D01*
X159764871Y-110227273D01*
X159731949Y-110268348D01*
X159686991Y-110320542D01*
X159628875Y-110385722D01*
X159562099Y-110459556D01*
X159321458Y-110724845D01*
X159540589Y-110730489D01*
X159616128Y-110732531D01*
X159672354Y-110734502D01*
X159712524Y-110736839D01*
X159739896Y-110739981D01*
X159757728Y-110744364D01*
X159769279Y-110750424D01*
X159777807Y-110758600D01*
X159781282Y-110762784D01*
X159800372Y-110799765D01*
X159797493Y-110834708D01*
X159773100Y-110865136D01*
X159763286Y-110872097D01*
X159751826Y-110877523D01*
X159735968Y-110881603D01*
X159712963Y-110884529D01*
X159680062Y-110886492D01*
X159634516Y-110887683D01*
X159573573Y-110888292D01*
X159494486Y-110888511D01*
X159435956Y-110888534D01*
X159344407Y-110888460D01*
X159272687Y-110888113D01*
X159218045Y-110887301D01*
X159177732Y-110885833D01*
X159148998Y-110883519D01*
X159129093Y-110880167D01*
X159115268Y-110875588D01*
X159104772Y-110869589D01*
X159098811Y-110865136D01*
X159084691Y-110853850D01*
X159074029Y-110843301D01*
X159067892Y-110831893D01*
X159067343Y-110818030D01*
X159073448Y-110800114D01*
X159087273Y-110776548D01*
X159109881Y-110745735D01*
X159142338Y-110706078D01*
X159185708Y-110655980D01*
X159241058Y-110593843D01*
X159309451Y-110518072D01*
X159388084Y-110431334D01*
X159551878Y-110250711D01*
X159332029Y-110245067D01*
X159256351Y-110243029D01*
X159199994Y-110241063D01*
X159159706Y-110238734D01*
X159132235Y-110235606D01*
X159114329Y-110231245D01*
X159102737Y-110225216D01*
X159094208Y-110217084D01*
X159090623Y-110212772D01*
X159071670Y-110178241D01*
X159074441Y-110145383D01*
X159090633Y-110119318D01*
X159112199Y-110092667D01*
X159427151Y-110089352D01*
X159519779Y-110088435D01*
X159592544Y-110087968D01*
X159648161Y-110088113D01*
G36*
X154693544Y-115774195D02*
G01*
X154604633Y-115773170D01*
X154527941Y-115771900D01*
X154462527Y-115770360D01*
X154407449Y-115768524D01*
X154361765Y-115766367D01*
X154324534Y-115763863D01*
X154294813Y-115760987D01*
X154271662Y-115757713D01*
X154254139Y-115754015D01*
X154241301Y-115749869D01*
X154232208Y-115745247D01*
X154225918Y-115740126D01*
X154221488Y-115734478D01*
X154217978Y-115728279D01*
X154214445Y-115721504D01*
X154210876Y-115715508D01*
X154208300Y-115710275D01*
X154205972Y-115702099D01*
X154203878Y-115689886D01*
X154202007Y-115672541D01*
X154200347Y-115648969D01*
X154198884Y-115618077D01*
X154197608Y-115578768D01*
X154196504Y-115529950D01*
X154195588Y-115472197D01*
X154801867Y-115472197D01*
X154859711Y-115432407D01*
X154875479Y-115421236D01*
X154889441Y-115411166D01*
X154902784Y-115402138D01*
X154916693Y-115394097D01*
X154932356Y-115386986D01*
X154950958Y-115380747D01*
X154973686Y-115375325D01*
X155001727Y-115370662D01*
X155036267Y-115366701D01*
X155078492Y-115363385D01*
X155129589Y-115360659D01*
X155190744Y-115358464D01*
X155263144Y-115356745D01*
X155347975Y-115355444D01*
X155446422Y-115354505D01*
X155559674Y-115353870D01*
X155688916Y-115353484D01*
X155835334Y-115353288D01*
X156000116Y-115353227D01*
X156184447Y-115353243D01*
X156389513Y-115353280D01*
X156512133Y-115353289D01*
X156729082Y-115353265D01*
X156924642Y-115353231D01*
X157099999Y-115353243D01*
X157256341Y-115353358D01*
X157394857Y-115353630D01*
X157516734Y-115354118D01*
X157623160Y-115354876D01*
X157715322Y-115355962D01*
X157794409Y-115357431D01*
X157861608Y-115359340D01*
X157918107Y-115361744D01*
X157965093Y-115364701D01*
X158003755Y-115368266D01*
X158035280Y-115372495D01*
X158060855Y-115377446D01*
X158081670Y-115383173D01*
X158098911Y-115389733D01*
X158113765Y-115397183D01*
X158127422Y-115405579D01*
X158141069Y-115414976D01*
X158155893Y-115425432D01*
X158164783Y-115431523D01*
X158222400Y-115470296D01*
X158222400Y-114938732D01*
X158222365Y-114815483D01*
X158222215Y-114712987D01*
X158221878Y-114629420D01*
X158221286Y-114562956D01*
X158220367Y-114511771D01*
X158219051Y-114474041D01*
X158217269Y-114447940D01*
X158214951Y-114431644D01*
X158212026Y-114423328D01*
X158208424Y-114421168D01*
X158204075Y-114423339D01*
X158202645Y-114424535D01*
X158165573Y-114449685D01*
X158112772Y-114475583D01*
X158050770Y-114499192D01*
X158024357Y-114507461D01*
X158006416Y-114512078D01*
X157985355Y-114515979D01*
X157959089Y-114519248D01*
X157925532Y-114521966D01*
X157882599Y-114524215D01*
X157828204Y-114526077D01*
X157760262Y-114527636D01*
X157676688Y-114528972D01*
X157575395Y-114530169D01*
X157454300Y-114531308D01*
X157409600Y-114531685D01*
X157284449Y-114532702D01*
X157180082Y-114533460D01*
X157094707Y-114533903D01*
X157026533Y-114533970D01*
X156973765Y-114533605D01*
X156934614Y-114532748D01*
X156907285Y-114531341D01*
X156889986Y-114529325D01*
X156880926Y-114526643D01*
X156878312Y-114523236D01*
X156880351Y-114519044D01*
X156884667Y-114514571D01*
X156897602Y-114504216D01*
X156926676Y-114482158D01*
X156969759Y-114449957D01*
X157024718Y-114409174D01*
X157089423Y-114361370D01*
X157161742Y-114308105D01*
X157239544Y-114250940D01*
X157320698Y-114191437D01*
X157403072Y-114131155D01*
X157484536Y-114071655D01*
X157562957Y-114014498D01*
X157636204Y-113961245D01*
X157702147Y-113913457D01*
X157758654Y-113872693D01*
X157803593Y-113840516D01*
X157834834Y-113818485D01*
X157841466Y-113813917D01*
X157878369Y-113790996D01*
X157926359Y-113764188D01*
X157975897Y-113738789D01*
X157982577Y-113735568D01*
X158030772Y-113713890D01*
X158068334Y-113701304D01*
X158104160Y-113695574D01*
X158146200Y-113694456D01*
X158222400Y-113695090D01*
X158222400Y-112540651D01*
X158128669Y-112631815D01*
X158078775Y-112678612D01*
X158022295Y-112728899D01*
X157968026Y-112774944D01*
X157942673Y-112795369D01*
X157903128Y-112825807D01*
X157849916Y-112865862D01*
X157784667Y-112914361D01*
X157709011Y-112970135D01*
X157624577Y-113032011D01*
X157532994Y-113098819D01*
X157435892Y-113169387D01*
X157334901Y-113242545D01*
X157231650Y-113317121D01*
X157127768Y-113391944D01*
X157024885Y-113465843D01*
X156924631Y-113537646D01*
X156828636Y-113606184D01*
X156738527Y-113670284D01*
X156655936Y-113728775D01*
X156582492Y-113780486D01*
X156519824Y-113824247D01*
X156469561Y-113858885D01*
X156433334Y-113883230D01*
X156412771Y-113896111D01*
X156408668Y-113897869D01*
X156397342Y-113889910D01*
X156370162Y-113869115D01*
X156328829Y-113836847D01*
X156275044Y-113794470D01*
X156210506Y-113743347D01*
X156136918Y-113684841D01*
X156055978Y-113620314D01*
X155969388Y-113551131D01*
X155878848Y-113478653D01*
X155786060Y-113404246D01*
X155711702Y-113344517D01*
X155692722Y-113329270D01*
X155600537Y-113255090D01*
X155511204Y-113183069D01*
X155426424Y-113114569D01*
X155347898Y-113050955D01*
X155277326Y-112993588D01*
X155216409Y-112943833D01*
X155166847Y-112903052D01*
X155146178Y-112885888D01*
X155045516Y-112799596D01*
X154962259Y-112722997D01*
X154894438Y-112654183D01*
X154840089Y-112591248D01*
X154832722Y-112581867D01*
X154802117Y-112542356D01*
X154801867Y-113674116D01*
X154849844Y-113668827D01*
X154907188Y-113672130D01*
X154975463Y-113693661D01*
X155055212Y-113733635D01*
X155127495Y-113778943D01*
X155150140Y-113795161D01*
X155187696Y-113823214D01*
X155238021Y-113861430D01*
X155298973Y-113908137D01*
X155368411Y-113961661D01*
X155444194Y-114020331D01*
X155524180Y-114082475D01*
X155606228Y-114146421D01*
X155688196Y-114210495D01*
X155767943Y-114273027D01*
X155843327Y-114332343D01*
X155912207Y-114386771D01*
X155972442Y-114434639D01*
X156021889Y-114474275D01*
X156058408Y-114504006D01*
X156079858Y-114522161D01*
X156083156Y-114525220D01*
X156075149Y-114528079D01*
X156044855Y-114530293D01*
X155992556Y-114531857D01*
X155918531Y-114532767D01*
X155823063Y-114533020D01*
X155706434Y-114532613D01*
X155586445Y-114531704D01*
X155454333Y-114530382D01*
X155342594Y-114528857D01*
X155249025Y-114526881D01*
X155171419Y-114524206D01*
X155107574Y-114520582D01*
X155055283Y-114515761D01*
X155012344Y-114509494D01*
X154976551Y-114501532D01*
X154945700Y-114491627D01*
X154917586Y-114479531D01*
X154890005Y-114464993D01*
X154864966Y-114450311D01*
X154801867Y-114412314D01*
X154801867Y-115472197D01*
X154195588Y-115472197D01*
X154195561Y-115470527D01*
X154194767Y-115399404D01*
X154194109Y-115315488D01*
X154193575Y-115217683D01*
X154193153Y-115104894D01*
X154192829Y-114976029D01*
X154192592Y-114829991D01*
X154192430Y-114665686D01*
X154192330Y-114482020D01*
X154192280Y-114277897D01*
X154192267Y-114066753D01*
X154192267Y-112446400D01*
X154289054Y-112446400D01*
X154402993Y-112435535D01*
X154510616Y-112403918D01*
X154609615Y-112353015D01*
X154697684Y-112284293D01*
X154772516Y-112199219D01*
X154830384Y-112102232D01*
X154870005Y-111995964D01*
X154888573Y-111888950D01*
X154888561Y-111887853D01*
X155704978Y-111887853D01*
X155705142Y-111985670D01*
X155705611Y-112076064D01*
X155706347Y-112156630D01*
X155707316Y-112224962D01*
X155708480Y-112278656D01*
X155709803Y-112315305D01*
X155711249Y-112332504D01*
X155711702Y-112333511D01*
X155724659Y-112327602D01*
X155746908Y-112313272D01*
X155748391Y-112312225D01*
X155778544Y-112293438D01*
X155815375Y-112273791D01*
X155823511Y-112269892D01*
X155831940Y-112266356D01*
X155842059Y-112263230D01*
X155855260Y-112260486D01*
X155872938Y-112258092D01*
X155896484Y-112256019D01*
X155927293Y-112254235D01*
X155966757Y-112252712D01*
X156016269Y-112251419D01*
X156077223Y-112250326D01*
X156151011Y-112249403D01*
X156239028Y-112248619D01*
X156342665Y-112247945D01*
X156463316Y-112247350D01*
X156602374Y-112246805D01*
X156761232Y-112246279D01*
X156940089Y-112245745D01*
X157125207Y-112245206D01*
X157289145Y-112244772D01*
X157433303Y-112244509D01*
X157559079Y-112244484D01*
X157667871Y-112244765D01*
X157761077Y-112245419D01*
X157840097Y-112246514D01*
X157906328Y-112248118D01*
X157961170Y-112250297D01*
X158006021Y-112253119D01*
X158042278Y-112256651D01*
X158071341Y-112260961D01*
X158094609Y-112266117D01*
X158113479Y-112272185D01*
X158129351Y-112279233D01*
X158143622Y-112287329D01*
X158157691Y-112296540D01*
X158170158Y-112305040D01*
X158196452Y-112322176D01*
X158214037Y-112332322D01*
X158217257Y-112333511D01*
X158218334Y-112322604D01*
X158219335Y-112291411D01*
X158220235Y-112242223D01*
X158221010Y-112177333D01*
X158221637Y-112099030D01*
X158222091Y-112009607D01*
X158222349Y-111911356D01*
X158222400Y-111842445D01*
X158222180Y-111737452D01*
X158221548Y-111640610D01*
X158220549Y-111554107D01*
X158219227Y-111480132D01*
X158217626Y-111420874D01*
X158215791Y-111378520D01*
X158213765Y-111355260D01*
X158212493Y-111351378D01*
X158197591Y-111359076D01*
X158189560Y-111367074D01*
X158172434Y-111380246D01*
X158142183Y-111397485D01*
X158117622Y-111409407D01*
X158058711Y-111436045D01*
X156881845Y-111439120D01*
X155704978Y-111442195D01*
X155704978Y-111887853D01*
X154888561Y-111887853D01*
X154887434Y-111783300D01*
X154867930Y-111681125D01*
X154831406Y-111584534D01*
X154779205Y-111495638D01*
X154712673Y-111416546D01*
X154633152Y-111349369D01*
X154541987Y-111296217D01*
X154440523Y-111259199D01*
X154330102Y-111240427D01*
X154280206Y-111238489D01*
X154192267Y-111238489D01*
X154192267Y-111186560D01*
X154195111Y-111150253D01*
X154206911Y-111123355D01*
X154230649Y-111096249D01*
X154269031Y-111057867D01*
X156460602Y-111057867D01*
X156722739Y-111057876D01*
X156963241Y-111057908D01*
X157183048Y-111057972D01*
X157383101Y-111058076D01*
X157564344Y-111058227D01*
X157727716Y-111058434D01*
X157874160Y-111058706D01*
X158004617Y-111059050D01*
X158120029Y-111059474D01*
X158221338Y-111059987D01*
X158309484Y-111060597D01*
X158385410Y-111061312D01*
X158450057Y-111062140D01*
X158504367Y-111063089D01*
X158549280Y-111064167D01*
X158585740Y-111065383D01*
X158614687Y-111066745D01*
X158637063Y-111068261D01*
X158653809Y-111069938D01*
X158665868Y-111071786D01*
X158674180Y-111073813D01*
X158679687Y-111076025D01*
X158681537Y-111077108D01*
X158688549Y-111081271D01*
X158694996Y-111084805D01*
X158700900Y-111088635D01*
X158706286Y-111093682D01*
X158711178Y-111100871D01*
X158715598Y-111111123D01*
X158719572Y-111125364D01*
X158723121Y-111144514D01*
X158726270Y-111169499D01*
X158729042Y-111201240D01*
X158731461Y-111240662D01*
X158733551Y-111288686D01*
X158735335Y-111346237D01*
X158736837Y-111414237D01*
X158738080Y-111493610D01*
X158739089Y-111585279D01*
X158739885Y-111690166D01*
X158740494Y-111809196D01*
X158740939Y-111943290D01*
X158741243Y-112093373D01*
X158741430Y-112260367D01*
X158741524Y-112445196D01*
X158741548Y-112648783D01*
X158741525Y-112872050D01*
X158741480Y-113115922D01*
X158741437Y-113381321D01*
X158741432Y-113419704D01*
X158741389Y-113686682D01*
X158741318Y-113932002D01*
X158741213Y-114156583D01*
X158741066Y-114361345D01*
X158740869Y-114547206D01*
X158740616Y-114715088D01*
X158740300Y-114865908D01*
X158739913Y-115000587D01*
X158739447Y-115120044D01*
X158738897Y-115225199D01*
X158738253Y-115316971D01*
X158737511Y-115396279D01*
X158736661Y-115464043D01*
X158735697Y-115521182D01*
X158734611Y-115568617D01*
X158733397Y-115607266D01*
X158732047Y-115638049D01*
X158730555Y-115661885D01*
X158728911Y-115679694D01*
X158727111Y-115692395D01*
X158725145Y-115700908D01*
X158723477Y-115705266D01*
X158719906Y-115713728D01*
X158717270Y-115721497D01*
X158714634Y-115728602D01*
X158711062Y-115735073D01*
X158705621Y-115740939D01*
X158697375Y-115746229D01*
X158685390Y-115750974D01*
X158668731Y-115755202D01*
X158646463Y-115758943D01*
X158617652Y-115762227D01*
X158581363Y-115765083D01*
X158536661Y-115767540D01*
X158482611Y-115769629D01*
X158418279Y-115771378D01*
X158342730Y-115772817D01*
X158255030Y-115773976D01*
X158154243Y-115774883D01*
X158039434Y-115775569D01*
X157909670Y-115776063D01*
X157764015Y-115776395D01*
X157601535Y-115776593D01*
X157421295Y-115776687D01*
X157222360Y-115776708D01*
X157003796Y-115776685D01*
X156764668Y-115776646D01*
X156504040Y-115776622D01*
X156461889Y-115776622D01*
X156198992Y-115776636D01*
X155957732Y-115776661D01*
X155737165Y-115776671D01*
X155536352Y-115776642D01*
X155354349Y-115776548D01*
X155190216Y-115776362D01*
X155043011Y-115776059D01*
X154911792Y-115775614D01*
X154801867Y-115775034D01*
X154795617Y-115775001D01*
X154693544Y-115774195D01*
G37*
X154693544Y-115774195D02*
X154604633Y-115773170D01*
X154527941Y-115771900D01*
X154462527Y-115770360D01*
X154407449Y-115768524D01*
X154361765Y-115766367D01*
X154324534Y-115763863D01*
X154294813Y-115760987D01*
X154271662Y-115757713D01*
X154254139Y-115754015D01*
X154241301Y-115749869D01*
X154232208Y-115745247D01*
X154225918Y-115740126D01*
X154221488Y-115734478D01*
X154217978Y-115728279D01*
X154214445Y-115721504D01*
X154210876Y-115715508D01*
X154208300Y-115710275D01*
X154205972Y-115702099D01*
X154203878Y-115689886D01*
X154202007Y-115672541D01*
X154200347Y-115648969D01*
X154198884Y-115618077D01*
X154197608Y-115578768D01*
X154196504Y-115529950D01*
X154195588Y-115472197D01*
X154801867Y-115472197D01*
X154859711Y-115432407D01*
X154875479Y-115421236D01*
X154889441Y-115411166D01*
X154902784Y-115402138D01*
X154916693Y-115394097D01*
X154932356Y-115386986D01*
X154950958Y-115380747D01*
X154973686Y-115375325D01*
X155001727Y-115370662D01*
X155036267Y-115366701D01*
X155078492Y-115363385D01*
X155129589Y-115360659D01*
X155190744Y-115358464D01*
X155263144Y-115356745D01*
X155347975Y-115355444D01*
X155446422Y-115354505D01*
X155559674Y-115353870D01*
X155688916Y-115353484D01*
X155835334Y-115353288D01*
X156000116Y-115353227D01*
X156184447Y-115353243D01*
X156389513Y-115353280D01*
X156512133Y-115353289D01*
X156729082Y-115353265D01*
X156924642Y-115353231D01*
X157099999Y-115353243D01*
X157256341Y-115353358D01*
X157394857Y-115353630D01*
X157516734Y-115354118D01*
X157623160Y-115354876D01*
X157715322Y-115355962D01*
X157794409Y-115357431D01*
X157861608Y-115359340D01*
X157918107Y-115361744D01*
X157965093Y-115364701D01*
X158003755Y-115368266D01*
X158035280Y-115372495D01*
X158060855Y-115377446D01*
X158081670Y-115383173D01*
X158098911Y-115389733D01*
X158113765Y-115397183D01*
X158127422Y-115405579D01*
X158141069Y-115414976D01*
X158155893Y-115425432D01*
X158164783Y-115431523D01*
X158222400Y-115470296D01*
X158222400Y-114938732D01*
X158222365Y-114815483D01*
X158222215Y-114712987D01*
X158221878Y-114629420D01*
X158221286Y-114562956D01*
X158220367Y-114511771D01*
X158219051Y-114474041D01*
X158217269Y-114447940D01*
X158214951Y-114431644D01*
X158212026Y-114423328D01*
X158208424Y-114421168D01*
X158204075Y-114423339D01*
X158202645Y-114424535D01*
X158165573Y-114449685D01*
X158112772Y-114475583D01*
X158050770Y-114499192D01*
X158024357Y-114507461D01*
X158006416Y-114512078D01*
X157985355Y-114515979D01*
X157959089Y-114519248D01*
X157925532Y-114521966D01*
X157882599Y-114524215D01*
X157828204Y-114526077D01*
X157760262Y-114527636D01*
X157676688Y-114528972D01*
X157575395Y-114530169D01*
X157454300Y-114531308D01*
X157409600Y-114531685D01*
X157284449Y-114532702D01*
X157180082Y-114533460D01*
X157094707Y-114533903D01*
X157026533Y-114533970D01*
X156973765Y-114533605D01*
X156934614Y-114532748D01*
X156907285Y-114531341D01*
X156889986Y-114529325D01*
X156880926Y-114526643D01*
X156878312Y-114523236D01*
X156880351Y-114519044D01*
X156884667Y-114514571D01*
X156897602Y-114504216D01*
X156926676Y-114482158D01*
X156969759Y-114449957D01*
X157024718Y-114409174D01*
X157089423Y-114361370D01*
X157161742Y-114308105D01*
X157239544Y-114250940D01*
X157320698Y-114191437D01*
X157403072Y-114131155D01*
X157484536Y-114071655D01*
X157562957Y-114014498D01*
X157636204Y-113961245D01*
X157702147Y-113913457D01*
X157758654Y-113872693D01*
X157803593Y-113840516D01*
X157834834Y-113818485D01*
X157841466Y-113813917D01*
X157878369Y-113790996D01*
X157926359Y-113764188D01*
X157975897Y-113738789D01*
X157982577Y-113735568D01*
X158030772Y-113713890D01*
X158068334Y-113701304D01*
X158104160Y-113695574D01*
X158146200Y-113694456D01*
X158222400Y-113695090D01*
X158222400Y-112540651D01*
X158128669Y-112631815D01*
X158078775Y-112678612D01*
X158022295Y-112728899D01*
X157968026Y-112774944D01*
X157942673Y-112795369D01*
X157903128Y-112825807D01*
X157849916Y-112865862D01*
X157784667Y-112914361D01*
X157709011Y-112970135D01*
X157624577Y-113032011D01*
X157532994Y-113098819D01*
X157435892Y-113169387D01*
X157334901Y-113242545D01*
X157231650Y-113317121D01*
X157127768Y-113391944D01*
X157024885Y-113465843D01*
X156924631Y-113537646D01*
X156828636Y-113606184D01*
X156738527Y-113670284D01*
X156655936Y-113728775D01*
X156582492Y-113780486D01*
X156519824Y-113824247D01*
X156469561Y-113858885D01*
X156433334Y-113883230D01*
X156412771Y-113896111D01*
X156408668Y-113897869D01*
X156397342Y-113889910D01*
X156370162Y-113869115D01*
X156328829Y-113836847D01*
X156275044Y-113794470D01*
X156210506Y-113743347D01*
X156136918Y-113684841D01*
X156055978Y-113620314D01*
X155969388Y-113551131D01*
X155878848Y-113478653D01*
X155786060Y-113404246D01*
X155711702Y-113344517D01*
X155692722Y-113329270D01*
X155600537Y-113255090D01*
X155511204Y-113183069D01*
X155426424Y-113114569D01*
X155347898Y-113050955D01*
X155277326Y-112993588D01*
X155216409Y-112943833D01*
X155166847Y-112903052D01*
X155146178Y-112885888D01*
X155045516Y-112799596D01*
X154962259Y-112722997D01*
X154894438Y-112654183D01*
X154840089Y-112591248D01*
X154832722Y-112581867D01*
X154802117Y-112542356D01*
X154801867Y-113674116D01*
X154849844Y-113668827D01*
X154907188Y-113672130D01*
X154975463Y-113693661D01*
X155055212Y-113733635D01*
X155127495Y-113778943D01*
X155150140Y-113795161D01*
X155187696Y-113823214D01*
X155238021Y-113861430D01*
X155298973Y-113908137D01*
X155368411Y-113961661D01*
X155444194Y-114020331D01*
X155524180Y-114082475D01*
X155606228Y-114146421D01*
X155688196Y-114210495D01*
X155767943Y-114273027D01*
X155843327Y-114332343D01*
X155912207Y-114386771D01*
X155972442Y-114434639D01*
X156021889Y-114474275D01*
X156058408Y-114504006D01*
X156079858Y-114522161D01*
X156083156Y-114525220D01*
X156075149Y-114528079D01*
X156044855Y-114530293D01*
X155992556Y-114531857D01*
X155918531Y-114532767D01*
X155823063Y-114533020D01*
X155706434Y-114532613D01*
X155586445Y-114531704D01*
X155454333Y-114530382D01*
X155342594Y-114528857D01*
X155249025Y-114526881D01*
X155171419Y-114524206D01*
X155107574Y-114520582D01*
X155055283Y-114515761D01*
X155012344Y-114509494D01*
X154976551Y-114501532D01*
X154945700Y-114491627D01*
X154917586Y-114479531D01*
X154890005Y-114464993D01*
X154864966Y-114450311D01*
X154801867Y-114412314D01*
X154801867Y-115472197D01*
X154195588Y-115472197D01*
X154195561Y-115470527D01*
X154194767Y-115399404D01*
X154194109Y-115315488D01*
X154193575Y-115217683D01*
X154193153Y-115104894D01*
X154192829Y-114976029D01*
X154192592Y-114829991D01*
X154192430Y-114665686D01*
X154192330Y-114482020D01*
X154192280Y-114277897D01*
X154192267Y-114066753D01*
X154192267Y-112446400D01*
X154289054Y-112446400D01*
X154402993Y-112435535D01*
X154510616Y-112403918D01*
X154609615Y-112353015D01*
X154697684Y-112284293D01*
X154772516Y-112199219D01*
X154830384Y-112102232D01*
X154870005Y-111995964D01*
X154888573Y-111888950D01*
X154888561Y-111887853D01*
X155704978Y-111887853D01*
X155705142Y-111985670D01*
X155705611Y-112076064D01*
X155706347Y-112156630D01*
X155707316Y-112224962D01*
X155708480Y-112278656D01*
X155709803Y-112315305D01*
X155711249Y-112332504D01*
X155711702Y-112333511D01*
X155724659Y-112327602D01*
X155746908Y-112313272D01*
X155748391Y-112312225D01*
X155778544Y-112293438D01*
X155815375Y-112273791D01*
X155823511Y-112269892D01*
X155831940Y-112266356D01*
X155842059Y-112263230D01*
X155855260Y-112260486D01*
X155872938Y-112258092D01*
X155896484Y-112256019D01*
X155927293Y-112254235D01*
X155966757Y-112252712D01*
X156016269Y-112251419D01*
X156077223Y-112250326D01*
X156151011Y-112249403D01*
X156239028Y-112248619D01*
X156342665Y-112247945D01*
X156463316Y-112247350D01*
X156602374Y-112246805D01*
X156761232Y-112246279D01*
X156940089Y-112245745D01*
X157125207Y-112245206D01*
X157289145Y-112244772D01*
X157433303Y-112244509D01*
X157559079Y-112244484D01*
X157667871Y-112244765D01*
X157761077Y-112245419D01*
X157840097Y-112246514D01*
X157906328Y-112248118D01*
X157961170Y-112250297D01*
X158006021Y-112253119D01*
X158042278Y-112256651D01*
X158071341Y-112260961D01*
X158094609Y-112266117D01*
X158113479Y-112272185D01*
X158129351Y-112279233D01*
X158143622Y-112287329D01*
X158157691Y-112296540D01*
X158170158Y-112305040D01*
X158196452Y-112322176D01*
X158214037Y-112332322D01*
X158217257Y-112333511D01*
X158218334Y-112322604D01*
X158219335Y-112291411D01*
X158220235Y-112242223D01*
X158221010Y-112177333D01*
X158221637Y-112099030D01*
X158222091Y-112009607D01*
X158222349Y-111911356D01*
X158222400Y-111842445D01*
X158222180Y-111737452D01*
X158221548Y-111640610D01*
X158220549Y-111554107D01*
X158219227Y-111480132D01*
X158217626Y-111420874D01*
X158215791Y-111378520D01*
X158213765Y-111355260D01*
X158212493Y-111351378D01*
X158197591Y-111359076D01*
X158189560Y-111367074D01*
X158172434Y-111380246D01*
X158142183Y-111397485D01*
X158117622Y-111409407D01*
X158058711Y-111436045D01*
X156881845Y-111439120D01*
X155704978Y-111442195D01*
X155704978Y-111887853D01*
X154888561Y-111887853D01*
X154887434Y-111783300D01*
X154867930Y-111681125D01*
X154831406Y-111584534D01*
X154779205Y-111495638D01*
X154712673Y-111416546D01*
X154633152Y-111349369D01*
X154541987Y-111296217D01*
X154440523Y-111259199D01*
X154330102Y-111240427D01*
X154280206Y-111238489D01*
X154192267Y-111238489D01*
X154192267Y-111186560D01*
X154195111Y-111150253D01*
X154206911Y-111123355D01*
X154230649Y-111096249D01*
X154269031Y-111057867D01*
X156460602Y-111057867D01*
X156722739Y-111057876D01*
X156963241Y-111057908D01*
X157183048Y-111057972D01*
X157383101Y-111058076D01*
X157564344Y-111058227D01*
X157727716Y-111058434D01*
X157874160Y-111058706D01*
X158004617Y-111059050D01*
X158120029Y-111059474D01*
X158221338Y-111059987D01*
X158309484Y-111060597D01*
X158385410Y-111061312D01*
X158450057Y-111062140D01*
X158504367Y-111063089D01*
X158549280Y-111064167D01*
X158585740Y-111065383D01*
X158614687Y-111066745D01*
X158637063Y-111068261D01*
X158653809Y-111069938D01*
X158665868Y-111071786D01*
X158674180Y-111073813D01*
X158679687Y-111076025D01*
X158681537Y-111077108D01*
X158688549Y-111081271D01*
X158694996Y-111084805D01*
X158700900Y-111088635D01*
X158706286Y-111093682D01*
X158711178Y-111100871D01*
X158715598Y-111111123D01*
X158719572Y-111125364D01*
X158723121Y-111144514D01*
X158726270Y-111169499D01*
X158729042Y-111201240D01*
X158731461Y-111240662D01*
X158733551Y-111288686D01*
X158735335Y-111346237D01*
X158736837Y-111414237D01*
X158738080Y-111493610D01*
X158739089Y-111585279D01*
X158739885Y-111690166D01*
X158740494Y-111809196D01*
X158740939Y-111943290D01*
X158741243Y-112093373D01*
X158741430Y-112260367D01*
X158741524Y-112445196D01*
X158741548Y-112648783D01*
X158741525Y-112872050D01*
X158741480Y-113115922D01*
X158741437Y-113381321D01*
X158741432Y-113419704D01*
X158741389Y-113686682D01*
X158741318Y-113932002D01*
X158741213Y-114156583D01*
X158741066Y-114361345D01*
X158740869Y-114547206D01*
X158740616Y-114715088D01*
X158740300Y-114865908D01*
X158739913Y-115000587D01*
X158739447Y-115120044D01*
X158738897Y-115225199D01*
X158738253Y-115316971D01*
X158737511Y-115396279D01*
X158736661Y-115464043D01*
X158735697Y-115521182D01*
X158734611Y-115568617D01*
X158733397Y-115607266D01*
X158732047Y-115638049D01*
X158730555Y-115661885D01*
X158728911Y-115679694D01*
X158727111Y-115692395D01*
X158725145Y-115700908D01*
X158723477Y-115705266D01*
X158719906Y-115713728D01*
X158717270Y-115721497D01*
X158714634Y-115728602D01*
X158711062Y-115735073D01*
X158705621Y-115740939D01*
X158697375Y-115746229D01*
X158685390Y-115750974D01*
X158668731Y-115755202D01*
X158646463Y-115758943D01*
X158617652Y-115762227D01*
X158581363Y-115765083D01*
X158536661Y-115767540D01*
X158482611Y-115769629D01*
X158418279Y-115771378D01*
X158342730Y-115772817D01*
X158255030Y-115773976D01*
X158154243Y-115774883D01*
X158039434Y-115775569D01*
X157909670Y-115776063D01*
X157764015Y-115776395D01*
X157601535Y-115776593D01*
X157421295Y-115776687D01*
X157222360Y-115776708D01*
X157003796Y-115776685D01*
X156764668Y-115776646D01*
X156504040Y-115776622D01*
X156461889Y-115776622D01*
X156198992Y-115776636D01*
X155957732Y-115776661D01*
X155737165Y-115776671D01*
X155536352Y-115776642D01*
X155354349Y-115776548D01*
X155190216Y-115776362D01*
X155043011Y-115776059D01*
X154911792Y-115775614D01*
X154801867Y-115775034D01*
X154795617Y-115775001D01*
X154693544Y-115774195D01*
G36*
X157270812Y-108217478D02*
G01*
X157199590Y-108201232D01*
X157128864Y-108175595D01*
X157076493Y-108151599D01*
X156981196Y-108092980D01*
X156893170Y-108014883D01*
X156814017Y-107919685D01*
X156745340Y-107809762D01*
X156688741Y-107687490D01*
X156645821Y-107555245D01*
X156630882Y-107490578D01*
X156608777Y-107354396D01*
X156594194Y-107205951D01*
X156587813Y-107054495D01*
X156589110Y-106953894D01*
X157111842Y-106953894D01*
X157117096Y-107074670D01*
X157133263Y-107177340D01*
X157160961Y-107263894D01*
X157200808Y-107336319D01*
X157247758Y-107391249D01*
X157305645Y-107435796D01*
X157368693Y-107460520D01*
X157440282Y-107467752D01*
X157515333Y-107458459D01*
X157579160Y-107430272D01*
X157634798Y-107381803D01*
X157639211Y-107376746D01*
X157674037Y-107328452D01*
X157696620Y-107276743D01*
X157708540Y-107216011D01*
X157711383Y-107140648D01*
X157710978Y-107122541D01*
X157708325Y-107068722D01*
X157702909Y-107028692D01*
X157692745Y-106993676D01*
X157675850Y-106954897D01*
X157670672Y-106944255D01*
X157634844Y-106883604D01*
X157592212Y-106836785D01*
X157576973Y-106824048D01*
X157520462Y-106779378D01*
X157324586Y-106779378D01*
X157245939Y-106779914D01*
X157187988Y-106781604D01*
X157148875Y-106784572D01*
X157126741Y-106788943D01*
X157120274Y-106793028D01*
X157117111Y-106808953D01*
X157114488Y-106842736D01*
X157112655Y-106889660D01*
X157111857Y-106945007D01*
X157111842Y-106953894D01*
X156589110Y-106953894D01*
X156589445Y-106927936D01*
X156596224Y-106766050D01*
X156537245Y-106773470D01*
X156438092Y-106792762D01*
X156357372Y-106823896D01*
X156294466Y-106867731D01*
X156248756Y-106925129D01*
X156219622Y-106996952D01*
X156206447Y-107084059D01*
X156208611Y-107187314D01*
X156212612Y-107225289D01*
X156237780Y-107366480D01*
X156278814Y-107503293D01*
X156316815Y-107597822D01*
X156336190Y-107642982D01*
X156351760Y-107681415D01*
X156361405Y-107707766D01*
X156363452Y-107715454D01*
X156354374Y-107725198D01*
X156325405Y-107741917D01*
X156276217Y-107765768D01*
X156206484Y-107796907D01*
X156115879Y-107835493D01*
X156100089Y-107842090D01*
X156027772Y-107872147D01*
X155962425Y-107899126D01*
X155906906Y-107921864D01*
X155864072Y-107939194D01*
X155836781Y-107949952D01*
X155827942Y-107953059D01*
X155823187Y-107943060D01*
X155817910Y-107916783D01*
X155814231Y-107888511D01*
X155809474Y-107858354D01*
X155800028Y-107810567D01*
X155786820Y-107749388D01*
X155770776Y-107679054D01*
X155752820Y-107603806D01*
X155745797Y-107575245D01*
X155720209Y-107470184D01*
X155700147Y-107382520D01*
X155684969Y-107307932D01*
X155674035Y-107242097D01*
X155666704Y-107180693D01*
X155662335Y-107119398D01*
X155660287Y-107053890D01*
X155659889Y-106995872D01*
X155666552Y-106826426D01*
X155686567Y-106674508D01*
X155720202Y-106539244D01*
X155767725Y-106419761D01*
X155829405Y-106315185D01*
X155892965Y-106237576D01*
X155967099Y-106168735D01*
X156046871Y-106114994D01*
X156139091Y-106072090D01*
X156182161Y-106056616D01*
X156221142Y-106043756D01*
X156257289Y-106032554D01*
X156292434Y-106022880D01*
X156328410Y-106014604D01*
X156367050Y-106007597D01*
X156410185Y-106001728D01*
X156459649Y-105996869D01*
X156517273Y-105992890D01*
X156584891Y-105989660D01*
X156664334Y-105987051D01*
X156757436Y-105984933D01*
X156866027Y-105983176D01*
X156991942Y-105981651D01*
X157137012Y-105980228D01*
X157279778Y-105978975D01*
X157435968Y-105977649D01*
X157571239Y-105976444D01*
X157687246Y-105975234D01*
X157785645Y-105973894D01*
X157868093Y-105972300D01*
X157936246Y-105970325D01*
X157991760Y-105967844D01*
X158036292Y-105964731D01*
X158071498Y-105960862D01*
X158099034Y-105956111D01*
X158120556Y-105950352D01*
X158137722Y-105943461D01*
X158152186Y-105935311D01*
X158165606Y-105925777D01*
X158179638Y-105914734D01*
X158185071Y-105910434D01*
X158207910Y-105894614D01*
X158223463Y-105887578D01*
X158223922Y-105887556D01*
X158226121Y-105898433D01*
X158228147Y-105929418D01*
X158229942Y-105978043D01*
X158231451Y-106041837D01*
X158232616Y-106118331D01*
X158233380Y-106205056D01*
X158233686Y-106299543D01*
X158233689Y-106310450D01*
X158233689Y-106733343D01*
X158137622Y-106736605D01*
X158041556Y-106739867D01*
X158092543Y-106801956D01*
X158160057Y-106899286D01*
X158214749Y-107009187D01*
X158244978Y-107095651D01*
X158259666Y-107164722D01*
X158269659Y-107248075D01*
X158274646Y-107337841D01*
X158274313Y-107426155D01*
X158268351Y-107505149D01*
X158262638Y-107541378D01*
X158224776Y-107681397D01*
X158169932Y-107807822D01*
X158098924Y-107919740D01*
X158012568Y-108016238D01*
X157911679Y-108096400D01*
X157797076Y-108159313D01*
X157670984Y-108203688D01*
X157614401Y-108216022D01*
X157552202Y-108223632D01*
X157477363Y-108227261D01*
X157443467Y-108227755D01*
X157440282Y-108227690D01*
X157349712Y-108225822D01*
X157270812Y-108217478D01*
G37*
X157270812Y-108217478D02*
X157199590Y-108201232D01*
X157128864Y-108175595D01*
X157076493Y-108151599D01*
X156981196Y-108092980D01*
X156893170Y-108014883D01*
X156814017Y-107919685D01*
X156745340Y-107809762D01*
X156688741Y-107687490D01*
X156645821Y-107555245D01*
X156630882Y-107490578D01*
X156608777Y-107354396D01*
X156594194Y-107205951D01*
X156587813Y-107054495D01*
X156589110Y-106953894D01*
X157111842Y-106953894D01*
X157117096Y-107074670D01*
X157133263Y-107177340D01*
X157160961Y-107263894D01*
X157200808Y-107336319D01*
X157247758Y-107391249D01*
X157305645Y-107435796D01*
X157368693Y-107460520D01*
X157440282Y-107467752D01*
X157515333Y-107458459D01*
X157579160Y-107430272D01*
X157634798Y-107381803D01*
X157639211Y-107376746D01*
X157674037Y-107328452D01*
X157696620Y-107276743D01*
X157708540Y-107216011D01*
X157711383Y-107140648D01*
X157710978Y-107122541D01*
X157708325Y-107068722D01*
X157702909Y-107028692D01*
X157692745Y-106993676D01*
X157675850Y-106954897D01*
X157670672Y-106944255D01*
X157634844Y-106883604D01*
X157592212Y-106836785D01*
X157576973Y-106824048D01*
X157520462Y-106779378D01*
X157324586Y-106779378D01*
X157245939Y-106779914D01*
X157187988Y-106781604D01*
X157148875Y-106784572D01*
X157126741Y-106788943D01*
X157120274Y-106793028D01*
X157117111Y-106808953D01*
X157114488Y-106842736D01*
X157112655Y-106889660D01*
X157111857Y-106945007D01*
X157111842Y-106953894D01*
X156589110Y-106953894D01*
X156589445Y-106927936D01*
X156596224Y-106766050D01*
X156537245Y-106773470D01*
X156438092Y-106792762D01*
X156357372Y-106823896D01*
X156294466Y-106867731D01*
X156248756Y-106925129D01*
X156219622Y-106996952D01*
X156206447Y-107084059D01*
X156208611Y-107187314D01*
X156212612Y-107225289D01*
X156237780Y-107366480D01*
X156278814Y-107503293D01*
X156316815Y-107597822D01*
X156336190Y-107642982D01*
X156351760Y-107681415D01*
X156361405Y-107707766D01*
X156363452Y-107715454D01*
X156354374Y-107725198D01*
X156325405Y-107741917D01*
X156276217Y-107765768D01*
X156206484Y-107796907D01*
X156115879Y-107835493D01*
X156100089Y-107842090D01*
X156027772Y-107872147D01*
X155962425Y-107899126D01*
X155906906Y-107921864D01*
X155864072Y-107939194D01*
X155836781Y-107949952D01*
X155827942Y-107953059D01*
X155823187Y-107943060D01*
X155817910Y-107916783D01*
X155814231Y-107888511D01*
X155809474Y-107858354D01*
X155800028Y-107810567D01*
X155786820Y-107749388D01*
X155770776Y-107679054D01*
X155752820Y-107603806D01*
X155745797Y-107575245D01*
X155720209Y-107470184D01*
X155700147Y-107382520D01*
X155684969Y-107307932D01*
X155674035Y-107242097D01*
X155666704Y-107180693D01*
X155662335Y-107119398D01*
X155660287Y-107053890D01*
X155659889Y-106995872D01*
X155666552Y-106826426D01*
X155686567Y-106674508D01*
X155720202Y-106539244D01*
X155767725Y-106419761D01*
X155829405Y-106315185D01*
X155892965Y-106237576D01*
X155967099Y-106168735D01*
X156046871Y-106114994D01*
X156139091Y-106072090D01*
X156182161Y-106056616D01*
X156221142Y-106043756D01*
X156257289Y-106032554D01*
X156292434Y-106022880D01*
X156328410Y-106014604D01*
X156367050Y-106007597D01*
X156410185Y-106001728D01*
X156459649Y-105996869D01*
X156517273Y-105992890D01*
X156584891Y-105989660D01*
X156664334Y-105987051D01*
X156757436Y-105984933D01*
X156866027Y-105983176D01*
X156991942Y-105981651D01*
X157137012Y-105980228D01*
X157279778Y-105978975D01*
X157435968Y-105977649D01*
X157571239Y-105976444D01*
X157687246Y-105975234D01*
X157785645Y-105973894D01*
X157868093Y-105972300D01*
X157936246Y-105970325D01*
X157991760Y-105967844D01*
X158036292Y-105964731D01*
X158071498Y-105960862D01*
X158099034Y-105956111D01*
X158120556Y-105950352D01*
X158137722Y-105943461D01*
X158152186Y-105935311D01*
X158165606Y-105925777D01*
X158179638Y-105914734D01*
X158185071Y-105910434D01*
X158207910Y-105894614D01*
X158223463Y-105887578D01*
X158223922Y-105887556D01*
X158226121Y-105898433D01*
X158228147Y-105929418D01*
X158229942Y-105978043D01*
X158231451Y-106041837D01*
X158232616Y-106118331D01*
X158233380Y-106205056D01*
X158233686Y-106299543D01*
X158233689Y-106310450D01*
X158233689Y-106733343D01*
X158137622Y-106736605D01*
X158041556Y-106739867D01*
X158092543Y-106801956D01*
X158160057Y-106899286D01*
X158214749Y-107009187D01*
X158244978Y-107095651D01*
X158259666Y-107164722D01*
X158269659Y-107248075D01*
X158274646Y-107337841D01*
X158274313Y-107426155D01*
X158268351Y-107505149D01*
X158262638Y-107541378D01*
X158224776Y-107681397D01*
X158169932Y-107807822D01*
X158098924Y-107919740D01*
X158012568Y-108016238D01*
X157911679Y-108096400D01*
X157797076Y-108159313D01*
X157670984Y-108203688D01*
X157614401Y-108216022D01*
X157552202Y-108223632D01*
X157477363Y-108227261D01*
X157443467Y-108227755D01*
X157440282Y-108227690D01*
X157349712Y-108225822D01*
X157270812Y-108217478D01*
G36*
X159627712Y-112889576D02*
G01*
X159657259Y-112901202D01*
X159683486Y-112921323D01*
X159723576Y-112962216D01*
X159754149Y-113007817D01*
X159776203Y-113061513D01*
X159790735Y-113126692D01*
X159798741Y-113206744D01*
X159801218Y-113305057D01*
X159801177Y-113321289D01*
X159799818Y-113386849D01*
X159796730Y-113451866D01*
X159792356Y-113509252D01*
X159787140Y-113551922D01*
X159786541Y-113555372D01*
X159776491Y-113597796D01*
X159763796Y-113633780D01*
X159752190Y-113654150D01*
X159721572Y-113673107D01*
X159685918Y-113674427D01*
X159654144Y-113658085D01*
X159650551Y-113654429D01*
X159639876Y-113639315D01*
X159635276Y-113620415D01*
X159636059Y-113591162D01*
X159640127Y-113555651D01*
X159643762Y-113515970D01*
X159646828Y-113460345D01*
X159649053Y-113395406D01*
X159650164Y-113327785D01*
X159650237Y-113310000D01*
X159649964Y-113242128D01*
X159648646Y-113192454D01*
X159645827Y-113156610D01*
X159641050Y-113130224D01*
X159633857Y-113108926D01*
X159627867Y-113096126D01*
X159611233Y-113068000D01*
X159596168Y-113050068D01*
X159591897Y-113047447D01*
X159574263Y-113052976D01*
X159557192Y-113079260D01*
X159541458Y-113124478D01*
X159527838Y-113186808D01*
X159524804Y-113205171D01*
X159509738Y-113301090D01*
X159497146Y-113377641D01*
X159486111Y-113437780D01*
X159475720Y-113484460D01*
X159465056Y-113520637D01*
X159453205Y-113549265D01*
X159439251Y-113573298D01*
X159422281Y-113595692D01*
X159401378Y-113619402D01*
X159394049Y-113627380D01*
X159366699Y-113655353D01*
X159345029Y-113670160D01*
X159320232Y-113675952D01*
X159288983Y-113676889D01*
X159227705Y-113666575D01*
X159175640Y-113635752D01*
X159132958Y-113584595D01*
X159099825Y-113513283D01*
X159084964Y-113462400D01*
X159075366Y-113407100D01*
X159069936Y-113340853D01*
X159068367Y-113267706D01*
X159070351Y-113191703D01*
X159075581Y-113116888D01*
X159083750Y-113047306D01*
X159094550Y-112987002D01*
X159107673Y-112940020D01*
X159122813Y-112910406D01*
X159127269Y-112905860D01*
X159161850Y-112890054D01*
X159197351Y-112894847D01*
X159227725Y-112919364D01*
X159228596Y-112920534D01*
X159237954Y-112934954D01*
X159242876Y-112950008D01*
X159243473Y-112971005D01*
X159239861Y-113003257D01*
X159232154Y-113052073D01*
X159231505Y-113056000D01*
X159222569Y-113128739D01*
X159218161Y-113207217D01*
X159218119Y-113285927D01*
X159222279Y-113359361D01*
X159230479Y-113422011D01*
X159242557Y-113468370D01*
X159243771Y-113471416D01*
X159262615Y-113505048D01*
X159281685Y-113516864D01*
X159300439Y-113507614D01*
X159318337Y-113478047D01*
X159334837Y-113428911D01*
X159349396Y-113360957D01*
X159356406Y-113315645D01*
X159369889Y-113221456D01*
X159382214Y-113146544D01*
X159394449Y-113087717D01*
X159407661Y-113041785D01*
X159422917Y-113005555D01*
X159441285Y-112975838D01*
X159463831Y-112949442D01*
X159485971Y-112928230D01*
X159516819Y-112903065D01*
X159543345Y-112890681D01*
X159576026Y-112886808D01*
X159587995Y-112886667D01*
X159627712Y-112889576D01*
G37*
X159627712Y-112889576D02*
X159657259Y-112901202D01*
X159683486Y-112921323D01*
X159723576Y-112962216D01*
X159754149Y-113007817D01*
X159776203Y-113061513D01*
X159790735Y-113126692D01*
X159798741Y-113206744D01*
X159801218Y-113305057D01*
X159801177Y-113321289D01*
X159799818Y-113386849D01*
X159796730Y-113451866D01*
X159792356Y-113509252D01*
X159787140Y-113551922D01*
X159786541Y-113555372D01*
X159776491Y-113597796D01*
X159763796Y-113633780D01*
X159752190Y-113654150D01*
X159721572Y-113673107D01*
X159685918Y-113674427D01*
X159654144Y-113658085D01*
X159650551Y-113654429D01*
X159639876Y-113639315D01*
X159635276Y-113620415D01*
X159636059Y-113591162D01*
X159640127Y-113555651D01*
X159643762Y-113515970D01*
X159646828Y-113460345D01*
X159649053Y-113395406D01*
X159650164Y-113327785D01*
X159650237Y-113310000D01*
X159649964Y-113242128D01*
X159648646Y-113192454D01*
X159645827Y-113156610D01*
X159641050Y-113130224D01*
X159633857Y-113108926D01*
X159627867Y-113096126D01*
X159611233Y-113068000D01*
X159596168Y-113050068D01*
X159591897Y-113047447D01*
X159574263Y-113052976D01*
X159557192Y-113079260D01*
X159541458Y-113124478D01*
X159527838Y-113186808D01*
X159524804Y-113205171D01*
X159509738Y-113301090D01*
X159497146Y-113377641D01*
X159486111Y-113437780D01*
X159475720Y-113484460D01*
X159465056Y-113520637D01*
X159453205Y-113549265D01*
X159439251Y-113573298D01*
X159422281Y-113595692D01*
X159401378Y-113619402D01*
X159394049Y-113627380D01*
X159366699Y-113655353D01*
X159345029Y-113670160D01*
X159320232Y-113675952D01*
X159288983Y-113676889D01*
X159227705Y-113666575D01*
X159175640Y-113635752D01*
X159132958Y-113584595D01*
X159099825Y-113513283D01*
X159084964Y-113462400D01*
X159075366Y-113407100D01*
X159069936Y-113340853D01*
X159068367Y-113267706D01*
X159070351Y-113191703D01*
X159075581Y-113116888D01*
X159083750Y-113047306D01*
X159094550Y-112987002D01*
X159107673Y-112940020D01*
X159122813Y-112910406D01*
X159127269Y-112905860D01*
X159161850Y-112890054D01*
X159197351Y-112894847D01*
X159227725Y-112919364D01*
X159228596Y-112920534D01*
X159237954Y-112934954D01*
X159242876Y-112950008D01*
X159243473Y-112971005D01*
X159239861Y-113003257D01*
X159232154Y-113052073D01*
X159231505Y-113056000D01*
X159222569Y-113128739D01*
X159218161Y-113207217D01*
X159218119Y-113285927D01*
X159222279Y-113359361D01*
X159230479Y-113422011D01*
X159242557Y-113468370D01*
X159243771Y-113471416D01*
X159262615Y-113505048D01*
X159281685Y-113516864D01*
X159300439Y-113507614D01*
X159318337Y-113478047D01*
X159334837Y-113428911D01*
X159349396Y-113360957D01*
X159356406Y-113315645D01*
X159369889Y-113221456D01*
X159382214Y-113146544D01*
X159394449Y-113087717D01*
X159407661Y-113041785D01*
X159422917Y-113005555D01*
X159441285Y-112975838D01*
X159463831Y-112949442D01*
X159485971Y-112928230D01*
X159516819Y-112903065D01*
X159543345Y-112890681D01*
X159576026Y-112886808D01*
X159587995Y-112886667D01*
X159627712Y-112889576D01*
G36*
X157956718Y-108241854D02*
G01*
X157973999Y-108267433D01*
X157997283Y-108307127D01*
X158024934Y-108357703D01*
X158055315Y-108415926D01*
X158086790Y-108478563D01*
X158117722Y-108542379D01*
X158146473Y-108604140D01*
X158171408Y-108660612D01*
X158190889Y-108708562D01*
X158199318Y-108732014D01*
X158237133Y-108865779D01*
X158262136Y-109003673D01*
X158275140Y-109151378D01*
X158277468Y-109278167D01*
X158276373Y-109346122D01*
X158274275Y-109411723D01*
X158271434Y-109469153D01*
X158268106Y-109512597D01*
X158266422Y-109526702D01*
X158237587Y-109665716D01*
X158192468Y-109807243D01*
X158133750Y-109944725D01*
X158064120Y-110071606D01*
X158011441Y-110149111D01*
X157903239Y-110276519D01*
X157776671Y-110394822D01*
X157634866Y-110501828D01*
X157480951Y-110595348D01*
X157318053Y-110673190D01*
X157200756Y-110717044D01*
X157017128Y-110767292D01*
X156822581Y-110800791D01*
X156621325Y-110817551D01*
X156417568Y-110817584D01*
X156215521Y-110800899D01*
X156019392Y-110767507D01*
X155833391Y-110717420D01*
X155821803Y-110713603D01*
X155659750Y-110650719D01*
X155511832Y-110573972D01*
X155373865Y-110480758D01*
X155241661Y-110368473D01*
X155196399Y-110324608D01*
X155072457Y-110188466D01*
X154969915Y-110048509D01*
X154887656Y-109902589D01*
X154824564Y-109748558D01*
X154779523Y-109584268D01*
X154762033Y-109488711D01*
X154746466Y-109329977D01*
X154749071Y-109171571D01*
X154770245Y-109011430D01*
X154810385Y-108847490D01*
X154869889Y-108677687D01*
X154949154Y-108499957D01*
X154954699Y-108488690D01*
X154982725Y-108430995D01*
X155006802Y-108379448D01*
X155025249Y-108337809D01*
X155036386Y-108309838D01*
X155038933Y-108300267D01*
X155043941Y-108281050D01*
X155048147Y-108276439D01*
X155058580Y-108281542D01*
X155084868Y-108297582D01*
X155124257Y-108322712D01*
X155173991Y-108355086D01*
X155231315Y-108392857D01*
X155293476Y-108434178D01*
X155357718Y-108477202D01*
X155421285Y-108520083D01*
X155481425Y-108560974D01*
X155535380Y-108598029D01*
X155580397Y-108629400D01*
X155613721Y-108653241D01*
X155632597Y-108667706D01*
X155634787Y-108669691D01*
X155630138Y-108679809D01*
X155612962Y-108702150D01*
X155586440Y-108732720D01*
X155571964Y-108748464D01*
X155496682Y-108844953D01*
X155441241Y-108951664D01*
X155406141Y-109067168D01*
X155391880Y-109190038D01*
X155393051Y-109259439D01*
X155410212Y-109380577D01*
X155446094Y-109489795D01*
X155500959Y-109587418D01*
X155575070Y-109673772D01*
X155668688Y-109749185D01*
X155782076Y-109813982D01*
X155868667Y-109851399D01*
X156004366Y-109895252D01*
X156151850Y-109927572D01*
X156307314Y-109948443D01*
X156466956Y-109957949D01*
X156626973Y-109956173D01*
X156783561Y-109943197D01*
X156932918Y-109919106D01*
X157071240Y-109883982D01*
X157194724Y-109837908D01*
X157228978Y-109821627D01*
X157343064Y-109753380D01*
X157439557Y-109672921D01*
X157517670Y-109581430D01*
X157576617Y-109480089D01*
X157615612Y-109370080D01*
X157633868Y-109252585D01*
X157635211Y-109211117D01*
X157624290Y-109089559D01*
X157591474Y-108969122D01*
X157537439Y-108851334D01*
X157462865Y-108737723D01*
X157384539Y-108646315D01*
X157340008Y-108599785D01*
X157637271Y-108418517D01*
X157711433Y-108373420D01*
X157779646Y-108332181D01*
X157839459Y-108296265D01*
X157888420Y-108267134D01*
X157924079Y-108246250D01*
X157943984Y-108235076D01*
X157947079Y-108233625D01*
X157956718Y-108241854D01*
G37*
X157956718Y-108241854D02*
X157973999Y-108267433D01*
X157997283Y-108307127D01*
X158024934Y-108357703D01*
X158055315Y-108415926D01*
X158086790Y-108478563D01*
X158117722Y-108542379D01*
X158146473Y-108604140D01*
X158171408Y-108660612D01*
X158190889Y-108708562D01*
X158199318Y-108732014D01*
X158237133Y-108865779D01*
X158262136Y-109003673D01*
X158275140Y-109151378D01*
X158277468Y-109278167D01*
X158276373Y-109346122D01*
X158274275Y-109411723D01*
X158271434Y-109469153D01*
X158268106Y-109512597D01*
X158266422Y-109526702D01*
X158237587Y-109665716D01*
X158192468Y-109807243D01*
X158133750Y-109944725D01*
X158064120Y-110071606D01*
X158011441Y-110149111D01*
X157903239Y-110276519D01*
X157776671Y-110394822D01*
X157634866Y-110501828D01*
X157480951Y-110595348D01*
X157318053Y-110673190D01*
X157200756Y-110717044D01*
X157017128Y-110767292D01*
X156822581Y-110800791D01*
X156621325Y-110817551D01*
X156417568Y-110817584D01*
X156215521Y-110800899D01*
X156019392Y-110767507D01*
X155833391Y-110717420D01*
X155821803Y-110713603D01*
X155659750Y-110650719D01*
X155511832Y-110573972D01*
X155373865Y-110480758D01*
X155241661Y-110368473D01*
X155196399Y-110324608D01*
X155072457Y-110188466D01*
X154969915Y-110048509D01*
X154887656Y-109902589D01*
X154824564Y-109748558D01*
X154779523Y-109584268D01*
X154762033Y-109488711D01*
X154746466Y-109329977D01*
X154749071Y-109171571D01*
X154770245Y-109011430D01*
X154810385Y-108847490D01*
X154869889Y-108677687D01*
X154949154Y-108499957D01*
X154954699Y-108488690D01*
X154982725Y-108430995D01*
X155006802Y-108379448D01*
X155025249Y-108337809D01*
X155036386Y-108309838D01*
X155038933Y-108300267D01*
X155043941Y-108281050D01*
X155048147Y-108276439D01*
X155058580Y-108281542D01*
X155084868Y-108297582D01*
X155124257Y-108322712D01*
X155173991Y-108355086D01*
X155231315Y-108392857D01*
X155293476Y-108434178D01*
X155357718Y-108477202D01*
X155421285Y-108520083D01*
X155481425Y-108560974D01*
X155535380Y-108598029D01*
X155580397Y-108629400D01*
X155613721Y-108653241D01*
X155632597Y-108667706D01*
X155634787Y-108669691D01*
X155630138Y-108679809D01*
X155612962Y-108702150D01*
X155586440Y-108732720D01*
X155571964Y-108748464D01*
X155496682Y-108844953D01*
X155441241Y-108951664D01*
X155406141Y-109067168D01*
X155391880Y-109190038D01*
X155393051Y-109259439D01*
X155410212Y-109380577D01*
X155446094Y-109489795D01*
X155500959Y-109587418D01*
X155575070Y-109673772D01*
X155668688Y-109749185D01*
X155782076Y-109813982D01*
X155868667Y-109851399D01*
X156004366Y-109895252D01*
X156151850Y-109927572D01*
X156307314Y-109948443D01*
X156466956Y-109957949D01*
X156626973Y-109956173D01*
X156783561Y-109943197D01*
X156932918Y-109919106D01*
X157071240Y-109883982D01*
X157194724Y-109837908D01*
X157228978Y-109821627D01*
X157343064Y-109753380D01*
X157439557Y-109672921D01*
X157517670Y-109581430D01*
X157576617Y-109480089D01*
X157615612Y-109370080D01*
X157633868Y-109252585D01*
X157635211Y-109211117D01*
X157624290Y-109089559D01*
X157591474Y-108969122D01*
X157537439Y-108851334D01*
X157462865Y-108737723D01*
X157384539Y-108646315D01*
X157340008Y-108599785D01*
X157637271Y-108418517D01*
X157711433Y-108373420D01*
X157779646Y-108332181D01*
X157839459Y-108296265D01*
X157888420Y-108267134D01*
X157924079Y-108246250D01*
X157943984Y-108235076D01*
X157947079Y-108233625D01*
X157956718Y-108241854D01*
G36*
X159758667Y-113966963D02*
G01*
X159780267Y-113981689D01*
X159787066Y-113989546D01*
X159792346Y-113999688D01*
X159796298Y-114014844D01*
X159799113Y-114037741D01*
X159800982Y-114071109D01*
X159802098Y-114117675D01*
X159802651Y-114180167D01*
X159802833Y-114261314D01*
X159802845Y-114303422D01*
X159802765Y-114393598D01*
X159802398Y-114463924D01*
X159801552Y-114517129D01*
X159800036Y-114555940D01*
X159797659Y-114583087D01*
X159794229Y-114601298D01*
X159789554Y-114613300D01*
X159783444Y-114621822D01*
X159780267Y-114625156D01*
X159772670Y-114631755D01*
X159762870Y-114636927D01*
X159748239Y-114640846D01*
X159726152Y-114643684D01*
X159693982Y-114645615D01*
X159649103Y-114646812D01*
X159588889Y-114647448D01*
X159510713Y-114647697D01*
X159437923Y-114647734D01*
X159344707Y-114647700D01*
X159271431Y-114647465D01*
X159215458Y-114646830D01*
X159174151Y-114645594D01*
X159144872Y-114643556D01*
X159124984Y-114640517D01*
X159111850Y-114636277D01*
X159102832Y-114630635D01*
X159095293Y-114623391D01*
X159093612Y-114621606D01*
X159086172Y-114612945D01*
X159080409Y-114602882D01*
X159076112Y-114588625D01*
X159073064Y-114567383D01*
X159071051Y-114536364D01*
X159069860Y-114492777D01*
X159069275Y-114433831D01*
X159069083Y-114356734D01*
X159069067Y-114302001D01*
X159069146Y-114212794D01*
X159069518Y-114143386D01*
X159070385Y-114090997D01*
X159071946Y-114052847D01*
X159074403Y-114026159D01*
X159077957Y-114008153D01*
X159082810Y-113996049D01*
X159089161Y-113987069D01*
X159092084Y-113983818D01*
X159123142Y-113964043D01*
X159158828Y-113960482D01*
X159190510Y-113973491D01*
X159196913Y-113979506D01*
X159203121Y-113989235D01*
X159207910Y-114004901D01*
X159211514Y-114029408D01*
X159214164Y-114065661D01*
X159216095Y-114116565D01*
X159217539Y-114185026D01*
X159218418Y-114247617D01*
X159221467Y-114495334D01*
X159286378Y-114498719D01*
X159351289Y-114502105D01*
X159351289Y-114333958D01*
X159351919Y-114260959D01*
X159354553Y-114207517D01*
X159360309Y-114170628D01*
X159370304Y-114147288D01*
X159385656Y-114134494D01*
X159407482Y-114129242D01*
X159427738Y-114128445D01*
X159452592Y-114130923D01*
X159470906Y-114140277D01*
X159483637Y-114159383D01*
X159491741Y-114191118D01*
X159496176Y-114238359D01*
X159497899Y-114303983D01*
X159498045Y-114339801D01*
X159498045Y-114500978D01*
X159656089Y-114500978D01*
X159656089Y-114252622D01*
X159656202Y-114171213D01*
X159656712Y-114109342D01*
X159657870Y-114063968D01*
X159659930Y-114032054D01*
X159663146Y-114010559D01*
X159667772Y-113996443D01*
X159674059Y-113986668D01*
X159678667Y-113981689D01*
X159705560Y-113964610D01*
X159729467Y-113959111D01*
X159758667Y-113966963D01*
G37*
X159758667Y-113966963D02*
X159780267Y-113981689D01*
X159787066Y-113989546D01*
X159792346Y-113999688D01*
X159796298Y-114014844D01*
X159799113Y-114037741D01*
X159800982Y-114071109D01*
X159802098Y-114117675D01*
X159802651Y-114180167D01*
X159802833Y-114261314D01*
X159802845Y-114303422D01*
X159802765Y-114393598D01*
X159802398Y-114463924D01*
X159801552Y-114517129D01*
X159800036Y-114555940D01*
X159797659Y-114583087D01*
X159794229Y-114601298D01*
X159789554Y-114613300D01*
X159783444Y-114621822D01*
X159780267Y-114625156D01*
X159772670Y-114631755D01*
X159762870Y-114636927D01*
X159748239Y-114640846D01*
X159726152Y-114643684D01*
X159693982Y-114645615D01*
X159649103Y-114646812D01*
X159588889Y-114647448D01*
X159510713Y-114647697D01*
X159437923Y-114647734D01*
X159344707Y-114647700D01*
X159271431Y-114647465D01*
X159215458Y-114646830D01*
X159174151Y-114645594D01*
X159144872Y-114643556D01*
X159124984Y-114640517D01*
X159111850Y-114636277D01*
X159102832Y-114630635D01*
X159095293Y-114623391D01*
X159093612Y-114621606D01*
X159086172Y-114612945D01*
X159080409Y-114602882D01*
X159076112Y-114588625D01*
X159073064Y-114567383D01*
X159071051Y-114536364D01*
X159069860Y-114492777D01*
X159069275Y-114433831D01*
X159069083Y-114356734D01*
X159069067Y-114302001D01*
X159069146Y-114212794D01*
X159069518Y-114143386D01*
X159070385Y-114090997D01*
X159071946Y-114052847D01*
X159074403Y-114026159D01*
X159077957Y-114008153D01*
X159082810Y-113996049D01*
X159089161Y-113987069D01*
X159092084Y-113983818D01*
X159123142Y-113964043D01*
X159158828Y-113960482D01*
X159190510Y-113973491D01*
X159196913Y-113979506D01*
X159203121Y-113989235D01*
X159207910Y-114004901D01*
X159211514Y-114029408D01*
X159214164Y-114065661D01*
X159216095Y-114116565D01*
X159217539Y-114185026D01*
X159218418Y-114247617D01*
X159221467Y-114495334D01*
X159286378Y-114498719D01*
X159351289Y-114502105D01*
X159351289Y-114333958D01*
X159351919Y-114260959D01*
X159354553Y-114207517D01*
X159360309Y-114170628D01*
X159370304Y-114147288D01*
X159385656Y-114134494D01*
X159407482Y-114129242D01*
X159427738Y-114128445D01*
X159452592Y-114130923D01*
X159470906Y-114140277D01*
X159483637Y-114159383D01*
X159491741Y-114191118D01*
X159496176Y-114238359D01*
X159497899Y-114303983D01*
X159498045Y-114339801D01*
X159498045Y-114500978D01*
X159656089Y-114500978D01*
X159656089Y-114252622D01*
X159656202Y-114171213D01*
X159656712Y-114109342D01*
X159657870Y-114063968D01*
X159659930Y-114032054D01*
X159663146Y-114010559D01*
X159667772Y-113996443D01*
X159674059Y-113986668D01*
X159678667Y-113981689D01*
X159705560Y-113964610D01*
X159729467Y-113959111D01*
X159758667Y-113966963D01*
G36*
X159185826Y-104251289D02*
G01*
X159198089Y-104261652D01*
X159206450Y-104272804D01*
X159211657Y-104288965D01*
X159214457Y-104314358D01*
X159215596Y-104353202D01*
X159215821Y-104409720D01*
X159215822Y-104420820D01*
X159215822Y-104566756D01*
X159486756Y-104566756D01*
X159572154Y-104566852D01*
X159637864Y-104567289D01*
X159686774Y-104568288D01*
X159721773Y-104570072D01*
X159745749Y-104572863D01*
X159761593Y-104576883D01*
X159772191Y-104582355D01*
X159780267Y-104589334D01*
X159800112Y-104622266D01*
X159798548Y-104656646D01*
X159775906Y-104687824D01*
X159773100Y-104690114D01*
X159762492Y-104697571D01*
X159750081Y-104703253D01*
X159732850Y-104707399D01*
X159707784Y-104710250D01*
X159671867Y-104712046D01*
X159622083Y-104713028D01*
X159555417Y-104713436D01*
X159479589Y-104713511D01*
X159215822Y-104713511D01*
X159215822Y-104852873D01*
X159215418Y-104912678D01*
X159213840Y-104954082D01*
X159210547Y-104981252D01*
X159204992Y-104998354D01*
X159196631Y-105009557D01*
X159195178Y-105010917D01*
X159161939Y-105027275D01*
X159124362Y-105025828D01*
X159091645Y-105007022D01*
X159085298Y-104999750D01*
X159080266Y-104990373D01*
X159076396Y-104976391D01*
X159073537Y-104955304D01*
X159071535Y-104924611D01*
X159070239Y-104881811D01*
X159069498Y-104824405D01*
X159069158Y-104749890D01*
X159069068Y-104655767D01*
X159069067Y-104635740D01*
X159069163Y-104536935D01*
X159069542Y-104458228D01*
X159070333Y-104397137D01*
X159071670Y-104351183D01*
X159073683Y-104317886D01*
X159076506Y-104294764D01*
X159080269Y-104279338D01*
X159085105Y-104269129D01*
X159088822Y-104264187D01*
X159121358Y-104238543D01*
X159155138Y-104235441D01*
X159185826Y-104251289D01*
G37*
X159185826Y-104251289D02*
X159198089Y-104261652D01*
X159206450Y-104272804D01*
X159211657Y-104288965D01*
X159214457Y-104314358D01*
X159215596Y-104353202D01*
X159215821Y-104409720D01*
X159215822Y-104420820D01*
X159215822Y-104566756D01*
X159486756Y-104566756D01*
X159572154Y-104566852D01*
X159637864Y-104567289D01*
X159686774Y-104568288D01*
X159721773Y-104570072D01*
X159745749Y-104572863D01*
X159761593Y-104576883D01*
X159772191Y-104582355D01*
X159780267Y-104589334D01*
X159800112Y-104622266D01*
X159798548Y-104656646D01*
X159775906Y-104687824D01*
X159773100Y-104690114D01*
X159762492Y-104697571D01*
X159750081Y-104703253D01*
X159732850Y-104707399D01*
X159707784Y-104710250D01*
X159671867Y-104712046D01*
X159622083Y-104713028D01*
X159555417Y-104713436D01*
X159479589Y-104713511D01*
X159215822Y-104713511D01*
X159215822Y-104852873D01*
X159215418Y-104912678D01*
X159213840Y-104954082D01*
X159210547Y-104981252D01*
X159204992Y-104998354D01*
X159196631Y-105009557D01*
X159195178Y-105010917D01*
X159161939Y-105027275D01*
X159124362Y-105025828D01*
X159091645Y-105007022D01*
X159085298Y-104999750D01*
X159080266Y-104990373D01*
X159076396Y-104976391D01*
X159073537Y-104955304D01*
X159071535Y-104924611D01*
X159070239Y-104881811D01*
X159069498Y-104824405D01*
X159069158Y-104749890D01*
X159069068Y-104655767D01*
X159069067Y-104635740D01*
X159069163Y-104536935D01*
X159069542Y-104458228D01*
X159070333Y-104397137D01*
X159071670Y-104351183D01*
X159073683Y-104317886D01*
X159076506Y-104294764D01*
X159080269Y-104279338D01*
X159085105Y-104269129D01*
X159088822Y-104264187D01*
X159121358Y-104238543D01*
X159155138Y-104235441D01*
X159185826Y-104251289D01*
G36*
X156634059Y-105656198D02*
G01*
X156455332Y-105620214D01*
X156293845Y-105570241D01*
X156149726Y-105506332D01*
X156023106Y-105428538D01*
X155914115Y-105336911D01*
X155822883Y-105231503D01*
X155791932Y-105186338D01*
X155735785Y-105085389D01*
X155696174Y-104982099D01*
X155672014Y-104872011D01*
X155662219Y-104750670D01*
X155663265Y-104658164D01*
X155674231Y-104528510D01*
X155693231Y-104430443D01*
X156247465Y-104430443D01*
X156250722Y-104511784D01*
X156269615Y-104584620D01*
X156285184Y-104616574D01*
X156328181Y-104674499D01*
X156384953Y-104723456D01*
X156457575Y-104764610D01*
X156548121Y-104799126D01*
X156658666Y-104828167D01*
X156664533Y-104829448D01*
X156726788Y-104839619D01*
X156804594Y-104847261D01*
X156892720Y-104852330D01*
X156985934Y-104854783D01*
X157079002Y-104854576D01*
X157166692Y-104851663D01*
X157243772Y-104846000D01*
X157305009Y-104837545D01*
X157317350Y-104834962D01*
X157424633Y-104803160D01*
X157511658Y-104761502D01*
X157578642Y-104709637D01*
X157625805Y-104647219D01*
X157653365Y-104573900D01*
X157661541Y-104489331D01*
X157650551Y-104393165D01*
X157634829Y-104329689D01*
X157616639Y-104280546D01*
X157590791Y-104226417D01*
X157567089Y-104185756D01*
X157520721Y-104115200D01*
X156370530Y-104115200D01*
X156326962Y-104182608D01*
X156286040Y-104261133D01*
X156259389Y-104345319D01*
X156247465Y-104430443D01*
X155693231Y-104430443D01*
X155696046Y-104415916D01*
X155729714Y-104317125D01*
X155776236Y-104228879D01*
X155810448Y-104180014D01*
X155832362Y-104150647D01*
X155847333Y-104128957D01*
X155851733Y-104120747D01*
X155840904Y-104119132D01*
X155810251Y-104117841D01*
X155762526Y-104116862D01*
X155700479Y-104116183D01*
X155626862Y-104115790D01*
X155544427Y-104115670D01*
X155455925Y-104115812D01*
X155364107Y-104116203D01*
X155271724Y-104116829D01*
X155181528Y-104117680D01*
X155096271Y-104118740D01*
X155018703Y-104119999D01*
X154951576Y-104121444D01*
X154897641Y-104123062D01*
X154859650Y-104124839D01*
X154852667Y-104125331D01*
X154782251Y-104132908D01*
X154727102Y-104144469D01*
X154679981Y-104162208D01*
X154633647Y-104188318D01*
X154624067Y-104194585D01*
X154587378Y-104219017D01*
X154587378Y-103313689D01*
X156272245Y-103313493D01*
X156506662Y-103313474D01*
X156719603Y-103313448D01*
X156912168Y-103313375D01*
X157085459Y-103313218D01*
X157240576Y-103312936D01*
X157378620Y-103312491D01*
X157500692Y-103311844D01*
X157607894Y-103310955D01*
X157701326Y-103309787D01*
X157782090Y-103308299D01*
X157851286Y-103306454D01*
X157910015Y-103304211D01*
X157959379Y-103301531D01*
X158000478Y-103298377D01*
X158034413Y-103294708D01*
X158062286Y-103290487D01*
X158085198Y-103285673D01*
X158104249Y-103280227D01*
X158120540Y-103274112D01*
X158135173Y-103267288D01*
X158149249Y-103259715D01*
X158163868Y-103251355D01*
X158172974Y-103246161D01*
X158233689Y-103211896D01*
X158233689Y-104070045D01*
X158137733Y-104070045D01*
X158094370Y-104070776D01*
X158061205Y-104072728D01*
X158043424Y-104075537D01*
X158041778Y-104076779D01*
X158048662Y-104088201D01*
X158066505Y-104110916D01*
X158085879Y-104133615D01*
X158126614Y-104188200D01*
X158167617Y-104257679D01*
X158205123Y-104334730D01*
X158235364Y-104412035D01*
X158245012Y-104442887D01*
X158259578Y-104511384D01*
X158269539Y-104594236D01*
X158274583Y-104683629D01*
X158274396Y-104771752D01*
X158268666Y-104850793D01*
X158262858Y-104888489D01*
X158224797Y-105026586D01*
X158167073Y-105153887D01*
X158090211Y-105269708D01*
X157994739Y-105373363D01*
X157881179Y-105464167D01*
X157770381Y-105530969D01*
X157653625Y-105585836D01*
X157534276Y-105627837D01*
X157408283Y-105657833D01*
X157271594Y-105676689D01*
X157120158Y-105685268D01*
X157042711Y-105685994D01*
X156985934Y-105683900D01*
X156829895Y-105678143D01*
X156634059Y-105656198D01*
G37*
X156634059Y-105656198D02*
X156455332Y-105620214D01*
X156293845Y-105570241D01*
X156149726Y-105506332D01*
X156023106Y-105428538D01*
X155914115Y-105336911D01*
X155822883Y-105231503D01*
X155791932Y-105186338D01*
X155735785Y-105085389D01*
X155696174Y-104982099D01*
X155672014Y-104872011D01*
X155662219Y-104750670D01*
X155663265Y-104658164D01*
X155674231Y-104528510D01*
X155693231Y-104430443D01*
X156247465Y-104430443D01*
X156250722Y-104511784D01*
X156269615Y-104584620D01*
X156285184Y-104616574D01*
X156328181Y-104674499D01*
X156384953Y-104723456D01*
X156457575Y-104764610D01*
X156548121Y-104799126D01*
X156658666Y-104828167D01*
X156664533Y-104829448D01*
X156726788Y-104839619D01*
X156804594Y-104847261D01*
X156892720Y-104852330D01*
X156985934Y-104854783D01*
X157079002Y-104854576D01*
X157166692Y-104851663D01*
X157243772Y-104846000D01*
X157305009Y-104837545D01*
X157317350Y-104834962D01*
X157424633Y-104803160D01*
X157511658Y-104761502D01*
X157578642Y-104709637D01*
X157625805Y-104647219D01*
X157653365Y-104573900D01*
X157661541Y-104489331D01*
X157650551Y-104393165D01*
X157634829Y-104329689D01*
X157616639Y-104280546D01*
X157590791Y-104226417D01*
X157567089Y-104185756D01*
X157520721Y-104115200D01*
X156370530Y-104115200D01*
X156326962Y-104182608D01*
X156286040Y-104261133D01*
X156259389Y-104345319D01*
X156247465Y-104430443D01*
X155693231Y-104430443D01*
X155696046Y-104415916D01*
X155729714Y-104317125D01*
X155776236Y-104228879D01*
X155810448Y-104180014D01*
X155832362Y-104150647D01*
X155847333Y-104128957D01*
X155851733Y-104120747D01*
X155840904Y-104119132D01*
X155810251Y-104117841D01*
X155762526Y-104116862D01*
X155700479Y-104116183D01*
X155626862Y-104115790D01*
X155544427Y-104115670D01*
X155455925Y-104115812D01*
X155364107Y-104116203D01*
X155271724Y-104116829D01*
X155181528Y-104117680D01*
X155096271Y-104118740D01*
X155018703Y-104119999D01*
X154951576Y-104121444D01*
X154897641Y-104123062D01*
X154859650Y-104124839D01*
X154852667Y-104125331D01*
X154782251Y-104132908D01*
X154727102Y-104144469D01*
X154679981Y-104162208D01*
X154633647Y-104188318D01*
X154624067Y-104194585D01*
X154587378Y-104219017D01*
X154587378Y-103313689D01*
X156272245Y-103313493D01*
X156506662Y-103313474D01*
X156719603Y-103313448D01*
X156912168Y-103313375D01*
X157085459Y-103313218D01*
X157240576Y-103312936D01*
X157378620Y-103312491D01*
X157500692Y-103311844D01*
X157607894Y-103310955D01*
X157701326Y-103309787D01*
X157782090Y-103308299D01*
X157851286Y-103306454D01*
X157910015Y-103304211D01*
X157959379Y-103301531D01*
X158000478Y-103298377D01*
X158034413Y-103294708D01*
X158062286Y-103290487D01*
X158085198Y-103285673D01*
X158104249Y-103280227D01*
X158120540Y-103274112D01*
X158135173Y-103267288D01*
X158149249Y-103259715D01*
X158163868Y-103251355D01*
X158172974Y-103246161D01*
X158233689Y-103211896D01*
X158233689Y-104070045D01*
X158137733Y-104070045D01*
X158094370Y-104070776D01*
X158061205Y-104072728D01*
X158043424Y-104075537D01*
X158041778Y-104076779D01*
X158048662Y-104088201D01*
X158066505Y-104110916D01*
X158085879Y-104133615D01*
X158126614Y-104188200D01*
X158167617Y-104257679D01*
X158205123Y-104334730D01*
X158235364Y-104412035D01*
X158245012Y-104442887D01*
X158259578Y-104511384D01*
X158269539Y-104594236D01*
X158274583Y-104683629D01*
X158274396Y-104771752D01*
X158268666Y-104850793D01*
X158262858Y-104888489D01*
X158224797Y-105026586D01*
X158167073Y-105153887D01*
X158090211Y-105269708D01*
X157994739Y-105373363D01*
X157881179Y-105464167D01*
X157770381Y-105530969D01*
X157653625Y-105585836D01*
X157534276Y-105627837D01*
X157408283Y-105657833D01*
X157271594Y-105676689D01*
X157120158Y-105685268D01*
X157042711Y-105685994D01*
X156985934Y-105683900D01*
X156829895Y-105678143D01*
X156634059Y-105656198D01*
D14*
X145435000Y-109250000D02*
X145435000Y-109406000D01*
X145435000Y-106934000D02*
X145435000Y-107090000D01*
X148036130Y-107090163D02*
G75*
G03*
X145954039Y-107090000I-1041130J-1079837D01*
G01*
X145954039Y-109250000D02*
G75*
G03*
X148036130Y-109249837I1040961J1080000D01*
G01*
X148667335Y-107091392D02*
G75*
G03*
X145435000Y-106934484I-1672335J-1078608D01*
G01*
X145435000Y-109405516D02*
G75*
G03*
X148667335Y-109248608I1560000J1235516D01*
G01*
X139252000Y-97481000D02*
X136592000Y-97481000D01*
X139252000Y-102681000D02*
X137922000Y-102681000D01*
X139252000Y-101351000D02*
X139252000Y-102681000D01*
X139252000Y-100081000D02*
X139252000Y-97481000D01*
X139252000Y-100081000D02*
X136592000Y-100081000D01*
X136592000Y-100081000D02*
X136592000Y-97481000D01*
X116138000Y-96393000D02*
X116138000Y-106613000D01*
X113478000Y-96393000D02*
X113478000Y-106613000D01*
X113478000Y-106613000D02*
X116138000Y-106613000D01*
X113478000Y-93793000D02*
X114808000Y-93793000D01*
X113478000Y-95123000D02*
X113478000Y-93793000D01*
X113478000Y-96393000D02*
X116138000Y-96393000D01*
D15*
X141313000Y-125842000D02*
X141313000Y-126350000D01*
X149187000Y-126350000D02*
X141313000Y-126350000D01*
X141313000Y-126096000D02*
X149187000Y-126096000D01*
X152412800Y-126477000D02*
X152412800Y-122997200D01*
X138138000Y-126477000D02*
X152362000Y-126477000D01*
X152362000Y-118984000D02*
X152362000Y-113523000D01*
X138138000Y-123009900D02*
X138138000Y-126438900D01*
X141313000Y-125842000D02*
X149187000Y-125842000D01*
X149187000Y-125842000D02*
X149187000Y-126350000D01*
X138138000Y-113523000D02*
X138138000Y-118984000D01*
X152362000Y-113523000D02*
X138138000Y-113523000D01*
X134362000Y-123048000D02*
X134362000Y-126400800D01*
X134362000Y-113561100D02*
X134362000Y-119022100D01*
X120138000Y-123098800D02*
X120138000Y-126451600D01*
X123313000Y-125842000D02*
X123313000Y-126350000D01*
X131187000Y-126350000D02*
X123313000Y-126350000D01*
X123313000Y-125842000D02*
X131187000Y-125842000D01*
X123313000Y-126096000D02*
X131187000Y-126096000D01*
X120138000Y-126477000D02*
X134362000Y-126477000D01*
X120138000Y-113523000D02*
X120138000Y-118984000D01*
X134362000Y-113523000D02*
X120138000Y-113523000D01*
X131187000Y-125842000D02*
X131187000Y-126350000D01*
X136567200Y-76107200D02*
X136567200Y-75396000D01*
X136618000Y-83574800D02*
X136618000Y-80526800D01*
X153382000Y-92922000D02*
X153382000Y-86521200D01*
X153331200Y-83625600D02*
X153331200Y-80577600D01*
X136600000Y-75400000D02*
X138886000Y-75400000D01*
X136668800Y-92922000D02*
X136668800Y-86521200D01*
X151096000Y-75400000D02*
X138904000Y-75400000D01*
X153382000Y-76158000D02*
X153382000Y-75446800D01*
X153364000Y-75400000D02*
X151078000Y-75400000D01*
X153382000Y-92922000D02*
X136727000Y-92922000D01*
D17*
X153610000Y-99215000D02*
X153610000Y-100515000D01*
X146110000Y-99215000D02*
X153610000Y-99215000D01*
X146110000Y-102715000D02*
X146110000Y-99215000D01*
X146110000Y-101815000D02*
X153610000Y-101815000D01*
X153610000Y-100515000D02*
X153610000Y-102715000D01*
X153610000Y-102715000D02*
X146110000Y-102715000D01*
D14*
X116138000Y-90302000D02*
X116138000Y-91632000D01*
X116138000Y-89032000D02*
X113478000Y-89032000D01*
X116138000Y-91632000D02*
X114808000Y-91632000D01*
X116138000Y-89032000D02*
X116138000Y-86432000D01*
X113478000Y-89032000D02*
X113478000Y-86432000D01*
X116138000Y-86432000D02*
X113478000Y-86432000D01*
D18*
X146550000Y-118000000D03*
X143950000Y-118000000D03*
X148650000Y-118000000D03*
X141850000Y-118000000D03*
X148650000Y-115500000D03*
X144350000Y-115500000D03*
X141850000Y-115500000D03*
D19*
X138500000Y-121000000D03*
X145250000Y-121800000D03*
X152000000Y-121000000D03*
D18*
X129550000Y-118000000D03*
X127550000Y-118000000D03*
X125550000Y-118000000D03*
X131200000Y-118000000D03*
X129250000Y-115500000D03*
X127250000Y-115500000D03*
X123300000Y-118000000D03*
X131200000Y-115500000D03*
X125250000Y-115500000D03*
X123300000Y-115500000D03*
D19*
X120000000Y-121000000D03*
X127250000Y-121800000D03*
X134500000Y-121000000D03*
%LPC*%
D20*
X142875000Y-97790000D03*
D21*
X142875000Y-105410000D03*
D20*
X131445000Y-88342000D03*
X130175000Y-90882000D03*
X128905000Y-88342000D03*
X127635000Y-90882000D03*
X126365000Y-88342000D03*
X125095000Y-90882000D03*
X123825000Y-88342000D03*
X122555000Y-90882000D03*
D22*
X134750000Y-85052000D03*
D23*
X134750000Y-78335200D03*
D22*
X119250000Y-85052000D03*
D23*
X119250000Y-78335200D03*
D24*
X114808000Y-111247000D03*
D25*
X114808000Y-113787000D03*
D26*
X114500000Y-78500000D03*
D20*
X135255000Y-108204000D03*
D21*
X142875000Y-108204000D03*
D26*
X114500000Y-121500000D03*
D27*
X124587000Y-102489000D03*
D28*
X126587000Y-102489000D03*
X128587000Y-102489000D03*
X130587000Y-102489000D03*
D26*
X157500000Y-78500000D03*
D29*
X145725000Y-108170000D03*
D30*
X148265000Y-108170000D03*
D26*
X157500000Y-121500000D03*
D24*
X137922000Y-101351000D03*
D25*
X137922000Y-98811000D03*
D24*
X114808000Y-95123000D03*
D25*
X114808000Y-97663000D03*
X114808000Y-100203000D03*
X114808000Y-102743000D03*
X114808000Y-105283000D03*
D18*
X146550000Y-118000000D03*
X143950000Y-118000000D03*
X148650000Y-118000000D03*
X141850000Y-118000000D03*
X148650000Y-115500000D03*
X144350000Y-115500000D03*
X141850000Y-115500000D03*
D19*
X138500000Y-121000000D03*
X145250000Y-121800000D03*
X152000000Y-121000000D03*
D18*
X129550000Y-118000000D03*
X127550000Y-118000000D03*
X125550000Y-118000000D03*
X131200000Y-118000000D03*
X129250000Y-115500000D03*
X127250000Y-115500000D03*
X123300000Y-118000000D03*
X131200000Y-115500000D03*
X125250000Y-115500000D03*
X123300000Y-115500000D03*
D19*
X120000000Y-121000000D03*
X127250000Y-121800000D03*
X134500000Y-121000000D03*
D20*
X149427000Y-88342000D03*
X148157000Y-90882000D03*
X146887000Y-88342000D03*
X145617000Y-90882000D03*
X144347000Y-88342000D03*
X143077000Y-90882000D03*
X141807000Y-88342000D03*
X140537000Y-90882000D03*
D23*
X152732000Y-78335200D03*
X137232000Y-78335200D03*
D22*
X137232000Y-85052000D03*
X152732000Y-85052000D03*
D31*
X147610000Y-100515000D03*
X149110000Y-100515000D03*
X150610000Y-100515000D03*
X152110000Y-100515000D03*
D24*
X114808000Y-90302000D03*
D25*
X114808000Y-87762000D03*
M02*
