M48
; DRILL file {KiCad 6.0.9-8da3e8f707~117~ubuntu22.04.1} date Do 08 Dez 2022 22:52:50 CET
; FORMAT={-:-/ absolute / metric / decimal}
; #@! TF.CreationDate,2022-12-08T22:52:50+01:00
; #@! TF.GenerationSoftware,Kicad,Pcbnew,6.0.9-8da3e8f707~117~ubuntu22.04.1
; #@! TF.FileFunction,Plated,1,2,PTH
FMAT,2
METRIC
; #@! TA.AperFunction,Plated,PTH,ComponentDrill
T1C0.300
; #@! TA.AperFunction,Plated,PTH,ViaDrill
T2C0.400
; #@! TA.AperFunction,Plated,PTH,ComponentDrill
T3C0.701
; #@! TA.AperFunction,Plated,PTH,ComponentDrill
T4C0.800
; #@! TA.AperFunction,Plated,PTH,ComponentDrill
T5C0.864
; #@! TA.AperFunction,Plated,PTH,ComponentDrill
T6C0.900
; #@! TA.AperFunction,Plated,PTH,ComponentDrill
T7C1.000
; #@! TA.AperFunction,Plated,PTH,ComponentDrill
T8C1.001
; #@! TA.AperFunction,Plated,PTH,ComponentDrill
T9C1.016
; #@! TA.AperFunction,Plated,PTH,ComponentDrill
T10C1.500
; #@! TA.AperFunction,Plated,PTH,ComponentDrill
T11C1.600
; #@! TA.AperFunction,Plated,PTH,ComponentDrill
T12C3.048
%
G90
G05
T1
X109.122Y-95.768
X109.122Y-96.968
X110.322Y-95.768
X110.322Y-96.968
X111.622Y-95.768
X111.622Y-96.968
X112.722Y-95.768
X112.722Y-96.968
T2
X101.9Y-115.875
X103.6Y-129.65
X104.85Y-119.05
X105.05Y-96.2
X105.925Y-116.725
X107.5Y-96.2
X108.5Y-103.85
X108.5Y-105.45
X108.55Y-108.4
X108.6Y-110.4
X109.3Y-120.8
X110.35Y-127.95
X111.25Y-126.725
X111.55Y-92.675
X114.65Y-96.2
X114.65Y-97.65
X114.65Y-99.05
X115.1Y-89.45
X115.15Y-122.9
X115.6Y-110.3
X115.8Y-91.25
X116.35Y-116.95
X118.858Y-122.883
X120.269Y-132.588
X120.425Y-125.075
X120.55Y-128.45
X121.6Y-128.8
X123.009Y-123.662
X125.075Y-122.375
X125.9Y-113.9
X126.205Y-129.153
X127.05Y-128.4
X129.0Y-118.2
X129.032Y-136.271
X129.235Y-108.306
X129.3Y-104.3
X129.39Y-114.474
X129.55Y-113.25
X130.225Y-102.75
X131.572Y-108.422
X131.959Y-114.681
X132.334Y-124.917
X132.635Y-116.26
X134.224Y-107.351
X135.025Y-99.6
X135.025Y-101.7
X136.225Y-107.075
X136.404Y-104.652
X136.465Y-119.33
X136.5Y-100.575
X137.028Y-106.608
X137.249Y-105.304
X137.287Y-103.327
X137.8Y-95.8
X138.684Y-116.268
X139.421Y-122.961
X139.421Y-126.035
X140.729Y-111.976
X140.843Y-136.85
X141.072Y-87.224
X141.151Y-104.779
X141.363Y-109.069
X141.592Y-105.446
X142.275Y-109.721
X142.342Y-98.92
X142.799Y-105.385
X143.053Y-108.419
X143.309Y-120.966
X144.221Y-105.156
X144.482Y-107.511
X145.364Y-124.13
X145.397Y-130.353
X145.521Y-109.75
X145.552Y-105.186
X145.796Y-114.935
X146.05Y-89.2
X146.172Y-112.822
X146.213Y-120.12
X146.253Y-125.959
X146.463Y-105.186
X146.674Y-114.266
X146.685Y-136.85
X147.434Y-97.46
X147.475Y-100.099
X147.55Y-127.575
X147.689Y-101.404
X148.069Y-112.116
X148.087Y-106.109
X148.275Y-109.474
X148.475Y-101.625
X148.498Y-88.552
X148.653Y-94.386
X148.95Y-121.1
X149.264Y-105.121
X149.276Y-101.422
X149.59Y-95.339
X150.103Y-105.109
X152.402Y-128.898
X153.586Y-109.634
X153.695Y-101.346
X154.026Y-125.875
X154.407Y-107.391
X155.2Y-136.55
X155.346Y-120.447
X155.842Y-102.4
X156.1Y-96.25
X156.339Y-125.875
X157.048Y-110.668
X157.074Y-103.861
X157.264Y-109.207
X157.302Y-136.652
X157.34Y-107.277
X158.304Y-139.646
X158.42Y-125.857
X158.547Y-141.935
X158.867Y-121.163
X159.05Y-115.9
X159.9Y-128.9
X160.736Y-120.178
X160.858Y-100.482
X161.036Y-142.748
X162.001Y-144.475
X162.306Y-123.317
X162.75Y-114.75
X162.79Y-139.412
X163.22Y-129.261
X163.259Y-142.352
X164.414Y-141.072
X166.129Y-97.434
X166.129Y-98.565
X166.624Y-116.459
X167.119Y-143.129
X168.007Y-122.986
X168.99Y-133.572
X169.434Y-103.41
X171.933Y-124.689
X172.85Y-106.5
X173.939Y-116.688
T3
X123.147Y-101.75
X123.147Y-103.749
X123.147Y-105.75
X123.147Y-107.752
X129.27Y-121.21
X129.27Y-123.209
X129.27Y-125.211
X129.27Y-127.212
X171.425Y-115.073
X171.425Y-117.074
X171.425Y-119.076
X171.425Y-121.075
X178.562Y-94.612
X178.562Y-96.611
X178.562Y-98.613
X178.562Y-100.614
X178.613Y-105.611
X178.613Y-107.61
X178.613Y-109.611
X178.613Y-111.613
T4
X131.685Y-93.21
X131.685Y-117.61
X133.685Y-93.21
X133.685Y-117.61
X135.685Y-93.21
X135.685Y-117.61
X137.685Y-93.21
X137.685Y-117.61
X139.685Y-93.21
X139.685Y-117.61
X141.685Y-93.21
X141.685Y-117.61
X143.685Y-93.21
X143.685Y-117.61
X145.685Y-93.21
X145.685Y-117.61
X147.685Y-93.21
X147.685Y-117.61
X149.685Y-93.21
X149.685Y-117.61
X151.685Y-93.21
X151.685Y-117.61
X153.685Y-93.21
X153.685Y-117.61
X155.685Y-93.21
X155.685Y-117.61
X157.685Y-93.21
X157.685Y-117.61
X159.685Y-93.21
X159.685Y-117.61
X161.685Y-93.21
X161.685Y-117.61
T5
X154.242Y-144.78
X156.273Y-133.858
X156.909Y-144.78
X157.543Y-131.318
X158.814Y-133.858
X160.083Y-131.318
X161.353Y-133.858
X162.623Y-131.318
X163.893Y-133.858
X164.528Y-144.78
X165.163Y-131.318
X167.195Y-144.78
T6
X123.317Y-134.312
X124.587Y-131.773
X125.857Y-134.312
X127.127Y-131.773
X128.397Y-134.312
X129.667Y-131.773
X130.937Y-134.312
X132.207Y-131.773
X138.811Y-134.312
X140.081Y-131.773
X141.351Y-134.312
X142.621Y-131.773
X143.891Y-134.312
X145.161Y-131.773
X146.431Y-134.312
X147.701Y-131.773
T7
X163.48Y-120.25
X166.02Y-120.25
X178.803Y-117.234
X178.803Y-119.774
X178.803Y-122.314
X178.803Y-124.854
X178.803Y-127.394
T8
X122.636Y-97.256
X122.685Y-87.6
X122.685Y-92.4
X125.176Y-97.256
X125.225Y-87.6
X125.225Y-92.4
T9
X112.61Y-130.45
X115.15Y-130.45
X115.35Y-77.22
X115.35Y-79.76
X115.35Y-82.3
X116.078Y-135.509
X116.078Y-138.049
X116.078Y-143.129
X117.69Y-130.45
X122.118Y-112.014
X124.658Y-112.014
X129.54Y-90.17
X132.08Y-90.17
X134.62Y-90.17
X134.849Y-121.92
X134.849Y-124.46
X134.849Y-127.991
X137.16Y-90.17
X137.389Y-127.991
X139.7Y-90.17
X142.24Y-90.17
X144.78Y-90.17
X147.32Y-90.17
X149.86Y-90.17
X153.543Y-90.043
X155.638Y-112.966
X157.48Y-90.17
X158.178Y-112.966
X160.02Y-90.17
X160.719Y-112.966
X162.56Y-90.17
X163.258Y-112.966
X165.1Y-90.17
X167.64Y-90.17
X170.18Y-90.17
T10
X153.352Y-136.525
X168.084Y-136.525
T11
X120.012Y-137.602
X135.512Y-137.602
X151.006Y-137.602
T12
X108.0Y-90.0
X108.0Y-130.0
X174.0Y-90.0
X174.0Y-130.0
T0
M30
