M48
;DRILL file {KiCad 4.0.2+dfsg1-stable} date Fr 20 Jul 2018 17:19:30 CEST
;FORMAT={-:-/ absolute / metric / decimal}
FMAT,2
METRIC,TZ
T1C0.400
T2C0.701
T3C0.800
T4C0.800
T5C0.864
T6C0.900
T7C1.000
T8C1.001
T9C1.016
T10C1.500
T11C1.600
T12C3.048
%
G90
G05
M71
T1
X105.45Y-94.909
X108.85Y-119.65
X108.85Y-123.1
X108.85Y-124.9
X110.49Y-113.411
X111.9Y-122.542
X115.57Y-118.618
X116.319Y-124.483
X117.85Y-124.8
X119.38Y-118.745
X120.269Y-132.588
X120.3Y-123.6
X120.55Y-128.45
X121.1Y-123.85
X121.3Y-97.6
X121.6Y-128.8
X123.063Y-120.904
X123.19Y-101.6
X124.714Y-100.901
X125.095Y-105.791
X125.5Y-114.26
X125.8Y-119.
X126.015Y-97.066
X126.15Y-120.35
X126.205Y-129.153
X127.05Y-128.4
X129.032Y-136.271
X129.2Y-99.45
X129.407Y-114.457
X129.55Y-113.25
X130.866Y-98.023
X131.064Y-107.696
X131.8Y-114.506
X132.334Y-124.917
X132.588Y-107.043
X132.715Y-122.301
X133.731Y-99.822
X134.429Y-98.521
X136.017Y-105.029
X136.25Y-119.65
X136.398Y-100.457
X137.017Y-110.188
X137.242Y-105.331
X137.379Y-108.841
X137.516Y-107.34
X138.236Y-105.959
X138.684Y-116.268
X139.2Y-114.947
X140.034Y-104.441
X140.325Y-128.727
X140.54Y-109.145
X140.628Y-107.299
X140.843Y-136.85
X141.029Y-106.607
X141.072Y-87.224
X141.781Y-127.251
X142.045Y-105.591
X142.092Y-110.368
X142.702Y-104.934
X142.8Y-125.2
X143.2Y-120.955
X143.605Y-123.839
X144.145Y-113.855
X145.397Y-130.353
X145.796Y-114.935
X146.05Y-89.2
X146.1Y-110.363
X146.177Y-104.267
X146.213Y-120.12
X146.25Y-125.55
X146.621Y-114.236
X146.685Y-136.85
X147.65Y-100.55
X147.7Y-96.25
X148.374Y-100.891
X148.45Y-110.5
X148.498Y-88.552
X148.95Y-121.1
X148.972Y-95.568
X149.55Y-114.6
X149.6Y-104.3
X149.606Y-101.096
X151.3Y-95.215
X151.7Y-96.35
X152.4Y-128.9
X154.051Y-125.832
X154.101Y-96.572
X155.2Y-136.55
X155.346Y-120.447
X156.337Y-125.832
X158.233Y-108.909
X158.42Y-125.857
X158.55Y-139.4
X158.571Y-109.634
X158.867Y-121.163
X159.05Y-115.9
X159.45Y-98.35
X159.9Y-128.9
X161.036Y-142.748
X162.306Y-123.317
X162.75Y-114.75
X163.1Y-139.45
X163.2Y-128.6
X163.449Y-142.113
X166.15Y-97.45
X166.15Y-98.4
X166.294Y-103.947
X166.624Y-116.459
X167.322Y-122.301
X168.99Y-133.572
X169.822Y-103.885
X176.85Y-112.05
T2
X119.253Y-101.521
X119.253Y-103.52
X119.253Y-105.522
X119.253Y-107.523
X129.27Y-121.21
X129.27Y-123.209
X129.27Y-125.211
X129.27Y-127.212
X171.323Y-115.123
X171.323Y-117.124
X171.323Y-119.126
X171.323Y-121.125
X178.816Y-91.234
X178.816Y-93.233
X178.816Y-95.235
X178.816Y-97.236
X178.816Y-103.426
X178.816Y-105.425
X178.816Y-107.427
X178.816Y-109.428
T3
X102.25Y-99.619
X104.75Y-99.619
X131.685Y-93.21
X131.685Y-117.61
X133.685Y-93.21
X133.685Y-117.61
X135.685Y-93.21
X135.685Y-117.61
X137.685Y-93.21
X137.685Y-117.61
X139.685Y-93.21
X139.685Y-117.61
X141.685Y-93.21
X141.685Y-117.61
X143.685Y-93.21
X143.685Y-117.61
X145.685Y-93.21
X145.685Y-117.61
X147.685Y-93.21
X147.685Y-117.61
X149.685Y-93.21
X149.685Y-117.61
X150.495Y-96.941
X150.495Y-99.441
X151.685Y-93.21
X151.685Y-117.61
X153.685Y-93.21
X153.685Y-117.61
X155.685Y-93.21
X155.685Y-117.61
X157.685Y-93.21
X157.685Y-117.61
X159.685Y-93.21
X159.685Y-117.61
X161.685Y-93.21
X161.685Y-117.61
T4
X138.684Y-98.806
X143.764Y-98.806
T5
X154.242Y-144.78
X156.273Y-133.858
X156.909Y-144.78
X157.543Y-131.318
X158.814Y-133.858
X160.083Y-131.318
X161.353Y-133.858
X162.623Y-131.318
X163.893Y-133.858
X164.528Y-144.78
X165.163Y-131.318
X167.195Y-144.78
T6
X123.317Y-134.312
X124.587Y-131.773
X125.857Y-134.312
X127.127Y-131.773
X128.397Y-134.312
X129.667Y-131.773
X130.937Y-134.312
X132.207Y-131.773
X138.811Y-134.312
X140.081Y-131.773
X141.351Y-134.312
X142.621Y-131.773
X143.891Y-134.312
X145.161Y-131.773
X146.431Y-134.312
X147.701Y-131.773
T7
X117.221Y-77.089
X117.221Y-79.629
X117.221Y-82.169
T8
X112.014Y-91.44
X114.554Y-91.44
X117.348Y-91.44
X119.888Y-91.44
X122.428Y-91.44
X124.968Y-91.44
T9
X102.997Y-117.602
X102.997Y-120.142
X102.997Y-122.682
X102.997Y-125.222
X106.68Y-117.602
X106.68Y-120.142
X106.68Y-122.682
X106.68Y-125.222
X112.61Y-130.45
X113.538Y-77.089
X113.538Y-79.629
X113.538Y-82.169
X115.15Y-130.45
X116.078Y-135.509
X116.078Y-138.049
X116.078Y-143.129
X117.69Y-130.45
X120.65Y-114.3
X120.65Y-116.84
X129.54Y-90.17
X132.08Y-90.17
X134.62Y-90.17
X135.382Y-122.682
X135.382Y-125.222
X136.3Y-128.15
X137.16Y-90.17
X138.84Y-128.15
X139.7Y-90.17
X142.24Y-90.17
X144.78Y-90.17
X147.32Y-90.17
X149.86Y-90.17
X153.543Y-90.043
X155.638Y-112.966
X157.48Y-90.17
X158.178Y-112.966
X160.02Y-90.17
X160.719Y-112.966
X162.56Y-90.17
X163.258Y-112.966
X165.1Y-90.17
X167.64Y-90.17
X170.18Y-90.17
X179.451Y-114.3
X179.451Y-116.84
X179.451Y-119.38
X179.451Y-121.92
X179.451Y-124.46
X179.451Y-127.
T10
X153.352Y-136.525
X168.084Y-136.525
T11
X120.012Y-137.602
X135.512Y-137.602
X151.006Y-137.602
T12
X107.Y-130.
X108.Y-90.
X174.Y-90.
X174.Y-130.
T0
M30
