G04 #@! TF.FileFunction,Legend,Top*
%FSLAX46Y46*%
G04 Gerber Fmt 4.6, Leading zero omitted, Abs format (unit mm)*
G04 Created by KiCad (PCBNEW 4.0.7) date Sunday, 10. February 2019 'u58' 13:58:38*
%MOMM*%
%LPD*%
G01*
G04 APERTURE LIST*
%ADD10C,0.100000*%
%ADD11C,0.150000*%
%ADD12C,0.200000*%
%ADD13C,0.254000*%
%ADD14C,0.381000*%
%ADD15C,0.127000*%
%ADD16C,0.050000*%
%ADD17C,0.304800*%
%ADD18C,0.149860*%
%ADD19C,0.140000*%
%ADD20C,0.152400*%
G04 APERTURE END LIST*
D10*
D11*
X143000000Y-146000000D02*
G75*
G03X141000000Y-144000000I-2000000J0D01*
G01*
X141000000Y-144000000D02*
G75*
G03X139000000Y-146000000I0J-2000000D01*
G01*
X170000000Y-146000000D02*
X143000000Y-146000000D01*
X170000000Y-144000000D02*
X170000000Y-146000000D01*
X182000000Y-132000000D02*
G75*
G03X170000000Y-144000000I0J-12000000D01*
G01*
X112000000Y-144000000D02*
X112000000Y-146000000D01*
D12*
X161259781Y-111472552D02*
X160259781Y-111472552D01*
X160259781Y-111234457D01*
X160307400Y-111091599D01*
X160402638Y-110996361D01*
X160497876Y-110948742D01*
X160688352Y-110901123D01*
X160831210Y-110901123D01*
X161021686Y-110948742D01*
X161116924Y-110996361D01*
X161212162Y-111091599D01*
X161259781Y-111234457D01*
X161259781Y-111472552D01*
X160878829Y-110472552D02*
X160878829Y-109710647D01*
X161259781Y-110091599D02*
X160497876Y-110091599D01*
X158503881Y-111497952D02*
X157503881Y-111497952D01*
X157503881Y-111259857D01*
X157551500Y-111116999D01*
X157646738Y-111021761D01*
X157741976Y-110974142D01*
X157932452Y-110926523D01*
X158075310Y-110926523D01*
X158265786Y-110974142D01*
X158361024Y-111021761D01*
X158456262Y-111116999D01*
X158503881Y-111259857D01*
X158503881Y-111497952D01*
X158122929Y-110497952D02*
X158122929Y-109736047D01*
X155138500Y-110489904D02*
X155090881Y-110585142D01*
X155090881Y-110727999D01*
X155138500Y-110870857D01*
X155233738Y-110966095D01*
X155328976Y-111013714D01*
X155519452Y-111061333D01*
X155662310Y-111061333D01*
X155852786Y-111013714D01*
X155948024Y-110966095D01*
X156043262Y-110870857D01*
X156090881Y-110727999D01*
X156090881Y-110632761D01*
X156043262Y-110489904D01*
X155995643Y-110442285D01*
X155662310Y-110442285D01*
X155662310Y-110632761D01*
X156090881Y-110013714D02*
X155090881Y-110013714D01*
X156090881Y-109442285D01*
X155090881Y-109442285D01*
X156090881Y-108966095D02*
X155090881Y-108966095D01*
X155090881Y-108728000D01*
X155138500Y-108585142D01*
X155233738Y-108489904D01*
X155328976Y-108442285D01*
X155519452Y-108394666D01*
X155662310Y-108394666D01*
X155852786Y-108442285D01*
X155948024Y-108489904D01*
X156043262Y-108585142D01*
X156090881Y-108728000D01*
X156090881Y-108966095D01*
X162710881Y-110616976D02*
X162710881Y-111093167D01*
X163187071Y-111140786D01*
X163139452Y-111093167D01*
X163091833Y-110997929D01*
X163091833Y-110759833D01*
X163139452Y-110664595D01*
X163187071Y-110616976D01*
X163282310Y-110569357D01*
X163520405Y-110569357D01*
X163615643Y-110616976D01*
X163663262Y-110664595D01*
X163710881Y-110759833D01*
X163710881Y-110997929D01*
X163663262Y-111093167D01*
X163615643Y-111140786D01*
X162710881Y-110283643D02*
X163710881Y-109950310D01*
X162710881Y-109616976D01*
X112160115Y-136184543D02*
X112122020Y-136232162D01*
X112007734Y-136279781D01*
X111931544Y-136279781D01*
X111817258Y-136232162D01*
X111741067Y-136136924D01*
X111702972Y-136041686D01*
X111664877Y-135851210D01*
X111664877Y-135708352D01*
X111702972Y-135517876D01*
X111741067Y-135422638D01*
X111817258Y-135327400D01*
X111931544Y-135279781D01*
X112007734Y-135279781D01*
X112122020Y-135327400D01*
X112160115Y-135375019D01*
X112464877Y-135994067D02*
X112845829Y-135994067D01*
X112388686Y-136279781D02*
X112655353Y-135279781D01*
X112922020Y-136279781D01*
X113188686Y-136279781D02*
X113188686Y-135279781D01*
X113645829Y-136279781D01*
X113645829Y-135279781D01*
X111093448Y-137979781D02*
X111093448Y-136979781D01*
X111398210Y-136979781D01*
X111474401Y-137027400D01*
X111512496Y-137075019D01*
X111550591Y-137170257D01*
X111550591Y-137313114D01*
X111512496Y-137408352D01*
X111474401Y-137455971D01*
X111398210Y-137503590D01*
X111093448Y-137503590D01*
X112007734Y-137979781D02*
X111931543Y-137932162D01*
X111893448Y-137884543D01*
X111855353Y-137789305D01*
X111855353Y-137503590D01*
X111893448Y-137408352D01*
X111931543Y-137360733D01*
X112007734Y-137313114D01*
X112122020Y-137313114D01*
X112198210Y-137360733D01*
X112236305Y-137408352D01*
X112274401Y-137503590D01*
X112274401Y-137789305D01*
X112236305Y-137884543D01*
X112198210Y-137932162D01*
X112122020Y-137979781D01*
X112007734Y-137979781D01*
X112541068Y-137313114D02*
X112693449Y-137979781D01*
X112845830Y-137503590D01*
X112998211Y-137979781D01*
X113150592Y-137313114D01*
X113760115Y-137932162D02*
X113683925Y-137979781D01*
X113531544Y-137979781D01*
X113455353Y-137932162D01*
X113417258Y-137836924D01*
X113417258Y-137455971D01*
X113455353Y-137360733D01*
X113531544Y-137313114D01*
X113683925Y-137313114D01*
X113760115Y-137360733D01*
X113798210Y-137455971D01*
X113798210Y-137551210D01*
X113417258Y-137646448D01*
X114141067Y-137979781D02*
X114141067Y-137313114D01*
X114141067Y-137503590D02*
X114179162Y-137408352D01*
X114217258Y-137360733D01*
X114293448Y-137313114D01*
X114369639Y-137313114D01*
X114601810Y-141273162D02*
X114744667Y-141320781D01*
X114982763Y-141320781D01*
X115078001Y-141273162D01*
X115125620Y-141225543D01*
X115173239Y-141130305D01*
X115173239Y-141035067D01*
X115125620Y-140939829D01*
X115078001Y-140892210D01*
X114982763Y-140844590D01*
X114792286Y-140796971D01*
X114697048Y-140749352D01*
X114649429Y-140701733D01*
X114601810Y-140606495D01*
X114601810Y-140511257D01*
X114649429Y-140416019D01*
X114697048Y-140368400D01*
X114792286Y-140320781D01*
X115030382Y-140320781D01*
X115173239Y-140368400D01*
X115744667Y-140749352D02*
X115649429Y-140701733D01*
X115601810Y-140654114D01*
X115554191Y-140558876D01*
X115554191Y-140511257D01*
X115601810Y-140416019D01*
X115649429Y-140368400D01*
X115744667Y-140320781D01*
X115935144Y-140320781D01*
X116030382Y-140368400D01*
X116078001Y-140416019D01*
X116125620Y-140511257D01*
X116125620Y-140558876D01*
X116078001Y-140654114D01*
X116030382Y-140701733D01*
X115935144Y-140749352D01*
X115744667Y-140749352D01*
X115649429Y-140796971D01*
X115601810Y-140844590D01*
X115554191Y-140939829D01*
X115554191Y-141130305D01*
X115601810Y-141225543D01*
X115649429Y-141273162D01*
X115744667Y-141320781D01*
X115935144Y-141320781D01*
X116030382Y-141273162D01*
X116078001Y-141225543D01*
X116125620Y-141130305D01*
X116125620Y-140939829D01*
X116078001Y-140844590D01*
X116030382Y-140796971D01*
X115935144Y-140749352D01*
X116697048Y-140749352D02*
X116601810Y-140701733D01*
X116554191Y-140654114D01*
X116506572Y-140558876D01*
X116506572Y-140511257D01*
X116554191Y-140416019D01*
X116601810Y-140368400D01*
X116697048Y-140320781D01*
X116887525Y-140320781D01*
X116982763Y-140368400D01*
X117030382Y-140416019D01*
X117078001Y-140511257D01*
X117078001Y-140558876D01*
X117030382Y-140654114D01*
X116982763Y-140701733D01*
X116887525Y-140749352D01*
X116697048Y-140749352D01*
X116601810Y-140796971D01*
X116554191Y-140844590D01*
X116506572Y-140939829D01*
X116506572Y-141130305D01*
X116554191Y-141225543D01*
X116601810Y-141273162D01*
X116697048Y-141320781D01*
X116887525Y-141320781D01*
X116982763Y-141273162D01*
X117030382Y-141225543D01*
X117078001Y-141130305D01*
X117078001Y-140939829D01*
X117030382Y-140844590D01*
X116982763Y-140796971D01*
X116887525Y-140749352D01*
X117506572Y-141320781D02*
X117506572Y-140320781D01*
D11*
X160000000Y-74000000D02*
X170000000Y-74000000D01*
X112000000Y-74000000D02*
X139000000Y-74000000D01*
X141000000Y-76000000D02*
G75*
G03X143000000Y-74000000I0J2000000D01*
G01*
X139000000Y-74000000D02*
G75*
G03X141000000Y-76000000I2000000J0D01*
G01*
D12*
X154223981Y-87463238D02*
X153747790Y-87796572D01*
X154223981Y-88034667D02*
X153223981Y-88034667D01*
X153223981Y-87653714D01*
X153271600Y-87558476D01*
X153319219Y-87510857D01*
X153414457Y-87463238D01*
X153557314Y-87463238D01*
X153652552Y-87510857D01*
X153700171Y-87558476D01*
X153747790Y-87653714D01*
X153747790Y-88034667D01*
X153938267Y-87082286D02*
X153938267Y-86606095D01*
X154223981Y-87177524D02*
X153223981Y-86844191D01*
X154223981Y-86510857D01*
X153223981Y-85701333D02*
X153223981Y-86177524D01*
X153700171Y-86225143D01*
X153652552Y-86177524D01*
X153604933Y-86082286D01*
X153604933Y-85844190D01*
X153652552Y-85748952D01*
X153700171Y-85701333D01*
X153795410Y-85653714D01*
X154033505Y-85653714D01*
X154128743Y-85701333D01*
X154176362Y-85748952D01*
X154223981Y-85844190D01*
X154223981Y-86082286D01*
X154176362Y-86177524D01*
X154128743Y-86225143D01*
X145137143Y-87663257D02*
X145184762Y-87710876D01*
X145232381Y-87853733D01*
X145232381Y-87948971D01*
X145184762Y-88091829D01*
X145089524Y-88187067D01*
X144994286Y-88234686D01*
X144803810Y-88282305D01*
X144660952Y-88282305D01*
X144470476Y-88234686D01*
X144375238Y-88187067D01*
X144280000Y-88091829D01*
X144232381Y-87948971D01*
X144232381Y-87853733D01*
X144280000Y-87710876D01*
X144327619Y-87663257D01*
X145184762Y-87282305D02*
X145232381Y-87139448D01*
X145232381Y-86901352D01*
X145184762Y-86806114D01*
X145137143Y-86758495D01*
X145041905Y-86710876D01*
X144946667Y-86710876D01*
X144851429Y-86758495D01*
X144803810Y-86806114D01*
X144756190Y-86901352D01*
X144708571Y-87091829D01*
X144660952Y-87187067D01*
X144613333Y-87234686D01*
X144518095Y-87282305D01*
X144422857Y-87282305D01*
X144327619Y-87234686D01*
X144280000Y-87187067D01*
X144232381Y-87091829D01*
X144232381Y-86853733D01*
X144280000Y-86710876D01*
X145232381Y-85758495D02*
X145232381Y-86329924D01*
X145232381Y-86044210D02*
X144232381Y-86044210D01*
X144375238Y-86139448D01*
X144470476Y-86234686D01*
X144518095Y-86329924D01*
X141841600Y-87702780D02*
X141793981Y-87798018D01*
X141793981Y-87940875D01*
X141841600Y-88083733D01*
X141936838Y-88178971D01*
X142032076Y-88226590D01*
X142222552Y-88274209D01*
X142365410Y-88274209D01*
X142555886Y-88226590D01*
X142651124Y-88178971D01*
X142746362Y-88083733D01*
X142793981Y-87940875D01*
X142793981Y-87845637D01*
X142746362Y-87702780D01*
X142698743Y-87655161D01*
X142365410Y-87655161D01*
X142365410Y-87845637D01*
X142793981Y-87226590D02*
X141793981Y-87226590D01*
X141793981Y-86845637D01*
X141841600Y-86750399D01*
X141889219Y-86702780D01*
X141984457Y-86655161D01*
X142127314Y-86655161D01*
X142222552Y-86702780D01*
X142270171Y-86750399D01*
X142317790Y-86845637D01*
X142317790Y-87226590D01*
X142793981Y-86226590D02*
X141793981Y-86226590D01*
X141793981Y-85559924D02*
X141793981Y-85369447D01*
X141841600Y-85274209D01*
X141936838Y-85178971D01*
X142127314Y-85131352D01*
X142460648Y-85131352D01*
X142651124Y-85178971D01*
X142746362Y-85274209D01*
X142793981Y-85369447D01*
X142793981Y-85559924D01*
X142746362Y-85655162D01*
X142651124Y-85750400D01*
X142460648Y-85798019D01*
X142127314Y-85798019D01*
X141936838Y-85750400D01*
X141841600Y-85655162D01*
X141793981Y-85559924D01*
X142793981Y-84178971D02*
X142793981Y-84750400D01*
X142793981Y-84464686D02*
X141793981Y-84464686D01*
X141936838Y-84559924D01*
X142032076Y-84655162D01*
X142079695Y-84750400D01*
X141793981Y-83321828D02*
X141793981Y-83512305D01*
X141841600Y-83607543D01*
X141889219Y-83655162D01*
X142032076Y-83750400D01*
X142222552Y-83798019D01*
X142603505Y-83798019D01*
X142698743Y-83750400D01*
X142746362Y-83702781D01*
X142793981Y-83607543D01*
X142793981Y-83417066D01*
X142746362Y-83321828D01*
X142698743Y-83274209D01*
X142603505Y-83226590D01*
X142365410Y-83226590D01*
X142270171Y-83274209D01*
X142222552Y-83321828D01*
X142174933Y-83417066D01*
X142174933Y-83607543D01*
X142222552Y-83702781D01*
X142270171Y-83750400D01*
X142365410Y-83798019D01*
X139250800Y-87728180D02*
X139203181Y-87823418D01*
X139203181Y-87966275D01*
X139250800Y-88109133D01*
X139346038Y-88204371D01*
X139441276Y-88251990D01*
X139631752Y-88299609D01*
X139774610Y-88299609D01*
X139965086Y-88251990D01*
X140060324Y-88204371D01*
X140155562Y-88109133D01*
X140203181Y-87966275D01*
X140203181Y-87871037D01*
X140155562Y-87728180D01*
X140107943Y-87680561D01*
X139774610Y-87680561D01*
X139774610Y-87871037D01*
X140203181Y-87251990D02*
X139203181Y-87251990D01*
X139203181Y-86871037D01*
X139250800Y-86775799D01*
X139298419Y-86728180D01*
X139393657Y-86680561D01*
X139536514Y-86680561D01*
X139631752Y-86728180D01*
X139679371Y-86775799D01*
X139726990Y-86871037D01*
X139726990Y-87251990D01*
X140203181Y-86251990D02*
X139203181Y-86251990D01*
X139203181Y-85585324D02*
X139203181Y-85394847D01*
X139250800Y-85299609D01*
X139346038Y-85204371D01*
X139536514Y-85156752D01*
X139869848Y-85156752D01*
X140060324Y-85204371D01*
X140155562Y-85299609D01*
X140203181Y-85394847D01*
X140203181Y-85585324D01*
X140155562Y-85680562D01*
X140060324Y-85775800D01*
X139869848Y-85823419D01*
X139536514Y-85823419D01*
X139346038Y-85775800D01*
X139250800Y-85680562D01*
X139203181Y-85585324D01*
X140203181Y-84204371D02*
X140203181Y-84775800D01*
X140203181Y-84490086D02*
X139203181Y-84490086D01*
X139346038Y-84585324D01*
X139441276Y-84680562D01*
X139488895Y-84775800D01*
X139203181Y-83347228D02*
X139203181Y-83537705D01*
X139250800Y-83632943D01*
X139298419Y-83680562D01*
X139441276Y-83775800D01*
X139631752Y-83823419D01*
X140012705Y-83823419D01*
X140107943Y-83775800D01*
X140155562Y-83728181D01*
X140203181Y-83632943D01*
X140203181Y-83442466D01*
X140155562Y-83347228D01*
X140107943Y-83299609D01*
X140012705Y-83251990D01*
X139774610Y-83251990D01*
X139679371Y-83299609D01*
X139631752Y-83347228D01*
X139584133Y-83442466D01*
X139584133Y-83632943D01*
X139631752Y-83728181D01*
X139679371Y-83775800D01*
X139774610Y-83823419D01*
X137713981Y-88287028D02*
X136713981Y-88287028D01*
X137428267Y-87953694D01*
X136713981Y-87620361D01*
X137713981Y-87620361D01*
X136713981Y-86953695D02*
X136713981Y-86763218D01*
X136761600Y-86667980D01*
X136856838Y-86572742D01*
X137047314Y-86525123D01*
X137380648Y-86525123D01*
X137571124Y-86572742D01*
X137666362Y-86667980D01*
X137713981Y-86763218D01*
X137713981Y-86953695D01*
X137666362Y-87048933D01*
X137571124Y-87144171D01*
X137380648Y-87191790D01*
X137047314Y-87191790D01*
X136856838Y-87144171D01*
X136761600Y-87048933D01*
X136713981Y-86953695D01*
X137666362Y-86144171D02*
X137713981Y-86001314D01*
X137713981Y-85763218D01*
X137666362Y-85667980D01*
X137618743Y-85620361D01*
X137523505Y-85572742D01*
X137428267Y-85572742D01*
X137333029Y-85620361D01*
X137285410Y-85667980D01*
X137237790Y-85763218D01*
X137190171Y-85953695D01*
X137142552Y-86048933D01*
X137094933Y-86096552D01*
X136999695Y-86144171D01*
X136904457Y-86144171D01*
X136809219Y-86096552D01*
X136761600Y-86048933D01*
X136713981Y-85953695D01*
X136713981Y-85715599D01*
X136761600Y-85572742D01*
X137713981Y-85144171D02*
X136713981Y-85144171D01*
X134977143Y-87717238D02*
X135024762Y-87764857D01*
X135072381Y-87907714D01*
X135072381Y-88002952D01*
X135024762Y-88145810D01*
X134929524Y-88241048D01*
X134834286Y-88288667D01*
X134643810Y-88336286D01*
X134500952Y-88336286D01*
X134310476Y-88288667D01*
X134215238Y-88241048D01*
X134120000Y-88145810D01*
X134072381Y-88002952D01*
X134072381Y-87907714D01*
X134120000Y-87764857D01*
X134167619Y-87717238D01*
X135072381Y-86812476D02*
X135072381Y-87288667D01*
X134072381Y-87288667D01*
X135072381Y-86479143D02*
X134072381Y-86479143D01*
X135072381Y-85907714D02*
X134500952Y-86336286D01*
X134072381Y-85907714D02*
X134643810Y-86479143D01*
X129890781Y-88236228D02*
X128890781Y-88236228D01*
X129605067Y-87902894D01*
X128890781Y-87569561D01*
X129890781Y-87569561D01*
X129890781Y-87093371D02*
X128890781Y-87093371D01*
X129843162Y-86664800D02*
X129890781Y-86521943D01*
X129890781Y-86283847D01*
X129843162Y-86188609D01*
X129795543Y-86140990D01*
X129700305Y-86093371D01*
X129605067Y-86093371D01*
X129509829Y-86140990D01*
X129462210Y-86188609D01*
X129414590Y-86283847D01*
X129366971Y-86474324D01*
X129319352Y-86569562D01*
X129271733Y-86617181D01*
X129176495Y-86664800D01*
X129081257Y-86664800D01*
X128986019Y-86617181D01*
X128938400Y-86569562D01*
X128890781Y-86474324D01*
X128890781Y-86236228D01*
X128938400Y-86093371D01*
X128890781Y-85474324D02*
X128890781Y-85283847D01*
X128938400Y-85188609D01*
X129033638Y-85093371D01*
X129224114Y-85045752D01*
X129557448Y-85045752D01*
X129747924Y-85093371D01*
X129843162Y-85188609D01*
X129890781Y-85283847D01*
X129890781Y-85474324D01*
X129843162Y-85569562D01*
X129747924Y-85664800D01*
X129557448Y-85712419D01*
X129224114Y-85712419D01*
X129033638Y-85664800D01*
X128938400Y-85569562D01*
X128890781Y-85474324D01*
X131786381Y-88252133D02*
X132786381Y-87918800D01*
X131786381Y-87585466D01*
X132691143Y-86680704D02*
X132738762Y-86728323D01*
X132786381Y-86871180D01*
X132786381Y-86966418D01*
X132738762Y-87109276D01*
X132643524Y-87204514D01*
X132548286Y-87252133D01*
X132357810Y-87299752D01*
X132214952Y-87299752D01*
X132024476Y-87252133D01*
X131929238Y-87204514D01*
X131834000Y-87109276D01*
X131786381Y-86966418D01*
X131786381Y-86871180D01*
X131834000Y-86728323D01*
X131881619Y-86680704D01*
X132691143Y-85680704D02*
X132738762Y-85728323D01*
X132786381Y-85871180D01*
X132786381Y-85966418D01*
X132738762Y-86109276D01*
X132643524Y-86204514D01*
X132548286Y-86252133D01*
X132357810Y-86299752D01*
X132214952Y-86299752D01*
X132024476Y-86252133D01*
X131929238Y-86204514D01*
X131834000Y-86109276D01*
X131786381Y-85966418D01*
X131786381Y-85871180D01*
X131834000Y-85728323D01*
X131881619Y-85680704D01*
X149617181Y-88302933D02*
X150617181Y-87969600D01*
X149617181Y-87636266D01*
X150521943Y-86731504D02*
X150569562Y-86779123D01*
X150617181Y-86921980D01*
X150617181Y-87017218D01*
X150569562Y-87160076D01*
X150474324Y-87255314D01*
X150379086Y-87302933D01*
X150188610Y-87350552D01*
X150045752Y-87350552D01*
X149855276Y-87302933D01*
X149760038Y-87255314D01*
X149664800Y-87160076D01*
X149617181Y-87017218D01*
X149617181Y-86921980D01*
X149664800Y-86779123D01*
X149712419Y-86731504D01*
X150521943Y-85731504D02*
X150569562Y-85779123D01*
X150617181Y-85921980D01*
X150617181Y-86017218D01*
X150569562Y-86160076D01*
X150474324Y-86255314D01*
X150379086Y-86302933D01*
X150188610Y-86350552D01*
X150045752Y-86350552D01*
X149855276Y-86302933D01*
X149760038Y-86255314D01*
X149664800Y-86160076D01*
X149617181Y-86017218D01*
X149617181Y-85921980D01*
X149664800Y-85779123D01*
X149712419Y-85731504D01*
X146870800Y-87680704D02*
X146823181Y-87775942D01*
X146823181Y-87918799D01*
X146870800Y-88061657D01*
X146966038Y-88156895D01*
X147061276Y-88204514D01*
X147251752Y-88252133D01*
X147394610Y-88252133D01*
X147585086Y-88204514D01*
X147680324Y-88156895D01*
X147775562Y-88061657D01*
X147823181Y-87918799D01*
X147823181Y-87823561D01*
X147775562Y-87680704D01*
X147727943Y-87633085D01*
X147394610Y-87633085D01*
X147394610Y-87823561D01*
X147823181Y-87204514D02*
X146823181Y-87204514D01*
X147823181Y-86633085D01*
X146823181Y-86633085D01*
X147823181Y-86156895D02*
X146823181Y-86156895D01*
X146823181Y-85918800D01*
X146870800Y-85775942D01*
X146966038Y-85680704D01*
X147061276Y-85633085D01*
X147251752Y-85585466D01*
X147394610Y-85585466D01*
X147585086Y-85633085D01*
X147680324Y-85680704D01*
X147775562Y-85775942D01*
X147823181Y-85918800D01*
X147823181Y-86156895D01*
X156980000Y-87629904D02*
X156932381Y-87725142D01*
X156932381Y-87867999D01*
X156980000Y-88010857D01*
X157075238Y-88106095D01*
X157170476Y-88153714D01*
X157360952Y-88201333D01*
X157503810Y-88201333D01*
X157694286Y-88153714D01*
X157789524Y-88106095D01*
X157884762Y-88010857D01*
X157932381Y-87867999D01*
X157932381Y-87772761D01*
X157884762Y-87629904D01*
X157837143Y-87582285D01*
X157503810Y-87582285D01*
X157503810Y-87772761D01*
X157932381Y-87153714D02*
X156932381Y-87153714D01*
X157932381Y-86582285D01*
X156932381Y-86582285D01*
X157932381Y-86106095D02*
X156932381Y-86106095D01*
X156932381Y-85868000D01*
X156980000Y-85725142D01*
X157075238Y-85629904D01*
X157170476Y-85582285D01*
X157360952Y-85534666D01*
X157503810Y-85534666D01*
X157694286Y-85582285D01*
X157789524Y-85629904D01*
X157884762Y-85725142D01*
X157932381Y-85868000D01*
X157932381Y-86106095D01*
X160523181Y-88298019D02*
X159523181Y-88298019D01*
X159618419Y-87869448D02*
X159570800Y-87821829D01*
X159523181Y-87726591D01*
X159523181Y-87488495D01*
X159570800Y-87393257D01*
X159618419Y-87345638D01*
X159713657Y-87298019D01*
X159808895Y-87298019D01*
X159951752Y-87345638D01*
X160523181Y-87917067D01*
X160523181Y-87298019D01*
X160475562Y-86917067D02*
X160523181Y-86774210D01*
X160523181Y-86536114D01*
X160475562Y-86440876D01*
X160427943Y-86393257D01*
X160332705Y-86345638D01*
X160237467Y-86345638D01*
X160142229Y-86393257D01*
X160094610Y-86440876D01*
X160046990Y-86536114D01*
X159999371Y-86726591D01*
X159951752Y-86821829D01*
X159904133Y-86869448D01*
X159808895Y-86917067D01*
X159713657Y-86917067D01*
X159618419Y-86869448D01*
X159570800Y-86821829D01*
X159523181Y-86726591D01*
X159523181Y-86488495D01*
X159570800Y-86345638D01*
X160618419Y-86155162D02*
X160618419Y-85393257D01*
X160475562Y-85202781D02*
X160523181Y-85059924D01*
X160523181Y-84821828D01*
X160475562Y-84726590D01*
X160427943Y-84678971D01*
X160332705Y-84631352D01*
X160237467Y-84631352D01*
X160142229Y-84678971D01*
X160094610Y-84726590D01*
X160046990Y-84821828D01*
X159999371Y-85012305D01*
X159951752Y-85107543D01*
X159904133Y-85155162D01*
X159808895Y-85202781D01*
X159713657Y-85202781D01*
X159618419Y-85155162D01*
X159570800Y-85107543D01*
X159523181Y-85012305D01*
X159523181Y-84774209D01*
X159570800Y-84631352D01*
X160523181Y-84202781D02*
X159523181Y-84202781D01*
X159523181Y-83964686D01*
X159570800Y-83821828D01*
X159666038Y-83726590D01*
X159761276Y-83678971D01*
X159951752Y-83631352D01*
X160094610Y-83631352D01*
X160285086Y-83678971D01*
X160380324Y-83726590D01*
X160475562Y-83821828D01*
X160523181Y-83964686D01*
X160523181Y-84202781D01*
X160523181Y-83202781D02*
X159523181Y-83202781D01*
X163215581Y-88278933D02*
X162215581Y-88278933D01*
X162310819Y-87850362D02*
X162263200Y-87802743D01*
X162215581Y-87707505D01*
X162215581Y-87469409D01*
X162263200Y-87374171D01*
X162310819Y-87326552D01*
X162406057Y-87278933D01*
X162501295Y-87278933D01*
X162644152Y-87326552D01*
X163215581Y-87897981D01*
X163215581Y-87278933D01*
X163167962Y-86897981D02*
X163215581Y-86755124D01*
X163215581Y-86517028D01*
X163167962Y-86421790D01*
X163120343Y-86374171D01*
X163025105Y-86326552D01*
X162929867Y-86326552D01*
X162834629Y-86374171D01*
X162787010Y-86421790D01*
X162739390Y-86517028D01*
X162691771Y-86707505D01*
X162644152Y-86802743D01*
X162596533Y-86850362D01*
X162501295Y-86897981D01*
X162406057Y-86897981D01*
X162310819Y-86850362D01*
X162263200Y-86802743D01*
X162215581Y-86707505D01*
X162215581Y-86469409D01*
X162263200Y-86326552D01*
X163310819Y-86136076D02*
X163310819Y-85374171D01*
X163167962Y-85183695D02*
X163215581Y-85040838D01*
X163215581Y-84802742D01*
X163167962Y-84707504D01*
X163120343Y-84659885D01*
X163025105Y-84612266D01*
X162929867Y-84612266D01*
X162834629Y-84659885D01*
X162787010Y-84707504D01*
X162739390Y-84802742D01*
X162691771Y-84993219D01*
X162644152Y-85088457D01*
X162596533Y-85136076D01*
X162501295Y-85183695D01*
X162406057Y-85183695D01*
X162310819Y-85136076D01*
X162263200Y-85088457D01*
X162215581Y-84993219D01*
X162215581Y-84755123D01*
X162263200Y-84612266D01*
X163215581Y-84183695D02*
X162215581Y-84183695D01*
X162215581Y-83945600D01*
X162263200Y-83802742D01*
X162358438Y-83707504D01*
X162453676Y-83659885D01*
X162644152Y-83612266D01*
X162787010Y-83612266D01*
X162977486Y-83659885D01*
X163072724Y-83707504D01*
X163167962Y-83802742D01*
X163215581Y-83945600D01*
X163215581Y-84183695D01*
X162215581Y-82993219D02*
X162215581Y-82802742D01*
X162263200Y-82707504D01*
X162358438Y-82612266D01*
X162548914Y-82564647D01*
X162882248Y-82564647D01*
X163072724Y-82612266D01*
X163167962Y-82707504D01*
X163215581Y-82802742D01*
X163215581Y-82993219D01*
X163167962Y-83088457D01*
X163072724Y-83183695D01*
X162882248Y-83231314D01*
X162548914Y-83231314D01*
X162358438Y-83183695D01*
X162263200Y-83088457D01*
X162215581Y-82993219D01*
X165552381Y-88283752D02*
X164552381Y-88283752D01*
X164647619Y-87855181D02*
X164600000Y-87807562D01*
X164552381Y-87712324D01*
X164552381Y-87474228D01*
X164600000Y-87378990D01*
X164647619Y-87331371D01*
X164742857Y-87283752D01*
X164838095Y-87283752D01*
X164980952Y-87331371D01*
X165552381Y-87902800D01*
X165552381Y-87283752D01*
X165504762Y-86902800D02*
X165552381Y-86759943D01*
X165552381Y-86521847D01*
X165504762Y-86426609D01*
X165457143Y-86378990D01*
X165361905Y-86331371D01*
X165266667Y-86331371D01*
X165171429Y-86378990D01*
X165123810Y-86426609D01*
X165076190Y-86521847D01*
X165028571Y-86712324D01*
X164980952Y-86807562D01*
X164933333Y-86855181D01*
X164838095Y-86902800D01*
X164742857Y-86902800D01*
X164647619Y-86855181D01*
X164600000Y-86807562D01*
X164552381Y-86712324D01*
X164552381Y-86474228D01*
X164600000Y-86331371D01*
X165647619Y-86140895D02*
X165647619Y-85378990D01*
X164552381Y-85236133D02*
X165552381Y-84998038D01*
X164838095Y-84807561D01*
X165552381Y-84617085D01*
X164552381Y-84378990D01*
X165504762Y-84045657D02*
X165552381Y-83902800D01*
X165552381Y-83664704D01*
X165504762Y-83569466D01*
X165457143Y-83521847D01*
X165361905Y-83474228D01*
X165266667Y-83474228D01*
X165171429Y-83521847D01*
X165123810Y-83569466D01*
X165076190Y-83664704D01*
X165028571Y-83855181D01*
X164980952Y-83950419D01*
X164933333Y-83998038D01*
X164838095Y-84045657D01*
X164742857Y-84045657D01*
X164647619Y-83998038D01*
X164600000Y-83950419D01*
X164552381Y-83855181D01*
X164552381Y-83617085D01*
X164600000Y-83474228D01*
X169810181Y-88302933D02*
X170810181Y-87969600D01*
X169810181Y-87636266D01*
X170714943Y-86731504D02*
X170762562Y-86779123D01*
X170810181Y-86921980D01*
X170810181Y-87017218D01*
X170762562Y-87160076D01*
X170667324Y-87255314D01*
X170572086Y-87302933D01*
X170381610Y-87350552D01*
X170238752Y-87350552D01*
X170048276Y-87302933D01*
X169953038Y-87255314D01*
X169857800Y-87160076D01*
X169810181Y-87017218D01*
X169810181Y-86921980D01*
X169857800Y-86779123D01*
X169905419Y-86731504D01*
X170714943Y-85731504D02*
X170762562Y-85779123D01*
X170810181Y-85921980D01*
X170810181Y-86017218D01*
X170762562Y-86160076D01*
X170667324Y-86255314D01*
X170572086Y-86302933D01*
X170381610Y-86350552D01*
X170238752Y-86350552D01*
X170048276Y-86302933D01*
X169953038Y-86255314D01*
X169857800Y-86160076D01*
X169810181Y-86017218D01*
X169810181Y-85921980D01*
X169857800Y-85779123D01*
X169905419Y-85731504D01*
X168143181Y-88285295D02*
X167143181Y-88285295D01*
X167238419Y-87856724D02*
X167190800Y-87809105D01*
X167143181Y-87713867D01*
X167143181Y-87475771D01*
X167190800Y-87380533D01*
X167238419Y-87332914D01*
X167333657Y-87285295D01*
X167428895Y-87285295D01*
X167571752Y-87332914D01*
X168143181Y-87904343D01*
X168143181Y-87285295D01*
X168095562Y-86904343D02*
X168143181Y-86761486D01*
X168143181Y-86523390D01*
X168095562Y-86428152D01*
X168047943Y-86380533D01*
X167952705Y-86332914D01*
X167857467Y-86332914D01*
X167762229Y-86380533D01*
X167714610Y-86428152D01*
X167666990Y-86523390D01*
X167619371Y-86713867D01*
X167571752Y-86809105D01*
X167524133Y-86856724D01*
X167428895Y-86904343D01*
X167333657Y-86904343D01*
X167238419Y-86856724D01*
X167190800Y-86809105D01*
X167143181Y-86713867D01*
X167143181Y-86475771D01*
X167190800Y-86332914D01*
X168238419Y-86142438D02*
X168238419Y-85380533D01*
X168047943Y-84571009D02*
X168095562Y-84618628D01*
X168143181Y-84761485D01*
X168143181Y-84856723D01*
X168095562Y-84999581D01*
X168000324Y-85094819D01*
X167905086Y-85142438D01*
X167714610Y-85190057D01*
X167571752Y-85190057D01*
X167381276Y-85142438D01*
X167286038Y-85094819D01*
X167190800Y-84999581D01*
X167143181Y-84856723D01*
X167143181Y-84761485D01*
X167190800Y-84618628D01*
X167238419Y-84571009D01*
X168143181Y-83666247D02*
X168143181Y-84142438D01*
X167143181Y-84142438D01*
X168143181Y-83332914D02*
X167143181Y-83332914D01*
X168143181Y-82761485D02*
X167571752Y-83190057D01*
X167143181Y-82761485D02*
X167714610Y-83332914D01*
X109016896Y-84336000D02*
X108921658Y-84288381D01*
X108778801Y-84288381D01*
X108635943Y-84336000D01*
X108540705Y-84431238D01*
X108493086Y-84526476D01*
X108445467Y-84716952D01*
X108445467Y-84859810D01*
X108493086Y-85050286D01*
X108540705Y-85145524D01*
X108635943Y-85240762D01*
X108778801Y-85288381D01*
X108874039Y-85288381D01*
X109016896Y-85240762D01*
X109064515Y-85193143D01*
X109064515Y-84859810D01*
X108874039Y-84859810D01*
X109493086Y-85288381D02*
X109493086Y-84288381D01*
X110064515Y-85288381D01*
X110064515Y-84288381D01*
X110540705Y-85288381D02*
X110540705Y-84288381D01*
X110778800Y-84288381D01*
X110921658Y-84336000D01*
X111016896Y-84431238D01*
X111064515Y-84526476D01*
X111112134Y-84716952D01*
X111112134Y-84859810D01*
X111064515Y-85050286D01*
X111016896Y-85145524D01*
X110921658Y-85240762D01*
X110778800Y-85288381D01*
X110540705Y-85288381D01*
X109210553Y-86812381D02*
X108639124Y-86812381D01*
X108924838Y-86812381D02*
X108924838Y-85812381D01*
X108829600Y-85955238D01*
X108734362Y-86050476D01*
X108639124Y-86098095D01*
X109781981Y-86240952D02*
X109686743Y-86193333D01*
X109639124Y-86145714D01*
X109591505Y-86050476D01*
X109591505Y-86002857D01*
X109639124Y-85907619D01*
X109686743Y-85860000D01*
X109781981Y-85812381D01*
X109972458Y-85812381D01*
X110067696Y-85860000D01*
X110115315Y-85907619D01*
X110162934Y-86002857D01*
X110162934Y-86050476D01*
X110115315Y-86145714D01*
X110067696Y-86193333D01*
X109972458Y-86240952D01*
X109781981Y-86240952D01*
X109686743Y-86288571D01*
X109639124Y-86336190D01*
X109591505Y-86431429D01*
X109591505Y-86621905D01*
X109639124Y-86717143D01*
X109686743Y-86764762D01*
X109781981Y-86812381D01*
X109972458Y-86812381D01*
X110067696Y-86764762D01*
X110115315Y-86717143D01*
X110162934Y-86621905D01*
X110162934Y-86431429D01*
X110115315Y-86336190D01*
X110067696Y-86288571D01*
X109972458Y-86240952D01*
X110448648Y-85812381D02*
X110781981Y-86812381D01*
X111115315Y-85812381D01*
X109588324Y-82815181D02*
X109112133Y-82815181D01*
X109064514Y-83291371D01*
X109112133Y-83243752D01*
X109207371Y-83196133D01*
X109445467Y-83196133D01*
X109540705Y-83243752D01*
X109588324Y-83291371D01*
X109635943Y-83386610D01*
X109635943Y-83624705D01*
X109588324Y-83719943D01*
X109540705Y-83767562D01*
X109445467Y-83815181D01*
X109207371Y-83815181D01*
X109112133Y-83767562D01*
X109064514Y-83719943D01*
X109921657Y-82815181D02*
X110254990Y-83815181D01*
X110588324Y-82815181D01*
X167844743Y-119795657D02*
X167892362Y-119843276D01*
X167939981Y-119986133D01*
X167939981Y-120081371D01*
X167892362Y-120224229D01*
X167797124Y-120319467D01*
X167701886Y-120367086D01*
X167511410Y-120414705D01*
X167368552Y-120414705D01*
X167178076Y-120367086D01*
X167082838Y-120319467D01*
X166987600Y-120224229D01*
X166939981Y-120081371D01*
X166939981Y-119986133D01*
X166987600Y-119843276D01*
X167035219Y-119795657D01*
X167939981Y-119224229D02*
X167892362Y-119319467D01*
X167844743Y-119367086D01*
X167749505Y-119414705D01*
X167463790Y-119414705D01*
X167368552Y-119367086D01*
X167320933Y-119319467D01*
X167273314Y-119224229D01*
X167273314Y-119081371D01*
X167320933Y-118986133D01*
X167368552Y-118938514D01*
X167463790Y-118890895D01*
X167749505Y-118890895D01*
X167844743Y-118938514D01*
X167892362Y-118986133D01*
X167939981Y-119081371D01*
X167939981Y-119224229D01*
X167273314Y-118462324D02*
X167939981Y-118462324D01*
X167368552Y-118462324D02*
X167320933Y-118414705D01*
X167273314Y-118319467D01*
X167273314Y-118176609D01*
X167320933Y-118081371D01*
X167416171Y-118033752D01*
X167939981Y-118033752D01*
X167892362Y-117605181D02*
X167939981Y-117509943D01*
X167939981Y-117319467D01*
X167892362Y-117224228D01*
X167797124Y-117176609D01*
X167749505Y-117176609D01*
X167654267Y-117224228D01*
X167606648Y-117319467D01*
X167606648Y-117462324D01*
X167559029Y-117557562D01*
X167463790Y-117605181D01*
X167416171Y-117605181D01*
X167320933Y-117557562D01*
X167273314Y-117462324D01*
X167273314Y-117319467D01*
X167320933Y-117224228D01*
X167939981Y-116605181D02*
X167892362Y-116700419D01*
X167844743Y-116748038D01*
X167749505Y-116795657D01*
X167463790Y-116795657D01*
X167368552Y-116748038D01*
X167320933Y-116700419D01*
X167273314Y-116605181D01*
X167273314Y-116462323D01*
X167320933Y-116367085D01*
X167368552Y-116319466D01*
X167463790Y-116271847D01*
X167749505Y-116271847D01*
X167844743Y-116319466D01*
X167892362Y-116367085D01*
X167939981Y-116462323D01*
X167939981Y-116605181D01*
X167939981Y-115700419D02*
X167892362Y-115795657D01*
X167797124Y-115843276D01*
X166939981Y-115843276D01*
X167892362Y-114938513D02*
X167939981Y-115033751D01*
X167939981Y-115224228D01*
X167892362Y-115319466D01*
X167797124Y-115367085D01*
X167416171Y-115367085D01*
X167320933Y-115319466D01*
X167273314Y-115224228D01*
X167273314Y-115033751D01*
X167320933Y-114938513D01*
X167416171Y-114890894D01*
X167511410Y-114890894D01*
X167606648Y-115367085D01*
X116420924Y-132345181D02*
X115944733Y-132345181D01*
X115897114Y-132821371D01*
X115944733Y-132773752D01*
X116039971Y-132726133D01*
X116278067Y-132726133D01*
X116373305Y-132773752D01*
X116420924Y-132821371D01*
X116468543Y-132916610D01*
X116468543Y-133154705D01*
X116420924Y-133249943D01*
X116373305Y-133297562D01*
X116278067Y-133345181D01*
X116039971Y-133345181D01*
X115944733Y-133297562D01*
X115897114Y-133249943D01*
X116754257Y-132345181D02*
X117087590Y-133345181D01*
X117420924Y-132345181D01*
X112842753Y-133370581D02*
X112271324Y-133370581D01*
X112557038Y-133370581D02*
X112557038Y-132370581D01*
X112461800Y-132513438D01*
X112366562Y-132608676D01*
X112271324Y-132656295D01*
X113223705Y-132465819D02*
X113271324Y-132418200D01*
X113366562Y-132370581D01*
X113604658Y-132370581D01*
X113699896Y-132418200D01*
X113747515Y-132465819D01*
X113795134Y-132561057D01*
X113795134Y-132656295D01*
X113747515Y-132799152D01*
X113176086Y-133370581D01*
X113795134Y-133370581D01*
X114080848Y-132370581D02*
X114414181Y-133370581D01*
X114747515Y-132370581D01*
D11*
X143000000Y-74000000D02*
X160000000Y-74000000D01*
D12*
X175056896Y-116898800D02*
X174961658Y-116851181D01*
X174818801Y-116851181D01*
X174675943Y-116898800D01*
X174580705Y-116994038D01*
X174533086Y-117089276D01*
X174485467Y-117279752D01*
X174485467Y-117422610D01*
X174533086Y-117613086D01*
X174580705Y-117708324D01*
X174675943Y-117803562D01*
X174818801Y-117851181D01*
X174914039Y-117851181D01*
X175056896Y-117803562D01*
X175104515Y-117755943D01*
X175104515Y-117422610D01*
X174914039Y-117422610D01*
X175533086Y-117851181D02*
X175533086Y-116851181D01*
X176104515Y-117851181D01*
X176104515Y-116851181D01*
X176580705Y-117851181D02*
X176580705Y-116851181D01*
X176818800Y-116851181D01*
X176961658Y-116898800D01*
X177056896Y-116994038D01*
X177104515Y-117089276D01*
X177152134Y-117279752D01*
X177152134Y-117422610D01*
X177104515Y-117613086D01*
X177056896Y-117708324D01*
X176961658Y-117803562D01*
X176818800Y-117851181D01*
X176580705Y-117851181D01*
X174153724Y-120368962D02*
X174296581Y-120416581D01*
X174534677Y-120416581D01*
X174629915Y-120368962D01*
X174677534Y-120321343D01*
X174725153Y-120226105D01*
X174725153Y-120130867D01*
X174677534Y-120035629D01*
X174629915Y-119988010D01*
X174534677Y-119940390D01*
X174344200Y-119892771D01*
X174248962Y-119845152D01*
X174201343Y-119797533D01*
X174153724Y-119702295D01*
X174153724Y-119607057D01*
X174201343Y-119511819D01*
X174248962Y-119464200D01*
X174344200Y-119416581D01*
X174582296Y-119416581D01*
X174725153Y-119464200D01*
X175153724Y-120416581D02*
X175153724Y-119416581D01*
X175534677Y-119416581D01*
X175629915Y-119464200D01*
X175677534Y-119511819D01*
X175725153Y-119607057D01*
X175725153Y-119749914D01*
X175677534Y-119845152D01*
X175629915Y-119892771D01*
X175534677Y-119940390D01*
X175153724Y-119940390D01*
X176629915Y-120416581D02*
X176153724Y-120416581D01*
X176153724Y-119416581D01*
X176963248Y-120416581D02*
X176963248Y-119416581D01*
X177201343Y-119416581D01*
X177344201Y-119464200D01*
X177439439Y-119559438D01*
X177487058Y-119654676D01*
X177534677Y-119845152D01*
X177534677Y-119988010D01*
X177487058Y-120178486D01*
X177439439Y-120273724D01*
X177344201Y-120368962D01*
X177201343Y-120416581D01*
X176963248Y-120416581D01*
X174471153Y-122753381D02*
X173994962Y-122753381D01*
X173994962Y-121753381D01*
X174804486Y-122753381D02*
X174804486Y-122086714D01*
X174804486Y-121753381D02*
X174756867Y-121801000D01*
X174804486Y-121848619D01*
X174852105Y-121801000D01*
X174804486Y-121753381D01*
X174804486Y-121848619D01*
X175709248Y-122086714D02*
X175709248Y-122896238D01*
X175661629Y-122991476D01*
X175614010Y-123039095D01*
X175518771Y-123086714D01*
X175375914Y-123086714D01*
X175280676Y-123039095D01*
X175709248Y-122705762D02*
X175614010Y-122753381D01*
X175423533Y-122753381D01*
X175328295Y-122705762D01*
X175280676Y-122658143D01*
X175233057Y-122562905D01*
X175233057Y-122277190D01*
X175280676Y-122181952D01*
X175328295Y-122134333D01*
X175423533Y-122086714D01*
X175614010Y-122086714D01*
X175709248Y-122134333D01*
X176185438Y-122753381D02*
X176185438Y-121753381D01*
X176614010Y-122753381D02*
X176614010Y-122229571D01*
X176566391Y-122134333D01*
X176471153Y-122086714D01*
X176328295Y-122086714D01*
X176233057Y-122134333D01*
X176185438Y-122181952D01*
X176947343Y-122086714D02*
X177328295Y-122086714D01*
X177090200Y-121753381D02*
X177090200Y-122610524D01*
X177137819Y-122705762D01*
X177233057Y-122753381D01*
X177328295Y-122753381D01*
X175355334Y-125267981D02*
X175022000Y-124791790D01*
X174783905Y-125267981D02*
X174783905Y-124267981D01*
X175164858Y-124267981D01*
X175260096Y-124315600D01*
X175307715Y-124363219D01*
X175355334Y-124458457D01*
X175355334Y-124601314D01*
X175307715Y-124696552D01*
X175260096Y-124744171D01*
X175164858Y-124791790D01*
X174783905Y-124791790D01*
X176355334Y-125172743D02*
X176307715Y-125220362D01*
X176164858Y-125267981D01*
X176069620Y-125267981D01*
X175926762Y-125220362D01*
X175831524Y-125125124D01*
X175783905Y-125029886D01*
X175736286Y-124839410D01*
X175736286Y-124696552D01*
X175783905Y-124506076D01*
X175831524Y-124410838D01*
X175926762Y-124315600D01*
X176069620Y-124267981D01*
X176164858Y-124267981D01*
X176307715Y-124315600D01*
X176355334Y-124363219D01*
X177307715Y-125267981D02*
X176736286Y-125267981D01*
X177022000Y-125267981D02*
X177022000Y-124267981D01*
X176926762Y-124410838D01*
X176831524Y-124506076D01*
X176736286Y-124553695D01*
X175355334Y-127604781D02*
X175022000Y-127128590D01*
X174783905Y-127604781D02*
X174783905Y-126604781D01*
X175164858Y-126604781D01*
X175260096Y-126652400D01*
X175307715Y-126700019D01*
X175355334Y-126795257D01*
X175355334Y-126938114D01*
X175307715Y-127033352D01*
X175260096Y-127080971D01*
X175164858Y-127128590D01*
X174783905Y-127128590D01*
X176355334Y-127509543D02*
X176307715Y-127557162D01*
X176164858Y-127604781D01*
X176069620Y-127604781D01*
X175926762Y-127557162D01*
X175831524Y-127461924D01*
X175783905Y-127366686D01*
X175736286Y-127176210D01*
X175736286Y-127033352D01*
X175783905Y-126842876D01*
X175831524Y-126747638D01*
X175926762Y-126652400D01*
X176069620Y-126604781D01*
X176164858Y-126604781D01*
X176307715Y-126652400D01*
X176355334Y-126700019D01*
X176974381Y-126604781D02*
X177069620Y-126604781D01*
X177164858Y-126652400D01*
X177212477Y-126700019D01*
X177260096Y-126795257D01*
X177307715Y-126985733D01*
X177307715Y-127223829D01*
X177260096Y-127414305D01*
X177212477Y-127509543D01*
X177164858Y-127557162D01*
X177069620Y-127604781D01*
X176974381Y-127604781D01*
X176879143Y-127557162D01*
X176831524Y-127509543D01*
X176783905Y-127414305D01*
X176736286Y-127223829D01*
X176736286Y-126985733D01*
X176783905Y-126795257D01*
X176831524Y-126700019D01*
X176879143Y-126652400D01*
X176974381Y-126604781D01*
X176584124Y-131354581D02*
X176917457Y-132354581D01*
X177250791Y-131354581D01*
X178012696Y-132306962D02*
X177917458Y-132354581D01*
X177726981Y-132354581D01*
X177631743Y-132306962D01*
X177584124Y-132259343D01*
X177536505Y-132164105D01*
X177536505Y-131878390D01*
X177584124Y-131783152D01*
X177631743Y-131735533D01*
X177726981Y-131687914D01*
X177917458Y-131687914D01*
X178012696Y-131735533D01*
X178869839Y-132306962D02*
X178774601Y-132354581D01*
X178584124Y-132354581D01*
X178488886Y-132306962D01*
X178441267Y-132259343D01*
X178393648Y-132164105D01*
X178393648Y-131878390D01*
X178441267Y-131783152D01*
X178488886Y-131735533D01*
X178584124Y-131687914D01*
X178774601Y-131687914D01*
X178869839Y-131735533D01*
D11*
X112000000Y-144000000D02*
G75*
G03X100000000Y-132000000I-12000000J0D01*
G01*
X100000000Y-86000000D02*
X100000000Y-132000000D01*
X182000000Y-86000000D02*
X182000000Y-132000000D01*
X112000000Y-146000000D02*
X139000000Y-146000000D01*
X170000000Y-74000000D02*
G75*
G03X182000000Y-86000000I12000000J0D01*
G01*
X100000000Y-86000000D02*
G75*
G03X112000000Y-74000000I0J12000000D01*
G01*
X169285000Y-112010000D02*
X162685000Y-118610000D01*
X126585000Y-114510000D02*
X130685000Y-118610000D01*
X169285000Y-92210000D02*
X169285000Y-112010000D01*
X129085000Y-92210000D02*
X126585000Y-94710000D01*
X169285000Y-92210000D02*
X129085000Y-92210000D01*
X126585000Y-94710000D02*
X126585000Y-114510000D01*
X130685000Y-118610000D02*
X162685000Y-118610000D01*
D13*
X152717500Y-151003000D02*
X152717500Y-129794000D01*
X168719500Y-151003000D02*
X168719500Y-129794000D01*
X152717500Y-129794000D02*
X168719500Y-129794000D01*
X152717500Y-151003000D02*
X168719500Y-151003000D01*
D14*
X134874000Y-129730500D02*
X134874000Y-143954500D01*
X134874000Y-143954500D02*
X137160000Y-143954500D01*
X151638000Y-129730500D02*
X151638000Y-143954500D01*
X151638000Y-143954500D02*
X149352000Y-143954500D01*
X135001000Y-129757500D02*
X151511000Y-129757500D01*
X137160000Y-143981500D02*
X149352000Y-143981500D01*
D11*
X110286000Y-130000000D02*
G75*
G03X110286000Y-130000000I-2286000J0D01*
G01*
X176286000Y-130000000D02*
G75*
G03X176286000Y-130000000I-2286000J0D01*
G01*
X176286000Y-90000000D02*
G75*
G03X176286000Y-90000000I-2286000J0D01*
G01*
X110286000Y-90000000D02*
G75*
G03X110286000Y-90000000I-2286000J0D01*
G01*
X149106000Y-115531000D02*
X150106000Y-115531000D01*
X150106000Y-113831000D02*
X149106000Y-113831000D01*
X140600000Y-126600000D02*
X140600000Y-127600000D01*
X142300000Y-127600000D02*
X142300000Y-126600000D01*
X136914000Y-96354000D02*
X137914000Y-96354000D01*
X137914000Y-94654000D02*
X136914000Y-94654000D01*
X145534000Y-94654000D02*
X144534000Y-94654000D01*
X144534000Y-96354000D02*
X145534000Y-96354000D01*
X147996000Y-98116000D02*
X152994000Y-98116000D01*
X148004000Y-97976000D02*
X152986000Y-97976000D01*
X148020000Y-97836000D02*
X150400000Y-97836000D01*
X150590000Y-97836000D02*
X152970000Y-97836000D01*
X148044000Y-97696000D02*
X150005000Y-97696000D01*
X150985000Y-97696000D02*
X152946000Y-97696000D01*
X148077000Y-97556000D02*
X149838000Y-97556000D01*
X151152000Y-97556000D02*
X152913000Y-97556000D01*
X148118000Y-97416000D02*
X149731000Y-97416000D01*
X151259000Y-97416000D02*
X152872000Y-97416000D01*
X148168000Y-97276000D02*
X149660000Y-97276000D01*
X151330000Y-97276000D02*
X152822000Y-97276000D01*
X148229000Y-97136000D02*
X149616000Y-97136000D01*
X151374000Y-97136000D02*
X152761000Y-97136000D01*
X148299000Y-96996000D02*
X149597000Y-96996000D01*
X151393000Y-96996000D02*
X152691000Y-96996000D01*
X148381000Y-96856000D02*
X149599000Y-96856000D01*
X151391000Y-96856000D02*
X152609000Y-96856000D01*
X148476000Y-96716000D02*
X149624000Y-96716000D01*
X151366000Y-96716000D02*
X152514000Y-96716000D01*
X148587000Y-96576000D02*
X149672000Y-96576000D01*
X151318000Y-96576000D02*
X152403000Y-96576000D01*
X148715000Y-96436000D02*
X149750000Y-96436000D01*
X151240000Y-96436000D02*
X152275000Y-96436000D01*
X148864000Y-96296000D02*
X149867000Y-96296000D01*
X151123000Y-96296000D02*
X152126000Y-96296000D01*
X149043000Y-96156000D02*
X150055000Y-96156000D01*
X150935000Y-96156000D02*
X151947000Y-96156000D01*
X149262000Y-96016000D02*
X151728000Y-96016000D01*
X149551000Y-95876000D02*
X151439000Y-95876000D01*
X150023000Y-95736000D02*
X150967000Y-95736000D01*
X151395000Y-96941000D02*
G75*
G03X151395000Y-96941000I-900000J0D01*
G01*
X153032500Y-98191000D02*
G75*
G03X153032500Y-98191000I-2537500J0D01*
G01*
X132707000Y-111926000D02*
X131707000Y-111926000D01*
X131707000Y-113626000D02*
X132707000Y-113626000D01*
X170141000Y-126357000D02*
X170141000Y-125357000D01*
X168441000Y-125357000D02*
X168441000Y-126357000D01*
X170150000Y-104000000D02*
X170150000Y-105000000D01*
X171850000Y-105000000D02*
X171850000Y-104000000D01*
X140600000Y-121650000D02*
X140600000Y-122650000D01*
X142300000Y-122650000D02*
X142300000Y-121650000D01*
X165748600Y-125382400D02*
X165748600Y-126382400D01*
X167448600Y-126382400D02*
X167448600Y-125382400D01*
X161481400Y-125433200D02*
X161481400Y-126433200D01*
X163181400Y-126433200D02*
X163181400Y-125433200D01*
X161251000Y-126433200D02*
X161251000Y-125433200D01*
X159551000Y-125433200D02*
X159551000Y-126433200D01*
X152792800Y-126433200D02*
X152792800Y-125433200D01*
X151092800Y-125433200D02*
X151092800Y-126433200D01*
X114753000Y-90126000D02*
X114753000Y-90326000D01*
X114753000Y-92720000D02*
X114753000Y-92540000D01*
X111525256Y-92409643D02*
G75*
G03X114753000Y-92726000I1727744J1003643D01*
G01*
X112200994Y-92539068D02*
G75*
G03X114304000Y-92540000I1052006J1133068D01*
G01*
X114740220Y-90099274D02*
G75*
G03X111503000Y-90446000I-1497220J-1306726D01*
G01*
X114266889Y-90326747D02*
G75*
G03X112219000Y-90346000I-1013889J-1079253D01*
G01*
X120087000Y-90126000D02*
X120087000Y-90326000D01*
X120087000Y-92720000D02*
X120087000Y-92540000D01*
X116859256Y-92409643D02*
G75*
G03X120087000Y-92726000I1727744J1003643D01*
G01*
X117534994Y-92539068D02*
G75*
G03X119638000Y-92540000I1052006J1133068D01*
G01*
X120074220Y-90099274D02*
G75*
G03X116837000Y-90446000I-1497220J-1306726D01*
G01*
X119600889Y-90326747D02*
G75*
G03X117553000Y-90346000I-1013889J-1079253D01*
G01*
X125167000Y-90126000D02*
X125167000Y-90326000D01*
X125167000Y-92720000D02*
X125167000Y-92540000D01*
X121939256Y-92409643D02*
G75*
G03X125167000Y-92726000I1727744J1003643D01*
G01*
X122614994Y-92539068D02*
G75*
G03X124718000Y-92540000I1052006J1133068D01*
G01*
X125154220Y-90099274D02*
G75*
G03X121917000Y-90446000I-1497220J-1306726D01*
G01*
X124680889Y-90326747D02*
G75*
G03X122633000Y-90346000I-1013889J-1079253D01*
G01*
D14*
X119380000Y-129730500D02*
X119380000Y-143954500D01*
X119380000Y-143954500D02*
X121666000Y-143954500D01*
X136144000Y-129730500D02*
X136144000Y-143954500D01*
X136144000Y-143954500D02*
X133858000Y-143954500D01*
X119507000Y-129757500D02*
X136017000Y-129757500D01*
X121666000Y-143981500D02*
X133858000Y-143981500D01*
D11*
X158750000Y-88900000D02*
X171450000Y-88900000D01*
X171450000Y-88900000D02*
X171450000Y-91440000D01*
X171450000Y-91440000D02*
X158750000Y-91440000D01*
X155930000Y-88620000D02*
X157480000Y-88620000D01*
X158750000Y-88900000D02*
X158750000Y-91440000D01*
X157480000Y-91720000D02*
X155930000Y-91720000D01*
X155930000Y-91720000D02*
X155930000Y-88620000D01*
X130810000Y-88900000D02*
X151130000Y-88900000D01*
X151130000Y-88900000D02*
X151130000Y-91440000D01*
X151130000Y-91440000D02*
X130810000Y-91440000D01*
X127990000Y-88620000D02*
X129540000Y-88620000D01*
X130810000Y-88900000D02*
X130810000Y-91440000D01*
X129540000Y-91720000D02*
X127990000Y-91720000D01*
X127990000Y-91720000D02*
X127990000Y-88620000D01*
X134112000Y-123952000D02*
X134112000Y-121412000D01*
X133832000Y-126772000D02*
X133832000Y-125222000D01*
X134112000Y-123952000D02*
X136652000Y-123952000D01*
X136932000Y-125222000D02*
X136932000Y-126772000D01*
X136932000Y-126772000D02*
X133832000Y-126772000D01*
X136652000Y-123952000D02*
X136652000Y-121412000D01*
X136652000Y-121412000D02*
X134112000Y-121412000D01*
X180365400Y-118516400D02*
X180365400Y-131216400D01*
X180365400Y-131216400D02*
X177825400Y-131216400D01*
X177825400Y-131216400D02*
X177825400Y-118516400D01*
X180645400Y-115696400D02*
X180645400Y-117246400D01*
X180365400Y-118516400D02*
X177825400Y-118516400D01*
X177545400Y-117246400D02*
X177545400Y-115696400D01*
X177545400Y-115696400D02*
X180645400Y-115696400D01*
X121920000Y-115570000D02*
X121920000Y-118110000D01*
X122200000Y-112750000D02*
X122200000Y-114300000D01*
X121920000Y-115570000D02*
X119380000Y-115570000D01*
X119100000Y-114300000D02*
X119100000Y-112750000D01*
X119100000Y-112750000D02*
X122200000Y-112750000D01*
X119380000Y-115570000D02*
X119380000Y-118110000D01*
X119380000Y-118110000D02*
X121920000Y-118110000D01*
X115609400Y-96887600D02*
X115609400Y-95687600D01*
X117359400Y-95687600D02*
X117359400Y-96887600D01*
X119013000Y-96866000D02*
X119013000Y-95666000D01*
X120763000Y-95666000D02*
X120763000Y-96866000D01*
X153176000Y-104359000D02*
X153176000Y-103159000D01*
X154926000Y-103159000D02*
X154926000Y-104359000D01*
X122124500Y-96789800D02*
X122124500Y-95589800D01*
X123874500Y-95589800D02*
X123874500Y-96789800D01*
X131607000Y-100725000D02*
X132807000Y-100725000D01*
X132807000Y-102475000D02*
X131607000Y-102475000D01*
X167100000Y-101375000D02*
X165900000Y-101375000D01*
X165900000Y-99625000D02*
X167100000Y-99625000D01*
X171875000Y-98900000D02*
X171875000Y-100100000D01*
X170125000Y-100100000D02*
X170125000Y-98900000D01*
X149675000Y-126000000D02*
X149675000Y-127200000D01*
X147925000Y-127200000D02*
X147925000Y-126000000D01*
X169178000Y-137125000D02*
X169178000Y-135925000D01*
X170928000Y-135925000D02*
X170928000Y-137125000D01*
X168900000Y-95125000D02*
X170100000Y-95125000D01*
X170100000Y-96875000D02*
X168900000Y-96875000D01*
X170100000Y-94875000D02*
X168900000Y-94875000D01*
X168900000Y-93125000D02*
X170100000Y-93125000D01*
X169178000Y-131791000D02*
X169178000Y-130591000D01*
X170928000Y-130591000D02*
X170928000Y-131791000D01*
X153176000Y-126457000D02*
X153176000Y-125257000D01*
X154926000Y-125257000D02*
X154926000Y-126457000D01*
X155462000Y-126457000D02*
X155462000Y-125257000D01*
X157212000Y-125257000D02*
X157212000Y-126457000D01*
X157646400Y-126482400D02*
X157646400Y-125282400D01*
X159396400Y-125282400D02*
X159396400Y-126482400D01*
X163590000Y-126431600D02*
X163590000Y-125231600D01*
X165340000Y-125231600D02*
X165340000Y-126431600D01*
D15*
X166981200Y-101587000D02*
X163018800Y-101587000D01*
X163018800Y-101587000D02*
X163018800Y-106413000D01*
X163018800Y-106413000D02*
X166981200Y-106413000D01*
X166981200Y-106413000D02*
X166981200Y-101587000D01*
X166981200Y-102095000D02*
X168073400Y-102095000D01*
X166981200Y-103365000D02*
X168073400Y-103365000D01*
X166981200Y-104635000D02*
X168073400Y-104635000D01*
X168073400Y-105905000D02*
X166981200Y-105905000D01*
X163018800Y-105905000D02*
X161926600Y-105905000D01*
X161926600Y-104635000D02*
X163018800Y-104635000D01*
X161926600Y-103365000D02*
X163018800Y-103365000D01*
X161926600Y-102095000D02*
X163018800Y-102095000D01*
X164227867Y-102323600D02*
G75*
G03X164227867Y-102323600I-472467J0D01*
G01*
X135636000Y-112308640D02*
X135636000Y-111216440D01*
X136906000Y-112308640D02*
X136906000Y-111216440D01*
X138176000Y-112308640D02*
X138176000Y-111216440D01*
X139446000Y-111216440D02*
X139446000Y-112308640D01*
X140716000Y-111216440D02*
X140716000Y-112308640D01*
X141986000Y-111216440D02*
X141986000Y-112308640D01*
X149606000Y-102605840D02*
X149606000Y-103698040D01*
X150876000Y-102605840D02*
X150876000Y-103698040D01*
X152146000Y-103698040D02*
X152146000Y-102605840D01*
X138176000Y-103698040D02*
X138176000Y-102605840D01*
X136906000Y-103698040D02*
X136906000Y-102605840D01*
X135636000Y-103698040D02*
X135636000Y-102605840D01*
D13*
X152841960Y-103708200D02*
X134940040Y-103708200D01*
X134940040Y-103708200D02*
X134940040Y-111206280D01*
X134940040Y-111206280D02*
X152841960Y-111206280D01*
X152841960Y-111206280D02*
X152841960Y-103708200D01*
D15*
X149606000Y-111216440D02*
X149606000Y-112308640D01*
X148336000Y-111216440D02*
X148336000Y-112308640D01*
X147066000Y-111216440D02*
X147066000Y-112308640D01*
X150876000Y-111216440D02*
X150876000Y-112308640D01*
X152146000Y-112308640D02*
X152146000Y-111216440D01*
X145796000Y-112308640D02*
X145796000Y-111216440D01*
X144526000Y-112308640D02*
X144526000Y-111216440D01*
X143256000Y-112308640D02*
X143256000Y-111216440D01*
X139446000Y-103698040D02*
X139446000Y-102605840D01*
X140716000Y-103698040D02*
X140716000Y-102605840D01*
X141986000Y-103698040D02*
X141986000Y-102605840D01*
X148336000Y-103698040D02*
X148336000Y-102605840D01*
X147066000Y-102605840D02*
X147066000Y-103698040D01*
X143256000Y-102605840D02*
X143256000Y-103698040D01*
X144526000Y-102605840D02*
X144526000Y-103698040D01*
X145796000Y-102605840D02*
X145796000Y-103698040D01*
D13*
X152179047Y-104810560D02*
G75*
G03X152179047Y-104810560I-472467J0D01*
G01*
D11*
X135900000Y-114125000D02*
X137100000Y-114125000D01*
X137100000Y-115875000D02*
X135900000Y-115875000D01*
X160641000Y-103540000D02*
X160641000Y-104740000D01*
X158891000Y-104740000D02*
X158891000Y-103540000D01*
X130923600Y-96480600D02*
X129723600Y-96480600D01*
X129723600Y-94730600D02*
X130923600Y-94730600D01*
X114808000Y-80899000D02*
X114808000Y-75819000D01*
X114808000Y-75819000D02*
X112268000Y-75819000D01*
X112268000Y-75819000D02*
X112268000Y-80899000D01*
X111988000Y-83719000D02*
X111988000Y-82169000D01*
X112268000Y-80899000D02*
X114808000Y-80899000D01*
X115088000Y-82169000D02*
X115088000Y-83719000D01*
X115088000Y-83719000D02*
X111988000Y-83719000D01*
X127150000Y-99100000D02*
X127150000Y-100100000D01*
X128850000Y-100100000D02*
X128850000Y-99100000D01*
X127141000Y-105574400D02*
X127141000Y-104374400D01*
X128891000Y-104374400D02*
X128891000Y-105574400D01*
X128891000Y-110398000D02*
X128891000Y-111598000D01*
X127141000Y-111598000D02*
X127141000Y-110398000D01*
D15*
X134620000Y-109296200D02*
X134620000Y-105333800D01*
X134620000Y-105333800D02*
X129794000Y-105333800D01*
X129794000Y-105333800D02*
X129794000Y-109296200D01*
X129794000Y-109296200D02*
X134620000Y-109296200D01*
X134112000Y-109296200D02*
X134112000Y-110388400D01*
X132842000Y-109296200D02*
X132842000Y-110388400D01*
X131572000Y-109296200D02*
X131572000Y-110388400D01*
X130302000Y-110388400D02*
X130302000Y-109296200D01*
X130302000Y-105333800D02*
X130302000Y-104241600D01*
X131572000Y-104241600D02*
X131572000Y-105333800D01*
X132842000Y-104241600D02*
X132842000Y-105333800D01*
X134112000Y-104241600D02*
X134112000Y-105333800D01*
X134355867Y-106070400D02*
G75*
G03X134355867Y-106070400I-472467J0D01*
G01*
X147142200Y-127152400D02*
X147142200Y-123190000D01*
X147142200Y-123190000D02*
X142316200Y-123190000D01*
X142316200Y-123190000D02*
X142316200Y-127152400D01*
X142316200Y-127152400D02*
X147142200Y-127152400D01*
X146634200Y-127152400D02*
X146634200Y-128244600D01*
X145364200Y-127152400D02*
X145364200Y-128244600D01*
X144094200Y-127152400D02*
X144094200Y-128244600D01*
X142824200Y-128244600D02*
X142824200Y-127152400D01*
X142824200Y-123190000D02*
X142824200Y-122097800D01*
X144094200Y-122097800D02*
X144094200Y-123190000D01*
X145364200Y-122097800D02*
X145364200Y-123190000D01*
X146634200Y-122097800D02*
X146634200Y-123190000D01*
X146878067Y-123926600D02*
G75*
G03X146878067Y-123926600I-472467J0D01*
G01*
D13*
X146812000Y-98806000D02*
G75*
G03X144526000Y-96520000I-2286000J0D01*
G01*
X137922000Y-100584000D02*
X144526000Y-100584000D01*
X144526000Y-97028000D02*
X137922000Y-97028000D01*
X144526000Y-100584000D02*
G75*
G03X146304000Y-98806000I0J1778000D01*
G01*
X146304000Y-98806000D02*
G75*
G03X144526000Y-97028000I-1778000J0D01*
G01*
X136144000Y-98806000D02*
G75*
G03X137922000Y-100584000I1778000J0D01*
G01*
X137922000Y-97028000D02*
G75*
G03X136144000Y-98806000I0J-1778000D01*
G01*
X144526000Y-101092000D02*
G75*
G03X146812000Y-98806000I0J2286000D01*
G01*
X144526000Y-101092000D02*
X137922000Y-101092000D01*
X137922000Y-96520000D02*
X144526000Y-96520000D01*
X135636000Y-98806000D02*
G75*
G03X137922000Y-101092000I2286000J0D01*
G01*
X137922000Y-96520000D02*
G75*
G03X135636000Y-98806000I0J-2286000D01*
G01*
D10*
X109918500Y-121856500D02*
X109918500Y-121856500D01*
X109918500Y-121856500D02*
X109918500Y-121856500D01*
X109918500Y-125920500D02*
X109918500Y-125920500D01*
X109918500Y-125920500D02*
X109918500Y-125920500D01*
X117221000Y-85055200D02*
X117221000Y-85055200D01*
X117221000Y-85055200D02*
X117221000Y-85055200D01*
D15*
X114300000Y-121716800D02*
X114300000Y-120624600D01*
X115570000Y-121716800D02*
X115570000Y-120624600D01*
X116840000Y-121716800D02*
X116840000Y-120624600D01*
X113030000Y-121716800D02*
X113030000Y-120624600D01*
X111760000Y-120624600D02*
X111760000Y-121716800D01*
X118110000Y-120624600D02*
X118110000Y-121716800D01*
X119380000Y-120624600D02*
X119380000Y-121716800D01*
X120650000Y-120624600D02*
X120650000Y-121716800D01*
X120650000Y-125679200D02*
X120650000Y-126771400D01*
X119380000Y-125679200D02*
X119380000Y-126771400D01*
X118110000Y-125679200D02*
X118110000Y-126771400D01*
X111760000Y-125679200D02*
X111760000Y-126771400D01*
X113030000Y-126771400D02*
X113030000Y-125679200D01*
X116840000Y-126771400D02*
X116840000Y-125679200D01*
X115570000Y-126771400D02*
X115570000Y-125679200D01*
X114300000Y-126771400D02*
X114300000Y-125679200D01*
X112613467Y-124942600D02*
G75*
G03X112613467Y-124942600I-472467J0D01*
G01*
X111379000Y-121716800D02*
X111379000Y-125679200D01*
X111379000Y-125679200D02*
X121031000Y-125679200D01*
X121031000Y-125679200D02*
X121031000Y-121716800D01*
X121031000Y-121716800D02*
X111379000Y-121716800D01*
D10*
X109363000Y-100695000D02*
X109363000Y-98695000D01*
X109363000Y-98695000D02*
X107363000Y-98695000D01*
X107363000Y-98695000D02*
X107363000Y-100695000D01*
X113363000Y-100695000D02*
X113363000Y-98695000D01*
X113363000Y-98695000D02*
X111363000Y-98695000D01*
X111363000Y-98695000D02*
X111363000Y-100695000D01*
X107363000Y-106695000D02*
X107363000Y-100695000D01*
X107363000Y-100695000D02*
X113363000Y-100695000D01*
X113363000Y-100695000D02*
X113363000Y-108695000D01*
X113363000Y-108695000D02*
X107363000Y-108695000D01*
X107363000Y-108695000D02*
X107363000Y-106695000D01*
D14*
X180362860Y-97513140D02*
X180863240Y-97513140D01*
X180362860Y-97711260D02*
X180362860Y-97513140D01*
X180863240Y-97711260D02*
X180362860Y-97711260D01*
X181361080Y-102613460D02*
X181361080Y-92610940D01*
X180863240Y-93111320D02*
X180863240Y-102113080D01*
X176862740Y-102613460D02*
X176862740Y-92610940D01*
X180362860Y-99514660D02*
X180863240Y-99514660D01*
X180362860Y-99712780D02*
X180362860Y-99514660D01*
X180863240Y-99712780D02*
X180362860Y-99712780D01*
X180863240Y-95712280D02*
X180362860Y-95712280D01*
X180362860Y-95712280D02*
X180362860Y-95514160D01*
X180362860Y-95514160D02*
X180863240Y-95514160D01*
X178061620Y-92610940D02*
X178061620Y-93111320D01*
X179362100Y-93111320D02*
X179362100Y-92610940D01*
X179362100Y-102113080D02*
X179362100Y-102613460D01*
X178061620Y-102113080D02*
X178061620Y-102613460D01*
X176862740Y-100114100D02*
X177363120Y-100114100D01*
X177363120Y-100114100D02*
X177363120Y-102113080D01*
X177363120Y-102113080D02*
X180863240Y-102113080D01*
X180863240Y-93111320D02*
X177363120Y-93111320D01*
X177363120Y-93111320D02*
X177363120Y-95110300D01*
X177363120Y-95110300D02*
X176862740Y-95110300D01*
X176862740Y-102613460D02*
X181361080Y-102613460D01*
X176862740Y-92610940D02*
X181361080Y-92610940D01*
X176862740Y-100914200D02*
X176662080Y-100914200D01*
X176662080Y-100914200D02*
X176662080Y-101213920D01*
X176662080Y-101213920D02*
X176862740Y-101213920D01*
X180413660Y-108511340D02*
X180914040Y-108511340D01*
X180413660Y-108709460D02*
X180413660Y-108511340D01*
X180914040Y-108709460D02*
X180413660Y-108709460D01*
X181411880Y-113611660D02*
X181411880Y-103609140D01*
X180914040Y-104109520D02*
X180914040Y-113111280D01*
X176913540Y-113611660D02*
X176913540Y-103609140D01*
X180413660Y-110512860D02*
X180914040Y-110512860D01*
X180413660Y-110710980D02*
X180413660Y-110512860D01*
X180914040Y-110710980D02*
X180413660Y-110710980D01*
X180914040Y-106710480D02*
X180413660Y-106710480D01*
X180413660Y-106710480D02*
X180413660Y-106512360D01*
X180413660Y-106512360D02*
X180914040Y-106512360D01*
X178112420Y-103609140D02*
X178112420Y-104109520D01*
X179412900Y-104109520D02*
X179412900Y-103609140D01*
X179412900Y-113111280D02*
X179412900Y-113611660D01*
X178112420Y-113111280D02*
X178112420Y-113611660D01*
X176913540Y-111112300D02*
X177413920Y-111112300D01*
X177413920Y-111112300D02*
X177413920Y-113111280D01*
X177413920Y-113111280D02*
X180914040Y-113111280D01*
X180914040Y-104109520D02*
X177413920Y-104109520D01*
X177413920Y-104109520D02*
X177413920Y-106108500D01*
X177413920Y-106108500D02*
X176913540Y-106108500D01*
X176913540Y-113611660D02*
X181411880Y-113611660D01*
X176913540Y-103609140D02*
X181411880Y-103609140D01*
X176913540Y-111912400D02*
X176712880Y-111912400D01*
X176712880Y-111912400D02*
X176712880Y-112212120D01*
X176712880Y-112212120D02*
X176913540Y-112212120D01*
X131070860Y-124110940D02*
X131571240Y-124110940D01*
X131070860Y-124309060D02*
X131070860Y-124110940D01*
X131571240Y-124309060D02*
X131070860Y-124309060D01*
X132069080Y-129211260D02*
X132069080Y-119208740D01*
X131571240Y-119709120D02*
X131571240Y-128710880D01*
X127570740Y-129211260D02*
X127570740Y-119208740D01*
X131070860Y-126112460D02*
X131571240Y-126112460D01*
X131070860Y-126310580D02*
X131070860Y-126112460D01*
X131571240Y-126310580D02*
X131070860Y-126310580D01*
X131571240Y-122310080D02*
X131070860Y-122310080D01*
X131070860Y-122310080D02*
X131070860Y-122111960D01*
X131070860Y-122111960D02*
X131571240Y-122111960D01*
X128769620Y-119208740D02*
X128769620Y-119709120D01*
X130070100Y-119709120D02*
X130070100Y-119208740D01*
X130070100Y-128710880D02*
X130070100Y-129211260D01*
X128769620Y-128710880D02*
X128769620Y-129211260D01*
X127570740Y-126711900D02*
X128071120Y-126711900D01*
X128071120Y-126711900D02*
X128071120Y-128710880D01*
X128071120Y-128710880D02*
X131571240Y-128710880D01*
X131571240Y-119709120D02*
X128071120Y-119709120D01*
X128071120Y-119709120D02*
X128071120Y-121708100D01*
X128071120Y-121708100D02*
X127570740Y-121708100D01*
X127570740Y-129211260D02*
X132069080Y-129211260D01*
X127570740Y-119208740D02*
X132069080Y-119208740D01*
X127570740Y-127512000D02*
X127370080Y-127512000D01*
X127370080Y-127512000D02*
X127370080Y-127811720D01*
X127370080Y-127811720D02*
X127570740Y-127811720D01*
X169522140Y-118224300D02*
X169021760Y-118224300D01*
X169522140Y-118026180D02*
X169522140Y-118224300D01*
X169021760Y-118026180D02*
X169522140Y-118026180D01*
X168523920Y-113123980D02*
X168523920Y-123126500D01*
X169021760Y-122626120D02*
X169021760Y-113624360D01*
X173022260Y-113123980D02*
X173022260Y-123126500D01*
X169522140Y-116222780D02*
X169021760Y-116222780D01*
X169522140Y-116024660D02*
X169522140Y-116222780D01*
X169021760Y-116024660D02*
X169522140Y-116024660D01*
X169021760Y-120025160D02*
X169522140Y-120025160D01*
X169522140Y-120025160D02*
X169522140Y-120223280D01*
X169522140Y-120223280D02*
X169021760Y-120223280D01*
X171823380Y-123126500D02*
X171823380Y-122626120D01*
X170522900Y-122626120D02*
X170522900Y-123126500D01*
X170522900Y-113624360D02*
X170522900Y-113123980D01*
X171823380Y-113624360D02*
X171823380Y-113123980D01*
X173022260Y-115623340D02*
X172521880Y-115623340D01*
X172521880Y-115623340D02*
X172521880Y-113624360D01*
X172521880Y-113624360D02*
X169021760Y-113624360D01*
X169021760Y-122626120D02*
X172521880Y-122626120D01*
X172521880Y-122626120D02*
X172521880Y-120627140D01*
X172521880Y-120627140D02*
X173022260Y-120627140D01*
X173022260Y-113123980D02*
X168523920Y-113123980D01*
X173022260Y-123126500D02*
X168523920Y-123126500D01*
X173022260Y-114823240D02*
X173222920Y-114823240D01*
X173222920Y-114823240D02*
X173222920Y-114523520D01*
X173222920Y-114523520D02*
X173022260Y-114523520D01*
D11*
X101727000Y-118872000D02*
X101727000Y-126492000D01*
X104267000Y-118872000D02*
X104267000Y-126492000D01*
X104547000Y-116052000D02*
X104547000Y-117602000D01*
X101727000Y-126492000D02*
X104267000Y-126492000D01*
X104267000Y-118872000D02*
X101727000Y-118872000D01*
X101447000Y-117602000D02*
X101447000Y-116052000D01*
X101447000Y-116052000D02*
X104547000Y-116052000D01*
X105410000Y-118872000D02*
X105410000Y-126492000D01*
X107950000Y-118872000D02*
X107950000Y-126492000D01*
X108230000Y-116052000D02*
X108230000Y-117602000D01*
X105410000Y-126492000D02*
X107950000Y-126492000D01*
X107950000Y-118872000D02*
X105410000Y-118872000D01*
X105130000Y-117602000D02*
X105130000Y-116052000D01*
X105130000Y-116052000D02*
X108230000Y-116052000D01*
X103424600Y-102117800D02*
X103424600Y-97119800D01*
X103284600Y-102109800D02*
X103284600Y-97127800D01*
X103144600Y-102093800D02*
X103144600Y-99713800D01*
X103144600Y-99523800D02*
X103144600Y-97143800D01*
X103004600Y-102069800D02*
X103004600Y-100108800D01*
X103004600Y-99128800D02*
X103004600Y-97167800D01*
X102864600Y-102036800D02*
X102864600Y-100275800D01*
X102864600Y-98961800D02*
X102864600Y-97200800D01*
X102724600Y-101995800D02*
X102724600Y-100382800D01*
X102724600Y-98854800D02*
X102724600Y-97241800D01*
X102584600Y-101945800D02*
X102584600Y-100453800D01*
X102584600Y-98783800D02*
X102584600Y-97291800D01*
X102444600Y-101884800D02*
X102444600Y-100497800D01*
X102444600Y-98739800D02*
X102444600Y-97352800D01*
X102304600Y-101814800D02*
X102304600Y-100516800D01*
X102304600Y-98720800D02*
X102304600Y-97422800D01*
X102164600Y-101732800D02*
X102164600Y-100514800D01*
X102164600Y-98722800D02*
X102164600Y-97504800D01*
X102024600Y-101637800D02*
X102024600Y-100489800D01*
X102024600Y-98747800D02*
X102024600Y-97599800D01*
X101884600Y-101526800D02*
X101884600Y-100441800D01*
X101884600Y-98795800D02*
X101884600Y-97710800D01*
X101744600Y-101398800D02*
X101744600Y-100363800D01*
X101744600Y-98873800D02*
X101744600Y-97838800D01*
X101604600Y-101249800D02*
X101604600Y-100246800D01*
X101604600Y-98990800D02*
X101604600Y-97987800D01*
X101464600Y-101070800D02*
X101464600Y-100058800D01*
X101464600Y-99178800D02*
X101464600Y-98166800D01*
X101324600Y-100851800D02*
X101324600Y-98385800D01*
X101184600Y-100562800D02*
X101184600Y-98674800D01*
X101044600Y-100090800D02*
X101044600Y-99146800D01*
X103149600Y-99618800D02*
G75*
G03X103149600Y-99618800I-900000J0D01*
G01*
X106037100Y-99618800D02*
G75*
G03X106037100Y-99618800I-2537500J0D01*
G01*
X114421000Y-84829000D02*
X122021000Y-84829000D01*
X122021000Y-84829000D02*
X122021000Y-74429000D01*
X122021000Y-74429000D02*
X114421000Y-74429000D01*
X114421000Y-74429000D02*
X114421000Y-84829000D01*
X113880000Y-131720000D02*
X118960000Y-131720000D01*
X118960000Y-131720000D02*
X118960000Y-129180000D01*
X118960000Y-129180000D02*
X113880000Y-129180000D01*
X111060000Y-128900000D02*
X112610000Y-128900000D01*
X113880000Y-129180000D02*
X113880000Y-131720000D01*
X112610000Y-132000000D02*
X111060000Y-132000000D01*
X111060000Y-132000000D02*
X111060000Y-128900000D01*
X137570000Y-126880000D02*
X140110000Y-126880000D01*
X134750000Y-126600000D02*
X136300000Y-126600000D01*
X137570000Y-126880000D02*
X137570000Y-129420000D01*
X136300000Y-129700000D02*
X134750000Y-129700000D01*
X134750000Y-129700000D02*
X134750000Y-126600000D01*
X137570000Y-129420000D02*
X140110000Y-129420000D01*
X140110000Y-129420000D02*
X140110000Y-126880000D01*
X124725400Y-123729200D02*
X124725400Y-124929200D01*
X122975400Y-124929200D02*
X122975400Y-123729200D01*
X122419800Y-116722400D02*
X122419800Y-114722400D01*
X124569800Y-114722400D02*
X124569800Y-116722400D01*
X117348000Y-136779000D02*
X117348000Y-139319000D01*
X117628000Y-133959000D02*
X117628000Y-135509000D01*
X117348000Y-136779000D02*
X114808000Y-136779000D01*
X114528000Y-135509000D02*
X114528000Y-133959000D01*
X114528000Y-133959000D02*
X117628000Y-133959000D01*
X114808000Y-136779000D02*
X114808000Y-139319000D01*
X114808000Y-139319000D02*
X117348000Y-139319000D01*
X140165400Y-122952000D02*
X140165400Y-124952000D01*
X138015400Y-124952000D02*
X138015400Y-122952000D01*
X117628000Y-141579000D02*
X117628000Y-143129000D01*
X114528000Y-143129000D02*
X114528000Y-141579000D01*
X114528000Y-141579000D02*
X117628000Y-141579000D01*
X114808000Y-144399000D02*
X117348000Y-144399000D01*
X155093000Y-88493000D02*
X155093000Y-90043000D01*
X151993000Y-90043000D02*
X151993000Y-88493000D01*
X151993000Y-88493000D02*
X155093000Y-88493000D01*
X152273000Y-91313000D02*
X154813000Y-91313000D01*
X156908500Y-114236500D02*
X164528500Y-114236500D01*
X156908500Y-111696500D02*
X164528500Y-111696500D01*
X154088500Y-111416500D02*
X155638500Y-111416500D01*
X164528500Y-114236500D02*
X164528500Y-111696500D01*
X156908500Y-111696500D02*
X156908500Y-114236500D01*
X155638500Y-114516500D02*
X154088500Y-114516500D01*
X154088500Y-114516500D02*
X154088500Y-111416500D01*
D14*
X121053860Y-104421940D02*
X121554240Y-104421940D01*
X121053860Y-104620060D02*
X121053860Y-104421940D01*
X121554240Y-104620060D02*
X121053860Y-104620060D01*
X122052080Y-109522260D02*
X122052080Y-99519740D01*
X121554240Y-100020120D02*
X121554240Y-109021880D01*
X117553740Y-109522260D02*
X117553740Y-99519740D01*
X121053860Y-106423460D02*
X121554240Y-106423460D01*
X121053860Y-106621580D02*
X121053860Y-106423460D01*
X121554240Y-106621580D02*
X121053860Y-106621580D01*
X121554240Y-102621080D02*
X121053860Y-102621080D01*
X121053860Y-102621080D02*
X121053860Y-102422960D01*
X121053860Y-102422960D02*
X121554240Y-102422960D01*
X118752620Y-99519740D02*
X118752620Y-100020120D01*
X120053100Y-100020120D02*
X120053100Y-99519740D01*
X120053100Y-109021880D02*
X120053100Y-109522260D01*
X118752620Y-109021880D02*
X118752620Y-109522260D01*
X117553740Y-107022900D02*
X118054120Y-107022900D01*
X118054120Y-107022900D02*
X118054120Y-109021880D01*
X118054120Y-109021880D02*
X121554240Y-109021880D01*
X121554240Y-100020120D02*
X118054120Y-100020120D01*
X118054120Y-100020120D02*
X118054120Y-102019100D01*
X118054120Y-102019100D02*
X117553740Y-102019100D01*
X117553740Y-109522260D02*
X122052080Y-109522260D01*
X117553740Y-99519740D02*
X122052080Y-99519740D01*
X117553740Y-107823000D02*
X117353080Y-107823000D01*
X117353080Y-107823000D02*
X117353080Y-108122720D01*
X117353080Y-108122720D02*
X117553740Y-108122720D01*
D11*
X167043214Y-110658357D02*
X167043214Y-111629786D01*
X167100357Y-111744071D01*
X167157500Y-111801214D01*
X167271786Y-111858357D01*
X167500357Y-111858357D01*
X167614643Y-111801214D01*
X167671786Y-111744071D01*
X167728929Y-111629786D01*
X167728929Y-110658357D01*
X168928929Y-111858357D02*
X168243214Y-111858357D01*
X168586072Y-111858357D02*
X168586072Y-110658357D01*
X168471786Y-110829786D01*
X168357500Y-110944071D01*
X168243214Y-111001214D01*
D16*
X159450252Y-140966610D02*
X159450252Y-142261848D01*
X159526443Y-142414229D01*
X159602633Y-142490419D01*
X159755014Y-142566610D01*
X160059776Y-142566610D01*
X160212157Y-142490419D01*
X160288348Y-142414229D01*
X160364538Y-142261848D01*
X160364538Y-140966610D01*
X161888347Y-140966610D02*
X161126442Y-140966610D01*
X161050252Y-141728514D01*
X161126442Y-141652324D01*
X161278823Y-141576133D01*
X161659776Y-141576133D01*
X161812157Y-141652324D01*
X161888347Y-141728514D01*
X161964538Y-141880895D01*
X161964538Y-142261848D01*
X161888347Y-142414229D01*
X161812157Y-142490419D01*
X161659776Y-142566610D01*
X161278823Y-142566610D01*
X161126442Y-142490419D01*
X161050252Y-142414229D01*
X157506213Y-153504810D02*
X157506213Y-151904810D01*
X157506213Y-152666714D02*
X158420499Y-152666714D01*
X158420499Y-153504810D02*
X158420499Y-151904810D01*
X160096689Y-153504810D02*
X159563356Y-152742905D01*
X159182403Y-153504810D02*
X159182403Y-151904810D01*
X159791927Y-151904810D01*
X159944308Y-151981000D01*
X160020499Y-152057190D01*
X160096689Y-152209571D01*
X160096689Y-152438143D01*
X160020499Y-152590524D01*
X159944308Y-152666714D01*
X159791927Y-152742905D01*
X159182403Y-152742905D01*
X160858594Y-153504810D02*
X161163356Y-153504810D01*
X161315737Y-153428619D01*
X161391927Y-153352429D01*
X161544308Y-153123857D01*
X161620499Y-152819095D01*
X161620499Y-152209571D01*
X161544308Y-152057190D01*
X161468118Y-151981000D01*
X161315737Y-151904810D01*
X161010975Y-151904810D01*
X160858594Y-151981000D01*
X160782403Y-152057190D01*
X160706213Y-152209571D01*
X160706213Y-152590524D01*
X160782403Y-152742905D01*
X160858594Y-152819095D01*
X161010975Y-152895286D01*
X161315737Y-152895286D01*
X161468118Y-152819095D01*
X161544308Y-152742905D01*
X161620499Y-152590524D01*
X163144309Y-153504810D02*
X162230023Y-153504810D01*
X162687166Y-153504810D02*
X162687166Y-151904810D01*
X162534785Y-152133381D01*
X162382404Y-152285762D01*
X162230023Y-152361952D01*
X164668119Y-153504810D02*
X163753833Y-153504810D01*
X164210976Y-153504810D02*
X164210976Y-151904810D01*
X164058595Y-152133381D01*
X163906214Y-152285762D01*
X163753833Y-152361952D01*
X166191929Y-153504810D02*
X165277643Y-153504810D01*
X165734786Y-153504810D02*
X165734786Y-151904810D01*
X165582405Y-152133381D01*
X165430024Y-152285762D01*
X165277643Y-152361952D01*
X167182405Y-151904810D02*
X167334786Y-151904810D01*
X167487167Y-151981000D01*
X167563358Y-152057190D01*
X167639548Y-152209571D01*
X167715739Y-152514333D01*
X167715739Y-152895286D01*
X167639548Y-153200048D01*
X167563358Y-153352429D01*
X167487167Y-153428619D01*
X167334786Y-153504810D01*
X167182405Y-153504810D01*
X167030024Y-153428619D01*
X166953834Y-153352429D01*
X166877643Y-153200048D01*
X166801453Y-152895286D01*
X166801453Y-152514333D01*
X166877643Y-152209571D01*
X166953834Y-152057190D01*
X167030024Y-151981000D01*
X167182405Y-151904810D01*
X169163358Y-151904810D02*
X168401453Y-151904810D01*
X168325263Y-152666714D01*
X168401453Y-152590524D01*
X168553834Y-152514333D01*
X168934787Y-152514333D01*
X169087168Y-152590524D01*
X169163358Y-152666714D01*
X169239549Y-152819095D01*
X169239549Y-153200048D01*
X169163358Y-153352429D01*
X169087168Y-153428619D01*
X168934787Y-153504810D01*
X168553834Y-153504810D01*
X168401453Y-153428619D01*
X168325263Y-153352429D01*
X169849073Y-153047667D02*
X170610978Y-153047667D01*
X169696692Y-153504810D02*
X170230025Y-151904810D01*
X170763359Y-153504810D01*
D17*
X143002000Y-142103929D02*
X143002000Y-143192500D01*
X142929428Y-143410214D01*
X142784285Y-143555357D01*
X142566571Y-143627929D01*
X142421428Y-143627929D01*
X143655143Y-142249071D02*
X143727714Y-142176500D01*
X143872857Y-142103929D01*
X144235714Y-142103929D01*
X144380857Y-142176500D01*
X144453428Y-142249071D01*
X144526000Y-142394214D01*
X144526000Y-142539357D01*
X144453428Y-142757071D01*
X143582571Y-143627929D01*
X144526000Y-143627929D01*
X142276286Y-139050486D02*
X142203715Y-139123057D01*
X141986001Y-139195629D01*
X141840858Y-139195629D01*
X141623143Y-139123057D01*
X141478001Y-138977914D01*
X141405429Y-138832771D01*
X141332858Y-138542486D01*
X141332858Y-138324771D01*
X141405429Y-138034486D01*
X141478001Y-137889343D01*
X141623143Y-137744200D01*
X141840858Y-137671629D01*
X141986001Y-137671629D01*
X142203715Y-137744200D01*
X142276286Y-137816771D01*
X142856858Y-138760200D02*
X143582572Y-138760200D01*
X142711715Y-139195629D02*
X143219715Y-137671629D01*
X143727715Y-139195629D01*
X144235715Y-139195629D02*
X144235715Y-137671629D01*
X145106572Y-139195629D01*
X145106572Y-137671629D01*
D11*
X152583334Y-115107143D02*
X152535715Y-115154762D01*
X152392858Y-115202381D01*
X152297620Y-115202381D01*
X152154762Y-115154762D01*
X152059524Y-115059524D01*
X152011905Y-114964286D01*
X151964286Y-114773810D01*
X151964286Y-114630952D01*
X152011905Y-114440476D01*
X152059524Y-114345238D01*
X152154762Y-114250000D01*
X152297620Y-114202381D01*
X152392858Y-114202381D01*
X152535715Y-114250000D01*
X152583334Y-114297619D01*
X153535715Y-115202381D02*
X152964286Y-115202381D01*
X153250000Y-115202381D02*
X153250000Y-114202381D01*
X153154762Y-114345238D01*
X153059524Y-114440476D01*
X152964286Y-114488095D01*
X141758943Y-130621066D02*
X141806562Y-130668685D01*
X141854181Y-130811542D01*
X141854181Y-130906780D01*
X141806562Y-131049638D01*
X141711324Y-131144876D01*
X141616086Y-131192495D01*
X141425610Y-131240114D01*
X141282752Y-131240114D01*
X141092276Y-131192495D01*
X140997038Y-131144876D01*
X140901800Y-131049638D01*
X140854181Y-130906780D01*
X140854181Y-130811542D01*
X140901800Y-130668685D01*
X140949419Y-130621066D01*
X140949419Y-130240114D02*
X140901800Y-130192495D01*
X140854181Y-130097257D01*
X140854181Y-129859161D01*
X140901800Y-129763923D01*
X140949419Y-129716304D01*
X141044657Y-129668685D01*
X141139895Y-129668685D01*
X141282752Y-129716304D01*
X141854181Y-130287733D01*
X141854181Y-129668685D01*
X134072334Y-95924643D02*
X134024715Y-95972262D01*
X133881858Y-96019881D01*
X133786620Y-96019881D01*
X133643762Y-95972262D01*
X133548524Y-95877024D01*
X133500905Y-95781786D01*
X133453286Y-95591310D01*
X133453286Y-95448452D01*
X133500905Y-95257976D01*
X133548524Y-95162738D01*
X133643762Y-95067500D01*
X133786620Y-95019881D01*
X133881858Y-95019881D01*
X134024715Y-95067500D01*
X134072334Y-95115119D01*
X134405667Y-95019881D02*
X135024715Y-95019881D01*
X134691381Y-95400833D01*
X134834239Y-95400833D01*
X134929477Y-95448452D01*
X134977096Y-95496071D01*
X135024715Y-95591310D01*
X135024715Y-95829405D01*
X134977096Y-95924643D01*
X134929477Y-95972262D01*
X134834239Y-96019881D01*
X134548524Y-96019881D01*
X134453286Y-95972262D01*
X134405667Y-95924643D01*
X141692334Y-95797643D02*
X141644715Y-95845262D01*
X141501858Y-95892881D01*
X141406620Y-95892881D01*
X141263762Y-95845262D01*
X141168524Y-95750024D01*
X141120905Y-95654786D01*
X141073286Y-95464310D01*
X141073286Y-95321452D01*
X141120905Y-95130976D01*
X141168524Y-95035738D01*
X141263762Y-94940500D01*
X141406620Y-94892881D01*
X141501858Y-94892881D01*
X141644715Y-94940500D01*
X141692334Y-94988119D01*
X142549477Y-95226214D02*
X142549477Y-95892881D01*
X142311381Y-94845262D02*
X142073286Y-95559548D01*
X142692334Y-95559548D01*
X154433543Y-98515466D02*
X154481162Y-98563085D01*
X154528781Y-98705942D01*
X154528781Y-98801180D01*
X154481162Y-98944038D01*
X154385924Y-99039276D01*
X154290686Y-99086895D01*
X154100210Y-99134514D01*
X153957352Y-99134514D01*
X153766876Y-99086895D01*
X153671638Y-99039276D01*
X153576400Y-98944038D01*
X153528781Y-98801180D01*
X153528781Y-98705942D01*
X153576400Y-98563085D01*
X153624019Y-98515466D01*
X153528781Y-97610704D02*
X153528781Y-98086895D01*
X154004971Y-98134514D01*
X153957352Y-98086895D01*
X153909733Y-97991657D01*
X153909733Y-97753561D01*
X153957352Y-97658323D01*
X154004971Y-97610704D01*
X154100210Y-97563085D01*
X154338305Y-97563085D01*
X154433543Y-97610704D01*
X154481162Y-97658323D01*
X154528781Y-97753561D01*
X154528781Y-97991657D01*
X154481162Y-98086895D01*
X154433543Y-98134514D01*
X132929334Y-114758743D02*
X132881715Y-114806362D01*
X132738858Y-114853981D01*
X132643620Y-114853981D01*
X132500762Y-114806362D01*
X132405524Y-114711124D01*
X132357905Y-114615886D01*
X132310286Y-114425410D01*
X132310286Y-114282552D01*
X132357905Y-114092076D01*
X132405524Y-113996838D01*
X132500762Y-113901600D01*
X132643620Y-113853981D01*
X132738858Y-113853981D01*
X132881715Y-113901600D01*
X132929334Y-113949219D01*
X133786477Y-113853981D02*
X133596000Y-113853981D01*
X133500762Y-113901600D01*
X133453143Y-113949219D01*
X133357905Y-114092076D01*
X133310286Y-114282552D01*
X133310286Y-114663505D01*
X133357905Y-114758743D01*
X133405524Y-114806362D01*
X133500762Y-114853981D01*
X133691239Y-114853981D01*
X133786477Y-114806362D01*
X133834096Y-114758743D01*
X133881715Y-114663505D01*
X133881715Y-114425410D01*
X133834096Y-114330171D01*
X133786477Y-114282552D01*
X133691239Y-114234933D01*
X133500762Y-114234933D01*
X133405524Y-114282552D01*
X133357905Y-114330171D01*
X133310286Y-114425410D01*
X171426143Y-125261666D02*
X171473762Y-125309285D01*
X171521381Y-125452142D01*
X171521381Y-125547380D01*
X171473762Y-125690238D01*
X171378524Y-125785476D01*
X171283286Y-125833095D01*
X171092810Y-125880714D01*
X170949952Y-125880714D01*
X170759476Y-125833095D01*
X170664238Y-125785476D01*
X170569000Y-125690238D01*
X170521381Y-125547380D01*
X170521381Y-125452142D01*
X170569000Y-125309285D01*
X170616619Y-125261666D01*
X170521381Y-124928333D02*
X170521381Y-124261666D01*
X171521381Y-124690238D01*
X173307143Y-104666666D02*
X173354762Y-104714285D01*
X173402381Y-104857142D01*
X173402381Y-104952380D01*
X173354762Y-105095238D01*
X173259524Y-105190476D01*
X173164286Y-105238095D01*
X172973810Y-105285714D01*
X172830952Y-105285714D01*
X172640476Y-105238095D01*
X172545238Y-105190476D01*
X172450000Y-105095238D01*
X172402381Y-104952380D01*
X172402381Y-104857142D01*
X172450000Y-104714285D01*
X172497619Y-104666666D01*
X172830952Y-104095238D02*
X172783333Y-104190476D01*
X172735714Y-104238095D01*
X172640476Y-104285714D01*
X172592857Y-104285714D01*
X172497619Y-104238095D01*
X172450000Y-104190476D01*
X172402381Y-104095238D01*
X172402381Y-103904761D01*
X172450000Y-103809523D01*
X172497619Y-103761904D01*
X172592857Y-103714285D01*
X172640476Y-103714285D01*
X172735714Y-103761904D01*
X172783333Y-103809523D01*
X172830952Y-103904761D01*
X172830952Y-104095238D01*
X172878571Y-104190476D01*
X172926190Y-104238095D01*
X173021429Y-104285714D01*
X173211905Y-104285714D01*
X173307143Y-104238095D01*
X173354762Y-104190476D01*
X173402381Y-104095238D01*
X173402381Y-103904761D01*
X173354762Y-103809523D01*
X173307143Y-103761904D01*
X173211905Y-103714285D01*
X173021429Y-103714285D01*
X172926190Y-103761904D01*
X172878571Y-103809523D01*
X172830952Y-103904761D01*
X143460743Y-119876866D02*
X143508362Y-119924485D01*
X143555981Y-120067342D01*
X143555981Y-120162580D01*
X143508362Y-120305438D01*
X143413124Y-120400676D01*
X143317886Y-120448295D01*
X143127410Y-120495914D01*
X142984552Y-120495914D01*
X142794076Y-120448295D01*
X142698838Y-120400676D01*
X142603600Y-120305438D01*
X142555981Y-120162580D01*
X142555981Y-120067342D01*
X142603600Y-119924485D01*
X142651219Y-119876866D01*
X143555981Y-119400676D02*
X143555981Y-119210200D01*
X143508362Y-119114961D01*
X143460743Y-119067342D01*
X143317886Y-118972104D01*
X143127410Y-118924485D01*
X142746457Y-118924485D01*
X142651219Y-118972104D01*
X142603600Y-119019723D01*
X142555981Y-119114961D01*
X142555981Y-119305438D01*
X142603600Y-119400676D01*
X142651219Y-119448295D01*
X142746457Y-119495914D01*
X142984552Y-119495914D01*
X143079790Y-119448295D01*
X143127410Y-119400676D01*
X143175029Y-119305438D01*
X143175029Y-119114961D01*
X143127410Y-119019723D01*
X143079790Y-118972104D01*
X142984552Y-118924485D01*
X166752543Y-122613657D02*
X166800162Y-122661276D01*
X166847781Y-122804133D01*
X166847781Y-122899371D01*
X166800162Y-123042229D01*
X166704924Y-123137467D01*
X166609686Y-123185086D01*
X166419210Y-123232705D01*
X166276352Y-123232705D01*
X166085876Y-123185086D01*
X165990638Y-123137467D01*
X165895400Y-123042229D01*
X165847781Y-122899371D01*
X165847781Y-122804133D01*
X165895400Y-122661276D01*
X165943019Y-122613657D01*
X166847781Y-121661276D02*
X166847781Y-122232705D01*
X166847781Y-121946991D02*
X165847781Y-121946991D01*
X165990638Y-122042229D01*
X166085876Y-122137467D01*
X166133495Y-122232705D01*
X165847781Y-121042229D02*
X165847781Y-120946990D01*
X165895400Y-120851752D01*
X165943019Y-120804133D01*
X166038257Y-120756514D01*
X166228733Y-120708895D01*
X166466829Y-120708895D01*
X166657305Y-120756514D01*
X166752543Y-120804133D01*
X166800162Y-120851752D01*
X166847781Y-120946990D01*
X166847781Y-121042229D01*
X166800162Y-121137467D01*
X166752543Y-121185086D01*
X166657305Y-121232705D01*
X166466829Y-121280324D01*
X166228733Y-121280324D01*
X166038257Y-121232705D01*
X165943019Y-121185086D01*
X165895400Y-121137467D01*
X165847781Y-121042229D01*
X162688543Y-122537457D02*
X162736162Y-122585076D01*
X162783781Y-122727933D01*
X162783781Y-122823171D01*
X162736162Y-122966029D01*
X162640924Y-123061267D01*
X162545686Y-123108886D01*
X162355210Y-123156505D01*
X162212352Y-123156505D01*
X162021876Y-123108886D01*
X161926638Y-123061267D01*
X161831400Y-122966029D01*
X161783781Y-122823171D01*
X161783781Y-122727933D01*
X161831400Y-122585076D01*
X161879019Y-122537457D01*
X162783781Y-121585076D02*
X162783781Y-122156505D01*
X162783781Y-121870791D02*
X161783781Y-121870791D01*
X161926638Y-121966029D01*
X162021876Y-122061267D01*
X162069495Y-122156505D01*
X162783781Y-120632695D02*
X162783781Y-121204124D01*
X162783781Y-120918410D02*
X161783781Y-120918410D01*
X161926638Y-121013648D01*
X162021876Y-121108886D01*
X162069495Y-121204124D01*
X160631143Y-122512057D02*
X160678762Y-122559676D01*
X160726381Y-122702533D01*
X160726381Y-122797771D01*
X160678762Y-122940629D01*
X160583524Y-123035867D01*
X160488286Y-123083486D01*
X160297810Y-123131105D01*
X160154952Y-123131105D01*
X159964476Y-123083486D01*
X159869238Y-123035867D01*
X159774000Y-122940629D01*
X159726381Y-122797771D01*
X159726381Y-122702533D01*
X159774000Y-122559676D01*
X159821619Y-122512057D01*
X160726381Y-121559676D02*
X160726381Y-122131105D01*
X160726381Y-121845391D02*
X159726381Y-121845391D01*
X159869238Y-121940629D01*
X159964476Y-122035867D01*
X160012095Y-122131105D01*
X159821619Y-121178724D02*
X159774000Y-121131105D01*
X159726381Y-121035867D01*
X159726381Y-120797771D01*
X159774000Y-120702533D01*
X159821619Y-120654914D01*
X159916857Y-120607295D01*
X160012095Y-120607295D01*
X160154952Y-120654914D01*
X160726381Y-121226343D01*
X160726381Y-120607295D01*
X152376143Y-122740657D02*
X152423762Y-122788276D01*
X152471381Y-122931133D01*
X152471381Y-123026371D01*
X152423762Y-123169229D01*
X152328524Y-123264467D01*
X152233286Y-123312086D01*
X152042810Y-123359705D01*
X151899952Y-123359705D01*
X151709476Y-123312086D01*
X151614238Y-123264467D01*
X151519000Y-123169229D01*
X151471381Y-123026371D01*
X151471381Y-122931133D01*
X151519000Y-122788276D01*
X151566619Y-122740657D01*
X152471381Y-121788276D02*
X152471381Y-122359705D01*
X152471381Y-122073991D02*
X151471381Y-122073991D01*
X151614238Y-122169229D01*
X151709476Y-122264467D01*
X151757095Y-122359705D01*
X151471381Y-121454943D02*
X151471381Y-120835895D01*
X151852333Y-121169229D01*
X151852333Y-121026371D01*
X151899952Y-120931133D01*
X151947571Y-120883514D01*
X152042810Y-120835895D01*
X152280905Y-120835895D01*
X152376143Y-120883514D01*
X152423762Y-120931133D01*
X152471381Y-121026371D01*
X152471381Y-121312086D01*
X152423762Y-121407324D01*
X152376143Y-121454943D01*
X111905905Y-88832381D02*
X111905905Y-87832381D01*
X112144000Y-87832381D01*
X112286858Y-87880000D01*
X112382096Y-87975238D01*
X112429715Y-88070476D01*
X112477334Y-88260952D01*
X112477334Y-88403810D01*
X112429715Y-88594286D01*
X112382096Y-88689524D01*
X112286858Y-88784762D01*
X112144000Y-88832381D01*
X111905905Y-88832381D01*
X113429715Y-88832381D02*
X112858286Y-88832381D01*
X113144000Y-88832381D02*
X113144000Y-87832381D01*
X113048762Y-87975238D01*
X112953524Y-88070476D01*
X112858286Y-88118095D01*
X115982095Y-90152381D02*
X115982095Y-89152381D01*
X116553524Y-90152381D02*
X116124952Y-89580952D01*
X116553524Y-89152381D02*
X115982095Y-89723810D01*
X117239905Y-88832381D02*
X117239905Y-87832381D01*
X117478000Y-87832381D01*
X117620858Y-87880000D01*
X117716096Y-87975238D01*
X117763715Y-88070476D01*
X117811334Y-88260952D01*
X117811334Y-88403810D01*
X117763715Y-88594286D01*
X117716096Y-88689524D01*
X117620858Y-88784762D01*
X117478000Y-88832381D01*
X117239905Y-88832381D01*
X118192286Y-87927619D02*
X118239905Y-87880000D01*
X118335143Y-87832381D01*
X118573239Y-87832381D01*
X118668477Y-87880000D01*
X118716096Y-87927619D01*
X118763715Y-88022857D01*
X118763715Y-88118095D01*
X118716096Y-88260952D01*
X118144667Y-88832381D01*
X118763715Y-88832381D01*
X121316095Y-90152381D02*
X121316095Y-89152381D01*
X121887524Y-90152381D02*
X121458952Y-89580952D01*
X121887524Y-89152381D02*
X121316095Y-89723810D01*
X122319905Y-88832381D02*
X122319905Y-87832381D01*
X122558000Y-87832381D01*
X122700858Y-87880000D01*
X122796096Y-87975238D01*
X122843715Y-88070476D01*
X122891334Y-88260952D01*
X122891334Y-88403810D01*
X122843715Y-88594286D01*
X122796096Y-88689524D01*
X122700858Y-88784762D01*
X122558000Y-88832381D01*
X122319905Y-88832381D01*
X123224667Y-87832381D02*
X123843715Y-87832381D01*
X123510381Y-88213333D01*
X123653239Y-88213333D01*
X123748477Y-88260952D01*
X123796096Y-88308571D01*
X123843715Y-88403810D01*
X123843715Y-88641905D01*
X123796096Y-88737143D01*
X123748477Y-88784762D01*
X123653239Y-88832381D01*
X123367524Y-88832381D01*
X123272286Y-88784762D01*
X123224667Y-88737143D01*
X126396095Y-90152381D02*
X126396095Y-89152381D01*
X126967524Y-90152381D02*
X126538952Y-89580952D01*
X126967524Y-89152381D02*
X126396095Y-89723810D01*
D17*
X127190500Y-142040429D02*
X127190500Y-143129000D01*
X127117928Y-143346714D01*
X126972785Y-143491857D01*
X126755071Y-143564429D01*
X126609928Y-143564429D01*
X128714500Y-143564429D02*
X127843643Y-143564429D01*
X128279071Y-143564429D02*
X128279071Y-142040429D01*
X128133928Y-142258143D01*
X127988786Y-142403286D01*
X127843643Y-142475857D01*
X124394686Y-139123057D02*
X124539829Y-139195629D01*
X124830114Y-139195629D01*
X124975257Y-139123057D01*
X125047829Y-138977914D01*
X125047829Y-138905343D01*
X124975257Y-138760200D01*
X124830114Y-138687629D01*
X124612400Y-138687629D01*
X124467257Y-138615057D01*
X124394686Y-138469914D01*
X124394686Y-138397343D01*
X124467257Y-138252200D01*
X124612400Y-138179629D01*
X124830114Y-138179629D01*
X124975257Y-138252200D01*
X125918685Y-138324771D02*
X125773543Y-138252200D01*
X125700971Y-138179629D01*
X125628400Y-138034486D01*
X125628400Y-137961914D01*
X125700971Y-137816771D01*
X125773543Y-137744200D01*
X125918685Y-137671629D01*
X126208971Y-137671629D01*
X126354114Y-137744200D01*
X126426685Y-137816771D01*
X126499257Y-137961914D01*
X126499257Y-138034486D01*
X126426685Y-138179629D01*
X126354114Y-138252200D01*
X126208971Y-138324771D01*
X125918685Y-138324771D01*
X125773543Y-138397343D01*
X125700971Y-138469914D01*
X125628400Y-138615057D01*
X125628400Y-138905343D01*
X125700971Y-139050486D01*
X125773543Y-139123057D01*
X125918685Y-139195629D01*
X126208971Y-139195629D01*
X126354114Y-139123057D01*
X126426685Y-139050486D01*
X126499257Y-138905343D01*
X126499257Y-138615057D01*
X126426685Y-138469914D01*
X126354114Y-138397343D01*
X126208971Y-138324771D01*
X127370114Y-138324771D02*
X127224972Y-138252200D01*
X127152400Y-138179629D01*
X127079829Y-138034486D01*
X127079829Y-137961914D01*
X127152400Y-137816771D01*
X127224972Y-137744200D01*
X127370114Y-137671629D01*
X127660400Y-137671629D01*
X127805543Y-137744200D01*
X127878114Y-137816771D01*
X127950686Y-137961914D01*
X127950686Y-138034486D01*
X127878114Y-138179629D01*
X127805543Y-138252200D01*
X127660400Y-138324771D01*
X127370114Y-138324771D01*
X127224972Y-138397343D01*
X127152400Y-138469914D01*
X127079829Y-138615057D01*
X127079829Y-138905343D01*
X127152400Y-139050486D01*
X127224972Y-139123057D01*
X127370114Y-139195629D01*
X127660400Y-139195629D01*
X127805543Y-139123057D01*
X127878114Y-139050486D01*
X127950686Y-138905343D01*
X127950686Y-138615057D01*
X127878114Y-138469914D01*
X127805543Y-138397343D01*
X127660400Y-138324771D01*
X128603829Y-138615057D02*
X129764972Y-138615057D01*
X130490686Y-139195629D02*
X130490686Y-137671629D01*
X131361543Y-139195629D01*
X131361543Y-137671629D01*
D11*
X169822905Y-92628981D02*
X169822905Y-91628981D01*
X170203858Y-91628981D01*
X170299096Y-91676600D01*
X170346715Y-91724219D01*
X170394334Y-91819457D01*
X170394334Y-91962314D01*
X170346715Y-92057552D01*
X170299096Y-92105171D01*
X170203858Y-92152790D01*
X169822905Y-92152790D01*
X171346715Y-92628981D02*
X170775286Y-92628981D01*
X171061000Y-92628981D02*
X171061000Y-91628981D01*
X170965762Y-91771838D01*
X170870524Y-91867076D01*
X170775286Y-91914695D01*
X124892381Y-90908095D02*
X123892381Y-90908095D01*
X123892381Y-90527142D01*
X123940000Y-90431904D01*
X123987619Y-90384285D01*
X124082857Y-90336666D01*
X124225714Y-90336666D01*
X124320952Y-90384285D01*
X124368571Y-90431904D01*
X124416190Y-90527142D01*
X124416190Y-90908095D01*
X123987619Y-89955714D02*
X123940000Y-89908095D01*
X123892381Y-89812857D01*
X123892381Y-89574761D01*
X123940000Y-89479523D01*
X123987619Y-89431904D01*
X124082857Y-89384285D01*
X124178095Y-89384285D01*
X124320952Y-89431904D01*
X124892381Y-90003333D01*
X124892381Y-89384285D01*
X133903981Y-124537695D02*
X132903981Y-124537695D01*
X132903981Y-124156742D01*
X132951600Y-124061504D01*
X132999219Y-124013885D01*
X133094457Y-123966266D01*
X133237314Y-123966266D01*
X133332552Y-124013885D01*
X133380171Y-124061504D01*
X133427790Y-124156742D01*
X133427790Y-124537695D01*
X132903981Y-123632933D02*
X132903981Y-122966266D01*
X133903981Y-123394838D01*
X177881114Y-112598781D02*
X177881114Y-111598781D01*
X178262067Y-111598781D01*
X178357305Y-111646400D01*
X178404924Y-111694019D01*
X178452543Y-111789257D01*
X178452543Y-111932114D01*
X178404924Y-112027352D01*
X178357305Y-112074971D01*
X178262067Y-112122590D01*
X177881114Y-112122590D01*
X179404924Y-112598781D02*
X178833495Y-112598781D01*
X179119209Y-112598781D02*
X179119209Y-111598781D01*
X179023971Y-111741638D01*
X178928733Y-111836876D01*
X178833495Y-111884495D01*
X180023971Y-111598781D02*
X180119210Y-111598781D01*
X180214448Y-111646400D01*
X180262067Y-111694019D01*
X180309686Y-111789257D01*
X180357305Y-111979733D01*
X180357305Y-112217829D01*
X180309686Y-112408305D01*
X180262067Y-112503543D01*
X180214448Y-112551162D01*
X180119210Y-112598781D01*
X180023971Y-112598781D01*
X179928733Y-112551162D01*
X179881114Y-112503543D01*
X179833495Y-112408305D01*
X179785876Y-112217829D01*
X179785876Y-111979733D01*
X179833495Y-111789257D01*
X179881114Y-111694019D01*
X179928733Y-111646400D01*
X180023971Y-111598781D01*
X119435714Y-112466381D02*
X119435714Y-111466381D01*
X119816667Y-111466381D01*
X119911905Y-111514000D01*
X119959524Y-111561619D01*
X120007143Y-111656857D01*
X120007143Y-111799714D01*
X119959524Y-111894952D01*
X119911905Y-111942571D01*
X119816667Y-111990190D01*
X119435714Y-111990190D01*
X120959524Y-112466381D02*
X120388095Y-112466381D01*
X120673809Y-112466381D02*
X120673809Y-111466381D01*
X120578571Y-111609238D01*
X120483333Y-111704476D01*
X120388095Y-111752095D01*
X121911905Y-112466381D02*
X121340476Y-112466381D01*
X121626190Y-112466381D02*
X121626190Y-111466381D01*
X121530952Y-111609238D01*
X121435714Y-111704476D01*
X121340476Y-111752095D01*
X115412781Y-96327266D02*
X114936590Y-96660600D01*
X115412781Y-96898695D02*
X114412781Y-96898695D01*
X114412781Y-96517742D01*
X114460400Y-96422504D01*
X114508019Y-96374885D01*
X114603257Y-96327266D01*
X114746114Y-96327266D01*
X114841352Y-96374885D01*
X114888971Y-96422504D01*
X114936590Y-96517742D01*
X114936590Y-96898695D01*
X114508019Y-95946314D02*
X114460400Y-95898695D01*
X114412781Y-95803457D01*
X114412781Y-95565361D01*
X114460400Y-95470123D01*
X114508019Y-95422504D01*
X114603257Y-95374885D01*
X114698495Y-95374885D01*
X114841352Y-95422504D01*
X115412781Y-95993933D01*
X115412781Y-95374885D01*
X118816381Y-96178666D02*
X118340190Y-96512000D01*
X118816381Y-96750095D02*
X117816381Y-96750095D01*
X117816381Y-96369142D01*
X117864000Y-96273904D01*
X117911619Y-96226285D01*
X118006857Y-96178666D01*
X118149714Y-96178666D01*
X118244952Y-96226285D01*
X118292571Y-96273904D01*
X118340190Y-96369142D01*
X118340190Y-96750095D01*
X117816381Y-95845333D02*
X117816381Y-95226285D01*
X118197333Y-95559619D01*
X118197333Y-95416761D01*
X118244952Y-95321523D01*
X118292571Y-95273904D01*
X118387810Y-95226285D01*
X118625905Y-95226285D01*
X118721143Y-95273904D01*
X118768762Y-95321523D01*
X118816381Y-95416761D01*
X118816381Y-95702476D01*
X118768762Y-95797714D01*
X118721143Y-95845333D01*
X154503381Y-107481666D02*
X154027190Y-107815000D01*
X154503381Y-108053095D02*
X153503381Y-108053095D01*
X153503381Y-107672142D01*
X153551000Y-107576904D01*
X153598619Y-107529285D01*
X153693857Y-107481666D01*
X153836714Y-107481666D01*
X153931952Y-107529285D01*
X153979571Y-107576904D01*
X154027190Y-107672142D01*
X154027190Y-108053095D01*
X153836714Y-106624523D02*
X154503381Y-106624523D01*
X153455762Y-106862619D02*
X154170048Y-107100714D01*
X154170048Y-106481666D01*
X121927881Y-96356466D02*
X121451690Y-96689800D01*
X121927881Y-96927895D02*
X120927881Y-96927895D01*
X120927881Y-96546942D01*
X120975500Y-96451704D01*
X121023119Y-96404085D01*
X121118357Y-96356466D01*
X121261214Y-96356466D01*
X121356452Y-96404085D01*
X121404071Y-96451704D01*
X121451690Y-96546942D01*
X121451690Y-96927895D01*
X120927881Y-95451704D02*
X120927881Y-95927895D01*
X121404071Y-95975514D01*
X121356452Y-95927895D01*
X121308833Y-95832657D01*
X121308833Y-95594561D01*
X121356452Y-95499323D01*
X121404071Y-95451704D01*
X121499310Y-95404085D01*
X121737405Y-95404085D01*
X121832643Y-95451704D01*
X121880262Y-95499323D01*
X121927881Y-95594561D01*
X121927881Y-95832657D01*
X121880262Y-95927895D01*
X121832643Y-95975514D01*
X132014934Y-100477581D02*
X131681600Y-100001390D01*
X131443505Y-100477581D02*
X131443505Y-99477581D01*
X131824458Y-99477581D01*
X131919696Y-99525200D01*
X131967315Y-99572819D01*
X132014934Y-99668057D01*
X132014934Y-99810914D01*
X131967315Y-99906152D01*
X131919696Y-99953771D01*
X131824458Y-100001390D01*
X131443505Y-100001390D01*
X132586362Y-99906152D02*
X132491124Y-99858533D01*
X132443505Y-99810914D01*
X132395886Y-99715676D01*
X132395886Y-99668057D01*
X132443505Y-99572819D01*
X132491124Y-99525200D01*
X132586362Y-99477581D01*
X132776839Y-99477581D01*
X132872077Y-99525200D01*
X132919696Y-99572819D01*
X132967315Y-99668057D01*
X132967315Y-99715676D01*
X132919696Y-99810914D01*
X132872077Y-99858533D01*
X132776839Y-99906152D01*
X132586362Y-99906152D01*
X132491124Y-99953771D01*
X132443505Y-100001390D01*
X132395886Y-100096629D01*
X132395886Y-100287105D01*
X132443505Y-100382343D01*
X132491124Y-100429962D01*
X132586362Y-100477581D01*
X132776839Y-100477581D01*
X132872077Y-100429962D01*
X132919696Y-100382343D01*
X132967315Y-100287105D01*
X132967315Y-100096629D01*
X132919696Y-100001390D01*
X132872077Y-99953771D01*
X132776839Y-99906152D01*
X164583334Y-99352381D02*
X164250000Y-98876190D01*
X164011905Y-99352381D02*
X164011905Y-98352381D01*
X164392858Y-98352381D01*
X164488096Y-98400000D01*
X164535715Y-98447619D01*
X164583334Y-98542857D01*
X164583334Y-98685714D01*
X164535715Y-98780952D01*
X164488096Y-98828571D01*
X164392858Y-98876190D01*
X164011905Y-98876190D01*
X165059524Y-99352381D02*
X165250000Y-99352381D01*
X165345239Y-99304762D01*
X165392858Y-99257143D01*
X165488096Y-99114286D01*
X165535715Y-98923810D01*
X165535715Y-98542857D01*
X165488096Y-98447619D01*
X165440477Y-98400000D01*
X165345239Y-98352381D01*
X165154762Y-98352381D01*
X165059524Y-98400000D01*
X165011905Y-98447619D01*
X164964286Y-98542857D01*
X164964286Y-98780952D01*
X165011905Y-98876190D01*
X165059524Y-98923810D01*
X165154762Y-98971429D01*
X165345239Y-98971429D01*
X165440477Y-98923810D01*
X165488096Y-98876190D01*
X165535715Y-98780952D01*
X173299381Y-100337857D02*
X172823190Y-100671191D01*
X173299381Y-100909286D02*
X172299381Y-100909286D01*
X172299381Y-100528333D01*
X172347000Y-100433095D01*
X172394619Y-100385476D01*
X172489857Y-100337857D01*
X172632714Y-100337857D01*
X172727952Y-100385476D01*
X172775571Y-100433095D01*
X172823190Y-100528333D01*
X172823190Y-100909286D01*
X173299381Y-99385476D02*
X173299381Y-99956905D01*
X173299381Y-99671191D02*
X172299381Y-99671191D01*
X172442238Y-99766429D01*
X172537476Y-99861667D01*
X172585095Y-99956905D01*
X172299381Y-98766429D02*
X172299381Y-98671190D01*
X172347000Y-98575952D01*
X172394619Y-98528333D01*
X172489857Y-98480714D01*
X172680333Y-98433095D01*
X172918429Y-98433095D01*
X173108905Y-98480714D01*
X173204143Y-98528333D01*
X173251762Y-98575952D01*
X173299381Y-98671190D01*
X173299381Y-98766429D01*
X173251762Y-98861667D01*
X173204143Y-98909286D01*
X173108905Y-98956905D01*
X172918429Y-99004524D01*
X172680333Y-99004524D01*
X172489857Y-98956905D01*
X172394619Y-98909286D01*
X172347000Y-98861667D01*
X172299381Y-98766429D01*
X149245581Y-123477257D02*
X148769390Y-123810591D01*
X149245581Y-124048686D02*
X148245581Y-124048686D01*
X148245581Y-123667733D01*
X148293200Y-123572495D01*
X148340819Y-123524876D01*
X148436057Y-123477257D01*
X148578914Y-123477257D01*
X148674152Y-123524876D01*
X148721771Y-123572495D01*
X148769390Y-123667733D01*
X148769390Y-124048686D01*
X149245581Y-122524876D02*
X149245581Y-123096305D01*
X149245581Y-122810591D02*
X148245581Y-122810591D01*
X148388438Y-122905829D01*
X148483676Y-123001067D01*
X148531295Y-123096305D01*
X148340819Y-122143924D02*
X148293200Y-122096305D01*
X148245581Y-122001067D01*
X148245581Y-121762971D01*
X148293200Y-121667733D01*
X148340819Y-121620114D01*
X148436057Y-121572495D01*
X148531295Y-121572495D01*
X148674152Y-121620114D01*
X149245581Y-122191543D01*
X149245581Y-121572495D01*
X169997381Y-141358857D02*
X169521190Y-141692191D01*
X169997381Y-141930286D02*
X168997381Y-141930286D01*
X168997381Y-141549333D01*
X169045000Y-141454095D01*
X169092619Y-141406476D01*
X169187857Y-141358857D01*
X169330714Y-141358857D01*
X169425952Y-141406476D01*
X169473571Y-141454095D01*
X169521190Y-141549333D01*
X169521190Y-141930286D01*
X169997381Y-140406476D02*
X169997381Y-140977905D01*
X169997381Y-140692191D02*
X168997381Y-140692191D01*
X169140238Y-140787429D01*
X169235476Y-140882667D01*
X169283095Y-140977905D01*
X168997381Y-140073143D02*
X168997381Y-139454095D01*
X169378333Y-139787429D01*
X169378333Y-139644571D01*
X169425952Y-139549333D01*
X169473571Y-139501714D01*
X169568810Y-139454095D01*
X169806905Y-139454095D01*
X169902143Y-139501714D01*
X169949762Y-139549333D01*
X169997381Y-139644571D01*
X169997381Y-139930286D01*
X169949762Y-140025524D01*
X169902143Y-140073143D01*
X165097943Y-96528581D02*
X164764609Y-96052390D01*
X164526514Y-96528581D02*
X164526514Y-95528581D01*
X164907467Y-95528581D01*
X165002705Y-95576200D01*
X165050324Y-95623819D01*
X165097943Y-95719057D01*
X165097943Y-95861914D01*
X165050324Y-95957152D01*
X165002705Y-96004771D01*
X164907467Y-96052390D01*
X164526514Y-96052390D01*
X166050324Y-96528581D02*
X165478895Y-96528581D01*
X165764609Y-96528581D02*
X165764609Y-95528581D01*
X165669371Y-95671438D01*
X165574133Y-95766676D01*
X165478895Y-95814295D01*
X166907467Y-95861914D02*
X166907467Y-96528581D01*
X166669371Y-95480962D02*
X166431276Y-96195248D01*
X167050324Y-96195248D01*
X165047143Y-94604781D02*
X164713809Y-94128590D01*
X164475714Y-94604781D02*
X164475714Y-93604781D01*
X164856667Y-93604781D01*
X164951905Y-93652400D01*
X164999524Y-93700019D01*
X165047143Y-93795257D01*
X165047143Y-93938114D01*
X164999524Y-94033352D01*
X164951905Y-94080971D01*
X164856667Y-94128590D01*
X164475714Y-94128590D01*
X165999524Y-94604781D02*
X165428095Y-94604781D01*
X165713809Y-94604781D02*
X165713809Y-93604781D01*
X165618571Y-93747638D01*
X165523333Y-93842876D01*
X165428095Y-93890495D01*
X166904286Y-93604781D02*
X166428095Y-93604781D01*
X166380476Y-94080971D01*
X166428095Y-94033352D01*
X166523333Y-93985733D01*
X166761429Y-93985733D01*
X166856667Y-94033352D01*
X166904286Y-94080971D01*
X166951905Y-94176210D01*
X166951905Y-94414305D01*
X166904286Y-94509543D01*
X166856667Y-94557162D01*
X166761429Y-94604781D01*
X166523333Y-94604781D01*
X166428095Y-94557162D01*
X166380476Y-94509543D01*
X172486581Y-133916657D02*
X172010390Y-134249991D01*
X172486581Y-134488086D02*
X171486581Y-134488086D01*
X171486581Y-134107133D01*
X171534200Y-134011895D01*
X171581819Y-133964276D01*
X171677057Y-133916657D01*
X171819914Y-133916657D01*
X171915152Y-133964276D01*
X171962771Y-134011895D01*
X172010390Y-134107133D01*
X172010390Y-134488086D01*
X172486581Y-132964276D02*
X172486581Y-133535705D01*
X172486581Y-133249991D02*
X171486581Y-133249991D01*
X171629438Y-133345229D01*
X171724676Y-133440467D01*
X171772295Y-133535705D01*
X171486581Y-132107133D02*
X171486581Y-132297610D01*
X171534200Y-132392848D01*
X171581819Y-132440467D01*
X171724676Y-132535705D01*
X171915152Y-132583324D01*
X172296105Y-132583324D01*
X172391343Y-132535705D01*
X172438962Y-132488086D01*
X172486581Y-132392848D01*
X172486581Y-132202371D01*
X172438962Y-132107133D01*
X172391343Y-132059514D01*
X172296105Y-132011895D01*
X172058010Y-132011895D01*
X171962771Y-132059514D01*
X171915152Y-132107133D01*
X171867533Y-132202371D01*
X171867533Y-132392848D01*
X171915152Y-132488086D01*
X171962771Y-132535705D01*
X172058010Y-132583324D01*
X154630381Y-122639057D02*
X154154190Y-122972391D01*
X154630381Y-123210486D02*
X153630381Y-123210486D01*
X153630381Y-122829533D01*
X153678000Y-122734295D01*
X153725619Y-122686676D01*
X153820857Y-122639057D01*
X153963714Y-122639057D01*
X154058952Y-122686676D01*
X154106571Y-122734295D01*
X154154190Y-122829533D01*
X154154190Y-123210486D01*
X154630381Y-121686676D02*
X154630381Y-122258105D01*
X154630381Y-121972391D02*
X153630381Y-121972391D01*
X153773238Y-122067629D01*
X153868476Y-122162867D01*
X153916095Y-122258105D01*
X153630381Y-121353343D02*
X153630381Y-120686676D01*
X154630381Y-121115248D01*
X156738581Y-122588257D02*
X156262390Y-122921591D01*
X156738581Y-123159686D02*
X155738581Y-123159686D01*
X155738581Y-122778733D01*
X155786200Y-122683495D01*
X155833819Y-122635876D01*
X155929057Y-122588257D01*
X156071914Y-122588257D01*
X156167152Y-122635876D01*
X156214771Y-122683495D01*
X156262390Y-122778733D01*
X156262390Y-123159686D01*
X156738581Y-121635876D02*
X156738581Y-122207305D01*
X156738581Y-121921591D02*
X155738581Y-121921591D01*
X155881438Y-122016829D01*
X155976676Y-122112067D01*
X156024295Y-122207305D01*
X156167152Y-121064448D02*
X156119533Y-121159686D01*
X156071914Y-121207305D01*
X155976676Y-121254924D01*
X155929057Y-121254924D01*
X155833819Y-121207305D01*
X155786200Y-121159686D01*
X155738581Y-121064448D01*
X155738581Y-120873971D01*
X155786200Y-120778733D01*
X155833819Y-120731114D01*
X155929057Y-120683495D01*
X155976676Y-120683495D01*
X156071914Y-120731114D01*
X156119533Y-120778733D01*
X156167152Y-120873971D01*
X156167152Y-121064448D01*
X156214771Y-121159686D01*
X156262390Y-121207305D01*
X156357629Y-121254924D01*
X156548105Y-121254924D01*
X156643343Y-121207305D01*
X156690962Y-121159686D01*
X156738581Y-121064448D01*
X156738581Y-120873971D01*
X156690962Y-120778733D01*
X156643343Y-120731114D01*
X156548105Y-120683495D01*
X156357629Y-120683495D01*
X156262390Y-120731114D01*
X156214771Y-120778733D01*
X156167152Y-120873971D01*
X158999181Y-122562857D02*
X158522990Y-122896191D01*
X158999181Y-123134286D02*
X157999181Y-123134286D01*
X157999181Y-122753333D01*
X158046800Y-122658095D01*
X158094419Y-122610476D01*
X158189657Y-122562857D01*
X158332514Y-122562857D01*
X158427752Y-122610476D01*
X158475371Y-122658095D01*
X158522990Y-122753333D01*
X158522990Y-123134286D01*
X158999181Y-121610476D02*
X158999181Y-122181905D01*
X158999181Y-121896191D02*
X157999181Y-121896191D01*
X158142038Y-121991429D01*
X158237276Y-122086667D01*
X158284895Y-122181905D01*
X158999181Y-121134286D02*
X158999181Y-120943810D01*
X158951562Y-120848571D01*
X158903943Y-120800952D01*
X158761086Y-120705714D01*
X158570610Y-120658095D01*
X158189657Y-120658095D01*
X158094419Y-120705714D01*
X158046800Y-120753333D01*
X157999181Y-120848571D01*
X157999181Y-121039048D01*
X158046800Y-121134286D01*
X158094419Y-121181905D01*
X158189657Y-121229524D01*
X158427752Y-121229524D01*
X158522990Y-121181905D01*
X158570610Y-121134286D01*
X158618229Y-121039048D01*
X158618229Y-120848571D01*
X158570610Y-120753333D01*
X158522990Y-120705714D01*
X158427752Y-120658095D01*
X164866581Y-122613657D02*
X164390390Y-122946991D01*
X164866581Y-123185086D02*
X163866581Y-123185086D01*
X163866581Y-122804133D01*
X163914200Y-122708895D01*
X163961819Y-122661276D01*
X164057057Y-122613657D01*
X164199914Y-122613657D01*
X164295152Y-122661276D01*
X164342771Y-122708895D01*
X164390390Y-122804133D01*
X164390390Y-123185086D01*
X163961819Y-122232705D02*
X163914200Y-122185086D01*
X163866581Y-122089848D01*
X163866581Y-121851752D01*
X163914200Y-121756514D01*
X163961819Y-121708895D01*
X164057057Y-121661276D01*
X164152295Y-121661276D01*
X164295152Y-121708895D01*
X164866581Y-122280324D01*
X164866581Y-121661276D01*
X163866581Y-121042229D02*
X163866581Y-120946990D01*
X163914200Y-120851752D01*
X163961819Y-120804133D01*
X164057057Y-120756514D01*
X164247533Y-120708895D01*
X164485629Y-120708895D01*
X164676105Y-120756514D01*
X164771343Y-120804133D01*
X164818962Y-120851752D01*
X164866581Y-120946990D01*
X164866581Y-121042229D01*
X164818962Y-121137467D01*
X164771343Y-121185086D01*
X164676105Y-121232705D01*
X164485629Y-121280324D01*
X164247533Y-121280324D01*
X164057057Y-121232705D01*
X163961819Y-121185086D01*
X163914200Y-121137467D01*
X163866581Y-121042229D01*
D18*
X164562669Y-104710895D02*
X165169245Y-104710895D01*
X165240607Y-104675214D01*
X165276288Y-104639533D01*
X165311969Y-104568171D01*
X165311969Y-104425448D01*
X165276288Y-104354086D01*
X165240607Y-104318405D01*
X165169245Y-104282724D01*
X164562669Y-104282724D01*
X164634031Y-103961595D02*
X164598350Y-103925914D01*
X164562669Y-103854552D01*
X164562669Y-103676148D01*
X164598350Y-103604786D01*
X164634031Y-103569105D01*
X164705393Y-103533424D01*
X164776755Y-103533424D01*
X164883798Y-103569105D01*
X165311969Y-103997276D01*
X165311969Y-103533424D01*
X162506567Y-107553883D02*
X162863376Y-107553883D01*
X162435205Y-107767969D02*
X162684972Y-107018669D01*
X162934738Y-107767969D01*
X163184505Y-107767969D02*
X163184505Y-107018669D01*
X163362910Y-107018669D01*
X163469952Y-107054350D01*
X163541314Y-107125712D01*
X163576995Y-107197074D01*
X163612676Y-107339798D01*
X163612676Y-107446840D01*
X163576995Y-107589564D01*
X163541314Y-107660926D01*
X163469952Y-107732288D01*
X163362910Y-107767969D01*
X163184505Y-107767969D01*
X164254933Y-107268436D02*
X164254933Y-107767969D01*
X163933805Y-107268436D02*
X163933805Y-107660926D01*
X163969486Y-107732288D01*
X164040848Y-107767969D01*
X164147890Y-107767969D01*
X164219252Y-107732288D01*
X164254933Y-107696607D01*
X164611743Y-107767969D02*
X164611743Y-107018669D01*
X164861509Y-107553883D01*
X165111276Y-107018669D01*
X165111276Y-107767969D01*
X165860576Y-107767969D02*
X165432405Y-107767969D01*
X165646491Y-107767969D02*
X165646491Y-107018669D01*
X165575129Y-107125712D01*
X165503767Y-107197074D01*
X165432405Y-107232755D01*
X166146024Y-107090031D02*
X166181705Y-107054350D01*
X166253067Y-107018669D01*
X166431471Y-107018669D01*
X166502833Y-107054350D01*
X166538514Y-107090031D01*
X166574195Y-107161393D01*
X166574195Y-107232755D01*
X166538514Y-107339798D01*
X166110343Y-107767969D01*
X166574195Y-107767969D01*
X167252133Y-107018669D02*
X166895324Y-107018669D01*
X166859643Y-107375479D01*
X166895324Y-107339798D01*
X166966686Y-107304117D01*
X167145090Y-107304117D01*
X167216452Y-107339798D01*
X167252133Y-107375479D01*
X167287814Y-107446840D01*
X167287814Y-107625245D01*
X167252133Y-107696607D01*
X167216452Y-107732288D01*
X167145090Y-107767969D01*
X166966686Y-107767969D01*
X166895324Y-107732288D01*
X166859643Y-107696607D01*
X167751667Y-107018669D02*
X167823028Y-107018669D01*
X167894390Y-107054350D01*
X167930071Y-107090031D01*
X167965752Y-107161393D01*
X168001433Y-107304117D01*
X168001433Y-107482521D01*
X167965752Y-107625245D01*
X167930071Y-107696607D01*
X167894390Y-107732288D01*
X167823028Y-107767969D01*
X167751667Y-107767969D01*
X167680305Y-107732288D01*
X167644624Y-107696607D01*
X167608943Y-107625245D01*
X167573262Y-107482521D01*
X167573262Y-107304117D01*
X167608943Y-107161393D01*
X167644624Y-107090031D01*
X167680305Y-107054350D01*
X167751667Y-107018669D01*
X143320105Y-108062909D02*
X143320105Y-108669485D01*
X143355786Y-108740847D01*
X143391467Y-108776528D01*
X143462829Y-108812209D01*
X143605552Y-108812209D01*
X143676914Y-108776528D01*
X143712595Y-108740847D01*
X143748276Y-108669485D01*
X143748276Y-108062909D01*
X144426214Y-108312676D02*
X144426214Y-108812209D01*
X144247810Y-108027228D02*
X144069405Y-108562442D01*
X144533257Y-108562442D01*
X140305065Y-106780209D02*
X140305065Y-106030909D01*
X140590512Y-106030909D01*
X140661874Y-106066590D01*
X140697555Y-106102271D01*
X140733236Y-106173633D01*
X140733236Y-106280676D01*
X140697555Y-106352038D01*
X140661874Y-106387719D01*
X140590512Y-106423400D01*
X140305065Y-106423400D01*
X141054365Y-106780209D02*
X141054365Y-106030909D01*
X141839346Y-106708847D02*
X141803665Y-106744528D01*
X141696622Y-106780209D01*
X141625260Y-106780209D01*
X141518218Y-106744528D01*
X141446856Y-106673166D01*
X141411175Y-106601804D01*
X141375494Y-106459080D01*
X141375494Y-106352038D01*
X141411175Y-106209314D01*
X141446856Y-106137952D01*
X141518218Y-106066590D01*
X141625260Y-106030909D01*
X141696622Y-106030909D01*
X141803665Y-106066590D01*
X141839346Y-106102271D01*
X142552965Y-106780209D02*
X142124794Y-106780209D01*
X142338880Y-106780209D02*
X142338880Y-106030909D01*
X142267518Y-106137952D01*
X142196156Y-106209314D01*
X142124794Y-106244995D01*
X142981137Y-106352038D02*
X142909775Y-106316357D01*
X142874094Y-106280676D01*
X142838413Y-106209314D01*
X142838413Y-106173633D01*
X142874094Y-106102271D01*
X142909775Y-106066590D01*
X142981137Y-106030909D01*
X143123860Y-106030909D01*
X143195222Y-106066590D01*
X143230903Y-106102271D01*
X143266584Y-106173633D01*
X143266584Y-106209314D01*
X143230903Y-106280676D01*
X143195222Y-106316357D01*
X143123860Y-106352038D01*
X142981137Y-106352038D01*
X142909775Y-106387719D01*
X142874094Y-106423400D01*
X142838413Y-106494761D01*
X142838413Y-106637485D01*
X142874094Y-106708847D01*
X142909775Y-106744528D01*
X142981137Y-106780209D01*
X143123860Y-106780209D01*
X143195222Y-106744528D01*
X143230903Y-106708847D01*
X143266584Y-106637485D01*
X143266584Y-106494761D01*
X143230903Y-106423400D01*
X143195222Y-106387719D01*
X143123860Y-106352038D01*
X143837479Y-106387719D02*
X143587713Y-106387719D01*
X143587713Y-106780209D02*
X143587713Y-106030909D01*
X143944522Y-106030909D01*
X144194289Y-106102271D02*
X144229970Y-106066590D01*
X144301332Y-106030909D01*
X144479736Y-106030909D01*
X144551098Y-106066590D01*
X144586779Y-106102271D01*
X144622460Y-106173633D01*
X144622460Y-106244995D01*
X144586779Y-106352038D01*
X144158608Y-106780209D01*
X144622460Y-106780209D01*
X145300398Y-106030909D02*
X144943589Y-106030909D01*
X144907908Y-106387719D01*
X144943589Y-106352038D01*
X145014951Y-106316357D01*
X145193355Y-106316357D01*
X145264717Y-106352038D01*
X145300398Y-106387719D01*
X145336079Y-106459080D01*
X145336079Y-106637485D01*
X145300398Y-106708847D01*
X145264717Y-106744528D01*
X145193355Y-106780209D01*
X145014951Y-106780209D01*
X144943589Y-106744528D01*
X144907908Y-106708847D01*
X145657208Y-106780209D02*
X145657208Y-106030909D01*
X146085379Y-106780209D02*
X145764251Y-106352038D01*
X146085379Y-106030909D02*
X145657208Y-106459080D01*
X146513551Y-106352038D02*
X146442189Y-106316357D01*
X146406508Y-106280676D01*
X146370827Y-106209314D01*
X146370827Y-106173633D01*
X146406508Y-106102271D01*
X146442189Y-106066590D01*
X146513551Y-106030909D01*
X146656274Y-106030909D01*
X146727636Y-106066590D01*
X146763317Y-106102271D01*
X146798998Y-106173633D01*
X146798998Y-106209314D01*
X146763317Y-106280676D01*
X146727636Y-106316357D01*
X146656274Y-106352038D01*
X146513551Y-106352038D01*
X146442189Y-106387719D01*
X146406508Y-106423400D01*
X146370827Y-106494761D01*
X146370827Y-106637485D01*
X146406508Y-106708847D01*
X146442189Y-106744528D01*
X146513551Y-106780209D01*
X146656274Y-106780209D01*
X146727636Y-106744528D01*
X146763317Y-106708847D01*
X146798998Y-106637485D01*
X146798998Y-106494761D01*
X146763317Y-106423400D01*
X146727636Y-106387719D01*
X146656274Y-106352038D01*
X147262851Y-106030909D02*
X147334212Y-106030909D01*
X147405574Y-106066590D01*
X147441255Y-106102271D01*
X147476936Y-106173633D01*
X147512617Y-106316357D01*
X147512617Y-106494761D01*
X147476936Y-106637485D01*
X147441255Y-106708847D01*
X147405574Y-106744528D01*
X147334212Y-106780209D01*
X147262851Y-106780209D01*
X147191489Y-106744528D01*
X147155808Y-106708847D01*
X147120127Y-106637485D01*
X147084446Y-106494761D01*
X147084446Y-106316357D01*
X147120127Y-106173633D01*
X147155808Y-106102271D01*
X147191489Y-106066590D01*
X147262851Y-106030909D01*
D11*
X140282634Y-115590581D02*
X139949300Y-115114390D01*
X139711205Y-115590581D02*
X139711205Y-114590581D01*
X140092158Y-114590581D01*
X140187396Y-114638200D01*
X140235015Y-114685819D01*
X140282634Y-114781057D01*
X140282634Y-114923914D01*
X140235015Y-115019152D01*
X140187396Y-115066771D01*
X140092158Y-115114390D01*
X139711205Y-115114390D01*
X141139777Y-114590581D02*
X140949300Y-114590581D01*
X140854062Y-114638200D01*
X140806443Y-114685819D01*
X140711205Y-114828676D01*
X140663586Y-115019152D01*
X140663586Y-115400105D01*
X140711205Y-115495343D01*
X140758824Y-115542962D01*
X140854062Y-115590581D01*
X141044539Y-115590581D01*
X141139777Y-115542962D01*
X141187396Y-115495343D01*
X141235015Y-115400105D01*
X141235015Y-115162010D01*
X141187396Y-115066771D01*
X141139777Y-115019152D01*
X141044539Y-114971533D01*
X140854062Y-114971533D01*
X140758824Y-115019152D01*
X140711205Y-115066771D01*
X140663586Y-115162010D01*
X160218381Y-107862666D02*
X159742190Y-108196000D01*
X160218381Y-108434095D02*
X159218381Y-108434095D01*
X159218381Y-108053142D01*
X159266000Y-107957904D01*
X159313619Y-107910285D01*
X159408857Y-107862666D01*
X159551714Y-107862666D01*
X159646952Y-107910285D01*
X159694571Y-107957904D01*
X159742190Y-108053142D01*
X159742190Y-108434095D01*
X159218381Y-107529333D02*
X159218381Y-106862666D01*
X160218381Y-107291238D01*
X129627334Y-94305381D02*
X129294000Y-93829190D01*
X129055905Y-94305381D02*
X129055905Y-93305381D01*
X129436858Y-93305381D01*
X129532096Y-93353000D01*
X129579715Y-93400619D01*
X129627334Y-93495857D01*
X129627334Y-93638714D01*
X129579715Y-93733952D01*
X129532096Y-93781571D01*
X129436858Y-93829190D01*
X129055905Y-93829190D01*
X130579715Y-94305381D02*
X130008286Y-94305381D01*
X130294000Y-94305381D02*
X130294000Y-93305381D01*
X130198762Y-93448238D01*
X130103524Y-93543476D01*
X130008286Y-93591095D01*
X111663314Y-85186781D02*
X111663314Y-84186781D01*
X112044267Y-84186781D01*
X112139505Y-84234400D01*
X112187124Y-84282019D01*
X112234743Y-84377257D01*
X112234743Y-84520114D01*
X112187124Y-84615352D01*
X112139505Y-84662971D01*
X112044267Y-84710590D01*
X111663314Y-84710590D01*
X113187124Y-85186781D02*
X112615695Y-85186781D01*
X112901409Y-85186781D02*
X112901409Y-84186781D01*
X112806171Y-84329638D01*
X112710933Y-84424876D01*
X112615695Y-84472495D01*
X113520457Y-84186781D02*
X114139505Y-84186781D01*
X113806171Y-84567733D01*
X113949029Y-84567733D01*
X114044267Y-84615352D01*
X114091886Y-84662971D01*
X114139505Y-84758210D01*
X114139505Y-84996305D01*
X114091886Y-85091543D01*
X114044267Y-85139162D01*
X113949029Y-85186781D01*
X113663314Y-85186781D01*
X113568076Y-85139162D01*
X113520457Y-85091543D01*
X126137943Y-100058457D02*
X126185562Y-100106076D01*
X126233181Y-100248933D01*
X126233181Y-100344171D01*
X126185562Y-100487029D01*
X126090324Y-100582267D01*
X125995086Y-100629886D01*
X125804610Y-100677505D01*
X125661752Y-100677505D01*
X125471276Y-100629886D01*
X125376038Y-100582267D01*
X125280800Y-100487029D01*
X125233181Y-100344171D01*
X125233181Y-100248933D01*
X125280800Y-100106076D01*
X125328419Y-100058457D01*
X126233181Y-99106076D02*
X126233181Y-99677505D01*
X126233181Y-99391791D02*
X125233181Y-99391791D01*
X125376038Y-99487029D01*
X125471276Y-99582267D01*
X125518895Y-99677505D01*
X125566514Y-98248933D02*
X126233181Y-98248933D01*
X125185562Y-98487029D02*
X125899848Y-98725124D01*
X125899848Y-98106076D01*
X126283981Y-104724457D02*
X125807790Y-105057791D01*
X126283981Y-105295886D02*
X125283981Y-105295886D01*
X125283981Y-104914933D01*
X125331600Y-104819695D01*
X125379219Y-104772076D01*
X125474457Y-104724457D01*
X125617314Y-104724457D01*
X125712552Y-104772076D01*
X125760171Y-104819695D01*
X125807790Y-104914933D01*
X125807790Y-105295886D01*
X125379219Y-104343505D02*
X125331600Y-104295886D01*
X125283981Y-104200648D01*
X125283981Y-103962552D01*
X125331600Y-103867314D01*
X125379219Y-103819695D01*
X125474457Y-103772076D01*
X125569695Y-103772076D01*
X125712552Y-103819695D01*
X126283981Y-104391124D01*
X126283981Y-103772076D01*
X125379219Y-103391124D02*
X125331600Y-103343505D01*
X125283981Y-103248267D01*
X125283981Y-103010171D01*
X125331600Y-102914933D01*
X125379219Y-102867314D01*
X125474457Y-102819695D01*
X125569695Y-102819695D01*
X125712552Y-102867314D01*
X126283981Y-103438743D01*
X126283981Y-102819695D01*
X126372881Y-111704357D02*
X125896690Y-112037691D01*
X126372881Y-112275786D02*
X125372881Y-112275786D01*
X125372881Y-111894833D01*
X125420500Y-111799595D01*
X125468119Y-111751976D01*
X125563357Y-111704357D01*
X125706214Y-111704357D01*
X125801452Y-111751976D01*
X125849071Y-111799595D01*
X125896690Y-111894833D01*
X125896690Y-112275786D01*
X125468119Y-111323405D02*
X125420500Y-111275786D01*
X125372881Y-111180548D01*
X125372881Y-110942452D01*
X125420500Y-110847214D01*
X125468119Y-110799595D01*
X125563357Y-110751976D01*
X125658595Y-110751976D01*
X125801452Y-110799595D01*
X126372881Y-111371024D01*
X126372881Y-110751976D01*
X125372881Y-110418643D02*
X125372881Y-109799595D01*
X125753833Y-110132929D01*
X125753833Y-109990071D01*
X125801452Y-109894833D01*
X125849071Y-109847214D01*
X125944310Y-109799595D01*
X126182405Y-109799595D01*
X126277643Y-109847214D01*
X126325262Y-109894833D01*
X126372881Y-109990071D01*
X126372881Y-110275786D01*
X126325262Y-110371024D01*
X126277643Y-110418643D01*
D18*
X131636105Y-107920669D02*
X131636105Y-108527245D01*
X131671786Y-108598607D01*
X131707467Y-108634288D01*
X131778829Y-108669969D01*
X131921552Y-108669969D01*
X131992914Y-108634288D01*
X132028595Y-108598607D01*
X132064276Y-108527245D01*
X132064276Y-107920669D01*
X132742214Y-107920669D02*
X132599491Y-107920669D01*
X132528129Y-107956350D01*
X132492448Y-107992031D01*
X132421086Y-108099074D01*
X132385405Y-108241798D01*
X132385405Y-108527245D01*
X132421086Y-108598607D01*
X132456767Y-108634288D01*
X132528129Y-108669969D01*
X132670852Y-108669969D01*
X132742214Y-108634288D01*
X132777895Y-108598607D01*
X132813576Y-108527245D01*
X132813576Y-108348840D01*
X132777895Y-108277479D01*
X132742214Y-108241798D01*
X132670852Y-108206117D01*
X132528129Y-108206117D01*
X132456767Y-108241798D01*
X132421086Y-108277479D01*
X132385405Y-108348840D01*
X130191027Y-106602288D02*
X130298070Y-106637969D01*
X130476474Y-106637969D01*
X130547836Y-106602288D01*
X130583517Y-106566607D01*
X130619198Y-106495245D01*
X130619198Y-106423883D01*
X130583517Y-106352521D01*
X130547836Y-106316840D01*
X130476474Y-106281160D01*
X130333751Y-106245479D01*
X130262389Y-106209798D01*
X130226708Y-106174117D01*
X130191027Y-106102755D01*
X130191027Y-106031393D01*
X130226708Y-105960031D01*
X130262389Y-105924350D01*
X130333751Y-105888669D01*
X130512155Y-105888669D01*
X130619198Y-105924350D01*
X130940327Y-106637969D02*
X130940327Y-105888669D01*
X131225774Y-105888669D01*
X131297136Y-105924350D01*
X131332817Y-105960031D01*
X131368498Y-106031393D01*
X131368498Y-106138436D01*
X131332817Y-106209798D01*
X131297136Y-106245479D01*
X131225774Y-106281160D01*
X130940327Y-106281160D01*
X131618265Y-105888669D02*
X132082117Y-105888669D01*
X131832351Y-106174117D01*
X131939393Y-106174117D01*
X132010755Y-106209798D01*
X132046436Y-106245479D01*
X132082117Y-106316840D01*
X132082117Y-106495245D01*
X132046436Y-106566607D01*
X132010755Y-106602288D01*
X131939393Y-106637969D01*
X131725308Y-106637969D01*
X131653946Y-106602288D01*
X131618265Y-106566607D01*
X132724374Y-106138436D02*
X132724374Y-106637969D01*
X132545970Y-105852988D02*
X132367565Y-106388202D01*
X132831417Y-106388202D01*
X133223908Y-106209798D02*
X133152546Y-106174117D01*
X133116865Y-106138436D01*
X133081184Y-106067074D01*
X133081184Y-106031393D01*
X133116865Y-105960031D01*
X133152546Y-105924350D01*
X133223908Y-105888669D01*
X133366631Y-105888669D01*
X133437993Y-105924350D01*
X133473674Y-105960031D01*
X133509355Y-106031393D01*
X133509355Y-106067074D01*
X133473674Y-106138436D01*
X133437993Y-106174117D01*
X133366631Y-106209798D01*
X133223908Y-106209798D01*
X133152546Y-106245479D01*
X133116865Y-106281160D01*
X133081184Y-106352521D01*
X133081184Y-106495245D01*
X133116865Y-106566607D01*
X133152546Y-106602288D01*
X133223908Y-106637969D01*
X133366631Y-106637969D01*
X133437993Y-106602288D01*
X133473674Y-106566607D01*
X133509355Y-106495245D01*
X133509355Y-106352521D01*
X133473674Y-106281160D01*
X133437993Y-106245479D01*
X133366631Y-106209798D01*
X134187293Y-105888669D02*
X133830484Y-105888669D01*
X133794803Y-106245479D01*
X133830484Y-106209798D01*
X133901846Y-106174117D01*
X134080250Y-106174117D01*
X134151612Y-106209798D01*
X134187293Y-106245479D01*
X134222974Y-106316840D01*
X134222974Y-106495245D01*
X134187293Y-106566607D01*
X134151612Y-106602288D01*
X134080250Y-106637969D01*
X133901846Y-106637969D01*
X133830484Y-106602288D01*
X133794803Y-106566607D01*
X144082105Y-124405269D02*
X144082105Y-125011845D01*
X144117786Y-125083207D01*
X144153467Y-125118888D01*
X144224829Y-125154569D01*
X144367552Y-125154569D01*
X144438914Y-125118888D01*
X144474595Y-125083207D01*
X144510276Y-125011845D01*
X144510276Y-124405269D01*
X144795724Y-124405269D02*
X145259576Y-124405269D01*
X145009810Y-124690717D01*
X145116852Y-124690717D01*
X145188214Y-124726398D01*
X145223895Y-124762079D01*
X145259576Y-124833440D01*
X145259576Y-125011845D01*
X145223895Y-125083207D01*
X145188214Y-125118888D01*
X145116852Y-125154569D01*
X144902767Y-125154569D01*
X144831405Y-125118888D01*
X144795724Y-125083207D01*
D19*
X142526033Y-126821367D02*
X142526033Y-126121367D01*
X142759366Y-126621367D01*
X142992699Y-126121367D01*
X142992699Y-126821367D01*
X143726033Y-126754700D02*
X143692699Y-126788033D01*
X143592699Y-126821367D01*
X143526033Y-126821367D01*
X143426033Y-126788033D01*
X143359366Y-126721367D01*
X143326033Y-126654700D01*
X143292699Y-126521367D01*
X143292699Y-126421367D01*
X143326033Y-126288033D01*
X143359366Y-126221367D01*
X143426033Y-126154700D01*
X143526033Y-126121367D01*
X143592699Y-126121367D01*
X143692699Y-126154700D01*
X143726033Y-126188033D01*
X144026033Y-126821367D02*
X144026033Y-126121367D01*
X144292699Y-126121367D01*
X144359366Y-126154700D01*
X144392699Y-126188033D01*
X144426033Y-126254700D01*
X144426033Y-126354700D01*
X144392699Y-126421367D01*
X144359366Y-126454700D01*
X144292699Y-126488033D01*
X144026033Y-126488033D01*
X144692699Y-126188033D02*
X144726033Y-126154700D01*
X144792699Y-126121367D01*
X144959366Y-126121367D01*
X145026033Y-126154700D01*
X145059366Y-126188033D01*
X145092699Y-126254700D01*
X145092699Y-126321367D01*
X145059366Y-126421367D01*
X144659366Y-126821367D01*
X145092699Y-126821367D01*
X145726033Y-126121367D02*
X145392700Y-126121367D01*
X145359366Y-126454700D01*
X145392700Y-126421367D01*
X145459366Y-126388033D01*
X145626033Y-126388033D01*
X145692700Y-126421367D01*
X145726033Y-126454700D01*
X145759366Y-126521367D01*
X145759366Y-126688033D01*
X145726033Y-126754700D01*
X145692700Y-126788033D01*
X145626033Y-126821367D01*
X145459366Y-126821367D01*
X145392700Y-126788033D01*
X145359366Y-126754700D01*
X146359367Y-126121367D02*
X146226033Y-126121367D01*
X146159367Y-126154700D01*
X146126033Y-126188033D01*
X146059367Y-126288033D01*
X146026033Y-126421367D01*
X146026033Y-126688033D01*
X146059367Y-126754700D01*
X146092700Y-126788033D01*
X146159367Y-126821367D01*
X146292700Y-126821367D01*
X146359367Y-126788033D01*
X146392700Y-126754700D01*
X146426033Y-126688033D01*
X146426033Y-126521367D01*
X146392700Y-126454700D01*
X146359367Y-126421367D01*
X146292700Y-126388033D01*
X146159367Y-126388033D01*
X146092700Y-126421367D01*
X146059367Y-126454700D01*
X146026033Y-126521367D01*
X146692700Y-126188033D02*
X146726034Y-126154700D01*
X146792700Y-126121367D01*
X146959367Y-126121367D01*
X147026034Y-126154700D01*
X147059367Y-126188033D01*
X147092700Y-126254700D01*
X147092700Y-126321367D01*
X147059367Y-126421367D01*
X146659367Y-126821367D01*
X147092700Y-126821367D01*
D20*
X140695439Y-98905786D02*
X140695439Y-99450071D01*
X140272105Y-98307071D02*
X140695439Y-98905786D01*
X141118772Y-98307071D01*
X142207343Y-99450071D02*
X141481629Y-99450071D01*
X141844486Y-99450071D02*
X141844486Y-98307071D01*
X141723534Y-98470357D01*
X141602581Y-98579214D01*
X141481629Y-98633643D01*
D11*
X110148643Y-118943357D02*
X110196262Y-118990976D01*
X110243881Y-119133833D01*
X110243881Y-119229071D01*
X110196262Y-119371929D01*
X110101024Y-119467167D01*
X110005786Y-119514786D01*
X109815310Y-119562405D01*
X109672452Y-119562405D01*
X109481976Y-119514786D01*
X109386738Y-119467167D01*
X109291500Y-119371929D01*
X109243881Y-119229071D01*
X109243881Y-119133833D01*
X109291500Y-118990976D01*
X109339119Y-118943357D01*
X110243881Y-117990976D02*
X110243881Y-118562405D01*
X110243881Y-118276691D02*
X109243881Y-118276691D01*
X109386738Y-118371929D01*
X109481976Y-118467167D01*
X109529595Y-118562405D01*
X109243881Y-117133833D02*
X109243881Y-117324310D01*
X109291500Y-117419548D01*
X109339119Y-117467167D01*
X109481976Y-117562405D01*
X109672452Y-117610024D01*
X110053405Y-117610024D01*
X110148643Y-117562405D01*
X110196262Y-117514786D01*
X110243881Y-117419548D01*
X110243881Y-117229071D01*
X110196262Y-117133833D01*
X110148643Y-117086214D01*
X110053405Y-117038595D01*
X109815310Y-117038595D01*
X109720071Y-117086214D01*
X109672452Y-117133833D01*
X109624833Y-117229071D01*
X109624833Y-117419548D01*
X109672452Y-117514786D01*
X109720071Y-117562405D01*
X109815310Y-117610024D01*
X108942143Y-127007857D02*
X108989762Y-127055476D01*
X109037381Y-127198333D01*
X109037381Y-127293571D01*
X108989762Y-127436429D01*
X108894524Y-127531667D01*
X108799286Y-127579286D01*
X108608810Y-127626905D01*
X108465952Y-127626905D01*
X108275476Y-127579286D01*
X108180238Y-127531667D01*
X108085000Y-127436429D01*
X108037381Y-127293571D01*
X108037381Y-127198333D01*
X108085000Y-127055476D01*
X108132619Y-127007857D01*
X109037381Y-126055476D02*
X109037381Y-126626905D01*
X109037381Y-126341191D02*
X108037381Y-126341191D01*
X108180238Y-126436429D01*
X108275476Y-126531667D01*
X108323095Y-126626905D01*
X108037381Y-125722143D02*
X108037381Y-125055476D01*
X109037381Y-125484048D01*
X115990643Y-87129857D02*
X116038262Y-87177476D01*
X116085881Y-87320333D01*
X116085881Y-87415571D01*
X116038262Y-87558429D01*
X115943024Y-87653667D01*
X115847786Y-87701286D01*
X115657310Y-87748905D01*
X115514452Y-87748905D01*
X115323976Y-87701286D01*
X115228738Y-87653667D01*
X115133500Y-87558429D01*
X115085881Y-87415571D01*
X115085881Y-87320333D01*
X115133500Y-87177476D01*
X115181119Y-87129857D01*
X116085881Y-86177476D02*
X116085881Y-86748905D01*
X116085881Y-86463191D02*
X115085881Y-86463191D01*
X115228738Y-86558429D01*
X115323976Y-86653667D01*
X115371595Y-86748905D01*
X116085881Y-85701286D02*
X116085881Y-85510810D01*
X116038262Y-85415571D01*
X115990643Y-85367952D01*
X115847786Y-85272714D01*
X115657310Y-85225095D01*
X115276357Y-85225095D01*
X115181119Y-85272714D01*
X115133500Y-85320333D01*
X115085881Y-85415571D01*
X115085881Y-85606048D01*
X115133500Y-85701286D01*
X115181119Y-85748905D01*
X115276357Y-85796524D01*
X115514452Y-85796524D01*
X115609690Y-85748905D01*
X115657310Y-85701286D01*
X115704929Y-85606048D01*
X115704929Y-85415571D01*
X115657310Y-85320333D01*
X115609690Y-85272714D01*
X115514452Y-85225095D01*
D18*
X115634105Y-122271669D02*
X115634105Y-122878245D01*
X115669786Y-122949607D01*
X115705467Y-122985288D01*
X115776829Y-123020969D01*
X115919552Y-123020969D01*
X115990914Y-122985288D01*
X116026595Y-122949607D01*
X116062276Y-122878245D01*
X116062276Y-122271669D01*
X116526129Y-122592798D02*
X116454767Y-122557117D01*
X116419086Y-122521436D01*
X116383405Y-122450074D01*
X116383405Y-122414393D01*
X116419086Y-122343031D01*
X116454767Y-122307350D01*
X116526129Y-122271669D01*
X116668852Y-122271669D01*
X116740214Y-122307350D01*
X116775895Y-122343031D01*
X116811576Y-122414393D01*
X116811576Y-122450074D01*
X116775895Y-122521436D01*
X116740214Y-122557117D01*
X116668852Y-122592798D01*
X116526129Y-122592798D01*
X116454767Y-122628479D01*
X116419086Y-122664160D01*
X116383405Y-122735521D01*
X116383405Y-122878245D01*
X116419086Y-122949607D01*
X116454767Y-122985288D01*
X116526129Y-123020969D01*
X116668852Y-123020969D01*
X116740214Y-122985288D01*
X116775895Y-122949607D01*
X116811576Y-122878245D01*
X116811576Y-122735521D01*
X116775895Y-122664160D01*
X116740214Y-122628479D01*
X116668852Y-122592798D01*
X115322295Y-123489436D02*
X115322295Y-123988969D01*
X115143891Y-123203988D02*
X114965486Y-123739202D01*
X115429338Y-123739202D01*
X116071595Y-123239669D02*
X115714786Y-123239669D01*
X115679105Y-123596479D01*
X115714786Y-123560798D01*
X115786148Y-123525117D01*
X115964552Y-123525117D01*
X116035914Y-123560798D01*
X116071595Y-123596479D01*
X116107276Y-123667840D01*
X116107276Y-123846245D01*
X116071595Y-123917607D01*
X116035914Y-123953288D01*
X115964552Y-123988969D01*
X115786148Y-123988969D01*
X115714786Y-123953288D01*
X115679105Y-123917607D01*
X116571129Y-123239669D02*
X116642490Y-123239669D01*
X116713852Y-123275350D01*
X116749533Y-123311031D01*
X116785214Y-123382393D01*
X116820895Y-123525117D01*
X116820895Y-123703521D01*
X116785214Y-123846245D01*
X116749533Y-123917607D01*
X116713852Y-123953288D01*
X116642490Y-123988969D01*
X116571129Y-123988969D01*
X116499767Y-123953288D01*
X116464086Y-123917607D01*
X116428405Y-123846245D01*
X116392724Y-123703521D01*
X116392724Y-123525117D01*
X116428405Y-123382393D01*
X116464086Y-123311031D01*
X116499767Y-123275350D01*
X116571129Y-123239669D01*
X117463152Y-123489436D02*
X117463152Y-123988969D01*
X117284748Y-123203988D02*
X117106343Y-123739202D01*
X117570195Y-123739202D01*
D11*
X109728095Y-109688381D02*
X109728095Y-110497905D01*
X109775714Y-110593143D01*
X109823333Y-110640762D01*
X109918571Y-110688381D01*
X110109048Y-110688381D01*
X110204286Y-110640762D01*
X110251905Y-110593143D01*
X110299524Y-110497905D01*
X110299524Y-109688381D01*
X110823333Y-110688381D02*
X111013809Y-110688381D01*
X111109048Y-110640762D01*
X111156667Y-110593143D01*
X111251905Y-110450286D01*
X111299524Y-110259810D01*
X111299524Y-109878857D01*
X111251905Y-109783619D01*
X111204286Y-109736000D01*
X111109048Y-109688381D01*
X110918571Y-109688381D01*
X110823333Y-109736000D01*
X110775714Y-109783619D01*
X110728095Y-109878857D01*
X110728095Y-110116952D01*
X110775714Y-110212190D01*
X110823333Y-110259810D01*
X110918571Y-110307429D01*
X111109048Y-110307429D01*
X111204286Y-110259810D01*
X111251905Y-110212190D01*
X111299524Y-110116952D01*
D17*
X178072143Y-92078629D02*
X178072143Y-90554629D01*
X178652715Y-90554629D01*
X178797857Y-90627200D01*
X178870429Y-90699771D01*
X178943000Y-90844914D01*
X178943000Y-91062629D01*
X178870429Y-91207771D01*
X178797857Y-91280343D01*
X178652715Y-91352914D01*
X178072143Y-91352914D01*
X179668715Y-92078629D02*
X179959000Y-92078629D01*
X180104143Y-92006057D01*
X180176715Y-91933486D01*
X180321857Y-91715771D01*
X180394429Y-91425486D01*
X180394429Y-90844914D01*
X180321857Y-90699771D01*
X180249286Y-90627200D01*
X180104143Y-90554629D01*
X179813857Y-90554629D01*
X179668715Y-90627200D01*
X179596143Y-90699771D01*
X179523572Y-90844914D01*
X179523572Y-91207771D01*
X179596143Y-91352914D01*
X179668715Y-91425486D01*
X179813857Y-91498057D01*
X180104143Y-91498057D01*
X180249286Y-91425486D01*
X180321857Y-91352914D01*
X180394429Y-91207771D01*
X176051029Y-101694343D02*
X174527029Y-101694343D01*
X174527029Y-101113771D01*
X174599600Y-100968629D01*
X174672171Y-100896057D01*
X174817314Y-100823486D01*
X175035029Y-100823486D01*
X175180171Y-100896057D01*
X175252743Y-100968629D01*
X175325314Y-101113771D01*
X175325314Y-101694343D01*
X176051029Y-100170343D02*
X174527029Y-100170343D01*
X175905886Y-98573772D02*
X175978457Y-98646343D01*
X176051029Y-98864057D01*
X176051029Y-99009200D01*
X175978457Y-99226915D01*
X175833314Y-99372057D01*
X175688171Y-99444629D01*
X175397886Y-99517200D01*
X175180171Y-99517200D01*
X174889886Y-99444629D01*
X174744743Y-99372057D01*
X174599600Y-99226915D01*
X174527029Y-99009200D01*
X174527029Y-98864057D01*
X174599600Y-98646343D01*
X174672171Y-98573772D01*
X176196171Y-98283486D02*
X176196171Y-97122343D01*
X176051029Y-96759486D02*
X174527029Y-96759486D01*
X174672171Y-96106343D02*
X174599600Y-96033772D01*
X174527029Y-95888629D01*
X174527029Y-95525772D01*
X174599600Y-95380629D01*
X174672171Y-95308058D01*
X174817314Y-95235486D01*
X174962457Y-95235486D01*
X175180171Y-95308058D01*
X176051029Y-96178915D01*
X176051029Y-95235486D01*
X175905886Y-93711486D02*
X175978457Y-93784057D01*
X176051029Y-94001771D01*
X176051029Y-94146914D01*
X175978457Y-94364629D01*
X175833314Y-94509771D01*
X175688171Y-94582343D01*
X175397886Y-94654914D01*
X175180171Y-94654914D01*
X174889886Y-94582343D01*
X174744743Y-94509771D01*
X174599600Y-94364629D01*
X174527029Y-94146914D01*
X174527029Y-94001771D01*
X174599600Y-93784057D01*
X174672171Y-93711486D01*
X171645943Y-109426829D02*
X171645943Y-107902829D01*
X172226515Y-107902829D01*
X172371657Y-107975400D01*
X172444229Y-108047971D01*
X172516800Y-108193114D01*
X172516800Y-108410829D01*
X172444229Y-108555971D01*
X172371657Y-108628543D01*
X172226515Y-108701114D01*
X171645943Y-108701114D01*
X173823086Y-107902829D02*
X173532800Y-107902829D01*
X173387657Y-107975400D01*
X173315086Y-108047971D01*
X173169943Y-108265686D01*
X173097372Y-108555971D01*
X173097372Y-109136543D01*
X173169943Y-109281686D01*
X173242515Y-109354257D01*
X173387657Y-109426829D01*
X173677943Y-109426829D01*
X173823086Y-109354257D01*
X173895657Y-109281686D01*
X173968229Y-109136543D01*
X173968229Y-108773686D01*
X173895657Y-108628543D01*
X173823086Y-108555971D01*
X173677943Y-108483400D01*
X173387657Y-108483400D01*
X173242515Y-108555971D01*
X173169943Y-108628543D01*
X173097372Y-108773686D01*
X176381229Y-112565543D02*
X174857229Y-112565543D01*
X176308657Y-111912400D02*
X176381229Y-111694686D01*
X176381229Y-111331829D01*
X176308657Y-111186686D01*
X176236086Y-111114115D01*
X176090943Y-111041543D01*
X175945800Y-111041543D01*
X175800657Y-111114115D01*
X175728086Y-111186686D01*
X175655514Y-111331829D01*
X175582943Y-111622115D01*
X175510371Y-111767257D01*
X175437800Y-111839829D01*
X175292657Y-111912400D01*
X175147514Y-111912400D01*
X175002371Y-111839829D01*
X174929800Y-111767257D01*
X174857229Y-111622115D01*
X174857229Y-111259257D01*
X174929800Y-111041543D01*
X174857229Y-110098114D02*
X174857229Y-109807828D01*
X174929800Y-109662686D01*
X175074943Y-109517543D01*
X175365229Y-109444971D01*
X175873229Y-109444971D01*
X176163514Y-109517543D01*
X176308657Y-109662686D01*
X176381229Y-109807828D01*
X176381229Y-110098114D01*
X176308657Y-110243257D01*
X176163514Y-110388400D01*
X175873229Y-110460971D01*
X175365229Y-110460971D01*
X175074943Y-110388400D01*
X174929800Y-110243257D01*
X174857229Y-110098114D01*
X176526371Y-109154686D02*
X176526371Y-107993543D01*
X176381229Y-107630686D02*
X174857229Y-107630686D01*
X175002371Y-106977543D02*
X174929800Y-106904972D01*
X174857229Y-106759829D01*
X174857229Y-106396972D01*
X174929800Y-106251829D01*
X175002371Y-106179258D01*
X175147514Y-106106686D01*
X175292657Y-106106686D01*
X175510371Y-106179258D01*
X176381229Y-107050115D01*
X176381229Y-106106686D01*
X176236086Y-104582686D02*
X176308657Y-104655257D01*
X176381229Y-104872971D01*
X176381229Y-105018114D01*
X176308657Y-105235829D01*
X176163514Y-105380971D01*
X176018371Y-105453543D01*
X175728086Y-105526114D01*
X175510371Y-105526114D01*
X175220086Y-105453543D01*
X175074943Y-105380971D01*
X174929800Y-105235829D01*
X174857229Y-105018114D01*
X174857229Y-104872971D01*
X174929800Y-104655257D01*
X175002371Y-104582686D01*
X126597229Y-127845457D02*
X125073229Y-127845457D01*
X125073229Y-127264885D01*
X125145800Y-127119743D01*
X125218371Y-127047171D01*
X125363514Y-126974600D01*
X125581229Y-126974600D01*
X125726371Y-127047171D01*
X125798943Y-127119743D01*
X125871514Y-127264885D01*
X125871514Y-127845457D01*
X125726371Y-126103743D02*
X125653800Y-126248885D01*
X125581229Y-126321457D01*
X125436086Y-126394028D01*
X125363514Y-126394028D01*
X125218371Y-126321457D01*
X125145800Y-126248885D01*
X125073229Y-126103743D01*
X125073229Y-125813457D01*
X125145800Y-125668314D01*
X125218371Y-125595743D01*
X125363514Y-125523171D01*
X125436086Y-125523171D01*
X125581229Y-125595743D01*
X125653800Y-125668314D01*
X125726371Y-125813457D01*
X125726371Y-126103743D01*
X125798943Y-126248885D01*
X125871514Y-126321457D01*
X126016657Y-126394028D01*
X126306943Y-126394028D01*
X126452086Y-126321457D01*
X126524657Y-126248885D01*
X126597229Y-126103743D01*
X126597229Y-125813457D01*
X126524657Y-125668314D01*
X126452086Y-125595743D01*
X126306943Y-125523171D01*
X126016657Y-125523171D01*
X125871514Y-125595743D01*
X125798943Y-125668314D01*
X125726371Y-125813457D01*
X126401286Y-123915714D02*
X126473857Y-123988285D01*
X126546429Y-124205999D01*
X126546429Y-124351142D01*
X126473857Y-124568857D01*
X126328714Y-124713999D01*
X126183571Y-124786571D01*
X125893286Y-124859142D01*
X125675571Y-124859142D01*
X125385286Y-124786571D01*
X125240143Y-124713999D01*
X125095000Y-124568857D01*
X125022429Y-124351142D01*
X125022429Y-124205999D01*
X125095000Y-123988285D01*
X125167571Y-123915714D01*
X126111000Y-123335142D02*
X126111000Y-122609428D01*
X126546429Y-123480285D02*
X125022429Y-122972285D01*
X126546429Y-122464285D01*
X126546429Y-121956285D02*
X125022429Y-121956285D01*
X126546429Y-121085428D01*
X125022429Y-121085428D01*
X171758429Y-112519097D02*
X170234429Y-112519097D01*
X170234429Y-111938525D01*
X170307000Y-111793383D01*
X170379571Y-111720811D01*
X170524714Y-111648240D01*
X170742429Y-111648240D01*
X170887571Y-111720811D01*
X170960143Y-111793383D01*
X171032714Y-111938525D01*
X171032714Y-112519097D01*
X170742429Y-110341954D02*
X171758429Y-110341954D01*
X170161857Y-110704811D02*
X171250429Y-111067668D01*
X171250429Y-110124240D01*
D11*
X101655714Y-115133381D02*
X101655714Y-114133381D01*
X102036667Y-114133381D01*
X102131905Y-114181000D01*
X102179524Y-114228619D01*
X102227143Y-114323857D01*
X102227143Y-114466714D01*
X102179524Y-114561952D01*
X102131905Y-114609571D01*
X102036667Y-114657190D01*
X101655714Y-114657190D01*
X103179524Y-115133381D02*
X102608095Y-115133381D01*
X102893809Y-115133381D02*
X102893809Y-114133381D01*
X102798571Y-114276238D01*
X102703333Y-114371476D01*
X102608095Y-114419095D01*
X104036667Y-114466714D02*
X104036667Y-115133381D01*
X103798571Y-114085762D02*
X103560476Y-114800048D01*
X104179524Y-114800048D01*
X105338714Y-115133381D02*
X105338714Y-114133381D01*
X105719667Y-114133381D01*
X105814905Y-114181000D01*
X105862524Y-114228619D01*
X105910143Y-114323857D01*
X105910143Y-114466714D01*
X105862524Y-114561952D01*
X105814905Y-114609571D01*
X105719667Y-114657190D01*
X105338714Y-114657190D01*
X106862524Y-115133381D02*
X106291095Y-115133381D01*
X106576809Y-115133381D02*
X106576809Y-114133381D01*
X106481571Y-114276238D01*
X106386333Y-114371476D01*
X106291095Y-114419095D01*
X107719667Y-114133381D02*
X107529190Y-114133381D01*
X107433952Y-114181000D01*
X107386333Y-114228619D01*
X107291095Y-114371476D01*
X107243476Y-114561952D01*
X107243476Y-114942905D01*
X107291095Y-115038143D01*
X107338714Y-115085762D01*
X107433952Y-115133381D01*
X107624429Y-115133381D01*
X107719667Y-115085762D01*
X107767286Y-115038143D01*
X107814905Y-114942905D01*
X107814905Y-114704810D01*
X107767286Y-114609571D01*
X107719667Y-114561952D01*
X107624429Y-114514333D01*
X107433952Y-114514333D01*
X107338714Y-114561952D01*
X107291095Y-114609571D01*
X107243476Y-114704810D01*
X101515943Y-96254843D02*
X101468324Y-96302462D01*
X101325467Y-96350081D01*
X101230229Y-96350081D01*
X101087371Y-96302462D01*
X100992133Y-96207224D01*
X100944514Y-96111986D01*
X100896895Y-95921510D01*
X100896895Y-95778652D01*
X100944514Y-95588176D01*
X100992133Y-95492938D01*
X101087371Y-95397700D01*
X101230229Y-95350081D01*
X101325467Y-95350081D01*
X101468324Y-95397700D01*
X101515943Y-95445319D01*
X102468324Y-96350081D02*
X101896895Y-96350081D01*
X102182609Y-96350081D02*
X102182609Y-95350081D01*
X102087371Y-95492938D01*
X101992133Y-95588176D01*
X101896895Y-95635795D01*
X103039752Y-95778652D02*
X102944514Y-95731033D01*
X102896895Y-95683414D01*
X102849276Y-95588176D01*
X102849276Y-95540557D01*
X102896895Y-95445319D01*
X102944514Y-95397700D01*
X103039752Y-95350081D01*
X103230229Y-95350081D01*
X103325467Y-95397700D01*
X103373086Y-95445319D01*
X103420705Y-95540557D01*
X103420705Y-95588176D01*
X103373086Y-95683414D01*
X103325467Y-95731033D01*
X103230229Y-95778652D01*
X103039752Y-95778652D01*
X102944514Y-95826271D01*
X102896895Y-95873890D01*
X102849276Y-95969129D01*
X102849276Y-96159605D01*
X102896895Y-96254843D01*
X102944514Y-96302462D01*
X103039752Y-96350081D01*
X103230229Y-96350081D01*
X103325467Y-96302462D01*
X103373086Y-96254843D01*
X103420705Y-96159605D01*
X103420705Y-95969129D01*
X103373086Y-95873890D01*
X103325467Y-95826271D01*
X103230229Y-95778652D01*
X122495571Y-81486142D02*
X123709857Y-81486142D01*
X123852714Y-81414714D01*
X123924143Y-81343285D01*
X123995571Y-81200428D01*
X123995571Y-80914714D01*
X123924143Y-80771856D01*
X123852714Y-80700428D01*
X123709857Y-80628999D01*
X122495571Y-80628999D01*
X123995571Y-79128999D02*
X123995571Y-79986142D01*
X123995571Y-79557570D02*
X122495571Y-79557570D01*
X122709857Y-79700427D01*
X122852714Y-79843285D01*
X122924143Y-79986142D01*
X122495571Y-78200428D02*
X122495571Y-78057571D01*
X122567000Y-77914714D01*
X122638429Y-77843285D01*
X122781286Y-77771856D01*
X123067000Y-77700428D01*
X123424143Y-77700428D01*
X123709857Y-77771856D01*
X123852714Y-77843285D01*
X123924143Y-77914714D01*
X123995571Y-78057571D01*
X123995571Y-78200428D01*
X123924143Y-78343285D01*
X123852714Y-78414714D01*
X123709857Y-78486142D01*
X123424143Y-78557571D01*
X123067000Y-78557571D01*
X122781286Y-78486142D01*
X122638429Y-78414714D01*
X122567000Y-78343285D01*
X122495571Y-78200428D01*
X120119857Y-83686142D02*
X120119857Y-83457571D01*
X120177000Y-83343285D01*
X120291286Y-83228999D01*
X120519857Y-83171857D01*
X120919857Y-83171857D01*
X121148429Y-83228999D01*
X121262714Y-83343285D01*
X121319857Y-83457571D01*
X121319857Y-83686142D01*
X121262714Y-83800428D01*
X121148429Y-83914714D01*
X120919857Y-83971857D01*
X120519857Y-83971857D01*
X120291286Y-83914714D01*
X120177000Y-83800428D01*
X120119857Y-83686142D01*
X121319857Y-82657571D02*
X120119857Y-82657571D01*
X121319857Y-81971856D02*
X120634143Y-82486142D01*
X120119857Y-81971856D02*
X120805571Y-82657571D01*
X121319857Y-81457571D02*
X120119857Y-81457571D01*
X120862714Y-80886142D02*
X120862714Y-79971856D01*
X120119857Y-79514713D02*
X120119857Y-78714713D01*
X121319857Y-79228999D01*
X120634143Y-78086142D02*
X120577000Y-78200428D01*
X120519857Y-78257571D01*
X120405571Y-78314714D01*
X120348429Y-78314714D01*
X120234143Y-78257571D01*
X120177000Y-78200428D01*
X120119857Y-78086142D01*
X120119857Y-77857571D01*
X120177000Y-77743285D01*
X120234143Y-77686142D01*
X120348429Y-77628999D01*
X120405571Y-77628999D01*
X120519857Y-77686142D01*
X120577000Y-77743285D01*
X120634143Y-77857571D01*
X120634143Y-78086142D01*
X120691286Y-78200428D01*
X120748429Y-78257571D01*
X120862714Y-78314714D01*
X121091286Y-78314714D01*
X121205571Y-78257571D01*
X121262714Y-78200428D01*
X121319857Y-78086142D01*
X121319857Y-77857571D01*
X121262714Y-77743285D01*
X121205571Y-77686142D01*
X121091286Y-77628999D01*
X120862714Y-77628999D01*
X120748429Y-77686142D01*
X120691286Y-77743285D01*
X120634143Y-77857571D01*
X121262714Y-77171857D02*
X121319857Y-77000428D01*
X121319857Y-76714714D01*
X121262714Y-76600428D01*
X121205571Y-76543285D01*
X121091286Y-76486142D01*
X120977000Y-76486142D01*
X120862714Y-76543285D01*
X120805571Y-76600428D01*
X120748429Y-76714714D01*
X120691286Y-76943285D01*
X120634143Y-77057571D01*
X120577000Y-77114714D01*
X120462714Y-77171857D01*
X120348429Y-77171857D01*
X120234143Y-77114714D01*
X120177000Y-77057571D01*
X120119857Y-76943285D01*
X120119857Y-76657571D01*
X120177000Y-76486142D01*
X121319857Y-75286142D02*
X120748429Y-75686142D01*
X121319857Y-75971857D02*
X120119857Y-75971857D01*
X120119857Y-75514714D01*
X120177000Y-75400428D01*
X120234143Y-75343285D01*
X120348429Y-75286142D01*
X120519857Y-75286142D01*
X120634143Y-75343285D01*
X120691286Y-75400428D01*
X120748429Y-75514714D01*
X120748429Y-75971857D01*
X110815381Y-134056286D02*
X109815381Y-134056286D01*
X109815381Y-133675333D01*
X109863000Y-133580095D01*
X109910619Y-133532476D01*
X110005857Y-133484857D01*
X110148714Y-133484857D01*
X110243952Y-133532476D01*
X110291571Y-133580095D01*
X110339190Y-133675333D01*
X110339190Y-134056286D01*
X110815381Y-132532476D02*
X110815381Y-133103905D01*
X110815381Y-132818191D02*
X109815381Y-132818191D01*
X109958238Y-132913429D01*
X110053476Y-133008667D01*
X110101095Y-133103905D01*
X110243952Y-131961048D02*
X110196333Y-132056286D01*
X110148714Y-132103905D01*
X110053476Y-132151524D01*
X110005857Y-132151524D01*
X109910619Y-132103905D01*
X109863000Y-132056286D01*
X109815381Y-131961048D01*
X109815381Y-131770571D01*
X109863000Y-131675333D01*
X109910619Y-131627714D01*
X110005857Y-131580095D01*
X110053476Y-131580095D01*
X110148714Y-131627714D01*
X110196333Y-131675333D01*
X110243952Y-131770571D01*
X110243952Y-131961048D01*
X110291571Y-132056286D01*
X110339190Y-132103905D01*
X110434429Y-132151524D01*
X110624905Y-132151524D01*
X110720143Y-132103905D01*
X110767762Y-132056286D01*
X110815381Y-131961048D01*
X110815381Y-131770571D01*
X110767762Y-131675333D01*
X110720143Y-131627714D01*
X110624905Y-131580095D01*
X110434429Y-131580095D01*
X110339190Y-131627714D01*
X110291571Y-131675333D01*
X110243952Y-131770571D01*
X131652381Y-129364286D02*
X130652381Y-129364286D01*
X130652381Y-128983333D01*
X130700000Y-128888095D01*
X130747619Y-128840476D01*
X130842857Y-128792857D01*
X130985714Y-128792857D01*
X131080952Y-128840476D01*
X131128571Y-128888095D01*
X131176190Y-128983333D01*
X131176190Y-129364286D01*
X131652381Y-127840476D02*
X131652381Y-128411905D01*
X131652381Y-128126191D02*
X130652381Y-128126191D01*
X130795238Y-128221429D01*
X130890476Y-128316667D01*
X130938095Y-128411905D01*
X131652381Y-127364286D02*
X131652381Y-127173810D01*
X131604762Y-127078571D01*
X131557143Y-127030952D01*
X131414286Y-126935714D01*
X131223810Y-126888095D01*
X130842857Y-126888095D01*
X130747619Y-126935714D01*
X130700000Y-126983333D01*
X130652381Y-127078571D01*
X130652381Y-127269048D01*
X130700000Y-127364286D01*
X130747619Y-127411905D01*
X130842857Y-127459524D01*
X131080952Y-127459524D01*
X131176190Y-127411905D01*
X131223810Y-127364286D01*
X131271429Y-127269048D01*
X131271429Y-127078571D01*
X131223810Y-126983333D01*
X131176190Y-126935714D01*
X131080952Y-126888095D01*
X122677181Y-124972057D02*
X122200990Y-125305391D01*
X122677181Y-125543486D02*
X121677181Y-125543486D01*
X121677181Y-125162533D01*
X121724800Y-125067295D01*
X121772419Y-125019676D01*
X121867657Y-124972057D01*
X122010514Y-124972057D01*
X122105752Y-125019676D01*
X122153371Y-125067295D01*
X122200990Y-125162533D01*
X122200990Y-125543486D01*
X121772419Y-124591105D02*
X121724800Y-124543486D01*
X121677181Y-124448248D01*
X121677181Y-124210152D01*
X121724800Y-124114914D01*
X121772419Y-124067295D01*
X121867657Y-124019676D01*
X121962895Y-124019676D01*
X122105752Y-124067295D01*
X122677181Y-124638724D01*
X122677181Y-124019676D01*
X122010514Y-123162533D02*
X122677181Y-123162533D01*
X121629562Y-123400629D02*
X122343848Y-123638724D01*
X122343848Y-123019676D01*
X126247181Y-116365257D02*
X125770990Y-116698591D01*
X126247181Y-116936686D02*
X125247181Y-116936686D01*
X125247181Y-116555733D01*
X125294800Y-116460495D01*
X125342419Y-116412876D01*
X125437657Y-116365257D01*
X125580514Y-116365257D01*
X125675752Y-116412876D01*
X125723371Y-116460495D01*
X125770990Y-116555733D01*
X125770990Y-116936686D01*
X125342419Y-115984305D02*
X125294800Y-115936686D01*
X125247181Y-115841448D01*
X125247181Y-115603352D01*
X125294800Y-115508114D01*
X125342419Y-115460495D01*
X125437657Y-115412876D01*
X125532895Y-115412876D01*
X125675752Y-115460495D01*
X126247181Y-116031924D01*
X126247181Y-115412876D01*
X126247181Y-114460495D02*
X126247181Y-115031924D01*
X126247181Y-114746210D02*
X125247181Y-114746210D01*
X125390038Y-114841448D01*
X125485276Y-114936686D01*
X125532895Y-115031924D01*
X112393505Y-139593581D02*
X112393505Y-138593581D01*
X112774458Y-138593581D01*
X112869696Y-138641200D01*
X112917315Y-138688819D01*
X112964934Y-138784057D01*
X112964934Y-138926914D01*
X112917315Y-139022152D01*
X112869696Y-139069771D01*
X112774458Y-139117390D01*
X112393505Y-139117390D01*
X113298267Y-138593581D02*
X113917315Y-138593581D01*
X113583981Y-138974533D01*
X113726839Y-138974533D01*
X113822077Y-139022152D01*
X113869696Y-139069771D01*
X113917315Y-139165010D01*
X113917315Y-139403105D01*
X113869696Y-139498343D01*
X113822077Y-139545962D01*
X113726839Y-139593581D01*
X113441124Y-139593581D01*
X113345886Y-139545962D01*
X113298267Y-139498343D01*
X139720581Y-120708657D02*
X139244390Y-121041991D01*
X139720581Y-121280086D02*
X138720581Y-121280086D01*
X138720581Y-120899133D01*
X138768200Y-120803895D01*
X138815819Y-120756276D01*
X138911057Y-120708657D01*
X139053914Y-120708657D01*
X139149152Y-120756276D01*
X139196771Y-120803895D01*
X139244390Y-120899133D01*
X139244390Y-121280086D01*
X139720581Y-119756276D02*
X139720581Y-120327705D01*
X139720581Y-120041991D02*
X138720581Y-120041991D01*
X138863438Y-120137229D01*
X138958676Y-120232467D01*
X139006295Y-120327705D01*
X139720581Y-118803895D02*
X139720581Y-119375324D01*
X139720581Y-119089610D02*
X138720581Y-119089610D01*
X138863438Y-119184848D01*
X138958676Y-119280086D01*
X139006295Y-119375324D01*
X112222114Y-145740381D02*
X112222114Y-144740381D01*
X112603067Y-144740381D01*
X112698305Y-144788000D01*
X112745924Y-144835619D01*
X112793543Y-144930857D01*
X112793543Y-145073714D01*
X112745924Y-145168952D01*
X112698305Y-145216571D01*
X112603067Y-145264190D01*
X112222114Y-145264190D01*
X113745924Y-145740381D02*
X113174495Y-145740381D01*
X113460209Y-145740381D02*
X113460209Y-144740381D01*
X113364971Y-144883238D01*
X113269733Y-144978476D01*
X113174495Y-145026095D01*
X114650686Y-144740381D02*
X114174495Y-144740381D01*
X114126876Y-145216571D01*
X114174495Y-145168952D01*
X114269733Y-145121333D01*
X114507829Y-145121333D01*
X114603067Y-145168952D01*
X114650686Y-145216571D01*
X114698305Y-145311810D01*
X114698305Y-145549905D01*
X114650686Y-145645143D01*
X114603067Y-145692762D01*
X114507829Y-145740381D01*
X114269733Y-145740381D01*
X114174495Y-145692762D01*
X114126876Y-145645143D01*
X152328714Y-85395381D02*
X152328714Y-84395381D01*
X152709667Y-84395381D01*
X152804905Y-84443000D01*
X152852524Y-84490619D01*
X152900143Y-84585857D01*
X152900143Y-84728714D01*
X152852524Y-84823952D01*
X152804905Y-84871571D01*
X152709667Y-84919190D01*
X152328714Y-84919190D01*
X153852524Y-85395381D02*
X153281095Y-85395381D01*
X153566809Y-85395381D02*
X153566809Y-84395381D01*
X153471571Y-84538238D01*
X153376333Y-84633476D01*
X153281095Y-84681095D01*
X154185857Y-84395381D02*
X154852524Y-84395381D01*
X154423952Y-85395381D01*
X164895305Y-113583981D02*
X164895305Y-112583981D01*
X165276258Y-112583981D01*
X165371496Y-112631600D01*
X165419115Y-112679219D01*
X165466734Y-112774457D01*
X165466734Y-112917314D01*
X165419115Y-113012552D01*
X165371496Y-113060171D01*
X165276258Y-113107790D01*
X164895305Y-113107790D01*
X166371496Y-112583981D02*
X165895305Y-112583981D01*
X165847686Y-113060171D01*
X165895305Y-113012552D01*
X165990543Y-112964933D01*
X166228639Y-112964933D01*
X166323877Y-113012552D01*
X166371496Y-113060171D01*
X166419115Y-113155410D01*
X166419115Y-113393505D01*
X166371496Y-113488743D01*
X166323877Y-113536362D01*
X166228639Y-113583981D01*
X165990543Y-113583981D01*
X165895305Y-113536362D01*
X165847686Y-113488743D01*
D17*
X116942689Y-106371572D02*
X115418689Y-106371572D01*
X115418689Y-105791000D01*
X115491260Y-105645858D01*
X115563831Y-105573286D01*
X115708974Y-105500715D01*
X115926689Y-105500715D01*
X116071831Y-105573286D01*
X116144403Y-105645858D01*
X116216974Y-105791000D01*
X116216974Y-106371572D01*
X116942689Y-104049286D02*
X116942689Y-104920143D01*
X116942689Y-104484715D02*
X115418689Y-104484715D01*
X115636403Y-104629858D01*
X115781546Y-104775000D01*
X115854117Y-104920143D01*
X115563831Y-103468714D02*
X115491260Y-103396143D01*
X115418689Y-103251000D01*
X115418689Y-102888143D01*
X115491260Y-102743000D01*
X115563831Y-102670429D01*
X115708974Y-102597857D01*
X115854117Y-102597857D01*
X116071831Y-102670429D01*
X116942689Y-103541286D01*
X116942689Y-102597857D01*
X123981029Y-108704744D02*
X123255314Y-109212744D01*
X123981029Y-109575601D02*
X122457029Y-109575601D01*
X122457029Y-108995029D01*
X122529600Y-108849887D01*
X122602171Y-108777315D01*
X122747314Y-108704744D01*
X122965029Y-108704744D01*
X123110171Y-108777315D01*
X123182743Y-108849887D01*
X123255314Y-108995029D01*
X123255314Y-109575601D01*
X123908457Y-108124172D02*
X123981029Y-107906458D01*
X123981029Y-107543601D01*
X123908457Y-107398458D01*
X123835886Y-107325887D01*
X123690743Y-107253315D01*
X123545600Y-107253315D01*
X123400457Y-107325887D01*
X123327886Y-107398458D01*
X123255314Y-107543601D01*
X123182743Y-107833887D01*
X123110171Y-107979029D01*
X123037600Y-108051601D01*
X122892457Y-108124172D01*
X122747314Y-108124172D01*
X122602171Y-108051601D01*
X122529600Y-107979029D01*
X122457029Y-107833887D01*
X122457029Y-107471029D01*
X122529600Y-107253315D01*
X122965029Y-105947029D02*
X123981029Y-105947029D01*
X122384457Y-106309886D02*
X123473029Y-106672743D01*
X123473029Y-105729315D01*
X123110171Y-104931029D02*
X123037600Y-105076171D01*
X122965029Y-105148743D01*
X122819886Y-105221314D01*
X122747314Y-105221314D01*
X122602171Y-105148743D01*
X122529600Y-105076171D01*
X122457029Y-104931029D01*
X122457029Y-104640743D01*
X122529600Y-104495600D01*
X122602171Y-104423029D01*
X122747314Y-104350457D01*
X122819886Y-104350457D01*
X122965029Y-104423029D01*
X123037600Y-104495600D01*
X123110171Y-104640743D01*
X123110171Y-104931029D01*
X123182743Y-105076171D01*
X123255314Y-105148743D01*
X123400457Y-105221314D01*
X123690743Y-105221314D01*
X123835886Y-105148743D01*
X123908457Y-105076171D01*
X123981029Y-104931029D01*
X123981029Y-104640743D01*
X123908457Y-104495600D01*
X123835886Y-104423029D01*
X123690743Y-104350457D01*
X123400457Y-104350457D01*
X123255314Y-104423029D01*
X123182743Y-104495600D01*
X123110171Y-104640743D01*
X122457029Y-102971600D02*
X122457029Y-103697314D01*
X123182743Y-103769885D01*
X123110171Y-103697314D01*
X123037600Y-103552171D01*
X123037600Y-103189314D01*
X123110171Y-103044171D01*
X123182743Y-102971600D01*
X123327886Y-102899028D01*
X123690743Y-102899028D01*
X123835886Y-102971600D01*
X123908457Y-103044171D01*
X123981029Y-103189314D01*
X123981029Y-103552171D01*
X123908457Y-103697314D01*
X123835886Y-103769885D01*
M02*
