G04 #@! TF.GenerationSoftware,KiCad,Pcbnew,5.1.12-84ad8e8a86~92~ubuntu20.04.1*
G04 #@! TF.CreationDate,2021-12-11T18:24:19+01:00*
G04 #@! TF.ProjectId,SRSE2,53525345-322e-46b6-9963-61645f706362,1.1*
G04 #@! TF.SameCoordinates,Original*
G04 #@! TF.FileFunction,Soldermask,Top*
G04 #@! TF.FilePolarity,Negative*
%FSLAX46Y46*%
G04 Gerber Fmt 4.6, Leading zero omitted, Abs format (unit mm)*
G04 Created by KiCad (PCBNEW 5.1.12-84ad8e8a86~92~ubuntu20.04.1) date 2021-12-11 18:24:19*
%MOMM*%
%LPD*%
G01*
G04 APERTURE LIST*
%ADD10O,1.600000X2.400000*%
%ADD11C,1.700000*%
%ADD12O,2.100000X2.100000*%
%ADD13C,1.670000*%
%ADD14C,1.900000*%
%ADD15C,3.650000*%
%ADD16O,2.200000X3.143200*%
%ADD17C,1.800000*%
%ADD18C,2.900000*%
%ADD19C,4.464000*%
%ADD20C,2.400000*%
%ADD21O,2.127200X2.432000*%
%ADD22O,2.432000X2.432000*%
%ADD23O,2.432000X2.127200*%
%ADD24O,2.099260X1.598880*%
%ADD25O,2.200000X2.200000*%
G04 APERTURE END LIST*
D10*
X161685000Y-117610000D03*
X161685000Y-93210000D03*
X159685000Y-117610000D03*
X159685000Y-93210000D03*
X157685000Y-117610000D03*
X157685000Y-93210000D03*
X155685000Y-117610000D03*
X155685000Y-93210000D03*
X153685000Y-117610000D03*
X153685000Y-93210000D03*
X151685000Y-117610000D03*
X151685000Y-93210000D03*
X149685000Y-117610000D03*
X149685000Y-93210000D03*
X147685000Y-117610000D03*
X147685000Y-93210000D03*
X145685000Y-117610000D03*
X145685000Y-93210000D03*
X143685000Y-117610000D03*
X143685000Y-93210000D03*
X141685000Y-117610000D03*
X141685000Y-93210000D03*
X139685000Y-117610000D03*
X139685000Y-93210000D03*
X137685000Y-117610000D03*
X137685000Y-93210000D03*
X135685000Y-117610000D03*
X135685000Y-93210000D03*
X133685000Y-117610000D03*
X133685000Y-93210000D03*
X131685000Y-117610000D03*
X131685000Y-93210000D03*
G36*
G01*
X159534950Y-103864600D02*
X158473050Y-103864600D01*
G75*
G02*
X158079000Y-103470550I0J394050D01*
G01*
X158079000Y-102358650D01*
G75*
G02*
X158473050Y-101964600I394050J0D01*
G01*
X159534950Y-101964600D01*
G75*
G02*
X159929000Y-102358650I0J-394050D01*
G01*
X159929000Y-103470550D01*
G75*
G02*
X159534950Y-103864600I-394050J0D01*
G01*
G37*
G36*
G01*
X158473050Y-104364600D02*
X159534950Y-104364600D01*
G75*
G02*
X159929000Y-104758650I0J-394050D01*
G01*
X159929000Y-105870550D01*
G75*
G02*
X159534950Y-106264600I-394050J0D01*
G01*
X158473050Y-106264600D01*
G75*
G02*
X158079000Y-105870550I0J394050D01*
G01*
X158079000Y-104758650D01*
G75*
G02*
X158473050Y-104364600I394050J0D01*
G01*
G37*
G36*
G01*
X146416800Y-126394800D02*
X146916800Y-126394800D01*
G75*
G02*
X147166800Y-126644800I0J-250000D01*
G01*
X147166800Y-128494800D01*
G75*
G02*
X146916800Y-128744800I-250000J0D01*
G01*
X146416800Y-128744800D01*
G75*
G02*
X146166800Y-128494800I0J250000D01*
G01*
X146166800Y-126644800D01*
G75*
G02*
X146416800Y-126394800I250000J0D01*
G01*
G37*
G36*
G01*
X145146800Y-126394800D02*
X145646800Y-126394800D01*
G75*
G02*
X145896800Y-126644800I0J-250000D01*
G01*
X145896800Y-128494800D01*
G75*
G02*
X145646800Y-128744800I-250000J0D01*
G01*
X145146800Y-128744800D01*
G75*
G02*
X144896800Y-128494800I0J250000D01*
G01*
X144896800Y-126644800D01*
G75*
G02*
X145146800Y-126394800I250000J0D01*
G01*
G37*
G36*
G01*
X143876800Y-126394800D02*
X144376800Y-126394800D01*
G75*
G02*
X144626800Y-126644800I0J-250000D01*
G01*
X144626800Y-128494800D01*
G75*
G02*
X144376800Y-128744800I-250000J0D01*
G01*
X143876800Y-128744800D01*
G75*
G02*
X143626800Y-128494800I0J250000D01*
G01*
X143626800Y-126644800D01*
G75*
G02*
X143876800Y-126394800I250000J0D01*
G01*
G37*
G36*
G01*
X142606800Y-126394800D02*
X143106800Y-126394800D01*
G75*
G02*
X143356800Y-126644800I0J-250000D01*
G01*
X143356800Y-128494800D01*
G75*
G02*
X143106800Y-128744800I-250000J0D01*
G01*
X142606800Y-128744800D01*
G75*
G02*
X142356800Y-128494800I0J250000D01*
G01*
X142356800Y-126644800D01*
G75*
G02*
X142606800Y-126394800I250000J0D01*
G01*
G37*
G36*
G01*
X142606800Y-121444800D02*
X143106800Y-121444800D01*
G75*
G02*
X143356800Y-121694800I0J-250000D01*
G01*
X143356800Y-123544800D01*
G75*
G02*
X143106800Y-123794800I-250000J0D01*
G01*
X142606800Y-123794800D01*
G75*
G02*
X142356800Y-123544800I0J250000D01*
G01*
X142356800Y-121694800D01*
G75*
G02*
X142606800Y-121444800I250000J0D01*
G01*
G37*
G36*
G01*
X143876800Y-121444800D02*
X144376800Y-121444800D01*
G75*
G02*
X144626800Y-121694800I0J-250000D01*
G01*
X144626800Y-123544800D01*
G75*
G02*
X144376800Y-123794800I-250000J0D01*
G01*
X143876800Y-123794800D01*
G75*
G02*
X143626800Y-123544800I0J250000D01*
G01*
X143626800Y-121694800D01*
G75*
G02*
X143876800Y-121444800I250000J0D01*
G01*
G37*
G36*
G01*
X145146800Y-121444800D02*
X145646800Y-121444800D01*
G75*
G02*
X145896800Y-121694800I0J-250000D01*
G01*
X145896800Y-123544800D01*
G75*
G02*
X145646800Y-123794800I-250000J0D01*
G01*
X145146800Y-123794800D01*
G75*
G02*
X144896800Y-123544800I0J250000D01*
G01*
X144896800Y-121694800D01*
G75*
G02*
X145146800Y-121444800I250000J0D01*
G01*
G37*
G36*
G01*
X146416800Y-121444800D02*
X146916800Y-121444800D01*
G75*
G02*
X147166800Y-121694800I0J-250000D01*
G01*
X147166800Y-123544800D01*
G75*
G02*
X146916800Y-123794800I-250000J0D01*
G01*
X146416800Y-123794800D01*
G75*
G02*
X146166800Y-123544800I0J250000D01*
G01*
X146166800Y-121694800D01*
G75*
G02*
X146416800Y-121444800I250000J0D01*
G01*
G37*
G36*
G01*
X140312050Y-123211400D02*
X141373950Y-123211400D01*
G75*
G02*
X141768000Y-123605450I0J-394050D01*
G01*
X141768000Y-124717350D01*
G75*
G02*
X141373950Y-125111400I-394050J0D01*
G01*
X140312050Y-125111400D01*
G75*
G02*
X139918000Y-124717350I0J394050D01*
G01*
X139918000Y-123605450D01*
G75*
G02*
X140312050Y-123211400I394050J0D01*
G01*
G37*
G36*
G01*
X141373950Y-122711400D02*
X140312050Y-122711400D01*
G75*
G02*
X139918000Y-122317350I0J394050D01*
G01*
X139918000Y-121205450D01*
G75*
G02*
X140312050Y-120811400I394050J0D01*
G01*
X141373950Y-120811400D01*
G75*
G02*
X141768000Y-121205450I0J-394050D01*
G01*
X141768000Y-122317350D01*
G75*
G02*
X141373950Y-122711400I-394050J0D01*
G01*
G37*
G36*
G01*
X122644800Y-116572400D02*
X124344800Y-116572400D01*
G75*
G02*
X124544800Y-116772400I0J-200000D01*
G01*
X124544800Y-118272400D01*
G75*
G02*
X124344800Y-118472400I-200000J0D01*
G01*
X122644800Y-118472400D01*
G75*
G02*
X122444800Y-118272400I0J200000D01*
G01*
X122444800Y-116772400D01*
G75*
G02*
X122644800Y-116572400I200000J0D01*
G01*
G37*
G36*
G01*
X122644800Y-112972400D02*
X124344800Y-112972400D01*
G75*
G02*
X124544800Y-113172400I0J-200000D01*
G01*
X124544800Y-114672400D01*
G75*
G02*
X124344800Y-114872400I-200000J0D01*
G01*
X122644800Y-114872400D01*
G75*
G02*
X122444800Y-114672400I0J200000D01*
G01*
X122444800Y-113172400D01*
G75*
G02*
X122644800Y-112972400I200000J0D01*
G01*
G37*
G36*
G01*
X138721200Y-122365400D02*
X137021200Y-122365400D01*
G75*
G02*
X136821200Y-122165400I0J200000D01*
G01*
X136821200Y-120665400D01*
G75*
G02*
X137021200Y-120465400I200000J0D01*
G01*
X138721200Y-120465400D01*
G75*
G02*
X138921200Y-120665400I0J-200000D01*
G01*
X138921200Y-122165400D01*
G75*
G02*
X138721200Y-122365400I-200000J0D01*
G01*
G37*
G36*
G01*
X138721200Y-125965400D02*
X137021200Y-125965400D01*
G75*
G02*
X136821200Y-125765400I0J200000D01*
G01*
X136821200Y-124265400D01*
G75*
G02*
X137021200Y-124065400I200000J0D01*
G01*
X138721200Y-124065400D01*
G75*
G02*
X138921200Y-124265400I0J-200000D01*
G01*
X138921200Y-125765400D01*
G75*
G02*
X138721200Y-125965400I-200000J0D01*
G01*
G37*
G36*
G01*
X155687000Y-126182000D02*
X156987000Y-126182000D01*
G75*
G02*
X157187000Y-126382000I0J-200000D01*
G01*
X157187000Y-127732000D01*
G75*
G02*
X156987000Y-127932000I-200000J0D01*
G01*
X155687000Y-127932000D01*
G75*
G02*
X155487000Y-127732000I0J200000D01*
G01*
X155487000Y-126382000D01*
G75*
G02*
X155687000Y-126182000I200000J0D01*
G01*
G37*
G36*
G01*
X155687000Y-123782000D02*
X156987000Y-123782000D01*
G75*
G02*
X157187000Y-123982000I0J-200000D01*
G01*
X157187000Y-125332000D01*
G75*
G02*
X156987000Y-125532000I-200000J0D01*
G01*
X155687000Y-125532000D01*
G75*
G02*
X155487000Y-125332000I0J200000D01*
G01*
X155487000Y-123982000D01*
G75*
G02*
X155687000Y-123782000I200000J0D01*
G01*
G37*
G36*
G01*
X116571000Y-96413200D02*
X117871000Y-96413200D01*
G75*
G02*
X118071000Y-96613200I0J-200000D01*
G01*
X118071000Y-97963200D01*
G75*
G02*
X117871000Y-98163200I-200000J0D01*
G01*
X116571000Y-98163200D01*
G75*
G02*
X116371000Y-97963200I0J200000D01*
G01*
X116371000Y-96613200D01*
G75*
G02*
X116571000Y-96413200I200000J0D01*
G01*
G37*
G36*
G01*
X116571000Y-94013200D02*
X117871000Y-94013200D01*
G75*
G02*
X118071000Y-94213200I0J-200000D01*
G01*
X118071000Y-95563200D01*
G75*
G02*
X117871000Y-95763200I-200000J0D01*
G01*
X116571000Y-95763200D01*
G75*
G02*
X116371000Y-95563200I0J200000D01*
G01*
X116371000Y-94213200D01*
G75*
G02*
X116571000Y-94013200I200000J0D01*
G01*
G37*
G36*
G01*
X119873000Y-96464000D02*
X121173000Y-96464000D01*
G75*
G02*
X121373000Y-96664000I0J-200000D01*
G01*
X121373000Y-98014000D01*
G75*
G02*
X121173000Y-98214000I-200000J0D01*
G01*
X119873000Y-98214000D01*
G75*
G02*
X119673000Y-98014000I0J200000D01*
G01*
X119673000Y-96664000D01*
G75*
G02*
X119873000Y-96464000I200000J0D01*
G01*
G37*
G36*
G01*
X119873000Y-94064000D02*
X121173000Y-94064000D01*
G75*
G02*
X121373000Y-94264000I0J-200000D01*
G01*
X121373000Y-95614000D01*
G75*
G02*
X121173000Y-95814000I-200000J0D01*
G01*
X119873000Y-95814000D01*
G75*
G02*
X119673000Y-95614000I0J200000D01*
G01*
X119673000Y-94264000D01*
G75*
G02*
X119873000Y-94064000I200000J0D01*
G01*
G37*
G36*
G01*
X151965900Y-106306500D02*
X153265900Y-106306500D01*
G75*
G02*
X153465900Y-106506500I0J-200000D01*
G01*
X153465900Y-107856500D01*
G75*
G02*
X153265900Y-108056500I-200000J0D01*
G01*
X151965900Y-108056500D01*
G75*
G02*
X151765900Y-107856500I0J200000D01*
G01*
X151765900Y-106506500D01*
G75*
G02*
X151965900Y-106306500I200000J0D01*
G01*
G37*
G36*
G01*
X151965900Y-103906500D02*
X153265900Y-103906500D01*
G75*
G02*
X153465900Y-104106500I0J-200000D01*
G01*
X153465900Y-105456500D01*
G75*
G02*
X153265900Y-105656500I-200000J0D01*
G01*
X151965900Y-105656500D01*
G75*
G02*
X151765900Y-105456500I0J200000D01*
G01*
X151765900Y-104106500D01*
G75*
G02*
X151965900Y-103906500I200000J0D01*
G01*
G37*
G36*
G01*
X123149600Y-96438600D02*
X124449600Y-96438600D01*
G75*
G02*
X124649600Y-96638600I0J-200000D01*
G01*
X124649600Y-97988600D01*
G75*
G02*
X124449600Y-98188600I-200000J0D01*
G01*
X123149600Y-98188600D01*
G75*
G02*
X122949600Y-97988600I0J200000D01*
G01*
X122949600Y-96638600D01*
G75*
G02*
X123149600Y-96438600I200000J0D01*
G01*
G37*
G36*
G01*
X123149600Y-94038600D02*
X124449600Y-94038600D01*
G75*
G02*
X124649600Y-94238600I0J-200000D01*
G01*
X124649600Y-95588600D01*
G75*
G02*
X124449600Y-95788600I-200000J0D01*
G01*
X123149600Y-95788600D01*
G75*
G02*
X122949600Y-95588600I0J200000D01*
G01*
X122949600Y-94238600D01*
G75*
G02*
X123149600Y-94038600I200000J0D01*
G01*
G37*
G36*
G01*
X166825000Y-101150000D02*
X166825000Y-99850000D01*
G75*
G02*
X167025000Y-99650000I200000J0D01*
G01*
X168375000Y-99650000D01*
G75*
G02*
X168575000Y-99850000I0J-200000D01*
G01*
X168575000Y-101150000D01*
G75*
G02*
X168375000Y-101350000I-200000J0D01*
G01*
X167025000Y-101350000D01*
G75*
G02*
X166825000Y-101150000I0J200000D01*
G01*
G37*
G36*
G01*
X164425000Y-101150000D02*
X164425000Y-99850000D01*
G75*
G02*
X164625000Y-99650000I200000J0D01*
G01*
X165975000Y-99650000D01*
G75*
G02*
X166175000Y-99850000I0J-200000D01*
G01*
X166175000Y-101150000D01*
G75*
G02*
X165975000Y-101350000I-200000J0D01*
G01*
X164625000Y-101350000D01*
G75*
G02*
X164425000Y-101150000I0J200000D01*
G01*
G37*
G36*
G01*
X171650000Y-99175000D02*
X170350000Y-99175000D01*
G75*
G02*
X170150000Y-98975000I0J200000D01*
G01*
X170150000Y-97625000D01*
G75*
G02*
X170350000Y-97425000I200000J0D01*
G01*
X171650000Y-97425000D01*
G75*
G02*
X171850000Y-97625000I0J-200000D01*
G01*
X171850000Y-98975000D01*
G75*
G02*
X171650000Y-99175000I-200000J0D01*
G01*
G37*
G36*
G01*
X171650000Y-101575000D02*
X170350000Y-101575000D01*
G75*
G02*
X170150000Y-101375000I0J200000D01*
G01*
X170150000Y-100025000D01*
G75*
G02*
X170350000Y-99825000I200000J0D01*
G01*
X171650000Y-99825000D01*
G75*
G02*
X171850000Y-100025000I0J-200000D01*
G01*
X171850000Y-101375000D01*
G75*
G02*
X171650000Y-101575000I-200000J0D01*
G01*
G37*
G36*
G01*
X150281400Y-125582800D02*
X148981400Y-125582800D01*
G75*
G02*
X148781400Y-125382800I0J200000D01*
G01*
X148781400Y-124032800D01*
G75*
G02*
X148981400Y-123832800I200000J0D01*
G01*
X150281400Y-123832800D01*
G75*
G02*
X150481400Y-124032800I0J-200000D01*
G01*
X150481400Y-125382800D01*
G75*
G02*
X150281400Y-125582800I-200000J0D01*
G01*
G37*
G36*
G01*
X150281400Y-127982800D02*
X148981400Y-127982800D01*
G75*
G02*
X148781400Y-127782800I0J200000D01*
G01*
X148781400Y-126432800D01*
G75*
G02*
X148981400Y-126232800I200000J0D01*
G01*
X150281400Y-126232800D01*
G75*
G02*
X150481400Y-126432800I0J-200000D01*
G01*
X150481400Y-127782800D01*
G75*
G02*
X150281400Y-127982800I-200000J0D01*
G01*
G37*
G36*
G01*
X169403000Y-136850000D02*
X170703000Y-136850000D01*
G75*
G02*
X170903000Y-137050000I0J-200000D01*
G01*
X170903000Y-138400000D01*
G75*
G02*
X170703000Y-138600000I-200000J0D01*
G01*
X169403000Y-138600000D01*
G75*
G02*
X169203000Y-138400000I0J200000D01*
G01*
X169203000Y-137050000D01*
G75*
G02*
X169403000Y-136850000I200000J0D01*
G01*
G37*
G36*
G01*
X169403000Y-134450000D02*
X170703000Y-134450000D01*
G75*
G02*
X170903000Y-134650000I0J-200000D01*
G01*
X170903000Y-136000000D01*
G75*
G02*
X170703000Y-136200000I-200000J0D01*
G01*
X169403000Y-136200000D01*
G75*
G02*
X169203000Y-136000000I0J200000D01*
G01*
X169203000Y-134650000D01*
G75*
G02*
X169403000Y-134450000I200000J0D01*
G01*
G37*
G36*
G01*
X169403000Y-131516000D02*
X170703000Y-131516000D01*
G75*
G02*
X170903000Y-131716000I0J-200000D01*
G01*
X170903000Y-133066000D01*
G75*
G02*
X170703000Y-133266000I-200000J0D01*
G01*
X169403000Y-133266000D01*
G75*
G02*
X169203000Y-133066000I0J200000D01*
G01*
X169203000Y-131716000D01*
G75*
G02*
X169403000Y-131516000I200000J0D01*
G01*
G37*
G36*
G01*
X169403000Y-129116000D02*
X170703000Y-129116000D01*
G75*
G02*
X170903000Y-129316000I0J-200000D01*
G01*
X170903000Y-130666000D01*
G75*
G02*
X170703000Y-130866000I-200000J0D01*
G01*
X169403000Y-130866000D01*
G75*
G02*
X169203000Y-130666000I0J200000D01*
G01*
X169203000Y-129316000D01*
G75*
G02*
X169403000Y-129116000I200000J0D01*
G01*
G37*
G36*
G01*
X153401000Y-126182000D02*
X154701000Y-126182000D01*
G75*
G02*
X154901000Y-126382000I0J-200000D01*
G01*
X154901000Y-127732000D01*
G75*
G02*
X154701000Y-127932000I-200000J0D01*
G01*
X153401000Y-127932000D01*
G75*
G02*
X153201000Y-127732000I0J200000D01*
G01*
X153201000Y-126382000D01*
G75*
G02*
X153401000Y-126182000I200000J0D01*
G01*
G37*
G36*
G01*
X153401000Y-123782000D02*
X154701000Y-123782000D01*
G75*
G02*
X154901000Y-123982000I0J-200000D01*
G01*
X154901000Y-125332000D01*
G75*
G02*
X154701000Y-125532000I-200000J0D01*
G01*
X153401000Y-125532000D01*
G75*
G02*
X153201000Y-125332000I0J200000D01*
G01*
X153201000Y-123982000D01*
G75*
G02*
X153401000Y-123782000I200000J0D01*
G01*
G37*
G36*
G01*
X157846000Y-126182000D02*
X159146000Y-126182000D01*
G75*
G02*
X159346000Y-126382000I0J-200000D01*
G01*
X159346000Y-127732000D01*
G75*
G02*
X159146000Y-127932000I-200000J0D01*
G01*
X157846000Y-127932000D01*
G75*
G02*
X157646000Y-127732000I0J200000D01*
G01*
X157646000Y-126382000D01*
G75*
G02*
X157846000Y-126182000I200000J0D01*
G01*
G37*
G36*
G01*
X157846000Y-123782000D02*
X159146000Y-123782000D01*
G75*
G02*
X159346000Y-123982000I0J-200000D01*
G01*
X159346000Y-125332000D01*
G75*
G02*
X159146000Y-125532000I-200000J0D01*
G01*
X157846000Y-125532000D01*
G75*
G02*
X157646000Y-125332000I0J200000D01*
G01*
X157646000Y-123982000D01*
G75*
G02*
X157846000Y-123782000I200000J0D01*
G01*
G37*
G36*
G01*
X164119800Y-126156600D02*
X165419800Y-126156600D01*
G75*
G02*
X165619800Y-126356600I0J-200000D01*
G01*
X165619800Y-127706600D01*
G75*
G02*
X165419800Y-127906600I-200000J0D01*
G01*
X164119800Y-127906600D01*
G75*
G02*
X163919800Y-127706600I0J200000D01*
G01*
X163919800Y-126356600D01*
G75*
G02*
X164119800Y-126156600I200000J0D01*
G01*
G37*
G36*
G01*
X164119800Y-123756600D02*
X165419800Y-123756600D01*
G75*
G02*
X165619800Y-123956600I0J-200000D01*
G01*
X165619800Y-125306600D01*
G75*
G02*
X165419800Y-125506600I-200000J0D01*
G01*
X164119800Y-125506600D01*
G75*
G02*
X163919800Y-125306600I0J200000D01*
G01*
X163919800Y-123956600D01*
G75*
G02*
X164119800Y-123756600I200000J0D01*
G01*
G37*
G36*
G01*
X136175000Y-114350000D02*
X136175000Y-115650000D01*
G75*
G02*
X135975000Y-115850000I-200000J0D01*
G01*
X134625000Y-115850000D01*
G75*
G02*
X134425000Y-115650000I0J200000D01*
G01*
X134425000Y-114350000D01*
G75*
G02*
X134625000Y-114150000I200000J0D01*
G01*
X135975000Y-114150000D01*
G75*
G02*
X136175000Y-114350000I0J-200000D01*
G01*
G37*
G36*
G01*
X138575000Y-114350000D02*
X138575000Y-115650000D01*
G75*
G02*
X138375000Y-115850000I-200000J0D01*
G01*
X137025000Y-115850000D01*
G75*
G02*
X136825000Y-115650000I0J200000D01*
G01*
X136825000Y-114350000D01*
G75*
G02*
X137025000Y-114150000I200000J0D01*
G01*
X138375000Y-114150000D01*
G75*
G02*
X138575000Y-114350000I0J-200000D01*
G01*
G37*
G36*
G01*
X162631000Y-109031800D02*
X162631000Y-107731800D01*
G75*
G02*
X162831000Y-107531800I200000J0D01*
G01*
X164181000Y-107531800D01*
G75*
G02*
X164381000Y-107731800I0J-200000D01*
G01*
X164381000Y-109031800D01*
G75*
G02*
X164181000Y-109231800I-200000J0D01*
G01*
X162831000Y-109231800D01*
G75*
G02*
X162631000Y-109031800I0J200000D01*
G01*
G37*
G36*
G01*
X160231000Y-109031800D02*
X160231000Y-107731800D01*
G75*
G02*
X160431000Y-107531800I200000J0D01*
G01*
X161781000Y-107531800D01*
G75*
G02*
X161981000Y-107731800I0J-200000D01*
G01*
X161981000Y-109031800D01*
G75*
G02*
X161781000Y-109231800I-200000J0D01*
G01*
X160431000Y-109231800D01*
G75*
G02*
X160231000Y-109031800I0J200000D01*
G01*
G37*
G36*
G01*
X130648600Y-96255600D02*
X130648600Y-94955600D01*
G75*
G02*
X130848600Y-94755600I200000J0D01*
G01*
X132198600Y-94755600D01*
G75*
G02*
X132398600Y-94955600I0J-200000D01*
G01*
X132398600Y-96255600D01*
G75*
G02*
X132198600Y-96455600I-200000J0D01*
G01*
X130848600Y-96455600D01*
G75*
G02*
X130648600Y-96255600I0J200000D01*
G01*
G37*
G36*
G01*
X128248600Y-96255600D02*
X128248600Y-94955600D01*
G75*
G02*
X128448600Y-94755600I200000J0D01*
G01*
X129798600Y-94755600D01*
G75*
G02*
X129998600Y-94955600I0J-200000D01*
G01*
X129998600Y-96255600D01*
G75*
G02*
X129798600Y-96455600I-200000J0D01*
G01*
X128448600Y-96455600D01*
G75*
G02*
X128248600Y-96255600I0J200000D01*
G01*
G37*
G36*
G01*
X124500400Y-124004200D02*
X123200400Y-124004200D01*
G75*
G02*
X123000400Y-123804200I0J200000D01*
G01*
X123000400Y-122454200D01*
G75*
G02*
X123200400Y-122254200I200000J0D01*
G01*
X124500400Y-122254200D01*
G75*
G02*
X124700400Y-122454200I0J-200000D01*
G01*
X124700400Y-123804200D01*
G75*
G02*
X124500400Y-124004200I-200000J0D01*
G01*
G37*
G36*
G01*
X124500400Y-126404200D02*
X123200400Y-126404200D01*
G75*
G02*
X123000400Y-126204200I0J200000D01*
G01*
X123000400Y-124854200D01*
G75*
G02*
X123200400Y-124654200I200000J0D01*
G01*
X124500400Y-124654200D01*
G75*
G02*
X124700400Y-124854200I0J-200000D01*
G01*
X124700400Y-126204200D01*
G75*
G02*
X124500400Y-126404200I-200000J0D01*
G01*
G37*
G36*
G01*
X124414400Y-119339600D02*
X124414400Y-120639600D01*
G75*
G02*
X124214400Y-120839600I-200000J0D01*
G01*
X122864400Y-120839600D01*
G75*
G02*
X122664400Y-120639600I0J200000D01*
G01*
X122664400Y-119339600D01*
G75*
G02*
X122864400Y-119139600I200000J0D01*
G01*
X124214400Y-119139600D01*
G75*
G02*
X124414400Y-119339600I0J-200000D01*
G01*
G37*
G36*
G01*
X126814400Y-119339600D02*
X126814400Y-120639600D01*
G75*
G02*
X126614400Y-120839600I-200000J0D01*
G01*
X125264400Y-120839600D01*
G75*
G02*
X125064400Y-120639600I0J200000D01*
G01*
X125064400Y-119339600D01*
G75*
G02*
X125264400Y-119139600I200000J0D01*
G01*
X126614400Y-119139600D01*
G75*
G02*
X126814400Y-119339600I0J-200000D01*
G01*
G37*
G36*
G01*
X113726200Y-109392600D02*
X115026200Y-109392600D01*
G75*
G02*
X115226200Y-109592600I0J-200000D01*
G01*
X115226200Y-110942600D01*
G75*
G02*
X115026200Y-111142600I-200000J0D01*
G01*
X113726200Y-111142600D01*
G75*
G02*
X113526200Y-110942600I0J200000D01*
G01*
X113526200Y-109592600D01*
G75*
G02*
X113726200Y-109392600I200000J0D01*
G01*
G37*
G36*
G01*
X113726200Y-106992600D02*
X115026200Y-106992600D01*
G75*
G02*
X115226200Y-107192600I0J-200000D01*
G01*
X115226200Y-108542600D01*
G75*
G02*
X115026200Y-108742600I-200000J0D01*
G01*
X113726200Y-108742600D01*
G75*
G02*
X113526200Y-108542600I0J200000D01*
G01*
X113526200Y-107192600D01*
G75*
G02*
X113726200Y-106992600I200000J0D01*
G01*
G37*
G36*
G01*
X128666000Y-110673000D02*
X127366000Y-110673000D01*
G75*
G02*
X127166000Y-110473000I0J200000D01*
G01*
X127166000Y-109123000D01*
G75*
G02*
X127366000Y-108923000I200000J0D01*
G01*
X128666000Y-108923000D01*
G75*
G02*
X128866000Y-109123000I0J-200000D01*
G01*
X128866000Y-110473000D01*
G75*
G02*
X128666000Y-110673000I-200000J0D01*
G01*
G37*
G36*
G01*
X128666000Y-113073000D02*
X127366000Y-113073000D01*
G75*
G02*
X127166000Y-112873000I0J200000D01*
G01*
X127166000Y-111523000D01*
G75*
G02*
X127366000Y-111323000I200000J0D01*
G01*
X128666000Y-111323000D01*
G75*
G02*
X128866000Y-111523000I0J-200000D01*
G01*
X128866000Y-112873000D01*
G75*
G02*
X128666000Y-113073000I-200000J0D01*
G01*
G37*
G36*
G01*
X127366000Y-105299400D02*
X128666000Y-105299400D01*
G75*
G02*
X128866000Y-105499400I0J-200000D01*
G01*
X128866000Y-106849400D01*
G75*
G02*
X128666000Y-107049400I-200000J0D01*
G01*
X127366000Y-107049400D01*
G75*
G02*
X127166000Y-106849400I0J200000D01*
G01*
X127166000Y-105499400D01*
G75*
G02*
X127366000Y-105299400I200000J0D01*
G01*
G37*
G36*
G01*
X127366000Y-102899400D02*
X128666000Y-102899400D01*
G75*
G02*
X128866000Y-103099400I0J-200000D01*
G01*
X128866000Y-104449400D01*
G75*
G02*
X128666000Y-104649400I-200000J0D01*
G01*
X127366000Y-104649400D01*
G75*
G02*
X127166000Y-104449400I0J200000D01*
G01*
X127166000Y-103099400D01*
G75*
G02*
X127366000Y-102899400I200000J0D01*
G01*
G37*
G36*
G01*
X169908100Y-96611200D02*
X169908100Y-95311200D01*
G75*
G02*
X170108100Y-95111200I200000J0D01*
G01*
X171458100Y-95111200D01*
G75*
G02*
X171658100Y-95311200I0J-200000D01*
G01*
X171658100Y-96611200D01*
G75*
G02*
X171458100Y-96811200I-200000J0D01*
G01*
X170108100Y-96811200D01*
G75*
G02*
X169908100Y-96611200I0J200000D01*
G01*
G37*
G36*
G01*
X167508100Y-96611200D02*
X167508100Y-95311200D01*
G75*
G02*
X167708100Y-95111200I200000J0D01*
G01*
X169058100Y-95111200D01*
G75*
G02*
X169258100Y-95311200I0J-200000D01*
G01*
X169258100Y-96611200D01*
G75*
G02*
X169058100Y-96811200I-200000J0D01*
G01*
X167708100Y-96811200D01*
G75*
G02*
X167508100Y-96611200I0J200000D01*
G01*
G37*
G36*
G01*
X169232700Y-93164900D02*
X169232700Y-94464900D01*
G75*
G02*
X169032700Y-94664900I-200000J0D01*
G01*
X167682700Y-94664900D01*
G75*
G02*
X167482700Y-94464900I0J200000D01*
G01*
X167482700Y-93164900D01*
G75*
G02*
X167682700Y-92964900I200000J0D01*
G01*
X169032700Y-92964900D01*
G75*
G02*
X169232700Y-93164900I0J-200000D01*
G01*
G37*
G36*
G01*
X171632700Y-93164900D02*
X171632700Y-94464900D01*
G75*
G02*
X171432700Y-94664900I-200000J0D01*
G01*
X170082700Y-94664900D01*
G75*
G02*
X169882700Y-94464900I0J200000D01*
G01*
X169882700Y-93164900D01*
G75*
G02*
X170082700Y-92964900I200000J0D01*
G01*
X171432700Y-92964900D01*
G75*
G02*
X171632700Y-93164900I0J-200000D01*
G01*
G37*
G36*
G01*
X113751600Y-104795200D02*
X115051600Y-104795200D01*
G75*
G02*
X115251600Y-104995200I0J-200000D01*
G01*
X115251600Y-106345200D01*
G75*
G02*
X115051600Y-106545200I-200000J0D01*
G01*
X113751600Y-106545200D01*
G75*
G02*
X113551600Y-106345200I0J200000D01*
G01*
X113551600Y-104995200D01*
G75*
G02*
X113751600Y-104795200I200000J0D01*
G01*
G37*
G36*
G01*
X113751600Y-102395200D02*
X115051600Y-102395200D01*
G75*
G02*
X115251600Y-102595200I0J-200000D01*
G01*
X115251600Y-103945200D01*
G75*
G02*
X115051600Y-104145200I-200000J0D01*
G01*
X113751600Y-104145200D01*
G75*
G02*
X113551600Y-103945200I0J200000D01*
G01*
X113551600Y-102595200D01*
G75*
G02*
X113751600Y-102395200I200000J0D01*
G01*
G37*
G36*
G01*
X111186200Y-100223200D02*
X112486200Y-100223200D01*
G75*
G02*
X112686200Y-100423200I0J-200000D01*
G01*
X112686200Y-101773200D01*
G75*
G02*
X112486200Y-101973200I-200000J0D01*
G01*
X111186200Y-101973200D01*
G75*
G02*
X110986200Y-101773200I0J200000D01*
G01*
X110986200Y-100423200D01*
G75*
G02*
X111186200Y-100223200I200000J0D01*
G01*
G37*
G36*
G01*
X111186200Y-97823200D02*
X112486200Y-97823200D01*
G75*
G02*
X112686200Y-98023200I0J-200000D01*
G01*
X112686200Y-99373200D01*
G75*
G02*
X112486200Y-99573200I-200000J0D01*
G01*
X111186200Y-99573200D01*
G75*
G02*
X110986200Y-99373200I0J200000D01*
G01*
X110986200Y-98023200D01*
G75*
G02*
X111186200Y-97823200I200000J0D01*
G01*
G37*
G36*
G01*
X106682450Y-100173600D02*
X107744350Y-100173600D01*
G75*
G02*
X108138400Y-100567650I0J-394050D01*
G01*
X108138400Y-101679550D01*
G75*
G02*
X107744350Y-102073600I-394050J0D01*
G01*
X106682450Y-102073600D01*
G75*
G02*
X106288400Y-101679550I0J394050D01*
G01*
X106288400Y-100567650D01*
G75*
G02*
X106682450Y-100173600I394050J0D01*
G01*
G37*
G36*
G01*
X107744350Y-99673600D02*
X106682450Y-99673600D01*
G75*
G02*
X106288400Y-99279550I0J394050D01*
G01*
X106288400Y-98167650D01*
G75*
G02*
X106682450Y-97773600I394050J0D01*
G01*
X107744350Y-97773600D01*
G75*
G02*
X108138400Y-98167650I0J-394050D01*
G01*
X108138400Y-99279550D01*
G75*
G02*
X107744350Y-99673600I-394050J0D01*
G01*
G37*
G36*
G01*
X109514550Y-125535500D02*
X110576450Y-125535500D01*
G75*
G02*
X110970500Y-125929550I0J-394050D01*
G01*
X110970500Y-127041450D01*
G75*
G02*
X110576450Y-127435500I-394050J0D01*
G01*
X109514550Y-127435500D01*
G75*
G02*
X109120500Y-127041450I0J394050D01*
G01*
X109120500Y-125929550D01*
G75*
G02*
X109514550Y-125535500I394050J0D01*
G01*
G37*
G36*
G01*
X110576450Y-125035500D02*
X109514550Y-125035500D01*
G75*
G02*
X109120500Y-124641450I0J394050D01*
G01*
X109120500Y-123529550D01*
G75*
G02*
X109514550Y-123135500I394050J0D01*
G01*
X110576450Y-123135500D01*
G75*
G02*
X110970500Y-123529550I0J-394050D01*
G01*
X110970500Y-124641450D01*
G75*
G02*
X110576450Y-125035500I-394050J0D01*
G01*
G37*
G36*
G01*
X109514550Y-119807800D02*
X110576450Y-119807800D01*
G75*
G02*
X110970500Y-120201850I0J-394050D01*
G01*
X110970500Y-121313750D01*
G75*
G02*
X110576450Y-121707800I-394050J0D01*
G01*
X109514550Y-121707800D01*
G75*
G02*
X109120500Y-121313750I0J394050D01*
G01*
X109120500Y-120201850D01*
G75*
G02*
X109514550Y-119807800I394050J0D01*
G01*
G37*
G36*
G01*
X110576450Y-119307800D02*
X109514550Y-119307800D01*
G75*
G02*
X109120500Y-118913750I0J394050D01*
G01*
X109120500Y-117801850D01*
G75*
G02*
X109514550Y-117407800I394050J0D01*
G01*
X110576450Y-117407800D01*
G75*
G02*
X110970500Y-117801850I0J-394050D01*
G01*
X110970500Y-118913750D01*
G75*
G02*
X110576450Y-119307800I-394050J0D01*
G01*
G37*
G36*
G01*
X143323500Y-112308550D02*
X143323500Y-113370450D01*
G75*
G02*
X142929450Y-113764500I-394050J0D01*
G01*
X141817550Y-113764500D01*
G75*
G02*
X141423500Y-113370450I0J394050D01*
G01*
X141423500Y-112308550D01*
G75*
G02*
X141817550Y-111914500I394050J0D01*
G01*
X142929450Y-111914500D01*
G75*
G02*
X143323500Y-112308550I0J-394050D01*
G01*
G37*
G36*
G01*
X143823500Y-113370450D02*
X143823500Y-112308550D01*
G75*
G02*
X144217550Y-111914500I394050J0D01*
G01*
X145329450Y-111914500D01*
G75*
G02*
X145723500Y-112308550I0J-394050D01*
G01*
X145723500Y-113370450D01*
G75*
G02*
X145329450Y-113764500I-394050J0D01*
G01*
X144217550Y-113764500D01*
G75*
G02*
X143823500Y-113370450I0J394050D01*
G01*
G37*
G36*
G01*
X141551750Y-99660900D02*
X140489850Y-99660900D01*
G75*
G02*
X140095800Y-99266850I0J394050D01*
G01*
X140095800Y-98154950D01*
G75*
G02*
X140489850Y-97760900I394050J0D01*
G01*
X141551750Y-97760900D01*
G75*
G02*
X141945800Y-98154950I0J-394050D01*
G01*
X141945800Y-99266850D01*
G75*
G02*
X141551750Y-99660900I-394050J0D01*
G01*
G37*
G36*
G01*
X140489850Y-100160900D02*
X141551750Y-100160900D01*
G75*
G02*
X141945800Y-100554950I0J-394050D01*
G01*
X141945800Y-101666850D01*
G75*
G02*
X141551750Y-102060900I-394050J0D01*
G01*
X140489850Y-102060900D01*
G75*
G02*
X140095800Y-101666850I0J394050D01*
G01*
X140095800Y-100554950D01*
G75*
G02*
X140489850Y-100160900I394050J0D01*
G01*
G37*
G36*
G01*
X144448400Y-96966950D02*
X144448400Y-98028850D01*
G75*
G02*
X144054350Y-98422900I-394050J0D01*
G01*
X142942450Y-98422900D01*
G75*
G02*
X142548400Y-98028850I0J394050D01*
G01*
X142548400Y-96966950D01*
G75*
G02*
X142942450Y-96572900I394050J0D01*
G01*
X144054350Y-96572900D01*
G75*
G02*
X144448400Y-96966950I0J-394050D01*
G01*
G37*
G36*
G01*
X144948400Y-98028850D02*
X144948400Y-96966950D01*
G75*
G02*
X145342450Y-96572900I394050J0D01*
G01*
X146454350Y-96572900D01*
G75*
G02*
X146848400Y-96966950I0J-394050D01*
G01*
X146848400Y-98028850D01*
G75*
G02*
X146454350Y-98422900I-394050J0D01*
G01*
X145342450Y-98422900D01*
G75*
G02*
X144948400Y-98028850I0J394050D01*
G01*
G37*
G36*
G01*
X132457000Y-113306950D02*
X132457000Y-112245050D01*
G75*
G02*
X132851050Y-111851000I394050J0D01*
G01*
X133962950Y-111851000D01*
G75*
G02*
X134357000Y-112245050I0J-394050D01*
G01*
X134357000Y-113306950D01*
G75*
G02*
X133962950Y-113701000I-394050J0D01*
G01*
X132851050Y-113701000D01*
G75*
G02*
X132457000Y-113306950I0J394050D01*
G01*
G37*
G36*
G01*
X131957000Y-112245050D02*
X131957000Y-113306950D01*
G75*
G02*
X131562950Y-113701000I-394050J0D01*
G01*
X130451050Y-113701000D01*
G75*
G02*
X130057000Y-113306950I0J394050D01*
G01*
X130057000Y-112245050D01*
G75*
G02*
X130451050Y-111851000I394050J0D01*
G01*
X131562950Y-111851000D01*
G75*
G02*
X131957000Y-112245050I0J-394050D01*
G01*
G37*
G36*
G01*
X171530950Y-104474200D02*
X170469050Y-104474200D01*
G75*
G02*
X170075000Y-104080150I0J394050D01*
G01*
X170075000Y-102968250D01*
G75*
G02*
X170469050Y-102574200I394050J0D01*
G01*
X171530950Y-102574200D01*
G75*
G02*
X171925000Y-102968250I0J-394050D01*
G01*
X171925000Y-104080150D01*
G75*
G02*
X171530950Y-104474200I-394050J0D01*
G01*
G37*
G36*
G01*
X170469050Y-104974200D02*
X171530950Y-104974200D01*
G75*
G02*
X171925000Y-105368250I0J-394050D01*
G01*
X171925000Y-106480150D01*
G75*
G02*
X171530950Y-106874200I-394050J0D01*
G01*
X170469050Y-106874200D01*
G75*
G02*
X170075000Y-106480150I0J394050D01*
G01*
X170075000Y-105368250D01*
G75*
G02*
X170469050Y-104974200I394050J0D01*
G01*
G37*
G36*
G01*
X167383550Y-125607000D02*
X166321650Y-125607000D01*
G75*
G02*
X165927600Y-125212950I0J394050D01*
G01*
X165927600Y-124101050D01*
G75*
G02*
X166321650Y-123707000I394050J0D01*
G01*
X167383550Y-123707000D01*
G75*
G02*
X167777600Y-124101050I0J-394050D01*
G01*
X167777600Y-125212950D01*
G75*
G02*
X167383550Y-125607000I-394050J0D01*
G01*
G37*
G36*
G01*
X166321650Y-126107000D02*
X167383550Y-126107000D01*
G75*
G02*
X167777600Y-126501050I0J-394050D01*
G01*
X167777600Y-127612950D01*
G75*
G02*
X167383550Y-128007000I-394050J0D01*
G01*
X166321650Y-128007000D01*
G75*
G02*
X165927600Y-127612950I0J394050D01*
G01*
X165927600Y-126501050D01*
G75*
G02*
X166321650Y-126107000I394050J0D01*
G01*
G37*
G36*
G01*
X163116350Y-125683200D02*
X162054450Y-125683200D01*
G75*
G02*
X161660400Y-125289150I0J394050D01*
G01*
X161660400Y-124177250D01*
G75*
G02*
X162054450Y-123783200I394050J0D01*
G01*
X163116350Y-123783200D01*
G75*
G02*
X163510400Y-124177250I0J-394050D01*
G01*
X163510400Y-125289150D01*
G75*
G02*
X163116350Y-125683200I-394050J0D01*
G01*
G37*
G36*
G01*
X162054450Y-126183200D02*
X163116350Y-126183200D01*
G75*
G02*
X163510400Y-126577250I0J-394050D01*
G01*
X163510400Y-127689150D01*
G75*
G02*
X163116350Y-128083200I-394050J0D01*
G01*
X162054450Y-128083200D01*
G75*
G02*
X161660400Y-127689150I0J394050D01*
G01*
X161660400Y-126577250D01*
G75*
G02*
X162054450Y-126183200I394050J0D01*
G01*
G37*
G36*
G01*
X160047850Y-126183200D02*
X161109750Y-126183200D01*
G75*
G02*
X161503800Y-126577250I0J-394050D01*
G01*
X161503800Y-127689150D01*
G75*
G02*
X161109750Y-128083200I-394050J0D01*
G01*
X160047850Y-128083200D01*
G75*
G02*
X159653800Y-127689150I0J394050D01*
G01*
X159653800Y-126577250D01*
G75*
G02*
X160047850Y-126183200I394050J0D01*
G01*
G37*
G36*
G01*
X161109750Y-125683200D02*
X160047850Y-125683200D01*
G75*
G02*
X159653800Y-125289150I0J394050D01*
G01*
X159653800Y-124177250D01*
G75*
G02*
X160047850Y-123783200I394050J0D01*
G01*
X161109750Y-123783200D01*
G75*
G02*
X161503800Y-124177250I0J-394050D01*
G01*
X161503800Y-125289150D01*
G75*
G02*
X161109750Y-125683200I-394050J0D01*
G01*
G37*
G36*
G01*
X151411850Y-126183200D02*
X152473750Y-126183200D01*
G75*
G02*
X152867800Y-126577250I0J-394050D01*
G01*
X152867800Y-127689150D01*
G75*
G02*
X152473750Y-128083200I-394050J0D01*
G01*
X151411850Y-128083200D01*
G75*
G02*
X151017800Y-127689150I0J394050D01*
G01*
X151017800Y-126577250D01*
G75*
G02*
X151411850Y-126183200I394050J0D01*
G01*
G37*
G36*
G01*
X152473750Y-125683200D02*
X151411850Y-125683200D01*
G75*
G02*
X151017800Y-125289150I0J394050D01*
G01*
X151017800Y-124177250D01*
G75*
G02*
X151411850Y-123783200I394050J0D01*
G01*
X152473750Y-123783200D01*
G75*
G02*
X152867800Y-124177250I0J-394050D01*
G01*
X152867800Y-125289150D01*
G75*
G02*
X152473750Y-125683200I-394050J0D01*
G01*
G37*
G36*
G01*
X106624800Y-106802400D02*
X112424800Y-106802400D01*
G75*
G02*
X112624800Y-107002400I0J-200000D01*
G01*
X112624800Y-113402400D01*
G75*
G02*
X112424800Y-113602400I-200000J0D01*
G01*
X106624800Y-113602400D01*
G75*
G02*
X106424800Y-113402400I0J200000D01*
G01*
X106424800Y-107002400D01*
G75*
G02*
X106624800Y-106802400I200000J0D01*
G01*
G37*
G36*
G01*
X106644800Y-102602400D02*
X107844800Y-102602400D01*
G75*
G02*
X108044800Y-102802400I0J-200000D01*
G01*
X108044800Y-105002400D01*
G75*
G02*
X107844800Y-105202400I-200000J0D01*
G01*
X106644800Y-105202400D01*
G75*
G02*
X106444800Y-105002400I0J200000D01*
G01*
X106444800Y-102802400D01*
G75*
G02*
X106644800Y-102602400I200000J0D01*
G01*
G37*
G36*
G01*
X111204800Y-102602400D02*
X112404800Y-102602400D01*
G75*
G02*
X112604800Y-102802400I0J-200000D01*
G01*
X112604800Y-105002400D01*
G75*
G02*
X112404800Y-105202400I-200000J0D01*
G01*
X111204800Y-105202400D01*
G75*
G02*
X111004800Y-105002400I0J200000D01*
G01*
X111004800Y-102802400D01*
G75*
G02*
X111204800Y-102602400I200000J0D01*
G01*
G37*
G36*
G01*
X105294800Y-109586000D02*
X105294800Y-110886000D01*
G75*
G02*
X105094800Y-111086000I-200000J0D01*
G01*
X103794800Y-111086000D01*
G75*
G02*
X103594800Y-110886000I0J200000D01*
G01*
X103594800Y-109586000D01*
G75*
G02*
X103794800Y-109386000I200000J0D01*
G01*
X105094800Y-109386000D01*
G75*
G02*
X105294800Y-109586000I0J-200000D01*
G01*
G37*
D11*
X101944800Y-110236000D03*
D12*
X163484560Y-120142000D03*
G36*
G01*
X165174560Y-119092000D02*
X166874560Y-119092000D01*
G75*
G02*
X167074560Y-119292000I0J-200000D01*
G01*
X167074560Y-120992000D01*
G75*
G02*
X166874560Y-121192000I-200000J0D01*
G01*
X165174560Y-121192000D01*
G75*
G02*
X164974560Y-120992000I0J200000D01*
G01*
X164974560Y-119292000D01*
G75*
G02*
X165174560Y-119092000I200000J0D01*
G01*
G37*
X178803300Y-127393700D03*
X178803300Y-124853700D03*
X178803300Y-122313700D03*
X178803300Y-119773700D03*
G36*
G01*
X177753300Y-118083700D02*
X177753300Y-116383700D01*
G75*
G02*
X177953300Y-116183700I200000J0D01*
G01*
X179653300Y-116183700D01*
G75*
G02*
X179853300Y-116383700I0J-200000D01*
G01*
X179853300Y-118083700D01*
G75*
G02*
X179653300Y-118283700I-200000J0D01*
G01*
X177953300Y-118283700D01*
G75*
G02*
X177753300Y-118083700I0J200000D01*
G01*
G37*
G36*
G01*
X143323920Y-109974380D02*
X143323920Y-111625380D01*
G75*
G02*
X143123920Y-111825380I-200000J0D01*
G01*
X142717520Y-111825380D01*
G75*
G02*
X142517520Y-111625380I0J200000D01*
G01*
X142517520Y-109974380D01*
G75*
G02*
X142717520Y-109774380I200000J0D01*
G01*
X143123920Y-109774380D01*
G75*
G02*
X143323920Y-109974380I0J-200000D01*
G01*
G37*
G36*
G01*
X142676220Y-109974380D02*
X142676220Y-111625380D01*
G75*
G02*
X142476220Y-111825380I-200000J0D01*
G01*
X142069820Y-111825380D01*
G75*
G02*
X141869820Y-111625380I0J200000D01*
G01*
X141869820Y-109974380D01*
G75*
G02*
X142069820Y-109774380I200000J0D01*
G01*
X142476220Y-109774380D01*
G75*
G02*
X142676220Y-109974380I0J-200000D01*
G01*
G37*
G36*
G01*
X142025980Y-109974380D02*
X142025980Y-111625380D01*
G75*
G02*
X141825980Y-111825380I-200000J0D01*
G01*
X141419580Y-111825380D01*
G75*
G02*
X141219580Y-111625380I0J200000D01*
G01*
X141219580Y-109974380D01*
G75*
G02*
X141419580Y-109774380I200000J0D01*
G01*
X141825980Y-109774380D01*
G75*
G02*
X142025980Y-109974380I0J-200000D01*
G01*
G37*
G36*
G01*
X142025980Y-102776020D02*
X142025980Y-104427020D01*
G75*
G02*
X141825980Y-104627020I-200000J0D01*
G01*
X141419580Y-104627020D01*
G75*
G02*
X141219580Y-104427020I0J200000D01*
G01*
X141219580Y-102776020D01*
G75*
G02*
X141419580Y-102576020I200000J0D01*
G01*
X141825980Y-102576020D01*
G75*
G02*
X142025980Y-102776020I0J-200000D01*
G01*
G37*
G36*
G01*
X142676220Y-102776020D02*
X142676220Y-104427020D01*
G75*
G02*
X142476220Y-104627020I-200000J0D01*
G01*
X142069820Y-104627020D01*
G75*
G02*
X141869820Y-104427020I0J200000D01*
G01*
X141869820Y-102776020D01*
G75*
G02*
X142069820Y-102576020I200000J0D01*
G01*
X142476220Y-102576020D01*
G75*
G02*
X142676220Y-102776020I0J-200000D01*
G01*
G37*
G36*
G01*
X143323920Y-102776020D02*
X143323920Y-104427020D01*
G75*
G02*
X143123920Y-104627020I-200000J0D01*
G01*
X142717520Y-104627020D01*
G75*
G02*
X142517520Y-104427020I0J200000D01*
G01*
X142517520Y-102776020D01*
G75*
G02*
X142717520Y-102576020I200000J0D01*
G01*
X143123920Y-102576020D01*
G75*
G02*
X143323920Y-102776020I0J-200000D01*
G01*
G37*
G36*
G01*
X149176080Y-102776020D02*
X149176080Y-104427020D01*
G75*
G02*
X148976080Y-104627020I-200000J0D01*
G01*
X148569680Y-104627020D01*
G75*
G02*
X148369680Y-104427020I0J200000D01*
G01*
X148369680Y-102776020D01*
G75*
G02*
X148569680Y-102576020I200000J0D01*
G01*
X148976080Y-102576020D01*
G75*
G02*
X149176080Y-102776020I0J-200000D01*
G01*
G37*
G36*
G01*
X149823780Y-102776020D02*
X149823780Y-104427020D01*
G75*
G02*
X149623780Y-104627020I-200000J0D01*
G01*
X149217380Y-104627020D01*
G75*
G02*
X149017380Y-104427020I0J200000D01*
G01*
X149017380Y-102776020D01*
G75*
G02*
X149217380Y-102576020I200000J0D01*
G01*
X149623780Y-102576020D01*
G75*
G02*
X149823780Y-102776020I0J-200000D01*
G01*
G37*
G36*
G01*
X150474020Y-102776020D02*
X150474020Y-104427020D01*
G75*
G02*
X150274020Y-104627020I-200000J0D01*
G01*
X149867620Y-104627020D01*
G75*
G02*
X149667620Y-104427020I0J200000D01*
G01*
X149667620Y-102776020D01*
G75*
G02*
X149867620Y-102576020I200000J0D01*
G01*
X150274020Y-102576020D01*
G75*
G02*
X150474020Y-102776020I0J-200000D01*
G01*
G37*
G36*
G01*
X150474020Y-109974380D02*
X150474020Y-111625380D01*
G75*
G02*
X150274020Y-111825380I-200000J0D01*
G01*
X149867620Y-111825380D01*
G75*
G02*
X149667620Y-111625380I0J200000D01*
G01*
X149667620Y-109974380D01*
G75*
G02*
X149867620Y-109774380I200000J0D01*
G01*
X150274020Y-109774380D01*
G75*
G02*
X150474020Y-109974380I0J-200000D01*
G01*
G37*
G36*
G01*
X149823780Y-109974380D02*
X149823780Y-111625380D01*
G75*
G02*
X149623780Y-111825380I-200000J0D01*
G01*
X149217380Y-111825380D01*
G75*
G02*
X149017380Y-111625380I0J200000D01*
G01*
X149017380Y-109974380D01*
G75*
G02*
X149217380Y-109774380I200000J0D01*
G01*
X149623780Y-109774380D01*
G75*
G02*
X149823780Y-109974380I0J-200000D01*
G01*
G37*
G36*
G01*
X149176080Y-109974380D02*
X149176080Y-111625380D01*
G75*
G02*
X148976080Y-111825380I-200000J0D01*
G01*
X148569680Y-111825380D01*
G75*
G02*
X148369680Y-111625380I0J200000D01*
G01*
X148369680Y-109974380D01*
G75*
G02*
X148569680Y-109774380I200000J0D01*
G01*
X148976080Y-109774380D01*
G75*
G02*
X149176080Y-109974380I0J-200000D01*
G01*
G37*
G36*
G01*
X147875600Y-109974380D02*
X147875600Y-111625380D01*
G75*
G02*
X147675600Y-111825380I-200000J0D01*
G01*
X147269200Y-111825380D01*
G75*
G02*
X147069200Y-111625380I0J200000D01*
G01*
X147069200Y-109974380D01*
G75*
G02*
X147269200Y-109774380I200000J0D01*
G01*
X147675600Y-109774380D01*
G75*
G02*
X147875600Y-109974380I0J-200000D01*
G01*
G37*
G36*
G01*
X143974160Y-102776020D02*
X143974160Y-104427020D01*
G75*
G02*
X143774160Y-104627020I-200000J0D01*
G01*
X143367760Y-104627020D01*
G75*
G02*
X143167760Y-104427020I0J200000D01*
G01*
X143167760Y-102776020D01*
G75*
G02*
X143367760Y-102576020I200000J0D01*
G01*
X143774160Y-102576020D01*
G75*
G02*
X143974160Y-102776020I0J-200000D01*
G01*
G37*
G36*
G01*
X147225360Y-109974380D02*
X147225360Y-111625380D01*
G75*
G02*
X147025360Y-111825380I-200000J0D01*
G01*
X146618960Y-111825380D01*
G75*
G02*
X146418960Y-111625380I0J200000D01*
G01*
X146418960Y-109974380D01*
G75*
G02*
X146618960Y-109774380I200000J0D01*
G01*
X147025360Y-109774380D01*
G75*
G02*
X147225360Y-109974380I0J-200000D01*
G01*
G37*
G36*
G01*
X146575120Y-109974380D02*
X146575120Y-111625380D01*
G75*
G02*
X146375120Y-111825380I-200000J0D01*
G01*
X145968720Y-111825380D01*
G75*
G02*
X145768720Y-111625380I0J200000D01*
G01*
X145768720Y-109974380D01*
G75*
G02*
X145968720Y-109774380I200000J0D01*
G01*
X146375120Y-109774380D01*
G75*
G02*
X146575120Y-109974380I0J-200000D01*
G01*
G37*
G36*
G01*
X145924880Y-109974380D02*
X145924880Y-111625380D01*
G75*
G02*
X145724880Y-111825380I-200000J0D01*
G01*
X145318480Y-111825380D01*
G75*
G02*
X145118480Y-111625380I0J200000D01*
G01*
X145118480Y-109974380D01*
G75*
G02*
X145318480Y-109774380I200000J0D01*
G01*
X145724880Y-109774380D01*
G75*
G02*
X145924880Y-109974380I0J-200000D01*
G01*
G37*
G36*
G01*
X145274640Y-109974380D02*
X145274640Y-111625380D01*
G75*
G02*
X145074640Y-111825380I-200000J0D01*
G01*
X144668240Y-111825380D01*
G75*
G02*
X144468240Y-111625380I0J200000D01*
G01*
X144468240Y-109974380D01*
G75*
G02*
X144668240Y-109774380I200000J0D01*
G01*
X145074640Y-109774380D01*
G75*
G02*
X145274640Y-109974380I0J-200000D01*
G01*
G37*
G36*
G01*
X144624400Y-109974380D02*
X144624400Y-111625380D01*
G75*
G02*
X144424400Y-111825380I-200000J0D01*
G01*
X144018000Y-111825380D01*
G75*
G02*
X143818000Y-111625380I0J200000D01*
G01*
X143818000Y-109974380D01*
G75*
G02*
X144018000Y-109774380I200000J0D01*
G01*
X144424400Y-109774380D01*
G75*
G02*
X144624400Y-109974380I0J-200000D01*
G01*
G37*
G36*
G01*
X143974160Y-109974380D02*
X143974160Y-111625380D01*
G75*
G02*
X143774160Y-111825380I-200000J0D01*
G01*
X143367760Y-111825380D01*
G75*
G02*
X143167760Y-111625380I0J200000D01*
G01*
X143167760Y-109974380D01*
G75*
G02*
X143367760Y-109774380I200000J0D01*
G01*
X143774160Y-109774380D01*
G75*
G02*
X143974160Y-109974380I0J-200000D01*
G01*
G37*
G36*
G01*
X147225360Y-102776020D02*
X147225360Y-104427020D01*
G75*
G02*
X147025360Y-104627020I-200000J0D01*
G01*
X146618960Y-104627020D01*
G75*
G02*
X146418960Y-104427020I0J200000D01*
G01*
X146418960Y-102776020D01*
G75*
G02*
X146618960Y-102576020I200000J0D01*
G01*
X147025360Y-102576020D01*
G75*
G02*
X147225360Y-102776020I0J-200000D01*
G01*
G37*
G36*
G01*
X147875600Y-102776020D02*
X147875600Y-104427020D01*
G75*
G02*
X147675600Y-104627020I-200000J0D01*
G01*
X147269200Y-104627020D01*
G75*
G02*
X147069200Y-104427020I0J200000D01*
G01*
X147069200Y-102776020D01*
G75*
G02*
X147269200Y-102576020I200000J0D01*
G01*
X147675600Y-102576020D01*
G75*
G02*
X147875600Y-102776020I0J-200000D01*
G01*
G37*
G36*
G01*
X148525840Y-102776020D02*
X148525840Y-104427020D01*
G75*
G02*
X148325840Y-104627020I-200000J0D01*
G01*
X147919440Y-104627020D01*
G75*
G02*
X147719440Y-104427020I0J200000D01*
G01*
X147719440Y-102776020D01*
G75*
G02*
X147919440Y-102576020I200000J0D01*
G01*
X148325840Y-102576020D01*
G75*
G02*
X148525840Y-102776020I0J-200000D01*
G01*
G37*
G36*
G01*
X148525840Y-109974380D02*
X148525840Y-111625380D01*
G75*
G02*
X148325840Y-111825380I-200000J0D01*
G01*
X147919440Y-111825380D01*
G75*
G02*
X147719440Y-111625380I0J200000D01*
G01*
X147719440Y-109974380D01*
G75*
G02*
X147919440Y-109774380I200000J0D01*
G01*
X148325840Y-109774380D01*
G75*
G02*
X148525840Y-109974380I0J-200000D01*
G01*
G37*
G36*
G01*
X144624400Y-102776020D02*
X144624400Y-104427020D01*
G75*
G02*
X144424400Y-104627020I-200000J0D01*
G01*
X144018000Y-104627020D01*
G75*
G02*
X143818000Y-104427020I0J200000D01*
G01*
X143818000Y-102776020D01*
G75*
G02*
X144018000Y-102576020I200000J0D01*
G01*
X144424400Y-102576020D01*
G75*
G02*
X144624400Y-102776020I0J-200000D01*
G01*
G37*
G36*
G01*
X145274640Y-102776020D02*
X145274640Y-104427020D01*
G75*
G02*
X145074640Y-104627020I-200000J0D01*
G01*
X144668240Y-104627020D01*
G75*
G02*
X144468240Y-104427020I0J200000D01*
G01*
X144468240Y-102776020D01*
G75*
G02*
X144668240Y-102576020I200000J0D01*
G01*
X145074640Y-102576020D01*
G75*
G02*
X145274640Y-102776020I0J-200000D01*
G01*
G37*
G36*
G01*
X145924880Y-102776020D02*
X145924880Y-104427020D01*
G75*
G02*
X145724880Y-104627020I-200000J0D01*
G01*
X145318480Y-104627020D01*
G75*
G02*
X145118480Y-104427020I0J200000D01*
G01*
X145118480Y-102776020D01*
G75*
G02*
X145318480Y-102576020I200000J0D01*
G01*
X145724880Y-102576020D01*
G75*
G02*
X145924880Y-102776020I0J-200000D01*
G01*
G37*
G36*
G01*
X146575120Y-102776020D02*
X146575120Y-104427020D01*
G75*
G02*
X146375120Y-104627020I-200000J0D01*
G01*
X145968720Y-104627020D01*
G75*
G02*
X145768720Y-104427020I0J200000D01*
G01*
X145768720Y-102776020D01*
G75*
G02*
X145968720Y-102576020I200000J0D01*
G01*
X146375120Y-102576020D01*
G75*
G02*
X146575120Y-102776020I0J-200000D01*
G01*
G37*
G36*
G01*
X142843500Y-100143500D02*
X142843500Y-98943500D01*
G75*
G02*
X143043500Y-98743500I200000J0D01*
G01*
X144443500Y-98743500D01*
G75*
G02*
X144643500Y-98943500I0J-200000D01*
G01*
X144643500Y-100143500D01*
G75*
G02*
X144443500Y-100343500I-200000J0D01*
G01*
X143043500Y-100343500D01*
G75*
G02*
X142843500Y-100143500I0J200000D01*
G01*
G37*
G36*
G01*
X145043500Y-100143500D02*
X145043500Y-98943500D01*
G75*
G02*
X145243500Y-98743500I200000J0D01*
G01*
X146643500Y-98743500D01*
G75*
G02*
X146843500Y-98943500I0J-200000D01*
G01*
X146843500Y-100143500D01*
G75*
G02*
X146643500Y-100343500I-200000J0D01*
G01*
X145243500Y-100343500D01*
G75*
G02*
X145043500Y-100143500I0J200000D01*
G01*
G37*
G36*
G01*
X145043500Y-101843500D02*
X145043500Y-100643500D01*
G75*
G02*
X145243500Y-100443500I200000J0D01*
G01*
X146643500Y-100443500D01*
G75*
G02*
X146843500Y-100643500I0J-200000D01*
G01*
X146843500Y-101843500D01*
G75*
G02*
X146643500Y-102043500I-200000J0D01*
G01*
X145243500Y-102043500D01*
G75*
G02*
X145043500Y-101843500I0J200000D01*
G01*
G37*
G36*
G01*
X142843500Y-101843500D02*
X142843500Y-100643500D01*
G75*
G02*
X143043500Y-100443500I200000J0D01*
G01*
X144443500Y-100443500D01*
G75*
G02*
X144643500Y-100643500I0J-200000D01*
G01*
X144643500Y-101843500D01*
G75*
G02*
X144443500Y-102043500I-200000J0D01*
G01*
X143043500Y-102043500D01*
G75*
G02*
X142843500Y-101843500I0J200000D01*
G01*
G37*
G36*
G01*
X111285680Y-121903490D02*
X111285680Y-119904510D01*
G75*
G02*
X111485680Y-119704510I200000J0D01*
G01*
X112085120Y-119704510D01*
G75*
G02*
X112285120Y-119904510I0J-200000D01*
G01*
X112285120Y-121903490D01*
G75*
G02*
X112085120Y-122103490I-200000J0D01*
G01*
X111485680Y-122103490D01*
G75*
G02*
X111285680Y-121903490I0J200000D01*
G01*
G37*
G36*
G01*
X112555680Y-121903490D02*
X112555680Y-119904510D01*
G75*
G02*
X112755680Y-119704510I200000J0D01*
G01*
X113355120Y-119704510D01*
G75*
G02*
X113555120Y-119904510I0J-200000D01*
G01*
X113555120Y-121903490D01*
G75*
G02*
X113355120Y-122103490I-200000J0D01*
G01*
X112755680Y-122103490D01*
G75*
G02*
X112555680Y-121903490I0J200000D01*
G01*
G37*
G36*
G01*
X113825680Y-121903490D02*
X113825680Y-119904510D01*
G75*
G02*
X114025680Y-119704510I200000J0D01*
G01*
X114625120Y-119704510D01*
G75*
G02*
X114825120Y-119904510I0J-200000D01*
G01*
X114825120Y-121903490D01*
G75*
G02*
X114625120Y-122103490I-200000J0D01*
G01*
X114025680Y-122103490D01*
G75*
G02*
X113825680Y-121903490I0J200000D01*
G01*
G37*
G36*
G01*
X115095680Y-121903490D02*
X115095680Y-119904510D01*
G75*
G02*
X115295680Y-119704510I200000J0D01*
G01*
X115895120Y-119704510D01*
G75*
G02*
X116095120Y-119904510I0J-200000D01*
G01*
X116095120Y-121903490D01*
G75*
G02*
X115895120Y-122103490I-200000J0D01*
G01*
X115295680Y-122103490D01*
G75*
G02*
X115095680Y-121903490I0J200000D01*
G01*
G37*
G36*
G01*
X116365680Y-121903490D02*
X116365680Y-119904510D01*
G75*
G02*
X116565680Y-119704510I200000J0D01*
G01*
X117165120Y-119704510D01*
G75*
G02*
X117365120Y-119904510I0J-200000D01*
G01*
X117365120Y-121903490D01*
G75*
G02*
X117165120Y-122103490I-200000J0D01*
G01*
X116565680Y-122103490D01*
G75*
G02*
X116365680Y-121903490I0J200000D01*
G01*
G37*
G36*
G01*
X117635680Y-121903490D02*
X117635680Y-119904510D01*
G75*
G02*
X117835680Y-119704510I200000J0D01*
G01*
X118435120Y-119704510D01*
G75*
G02*
X118635120Y-119904510I0J-200000D01*
G01*
X118635120Y-121903490D01*
G75*
G02*
X118435120Y-122103490I-200000J0D01*
G01*
X117835680Y-122103490D01*
G75*
G02*
X117635680Y-121903490I0J200000D01*
G01*
G37*
G36*
G01*
X118905680Y-121903490D02*
X118905680Y-119904510D01*
G75*
G02*
X119105680Y-119704510I200000J0D01*
G01*
X119705120Y-119704510D01*
G75*
G02*
X119905120Y-119904510I0J-200000D01*
G01*
X119905120Y-121903490D01*
G75*
G02*
X119705120Y-122103490I-200000J0D01*
G01*
X119105680Y-122103490D01*
G75*
G02*
X118905680Y-121903490I0J200000D01*
G01*
G37*
G36*
G01*
X120175680Y-121903490D02*
X120175680Y-119904510D01*
G75*
G02*
X120375680Y-119704510I200000J0D01*
G01*
X120975120Y-119704510D01*
G75*
G02*
X121175120Y-119904510I0J-200000D01*
G01*
X121175120Y-121903490D01*
G75*
G02*
X120975120Y-122103490I-200000J0D01*
G01*
X120375680Y-122103490D01*
G75*
G02*
X120175680Y-121903490I0J200000D01*
G01*
G37*
G36*
G01*
X120175680Y-127491490D02*
X120175680Y-125492510D01*
G75*
G02*
X120375680Y-125292510I200000J0D01*
G01*
X120975120Y-125292510D01*
G75*
G02*
X121175120Y-125492510I0J-200000D01*
G01*
X121175120Y-127491490D01*
G75*
G02*
X120975120Y-127691490I-200000J0D01*
G01*
X120375680Y-127691490D01*
G75*
G02*
X120175680Y-127491490I0J200000D01*
G01*
G37*
G36*
G01*
X118905680Y-127491490D02*
X118905680Y-125492510D01*
G75*
G02*
X119105680Y-125292510I200000J0D01*
G01*
X119705120Y-125292510D01*
G75*
G02*
X119905120Y-125492510I0J-200000D01*
G01*
X119905120Y-127491490D01*
G75*
G02*
X119705120Y-127691490I-200000J0D01*
G01*
X119105680Y-127691490D01*
G75*
G02*
X118905680Y-127491490I0J200000D01*
G01*
G37*
G36*
G01*
X117635680Y-127491490D02*
X117635680Y-125492510D01*
G75*
G02*
X117835680Y-125292510I200000J0D01*
G01*
X118435120Y-125292510D01*
G75*
G02*
X118635120Y-125492510I0J-200000D01*
G01*
X118635120Y-127491490D01*
G75*
G02*
X118435120Y-127691490I-200000J0D01*
G01*
X117835680Y-127691490D01*
G75*
G02*
X117635680Y-127491490I0J200000D01*
G01*
G37*
G36*
G01*
X116365680Y-127491490D02*
X116365680Y-125492510D01*
G75*
G02*
X116565680Y-125292510I200000J0D01*
G01*
X117165120Y-125292510D01*
G75*
G02*
X117365120Y-125492510I0J-200000D01*
G01*
X117365120Y-127491490D01*
G75*
G02*
X117165120Y-127691490I-200000J0D01*
G01*
X116565680Y-127691490D01*
G75*
G02*
X116365680Y-127491490I0J200000D01*
G01*
G37*
G36*
G01*
X115095680Y-127491490D02*
X115095680Y-125492510D01*
G75*
G02*
X115295680Y-125292510I200000J0D01*
G01*
X115895120Y-125292510D01*
G75*
G02*
X116095120Y-125492510I0J-200000D01*
G01*
X116095120Y-127491490D01*
G75*
G02*
X115895120Y-127691490I-200000J0D01*
G01*
X115295680Y-127691490D01*
G75*
G02*
X115095680Y-127491490I0J200000D01*
G01*
G37*
G36*
G01*
X113825680Y-127491490D02*
X113825680Y-125492510D01*
G75*
G02*
X114025680Y-125292510I200000J0D01*
G01*
X114625120Y-125292510D01*
G75*
G02*
X114825120Y-125492510I0J-200000D01*
G01*
X114825120Y-127491490D01*
G75*
G02*
X114625120Y-127691490I-200000J0D01*
G01*
X114025680Y-127691490D01*
G75*
G02*
X113825680Y-127491490I0J200000D01*
G01*
G37*
G36*
G01*
X112555680Y-127491490D02*
X112555680Y-125492510D01*
G75*
G02*
X112755680Y-125292510I200000J0D01*
G01*
X113355120Y-125292510D01*
G75*
G02*
X113555120Y-125492510I0J-200000D01*
G01*
X113555120Y-127491490D01*
G75*
G02*
X113355120Y-127691490I-200000J0D01*
G01*
X112755680Y-127691490D01*
G75*
G02*
X112555680Y-127491490I0J200000D01*
G01*
G37*
G36*
G01*
X111285680Y-127491490D02*
X111285680Y-125492510D01*
G75*
G02*
X111485680Y-125292510I200000J0D01*
G01*
X112085120Y-125292510D01*
G75*
G02*
X112285120Y-125492510I0J-200000D01*
G01*
X112285120Y-127491490D01*
G75*
G02*
X112085120Y-127691490I-200000J0D01*
G01*
X111485680Y-127691490D01*
G75*
G02*
X111285680Y-127491490I0J200000D01*
G01*
G37*
G36*
G01*
X155438500Y-134493000D02*
X155438500Y-133223000D01*
G75*
G02*
X155638500Y-133023000I200000J0D01*
G01*
X156908500Y-133023000D01*
G75*
G02*
X157108500Y-133223000I0J-200000D01*
G01*
X157108500Y-134493000D01*
G75*
G02*
X156908500Y-134693000I-200000J0D01*
G01*
X155638500Y-134693000D01*
G75*
G02*
X155438500Y-134493000I0J200000D01*
G01*
G37*
D13*
X157543500Y-131318000D03*
X158813500Y-133858000D03*
X160083500Y-131318000D03*
X161353500Y-133858000D03*
X162623500Y-131318000D03*
X163893500Y-133858000D03*
X165163500Y-131318000D03*
D14*
X154241500Y-144780000D03*
X156908500Y-144780000D03*
X167195500Y-144780000D03*
X164528500Y-144780000D03*
D15*
X166433500Y-139954000D03*
X155003500Y-139954000D03*
D16*
X153352500Y-136525000D03*
X168084500Y-136525000D03*
D17*
X141351000Y-134312500D03*
X138811000Y-134312500D03*
X140081000Y-131772500D03*
X142621000Y-131772500D03*
X143891000Y-134312500D03*
X145161000Y-131772500D03*
X146431000Y-134312500D03*
X147701000Y-131772500D03*
D18*
X151006000Y-137602500D03*
D19*
X108000000Y-130000000D03*
X174000000Y-130000000D03*
X174000000Y-90000000D03*
X108000000Y-90000000D03*
G36*
G01*
X151284700Y-101611800D02*
X149984700Y-101611800D01*
G75*
G02*
X149784700Y-101411800I0J200000D01*
G01*
X149784700Y-100111800D01*
G75*
G02*
X149984700Y-99911800I200000J0D01*
G01*
X151284700Y-99911800D01*
G75*
G02*
X151484700Y-100111800I0J-200000D01*
G01*
X151484700Y-101411800D01*
G75*
G02*
X151284700Y-101611800I-200000J0D01*
G01*
G37*
D11*
X150634700Y-98261800D03*
G36*
G01*
X115052600Y-89503400D02*
X117052600Y-89503400D01*
G75*
G02*
X117252600Y-89703400I0J-200000D01*
G01*
X117252600Y-91703400D01*
G75*
G02*
X117052600Y-91903400I-200000J0D01*
G01*
X115052600Y-91903400D01*
G75*
G02*
X114852600Y-91703400I0J200000D01*
G01*
X114852600Y-89703400D01*
G75*
G02*
X115052600Y-89503400I200000J0D01*
G01*
G37*
D20*
X113512600Y-90703400D03*
G36*
G01*
X120056400Y-89503400D02*
X122056400Y-89503400D01*
G75*
G02*
X122256400Y-89703400I0J-200000D01*
G01*
X122256400Y-91703400D01*
G75*
G02*
X122056400Y-91903400I-200000J0D01*
G01*
X120056400Y-91903400D01*
G75*
G02*
X119856400Y-91703400I0J200000D01*
G01*
X119856400Y-89703400D01*
G75*
G02*
X120056400Y-89503400I200000J0D01*
G01*
G37*
X118516400Y-90703400D03*
G36*
G01*
X125085600Y-89503400D02*
X127085600Y-89503400D01*
G75*
G02*
X127285600Y-89703400I0J-200000D01*
G01*
X127285600Y-91703400D01*
G75*
G02*
X127085600Y-91903400I-200000J0D01*
G01*
X125085600Y-91903400D01*
G75*
G02*
X124885600Y-91703400I0J200000D01*
G01*
X124885600Y-89703400D01*
G75*
G02*
X125085600Y-89503400I200000J0D01*
G01*
G37*
X123545600Y-90703400D03*
D17*
X125857000Y-134312500D03*
X123317000Y-134312500D03*
X124587000Y-131772500D03*
X127127000Y-131772500D03*
X128397000Y-134312500D03*
X129667000Y-131772500D03*
X130937000Y-134312500D03*
X132207000Y-131772500D03*
D18*
X120012000Y-137602500D03*
X135512000Y-137602500D03*
G36*
G01*
X158343600Y-91386000D02*
X156616400Y-91386000D01*
G75*
G02*
X156416400Y-91186000I0J200000D01*
G01*
X156416400Y-89154000D01*
G75*
G02*
X156616400Y-88954000I200000J0D01*
G01*
X158343600Y-88954000D01*
G75*
G02*
X158543600Y-89154000I0J-200000D01*
G01*
X158543600Y-91186000D01*
G75*
G02*
X158343600Y-91386000I-200000J0D01*
G01*
G37*
D21*
X160020000Y-90170000D03*
X162560000Y-90170000D03*
X165100000Y-90170000D03*
X167640000Y-90170000D03*
X170180000Y-90170000D03*
G36*
G01*
X130403600Y-91386000D02*
X128676400Y-91386000D01*
G75*
G02*
X128476400Y-91186000I0J200000D01*
G01*
X128476400Y-89154000D01*
G75*
G02*
X128676400Y-88954000I200000J0D01*
G01*
X130403600Y-88954000D01*
G75*
G02*
X130603600Y-89154000I0J-200000D01*
G01*
X130603600Y-91186000D01*
G75*
G02*
X130403600Y-91386000I-200000J0D01*
G01*
G37*
X132080000Y-90170000D03*
X134620000Y-90170000D03*
X137160000Y-90170000D03*
X139700000Y-90170000D03*
X142240000Y-90170000D03*
X144780000Y-90170000D03*
X147320000Y-90170000D03*
X149860000Y-90170000D03*
G36*
G01*
X136064600Y-123444000D02*
X136064600Y-125476000D01*
G75*
G02*
X135864600Y-125676000I-200000J0D01*
G01*
X133832600Y-125676000D01*
G75*
G02*
X133632600Y-125476000I0J200000D01*
G01*
X133632600Y-123444000D01*
G75*
G02*
X133832600Y-123244000I200000J0D01*
G01*
X135864600Y-123244000D01*
G75*
G02*
X136064600Y-123444000I0J-200000D01*
G01*
G37*
D22*
X134848600Y-121920000D03*
G36*
G01*
X119256200Y-115316000D02*
X119256200Y-113284000D01*
G75*
G02*
X119456200Y-113084000I200000J0D01*
G01*
X121488200Y-113084000D01*
G75*
G02*
X121688200Y-113284000I0J-200000D01*
G01*
X121688200Y-115316000D01*
G75*
G02*
X121488200Y-115516000I-200000J0D01*
G01*
X119456200Y-115516000D01*
G75*
G02*
X119256200Y-115316000I0J200000D01*
G01*
G37*
X120472200Y-116840000D03*
G36*
G01*
X161206510Y-101595280D02*
X163205490Y-101595280D01*
G75*
G02*
X163405490Y-101795280I0J-200000D01*
G01*
X163405490Y-102394720D01*
G75*
G02*
X163205490Y-102594720I-200000J0D01*
G01*
X161206510Y-102594720D01*
G75*
G02*
X161006510Y-102394720I0J200000D01*
G01*
X161006510Y-101795280D01*
G75*
G02*
X161206510Y-101595280I200000J0D01*
G01*
G37*
G36*
G01*
X161206510Y-102865280D02*
X163205490Y-102865280D01*
G75*
G02*
X163405490Y-103065280I0J-200000D01*
G01*
X163405490Y-103664720D01*
G75*
G02*
X163205490Y-103864720I-200000J0D01*
G01*
X161206510Y-103864720D01*
G75*
G02*
X161006510Y-103664720I0J200000D01*
G01*
X161006510Y-103065280D01*
G75*
G02*
X161206510Y-102865280I200000J0D01*
G01*
G37*
G36*
G01*
X161206510Y-104135280D02*
X163205490Y-104135280D01*
G75*
G02*
X163405490Y-104335280I0J-200000D01*
G01*
X163405490Y-104934720D01*
G75*
G02*
X163205490Y-105134720I-200000J0D01*
G01*
X161206510Y-105134720D01*
G75*
G02*
X161006510Y-104934720I0J200000D01*
G01*
X161006510Y-104335280D01*
G75*
G02*
X161206510Y-104135280I200000J0D01*
G01*
G37*
G36*
G01*
X161206510Y-105405280D02*
X163205490Y-105405280D01*
G75*
G02*
X163405490Y-105605280I0J-200000D01*
G01*
X163405490Y-106204720D01*
G75*
G02*
X163205490Y-106404720I-200000J0D01*
G01*
X161206510Y-106404720D01*
G75*
G02*
X161006510Y-106204720I0J200000D01*
G01*
X161006510Y-105605280D01*
G75*
G02*
X161206510Y-105405280I200000J0D01*
G01*
G37*
G36*
G01*
X166794510Y-105405280D02*
X168793490Y-105405280D01*
G75*
G02*
X168993490Y-105605280I0J-200000D01*
G01*
X168993490Y-106204720D01*
G75*
G02*
X168793490Y-106404720I-200000J0D01*
G01*
X166794510Y-106404720D01*
G75*
G02*
X166594510Y-106204720I0J200000D01*
G01*
X166594510Y-105605280D01*
G75*
G02*
X166794510Y-105405280I200000J0D01*
G01*
G37*
G36*
G01*
X166794510Y-104135280D02*
X168793490Y-104135280D01*
G75*
G02*
X168993490Y-104335280I0J-200000D01*
G01*
X168993490Y-104934720D01*
G75*
G02*
X168793490Y-105134720I-200000J0D01*
G01*
X166794510Y-105134720D01*
G75*
G02*
X166594510Y-104934720I0J200000D01*
G01*
X166594510Y-104335280D01*
G75*
G02*
X166794510Y-104135280I200000J0D01*
G01*
G37*
G36*
G01*
X166794510Y-102865280D02*
X168793490Y-102865280D01*
G75*
G02*
X168993490Y-103065280I0J-200000D01*
G01*
X168993490Y-103664720D01*
G75*
G02*
X168793490Y-103864720I-200000J0D01*
G01*
X166794510Y-103864720D01*
G75*
G02*
X166594510Y-103664720I0J200000D01*
G01*
X166594510Y-103065280D01*
G75*
G02*
X166794510Y-102865280I200000J0D01*
G01*
G37*
G36*
G01*
X166794510Y-101595280D02*
X168793490Y-101595280D01*
G75*
G02*
X168993490Y-101795280I0J-200000D01*
G01*
X168993490Y-102394720D01*
G75*
G02*
X168793490Y-102594720I-200000J0D01*
G01*
X166794510Y-102594720D01*
G75*
G02*
X166594510Y-102394720I0J200000D01*
G01*
X166594510Y-101795280D01*
G75*
G02*
X166794510Y-101595280I200000J0D01*
G01*
G37*
G36*
G01*
X114754000Y-81305400D02*
X114754000Y-83032600D01*
G75*
G02*
X114554000Y-83232600I-200000J0D01*
G01*
X112522000Y-83232600D01*
G75*
G02*
X112322000Y-83032600I0J200000D01*
G01*
X112322000Y-81305400D01*
G75*
G02*
X112522000Y-81105400I200000J0D01*
G01*
X114554000Y-81105400D01*
G75*
G02*
X114754000Y-81305400I0J-200000D01*
G01*
G37*
D23*
X113538000Y-79629000D03*
X113538000Y-77089000D03*
G36*
G01*
X134611720Y-103521510D02*
X134611720Y-105520490D01*
G75*
G02*
X134411720Y-105720490I-200000J0D01*
G01*
X133812280Y-105720490D01*
G75*
G02*
X133612280Y-105520490I0J200000D01*
G01*
X133612280Y-103521510D01*
G75*
G02*
X133812280Y-103321510I200000J0D01*
G01*
X134411720Y-103321510D01*
G75*
G02*
X134611720Y-103521510I0J-200000D01*
G01*
G37*
G36*
G01*
X133341720Y-103521510D02*
X133341720Y-105520490D01*
G75*
G02*
X133141720Y-105720490I-200000J0D01*
G01*
X132542280Y-105720490D01*
G75*
G02*
X132342280Y-105520490I0J200000D01*
G01*
X132342280Y-103521510D01*
G75*
G02*
X132542280Y-103321510I200000J0D01*
G01*
X133141720Y-103321510D01*
G75*
G02*
X133341720Y-103521510I0J-200000D01*
G01*
G37*
G36*
G01*
X132071720Y-103521510D02*
X132071720Y-105520490D01*
G75*
G02*
X131871720Y-105720490I-200000J0D01*
G01*
X131272280Y-105720490D01*
G75*
G02*
X131072280Y-105520490I0J200000D01*
G01*
X131072280Y-103521510D01*
G75*
G02*
X131272280Y-103321510I200000J0D01*
G01*
X131871720Y-103321510D01*
G75*
G02*
X132071720Y-103521510I0J-200000D01*
G01*
G37*
G36*
G01*
X130801720Y-103521510D02*
X130801720Y-105520490D01*
G75*
G02*
X130601720Y-105720490I-200000J0D01*
G01*
X130002280Y-105720490D01*
G75*
G02*
X129802280Y-105520490I0J200000D01*
G01*
X129802280Y-103521510D01*
G75*
G02*
X130002280Y-103321510I200000J0D01*
G01*
X130601720Y-103321510D01*
G75*
G02*
X130801720Y-103521510I0J-200000D01*
G01*
G37*
G36*
G01*
X130801720Y-109109510D02*
X130801720Y-111108490D01*
G75*
G02*
X130601720Y-111308490I-200000J0D01*
G01*
X130002280Y-111308490D01*
G75*
G02*
X129802280Y-111108490I0J200000D01*
G01*
X129802280Y-109109510D01*
G75*
G02*
X130002280Y-108909510I200000J0D01*
G01*
X130601720Y-108909510D01*
G75*
G02*
X130801720Y-109109510I0J-200000D01*
G01*
G37*
G36*
G01*
X132071720Y-109109510D02*
X132071720Y-111108490D01*
G75*
G02*
X131871720Y-111308490I-200000J0D01*
G01*
X131272280Y-111308490D01*
G75*
G02*
X131072280Y-111108490I0J200000D01*
G01*
X131072280Y-109109510D01*
G75*
G02*
X131272280Y-108909510I200000J0D01*
G01*
X131871720Y-108909510D01*
G75*
G02*
X132071720Y-109109510I0J-200000D01*
G01*
G37*
G36*
G01*
X133341720Y-109109510D02*
X133341720Y-111108490D01*
G75*
G02*
X133141720Y-111308490I-200000J0D01*
G01*
X132542280Y-111308490D01*
G75*
G02*
X132342280Y-111108490I0J200000D01*
G01*
X132342280Y-109109510D01*
G75*
G02*
X132542280Y-108909510I200000J0D01*
G01*
X133141720Y-108909510D01*
G75*
G02*
X133341720Y-109109510I0J-200000D01*
G01*
G37*
G36*
G01*
X134611720Y-109109510D02*
X134611720Y-111108490D01*
G75*
G02*
X134411720Y-111308490I-200000J0D01*
G01*
X133812280Y-111308490D01*
G75*
G02*
X133612280Y-111108490I0J200000D01*
G01*
X133612280Y-109109510D01*
G75*
G02*
X133812280Y-108909510I200000J0D01*
G01*
X134411720Y-108909510D01*
G75*
G02*
X134611720Y-109109510I0J-200000D01*
G01*
G37*
G36*
G01*
X179411630Y-101413920D02*
X177712370Y-101413920D01*
G75*
G02*
X177512370Y-101213920I0J200000D01*
G01*
X177512370Y-100015040D01*
G75*
G02*
X177712370Y-99815040I200000J0D01*
G01*
X179411630Y-99815040D01*
G75*
G02*
X179611630Y-100015040I0J-200000D01*
G01*
X179611630Y-101213920D01*
G75*
G02*
X179411630Y-101413920I-200000J0D01*
G01*
G37*
D24*
X178562000Y-96611440D03*
X178562000Y-98612960D03*
X178562000Y-94612460D03*
G36*
G01*
X179462430Y-112412120D02*
X177763170Y-112412120D01*
G75*
G02*
X177563170Y-112212120I0J200000D01*
G01*
X177563170Y-111013240D01*
G75*
G02*
X177763170Y-110813240I200000J0D01*
G01*
X179462430Y-110813240D01*
G75*
G02*
X179662430Y-111013240I0J-200000D01*
G01*
X179662430Y-112212120D01*
G75*
G02*
X179462430Y-112412120I-200000J0D01*
G01*
G37*
X178612800Y-107609640D03*
X178612800Y-109611160D03*
X178612800Y-105610660D03*
G36*
G01*
X130119630Y-128011720D02*
X128420370Y-128011720D01*
G75*
G02*
X128220370Y-127811720I0J200000D01*
G01*
X128220370Y-126612840D01*
G75*
G02*
X128420370Y-126412840I200000J0D01*
G01*
X130119630Y-126412840D01*
G75*
G02*
X130319630Y-126612840I0J-200000D01*
G01*
X130319630Y-127811720D01*
G75*
G02*
X130119630Y-128011720I-200000J0D01*
G01*
G37*
X129270000Y-123209240D03*
X129270000Y-125210760D03*
X129270000Y-121210260D03*
G36*
G01*
X170473370Y-114323520D02*
X172172630Y-114323520D01*
G75*
G02*
X172372630Y-114523520I0J-200000D01*
G01*
X172372630Y-115722400D01*
G75*
G02*
X172172630Y-115922400I-200000J0D01*
G01*
X170473370Y-115922400D01*
G75*
G02*
X170273370Y-115722400I0J200000D01*
G01*
X170273370Y-114523520D01*
G75*
G02*
X170473370Y-114323520I200000J0D01*
G01*
G37*
X171323000Y-119126000D03*
X171323000Y-117124480D03*
X171323000Y-121124980D03*
G36*
G01*
X101539700Y-118465600D02*
X101539700Y-116738400D01*
G75*
G02*
X101739700Y-116538400I200000J0D01*
G01*
X103771700Y-116538400D01*
G75*
G02*
X103971700Y-116738400I0J-200000D01*
G01*
X103971700Y-118465600D01*
G75*
G02*
X103771700Y-118665600I-200000J0D01*
G01*
X101739700Y-118665600D01*
G75*
G02*
X101539700Y-118465600I0J200000D01*
G01*
G37*
D23*
X102755700Y-120142000D03*
X102755700Y-122682000D03*
X102755700Y-125222000D03*
G36*
G01*
X105298900Y-118478300D02*
X105298900Y-116751100D01*
G75*
G02*
X105498900Y-116551100I200000J0D01*
G01*
X107530900Y-116551100D01*
G75*
G02*
X107730900Y-116751100I0J-200000D01*
G01*
X107730900Y-118478300D01*
G75*
G02*
X107530900Y-118678300I-200000J0D01*
G01*
X105498900Y-118678300D01*
G75*
G02*
X105298900Y-118478300I0J200000D01*
G01*
G37*
X106514900Y-120154700D03*
X106514900Y-122694700D03*
X106514900Y-125234700D03*
D20*
X117221000Y-82169000D03*
X117221000Y-79629000D03*
X117221000Y-77089000D03*
G36*
G01*
X113473600Y-131666000D02*
X111746400Y-131666000D01*
G75*
G02*
X111546400Y-131466000I0J200000D01*
G01*
X111546400Y-129434000D01*
G75*
G02*
X111746400Y-129234000I200000J0D01*
G01*
X113473600Y-129234000D01*
G75*
G02*
X113673600Y-129434000I0J-200000D01*
G01*
X113673600Y-131466000D01*
G75*
G02*
X113473600Y-131666000I-200000J0D01*
G01*
G37*
D21*
X115150000Y-130450000D03*
X117690000Y-130450000D03*
G36*
G01*
X135864600Y-129206600D02*
X133832600Y-129206600D01*
G75*
G02*
X133632600Y-129006600I0J200000D01*
G01*
X133632600Y-126974600D01*
G75*
G02*
X133832600Y-126774600I200000J0D01*
G01*
X135864600Y-126774600D01*
G75*
G02*
X136064600Y-126974600I0J-200000D01*
G01*
X136064600Y-129006600D01*
G75*
G02*
X135864600Y-129206600I-200000J0D01*
G01*
G37*
D25*
X137388600Y-127990600D03*
G36*
G01*
X114862000Y-136525000D02*
X114862000Y-134493000D01*
G75*
G02*
X115062000Y-134293000I200000J0D01*
G01*
X117094000Y-134293000D01*
G75*
G02*
X117294000Y-134493000I0J-200000D01*
G01*
X117294000Y-136525000D01*
G75*
G02*
X117094000Y-136725000I-200000J0D01*
G01*
X115062000Y-136725000D01*
G75*
G02*
X114862000Y-136525000I0J200000D01*
G01*
G37*
D22*
X116078000Y-138049000D03*
G36*
G01*
X114760400Y-144246601D02*
X114760400Y-142011399D01*
G75*
G02*
X114960399Y-141811400I199999J0D01*
G01*
X117195601Y-141811400D01*
G75*
G02*
X117395600Y-142011399I0J-199999D01*
G01*
X117395600Y-144246601D01*
G75*
G02*
X117195601Y-144446600I-199999J0D01*
G01*
X114960399Y-144446600D01*
G75*
G02*
X114760400Y-144246601I0J199999D01*
G01*
G37*
G36*
G01*
X152225400Y-91160601D02*
X152225400Y-88925399D01*
G75*
G02*
X152425399Y-88725400I199999J0D01*
G01*
X154660601Y-88725400D01*
G75*
G02*
X154860600Y-88925399I0J-199999D01*
G01*
X154860600Y-91160601D01*
G75*
G02*
X154660601Y-91360600I-199999J0D01*
G01*
X152425399Y-91360600D01*
G75*
G02*
X152225400Y-91160601I0J199999D01*
G01*
G37*
G36*
G01*
X156502100Y-114182500D02*
X154774900Y-114182500D01*
G75*
G02*
X154574900Y-113982500I0J200000D01*
G01*
X154574900Y-111950500D01*
G75*
G02*
X154774900Y-111750500I200000J0D01*
G01*
X156502100Y-111750500D01*
G75*
G02*
X156702100Y-111950500I0J-200000D01*
G01*
X156702100Y-113982500D01*
G75*
G02*
X156502100Y-114182500I-200000J0D01*
G01*
G37*
D21*
X158178500Y-112966500D03*
X160718500Y-112966500D03*
X163258500Y-112966500D03*
G36*
G01*
X122134630Y-108373520D02*
X120435370Y-108373520D01*
G75*
G02*
X120235370Y-108173520I0J200000D01*
G01*
X120235370Y-106974640D01*
G75*
G02*
X120435370Y-106774640I200000J0D01*
G01*
X122134630Y-106774640D01*
G75*
G02*
X122334630Y-106974640I0J-200000D01*
G01*
X122334630Y-108173520D01*
G75*
G02*
X122134630Y-108373520I-200000J0D01*
G01*
G37*
D24*
X121285000Y-103571040D03*
X121285000Y-105572560D03*
X121285000Y-101572060D03*
M02*
