G04 #@! TF.GenerationSoftware,KiCad,Pcbnew,6.0.11-2627ca5db0~126~ubuntu22.04.1*
G04 #@! TF.CreationDate,2023-02-09T17:38:32+01:00*
G04 #@! TF.ProjectId,SRSE2,53525345-322e-46b6-9963-61645f706362,1.81*
G04 #@! TF.SameCoordinates,Original*
G04 #@! TF.FileFunction,Soldermask,Top*
G04 #@! TF.FilePolarity,Negative*
%FSLAX46Y46*%
G04 Gerber Fmt 4.6, Leading zero omitted, Abs format (unit mm)*
G04 Created by KiCad (PCBNEW 6.0.11-2627ca5db0~126~ubuntu22.04.1) date 2023-02-09 17:38:32*
%MOMM*%
%LPD*%
G01*
G04 APERTURE LIST*
G04 Aperture macros list*
%AMRoundRect*
0 Rectangle with rounded corners*
0 $1 Rounding radius*
0 $2 $3 $4 $5 $6 $7 $8 $9 X,Y pos of 4 corners*
0 Add a 4 corners polygon primitive as box body*
4,1,4,$2,$3,$4,$5,$6,$7,$8,$9,$2,$3,0*
0 Add four circle primitives for the rounded corners*
1,1,$1+$1,$2,$3*
1,1,$1+$1,$4,$5*
1,1,$1+$1,$6,$7*
1,1,$1+$1,$8,$9*
0 Add four rect primitives between the rounded corners*
20,1,$1+$1,$2,$3,$4,$5,0*
20,1,$1+$1,$4,$5,$6,$7,0*
20,1,$1+$1,$6,$7,$8,$9,0*
20,1,$1+$1,$8,$9,$2,$3,0*%
G04 Aperture macros list end*
%ADD10C,4.464000*%
%ADD11RoundRect,0.508850X-0.441150X-0.416150X0.441150X-0.416150X0.441150X0.416150X-0.441150X0.416150X0*%
%ADD12RoundRect,0.508850X0.441150X0.416150X-0.441150X0.416150X-0.441150X-0.416150X0.441150X-0.416150X0*%
%ADD13RoundRect,0.508850X-0.416150X0.441150X-0.416150X-0.441150X0.416150X-0.441150X0.416150X0.441150X0*%
%ADD14RoundRect,0.508850X0.416150X-0.441150X0.416150X0.441150X-0.416150X0.441150X-0.416150X-0.441150X0*%
%ADD15RoundRect,0.200000X-1.000000X1.000000X-1.000000X-1.000000X1.000000X-1.000000X1.000000X1.000000X0*%
%ADD16C,2.400000*%
%ADD17C,1.800000*%
%ADD18C,2.900000*%
%ADD19RoundRect,0.200000X0.863600X-1.016000X0.863600X1.016000X-0.863600X1.016000X-0.863600X-1.016000X0*%
%ADD20O,2.127200X2.432000*%
%ADD21RoundRect,0.200000X1.016000X1.016000X-1.016000X1.016000X-1.016000X-1.016000X1.016000X-1.016000X0*%
%ADD22O,2.432000X2.432000*%
%ADD23RoundRect,0.200000X1.016000X-1.016000X1.016000X1.016000X-1.016000X1.016000X-1.016000X-1.016000X0*%
%ADD24RoundRect,0.200000X-0.675000X-0.650000X0.675000X-0.650000X0.675000X0.650000X-0.675000X0.650000X0*%
%ADD25RoundRect,0.200000X0.650000X-0.675000X0.650000X0.675000X-0.650000X0.675000X-0.650000X-0.675000X0*%
%ADD26RoundRect,0.200000X-0.650000X0.675000X-0.650000X-0.675000X0.650000X-0.675000X0.650000X0.675000X0*%
%ADD27RoundRect,0.350000X-0.825000X-0.150000X0.825000X-0.150000X0.825000X0.150000X-0.825000X0.150000X0*%
%ADD28C,3.650000*%
%ADD29RoundRect,0.200000X-0.635000X-0.635000X0.635000X-0.635000X0.635000X0.635000X-0.635000X0.635000X0*%
%ADD30C,1.670000*%
%ADD31C,1.900000*%
%ADD32O,2.200000X3.143200*%
%ADD33RoundRect,0.200000X0.675000X0.650000X-0.675000X0.650000X-0.675000X-0.650000X0.675000X-0.650000X0*%
%ADD34RoundRect,0.200000X1.016000X0.863600X-1.016000X0.863600X-1.016000X-0.863600X1.016000X-0.863600X0*%
%ADD35O,2.432000X2.127200*%
%ADD36RoundRect,0.350000X-0.150000X0.825000X-0.150000X-0.825000X0.150000X-0.825000X0.150000X0.825000X0*%
%ADD37O,2.200000X2.200000*%
%ADD38RoundRect,0.200000X0.849630X-0.599440X0.849630X0.599440X-0.849630X0.599440X-0.849630X-0.599440X0*%
%ADD39O,2.099260X1.598880*%
%ADD40RoundRect,0.200000X-0.849630X0.599440X-0.849630X-0.599440X0.849630X-0.599440X0.849630X0.599440X0*%
%ADD41RoundRect,0.200000X-1.016000X-1.016000X1.016000X-1.016000X1.016000X1.016000X-1.016000X1.016000X0*%
%ADD42RoundRect,0.200000X0.850000X-0.750000X0.850000X0.750000X-0.850000X0.750000X-0.850000X-0.750000X0*%
%ADD43RoundRect,0.200000X-1.117600X-1.117600X1.117600X-1.117600X1.117600X1.117600X-1.117600X1.117600X0*%
%ADD44RoundRect,0.200000X-0.750000X-0.850000X0.750000X-0.850000X0.750000X0.850000X-0.750000X0.850000X0*%
%ADD45RoundRect,0.200000X0.203200X0.825500X-0.203200X0.825500X-0.203200X-0.825500X0.203200X-0.825500X0*%
%ADD46RoundRect,0.200000X-0.700000X-0.600000X0.700000X-0.600000X0.700000X0.600000X-0.700000X0.600000X0*%
%ADD47RoundRect,0.200000X-0.850000X-0.850000X0.850000X-0.850000X0.850000X0.850000X-0.850000X0.850000X0*%
%ADD48O,2.100000X2.100000*%
%ADD49RoundRect,0.200000X-0.850000X0.850000X-0.850000X-0.850000X0.850000X-0.850000X0.850000X0.850000X0*%
%ADD50RoundRect,0.350000X0.150000X-0.725000X0.150000X0.725000X-0.150000X0.725000X-0.150000X-0.725000X0*%
%ADD51RoundRect,0.200000X-0.600000X1.100000X-0.600000X-1.100000X0.600000X-1.100000X0.600000X1.100000X0*%
%ADD52RoundRect,0.200000X-2.900000X3.200000X-2.900000X-3.200000X2.900000X-3.200000X2.900000X3.200000X0*%
%ADD53O,1.600000X2.400000*%
%ADD54RoundRect,0.437500X-0.237500X0.250000X-0.237500X-0.250000X0.237500X-0.250000X0.237500X0.250000X0*%
%ADD55RoundRect,0.437500X0.237500X-0.250000X0.237500X0.250000X-0.237500X0.250000X-0.237500X-0.250000X0*%
%ADD56RoundRect,0.450000X-0.650000X0.412500X-0.650000X-0.412500X0.650000X-0.412500X0.650000X0.412500X0*%
%ADD57RoundRect,0.450000X1.025000X-0.875000X1.025000X0.875000X-1.025000X0.875000X-1.025000X-0.875000X0*%
%ADD58RoundRect,0.200000X-1.350000X-1.800000X1.350000X-1.800000X1.350000X1.800000X-1.350000X1.800000X0*%
%ADD59RoundRect,0.450000X-0.412500X-0.650000X0.412500X-0.650000X0.412500X0.650000X-0.412500X0.650000X0*%
%ADD60RoundRect,0.200000X-0.900000X1.250000X-0.900000X-1.250000X0.900000X-1.250000X0.900000X1.250000X0*%
%ADD61RoundRect,0.437500X0.300000X0.237500X-0.300000X0.237500X-0.300000X-0.237500X0.300000X-0.237500X0*%
%ADD62RoundRect,0.450000X0.412500X0.650000X-0.412500X0.650000X-0.412500X-0.650000X0.412500X-0.650000X0*%
%ADD63RoundRect,0.200000X0.300000X-0.775000X0.300000X0.775000X-0.300000X0.775000X-0.300000X-0.775000X0*%
%ADD64RoundRect,0.200000X1.550000X-1.300000X1.550000X1.300000X-1.550000X1.300000X-1.550000X-1.300000X0*%
G04 APERTURE END LIST*
D10*
X108000000Y-130000000D03*
X174000000Y-130000000D03*
X174000000Y-90000000D03*
X108000000Y-90000000D03*
D11*
X144773500Y-112975000D03*
D12*
X142373500Y-112975000D03*
D13*
X141020800Y-101110900D03*
D14*
X141020800Y-98710900D03*
D12*
X131007000Y-112776000D03*
D11*
X133407000Y-112776000D03*
D13*
X171000000Y-105924200D03*
D14*
X171000000Y-103524200D03*
D13*
X166852600Y-127057000D03*
D14*
X166852600Y-124657000D03*
D13*
X162585400Y-127133200D03*
D14*
X162585400Y-124733200D03*
X160578800Y-124733200D03*
D13*
X160578800Y-127133200D03*
D14*
X151942800Y-124733200D03*
D13*
X151942800Y-127133200D03*
D15*
X125175800Y-97255800D03*
D16*
X122635800Y-97255800D03*
D15*
X125225000Y-92400000D03*
D16*
X122685000Y-92400000D03*
D15*
X125225000Y-87600000D03*
D16*
X122685000Y-87600000D03*
D17*
X123317000Y-134312500D03*
X124587000Y-131772500D03*
X125857000Y-134312500D03*
X127127000Y-131772500D03*
X128397000Y-134312500D03*
X129667000Y-131772500D03*
X130937000Y-134312500D03*
X132207000Y-131772500D03*
D18*
X120012000Y-137602500D03*
X135512000Y-137602500D03*
D19*
X157480000Y-90170000D03*
D20*
X160020000Y-90170000D03*
X162560000Y-90170000D03*
X165100000Y-90170000D03*
X167640000Y-90170000D03*
X170180000Y-90170000D03*
D19*
X129540000Y-90170000D03*
D20*
X132080000Y-90170000D03*
X134620000Y-90170000D03*
X137160000Y-90170000D03*
X139700000Y-90170000D03*
X142240000Y-90170000D03*
X144780000Y-90170000D03*
X147320000Y-90170000D03*
X149860000Y-90170000D03*
D21*
X134848600Y-124460000D03*
D22*
X134848600Y-121920000D03*
D23*
X122118200Y-112014000D03*
D22*
X124658200Y-112014000D03*
D24*
X131591200Y-101701600D03*
X133991200Y-101701600D03*
X131591200Y-99618800D03*
X133991200Y-99618800D03*
X131591200Y-97536000D03*
X133991200Y-97536000D03*
X165225000Y-100225000D03*
X167625000Y-100225000D03*
D25*
X171000000Y-100700000D03*
X171000000Y-98300000D03*
X149631400Y-127107800D03*
X149631400Y-124707800D03*
D26*
X170053000Y-129991000D03*
X170053000Y-132391000D03*
X156337000Y-124657000D03*
X156337000Y-127057000D03*
X158496000Y-124657000D03*
X158496000Y-127057000D03*
D27*
X162525000Y-102095000D03*
X162525000Y-103365000D03*
X162525000Y-104635000D03*
X162525000Y-105905000D03*
X167475000Y-105905000D03*
X167475000Y-104635000D03*
X167475000Y-103365000D03*
X167475000Y-102095000D03*
D28*
X166433500Y-139954000D03*
X155003500Y-139954000D03*
D29*
X156273500Y-133858000D03*
D30*
X157543500Y-131318000D03*
X158813500Y-133858000D03*
X160083500Y-131318000D03*
X161353500Y-133858000D03*
X162623500Y-131318000D03*
X163893500Y-133858000D03*
X165163500Y-131318000D03*
D31*
X154241500Y-144780000D03*
X156908500Y-144780000D03*
X164528500Y-144780000D03*
X167195500Y-144780000D03*
D32*
X153352500Y-136525000D03*
X168084500Y-136525000D03*
D17*
X138811000Y-134312500D03*
X140081000Y-131772500D03*
X141351000Y-134312500D03*
X142621000Y-131772500D03*
X143891000Y-134312500D03*
X145161000Y-131772500D03*
X146431000Y-134312500D03*
X147701000Y-131772500D03*
D18*
X151006000Y-137602500D03*
D33*
X137700000Y-115000000D03*
X135300000Y-115000000D03*
D24*
X161106000Y-108381800D03*
X163506000Y-108381800D03*
X129222800Y-95478600D03*
X131622800Y-95478600D03*
D26*
X128016000Y-102635200D03*
X128016000Y-105035200D03*
D25*
X128016000Y-112198000D03*
X128016000Y-109798000D03*
D34*
X115350000Y-82300000D03*
D35*
X115350000Y-79760000D03*
X115350000Y-77220000D03*
D36*
X134112000Y-104840000D03*
X132842000Y-104840000D03*
X131572000Y-104840000D03*
X130302000Y-104840000D03*
X130302000Y-109790000D03*
X131572000Y-109790000D03*
X132842000Y-109790000D03*
X134112000Y-109790000D03*
D23*
X134848600Y-127990600D03*
D37*
X137388600Y-127990600D03*
D38*
X178562000Y-100614480D03*
D39*
X178562000Y-98612960D03*
X178562000Y-96611440D03*
X178562000Y-94612460D03*
D38*
X178612800Y-111612680D03*
D39*
X178612800Y-109611160D03*
X178612800Y-107609640D03*
X178612800Y-105610660D03*
D38*
X129270000Y-127212280D03*
D39*
X129270000Y-125210760D03*
X129270000Y-123209240D03*
X129270000Y-121210260D03*
D40*
X171425000Y-115072720D03*
D39*
X171425000Y-117074240D03*
X171425000Y-119075760D03*
X171425000Y-121074740D03*
D19*
X112610000Y-130450000D03*
D20*
X115150000Y-130450000D03*
X117690000Y-130450000D03*
D24*
X125250000Y-118200000D03*
X127650000Y-118200000D03*
D41*
X116078000Y-135509000D03*
D22*
X116078000Y-138049000D03*
D42*
X137871200Y-125015400D03*
X137871200Y-121415400D03*
D43*
X116078000Y-143129000D03*
X153543000Y-90043000D03*
D19*
X155638500Y-112966500D03*
D20*
X158178500Y-112966500D03*
X160718500Y-112966500D03*
X163258500Y-112966500D03*
D38*
X123146820Y-107751880D03*
D39*
X123146820Y-105750360D03*
X123146820Y-103748840D03*
X123146820Y-101749860D03*
D33*
X123150000Y-118200000D03*
X120750000Y-118200000D03*
D44*
X121136000Y-115392200D03*
X124736000Y-115392200D03*
D26*
X164769800Y-124631600D03*
X164769800Y-127031600D03*
D45*
X150070820Y-103601520D03*
X149420580Y-103601520D03*
X148772880Y-103601520D03*
X148122640Y-103601520D03*
X147472400Y-103601520D03*
X146822160Y-103601520D03*
X146171920Y-103601520D03*
X145521680Y-103601520D03*
X144871440Y-103601520D03*
X144221200Y-103601520D03*
X143570960Y-103601520D03*
X142920720Y-103601520D03*
X142273020Y-103601520D03*
X141622780Y-103601520D03*
X141622780Y-110799880D03*
X142273020Y-110799880D03*
X142920720Y-110799880D03*
X143570960Y-110799880D03*
X144221200Y-110799880D03*
X144871440Y-110799880D03*
X145521680Y-110799880D03*
X146171920Y-110799880D03*
X146822160Y-110799880D03*
X147472400Y-110799880D03*
X148122640Y-110799880D03*
X148772880Y-110799880D03*
X149420580Y-110799880D03*
X150070820Y-110799880D03*
D46*
X143743500Y-101243500D03*
X145943500Y-101243500D03*
X145943500Y-99543500D03*
X143743500Y-99543500D03*
D11*
X145898400Y-97497900D03*
D12*
X143498400Y-97497900D03*
D26*
X152615900Y-104781500D03*
X152615900Y-107181500D03*
D14*
X140843000Y-121761400D03*
D13*
X140843000Y-124161400D03*
D26*
X154051000Y-124657000D03*
X154051000Y-127057000D03*
D24*
X168383100Y-95961200D03*
X170783100Y-95961200D03*
D33*
X170757700Y-93814900D03*
X168357700Y-93814900D03*
D47*
X178803300Y-117233700D03*
D48*
X178803300Y-119773700D03*
X178803300Y-122313700D03*
X178803300Y-124853700D03*
X178803300Y-127393700D03*
D36*
X146666800Y-122619800D03*
X145396800Y-122619800D03*
X144126800Y-122619800D03*
X142856800Y-122619800D03*
X142856800Y-127569800D03*
X144126800Y-127569800D03*
X145396800Y-127569800D03*
X146666800Y-127569800D03*
D49*
X166020000Y-120250000D03*
D48*
X163480000Y-120250000D03*
D50*
X115392200Y-126273000D03*
X116662200Y-126273000D03*
X117932200Y-126273000D03*
X119202200Y-126273000D03*
X120472200Y-126273000D03*
X121742200Y-126273000D03*
X123012200Y-126273000D03*
X124282200Y-126273000D03*
X124282200Y-121123000D03*
X123012200Y-121123000D03*
X121742200Y-121123000D03*
X120472200Y-121123000D03*
X119202200Y-121123000D03*
X117932200Y-121123000D03*
X116662200Y-121123000D03*
X115392200Y-121123000D03*
D51*
X107980000Y-117100000D03*
D52*
X105700000Y-123400000D03*
D51*
X103420000Y-117100000D03*
D11*
X105695600Y-114731800D03*
D12*
X103295600Y-114731800D03*
D26*
X170053000Y-135325000D03*
X170053000Y-137725000D03*
X110286800Y-122929800D03*
X110286800Y-125329800D03*
D25*
X110286800Y-120783200D03*
X110286800Y-118383200D03*
D24*
X110458400Y-116027200D03*
X112858400Y-116027200D03*
D14*
X113538000Y-124174400D03*
D13*
X113538000Y-126574400D03*
D14*
X113639600Y-119069000D03*
D13*
X113639600Y-121469000D03*
D53*
X161685000Y-93210000D03*
X159685000Y-93210000D03*
X157685000Y-93210000D03*
X155685000Y-93210000D03*
X153685000Y-93210000D03*
X151685000Y-93210000D03*
X149685000Y-93210000D03*
X147685000Y-93210000D03*
X145685000Y-93210000D03*
X143685000Y-93210000D03*
X141685000Y-93210000D03*
X139685000Y-93210000D03*
X137685000Y-93210000D03*
X135685000Y-93210000D03*
X133685000Y-93210000D03*
X131685000Y-93210000D03*
X131685000Y-117610000D03*
X133685000Y-117610000D03*
X135685000Y-117610000D03*
X137685000Y-117610000D03*
X139685000Y-117610000D03*
X141685000Y-117610000D03*
X143685000Y-117610000D03*
X145685000Y-117610000D03*
X147685000Y-117610000D03*
X149685000Y-117610000D03*
X151685000Y-117610000D03*
X153685000Y-117610000D03*
X155685000Y-117610000D03*
X157685000Y-117610000D03*
X159685000Y-117610000D03*
X161685000Y-117610000D03*
D13*
X159004000Y-105314600D03*
D14*
X159004000Y-102914600D03*
D54*
X118050000Y-93487500D03*
X118050000Y-95312500D03*
D55*
X119837200Y-98905700D03*
X119837200Y-97080700D03*
D56*
X103600000Y-128187500D03*
X103600000Y-131312500D03*
D57*
X116400000Y-104050000D03*
X116400000Y-97650000D03*
D58*
X103900000Y-106900000D03*
X112200000Y-106900000D03*
D59*
X148970200Y-99161600D03*
X152095200Y-99161600D03*
D60*
X106324400Y-94088200D03*
X106324400Y-98088200D03*
D61*
X107250000Y-100550000D03*
X105525000Y-100550000D03*
D62*
X114687500Y-91236800D03*
X111562500Y-91236800D03*
D63*
X109016800Y-99067600D03*
X110286800Y-99067600D03*
X111556800Y-99067600D03*
X112826800Y-99067600D03*
X112826800Y-93667600D03*
X111556800Y-93667600D03*
X110286800Y-93667600D03*
X109016800Y-93667600D03*
D64*
X110921800Y-96367600D03*
D55*
X119837200Y-95324300D03*
X119837200Y-93499300D03*
M02*
