G04 #@! TF.GenerationSoftware,KiCad,Pcbnew,5.1.10-88a1d61d58~90~ubuntu20.04.1*
G04 #@! TF.CreationDate,2021-11-30T20:52:45+01:00*
G04 #@! TF.ProjectId,SRSE2,53525345-322e-46b6-9963-61645f706362,1.1*
G04 #@! TF.SameCoordinates,Original*
G04 #@! TF.FileFunction,Soldermask,Bot*
G04 #@! TF.FilePolarity,Negative*
%FSLAX46Y46*%
G04 Gerber Fmt 4.6, Leading zero omitted, Abs format (unit mm)*
G04 Created by KiCad (PCBNEW 5.1.10-88a1d61d58~90~ubuntu20.04.1) date 2021-11-30 20:52:45*
%MOMM*%
%LPD*%
G01*
G04 APERTURE LIST*
%ADD10C,1.700000*%
%ADD11O,2.100000X2.100000*%
%ADD12O,1.600000X2.400000*%
%ADD13C,1.670000*%
%ADD14C,3.650000*%
%ADD15O,2.200000X3.143200*%
%ADD16C,1.800000*%
%ADD17C,2.900000*%
%ADD18C,4.464000*%
%ADD19C,2.400000*%
%ADD20O,2.127200X2.432000*%
%ADD21O,2.432000X2.432000*%
%ADD22O,2.432000X2.127200*%
%ADD23O,2.099260X1.598880*%
%ADD24O,2.200000X2.200000*%
G04 APERTURE END LIST*
G36*
G01*
X105294800Y-109586000D02*
X105294800Y-110886000D01*
G75*
G02*
X105094800Y-111086000I-200000J0D01*
G01*
X103794800Y-111086000D01*
G75*
G02*
X103594800Y-110886000I0J200000D01*
G01*
X103594800Y-109586000D01*
G75*
G02*
X103794800Y-109386000I200000J0D01*
G01*
X105094800Y-109386000D01*
G75*
G02*
X105294800Y-109586000I0J-200000D01*
G01*
G37*
D10*
X101944800Y-110236000D03*
D11*
X163484560Y-120142000D03*
G36*
G01*
X165174560Y-119092000D02*
X166874560Y-119092000D01*
G75*
G02*
X167074560Y-119292000I0J-200000D01*
G01*
X167074560Y-120992000D01*
G75*
G02*
X166874560Y-121192000I-200000J0D01*
G01*
X165174560Y-121192000D01*
G75*
G02*
X164974560Y-120992000I0J200000D01*
G01*
X164974560Y-119292000D01*
G75*
G02*
X165174560Y-119092000I200000J0D01*
G01*
G37*
X178803300Y-127393700D03*
X178803300Y-124853700D03*
X178803300Y-122313700D03*
X178803300Y-119773700D03*
G36*
G01*
X177753300Y-118083700D02*
X177753300Y-116383700D01*
G75*
G02*
X177953300Y-116183700I200000J0D01*
G01*
X179653300Y-116183700D01*
G75*
G02*
X179853300Y-116383700I0J-200000D01*
G01*
X179853300Y-118083700D01*
G75*
G02*
X179653300Y-118283700I-200000J0D01*
G01*
X177953300Y-118283700D01*
G75*
G02*
X177753300Y-118083700I0J200000D01*
G01*
G37*
D12*
X161685000Y-117610000D03*
X161685000Y-93210000D03*
X159685000Y-117610000D03*
X159685000Y-93210000D03*
X157685000Y-117610000D03*
X157685000Y-93210000D03*
X155685000Y-117610000D03*
X155685000Y-93210000D03*
X153685000Y-117610000D03*
X153685000Y-93210000D03*
X151685000Y-117610000D03*
X151685000Y-93210000D03*
X149685000Y-117610000D03*
X149685000Y-93210000D03*
X147685000Y-117610000D03*
X147685000Y-93210000D03*
X145685000Y-117610000D03*
X145685000Y-93210000D03*
X143685000Y-117610000D03*
X143685000Y-93210000D03*
X141685000Y-117610000D03*
X141685000Y-93210000D03*
X139685000Y-117610000D03*
X139685000Y-93210000D03*
X137685000Y-117610000D03*
X137685000Y-93210000D03*
X135685000Y-117610000D03*
X135685000Y-93210000D03*
X133685000Y-117610000D03*
X133685000Y-93210000D03*
X131685000Y-117610000D03*
X131685000Y-93210000D03*
G36*
G01*
X155438500Y-134493000D02*
X155438500Y-133223000D01*
G75*
G02*
X155638500Y-133023000I200000J0D01*
G01*
X156908500Y-133023000D01*
G75*
G02*
X157108500Y-133223000I0J-200000D01*
G01*
X157108500Y-134493000D01*
G75*
G02*
X156908500Y-134693000I-200000J0D01*
G01*
X155638500Y-134693000D01*
G75*
G02*
X155438500Y-134493000I0J200000D01*
G01*
G37*
D13*
X157543500Y-131318000D03*
X158813500Y-133858000D03*
X160083500Y-131318000D03*
X161353500Y-133858000D03*
X162623500Y-131318000D03*
X163893500Y-133858000D03*
X165163500Y-131318000D03*
X154241500Y-144780000D03*
X156908500Y-144780000D03*
X167195500Y-144780000D03*
X164528500Y-144780000D03*
D14*
X166433500Y-139954000D03*
X155003500Y-139954000D03*
D15*
X153352500Y-136525000D03*
X168084500Y-136525000D03*
D16*
X141351000Y-134312500D03*
X138811000Y-134312500D03*
X140081000Y-131772500D03*
X142621000Y-131772500D03*
X143891000Y-134312500D03*
X145161000Y-131772500D03*
X146431000Y-134312500D03*
X147701000Y-131772500D03*
D17*
X151006000Y-137602500D03*
D18*
X108000000Y-130000000D03*
X174000000Y-130000000D03*
X174000000Y-90000000D03*
X108000000Y-90000000D03*
G36*
G01*
X151284700Y-101611800D02*
X149984700Y-101611800D01*
G75*
G02*
X149784700Y-101411800I0J200000D01*
G01*
X149784700Y-100111800D01*
G75*
G02*
X149984700Y-99911800I200000J0D01*
G01*
X151284700Y-99911800D01*
G75*
G02*
X151484700Y-100111800I0J-200000D01*
G01*
X151484700Y-101411800D01*
G75*
G02*
X151284700Y-101611800I-200000J0D01*
G01*
G37*
D10*
X150634700Y-98261800D03*
G36*
G01*
X115052600Y-89503400D02*
X117052600Y-89503400D01*
G75*
G02*
X117252600Y-89703400I0J-200000D01*
G01*
X117252600Y-91703400D01*
G75*
G02*
X117052600Y-91903400I-200000J0D01*
G01*
X115052600Y-91903400D01*
G75*
G02*
X114852600Y-91703400I0J200000D01*
G01*
X114852600Y-89703400D01*
G75*
G02*
X115052600Y-89503400I200000J0D01*
G01*
G37*
D19*
X113512600Y-90703400D03*
G36*
G01*
X120056400Y-89503400D02*
X122056400Y-89503400D01*
G75*
G02*
X122256400Y-89703400I0J-200000D01*
G01*
X122256400Y-91703400D01*
G75*
G02*
X122056400Y-91903400I-200000J0D01*
G01*
X120056400Y-91903400D01*
G75*
G02*
X119856400Y-91703400I0J200000D01*
G01*
X119856400Y-89703400D01*
G75*
G02*
X120056400Y-89503400I200000J0D01*
G01*
G37*
X118516400Y-90703400D03*
G36*
G01*
X125085600Y-89503400D02*
X127085600Y-89503400D01*
G75*
G02*
X127285600Y-89703400I0J-200000D01*
G01*
X127285600Y-91703400D01*
G75*
G02*
X127085600Y-91903400I-200000J0D01*
G01*
X125085600Y-91903400D01*
G75*
G02*
X124885600Y-91703400I0J200000D01*
G01*
X124885600Y-89703400D01*
G75*
G02*
X125085600Y-89503400I200000J0D01*
G01*
G37*
X123545600Y-90703400D03*
D16*
X125857000Y-134312500D03*
X123317000Y-134312500D03*
X124587000Y-131772500D03*
X127127000Y-131772500D03*
X128397000Y-134312500D03*
X129667000Y-131772500D03*
X130937000Y-134312500D03*
X132207000Y-131772500D03*
D17*
X120012000Y-137602500D03*
X135512000Y-137602500D03*
G36*
G01*
X158343600Y-91386000D02*
X156616400Y-91386000D01*
G75*
G02*
X156416400Y-91186000I0J200000D01*
G01*
X156416400Y-89154000D01*
G75*
G02*
X156616400Y-88954000I200000J0D01*
G01*
X158343600Y-88954000D01*
G75*
G02*
X158543600Y-89154000I0J-200000D01*
G01*
X158543600Y-91186000D01*
G75*
G02*
X158343600Y-91386000I-200000J0D01*
G01*
G37*
D20*
X160020000Y-90170000D03*
X162560000Y-90170000D03*
X165100000Y-90170000D03*
X167640000Y-90170000D03*
X170180000Y-90170000D03*
G36*
G01*
X130403600Y-91386000D02*
X128676400Y-91386000D01*
G75*
G02*
X128476400Y-91186000I0J200000D01*
G01*
X128476400Y-89154000D01*
G75*
G02*
X128676400Y-88954000I200000J0D01*
G01*
X130403600Y-88954000D01*
G75*
G02*
X130603600Y-89154000I0J-200000D01*
G01*
X130603600Y-91186000D01*
G75*
G02*
X130403600Y-91386000I-200000J0D01*
G01*
G37*
X132080000Y-90170000D03*
X134620000Y-90170000D03*
X137160000Y-90170000D03*
X139700000Y-90170000D03*
X142240000Y-90170000D03*
X144780000Y-90170000D03*
X147320000Y-90170000D03*
X149860000Y-90170000D03*
G36*
G01*
X136064600Y-123444000D02*
X136064600Y-125476000D01*
G75*
G02*
X135864600Y-125676000I-200000J0D01*
G01*
X133832600Y-125676000D01*
G75*
G02*
X133632600Y-125476000I0J200000D01*
G01*
X133632600Y-123444000D01*
G75*
G02*
X133832600Y-123244000I200000J0D01*
G01*
X135864600Y-123244000D01*
G75*
G02*
X136064600Y-123444000I0J-200000D01*
G01*
G37*
D21*
X134848600Y-121920000D03*
G36*
G01*
X119256200Y-115316000D02*
X119256200Y-113284000D01*
G75*
G02*
X119456200Y-113084000I200000J0D01*
G01*
X121488200Y-113084000D01*
G75*
G02*
X121688200Y-113284000I0J-200000D01*
G01*
X121688200Y-115316000D01*
G75*
G02*
X121488200Y-115516000I-200000J0D01*
G01*
X119456200Y-115516000D01*
G75*
G02*
X119256200Y-115316000I0J200000D01*
G01*
G37*
X120472200Y-116840000D03*
G36*
G01*
X114754000Y-81305400D02*
X114754000Y-83032600D01*
G75*
G02*
X114554000Y-83232600I-200000J0D01*
G01*
X112522000Y-83232600D01*
G75*
G02*
X112322000Y-83032600I0J200000D01*
G01*
X112322000Y-81305400D01*
G75*
G02*
X112522000Y-81105400I200000J0D01*
G01*
X114554000Y-81105400D01*
G75*
G02*
X114754000Y-81305400I0J-200000D01*
G01*
G37*
D22*
X113538000Y-79629000D03*
X113538000Y-77089000D03*
G36*
G01*
X179411630Y-101413920D02*
X177712370Y-101413920D01*
G75*
G02*
X177512370Y-101213920I0J200000D01*
G01*
X177512370Y-100015040D01*
G75*
G02*
X177712370Y-99815040I200000J0D01*
G01*
X179411630Y-99815040D01*
G75*
G02*
X179611630Y-100015040I0J-200000D01*
G01*
X179611630Y-101213920D01*
G75*
G02*
X179411630Y-101413920I-200000J0D01*
G01*
G37*
D23*
X178562000Y-96611440D03*
X178562000Y-98612960D03*
X178562000Y-94612460D03*
G36*
G01*
X179462430Y-112412120D02*
X177763170Y-112412120D01*
G75*
G02*
X177563170Y-112212120I0J200000D01*
G01*
X177563170Y-111013240D01*
G75*
G02*
X177763170Y-110813240I200000J0D01*
G01*
X179462430Y-110813240D01*
G75*
G02*
X179662430Y-111013240I0J-200000D01*
G01*
X179662430Y-112212120D01*
G75*
G02*
X179462430Y-112412120I-200000J0D01*
G01*
G37*
X178612800Y-107609640D03*
X178612800Y-109611160D03*
X178612800Y-105610660D03*
G36*
G01*
X130119630Y-128011720D02*
X128420370Y-128011720D01*
G75*
G02*
X128220370Y-127811720I0J200000D01*
G01*
X128220370Y-126612840D01*
G75*
G02*
X128420370Y-126412840I200000J0D01*
G01*
X130119630Y-126412840D01*
G75*
G02*
X130319630Y-126612840I0J-200000D01*
G01*
X130319630Y-127811720D01*
G75*
G02*
X130119630Y-128011720I-200000J0D01*
G01*
G37*
X129270000Y-123209240D03*
X129270000Y-125210760D03*
X129270000Y-121210260D03*
G36*
G01*
X170473370Y-114323520D02*
X172172630Y-114323520D01*
G75*
G02*
X172372630Y-114523520I0J-200000D01*
G01*
X172372630Y-115722400D01*
G75*
G02*
X172172630Y-115922400I-200000J0D01*
G01*
X170473370Y-115922400D01*
G75*
G02*
X170273370Y-115722400I0J200000D01*
G01*
X170273370Y-114523520D01*
G75*
G02*
X170473370Y-114323520I200000J0D01*
G01*
G37*
X171323000Y-119126000D03*
X171323000Y-117124480D03*
X171323000Y-121124980D03*
G36*
G01*
X101539700Y-118465600D02*
X101539700Y-116738400D01*
G75*
G02*
X101739700Y-116538400I200000J0D01*
G01*
X103771700Y-116538400D01*
G75*
G02*
X103971700Y-116738400I0J-200000D01*
G01*
X103971700Y-118465600D01*
G75*
G02*
X103771700Y-118665600I-200000J0D01*
G01*
X101739700Y-118665600D01*
G75*
G02*
X101539700Y-118465600I0J200000D01*
G01*
G37*
D22*
X102755700Y-120142000D03*
X102755700Y-122682000D03*
X102755700Y-125222000D03*
G36*
G01*
X105298900Y-118478300D02*
X105298900Y-116751100D01*
G75*
G02*
X105498900Y-116551100I200000J0D01*
G01*
X107530900Y-116551100D01*
G75*
G02*
X107730900Y-116751100I0J-200000D01*
G01*
X107730900Y-118478300D01*
G75*
G02*
X107530900Y-118678300I-200000J0D01*
G01*
X105498900Y-118678300D01*
G75*
G02*
X105298900Y-118478300I0J200000D01*
G01*
G37*
X106514900Y-120154700D03*
X106514900Y-122694700D03*
X106514900Y-125234700D03*
D19*
X117221000Y-82169000D03*
X117221000Y-79629000D03*
X117221000Y-77089000D03*
G36*
G01*
X113473600Y-131666000D02*
X111746400Y-131666000D01*
G75*
G02*
X111546400Y-131466000I0J200000D01*
G01*
X111546400Y-129434000D01*
G75*
G02*
X111746400Y-129234000I200000J0D01*
G01*
X113473600Y-129234000D01*
G75*
G02*
X113673600Y-129434000I0J-200000D01*
G01*
X113673600Y-131466000D01*
G75*
G02*
X113473600Y-131666000I-200000J0D01*
G01*
G37*
D20*
X115150000Y-130450000D03*
X117690000Y-130450000D03*
G36*
G01*
X135864600Y-129206600D02*
X133832600Y-129206600D01*
G75*
G02*
X133632600Y-129006600I0J200000D01*
G01*
X133632600Y-126974600D01*
G75*
G02*
X133832600Y-126774600I200000J0D01*
G01*
X135864600Y-126774600D01*
G75*
G02*
X136064600Y-126974600I0J-200000D01*
G01*
X136064600Y-129006600D01*
G75*
G02*
X135864600Y-129206600I-200000J0D01*
G01*
G37*
D24*
X137388600Y-127990600D03*
G36*
G01*
X114862000Y-136525000D02*
X114862000Y-134493000D01*
G75*
G02*
X115062000Y-134293000I200000J0D01*
G01*
X117094000Y-134293000D01*
G75*
G02*
X117294000Y-134493000I0J-200000D01*
G01*
X117294000Y-136525000D01*
G75*
G02*
X117094000Y-136725000I-200000J0D01*
G01*
X115062000Y-136725000D01*
G75*
G02*
X114862000Y-136525000I0J200000D01*
G01*
G37*
D21*
X116078000Y-138049000D03*
G36*
G01*
X114760400Y-144246601D02*
X114760400Y-142011399D01*
G75*
G02*
X114960399Y-141811400I199999J0D01*
G01*
X117195601Y-141811400D01*
G75*
G02*
X117395600Y-142011399I0J-199999D01*
G01*
X117395600Y-144246601D01*
G75*
G02*
X117195601Y-144446600I-199999J0D01*
G01*
X114960399Y-144446600D01*
G75*
G02*
X114760400Y-144246601I0J199999D01*
G01*
G37*
G36*
G01*
X152225400Y-91160601D02*
X152225400Y-88925399D01*
G75*
G02*
X152425399Y-88725400I199999J0D01*
G01*
X154660601Y-88725400D01*
G75*
G02*
X154860600Y-88925399I0J-199999D01*
G01*
X154860600Y-91160601D01*
G75*
G02*
X154660601Y-91360600I-199999J0D01*
G01*
X152425399Y-91360600D01*
G75*
G02*
X152225400Y-91160601I0J199999D01*
G01*
G37*
G36*
G01*
X156502100Y-114182500D02*
X154774900Y-114182500D01*
G75*
G02*
X154574900Y-113982500I0J200000D01*
G01*
X154574900Y-111950500D01*
G75*
G02*
X154774900Y-111750500I200000J0D01*
G01*
X156502100Y-111750500D01*
G75*
G02*
X156702100Y-111950500I0J-200000D01*
G01*
X156702100Y-113982500D01*
G75*
G02*
X156502100Y-114182500I-200000J0D01*
G01*
G37*
D20*
X158178500Y-112966500D03*
X160718500Y-112966500D03*
X163258500Y-112966500D03*
G36*
G01*
X122134630Y-108373520D02*
X120435370Y-108373520D01*
G75*
G02*
X120235370Y-108173520I0J200000D01*
G01*
X120235370Y-106974640D01*
G75*
G02*
X120435370Y-106774640I200000J0D01*
G01*
X122134630Y-106774640D01*
G75*
G02*
X122334630Y-106974640I0J-200000D01*
G01*
X122334630Y-108173520D01*
G75*
G02*
X122134630Y-108373520I-200000J0D01*
G01*
G37*
D23*
X121285000Y-103571040D03*
X121285000Y-105572560D03*
X121285000Y-101572060D03*
M02*
