G04 #@! TF.FileFunction,Profile,NP*
%FSLAX46Y46*%
G04 Gerber Fmt 4.6, Leading zero omitted, Abs format (unit mm)*
G04 Created by KiCad (PCBNEW 4.0.2+dfsg1-stable) date Di 21 Feb 2017 10:36:22 CET*
%MOMM*%
G01*
G04 APERTURE LIST*
%ADD10C,0.100000*%
%ADD11C,0.150000*%
G04 APERTURE END LIST*
D10*
D11*
X129500000Y-71000000D02*
X160000000Y-71000000D01*
X122000000Y-71000000D02*
X123500000Y-71000000D01*
X198500000Y-46000000D02*
X129500000Y-46000000D01*
X123500000Y-46000000D02*
X101500000Y-46000000D01*
X170000000Y-71000000D02*
X198500000Y-71000000D01*
X122000000Y-74000000D02*
X160000000Y-74000000D01*
X160000000Y-74000000D02*
G75*
G03X161500000Y-72500000I0J1500000D01*
G01*
X161500000Y-72500000D02*
G75*
G03X160000000Y-71000000I-1500000J0D01*
G01*
X170000000Y-71000000D02*
G75*
G03X168500000Y-72500000I0J-1500000D01*
G01*
X168500000Y-72500000D02*
G75*
G03X170000000Y-74000000I1500000J0D01*
G01*
X128000000Y-47500000D02*
X128000000Y-53500000D01*
X128000000Y-63500000D02*
X128000000Y-69500000D01*
X125000000Y-63500000D02*
X125000000Y-69500000D01*
X125000000Y-47500000D02*
X125000000Y-53500000D01*
X126500000Y-55000000D02*
G75*
G03X128000000Y-53500000I0J1500000D01*
G01*
X125000000Y-53500000D02*
G75*
G03X126500000Y-55000000I1500000J0D01*
G01*
X128000000Y-63500000D02*
G75*
G03X126500000Y-62000000I-1500000J0D01*
G01*
X126500000Y-62000000D02*
G75*
G03X125000000Y-63500000I0J-1500000D01*
G01*
X129500000Y-46000000D02*
G75*
G03X128000000Y-47500000I0J-1500000D01*
G01*
X128000000Y-69500000D02*
G75*
G03X129500000Y-71000000I1500000J0D01*
G01*
X125000000Y-47500000D02*
G75*
G03X123500000Y-46000000I-1500000J0D01*
G01*
X123500000Y-71000000D02*
G75*
G03X125000000Y-69500000I0J1500000D01*
G01*
X112000000Y-71000000D02*
X101500000Y-71000000D01*
X120500000Y-72500000D02*
G75*
G03X122000000Y-74000000I1500000J0D01*
G01*
X122000000Y-71000000D02*
G75*
G03X120500000Y-72500000I0J-1500000D01*
G01*
X112000000Y-74000000D02*
G75*
G03X113500000Y-72500000I0J1500000D01*
G01*
X113500000Y-72500000D02*
G75*
G03X112000000Y-71000000I-1500000J0D01*
G01*
X200000000Y-69500000D02*
X200000000Y-47500000D01*
X100000000Y-47500000D02*
X100000000Y-69500000D01*
X198500000Y-71000000D02*
G75*
G03X200000000Y-69500000I0J1500000D01*
G01*
X200000000Y-47500000D02*
G75*
G03X198500000Y-46000000I-1500000J0D01*
G01*
X101500000Y-46000000D02*
G75*
G03X100000000Y-47500000I0J-1500000D01*
G01*
X100000000Y-69500000D02*
G75*
G03X101500000Y-71000000I1500000J0D01*
G01*
X112000000Y-146000000D02*
G75*
G03X100000000Y-134000000I-12000000J0D01*
G01*
X100000000Y-86000000D02*
X100000000Y-134000000D01*
X182000000Y-86000000D02*
X182000000Y-134000000D01*
X112000000Y-146000000D02*
X170000000Y-146000000D01*
X170000000Y-74000000D02*
G75*
G03X182000000Y-86000000I12000000J0D01*
G01*
X100000000Y-86000000D02*
G75*
G03X112000000Y-74000000I0J12000000D01*
G01*
X182000000Y-134000000D02*
G75*
G03X170000000Y-146000000I0J-12000000D01*
G01*
M02*
