M48
;DRILL file {KiCad 4.0.2+dfsg1-stable} date Di 21 Feb 2017 10:36:16 CET
;FORMAT={-:-/ absolute / inch / decimal}
FMAT,2
INCH,TZ
T1C0.016
T2C0.028
T3C0.031
T4C0.032
T5C0.034
T6C0.035
T7C0.039
T8C0.039
T9C0.040
T10C0.047
T11C0.063
T12C0.087
T13C0.090
T14C0.098
T15C0.120
%
G90
G05
M72
T1
X4.25Y-2.03
X4.2854Y-4.7106
X4.2854Y-4.8465
X4.2854Y-4.9173
X4.374Y-3.9409
X4.4055Y-4.8245
X4.5157Y-3.9272
X4.5346Y-4.8055
X4.5425Y-5.23
X4.5795Y-4.9009
X4.605Y-2.03
X4.6122Y-4.3445
X4.6398Y-4.9134
X4.7362Y-4.8661
X4.7461Y-5.0571
X4.7677Y-4.876
X4.7756Y-3.8425
X4.7874Y-5.0709
X4.872Y-4.2756
X4.9193Y-4.1614
X4.937Y-4.5984
X4.9409Y-4.4449
X4.9429Y-4.2303
X4.9528Y-4.685
X4.9612Y-3.8215
X4.9665Y-4.7382
X4.9687Y-5.0847
X4.9705Y-4.3445
X4.9884Y-4.5965
X5.002Y-5.0551
X5.0157Y-4.2421
X5.0315Y-4.1319
X5.0413Y-4.2678
X5.0866Y-3.9154
X5.0948Y-4.5062
X5.1004Y-4.4587
X5.1275Y-3.8381
X5.1437Y-4.1909
X5.1553Y-3.8561
X5.1634Y-4.0531
X5.189Y-4.5081
X5.1924Y-3.9209
X5.2205Y-4.8366
X5.2269Y-4.2661
X5.2298Y-3.9386
X5.2609Y-4.7845
X5.3042Y-3.9406
X5.3174Y-3.9692
X5.3346Y-4.1201
X5.3406Y-3.8307
X5.3642Y-4.7106
X5.3937Y-4.1634
X5.4002Y-4.279
X5.4183Y-4.2533
X5.4483Y-4.2966
X5.4526Y-4.1627
X5.4803Y-4.5255
X5.4839Y-4.3136
X5.5235Y-4.103
X5.5384Y-4.2199
X5.5432Y-5.004
X5.5442Y-4.189
X5.554Y-3.434
X5.5806Y-5.0085
X5.5886Y-4.1504
X5.5942Y-4.3452
X5.6115Y-4.1276
X5.622Y-4.9291
X5.6378Y-4.762
X5.6398Y-4.4823
X5.6537Y-4.8756
X5.7008Y-4.563
X5.7067Y-4.4803
X5.7243Y-5.132
X5.75Y-3.5118
X5.752Y-4.345
X5.7564Y-4.7291
X5.7579Y-4.9429
X5.7618Y-4.0965
X5.7657Y-4.484
X5.813Y-3.9587
X5.815Y-3.7894
X5.8415Y-3.9721
X5.8445Y-4.3504
X5.8464Y-3.4863
X5.8504Y-4.5827
X5.8642Y-4.7677
X5.865Y-3.7625
X5.8878Y-4.5118
X5.8898Y-3.9938
X5.8898Y-4.1063
X5.8917Y-5.1339
X5.9173Y-5.
X5.9567Y-3.7486
X5.9724Y-3.7933
X6.Y-5.0748
X6.065Y-4.954
X6.067Y-3.802
X6.1102Y-5.376
X6.116Y-4.742
X6.1193Y-4.2599
X6.135Y-4.44
X6.155Y-4.954
X6.2028Y-4.2421
X6.21Y-4.44
X6.2357Y-4.3052
X6.237Y-4.955
X6.2421Y-5.4882
X6.2432Y-4.3358
X6.2546Y-4.7702
X6.2618Y-4.563
X6.2776Y-3.872
X6.2953Y-5.0748
X6.39Y-4.855
X6.4075Y-4.5177
X6.4213Y-5.4902
X6.4252Y-5.063
X6.4449Y-4.4587
X6.4665Y-4.6496
X6.5295Y-4.5886
X6.5413Y-3.8366
X6.5413Y-3.874
X6.547Y-4.0924
X6.6531Y-5.2587
X6.6859Y-4.09
X6.9626Y-4.4114
X7.0335Y-2.0551
X7.0945Y-2.6102
X7.3295Y-2.3653
T2
X4.82Y-4.0018
X4.82Y-4.0806
X4.82Y-4.1594
X4.82Y-4.2381
X5.0894Y-4.7721
X5.0894Y-4.8508
X5.0894Y-4.9296
X5.0894Y-5.0084
X6.745Y-4.5324
X6.745Y-4.6112
X6.745Y-4.69
X6.745Y-4.7687
X7.04Y-3.5919
X7.04Y-3.6706
X7.04Y-3.7494
X7.04Y-3.8282
X7.04Y-4.0719
X7.04Y-4.1506
X7.04Y-4.2294
X7.04Y-4.3082
T3
X4.3075Y-5.25
X4.3075Y-5.3484
X5.1844Y-3.6697
X5.1844Y-4.6303
X5.2632Y-3.6697
X5.2632Y-4.6303
X5.3419Y-3.6697
X5.3419Y-4.6303
X5.4207Y-3.6697
X5.4207Y-4.6303
X5.4994Y-3.6697
X5.4994Y-4.6303
X5.5781Y-3.6697
X5.5781Y-4.6303
X5.6569Y-3.6697
X5.6569Y-4.6303
X5.7356Y-3.6697
X5.7356Y-4.6303
X5.8144Y-3.6697
X5.8144Y-4.6303
X5.8931Y-3.6697
X5.8931Y-4.6303
X5.925Y-3.8166
X5.925Y-3.915
X5.9719Y-3.6697
X5.9719Y-4.6303
X6.0506Y-3.6697
X6.0506Y-4.6303
X6.1293Y-3.6697
X6.1293Y-4.6303
X6.2081Y-3.6697
X6.2081Y-4.6303
X6.2868Y-3.6697
X6.2868Y-4.6303
X6.3656Y-3.6697
X6.3656Y-4.6303
T4
X5.46Y-3.89
X5.66Y-3.89
T5
X6.0725Y-5.7
X6.1525Y-5.27
X6.1775Y-5.7
X6.2025Y-5.17
X6.2525Y-5.27
X6.3025Y-5.17
X6.3525Y-5.27
X6.4025Y-5.17
X6.4525Y-5.27
X6.4775Y-5.7
X6.5025Y-5.17
X6.5825Y-5.7
T6
X4.2541Y-2.2591
X4.3041Y-2.1591
X4.3541Y-2.2591
X4.4041Y-2.1591
X4.4541Y-2.2591
X4.5041Y-2.1591
X4.5541Y-2.2591
X4.6041Y-2.1591
X4.855Y-5.2879
X4.905Y-5.1879
X4.955Y-5.2879
X5.005Y-5.1879
X5.055Y-5.2879
X5.105Y-5.1879
X5.155Y-5.2879
X5.205Y-5.1879
X5.4431Y-2.5701
X5.465Y-5.2879
X5.4931Y-2.4701
X5.515Y-5.1879
X5.5431Y-2.5701
X5.565Y-5.2879
X5.5931Y-2.4701
X5.615Y-5.1879
X5.6431Y-2.5701
X5.665Y-5.2879
X5.6931Y-2.4701
X5.715Y-5.1879
X5.7431Y-2.5701
X5.765Y-5.2879
X5.7931Y-2.4701
X5.815Y-5.1879
X6.0533Y-2.5701
X6.1033Y-2.4701
X6.1533Y-2.5701
X6.2033Y-2.4701
X6.2533Y-2.5701
X6.3033Y-2.4701
X6.3533Y-2.5701
X6.4033Y-2.4701
X6.7835Y-2.126
X7.0945Y-2.4902
X7.4587Y-2.1693
X7.4587Y-2.3386
X7.4587Y-2.437
X7.5571Y-2.1693
X7.5571Y-2.252
X7.5571Y-2.3543
X7.5571Y-2.437
T7
X4.06Y-3.87
X4.16Y-3.87
X4.26Y-3.87
X5.255Y-5.0575
X6.7835Y-2.2244
X6.7835Y-2.3917
X6.7835Y-2.4902
X6.8484Y-2.126
X6.8602Y-2.2244
X6.8602Y-2.3917
X6.872Y-2.4902
X6.9272Y-2.126
X6.939Y-2.2244
X6.939Y-2.3917
X6.9508Y-2.4902
X7.0059Y-2.126
X7.0177Y-2.2244
X7.0177Y-2.3917
X7.0295Y-2.4902
X7.0945Y-2.126
X7.0945Y-2.2244
X7.0945Y-2.3917
T8
X4.41Y-3.6
X4.51Y-3.6
X4.62Y-3.6
X4.72Y-3.6
X4.82Y-3.6
X4.92Y-3.6
T9
X4.055Y-4.63
X4.055Y-4.73
X4.055Y-4.83
X4.055Y-4.93
X4.06Y-3.7
X4.16Y-3.7
X4.1831Y-2.7067
X4.2Y-4.63
X4.2Y-4.73
X4.2Y-4.83
X4.2Y-4.93
X4.26Y-3.7
X4.2831Y-2.7067
X4.3831Y-2.7067
X4.4335Y-5.1358
X4.4831Y-2.7067
X4.5335Y-5.1358
X4.5831Y-2.7067
X4.6335Y-5.1358
X4.6831Y-2.7067
X4.75Y-4.5
X4.75Y-4.6
X4.835Y-2.155
X4.835Y-2.255
X4.845Y-4.76
X4.845Y-4.86
X4.845Y-4.96
X5.1Y-3.55
X5.2Y-3.55
X5.205Y-2.202
X5.205Y-2.302
X5.205Y-2.402
X5.205Y-2.502
X5.3Y-3.55
X5.3661Y-5.0453
X5.372Y-4.83
X5.372Y-4.93
X5.4Y-3.55
X5.4661Y-5.0453
X5.5Y-3.55
X5.6Y-3.55
X5.7Y-3.55
X5.8Y-3.55
X5.868Y-4.84
X5.9Y-3.55
X6.0375Y-5.375
X6.045Y-3.545
X6.2Y-3.55
X6.3Y-3.55
X6.4Y-3.55
X6.5Y-3.55
X6.6Y-3.55
X6.6175Y-5.375
X6.7Y-3.55
X7.065Y-4.5
X7.065Y-4.6
X7.065Y-4.7
X7.065Y-4.8
X7.065Y-4.9
X7.065Y-5.
X7.44Y-1.95
X7.54Y-1.95
T10
X4.4409Y-2.4311
X4.4409Y-2.5689
T11
X4.124Y-2.0295
X4.7249Y-5.4174
X4.7343Y-2.0295
X5.313Y-2.3406
X5.3351Y-5.4174
X5.9232Y-2.3406
X5.9232Y-2.3406
X5.9451Y-5.4174
X6.5335Y-2.3406
T12
X6.6535Y-2.0079
X6.6535Y-2.6083
X7.2244Y-2.0079
X7.2244Y-2.6083
X7.6752Y-2.0374
X7.6752Y-2.5689
T13
X6.1025Y-5.51
X6.5525Y-5.51
T14
X6.939Y-1.9764
X6.939Y-2.6398
X7.7067Y-2.3031
T15
X4.0354Y-1.9094
X4.0354Y-2.6969
X4.2126Y-5.1181
X4.252Y-3.5433
X4.8228Y-1.9094
X4.8228Y-2.6969
X5.1378Y-1.9094
X5.1378Y-2.6969
X6.8504Y-3.5433
X6.8504Y-5.1181
X7.7756Y-1.9094
X7.7756Y-2.6969
T0
M30
