M48
;DRILL file {KiCad 4.0.2+dfsg1-stable} date Di 21 Feb 2017 01:47:18 CET
;FORMAT={2:4/ absolute / inch / keep zeros}
FMAT,2
INCH,TZ
T1C0.016
T2C0.028
T3C0.031
T4C0.032
T5C0.034
T6C0.035
T7C0.039
T8C0.039
T9C0.040
T10C0.047
T11C0.063
T12C0.087
T13C0.090
T14C0.098
T15C0.120
%
G90
G05
M72
T1
X042500Y-020300
X042854Y-047106
X042854Y-048465
X042854Y-049173
X043740Y-039409
X044055Y-048245
X045157Y-039272
X045346Y-048055
X045425Y-052300
X045795Y-049009
X046050Y-020300
X046122Y-043445
X046398Y-049134
X047362Y-048661
X047461Y-050571
X047677Y-048760
X047756Y-038425
X047874Y-050709
X048720Y-042756
X049193Y-041614
X049370Y-045984
X049409Y-044449
X049429Y-042303
X049528Y-046850
X049612Y-038215
X049665Y-047382
X049687Y-050847
X049705Y-043445
X049884Y-045965
X050020Y-050551
X050157Y-042421
X050315Y-041319
X050413Y-042678
X050866Y-039154
X050948Y-045062
X051004Y-044587
X051275Y-038381
X051437Y-041909
X051553Y-038561
X051634Y-040531
X051890Y-045081
X051924Y-039209
X052205Y-048366
X052269Y-042661
X052298Y-039386
X052609Y-047845
X053042Y-039406
X053174Y-039692
X053346Y-041201
X053406Y-038307
X053642Y-047106
X053937Y-041634
X054002Y-042790
X054183Y-042533
X054483Y-042966
X054526Y-041627
X054803Y-045255
X054839Y-043136
X055235Y-041030
X055384Y-042199
X055432Y-050040
X055442Y-041890
X055806Y-050085
X055886Y-041504
X055892Y-034346
X055942Y-043452
X056115Y-041276
X056220Y-049291
X056378Y-047620
X056398Y-044823
X056537Y-048756
X057008Y-045630
X057067Y-044803
X057243Y-051320
X057500Y-035118
X057520Y-043450
X057564Y-047291
X057579Y-049429
X057618Y-040965
X057657Y-044840
X058130Y-039587
X058150Y-037894
X058415Y-039721
X058445Y-043504
X058464Y-034863
X058504Y-045827
X058642Y-047677
X058650Y-037625
X058878Y-045118
X058898Y-039938
X058898Y-041063
X058917Y-051339
X059173Y-050000
X059567Y-037486
X059724Y-037933
X060000Y-050748
X060650Y-049540
X060670Y-038020
X061102Y-053760
X061160Y-047420
X061193Y-042599
X061350Y-044400
X061550Y-049540
X062028Y-042421
X062100Y-044400
X062357Y-043052
X062370Y-049550
X062421Y-054882
X062432Y-043358
X062546Y-047702
X062618Y-045630
X062776Y-038720
X062953Y-050748
X063900Y-048550
X064075Y-045177
X064213Y-054902
X064252Y-050630
X064449Y-044587
X064665Y-046496
X065295Y-045886
X065413Y-038366
X065413Y-038740
X065470Y-040924
X066531Y-052587
X066859Y-040900
X069626Y-044114
X070335Y-020551
X070945Y-026102
X073295Y-023653
T2
X048200Y-040018
X048200Y-040806
X048200Y-041594
X048200Y-042381
X050894Y-047721
X050894Y-048508
X050894Y-049296
X050894Y-050084
X067450Y-045324
X067450Y-046112
X067450Y-046900
X067450Y-047687
X070400Y-035919
X070400Y-036706
X070400Y-037494
X070400Y-038282
X070400Y-040719
X070400Y-041506
X070400Y-042294
X070400Y-043082
T3
X043075Y-052500
X043075Y-053484
X051844Y-036697
X051844Y-046303
X052632Y-036697
X052632Y-046303
X053419Y-036697
X053419Y-046303
X054207Y-036697
X054207Y-046303
X054994Y-036697
X054994Y-046303
X055781Y-036697
X055781Y-046303
X056569Y-036697
X056569Y-046303
X057356Y-036697
X057356Y-046303
X058144Y-036697
X058144Y-046303
X058931Y-036697
X058931Y-046303
X059250Y-038166
X059250Y-039150
X059719Y-036697
X059719Y-046303
X060506Y-036697
X060506Y-046303
X061293Y-036697
X061293Y-046303
X062081Y-036697
X062081Y-046303
X062868Y-036697
X062868Y-046303
X063656Y-036697
X063656Y-046303
T4
X054600Y-038900
X056600Y-038900
T5
X060725Y-057000
X061525Y-052700
X061775Y-057000
X062025Y-051700
X062525Y-052700
X063025Y-051700
X063525Y-052700
X064025Y-051700
X064525Y-052700
X064775Y-057000
X065025Y-051700
X065825Y-057000
T6
X042541Y-022591
X043041Y-021591
X043541Y-022591
X044041Y-021591
X044541Y-022591
X045041Y-021591
X045541Y-022591
X046041Y-021591
X048550Y-052879
X049050Y-051879
X049550Y-052879
X050050Y-051879
X050550Y-052879
X051050Y-051879
X051550Y-052879
X052050Y-051879
X054431Y-025701
X054650Y-052879
X054931Y-024701
X055150Y-051879
X055431Y-025701
X055650Y-052879
X055931Y-024701
X056150Y-051879
X056431Y-025701
X056650Y-052879
X056931Y-024701
X057150Y-051879
X057431Y-025701
X057650Y-052879
X057931Y-024701
X058150Y-051879
X060533Y-025701
X061033Y-024701
X061533Y-025701
X062033Y-024701
X062533Y-025701
X063033Y-024701
X063533Y-025701
X064033Y-024701
X067835Y-021260
X070945Y-024902
X074587Y-021693
X074587Y-023386
X074587Y-024370
X075571Y-021693
X075571Y-022520
X075571Y-023543
X075571Y-024370
T7
X040600Y-038700
X041600Y-038700
X042600Y-038700
X052550Y-050575
X067835Y-022244
X067835Y-023917
X067835Y-024902
X068484Y-021260
X068602Y-022244
X068602Y-023917
X068720Y-024902
X069272Y-021260
X069390Y-022244
X069390Y-023917
X069508Y-024902
X070059Y-021260
X070177Y-022244
X070177Y-023917
X070295Y-024902
X070945Y-021260
X070945Y-022244
X070945Y-023917
T8
X044100Y-036000
X045100Y-036000
X046200Y-036000
X047200Y-036000
X048200Y-036000
X049200Y-036000
T9
X040550Y-046300
X040550Y-047300
X040550Y-048300
X040550Y-049300
X040600Y-037000
X041600Y-037000
X041831Y-027067
X042000Y-046300
X042000Y-047300
X042000Y-048300
X042000Y-049300
X042600Y-037000
X042831Y-027067
X043831Y-027067
X044335Y-051358
X044831Y-027067
X045335Y-051358
X045831Y-027067
X046335Y-051358
X046831Y-027067
X047500Y-045000
X047500Y-046000
X048350Y-021550
X048350Y-022550
X048450Y-047600
X048450Y-048600
X048450Y-049600
X051000Y-035500
X052000Y-035500
X052050Y-022020
X052050Y-023020
X052050Y-024020
X052050Y-025020
X053000Y-035500
X053661Y-050453
X053720Y-048300
X053720Y-049300
X054000Y-035500
X054661Y-050453
X055000Y-035500
X056000Y-035500
X057000Y-035500
X058000Y-035500
X058680Y-048400
X059000Y-035500
X060375Y-053750
X060450Y-035450
X062000Y-035500
X063000Y-035500
X064000Y-035500
X065000Y-035500
X066000Y-035500
X066175Y-053750
X067000Y-035500
X070650Y-045000
X070650Y-046000
X070650Y-047000
X070650Y-048000
X070650Y-049000
X070650Y-050000
X074400Y-019500
X075400Y-019500
T10
X044409Y-024311
X044409Y-025689
T11
X041240Y-020295
X047249Y-054174
X047343Y-020295
X053130Y-023406
X053351Y-054174
X059232Y-023406
X059232Y-023406
X059451Y-054174
X065335Y-023406
T12
X066535Y-020079
X066535Y-026083
X072244Y-020079
X072244Y-026083
X076752Y-020374
X076752Y-025689
T13
X061025Y-055100
X065525Y-055100
T14
X069390Y-019764
X069390Y-026398
X077067Y-023031
T15
X040354Y-019094
X040354Y-026969
X042126Y-051181
X042520Y-035433
X048228Y-019094
X048228Y-026969
X051378Y-019094
X051378Y-026969
X068504Y-035433
X068504Y-051181
X077756Y-019094
X077756Y-026969
T0
M30
