M48
;DRILL file {KiCad 4.0.2+dfsg1-stable} date Di 21 Feb 2017 01:47:18 CET
;FORMAT={2:4/ absolute / inch / keep zeros}
FMAT,2
INCH,TZ
T1C0.030
T2C0.128
%
G90
G05
M72
T1
X044882Y-028150
X044882Y-028937
X045276Y-028150
X045276Y-028937
X045669Y-028150
X045669Y-028937
X046063Y-028150
X046063Y-028150
X046063Y-028150
X046063Y-028937
X046063Y-028937
X046063Y-028937
X046457Y-028150
X046457Y-028937
X046850Y-028150
X046850Y-028937
X047244Y-028150
X047244Y-028937
X049409Y-021850
X049409Y-022244
X049409Y-022638
X049409Y-023031
X049409Y-023031
X049409Y-023031
X049409Y-023425
X049409Y-023819
X049409Y-024213
X050197Y-021850
X050197Y-022244
X050197Y-022638
X050197Y-023031
X050197Y-023031
X050197Y-023031
X050197Y-023425
X050197Y-023819
X050197Y-024213
X063780Y-028150
X063780Y-028937
X064173Y-028150
X064173Y-028937
X064567Y-028150
X064567Y-028937
X064961Y-028150
X064961Y-028150
X064961Y-028150
X064961Y-028937
X064961Y-028937
X064961Y-028937
X065354Y-028150
X065354Y-028937
X065748Y-028150
X065748Y-028937
X066142Y-028150
X066142Y-028937
T2
X042041Y-019094
X046541Y-019094
X048050Y-055375
X052550Y-055375
X053931Y-022205
X054150Y-055375
X058431Y-022205
X058650Y-055375
X060033Y-022205
X064533Y-022205
T0
M30
