G04 #@! TF.GenerationSoftware,KiCad,Pcbnew,5.0.2-bee76a0~70~ubuntu18.04.1*
G04 #@! TF.CreationDate,2019-02-08T19:21:51+01:00*
G04 #@! TF.ProjectId,BPi-CAN,4250692d-4341-44e2-9e6b-696361645f70,rev?*
G04 #@! TF.SameCoordinates,Original*
G04 #@! TF.FileFunction,Legend,Bot*
G04 #@! TF.FilePolarity,Positive*
%FSLAX46Y46*%
G04 Gerber Fmt 4.6, Leading zero omitted, Abs format (unit mm)*
G04 Created by KiCad (PCBNEW 5.0.2-bee76a0~70~ubuntu18.04.1) date Fr 08 Feb 2019 19:21:51 CET*
%MOMM*%
%LPD*%
G01*
G04 APERTURE LIST*
%ADD10C,0.150000*%
%ADD11C,0.381000*%
%ADD12C,0.127000*%
%ADD13C,0.285750*%
%ADD14C,0.287020*%
%ADD15C,0.099060*%
G04 APERTURE END LIST*
D10*
X176000000Y-58500000D02*
X176000000Y-55500000D01*
X176000000Y-69500000D02*
X176000000Y-65750000D01*
X179000000Y-65750000D02*
X179000000Y-78250000D01*
X176000000Y-58500000D02*
G75*
G03X177500000Y-60000000I1500000J0D01*
G01*
X179000000Y-65750000D02*
G75*
G03X177500000Y-64250000I-1500000J0D01*
G01*
X177500000Y-64250000D02*
G75*
G03X176000000Y-65750000I0J-1500000D01*
G01*
X172500000Y-78250000D02*
X172500000Y-72500000D01*
X177500000Y-79750000D02*
X174000000Y-79750000D01*
X174000000Y-84000000D02*
X177500000Y-84000000D01*
X172500000Y-88500000D02*
X172500000Y-85500000D01*
X172500000Y-78250000D02*
G75*
G03X174000000Y-79750000I1500000J0D01*
G01*
X177500000Y-79750000D02*
G75*
G03X179000000Y-78250000I0J1500000D01*
G01*
X174000000Y-84000000D02*
G75*
G03X172500000Y-85500000I0J-1500000D01*
G01*
X179000000Y-85500000D02*
G75*
G03X177500000Y-84000000I-1500000J0D01*
G01*
X177500000Y-60000000D02*
G75*
G03X179000000Y-58500000I0J1500000D01*
G01*
X200000000Y-58500000D02*
X200000000Y-85500000D01*
X180500000Y-57000000D02*
X198500000Y-57000000D01*
X180500000Y-87000000D02*
X198500000Y-87000000D01*
X179000000Y-85500000D02*
G75*
G03X180500000Y-87000000I1500000J0D01*
G01*
X198500000Y-87000000D02*
G75*
G03X200000000Y-85500000I0J1500000D01*
G01*
X200000000Y-58500000D02*
G75*
G03X198500000Y-57000000I-1500000J0D01*
G01*
X180500000Y-57000000D02*
G75*
G03X179000000Y-58500000I0J-1500000D01*
G01*
X148250000Y-100000000D02*
X172500000Y-100000000D01*
X141000000Y-100000000D02*
X114750000Y-100000000D01*
X114750000Y-103000000D02*
X141000000Y-103000000D01*
X142500000Y-101500000D02*
G75*
G03X141000000Y-100000000I-1500000J0D01*
G01*
X141000000Y-103000000D02*
G75*
G03X142500000Y-101500000I0J1500000D01*
G01*
X101500000Y-100000000D02*
X107500000Y-100000000D01*
X101500000Y-103000000D02*
X107500000Y-103000000D01*
X148250000Y-100000000D02*
G75*
G03X146750000Y-101500000I0J-1500000D01*
G01*
X148250000Y-103000000D02*
X158500000Y-103000000D01*
X146750000Y-101500000D02*
G75*
G03X148250000Y-103000000I1500000J0D01*
G01*
X174000000Y-90000000D02*
X190000000Y-90000000D01*
X177500000Y-54000000D02*
X190000000Y-54000000D01*
X174000000Y-71000000D02*
X174500000Y-71000000D01*
X174500000Y-71000000D02*
G75*
G03X176000000Y-69500000I0J1500000D01*
G01*
X174000000Y-71000000D02*
G75*
G03X172500000Y-72500000I0J-1500000D01*
G01*
X161500000Y-119000000D02*
G75*
G03X163000000Y-117500000I0J1500000D01*
G01*
X163000000Y-124500000D02*
G75*
G03X161500000Y-123000000I-1500000J0D01*
G01*
X163000000Y-124500000D02*
X163000000Y-138500000D01*
X163000000Y-104500000D02*
X163000000Y-117500000D01*
X160000000Y-124500000D02*
X160000000Y-138500000D01*
X160000000Y-104500000D02*
X160000000Y-117500000D01*
X161500000Y-123000000D02*
G75*
G03X160000000Y-124500000I0J-1500000D01*
G01*
X160000000Y-117500000D02*
G75*
G03X161500000Y-119000000I1500000J0D01*
G01*
X164500000Y-103000000D02*
X172500000Y-103000000D01*
X164500000Y-140000000D02*
X198500000Y-140000000D01*
X163000000Y-138500000D02*
G75*
G03X164500000Y-140000000I1500000J0D01*
G01*
X158500000Y-140000000D02*
G75*
G03X160000000Y-138500000I0J1500000D01*
G01*
X164500000Y-103000000D02*
G75*
G03X163000000Y-104500000I0J-1500000D01*
G01*
X160000000Y-104500000D02*
G75*
G03X158500000Y-103000000I-1500000J0D01*
G01*
X113250000Y-101500000D02*
G75*
G03X114750000Y-103000000I1500000J0D01*
G01*
X114750000Y-100000000D02*
G75*
G03X113250000Y-101500000I0J-1500000D01*
G01*
X174000000Y-101500000D02*
G75*
G03X172500000Y-100000000I-1500000J0D01*
G01*
X172500000Y-103000000D02*
G75*
G03X174000000Y-101500000I0J1500000D01*
G01*
X178000000Y-101500000D02*
G75*
G03X179500000Y-103000000I1500000J0D01*
G01*
X179500000Y-100000000D02*
G75*
G03X178000000Y-101500000I0J-1500000D01*
G01*
X190000000Y-100000000D02*
X179500000Y-100000000D01*
X198500000Y-103000000D02*
X179500000Y-103000000D01*
X107500000Y-103000000D02*
G75*
G03X109000000Y-101500000I0J1500000D01*
G01*
X109000000Y-101500000D02*
G75*
G03X107500000Y-100000000I-1500000J0D01*
G01*
X198500000Y-140000000D02*
G75*
G03X200000000Y-138500000I0J1500000D01*
G01*
X200000000Y-104500000D02*
G75*
G03X198500000Y-103000000I-1500000J0D01*
G01*
X101500000Y-103000000D02*
G75*
G03X100000000Y-104500000I0J-1500000D01*
G01*
X100000000Y-138500000D02*
G75*
G03X101500000Y-140000000I1500000J0D01*
G01*
X100000000Y-104500000D02*
X100000000Y-138500000D01*
X200000000Y-104500000D02*
X200000000Y-138500000D01*
X101500000Y-140000000D02*
X158500000Y-140000000D01*
X191500000Y-91500000D02*
G75*
G03X190000000Y-90000000I-1500000J0D01*
G01*
X172500000Y-88500000D02*
G75*
G03X174000000Y-90000000I1500000J0D01*
G01*
X177500000Y-54000000D02*
G75*
G03X176000000Y-55500000I0J-1500000D01*
G01*
X190000000Y-54000000D02*
G75*
G03X191500000Y-52500000I0J1500000D01*
G01*
X191500000Y-41500000D02*
X191500000Y-52500000D01*
X143000000Y-41500000D02*
G75*
G03X141500000Y-40000000I-1500000J0D01*
G01*
X156500000Y-40000000D02*
G75*
G03X155000000Y-41500000I0J-1500000D01*
G01*
X153500000Y-51500000D02*
G75*
G03X155000000Y-50000000I0J1500000D01*
G01*
X143000000Y-50000000D02*
G75*
G03X144500000Y-51500000I1500000J0D01*
G01*
X144500000Y-51500000D02*
X153500000Y-51500000D01*
X143000000Y-41500000D02*
X143000000Y-50000000D01*
X155000000Y-41500000D02*
X155000000Y-50000000D01*
X190000000Y-40000000D02*
X156500000Y-40000000D01*
X100000000Y-41500000D02*
X100000000Y-98500000D01*
X191500000Y-91500000D02*
X191500000Y-98500000D01*
X191500000Y-41500000D02*
G75*
G03X190000000Y-40000000I-1500000J0D01*
G01*
X190000000Y-100000000D02*
G75*
G03X191500000Y-98500000I0J1500000D01*
G01*
X100000000Y-98500000D02*
G75*
G03X101500000Y-100000000I1500000J0D01*
G01*
X101500000Y-40000000D02*
G75*
G03X100000000Y-41500000I0J-1500000D01*
G01*
X101500000Y-40000000D02*
X141500000Y-40000000D01*
G04 #@! TO.C,P3*
X117373400Y-52654200D02*
X124993400Y-52654200D01*
X124993400Y-52654200D02*
X124993400Y-47574200D01*
X124993400Y-47574200D02*
X114833400Y-47574200D01*
X114833400Y-47574200D02*
X114833400Y-50114200D01*
X116103400Y-52934200D02*
X114553400Y-52934200D01*
X114833400Y-50114200D02*
X117373400Y-50114200D01*
X117373400Y-50114200D02*
X117373400Y-52654200D01*
X114553400Y-52934200D02*
X114553400Y-51384200D01*
G04 #@! TO.C,P1*
X107213400Y-41402000D02*
X140233400Y-41402000D01*
X109753400Y-46482000D02*
X140233400Y-46482000D01*
X140233400Y-41402000D02*
X140233400Y-46482000D01*
X107213400Y-41402000D02*
X107213400Y-43942000D01*
X108483400Y-46762000D02*
X106933400Y-46762000D01*
X107213400Y-43942000D02*
X109753400Y-43942000D01*
X109753400Y-43942000D02*
X109753400Y-46482000D01*
X106933400Y-46762000D02*
X106933400Y-45212000D01*
G04 #@! TO.C,P4*
X124713400Y-47294200D02*
X126263400Y-47294200D01*
X130073400Y-47574200D02*
X127533400Y-47574200D01*
X127533400Y-47574200D02*
X127533400Y-50114200D01*
X126263400Y-50394200D02*
X124713400Y-50394200D01*
X124713400Y-50394200D02*
X124713400Y-47294200D01*
X127533400Y-50114200D02*
X130073400Y-50114200D01*
X130073400Y-50114200D02*
X130073400Y-47574200D01*
D11*
G04 #@! TO.C,U12*
X156153000Y-63698000D02*
G75*
G03X156153000Y-63698000I-800000J0D01*
G01*
X160853000Y-65298000D02*
X153853000Y-65298000D01*
X153853000Y-65298000D02*
X153853000Y-55098000D01*
X153853000Y-55098000D02*
X160853000Y-55098000D01*
X160853000Y-55098000D02*
X160853000Y-65298000D01*
D12*
G04 #@! TO.C,U13*
X101155500Y-53657500D02*
X106108500Y-53657500D01*
X106108500Y-53657500D02*
X106108500Y-57594500D01*
X106108500Y-57594500D02*
X101155500Y-57594500D01*
X101155500Y-57594500D02*
X101155500Y-53657500D01*
X102074481Y-54292500D02*
G75*
G03X102074481Y-54292500I-283981J0D01*
G01*
D10*
G04 #@! TO.C,C22*
X109255000Y-59803000D02*
X110455000Y-59803000D01*
X110455000Y-58053000D02*
X109255000Y-58053000D01*
G04 #@! TO.C,F1*
X109318500Y-62025500D02*
X110518500Y-62025500D01*
X110518500Y-60275500D02*
X109318500Y-60275500D01*
G04 #@! TO.C,C26*
X104316500Y-62449000D02*
X104316500Y-61249000D01*
X102566500Y-61249000D02*
X102566500Y-62449000D01*
G04 #@! TO.C,C25*
X102284500Y-62449000D02*
X102284500Y-61249000D01*
X100534500Y-61249000D02*
X100534500Y-62449000D01*
G04 #@! TO.C,R16*
X111901000Y-57185000D02*
X111901000Y-58385000D01*
X113651000Y-58385000D02*
X113651000Y-57185000D01*
G04 #@! TO.C,C23*
X107872500Y-56226000D02*
X107872500Y-55026000D01*
X106122500Y-55026000D02*
X106122500Y-56226000D01*
G04 #@! TO.C,R17*
X109693000Y-51258500D02*
X108493000Y-51258500D01*
X108493000Y-53008500D02*
X109693000Y-53008500D01*
G04 #@! TO.C,C20*
X101741000Y-48502000D02*
X101741000Y-49702000D01*
X103491000Y-49702000D02*
X103491000Y-48502000D01*
G04 #@! TO.C,C24*
X113587500Y-53749500D02*
X113587500Y-52549500D01*
X111837500Y-52549500D02*
X111837500Y-53749500D01*
G04 #@! TO.C,R19*
X110556600Y-65393600D02*
X109356600Y-65393600D01*
X109356600Y-67143600D02*
X110556600Y-67143600D01*
G04 #@! TO.C,R18*
X110607400Y-63158400D02*
X109407400Y-63158400D01*
X109407400Y-64908400D02*
X110607400Y-64908400D01*
G04 #@! TD*
G04 #@! TO.C,P3*
X114022095Y-50109380D02*
X114022095Y-49109380D01*
X113641142Y-49109380D01*
X113545904Y-49157000D01*
X113498285Y-49204619D01*
X113450666Y-49299857D01*
X113450666Y-49442714D01*
X113498285Y-49537952D01*
X113545904Y-49585571D01*
X113641142Y-49633190D01*
X114022095Y-49633190D01*
X113117333Y-49109380D02*
X112498285Y-49109380D01*
X112831619Y-49490333D01*
X112688761Y-49490333D01*
X112593523Y-49537952D01*
X112545904Y-49585571D01*
X112498285Y-49680809D01*
X112498285Y-49918904D01*
X112545904Y-50014142D01*
X112593523Y-50061761D01*
X112688761Y-50109380D01*
X112974476Y-50109380D01*
X113069714Y-50061761D01*
X113117333Y-50014142D01*
G04 #@! TO.C,P1*
X106363995Y-47251880D02*
X106363995Y-46251880D01*
X105983042Y-46251880D01*
X105887804Y-46299500D01*
X105840185Y-46347119D01*
X105792566Y-46442357D01*
X105792566Y-46585214D01*
X105840185Y-46680452D01*
X105887804Y-46728071D01*
X105983042Y-46775690D01*
X106363995Y-46775690D01*
X104840185Y-47251880D02*
X105411614Y-47251880D01*
X105125900Y-47251880D02*
X105125900Y-46251880D01*
X105221138Y-46394738D01*
X105316376Y-46489976D01*
X105411614Y-46537595D01*
G04 #@! TO.C,P4*
X128373095Y-51379380D02*
X128373095Y-50379380D01*
X127992142Y-50379380D01*
X127896904Y-50427000D01*
X127849285Y-50474619D01*
X127801666Y-50569857D01*
X127801666Y-50712714D01*
X127849285Y-50807952D01*
X127896904Y-50855571D01*
X127992142Y-50903190D01*
X128373095Y-50903190D01*
X126944523Y-50712714D02*
X126944523Y-51379380D01*
X127182619Y-50331761D02*
X127420714Y-51046047D01*
X126801666Y-51046047D01*
G04 #@! TO.C,U12*
D13*
X159174542Y-53115028D02*
X159174542Y-54348742D01*
X159120114Y-54493885D01*
X159065685Y-54566457D01*
X158956828Y-54639028D01*
X158739114Y-54639028D01*
X158630257Y-54566457D01*
X158575828Y-54493885D01*
X158521400Y-54348742D01*
X158521400Y-53115028D01*
X157378400Y-54639028D02*
X158031542Y-54639028D01*
X157704971Y-54639028D02*
X157704971Y-53115028D01*
X157813828Y-53332742D01*
X157922685Y-53477885D01*
X158031542Y-53550457D01*
X156942971Y-53260171D02*
X156888542Y-53187600D01*
X156779685Y-53115028D01*
X156507542Y-53115028D01*
X156398685Y-53187600D01*
X156344257Y-53260171D01*
X156289828Y-53405314D01*
X156289828Y-53550457D01*
X156344257Y-53768171D01*
X156997400Y-54639028D01*
X156289828Y-54639028D01*
D14*
G04 #@! TO.C,U13*
D15*
X104251518Y-54843982D02*
X104251518Y-55249051D01*
X104227690Y-55296707D01*
X104203862Y-55320534D01*
X104156207Y-55344362D01*
X104060897Y-55344362D01*
X104013241Y-55320534D01*
X103989414Y-55296707D01*
X103965586Y-55249051D01*
X103965586Y-54843982D01*
X103465206Y-55344362D02*
X103751138Y-55344362D01*
X103608172Y-55344362D02*
X103608172Y-54843982D01*
X103655827Y-54915465D01*
X103703482Y-54963120D01*
X103751138Y-54986948D01*
X103298413Y-54843982D02*
X102988654Y-54843982D01*
X103155447Y-55034603D01*
X103083964Y-55034603D01*
X103036309Y-55058430D01*
X103012481Y-55082258D01*
X102988654Y-55129913D01*
X102988654Y-55249051D01*
X103012481Y-55296707D01*
X103036309Y-55320534D01*
X103083964Y-55344362D01*
X103226930Y-55344362D01*
X103274585Y-55320534D01*
X103298413Y-55296707D01*
G04 #@! TO.C,C22*
D10*
X114625357Y-60745642D02*
X114672976Y-60793261D01*
X114815833Y-60840880D01*
X114911071Y-60840880D01*
X115053928Y-60793261D01*
X115149166Y-60698023D01*
X115196785Y-60602785D01*
X115244404Y-60412309D01*
X115244404Y-60269452D01*
X115196785Y-60078976D01*
X115149166Y-59983738D01*
X115053928Y-59888500D01*
X114911071Y-59840880D01*
X114815833Y-59840880D01*
X114672976Y-59888500D01*
X114625357Y-59936119D01*
X114244404Y-59936119D02*
X114196785Y-59888500D01*
X114101547Y-59840880D01*
X113863452Y-59840880D01*
X113768214Y-59888500D01*
X113720595Y-59936119D01*
X113672976Y-60031357D01*
X113672976Y-60126595D01*
X113720595Y-60269452D01*
X114292023Y-60840880D01*
X113672976Y-60840880D01*
X113292023Y-59936119D02*
X113244404Y-59888500D01*
X113149166Y-59840880D01*
X112911071Y-59840880D01*
X112815833Y-59888500D01*
X112768214Y-59936119D01*
X112720595Y-60031357D01*
X112720595Y-60126595D01*
X112768214Y-60269452D01*
X113339642Y-60840880D01*
X112720595Y-60840880D01*
G04 #@! TO.C,F1*
X113045833Y-61587071D02*
X113379166Y-61587071D01*
X113379166Y-62110880D02*
X113379166Y-61110880D01*
X112902976Y-61110880D01*
X111998214Y-62110880D02*
X112569642Y-62110880D01*
X112283928Y-62110880D02*
X112283928Y-61110880D01*
X112379166Y-61253738D01*
X112474404Y-61348976D01*
X112569642Y-61396595D01*
G04 #@! TO.C,C26*
X104052642Y-64508142D02*
X104100261Y-64460523D01*
X104147880Y-64317666D01*
X104147880Y-64222428D01*
X104100261Y-64079571D01*
X104005023Y-63984333D01*
X103909785Y-63936714D01*
X103719309Y-63889095D01*
X103576452Y-63889095D01*
X103385976Y-63936714D01*
X103290738Y-63984333D01*
X103195500Y-64079571D01*
X103147880Y-64222428D01*
X103147880Y-64317666D01*
X103195500Y-64460523D01*
X103243119Y-64508142D01*
X103243119Y-64889095D02*
X103195500Y-64936714D01*
X103147880Y-65031952D01*
X103147880Y-65270047D01*
X103195500Y-65365285D01*
X103243119Y-65412904D01*
X103338357Y-65460523D01*
X103433595Y-65460523D01*
X103576452Y-65412904D01*
X104147880Y-64841476D01*
X104147880Y-65460523D01*
X103147880Y-66317666D02*
X103147880Y-66127190D01*
X103195500Y-66031952D01*
X103243119Y-65984333D01*
X103385976Y-65889095D01*
X103576452Y-65841476D01*
X103957404Y-65841476D01*
X104052642Y-65889095D01*
X104100261Y-65936714D01*
X104147880Y-66031952D01*
X104147880Y-66222428D01*
X104100261Y-66317666D01*
X104052642Y-66365285D01*
X103957404Y-66412904D01*
X103719309Y-66412904D01*
X103624071Y-66365285D01*
X103576452Y-66317666D01*
X103528833Y-66222428D01*
X103528833Y-66031952D01*
X103576452Y-65936714D01*
X103624071Y-65889095D01*
X103719309Y-65841476D01*
G04 #@! TO.C,C25*
X101004642Y-58031142D02*
X101052261Y-57983523D01*
X101099880Y-57840666D01*
X101099880Y-57745428D01*
X101052261Y-57602571D01*
X100957023Y-57507333D01*
X100861785Y-57459714D01*
X100671309Y-57412095D01*
X100528452Y-57412095D01*
X100337976Y-57459714D01*
X100242738Y-57507333D01*
X100147500Y-57602571D01*
X100099880Y-57745428D01*
X100099880Y-57840666D01*
X100147500Y-57983523D01*
X100195119Y-58031142D01*
X100195119Y-58412095D02*
X100147500Y-58459714D01*
X100099880Y-58554952D01*
X100099880Y-58793047D01*
X100147500Y-58888285D01*
X100195119Y-58935904D01*
X100290357Y-58983523D01*
X100385595Y-58983523D01*
X100528452Y-58935904D01*
X101099880Y-58364476D01*
X101099880Y-58983523D01*
X100099880Y-59888285D02*
X100099880Y-59412095D01*
X100576071Y-59364476D01*
X100528452Y-59412095D01*
X100480833Y-59507333D01*
X100480833Y-59745428D01*
X100528452Y-59840666D01*
X100576071Y-59888285D01*
X100671309Y-59935904D01*
X100909404Y-59935904D01*
X101004642Y-59888285D01*
X101052261Y-59840666D01*
X101099880Y-59745428D01*
X101099880Y-59507333D01*
X101052261Y-59412095D01*
X101004642Y-59364476D01*
G04 #@! TO.C,R16*
X115328380Y-57142142D02*
X114852190Y-56808809D01*
X115328380Y-56570714D02*
X114328380Y-56570714D01*
X114328380Y-56951666D01*
X114376000Y-57046904D01*
X114423619Y-57094523D01*
X114518857Y-57142142D01*
X114661714Y-57142142D01*
X114756952Y-57094523D01*
X114804571Y-57046904D01*
X114852190Y-56951666D01*
X114852190Y-56570714D01*
X115328380Y-58094523D02*
X115328380Y-57523095D01*
X115328380Y-57808809D02*
X114328380Y-57808809D01*
X114471238Y-57713571D01*
X114566476Y-57618333D01*
X114614095Y-57523095D01*
X114328380Y-58951666D02*
X114328380Y-58761190D01*
X114376000Y-58665952D01*
X114423619Y-58618333D01*
X114566476Y-58523095D01*
X114756952Y-58475476D01*
X115137904Y-58475476D01*
X115233142Y-58523095D01*
X115280761Y-58570714D01*
X115328380Y-58665952D01*
X115328380Y-58856428D01*
X115280761Y-58951666D01*
X115233142Y-58999285D01*
X115137904Y-59046904D01*
X114899809Y-59046904D01*
X114804571Y-58999285D01*
X114756952Y-58951666D01*
X114709333Y-58856428D01*
X114709333Y-58665952D01*
X114756952Y-58570714D01*
X114804571Y-58523095D01*
X114899809Y-58475476D01*
G04 #@! TO.C,C23*
X107227642Y-51998642D02*
X107275261Y-51951023D01*
X107322880Y-51808166D01*
X107322880Y-51712928D01*
X107275261Y-51570071D01*
X107180023Y-51474833D01*
X107084785Y-51427214D01*
X106894309Y-51379595D01*
X106751452Y-51379595D01*
X106560976Y-51427214D01*
X106465738Y-51474833D01*
X106370500Y-51570071D01*
X106322880Y-51712928D01*
X106322880Y-51808166D01*
X106370500Y-51951023D01*
X106418119Y-51998642D01*
X106418119Y-52379595D02*
X106370500Y-52427214D01*
X106322880Y-52522452D01*
X106322880Y-52760547D01*
X106370500Y-52855785D01*
X106418119Y-52903404D01*
X106513357Y-52951023D01*
X106608595Y-52951023D01*
X106751452Y-52903404D01*
X107322880Y-52331976D01*
X107322880Y-52951023D01*
X106322880Y-53284357D02*
X106322880Y-53903404D01*
X106703833Y-53570071D01*
X106703833Y-53712928D01*
X106751452Y-53808166D01*
X106799071Y-53855785D01*
X106894309Y-53903404D01*
X107132404Y-53903404D01*
X107227642Y-53855785D01*
X107275261Y-53808166D01*
X107322880Y-53712928D01*
X107322880Y-53427214D01*
X107275261Y-53331976D01*
X107227642Y-53284357D01*
G04 #@! TO.C,R17*
X109989857Y-50934880D02*
X110323190Y-50458690D01*
X110561285Y-50934880D02*
X110561285Y-49934880D01*
X110180333Y-49934880D01*
X110085095Y-49982500D01*
X110037476Y-50030119D01*
X109989857Y-50125357D01*
X109989857Y-50268214D01*
X110037476Y-50363452D01*
X110085095Y-50411071D01*
X110180333Y-50458690D01*
X110561285Y-50458690D01*
X109037476Y-50934880D02*
X109608904Y-50934880D01*
X109323190Y-50934880D02*
X109323190Y-49934880D01*
X109418428Y-50077738D01*
X109513666Y-50172976D01*
X109608904Y-50220595D01*
X108704142Y-49934880D02*
X108037476Y-49934880D01*
X108466047Y-50934880D01*
G04 #@! TO.C,C20*
X101322142Y-48379142D02*
X101369761Y-48331523D01*
X101417380Y-48188666D01*
X101417380Y-48093428D01*
X101369761Y-47950571D01*
X101274523Y-47855333D01*
X101179285Y-47807714D01*
X100988809Y-47760095D01*
X100845952Y-47760095D01*
X100655476Y-47807714D01*
X100560238Y-47855333D01*
X100465000Y-47950571D01*
X100417380Y-48093428D01*
X100417380Y-48188666D01*
X100465000Y-48331523D01*
X100512619Y-48379142D01*
X100512619Y-48760095D02*
X100465000Y-48807714D01*
X100417380Y-48902952D01*
X100417380Y-49141047D01*
X100465000Y-49236285D01*
X100512619Y-49283904D01*
X100607857Y-49331523D01*
X100703095Y-49331523D01*
X100845952Y-49283904D01*
X101417380Y-48712476D01*
X101417380Y-49331523D01*
X100417380Y-49950571D02*
X100417380Y-50045809D01*
X100465000Y-50141047D01*
X100512619Y-50188666D01*
X100607857Y-50236285D01*
X100798333Y-50283904D01*
X101036428Y-50283904D01*
X101226904Y-50236285D01*
X101322142Y-50188666D01*
X101369761Y-50141047D01*
X101417380Y-50045809D01*
X101417380Y-49950571D01*
X101369761Y-49855333D01*
X101322142Y-49807714D01*
X101226904Y-49760095D01*
X101036428Y-49712476D01*
X100798333Y-49712476D01*
X100607857Y-49760095D01*
X100512619Y-49807714D01*
X100465000Y-49855333D01*
X100417380Y-49950571D01*
G04 #@! TO.C,C24*
X114911142Y-53776642D02*
X114958761Y-53729023D01*
X115006380Y-53586166D01*
X115006380Y-53490928D01*
X114958761Y-53348071D01*
X114863523Y-53252833D01*
X114768285Y-53205214D01*
X114577809Y-53157595D01*
X114434952Y-53157595D01*
X114244476Y-53205214D01*
X114149238Y-53252833D01*
X114054000Y-53348071D01*
X114006380Y-53490928D01*
X114006380Y-53586166D01*
X114054000Y-53729023D01*
X114101619Y-53776642D01*
X114101619Y-54157595D02*
X114054000Y-54205214D01*
X114006380Y-54300452D01*
X114006380Y-54538547D01*
X114054000Y-54633785D01*
X114101619Y-54681404D01*
X114196857Y-54729023D01*
X114292095Y-54729023D01*
X114434952Y-54681404D01*
X115006380Y-54109976D01*
X115006380Y-54729023D01*
X114339714Y-55586166D02*
X115006380Y-55586166D01*
X113958761Y-55348071D02*
X114673047Y-55109976D01*
X114673047Y-55729023D01*
G04 #@! TO.C,R19*
X114917457Y-66657480D02*
X115250790Y-66181290D01*
X115488885Y-66657480D02*
X115488885Y-65657480D01*
X115107933Y-65657480D01*
X115012695Y-65705100D01*
X114965076Y-65752719D01*
X114917457Y-65847957D01*
X114917457Y-65990814D01*
X114965076Y-66086052D01*
X115012695Y-66133671D01*
X115107933Y-66181290D01*
X115488885Y-66181290D01*
X113965076Y-66657480D02*
X114536504Y-66657480D01*
X114250790Y-66657480D02*
X114250790Y-65657480D01*
X114346028Y-65800338D01*
X114441266Y-65895576D01*
X114536504Y-65943195D01*
X113488885Y-66657480D02*
X113298409Y-66657480D01*
X113203171Y-66609861D01*
X113155552Y-66562242D01*
X113060314Y-66419385D01*
X113012695Y-66228909D01*
X113012695Y-65847957D01*
X113060314Y-65752719D01*
X113107933Y-65705100D01*
X113203171Y-65657480D01*
X113393647Y-65657480D01*
X113488885Y-65705100D01*
X113536504Y-65752719D01*
X113584123Y-65847957D01*
X113584123Y-66086052D01*
X113536504Y-66181290D01*
X113488885Y-66228909D01*
X113393647Y-66276528D01*
X113203171Y-66276528D01*
X113107933Y-66228909D01*
X113060314Y-66181290D01*
X113012695Y-66086052D01*
G04 #@! TO.C,R18*
X115095257Y-64485780D02*
X115428590Y-64009590D01*
X115666685Y-64485780D02*
X115666685Y-63485780D01*
X115285733Y-63485780D01*
X115190495Y-63533400D01*
X115142876Y-63581019D01*
X115095257Y-63676257D01*
X115095257Y-63819114D01*
X115142876Y-63914352D01*
X115190495Y-63961971D01*
X115285733Y-64009590D01*
X115666685Y-64009590D01*
X114142876Y-64485780D02*
X114714304Y-64485780D01*
X114428590Y-64485780D02*
X114428590Y-63485780D01*
X114523828Y-63628638D01*
X114619066Y-63723876D01*
X114714304Y-63771495D01*
X113571447Y-63914352D02*
X113666685Y-63866733D01*
X113714304Y-63819114D01*
X113761923Y-63723876D01*
X113761923Y-63676257D01*
X113714304Y-63581019D01*
X113666685Y-63533400D01*
X113571447Y-63485780D01*
X113380971Y-63485780D01*
X113285733Y-63533400D01*
X113238114Y-63581019D01*
X113190495Y-63676257D01*
X113190495Y-63723876D01*
X113238114Y-63819114D01*
X113285733Y-63866733D01*
X113380971Y-63914352D01*
X113571447Y-63914352D01*
X113666685Y-63961971D01*
X113714304Y-64009590D01*
X113761923Y-64104828D01*
X113761923Y-64295304D01*
X113714304Y-64390542D01*
X113666685Y-64438161D01*
X113571447Y-64485780D01*
X113380971Y-64485780D01*
X113285733Y-64438161D01*
X113238114Y-64390542D01*
X113190495Y-64295304D01*
X113190495Y-64104828D01*
X113238114Y-64009590D01*
X113285733Y-63961971D01*
X113380971Y-63914352D01*
G04 #@! TD*
M02*
