G04 #@! TF.GenerationSoftware,KiCad,Pcbnew,5.0.2-bee76a0~70~ubuntu18.04.1*
G04 #@! TF.CreationDate,2019-02-08T19:21:51+01:00*
G04 #@! TF.ProjectId,BPi-CAN,4250692d-4341-44e2-9e6b-696361645f70,rev?*
G04 #@! TF.SameCoordinates,Original*
G04 #@! TF.FileFunction,Profile,NP*
%FSLAX46Y46*%
G04 Gerber Fmt 4.6, Leading zero omitted, Abs format (unit mm)*
G04 Created by KiCad (PCBNEW 5.0.2-bee76a0~70~ubuntu18.04.1) date Fr 08 Feb 2019 19:21:51 CET*
%MOMM*%
%LPD*%
G01*
G04 APERTURE LIST*
%ADD10C,0.150000*%
G04 APERTURE END LIST*
D10*
X176000000Y-58500000D02*
X176000000Y-55500000D01*
X176000000Y-69500000D02*
X176000000Y-65750000D01*
X179000000Y-65750000D02*
X179000000Y-78250000D01*
X176000000Y-58500000D02*
G75*
G03X177500000Y-60000000I1500000J0D01*
G01*
X179000000Y-65750000D02*
G75*
G03X177500000Y-64250000I-1500000J0D01*
G01*
X177500000Y-64250000D02*
G75*
G03X176000000Y-65750000I0J-1500000D01*
G01*
X172500000Y-78250000D02*
X172500000Y-72500000D01*
X177500000Y-79750000D02*
X174000000Y-79750000D01*
X174000000Y-84000000D02*
X177500000Y-84000000D01*
X172500000Y-88500000D02*
X172500000Y-85500000D01*
X172500000Y-78250000D02*
G75*
G03X174000000Y-79750000I1500000J0D01*
G01*
X177500000Y-79750000D02*
G75*
G03X179000000Y-78250000I0J1500000D01*
G01*
X174000000Y-84000000D02*
G75*
G03X172500000Y-85500000I0J-1500000D01*
G01*
X179000000Y-85500000D02*
G75*
G03X177500000Y-84000000I-1500000J0D01*
G01*
X177500000Y-60000000D02*
G75*
G03X179000000Y-58500000I0J1500000D01*
G01*
X200000000Y-58500000D02*
X200000000Y-85500000D01*
X180500000Y-57000000D02*
X198500000Y-57000000D01*
X180500000Y-87000000D02*
X198500000Y-87000000D01*
X179000000Y-85500000D02*
G75*
G03X180500000Y-87000000I1500000J0D01*
G01*
X198500000Y-87000000D02*
G75*
G03X200000000Y-85500000I0J1500000D01*
G01*
X200000000Y-58500000D02*
G75*
G03X198500000Y-57000000I-1500000J0D01*
G01*
X180500000Y-57000000D02*
G75*
G03X179000000Y-58500000I0J-1500000D01*
G01*
X148250000Y-100000000D02*
X172500000Y-100000000D01*
X141000000Y-100000000D02*
X114750000Y-100000000D01*
X114750000Y-103000000D02*
X141000000Y-103000000D01*
X142500000Y-101500000D02*
G75*
G03X141000000Y-100000000I-1500000J0D01*
G01*
X141000000Y-103000000D02*
G75*
G03X142500000Y-101500000I0J1500000D01*
G01*
X101500000Y-100000000D02*
X107500000Y-100000000D01*
X101500000Y-103000000D02*
X107500000Y-103000000D01*
X148250000Y-100000000D02*
G75*
G03X146750000Y-101500000I0J-1500000D01*
G01*
X148250000Y-103000000D02*
X158500000Y-103000000D01*
X146750000Y-101500000D02*
G75*
G03X148250000Y-103000000I1500000J0D01*
G01*
X174000000Y-90000000D02*
X190000000Y-90000000D01*
X177500000Y-54000000D02*
X190000000Y-54000000D01*
X174000000Y-71000000D02*
X174500000Y-71000000D01*
X174500000Y-71000000D02*
G75*
G03X176000000Y-69500000I0J1500000D01*
G01*
X174000000Y-71000000D02*
G75*
G03X172500000Y-72500000I0J-1500000D01*
G01*
X161500000Y-119000000D02*
G75*
G03X163000000Y-117500000I0J1500000D01*
G01*
X163000000Y-124500000D02*
G75*
G03X161500000Y-123000000I-1500000J0D01*
G01*
X163000000Y-124500000D02*
X163000000Y-138500000D01*
X163000000Y-104500000D02*
X163000000Y-117500000D01*
X160000000Y-124500000D02*
X160000000Y-138500000D01*
X160000000Y-104500000D02*
X160000000Y-117500000D01*
X161500000Y-123000000D02*
G75*
G03X160000000Y-124500000I0J-1500000D01*
G01*
X160000000Y-117500000D02*
G75*
G03X161500000Y-119000000I1500000J0D01*
G01*
X164500000Y-103000000D02*
X172500000Y-103000000D01*
X164500000Y-140000000D02*
X198500000Y-140000000D01*
X163000000Y-138500000D02*
G75*
G03X164500000Y-140000000I1500000J0D01*
G01*
X158500000Y-140000000D02*
G75*
G03X160000000Y-138500000I0J1500000D01*
G01*
X164500000Y-103000000D02*
G75*
G03X163000000Y-104500000I0J-1500000D01*
G01*
X160000000Y-104500000D02*
G75*
G03X158500000Y-103000000I-1500000J0D01*
G01*
X113250000Y-101500000D02*
G75*
G03X114750000Y-103000000I1500000J0D01*
G01*
X114750000Y-100000000D02*
G75*
G03X113250000Y-101500000I0J-1500000D01*
G01*
X174000000Y-101500000D02*
G75*
G03X172500000Y-100000000I-1500000J0D01*
G01*
X172500000Y-103000000D02*
G75*
G03X174000000Y-101500000I0J1500000D01*
G01*
X178000000Y-101500000D02*
G75*
G03X179500000Y-103000000I1500000J0D01*
G01*
X179500000Y-100000000D02*
G75*
G03X178000000Y-101500000I0J-1500000D01*
G01*
X190000000Y-100000000D02*
X179500000Y-100000000D01*
X198500000Y-103000000D02*
X179500000Y-103000000D01*
X107500000Y-103000000D02*
G75*
G03X109000000Y-101500000I0J1500000D01*
G01*
X109000000Y-101500000D02*
G75*
G03X107500000Y-100000000I-1500000J0D01*
G01*
X198500000Y-140000000D02*
G75*
G03X200000000Y-138500000I0J1500000D01*
G01*
X200000000Y-104500000D02*
G75*
G03X198500000Y-103000000I-1500000J0D01*
G01*
X101500000Y-103000000D02*
G75*
G03X100000000Y-104500000I0J-1500000D01*
G01*
X100000000Y-138500000D02*
G75*
G03X101500000Y-140000000I1500000J0D01*
G01*
X100000000Y-104500000D02*
X100000000Y-138500000D01*
X200000000Y-104500000D02*
X200000000Y-138500000D01*
X101500000Y-140000000D02*
X158500000Y-140000000D01*
X191500000Y-91500000D02*
G75*
G03X190000000Y-90000000I-1500000J0D01*
G01*
X172500000Y-88500000D02*
G75*
G03X174000000Y-90000000I1500000J0D01*
G01*
X177500000Y-54000000D02*
G75*
G03X176000000Y-55500000I0J-1500000D01*
G01*
X190000000Y-54000000D02*
G75*
G03X191500000Y-52500000I0J1500000D01*
G01*
X191500000Y-41500000D02*
X191500000Y-52500000D01*
X143000000Y-41500000D02*
G75*
G03X141500000Y-40000000I-1500000J0D01*
G01*
X156500000Y-40000000D02*
G75*
G03X155000000Y-41500000I0J-1500000D01*
G01*
X153500000Y-51500000D02*
G75*
G03X155000000Y-50000000I0J1500000D01*
G01*
X143000000Y-50000000D02*
G75*
G03X144500000Y-51500000I1500000J0D01*
G01*
X144500000Y-51500000D02*
X153500000Y-51500000D01*
X143000000Y-41500000D02*
X143000000Y-50000000D01*
X155000000Y-41500000D02*
X155000000Y-50000000D01*
X190000000Y-40000000D02*
X156500000Y-40000000D01*
X100000000Y-41500000D02*
X100000000Y-98500000D01*
X191500000Y-91500000D02*
X191500000Y-98500000D01*
X191500000Y-41500000D02*
G75*
G03X190000000Y-40000000I-1500000J0D01*
G01*
X190000000Y-100000000D02*
G75*
G03X191500000Y-98500000I0J1500000D01*
G01*
X100000000Y-98500000D02*
G75*
G03X101500000Y-100000000I1500000J0D01*
G01*
X101500000Y-40000000D02*
G75*
G03X100000000Y-41500000I0J-1500000D01*
G01*
X101500000Y-40000000D02*
X141500000Y-40000000D01*
M02*
