M48
INCH,TZ
T1C0.020
T2C0.128
T3C0.150
%
G90
G05
T1
X43012Y-39469
X43012Y-40453
X43307Y-39469
X43307Y-40453
X43602Y-39469
X43602Y-40453
X43898Y-39469
X43898Y-40453
X44193Y-39469
X44193Y-40453
X44488Y-39469
X44488Y-40453
X56201Y-39469
X56201Y-40453
X56496Y-39469
X56496Y-40453
X56791Y-39469
X56791Y-40453
X57087Y-39469
X57087Y-40453
X57382Y-39469
X57382Y-40453
X57677Y-39469
X57677Y-40453
X63169Y-46909
X63169Y-47205
X63169Y-47500
X63169Y-47795
X63169Y-48091
X63169Y-48386
X63957Y-46909
X63957Y-47205
X63957Y-47500
X63957Y-47795
X63957Y-48091
X63957Y-48386
X68563Y-39508
X68563Y-40453
X68858Y-39508
X68858Y-40453
X69154Y-39508
X69154Y-40453
X69449Y-39508
X69449Y-40453
X69744Y-39508
X69744Y-40453
X70039Y-39508
X70039Y-40453
T2
X44955Y-53858
X49455Y-53858
X53262Y-53858
X57762Y-53858
X67900Y-53700
X67950Y-41950
X72400Y-53700
X72450Y-41950
T3
X69800Y-18350
T0
M30
