M48
;DRILL file {KiCad 4.0.2+dfsg1-stable} date So 05 Feb 2017 14:10:15 CET
;FORMAT={-:-/ absolute / inch / decimal}
FMAT,2
INCH,TZ
T1C0.016
T2C0.028
T3C0.031
T4C0.032
T5C0.035
T6C0.037
T7C0.039
T8C0.039
T9C0.040
T10C0.047
T11C0.063
T12C0.087
T13C0.091
T14C0.098
T15C0.126
%
G90
G05
M72
T1
X3.9925Y-2.0325
X4.02Y-2.35
X4.0392Y-2.1608
X4.08Y-2.545
X4.0925Y-2.23
X4.1156Y-1.8556
X4.1293Y-2.2291
X4.145Y-2.695
X4.155Y-2.15
X4.2023Y-2.9915
X4.205Y-2.275
X4.225Y-2.505
X4.2475Y-2.6968
X4.26Y-1.8813
X4.39Y-1.9225
X4.4Y-3.0575
X4.42Y-2.3757
X4.42Y-4.535
X4.43Y-4.983
X4.4396Y-2.5647
X4.44Y-2.19
X4.457Y-3.677
X4.495Y-2.865
X4.513Y-3.678
X4.545Y-1.63
X4.5525Y-3.015
X4.5804Y-2.7753
X4.5851Y-2.4851
X4.5874Y-2.107
X4.6225Y-1.865
X4.662Y-2.7441
X4.745Y-1.86
X4.8067Y-2.4117
X4.8072Y-1.8796
X4.813Y-2.378
X4.8147Y-2.3076
X4.8265Y-4.2915
X4.8325Y-2.8725
X4.8325Y-2.9925
X4.85Y-2.1525
X4.885Y-5.475
X4.8899Y-2.2282
X4.895Y-2.135
X4.8988Y-2.3
X4.8994Y-2.3798
X4.9276Y-2.2742
X4.9305Y-2.0565
X4.935Y-5.1375
X4.9486Y-2.5132
X4.965Y-2.1075
X5.005Y-2.1
X5.02Y-1.73
X5.025Y-1.63
X5.0257Y-1.8418
X5.055Y-2.045
X5.055Y-2.1
X5.0764Y-1.8408
X5.11Y-1.735
X5.1248Y-1.9706
X5.1341Y-1.8701
X5.139Y-4.908
X5.1618Y-2.0641
X5.1791Y-1.8923
X5.1913Y-2.1014
X5.2Y-1.9788
X5.2Y-2.05
X5.2625Y-5.475
X5.2753Y-1.6265
X5.29Y-2.195
X5.3325Y-2.9925
X5.35Y-2.4
X5.365Y-2.3163
X5.365Y-1.995
X5.405Y-1.63
X5.41Y-4.908
X5.425Y-2.15
X5.48Y-2.75
X5.495Y-2.16
X5.51Y-5.3425
X5.52Y-2.265
X5.535Y-2.15
X5.555Y-1.65
X5.5615Y-2.5307
X5.5886Y-3.0175
X5.615Y-2.26
X5.7Y-3.04
X5.7116Y-2.8779
X5.7456Y-2.882
X5.75Y-2.77
X5.755Y-3.035
X5.78Y-2.85
X5.7804Y-2.97
X5.8Y-3.42
X5.83Y-2.6
X5.8423Y-2.6986
X5.86Y-2.405
X5.8654Y-2.6671
X5.9Y-2.5988
X5.9Y-2.75
X5.915Y-2.67
X5.925Y-2.39
X5.975Y-2.6
X5.99Y-2.675
X6.05Y-3.33
X6.175Y-3.3683
X6.4761Y-3.5196
X6.5175Y-2.675
X6.5175Y-2.7775
X6.59Y-3.672
X6.665Y-2.03
X6.675Y-3.325
X6.695Y-4.905
X6.705Y-3.56
X6.7375Y-4.3975
X6.785Y-3.675
X6.79Y-3.755
X6.8Y-3.64
X6.9425Y-4.8675
X6.945Y-4.7
X6.9525Y-4.8075
X7.0675Y-3.8
X7.075Y-4.805
X7.1325Y-4.7475
X7.1325Y-4.895
X7.1625Y-4.8675
X7.195Y-5.0775
X7.2047Y-2.9331
X7.2047Y-3.0906
X7.285Y-3.6675
X7.285Y-3.7125
X7.3425Y-3.0906
T2
X6.2725Y-3.792
X6.3513Y-3.792
X6.43Y-3.792
X6.5087Y-3.792
T3
X4.2325Y-3.52
X4.3375Y-3.5275
X4.3375Y-3.61
X4.35Y-2.7125
X4.35Y-3.0125
X4.45Y-2.7125
X4.45Y-3.0125
X4.615Y-2.965
X4.6375Y-3.5275
X4.6375Y-3.61
X4.7175Y-3.5275
X4.7175Y-3.61
X4.829Y-4.72
X4.937Y-4.356
X4.937Y-4.456
X4.937Y-4.612
X4.937Y-4.776
X4.937Y-4.876
X5.0175Y-3.5275
X5.0175Y-3.61
X5.0675Y-3.36
X5.0675Y-3.86
X5.086Y-4.719
X5.1391Y-2.3025
X5.185Y-2.8091
X5.185Y-2.9075
X5.196Y-4.827
X5.21Y-2.4566
X5.21Y-2.555
X5.2375Y-2.3025
X5.245Y-2.6516
X5.245Y-2.75
X5.59Y-3.5575
X5.59Y-3.8575
X5.5925Y-3.1575
X5.5925Y-3.4575
X5.635Y-2.75
X5.667Y-4.356
X5.667Y-4.456
X5.667Y-4.776
X5.667Y-4.876
X5.715Y-3.115
X5.715Y-3.415
X5.7466Y-2.22
X5.87Y-3.2616
X6.195Y-1.695
X6.195Y-1.98
X6.214Y-3.562
X6.378Y-2.9799
X6.378Y-3.2799
X6.4567Y-2.98
X6.4567Y-3.28
X7.293Y-2.452
X7.593Y-2.452
T4
X4.15Y-3.1175
X4.15Y-3.4175
X4.2325Y-3.6184
X4.25Y-3.1175
X4.25Y-3.4175
X4.35Y-3.1175
X4.35Y-3.4175
X4.45Y-3.1175
X4.45Y-3.4175
X4.55Y-3.1175
X4.55Y-3.4175
X4.615Y-2.8666
X4.65Y-3.1175
X4.65Y-3.4175
X4.7319Y-2.2091
X4.7319Y-2.3091
X4.7319Y-2.4091
X4.7319Y-2.5091
X4.7319Y-2.6091
X4.7319Y-2.7091
X4.7319Y-2.8091
X4.7319Y-2.9091
X4.75Y-3.1175
X4.75Y-3.4175
X4.85Y-3.1175
X4.85Y-3.4175
X5.0319Y-2.2091
X5.0319Y-2.3091
X5.0319Y-2.4091
X5.0319Y-2.5091
X5.0319Y-2.6091
X5.0319Y-2.7091
X5.0319Y-2.8091
X5.0319Y-2.9091
X5.0675Y-3.4584
X5.0675Y-3.7616
X5.185Y-3.1575
X5.185Y-3.2575
X5.185Y-3.3575
X5.185Y-3.4575
X5.185Y-3.5575
X5.185Y-3.6575
X5.185Y-3.7575
X5.185Y-3.8575
X5.3625Y-2.2175
X5.435Y-2.33
X5.435Y-2.63
X5.485Y-3.1575
X5.485Y-3.2575
X5.485Y-3.3575
X5.485Y-3.4575
X5.485Y-3.5575
X5.485Y-3.6575
X5.485Y-3.7575
X5.485Y-3.8575
X5.535Y-2.33
X5.535Y-2.63
X5.5366Y-2.75
X5.635Y-2.33
X5.635Y-2.63
X5.6625Y-2.2175
X5.735Y-2.33
X5.735Y-2.63
X5.82Y-3.564
X5.82Y-3.664
X5.82Y-3.764
X5.82Y-3.864
X5.845Y-2.22
X5.87Y-3.36
X5.925Y-2.235
X5.925Y-2.535
X5.9843Y-3.005
X5.9843Y-3.105
X5.9843Y-3.205
X5.9843Y-3.305
X6.12Y-3.564
X6.12Y-3.664
X6.12Y-3.764
X6.12Y-3.864
X6.135Y-2.24
X6.135Y-2.34
X6.135Y-2.44
X6.195Y-1.7934
X6.195Y-1.8816
X6.214Y-3.6604
X6.2843Y-3.005
X6.2843Y-3.105
X6.2843Y-3.205
X6.2843Y-3.305
X6.435Y-2.24
X6.435Y-2.34
X6.435Y-2.44
X7.175Y-2.065
X7.475Y-2.065
T5
X4.5455Y-5.1362
X4.5955Y-5.0362
X4.6455Y-5.1362
X4.6955Y-5.0362
X4.7455Y-5.1362
X4.7955Y-5.0362
X4.8455Y-5.1362
X4.8955Y-5.0362
X5.3762Y-5.1362
X5.4262Y-5.0362
X5.4762Y-5.1362
X5.5262Y-5.0362
X5.5762Y-5.1362
X5.6262Y-5.0362
X5.6762Y-5.1362
X5.7262Y-5.0362
X6.84Y-5.1204
X6.845Y-4.5446
X6.89Y-5.0204
X6.895Y-4.4446
X6.94Y-5.1204
X6.945Y-4.5446
X6.99Y-5.0204
X6.995Y-4.4446
X7.04Y-5.1204
X7.045Y-4.5446
X7.09Y-5.0204
X7.095Y-4.4446
X7.14Y-5.1204
X7.145Y-4.5446
X7.19Y-5.0204
X7.195Y-4.4446
X7.3934Y-2.66
X7.3934Y-2.76
X7.3934Y-2.86
X7.3934Y-2.96
X7.4934Y-2.71
X7.4934Y-2.81
X7.4934Y-2.91
X7.4934Y-3.01
T6
X4.285Y-2.14
X4.285Y-2.238
X4.364Y-2.14
X4.364Y-2.238
T7
X4.2057Y-4.6225
X4.2057Y-4.7111
X4.2057Y-4.7898
X4.2057Y-4.8686
X4.2057Y-4.9335
X4.3042Y-4.6225
X4.3042Y-4.6993
X4.3042Y-4.778
X4.3042Y-4.8567
X4.3042Y-4.9335
X4.4225Y-4.3067
X4.4225Y-4.4052
X4.4874Y-4.3067
X4.4993Y-4.4052
X4.5662Y-4.3067
X4.578Y-4.4052
X4.6449Y-4.3067
X4.6567Y-4.4052
X4.7335Y-4.3067
X4.7335Y-4.4052
X5.1725Y-4.3067
X5.1725Y-4.4052
X5.2374Y-4.3067
X5.2493Y-4.4052
X5.3162Y-4.3067
X5.328Y-4.4052
X5.3949Y-4.3067
X5.4067Y-4.4052
X5.4835Y-4.3067
X5.4835Y-4.4052
T8
X6.32Y-1.735
X6.32Y-1.835
X6.32Y-1.935
X7.375Y-1.915
X7.392Y-2.324
X7.475Y-1.915
X7.492Y-2.324
T9
X4.01Y-2.6225
X4.01Y-2.7225
X4.01Y-2.8225
X4.01Y-2.9225
X4.01Y-3.0225
X4.015Y-3.86
X4.115Y-3.86
X4.271Y-1.68
X4.271Y-1.78
X4.371Y-1.68
X4.371Y-1.78
X4.471Y-1.68
X4.471Y-1.78
X4.571Y-1.68
X4.571Y-1.78
X4.571Y-1.923
X4.571Y-2.023
X4.671Y-1.68
X4.671Y-1.78
X4.671Y-1.923
X4.671Y-2.023
X4.771Y-1.68
X4.771Y-1.78
X4.771Y-1.923
X4.771Y-2.023
X4.871Y-1.68
X4.871Y-1.78
X4.871Y-1.923
X4.871Y-2.023
X4.971Y-1.68
X4.971Y-1.78
X4.971Y-1.923
X5.071Y-1.68
X5.071Y-1.78
X5.071Y-1.923
X5.171Y-1.68
X5.171Y-1.78
X5.271Y-1.68
X5.271Y-1.78
X5.285Y-2.1
X5.3093Y-1.9026
X5.371Y-1.68
X5.371Y-1.78
X5.385Y-2.1
X5.4093Y-1.9026
X5.471Y-1.68
X5.471Y-1.78
X5.485Y-2.1
X5.5093Y-1.9026
X5.585Y-2.1
X5.685Y-2.1
X5.785Y-2.1
X5.8031Y-4.6441
X5.8031Y-4.7441
X5.8031Y-4.8819
X5.86Y-2.96
X5.86Y-3.06
X5.86Y-3.16
X5.885Y-2.1
X5.9031Y-4.8819
X5.942Y-4.419
X5.942Y-4.519
X5.942Y-4.619
X5.985Y-2.1
X6.035Y-2.34
X6.035Y-2.44
X6.085Y-2.1
X6.1008Y-4.3976
X6.2008Y-4.3976
X6.43Y-2.115
X6.53Y-2.115
X6.55Y-4.545
X6.55Y-4.645
X6.55Y-4.745
X6.55Y-4.845
X6.55Y-4.945
X6.55Y-5.045
X6.9125Y-3.865
X7.0125Y-3.865
X7.11Y-2.591
X7.11Y-2.691
X7.11Y-2.791
X7.11Y-2.891
X7.11Y-2.991
X7.11Y-3.091
X7.1125Y-3.865
X7.2125Y-3.865
X7.392Y-3.353
X7.425Y-4.43
X7.425Y-4.53
X7.425Y-4.63
X7.425Y-4.73
X7.425Y-4.83
X7.425Y-4.93
X7.425Y-5.03
X7.425Y-5.13
X7.492Y-3.353
X7.525Y-4.43
X7.525Y-4.53
X7.525Y-4.63
X7.525Y-4.73
X7.525Y-4.83
X7.525Y-4.93
X7.525Y-5.03
X7.525Y-5.13
T10
X4.2555Y-3.7724
X4.3933Y-3.7724
X4.5311Y-3.7724
X4.6689Y-3.7724
X4.8067Y-3.7724
X4.9445Y-3.7724
X5.8186Y-4.2226
X5.9564Y-4.2226
X6.1374Y-4.6194
X6.1374Y-4.7572
X6.1374Y-4.895
X6.1374Y-5.0328
X6.1374Y-5.1706
X6.6224Y-2.9561
X6.6224Y-3.0939
X6.6224Y-3.2422
X6.6224Y-3.38
X6.6224Y-3.5178
X6.7474Y-2.1744
X6.7474Y-2.3122
X6.7474Y-2.45
X6.7474Y-2.5878
X6.7474Y-2.7256
X7.7224Y-4.4355
X7.7224Y-4.5733
X7.7224Y-4.7111
X7.7224Y-4.8489
X7.7224Y-4.9867
X7.7224Y-5.1245
T11
X4.4154Y-5.2657
X5.0256Y-5.2657
X5.2461Y-5.2657
X5.8563Y-5.2657
X6.7099Y-5.2499
X6.7149Y-4.3151
X7.3201Y-5.2499
X7.3251Y-4.3151
X7.6229Y-2.5299
X7.6229Y-3.1401
T12
X4.0876Y-4.4926
X4.0876Y-5.0634
X4.2926Y-4.1886
X4.8634Y-4.1886
X5.0426Y-4.1886
X5.6134Y-4.1886
T13
X4.178Y-1.952
X4.178Y-2.426
T14
X4.0561Y-4.778
X4.578Y-4.1571
X5.328Y-4.1571
T15
X4.0551Y-1.6929
X4.0551Y-3.622
X4.0748Y-4.1929
X4.0748Y-5.374
X6.1614Y-4.1929
X6.1614Y-5.374
X6.5551Y-4.1929
X6.5551Y-5.374
X7.1654Y-2.3622
X7.1654Y-3.3071
X7.4213Y-1.6929
X7.4213Y-3.8189
X7.7165Y-2.3622
X7.7165Y-3.3071
X7.7362Y-4.1929
X7.7362Y-5.374
T0
M30
