M48
;DRILL file {KiCad 4.0.2+dfsg1-stable} date Mo 06 Feb 2017 14:15:09 CET
;FORMAT={-:-/ absolute / metric / decimal}
FMAT,2
METRIC,TZ
T1C0.500
T2C3.250
T3C3.800
%
G90
G05
M71
T1
X109.25Y-100.25
X109.25Y-102.75
X110.Y-100.25
X110.Y-102.75
X110.75Y-100.25
X110.75Y-102.75
X111.5Y-100.25
X111.5Y-102.75
X112.25Y-100.25
X112.25Y-102.75
X113.Y-100.25
X113.Y-102.75
X142.75Y-100.25
X142.75Y-102.75
X143.5Y-100.25
X143.5Y-102.75
X144.25Y-100.25
X144.25Y-102.75
X145.Y-100.25
X145.Y-102.75
X145.75Y-100.25
X145.75Y-102.75
X146.5Y-100.25
X146.5Y-102.75
X160.45Y-119.15
X160.45Y-119.9
X160.45Y-120.65
X160.45Y-121.4
X160.45Y-122.15
X160.45Y-122.9
X162.45Y-119.15
X162.45Y-119.9
X162.45Y-120.65
X162.45Y-121.4
X162.45Y-122.15
X162.45Y-122.9
X173.Y-80.
X173.Y-80.75
X173.Y-81.5
X173.Y-82.25
X173.Y-83.
X173.Y-83.75
X174.15Y-100.35
X174.15Y-102.75
X174.9Y-100.35
X174.9Y-102.75
X175.65Y-100.35
X175.65Y-102.75
X176.4Y-100.35
X176.4Y-102.75
X176.5Y-60.25
X176.5Y-61.
X176.5Y-61.75
X176.5Y-62.5
X176.5Y-63.25
X176.5Y-64.
X177.15Y-100.35
X177.15Y-102.75
X177.9Y-100.35
X177.9Y-102.75
X178.5Y-60.25
X178.5Y-61.
X178.5Y-61.75
X178.5Y-62.5
X178.5Y-63.25
X178.5Y-64.
X178.5Y-80.
X178.5Y-80.75
X178.5Y-81.5
X178.5Y-82.25
X178.5Y-83.
X178.5Y-83.75
T2
X114.185Y-136.8
X125.615Y-136.8
X135.285Y-136.8
X146.715Y-136.8
X172.466Y-136.398
X172.593Y-106.553
X183.896Y-136.398
X184.023Y-106.553
X197.129Y-66.294
X197.129Y-77.724
T3
X177.292Y-46.609
T0
M30
