G04 #@! TF.FileFunction,Legend,Bot*
%FSLAX46Y46*%
G04 Gerber Fmt 4.6, Leading zero omitted, Abs format (unit mm)*
G04 Created by KiCad (PCBNEW 4.0.1-3.201512221402+6198~38~ubuntu14.04.1-stable) date Wed 13 Jan 2016 02:16:40 PM CET*
%MOMM*%
G01*
G04 APERTURE LIST*
%ADD10C,0.100000*%
%ADD11C,0.150000*%
%ADD12C,0.381000*%
%ADD13C,0.127000*%
%ADD14C,0.285750*%
%ADD15C,0.287020*%
%ADD16C,0.099060*%
G04 APERTURE END LIST*
D10*
D11*
X117373400Y-52654200D02*
X124993400Y-52654200D01*
X124993400Y-52654200D02*
X124993400Y-47574200D01*
X124993400Y-47574200D02*
X114833400Y-47574200D01*
X114833400Y-47574200D02*
X114833400Y-50114200D01*
X116103400Y-52934200D02*
X114553400Y-52934200D01*
X114833400Y-50114200D02*
X117373400Y-50114200D01*
X117373400Y-50114200D02*
X117373400Y-52654200D01*
X114553400Y-52934200D02*
X114553400Y-51384200D01*
X107213400Y-41402000D02*
X140233400Y-41402000D01*
X109753400Y-46482000D02*
X140233400Y-46482000D01*
X140233400Y-41402000D02*
X140233400Y-46482000D01*
X107213400Y-41402000D02*
X107213400Y-43942000D01*
X108483400Y-46762000D02*
X106933400Y-46762000D01*
X107213400Y-43942000D02*
X109753400Y-43942000D01*
X109753400Y-43942000D02*
X109753400Y-46482000D01*
X106933400Y-46762000D02*
X106933400Y-45212000D01*
X124713400Y-47294200D02*
X126263400Y-47294200D01*
X130073400Y-47574200D02*
X127533400Y-47574200D01*
X127533400Y-47574200D02*
X127533400Y-50114200D01*
X126263400Y-50394200D02*
X124713400Y-50394200D01*
X124713400Y-50394200D02*
X124713400Y-47294200D01*
X127533400Y-50114200D02*
X130073400Y-50114200D01*
X130073400Y-50114200D02*
X130073400Y-47574200D01*
X140386000Y-65567000D02*
X140386000Y-65422000D01*
X144536000Y-65567000D02*
X144536000Y-65422000D01*
X144536000Y-60417000D02*
X144536000Y-60562000D01*
X140386000Y-60417000D02*
X140386000Y-60562000D01*
X140386000Y-65567000D02*
X144536000Y-65567000D01*
X140386000Y-60417000D02*
X144536000Y-60417000D01*
X140386000Y-65422000D02*
X138986000Y-65422000D01*
D12*
X157677000Y-72715000D02*
G75*
G03X157677000Y-72715000I-800000J0D01*
G01*
X162377000Y-74315000D02*
X155377000Y-74315000D01*
X155377000Y-74315000D02*
X155377000Y-64115000D01*
X155377000Y-64115000D02*
X162377000Y-64115000D01*
X162377000Y-64115000D02*
X162377000Y-74315000D01*
D11*
X109077200Y-53021200D02*
X110277200Y-53021200D01*
X110277200Y-51271200D02*
X109077200Y-51271200D01*
X109102600Y-59904600D02*
X110302600Y-59904600D01*
X110302600Y-58154600D02*
X109102600Y-58154600D01*
X166864000Y-58893000D02*
X166864000Y-57693000D01*
X165114000Y-57693000D02*
X165114000Y-58893000D01*
D13*
X101155500Y-53784500D02*
X106108500Y-53784500D01*
X106108500Y-53784500D02*
X106108500Y-57721500D01*
X106108500Y-57721500D02*
X101155500Y-57721500D01*
X101155500Y-57721500D02*
X101155500Y-53784500D01*
X102074481Y-54419500D02*
G75*
G03X102074481Y-54419500I-283981J0D01*
G01*
D11*
X101741000Y-48502000D02*
X101741000Y-49702000D01*
X103491000Y-49702000D02*
X103491000Y-48502000D01*
X166307800Y-68030800D02*
X166307800Y-69230800D01*
X168057800Y-69230800D02*
X168057800Y-68030800D01*
X150382000Y-71078800D02*
X150382000Y-72278800D01*
X152132000Y-72278800D02*
X152132000Y-71078800D01*
X138517600Y-63642800D02*
X138517600Y-62442800D01*
X136767600Y-62442800D02*
X136767600Y-63642800D01*
X148449000Y-63033200D02*
X148449000Y-61833200D01*
X146699000Y-61833200D02*
X146699000Y-63033200D01*
X114022095Y-50109381D02*
X114022095Y-49109381D01*
X113641142Y-49109381D01*
X113545904Y-49157000D01*
X113498285Y-49204619D01*
X113450666Y-49299857D01*
X113450666Y-49442714D01*
X113498285Y-49537952D01*
X113545904Y-49585571D01*
X113641142Y-49633190D01*
X114022095Y-49633190D01*
X113117333Y-49109381D02*
X112498285Y-49109381D01*
X112831619Y-49490333D01*
X112688761Y-49490333D01*
X112593523Y-49537952D01*
X112545904Y-49585571D01*
X112498285Y-49680810D01*
X112498285Y-49918905D01*
X112545904Y-50014143D01*
X112593523Y-50061762D01*
X112688761Y-50109381D01*
X112974476Y-50109381D01*
X113069714Y-50061762D01*
X113117333Y-50014143D01*
X106363995Y-47251881D02*
X106363995Y-46251881D01*
X105983042Y-46251881D01*
X105887804Y-46299500D01*
X105840185Y-46347119D01*
X105792566Y-46442357D01*
X105792566Y-46585214D01*
X105840185Y-46680452D01*
X105887804Y-46728071D01*
X105983042Y-46775690D01*
X106363995Y-46775690D01*
X104840185Y-47251881D02*
X105411614Y-47251881D01*
X105125900Y-47251881D02*
X105125900Y-46251881D01*
X105221138Y-46394738D01*
X105316376Y-46489976D01*
X105411614Y-46537595D01*
X128373095Y-51379381D02*
X128373095Y-50379381D01*
X127992142Y-50379381D01*
X127896904Y-50427000D01*
X127849285Y-50474619D01*
X127801666Y-50569857D01*
X127801666Y-50712714D01*
X127849285Y-50807952D01*
X127896904Y-50855571D01*
X127992142Y-50903190D01*
X128373095Y-50903190D01*
X126944523Y-50712714D02*
X126944523Y-51379381D01*
X127182619Y-50331762D02*
X127420714Y-51046048D01*
X126801666Y-51046048D01*
X149701095Y-66381381D02*
X149701095Y-67190905D01*
X149653476Y-67286143D01*
X149605857Y-67333762D01*
X149510619Y-67381381D01*
X149320142Y-67381381D01*
X149224904Y-67333762D01*
X149177285Y-67286143D01*
X149129666Y-67190905D01*
X149129666Y-66381381D01*
X148129666Y-67381381D02*
X148701095Y-67381381D01*
X148415381Y-67381381D02*
X148415381Y-66381381D01*
X148510619Y-66524238D01*
X148605857Y-66619476D01*
X148701095Y-66667095D01*
X147510619Y-66381381D02*
X147415380Y-66381381D01*
X147320142Y-66429000D01*
X147272523Y-66476619D01*
X147224904Y-66571857D01*
X147177285Y-66762333D01*
X147177285Y-67000429D01*
X147224904Y-67190905D01*
X147272523Y-67286143D01*
X147320142Y-67333762D01*
X147415380Y-67381381D01*
X147510619Y-67381381D01*
X147605857Y-67333762D01*
X147653476Y-67286143D01*
X147701095Y-67190905D01*
X147748714Y-67000429D01*
X147748714Y-66762333D01*
X147701095Y-66571857D01*
X147653476Y-66476619D01*
X147605857Y-66429000D01*
X147510619Y-66381381D01*
D14*
X156899429Y-67799858D02*
X158133143Y-67799858D01*
X158278286Y-67854286D01*
X158350857Y-67908715D01*
X158423429Y-68017572D01*
X158423429Y-68235286D01*
X158350857Y-68344144D01*
X158278286Y-68398572D01*
X158133143Y-68453001D01*
X156899429Y-68453001D01*
X158423429Y-69596001D02*
X158423429Y-68942858D01*
X158423429Y-69269430D02*
X156899429Y-69269430D01*
X157117143Y-69160573D01*
X157262286Y-69051715D01*
X157334857Y-68942858D01*
X157044571Y-70031429D02*
X156972000Y-70085858D01*
X156899429Y-70194715D01*
X156899429Y-70466858D01*
X156972000Y-70575715D01*
X157044571Y-70630144D01*
X157189714Y-70684572D01*
X157334857Y-70684572D01*
X157552571Y-70630144D01*
X158423429Y-69977001D01*
X158423429Y-70684572D01*
D15*
D14*
X160582429Y-66402858D02*
X159058429Y-66402858D01*
X160509857Y-66892715D02*
X160582429Y-67056001D01*
X160582429Y-67328144D01*
X160509857Y-67437001D01*
X160437286Y-67491430D01*
X160292143Y-67545858D01*
X160147000Y-67545858D01*
X160001857Y-67491430D01*
X159929286Y-67437001D01*
X159856714Y-67328144D01*
X159784143Y-67110430D01*
X159711571Y-67001572D01*
X159639000Y-66947144D01*
X159493857Y-66892715D01*
X159348714Y-66892715D01*
X159203571Y-66947144D01*
X159131000Y-67001572D01*
X159058429Y-67110430D01*
X159058429Y-67382572D01*
X159131000Y-67545858D01*
X159058429Y-68253429D02*
X159058429Y-68471143D01*
X159131000Y-68580001D01*
X159276143Y-68688858D01*
X159566429Y-68743286D01*
X160074429Y-68743286D01*
X160364714Y-68688858D01*
X160509857Y-68580001D01*
X160582429Y-68471143D01*
X160582429Y-68253429D01*
X160509857Y-68144572D01*
X160364714Y-68035715D01*
X160074429Y-67981286D01*
X159566429Y-67981286D01*
X159276143Y-68035715D01*
X159131000Y-68144572D01*
X159058429Y-68253429D01*
X160582429Y-69831858D02*
X160582429Y-69178715D01*
X160582429Y-69505287D02*
X159058429Y-69505287D01*
X159276143Y-69396430D01*
X159421286Y-69287572D01*
X159493857Y-69178715D01*
X159058429Y-70539429D02*
X159058429Y-70648286D01*
X159131000Y-70757143D01*
X159203571Y-70811572D01*
X159348714Y-70866001D01*
X159639000Y-70920429D01*
X160001857Y-70920429D01*
X160292143Y-70866001D01*
X160437286Y-70811572D01*
X160509857Y-70757143D01*
X160582429Y-70648286D01*
X160582429Y-70539429D01*
X160509857Y-70430572D01*
X160437286Y-70376143D01*
X160292143Y-70321715D01*
X160001857Y-70267286D01*
X159639000Y-70267286D01*
X159348714Y-70321715D01*
X159203571Y-70376143D01*
X159131000Y-70430572D01*
X159058429Y-70539429D01*
X159058429Y-71954572D02*
X159058429Y-71410286D01*
X159784143Y-71355857D01*
X159711571Y-71410286D01*
X159639000Y-71519143D01*
X159639000Y-71791286D01*
X159711571Y-71900143D01*
X159784143Y-71954572D01*
X159929286Y-72009000D01*
X160292143Y-72009000D01*
X160437286Y-71954572D01*
X160509857Y-71900143D01*
X160582429Y-71791286D01*
X160582429Y-71519143D01*
X160509857Y-71410286D01*
X160437286Y-71355857D01*
X159058429Y-72716571D02*
X159058429Y-72825428D01*
X159131000Y-72934285D01*
X159203571Y-72988714D01*
X159348714Y-73043143D01*
X159639000Y-73097571D01*
X160001857Y-73097571D01*
X160292143Y-73043143D01*
X160437286Y-72988714D01*
X160509857Y-72934285D01*
X160582429Y-72825428D01*
X160582429Y-72716571D01*
X160509857Y-72607714D01*
X160437286Y-72553285D01*
X160292143Y-72498857D01*
X160001857Y-72444428D01*
X159639000Y-72444428D01*
X159348714Y-72498857D01*
X159203571Y-72553285D01*
X159131000Y-72607714D01*
X159058429Y-72716571D01*
D11*
X110320057Y-50498581D02*
X110653391Y-50022390D01*
X110891486Y-50498581D02*
X110891486Y-49498581D01*
X110510533Y-49498581D01*
X110415295Y-49546200D01*
X110367676Y-49593819D01*
X110320057Y-49689057D01*
X110320057Y-49831914D01*
X110367676Y-49927152D01*
X110415295Y-49974771D01*
X110510533Y-50022390D01*
X110891486Y-50022390D01*
X109367676Y-50498581D02*
X109939105Y-50498581D01*
X109653391Y-50498581D02*
X109653391Y-49498581D01*
X109748629Y-49641438D01*
X109843867Y-49736676D01*
X109939105Y-49784295D01*
X108510533Y-49498581D02*
X108701010Y-49498581D01*
X108796248Y-49546200D01*
X108843867Y-49593819D01*
X108939105Y-49736676D01*
X108986724Y-49927152D01*
X108986724Y-50308105D01*
X108939105Y-50403343D01*
X108891486Y-50450962D01*
X108796248Y-50498581D01*
X108605771Y-50498581D01*
X108510533Y-50450962D01*
X108462914Y-50403343D01*
X108415295Y-50308105D01*
X108415295Y-50070010D01*
X108462914Y-49974771D01*
X108510533Y-49927152D01*
X108605771Y-49879533D01*
X108796248Y-49879533D01*
X108891486Y-49927152D01*
X108939105Y-49974771D01*
X108986724Y-50070010D01*
X110345457Y-61285381D02*
X110678791Y-60809190D01*
X110916886Y-61285381D02*
X110916886Y-60285381D01*
X110535933Y-60285381D01*
X110440695Y-60333000D01*
X110393076Y-60380619D01*
X110345457Y-60475857D01*
X110345457Y-60618714D01*
X110393076Y-60713952D01*
X110440695Y-60761571D01*
X110535933Y-60809190D01*
X110916886Y-60809190D01*
X109393076Y-61285381D02*
X109964505Y-61285381D01*
X109678791Y-61285381D02*
X109678791Y-60285381D01*
X109774029Y-60428238D01*
X109869267Y-60523476D01*
X109964505Y-60571095D01*
X109059743Y-60285381D02*
X108393076Y-60285381D01*
X108821648Y-61285381D01*
X168346381Y-57523143D02*
X167870190Y-57189809D01*
X168346381Y-56951714D02*
X167346381Y-56951714D01*
X167346381Y-57332667D01*
X167394000Y-57427905D01*
X167441619Y-57475524D01*
X167536857Y-57523143D01*
X167679714Y-57523143D01*
X167774952Y-57475524D01*
X167822571Y-57427905D01*
X167870190Y-57332667D01*
X167870190Y-56951714D01*
X167441619Y-57904095D02*
X167394000Y-57951714D01*
X167346381Y-58046952D01*
X167346381Y-58285048D01*
X167394000Y-58380286D01*
X167441619Y-58427905D01*
X167536857Y-58475524D01*
X167632095Y-58475524D01*
X167774952Y-58427905D01*
X168346381Y-57856476D01*
X168346381Y-58475524D01*
X167346381Y-59094571D02*
X167346381Y-59189810D01*
X167394000Y-59285048D01*
X167441619Y-59332667D01*
X167536857Y-59380286D01*
X167727333Y-59427905D01*
X167965429Y-59427905D01*
X168155905Y-59380286D01*
X168251143Y-59332667D01*
X168298762Y-59285048D01*
X168346381Y-59189810D01*
X168346381Y-59094571D01*
X168298762Y-58999333D01*
X168251143Y-58951714D01*
X168155905Y-58904095D01*
X167965429Y-58856476D01*
X167727333Y-58856476D01*
X167536857Y-58904095D01*
X167441619Y-58951714D01*
X167394000Y-58999333D01*
X167346381Y-59094571D01*
D16*
X104251518Y-54970982D02*
X104251518Y-55376052D01*
X104227690Y-55423707D01*
X104203863Y-55447535D01*
X104156207Y-55471362D01*
X104060897Y-55471362D01*
X104013242Y-55447535D01*
X103989414Y-55423707D01*
X103965586Y-55376052D01*
X103965586Y-54970982D01*
X103465206Y-55471362D02*
X103751138Y-55471362D01*
X103608172Y-55471362D02*
X103608172Y-54970982D01*
X103655827Y-55042465D01*
X103703482Y-55090120D01*
X103751138Y-55113948D01*
X103298413Y-54970982D02*
X102988654Y-54970982D01*
X103155447Y-55161603D01*
X103083965Y-55161603D01*
X103036309Y-55185431D01*
X103012482Y-55209259D01*
X102988654Y-55256914D01*
X102988654Y-55376052D01*
X103012482Y-55423707D01*
X103036309Y-55447535D01*
X103083965Y-55471362D01*
X103226930Y-55471362D01*
X103274586Y-55447535D01*
X103298413Y-55423707D01*
X104942518Y-56860259D02*
X105109311Y-56860259D01*
X105109311Y-57122362D02*
X105109311Y-56621982D01*
X104871035Y-56621982D01*
X104751897Y-56621982D02*
X104465965Y-56621982D01*
X104608931Y-57122362D02*
X104608931Y-56621982D01*
X104323000Y-56669638D02*
X104299172Y-56645810D01*
X104251517Y-56621982D01*
X104132379Y-56621982D01*
X104084723Y-56645810D01*
X104060896Y-56669638D01*
X104037068Y-56717293D01*
X104037068Y-56764948D01*
X104060896Y-56836431D01*
X104346827Y-57122362D01*
X104037068Y-57122362D01*
X103870275Y-56621982D02*
X103560516Y-56621982D01*
X103727309Y-56812603D01*
X103655827Y-56812603D01*
X103608171Y-56836431D01*
X103584344Y-56860259D01*
X103560516Y-56907914D01*
X103560516Y-57027052D01*
X103584344Y-57074707D01*
X103608171Y-57098535D01*
X103655827Y-57122362D01*
X103798792Y-57122362D01*
X103846448Y-57098535D01*
X103870275Y-57074707D01*
X103250757Y-56621982D02*
X103203102Y-56621982D01*
X103155447Y-56645810D01*
X103131619Y-56669638D01*
X103107792Y-56717293D01*
X103083964Y-56812603D01*
X103083964Y-56931741D01*
X103107792Y-57027052D01*
X103131619Y-57074707D01*
X103155447Y-57098535D01*
X103203102Y-57122362D01*
X103250757Y-57122362D01*
X103298413Y-57098535D01*
X103322240Y-57074707D01*
X103346068Y-57027052D01*
X103369896Y-56931741D01*
X103369896Y-56812603D01*
X103346068Y-56717293D01*
X103322240Y-56669638D01*
X103298413Y-56645810D01*
X103250757Y-56621982D01*
X102917171Y-56621982D02*
X102583584Y-57122362D01*
X102583584Y-56621982D02*
X102917171Y-57122362D01*
X102416792Y-57098535D02*
X102345309Y-57122362D01*
X102226171Y-57122362D01*
X102178515Y-57098535D01*
X102154688Y-57074707D01*
X102130860Y-57027052D01*
X102130860Y-56979397D01*
X102154688Y-56931741D01*
X102178515Y-56907914D01*
X102226171Y-56884086D01*
X102321481Y-56860259D01*
X102369136Y-56836431D01*
X102392964Y-56812603D01*
X102416792Y-56764948D01*
X102416792Y-56717293D01*
X102392964Y-56669638D01*
X102369136Y-56645810D01*
X102321481Y-56621982D01*
X102202343Y-56621982D01*
X102130860Y-56645810D01*
D11*
X105073143Y-48459143D02*
X105120762Y-48411524D01*
X105168381Y-48268667D01*
X105168381Y-48173429D01*
X105120762Y-48030571D01*
X105025524Y-47935333D01*
X104930286Y-47887714D01*
X104739810Y-47840095D01*
X104596952Y-47840095D01*
X104406476Y-47887714D01*
X104311238Y-47935333D01*
X104216000Y-48030571D01*
X104168381Y-48173429D01*
X104168381Y-48268667D01*
X104216000Y-48411524D01*
X104263619Y-48459143D01*
X104263619Y-48840095D02*
X104216000Y-48887714D01*
X104168381Y-48982952D01*
X104168381Y-49221048D01*
X104216000Y-49316286D01*
X104263619Y-49363905D01*
X104358857Y-49411524D01*
X104454095Y-49411524D01*
X104596952Y-49363905D01*
X105168381Y-48792476D01*
X105168381Y-49411524D01*
X104168381Y-50030571D02*
X104168381Y-50125810D01*
X104216000Y-50221048D01*
X104263619Y-50268667D01*
X104358857Y-50316286D01*
X104549333Y-50363905D01*
X104787429Y-50363905D01*
X104977905Y-50316286D01*
X105073143Y-50268667D01*
X105120762Y-50221048D01*
X105168381Y-50125810D01*
X105168381Y-50030571D01*
X105120762Y-49935333D01*
X105073143Y-49887714D01*
X104977905Y-49840095D01*
X104787429Y-49792476D01*
X104549333Y-49792476D01*
X104358857Y-49840095D01*
X104263619Y-49887714D01*
X104216000Y-49935333D01*
X104168381Y-50030571D01*
X169639943Y-67987943D02*
X169687562Y-67940324D01*
X169735181Y-67797467D01*
X169735181Y-67702229D01*
X169687562Y-67559371D01*
X169592324Y-67464133D01*
X169497086Y-67416514D01*
X169306610Y-67368895D01*
X169163752Y-67368895D01*
X168973276Y-67416514D01*
X168878038Y-67464133D01*
X168782800Y-67559371D01*
X168735181Y-67702229D01*
X168735181Y-67797467D01*
X168782800Y-67940324D01*
X168830419Y-67987943D01*
X169735181Y-68940324D02*
X169735181Y-68368895D01*
X169735181Y-68654609D02*
X168735181Y-68654609D01*
X168878038Y-68559371D01*
X168973276Y-68464133D01*
X169020895Y-68368895D01*
X169735181Y-69416514D02*
X169735181Y-69606990D01*
X169687562Y-69702229D01*
X169639943Y-69749848D01*
X169497086Y-69845086D01*
X169306610Y-69892705D01*
X168925657Y-69892705D01*
X168830419Y-69845086D01*
X168782800Y-69797467D01*
X168735181Y-69702229D01*
X168735181Y-69511752D01*
X168782800Y-69416514D01*
X168830419Y-69368895D01*
X168925657Y-69321276D01*
X169163752Y-69321276D01*
X169258990Y-69368895D01*
X169306610Y-69416514D01*
X169354229Y-69511752D01*
X169354229Y-69702229D01*
X169306610Y-69797467D01*
X169258990Y-69845086D01*
X169163752Y-69892705D01*
X148947143Y-70858143D02*
X148994762Y-70810524D01*
X149042381Y-70667667D01*
X149042381Y-70572429D01*
X148994762Y-70429571D01*
X148899524Y-70334333D01*
X148804286Y-70286714D01*
X148613810Y-70239095D01*
X148470952Y-70239095D01*
X148280476Y-70286714D01*
X148185238Y-70334333D01*
X148090000Y-70429571D01*
X148042381Y-70572429D01*
X148042381Y-70667667D01*
X148090000Y-70810524D01*
X148137619Y-70858143D01*
X149042381Y-71810524D02*
X149042381Y-71239095D01*
X149042381Y-71524809D02*
X148042381Y-71524809D01*
X148185238Y-71429571D01*
X148280476Y-71334333D01*
X148328095Y-71239095D01*
X148470952Y-72381952D02*
X148423333Y-72286714D01*
X148375714Y-72239095D01*
X148280476Y-72191476D01*
X148232857Y-72191476D01*
X148137619Y-72239095D01*
X148090000Y-72286714D01*
X148042381Y-72381952D01*
X148042381Y-72572429D01*
X148090000Y-72667667D01*
X148137619Y-72715286D01*
X148232857Y-72762905D01*
X148280476Y-72762905D01*
X148375714Y-72715286D01*
X148423333Y-72667667D01*
X148470952Y-72572429D01*
X148470952Y-72381952D01*
X148518571Y-72286714D01*
X148566190Y-72239095D01*
X148661429Y-72191476D01*
X148851905Y-72191476D01*
X148947143Y-72239095D01*
X148994762Y-72286714D01*
X149042381Y-72381952D01*
X149042381Y-72572429D01*
X148994762Y-72667667D01*
X148947143Y-72715286D01*
X148851905Y-72762905D01*
X148661429Y-72762905D01*
X148566190Y-72715286D01*
X148518571Y-72667667D01*
X148470952Y-72572429D01*
X135899743Y-62399943D02*
X135947362Y-62352324D01*
X135994981Y-62209467D01*
X135994981Y-62114229D01*
X135947362Y-61971371D01*
X135852124Y-61876133D01*
X135756886Y-61828514D01*
X135566410Y-61780895D01*
X135423552Y-61780895D01*
X135233076Y-61828514D01*
X135137838Y-61876133D01*
X135042600Y-61971371D01*
X134994981Y-62114229D01*
X134994981Y-62209467D01*
X135042600Y-62352324D01*
X135090219Y-62399943D01*
X135994981Y-63352324D02*
X135994981Y-62780895D01*
X135994981Y-63066609D02*
X134994981Y-63066609D01*
X135137838Y-62971371D01*
X135233076Y-62876133D01*
X135280695Y-62780895D01*
X134994981Y-63685657D02*
X134994981Y-64352324D01*
X135994981Y-63923752D01*
X149963143Y-60825143D02*
X150010762Y-60777524D01*
X150058381Y-60634667D01*
X150058381Y-60539429D01*
X150010762Y-60396571D01*
X149915524Y-60301333D01*
X149820286Y-60253714D01*
X149629810Y-60206095D01*
X149486952Y-60206095D01*
X149296476Y-60253714D01*
X149201238Y-60301333D01*
X149106000Y-60396571D01*
X149058381Y-60539429D01*
X149058381Y-60634667D01*
X149106000Y-60777524D01*
X149153619Y-60825143D01*
X150058381Y-61777524D02*
X150058381Y-61206095D01*
X150058381Y-61491809D02*
X149058381Y-61491809D01*
X149201238Y-61396571D01*
X149296476Y-61301333D01*
X149344095Y-61206095D01*
X149058381Y-62634667D02*
X149058381Y-62444190D01*
X149106000Y-62348952D01*
X149153619Y-62301333D01*
X149296476Y-62206095D01*
X149486952Y-62158476D01*
X149867905Y-62158476D01*
X149963143Y-62206095D01*
X150010762Y-62253714D01*
X150058381Y-62348952D01*
X150058381Y-62539429D01*
X150010762Y-62634667D01*
X149963143Y-62682286D01*
X149867905Y-62729905D01*
X149629810Y-62729905D01*
X149534571Y-62682286D01*
X149486952Y-62634667D01*
X149439333Y-62539429D01*
X149439333Y-62348952D01*
X149486952Y-62253714D01*
X149534571Y-62206095D01*
X149629810Y-62158476D01*
M02*
