M48
INCH,TZ
T1C0.016
T2C0.028
T3C0.031
T4C0.032
T5C0.035
T6C0.037
T7C0.039
T8C0.039
T9C0.040
T10C0.047
T11C0.063
T12C0.087
T13C0.091
T14C0.098
T15C0.126
%
G90
G05
T1
X39925Y-20325
X40200Y-23500
X40392Y-21608
X40800Y-25450
X40925Y-22300
X41156Y-18556
X41293Y-22291
X41450Y-26950
X41550Y-21500
X42050Y-22750
X42250Y-25050
X42475Y-26975
X42600Y-18813
X43900Y-19225
X44200Y-23757
X44300Y-49830
X44316Y-25399
X44400Y-21900
X45150Y-27150
X45177Y-27486
X45180Y-28007
X45450Y-16300
X45642Y-26588
X45800Y-27750
X45817Y-26850
X45817Y-27300
X45874Y-21070
X46050Y-25050
X46225Y-18650
X46620Y-27441
X47450Y-18600
X48067Y-24117
X48072Y-18796
X48130Y-23780
X48147Y-23076
X48265Y-42915
X48325Y-28725
X48325Y-29925
X48500Y-21525
X48850Y-54750
X48899Y-22282
X48950Y-21350
X48988Y-23000
X48994Y-23798
X49276Y-22742
X49305Y-20565
X49350Y-51375
X49486Y-25132
X49650Y-21075
X50050Y-21000
X50200Y-17300
X50250Y-16300
X50257Y-18418
X50550Y-20450
X50550Y-21000
X50764Y-18408
X51100Y-17350
X51248Y-19706
X51341Y-18701
X51390Y-49080
X51618Y-20641
X51791Y-18923
X51913Y-21014
X52000Y-19788
X52000Y-20500
X52625Y-54750
X52753Y-16265
X52900Y-21950
X52950Y-28200
X53500Y-24000
X53650Y-23163
X53650Y-19950
X54018Y-29482
X54050Y-16300
X54100Y-49080
X54221Y-30500
X54250Y-21500
X54950Y-21600
X55100Y-53425
X55200Y-22650
X55350Y-21500
X55463Y-29200
X55550Y-16500
X55615Y-25307
X56150Y-22600
X56650Y-29950
X57365Y-28400
X57500Y-27700
X57550Y-30350
X57850Y-29700
X57949Y-28205
X58300Y-26000
X58423Y-26986
X58600Y-24050
X58650Y-29350
X58654Y-26671
X59000Y-25988
X59000Y-27500
X59150Y-26700
X59250Y-23900
X59750Y-26000
X59900Y-26750
X60576Y-31865
X63575Y-37475
X64761Y-35196
X65175Y-26750
X65175Y-27775
X65900Y-36720
X66650Y-20300
X66750Y-33250
X66950Y-49050
X67050Y-35600
X67375Y-43975
X67850Y-36750
X67900Y-37550
X68000Y-36400
X69425Y-48675
X69450Y-47000
X69525Y-48075
X70675Y-38000
X70750Y-48050
X71325Y-47475
X71325Y-48950
X71625Y-48675
X71950Y-50775
X72850Y-36675
X72850Y-37125
T2
X63249Y-29750
X63249Y-33750
T3
X42450Y-34975
X46150Y-29650
X48290Y-47200
X49370Y-43560
X49370Y-44560
X49370Y-46120
X49370Y-47760
X49370Y-48760
X50610Y-32600
X50850Y-37550
X50860Y-47190
X51391Y-23025
X51850Y-28091
X51850Y-29075
X51960Y-48270
X52100Y-24566
X52100Y-25550
X52375Y-23025
X52450Y-26516
X52450Y-27500
X56350Y-27500
X56670Y-43560
X56670Y-44560
X56670Y-47760
X56670Y-48760
X57466Y-22200
X57975Y-33050
X59360Y-49630
X61950Y-16950
X61950Y-19800
X62140Y-35620
T4
X40225Y-30825
X40225Y-33825
X41225Y-30825
X41225Y-33825
X42225Y-30825
X42225Y-33825
X42450Y-35959
X43225Y-30825
X43225Y-33825
X43750Y-34850
X43750Y-35900
X43850Y-26550
X43850Y-29550
X44950Y-26500
X44950Y-29500
X45500Y-30800
X45500Y-33800
X46150Y-28666
X46500Y-30800
X46500Y-33800
X46750Y-34850
X46750Y-35900
X47319Y-22091
X47319Y-23091
X47319Y-24091
X47319Y-25091
X47319Y-26091
X47319Y-27091
X47319Y-28091
X47319Y-29091
X47500Y-30800
X47500Y-33800
X47850Y-34800
X47900Y-35900
X48500Y-30800
X48500Y-33800
X50319Y-22091
X50319Y-23091
X50319Y-24091
X50319Y-25091
X50319Y-26091
X50319Y-27091
X50319Y-28091
X50319Y-29091
X50610Y-33584
X50850Y-34800
X50850Y-38534
X50900Y-35900
X52050Y-30600
X52050Y-31600
X52050Y-32600
X52050Y-33600
X52050Y-35550
X52050Y-36550
X52050Y-37550
X52050Y-38550
X53625Y-22175
X54350Y-23300
X54350Y-26300
X55050Y-30600
X55050Y-31600
X55050Y-32600
X55050Y-33600
X55050Y-35550
X55050Y-36550
X55050Y-37550
X55050Y-38550
X55350Y-23300
X55350Y-26300
X55366Y-27500
X56050Y-31150
X56050Y-34150
X56350Y-23300
X56350Y-26300
X56625Y-22175
X56950Y-35300
X56950Y-38300
X57150Y-31150
X57150Y-34150
X57350Y-23300
X57350Y-26300
X57975Y-32066
X58200Y-35640
X58200Y-36640
X58200Y-37640
X58200Y-38640
X58450Y-22200
X59150Y-30050
X59150Y-31050
X59150Y-32050
X59150Y-33050
X59250Y-22350
X59250Y-25350
X61200Y-35640
X61200Y-36640
X61200Y-37640
X61200Y-38640
X61350Y-22400
X61350Y-23400
X61350Y-24400
X61950Y-17934
X61950Y-18816
X62140Y-36604
X62150Y-30050
X62150Y-31050
X62150Y-32050
X62150Y-33050
X64350Y-22400
X64350Y-23400
X64350Y-24400
X64350Y-29800
X64350Y-32800
X71750Y-20650
X74750Y-20650
T5
X45455Y-51362
X45955Y-50362
X46455Y-51362
X46955Y-50362
X47455Y-51362
X47955Y-50362
X48455Y-51362
X48955Y-50362
X53762Y-51362
X54262Y-50362
X54762Y-51362
X55262Y-50362
X55762Y-51362
X56262Y-50362
X56762Y-51362
X57262Y-50362
X68400Y-51204
X68450Y-45446
X68900Y-50204
X68950Y-44446
X69400Y-51204
X69450Y-45446
X69900Y-50204
X69950Y-44446
X70400Y-51204
X70450Y-45446
X70900Y-50204
X70950Y-44446
X71400Y-51204
X71450Y-45446
X71900Y-50204
X71950Y-44446
T6
X42850Y-21400
X42850Y-22380
X43640Y-21400
X43640Y-22380
T7
X42057Y-46225
X42057Y-47111
X42057Y-47898
X42057Y-48686
X42057Y-49335
X43042Y-46225
X43042Y-46993
X43042Y-47780
X43042Y-48567
X43042Y-49335
X44225Y-43067
X44225Y-44052
X44874Y-43067
X44993Y-44052
X45662Y-43067
X45780Y-44052
X46449Y-43067
X46567Y-44052
X47335Y-43067
X47335Y-44052
X51725Y-43067
X51725Y-44052
X52374Y-43067
X52493Y-44052
X53162Y-43067
X53280Y-44052
X53949Y-43067
X54067Y-44052
X54835Y-43067
X54835Y-44052
T8
X63200Y-17350
X63200Y-18350
X63200Y-19350
X73750Y-19150
X74750Y-19150
T9
X40100Y-25775
X40100Y-26775
X40100Y-27775
X40100Y-28775
X40100Y-29775
X42710Y-16800
X42710Y-17800
X43710Y-16800
X43710Y-17800
X44710Y-16800
X44710Y-17800
X45710Y-16800
X45710Y-17800
X45710Y-19230
X45710Y-20230
X46710Y-16800
X46710Y-17800
X46710Y-19230
X46710Y-20230
X47710Y-16800
X47710Y-17800
X47710Y-19230
X47710Y-20230
X48710Y-16800
X48710Y-17800
X48710Y-19230
X48710Y-20230
X49710Y-16800
X49710Y-17800
X49710Y-19230
X50710Y-16800
X50710Y-17800
X50710Y-19230
X51710Y-16800
X51710Y-17800
X52710Y-16800
X52710Y-17800
X52850Y-21000
X53093Y-19026
X53710Y-16800
X53710Y-17800
X53850Y-21000
X54093Y-19026
X54710Y-16800
X54710Y-17800
X54850Y-21000
X55093Y-19026
X55850Y-21000
X56850Y-21000
X57850Y-21000
X58850Y-21000
X59420Y-44190
X59420Y-45190
X59420Y-46190
X59850Y-21000
X60350Y-23400
X60350Y-24400
X60850Y-21000
X62440Y-38440
X63440Y-38440
X64300Y-21150
X64440Y-38440
X65300Y-21150
X65440Y-38440
X65500Y-45450
X65500Y-46450
X65500Y-47450
X65500Y-48450
X65500Y-49450
X65500Y-50450
X69125Y-38650
X70125Y-38650
X71125Y-38650
X72125Y-38650
X74250Y-44300
X74250Y-45300
X74250Y-46300
X74250Y-47300
X74250Y-48300
X74250Y-49300
X74250Y-50300
X74250Y-51300
X75250Y-44300
X75250Y-45300
X75250Y-46300
X75250Y-47300
X75250Y-48300
X75250Y-49300
X75250Y-50300
X75250Y-51300
T10
X42555Y-37724
X43933Y-37724
X45311Y-37724
X46689Y-37724
X48067Y-37724
X49445Y-37724
X58186Y-42226
X59564Y-42226
X61374Y-46194
X61374Y-47572
X61374Y-48950
X61374Y-50328
X61374Y-51706
X66224Y-29561
X66224Y-30939
X66224Y-32422
X66224Y-33800
X66224Y-35178
X67474Y-21744
X67474Y-23122
X67474Y-24500
X67474Y-25878
X67474Y-27256
X77224Y-44355
X77224Y-45733
X77224Y-47111
X77224Y-48489
X77224Y-49867
X77224Y-51245
T11
X44154Y-52657
X50256Y-52657
X52461Y-52657
X58563Y-52657
X67099Y-52499
X67149Y-43151
X73201Y-52499
X73251Y-43151
T12
X40876Y-44926
X40876Y-50634
X42926Y-41886
X48634Y-41886
X50426Y-41886
X56134Y-41886
T13
X41780Y-19520
X41780Y-24260
T14
X40561Y-47780
X45780Y-41571
X53280Y-41571
T15
X40551Y-16929
X40551Y-36220
X40748Y-41929
X40748Y-53740
X61614Y-41929
X61614Y-53740
X65551Y-41929
X65551Y-53740
X74213Y-16929
X74213Y-38189
X77362Y-41929
X77362Y-53740
T0
M30
