M48
;DRILL file {KiCad 4.0.1-3.201512221402+6198~38~ubuntu14.04.1-stable} date Wed 13 Jan 2016 04:51:57 PM CET
;FORMAT={-:-/ absolute / inch / decimal}
FMAT,2
INCH,TZ
T1C0.020
T2C0.128
T3C0.150
%
G90
G05
M72
T1
X4.3012Y-3.9469
X4.3012Y-4.0453
X4.3307Y-3.9469
X4.3307Y-4.0453
X4.3602Y-3.9469
X4.3602Y-4.0453
X4.3898Y-3.9469
X4.3898Y-4.0453
X4.4193Y-3.9469
X4.4193Y-4.0453
X4.4488Y-3.9469
X4.4488Y-4.0453
X5.6201Y-3.9469
X5.6201Y-4.0453
X5.6496Y-3.9469
X5.6496Y-4.0453
X5.6791Y-3.9469
X5.6791Y-4.0453
X5.7087Y-3.9469
X5.7087Y-4.0453
X5.7382Y-3.9469
X5.7382Y-4.0453
X5.7677Y-3.9469
X5.7677Y-4.0453
X6.3169Y-4.6909
X6.3169Y-4.7205
X6.3169Y-4.75
X6.3169Y-4.7795
X6.3169Y-4.8091
X6.3169Y-4.8386
X6.3957Y-4.6909
X6.3957Y-4.7205
X6.3957Y-4.75
X6.3957Y-4.7795
X6.3957Y-4.8091
X6.3957Y-4.8386
X6.8563Y-3.9508
X6.8563Y-4.0453
X6.8858Y-3.9508
X6.8858Y-4.0453
X6.9154Y-3.9508
X6.9154Y-4.0453
X6.9449Y-3.9508
X6.9449Y-4.0453
X6.9744Y-3.9508
X6.9744Y-4.0453
X7.0039Y-3.9508
X7.0039Y-4.0453
T2
X4.4955Y-5.3858
X4.9455Y-5.3858
X5.3262Y-5.3858
X5.7762Y-5.3858
X6.79Y-5.37
X6.795Y-4.195
X7.24Y-5.37
X7.245Y-4.195
T3
X6.98Y-1.835
T0
M30
