G04 #@! TF.FileFunction,Legend,Top*
%FSLAX46Y46*%
G04 Gerber Fmt 4.6, Leading zero omitted, Abs format (unit mm)*
G04 Created by KiCad (PCBNEW 4.0.1-3.201512221402+6198~38~ubuntu14.04.1-stable) date Wed 13 Jan 2016 04:51:54 PM CET*
%MOMM*%
G01*
G04 APERTURE LIST*
%ADD10C,0.100000*%
%ADD11C,0.200000*%
%ADD12C,0.150000*%
%ADD13C,0.254000*%
%ADD14C,0.381000*%
%ADD15C,0.300000*%
%ADD16C,0.203200*%
%ADD17C,0.304800*%
%ADD18C,0.285750*%
%ADD19C,0.287020*%
G04 APERTURE END LIST*
D10*
D11*
X165811333Y-55314905D02*
X166078000Y-56114905D01*
X166344667Y-55314905D01*
X167068476Y-56038714D02*
X167030381Y-56076810D01*
X166916095Y-56114905D01*
X166839905Y-56114905D01*
X166725619Y-56076810D01*
X166649428Y-56000619D01*
X166611333Y-55924429D01*
X166573238Y-55772048D01*
X166573238Y-55657762D01*
X166611333Y-55505381D01*
X166649428Y-55429190D01*
X166725619Y-55353000D01*
X166839905Y-55314905D01*
X166916095Y-55314905D01*
X167030381Y-55353000D01*
X167068476Y-55391095D01*
X167868476Y-56038714D02*
X167830381Y-56076810D01*
X167716095Y-56114905D01*
X167639905Y-56114905D01*
X167525619Y-56076810D01*
X167449428Y-56000619D01*
X167411333Y-55924429D01*
X167373238Y-55772048D01*
X167373238Y-55657762D01*
X167411333Y-55505381D01*
X167449428Y-55429190D01*
X167525619Y-55353000D01*
X167639905Y-55314905D01*
X167716095Y-55314905D01*
X167830381Y-55353000D01*
X167868476Y-55391095D01*
X165950977Y-58274000D02*
X165874786Y-58235905D01*
X165760501Y-58235905D01*
X165646215Y-58274000D01*
X165570024Y-58350190D01*
X165531929Y-58426381D01*
X165493834Y-58578762D01*
X165493834Y-58693048D01*
X165531929Y-58845429D01*
X165570024Y-58921619D01*
X165646215Y-58997810D01*
X165760501Y-59035905D01*
X165836691Y-59035905D01*
X165950977Y-58997810D01*
X165989072Y-58959714D01*
X165989072Y-58693048D01*
X165836691Y-58693048D01*
X166331929Y-59035905D02*
X166331929Y-58235905D01*
X166789072Y-59035905D01*
X166789072Y-58235905D01*
X167170024Y-59035905D02*
X167170024Y-58235905D01*
X167360500Y-58235905D01*
X167474786Y-58274000D01*
X167550977Y-58350190D01*
X167589072Y-58426381D01*
X167627167Y-58578762D01*
X167627167Y-58693048D01*
X167589072Y-58845429D01*
X167550977Y-58921619D01*
X167474786Y-58997810D01*
X167360500Y-59035905D01*
X167170024Y-59035905D01*
X166471620Y-61728405D02*
X166090667Y-61728405D01*
X166052572Y-62109357D01*
X166090667Y-62071262D01*
X166166858Y-62033167D01*
X166357334Y-62033167D01*
X166433524Y-62071262D01*
X166471620Y-62109357D01*
X166509715Y-62185548D01*
X166509715Y-62376024D01*
X166471620Y-62452214D01*
X166433524Y-62490310D01*
X166357334Y-62528405D01*
X166166858Y-62528405D01*
X166090667Y-62490310D01*
X166052572Y-62452214D01*
X166738286Y-61728405D02*
X167004953Y-62528405D01*
X167271620Y-61728405D01*
X165944667Y-70897714D02*
X165906572Y-70935810D01*
X165792286Y-70973905D01*
X165716096Y-70973905D01*
X165601810Y-70935810D01*
X165525619Y-70859619D01*
X165487524Y-70783429D01*
X165449429Y-70631048D01*
X165449429Y-70516762D01*
X165487524Y-70364381D01*
X165525619Y-70288190D01*
X165601810Y-70212000D01*
X165716096Y-70173905D01*
X165792286Y-70173905D01*
X165906572Y-70212000D01*
X165944667Y-70250095D01*
X166249429Y-70745333D02*
X166630381Y-70745333D01*
X166173238Y-70973905D02*
X166439905Y-70173905D01*
X166706572Y-70973905D01*
X166973238Y-70973905D02*
X166973238Y-70173905D01*
X167430381Y-70973905D01*
X167430381Y-70173905D01*
X167811333Y-70973905D02*
X167811333Y-70173905D01*
X167811333Y-70554857D02*
X168268476Y-70554857D01*
X168268476Y-70973905D02*
X168268476Y-70173905D01*
X165785905Y-66262214D02*
X165747810Y-66300310D01*
X165633524Y-66338405D01*
X165557334Y-66338405D01*
X165443048Y-66300310D01*
X165366857Y-66224119D01*
X165328762Y-66147929D01*
X165290667Y-65995548D01*
X165290667Y-65881262D01*
X165328762Y-65728881D01*
X165366857Y-65652690D01*
X165443048Y-65576500D01*
X165557334Y-65538405D01*
X165633524Y-65538405D01*
X165747810Y-65576500D01*
X165785905Y-65614595D01*
X166090667Y-66109833D02*
X166471619Y-66109833D01*
X166014476Y-66338405D02*
X166281143Y-65538405D01*
X166547810Y-66338405D01*
X166814476Y-66338405D02*
X166814476Y-65538405D01*
X167271619Y-66338405D01*
X167271619Y-65538405D01*
X168033524Y-66338405D02*
X167652571Y-66338405D01*
X167652571Y-65538405D01*
X139547677Y-50298400D02*
X139471486Y-50260305D01*
X139357201Y-50260305D01*
X139242915Y-50298400D01*
X139166724Y-50374590D01*
X139128629Y-50450781D01*
X139090534Y-50603162D01*
X139090534Y-50717448D01*
X139128629Y-50869829D01*
X139166724Y-50946019D01*
X139242915Y-51022210D01*
X139357201Y-51060305D01*
X139433391Y-51060305D01*
X139547677Y-51022210D01*
X139585772Y-50984114D01*
X139585772Y-50717448D01*
X139433391Y-50717448D01*
X139928629Y-51060305D02*
X139928629Y-50260305D01*
X140385772Y-51060305D01*
X140385772Y-50260305D01*
X140766724Y-51060305D02*
X140766724Y-50260305D01*
X140957200Y-50260305D01*
X141071486Y-50298400D01*
X141147677Y-50374590D01*
X141185772Y-50450781D01*
X141223867Y-50603162D01*
X141223867Y-50717448D01*
X141185772Y-50869829D01*
X141147677Y-50946019D01*
X141071486Y-51022210D01*
X140957200Y-51060305D01*
X140766724Y-51060305D01*
X134270810Y-51034905D02*
X134004143Y-50653952D01*
X133813667Y-51034905D02*
X133813667Y-50234905D01*
X134118429Y-50234905D01*
X134194620Y-50273000D01*
X134232715Y-50311095D01*
X134270810Y-50387286D01*
X134270810Y-50501571D01*
X134232715Y-50577762D01*
X134194620Y-50615857D01*
X134118429Y-50653952D01*
X133813667Y-50653952D01*
X134537477Y-51034905D02*
X134956524Y-50501571D01*
X134537477Y-50501571D02*
X134956524Y-51034905D01*
X135261286Y-51034905D02*
X135261286Y-50234905D01*
X135451762Y-50234905D01*
X135566048Y-50273000D01*
X135642239Y-50349190D01*
X135680334Y-50425381D01*
X135718429Y-50577762D01*
X135718429Y-50692048D01*
X135680334Y-50844429D01*
X135642239Y-50920619D01*
X135566048Y-50996810D01*
X135451762Y-51034905D01*
X135261286Y-51034905D01*
X136614019Y-50311105D02*
X137071162Y-50311105D01*
X136842591Y-51111105D02*
X136842591Y-50311105D01*
X137261639Y-51111105D02*
X137680686Y-50577771D01*
X137261639Y-50577771D02*
X137680686Y-51111105D01*
X137985448Y-51111105D02*
X137985448Y-50311105D01*
X138175924Y-50311105D01*
X138290210Y-50349200D01*
X138366401Y-50425390D01*
X138404496Y-50501581D01*
X138442591Y-50653962D01*
X138442591Y-50768248D01*
X138404496Y-50920629D01*
X138366401Y-50996819D01*
X138290210Y-51073010D01*
X138175924Y-51111105D01*
X137985448Y-51111105D01*
D12*
X148250000Y-100000000D02*
X172500000Y-100000000D01*
X141000000Y-100000000D02*
X114750000Y-100000000D01*
X114750000Y-103000000D02*
X141000000Y-103000000D01*
X142500000Y-101500000D02*
G75*
G03X141000000Y-100000000I-1500000J0D01*
G01*
X141000000Y-103000000D02*
G75*
G03X142500000Y-101500000I0J1500000D01*
G01*
X101500000Y-100000000D02*
X107500000Y-100000000D01*
X101500000Y-103000000D02*
X107500000Y-103000000D01*
X148250000Y-100000000D02*
G75*
G03X146750000Y-101500000I0J-1500000D01*
G01*
X148250000Y-103000000D02*
X158500000Y-103000000D01*
X146750000Y-101500000D02*
G75*
G03X148250000Y-103000000I1500000J0D01*
G01*
X174000000Y-90000000D02*
X190000000Y-90000000D01*
X177500000Y-54000000D02*
X190000000Y-54000000D01*
X176000000Y-55500000D02*
X176000000Y-69500000D01*
X172500000Y-88500000D02*
X172500000Y-72500000D01*
X174000000Y-71000000D02*
X174500000Y-71000000D01*
X174500000Y-71000000D02*
G75*
G03X176000000Y-69500000I0J1500000D01*
G01*
X174000000Y-71000000D02*
G75*
G03X172500000Y-72500000I0J-1500000D01*
G01*
X161500000Y-119000000D02*
G75*
G03X163000000Y-117500000I0J1500000D01*
G01*
X163000000Y-124500000D02*
G75*
G03X161500000Y-123000000I-1500000J0D01*
G01*
X163000000Y-124500000D02*
X163000000Y-138500000D01*
X163000000Y-104500000D02*
X163000000Y-117500000D01*
X160000000Y-124500000D02*
X160000000Y-138500000D01*
X160000000Y-104500000D02*
X160000000Y-117500000D01*
X161500000Y-123000000D02*
G75*
G03X160000000Y-124500000I0J-1500000D01*
G01*
X160000000Y-117500000D02*
G75*
G03X161500000Y-119000000I1500000J0D01*
G01*
X164500000Y-103000000D02*
X172500000Y-103000000D01*
X164500000Y-140000000D02*
X198500000Y-140000000D01*
X163000000Y-138500000D02*
G75*
G03X164500000Y-140000000I1500000J0D01*
G01*
X158500000Y-140000000D02*
G75*
G03X160000000Y-138500000I0J1500000D01*
G01*
X164500000Y-103000000D02*
G75*
G03X163000000Y-104500000I0J-1500000D01*
G01*
X160000000Y-104500000D02*
G75*
G03X158500000Y-103000000I-1500000J0D01*
G01*
X113250000Y-101500000D02*
G75*
G03X114750000Y-103000000I1500000J0D01*
G01*
X114750000Y-100000000D02*
G75*
G03X113250000Y-101500000I0J-1500000D01*
G01*
X174000000Y-101500000D02*
G75*
G03X172500000Y-100000000I-1500000J0D01*
G01*
X172500000Y-103000000D02*
G75*
G03X174000000Y-101500000I0J1500000D01*
G01*
X178000000Y-101500000D02*
G75*
G03X179500000Y-103000000I1500000J0D01*
G01*
X179500000Y-100000000D02*
G75*
G03X178000000Y-101500000I0J-1500000D01*
G01*
X190000000Y-100000000D02*
X179500000Y-100000000D01*
X198500000Y-103000000D02*
X179500000Y-103000000D01*
X107500000Y-103000000D02*
G75*
G03X109000000Y-101500000I0J1500000D01*
G01*
X109000000Y-101500000D02*
G75*
G03X107500000Y-100000000I-1500000J0D01*
G01*
X198500000Y-140000000D02*
G75*
G03X200000000Y-138500000I0J1500000D01*
G01*
X200000000Y-104500000D02*
G75*
G03X198500000Y-103000000I-1500000J0D01*
G01*
X101500000Y-103000000D02*
G75*
G03X100000000Y-104500000I0J-1500000D01*
G01*
X100000000Y-138500000D02*
G75*
G03X101500000Y-140000000I1500000J0D01*
G01*
X100000000Y-104500000D02*
X100000000Y-138500000D01*
X200000000Y-104500000D02*
X200000000Y-138500000D01*
X101500000Y-140000000D02*
X158500000Y-140000000D01*
X191500000Y-91500000D02*
G75*
G03X190000000Y-90000000I-1500000J0D01*
G01*
X172500000Y-88500000D02*
G75*
G03X174000000Y-90000000I1500000J0D01*
G01*
X177500000Y-54000000D02*
G75*
G03X176000000Y-55500000I0J-1500000D01*
G01*
X190000000Y-54000000D02*
G75*
G03X191500000Y-52500000I0J1500000D01*
G01*
X191500000Y-41500000D02*
X191500000Y-52500000D01*
X143000000Y-41500000D02*
G75*
G03X141500000Y-40000000I-1500000J0D01*
G01*
X156500000Y-40000000D02*
G75*
G03X155000000Y-41500000I0J-1500000D01*
G01*
X153500000Y-51500000D02*
G75*
G03X155000000Y-50000000I0J1500000D01*
G01*
X143000000Y-50000000D02*
G75*
G03X144500000Y-51500000I1500000J0D01*
G01*
X144500000Y-51500000D02*
X153500000Y-51500000D01*
X143000000Y-41500000D02*
X143000000Y-50000000D01*
X155000000Y-41500000D02*
X155000000Y-50000000D01*
X190000000Y-40000000D02*
X156500000Y-40000000D01*
X100000000Y-41500000D02*
X100000000Y-98500000D01*
X191500000Y-91500000D02*
X191500000Y-98500000D01*
X191500000Y-41500000D02*
G75*
G03X190000000Y-40000000I-1500000J0D01*
G01*
X190000000Y-100000000D02*
G75*
G03X191500000Y-98500000I0J1500000D01*
G01*
X100000000Y-98500000D02*
G75*
G03X101500000Y-100000000I1500000J0D01*
G01*
X101500000Y-40000000D02*
G75*
G03X100000000Y-41500000I0J-1500000D01*
G01*
X101500000Y-40000000D02*
X141500000Y-40000000D01*
D13*
X161798000Y-56896000D02*
X163449000Y-56896000D01*
X157480000Y-56896000D02*
X155829000Y-56896000D01*
X157480000Y-56007000D02*
X157480000Y-57785000D01*
X157480000Y-57785000D02*
X161798000Y-57785000D01*
X161798000Y-57785000D02*
X161798000Y-56007000D01*
X161798000Y-56007000D02*
X157480000Y-56007000D01*
D14*
X139192000Y-101600000D02*
X139192000Y-101092000D01*
X131318000Y-101600000D02*
X131318000Y-101092000D01*
X139192000Y-101600000D02*
X131318000Y-101600000D01*
X139192000Y-101346000D02*
X131318000Y-101346000D01*
X131318000Y-101092000D02*
X139192000Y-101092000D01*
X128143000Y-100965000D02*
X128143000Y-113919000D01*
X128143000Y-113919000D02*
X142367000Y-113919000D01*
X142367000Y-113919000D02*
X142367000Y-100965000D01*
X142367000Y-100965000D02*
X128143000Y-100965000D01*
X111518000Y-125878000D02*
X111518000Y-140102000D01*
X111518000Y-140102000D02*
X113804000Y-140102000D01*
X128282000Y-125878000D02*
X128282000Y-140102000D01*
X128282000Y-140102000D02*
X125996000Y-140102000D01*
X111645000Y-125905000D02*
X128155000Y-125905000D01*
X113804000Y-140129000D02*
X125996000Y-140129000D01*
D12*
X131707500Y-60982500D02*
X131707500Y-55984500D01*
X131567500Y-60974500D02*
X131567500Y-55992500D01*
X131427500Y-60958500D02*
X131427500Y-58578500D01*
X131427500Y-58388500D02*
X131427500Y-56008500D01*
X131287500Y-60934500D02*
X131287500Y-58973500D01*
X131287500Y-57993500D02*
X131287500Y-56032500D01*
X131147500Y-60901500D02*
X131147500Y-59140500D01*
X131147500Y-57826500D02*
X131147500Y-56065500D01*
X131007500Y-60860500D02*
X131007500Y-59247500D01*
X131007500Y-57719500D02*
X131007500Y-56106500D01*
X130867500Y-60810500D02*
X130867500Y-59318500D01*
X130867500Y-57648500D02*
X130867500Y-56156500D01*
X130727500Y-60749500D02*
X130727500Y-59362500D01*
X130727500Y-57604500D02*
X130727500Y-56217500D01*
X130587500Y-60679500D02*
X130587500Y-59381500D01*
X130587500Y-57585500D02*
X130587500Y-56287500D01*
X130447500Y-60597500D02*
X130447500Y-59379500D01*
X130447500Y-57587500D02*
X130447500Y-56369500D01*
X130307500Y-60502500D02*
X130307500Y-59354500D01*
X130307500Y-57612500D02*
X130307500Y-56464500D01*
X130167500Y-60391500D02*
X130167500Y-59306500D01*
X130167500Y-57660500D02*
X130167500Y-56575500D01*
X130027500Y-60263500D02*
X130027500Y-59228500D01*
X130027500Y-57738500D02*
X130027500Y-56703500D01*
X129887500Y-60114500D02*
X129887500Y-59111500D01*
X129887500Y-57855500D02*
X129887500Y-56852500D01*
X129747500Y-59935500D02*
X129747500Y-58923500D01*
X129747500Y-58043500D02*
X129747500Y-57031500D01*
X129607500Y-59716500D02*
X129607500Y-57250500D01*
X129467500Y-59427500D02*
X129467500Y-57539500D01*
X129327500Y-58955500D02*
X129327500Y-58011500D01*
X131432500Y-58483500D02*
G75*
G03X131432500Y-58483500I-900000J0D01*
G01*
X134320000Y-58483500D02*
G75*
G03X134320000Y-58483500I-2537500J0D01*
G01*
X129835000Y-63572000D02*
X134833000Y-63572000D01*
X129843000Y-63432000D02*
X134825000Y-63432000D01*
X129859000Y-63292000D02*
X132239000Y-63292000D01*
X132429000Y-63292000D02*
X134809000Y-63292000D01*
X129883000Y-63152000D02*
X131844000Y-63152000D01*
X132824000Y-63152000D02*
X134785000Y-63152000D01*
X129916000Y-63012000D02*
X131677000Y-63012000D01*
X132991000Y-63012000D02*
X134752000Y-63012000D01*
X129957000Y-62872000D02*
X131570000Y-62872000D01*
X133098000Y-62872000D02*
X134711000Y-62872000D01*
X130007000Y-62732000D02*
X131499000Y-62732000D01*
X133169000Y-62732000D02*
X134661000Y-62732000D01*
X130068000Y-62592000D02*
X131455000Y-62592000D01*
X133213000Y-62592000D02*
X134600000Y-62592000D01*
X130138000Y-62452000D02*
X131436000Y-62452000D01*
X133232000Y-62452000D02*
X134530000Y-62452000D01*
X130220000Y-62312000D02*
X131438000Y-62312000D01*
X133230000Y-62312000D02*
X134448000Y-62312000D01*
X130315000Y-62172000D02*
X131463000Y-62172000D01*
X133205000Y-62172000D02*
X134353000Y-62172000D01*
X130426000Y-62032000D02*
X131511000Y-62032000D01*
X133157000Y-62032000D02*
X134242000Y-62032000D01*
X130554000Y-61892000D02*
X131589000Y-61892000D01*
X133079000Y-61892000D02*
X134114000Y-61892000D01*
X130703000Y-61752000D02*
X131706000Y-61752000D01*
X132962000Y-61752000D02*
X133965000Y-61752000D01*
X130882000Y-61612000D02*
X131894000Y-61612000D01*
X132774000Y-61612000D02*
X133786000Y-61612000D01*
X131101000Y-61472000D02*
X133567000Y-61472000D01*
X131390000Y-61332000D02*
X133278000Y-61332000D01*
X131862000Y-61192000D02*
X132806000Y-61192000D01*
X133234000Y-62397000D02*
G75*
G03X133234000Y-62397000I-900000J0D01*
G01*
X134871500Y-63647000D02*
G75*
G03X134871500Y-63647000I-2537500J0D01*
G01*
X130724000Y-68525000D02*
X135722000Y-68525000D01*
X130732000Y-68385000D02*
X135714000Y-68385000D01*
X130748000Y-68245000D02*
X133128000Y-68245000D01*
X133318000Y-68245000D02*
X135698000Y-68245000D01*
X130772000Y-68105000D02*
X132733000Y-68105000D01*
X133713000Y-68105000D02*
X135674000Y-68105000D01*
X130805000Y-67965000D02*
X132566000Y-67965000D01*
X133880000Y-67965000D02*
X135641000Y-67965000D01*
X130846000Y-67825000D02*
X132459000Y-67825000D01*
X133987000Y-67825000D02*
X135600000Y-67825000D01*
X130896000Y-67685000D02*
X132388000Y-67685000D01*
X134058000Y-67685000D02*
X135550000Y-67685000D01*
X130957000Y-67545000D02*
X132344000Y-67545000D01*
X134102000Y-67545000D02*
X135489000Y-67545000D01*
X131027000Y-67405000D02*
X132325000Y-67405000D01*
X134121000Y-67405000D02*
X135419000Y-67405000D01*
X131109000Y-67265000D02*
X132327000Y-67265000D01*
X134119000Y-67265000D02*
X135337000Y-67265000D01*
X131204000Y-67125000D02*
X132352000Y-67125000D01*
X134094000Y-67125000D02*
X135242000Y-67125000D01*
X131315000Y-66985000D02*
X132400000Y-66985000D01*
X134046000Y-66985000D02*
X135131000Y-66985000D01*
X131443000Y-66845000D02*
X132478000Y-66845000D01*
X133968000Y-66845000D02*
X135003000Y-66845000D01*
X131592000Y-66705000D02*
X132595000Y-66705000D01*
X133851000Y-66705000D02*
X134854000Y-66705000D01*
X131771000Y-66565000D02*
X132783000Y-66565000D01*
X133663000Y-66565000D02*
X134675000Y-66565000D01*
X131990000Y-66425000D02*
X134456000Y-66425000D01*
X132279000Y-66285000D02*
X134167000Y-66285000D01*
X132751000Y-66145000D02*
X133695000Y-66145000D01*
X134123000Y-67350000D02*
G75*
G03X134123000Y-67350000I-900000J0D01*
G01*
X135760500Y-68600000D02*
G75*
G03X135760500Y-68600000I-2537500J0D01*
G01*
X160652460Y-78358480D02*
X160652460Y-76961480D01*
X160652460Y-82803480D02*
X160652460Y-84327480D01*
X159890460Y-82422480D02*
X161414460Y-82422480D01*
X159890460Y-82676480D02*
X161414460Y-82676480D01*
X160652460Y-82930480D02*
X161414460Y-82930480D01*
X161414460Y-82930480D02*
X161414460Y-78358480D01*
X161414460Y-78358480D02*
X159890460Y-78358480D01*
X159890460Y-78358480D02*
X159890460Y-82930480D01*
X159890460Y-82930480D02*
X160652460Y-82930480D01*
X198786000Y-136500000D02*
G75*
G03X198786000Y-136500000I-2286000J0D01*
G01*
X198786000Y-106500000D02*
G75*
G03X198786000Y-106500000I-2286000J0D01*
G01*
X168786000Y-106500000D02*
G75*
G03X168786000Y-106500000I-2286000J0D01*
G01*
X168786000Y-136500000D02*
G75*
G03X168786000Y-136500000I-2286000J0D01*
G01*
X158786000Y-136500000D02*
G75*
G03X158786000Y-136500000I-2286000J0D01*
G01*
X158786000Y-106500000D02*
G75*
G03X158786000Y-106500000I-2286000J0D01*
G01*
X105786000Y-106500000D02*
G75*
G03X105786000Y-106500000I-2286000J0D01*
G01*
X105786000Y-136500000D02*
G75*
G03X105786000Y-136500000I-2286000J0D01*
G01*
X105286000Y-92000000D02*
G75*
G03X105286000Y-92000000I-2286000J0D01*
G01*
X145713000Y-55138000D02*
X148713000Y-55138000D01*
X148713000Y-57638000D02*
X145713000Y-57638000D01*
X143379000Y-71100000D02*
X140379000Y-71100000D01*
X140379000Y-68600000D02*
X143379000Y-68600000D01*
X152019000Y-60706000D02*
X152019000Y-58166000D01*
X151739000Y-63526000D02*
X151739000Y-61976000D01*
X152019000Y-60706000D02*
X154559000Y-60706000D01*
X154839000Y-61976000D02*
X154839000Y-63526000D01*
X154839000Y-63526000D02*
X151739000Y-63526000D01*
X154559000Y-60706000D02*
X154559000Y-58166000D01*
X154559000Y-58166000D02*
X152019000Y-58166000D01*
X190786000Y-43000000D02*
G75*
G03X190786000Y-43000000I-2286000J0D01*
G01*
X190786000Y-97000000D02*
G75*
G03X190786000Y-97000000I-2286000J0D01*
G01*
X105286000Y-43000000D02*
G75*
G03X105286000Y-43000000I-2286000J0D01*
G01*
X158603000Y-42803000D02*
X158603000Y-45803000D01*
X156103000Y-45803000D02*
X156103000Y-42803000D01*
X156103000Y-50542000D02*
X156103000Y-47542000D01*
X158603000Y-47542000D02*
X158603000Y-50542000D01*
X129799400Y-82554000D02*
X129799400Y-85554000D01*
X127299400Y-85554000D02*
X127299400Y-82554000D01*
X130409000Y-95127000D02*
X130409000Y-98127000D01*
X127909000Y-98127000D02*
X127909000Y-95127000D01*
X109073000Y-88586500D02*
X109073000Y-91586500D01*
X106573000Y-91586500D02*
X106573000Y-88586500D01*
X115971000Y-75561000D02*
X115971000Y-72561000D01*
X118471000Y-72561000D02*
X118471000Y-75561000D01*
X162032000Y-90087000D02*
X162032000Y-93087000D01*
X159532000Y-93087000D02*
X159532000Y-90087000D01*
X174734400Y-90566800D02*
X174734400Y-90711800D01*
X178884400Y-90566800D02*
X178884400Y-90711800D01*
X178884400Y-95716800D02*
X178884400Y-95571800D01*
X174734400Y-95716800D02*
X174734400Y-95571800D01*
X174734400Y-90566800D02*
X178884400Y-90566800D01*
X174734400Y-95716800D02*
X178884400Y-95716800D01*
X174734400Y-90711800D02*
X173334400Y-90711800D01*
X103650000Y-75100000D02*
X103650000Y-76650000D01*
X103650000Y-76650000D02*
X100550000Y-76650000D01*
X100550000Y-76650000D02*
X100550000Y-75100000D01*
X100830000Y-73830000D02*
X100830000Y-63670000D01*
X100830000Y-63670000D02*
X103370000Y-63670000D01*
X103370000Y-63670000D02*
X103370000Y-73830000D01*
X100830000Y-73830000D02*
X103370000Y-73830000D01*
D13*
X144653000Y-91313000D02*
X144653000Y-89662000D01*
X144653000Y-95631000D02*
X144653000Y-97282000D01*
X143764000Y-95631000D02*
X145542000Y-95631000D01*
X145542000Y-95631000D02*
X145542000Y-91313000D01*
X145542000Y-91313000D02*
X143764000Y-91313000D01*
X143764000Y-91313000D02*
X143764000Y-95631000D01*
X142367000Y-80772000D02*
X142367000Y-79121000D01*
X142367000Y-85090000D02*
X142367000Y-86741000D01*
X141478000Y-85090000D02*
X143256000Y-85090000D01*
X143256000Y-85090000D02*
X143256000Y-80772000D01*
X143256000Y-80772000D02*
X141478000Y-80772000D01*
X141478000Y-80772000D02*
X141478000Y-85090000D01*
X145161000Y-85090000D02*
X145161000Y-86741000D01*
X145161000Y-80772000D02*
X145161000Y-79121000D01*
X146050000Y-80772000D02*
X144272000Y-80772000D01*
X144272000Y-80772000D02*
X144272000Y-85090000D01*
X144272000Y-85090000D02*
X146050000Y-85090000D01*
X146050000Y-85090000D02*
X146050000Y-80772000D01*
X127635000Y-91186000D02*
X129286000Y-91186000D01*
X123317000Y-91186000D02*
X121666000Y-91186000D01*
X123317000Y-90297000D02*
X123317000Y-92075000D01*
X123317000Y-92075000D02*
X127635000Y-92075000D01*
X127635000Y-92075000D02*
X127635000Y-90297000D01*
X127635000Y-90297000D02*
X123317000Y-90297000D01*
X117094000Y-88519000D02*
X118745000Y-88519000D01*
X112776000Y-88519000D02*
X111125000Y-88519000D01*
X112776000Y-87630000D02*
X112776000Y-89408000D01*
X112776000Y-89408000D02*
X117094000Y-89408000D01*
X117094000Y-89408000D02*
X117094000Y-87630000D01*
X117094000Y-87630000D02*
X112776000Y-87630000D01*
X127508000Y-88392000D02*
X129159000Y-88392000D01*
X123190000Y-88392000D02*
X121539000Y-88392000D01*
X123190000Y-87503000D02*
X123190000Y-89281000D01*
X123190000Y-89281000D02*
X127508000Y-89281000D01*
X127508000Y-89281000D02*
X127508000Y-87503000D01*
X127508000Y-87503000D02*
X123190000Y-87503000D01*
X112776000Y-91186000D02*
X111125000Y-91186000D01*
X117094000Y-91186000D02*
X118745000Y-91186000D01*
X117094000Y-92075000D02*
X117094000Y-90297000D01*
X117094000Y-90297000D02*
X112776000Y-90297000D01*
X112776000Y-90297000D02*
X112776000Y-92075000D01*
X112776000Y-92075000D02*
X117094000Y-92075000D01*
X111379000Y-69088000D02*
X111379000Y-67437000D01*
X111379000Y-73406000D02*
X111379000Y-75057000D01*
X110490000Y-73406000D02*
X112268000Y-73406000D01*
X112268000Y-73406000D02*
X112268000Y-69088000D01*
X112268000Y-69088000D02*
X110490000Y-69088000D01*
X110490000Y-69088000D02*
X110490000Y-73406000D01*
X114173000Y-68961000D02*
X114173000Y-67310000D01*
X114173000Y-73279000D02*
X114173000Y-74930000D01*
X113284000Y-73279000D02*
X115062000Y-73279000D01*
X115062000Y-73279000D02*
X115062000Y-68961000D01*
X115062000Y-68961000D02*
X113284000Y-68961000D01*
X113284000Y-68961000D02*
X113284000Y-73279000D01*
X163449000Y-81661000D02*
X163449000Y-83312000D01*
X163449000Y-77343000D02*
X163449000Y-75692000D01*
X164338000Y-77343000D02*
X162560000Y-77343000D01*
X162560000Y-77343000D02*
X162560000Y-81661000D01*
X162560000Y-81661000D02*
X164338000Y-81661000D01*
X164338000Y-81661000D02*
X164338000Y-77343000D01*
D12*
X109254000Y-69206000D02*
X109254000Y-65606000D01*
X107154000Y-69206000D02*
X107154000Y-65606000D01*
X107904000Y-67156000D02*
X108504000Y-67156000D01*
X108504000Y-67156000D02*
X108204000Y-67456000D01*
X108204000Y-67456000D02*
X108004000Y-67256000D01*
X108004000Y-67256000D02*
X108254000Y-67256000D01*
X108254000Y-67256000D02*
X108204000Y-67306000D01*
X107704000Y-67556000D02*
X108704000Y-67556000D01*
X108204000Y-67056000D02*
X108204000Y-66556000D01*
X108204000Y-67556000D02*
X107704000Y-67056000D01*
X107704000Y-67056000D02*
X108704000Y-67056000D01*
X108704000Y-67056000D02*
X108204000Y-67556000D01*
X106587000Y-69206000D02*
X106587000Y-65606000D01*
X104487000Y-69206000D02*
X104487000Y-65606000D01*
X105237000Y-67156000D02*
X105837000Y-67156000D01*
X105837000Y-67156000D02*
X105537000Y-67456000D01*
X105537000Y-67456000D02*
X105337000Y-67256000D01*
X105337000Y-67256000D02*
X105587000Y-67256000D01*
X105587000Y-67256000D02*
X105537000Y-67306000D01*
X105037000Y-67556000D02*
X106037000Y-67556000D01*
X105537000Y-67056000D02*
X105537000Y-66556000D01*
X105537000Y-67556000D02*
X105037000Y-67056000D01*
X105037000Y-67056000D02*
X106037000Y-67056000D01*
X106037000Y-67056000D02*
X105537000Y-67556000D01*
D13*
X107873800Y-61620400D02*
X106121200Y-63373000D01*
X106121200Y-63373000D02*
X104368600Y-61620400D01*
X107873800Y-49580800D02*
X106121200Y-47828200D01*
X106121200Y-47828200D02*
X104368600Y-49580800D01*
X106121200Y-49580800D02*
X95808800Y-49580800D01*
X95808800Y-49580800D02*
X95808800Y-61620400D01*
X95808800Y-61620400D02*
X106121200Y-61620400D01*
X106121200Y-61620400D02*
X111836200Y-61620400D01*
X111836200Y-61620400D02*
X111836200Y-49580800D01*
X111836200Y-49580800D02*
X106121200Y-49580800D01*
D12*
X109079000Y-71917000D02*
X109079000Y-73117000D01*
X107329000Y-73117000D02*
X107329000Y-71917000D01*
X106412000Y-71917000D02*
X106412000Y-73117000D01*
X104662000Y-73117000D02*
X104662000Y-71917000D01*
D14*
X123840000Y-99920000D02*
X123840000Y-100320000D01*
X120340000Y-99920000D02*
X120340000Y-100320000D01*
X109840000Y-99920000D02*
X109840000Y-100320000D01*
X113340000Y-99920000D02*
X113340000Y-100320000D01*
X116840000Y-99920000D02*
X116840000Y-100320000D01*
X106340000Y-98820000D02*
X127340000Y-98820000D01*
X106340000Y-99920000D02*
X127340000Y-99920000D01*
X106340000Y-92720000D02*
X106340000Y-100320000D01*
X127340000Y-100320000D02*
X127340000Y-92720000D01*
X127340000Y-92720000D02*
X106340000Y-92720000D01*
X149542500Y-103153000D02*
X149542500Y-102753000D01*
X153042500Y-104253000D02*
X146042500Y-104253000D01*
X153042500Y-103153000D02*
X146042500Y-103153000D01*
X153042500Y-110353000D02*
X153042500Y-102753000D01*
X146042500Y-102753000D02*
X146042500Y-110353000D01*
X146042500Y-110353000D02*
X153042500Y-110353000D01*
X175485000Y-56930000D02*
X175885000Y-56930000D01*
X175485000Y-60430000D02*
X175885000Y-60430000D01*
X175485000Y-67530000D02*
X175885000Y-67530000D01*
X175485000Y-64030000D02*
X175885000Y-64030000D01*
X174385000Y-71030000D02*
X174385000Y-53430000D01*
X175485000Y-71030000D02*
X175485000Y-53430000D01*
X168285000Y-71030000D02*
X175885000Y-71030000D01*
X175885000Y-53430000D02*
X168285000Y-53430000D01*
X168285000Y-53430000D02*
X168285000Y-71030000D01*
X159991000Y-119033000D02*
X160391000Y-119033000D01*
X159991000Y-122533000D02*
X160391000Y-122533000D01*
X159991000Y-129633000D02*
X160391000Y-129633000D01*
X159991000Y-126133000D02*
X160391000Y-126133000D01*
X158891000Y-133133000D02*
X158891000Y-115533000D01*
X159991000Y-133133000D02*
X159991000Y-115533000D01*
X152791000Y-133133000D02*
X160391000Y-133133000D01*
X160391000Y-115533000D02*
X152791000Y-115533000D01*
X152791000Y-115533000D02*
X152791000Y-133133000D01*
X98425000Y-117475000D02*
X97917000Y-117475000D01*
X98425000Y-125349000D02*
X97917000Y-125349000D01*
X98425000Y-117475000D02*
X98425000Y-125349000D01*
X98171000Y-117475000D02*
X98171000Y-125349000D01*
X97917000Y-125349000D02*
X97917000Y-117475000D01*
X97790000Y-128524000D02*
X110744000Y-128524000D01*
X110744000Y-128524000D02*
X110744000Y-114300000D01*
X110744000Y-114300000D02*
X97790000Y-114300000D01*
X97790000Y-114300000D02*
X97790000Y-128524000D01*
X120142000Y-101600000D02*
X120142000Y-101092000D01*
X112268000Y-101600000D02*
X112268000Y-101092000D01*
X120142000Y-101600000D02*
X112268000Y-101600000D01*
X120142000Y-101346000D02*
X112268000Y-101346000D01*
X112268000Y-101092000D02*
X120142000Y-101092000D01*
X109093000Y-100965000D02*
X109093000Y-113919000D01*
X109093000Y-113919000D02*
X123317000Y-113919000D01*
X123317000Y-113919000D02*
X123317000Y-100965000D01*
X123317000Y-100965000D02*
X109093000Y-100965000D01*
D12*
X164592000Y-52451000D02*
X167132000Y-52451000D01*
X161772000Y-52171000D02*
X163322000Y-52171000D01*
X164592000Y-52451000D02*
X164592000Y-54991000D01*
X163322000Y-55271000D02*
X161772000Y-55271000D01*
X161772000Y-55271000D02*
X161772000Y-52171000D01*
X164592000Y-54991000D02*
X167132000Y-54991000D01*
X167132000Y-54991000D02*
X167132000Y-52451000D01*
D13*
X150495000Y-58420000D02*
X150495000Y-56769000D01*
X150495000Y-62738000D02*
X150495000Y-64389000D01*
X149606000Y-62738000D02*
X151384000Y-62738000D01*
X151384000Y-62738000D02*
X151384000Y-58420000D01*
X151384000Y-58420000D02*
X149606000Y-58420000D01*
X149606000Y-58420000D02*
X149606000Y-62738000D01*
X161798000Y-61976000D02*
X163449000Y-61976000D01*
X157480000Y-61976000D02*
X155829000Y-61976000D01*
X157480000Y-61087000D02*
X157480000Y-62865000D01*
X157480000Y-62865000D02*
X161798000Y-62865000D01*
X161798000Y-62865000D02*
X161798000Y-61087000D01*
X161798000Y-61087000D02*
X157480000Y-61087000D01*
X161798000Y-59436000D02*
X163449000Y-59436000D01*
X157480000Y-59436000D02*
X155829000Y-59436000D01*
X157480000Y-58547000D02*
X157480000Y-60325000D01*
X157480000Y-60325000D02*
X161798000Y-60325000D01*
X161798000Y-60325000D02*
X161798000Y-58547000D01*
X161798000Y-58547000D02*
X157480000Y-58547000D01*
D14*
X200250000Y-114412000D02*
X200650000Y-114412000D01*
X200250000Y-117912000D02*
X200650000Y-117912000D01*
X200250000Y-128412000D02*
X200650000Y-128412000D01*
X200250000Y-124912000D02*
X200650000Y-124912000D01*
X200250000Y-121412000D02*
X200650000Y-121412000D01*
X199150000Y-131912000D02*
X199150000Y-110912000D01*
X200250000Y-131912000D02*
X200250000Y-110912000D01*
X193050000Y-131912000D02*
X200650000Y-131912000D01*
X200650000Y-110912000D02*
X193050000Y-110912000D01*
X193050000Y-110912000D02*
X193050000Y-131912000D01*
D12*
X138665800Y-47056200D02*
X133585800Y-47056200D01*
X133585800Y-47056200D02*
X133585800Y-49596200D01*
X133585800Y-49596200D02*
X138665800Y-49596200D01*
X141485800Y-49876200D02*
X139935800Y-49876200D01*
X138665800Y-49596200D02*
X138665800Y-47056200D01*
X139935800Y-46776200D02*
X141485800Y-46776200D01*
X141485800Y-46776200D02*
X141485800Y-49876200D01*
D14*
X186690000Y-117475000D02*
X186690000Y-103251000D01*
X186690000Y-103251000D02*
X184404000Y-103251000D01*
X169926000Y-117475000D02*
X169926000Y-103251000D01*
X169926000Y-103251000D02*
X172212000Y-103251000D01*
X186563000Y-117448000D02*
X170053000Y-117448000D01*
X184404000Y-103224000D02*
X172212000Y-103224000D01*
X169799000Y-125476000D02*
X169799000Y-139700000D01*
X169799000Y-139700000D02*
X172085000Y-139700000D01*
X186563000Y-125476000D02*
X186563000Y-139700000D01*
X186563000Y-139700000D02*
X184277000Y-139700000D01*
X169926000Y-125503000D02*
X186436000Y-125503000D01*
X172085000Y-139727000D02*
X184277000Y-139727000D01*
X132618000Y-125878000D02*
X132618000Y-140102000D01*
X132618000Y-140102000D02*
X134904000Y-140102000D01*
X149382000Y-125878000D02*
X149382000Y-140102000D01*
X149382000Y-140102000D02*
X147096000Y-140102000D01*
X132745000Y-125905000D02*
X149255000Y-125905000D01*
X134904000Y-140129000D02*
X147096000Y-140129000D01*
D12*
X192405000Y-131572000D02*
X192405000Y-111252000D01*
X187325000Y-113792000D02*
X187325000Y-131572000D01*
X192405000Y-131572000D02*
X187325000Y-131572000D01*
X192405000Y-111252000D02*
X189865000Y-111252000D01*
X188595000Y-110972000D02*
X187045000Y-110972000D01*
X189865000Y-111252000D02*
X189865000Y-113792000D01*
X189865000Y-113792000D02*
X187325000Y-113792000D01*
X187045000Y-110972000D02*
X187045000Y-112522000D01*
X167640000Y-116713000D02*
X167640000Y-129413000D01*
X167640000Y-129413000D02*
X165100000Y-129413000D01*
X165100000Y-129413000D02*
X165100000Y-116713000D01*
X167920000Y-113893000D02*
X167920000Y-115443000D01*
X167640000Y-116713000D02*
X165100000Y-116713000D01*
X164820000Y-115443000D02*
X164820000Y-113893000D01*
X164820000Y-113893000D02*
X167920000Y-113893000D01*
X179806472Y-46609000D02*
G75*
G03X179806472Y-46609000I-2514472J0D01*
G01*
X164211000Y-44069000D02*
X162433000Y-44069000D01*
X164211000Y-46609000D02*
X162433000Y-46609000D01*
X164211000Y-49149000D02*
X162433000Y-49149000D01*
X172720000Y-51943000D02*
X180721000Y-51943000D01*
X180721000Y-51943000D02*
X180721000Y-41275000D01*
X180721000Y-41275000D02*
X172720000Y-41275000D01*
X164211000Y-51943000D02*
X172720000Y-51943000D01*
X172720000Y-51943000D02*
X172720000Y-41275000D01*
X172720000Y-41275000D02*
X164211000Y-41275000D01*
X164211000Y-46609000D02*
X164211000Y-41275000D01*
X164211000Y-46609000D02*
X164211000Y-51943000D01*
X176847500Y-99441000D02*
X184467500Y-99441000D01*
X176847500Y-96901000D02*
X184467500Y-96901000D01*
X174027500Y-96621000D02*
X175577500Y-96621000D01*
X184467500Y-99441000D02*
X184467500Y-96901000D01*
X176847500Y-96901000D02*
X176847500Y-99441000D01*
X175577500Y-99721000D02*
X174027500Y-99721000D01*
X174027500Y-99721000D02*
X174027500Y-96621000D01*
D14*
X172310000Y-87652000D02*
X172710000Y-87652000D01*
X172310000Y-84052000D02*
X172710000Y-84052000D01*
X171210000Y-91152000D02*
X171210000Y-80552000D01*
X172310000Y-91152000D02*
X172310000Y-80552000D01*
X165110000Y-91152000D02*
X172710000Y-91152000D01*
X172710000Y-80552000D02*
X165110000Y-80552000D01*
X165110000Y-80552000D02*
X165110000Y-91152000D01*
X172310000Y-76835000D02*
X172710000Y-76835000D01*
X171210000Y-80335000D02*
X171210000Y-73335000D01*
X172310000Y-80335000D02*
X172310000Y-73335000D01*
X165110000Y-80335000D02*
X172710000Y-80335000D01*
X172710000Y-73335000D02*
X165110000Y-73335000D01*
X165110000Y-73335000D02*
X165110000Y-80335000D01*
D12*
X146006500Y-84197000D02*
X146006500Y-81197000D01*
X148506500Y-81197000D02*
X148506500Y-84197000D01*
X135509000Y-52070000D02*
X155829000Y-52070000D01*
X155829000Y-52070000D02*
X155829000Y-54610000D01*
X155829000Y-54610000D02*
X135509000Y-54610000D01*
X132689000Y-51790000D02*
X134239000Y-51790000D01*
X135509000Y-52070000D02*
X135509000Y-54610000D01*
X134239000Y-54890000D02*
X132689000Y-54890000D01*
X132689000Y-54890000D02*
X132689000Y-51790000D01*
D13*
X137858500Y-56324500D02*
X136207500Y-56324500D01*
X142176500Y-56324500D02*
X143827500Y-56324500D01*
X142176500Y-57213500D02*
X142176500Y-55435500D01*
X142176500Y-55435500D02*
X137858500Y-55435500D01*
X137858500Y-55435500D02*
X137858500Y-57213500D01*
X137858500Y-57213500D02*
X142176500Y-57213500D01*
D12*
X149656800Y-113512600D02*
X149656800Y-118592600D01*
X149656800Y-118592600D02*
X152196800Y-118592600D01*
X152196800Y-118592600D02*
X152196800Y-113512600D01*
X152476800Y-110692600D02*
X152476800Y-112242600D01*
X152196800Y-113512600D02*
X149656800Y-113512600D01*
X149376800Y-112242600D02*
X149376800Y-110692600D01*
X149376800Y-110692600D02*
X152476800Y-110692600D01*
D15*
X157353000Y-74168000D02*
X157353000Y-75057000D01*
D13*
X150749000Y-74041000D02*
X150749000Y-75057000D01*
D15*
X157480000Y-86233000D02*
X157480000Y-85217000D01*
D13*
X150749000Y-86233000D02*
X150749000Y-85217000D01*
X155321000Y-78105000D02*
X155321000Y-82169000D01*
X152781000Y-82169000D02*
X152781000Y-78105000D01*
X159131000Y-75057000D02*
X159131000Y-85217000D01*
X148971000Y-75057000D02*
X148971000Y-85217000D01*
X154051000Y-83947000D02*
G75*
G03X152781000Y-85217000I0J-1270000D01*
G01*
X155321000Y-85217000D02*
G75*
G03X154051000Y-83947000I-1270000J0D01*
G01*
X155321000Y-85217000D02*
X155321000Y-86233000D01*
X152781000Y-85217000D02*
X152781000Y-86233000D01*
X152781000Y-82169000D02*
X155321000Y-82169000D01*
X155321000Y-78105000D02*
X152781000Y-78105000D01*
X148971000Y-75057000D02*
X159131000Y-75057000D01*
X159131000Y-85217000D02*
X148971000Y-85217000D01*
X150749000Y-74041000D02*
X157353000Y-74041000D01*
X157353000Y-86233000D02*
X150749000Y-86233000D01*
D15*
X125349000Y-85344000D02*
X124460000Y-85344000D01*
D13*
X125476000Y-78740000D02*
X124460000Y-78740000D01*
D15*
X113284000Y-85471000D02*
X114300000Y-85471000D01*
D13*
X113284000Y-78740000D02*
X114300000Y-78740000D01*
X121412000Y-83312000D02*
X117348000Y-83312000D01*
X117348000Y-80772000D02*
X121412000Y-80772000D01*
X124460000Y-87122000D02*
X114300000Y-87122000D01*
X124460000Y-76962000D02*
X114300000Y-76962000D01*
X115570000Y-82042000D02*
G75*
G03X114300000Y-80772000I-1270000J0D01*
G01*
X114300000Y-83312000D02*
G75*
G03X115570000Y-82042000I0J1270000D01*
G01*
X114300000Y-83312000D02*
X113284000Y-83312000D01*
X114300000Y-80772000D02*
X113284000Y-80772000D01*
X117348000Y-80772000D02*
X117348000Y-83312000D01*
X121412000Y-83312000D02*
X121412000Y-80772000D01*
X124460000Y-76962000D02*
X124460000Y-87122000D01*
X114300000Y-87122000D02*
X114300000Y-76962000D01*
X125476000Y-78740000D02*
X125476000Y-85344000D01*
X113284000Y-85344000D02*
X113284000Y-78740000D01*
D15*
X100012500Y-78803500D02*
X100901500Y-78803500D01*
D13*
X99885500Y-85407500D02*
X100901500Y-85407500D01*
D15*
X112077500Y-78676500D02*
X111061500Y-78676500D01*
D13*
X112077500Y-85407500D02*
X111061500Y-85407500D01*
X103949500Y-80835500D02*
X108013500Y-80835500D01*
X108013500Y-83375500D02*
X103949500Y-83375500D01*
X100901500Y-77025500D02*
X111061500Y-77025500D01*
X100901500Y-87185500D02*
X111061500Y-87185500D01*
X109791500Y-82105500D02*
G75*
G03X111061500Y-83375500I1270000J0D01*
G01*
X111061500Y-80835500D02*
G75*
G03X109791500Y-82105500I0J-1270000D01*
G01*
X111061500Y-80835500D02*
X112077500Y-80835500D01*
X111061500Y-83375500D02*
X112077500Y-83375500D01*
X108013500Y-83375500D02*
X108013500Y-80835500D01*
X103949500Y-80835500D02*
X103949500Y-83375500D01*
X100901500Y-87185500D02*
X100901500Y-77025500D01*
X111061500Y-77025500D02*
X111061500Y-87185500D01*
X99885500Y-85407500D02*
X99885500Y-78803500D01*
X112077500Y-78803500D02*
X112077500Y-85407500D01*
D15*
X139319000Y-75565000D02*
X139319000Y-76454000D01*
D13*
X132715000Y-75438000D02*
X132715000Y-76454000D01*
D15*
X139446000Y-87630000D02*
X139446000Y-86614000D01*
D13*
X132715000Y-87630000D02*
X132715000Y-86614000D01*
X137287000Y-79502000D02*
X137287000Y-83566000D01*
X134747000Y-83566000D02*
X134747000Y-79502000D01*
X141097000Y-76454000D02*
X141097000Y-86614000D01*
X130937000Y-76454000D02*
X130937000Y-86614000D01*
X136017000Y-85344000D02*
G75*
G03X134747000Y-86614000I0J-1270000D01*
G01*
X137287000Y-86614000D02*
G75*
G03X136017000Y-85344000I-1270000J0D01*
G01*
X137287000Y-86614000D02*
X137287000Y-87630000D01*
X134747000Y-86614000D02*
X134747000Y-87630000D01*
X134747000Y-83566000D02*
X137287000Y-83566000D01*
X137287000Y-79502000D02*
X134747000Y-79502000D01*
X130937000Y-76454000D02*
X141097000Y-76454000D01*
X141097000Y-86614000D02*
X130937000Y-86614000D01*
X132715000Y-75438000D02*
X139319000Y-75438000D01*
X139319000Y-87630000D02*
X132715000Y-87630000D01*
D15*
X139319000Y-88138000D02*
X139319000Y-89027000D01*
D13*
X132715000Y-88011000D02*
X132715000Y-89027000D01*
D15*
X139446000Y-100203000D02*
X139446000Y-99187000D01*
D13*
X132715000Y-100203000D02*
X132715000Y-99187000D01*
X137287000Y-92075000D02*
X137287000Y-96139000D01*
X134747000Y-96139000D02*
X134747000Y-92075000D01*
X141097000Y-89027000D02*
X141097000Y-99187000D01*
X130937000Y-89027000D02*
X130937000Y-99187000D01*
X136017000Y-97917000D02*
G75*
G03X134747000Y-99187000I0J-1270000D01*
G01*
X137287000Y-99187000D02*
G75*
G03X136017000Y-97917000I-1270000J0D01*
G01*
X137287000Y-99187000D02*
X137287000Y-100203000D01*
X134747000Y-99187000D02*
X134747000Y-100203000D01*
X134747000Y-96139000D02*
X137287000Y-96139000D01*
X137287000Y-92075000D02*
X134747000Y-92075000D01*
X130937000Y-89027000D02*
X141097000Y-89027000D01*
X141097000Y-99187000D02*
X130937000Y-99187000D01*
X132715000Y-88011000D02*
X139319000Y-88011000D01*
X139319000Y-100203000D02*
X132715000Y-100203000D01*
D15*
X150622000Y-100203000D02*
X150622000Y-99314000D01*
D13*
X157226000Y-100330000D02*
X157226000Y-99314000D01*
D15*
X150495000Y-88138000D02*
X150495000Y-89154000D01*
D13*
X157226000Y-88138000D02*
X157226000Y-89154000D01*
X152654000Y-96266000D02*
X152654000Y-92202000D01*
X155194000Y-92202000D02*
X155194000Y-96266000D01*
X148844000Y-99314000D02*
X148844000Y-89154000D01*
X159004000Y-99314000D02*
X159004000Y-89154000D01*
X153924000Y-90424000D02*
G75*
G03X155194000Y-89154000I0J1270000D01*
G01*
X152654000Y-89154000D02*
G75*
G03X153924000Y-90424000I1270000J0D01*
G01*
X152654000Y-89154000D02*
X152654000Y-88138000D01*
X155194000Y-89154000D02*
X155194000Y-88138000D01*
X155194000Y-92202000D02*
X152654000Y-92202000D01*
X152654000Y-96266000D02*
X155194000Y-96266000D01*
X159004000Y-99314000D02*
X148844000Y-99314000D01*
X148844000Y-89154000D02*
X159004000Y-89154000D01*
X157226000Y-100330000D02*
X150622000Y-100330000D01*
X150622000Y-88138000D02*
X157226000Y-88138000D01*
D12*
X183085740Y-43507660D02*
X183085740Y-43309540D01*
X183085740Y-43309540D02*
X183283860Y-43309540D01*
X183283860Y-43507660D02*
X183283860Y-43309540D01*
X183085740Y-43507660D02*
X183283860Y-43507660D01*
X182486300Y-42959020D02*
X182486300Y-42611040D01*
X182486300Y-42611040D02*
X182735220Y-42611040D01*
X182735220Y-42959020D02*
X182735220Y-42611040D01*
X182486300Y-42959020D02*
X182735220Y-42959020D01*
X182486300Y-42611040D02*
X182486300Y-42509440D01*
X182486300Y-42509440D02*
X183682640Y-42509440D01*
X183682640Y-42611040D02*
X183682640Y-42509440D01*
X182486300Y-42611040D02*
X183682640Y-42611040D01*
X183733440Y-42611040D02*
X183733440Y-42509440D01*
X183733440Y-42509440D02*
X183883300Y-42509440D01*
X183883300Y-42611040D02*
X183883300Y-42509440D01*
X183733440Y-42611040D02*
X183883300Y-42611040D01*
X182486300Y-44307760D02*
X182486300Y-44206160D01*
X182486300Y-44206160D02*
X183682640Y-44206160D01*
X183682640Y-44307760D02*
X183682640Y-44206160D01*
X182486300Y-44307760D02*
X183682640Y-44307760D01*
X183733440Y-44307760D02*
X183733440Y-44206160D01*
X183733440Y-44206160D02*
X183883300Y-44206160D01*
X183883300Y-44307760D02*
X183883300Y-44206160D01*
X183733440Y-44307760D02*
X183883300Y-44307760D01*
X182486300Y-42959020D02*
X182486300Y-42809160D01*
X182486300Y-42809160D02*
X182735220Y-42809160D01*
X182735220Y-42959020D02*
X182735220Y-42809160D01*
X182486300Y-42959020D02*
X182735220Y-42959020D01*
X182435500Y-41859200D02*
X182435500Y-44958000D01*
X182435500Y-44958000D02*
X183934100Y-44958000D01*
X183934100Y-44958000D02*
X183934100Y-41859200D01*
X183934100Y-41859200D02*
X182435500Y-41859200D01*
X182685446Y-43955862D02*
G75*
G02X182686960Y-42859960I499354J547262D01*
G01*
X183683198Y-43956733D02*
G75*
G02X182686960Y-43957240I-498398J548133D01*
G01*
X183684154Y-42861338D02*
G75*
G02X183682640Y-43957240I-499354J-547262D01*
G01*
X182686402Y-42860467D02*
G75*
G02X183682640Y-42859960I498398J-548133D01*
G01*
X182309800Y-49774400D02*
X182309800Y-48574400D01*
X184059800Y-48574400D02*
X184059800Y-49774400D01*
X169478400Y-91581000D02*
X170678400Y-91581000D01*
X170678400Y-93331000D02*
X169478400Y-93331000D01*
X182432400Y-90361800D02*
X183632400Y-90361800D01*
X183632400Y-92111800D02*
X182432400Y-92111800D01*
D15*
X147828000Y-66294000D02*
X146939000Y-66294000D01*
D13*
X147955000Y-59690000D02*
X146939000Y-59690000D01*
D15*
X135763000Y-66421000D02*
X136779000Y-66421000D01*
D13*
X135763000Y-59690000D02*
X136779000Y-59690000D01*
X143891000Y-64262000D02*
X139827000Y-64262000D01*
X139827000Y-61722000D02*
X143891000Y-61722000D01*
X146939000Y-68072000D02*
X136779000Y-68072000D01*
X146939000Y-57912000D02*
X136779000Y-57912000D01*
X138049000Y-62992000D02*
G75*
G03X136779000Y-61722000I-1270000J0D01*
G01*
X136779000Y-64262000D02*
G75*
G03X138049000Y-62992000I0J1270000D01*
G01*
X136779000Y-64262000D02*
X135763000Y-64262000D01*
X136779000Y-61722000D02*
X135763000Y-61722000D01*
X139827000Y-61722000D02*
X139827000Y-64262000D01*
X143891000Y-64262000D02*
X143891000Y-61722000D01*
X146939000Y-57912000D02*
X146939000Y-68072000D01*
X136779000Y-68072000D02*
X136779000Y-57912000D01*
X147955000Y-59690000D02*
X147955000Y-66294000D01*
X135763000Y-66294000D02*
X135763000Y-59690000D01*
D12*
X188921000Y-47149200D02*
X188921000Y-47349200D01*
X188921000Y-49743200D02*
X188921000Y-49563200D01*
X185693256Y-49432843D02*
G75*
G03X188921000Y-49749200I1727744J1003643D01*
G01*
X186368994Y-49562268D02*
G75*
G03X188472000Y-49563200I1052006J1133068D01*
G01*
X188908220Y-47122474D02*
G75*
G03X185671000Y-47469200I-1497220J-1306726D01*
G01*
X188434889Y-47349947D02*
G75*
G03X186387000Y-47369200I-1013889J-1079253D01*
G01*
D13*
X181279800Y-52374800D02*
X179628800Y-52374800D01*
X185597800Y-52374800D02*
X187248800Y-52374800D01*
X185597800Y-53263800D02*
X185597800Y-51485800D01*
X185597800Y-51485800D02*
X181279800Y-51485800D01*
X181279800Y-51485800D02*
X181279800Y-53263800D01*
X181279800Y-53263800D02*
X185597800Y-53263800D01*
X125270000Y-57888000D02*
X125270000Y-72112000D01*
X122730000Y-72112000D02*
X122730000Y-57888000D01*
X118920000Y-54840000D02*
X118920000Y-75160000D01*
X129080000Y-75160000D02*
X129080000Y-54840000D01*
X124000000Y-73890000D02*
G75*
G03X122730000Y-75160000I0J-1270000D01*
G01*
X125270000Y-75160000D02*
G75*
G03X124000000Y-73890000I-1270000J0D01*
G01*
X125270000Y-75160000D02*
X125270000Y-76176000D01*
X122730000Y-75160000D02*
X122730000Y-76176000D01*
X122730000Y-72112000D02*
X125270000Y-72112000D01*
X125270000Y-57888000D02*
X122730000Y-57888000D01*
X118920000Y-54840000D02*
X129080000Y-54840000D01*
X129080000Y-75160000D02*
X118920000Y-75160000D01*
X120698000Y-53824000D02*
X127302000Y-53824000D01*
X127302000Y-76176000D02*
X120698000Y-76176000D01*
D12*
X129200000Y-72525500D02*
X134198000Y-72525500D01*
X129208000Y-72385500D02*
X134190000Y-72385500D01*
X129224000Y-72245500D02*
X131604000Y-72245500D01*
X131794000Y-72245500D02*
X134174000Y-72245500D01*
X129248000Y-72105500D02*
X131209000Y-72105500D01*
X132189000Y-72105500D02*
X134150000Y-72105500D01*
X129281000Y-71965500D02*
X131042000Y-71965500D01*
X132356000Y-71965500D02*
X134117000Y-71965500D01*
X129322000Y-71825500D02*
X130935000Y-71825500D01*
X132463000Y-71825500D02*
X134076000Y-71825500D01*
X129372000Y-71685500D02*
X130864000Y-71685500D01*
X132534000Y-71685500D02*
X134026000Y-71685500D01*
X129433000Y-71545500D02*
X130820000Y-71545500D01*
X132578000Y-71545500D02*
X133965000Y-71545500D01*
X129503000Y-71405500D02*
X130801000Y-71405500D01*
X132597000Y-71405500D02*
X133895000Y-71405500D01*
X129585000Y-71265500D02*
X130803000Y-71265500D01*
X132595000Y-71265500D02*
X133813000Y-71265500D01*
X129680000Y-71125500D02*
X130828000Y-71125500D01*
X132570000Y-71125500D02*
X133718000Y-71125500D01*
X129791000Y-70985500D02*
X130876000Y-70985500D01*
X132522000Y-70985500D02*
X133607000Y-70985500D01*
X129919000Y-70845500D02*
X130954000Y-70845500D01*
X132444000Y-70845500D02*
X133479000Y-70845500D01*
X130068000Y-70705500D02*
X131071000Y-70705500D01*
X132327000Y-70705500D02*
X133330000Y-70705500D01*
X130247000Y-70565500D02*
X131259000Y-70565500D01*
X132139000Y-70565500D02*
X133151000Y-70565500D01*
X130466000Y-70425500D02*
X132932000Y-70425500D01*
X130755000Y-70285500D02*
X132643000Y-70285500D01*
X131227000Y-70145500D02*
X132171000Y-70145500D01*
X132599000Y-71350500D02*
G75*
G03X132599000Y-71350500I-900000J0D01*
G01*
X134236500Y-72600500D02*
G75*
G03X134236500Y-72600500I-2537500J0D01*
G01*
D16*
X158822571Y-57527976D02*
X158399238Y-56862738D01*
X158096857Y-57527976D02*
X158096857Y-56130976D01*
X158580666Y-56130976D01*
X158701619Y-56197500D01*
X158762095Y-56264024D01*
X158822571Y-56397071D01*
X158822571Y-56596643D01*
X158762095Y-56729690D01*
X158701619Y-56796214D01*
X158580666Y-56862738D01*
X158096857Y-56862738D01*
X159306381Y-56264024D02*
X159366857Y-56197500D01*
X159487809Y-56130976D01*
X159790190Y-56130976D01*
X159911143Y-56197500D01*
X159971619Y-56264024D01*
X160032095Y-56397071D01*
X160032095Y-56530119D01*
X159971619Y-56729690D01*
X159245905Y-57527976D01*
X160032095Y-57527976D01*
X160455429Y-56130976D02*
X161241619Y-56130976D01*
X160818286Y-56663167D01*
X160999714Y-56663167D01*
X161120667Y-56729690D01*
X161181143Y-56796214D01*
X161241619Y-56929262D01*
X161241619Y-57261881D01*
X161181143Y-57394929D01*
X161120667Y-57461452D01*
X160999714Y-57527976D01*
X160636857Y-57527976D01*
X160515905Y-57461452D01*
X160455429Y-57394929D01*
D17*
X137468428Y-104804029D02*
X137468428Y-103280029D01*
X138049000Y-103280029D01*
X138194142Y-103352600D01*
X138266714Y-103425171D01*
X138339285Y-103570314D01*
X138339285Y-103788029D01*
X138266714Y-103933171D01*
X138194142Y-104005743D01*
X138049000Y-104078314D01*
X137468428Y-104078314D01*
X139790714Y-104804029D02*
X138919857Y-104804029D01*
X139355285Y-104804029D02*
X139355285Y-103280029D01*
X139210142Y-103497743D01*
X139065000Y-103642886D01*
X138919857Y-103715457D01*
X140661571Y-103933171D02*
X140516429Y-103860600D01*
X140443857Y-103788029D01*
X140371286Y-103642886D01*
X140371286Y-103570314D01*
X140443857Y-103425171D01*
X140516429Y-103352600D01*
X140661571Y-103280029D01*
X140951857Y-103280029D01*
X141097000Y-103352600D01*
X141169571Y-103425171D01*
X141242143Y-103570314D01*
X141242143Y-103642886D01*
X141169571Y-103788029D01*
X141097000Y-103860600D01*
X140951857Y-103933171D01*
X140661571Y-103933171D01*
X140516429Y-104005743D01*
X140443857Y-104078314D01*
X140371286Y-104223457D01*
X140371286Y-104513743D01*
X140443857Y-104658886D01*
X140516429Y-104731457D01*
X140661571Y-104804029D01*
X140951857Y-104804029D01*
X141097000Y-104731457D01*
X141169571Y-104658886D01*
X141242143Y-104513743D01*
X141242143Y-104223457D01*
X141169571Y-104078314D01*
X141097000Y-104005743D01*
X140951857Y-103933171D01*
X119430800Y-135944429D02*
X119430800Y-137033000D01*
X119358228Y-137250714D01*
X119213085Y-137395857D01*
X118995371Y-137468429D01*
X118850228Y-137468429D01*
X120954800Y-137468429D02*
X120083943Y-137468429D01*
X120519371Y-137468429D02*
X120519371Y-135944429D01*
X120374228Y-136162143D01*
X120229086Y-136307286D01*
X120083943Y-136379857D01*
D12*
X131139643Y-62640643D02*
X131092024Y-62688262D01*
X130949167Y-62735881D01*
X130853929Y-62735881D01*
X130711071Y-62688262D01*
X130615833Y-62593024D01*
X130568214Y-62497786D01*
X130520595Y-62307310D01*
X130520595Y-62164452D01*
X130568214Y-61973976D01*
X130615833Y-61878738D01*
X130711071Y-61783500D01*
X130853929Y-61735881D01*
X130949167Y-61735881D01*
X131092024Y-61783500D01*
X131139643Y-61831119D01*
X132092024Y-62735881D02*
X131520595Y-62735881D01*
X131806309Y-62735881D02*
X131806309Y-61735881D01*
X131711071Y-61878738D01*
X131615833Y-61973976D01*
X131520595Y-62021595D01*
X132996786Y-61735881D02*
X132520595Y-61735881D01*
X132472976Y-62212071D01*
X132520595Y-62164452D01*
X132615833Y-62116833D01*
X132853929Y-62116833D01*
X132949167Y-62164452D01*
X132996786Y-62212071D01*
X133044405Y-62307310D01*
X133044405Y-62545405D01*
X132996786Y-62640643D01*
X132949167Y-62688262D01*
X132853929Y-62735881D01*
X132615833Y-62735881D01*
X132520595Y-62688262D01*
X132472976Y-62640643D01*
X128891143Y-64289857D02*
X128938762Y-64337476D01*
X128986381Y-64480333D01*
X128986381Y-64575571D01*
X128938762Y-64718429D01*
X128843524Y-64813667D01*
X128748286Y-64861286D01*
X128557810Y-64908905D01*
X128414952Y-64908905D01*
X128224476Y-64861286D01*
X128129238Y-64813667D01*
X128034000Y-64718429D01*
X127986381Y-64575571D01*
X127986381Y-64480333D01*
X128034000Y-64337476D01*
X128081619Y-64289857D01*
X128986381Y-63337476D02*
X128986381Y-63908905D01*
X128986381Y-63623191D02*
X127986381Y-63623191D01*
X128129238Y-63718429D01*
X128224476Y-63813667D01*
X128272095Y-63908905D01*
X127986381Y-63004143D02*
X127986381Y-62385095D01*
X128367333Y-62718429D01*
X128367333Y-62575571D01*
X128414952Y-62480333D01*
X128462571Y-62432714D01*
X128557810Y-62385095D01*
X128795905Y-62385095D01*
X128891143Y-62432714D01*
X128938762Y-62480333D01*
X128986381Y-62575571D01*
X128986381Y-62861286D01*
X128938762Y-62956524D01*
X128891143Y-63004143D01*
X129780143Y-69242857D02*
X129827762Y-69290476D01*
X129875381Y-69433333D01*
X129875381Y-69528571D01*
X129827762Y-69671429D01*
X129732524Y-69766667D01*
X129637286Y-69814286D01*
X129446810Y-69861905D01*
X129303952Y-69861905D01*
X129113476Y-69814286D01*
X129018238Y-69766667D01*
X128923000Y-69671429D01*
X128875381Y-69528571D01*
X128875381Y-69433333D01*
X128923000Y-69290476D01*
X128970619Y-69242857D01*
X129875381Y-68290476D02*
X129875381Y-68861905D01*
X129875381Y-68576191D02*
X128875381Y-68576191D01*
X129018238Y-68671429D01*
X129113476Y-68766667D01*
X129161095Y-68861905D01*
X129208714Y-67433333D02*
X129875381Y-67433333D01*
X128827762Y-67671429D02*
X129542048Y-67909524D01*
X129542048Y-67290476D01*
X161170881Y-81002095D02*
X160170881Y-81002095D01*
X160170881Y-80764000D01*
X160218500Y-80621142D01*
X160313738Y-80525904D01*
X160408976Y-80478285D01*
X160599452Y-80430666D01*
X160742310Y-80430666D01*
X160932786Y-80478285D01*
X161028024Y-80525904D01*
X161123262Y-80621142D01*
X161170881Y-80764000D01*
X161170881Y-81002095D01*
X161170881Y-79478285D02*
X161170881Y-80049714D01*
X161170881Y-79764000D02*
X160170881Y-79764000D01*
X160313738Y-79859238D01*
X160408976Y-79954476D01*
X160456595Y-80049714D01*
X148042334Y-58904143D02*
X147994715Y-58951762D01*
X147851858Y-58999381D01*
X147756620Y-58999381D01*
X147613762Y-58951762D01*
X147518524Y-58856524D01*
X147470905Y-58761286D01*
X147423286Y-58570810D01*
X147423286Y-58427952D01*
X147470905Y-58237476D01*
X147518524Y-58142238D01*
X147613762Y-58047000D01*
X147756620Y-57999381D01*
X147851858Y-57999381D01*
X147994715Y-58047000D01*
X148042334Y-58094619D01*
X148994715Y-58999381D02*
X148423286Y-58999381D01*
X148709000Y-58999381D02*
X148709000Y-57999381D01*
X148613762Y-58142238D01*
X148518524Y-58237476D01*
X148423286Y-58285095D01*
X141438334Y-72493143D02*
X141390715Y-72540762D01*
X141247858Y-72588381D01*
X141152620Y-72588381D01*
X141009762Y-72540762D01*
X140914524Y-72445524D01*
X140866905Y-72350286D01*
X140819286Y-72159810D01*
X140819286Y-72016952D01*
X140866905Y-71826476D01*
X140914524Y-71731238D01*
X141009762Y-71636000D01*
X141152620Y-71588381D01*
X141247858Y-71588381D01*
X141390715Y-71636000D01*
X141438334Y-71683619D01*
X141819286Y-71683619D02*
X141866905Y-71636000D01*
X141962143Y-71588381D01*
X142200239Y-71588381D01*
X142295477Y-71636000D01*
X142343096Y-71683619D01*
X142390715Y-71778857D01*
X142390715Y-71874095D01*
X142343096Y-72016952D01*
X141771667Y-72588381D01*
X142390715Y-72588381D01*
X153741381Y-65381095D02*
X152741381Y-65381095D01*
X152741381Y-65000142D01*
X152789000Y-64904904D01*
X152836619Y-64857285D01*
X152931857Y-64809666D01*
X153074714Y-64809666D01*
X153169952Y-64857285D01*
X153217571Y-64904904D01*
X153265190Y-65000142D01*
X153265190Y-65381095D01*
X152741381Y-63904904D02*
X152741381Y-64381095D01*
X153217571Y-64428714D01*
X153169952Y-64381095D01*
X153122333Y-64285857D01*
X153122333Y-64047761D01*
X153169952Y-63952523D01*
X153217571Y-63904904D01*
X153312810Y-63857285D01*
X153550905Y-63857285D01*
X153646143Y-63904904D01*
X153693762Y-63952523D01*
X153741381Y-64047761D01*
X153741381Y-64285857D01*
X153693762Y-64381095D01*
X153646143Y-64428714D01*
X160210143Y-44469666D02*
X160257762Y-44517285D01*
X160305381Y-44660142D01*
X160305381Y-44755380D01*
X160257762Y-44898238D01*
X160162524Y-44993476D01*
X160067286Y-45041095D01*
X159876810Y-45088714D01*
X159733952Y-45088714D01*
X159543476Y-45041095D01*
X159448238Y-44993476D01*
X159353000Y-44898238D01*
X159305381Y-44755380D01*
X159305381Y-44660142D01*
X159353000Y-44517285D01*
X159400619Y-44469666D01*
X159305381Y-44136333D02*
X159305381Y-43517285D01*
X159686333Y-43850619D01*
X159686333Y-43707761D01*
X159733952Y-43612523D01*
X159781571Y-43564904D01*
X159876810Y-43517285D01*
X160114905Y-43517285D01*
X160210143Y-43564904D01*
X160257762Y-43612523D01*
X160305381Y-43707761D01*
X160305381Y-43993476D01*
X160257762Y-44088714D01*
X160210143Y-44136333D01*
X155210143Y-49208666D02*
X155257762Y-49256285D01*
X155305381Y-49399142D01*
X155305381Y-49494380D01*
X155257762Y-49637238D01*
X155162524Y-49732476D01*
X155067286Y-49780095D01*
X154876810Y-49827714D01*
X154733952Y-49827714D01*
X154543476Y-49780095D01*
X154448238Y-49732476D01*
X154353000Y-49637238D01*
X154305381Y-49494380D01*
X154305381Y-49399142D01*
X154353000Y-49256285D01*
X154400619Y-49208666D01*
X154638714Y-48351523D02*
X155305381Y-48351523D01*
X154257762Y-48589619D02*
X154972048Y-48827714D01*
X154972048Y-48208666D01*
X131406543Y-84220666D02*
X131454162Y-84268285D01*
X131501781Y-84411142D01*
X131501781Y-84506380D01*
X131454162Y-84649238D01*
X131358924Y-84744476D01*
X131263686Y-84792095D01*
X131073210Y-84839714D01*
X130930352Y-84839714D01*
X130739876Y-84792095D01*
X130644638Y-84744476D01*
X130549400Y-84649238D01*
X130501781Y-84506380D01*
X130501781Y-84411142D01*
X130549400Y-84268285D01*
X130597019Y-84220666D01*
X130501781Y-83315904D02*
X130501781Y-83792095D01*
X130977971Y-83839714D01*
X130930352Y-83792095D01*
X130882733Y-83696857D01*
X130882733Y-83458761D01*
X130930352Y-83363523D01*
X130977971Y-83315904D01*
X131073210Y-83268285D01*
X131311305Y-83268285D01*
X131406543Y-83315904D01*
X131454162Y-83363523D01*
X131501781Y-83458761D01*
X131501781Y-83696857D01*
X131454162Y-83792095D01*
X131406543Y-83839714D01*
X132016143Y-96793666D02*
X132063762Y-96841285D01*
X132111381Y-96984142D01*
X132111381Y-97079380D01*
X132063762Y-97222238D01*
X131968524Y-97317476D01*
X131873286Y-97365095D01*
X131682810Y-97412714D01*
X131539952Y-97412714D01*
X131349476Y-97365095D01*
X131254238Y-97317476D01*
X131159000Y-97222238D01*
X131111381Y-97079380D01*
X131111381Y-96984142D01*
X131159000Y-96841285D01*
X131206619Y-96793666D01*
X131111381Y-95936523D02*
X131111381Y-96127000D01*
X131159000Y-96222238D01*
X131206619Y-96269857D01*
X131349476Y-96365095D01*
X131539952Y-96412714D01*
X131920905Y-96412714D01*
X132016143Y-96365095D01*
X132063762Y-96317476D01*
X132111381Y-96222238D01*
X132111381Y-96031761D01*
X132063762Y-95936523D01*
X132016143Y-95888904D01*
X131920905Y-95841285D01*
X131682810Y-95841285D01*
X131587571Y-95888904D01*
X131539952Y-95936523D01*
X131492333Y-96031761D01*
X131492333Y-96222238D01*
X131539952Y-96317476D01*
X131587571Y-96365095D01*
X131682810Y-96412714D01*
X110680143Y-90253166D02*
X110727762Y-90300785D01*
X110775381Y-90443642D01*
X110775381Y-90538880D01*
X110727762Y-90681738D01*
X110632524Y-90776976D01*
X110537286Y-90824595D01*
X110346810Y-90872214D01*
X110203952Y-90872214D01*
X110013476Y-90824595D01*
X109918238Y-90776976D01*
X109823000Y-90681738D01*
X109775381Y-90538880D01*
X109775381Y-90443642D01*
X109823000Y-90300785D01*
X109870619Y-90253166D01*
X109775381Y-89919833D02*
X109775381Y-89253166D01*
X110775381Y-89681738D01*
X117705143Y-71096166D02*
X117752762Y-71143785D01*
X117800381Y-71286642D01*
X117800381Y-71381880D01*
X117752762Y-71524738D01*
X117657524Y-71619976D01*
X117562286Y-71667595D01*
X117371810Y-71715214D01*
X117228952Y-71715214D01*
X117038476Y-71667595D01*
X116943238Y-71619976D01*
X116848000Y-71524738D01*
X116800381Y-71381880D01*
X116800381Y-71286642D01*
X116848000Y-71143785D01*
X116895619Y-71096166D01*
X117228952Y-70524738D02*
X117181333Y-70619976D01*
X117133714Y-70667595D01*
X117038476Y-70715214D01*
X116990857Y-70715214D01*
X116895619Y-70667595D01*
X116848000Y-70619976D01*
X116800381Y-70524738D01*
X116800381Y-70334261D01*
X116848000Y-70239023D01*
X116895619Y-70191404D01*
X116990857Y-70143785D01*
X117038476Y-70143785D01*
X117133714Y-70191404D01*
X117181333Y-70239023D01*
X117228952Y-70334261D01*
X117228952Y-70524738D01*
X117276571Y-70619976D01*
X117324190Y-70667595D01*
X117419429Y-70715214D01*
X117609905Y-70715214D01*
X117705143Y-70667595D01*
X117752762Y-70619976D01*
X117800381Y-70524738D01*
X117800381Y-70334261D01*
X117752762Y-70239023D01*
X117705143Y-70191404D01*
X117609905Y-70143785D01*
X117419429Y-70143785D01*
X117324190Y-70191404D01*
X117276571Y-70239023D01*
X117228952Y-70334261D01*
X157456143Y-91297357D02*
X157503762Y-91344976D01*
X157551381Y-91487833D01*
X157551381Y-91583071D01*
X157503762Y-91725929D01*
X157408524Y-91821167D01*
X157313286Y-91868786D01*
X157122810Y-91916405D01*
X156979952Y-91916405D01*
X156789476Y-91868786D01*
X156694238Y-91821167D01*
X156599000Y-91725929D01*
X156551381Y-91583071D01*
X156551381Y-91487833D01*
X156599000Y-91344976D01*
X156646619Y-91297357D01*
X157551381Y-90344976D02*
X157551381Y-90916405D01*
X157551381Y-90630691D02*
X156551381Y-90630691D01*
X156694238Y-90725929D01*
X156789476Y-90821167D01*
X156837095Y-90916405D01*
X157551381Y-89392595D02*
X157551381Y-89964024D01*
X157551381Y-89678310D02*
X156551381Y-89678310D01*
X156694238Y-89773548D01*
X156789476Y-89868786D01*
X156837095Y-89964024D01*
X176185581Y-93725905D02*
X176995105Y-93725905D01*
X177090343Y-93678286D01*
X177137962Y-93630667D01*
X177185581Y-93535429D01*
X177185581Y-93344952D01*
X177137962Y-93249714D01*
X177090343Y-93202095D01*
X176995105Y-93154476D01*
X176185581Y-93154476D01*
X176185581Y-92773524D02*
X176185581Y-92106857D01*
X177185581Y-92535429D01*
X101361905Y-80652381D02*
X101361905Y-79652381D01*
X101742858Y-79652381D01*
X101838096Y-79700000D01*
X101885715Y-79747619D01*
X101933334Y-79842857D01*
X101933334Y-79985714D01*
X101885715Y-80080952D01*
X101838096Y-80128571D01*
X101742858Y-80176190D01*
X101361905Y-80176190D01*
X102409524Y-80652381D02*
X102600000Y-80652381D01*
X102695239Y-80604762D01*
X102742858Y-80557143D01*
X102838096Y-80414286D01*
X102885715Y-80223810D01*
X102885715Y-79842857D01*
X102838096Y-79747619D01*
X102790477Y-79700000D01*
X102695239Y-79652381D01*
X102504762Y-79652381D01*
X102409524Y-79700000D01*
X102361905Y-79747619D01*
X102314286Y-79842857D01*
X102314286Y-80080952D01*
X102361905Y-80176190D01*
X102409524Y-80223810D01*
X102504762Y-80271429D01*
X102695239Y-80271429D01*
X102790477Y-80223810D01*
X102838096Y-80176190D01*
X102885715Y-80080952D01*
D16*
X145284976Y-93683667D02*
X144619738Y-94107000D01*
X145284976Y-94409381D02*
X143887976Y-94409381D01*
X143887976Y-93925572D01*
X143954500Y-93804619D01*
X144021024Y-93744143D01*
X144154071Y-93683667D01*
X144353643Y-93683667D01*
X144486690Y-93744143D01*
X144553214Y-93804619D01*
X144619738Y-93925572D01*
X144619738Y-94409381D01*
X144353643Y-92595095D02*
X145284976Y-92595095D01*
X143821452Y-92897476D02*
X144819310Y-93199857D01*
X144819310Y-92413667D01*
X142998976Y-83142667D02*
X142333738Y-83566000D01*
X142998976Y-83868381D02*
X141601976Y-83868381D01*
X141601976Y-83384572D01*
X141668500Y-83263619D01*
X141735024Y-83203143D01*
X141868071Y-83142667D01*
X142067643Y-83142667D01*
X142200690Y-83203143D01*
X142267214Y-83263619D01*
X142333738Y-83384572D01*
X142333738Y-83868381D01*
X141601976Y-82719333D02*
X141601976Y-81933143D01*
X142134167Y-82356476D01*
X142134167Y-82175048D01*
X142200690Y-82054095D01*
X142267214Y-81993619D01*
X142400262Y-81933143D01*
X142732881Y-81933143D01*
X142865929Y-81993619D01*
X142932452Y-82054095D01*
X142998976Y-82175048D01*
X142998976Y-82537905D01*
X142932452Y-82658857D01*
X142865929Y-82719333D01*
X145792976Y-83747429D02*
X145127738Y-84170762D01*
X145792976Y-84473143D02*
X144395976Y-84473143D01*
X144395976Y-83989334D01*
X144462500Y-83868381D01*
X144529024Y-83807905D01*
X144662071Y-83747429D01*
X144861643Y-83747429D01*
X144994690Y-83807905D01*
X145061214Y-83868381D01*
X145127738Y-83989334D01*
X145127738Y-84473143D01*
X145792976Y-82537905D02*
X145792976Y-83263619D01*
X145792976Y-82900762D02*
X144395976Y-82900762D01*
X144595548Y-83021714D01*
X144728595Y-83142667D01*
X144795119Y-83263619D01*
X144395976Y-82114571D02*
X144395976Y-81328381D01*
X144928167Y-81751714D01*
X144928167Y-81570286D01*
X144994690Y-81449333D01*
X145061214Y-81388857D01*
X145194262Y-81328381D01*
X145526881Y-81328381D01*
X145659929Y-81388857D01*
X145726452Y-81449333D01*
X145792976Y-81570286D01*
X145792976Y-81933143D01*
X145726452Y-82054095D01*
X145659929Y-82114571D01*
X125264333Y-91817976D02*
X124841000Y-91152738D01*
X124538619Y-91817976D02*
X124538619Y-90420976D01*
X125022428Y-90420976D01*
X125143381Y-90487500D01*
X125203857Y-90554024D01*
X125264333Y-90687071D01*
X125264333Y-90886643D01*
X125203857Y-91019690D01*
X125143381Y-91086214D01*
X125022428Y-91152738D01*
X124538619Y-91152738D01*
X125869095Y-91817976D02*
X126111000Y-91817976D01*
X126231952Y-91751452D01*
X126292428Y-91684929D01*
X126413381Y-91485357D01*
X126473857Y-91219262D01*
X126473857Y-90687071D01*
X126413381Y-90554024D01*
X126352905Y-90487500D01*
X126231952Y-90420976D01*
X125990048Y-90420976D01*
X125869095Y-90487500D01*
X125808619Y-90554024D01*
X125748143Y-90687071D01*
X125748143Y-91019690D01*
X125808619Y-91152738D01*
X125869095Y-91219262D01*
X125990048Y-91285786D01*
X126231952Y-91285786D01*
X126352905Y-91219262D01*
X126413381Y-91152738D01*
X126473857Y-91019690D01*
X114723333Y-89150976D02*
X114300000Y-88485738D01*
X113997619Y-89150976D02*
X113997619Y-87753976D01*
X114481428Y-87753976D01*
X114602381Y-87820500D01*
X114662857Y-87887024D01*
X114723333Y-88020071D01*
X114723333Y-88219643D01*
X114662857Y-88352690D01*
X114602381Y-88419214D01*
X114481428Y-88485738D01*
X113997619Y-88485738D01*
X115811905Y-87753976D02*
X115570000Y-87753976D01*
X115449048Y-87820500D01*
X115388571Y-87887024D01*
X115267619Y-88086595D01*
X115207143Y-88352690D01*
X115207143Y-88884881D01*
X115267619Y-89017929D01*
X115328095Y-89084452D01*
X115449048Y-89150976D01*
X115690952Y-89150976D01*
X115811905Y-89084452D01*
X115872381Y-89017929D01*
X115932857Y-88884881D01*
X115932857Y-88552262D01*
X115872381Y-88419214D01*
X115811905Y-88352690D01*
X115690952Y-88286167D01*
X115449048Y-88286167D01*
X115328095Y-88352690D01*
X115267619Y-88419214D01*
X115207143Y-88552262D01*
X125137333Y-89023976D02*
X124714000Y-88358738D01*
X124411619Y-89023976D02*
X124411619Y-87626976D01*
X124895428Y-87626976D01*
X125016381Y-87693500D01*
X125076857Y-87760024D01*
X125137333Y-87893071D01*
X125137333Y-88092643D01*
X125076857Y-88225690D01*
X125016381Y-88292214D01*
X124895428Y-88358738D01*
X124411619Y-88358738D01*
X125863048Y-88225690D02*
X125742095Y-88159167D01*
X125681619Y-88092643D01*
X125621143Y-87959595D01*
X125621143Y-87893071D01*
X125681619Y-87760024D01*
X125742095Y-87693500D01*
X125863048Y-87626976D01*
X126104952Y-87626976D01*
X126225905Y-87693500D01*
X126286381Y-87760024D01*
X126346857Y-87893071D01*
X126346857Y-87959595D01*
X126286381Y-88092643D01*
X126225905Y-88159167D01*
X126104952Y-88225690D01*
X125863048Y-88225690D01*
X125742095Y-88292214D01*
X125681619Y-88358738D01*
X125621143Y-88491786D01*
X125621143Y-88757881D01*
X125681619Y-88890929D01*
X125742095Y-88957452D01*
X125863048Y-89023976D01*
X126104952Y-89023976D01*
X126225905Y-88957452D01*
X126286381Y-88890929D01*
X126346857Y-88757881D01*
X126346857Y-88491786D01*
X126286381Y-88358738D01*
X126225905Y-88292214D01*
X126104952Y-88225690D01*
X114723333Y-91817976D02*
X114300000Y-91152738D01*
X113997619Y-91817976D02*
X113997619Y-90420976D01*
X114481428Y-90420976D01*
X114602381Y-90487500D01*
X114662857Y-90554024D01*
X114723333Y-90687071D01*
X114723333Y-90886643D01*
X114662857Y-91019690D01*
X114602381Y-91086214D01*
X114481428Y-91152738D01*
X113997619Y-91152738D01*
X115146667Y-90420976D02*
X115993333Y-90420976D01*
X115449048Y-91817976D01*
X112010976Y-71458667D02*
X111345738Y-71882000D01*
X112010976Y-72184381D02*
X110613976Y-72184381D01*
X110613976Y-71700572D01*
X110680500Y-71579619D01*
X110747024Y-71519143D01*
X110880071Y-71458667D01*
X111079643Y-71458667D01*
X111212690Y-71519143D01*
X111279214Y-71579619D01*
X111345738Y-71700572D01*
X111345738Y-72184381D01*
X110747024Y-70974857D02*
X110680500Y-70914381D01*
X110613976Y-70793429D01*
X110613976Y-70491048D01*
X110680500Y-70370095D01*
X110747024Y-70309619D01*
X110880071Y-70249143D01*
X111013119Y-70249143D01*
X111212690Y-70309619D01*
X112010976Y-71035333D01*
X112010976Y-70249143D01*
X114804976Y-71331667D02*
X114139738Y-71755000D01*
X114804976Y-72057381D02*
X113407976Y-72057381D01*
X113407976Y-71573572D01*
X113474500Y-71452619D01*
X113541024Y-71392143D01*
X113674071Y-71331667D01*
X113873643Y-71331667D01*
X114006690Y-71392143D01*
X114073214Y-71452619D01*
X114139738Y-71573572D01*
X114139738Y-72057381D01*
X113407976Y-70182619D02*
X113407976Y-70787381D01*
X114073214Y-70847857D01*
X114006690Y-70787381D01*
X113940167Y-70666429D01*
X113940167Y-70364048D01*
X114006690Y-70243095D01*
X114073214Y-70182619D01*
X114206262Y-70122143D01*
X114538881Y-70122143D01*
X114671929Y-70182619D01*
X114738452Y-70243095D01*
X114804976Y-70364048D01*
X114804976Y-70666429D01*
X114738452Y-70787381D01*
X114671929Y-70847857D01*
X164080976Y-80318429D02*
X163415738Y-80741762D01*
X164080976Y-81044143D02*
X162683976Y-81044143D01*
X162683976Y-80560334D01*
X162750500Y-80439381D01*
X162817024Y-80378905D01*
X162950071Y-80318429D01*
X163149643Y-80318429D01*
X163282690Y-80378905D01*
X163349214Y-80439381D01*
X163415738Y-80560334D01*
X163415738Y-81044143D01*
X164080976Y-79108905D02*
X164080976Y-79834619D01*
X164080976Y-79471762D02*
X162683976Y-79471762D01*
X162883548Y-79592714D01*
X163016595Y-79713667D01*
X163083119Y-79834619D01*
X162683976Y-77959857D02*
X162683976Y-78564619D01*
X163349214Y-78625095D01*
X163282690Y-78564619D01*
X163216167Y-78443667D01*
X163216167Y-78141286D01*
X163282690Y-78020333D01*
X163349214Y-77959857D01*
X163482262Y-77899381D01*
X163814881Y-77899381D01*
X163947929Y-77959857D01*
X164014452Y-78020333D01*
X164080976Y-78141286D01*
X164080976Y-78443667D01*
X164014452Y-78564619D01*
X163947929Y-78625095D01*
D12*
X104211381Y-64365095D02*
X103211381Y-64365095D01*
X103211381Y-64127000D01*
X103259000Y-63984142D01*
X103354238Y-63888904D01*
X103449476Y-63841285D01*
X103639952Y-63793666D01*
X103782810Y-63793666D01*
X103973286Y-63841285D01*
X104068524Y-63888904D01*
X104163762Y-63984142D01*
X104211381Y-64127000D01*
X104211381Y-64365095D01*
X103306619Y-63412714D02*
X103259000Y-63365095D01*
X103211381Y-63269857D01*
X103211381Y-63031761D01*
X103259000Y-62936523D01*
X103306619Y-62888904D01*
X103401857Y-62841285D01*
X103497095Y-62841285D01*
X103639952Y-62888904D01*
X104211381Y-63460333D01*
X104211381Y-62841285D01*
X109545381Y-64365095D02*
X108545381Y-64365095D01*
X108545381Y-64127000D01*
X108593000Y-63984142D01*
X108688238Y-63888904D01*
X108783476Y-63841285D01*
X108973952Y-63793666D01*
X109116810Y-63793666D01*
X109307286Y-63841285D01*
X109402524Y-63888904D01*
X109497762Y-63984142D01*
X109545381Y-64127000D01*
X109545381Y-64365095D01*
X108545381Y-63460333D02*
X108545381Y-62841285D01*
X108926333Y-63174619D01*
X108926333Y-63031761D01*
X108973952Y-62936523D01*
X109021571Y-62888904D01*
X109116810Y-62841285D01*
X109354905Y-62841285D01*
X109450143Y-62888904D01*
X109497762Y-62936523D01*
X109545381Y-63031761D01*
X109545381Y-63317476D01*
X109497762Y-63412714D01*
X109450143Y-63460333D01*
D17*
X102111629Y-57451172D02*
X100587629Y-57451172D01*
X100587629Y-56870600D01*
X100660200Y-56725458D01*
X100732771Y-56652886D01*
X100877914Y-56580315D01*
X101095629Y-56580315D01*
X101240771Y-56652886D01*
X101313343Y-56725458D01*
X101385914Y-56870600D01*
X101385914Y-57451172D01*
X102111629Y-55128886D02*
X102111629Y-55999743D01*
X102111629Y-55564315D02*
X100587629Y-55564315D01*
X100805343Y-55709458D01*
X100950486Y-55854600D01*
X101023057Y-55999743D01*
X100587629Y-54620886D02*
X100587629Y-53677457D01*
X101168200Y-54185457D01*
X101168200Y-53967743D01*
X101240771Y-53822600D01*
X101313343Y-53750029D01*
X101458486Y-53677457D01*
X101821343Y-53677457D01*
X101966486Y-53750029D01*
X102039057Y-53822600D01*
X102111629Y-53967743D01*
X102111629Y-54403171D01*
X102039057Y-54548314D01*
X101966486Y-54620886D01*
D10*
X108520667Y-76332500D02*
X108187333Y-76565834D01*
X108520667Y-76732500D02*
X107820667Y-76732500D01*
X107820667Y-76465834D01*
X107854000Y-76399167D01*
X107887333Y-76365834D01*
X107954000Y-76332500D01*
X108054000Y-76332500D01*
X108120667Y-76365834D01*
X108154000Y-76399167D01*
X108187333Y-76465834D01*
X108187333Y-76732500D01*
X108520667Y-75665834D02*
X108520667Y-76065834D01*
X108520667Y-75865834D02*
X107820667Y-75865834D01*
X107920667Y-75932500D01*
X107987333Y-75999167D01*
X108020667Y-76065834D01*
X108120667Y-75265833D02*
X108087333Y-75332500D01*
X108054000Y-75365833D01*
X107987333Y-75399167D01*
X107954000Y-75399167D01*
X107887333Y-75365833D01*
X107854000Y-75332500D01*
X107820667Y-75265833D01*
X107820667Y-75132500D01*
X107854000Y-75065833D01*
X107887333Y-75032500D01*
X107954000Y-74999167D01*
X107987333Y-74999167D01*
X108054000Y-75032500D01*
X108087333Y-75065833D01*
X108120667Y-75132500D01*
X108120667Y-75265833D01*
X108154000Y-75332500D01*
X108187333Y-75365833D01*
X108254000Y-75399167D01*
X108387333Y-75399167D01*
X108454000Y-75365833D01*
X108487333Y-75332500D01*
X108520667Y-75265833D01*
X108520667Y-75132500D01*
X108487333Y-75065833D01*
X108454000Y-75032500D01*
X108387333Y-74999167D01*
X108254000Y-74999167D01*
X108187333Y-75032500D01*
X108154000Y-75065833D01*
X108120667Y-75132500D01*
X105853667Y-76332500D02*
X105520333Y-76565834D01*
X105853667Y-76732500D02*
X105153667Y-76732500D01*
X105153667Y-76465834D01*
X105187000Y-76399167D01*
X105220333Y-76365834D01*
X105287000Y-76332500D01*
X105387000Y-76332500D01*
X105453667Y-76365834D01*
X105487000Y-76399167D01*
X105520333Y-76465834D01*
X105520333Y-76732500D01*
X105853667Y-75665834D02*
X105853667Y-76065834D01*
X105853667Y-75865834D02*
X105153667Y-75865834D01*
X105253667Y-75932500D01*
X105320333Y-75999167D01*
X105353667Y-76065834D01*
X105853667Y-75332500D02*
X105853667Y-75199167D01*
X105820333Y-75132500D01*
X105787000Y-75099167D01*
X105687000Y-75032500D01*
X105553667Y-74999167D01*
X105287000Y-74999167D01*
X105220333Y-75032500D01*
X105187000Y-75065833D01*
X105153667Y-75132500D01*
X105153667Y-75265833D01*
X105187000Y-75332500D01*
X105220333Y-75365833D01*
X105287000Y-75399167D01*
X105453667Y-75399167D01*
X105520333Y-75365833D01*
X105553667Y-75332500D01*
X105587000Y-75265833D01*
X105587000Y-75132500D01*
X105553667Y-75065833D01*
X105520333Y-75032500D01*
X105453667Y-74999167D01*
D15*
X102524858Y-99484571D02*
X102524858Y-97984571D01*
X103096286Y-97984571D01*
X103239144Y-98056000D01*
X103310572Y-98127429D01*
X103382001Y-98270286D01*
X103382001Y-98484571D01*
X103310572Y-98627429D01*
X103239144Y-98698857D01*
X103096286Y-98770286D01*
X102524858Y-98770286D01*
X104667715Y-97984571D02*
X104382001Y-97984571D01*
X104239144Y-98056000D01*
X104167715Y-98127429D01*
X104024858Y-98341714D01*
X103953429Y-98627429D01*
X103953429Y-99198857D01*
X104024858Y-99341714D01*
X104096286Y-99413143D01*
X104239144Y-99484571D01*
X104524858Y-99484571D01*
X104667715Y-99413143D01*
X104739144Y-99341714D01*
X104810572Y-99198857D01*
X104810572Y-98841714D01*
X104739144Y-98698857D01*
X104667715Y-98627429D01*
X104524858Y-98556000D01*
X104239144Y-98556000D01*
X104096286Y-98627429D01*
X104024858Y-98698857D01*
X103953429Y-98841714D01*
X154960072Y-114597571D02*
X154960072Y-113097571D01*
X155531500Y-113097571D01*
X155674358Y-113169000D01*
X155745786Y-113240429D01*
X155817215Y-113383286D01*
X155817215Y-113597571D01*
X155745786Y-113740429D01*
X155674358Y-113811857D01*
X155531500Y-113883286D01*
X154960072Y-113883286D01*
X157245786Y-114597571D02*
X156388643Y-114597571D01*
X156817215Y-114597571D02*
X156817215Y-113097571D01*
X156674358Y-113311857D01*
X156531500Y-113454714D01*
X156388643Y-113526143D01*
X158602929Y-113097571D02*
X157888643Y-113097571D01*
X157817214Y-113811857D01*
X157888643Y-113740429D01*
X158031500Y-113669000D01*
X158388643Y-113669000D01*
X158531500Y-113740429D01*
X158602929Y-113811857D01*
X158674357Y-113954714D01*
X158674357Y-114311857D01*
X158602929Y-114454714D01*
X158531500Y-114526143D01*
X158388643Y-114597571D01*
X158031500Y-114597571D01*
X157888643Y-114526143D01*
X157817214Y-114454714D01*
X164421572Y-69639571D02*
X164421572Y-68139571D01*
X164993000Y-68139571D01*
X165135858Y-68211000D01*
X165207286Y-68282429D01*
X165278715Y-68425286D01*
X165278715Y-68639571D01*
X165207286Y-68782429D01*
X165135858Y-68853857D01*
X164993000Y-68925286D01*
X164421572Y-68925286D01*
X166707286Y-69639571D02*
X165850143Y-69639571D01*
X166278715Y-69639571D02*
X166278715Y-68139571D01*
X166135858Y-68353857D01*
X165993000Y-68496714D01*
X165850143Y-68568143D01*
X167278714Y-68282429D02*
X167350143Y-68211000D01*
X167493000Y-68139571D01*
X167850143Y-68139571D01*
X167993000Y-68211000D01*
X168064429Y-68282429D01*
X168135857Y-68425286D01*
X168135857Y-68568143D01*
X168064429Y-68782429D01*
X167207286Y-69639571D01*
X168135857Y-69639571D01*
X152316571Y-133774428D02*
X150816571Y-133774428D01*
X150816571Y-133203000D01*
X150888000Y-133060142D01*
X150959429Y-132988714D01*
X151102286Y-132917285D01*
X151316571Y-132917285D01*
X151459429Y-132988714D01*
X151530857Y-133060142D01*
X151602286Y-133203000D01*
X151602286Y-133774428D01*
X152316571Y-131488714D02*
X152316571Y-132345857D01*
X152316571Y-131917285D02*
X150816571Y-131917285D01*
X151030857Y-132060142D01*
X151173714Y-132203000D01*
X151245143Y-132345857D01*
X151316571Y-130203000D02*
X152316571Y-130203000D01*
X150745143Y-130560143D02*
X151816571Y-130917286D01*
X151816571Y-129988714D01*
D17*
X107750429Y-132914572D02*
X106226429Y-132914572D01*
X106226429Y-132334000D01*
X106299000Y-132188858D01*
X106371571Y-132116286D01*
X106516714Y-132043715D01*
X106734429Y-132043715D01*
X106879571Y-132116286D01*
X106952143Y-132188858D01*
X107024714Y-132334000D01*
X107024714Y-132914572D01*
X107750429Y-130592286D02*
X107750429Y-131463143D01*
X107750429Y-131027715D02*
X106226429Y-131027715D01*
X106444143Y-131172858D01*
X106589286Y-131318000D01*
X106661857Y-131463143D01*
X106226429Y-129286000D02*
X106226429Y-129576286D01*
X106299000Y-129721429D01*
X106371571Y-129794000D01*
X106589286Y-129939143D01*
X106879571Y-130011714D01*
X107460143Y-130011714D01*
X107605286Y-129939143D01*
X107677857Y-129866571D01*
X107750429Y-129721429D01*
X107750429Y-129431143D01*
X107677857Y-129286000D01*
X107605286Y-129213429D01*
X107460143Y-129140857D01*
X107097286Y-129140857D01*
X106952143Y-129213429D01*
X106879571Y-129286000D01*
X106807000Y-129431143D01*
X106807000Y-129721429D01*
X106879571Y-129866571D01*
X106952143Y-129939143D01*
X107097286Y-130011714D01*
X118520028Y-104854829D02*
X118520028Y-103330829D01*
X119100600Y-103330829D01*
X119245742Y-103403400D01*
X119318314Y-103475971D01*
X119390885Y-103621114D01*
X119390885Y-103838829D01*
X119318314Y-103983971D01*
X119245742Y-104056543D01*
X119100600Y-104129114D01*
X118520028Y-104129114D01*
X120842314Y-104854829D02*
X119971457Y-104854829D01*
X120406885Y-104854829D02*
X120406885Y-103330829D01*
X120261742Y-103548543D01*
X120116600Y-103693686D01*
X119971457Y-103766257D01*
X121350314Y-103330829D02*
X122366314Y-103330829D01*
X121713171Y-104854829D01*
D12*
X161310581Y-55113086D02*
X160310581Y-55113086D01*
X160310581Y-54732133D01*
X160358200Y-54636895D01*
X160405819Y-54589276D01*
X160501057Y-54541657D01*
X160643914Y-54541657D01*
X160739152Y-54589276D01*
X160786771Y-54636895D01*
X160834390Y-54732133D01*
X160834390Y-55113086D01*
X161310581Y-53589276D02*
X161310581Y-54160705D01*
X161310581Y-53874991D02*
X160310581Y-53874991D01*
X160453438Y-53970229D01*
X160548676Y-54065467D01*
X160596295Y-54160705D01*
X161310581Y-53113086D02*
X161310581Y-52922610D01*
X161262962Y-52827371D01*
X161215343Y-52779752D01*
X161072486Y-52684514D01*
X160882010Y-52636895D01*
X160501057Y-52636895D01*
X160405819Y-52684514D01*
X160358200Y-52732133D01*
X160310581Y-52827371D01*
X160310581Y-53017848D01*
X160358200Y-53113086D01*
X160405819Y-53160705D01*
X160501057Y-53208324D01*
X160739152Y-53208324D01*
X160834390Y-53160705D01*
X160882010Y-53113086D01*
X160929629Y-53017848D01*
X160929629Y-52827371D01*
X160882010Y-52732133D01*
X160834390Y-52684514D01*
X160739152Y-52636895D01*
D16*
X151126976Y-60790667D02*
X150461738Y-61214000D01*
X151126976Y-61516381D02*
X149729976Y-61516381D01*
X149729976Y-61032572D01*
X149796500Y-60911619D01*
X149863024Y-60851143D01*
X149996071Y-60790667D01*
X150195643Y-60790667D01*
X150328690Y-60851143D01*
X150395214Y-60911619D01*
X150461738Y-61032572D01*
X150461738Y-61516381D01*
X151126976Y-59581143D02*
X151126976Y-60306857D01*
X151126976Y-59944000D02*
X149729976Y-59944000D01*
X149929548Y-60064952D01*
X150062595Y-60185905D01*
X150129119Y-60306857D01*
X158822571Y-62607976D02*
X158399238Y-61942738D01*
X158096857Y-62607976D02*
X158096857Y-61210976D01*
X158580666Y-61210976D01*
X158701619Y-61277500D01*
X158762095Y-61344024D01*
X158822571Y-61477071D01*
X158822571Y-61676643D01*
X158762095Y-61809690D01*
X158701619Y-61876214D01*
X158580666Y-61942738D01*
X158096857Y-61942738D01*
X159306381Y-61344024D02*
X159366857Y-61277500D01*
X159487809Y-61210976D01*
X159790190Y-61210976D01*
X159911143Y-61277500D01*
X159971619Y-61344024D01*
X160032095Y-61477071D01*
X160032095Y-61610119D01*
X159971619Y-61809690D01*
X159245905Y-62607976D01*
X160032095Y-62607976D01*
X161241619Y-62607976D02*
X160515905Y-62607976D01*
X160878762Y-62607976D02*
X160878762Y-61210976D01*
X160757810Y-61410548D01*
X160636857Y-61543595D01*
X160515905Y-61610119D01*
X158822571Y-60067976D02*
X158399238Y-59402738D01*
X158096857Y-60067976D02*
X158096857Y-58670976D01*
X158580666Y-58670976D01*
X158701619Y-58737500D01*
X158762095Y-58804024D01*
X158822571Y-58937071D01*
X158822571Y-59136643D01*
X158762095Y-59269690D01*
X158701619Y-59336214D01*
X158580666Y-59402738D01*
X158096857Y-59402738D01*
X159306381Y-58804024D02*
X159366857Y-58737500D01*
X159487809Y-58670976D01*
X159790190Y-58670976D01*
X159911143Y-58737500D01*
X159971619Y-58804024D01*
X160032095Y-58937071D01*
X160032095Y-59070119D01*
X159971619Y-59269690D01*
X159245905Y-60067976D01*
X160032095Y-60067976D01*
X160515905Y-58804024D02*
X160576381Y-58737500D01*
X160697333Y-58670976D01*
X160999714Y-58670976D01*
X161120667Y-58737500D01*
X161181143Y-58804024D01*
X161241619Y-58937071D01*
X161241619Y-59070119D01*
X161181143Y-59269690D01*
X160455429Y-60067976D01*
X161241619Y-60067976D01*
D15*
X192339258Y-133901571D02*
X192339258Y-132401571D01*
X192910686Y-132401571D01*
X193053544Y-132473000D01*
X193124972Y-132544429D01*
X193196401Y-132687286D01*
X193196401Y-132901571D01*
X193124972Y-133044429D01*
X193053544Y-133115857D01*
X192910686Y-133187286D01*
X192339258Y-133187286D01*
X193767829Y-132544429D02*
X193839258Y-132473000D01*
X193982115Y-132401571D01*
X194339258Y-132401571D01*
X194482115Y-132473000D01*
X194553544Y-132544429D01*
X194624972Y-132687286D01*
X194624972Y-132830143D01*
X194553544Y-133044429D01*
X193696401Y-133901571D01*
X194624972Y-133901571D01*
D12*
X142946381Y-49626686D02*
X141946381Y-49626686D01*
X141946381Y-49245733D01*
X141994000Y-49150495D01*
X142041619Y-49102876D01*
X142136857Y-49055257D01*
X142279714Y-49055257D01*
X142374952Y-49102876D01*
X142422571Y-49150495D01*
X142470190Y-49245733D01*
X142470190Y-49626686D01*
X142041619Y-48674305D02*
X141994000Y-48626686D01*
X141946381Y-48531448D01*
X141946381Y-48293352D01*
X141994000Y-48198114D01*
X142041619Y-48150495D01*
X142136857Y-48102876D01*
X142232095Y-48102876D01*
X142374952Y-48150495D01*
X142946381Y-48721924D01*
X142946381Y-48102876D01*
X142946381Y-47150495D02*
X142946381Y-47721924D01*
X142946381Y-47436210D02*
X141946381Y-47436210D01*
X142089238Y-47531448D01*
X142184476Y-47626686D01*
X142232095Y-47721924D01*
D17*
X177419000Y-106353429D02*
X177419000Y-107442000D01*
X177346428Y-107659714D01*
X177201285Y-107804857D01*
X176983571Y-107877429D01*
X176838428Y-107877429D01*
X178797857Y-106861429D02*
X178797857Y-107877429D01*
X178435000Y-106280857D02*
X178072143Y-107369429D01*
X179015571Y-107369429D01*
X178308000Y-135182429D02*
X178308000Y-136271000D01*
X178235428Y-136488714D01*
X178090285Y-136633857D01*
X177872571Y-136706429D01*
X177727428Y-136706429D01*
X178888571Y-135182429D02*
X179832000Y-135182429D01*
X179324000Y-135763000D01*
X179541714Y-135763000D01*
X179686857Y-135835571D01*
X179759428Y-135908143D01*
X179832000Y-136053286D01*
X179832000Y-136416143D01*
X179759428Y-136561286D01*
X179686857Y-136633857D01*
X179541714Y-136706429D01*
X179106286Y-136706429D01*
X178961143Y-136633857D01*
X178888571Y-136561286D01*
X141071600Y-135690429D02*
X141071600Y-136779000D01*
X140999028Y-136996714D01*
X140853885Y-137141857D01*
X140636171Y-137214429D01*
X140491028Y-137214429D01*
X141724743Y-135835571D02*
X141797314Y-135763000D01*
X141942457Y-135690429D01*
X142305314Y-135690429D01*
X142450457Y-135763000D01*
X142523028Y-135835571D01*
X142595600Y-135980714D01*
X142595600Y-136125857D01*
X142523028Y-136343571D01*
X141652171Y-137214429D01*
X142595600Y-137214429D01*
D12*
X187304514Y-133141981D02*
X187304514Y-132141981D01*
X187685467Y-132141981D01*
X187780705Y-132189600D01*
X187828324Y-132237219D01*
X187875943Y-132332457D01*
X187875943Y-132475314D01*
X187828324Y-132570552D01*
X187780705Y-132618171D01*
X187685467Y-132665790D01*
X187304514Y-132665790D01*
X188256895Y-132237219D02*
X188304514Y-132189600D01*
X188399752Y-132141981D01*
X188637848Y-132141981D01*
X188733086Y-132189600D01*
X188780705Y-132237219D01*
X188828324Y-132332457D01*
X188828324Y-132427695D01*
X188780705Y-132570552D01*
X188209276Y-133141981D01*
X188828324Y-133141981D01*
X189447371Y-132141981D02*
X189542610Y-132141981D01*
X189637848Y-132189600D01*
X189685467Y-132237219D01*
X189733086Y-132332457D01*
X189780705Y-132522933D01*
X189780705Y-132761029D01*
X189733086Y-132951505D01*
X189685467Y-133046743D01*
X189637848Y-133094362D01*
X189542610Y-133141981D01*
X189447371Y-133141981D01*
X189352133Y-133094362D01*
X189304514Y-133046743D01*
X189256895Y-132951505D01*
X189209276Y-132761029D01*
X189209276Y-132522933D01*
X189256895Y-132332457D01*
X189304514Y-132237219D01*
X189352133Y-132189600D01*
X189447371Y-132141981D01*
X165104914Y-131236981D02*
X165104914Y-130236981D01*
X165485867Y-130236981D01*
X165581105Y-130284600D01*
X165628724Y-130332219D01*
X165676343Y-130427457D01*
X165676343Y-130570314D01*
X165628724Y-130665552D01*
X165581105Y-130713171D01*
X165485867Y-130760790D01*
X165104914Y-130760790D01*
X166057295Y-130332219D02*
X166104914Y-130284600D01*
X166200152Y-130236981D01*
X166438248Y-130236981D01*
X166533486Y-130284600D01*
X166581105Y-130332219D01*
X166628724Y-130427457D01*
X166628724Y-130522695D01*
X166581105Y-130665552D01*
X166009676Y-131236981D01*
X166628724Y-131236981D01*
X167009676Y-130332219D02*
X167057295Y-130284600D01*
X167152533Y-130236981D01*
X167390629Y-130236981D01*
X167485867Y-130284600D01*
X167533486Y-130332219D01*
X167581105Y-130427457D01*
X167581105Y-130522695D01*
X167533486Y-130665552D01*
X166962057Y-131236981D01*
X167581105Y-131236981D01*
X170013381Y-45973905D02*
X170822905Y-45973905D01*
X170918143Y-45926286D01*
X170965762Y-45878667D01*
X171013381Y-45783429D01*
X171013381Y-45592952D01*
X170965762Y-45497714D01*
X170918143Y-45450095D01*
X170822905Y-45402476D01*
X170013381Y-45402476D01*
X170108619Y-44973905D02*
X170061000Y-44926286D01*
X170013381Y-44831048D01*
X170013381Y-44592952D01*
X170061000Y-44497714D01*
X170108619Y-44450095D01*
X170203857Y-44402476D01*
X170299095Y-44402476D01*
X170441952Y-44450095D01*
X171013381Y-45021524D01*
X171013381Y-44402476D01*
X173502581Y-99264695D02*
X172502581Y-99264695D01*
X172502581Y-98883742D01*
X172550200Y-98788504D01*
X172597819Y-98740885D01*
X172693057Y-98693266D01*
X172835914Y-98693266D01*
X172931152Y-98740885D01*
X172978771Y-98788504D01*
X173026390Y-98883742D01*
X173026390Y-99264695D01*
X172502581Y-98359933D02*
X172502581Y-97693266D01*
X173502581Y-98121838D01*
D15*
X166946971Y-94071142D02*
X165446971Y-94071142D01*
X165446971Y-93499714D01*
X165518400Y-93356856D01*
X165589829Y-93285428D01*
X165732686Y-93213999D01*
X165946971Y-93213999D01*
X166089829Y-93285428D01*
X166161257Y-93356856D01*
X166232686Y-93499714D01*
X166232686Y-94071142D01*
X166089829Y-92356856D02*
X166018400Y-92499714D01*
X165946971Y-92571142D01*
X165804114Y-92642571D01*
X165732686Y-92642571D01*
X165589829Y-92571142D01*
X165518400Y-92499714D01*
X165446971Y-92356856D01*
X165446971Y-92071142D01*
X165518400Y-91928285D01*
X165589829Y-91856856D01*
X165732686Y-91785428D01*
X165804114Y-91785428D01*
X165946971Y-91856856D01*
X166018400Y-91928285D01*
X166089829Y-92071142D01*
X166089829Y-92356856D01*
X166161257Y-92499714D01*
X166232686Y-92571142D01*
X166375543Y-92642571D01*
X166661257Y-92642571D01*
X166804114Y-92571142D01*
X166875543Y-92499714D01*
X166946971Y-92356856D01*
X166946971Y-92071142D01*
X166875543Y-91928285D01*
X166804114Y-91856856D01*
X166661257Y-91785428D01*
X166375543Y-91785428D01*
X166232686Y-91856856D01*
X166161257Y-91928285D01*
X166089829Y-92071142D01*
X171176071Y-78846928D02*
X169676071Y-78846928D01*
X169676071Y-78275500D01*
X169747500Y-78132642D01*
X169818929Y-78061214D01*
X169961786Y-77989785D01*
X170176071Y-77989785D01*
X170318929Y-78061214D01*
X170390357Y-78132642D01*
X170461786Y-78275500D01*
X170461786Y-78846928D01*
X171176071Y-76561214D02*
X171176071Y-77418357D01*
X171176071Y-76989785D02*
X169676071Y-76989785D01*
X169890357Y-77132642D01*
X170033214Y-77275500D01*
X170104643Y-77418357D01*
X171176071Y-75132643D02*
X171176071Y-75989786D01*
X171176071Y-75561214D02*
X169676071Y-75561214D01*
X169890357Y-75704071D01*
X170033214Y-75846929D01*
X170104643Y-75989786D01*
D12*
X147740643Y-87129857D02*
X147788262Y-87177476D01*
X147835881Y-87320333D01*
X147835881Y-87415571D01*
X147788262Y-87558429D01*
X147693024Y-87653667D01*
X147597786Y-87701286D01*
X147407310Y-87748905D01*
X147264452Y-87748905D01*
X147073976Y-87701286D01*
X146978738Y-87653667D01*
X146883500Y-87558429D01*
X146835881Y-87415571D01*
X146835881Y-87320333D01*
X146883500Y-87177476D01*
X146931119Y-87129857D01*
X146931119Y-86748905D02*
X146883500Y-86701286D01*
X146835881Y-86606048D01*
X146835881Y-86367952D01*
X146883500Y-86272714D01*
X146931119Y-86225095D01*
X147026357Y-86177476D01*
X147121595Y-86177476D01*
X147264452Y-86225095D01*
X147835881Y-86796524D01*
X147835881Y-86177476D01*
X147835881Y-85225095D02*
X147835881Y-85796524D01*
X147835881Y-85510810D02*
X146835881Y-85510810D01*
X146978738Y-85606048D01*
X147073976Y-85701286D01*
X147121595Y-85796524D01*
X129591381Y-54554286D02*
X128591381Y-54554286D01*
X128591381Y-54173333D01*
X128639000Y-54078095D01*
X128686619Y-54030476D01*
X128781857Y-53982857D01*
X128924714Y-53982857D01*
X129019952Y-54030476D01*
X129067571Y-54078095D01*
X129115190Y-54173333D01*
X129115190Y-54554286D01*
X129591381Y-53030476D02*
X129591381Y-53601905D01*
X129591381Y-53316191D02*
X128591381Y-53316191D01*
X128734238Y-53411429D01*
X128829476Y-53506667D01*
X128877095Y-53601905D01*
X128591381Y-52411429D02*
X128591381Y-52316190D01*
X128639000Y-52220952D01*
X128686619Y-52173333D01*
X128781857Y-52125714D01*
X128972333Y-52078095D01*
X129210429Y-52078095D01*
X129400905Y-52125714D01*
X129496143Y-52173333D01*
X129543762Y-52220952D01*
X129591381Y-52316190D01*
X129591381Y-52411429D01*
X129543762Y-52506667D01*
X129496143Y-52554286D01*
X129400905Y-52601905D01*
X129210429Y-52649524D01*
X128972333Y-52649524D01*
X128781857Y-52601905D01*
X128686619Y-52554286D01*
X128639000Y-52506667D01*
X128591381Y-52411429D01*
D16*
X139201071Y-56956476D02*
X138777738Y-56291238D01*
X138475357Y-56956476D02*
X138475357Y-55559476D01*
X138959166Y-55559476D01*
X139080119Y-55626000D01*
X139140595Y-55692524D01*
X139201071Y-55825571D01*
X139201071Y-56025143D01*
X139140595Y-56158190D01*
X139080119Y-56224714D01*
X138959166Y-56291238D01*
X138475357Y-56291238D01*
X140410595Y-56956476D02*
X139684881Y-56956476D01*
X140047738Y-56956476D02*
X140047738Y-55559476D01*
X139926786Y-55759048D01*
X139805833Y-55892095D01*
X139684881Y-55958619D01*
X141196786Y-55559476D02*
X141317738Y-55559476D01*
X141438690Y-55626000D01*
X141499167Y-55692524D01*
X141559643Y-55825571D01*
X141620119Y-56091667D01*
X141620119Y-56424286D01*
X141559643Y-56690381D01*
X141499167Y-56823429D01*
X141438690Y-56889952D01*
X141317738Y-56956476D01*
X141196786Y-56956476D01*
X141075833Y-56889952D01*
X141015357Y-56823429D01*
X140954881Y-56690381D01*
X140894405Y-56424286D01*
X140894405Y-56091667D01*
X140954881Y-55825571D01*
X141015357Y-55692524D01*
X141075833Y-55626000D01*
X141196786Y-55559476D01*
D12*
X140343181Y-118714686D02*
X139343181Y-118714686D01*
X139343181Y-118333733D01*
X139390800Y-118238495D01*
X139438419Y-118190876D01*
X139533657Y-118143257D01*
X139676514Y-118143257D01*
X139771752Y-118190876D01*
X139819371Y-118238495D01*
X139866990Y-118333733D01*
X139866990Y-118714686D01*
X139438419Y-117762305D02*
X139390800Y-117714686D01*
X139343181Y-117619448D01*
X139343181Y-117381352D01*
X139390800Y-117286114D01*
X139438419Y-117238495D01*
X139533657Y-117190876D01*
X139628895Y-117190876D01*
X139771752Y-117238495D01*
X140343181Y-117809924D01*
X140343181Y-117190876D01*
X139343181Y-116857543D02*
X139343181Y-116238495D01*
X139724133Y-116571829D01*
X139724133Y-116428971D01*
X139771752Y-116333733D01*
X139819371Y-116286114D01*
X139914610Y-116238495D01*
X140152705Y-116238495D01*
X140247943Y-116286114D01*
X140295562Y-116333733D01*
X140343181Y-116428971D01*
X140343181Y-116714686D01*
X140295562Y-116809924D01*
X140247943Y-116857543D01*
X149712514Y-107594981D02*
X149712514Y-106594981D01*
X150093467Y-106594981D01*
X150188705Y-106642600D01*
X150236324Y-106690219D01*
X150283943Y-106785457D01*
X150283943Y-106928314D01*
X150236324Y-107023552D01*
X150188705Y-107071171D01*
X150093467Y-107118790D01*
X149712514Y-107118790D01*
X150664895Y-106690219D02*
X150712514Y-106642600D01*
X150807752Y-106594981D01*
X151045848Y-106594981D01*
X151141086Y-106642600D01*
X151188705Y-106690219D01*
X151236324Y-106785457D01*
X151236324Y-106880695D01*
X151188705Y-107023552D01*
X150617276Y-107594981D01*
X151236324Y-107594981D01*
X152093467Y-106928314D02*
X152093467Y-107594981D01*
X151855371Y-106547362D02*
X151617276Y-107261648D01*
X152236324Y-107261648D01*
D18*
X153216429Y-81488642D02*
X154450143Y-81488642D01*
X154595286Y-81434214D01*
X154667857Y-81379785D01*
X154740429Y-81270928D01*
X154740429Y-81053214D01*
X154667857Y-80944356D01*
X154595286Y-80889928D01*
X154450143Y-80835499D01*
X153216429Y-80835499D01*
X154740429Y-79692499D02*
X154740429Y-80345642D01*
X154740429Y-80019070D02*
X153216429Y-80019070D01*
X153434143Y-80127927D01*
X153579286Y-80236785D01*
X153651857Y-80345642D01*
X154740429Y-78603928D02*
X154740429Y-79257071D01*
X154740429Y-78930499D02*
X153216429Y-78930499D01*
X153434143Y-79039356D01*
X153579286Y-79148214D01*
X153651857Y-79257071D01*
D19*
D18*
X118445643Y-81334429D02*
X118445643Y-82568143D01*
X118500071Y-82713286D01*
X118554500Y-82785857D01*
X118663357Y-82858429D01*
X118881071Y-82858429D01*
X118989929Y-82785857D01*
X119044357Y-82713286D01*
X119098786Y-82568143D01*
X119098786Y-81334429D01*
X120132929Y-81334429D02*
X119915215Y-81334429D01*
X119806358Y-81407000D01*
X119751929Y-81479571D01*
X119643072Y-81697286D01*
X119588643Y-81987571D01*
X119588643Y-82568143D01*
X119643072Y-82713286D01*
X119697500Y-82785857D01*
X119806358Y-82858429D01*
X120024072Y-82858429D01*
X120132929Y-82785857D01*
X120187358Y-82713286D01*
X120241786Y-82568143D01*
X120241786Y-82205286D01*
X120187358Y-82060143D01*
X120132929Y-81987571D01*
X120024072Y-81915000D01*
X119806358Y-81915000D01*
X119697500Y-81987571D01*
X119643072Y-82060143D01*
X119588643Y-82205286D01*
D19*
D18*
X105123343Y-81461429D02*
X105123343Y-82695143D01*
X105177771Y-82840286D01*
X105232200Y-82912857D01*
X105341057Y-82985429D01*
X105558771Y-82985429D01*
X105667629Y-82912857D01*
X105722057Y-82840286D01*
X105776486Y-82695143D01*
X105776486Y-81461429D01*
X106211915Y-81461429D02*
X106919486Y-81461429D01*
X106538486Y-82042000D01*
X106701772Y-82042000D01*
X106810629Y-82114571D01*
X106865058Y-82187143D01*
X106919486Y-82332286D01*
X106919486Y-82695143D01*
X106865058Y-82840286D01*
X106810629Y-82912857D01*
X106701772Y-82985429D01*
X106375200Y-82985429D01*
X106266343Y-82912857D01*
X106211915Y-82840286D01*
D19*
D18*
X135245929Y-82341357D02*
X136479643Y-82341357D01*
X136624786Y-82286929D01*
X136697357Y-82232500D01*
X136769929Y-82123643D01*
X136769929Y-81905929D01*
X136697357Y-81797071D01*
X136624786Y-81742643D01*
X136479643Y-81688214D01*
X135245929Y-81688214D01*
X135753929Y-80654071D02*
X136769929Y-80654071D01*
X135173357Y-80926214D02*
X136261929Y-81198357D01*
X136261929Y-80490785D01*
D19*
D18*
X135245929Y-95041357D02*
X136479643Y-95041357D01*
X136624786Y-94986929D01*
X136697357Y-94932500D01*
X136769929Y-94823643D01*
X136769929Y-94605929D01*
X136697357Y-94497071D01*
X136624786Y-94442643D01*
X136479643Y-94388214D01*
X135245929Y-94388214D01*
X135245929Y-93299642D02*
X135245929Y-93843928D01*
X135971643Y-93898357D01*
X135899071Y-93843928D01*
X135826500Y-93735071D01*
X135826500Y-93462928D01*
X135899071Y-93354071D01*
X135971643Y-93299642D01*
X136116786Y-93245214D01*
X136479643Y-93245214D01*
X136624786Y-93299642D01*
X136697357Y-93354071D01*
X136769929Y-93462928D01*
X136769929Y-93735071D01*
X136697357Y-93843928D01*
X136624786Y-93898357D01*
D19*
D18*
X153216429Y-94914357D02*
X154450143Y-94914357D01*
X154595286Y-94859929D01*
X154667857Y-94805500D01*
X154740429Y-94696643D01*
X154740429Y-94478929D01*
X154667857Y-94370071D01*
X154595286Y-94315643D01*
X154450143Y-94261214D01*
X153216429Y-94261214D01*
X153869571Y-93553642D02*
X153797000Y-93662500D01*
X153724429Y-93716928D01*
X153579286Y-93771357D01*
X153506714Y-93771357D01*
X153361571Y-93716928D01*
X153289000Y-93662500D01*
X153216429Y-93553642D01*
X153216429Y-93335928D01*
X153289000Y-93227071D01*
X153361571Y-93172642D01*
X153506714Y-93118214D01*
X153579286Y-93118214D01*
X153724429Y-93172642D01*
X153797000Y-93227071D01*
X153869571Y-93335928D01*
X153869571Y-93553642D01*
X153942143Y-93662500D01*
X154014714Y-93716928D01*
X154159857Y-93771357D01*
X154450143Y-93771357D01*
X154595286Y-93716928D01*
X154667857Y-93662500D01*
X154740429Y-93553642D01*
X154740429Y-93335928D01*
X154667857Y-93227071D01*
X154595286Y-93172642D01*
X154450143Y-93118214D01*
X154159857Y-93118214D01*
X154014714Y-93172642D01*
X153942143Y-93227071D01*
X153869571Y-93335928D01*
D19*
D12*
X181935381Y-44172095D02*
X180935381Y-44172095D01*
X180935381Y-43934000D01*
X180983000Y-43791142D01*
X181078238Y-43695904D01*
X181173476Y-43648285D01*
X181363952Y-43600666D01*
X181506810Y-43600666D01*
X181697286Y-43648285D01*
X181792524Y-43695904D01*
X181887762Y-43791142D01*
X181935381Y-43934000D01*
X181935381Y-44172095D01*
X181268714Y-42743523D02*
X181935381Y-42743523D01*
X180887762Y-42981619D02*
X181602048Y-43219714D01*
X181602048Y-42600666D01*
X182062381Y-49283857D02*
X181586190Y-49617191D01*
X182062381Y-49855286D02*
X181062381Y-49855286D01*
X181062381Y-49474333D01*
X181110000Y-49379095D01*
X181157619Y-49331476D01*
X181252857Y-49283857D01*
X181395714Y-49283857D01*
X181490952Y-49331476D01*
X181538571Y-49379095D01*
X181586190Y-49474333D01*
X181586190Y-49855286D01*
X182062381Y-48331476D02*
X182062381Y-48902905D01*
X182062381Y-48617191D02*
X181062381Y-48617191D01*
X181205238Y-48712429D01*
X181300476Y-48807667D01*
X181348095Y-48902905D01*
X182062381Y-47379095D02*
X182062381Y-47950524D01*
X182062381Y-47664810D02*
X181062381Y-47664810D01*
X181205238Y-47760048D01*
X181300476Y-47855286D01*
X181348095Y-47950524D01*
X169911734Y-94913143D02*
X169864115Y-94960762D01*
X169721258Y-95008381D01*
X169626020Y-95008381D01*
X169483162Y-94960762D01*
X169387924Y-94865524D01*
X169340305Y-94770286D01*
X169292686Y-94579810D01*
X169292686Y-94436952D01*
X169340305Y-94246476D01*
X169387924Y-94151238D01*
X169483162Y-94056000D01*
X169626020Y-94008381D01*
X169721258Y-94008381D01*
X169864115Y-94056000D01*
X169911734Y-94103619D01*
X170387924Y-95008381D02*
X170578400Y-95008381D01*
X170673639Y-94960762D01*
X170721258Y-94913143D01*
X170816496Y-94770286D01*
X170864115Y-94579810D01*
X170864115Y-94198857D01*
X170816496Y-94103619D01*
X170768877Y-94056000D01*
X170673639Y-94008381D01*
X170483162Y-94008381D01*
X170387924Y-94056000D01*
X170340305Y-94103619D01*
X170292686Y-94198857D01*
X170292686Y-94436952D01*
X170340305Y-94532190D01*
X170387924Y-94579810D01*
X170483162Y-94627429D01*
X170673639Y-94627429D01*
X170768877Y-94579810D01*
X170816496Y-94532190D01*
X170864115Y-94436952D01*
X182389543Y-93693943D02*
X182341924Y-93741562D01*
X182199067Y-93789181D01*
X182103829Y-93789181D01*
X181960971Y-93741562D01*
X181865733Y-93646324D01*
X181818114Y-93551086D01*
X181770495Y-93360610D01*
X181770495Y-93217752D01*
X181818114Y-93027276D01*
X181865733Y-92932038D01*
X181960971Y-92836800D01*
X182103829Y-92789181D01*
X182199067Y-92789181D01*
X182341924Y-92836800D01*
X182389543Y-92884419D01*
X183341924Y-93789181D02*
X182770495Y-93789181D01*
X183056209Y-93789181D02*
X183056209Y-92789181D01*
X182960971Y-92932038D01*
X182865733Y-93027276D01*
X182770495Y-93074895D01*
X183960971Y-92789181D02*
X184056210Y-92789181D01*
X184151448Y-92836800D01*
X184199067Y-92884419D01*
X184246686Y-92979657D01*
X184294305Y-93170133D01*
X184294305Y-93408229D01*
X184246686Y-93598705D01*
X184199067Y-93693943D01*
X184151448Y-93741562D01*
X184056210Y-93789181D01*
X183960971Y-93789181D01*
X183865733Y-93741562D01*
X183818114Y-93693943D01*
X183770495Y-93598705D01*
X183722876Y-93408229D01*
X183722876Y-93170133D01*
X183770495Y-92979657D01*
X183818114Y-92884419D01*
X183865733Y-92836800D01*
X183960971Y-92789181D01*
D18*
X141115143Y-62157429D02*
X141115143Y-63391143D01*
X141169571Y-63536286D01*
X141224000Y-63608857D01*
X141332857Y-63681429D01*
X141550571Y-63681429D01*
X141659429Y-63608857D01*
X141713857Y-63536286D01*
X141768286Y-63391143D01*
X141768286Y-62157429D01*
X142911286Y-63681429D02*
X142258143Y-63681429D01*
X142584715Y-63681429D02*
X142584715Y-62157429D01*
X142475858Y-62375143D01*
X142367000Y-62520286D01*
X142258143Y-62592857D01*
D19*
D12*
X189380905Y-52014381D02*
X189380905Y-51014381D01*
X189619000Y-51014381D01*
X189761858Y-51062000D01*
X189857096Y-51157238D01*
X189904715Y-51252476D01*
X189952334Y-51442952D01*
X189952334Y-51585810D01*
X189904715Y-51776286D01*
X189857096Y-51871524D01*
X189761858Y-51966762D01*
X189619000Y-52014381D01*
X189380905Y-52014381D01*
X190857096Y-51014381D02*
X190380905Y-51014381D01*
X190333286Y-51490571D01*
X190380905Y-51442952D01*
X190476143Y-51395333D01*
X190714239Y-51395333D01*
X190809477Y-51442952D01*
X190857096Y-51490571D01*
X190904715Y-51585810D01*
X190904715Y-51823905D01*
X190857096Y-51919143D01*
X190809477Y-51966762D01*
X190714239Y-52014381D01*
X190476143Y-52014381D01*
X190380905Y-51966762D01*
X190333286Y-51919143D01*
X190150095Y-47175581D02*
X190150095Y-46175581D01*
X190721524Y-47175581D02*
X190292952Y-46604152D01*
X190721524Y-46175581D02*
X190150095Y-46747010D01*
D16*
X182622371Y-53006776D02*
X182199038Y-52341538D01*
X181896657Y-53006776D02*
X181896657Y-51609776D01*
X182380466Y-51609776D01*
X182501419Y-51676300D01*
X182561895Y-51742824D01*
X182622371Y-51875871D01*
X182622371Y-52075443D01*
X182561895Y-52208490D01*
X182501419Y-52275014D01*
X182380466Y-52341538D01*
X181896657Y-52341538D01*
X183831895Y-53006776D02*
X183106181Y-53006776D01*
X183469038Y-53006776D02*
X183469038Y-51609776D01*
X183348086Y-51809348D01*
X183227133Y-51942395D01*
X183106181Y-52008919D01*
X184315705Y-51742824D02*
X184376181Y-51676300D01*
X184497133Y-51609776D01*
X184799514Y-51609776D01*
X184920467Y-51676300D01*
X184980943Y-51742824D01*
X185041419Y-51875871D01*
X185041419Y-52008919D01*
X184980943Y-52208490D01*
X184255229Y-53006776D01*
X185041419Y-53006776D01*
D18*
X116815429Y-65870857D02*
X118049143Y-65870857D01*
X118194286Y-65816429D01*
X118266857Y-65762000D01*
X118339429Y-65653143D01*
X118339429Y-65435429D01*
X118266857Y-65326571D01*
X118194286Y-65272143D01*
X118049143Y-65217714D01*
X116815429Y-65217714D01*
X118339429Y-64619000D02*
X118339429Y-64401285D01*
X118266857Y-64292428D01*
X118194286Y-64238000D01*
X117976571Y-64129142D01*
X117686286Y-64074714D01*
X117105714Y-64074714D01*
X116960571Y-64129142D01*
X116888000Y-64183571D01*
X116815429Y-64292428D01*
X116815429Y-64510142D01*
X116888000Y-64619000D01*
X116960571Y-64673428D01*
X117105714Y-64727857D01*
X117468571Y-64727857D01*
X117613714Y-64673428D01*
X117686286Y-64619000D01*
X117758857Y-64510142D01*
X117758857Y-64292428D01*
X117686286Y-64183571D01*
X117613714Y-64129142D01*
X117468571Y-64074714D01*
D19*
D12*
X128256143Y-73243357D02*
X128303762Y-73290976D01*
X128351381Y-73433833D01*
X128351381Y-73529071D01*
X128303762Y-73671929D01*
X128208524Y-73767167D01*
X128113286Y-73814786D01*
X127922810Y-73862405D01*
X127779952Y-73862405D01*
X127589476Y-73814786D01*
X127494238Y-73767167D01*
X127399000Y-73671929D01*
X127351381Y-73529071D01*
X127351381Y-73433833D01*
X127399000Y-73290976D01*
X127446619Y-73243357D01*
X128351381Y-72290976D02*
X128351381Y-72862405D01*
X128351381Y-72576691D02*
X127351381Y-72576691D01*
X127494238Y-72671929D01*
X127589476Y-72767167D01*
X127637095Y-72862405D01*
X127446619Y-71910024D02*
X127399000Y-71862405D01*
X127351381Y-71767167D01*
X127351381Y-71529071D01*
X127399000Y-71433833D01*
X127446619Y-71386214D01*
X127541857Y-71338595D01*
X127637095Y-71338595D01*
X127779952Y-71386214D01*
X128351381Y-71957643D01*
X128351381Y-71338595D01*
M02*
