M48
;DRILL file {KiCad 4.0.2+dfsg1-stable} date So 05 Feb 2017 14:10:15 CET
;FORMAT={-:-/ absolute / inch / decimal}
FMAT,2
INCH,TZ
T1C0.020
T2C0.128
T3C0.150
%
G90
G05
M72
T1
X4.3012Y-3.9469
X4.3012Y-4.0453
X4.3307Y-3.9469
X4.3307Y-4.0453
X4.3602Y-3.9469
X4.3602Y-4.0453
X4.3898Y-3.9469
X4.3898Y-4.0453
X4.4193Y-3.9469
X4.4193Y-4.0453
X4.4488Y-3.9469
X4.4488Y-4.0453
X5.6201Y-3.9469
X5.6201Y-4.0453
X5.6496Y-3.9469
X5.6496Y-4.0453
X5.6791Y-3.9469
X5.6791Y-4.0453
X5.7087Y-3.9469
X5.7087Y-4.0453
X5.7382Y-3.9469
X5.7382Y-4.0453
X5.7677Y-3.9469
X5.7677Y-4.0453
X6.3169Y-4.6909
X6.3169Y-4.7205
X6.3169Y-4.75
X6.3169Y-4.7795
X6.3169Y-4.8091
X6.3169Y-4.8386
X6.3957Y-4.6909
X6.3957Y-4.7205
X6.3957Y-4.75
X6.3957Y-4.7795
X6.3957Y-4.8091
X6.3957Y-4.8386
X6.811Y-3.1496
X6.811Y-3.1791
X6.811Y-3.2087
X6.811Y-3.2382
X6.811Y-3.2677
X6.811Y-3.2972
X6.8563Y-3.9508
X6.8563Y-4.0453
X6.8858Y-3.9508
X6.8858Y-4.0453
X6.9154Y-3.9508
X6.9154Y-4.0453
X6.9449Y-3.9508
X6.9449Y-4.0453
X6.9488Y-2.372
X6.9488Y-2.4016
X6.9488Y-2.4311
X6.9488Y-2.4606
X6.9488Y-2.4902
X6.9488Y-2.5197
X6.9744Y-3.9508
X6.9744Y-4.0453
X7.0039Y-3.9508
X7.0039Y-4.0453
X7.0276Y-2.372
X7.0276Y-2.4016
X7.0276Y-2.4311
X7.0276Y-2.4606
X7.0276Y-2.4902
X7.0276Y-2.5197
X7.0276Y-3.1496
X7.0276Y-3.1791
X7.0276Y-3.2087
X7.0276Y-3.2382
X7.0276Y-3.2677
X7.0276Y-3.2972
T2
X4.4955Y-5.3858
X4.9455Y-5.3858
X5.3262Y-5.3858
X5.7762Y-5.3858
X6.79Y-5.37
X6.795Y-4.195
X7.24Y-5.37
X7.245Y-4.195
X7.743Y-2.61
X7.743Y-3.06
T3
X6.98Y-1.835
T0
M30
