M48
;DRILL file {KiCad 4.0.1-3.201512221402+6198~38~ubuntu14.04.1-stable} date Wed 13 Jan 2016 04:51:57 PM CET
;FORMAT={-:-/ absolute / inch / decimal}
FMAT,2
INCH,TZ
T1C0.016
T2C0.028
T3C0.031
T4C0.032
T5C0.035
T6C0.037
T7C0.039
T8C0.039
T9C0.040
T10C0.047
T11C0.063
T12C0.087
T13C0.091
T14C0.098
T15C0.126
%
G90
G05
M72
T1
X3.98Y-2.02
X4.0418Y-2.15
X4.0757Y-2.6107
X4.0866Y-2.0194
X4.1Y-2.88
X4.12Y-1.86
X4.1209Y-2.5091
X4.1257Y-2.7502
X4.129Y-4.76
X4.13Y-4.948
X4.1446Y-2.2212
X4.16Y-2.15
X4.19Y-2.975
X4.2Y-2.1
X4.2159Y-2.175
X4.244Y-4.37
X4.2573Y-2.2787
X4.26Y-1.8813
X4.275Y-1.99
X4.32Y-2.06
X4.32Y-4.56
X4.3318Y-2.7509
X4.335Y-1.845
X4.35Y-2.595
X4.4141Y-1.9858
X4.427Y-4.25
X4.428Y-4.189
X4.47Y-1.9
X4.48Y-2.74
X4.4875Y-4.5575
X4.4875Y-4.625
X4.4878Y-2.2172
X4.495Y-2.86
X4.5079Y-2.1172
X4.545Y-1.63
X4.57Y-2.545
X4.5874Y-2.107
X4.6319Y-2.0675
X4.6325Y-2.7675
X4.6358Y-1.8806
X4.6438Y-2.253
X4.726Y-4.19
X4.735Y-2.1122
X4.7425Y-4.65
X4.7425Y-4.8825
X4.7508Y-1.8569
X4.794Y-2.1892
X4.8067Y-2.4117
X4.8072Y-1.8796
X4.811Y-4.532
X4.813Y-2.378
X4.815Y-2.325
X4.8358Y-1.8325
X4.837Y-4.878
X4.85Y-2.85
X4.86Y-2.975
X4.8664Y-2.1641
X4.88Y-4.2875
X4.885Y-5.475
X4.8988Y-2.3
X4.8994Y-2.3798
X4.9054Y-2.2429
X4.9061Y-2.1541
X4.925Y-1.85
X4.9305Y-2.0565
X4.935Y-5.1375
X4.9422Y-2.5072
X4.97Y-2.295
X4.985Y-4.565
X5.005Y-2.1
X5.011Y-4.694
X5.02Y-1.73
X5.025Y-1.63
X5.046Y-4.656
X5.055Y-2.045
X5.055Y-2.1
X5.071Y-4.955
X5.075Y-1.8394
X5.11Y-1.735
X5.138Y-4.846
X5.139Y-4.747
X5.139Y-4.908
X5.1443Y-1.97
X5.17Y-2.06
X5.175Y-1.895
X5.185Y-4.194
X5.196Y-4.956
X5.252Y-4.246
X5.2625Y-5.475
X5.2753Y-1.6265
X5.295Y-2.82
X5.3379Y-2.8143
X5.35Y-2.4
X5.365Y-1.995
X5.365Y-2.31
X5.387Y-4.696
X5.39Y-4.565
X5.393Y-4.957
X5.4018Y-2.9482
X5.405Y-1.63
X5.41Y-4.908
X5.4221Y-3.05
X5.425Y-2.15
X5.495Y-2.16
X5.51Y-5.3425
X5.535Y-2.15
X5.5458Y-4.2892
X5.5463Y-2.92
X5.549Y-4.447
X5.555Y-1.65
X5.5615Y-2.5307
X5.575Y-4.572
X5.6Y-3.225
X5.665Y-2.995
X5.7365Y-2.84
X5.75Y-2.77
X5.755Y-3.035
X5.7725Y-4.8925
X5.785Y-2.97
X5.795Y-2.8
X5.808Y-4.619
X5.81Y-4.519
X5.83Y-2.6
X5.8423Y-2.7
X5.86Y-2.405
X5.865Y-2.935
X5.8654Y-2.6671
X5.9Y-2.5988
X5.9Y-2.75
X5.9Y-3.385
X5.915Y-2.67
X5.925Y-2.39
X5.935Y-4.8925
X5.975Y-2.6
X5.99Y-2.675
X6.0057Y-3.2473
X6.28Y-3.605
X6.4761Y-3.5196
X6.5175Y-2.7325
X6.52Y-2.6825
X6.55Y-3.55
X6.635Y-3.68
X6.635Y-3.745
X6.675Y-3.325
X6.695Y-4.905
X6.7375Y-4.3975
X6.75Y-3.69
X6.8Y-3.64
X6.9425Y-4.8675
X6.945Y-4.7
X6.9525Y-4.8075
X7.075Y-4.805
X7.1325Y-4.7475
X7.1325Y-4.895
X7.145Y-3.6775
X7.1625Y-4.8675
X7.195Y-5.0775
T2
X6.3249Y-2.975
X6.3249Y-3.375
T3
X4.245Y-3.4975
X4.615Y-2.965
X4.937Y-4.356
X4.937Y-4.456
X4.937Y-4.776
X4.937Y-4.876
X5.061Y-3.26
X5.085Y-3.755
X5.1391Y-2.3025
X5.185Y-2.8091
X5.185Y-2.9075
X5.21Y-2.4566
X5.21Y-2.555
X5.2375Y-2.3025
X5.245Y-2.6516
X5.245Y-2.75
X5.635Y-2.75
X5.667Y-4.356
X5.667Y-4.456
X5.667Y-4.776
X5.667Y-4.876
X5.7466Y-2.22
X5.7975Y-3.305
X6.195Y-1.695
X6.195Y-1.98
X6.33Y-3.5566
T4
X4.0225Y-3.0825
X4.0225Y-3.3825
X4.1225Y-3.0825
X4.1225Y-3.3825
X4.2225Y-3.0825
X4.2225Y-3.3825
X4.245Y-3.5959
X4.3225Y-3.0825
X4.3225Y-3.3825
X4.375Y-3.485
X4.375Y-3.59
X4.385Y-2.655
X4.385Y-2.955
X4.495Y-2.65
X4.495Y-2.95
X4.55Y-3.08
X4.55Y-3.38
X4.615Y-2.8666
X4.65Y-3.08
X4.65Y-3.38
X4.675Y-3.485
X4.675Y-3.59
X4.7319Y-2.2091
X4.7319Y-2.3091
X4.7319Y-2.4091
X4.7319Y-2.5091
X4.7319Y-2.6091
X4.7319Y-2.7091
X4.7319Y-2.8091
X4.7319Y-2.9091
X4.75Y-3.08
X4.75Y-3.38
X4.785Y-3.48
X4.79Y-3.59
X4.85Y-3.08
X4.85Y-3.38
X5.0319Y-2.2091
X5.0319Y-2.3091
X5.0319Y-2.4091
X5.0319Y-2.5091
X5.0319Y-2.6091
X5.0319Y-2.7091
X5.0319Y-2.8091
X5.0319Y-2.9091
X5.061Y-3.3584
X5.085Y-3.48
X5.085Y-3.8534
X5.09Y-3.59
X5.205Y-3.06
X5.205Y-3.16
X5.205Y-3.26
X5.205Y-3.36
X5.205Y-3.555
X5.205Y-3.655
X5.205Y-3.755
X5.205Y-3.855
X5.3625Y-2.2175
X5.435Y-2.33
X5.435Y-2.63
X5.505Y-3.06
X5.505Y-3.16
X5.505Y-3.26
X5.505Y-3.36
X5.505Y-3.555
X5.505Y-3.655
X5.505Y-3.755
X5.505Y-3.855
X5.535Y-2.33
X5.535Y-2.63
X5.5366Y-2.75
X5.605Y-3.115
X5.605Y-3.415
X5.635Y-2.33
X5.635Y-2.63
X5.6625Y-2.2175
X5.695Y-3.53
X5.695Y-3.83
X5.715Y-3.115
X5.715Y-3.415
X5.735Y-2.33
X5.735Y-2.63
X5.7975Y-3.2066
X5.845Y-2.22
X5.91Y-3.56
X5.91Y-3.66
X5.91Y-3.76
X5.91Y-3.86
X5.915Y-3.005
X5.915Y-3.105
X5.915Y-3.205
X5.915Y-3.305
X5.925Y-2.235
X5.925Y-2.535
X6.135Y-2.24
X6.135Y-2.34
X6.135Y-2.44
X6.195Y-1.7934
X6.195Y-1.8816
X6.21Y-3.56
X6.21Y-3.66
X6.21Y-3.76
X6.21Y-3.86
X6.215Y-3.005
X6.215Y-3.105
X6.215Y-3.205
X6.215Y-3.305
X6.33Y-3.655
X6.435Y-2.24
X6.435Y-2.34
X6.435Y-2.44
X6.435Y-2.98
X6.435Y-3.28
X7.072Y-2.062
X7.372Y-2.062
T5
X4.5455Y-5.1362
X4.5955Y-5.0362
X4.6455Y-5.1362
X4.6955Y-5.0362
X4.7455Y-5.1362
X4.7955Y-5.0362
X4.8455Y-5.1362
X4.8955Y-5.0362
X5.3762Y-5.1362
X5.4262Y-5.0362
X5.4762Y-5.1362
X5.5262Y-5.0362
X5.5762Y-5.1362
X5.6262Y-5.0362
X5.6762Y-5.1362
X5.7262Y-5.0362
X6.84Y-5.1204
X6.845Y-4.5446
X6.89Y-5.0204
X6.895Y-4.4446
X6.94Y-5.1204
X6.945Y-4.5446
X6.99Y-5.0204
X6.995Y-4.4446
X7.04Y-5.1204
X7.045Y-4.5446
X7.09Y-5.0204
X7.095Y-4.4446
X7.14Y-5.1204
X7.145Y-4.5446
X7.19Y-5.0204
X7.195Y-4.4446
T6
X4.285Y-2.14
X4.285Y-2.238
X4.364Y-2.14
X4.364Y-2.238
T7
X4.1837Y-4.6245
X4.1837Y-4.7131
X4.1837Y-4.7918
X4.1837Y-4.8706
X4.185Y-4.945
X4.2822Y-4.6245
X4.2822Y-4.7013
X4.2822Y-4.78
X4.2822Y-4.8587
X4.2822Y-4.9355
X4.41Y-4.31
X4.4195Y-4.4072
X4.4844Y-4.3087
X4.4963Y-4.4072
X4.5632Y-4.3087
X4.575Y-4.4072
X4.6419Y-4.3087
X4.6537Y-4.4072
X4.7305Y-4.3087
X4.7305Y-4.4072
X5.165Y-4.31
X5.1695Y-4.4072
X5.2344Y-4.3087
X5.2463Y-4.4072
X5.3132Y-4.3087
X5.325Y-4.4072
X5.3919Y-4.3087
X5.4037Y-4.4072
X5.4805Y-4.3087
X5.4805Y-4.4072
T8
X6.32Y-1.735
X6.32Y-1.835
X6.32Y-1.935
X7.33Y-1.908
X7.43Y-1.908
T9
X4.0197Y-2.5567
X4.0197Y-2.6567
X4.0197Y-2.7567
X4.0197Y-2.8567
X4.0197Y-2.9567
X4.271Y-1.68
X4.271Y-1.78
X4.371Y-1.68
X4.371Y-1.78
X4.471Y-1.68
X4.471Y-1.78
X4.571Y-1.68
X4.571Y-1.78
X4.571Y-1.923
X4.571Y-2.023
X4.671Y-1.68
X4.671Y-1.78
X4.671Y-1.923
X4.671Y-2.023
X4.771Y-1.68
X4.771Y-1.78
X4.771Y-1.923
X4.771Y-2.023
X4.871Y-1.68
X4.871Y-1.78
X4.871Y-1.923
X4.871Y-2.023
X4.971Y-1.68
X4.971Y-1.78
X4.971Y-1.923
X5.071Y-1.68
X5.071Y-1.78
X5.071Y-1.923
X5.171Y-1.68
X5.171Y-1.78
X5.271Y-1.68
X5.271Y-1.78
X5.285Y-2.1
X5.3093Y-1.9026
X5.371Y-1.68
X5.371Y-1.78
X5.385Y-2.1
X5.4093Y-1.9026
X5.471Y-1.68
X5.471Y-1.78
X5.485Y-2.1
X5.5093Y-1.9026
X5.585Y-2.1
X5.685Y-2.1
X5.785Y-2.1
X5.885Y-2.1
X5.942Y-4.419
X5.942Y-4.519
X5.942Y-4.619
X5.985Y-2.1
X6.035Y-2.34
X6.035Y-2.44
X6.085Y-2.1
X6.43Y-2.115
X6.53Y-2.115
X6.55Y-4.545
X6.55Y-4.645
X6.55Y-4.745
X6.55Y-4.845
X6.55Y-4.945
X6.55Y-5.045
X6.9125Y-3.865
X7.0125Y-3.865
X7.1125Y-3.865
X7.2125Y-3.865
X7.425Y-4.43
X7.425Y-4.53
X7.425Y-4.63
X7.425Y-4.73
X7.425Y-4.83
X7.425Y-4.93
X7.425Y-5.03
X7.425Y-5.13
X7.525Y-4.43
X7.525Y-4.53
X7.525Y-4.63
X7.525Y-4.73
X7.525Y-4.83
X7.525Y-4.93
X7.525Y-5.03
X7.525Y-5.13
T10
X4.2555Y-3.7724
X4.3933Y-3.7724
X4.5311Y-3.7724
X4.6689Y-3.7724
X4.8067Y-3.7724
X4.9445Y-3.7724
X5.8186Y-4.2226
X5.9564Y-4.2226
X6.1374Y-4.6194
X6.1374Y-4.7572
X6.1374Y-4.895
X6.1374Y-5.0328
X6.1374Y-5.1706
X6.6224Y-2.9561
X6.6224Y-3.0939
X6.6224Y-3.2422
X6.6224Y-3.38
X6.6224Y-3.5178
X6.7474Y-2.1744
X6.7474Y-2.3122
X6.7474Y-2.45
X6.7474Y-2.5878
X6.7474Y-2.7256
X7.7224Y-4.4355
X7.7224Y-4.5733
X7.7224Y-4.7111
X7.7224Y-4.8489
X7.7224Y-4.9867
X7.7224Y-5.1245
T11
X4.4154Y-5.2657
X5.0256Y-5.2657
X5.2461Y-5.2657
X5.8563Y-5.2657
X6.7099Y-5.2499
X6.7149Y-4.3151
X7.3201Y-5.2499
X7.3251Y-4.3151
T12
X4.0656Y-4.4946
X4.0656Y-5.0654
X4.2896Y-4.1906
X4.8604Y-4.1906
X5.0396Y-4.1906
X5.6104Y-4.1906
T13
X4.178Y-1.952
X4.178Y-2.426
T14
X4.0341Y-4.78
X4.575Y-4.1591
X5.325Y-4.1591
T15
X4.0551Y-1.6929
X4.0551Y-3.622
X4.0748Y-4.1929
X4.0748Y-5.374
X6.1614Y-4.1929
X6.1614Y-5.374
X6.5551Y-4.1929
X6.5551Y-5.374
X7.4213Y-1.6929
X7.4213Y-3.8189
X7.7362Y-4.1929
X7.7362Y-5.374
T0
M30
