%TF.GenerationSoftware,KiCad,Pcbnew,(2015-06-12 BZR 5742)-product*%
%TF.CreationDate,2016-05-16T15:37:26+02:00*%
%TF.JobID,BPi-CAN,4250692D43414E2E6B696361645F7063,rev?*%
%TF.FileFunction,Legend,Top*%
%FSLAX46Y46*%
G04 Gerber Fmt 4.6, Leading zero omitted, Abs format (unit mm)*
G04 Created by KiCad (PCBNEW (2015-06-12 BZR 5742)-product) date Mon 16 May 2016 03:37:26 PM CEST*
%MOMM*%
G01*
G04 APERTURE LIST*
%ADD10C,0.100000*%
%ADD11C,0.200000*%
%ADD12C,0.300000*%
%ADD13C,0.150000*%
%ADD14C,0.254000*%
%ADD15C,0.381000*%
%ADD16C,0.304800*%
%ADD17C,0.203200*%
%ADD18C,0.285750*%
%ADD19C,0.287020*%
G04 APERTURE END LIST*
D10*
D11*
X150037933Y-118891105D02*
X150304600Y-119691105D01*
X150571267Y-118891105D01*
X151295076Y-119614914D02*
X151256981Y-119653010D01*
X151142695Y-119691105D01*
X151066505Y-119691105D01*
X150952219Y-119653010D01*
X150876028Y-119576819D01*
X150837933Y-119500629D01*
X150799838Y-119348248D01*
X150799838Y-119233962D01*
X150837933Y-119081581D01*
X150876028Y-119005390D01*
X150952219Y-118929200D01*
X151066505Y-118891105D01*
X151142695Y-118891105D01*
X151256981Y-118929200D01*
X151295076Y-118967295D01*
X152095076Y-119614914D02*
X152056981Y-119653010D01*
X151942695Y-119691105D01*
X151866505Y-119691105D01*
X151752219Y-119653010D01*
X151676028Y-119576819D01*
X151637933Y-119500629D01*
X151599838Y-119348248D01*
X151599838Y-119233962D01*
X151637933Y-119081581D01*
X151676028Y-119005390D01*
X151752219Y-118929200D01*
X151866505Y-118891105D01*
X151942695Y-118891105D01*
X152056981Y-118929200D01*
X152095076Y-118967295D01*
X150723677Y-121316800D02*
X150647486Y-121278705D01*
X150533201Y-121278705D01*
X150418915Y-121316800D01*
X150342724Y-121392990D01*
X150304629Y-121469181D01*
X150266534Y-121621562D01*
X150266534Y-121735848D01*
X150304629Y-121888229D01*
X150342724Y-121964419D01*
X150418915Y-122040610D01*
X150533201Y-122078705D01*
X150609391Y-122078705D01*
X150723677Y-122040610D01*
X150761772Y-122002514D01*
X150761772Y-121735848D01*
X150609391Y-121735848D01*
X151104629Y-122078705D02*
X151104629Y-121278705D01*
X151561772Y-122078705D01*
X151561772Y-121278705D01*
X151942724Y-122078705D02*
X151942724Y-121278705D01*
X152133200Y-121278705D01*
X152247486Y-121316800D01*
X152323677Y-121392990D01*
X152361772Y-121469181D01*
X152399867Y-121621562D01*
X152399867Y-121735848D01*
X152361772Y-121888229D01*
X152323677Y-121964419D01*
X152247486Y-122040610D01*
X152133200Y-122078705D01*
X151942724Y-122078705D01*
X151638020Y-124199705D02*
X151257067Y-124199705D01*
X151218972Y-124580657D01*
X151257067Y-124542562D01*
X151333258Y-124504467D01*
X151523734Y-124504467D01*
X151599924Y-124542562D01*
X151638020Y-124580657D01*
X151676115Y-124656848D01*
X151676115Y-124847324D01*
X151638020Y-124923514D01*
X151599924Y-124961610D01*
X151523734Y-124999705D01*
X151333258Y-124999705D01*
X151257067Y-124961610D01*
X151218972Y-124923514D01*
X151904686Y-124199705D02*
X152171353Y-124999705D01*
X152438020Y-124199705D01*
X150215705Y-128174714D02*
X150177610Y-128212810D01*
X150063324Y-128250905D01*
X149987134Y-128250905D01*
X149872848Y-128212810D01*
X149796657Y-128136619D01*
X149758562Y-128060429D01*
X149720467Y-127908048D01*
X149720467Y-127793762D01*
X149758562Y-127641381D01*
X149796657Y-127565190D01*
X149872848Y-127489000D01*
X149987134Y-127450905D01*
X150063324Y-127450905D01*
X150177610Y-127489000D01*
X150215705Y-127527095D01*
X150520467Y-128022333D02*
X150901419Y-128022333D01*
X150444276Y-128250905D02*
X150710943Y-127450905D01*
X150977610Y-128250905D01*
X151244276Y-128250905D02*
X151244276Y-127450905D01*
X151701419Y-128250905D01*
X151701419Y-127450905D01*
X152463324Y-128250905D02*
X152082371Y-128250905D01*
X152082371Y-127450905D01*
X150171267Y-131679914D02*
X150133172Y-131718010D01*
X150018886Y-131756105D01*
X149942696Y-131756105D01*
X149828410Y-131718010D01*
X149752219Y-131641819D01*
X149714124Y-131565629D01*
X149676029Y-131413248D01*
X149676029Y-131298962D01*
X149714124Y-131146581D01*
X149752219Y-131070390D01*
X149828410Y-130994200D01*
X149942696Y-130956105D01*
X150018886Y-130956105D01*
X150133172Y-130994200D01*
X150171267Y-131032295D01*
X150476029Y-131527533D02*
X150856981Y-131527533D01*
X150399838Y-131756105D02*
X150666505Y-130956105D01*
X150933172Y-131756105D01*
X151199838Y-131756105D02*
X151199838Y-130956105D01*
X151656981Y-131756105D01*
X151656981Y-130956105D01*
X152037933Y-131756105D02*
X152037933Y-130956105D01*
X152037933Y-131337057D02*
X152495076Y-131337057D01*
X152495076Y-131756105D02*
X152495076Y-130956105D01*
X157956305Y-95910276D02*
X157956305Y-95415038D01*
X158261067Y-95681705D01*
X158261067Y-95567419D01*
X158299162Y-95491229D01*
X158337257Y-95453133D01*
X158413448Y-95415038D01*
X158603924Y-95415038D01*
X158680114Y-95453133D01*
X158718210Y-95491229D01*
X158756305Y-95567419D01*
X158756305Y-95795991D01*
X158718210Y-95872181D01*
X158680114Y-95910276D01*
X157956305Y-95186467D02*
X158756305Y-94919800D01*
X157956305Y-94653133D01*
X157956305Y-94462657D02*
X157956305Y-93967419D01*
X158261067Y-94234086D01*
X158261067Y-94119800D01*
X158299162Y-94043610D01*
X158337257Y-94005514D01*
X158413448Y-93967419D01*
X158603924Y-93967419D01*
X158680114Y-94005514D01*
X158718210Y-94043610D01*
X158756305Y-94119800D01*
X158756305Y-94348372D01*
X158718210Y-94424562D01*
X158680114Y-94462657D01*
X166465210Y-95541981D02*
X166503305Y-95427695D01*
X166503305Y-95237219D01*
X166465210Y-95161029D01*
X166427114Y-95122933D01*
X166350924Y-95084838D01*
X166274733Y-95084838D01*
X166198543Y-95122933D01*
X166160448Y-95161029D01*
X166122352Y-95237219D01*
X166084257Y-95389600D01*
X166046162Y-95465791D01*
X166008067Y-95503886D01*
X165931876Y-95541981D01*
X165855686Y-95541981D01*
X165779495Y-95503886D01*
X165741400Y-95465791D01*
X165703305Y-95389600D01*
X165703305Y-95199124D01*
X165741400Y-95084838D01*
X166427114Y-94284838D02*
X166465210Y-94322933D01*
X166503305Y-94437219D01*
X166503305Y-94513409D01*
X166465210Y-94627695D01*
X166389019Y-94703886D01*
X166312829Y-94741981D01*
X166160448Y-94780076D01*
X166046162Y-94780076D01*
X165893781Y-94741981D01*
X165817590Y-94703886D01*
X165741400Y-94627695D01*
X165703305Y-94513409D01*
X165703305Y-94437219D01*
X165741400Y-94322933D01*
X165779495Y-94284838D01*
X166503305Y-93561028D02*
X166503305Y-93941981D01*
X165703305Y-93941981D01*
X163925210Y-95637228D02*
X163963305Y-95522942D01*
X163963305Y-95332466D01*
X163925210Y-95256276D01*
X163887114Y-95218180D01*
X163810924Y-95180085D01*
X163734733Y-95180085D01*
X163658543Y-95218180D01*
X163620448Y-95256276D01*
X163582352Y-95332466D01*
X163544257Y-95484847D01*
X163506162Y-95561038D01*
X163468067Y-95599133D01*
X163391876Y-95637228D01*
X163315686Y-95637228D01*
X163239495Y-95599133D01*
X163201400Y-95561038D01*
X163163305Y-95484847D01*
X163163305Y-95294371D01*
X163201400Y-95180085D01*
X163963305Y-94837228D02*
X163163305Y-94837228D01*
X163163305Y-94646752D01*
X163201400Y-94532466D01*
X163277590Y-94456275D01*
X163353781Y-94418180D01*
X163506162Y-94380085D01*
X163620448Y-94380085D01*
X163772829Y-94418180D01*
X163849019Y-94456275D01*
X163925210Y-94532466D01*
X163963305Y-94646752D01*
X163963305Y-94837228D01*
X163734733Y-94075323D02*
X163734733Y-93694371D01*
X163963305Y-94151514D02*
X163163305Y-93884847D01*
X163963305Y-93618180D01*
X160763000Y-95275323D02*
X160724905Y-95351514D01*
X160724905Y-95465799D01*
X160763000Y-95580085D01*
X160839190Y-95656276D01*
X160915381Y-95694371D01*
X161067762Y-95732466D01*
X161182048Y-95732466D01*
X161334429Y-95694371D01*
X161410619Y-95656276D01*
X161486810Y-95580085D01*
X161524905Y-95465799D01*
X161524905Y-95389609D01*
X161486810Y-95275323D01*
X161448714Y-95237228D01*
X161182048Y-95237228D01*
X161182048Y-95389609D01*
X161524905Y-94894371D02*
X160724905Y-94894371D01*
X161524905Y-94437228D01*
X160724905Y-94437228D01*
X161524905Y-94056276D02*
X160724905Y-94056276D01*
X160724905Y-93865800D01*
X160763000Y-93751514D01*
X160839190Y-93675323D01*
X160915381Y-93637228D01*
X161067762Y-93599133D01*
X161182048Y-93599133D01*
X161334429Y-93637228D01*
X161410619Y-93675323D01*
X161486810Y-93751514D01*
X161524905Y-93865800D01*
X161524905Y-94056276D01*
D12*
X107065071Y-72397714D02*
X107065071Y-71540571D01*
X108565071Y-71969142D02*
X107065071Y-71969142D01*
X108565071Y-71183428D02*
X107565071Y-70397714D01*
X107565071Y-71183428D02*
X108565071Y-70397714D01*
X108565071Y-69826285D02*
X107065071Y-69826285D01*
X107065071Y-69469142D01*
X107136500Y-69254857D01*
X107279357Y-69111999D01*
X107422214Y-69040571D01*
X107707929Y-68969142D01*
X107922214Y-68969142D01*
X108207929Y-69040571D01*
X108350786Y-69111999D01*
X108493643Y-69254857D01*
X108565071Y-69469142D01*
X108565071Y-69826285D01*
X106088571Y-71568357D02*
X105374286Y-72068357D01*
X106088571Y-72425500D02*
X104588571Y-72425500D01*
X104588571Y-71854072D01*
X104660000Y-71711214D01*
X104731429Y-71639786D01*
X104874286Y-71568357D01*
X105088571Y-71568357D01*
X105231429Y-71639786D01*
X105302857Y-71711214D01*
X105374286Y-71854072D01*
X105374286Y-72425500D01*
X106088571Y-71068357D02*
X105088571Y-70282643D01*
X105088571Y-71068357D02*
X106088571Y-70282643D01*
X106088571Y-69711214D02*
X104588571Y-69711214D01*
X104588571Y-69354071D01*
X104660000Y-69139786D01*
X104802857Y-68996928D01*
X104945714Y-68925500D01*
X105231429Y-68854071D01*
X105445714Y-68854071D01*
X105731429Y-68925500D01*
X105874286Y-68996928D01*
X106017143Y-69139786D01*
X106088571Y-69354071D01*
X106088571Y-69711214D01*
D11*
X165811333Y-55314905D02*
X166078000Y-56114905D01*
X166344667Y-55314905D01*
X167068476Y-56038714D02*
X167030381Y-56076810D01*
X166916095Y-56114905D01*
X166839905Y-56114905D01*
X166725619Y-56076810D01*
X166649428Y-56000619D01*
X166611333Y-55924429D01*
X166573238Y-55772048D01*
X166573238Y-55657762D01*
X166611333Y-55505381D01*
X166649428Y-55429190D01*
X166725619Y-55353000D01*
X166839905Y-55314905D01*
X166916095Y-55314905D01*
X167030381Y-55353000D01*
X167068476Y-55391095D01*
X167868476Y-56038714D02*
X167830381Y-56076810D01*
X167716095Y-56114905D01*
X167639905Y-56114905D01*
X167525619Y-56076810D01*
X167449428Y-56000619D01*
X167411333Y-55924429D01*
X167373238Y-55772048D01*
X167373238Y-55657762D01*
X167411333Y-55505381D01*
X167449428Y-55429190D01*
X167525619Y-55353000D01*
X167639905Y-55314905D01*
X167716095Y-55314905D01*
X167830381Y-55353000D01*
X167868476Y-55391095D01*
X165950977Y-58274000D02*
X165874786Y-58235905D01*
X165760501Y-58235905D01*
X165646215Y-58274000D01*
X165570024Y-58350190D01*
X165531929Y-58426381D01*
X165493834Y-58578762D01*
X165493834Y-58693048D01*
X165531929Y-58845429D01*
X165570024Y-58921619D01*
X165646215Y-58997810D01*
X165760501Y-59035905D01*
X165836691Y-59035905D01*
X165950977Y-58997810D01*
X165989072Y-58959714D01*
X165989072Y-58693048D01*
X165836691Y-58693048D01*
X166331929Y-59035905D02*
X166331929Y-58235905D01*
X166789072Y-59035905D01*
X166789072Y-58235905D01*
X167170024Y-59035905D02*
X167170024Y-58235905D01*
X167360500Y-58235905D01*
X167474786Y-58274000D01*
X167550977Y-58350190D01*
X167589072Y-58426381D01*
X167627167Y-58578762D01*
X167627167Y-58693048D01*
X167589072Y-58845429D01*
X167550977Y-58921619D01*
X167474786Y-58997810D01*
X167360500Y-59035905D01*
X167170024Y-59035905D01*
X166471620Y-61728405D02*
X166090667Y-61728405D01*
X166052572Y-62109357D01*
X166090667Y-62071262D01*
X166166858Y-62033167D01*
X166357334Y-62033167D01*
X166433524Y-62071262D01*
X166471620Y-62109357D01*
X166509715Y-62185548D01*
X166509715Y-62376024D01*
X166471620Y-62452214D01*
X166433524Y-62490310D01*
X166357334Y-62528405D01*
X166166858Y-62528405D01*
X166090667Y-62490310D01*
X166052572Y-62452214D01*
X166738286Y-61728405D02*
X167004953Y-62528405D01*
X167271620Y-61728405D01*
X165563667Y-69437214D02*
X165525572Y-69475310D01*
X165411286Y-69513405D01*
X165335096Y-69513405D01*
X165220810Y-69475310D01*
X165144619Y-69399119D01*
X165106524Y-69322929D01*
X165068429Y-69170548D01*
X165068429Y-69056262D01*
X165106524Y-68903881D01*
X165144619Y-68827690D01*
X165220810Y-68751500D01*
X165335096Y-68713405D01*
X165411286Y-68713405D01*
X165525572Y-68751500D01*
X165563667Y-68789595D01*
X165868429Y-69284833D02*
X166249381Y-69284833D01*
X165792238Y-69513405D02*
X166058905Y-68713405D01*
X166325572Y-69513405D01*
X166592238Y-69513405D02*
X166592238Y-68713405D01*
X167049381Y-69513405D01*
X167049381Y-68713405D01*
X167430333Y-69513405D02*
X167430333Y-68713405D01*
X167430333Y-69094357D02*
X167887476Y-69094357D01*
X167887476Y-69513405D02*
X167887476Y-68713405D01*
X165658905Y-66262214D02*
X165620810Y-66300310D01*
X165506524Y-66338405D01*
X165430334Y-66338405D01*
X165316048Y-66300310D01*
X165239857Y-66224119D01*
X165201762Y-66147929D01*
X165163667Y-65995548D01*
X165163667Y-65881262D01*
X165201762Y-65728881D01*
X165239857Y-65652690D01*
X165316048Y-65576500D01*
X165430334Y-65538405D01*
X165506524Y-65538405D01*
X165620810Y-65576500D01*
X165658905Y-65614595D01*
X165963667Y-66109833D02*
X166344619Y-66109833D01*
X165887476Y-66338405D02*
X166154143Y-65538405D01*
X166420810Y-66338405D01*
X166687476Y-66338405D02*
X166687476Y-65538405D01*
X167144619Y-66338405D01*
X167144619Y-65538405D01*
X167906524Y-66338405D02*
X167525571Y-66338405D01*
X167525571Y-65538405D01*
X139547677Y-50298400D02*
X139471486Y-50260305D01*
X139357201Y-50260305D01*
X139242915Y-50298400D01*
X139166724Y-50374590D01*
X139128629Y-50450781D01*
X139090534Y-50603162D01*
X139090534Y-50717448D01*
X139128629Y-50869829D01*
X139166724Y-50946019D01*
X139242915Y-51022210D01*
X139357201Y-51060305D01*
X139433391Y-51060305D01*
X139547677Y-51022210D01*
X139585772Y-50984114D01*
X139585772Y-50717448D01*
X139433391Y-50717448D01*
X139928629Y-51060305D02*
X139928629Y-50260305D01*
X140385772Y-51060305D01*
X140385772Y-50260305D01*
X140766724Y-51060305D02*
X140766724Y-50260305D01*
X140957200Y-50260305D01*
X141071486Y-50298400D01*
X141147677Y-50374590D01*
X141185772Y-50450781D01*
X141223867Y-50603162D01*
X141223867Y-50717448D01*
X141185772Y-50869829D01*
X141147677Y-50946019D01*
X141071486Y-51022210D01*
X140957200Y-51060305D01*
X140766724Y-51060305D01*
X134270810Y-51034905D02*
X134004143Y-50653952D01*
X133813667Y-51034905D02*
X133813667Y-50234905D01*
X134118429Y-50234905D01*
X134194620Y-50273000D01*
X134232715Y-50311095D01*
X134270810Y-50387286D01*
X134270810Y-50501571D01*
X134232715Y-50577762D01*
X134194620Y-50615857D01*
X134118429Y-50653952D01*
X133813667Y-50653952D01*
X134537477Y-51034905D02*
X134956524Y-50501571D01*
X134537477Y-50501571D02*
X134956524Y-51034905D01*
X135261286Y-51034905D02*
X135261286Y-50234905D01*
X135451762Y-50234905D01*
X135566048Y-50273000D01*
X135642239Y-50349190D01*
X135680334Y-50425381D01*
X135718429Y-50577762D01*
X135718429Y-50692048D01*
X135680334Y-50844429D01*
X135642239Y-50920619D01*
X135566048Y-50996810D01*
X135451762Y-51034905D01*
X135261286Y-51034905D01*
X136614019Y-50311105D02*
X137071162Y-50311105D01*
X136842591Y-51111105D02*
X136842591Y-50311105D01*
X137261639Y-51111105D02*
X137680686Y-50577771D01*
X137261639Y-50577771D02*
X137680686Y-51111105D01*
X137985448Y-51111105D02*
X137985448Y-50311105D01*
X138175924Y-50311105D01*
X138290210Y-50349200D01*
X138366401Y-50425390D01*
X138404496Y-50501581D01*
X138442591Y-50653962D01*
X138442591Y-50768248D01*
X138404496Y-50920629D01*
X138366401Y-50996819D01*
X138290210Y-51073010D01*
X138175924Y-51111105D01*
X137985448Y-51111105D01*
D13*
X148250000Y-100000000D02*
X172500000Y-100000000D01*
X141000000Y-100000000D02*
X114750000Y-100000000D01*
X114750000Y-103000000D02*
X141000000Y-103000000D01*
X142500000Y-101500000D02*
G75*
G03X141000000Y-100000000I-1500000J0D01*
G01*
X141000000Y-103000000D02*
G75*
G03X142500000Y-101500000I0J1500000D01*
G01*
X101500000Y-100000000D02*
X107500000Y-100000000D01*
X101500000Y-103000000D02*
X107500000Y-103000000D01*
X148250000Y-100000000D02*
G75*
G03X146750000Y-101500000I0J-1500000D01*
G01*
X148250000Y-103000000D02*
X158500000Y-103000000D01*
X146750000Y-101500000D02*
G75*
G03X148250000Y-103000000I1500000J0D01*
G01*
X174000000Y-90000000D02*
X190000000Y-90000000D01*
X177500000Y-54000000D02*
X190000000Y-54000000D01*
X176000000Y-55500000D02*
X176000000Y-69500000D01*
X172500000Y-88500000D02*
X172500000Y-72500000D01*
X174000000Y-71000000D02*
X174500000Y-71000000D01*
X174500000Y-71000000D02*
G75*
G03X176000000Y-69500000I0J1500000D01*
G01*
X174000000Y-71000000D02*
G75*
G03X172500000Y-72500000I0J-1500000D01*
G01*
X161500000Y-119000000D02*
G75*
G03X163000000Y-117500000I0J1500000D01*
G01*
X163000000Y-124500000D02*
G75*
G03X161500000Y-123000000I-1500000J0D01*
G01*
X163000000Y-124500000D02*
X163000000Y-138500000D01*
X163000000Y-104500000D02*
X163000000Y-117500000D01*
X160000000Y-124500000D02*
X160000000Y-138500000D01*
X160000000Y-104500000D02*
X160000000Y-117500000D01*
X161500000Y-123000000D02*
G75*
G03X160000000Y-124500000I0J-1500000D01*
G01*
X160000000Y-117500000D02*
G75*
G03X161500000Y-119000000I1500000J0D01*
G01*
X164500000Y-103000000D02*
X172500000Y-103000000D01*
X164500000Y-140000000D02*
X198500000Y-140000000D01*
X163000000Y-138500000D02*
G75*
G03X164500000Y-140000000I1500000J0D01*
G01*
X158500000Y-140000000D02*
G75*
G03X160000000Y-138500000I0J1500000D01*
G01*
X164500000Y-103000000D02*
G75*
G03X163000000Y-104500000I0J-1500000D01*
G01*
X160000000Y-104500000D02*
G75*
G03X158500000Y-103000000I-1500000J0D01*
G01*
X113250000Y-101500000D02*
G75*
G03X114750000Y-103000000I1500000J0D01*
G01*
X114750000Y-100000000D02*
G75*
G03X113250000Y-101500000I0J-1500000D01*
G01*
X174000000Y-101500000D02*
G75*
G03X172500000Y-100000000I-1500000J0D01*
G01*
X172500000Y-103000000D02*
G75*
G03X174000000Y-101500000I0J1500000D01*
G01*
X178000000Y-101500000D02*
G75*
G03X179500000Y-103000000I1500000J0D01*
G01*
X179500000Y-100000000D02*
G75*
G03X178000000Y-101500000I0J-1500000D01*
G01*
X190000000Y-100000000D02*
X179500000Y-100000000D01*
X198500000Y-103000000D02*
X179500000Y-103000000D01*
X107500000Y-103000000D02*
G75*
G03X109000000Y-101500000I0J1500000D01*
G01*
X109000000Y-101500000D02*
G75*
G03X107500000Y-100000000I-1500000J0D01*
G01*
X198500000Y-140000000D02*
G75*
G03X200000000Y-138500000I0J1500000D01*
G01*
X200000000Y-104500000D02*
G75*
G03X198500000Y-103000000I-1500000J0D01*
G01*
X101500000Y-103000000D02*
G75*
G03X100000000Y-104500000I0J-1500000D01*
G01*
X100000000Y-138500000D02*
G75*
G03X101500000Y-140000000I1500000J0D01*
G01*
X100000000Y-104500000D02*
X100000000Y-138500000D01*
X200000000Y-104500000D02*
X200000000Y-138500000D01*
X101500000Y-140000000D02*
X158500000Y-140000000D01*
X191500000Y-91500000D02*
G75*
G03X190000000Y-90000000I-1500000J0D01*
G01*
X172500000Y-88500000D02*
G75*
G03X174000000Y-90000000I1500000J0D01*
G01*
X177500000Y-54000000D02*
G75*
G03X176000000Y-55500000I0J-1500000D01*
G01*
X190000000Y-54000000D02*
G75*
G03X191500000Y-52500000I0J1500000D01*
G01*
X191500000Y-41500000D02*
X191500000Y-52500000D01*
X143000000Y-41500000D02*
G75*
G03X141500000Y-40000000I-1500000J0D01*
G01*
X156500000Y-40000000D02*
G75*
G03X155000000Y-41500000I0J-1500000D01*
G01*
X153500000Y-51500000D02*
G75*
G03X155000000Y-50000000I0J1500000D01*
G01*
X143000000Y-50000000D02*
G75*
G03X144500000Y-51500000I1500000J0D01*
G01*
X144500000Y-51500000D02*
X153500000Y-51500000D01*
X143000000Y-41500000D02*
X143000000Y-50000000D01*
X155000000Y-41500000D02*
X155000000Y-50000000D01*
X190000000Y-40000000D02*
X156500000Y-40000000D01*
X100000000Y-41500000D02*
X100000000Y-98500000D01*
X191500000Y-91500000D02*
X191500000Y-98500000D01*
X191500000Y-41500000D02*
G75*
G03X190000000Y-40000000I-1500000J0D01*
G01*
X190000000Y-100000000D02*
G75*
G03X191500000Y-98500000I0J1500000D01*
G01*
X100000000Y-98500000D02*
G75*
G03X101500000Y-100000000I1500000J0D01*
G01*
X101500000Y-40000000D02*
G75*
G03X100000000Y-41500000I0J-1500000D01*
G01*
X101500000Y-40000000D02*
X141500000Y-40000000D01*
D14*
X107873800Y-61620400D02*
X106121200Y-63373000D01*
X106121200Y-63373000D02*
X104368600Y-61620400D01*
X107873800Y-49580800D02*
X106121200Y-47828200D01*
X106121200Y-47828200D02*
X104368600Y-49580800D01*
X106121200Y-49580800D02*
X95808800Y-49580800D01*
X95808800Y-49580800D02*
X95808800Y-61620400D01*
X95808800Y-61620400D02*
X106121200Y-61620400D01*
X106121200Y-61620400D02*
X111836200Y-61620400D01*
X111836200Y-61620400D02*
X111836200Y-49580800D01*
X111836200Y-49580800D02*
X106121200Y-49580800D01*
X161798000Y-56896000D02*
X163449000Y-56896000D01*
X157480000Y-56896000D02*
X155829000Y-56896000D01*
X157480000Y-56007000D02*
X157480000Y-57785000D01*
X157480000Y-57785000D02*
X161798000Y-57785000D01*
X161798000Y-57785000D02*
X161798000Y-56007000D01*
X161798000Y-56007000D02*
X157480000Y-56007000D01*
D15*
X111518000Y-125878000D02*
X111518000Y-140102000D01*
X111518000Y-140102000D02*
X113804000Y-140102000D01*
X128282000Y-125878000D02*
X128282000Y-140102000D01*
X128282000Y-140102000D02*
X125996000Y-140102000D01*
X111645000Y-125905000D02*
X128155000Y-125905000D01*
X113804000Y-140129000D02*
X125996000Y-140129000D01*
D13*
X131707500Y-60982500D02*
X131707500Y-55984500D01*
X131567500Y-60974500D02*
X131567500Y-55992500D01*
X131427500Y-60958500D02*
X131427500Y-58578500D01*
X131427500Y-58388500D02*
X131427500Y-56008500D01*
X131287500Y-60934500D02*
X131287500Y-58973500D01*
X131287500Y-57993500D02*
X131287500Y-56032500D01*
X131147500Y-60901500D02*
X131147500Y-59140500D01*
X131147500Y-57826500D02*
X131147500Y-56065500D01*
X131007500Y-60860500D02*
X131007500Y-59247500D01*
X131007500Y-57719500D02*
X131007500Y-56106500D01*
X130867500Y-60810500D02*
X130867500Y-59318500D01*
X130867500Y-57648500D02*
X130867500Y-56156500D01*
X130727500Y-60749500D02*
X130727500Y-59362500D01*
X130727500Y-57604500D02*
X130727500Y-56217500D01*
X130587500Y-60679500D02*
X130587500Y-59381500D01*
X130587500Y-57585500D02*
X130587500Y-56287500D01*
X130447500Y-60597500D02*
X130447500Y-59379500D01*
X130447500Y-57587500D02*
X130447500Y-56369500D01*
X130307500Y-60502500D02*
X130307500Y-59354500D01*
X130307500Y-57612500D02*
X130307500Y-56464500D01*
X130167500Y-60391500D02*
X130167500Y-59306500D01*
X130167500Y-57660500D02*
X130167500Y-56575500D01*
X130027500Y-60263500D02*
X130027500Y-59228500D01*
X130027500Y-57738500D02*
X130027500Y-56703500D01*
X129887500Y-60114500D02*
X129887500Y-59111500D01*
X129887500Y-57855500D02*
X129887500Y-56852500D01*
X129747500Y-59935500D02*
X129747500Y-58923500D01*
X129747500Y-58043500D02*
X129747500Y-57031500D01*
X129607500Y-59716500D02*
X129607500Y-57250500D01*
X129467500Y-59427500D02*
X129467500Y-57539500D01*
X129327500Y-58955500D02*
X129327500Y-58011500D01*
X131432500Y-58483500D02*
G75*
G03X131432500Y-58483500I-900000J0D01*
G01*
X134320000Y-58483500D02*
G75*
G03X134320000Y-58483500I-2537500J0D01*
G01*
X129835000Y-63572000D02*
X134833000Y-63572000D01*
X129843000Y-63432000D02*
X134825000Y-63432000D01*
X129859000Y-63292000D02*
X132239000Y-63292000D01*
X132429000Y-63292000D02*
X134809000Y-63292000D01*
X129883000Y-63152000D02*
X131844000Y-63152000D01*
X132824000Y-63152000D02*
X134785000Y-63152000D01*
X129916000Y-63012000D02*
X131677000Y-63012000D01*
X132991000Y-63012000D02*
X134752000Y-63012000D01*
X129957000Y-62872000D02*
X131570000Y-62872000D01*
X133098000Y-62872000D02*
X134711000Y-62872000D01*
X130007000Y-62732000D02*
X131499000Y-62732000D01*
X133169000Y-62732000D02*
X134661000Y-62732000D01*
X130068000Y-62592000D02*
X131455000Y-62592000D01*
X133213000Y-62592000D02*
X134600000Y-62592000D01*
X130138000Y-62452000D02*
X131436000Y-62452000D01*
X133232000Y-62452000D02*
X134530000Y-62452000D01*
X130220000Y-62312000D02*
X131438000Y-62312000D01*
X133230000Y-62312000D02*
X134448000Y-62312000D01*
X130315000Y-62172000D02*
X131463000Y-62172000D01*
X133205000Y-62172000D02*
X134353000Y-62172000D01*
X130426000Y-62032000D02*
X131511000Y-62032000D01*
X133157000Y-62032000D02*
X134242000Y-62032000D01*
X130554000Y-61892000D02*
X131589000Y-61892000D01*
X133079000Y-61892000D02*
X134114000Y-61892000D01*
X130703000Y-61752000D02*
X131706000Y-61752000D01*
X132962000Y-61752000D02*
X133965000Y-61752000D01*
X130882000Y-61612000D02*
X131894000Y-61612000D01*
X132774000Y-61612000D02*
X133786000Y-61612000D01*
X131101000Y-61472000D02*
X133567000Y-61472000D01*
X131390000Y-61332000D02*
X133278000Y-61332000D01*
X131862000Y-61192000D02*
X132806000Y-61192000D01*
X133234000Y-62397000D02*
G75*
G03X133234000Y-62397000I-900000J0D01*
G01*
X134871500Y-63647000D02*
G75*
G03X134871500Y-63647000I-2537500J0D01*
G01*
X130724000Y-68525000D02*
X135722000Y-68525000D01*
X130732000Y-68385000D02*
X135714000Y-68385000D01*
X130748000Y-68245000D02*
X133128000Y-68245000D01*
X133318000Y-68245000D02*
X135698000Y-68245000D01*
X130772000Y-68105000D02*
X132733000Y-68105000D01*
X133713000Y-68105000D02*
X135674000Y-68105000D01*
X130805000Y-67965000D02*
X132566000Y-67965000D01*
X133880000Y-67965000D02*
X135641000Y-67965000D01*
X130846000Y-67825000D02*
X132459000Y-67825000D01*
X133987000Y-67825000D02*
X135600000Y-67825000D01*
X130896000Y-67685000D02*
X132388000Y-67685000D01*
X134058000Y-67685000D02*
X135550000Y-67685000D01*
X130957000Y-67545000D02*
X132344000Y-67545000D01*
X134102000Y-67545000D02*
X135489000Y-67545000D01*
X131027000Y-67405000D02*
X132325000Y-67405000D01*
X134121000Y-67405000D02*
X135419000Y-67405000D01*
X131109000Y-67265000D02*
X132327000Y-67265000D01*
X134119000Y-67265000D02*
X135337000Y-67265000D01*
X131204000Y-67125000D02*
X132352000Y-67125000D01*
X134094000Y-67125000D02*
X135242000Y-67125000D01*
X131315000Y-66985000D02*
X132400000Y-66985000D01*
X134046000Y-66985000D02*
X135131000Y-66985000D01*
X131443000Y-66845000D02*
X132478000Y-66845000D01*
X133968000Y-66845000D02*
X135003000Y-66845000D01*
X131592000Y-66705000D02*
X132595000Y-66705000D01*
X133851000Y-66705000D02*
X134854000Y-66705000D01*
X131771000Y-66565000D02*
X132783000Y-66565000D01*
X133663000Y-66565000D02*
X134675000Y-66565000D01*
X131990000Y-66425000D02*
X134456000Y-66425000D01*
X132279000Y-66285000D02*
X134167000Y-66285000D01*
X132751000Y-66145000D02*
X133695000Y-66145000D01*
X134123000Y-67350000D02*
G75*
G03X134123000Y-67350000I-900000J0D01*
G01*
X135760500Y-68600000D02*
G75*
G03X135760500Y-68600000I-2537500J0D01*
G01*
X160652460Y-78358480D02*
X160652460Y-76961480D01*
X160652460Y-82803480D02*
X160652460Y-84327480D01*
X159890460Y-82422480D02*
X161414460Y-82422480D01*
X159890460Y-82676480D02*
X161414460Y-82676480D01*
X160652460Y-82930480D02*
X161414460Y-82930480D01*
X161414460Y-82930480D02*
X161414460Y-78358480D01*
X161414460Y-78358480D02*
X159890460Y-78358480D01*
X159890460Y-78358480D02*
X159890460Y-82930480D01*
X159890460Y-82930480D02*
X160652460Y-82930480D01*
X198786000Y-136500000D02*
G75*
G03X198786000Y-136500000I-2286000J0D01*
G01*
X198786000Y-106500000D02*
G75*
G03X198786000Y-106500000I-2286000J0D01*
G01*
X168786000Y-106500000D02*
G75*
G03X168786000Y-106500000I-2286000J0D01*
G01*
X168786000Y-136500000D02*
G75*
G03X168786000Y-136500000I-2286000J0D01*
G01*
X158786000Y-136500000D02*
G75*
G03X158786000Y-136500000I-2286000J0D01*
G01*
X158786000Y-106500000D02*
G75*
G03X158786000Y-106500000I-2286000J0D01*
G01*
X105786000Y-106500000D02*
G75*
G03X105786000Y-106500000I-2286000J0D01*
G01*
X105786000Y-136500000D02*
G75*
G03X105786000Y-136500000I-2286000J0D01*
G01*
X105286000Y-92000000D02*
G75*
G03X105286000Y-92000000I-2286000J0D01*
G01*
X145713000Y-55138000D02*
X148713000Y-55138000D01*
X148713000Y-57638000D02*
X145713000Y-57638000D01*
X143379000Y-71100000D02*
X140379000Y-71100000D01*
X140379000Y-68600000D02*
X143379000Y-68600000D01*
X152019000Y-60706000D02*
X152019000Y-58166000D01*
X151739000Y-63526000D02*
X151739000Y-61976000D01*
X152019000Y-60706000D02*
X154559000Y-60706000D01*
X154839000Y-61976000D02*
X154839000Y-63526000D01*
X154839000Y-63526000D02*
X151739000Y-63526000D01*
X154559000Y-60706000D02*
X154559000Y-58166000D01*
X154559000Y-58166000D02*
X152019000Y-58166000D01*
X190786000Y-43000000D02*
G75*
G03X190786000Y-43000000I-2286000J0D01*
G01*
X190786000Y-97000000D02*
G75*
G03X190786000Y-97000000I-2286000J0D01*
G01*
X105286000Y-43000000D02*
G75*
G03X105286000Y-43000000I-2286000J0D01*
G01*
X158603000Y-42803000D02*
X158603000Y-45803000D01*
X156103000Y-45803000D02*
X156103000Y-42803000D01*
X156103000Y-50542000D02*
X156103000Y-47542000D01*
X158603000Y-47542000D02*
X158603000Y-50542000D01*
X129799400Y-82554000D02*
X129799400Y-85554000D01*
X127299400Y-85554000D02*
X127299400Y-82554000D01*
X130409000Y-95127000D02*
X130409000Y-98127000D01*
X127909000Y-98127000D02*
X127909000Y-95127000D01*
X109073000Y-88586500D02*
X109073000Y-91586500D01*
X106573000Y-91586500D02*
X106573000Y-88586500D01*
X115971000Y-75561000D02*
X115971000Y-72561000D01*
X118471000Y-72561000D02*
X118471000Y-75561000D01*
X159085600Y-90224800D02*
X159085600Y-93224800D01*
X156585600Y-93224800D02*
X156585600Y-90224800D01*
X174734400Y-90566800D02*
X174734400Y-90711800D01*
X178884400Y-90566800D02*
X178884400Y-90711800D01*
X178884400Y-95716800D02*
X178884400Y-95571800D01*
X174734400Y-95716800D02*
X174734400Y-95571800D01*
X174734400Y-90566800D02*
X178884400Y-90566800D01*
X174734400Y-95716800D02*
X178884400Y-95716800D01*
X174734400Y-90711800D02*
X173334400Y-90711800D01*
X103404000Y-75628500D02*
X103404000Y-77178500D01*
X103404000Y-77178500D02*
X100304000Y-77178500D01*
X100304000Y-77178500D02*
X100304000Y-75628500D01*
X100584000Y-74358500D02*
X100584000Y-64198500D01*
X100584000Y-64198500D02*
X103124000Y-64198500D01*
X103124000Y-64198500D02*
X103124000Y-74358500D01*
X100584000Y-74358500D02*
X103124000Y-74358500D01*
D14*
X144653000Y-91313000D02*
X144653000Y-89662000D01*
X144653000Y-95631000D02*
X144653000Y-97282000D01*
X143764000Y-95631000D02*
X145542000Y-95631000D01*
X145542000Y-95631000D02*
X145542000Y-91313000D01*
X145542000Y-91313000D02*
X143764000Y-91313000D01*
X143764000Y-91313000D02*
X143764000Y-95631000D01*
X142367000Y-80772000D02*
X142367000Y-79121000D01*
X142367000Y-85090000D02*
X142367000Y-86741000D01*
X141478000Y-85090000D02*
X143256000Y-85090000D01*
X143256000Y-85090000D02*
X143256000Y-80772000D01*
X143256000Y-80772000D02*
X141478000Y-80772000D01*
X141478000Y-80772000D02*
X141478000Y-85090000D01*
X145161000Y-85090000D02*
X145161000Y-86741000D01*
X145161000Y-80772000D02*
X145161000Y-79121000D01*
X146050000Y-80772000D02*
X144272000Y-80772000D01*
X144272000Y-80772000D02*
X144272000Y-85090000D01*
X144272000Y-85090000D02*
X146050000Y-85090000D01*
X146050000Y-85090000D02*
X146050000Y-80772000D01*
X127635000Y-91186000D02*
X129286000Y-91186000D01*
X123317000Y-91186000D02*
X121666000Y-91186000D01*
X123317000Y-90297000D02*
X123317000Y-92075000D01*
X123317000Y-92075000D02*
X127635000Y-92075000D01*
X127635000Y-92075000D02*
X127635000Y-90297000D01*
X127635000Y-90297000D02*
X123317000Y-90297000D01*
X117094000Y-88519000D02*
X118745000Y-88519000D01*
X112776000Y-88519000D02*
X111125000Y-88519000D01*
X112776000Y-87630000D02*
X112776000Y-89408000D01*
X112776000Y-89408000D02*
X117094000Y-89408000D01*
X117094000Y-89408000D02*
X117094000Y-87630000D01*
X117094000Y-87630000D02*
X112776000Y-87630000D01*
X127508000Y-88392000D02*
X129159000Y-88392000D01*
X123190000Y-88392000D02*
X121539000Y-88392000D01*
X123190000Y-87503000D02*
X123190000Y-89281000D01*
X123190000Y-89281000D02*
X127508000Y-89281000D01*
X127508000Y-89281000D02*
X127508000Y-87503000D01*
X127508000Y-87503000D02*
X123190000Y-87503000D01*
X112776000Y-91186000D02*
X111125000Y-91186000D01*
X117094000Y-91186000D02*
X118745000Y-91186000D01*
X117094000Y-92075000D02*
X117094000Y-90297000D01*
X117094000Y-90297000D02*
X112776000Y-90297000D01*
X112776000Y-90297000D02*
X112776000Y-92075000D01*
X112776000Y-92075000D02*
X117094000Y-92075000D01*
X111379000Y-69088000D02*
X111379000Y-67437000D01*
X111379000Y-73406000D02*
X111379000Y-75057000D01*
X110490000Y-73406000D02*
X112268000Y-73406000D01*
X112268000Y-73406000D02*
X112268000Y-69088000D01*
X112268000Y-69088000D02*
X110490000Y-69088000D01*
X110490000Y-69088000D02*
X110490000Y-73406000D01*
X114173000Y-68961000D02*
X114173000Y-67310000D01*
X114173000Y-73279000D02*
X114173000Y-74930000D01*
X113284000Y-73279000D02*
X115062000Y-73279000D01*
X115062000Y-73279000D02*
X115062000Y-68961000D01*
X115062000Y-68961000D02*
X113284000Y-68961000D01*
X113284000Y-68961000D02*
X113284000Y-73279000D01*
X163449000Y-81661000D02*
X163449000Y-83312000D01*
X163449000Y-77343000D02*
X163449000Y-75692000D01*
X164338000Y-77343000D02*
X162560000Y-77343000D01*
X162560000Y-77343000D02*
X162560000Y-81661000D01*
X162560000Y-81661000D02*
X164338000Y-81661000D01*
X164338000Y-81661000D02*
X164338000Y-77343000D01*
D15*
X123840000Y-99920000D02*
X123840000Y-100320000D01*
X120340000Y-99920000D02*
X120340000Y-100320000D01*
X109840000Y-99920000D02*
X109840000Y-100320000D01*
X113340000Y-99920000D02*
X113340000Y-100320000D01*
X116840000Y-99920000D02*
X116840000Y-100320000D01*
X106340000Y-98820000D02*
X127340000Y-98820000D01*
X106340000Y-99920000D02*
X127340000Y-99920000D01*
X106340000Y-92720000D02*
X106340000Y-100320000D01*
X127340000Y-100320000D02*
X127340000Y-92720000D01*
X127340000Y-92720000D02*
X106340000Y-92720000D01*
X149542500Y-103153000D02*
X149542500Y-102753000D01*
X153042500Y-104253000D02*
X146042500Y-104253000D01*
X153042500Y-103153000D02*
X146042500Y-103153000D01*
X153042500Y-110353000D02*
X153042500Y-102753000D01*
X146042500Y-102753000D02*
X146042500Y-110353000D01*
X146042500Y-110353000D02*
X153042500Y-110353000D01*
X175485000Y-56930000D02*
X175885000Y-56930000D01*
X175485000Y-60430000D02*
X175885000Y-60430000D01*
X175485000Y-67530000D02*
X175885000Y-67530000D01*
X175485000Y-64030000D02*
X175885000Y-64030000D01*
X174385000Y-71030000D02*
X174385000Y-53430000D01*
X175485000Y-71030000D02*
X175485000Y-53430000D01*
X168285000Y-71030000D02*
X175885000Y-71030000D01*
X175885000Y-53430000D02*
X168285000Y-53430000D01*
X168285000Y-53430000D02*
X168285000Y-71030000D01*
X159991000Y-119033000D02*
X160391000Y-119033000D01*
X159991000Y-122533000D02*
X160391000Y-122533000D01*
X159991000Y-129633000D02*
X160391000Y-129633000D01*
X159991000Y-126133000D02*
X160391000Y-126133000D01*
X158891000Y-133133000D02*
X158891000Y-115533000D01*
X159991000Y-133133000D02*
X159991000Y-115533000D01*
X152791000Y-133133000D02*
X160391000Y-133133000D01*
X160391000Y-115533000D02*
X152791000Y-115533000D01*
X152791000Y-115533000D02*
X152791000Y-133133000D01*
D13*
X164592000Y-52451000D02*
X167132000Y-52451000D01*
X161772000Y-52171000D02*
X163322000Y-52171000D01*
X164592000Y-52451000D02*
X164592000Y-54991000D01*
X163322000Y-55271000D02*
X161772000Y-55271000D01*
X161772000Y-55271000D02*
X161772000Y-52171000D01*
X164592000Y-54991000D02*
X167132000Y-54991000D01*
X167132000Y-54991000D02*
X167132000Y-52451000D01*
D14*
X150495000Y-58420000D02*
X150495000Y-56769000D01*
X150495000Y-62738000D02*
X150495000Y-64389000D01*
X149606000Y-62738000D02*
X151384000Y-62738000D01*
X151384000Y-62738000D02*
X151384000Y-58420000D01*
X151384000Y-58420000D02*
X149606000Y-58420000D01*
X149606000Y-58420000D02*
X149606000Y-62738000D01*
X161798000Y-61976000D02*
X163449000Y-61976000D01*
X157480000Y-61976000D02*
X155829000Y-61976000D01*
X157480000Y-61087000D02*
X157480000Y-62865000D01*
X157480000Y-62865000D02*
X161798000Y-62865000D01*
X161798000Y-62865000D02*
X161798000Y-61087000D01*
X161798000Y-61087000D02*
X157480000Y-61087000D01*
X161798000Y-59436000D02*
X163449000Y-59436000D01*
X157480000Y-59436000D02*
X155829000Y-59436000D01*
X157480000Y-58547000D02*
X157480000Y-60325000D01*
X157480000Y-60325000D02*
X161798000Y-60325000D01*
X161798000Y-60325000D02*
X161798000Y-58547000D01*
X161798000Y-58547000D02*
X157480000Y-58547000D01*
D15*
X200250000Y-114412000D02*
X200650000Y-114412000D01*
X200250000Y-117912000D02*
X200650000Y-117912000D01*
X200250000Y-128412000D02*
X200650000Y-128412000D01*
X200250000Y-124912000D02*
X200650000Y-124912000D01*
X200250000Y-121412000D02*
X200650000Y-121412000D01*
X199150000Y-131912000D02*
X199150000Y-110912000D01*
X200250000Y-131912000D02*
X200250000Y-110912000D01*
X193050000Y-131912000D02*
X200650000Y-131912000D01*
X200650000Y-110912000D02*
X193050000Y-110912000D01*
X193050000Y-110912000D02*
X193050000Y-131912000D01*
D13*
X138665800Y-47056200D02*
X133585800Y-47056200D01*
X133585800Y-47056200D02*
X133585800Y-49596200D01*
X133585800Y-49596200D02*
X138665800Y-49596200D01*
X141485800Y-49876200D02*
X139935800Y-49876200D01*
X138665800Y-49596200D02*
X138665800Y-47056200D01*
X139935800Y-46776200D02*
X141485800Y-46776200D01*
X141485800Y-46776200D02*
X141485800Y-49876200D01*
D15*
X186690000Y-117475000D02*
X186690000Y-103251000D01*
X186690000Y-103251000D02*
X184404000Y-103251000D01*
X169926000Y-117475000D02*
X169926000Y-103251000D01*
X169926000Y-103251000D02*
X172212000Y-103251000D01*
X186563000Y-117448000D02*
X170053000Y-117448000D01*
X184404000Y-103224000D02*
X172212000Y-103224000D01*
X169799000Y-125476000D02*
X169799000Y-139700000D01*
X169799000Y-139700000D02*
X172085000Y-139700000D01*
X186563000Y-125476000D02*
X186563000Y-139700000D01*
X186563000Y-139700000D02*
X184277000Y-139700000D01*
X169926000Y-125503000D02*
X186436000Y-125503000D01*
X172085000Y-139727000D02*
X184277000Y-139727000D01*
X132618000Y-125878000D02*
X132618000Y-140102000D01*
X132618000Y-140102000D02*
X134904000Y-140102000D01*
X149382000Y-125878000D02*
X149382000Y-140102000D01*
X149382000Y-140102000D02*
X147096000Y-140102000D01*
X132745000Y-125905000D02*
X149255000Y-125905000D01*
X134904000Y-140129000D02*
X147096000Y-140129000D01*
D13*
X192405000Y-131572000D02*
X192405000Y-111252000D01*
X187325000Y-113792000D02*
X187325000Y-131572000D01*
X192405000Y-131572000D02*
X187325000Y-131572000D01*
X192405000Y-111252000D02*
X189865000Y-111252000D01*
X188595000Y-110972000D02*
X187045000Y-110972000D01*
X189865000Y-111252000D02*
X189865000Y-113792000D01*
X189865000Y-113792000D02*
X187325000Y-113792000D01*
X187045000Y-110972000D02*
X187045000Y-112522000D01*
X167640000Y-116713000D02*
X167640000Y-129413000D01*
X167640000Y-129413000D02*
X165100000Y-129413000D01*
X165100000Y-129413000D02*
X165100000Y-116713000D01*
X167920000Y-113893000D02*
X167920000Y-115443000D01*
X167640000Y-116713000D02*
X165100000Y-116713000D01*
X164820000Y-115443000D02*
X164820000Y-113893000D01*
X164820000Y-113893000D02*
X167920000Y-113893000D01*
X179806472Y-46609000D02*
G75*
G03X179806472Y-46609000I-2514472J0D01*
G01*
X164211000Y-44069000D02*
X162433000Y-44069000D01*
X164211000Y-46609000D02*
X162433000Y-46609000D01*
X164211000Y-49149000D02*
X162433000Y-49149000D01*
X172720000Y-51943000D02*
X180721000Y-51943000D01*
X180721000Y-51943000D02*
X180721000Y-41275000D01*
X180721000Y-41275000D02*
X172720000Y-41275000D01*
X164211000Y-51943000D02*
X172720000Y-51943000D01*
X172720000Y-51943000D02*
X172720000Y-41275000D01*
X172720000Y-41275000D02*
X164211000Y-41275000D01*
X164211000Y-46609000D02*
X164211000Y-41275000D01*
X164211000Y-46609000D02*
X164211000Y-51943000D01*
X176847500Y-99441000D02*
X184467500Y-99441000D01*
X176847500Y-96901000D02*
X184467500Y-96901000D01*
X174027500Y-96621000D02*
X175577500Y-96621000D01*
X184467500Y-99441000D02*
X184467500Y-96901000D01*
X176847500Y-96901000D02*
X176847500Y-99441000D01*
X175577500Y-99721000D02*
X174027500Y-99721000D01*
X174027500Y-99721000D02*
X174027500Y-96621000D01*
D15*
X172310000Y-87652000D02*
X172710000Y-87652000D01*
X172310000Y-84052000D02*
X172710000Y-84052000D01*
X171210000Y-91152000D02*
X171210000Y-80552000D01*
X172310000Y-91152000D02*
X172310000Y-80552000D01*
X165110000Y-91152000D02*
X172710000Y-91152000D01*
X172710000Y-80552000D02*
X165110000Y-80552000D01*
X165110000Y-80552000D02*
X165110000Y-91152000D01*
X172310000Y-76835000D02*
X172710000Y-76835000D01*
X171210000Y-80335000D02*
X171210000Y-73335000D01*
X172310000Y-80335000D02*
X172310000Y-73335000D01*
X165110000Y-80335000D02*
X172710000Y-80335000D01*
X172710000Y-73335000D02*
X165110000Y-73335000D01*
X165110000Y-73335000D02*
X165110000Y-80335000D01*
D13*
X146006500Y-84197000D02*
X146006500Y-81197000D01*
X148506500Y-81197000D02*
X148506500Y-84197000D01*
X135509000Y-52070000D02*
X155829000Y-52070000D01*
X155829000Y-52070000D02*
X155829000Y-54610000D01*
X155829000Y-54610000D02*
X135509000Y-54610000D01*
X132689000Y-51790000D02*
X134239000Y-51790000D01*
X135509000Y-52070000D02*
X135509000Y-54610000D01*
X134239000Y-54890000D02*
X132689000Y-54890000D01*
X132689000Y-54890000D02*
X132689000Y-51790000D01*
D14*
X137858500Y-56324500D02*
X136207500Y-56324500D01*
X142176500Y-56324500D02*
X143827500Y-56324500D01*
X142176500Y-57213500D02*
X142176500Y-55435500D01*
X142176500Y-55435500D02*
X137858500Y-55435500D01*
X137858500Y-55435500D02*
X137858500Y-57213500D01*
X137858500Y-57213500D02*
X142176500Y-57213500D01*
D13*
X149656800Y-113512600D02*
X149656800Y-118592600D01*
X149656800Y-118592600D02*
X152196800Y-118592600D01*
X152196800Y-118592600D02*
X152196800Y-113512600D01*
X152476800Y-110692600D02*
X152476800Y-112242600D01*
X152196800Y-113512600D02*
X149656800Y-113512600D01*
X149376800Y-112242600D02*
X149376800Y-110692600D01*
X149376800Y-110692600D02*
X152476800Y-110692600D01*
X187126000Y-49955000D02*
X187126000Y-49755000D01*
X187126000Y-47361000D02*
X187126000Y-47541000D01*
X190353744Y-47671357D02*
G75*
G03X187126000Y-47355000I-1727744J-1003643D01*
G01*
X189678006Y-47541932D02*
G75*
G03X187575000Y-47541000I-1052006J-1133068D01*
G01*
X187138780Y-49981726D02*
G75*
G03X190376000Y-49635000I1497220J1306726D01*
G01*
X187612111Y-49754253D02*
G75*
G03X189660000Y-49735000I1013889J1079253D01*
G01*
D14*
X183896000Y-52451000D02*
X182245000Y-52451000D01*
X188214000Y-52451000D02*
X189865000Y-52451000D01*
X188214000Y-53340000D02*
X188214000Y-51562000D01*
X188214000Y-51562000D02*
X183896000Y-51562000D01*
X183896000Y-51562000D02*
X183896000Y-53340000D01*
X183896000Y-53340000D02*
X188214000Y-53340000D01*
D13*
X129200000Y-72525500D02*
X134198000Y-72525500D01*
X129208000Y-72385500D02*
X134190000Y-72385500D01*
X129224000Y-72245500D02*
X131604000Y-72245500D01*
X131794000Y-72245500D02*
X134174000Y-72245500D01*
X129248000Y-72105500D02*
X131209000Y-72105500D01*
X132189000Y-72105500D02*
X134150000Y-72105500D01*
X129281000Y-71965500D02*
X131042000Y-71965500D01*
X132356000Y-71965500D02*
X134117000Y-71965500D01*
X129322000Y-71825500D02*
X130935000Y-71825500D01*
X132463000Y-71825500D02*
X134076000Y-71825500D01*
X129372000Y-71685500D02*
X130864000Y-71685500D01*
X132534000Y-71685500D02*
X134026000Y-71685500D01*
X129433000Y-71545500D02*
X130820000Y-71545500D01*
X132578000Y-71545500D02*
X133965000Y-71545500D01*
X129503000Y-71405500D02*
X130801000Y-71405500D01*
X132597000Y-71405500D02*
X133895000Y-71405500D01*
X129585000Y-71265500D02*
X130803000Y-71265500D01*
X132595000Y-71265500D02*
X133813000Y-71265500D01*
X129680000Y-71125500D02*
X130828000Y-71125500D01*
X132570000Y-71125500D02*
X133718000Y-71125500D01*
X129791000Y-70985500D02*
X130876000Y-70985500D01*
X132522000Y-70985500D02*
X133607000Y-70985500D01*
X129919000Y-70845500D02*
X130954000Y-70845500D01*
X132444000Y-70845500D02*
X133479000Y-70845500D01*
X130068000Y-70705500D02*
X131071000Y-70705500D01*
X132327000Y-70705500D02*
X133330000Y-70705500D01*
X130247000Y-70565500D02*
X131259000Y-70565500D01*
X132139000Y-70565500D02*
X133151000Y-70565500D01*
X130466000Y-70425500D02*
X132932000Y-70425500D01*
X130755000Y-70285500D02*
X132643000Y-70285500D01*
X131227000Y-70145500D02*
X132171000Y-70145500D01*
X132599000Y-71350500D02*
G75*
G03X132599000Y-71350500I-900000J0D01*
G01*
X134236500Y-72600500D02*
G75*
G03X134236500Y-72600500I-2537500J0D01*
G01*
X181876000Y-41834000D02*
X181876000Y-44534000D01*
X183376000Y-41834000D02*
X183376000Y-44534000D01*
X182476000Y-43334000D02*
X182726000Y-43334000D01*
X182726000Y-43334000D02*
X182576000Y-43184000D01*
X182976000Y-43084000D02*
X182276000Y-43084000D01*
X182626000Y-43434000D02*
X182626000Y-43784000D01*
X182626000Y-43084000D02*
X182976000Y-43434000D01*
X182976000Y-43434000D02*
X182276000Y-43434000D01*
X182276000Y-43434000D02*
X182626000Y-43084000D01*
X108636500Y-67449500D02*
X108636500Y-64749500D01*
X107136500Y-67449500D02*
X107136500Y-64749500D01*
X108036500Y-65949500D02*
X107786500Y-65949500D01*
X107786500Y-65949500D02*
X107936500Y-66099500D01*
X107536500Y-66199500D02*
X108236500Y-66199500D01*
X107886500Y-65849500D02*
X107886500Y-65499500D01*
X107886500Y-66199500D02*
X107536500Y-65849500D01*
X107536500Y-65849500D02*
X108236500Y-65849500D01*
X108236500Y-65849500D02*
X107886500Y-66199500D01*
X106033000Y-67449500D02*
X106033000Y-64749500D01*
X104533000Y-67449500D02*
X104533000Y-64749500D01*
X105433000Y-65949500D02*
X105183000Y-65949500D01*
X105183000Y-65949500D02*
X105333000Y-66099500D01*
X104933000Y-66199500D02*
X105633000Y-66199500D01*
X105283000Y-65849500D02*
X105283000Y-65499500D01*
X105283000Y-66199500D02*
X104933000Y-65849500D01*
X104933000Y-65849500D02*
X105633000Y-65849500D01*
X105633000Y-65849500D02*
X105283000Y-66199500D01*
X183607000Y-92061000D02*
X182407000Y-92061000D01*
X182407000Y-90311000D02*
X183607000Y-90311000D01*
X183607000Y-94093000D02*
X182407000Y-94093000D01*
X182407000Y-92343000D02*
X183607000Y-92343000D01*
X183607000Y-96125000D02*
X182407000Y-96125000D01*
X182407000Y-94375000D02*
X183607000Y-94375000D01*
X169478400Y-91581000D02*
X170678400Y-91581000D01*
X170678400Y-93331000D02*
X169478400Y-93331000D01*
X169876500Y-95977000D02*
X169876500Y-94777000D01*
X171626500Y-94777000D02*
X171626500Y-95977000D01*
X167781000Y-95977000D02*
X167781000Y-94777000D01*
X169531000Y-94777000D02*
X169531000Y-95977000D01*
X181751000Y-47844000D02*
X181751000Y-46644000D01*
X183501000Y-46644000D02*
X183501000Y-47844000D01*
D14*
X125270000Y-57888000D02*
X125270000Y-72112000D01*
X122730000Y-72112000D02*
X122730000Y-57888000D01*
X118920000Y-54840000D02*
X118920000Y-75160000D01*
X129080000Y-75160000D02*
X129080000Y-54840000D01*
X124000000Y-73890000D02*
G75*
G03X122730000Y-75160000I0J-1270000D01*
G01*
X125270000Y-75160000D02*
G75*
G03X124000000Y-73890000I-1270000J0D01*
G01*
X122730000Y-72112000D02*
X125270000Y-72112000D01*
X125270000Y-57888000D02*
X122730000Y-57888000D01*
X118920000Y-54840000D02*
X129080000Y-54840000D01*
X129080000Y-75160000D02*
X118920000Y-75160000D01*
X137287000Y-79502000D02*
X137287000Y-83566000D01*
X134747000Y-83566000D02*
X134747000Y-79502000D01*
X141097000Y-76454000D02*
X141097000Y-86614000D01*
X130937000Y-76454000D02*
X130937000Y-86614000D01*
X136017000Y-85344000D02*
G75*
G03X134747000Y-86614000I0J-1270000D01*
G01*
X137287000Y-86614000D02*
G75*
G03X136017000Y-85344000I-1270000J0D01*
G01*
X134747000Y-83566000D02*
X137287000Y-83566000D01*
X137287000Y-79502000D02*
X134747000Y-79502000D01*
X130937000Y-76454000D02*
X141097000Y-76454000D01*
X141097000Y-86614000D02*
X130937000Y-86614000D01*
X137287000Y-92075000D02*
X137287000Y-96139000D01*
X134747000Y-96139000D02*
X134747000Y-92075000D01*
X141097000Y-89027000D02*
X141097000Y-99187000D01*
X130937000Y-89027000D02*
X130937000Y-99187000D01*
X136017000Y-97917000D02*
G75*
G03X134747000Y-99187000I0J-1270000D01*
G01*
X137287000Y-99187000D02*
G75*
G03X136017000Y-97917000I-1270000J0D01*
G01*
X134747000Y-96139000D02*
X137287000Y-96139000D01*
X137287000Y-92075000D02*
X134747000Y-92075000D01*
X130937000Y-89027000D02*
X141097000Y-89027000D01*
X141097000Y-99187000D02*
X130937000Y-99187000D01*
X121412000Y-83312000D02*
X117348000Y-83312000D01*
X117348000Y-80772000D02*
X121412000Y-80772000D01*
X124460000Y-87122000D02*
X114300000Y-87122000D01*
X124460000Y-76962000D02*
X114300000Y-76962000D01*
X115570000Y-82042000D02*
G75*
G03X114300000Y-80772000I-1270000J0D01*
G01*
X114300000Y-83312000D02*
G75*
G03X115570000Y-82042000I0J1270000D01*
G01*
X117348000Y-80772000D02*
X117348000Y-83312000D01*
X121412000Y-83312000D02*
X121412000Y-80772000D01*
X124460000Y-76962000D02*
X124460000Y-87122000D01*
X114300000Y-87122000D02*
X114300000Y-76962000D01*
X103949500Y-80835500D02*
X108013500Y-80835500D01*
X108013500Y-83375500D02*
X103949500Y-83375500D01*
X100901500Y-77025500D02*
X111061500Y-77025500D01*
X100901500Y-87185500D02*
X111061500Y-87185500D01*
X109791500Y-82105500D02*
G75*
G03X111061500Y-83375500I1270000J0D01*
G01*
X111061500Y-80835500D02*
G75*
G03X109791500Y-82105500I0J-1270000D01*
G01*
X108013500Y-83375500D02*
X108013500Y-80835500D01*
X103949500Y-80835500D02*
X103949500Y-83375500D01*
X100901500Y-87185500D02*
X100901500Y-77025500D01*
X111061500Y-77025500D02*
X111061500Y-87185500D01*
X150368000Y-96367600D02*
X150368000Y-92303600D01*
X152908000Y-92303600D02*
X152908000Y-96367600D01*
X146558000Y-99415600D02*
X146558000Y-89255600D01*
X156718000Y-99415600D02*
X156718000Y-89255600D01*
X151638000Y-90525600D02*
G75*
G03X152908000Y-89255600I0J1270000D01*
G01*
X150368000Y-89255600D02*
G75*
G03X151638000Y-90525600I1270000J0D01*
G01*
X152908000Y-92303600D02*
X150368000Y-92303600D01*
X150368000Y-96367600D02*
X152908000Y-96367600D01*
X156718000Y-99415600D02*
X146558000Y-99415600D01*
X146558000Y-89255600D02*
X156718000Y-89255600D01*
X155321000Y-78105000D02*
X155321000Y-82169000D01*
X152781000Y-82169000D02*
X152781000Y-78105000D01*
X159131000Y-75057000D02*
X159131000Y-85217000D01*
X148971000Y-75057000D02*
X148971000Y-85217000D01*
X154051000Y-83947000D02*
G75*
G03X152781000Y-85217000I0J-1270000D01*
G01*
X155321000Y-85217000D02*
G75*
G03X154051000Y-83947000I-1270000J0D01*
G01*
X152781000Y-82169000D02*
X155321000Y-82169000D01*
X155321000Y-78105000D02*
X152781000Y-78105000D01*
X148971000Y-75057000D02*
X159131000Y-75057000D01*
X159131000Y-85217000D02*
X148971000Y-85217000D01*
X143891000Y-64262000D02*
X139827000Y-64262000D01*
X139827000Y-61722000D02*
X143891000Y-61722000D01*
X146939000Y-68072000D02*
X136779000Y-68072000D01*
X146939000Y-57912000D02*
X136779000Y-57912000D01*
X138049000Y-62992000D02*
G75*
G03X136779000Y-61722000I-1270000J0D01*
G01*
X136779000Y-64262000D02*
G75*
G03X138049000Y-62992000I0J1270000D01*
G01*
X139827000Y-61722000D02*
X139827000Y-64262000D01*
X143891000Y-64262000D02*
X143891000Y-61722000D01*
X146939000Y-57912000D02*
X146939000Y-68072000D01*
X136779000Y-68072000D02*
X136779000Y-57912000D01*
D13*
X159867600Y-98907600D02*
X167487600Y-98907600D01*
X159867600Y-96367600D02*
X167487600Y-96367600D01*
X157047600Y-96087600D02*
X158597600Y-96087600D01*
X167487600Y-98907600D02*
X167487600Y-96367600D01*
X159867600Y-96367600D02*
X159867600Y-98907600D01*
X158597600Y-99187600D02*
X157047600Y-99187600D01*
X157047600Y-99187600D02*
X157047600Y-96087600D01*
D15*
X98983800Y-117424200D02*
X98475800Y-117424200D01*
X98983800Y-125298200D02*
X98475800Y-125298200D01*
X98983800Y-117424200D02*
X98983800Y-125298200D01*
X98729800Y-117424200D02*
X98729800Y-125298200D01*
X98475800Y-125298200D02*
X98475800Y-117424200D01*
X98348800Y-128473200D02*
X111302800Y-128473200D01*
X111302800Y-128473200D02*
X111302800Y-114249200D01*
X111302800Y-114249200D02*
X98348800Y-114249200D01*
X98348800Y-114249200D02*
X98348800Y-128473200D01*
X120218200Y-101549200D02*
X120218200Y-101041200D01*
X112344200Y-101549200D02*
X112344200Y-101041200D01*
X120218200Y-101549200D02*
X112344200Y-101549200D01*
X120218200Y-101295200D02*
X112344200Y-101295200D01*
X112344200Y-101041200D02*
X120218200Y-101041200D01*
X109169200Y-100914200D02*
X109169200Y-113868200D01*
X109169200Y-113868200D02*
X123393200Y-113868200D01*
X123393200Y-113868200D02*
X123393200Y-100914200D01*
X123393200Y-100914200D02*
X109169200Y-100914200D01*
X139268200Y-101549200D02*
X139268200Y-101041200D01*
X131394200Y-101549200D02*
X131394200Y-101041200D01*
X139268200Y-101549200D02*
X131394200Y-101549200D01*
X139268200Y-101295200D02*
X131394200Y-101295200D01*
X131394200Y-101041200D02*
X139268200Y-101041200D01*
X128219200Y-100914200D02*
X128219200Y-113868200D01*
X128219200Y-113868200D02*
X142443200Y-113868200D01*
X142443200Y-113868200D02*
X142443200Y-100914200D01*
X142443200Y-100914200D02*
X128219200Y-100914200D01*
D16*
X113782929Y-58111572D02*
X112258929Y-58111572D01*
X112258929Y-57531000D01*
X112331500Y-57385858D01*
X112404071Y-57313286D01*
X112549214Y-57240715D01*
X112766929Y-57240715D01*
X112912071Y-57313286D01*
X112984643Y-57385858D01*
X113057214Y-57531000D01*
X113057214Y-58111572D01*
X113782929Y-55789286D02*
X113782929Y-56660143D01*
X113782929Y-56224715D02*
X112258929Y-56224715D01*
X112476643Y-56369858D01*
X112621786Y-56515000D01*
X112694357Y-56660143D01*
X112258929Y-55281286D02*
X112258929Y-54337857D01*
X112839500Y-54845857D01*
X112839500Y-54628143D01*
X112912071Y-54483000D01*
X112984643Y-54410429D01*
X113129786Y-54337857D01*
X113492643Y-54337857D01*
X113637786Y-54410429D01*
X113710357Y-54483000D01*
X113782929Y-54628143D01*
X113782929Y-55063571D01*
X113710357Y-55208714D01*
X113637786Y-55281286D01*
D17*
X158822571Y-57527976D02*
X158399238Y-56862738D01*
X158096857Y-57527976D02*
X158096857Y-56130976D01*
X158580666Y-56130976D01*
X158701619Y-56197500D01*
X158762095Y-56264024D01*
X158822571Y-56397071D01*
X158822571Y-56596643D01*
X158762095Y-56729690D01*
X158701619Y-56796214D01*
X158580666Y-56862738D01*
X158096857Y-56862738D01*
X159306381Y-56264024D02*
X159366857Y-56197500D01*
X159487809Y-56130976D01*
X159790190Y-56130976D01*
X159911143Y-56197500D01*
X159971619Y-56264024D01*
X160032095Y-56397071D01*
X160032095Y-56530119D01*
X159971619Y-56729690D01*
X159245905Y-57527976D01*
X160032095Y-57527976D01*
X160455429Y-56130976D02*
X161241619Y-56130976D01*
X160818286Y-56663167D01*
X160999714Y-56663167D01*
X161120667Y-56729690D01*
X161181143Y-56796214D01*
X161241619Y-56929262D01*
X161241619Y-57261881D01*
X161181143Y-57394929D01*
X161120667Y-57461452D01*
X160999714Y-57527976D01*
X160636857Y-57527976D01*
X160515905Y-57461452D01*
X160455429Y-57394929D01*
D16*
X119430800Y-135944429D02*
X119430800Y-137033000D01*
X119358228Y-137250714D01*
X119213085Y-137395857D01*
X118995371Y-137468429D01*
X118850228Y-137468429D01*
X120954800Y-137468429D02*
X120083943Y-137468429D01*
X120519371Y-137468429D02*
X120519371Y-135944429D01*
X120374228Y-136162143D01*
X120229086Y-136307286D01*
X120083943Y-136379857D01*
D13*
X131139643Y-62640643D02*
X131092024Y-62688262D01*
X130949167Y-62735881D01*
X130853929Y-62735881D01*
X130711071Y-62688262D01*
X130615833Y-62593024D01*
X130568214Y-62497786D01*
X130520595Y-62307310D01*
X130520595Y-62164452D01*
X130568214Y-61973976D01*
X130615833Y-61878738D01*
X130711071Y-61783500D01*
X130853929Y-61735881D01*
X130949167Y-61735881D01*
X131092024Y-61783500D01*
X131139643Y-61831119D01*
X132092024Y-62735881D02*
X131520595Y-62735881D01*
X131806309Y-62735881D02*
X131806309Y-61735881D01*
X131711071Y-61878738D01*
X131615833Y-61973976D01*
X131520595Y-62021595D01*
X132996786Y-61735881D02*
X132520595Y-61735881D01*
X132472976Y-62212071D01*
X132520595Y-62164452D01*
X132615833Y-62116833D01*
X132853929Y-62116833D01*
X132949167Y-62164452D01*
X132996786Y-62212071D01*
X133044405Y-62307310D01*
X133044405Y-62545405D01*
X132996786Y-62640643D01*
X132949167Y-62688262D01*
X132853929Y-62735881D01*
X132615833Y-62735881D01*
X132520595Y-62688262D01*
X132472976Y-62640643D01*
X128891143Y-64289857D02*
X128938762Y-64337476D01*
X128986381Y-64480333D01*
X128986381Y-64575571D01*
X128938762Y-64718429D01*
X128843524Y-64813667D01*
X128748286Y-64861286D01*
X128557810Y-64908905D01*
X128414952Y-64908905D01*
X128224476Y-64861286D01*
X128129238Y-64813667D01*
X128034000Y-64718429D01*
X127986381Y-64575571D01*
X127986381Y-64480333D01*
X128034000Y-64337476D01*
X128081619Y-64289857D01*
X128986381Y-63337476D02*
X128986381Y-63908905D01*
X128986381Y-63623191D02*
X127986381Y-63623191D01*
X128129238Y-63718429D01*
X128224476Y-63813667D01*
X128272095Y-63908905D01*
X127986381Y-63004143D02*
X127986381Y-62385095D01*
X128367333Y-62718429D01*
X128367333Y-62575571D01*
X128414952Y-62480333D01*
X128462571Y-62432714D01*
X128557810Y-62385095D01*
X128795905Y-62385095D01*
X128891143Y-62432714D01*
X128938762Y-62480333D01*
X128986381Y-62575571D01*
X128986381Y-62861286D01*
X128938762Y-62956524D01*
X128891143Y-63004143D01*
X129780143Y-69242857D02*
X129827762Y-69290476D01*
X129875381Y-69433333D01*
X129875381Y-69528571D01*
X129827762Y-69671429D01*
X129732524Y-69766667D01*
X129637286Y-69814286D01*
X129446810Y-69861905D01*
X129303952Y-69861905D01*
X129113476Y-69814286D01*
X129018238Y-69766667D01*
X128923000Y-69671429D01*
X128875381Y-69528571D01*
X128875381Y-69433333D01*
X128923000Y-69290476D01*
X128970619Y-69242857D01*
X129875381Y-68290476D02*
X129875381Y-68861905D01*
X129875381Y-68576191D02*
X128875381Y-68576191D01*
X129018238Y-68671429D01*
X129113476Y-68766667D01*
X129161095Y-68861905D01*
X129208714Y-67433333D02*
X129875381Y-67433333D01*
X128827762Y-67671429D02*
X129542048Y-67909524D01*
X129542048Y-67290476D01*
X161170881Y-81002095D02*
X160170881Y-81002095D01*
X160170881Y-80764000D01*
X160218500Y-80621142D01*
X160313738Y-80525904D01*
X160408976Y-80478285D01*
X160599452Y-80430666D01*
X160742310Y-80430666D01*
X160932786Y-80478285D01*
X161028024Y-80525904D01*
X161123262Y-80621142D01*
X161170881Y-80764000D01*
X161170881Y-81002095D01*
X161170881Y-79478285D02*
X161170881Y-80049714D01*
X161170881Y-79764000D02*
X160170881Y-79764000D01*
X160313738Y-79859238D01*
X160408976Y-79954476D01*
X160456595Y-80049714D01*
X148042334Y-58904143D02*
X147994715Y-58951762D01*
X147851858Y-58999381D01*
X147756620Y-58999381D01*
X147613762Y-58951762D01*
X147518524Y-58856524D01*
X147470905Y-58761286D01*
X147423286Y-58570810D01*
X147423286Y-58427952D01*
X147470905Y-58237476D01*
X147518524Y-58142238D01*
X147613762Y-58047000D01*
X147756620Y-57999381D01*
X147851858Y-57999381D01*
X147994715Y-58047000D01*
X148042334Y-58094619D01*
X148994715Y-58999381D02*
X148423286Y-58999381D01*
X148709000Y-58999381D02*
X148709000Y-57999381D01*
X148613762Y-58142238D01*
X148518524Y-58237476D01*
X148423286Y-58285095D01*
X141438334Y-72493143D02*
X141390715Y-72540762D01*
X141247858Y-72588381D01*
X141152620Y-72588381D01*
X141009762Y-72540762D01*
X140914524Y-72445524D01*
X140866905Y-72350286D01*
X140819286Y-72159810D01*
X140819286Y-72016952D01*
X140866905Y-71826476D01*
X140914524Y-71731238D01*
X141009762Y-71636000D01*
X141152620Y-71588381D01*
X141247858Y-71588381D01*
X141390715Y-71636000D01*
X141438334Y-71683619D01*
X141819286Y-71683619D02*
X141866905Y-71636000D01*
X141962143Y-71588381D01*
X142200239Y-71588381D01*
X142295477Y-71636000D01*
X142343096Y-71683619D01*
X142390715Y-71778857D01*
X142390715Y-71874095D01*
X142343096Y-72016952D01*
X141771667Y-72588381D01*
X142390715Y-72588381D01*
X153741381Y-65381095D02*
X152741381Y-65381095D01*
X152741381Y-65000142D01*
X152789000Y-64904904D01*
X152836619Y-64857285D01*
X152931857Y-64809666D01*
X153074714Y-64809666D01*
X153169952Y-64857285D01*
X153217571Y-64904904D01*
X153265190Y-65000142D01*
X153265190Y-65381095D01*
X152741381Y-63904904D02*
X152741381Y-64381095D01*
X153217571Y-64428714D01*
X153169952Y-64381095D01*
X153122333Y-64285857D01*
X153122333Y-64047761D01*
X153169952Y-63952523D01*
X153217571Y-63904904D01*
X153312810Y-63857285D01*
X153550905Y-63857285D01*
X153646143Y-63904904D01*
X153693762Y-63952523D01*
X153741381Y-64047761D01*
X153741381Y-64285857D01*
X153693762Y-64381095D01*
X153646143Y-64428714D01*
X157710143Y-41378166D02*
X157757762Y-41425785D01*
X157805381Y-41568642D01*
X157805381Y-41663880D01*
X157757762Y-41806738D01*
X157662524Y-41901976D01*
X157567286Y-41949595D01*
X157376810Y-41997214D01*
X157233952Y-41997214D01*
X157043476Y-41949595D01*
X156948238Y-41901976D01*
X156853000Y-41806738D01*
X156805381Y-41663880D01*
X156805381Y-41568642D01*
X156853000Y-41425785D01*
X156900619Y-41378166D01*
X156805381Y-41044833D02*
X156805381Y-40425785D01*
X157186333Y-40759119D01*
X157186333Y-40616261D01*
X157233952Y-40521023D01*
X157281571Y-40473404D01*
X157376810Y-40425785D01*
X157614905Y-40425785D01*
X157710143Y-40473404D01*
X157757762Y-40521023D01*
X157805381Y-40616261D01*
X157805381Y-40901976D01*
X157757762Y-40997214D01*
X157710143Y-41044833D01*
X157773643Y-52490666D02*
X157821262Y-52538285D01*
X157868881Y-52681142D01*
X157868881Y-52776380D01*
X157821262Y-52919238D01*
X157726024Y-53014476D01*
X157630786Y-53062095D01*
X157440310Y-53109714D01*
X157297452Y-53109714D01*
X157106976Y-53062095D01*
X157011738Y-53014476D01*
X156916500Y-52919238D01*
X156868881Y-52776380D01*
X156868881Y-52681142D01*
X156916500Y-52538285D01*
X156964119Y-52490666D01*
X157202214Y-51633523D02*
X157868881Y-51633523D01*
X156821262Y-51871619D02*
X157535548Y-52109714D01*
X157535548Y-51490666D01*
X128982743Y-80735466D02*
X129030362Y-80783085D01*
X129077981Y-80925942D01*
X129077981Y-81021180D01*
X129030362Y-81164038D01*
X128935124Y-81259276D01*
X128839886Y-81306895D01*
X128649410Y-81354514D01*
X128506552Y-81354514D01*
X128316076Y-81306895D01*
X128220838Y-81259276D01*
X128125600Y-81164038D01*
X128077981Y-81021180D01*
X128077981Y-80925942D01*
X128125600Y-80783085D01*
X128173219Y-80735466D01*
X128077981Y-79830704D02*
X128077981Y-80306895D01*
X128554171Y-80354514D01*
X128506552Y-80306895D01*
X128458933Y-80211657D01*
X128458933Y-79973561D01*
X128506552Y-79878323D01*
X128554171Y-79830704D01*
X128649410Y-79783085D01*
X128887505Y-79783085D01*
X128982743Y-79830704D01*
X129030362Y-79878323D01*
X129077981Y-79973561D01*
X129077981Y-80211657D01*
X129030362Y-80306895D01*
X128982743Y-80354514D01*
X129693943Y-93587866D02*
X129741562Y-93635485D01*
X129789181Y-93778342D01*
X129789181Y-93873580D01*
X129741562Y-94016438D01*
X129646324Y-94111676D01*
X129551086Y-94159295D01*
X129360610Y-94206914D01*
X129217752Y-94206914D01*
X129027276Y-94159295D01*
X128932038Y-94111676D01*
X128836800Y-94016438D01*
X128789181Y-93873580D01*
X128789181Y-93778342D01*
X128836800Y-93635485D01*
X128884419Y-93587866D01*
X128789181Y-92730723D02*
X128789181Y-92921200D01*
X128836800Y-93016438D01*
X128884419Y-93064057D01*
X129027276Y-93159295D01*
X129217752Y-93206914D01*
X129598705Y-93206914D01*
X129693943Y-93159295D01*
X129741562Y-93111676D01*
X129789181Y-93016438D01*
X129789181Y-92825961D01*
X129741562Y-92730723D01*
X129693943Y-92683104D01*
X129598705Y-92635485D01*
X129360610Y-92635485D01*
X129265371Y-92683104D01*
X129217752Y-92730723D01*
X129170133Y-92825961D01*
X129170133Y-93016438D01*
X129217752Y-93111676D01*
X129265371Y-93159295D01*
X129360610Y-93206914D01*
X105868743Y-88609466D02*
X105916362Y-88657085D01*
X105963981Y-88799942D01*
X105963981Y-88895180D01*
X105916362Y-89038038D01*
X105821124Y-89133276D01*
X105725886Y-89180895D01*
X105535410Y-89228514D01*
X105392552Y-89228514D01*
X105202076Y-89180895D01*
X105106838Y-89133276D01*
X105011600Y-89038038D01*
X104963981Y-88895180D01*
X104963981Y-88799942D01*
X105011600Y-88657085D01*
X105059219Y-88609466D01*
X104963981Y-88276133D02*
X104963981Y-87609466D01*
X105963981Y-88038038D01*
X117705143Y-71096166D02*
X117752762Y-71143785D01*
X117800381Y-71286642D01*
X117800381Y-71381880D01*
X117752762Y-71524738D01*
X117657524Y-71619976D01*
X117562286Y-71667595D01*
X117371810Y-71715214D01*
X117228952Y-71715214D01*
X117038476Y-71667595D01*
X116943238Y-71619976D01*
X116848000Y-71524738D01*
X116800381Y-71381880D01*
X116800381Y-71286642D01*
X116848000Y-71143785D01*
X116895619Y-71096166D01*
X117228952Y-70524738D02*
X117181333Y-70619976D01*
X117133714Y-70667595D01*
X117038476Y-70715214D01*
X116990857Y-70715214D01*
X116895619Y-70667595D01*
X116848000Y-70619976D01*
X116800381Y-70524738D01*
X116800381Y-70334261D01*
X116848000Y-70239023D01*
X116895619Y-70191404D01*
X116990857Y-70143785D01*
X117038476Y-70143785D01*
X117133714Y-70191404D01*
X117181333Y-70239023D01*
X117228952Y-70334261D01*
X117228952Y-70524738D01*
X117276571Y-70619976D01*
X117324190Y-70667595D01*
X117419429Y-70715214D01*
X117609905Y-70715214D01*
X117705143Y-70667595D01*
X117752762Y-70619976D01*
X117800381Y-70524738D01*
X117800381Y-70334261D01*
X117752762Y-70239023D01*
X117705143Y-70191404D01*
X117609905Y-70143785D01*
X117419429Y-70143785D01*
X117324190Y-70191404D01*
X117276571Y-70239023D01*
X117228952Y-70334261D01*
X158243543Y-88628457D02*
X158291162Y-88676076D01*
X158338781Y-88818933D01*
X158338781Y-88914171D01*
X158291162Y-89057029D01*
X158195924Y-89152267D01*
X158100686Y-89199886D01*
X157910210Y-89247505D01*
X157767352Y-89247505D01*
X157576876Y-89199886D01*
X157481638Y-89152267D01*
X157386400Y-89057029D01*
X157338781Y-88914171D01*
X157338781Y-88818933D01*
X157386400Y-88676076D01*
X157434019Y-88628457D01*
X158338781Y-87676076D02*
X158338781Y-88247505D01*
X158338781Y-87961791D02*
X157338781Y-87961791D01*
X157481638Y-88057029D01*
X157576876Y-88152267D01*
X157624495Y-88247505D01*
X158338781Y-86723695D02*
X158338781Y-87295124D01*
X158338781Y-87009410D02*
X157338781Y-87009410D01*
X157481638Y-87104648D01*
X157576876Y-87199886D01*
X157624495Y-87295124D01*
X176185581Y-93725905D02*
X176995105Y-93725905D01*
X177090343Y-93678286D01*
X177137962Y-93630667D01*
X177185581Y-93535429D01*
X177185581Y-93344952D01*
X177137962Y-93249714D01*
X177090343Y-93202095D01*
X176995105Y-93154476D01*
X176185581Y-93154476D01*
X176185581Y-92773524D02*
X176185581Y-92106857D01*
X177185581Y-92535429D01*
X101115905Y-81180881D02*
X101115905Y-80180881D01*
X101496858Y-80180881D01*
X101592096Y-80228500D01*
X101639715Y-80276119D01*
X101687334Y-80371357D01*
X101687334Y-80514214D01*
X101639715Y-80609452D01*
X101592096Y-80657071D01*
X101496858Y-80704690D01*
X101115905Y-80704690D01*
X102163524Y-81180881D02*
X102354000Y-81180881D01*
X102449239Y-81133262D01*
X102496858Y-81085643D01*
X102592096Y-80942786D01*
X102639715Y-80752310D01*
X102639715Y-80371357D01*
X102592096Y-80276119D01*
X102544477Y-80228500D01*
X102449239Y-80180881D01*
X102258762Y-80180881D01*
X102163524Y-80228500D01*
X102115905Y-80276119D01*
X102068286Y-80371357D01*
X102068286Y-80609452D01*
X102115905Y-80704690D01*
X102163524Y-80752310D01*
X102258762Y-80799929D01*
X102449239Y-80799929D01*
X102544477Y-80752310D01*
X102592096Y-80704690D01*
X102639715Y-80609452D01*
D17*
X145284976Y-93683667D02*
X144619738Y-94107000D01*
X145284976Y-94409381D02*
X143887976Y-94409381D01*
X143887976Y-93925572D01*
X143954500Y-93804619D01*
X144021024Y-93744143D01*
X144154071Y-93683667D01*
X144353643Y-93683667D01*
X144486690Y-93744143D01*
X144553214Y-93804619D01*
X144619738Y-93925572D01*
X144619738Y-94409381D01*
X144353643Y-92595095D02*
X145284976Y-92595095D01*
X143821452Y-92897476D02*
X144819310Y-93199857D01*
X144819310Y-92413667D01*
X142998976Y-83142667D02*
X142333738Y-83566000D01*
X142998976Y-83868381D02*
X141601976Y-83868381D01*
X141601976Y-83384572D01*
X141668500Y-83263619D01*
X141735024Y-83203143D01*
X141868071Y-83142667D01*
X142067643Y-83142667D01*
X142200690Y-83203143D01*
X142267214Y-83263619D01*
X142333738Y-83384572D01*
X142333738Y-83868381D01*
X141601976Y-82719333D02*
X141601976Y-81933143D01*
X142134167Y-82356476D01*
X142134167Y-82175048D01*
X142200690Y-82054095D01*
X142267214Y-81993619D01*
X142400262Y-81933143D01*
X142732881Y-81933143D01*
X142865929Y-81993619D01*
X142932452Y-82054095D01*
X142998976Y-82175048D01*
X142998976Y-82537905D01*
X142932452Y-82658857D01*
X142865929Y-82719333D01*
X145792976Y-83747429D02*
X145127738Y-84170762D01*
X145792976Y-84473143D02*
X144395976Y-84473143D01*
X144395976Y-83989334D01*
X144462500Y-83868381D01*
X144529024Y-83807905D01*
X144662071Y-83747429D01*
X144861643Y-83747429D01*
X144994690Y-83807905D01*
X145061214Y-83868381D01*
X145127738Y-83989334D01*
X145127738Y-84473143D01*
X145792976Y-82537905D02*
X145792976Y-83263619D01*
X145792976Y-82900762D02*
X144395976Y-82900762D01*
X144595548Y-83021714D01*
X144728595Y-83142667D01*
X144795119Y-83263619D01*
X144395976Y-82114571D02*
X144395976Y-81328381D01*
X144928167Y-81751714D01*
X144928167Y-81570286D01*
X144994690Y-81449333D01*
X145061214Y-81388857D01*
X145194262Y-81328381D01*
X145526881Y-81328381D01*
X145659929Y-81388857D01*
X145726452Y-81449333D01*
X145792976Y-81570286D01*
X145792976Y-81933143D01*
X145726452Y-82054095D01*
X145659929Y-82114571D01*
X125264333Y-91817976D02*
X124841000Y-91152738D01*
X124538619Y-91817976D02*
X124538619Y-90420976D01*
X125022428Y-90420976D01*
X125143381Y-90487500D01*
X125203857Y-90554024D01*
X125264333Y-90687071D01*
X125264333Y-90886643D01*
X125203857Y-91019690D01*
X125143381Y-91086214D01*
X125022428Y-91152738D01*
X124538619Y-91152738D01*
X125869095Y-91817976D02*
X126111000Y-91817976D01*
X126231952Y-91751452D01*
X126292428Y-91684929D01*
X126413381Y-91485357D01*
X126473857Y-91219262D01*
X126473857Y-90687071D01*
X126413381Y-90554024D01*
X126352905Y-90487500D01*
X126231952Y-90420976D01*
X125990048Y-90420976D01*
X125869095Y-90487500D01*
X125808619Y-90554024D01*
X125748143Y-90687071D01*
X125748143Y-91019690D01*
X125808619Y-91152738D01*
X125869095Y-91219262D01*
X125990048Y-91285786D01*
X126231952Y-91285786D01*
X126352905Y-91219262D01*
X126413381Y-91152738D01*
X126473857Y-91019690D01*
X114723333Y-89150976D02*
X114300000Y-88485738D01*
X113997619Y-89150976D02*
X113997619Y-87753976D01*
X114481428Y-87753976D01*
X114602381Y-87820500D01*
X114662857Y-87887024D01*
X114723333Y-88020071D01*
X114723333Y-88219643D01*
X114662857Y-88352690D01*
X114602381Y-88419214D01*
X114481428Y-88485738D01*
X113997619Y-88485738D01*
X115811905Y-87753976D02*
X115570000Y-87753976D01*
X115449048Y-87820500D01*
X115388571Y-87887024D01*
X115267619Y-88086595D01*
X115207143Y-88352690D01*
X115207143Y-88884881D01*
X115267619Y-89017929D01*
X115328095Y-89084452D01*
X115449048Y-89150976D01*
X115690952Y-89150976D01*
X115811905Y-89084452D01*
X115872381Y-89017929D01*
X115932857Y-88884881D01*
X115932857Y-88552262D01*
X115872381Y-88419214D01*
X115811905Y-88352690D01*
X115690952Y-88286167D01*
X115449048Y-88286167D01*
X115328095Y-88352690D01*
X115267619Y-88419214D01*
X115207143Y-88552262D01*
X125137333Y-89023976D02*
X124714000Y-88358738D01*
X124411619Y-89023976D02*
X124411619Y-87626976D01*
X124895428Y-87626976D01*
X125016381Y-87693500D01*
X125076857Y-87760024D01*
X125137333Y-87893071D01*
X125137333Y-88092643D01*
X125076857Y-88225690D01*
X125016381Y-88292214D01*
X124895428Y-88358738D01*
X124411619Y-88358738D01*
X125863048Y-88225690D02*
X125742095Y-88159167D01*
X125681619Y-88092643D01*
X125621143Y-87959595D01*
X125621143Y-87893071D01*
X125681619Y-87760024D01*
X125742095Y-87693500D01*
X125863048Y-87626976D01*
X126104952Y-87626976D01*
X126225905Y-87693500D01*
X126286381Y-87760024D01*
X126346857Y-87893071D01*
X126346857Y-87959595D01*
X126286381Y-88092643D01*
X126225905Y-88159167D01*
X126104952Y-88225690D01*
X125863048Y-88225690D01*
X125742095Y-88292214D01*
X125681619Y-88358738D01*
X125621143Y-88491786D01*
X125621143Y-88757881D01*
X125681619Y-88890929D01*
X125742095Y-88957452D01*
X125863048Y-89023976D01*
X126104952Y-89023976D01*
X126225905Y-88957452D01*
X126286381Y-88890929D01*
X126346857Y-88757881D01*
X126346857Y-88491786D01*
X126286381Y-88358738D01*
X126225905Y-88292214D01*
X126104952Y-88225690D01*
X114723333Y-91817976D02*
X114300000Y-91152738D01*
X113997619Y-91817976D02*
X113997619Y-90420976D01*
X114481428Y-90420976D01*
X114602381Y-90487500D01*
X114662857Y-90554024D01*
X114723333Y-90687071D01*
X114723333Y-90886643D01*
X114662857Y-91019690D01*
X114602381Y-91086214D01*
X114481428Y-91152738D01*
X113997619Y-91152738D01*
X115146667Y-90420976D02*
X115993333Y-90420976D01*
X115449048Y-91817976D01*
X112010976Y-71458667D02*
X111345738Y-71882000D01*
X112010976Y-72184381D02*
X110613976Y-72184381D01*
X110613976Y-71700572D01*
X110680500Y-71579619D01*
X110747024Y-71519143D01*
X110880071Y-71458667D01*
X111079643Y-71458667D01*
X111212690Y-71519143D01*
X111279214Y-71579619D01*
X111345738Y-71700572D01*
X111345738Y-72184381D01*
X110747024Y-70974857D02*
X110680500Y-70914381D01*
X110613976Y-70793429D01*
X110613976Y-70491048D01*
X110680500Y-70370095D01*
X110747024Y-70309619D01*
X110880071Y-70249143D01*
X111013119Y-70249143D01*
X111212690Y-70309619D01*
X112010976Y-71035333D01*
X112010976Y-70249143D01*
X114804976Y-71331667D02*
X114139738Y-71755000D01*
X114804976Y-72057381D02*
X113407976Y-72057381D01*
X113407976Y-71573572D01*
X113474500Y-71452619D01*
X113541024Y-71392143D01*
X113674071Y-71331667D01*
X113873643Y-71331667D01*
X114006690Y-71392143D01*
X114073214Y-71452619D01*
X114139738Y-71573572D01*
X114139738Y-72057381D01*
X113407976Y-70182619D02*
X113407976Y-70787381D01*
X114073214Y-70847857D01*
X114006690Y-70787381D01*
X113940167Y-70666429D01*
X113940167Y-70364048D01*
X114006690Y-70243095D01*
X114073214Y-70182619D01*
X114206262Y-70122143D01*
X114538881Y-70122143D01*
X114671929Y-70182619D01*
X114738452Y-70243095D01*
X114804976Y-70364048D01*
X114804976Y-70666429D01*
X114738452Y-70787381D01*
X114671929Y-70847857D01*
X164080976Y-80318429D02*
X163415738Y-80741762D01*
X164080976Y-81044143D02*
X162683976Y-81044143D01*
X162683976Y-80560334D01*
X162750500Y-80439381D01*
X162817024Y-80378905D01*
X162950071Y-80318429D01*
X163149643Y-80318429D01*
X163282690Y-80378905D01*
X163349214Y-80439381D01*
X163415738Y-80560334D01*
X163415738Y-81044143D01*
X164080976Y-79108905D02*
X164080976Y-79834619D01*
X164080976Y-79471762D02*
X162683976Y-79471762D01*
X162883548Y-79592714D01*
X163016595Y-79713667D01*
X163083119Y-79834619D01*
X162683976Y-77959857D02*
X162683976Y-78564619D01*
X163349214Y-78625095D01*
X163282690Y-78564619D01*
X163216167Y-78443667D01*
X163216167Y-78141286D01*
X163282690Y-78020333D01*
X163349214Y-77959857D01*
X163482262Y-77899381D01*
X163814881Y-77899381D01*
X163947929Y-77959857D01*
X164014452Y-78020333D01*
X164080976Y-78141286D01*
X164080976Y-78443667D01*
X164014452Y-78564619D01*
X163947929Y-78625095D01*
D12*
X102524858Y-99484571D02*
X102524858Y-97984571D01*
X103096286Y-97984571D01*
X103239144Y-98056000D01*
X103310572Y-98127429D01*
X103382001Y-98270286D01*
X103382001Y-98484571D01*
X103310572Y-98627429D01*
X103239144Y-98698857D01*
X103096286Y-98770286D01*
X102524858Y-98770286D01*
X104667715Y-97984571D02*
X104382001Y-97984571D01*
X104239144Y-98056000D01*
X104167715Y-98127429D01*
X104024858Y-98341714D01*
X103953429Y-98627429D01*
X103953429Y-99198857D01*
X104024858Y-99341714D01*
X104096286Y-99413143D01*
X104239144Y-99484571D01*
X104524858Y-99484571D01*
X104667715Y-99413143D01*
X104739144Y-99341714D01*
X104810572Y-99198857D01*
X104810572Y-98841714D01*
X104739144Y-98698857D01*
X104667715Y-98627429D01*
X104524858Y-98556000D01*
X104239144Y-98556000D01*
X104096286Y-98627429D01*
X104024858Y-98698857D01*
X103953429Y-98841714D01*
X154960072Y-114597571D02*
X154960072Y-113097571D01*
X155531500Y-113097571D01*
X155674358Y-113169000D01*
X155745786Y-113240429D01*
X155817215Y-113383286D01*
X155817215Y-113597571D01*
X155745786Y-113740429D01*
X155674358Y-113811857D01*
X155531500Y-113883286D01*
X154960072Y-113883286D01*
X157245786Y-114597571D02*
X156388643Y-114597571D01*
X156817215Y-114597571D02*
X156817215Y-113097571D01*
X156674358Y-113311857D01*
X156531500Y-113454714D01*
X156388643Y-113526143D01*
X158602929Y-113097571D02*
X157888643Y-113097571D01*
X157817214Y-113811857D01*
X157888643Y-113740429D01*
X158031500Y-113669000D01*
X158388643Y-113669000D01*
X158531500Y-113740429D01*
X158602929Y-113811857D01*
X158674357Y-113954714D01*
X158674357Y-114311857D01*
X158602929Y-114454714D01*
X158531500Y-114526143D01*
X158388643Y-114597571D01*
X158031500Y-114597571D01*
X157888643Y-114526143D01*
X157817214Y-114454714D01*
X164104072Y-64686571D02*
X164104072Y-63186571D01*
X164675500Y-63186571D01*
X164818358Y-63258000D01*
X164889786Y-63329429D01*
X164961215Y-63472286D01*
X164961215Y-63686571D01*
X164889786Y-63829429D01*
X164818358Y-63900857D01*
X164675500Y-63972286D01*
X164104072Y-63972286D01*
X166389786Y-64686571D02*
X165532643Y-64686571D01*
X165961215Y-64686571D02*
X165961215Y-63186571D01*
X165818358Y-63400857D01*
X165675500Y-63543714D01*
X165532643Y-63615143D01*
X166961214Y-63329429D02*
X167032643Y-63258000D01*
X167175500Y-63186571D01*
X167532643Y-63186571D01*
X167675500Y-63258000D01*
X167746929Y-63329429D01*
X167818357Y-63472286D01*
X167818357Y-63615143D01*
X167746929Y-63829429D01*
X166889786Y-64686571D01*
X167818357Y-64686571D01*
X152494371Y-137990828D02*
X150994371Y-137990828D01*
X150994371Y-137419400D01*
X151065800Y-137276542D01*
X151137229Y-137205114D01*
X151280086Y-137133685D01*
X151494371Y-137133685D01*
X151637229Y-137205114D01*
X151708657Y-137276542D01*
X151780086Y-137419400D01*
X151780086Y-137990828D01*
X152494371Y-135705114D02*
X152494371Y-136562257D01*
X152494371Y-136133685D02*
X150994371Y-136133685D01*
X151208657Y-136276542D01*
X151351514Y-136419400D01*
X151422943Y-136562257D01*
X151494371Y-134419400D02*
X152494371Y-134419400D01*
X150922943Y-134776543D02*
X151994371Y-135133686D01*
X151994371Y-134205114D01*
D13*
X161310581Y-55113086D02*
X160310581Y-55113086D01*
X160310581Y-54732133D01*
X160358200Y-54636895D01*
X160405819Y-54589276D01*
X160501057Y-54541657D01*
X160643914Y-54541657D01*
X160739152Y-54589276D01*
X160786771Y-54636895D01*
X160834390Y-54732133D01*
X160834390Y-55113086D01*
X161310581Y-53589276D02*
X161310581Y-54160705D01*
X161310581Y-53874991D02*
X160310581Y-53874991D01*
X160453438Y-53970229D01*
X160548676Y-54065467D01*
X160596295Y-54160705D01*
X161310581Y-53113086D02*
X161310581Y-52922610D01*
X161262962Y-52827371D01*
X161215343Y-52779752D01*
X161072486Y-52684514D01*
X160882010Y-52636895D01*
X160501057Y-52636895D01*
X160405819Y-52684514D01*
X160358200Y-52732133D01*
X160310581Y-52827371D01*
X160310581Y-53017848D01*
X160358200Y-53113086D01*
X160405819Y-53160705D01*
X160501057Y-53208324D01*
X160739152Y-53208324D01*
X160834390Y-53160705D01*
X160882010Y-53113086D01*
X160929629Y-53017848D01*
X160929629Y-52827371D01*
X160882010Y-52732133D01*
X160834390Y-52684514D01*
X160739152Y-52636895D01*
D17*
X151126976Y-60790667D02*
X150461738Y-61214000D01*
X151126976Y-61516381D02*
X149729976Y-61516381D01*
X149729976Y-61032572D01*
X149796500Y-60911619D01*
X149863024Y-60851143D01*
X149996071Y-60790667D01*
X150195643Y-60790667D01*
X150328690Y-60851143D01*
X150395214Y-60911619D01*
X150461738Y-61032572D01*
X150461738Y-61516381D01*
X151126976Y-59581143D02*
X151126976Y-60306857D01*
X151126976Y-59944000D02*
X149729976Y-59944000D01*
X149929548Y-60064952D01*
X150062595Y-60185905D01*
X150129119Y-60306857D01*
X158822571Y-62607976D02*
X158399238Y-61942738D01*
X158096857Y-62607976D02*
X158096857Y-61210976D01*
X158580666Y-61210976D01*
X158701619Y-61277500D01*
X158762095Y-61344024D01*
X158822571Y-61477071D01*
X158822571Y-61676643D01*
X158762095Y-61809690D01*
X158701619Y-61876214D01*
X158580666Y-61942738D01*
X158096857Y-61942738D01*
X159306381Y-61344024D02*
X159366857Y-61277500D01*
X159487809Y-61210976D01*
X159790190Y-61210976D01*
X159911143Y-61277500D01*
X159971619Y-61344024D01*
X160032095Y-61477071D01*
X160032095Y-61610119D01*
X159971619Y-61809690D01*
X159245905Y-62607976D01*
X160032095Y-62607976D01*
X161241619Y-62607976D02*
X160515905Y-62607976D01*
X160878762Y-62607976D02*
X160878762Y-61210976D01*
X160757810Y-61410548D01*
X160636857Y-61543595D01*
X160515905Y-61610119D01*
X158822571Y-60067976D02*
X158399238Y-59402738D01*
X158096857Y-60067976D02*
X158096857Y-58670976D01*
X158580666Y-58670976D01*
X158701619Y-58737500D01*
X158762095Y-58804024D01*
X158822571Y-58937071D01*
X158822571Y-59136643D01*
X158762095Y-59269690D01*
X158701619Y-59336214D01*
X158580666Y-59402738D01*
X158096857Y-59402738D01*
X159306381Y-58804024D02*
X159366857Y-58737500D01*
X159487809Y-58670976D01*
X159790190Y-58670976D01*
X159911143Y-58737500D01*
X159971619Y-58804024D01*
X160032095Y-58937071D01*
X160032095Y-59070119D01*
X159971619Y-59269690D01*
X159245905Y-60067976D01*
X160032095Y-60067976D01*
X160515905Y-58804024D02*
X160576381Y-58737500D01*
X160697333Y-58670976D01*
X160999714Y-58670976D01*
X161120667Y-58737500D01*
X161181143Y-58804024D01*
X161241619Y-58937071D01*
X161241619Y-59070119D01*
X161181143Y-59269690D01*
X160455429Y-60067976D01*
X161241619Y-60067976D01*
D12*
X192339258Y-133901571D02*
X192339258Y-132401571D01*
X192910686Y-132401571D01*
X193053544Y-132473000D01*
X193124972Y-132544429D01*
X193196401Y-132687286D01*
X193196401Y-132901571D01*
X193124972Y-133044429D01*
X193053544Y-133115857D01*
X192910686Y-133187286D01*
X192339258Y-133187286D01*
X193767829Y-132544429D02*
X193839258Y-132473000D01*
X193982115Y-132401571D01*
X194339258Y-132401571D01*
X194482115Y-132473000D01*
X194553544Y-132544429D01*
X194624972Y-132687286D01*
X194624972Y-132830143D01*
X194553544Y-133044429D01*
X193696401Y-133901571D01*
X194624972Y-133901571D01*
D13*
X142819381Y-49537786D02*
X141819381Y-49537786D01*
X141819381Y-49156833D01*
X141867000Y-49061595D01*
X141914619Y-49013976D01*
X142009857Y-48966357D01*
X142152714Y-48966357D01*
X142247952Y-49013976D01*
X142295571Y-49061595D01*
X142343190Y-49156833D01*
X142343190Y-49537786D01*
X141914619Y-48585405D02*
X141867000Y-48537786D01*
X141819381Y-48442548D01*
X141819381Y-48204452D01*
X141867000Y-48109214D01*
X141914619Y-48061595D01*
X142009857Y-48013976D01*
X142105095Y-48013976D01*
X142247952Y-48061595D01*
X142819381Y-48633024D01*
X142819381Y-48013976D01*
X142819381Y-47061595D02*
X142819381Y-47633024D01*
X142819381Y-47347310D02*
X141819381Y-47347310D01*
X141962238Y-47442548D01*
X142057476Y-47537786D01*
X142105095Y-47633024D01*
D16*
X177419000Y-106353429D02*
X177419000Y-107442000D01*
X177346428Y-107659714D01*
X177201285Y-107804857D01*
X176983571Y-107877429D01*
X176838428Y-107877429D01*
X178797857Y-106861429D02*
X178797857Y-107877429D01*
X178435000Y-106280857D02*
X178072143Y-107369429D01*
X179015571Y-107369429D01*
X178308000Y-135182429D02*
X178308000Y-136271000D01*
X178235428Y-136488714D01*
X178090285Y-136633857D01*
X177872571Y-136706429D01*
X177727428Y-136706429D01*
X178888571Y-135182429D02*
X179832000Y-135182429D01*
X179324000Y-135763000D01*
X179541714Y-135763000D01*
X179686857Y-135835571D01*
X179759428Y-135908143D01*
X179832000Y-136053286D01*
X179832000Y-136416143D01*
X179759428Y-136561286D01*
X179686857Y-136633857D01*
X179541714Y-136706429D01*
X179106286Y-136706429D01*
X178961143Y-136633857D01*
X178888571Y-136561286D01*
X141071600Y-135690429D02*
X141071600Y-136779000D01*
X140999028Y-136996714D01*
X140853885Y-137141857D01*
X140636171Y-137214429D01*
X140491028Y-137214429D01*
X141724743Y-135835571D02*
X141797314Y-135763000D01*
X141942457Y-135690429D01*
X142305314Y-135690429D01*
X142450457Y-135763000D01*
X142523028Y-135835571D01*
X142595600Y-135980714D01*
X142595600Y-136125857D01*
X142523028Y-136343571D01*
X141652171Y-137214429D01*
X142595600Y-137214429D01*
D13*
X187304514Y-133141981D02*
X187304514Y-132141981D01*
X187685467Y-132141981D01*
X187780705Y-132189600D01*
X187828324Y-132237219D01*
X187875943Y-132332457D01*
X187875943Y-132475314D01*
X187828324Y-132570552D01*
X187780705Y-132618171D01*
X187685467Y-132665790D01*
X187304514Y-132665790D01*
X188256895Y-132237219D02*
X188304514Y-132189600D01*
X188399752Y-132141981D01*
X188637848Y-132141981D01*
X188733086Y-132189600D01*
X188780705Y-132237219D01*
X188828324Y-132332457D01*
X188828324Y-132427695D01*
X188780705Y-132570552D01*
X188209276Y-133141981D01*
X188828324Y-133141981D01*
X189447371Y-132141981D02*
X189542610Y-132141981D01*
X189637848Y-132189600D01*
X189685467Y-132237219D01*
X189733086Y-132332457D01*
X189780705Y-132522933D01*
X189780705Y-132761029D01*
X189733086Y-132951505D01*
X189685467Y-133046743D01*
X189637848Y-133094362D01*
X189542610Y-133141981D01*
X189447371Y-133141981D01*
X189352133Y-133094362D01*
X189304514Y-133046743D01*
X189256895Y-132951505D01*
X189209276Y-132761029D01*
X189209276Y-132522933D01*
X189256895Y-132332457D01*
X189304514Y-132237219D01*
X189352133Y-132189600D01*
X189447371Y-132141981D01*
X165104914Y-131236981D02*
X165104914Y-130236981D01*
X165485867Y-130236981D01*
X165581105Y-130284600D01*
X165628724Y-130332219D01*
X165676343Y-130427457D01*
X165676343Y-130570314D01*
X165628724Y-130665552D01*
X165581105Y-130713171D01*
X165485867Y-130760790D01*
X165104914Y-130760790D01*
X166057295Y-130332219D02*
X166104914Y-130284600D01*
X166200152Y-130236981D01*
X166438248Y-130236981D01*
X166533486Y-130284600D01*
X166581105Y-130332219D01*
X166628724Y-130427457D01*
X166628724Y-130522695D01*
X166581105Y-130665552D01*
X166009676Y-131236981D01*
X166628724Y-131236981D01*
X167009676Y-130332219D02*
X167057295Y-130284600D01*
X167152533Y-130236981D01*
X167390629Y-130236981D01*
X167485867Y-130284600D01*
X167533486Y-130332219D01*
X167581105Y-130427457D01*
X167581105Y-130522695D01*
X167533486Y-130665552D01*
X166962057Y-131236981D01*
X167581105Y-131236981D01*
X162179095Y-41235381D02*
X162179095Y-42044905D01*
X162226714Y-42140143D01*
X162274333Y-42187762D01*
X162369571Y-42235381D01*
X162560048Y-42235381D01*
X162655286Y-42187762D01*
X162702905Y-42140143D01*
X162750524Y-42044905D01*
X162750524Y-41235381D01*
X163179095Y-41330619D02*
X163226714Y-41283000D01*
X163321952Y-41235381D01*
X163560048Y-41235381D01*
X163655286Y-41283000D01*
X163702905Y-41330619D01*
X163750524Y-41425857D01*
X163750524Y-41521095D01*
X163702905Y-41663952D01*
X163131476Y-42235381D01*
X163750524Y-42235381D01*
X173502581Y-99264695D02*
X172502581Y-99264695D01*
X172502581Y-98883742D01*
X172550200Y-98788504D01*
X172597819Y-98740885D01*
X172693057Y-98693266D01*
X172835914Y-98693266D01*
X172931152Y-98740885D01*
X172978771Y-98788504D01*
X173026390Y-98883742D01*
X173026390Y-99264695D01*
X172502581Y-98359933D02*
X172502581Y-97693266D01*
X173502581Y-98121838D01*
D12*
X162540071Y-89245142D02*
X161040071Y-89245142D01*
X161040071Y-88673714D01*
X161111500Y-88530856D01*
X161182929Y-88459428D01*
X161325786Y-88387999D01*
X161540071Y-88387999D01*
X161682929Y-88459428D01*
X161754357Y-88530856D01*
X161825786Y-88673714D01*
X161825786Y-89245142D01*
X161682929Y-87530856D02*
X161611500Y-87673714D01*
X161540071Y-87745142D01*
X161397214Y-87816571D01*
X161325786Y-87816571D01*
X161182929Y-87745142D01*
X161111500Y-87673714D01*
X161040071Y-87530856D01*
X161040071Y-87245142D01*
X161111500Y-87102285D01*
X161182929Y-87030856D01*
X161325786Y-86959428D01*
X161397214Y-86959428D01*
X161540071Y-87030856D01*
X161611500Y-87102285D01*
X161682929Y-87245142D01*
X161682929Y-87530856D01*
X161754357Y-87673714D01*
X161825786Y-87745142D01*
X161968643Y-87816571D01*
X162254357Y-87816571D01*
X162397214Y-87745142D01*
X162468643Y-87673714D01*
X162540071Y-87530856D01*
X162540071Y-87245142D01*
X162468643Y-87102285D01*
X162397214Y-87030856D01*
X162254357Y-86959428D01*
X161968643Y-86959428D01*
X161825786Y-87030856D01*
X161754357Y-87102285D01*
X161682929Y-87245142D01*
X166898072Y-72941571D02*
X166898072Y-71441571D01*
X167469500Y-71441571D01*
X167612358Y-71513000D01*
X167683786Y-71584429D01*
X167755215Y-71727286D01*
X167755215Y-71941571D01*
X167683786Y-72084429D01*
X167612358Y-72155857D01*
X167469500Y-72227286D01*
X166898072Y-72227286D01*
X169183786Y-72941571D02*
X168326643Y-72941571D01*
X168755215Y-72941571D02*
X168755215Y-71441571D01*
X168612358Y-71655857D01*
X168469500Y-71798714D01*
X168326643Y-71870143D01*
X170612357Y-72941571D02*
X169755214Y-72941571D01*
X170183786Y-72941571D02*
X170183786Y-71441571D01*
X170040929Y-71655857D01*
X169898071Y-71798714D01*
X169755214Y-71870143D01*
D13*
X147740643Y-87129857D02*
X147788262Y-87177476D01*
X147835881Y-87320333D01*
X147835881Y-87415571D01*
X147788262Y-87558429D01*
X147693024Y-87653667D01*
X147597786Y-87701286D01*
X147407310Y-87748905D01*
X147264452Y-87748905D01*
X147073976Y-87701286D01*
X146978738Y-87653667D01*
X146883500Y-87558429D01*
X146835881Y-87415571D01*
X146835881Y-87320333D01*
X146883500Y-87177476D01*
X146931119Y-87129857D01*
X146931119Y-86748905D02*
X146883500Y-86701286D01*
X146835881Y-86606048D01*
X146835881Y-86367952D01*
X146883500Y-86272714D01*
X146931119Y-86225095D01*
X147026357Y-86177476D01*
X147121595Y-86177476D01*
X147264452Y-86225095D01*
X147835881Y-86796524D01*
X147835881Y-86177476D01*
X147835881Y-85225095D02*
X147835881Y-85796524D01*
X147835881Y-85510810D02*
X146835881Y-85510810D01*
X146978738Y-85606048D01*
X147073976Y-85701286D01*
X147121595Y-85796524D01*
X129591381Y-54554286D02*
X128591381Y-54554286D01*
X128591381Y-54173333D01*
X128639000Y-54078095D01*
X128686619Y-54030476D01*
X128781857Y-53982857D01*
X128924714Y-53982857D01*
X129019952Y-54030476D01*
X129067571Y-54078095D01*
X129115190Y-54173333D01*
X129115190Y-54554286D01*
X129591381Y-53030476D02*
X129591381Y-53601905D01*
X129591381Y-53316191D02*
X128591381Y-53316191D01*
X128734238Y-53411429D01*
X128829476Y-53506667D01*
X128877095Y-53601905D01*
X128591381Y-52411429D02*
X128591381Y-52316190D01*
X128639000Y-52220952D01*
X128686619Y-52173333D01*
X128781857Y-52125714D01*
X128972333Y-52078095D01*
X129210429Y-52078095D01*
X129400905Y-52125714D01*
X129496143Y-52173333D01*
X129543762Y-52220952D01*
X129591381Y-52316190D01*
X129591381Y-52411429D01*
X129543762Y-52506667D01*
X129496143Y-52554286D01*
X129400905Y-52601905D01*
X129210429Y-52649524D01*
X128972333Y-52649524D01*
X128781857Y-52601905D01*
X128686619Y-52554286D01*
X128639000Y-52506667D01*
X128591381Y-52411429D01*
D17*
X139201071Y-56956476D02*
X138777738Y-56291238D01*
X138475357Y-56956476D02*
X138475357Y-55559476D01*
X138959166Y-55559476D01*
X139080119Y-55626000D01*
X139140595Y-55692524D01*
X139201071Y-55825571D01*
X139201071Y-56025143D01*
X139140595Y-56158190D01*
X139080119Y-56224714D01*
X138959166Y-56291238D01*
X138475357Y-56291238D01*
X140410595Y-56956476D02*
X139684881Y-56956476D01*
X140047738Y-56956476D02*
X140047738Y-55559476D01*
X139926786Y-55759048D01*
X139805833Y-55892095D01*
X139684881Y-55958619D01*
X141196786Y-55559476D02*
X141317738Y-55559476D01*
X141438690Y-55626000D01*
X141499167Y-55692524D01*
X141559643Y-55825571D01*
X141620119Y-56091667D01*
X141620119Y-56424286D01*
X141559643Y-56690381D01*
X141499167Y-56823429D01*
X141438690Y-56889952D01*
X141317738Y-56956476D01*
X141196786Y-56956476D01*
X141075833Y-56889952D01*
X141015357Y-56823429D01*
X140954881Y-56690381D01*
X140894405Y-56424286D01*
X140894405Y-56091667D01*
X140954881Y-55825571D01*
X141015357Y-55692524D01*
X141075833Y-55626000D01*
X141196786Y-55559476D01*
D13*
X140939781Y-120340286D02*
X139939781Y-120340286D01*
X139939781Y-119959333D01*
X139987400Y-119864095D01*
X140035019Y-119816476D01*
X140130257Y-119768857D01*
X140273114Y-119768857D01*
X140368352Y-119816476D01*
X140415971Y-119864095D01*
X140463590Y-119959333D01*
X140463590Y-120340286D01*
X140035019Y-119387905D02*
X139987400Y-119340286D01*
X139939781Y-119245048D01*
X139939781Y-119006952D01*
X139987400Y-118911714D01*
X140035019Y-118864095D01*
X140130257Y-118816476D01*
X140225495Y-118816476D01*
X140368352Y-118864095D01*
X140939781Y-119435524D01*
X140939781Y-118816476D01*
X139939781Y-118483143D02*
X139939781Y-117864095D01*
X140320733Y-118197429D01*
X140320733Y-118054571D01*
X140368352Y-117959333D01*
X140415971Y-117911714D01*
X140511210Y-117864095D01*
X140749305Y-117864095D01*
X140844543Y-117911714D01*
X140892162Y-117959333D01*
X140939781Y-118054571D01*
X140939781Y-118340286D01*
X140892162Y-118435524D01*
X140844543Y-118483143D01*
X149712514Y-107594981D02*
X149712514Y-106594981D01*
X150093467Y-106594981D01*
X150188705Y-106642600D01*
X150236324Y-106690219D01*
X150283943Y-106785457D01*
X150283943Y-106928314D01*
X150236324Y-107023552D01*
X150188705Y-107071171D01*
X150093467Y-107118790D01*
X149712514Y-107118790D01*
X150664895Y-106690219D02*
X150712514Y-106642600D01*
X150807752Y-106594981D01*
X151045848Y-106594981D01*
X151141086Y-106642600D01*
X151188705Y-106690219D01*
X151236324Y-106785457D01*
X151236324Y-106880695D01*
X151188705Y-107023552D01*
X150617276Y-107594981D01*
X151236324Y-107594981D01*
X152093467Y-106928314D02*
X152093467Y-107594981D01*
X151855371Y-106547362D02*
X151617276Y-107261648D01*
X152236324Y-107261648D01*
X185443905Y-46997881D02*
X185443905Y-45997881D01*
X185682000Y-45997881D01*
X185824858Y-46045500D01*
X185920096Y-46140738D01*
X185967715Y-46235976D01*
X186015334Y-46426452D01*
X186015334Y-46569310D01*
X185967715Y-46759786D01*
X185920096Y-46855024D01*
X185824858Y-46950262D01*
X185682000Y-46997881D01*
X185443905Y-46997881D01*
X186920096Y-45997881D02*
X186443905Y-45997881D01*
X186396286Y-46474071D01*
X186443905Y-46426452D01*
X186539143Y-46378833D01*
X186777239Y-46378833D01*
X186872477Y-46426452D01*
X186920096Y-46474071D01*
X186967715Y-46569310D01*
X186967715Y-46807405D01*
X186920096Y-46902643D01*
X186872477Y-46950262D01*
X186777239Y-46997881D01*
X186539143Y-46997881D01*
X186443905Y-46950262D01*
X186396286Y-46902643D01*
X185373095Y-50833381D02*
X185373095Y-49833381D01*
X185944524Y-50833381D02*
X185515952Y-50261952D01*
X185944524Y-49833381D02*
X185373095Y-50404810D01*
D17*
X185238571Y-53082976D02*
X184815238Y-52417738D01*
X184512857Y-53082976D02*
X184512857Y-51685976D01*
X184996666Y-51685976D01*
X185117619Y-51752500D01*
X185178095Y-51819024D01*
X185238571Y-51952071D01*
X185238571Y-52151643D01*
X185178095Y-52284690D01*
X185117619Y-52351214D01*
X184996666Y-52417738D01*
X184512857Y-52417738D01*
X186448095Y-53082976D02*
X185722381Y-53082976D01*
X186085238Y-53082976D02*
X186085238Y-51685976D01*
X185964286Y-51885548D01*
X185843333Y-52018595D01*
X185722381Y-52085119D01*
X186931905Y-51819024D02*
X186992381Y-51752500D01*
X187113333Y-51685976D01*
X187415714Y-51685976D01*
X187536667Y-51752500D01*
X187597143Y-51819024D01*
X187657619Y-51952071D01*
X187657619Y-52085119D01*
X187597143Y-52284690D01*
X186871429Y-53082976D01*
X187657619Y-53082976D01*
D13*
X128256143Y-73243357D02*
X128303762Y-73290976D01*
X128351381Y-73433833D01*
X128351381Y-73529071D01*
X128303762Y-73671929D01*
X128208524Y-73767167D01*
X128113286Y-73814786D01*
X127922810Y-73862405D01*
X127779952Y-73862405D01*
X127589476Y-73814786D01*
X127494238Y-73767167D01*
X127399000Y-73671929D01*
X127351381Y-73529071D01*
X127351381Y-73433833D01*
X127399000Y-73290976D01*
X127446619Y-73243357D01*
X128351381Y-72290976D02*
X128351381Y-72862405D01*
X128351381Y-72576691D02*
X127351381Y-72576691D01*
X127494238Y-72671929D01*
X127589476Y-72767167D01*
X127637095Y-72862405D01*
X127446619Y-71910024D02*
X127399000Y-71862405D01*
X127351381Y-71767167D01*
X127351381Y-71529071D01*
X127399000Y-71433833D01*
X127446619Y-71386214D01*
X127541857Y-71338595D01*
X127637095Y-71338595D01*
X127779952Y-71386214D01*
X128351381Y-71957643D01*
X128351381Y-71338595D01*
X184919881Y-44489595D02*
X183919881Y-44489595D01*
X183919881Y-44251500D01*
X183967500Y-44108642D01*
X184062738Y-44013404D01*
X184157976Y-43965785D01*
X184348452Y-43918166D01*
X184491310Y-43918166D01*
X184681786Y-43965785D01*
X184777024Y-44013404D01*
X184872262Y-44108642D01*
X184919881Y-44251500D01*
X184919881Y-44489595D01*
X184253214Y-43061023D02*
X184919881Y-43061023D01*
X183872262Y-43299119D02*
X184586548Y-43537214D01*
X184586548Y-42918166D01*
X109799381Y-64009495D02*
X108799381Y-64009495D01*
X108799381Y-63771400D01*
X108847000Y-63628542D01*
X108942238Y-63533304D01*
X109037476Y-63485685D01*
X109227952Y-63438066D01*
X109370810Y-63438066D01*
X109561286Y-63485685D01*
X109656524Y-63533304D01*
X109751762Y-63628542D01*
X109799381Y-63771400D01*
X109799381Y-64009495D01*
X108894619Y-63057114D02*
X108847000Y-63009495D01*
X108799381Y-62914257D01*
X108799381Y-62676161D01*
X108847000Y-62580923D01*
X108894619Y-62533304D01*
X108989857Y-62485685D01*
X109085095Y-62485685D01*
X109227952Y-62533304D01*
X109799381Y-63104733D01*
X109799381Y-62485685D01*
X104236781Y-64009495D02*
X103236781Y-64009495D01*
X103236781Y-63771400D01*
X103284400Y-63628542D01*
X103379638Y-63533304D01*
X103474876Y-63485685D01*
X103665352Y-63438066D01*
X103808210Y-63438066D01*
X103998686Y-63485685D01*
X104093924Y-63533304D01*
X104189162Y-63628542D01*
X104236781Y-63771400D01*
X104236781Y-64009495D01*
X103236781Y-63104733D02*
X103236781Y-62485685D01*
X103617733Y-62819019D01*
X103617733Y-62676161D01*
X103665352Y-62580923D01*
X103712971Y-62533304D01*
X103808210Y-62485685D01*
X104046305Y-62485685D01*
X104141543Y-62533304D01*
X104189162Y-62580923D01*
X104236781Y-62676161D01*
X104236781Y-62961876D01*
X104189162Y-63057114D01*
X104141543Y-63104733D01*
X187253643Y-91035143D02*
X187206024Y-91082762D01*
X187063167Y-91130381D01*
X186967929Y-91130381D01*
X186825071Y-91082762D01*
X186729833Y-90987524D01*
X186682214Y-90892286D01*
X186634595Y-90701810D01*
X186634595Y-90558952D01*
X186682214Y-90368476D01*
X186729833Y-90273238D01*
X186825071Y-90178000D01*
X186967929Y-90130381D01*
X187063167Y-90130381D01*
X187206024Y-90178000D01*
X187253643Y-90225619D01*
X188206024Y-91130381D02*
X187634595Y-91130381D01*
X187920309Y-91130381D02*
X187920309Y-90130381D01*
X187825071Y-90273238D01*
X187729833Y-90368476D01*
X187634595Y-90416095D01*
X188825071Y-90130381D02*
X188920310Y-90130381D01*
X189015548Y-90178000D01*
X189063167Y-90225619D01*
X189110786Y-90320857D01*
X189158405Y-90511333D01*
X189158405Y-90749429D01*
X189110786Y-90939905D01*
X189063167Y-91035143D01*
X189015548Y-91082762D01*
X188920310Y-91130381D01*
X188825071Y-91130381D01*
X188729833Y-91082762D01*
X188682214Y-91035143D01*
X188634595Y-90939905D01*
X188586976Y-90749429D01*
X188586976Y-90511333D01*
X188634595Y-90320857D01*
X188682214Y-90225619D01*
X188729833Y-90178000D01*
X188825071Y-90130381D01*
X187507643Y-92463881D02*
X187174309Y-91987690D01*
X186936214Y-92463881D02*
X186936214Y-91463881D01*
X187317167Y-91463881D01*
X187412405Y-91511500D01*
X187460024Y-91559119D01*
X187507643Y-91654357D01*
X187507643Y-91797214D01*
X187460024Y-91892452D01*
X187412405Y-91940071D01*
X187317167Y-91987690D01*
X186936214Y-91987690D01*
X187888595Y-91559119D02*
X187936214Y-91511500D01*
X188031452Y-91463881D01*
X188269548Y-91463881D01*
X188364786Y-91511500D01*
X188412405Y-91559119D01*
X188460024Y-91654357D01*
X188460024Y-91749595D01*
X188412405Y-91892452D01*
X187840976Y-92463881D01*
X188460024Y-92463881D01*
X188793357Y-91463881D02*
X189460024Y-91463881D01*
X189031452Y-92463881D01*
X187571143Y-93797381D02*
X187237809Y-93321190D01*
X186999714Y-93797381D02*
X186999714Y-92797381D01*
X187380667Y-92797381D01*
X187475905Y-92845000D01*
X187523524Y-92892619D01*
X187571143Y-92987857D01*
X187571143Y-93130714D01*
X187523524Y-93225952D01*
X187475905Y-93273571D01*
X187380667Y-93321190D01*
X186999714Y-93321190D01*
X187952095Y-92892619D02*
X187999714Y-92845000D01*
X188094952Y-92797381D01*
X188333048Y-92797381D01*
X188428286Y-92845000D01*
X188475905Y-92892619D01*
X188523524Y-92987857D01*
X188523524Y-93083095D01*
X188475905Y-93225952D01*
X187904476Y-93797381D01*
X188523524Y-93797381D01*
X189380667Y-92797381D02*
X189190190Y-92797381D01*
X189094952Y-92845000D01*
X189047333Y-92892619D01*
X188952095Y-93035476D01*
X188904476Y-93225952D01*
X188904476Y-93606905D01*
X188952095Y-93702143D01*
X188999714Y-93749762D01*
X189094952Y-93797381D01*
X189285429Y-93797381D01*
X189380667Y-93749762D01*
X189428286Y-93702143D01*
X189475905Y-93606905D01*
X189475905Y-93368810D01*
X189428286Y-93273571D01*
X189380667Y-93225952D01*
X189285429Y-93178333D01*
X189094952Y-93178333D01*
X188999714Y-93225952D01*
X188952095Y-93273571D01*
X188904476Y-93368810D01*
X167028834Y-92876643D02*
X166981215Y-92924262D01*
X166838358Y-92971881D01*
X166743120Y-92971881D01*
X166600262Y-92924262D01*
X166505024Y-92829024D01*
X166457405Y-92733786D01*
X166409786Y-92543310D01*
X166409786Y-92400452D01*
X166457405Y-92209976D01*
X166505024Y-92114738D01*
X166600262Y-92019500D01*
X166743120Y-91971881D01*
X166838358Y-91971881D01*
X166981215Y-92019500D01*
X167028834Y-92067119D01*
X167505024Y-92971881D02*
X167695500Y-92971881D01*
X167790739Y-92924262D01*
X167838358Y-92876643D01*
X167933596Y-92733786D01*
X167981215Y-92543310D01*
X167981215Y-92162357D01*
X167933596Y-92067119D01*
X167885977Y-92019500D01*
X167790739Y-91971881D01*
X167600262Y-91971881D01*
X167505024Y-92019500D01*
X167457405Y-92067119D01*
X167409786Y-92162357D01*
X167409786Y-92400452D01*
X167457405Y-92495690D01*
X167505024Y-92543310D01*
X167600262Y-92590929D01*
X167790739Y-92590929D01*
X167885977Y-92543310D01*
X167933596Y-92495690D01*
X167981215Y-92400452D01*
X171267381Y-99258357D02*
X170791190Y-99591691D01*
X171267381Y-99829786D02*
X170267381Y-99829786D01*
X170267381Y-99448833D01*
X170315000Y-99353595D01*
X170362619Y-99305976D01*
X170457857Y-99258357D01*
X170600714Y-99258357D01*
X170695952Y-99305976D01*
X170743571Y-99353595D01*
X170791190Y-99448833D01*
X170791190Y-99829786D01*
X170362619Y-98877405D02*
X170315000Y-98829786D01*
X170267381Y-98734548D01*
X170267381Y-98496452D01*
X170315000Y-98401214D01*
X170362619Y-98353595D01*
X170457857Y-98305976D01*
X170553095Y-98305976D01*
X170695952Y-98353595D01*
X171267381Y-98925024D01*
X171267381Y-98305976D01*
X170600714Y-97448833D02*
X171267381Y-97448833D01*
X170219762Y-97686929D02*
X170934048Y-97925024D01*
X170934048Y-97305976D01*
X169171881Y-99258357D02*
X168695690Y-99591691D01*
X169171881Y-99829786D02*
X168171881Y-99829786D01*
X168171881Y-99448833D01*
X168219500Y-99353595D01*
X168267119Y-99305976D01*
X168362357Y-99258357D01*
X168505214Y-99258357D01*
X168600452Y-99305976D01*
X168648071Y-99353595D01*
X168695690Y-99448833D01*
X168695690Y-99829786D01*
X168267119Y-98877405D02*
X168219500Y-98829786D01*
X168171881Y-98734548D01*
X168171881Y-98496452D01*
X168219500Y-98401214D01*
X168267119Y-98353595D01*
X168362357Y-98305976D01*
X168457595Y-98305976D01*
X168600452Y-98353595D01*
X169171881Y-98925024D01*
X169171881Y-98305976D01*
X168171881Y-97401214D02*
X168171881Y-97877405D01*
X168648071Y-97925024D01*
X168600452Y-97877405D01*
X168552833Y-97782167D01*
X168552833Y-97544071D01*
X168600452Y-97448833D01*
X168648071Y-97401214D01*
X168743310Y-97353595D01*
X168981405Y-97353595D01*
X169076643Y-97401214D01*
X169124262Y-97448833D01*
X169171881Y-97544071D01*
X169171881Y-97782167D01*
X169124262Y-97877405D01*
X169076643Y-97925024D01*
X185178381Y-47886857D02*
X184702190Y-48220191D01*
X185178381Y-48458286D02*
X184178381Y-48458286D01*
X184178381Y-48077333D01*
X184226000Y-47982095D01*
X184273619Y-47934476D01*
X184368857Y-47886857D01*
X184511714Y-47886857D01*
X184606952Y-47934476D01*
X184654571Y-47982095D01*
X184702190Y-48077333D01*
X184702190Y-48458286D01*
X185178381Y-46934476D02*
X185178381Y-47505905D01*
X185178381Y-47220191D02*
X184178381Y-47220191D01*
X184321238Y-47315429D01*
X184416476Y-47410667D01*
X184464095Y-47505905D01*
X185178381Y-45982095D02*
X185178381Y-46553524D01*
X185178381Y-46267810D02*
X184178381Y-46267810D01*
X184321238Y-46363048D01*
X184416476Y-46458286D01*
X184464095Y-46553524D01*
D18*
X116815429Y-65870857D02*
X118049143Y-65870857D01*
X118194286Y-65816429D01*
X118266857Y-65762000D01*
X118339429Y-65653143D01*
X118339429Y-65435429D01*
X118266857Y-65326571D01*
X118194286Y-65272143D01*
X118049143Y-65217714D01*
X116815429Y-65217714D01*
X118339429Y-64619000D02*
X118339429Y-64401285D01*
X118266857Y-64292428D01*
X118194286Y-64238000D01*
X117976571Y-64129142D01*
X117686286Y-64074714D01*
X117105714Y-64074714D01*
X116960571Y-64129142D01*
X116888000Y-64183571D01*
X116815429Y-64292428D01*
X116815429Y-64510142D01*
X116888000Y-64619000D01*
X116960571Y-64673428D01*
X117105714Y-64727857D01*
X117468571Y-64727857D01*
X117613714Y-64673428D01*
X117686286Y-64619000D01*
X117758857Y-64510142D01*
X117758857Y-64292428D01*
X117686286Y-64183571D01*
X117613714Y-64129142D01*
X117468571Y-64074714D01*
D19*
D18*
X135245929Y-82341357D02*
X136479643Y-82341357D01*
X136624786Y-82286929D01*
X136697357Y-82232500D01*
X136769929Y-82123643D01*
X136769929Y-81905929D01*
X136697357Y-81797071D01*
X136624786Y-81742643D01*
X136479643Y-81688214D01*
X135245929Y-81688214D01*
X135753929Y-80654071D02*
X136769929Y-80654071D01*
X135173357Y-80926214D02*
X136261929Y-81198357D01*
X136261929Y-80490785D01*
D19*
D18*
X135245929Y-94914357D02*
X136479643Y-94914357D01*
X136624786Y-94859929D01*
X136697357Y-94805500D01*
X136769929Y-94696643D01*
X136769929Y-94478929D01*
X136697357Y-94370071D01*
X136624786Y-94315643D01*
X136479643Y-94261214D01*
X135245929Y-94261214D01*
X135245929Y-93172642D02*
X135245929Y-93716928D01*
X135971643Y-93771357D01*
X135899071Y-93716928D01*
X135826500Y-93608071D01*
X135826500Y-93335928D01*
X135899071Y-93227071D01*
X135971643Y-93172642D01*
X136116786Y-93118214D01*
X136479643Y-93118214D01*
X136624786Y-93172642D01*
X136697357Y-93227071D01*
X136769929Y-93335928D01*
X136769929Y-93608071D01*
X136697357Y-93716928D01*
X136624786Y-93771357D01*
D19*
D18*
X118572643Y-81270929D02*
X118572643Y-82504643D01*
X118627071Y-82649786D01*
X118681500Y-82722357D01*
X118790357Y-82794929D01*
X119008071Y-82794929D01*
X119116929Y-82722357D01*
X119171357Y-82649786D01*
X119225786Y-82504643D01*
X119225786Y-81270929D01*
X120259929Y-81270929D02*
X120042215Y-81270929D01*
X119933358Y-81343500D01*
X119878929Y-81416071D01*
X119770072Y-81633786D01*
X119715643Y-81924071D01*
X119715643Y-82504643D01*
X119770072Y-82649786D01*
X119824500Y-82722357D01*
X119933358Y-82794929D01*
X120151072Y-82794929D01*
X120259929Y-82722357D01*
X120314358Y-82649786D01*
X120368786Y-82504643D01*
X120368786Y-82141786D01*
X120314358Y-81996643D01*
X120259929Y-81924071D01*
X120151072Y-81851500D01*
X119933358Y-81851500D01*
X119824500Y-81924071D01*
X119770072Y-81996643D01*
X119715643Y-82141786D01*
D19*
D18*
X105047143Y-81207429D02*
X105047143Y-82441143D01*
X105101571Y-82586286D01*
X105156000Y-82658857D01*
X105264857Y-82731429D01*
X105482571Y-82731429D01*
X105591429Y-82658857D01*
X105645857Y-82586286D01*
X105700286Y-82441143D01*
X105700286Y-81207429D01*
X106135715Y-81207429D02*
X106843286Y-81207429D01*
X106462286Y-81788000D01*
X106625572Y-81788000D01*
X106734429Y-81860571D01*
X106788858Y-81933143D01*
X106843286Y-82078286D01*
X106843286Y-82441143D01*
X106788858Y-82586286D01*
X106734429Y-82658857D01*
X106625572Y-82731429D01*
X106299000Y-82731429D01*
X106190143Y-82658857D01*
X106135715Y-82586286D01*
D19*
D18*
X150739929Y-95269957D02*
X151973643Y-95269957D01*
X152118786Y-95215529D01*
X152191357Y-95161100D01*
X152263929Y-95052243D01*
X152263929Y-94834529D01*
X152191357Y-94725671D01*
X152118786Y-94671243D01*
X151973643Y-94616814D01*
X150739929Y-94616814D01*
X151393071Y-93909242D02*
X151320500Y-94018100D01*
X151247929Y-94072528D01*
X151102786Y-94126957D01*
X151030214Y-94126957D01*
X150885071Y-94072528D01*
X150812500Y-94018100D01*
X150739929Y-93909242D01*
X150739929Y-93691528D01*
X150812500Y-93582671D01*
X150885071Y-93528242D01*
X151030214Y-93473814D01*
X151102786Y-93473814D01*
X151247929Y-93528242D01*
X151320500Y-93582671D01*
X151393071Y-93691528D01*
X151393071Y-93909242D01*
X151465643Y-94018100D01*
X151538214Y-94072528D01*
X151683357Y-94126957D01*
X151973643Y-94126957D01*
X152118786Y-94072528D01*
X152191357Y-94018100D01*
X152263929Y-93909242D01*
X152263929Y-93691528D01*
X152191357Y-93582671D01*
X152118786Y-93528242D01*
X151973643Y-93473814D01*
X151683357Y-93473814D01*
X151538214Y-93528242D01*
X151465643Y-93582671D01*
X151393071Y-93691528D01*
D19*
D18*
X153279929Y-81488642D02*
X154513643Y-81488642D01*
X154658786Y-81434214D01*
X154731357Y-81379785D01*
X154803929Y-81270928D01*
X154803929Y-81053214D01*
X154731357Y-80944356D01*
X154658786Y-80889928D01*
X154513643Y-80835499D01*
X153279929Y-80835499D01*
X154803929Y-79692499D02*
X154803929Y-80345642D01*
X154803929Y-80019070D02*
X153279929Y-80019070D01*
X153497643Y-80127927D01*
X153642786Y-80236785D01*
X153715357Y-80345642D01*
X154803929Y-78603928D02*
X154803929Y-79257071D01*
X154803929Y-78930499D02*
X153279929Y-78930499D01*
X153497643Y-79039356D01*
X153642786Y-79148214D01*
X153715357Y-79257071D01*
D19*
D18*
X141051643Y-62220929D02*
X141051643Y-63454643D01*
X141106071Y-63599786D01*
X141160500Y-63672357D01*
X141269357Y-63744929D01*
X141487071Y-63744929D01*
X141595929Y-63672357D01*
X141650357Y-63599786D01*
X141704786Y-63454643D01*
X141704786Y-62220929D01*
X142847786Y-63744929D02*
X142194643Y-63744929D01*
X142521215Y-63744929D02*
X142521215Y-62220929D01*
X142412358Y-62438643D01*
X142303500Y-62583786D01*
X142194643Y-62656357D01*
D19*
D13*
X160101114Y-93238581D02*
X160101114Y-92238581D01*
X160482067Y-92238581D01*
X160577305Y-92286200D01*
X160624924Y-92333819D01*
X160672543Y-92429057D01*
X160672543Y-92571914D01*
X160624924Y-92667152D01*
X160577305Y-92714771D01*
X160482067Y-92762390D01*
X160101114Y-92762390D01*
X161053495Y-92333819D02*
X161101114Y-92286200D01*
X161196352Y-92238581D01*
X161434448Y-92238581D01*
X161529686Y-92286200D01*
X161577305Y-92333819D01*
X161624924Y-92429057D01*
X161624924Y-92524295D01*
X161577305Y-92667152D01*
X161005876Y-93238581D01*
X161624924Y-93238581D01*
X162529686Y-92238581D02*
X162053495Y-92238581D01*
X162005876Y-92714771D01*
X162053495Y-92667152D01*
X162148733Y-92619533D01*
X162386829Y-92619533D01*
X162482067Y-92667152D01*
X162529686Y-92714771D01*
X162577305Y-92810010D01*
X162577305Y-93048105D01*
X162529686Y-93143343D01*
X162482067Y-93190962D01*
X162386829Y-93238581D01*
X162148733Y-93238581D01*
X162053495Y-93190962D01*
X162005876Y-93143343D01*
D16*
X97387229Y-123211772D02*
X95863229Y-123211772D01*
X95863229Y-122631200D01*
X95935800Y-122486058D01*
X96008371Y-122413486D01*
X96153514Y-122340915D01*
X96371229Y-122340915D01*
X96516371Y-122413486D01*
X96588943Y-122486058D01*
X96661514Y-122631200D01*
X96661514Y-123211772D01*
X97387229Y-120889486D02*
X97387229Y-121760343D01*
X97387229Y-121324915D02*
X95863229Y-121324915D01*
X96080943Y-121470058D01*
X96226086Y-121615200D01*
X96298657Y-121760343D01*
X95863229Y-119583200D02*
X95863229Y-119873486D01*
X95935800Y-120018629D01*
X96008371Y-120091200D01*
X96226086Y-120236343D01*
X96516371Y-120308914D01*
X97096943Y-120308914D01*
X97242086Y-120236343D01*
X97314657Y-120163771D01*
X97387229Y-120018629D01*
X97387229Y-119728343D01*
X97314657Y-119583200D01*
X97242086Y-119510629D01*
X97096943Y-119438057D01*
X96734086Y-119438057D01*
X96588943Y-119510629D01*
X96516371Y-119583200D01*
X96443800Y-119728343D01*
X96443800Y-120018629D01*
X96516371Y-120163771D01*
X96588943Y-120236343D01*
X96734086Y-120308914D01*
X114430628Y-99952629D02*
X114430628Y-98428629D01*
X115011200Y-98428629D01*
X115156342Y-98501200D01*
X115228914Y-98573771D01*
X115301485Y-98718914D01*
X115301485Y-98936629D01*
X115228914Y-99081771D01*
X115156342Y-99154343D01*
X115011200Y-99226914D01*
X114430628Y-99226914D01*
X116752914Y-99952629D02*
X115882057Y-99952629D01*
X116317485Y-99952629D02*
X116317485Y-98428629D01*
X116172342Y-98646343D01*
X116027200Y-98791486D01*
X115882057Y-98864057D01*
X117260914Y-98428629D02*
X118276914Y-98428629D01*
X117623771Y-99952629D01*
X133480628Y-99952629D02*
X133480628Y-98428629D01*
X134061200Y-98428629D01*
X134206342Y-98501200D01*
X134278914Y-98573771D01*
X134351485Y-98718914D01*
X134351485Y-98936629D01*
X134278914Y-99081771D01*
X134206342Y-99154343D01*
X134061200Y-99226914D01*
X133480628Y-99226914D01*
X135802914Y-99952629D02*
X134932057Y-99952629D01*
X135367485Y-99952629D02*
X135367485Y-98428629D01*
X135222342Y-98646343D01*
X135077200Y-98791486D01*
X134932057Y-98864057D01*
X136673771Y-99081771D02*
X136528629Y-99009200D01*
X136456057Y-98936629D01*
X136383486Y-98791486D01*
X136383486Y-98718914D01*
X136456057Y-98573771D01*
X136528629Y-98501200D01*
X136673771Y-98428629D01*
X136964057Y-98428629D01*
X137109200Y-98501200D01*
X137181771Y-98573771D01*
X137254343Y-98718914D01*
X137254343Y-98791486D01*
X137181771Y-98936629D01*
X137109200Y-99009200D01*
X136964057Y-99081771D01*
X136673771Y-99081771D01*
X136528629Y-99154343D01*
X136456057Y-99226914D01*
X136383486Y-99372057D01*
X136383486Y-99662343D01*
X136456057Y-99807486D01*
X136528629Y-99880057D01*
X136673771Y-99952629D01*
X136964057Y-99952629D01*
X137109200Y-99880057D01*
X137181771Y-99807486D01*
X137254343Y-99662343D01*
X137254343Y-99372057D01*
X137181771Y-99226914D01*
X137109200Y-99154343D01*
X136964057Y-99081771D01*
M02*
