G04 #@! TF.GenerationSoftware,KiCad,Pcbnew,(5.0.2)-1*
G04 #@! TF.CreationDate,2018-12-29T22:18:37+01:00*
G04 #@! TF.ProjectId,distributor_v2_only,64697374-7269-4627-9574-6f725f76325f,rev?*
G04 #@! TF.SameCoordinates,PX5e78920PY8670810*
G04 #@! TF.FileFunction,Soldermask,Bot*
G04 #@! TF.FilePolarity,Negative*
%FSLAX46Y46*%
G04 Gerber Fmt 4.6, Leading zero omitted, Abs format (unit mm)*
G04 Created by KiCad (PCBNEW (5.0.2)-1) date 29.12.2018 22:18:37*
%MOMM*%
%LPD*%
G01*
G04 APERTURE LIST*
%ADD10C,0.100000*%
G04 APERTURE END LIST*
D10*
G36*
X58373405Y7547026D02*
X58955767Y7305804D01*
X59479884Y6955600D01*
X59925600Y6509884D01*
X60275804Y5985767D01*
X60517026Y5403405D01*
X60640000Y4785174D01*
X60640000Y4154826D01*
X60517026Y3536595D01*
X60275804Y2954233D01*
X59925600Y2430116D01*
X59479884Y1984400D01*
X58955767Y1634196D01*
X58373405Y1392974D01*
X57755174Y1270000D01*
X57124826Y1270000D01*
X56506595Y1392974D01*
X55924233Y1634196D01*
X55400116Y1984400D01*
X54954400Y2430116D01*
X54604196Y2954233D01*
X54362974Y3536595D01*
X54240000Y4154826D01*
X54240000Y4785174D01*
X54362974Y5403405D01*
X54604196Y5985767D01*
X54954400Y6509884D01*
X55400116Y6955600D01*
X55924233Y7305804D01*
X56506595Y7547026D01*
X57124826Y7670000D01*
X57755174Y7670000D01*
X58373405Y7547026D01*
X58373405Y7547026D01*
G37*
G36*
X5373405Y7547026D02*
X5955767Y7305804D01*
X6479884Y6955600D01*
X6925600Y6509884D01*
X7275804Y5985767D01*
X7517026Y5403405D01*
X7640000Y4785174D01*
X7640000Y4154826D01*
X7517026Y3536595D01*
X7275804Y2954233D01*
X6925600Y2430116D01*
X6479884Y1984400D01*
X5955767Y1634196D01*
X5373405Y1392974D01*
X4755174Y1270000D01*
X4124826Y1270000D01*
X3506595Y1392974D01*
X2924233Y1634196D01*
X2400116Y1984400D01*
X1954400Y2430116D01*
X1604196Y2954233D01*
X1362974Y3536595D01*
X1240000Y4154826D01*
X1240000Y4785174D01*
X1362974Y5403405D01*
X1604196Y5985767D01*
X1954400Y6509884D01*
X2400116Y6955600D01*
X2924233Y7305804D01*
X3506595Y7547026D01*
X4124826Y7670000D01*
X4755174Y7670000D01*
X5373405Y7547026D01*
X5373405Y7547026D01*
G37*
G36*
X50112947Y8614278D02*
X50376833Y8504973D01*
X50614324Y8346287D01*
X50816287Y8144324D01*
X50974973Y7906833D01*
X51084278Y7642947D01*
X51140000Y7362814D01*
X51140000Y7077186D01*
X51084278Y6797053D01*
X50974973Y6533167D01*
X50816287Y6295676D01*
X50614324Y6093713D01*
X50376833Y5935027D01*
X50112947Y5825722D01*
X49832814Y5770000D01*
X49547186Y5770000D01*
X49267053Y5825722D01*
X49003167Y5935027D01*
X48765676Y6093713D01*
X48563713Y6295676D01*
X48405027Y6533167D01*
X48295722Y6797053D01*
X48240000Y7077186D01*
X48240000Y7362814D01*
X48295722Y7642947D01*
X48405027Y7906833D01*
X48563713Y8144324D01*
X48765676Y8346287D01*
X49003167Y8504973D01*
X49267053Y8614278D01*
X49547186Y8670000D01*
X49832814Y8670000D01*
X50112947Y8614278D01*
X50112947Y8614278D01*
G37*
G36*
X34612947Y8614278D02*
X34876833Y8504973D01*
X35114324Y8346287D01*
X35316287Y8144324D01*
X35474973Y7906833D01*
X35584278Y7642947D01*
X35640000Y7362814D01*
X35640000Y7077186D01*
X35584278Y6797053D01*
X35474973Y6533167D01*
X35316287Y6295676D01*
X35114324Y6093713D01*
X34876833Y5935027D01*
X34612947Y5825722D01*
X34332814Y5770000D01*
X34047186Y5770000D01*
X33767053Y5825722D01*
X33503167Y5935027D01*
X33265676Y6093713D01*
X33063713Y6295676D01*
X32905027Y6533167D01*
X32795722Y6797053D01*
X32740000Y7077186D01*
X32740000Y7362814D01*
X32795722Y7642947D01*
X32905027Y7906833D01*
X33063713Y8144324D01*
X33265676Y8346287D01*
X33503167Y8504973D01*
X33767053Y8614278D01*
X34047186Y8670000D01*
X34332814Y8670000D01*
X34612947Y8614278D01*
X34612947Y8614278D01*
G37*
G36*
X29012947Y8614278D02*
X29276833Y8504973D01*
X29514324Y8346287D01*
X29716287Y8144324D01*
X29874973Y7906833D01*
X29984278Y7642947D01*
X30040000Y7362814D01*
X30040000Y7077186D01*
X29984278Y6797053D01*
X29874973Y6533167D01*
X29716287Y6295676D01*
X29514324Y6093713D01*
X29276833Y5935027D01*
X29012947Y5825722D01*
X28732814Y5770000D01*
X28447186Y5770000D01*
X28167053Y5825722D01*
X27903167Y5935027D01*
X27665676Y6093713D01*
X27463713Y6295676D01*
X27305027Y6533167D01*
X27195722Y6797053D01*
X27140000Y7077186D01*
X27140000Y7362814D01*
X27195722Y7642947D01*
X27305027Y7906833D01*
X27463713Y8144324D01*
X27665676Y8346287D01*
X27903167Y8504973D01*
X28167053Y8614278D01*
X28447186Y8670000D01*
X28732814Y8670000D01*
X29012947Y8614278D01*
X29012947Y8614278D01*
G37*
G36*
X13512947Y8614278D02*
X13776833Y8504973D01*
X14014324Y8346287D01*
X14216287Y8144324D01*
X14374973Y7906833D01*
X14484278Y7642947D01*
X14540000Y7362814D01*
X14540000Y7077186D01*
X14484278Y6797053D01*
X14374973Y6533167D01*
X14216287Y6295676D01*
X14014324Y6093713D01*
X13776833Y5935027D01*
X13512947Y5825722D01*
X13232814Y5770000D01*
X12947186Y5770000D01*
X12667053Y5825722D01*
X12403167Y5935027D01*
X12165676Y6093713D01*
X11963713Y6295676D01*
X11805027Y6533167D01*
X11695722Y6797053D01*
X11640000Y7077186D01*
X11640000Y7362814D01*
X11695722Y7642947D01*
X11805027Y7906833D01*
X11963713Y8144324D01*
X12165676Y8346287D01*
X12403167Y8504973D01*
X12667053Y8614278D01*
X12947186Y8670000D01*
X13232814Y8670000D01*
X13512947Y8614278D01*
X13512947Y8614278D01*
G37*
G36*
X57104126Y11010100D02*
X57239365Y10983199D01*
X57494149Y10877664D01*
X57651506Y10772521D01*
X57723451Y10724449D01*
X57918449Y10529451D01*
X57918451Y10529448D01*
X57990675Y10421358D01*
X58071665Y10300147D01*
X58177199Y10045364D01*
X58231000Y9774889D01*
X58231000Y9499111D01*
X58177199Y9228636D01*
X58071665Y8973853D01*
X57918449Y8744549D01*
X57723451Y8549551D01*
X57723448Y8549549D01*
X57494149Y8396336D01*
X57239365Y8290801D01*
X57104127Y8263901D01*
X56968889Y8237000D01*
X56693111Y8237000D01*
X56557873Y8263901D01*
X56422635Y8290801D01*
X56167851Y8396336D01*
X55938552Y8549549D01*
X55938549Y8549551D01*
X55743551Y8744549D01*
X55590335Y8973853D01*
X55484801Y9228636D01*
X55431000Y9499111D01*
X55431000Y9774889D01*
X55484801Y10045364D01*
X55590335Y10300147D01*
X55671326Y10421358D01*
X55743549Y10529448D01*
X55743551Y10529451D01*
X55938549Y10724449D01*
X56010494Y10772521D01*
X56167851Y10877664D01*
X56422635Y10983199D01*
X56557874Y11010100D01*
X56693111Y11037000D01*
X56968889Y11037000D01*
X57104126Y11010100D01*
X57104126Y11010100D01*
G37*
G36*
X37757521Y11375414D02*
X37921309Y11307571D01*
X38068720Y11209074D01*
X38194074Y11083720D01*
X38292571Y10936309D01*
X38360414Y10772521D01*
X38395000Y10598644D01*
X38395000Y10421356D01*
X38360414Y10247479D01*
X38292571Y10083691D01*
X38194074Y9936280D01*
X38068720Y9810926D01*
X37921309Y9712429D01*
X37757521Y9644586D01*
X37583644Y9610000D01*
X37406356Y9610000D01*
X37232479Y9644586D01*
X37068691Y9712429D01*
X36921280Y9810926D01*
X36795926Y9936280D01*
X36697429Y10083691D01*
X36629586Y10247479D01*
X36595000Y10421356D01*
X36595000Y10598644D01*
X36629586Y10772521D01*
X36697429Y10936309D01*
X36795926Y11083720D01*
X36921280Y11209074D01*
X37068691Y11307571D01*
X37232479Y11375414D01*
X37406356Y11410000D01*
X37583644Y11410000D01*
X37757521Y11375414D01*
X37757521Y11375414D01*
G37*
G36*
X19197521Y11375414D02*
X19361309Y11307571D01*
X19508720Y11209074D01*
X19634074Y11083720D01*
X19732571Y10936309D01*
X19800414Y10772521D01*
X19835000Y10598644D01*
X19835000Y10421356D01*
X19800414Y10247479D01*
X19732571Y10083691D01*
X19634074Y9936280D01*
X19508720Y9810926D01*
X19361309Y9712429D01*
X19197521Y9644586D01*
X19023644Y9610000D01*
X18846356Y9610000D01*
X18672479Y9644586D01*
X18508691Y9712429D01*
X18361280Y9810926D01*
X18235926Y9936280D01*
X18137429Y10083691D01*
X18069586Y10247479D01*
X18035000Y10421356D01*
X18035000Y10598644D01*
X18069586Y10772521D01*
X18137429Y10936309D01*
X18235926Y11083720D01*
X18361280Y11209074D01*
X18508691Y11307571D01*
X18672479Y11375414D01*
X18846356Y11410000D01*
X19023644Y11410000D01*
X19197521Y11375414D01*
X19197521Y11375414D01*
G37*
G36*
X45377521Y11375414D02*
X45541309Y11307571D01*
X45688720Y11209074D01*
X45814074Y11083720D01*
X45912571Y10936309D01*
X45980414Y10772521D01*
X46015000Y10598644D01*
X46015000Y10421356D01*
X45980414Y10247479D01*
X45912571Y10083691D01*
X45814074Y9936280D01*
X45688720Y9810926D01*
X45541309Y9712429D01*
X45377521Y9644586D01*
X45203644Y9610000D01*
X45026356Y9610000D01*
X44852479Y9644586D01*
X44688691Y9712429D01*
X44541280Y9810926D01*
X44415926Y9936280D01*
X44317429Y10083691D01*
X44249586Y10247479D01*
X44215000Y10421356D01*
X44215000Y10598644D01*
X44249586Y10772521D01*
X44317429Y10936309D01*
X44415926Y11083720D01*
X44541280Y11209074D01*
X44688691Y11307571D01*
X44852479Y11375414D01*
X45026356Y11410000D01*
X45203644Y11410000D01*
X45377521Y11375414D01*
X45377521Y11375414D01*
G37*
G36*
X42837521Y11375414D02*
X43001309Y11307571D01*
X43148720Y11209074D01*
X43274074Y11083720D01*
X43372571Y10936309D01*
X43440414Y10772521D01*
X43475000Y10598644D01*
X43475000Y10421356D01*
X43440414Y10247479D01*
X43372571Y10083691D01*
X43274074Y9936280D01*
X43148720Y9810926D01*
X43001309Y9712429D01*
X42837521Y9644586D01*
X42663644Y9610000D01*
X42486356Y9610000D01*
X42312479Y9644586D01*
X42148691Y9712429D01*
X42001280Y9810926D01*
X41875926Y9936280D01*
X41777429Y10083691D01*
X41709586Y10247479D01*
X41675000Y10421356D01*
X41675000Y10598644D01*
X41709586Y10772521D01*
X41777429Y10936309D01*
X41875926Y11083720D01*
X42001280Y11209074D01*
X42148691Y11307571D01*
X42312479Y11375414D01*
X42486356Y11410000D01*
X42663644Y11410000D01*
X42837521Y11375414D01*
X42837521Y11375414D01*
G37*
G36*
X40297521Y11375414D02*
X40461309Y11307571D01*
X40608720Y11209074D01*
X40734074Y11083720D01*
X40832571Y10936309D01*
X40900414Y10772521D01*
X40935000Y10598644D01*
X40935000Y10421356D01*
X40900414Y10247479D01*
X40832571Y10083691D01*
X40734074Y9936280D01*
X40608720Y9810926D01*
X40461309Y9712429D01*
X40297521Y9644586D01*
X40123644Y9610000D01*
X39946356Y9610000D01*
X39772479Y9644586D01*
X39608691Y9712429D01*
X39461280Y9810926D01*
X39335926Y9936280D01*
X39237429Y10083691D01*
X39169586Y10247479D01*
X39135000Y10421356D01*
X39135000Y10598644D01*
X39169586Y10772521D01*
X39237429Y10936309D01*
X39335926Y11083720D01*
X39461280Y11209074D01*
X39608691Y11307571D01*
X39772479Y11375414D01*
X39946356Y11410000D01*
X40123644Y11410000D01*
X40297521Y11375414D01*
X40297521Y11375414D01*
G37*
G36*
X16657521Y11375414D02*
X16821309Y11307571D01*
X16968720Y11209074D01*
X17094074Y11083720D01*
X17192571Y10936309D01*
X17260414Y10772521D01*
X17295000Y10598644D01*
X17295000Y10421356D01*
X17260414Y10247479D01*
X17192571Y10083691D01*
X17094074Y9936280D01*
X16968720Y9810926D01*
X16821309Y9712429D01*
X16657521Y9644586D01*
X16483644Y9610000D01*
X16306356Y9610000D01*
X16132479Y9644586D01*
X15968691Y9712429D01*
X15821280Y9810926D01*
X15695926Y9936280D01*
X15597429Y10083691D01*
X15529586Y10247479D01*
X15495000Y10421356D01*
X15495000Y10598644D01*
X15529586Y10772521D01*
X15597429Y10936309D01*
X15695926Y11083720D01*
X15821280Y11209074D01*
X15968691Y11307571D01*
X16132479Y11375414D01*
X16306356Y11410000D01*
X16483644Y11410000D01*
X16657521Y11375414D01*
X16657521Y11375414D01*
G37*
G36*
X21737521Y11375414D02*
X21901309Y11307571D01*
X22048720Y11209074D01*
X22174074Y11083720D01*
X22272571Y10936309D01*
X22340414Y10772521D01*
X22375000Y10598644D01*
X22375000Y10421356D01*
X22340414Y10247479D01*
X22272571Y10083691D01*
X22174074Y9936280D01*
X22048720Y9810926D01*
X21901309Y9712429D01*
X21737521Y9644586D01*
X21563644Y9610000D01*
X21386356Y9610000D01*
X21212479Y9644586D01*
X21048691Y9712429D01*
X20901280Y9810926D01*
X20775926Y9936280D01*
X20677429Y10083691D01*
X20609586Y10247479D01*
X20575000Y10421356D01*
X20575000Y10598644D01*
X20609586Y10772521D01*
X20677429Y10936309D01*
X20775926Y11083720D01*
X20901280Y11209074D01*
X21048691Y11307571D01*
X21212479Y11375414D01*
X21386356Y11410000D01*
X21563644Y11410000D01*
X21737521Y11375414D01*
X21737521Y11375414D01*
G37*
G36*
X24277521Y11375414D02*
X24441309Y11307571D01*
X24588720Y11209074D01*
X24714074Y11083720D01*
X24812571Y10936309D01*
X24880414Y10772521D01*
X24915000Y10598644D01*
X24915000Y10421356D01*
X24880414Y10247479D01*
X24812571Y10083691D01*
X24714074Y9936280D01*
X24588720Y9810926D01*
X24441309Y9712429D01*
X24277521Y9644586D01*
X24103644Y9610000D01*
X23926356Y9610000D01*
X23752479Y9644586D01*
X23588691Y9712429D01*
X23441280Y9810926D01*
X23315926Y9936280D01*
X23217429Y10083691D01*
X23149586Y10247479D01*
X23115000Y10421356D01*
X23115000Y10598644D01*
X23149586Y10772521D01*
X23217429Y10936309D01*
X23315926Y11083720D01*
X23441280Y11209074D01*
X23588691Y11307571D01*
X23752479Y11375414D01*
X23926356Y11410000D01*
X24103644Y11410000D01*
X24277521Y11375414D01*
X24277521Y11375414D01*
G37*
G36*
X57104127Y14510099D02*
X57239365Y14483199D01*
X57494149Y14377664D01*
X57720397Y14226489D01*
X57723451Y14224449D01*
X57918449Y14029451D01*
X57918451Y14029448D01*
X58071664Y13800149D01*
X58144745Y13623717D01*
X58177199Y13545364D01*
X58231000Y13274889D01*
X58231000Y12999111D01*
X58177199Y12728636D01*
X58072672Y12476283D01*
X58071664Y12473851D01*
X57923715Y12252430D01*
X57918449Y12244549D01*
X57723451Y12049551D01*
X57723448Y12049549D01*
X57494149Y11896336D01*
X57239365Y11790801D01*
X57104126Y11763900D01*
X56968889Y11737000D01*
X56693111Y11737000D01*
X56557874Y11763900D01*
X56422635Y11790801D01*
X56167851Y11896336D01*
X55938552Y12049549D01*
X55938549Y12049551D01*
X55743551Y12244549D01*
X55738285Y12252430D01*
X55590336Y12473851D01*
X55589329Y12476283D01*
X55484801Y12728636D01*
X55431000Y12999111D01*
X55431000Y13274889D01*
X55484801Y13545364D01*
X55517256Y13623717D01*
X55590336Y13800149D01*
X55743549Y14029448D01*
X55743551Y14029451D01*
X55938549Y14224449D01*
X55941603Y14226489D01*
X56167851Y14377664D01*
X56422635Y14483199D01*
X56557873Y14510099D01*
X56693111Y14537000D01*
X56968889Y14537000D01*
X57104127Y14510099D01*
X57104127Y14510099D01*
G37*
G36*
X44107521Y13915414D02*
X44271309Y13847571D01*
X44418720Y13749074D01*
X44544074Y13623720D01*
X44642571Y13476309D01*
X44710414Y13312521D01*
X44745000Y13138644D01*
X44745000Y12961356D01*
X44710414Y12787479D01*
X44642571Y12623691D01*
X44544074Y12476280D01*
X44418720Y12350926D01*
X44271309Y12252429D01*
X44107521Y12184586D01*
X43933644Y12150000D01*
X43756356Y12150000D01*
X43582479Y12184586D01*
X43418691Y12252429D01*
X43271280Y12350926D01*
X43145926Y12476280D01*
X43047429Y12623691D01*
X42979586Y12787479D01*
X42945000Y12961356D01*
X42945000Y13138644D01*
X42979586Y13312521D01*
X43047429Y13476309D01*
X43145926Y13623720D01*
X43271280Y13749074D01*
X43418691Y13847571D01*
X43582479Y13915414D01*
X43756356Y13950000D01*
X43933644Y13950000D01*
X44107521Y13915414D01*
X44107521Y13915414D01*
G37*
G36*
X41567521Y13915414D02*
X41731309Y13847571D01*
X41878720Y13749074D01*
X42004074Y13623720D01*
X42102571Y13476309D01*
X42170414Y13312521D01*
X42205000Y13138644D01*
X42205000Y12961356D01*
X42170414Y12787479D01*
X42102571Y12623691D01*
X42004074Y12476280D01*
X41878720Y12350926D01*
X41731309Y12252429D01*
X41567521Y12184586D01*
X41393644Y12150000D01*
X41216356Y12150000D01*
X41042479Y12184586D01*
X40878691Y12252429D01*
X40731280Y12350926D01*
X40605926Y12476280D01*
X40507429Y12623691D01*
X40439586Y12787479D01*
X40405000Y12961356D01*
X40405000Y13138644D01*
X40439586Y13312521D01*
X40507429Y13476309D01*
X40605926Y13623720D01*
X40731280Y13749074D01*
X40878691Y13847571D01*
X41042479Y13915414D01*
X41216356Y13950000D01*
X41393644Y13950000D01*
X41567521Y13915414D01*
X41567521Y13915414D01*
G37*
G36*
X39027521Y13915414D02*
X39191309Y13847571D01*
X39338720Y13749074D01*
X39464074Y13623720D01*
X39562571Y13476309D01*
X39630414Y13312521D01*
X39665000Y13138644D01*
X39665000Y12961356D01*
X39630414Y12787479D01*
X39562571Y12623691D01*
X39464074Y12476280D01*
X39338720Y12350926D01*
X39191309Y12252429D01*
X39027521Y12184586D01*
X38853644Y12150000D01*
X38676356Y12150000D01*
X38502479Y12184586D01*
X38338691Y12252429D01*
X38191280Y12350926D01*
X38065926Y12476280D01*
X37967429Y12623691D01*
X37899586Y12787479D01*
X37865000Y12961356D01*
X37865000Y13138644D01*
X37899586Y13312521D01*
X37967429Y13476309D01*
X38065926Y13623720D01*
X38191280Y13749074D01*
X38338691Y13847571D01*
X38502479Y13915414D01*
X38676356Y13950000D01*
X38853644Y13950000D01*
X39027521Y13915414D01*
X39027521Y13915414D01*
G37*
G36*
X46647521Y13915414D02*
X46811309Y13847571D01*
X46958720Y13749074D01*
X47084074Y13623720D01*
X47182571Y13476309D01*
X47250414Y13312521D01*
X47285000Y13138644D01*
X47285000Y12961356D01*
X47250414Y12787479D01*
X47182571Y12623691D01*
X47084074Y12476280D01*
X46958720Y12350926D01*
X46811309Y12252429D01*
X46647521Y12184586D01*
X46473644Y12150000D01*
X46296356Y12150000D01*
X46122479Y12184586D01*
X45958691Y12252429D01*
X45811280Y12350926D01*
X45685926Y12476280D01*
X45587429Y12623691D01*
X45519586Y12787479D01*
X45485000Y12961356D01*
X45485000Y13138644D01*
X45519586Y13312521D01*
X45587429Y13476309D01*
X45685926Y13623720D01*
X45811280Y13749074D01*
X45958691Y13847571D01*
X46122479Y13915414D01*
X46296356Y13950000D01*
X46473644Y13950000D01*
X46647521Y13915414D01*
X46647521Y13915414D01*
G37*
G36*
X20467521Y13915414D02*
X20631309Y13847571D01*
X20778720Y13749074D01*
X20904074Y13623720D01*
X21002571Y13476309D01*
X21070414Y13312521D01*
X21105000Y13138644D01*
X21105000Y12961356D01*
X21070414Y12787479D01*
X21002571Y12623691D01*
X20904074Y12476280D01*
X20778720Y12350926D01*
X20631309Y12252429D01*
X20467521Y12184586D01*
X20293644Y12150000D01*
X20116356Y12150000D01*
X19942479Y12184586D01*
X19778691Y12252429D01*
X19631280Y12350926D01*
X19505926Y12476280D01*
X19407429Y12623691D01*
X19339586Y12787479D01*
X19305000Y12961356D01*
X19305000Y13138644D01*
X19339586Y13312521D01*
X19407429Y13476309D01*
X19505926Y13623720D01*
X19631280Y13749074D01*
X19778691Y13847571D01*
X19942479Y13915414D01*
X20116356Y13950000D01*
X20293644Y13950000D01*
X20467521Y13915414D01*
X20467521Y13915414D01*
G37*
G36*
X23007521Y13915414D02*
X23171309Y13847571D01*
X23318720Y13749074D01*
X23444074Y13623720D01*
X23542571Y13476309D01*
X23610414Y13312521D01*
X23645000Y13138644D01*
X23645000Y12961356D01*
X23610414Y12787479D01*
X23542571Y12623691D01*
X23444074Y12476280D01*
X23318720Y12350926D01*
X23171309Y12252429D01*
X23007521Y12184586D01*
X22833644Y12150000D01*
X22656356Y12150000D01*
X22482479Y12184586D01*
X22318691Y12252429D01*
X22171280Y12350926D01*
X22045926Y12476280D01*
X21947429Y12623691D01*
X21879586Y12787479D01*
X21845000Y12961356D01*
X21845000Y13138644D01*
X21879586Y13312521D01*
X21947429Y13476309D01*
X22045926Y13623720D01*
X22171280Y13749074D01*
X22318691Y13847571D01*
X22482479Y13915414D01*
X22656356Y13950000D01*
X22833644Y13950000D01*
X23007521Y13915414D01*
X23007521Y13915414D01*
G37*
G36*
X25547521Y13915414D02*
X25711309Y13847571D01*
X25858720Y13749074D01*
X25984074Y13623720D01*
X26082571Y13476309D01*
X26150414Y13312521D01*
X26185000Y13138644D01*
X26185000Y12961356D01*
X26150414Y12787479D01*
X26082571Y12623691D01*
X25984074Y12476280D01*
X25858720Y12350926D01*
X25711309Y12252429D01*
X25547521Y12184586D01*
X25373644Y12150000D01*
X25196356Y12150000D01*
X25022479Y12184586D01*
X24858691Y12252429D01*
X24711280Y12350926D01*
X24585926Y12476280D01*
X24487429Y12623691D01*
X24419586Y12787479D01*
X24385000Y12961356D01*
X24385000Y13138644D01*
X24419586Y13312521D01*
X24487429Y13476309D01*
X24585926Y13623720D01*
X24711280Y13749074D01*
X24858691Y13847571D01*
X25022479Y13915414D01*
X25196356Y13950000D01*
X25373644Y13950000D01*
X25547521Y13915414D01*
X25547521Y13915414D01*
G37*
G36*
X17927521Y13915414D02*
X18091309Y13847571D01*
X18238720Y13749074D01*
X18364074Y13623720D01*
X18462571Y13476309D01*
X18530414Y13312521D01*
X18565000Y13138644D01*
X18565000Y12961356D01*
X18530414Y12787479D01*
X18462571Y12623691D01*
X18364074Y12476280D01*
X18238720Y12350926D01*
X18091309Y12252429D01*
X17927521Y12184586D01*
X17753644Y12150000D01*
X17576356Y12150000D01*
X17402479Y12184586D01*
X17238691Y12252429D01*
X17091280Y12350926D01*
X16965926Y12476280D01*
X16867429Y12623691D01*
X16799586Y12787479D01*
X16765000Y12961356D01*
X16765000Y13138644D01*
X16799586Y13312521D01*
X16867429Y13476309D01*
X16965926Y13623720D01*
X17091280Y13749074D01*
X17238691Y13847571D01*
X17402479Y13915414D01*
X17576356Y13950000D01*
X17753644Y13950000D01*
X17927521Y13915414D01*
X17927521Y13915414D01*
G37*
G36*
X10405252Y24499673D02*
X10542905Y24472292D01*
X10715794Y24400679D01*
X10871390Y24296713D01*
X11003713Y24164390D01*
X11107679Y24008794D01*
X11179292Y23835905D01*
X11206673Y23698252D01*
X11215800Y23652368D01*
X11215800Y23465232D01*
X11206673Y23419348D01*
X11179292Y23281695D01*
X11107679Y23108806D01*
X11003713Y22953210D01*
X10871390Y22820887D01*
X10715794Y22716921D01*
X10673208Y22699281D01*
X10651604Y22687734D01*
X10632662Y22672188D01*
X10617116Y22653246D01*
X10605565Y22631636D01*
X10598452Y22608186D01*
X10596050Y22583800D01*
X10598452Y22559414D01*
X10605565Y22535965D01*
X10617116Y22514354D01*
X10632662Y22495412D01*
X10651604Y22479866D01*
X10673208Y22468319D01*
X10715794Y22450679D01*
X10871390Y22346713D01*
X11003713Y22214390D01*
X11107679Y22058794D01*
X11179292Y21885905D01*
X11215800Y21702367D01*
X11215800Y21515233D01*
X11179292Y21331695D01*
X11107679Y21158806D01*
X11003713Y21003210D01*
X10871390Y20870887D01*
X10715794Y20766921D01*
X10612854Y20724282D01*
X10591249Y20712733D01*
X10572307Y20697188D01*
X10556762Y20678246D01*
X10545211Y20656635D01*
X10538098Y20633186D01*
X10535696Y20608800D01*
X10538098Y20584413D01*
X10545211Y20560964D01*
X10556763Y20539353D01*
X10572308Y20520411D01*
X10591250Y20504866D01*
X10612854Y20493318D01*
X10715794Y20450679D01*
X10871390Y20346713D01*
X11003713Y20214390D01*
X11107679Y20058794D01*
X11179292Y19885905D01*
X11215800Y19702367D01*
X11215800Y19515233D01*
X11179292Y19331695D01*
X11107679Y19158806D01*
X11003713Y19003210D01*
X10871390Y18870887D01*
X10715794Y18766921D01*
X10613296Y18724465D01*
X10591689Y18712915D01*
X10572747Y18697370D01*
X10557202Y18678428D01*
X10545651Y18656817D01*
X10538538Y18633368D01*
X10536136Y18608981D01*
X10538538Y18584595D01*
X10545651Y18561146D01*
X10557203Y18539535D01*
X10572748Y18520593D01*
X10591690Y18505048D01*
X10613292Y18493501D01*
X10716674Y18450679D01*
X10872270Y18346713D01*
X11004593Y18214390D01*
X11108559Y18058794D01*
X11180172Y17885905D01*
X11192497Y17823942D01*
X11216680Y17702368D01*
X11216680Y17515232D01*
X11210304Y17483177D01*
X11180172Y17331695D01*
X11108559Y17158806D01*
X11004593Y17003210D01*
X10872270Y16870887D01*
X10716674Y16766921D01*
X10674088Y16749281D01*
X10652484Y16737734D01*
X10633542Y16722188D01*
X10617996Y16703246D01*
X10606445Y16681636D01*
X10599332Y16658186D01*
X10596930Y16633800D01*
X10599332Y16609414D01*
X10606445Y16585965D01*
X10617996Y16564354D01*
X10633542Y16545412D01*
X10652484Y16529866D01*
X10674088Y16518319D01*
X10716674Y16500679D01*
X10872270Y16396713D01*
X11004593Y16264390D01*
X11108559Y16108794D01*
X11180172Y15935905D01*
X11216680Y15752367D01*
X11216680Y15565233D01*
X11180172Y15381695D01*
X11108559Y15208806D01*
X11004593Y15053210D01*
X10872270Y14920887D01*
X10716674Y14816921D01*
X10543785Y14745308D01*
X10406132Y14717927D01*
X10360248Y14708800D01*
X10173112Y14708800D01*
X10127228Y14717927D01*
X9989575Y14745308D01*
X9816686Y14816921D01*
X9661090Y14920887D01*
X9528767Y15053210D01*
X9424801Y15208806D01*
X9353188Y15381695D01*
X9316680Y15565233D01*
X9316680Y15752367D01*
X9353188Y15935905D01*
X9424801Y16108794D01*
X9528767Y16264390D01*
X9661090Y16396713D01*
X9816686Y16500679D01*
X9859272Y16518319D01*
X9880876Y16529866D01*
X9899818Y16545412D01*
X9915364Y16564354D01*
X9926915Y16585964D01*
X9934028Y16609414D01*
X9936430Y16633800D01*
X9934028Y16658186D01*
X9926915Y16681635D01*
X9915364Y16703246D01*
X9899818Y16722188D01*
X9880876Y16737734D01*
X9859272Y16749281D01*
X9816686Y16766921D01*
X9661090Y16870887D01*
X9528767Y17003210D01*
X9424801Y17158806D01*
X9353188Y17331695D01*
X9323056Y17483177D01*
X9316680Y17515232D01*
X9316680Y17702368D01*
X9340863Y17823942D01*
X9353188Y17885905D01*
X9424801Y18058794D01*
X9528767Y18214390D01*
X9661090Y18346713D01*
X9816686Y18450679D01*
X9919184Y18493135D01*
X9940791Y18504685D01*
X9959733Y18520230D01*
X9975278Y18539172D01*
X9986829Y18560783D01*
X9993942Y18584232D01*
X9996344Y18608619D01*
X9993942Y18633005D01*
X9986829Y18656454D01*
X9975277Y18678065D01*
X9959732Y18697007D01*
X9940790Y18712552D01*
X9919188Y18724099D01*
X9815806Y18766921D01*
X9660210Y18870887D01*
X9527887Y19003210D01*
X9423921Y19158806D01*
X9352308Y19331695D01*
X9315800Y19515233D01*
X9315800Y19702367D01*
X9352308Y19885905D01*
X9423921Y20058794D01*
X9527887Y20214390D01*
X9660210Y20346713D01*
X9815806Y20450679D01*
X9918746Y20493318D01*
X9940351Y20504867D01*
X9959293Y20520412D01*
X9974838Y20539354D01*
X9986389Y20560965D01*
X9993502Y20584414D01*
X9995904Y20608800D01*
X9993502Y20633187D01*
X9986389Y20656636D01*
X9974837Y20678247D01*
X9959292Y20697189D01*
X9940350Y20712734D01*
X9918746Y20724282D01*
X9815806Y20766921D01*
X9660210Y20870887D01*
X9527887Y21003210D01*
X9423921Y21158806D01*
X9352308Y21331695D01*
X9315800Y21515233D01*
X9315800Y21702367D01*
X9352308Y21885905D01*
X9423921Y22058794D01*
X9527887Y22214390D01*
X9660210Y22346713D01*
X9815806Y22450679D01*
X9858392Y22468319D01*
X9879996Y22479866D01*
X9898938Y22495412D01*
X9914484Y22514354D01*
X9926035Y22535964D01*
X9933148Y22559414D01*
X9935550Y22583800D01*
X9933148Y22608186D01*
X9926035Y22631635D01*
X9914484Y22653246D01*
X9898938Y22672188D01*
X9879996Y22687734D01*
X9858392Y22699281D01*
X9815806Y22716921D01*
X9660210Y22820887D01*
X9527887Y22953210D01*
X9423921Y23108806D01*
X9352308Y23281695D01*
X9324927Y23419348D01*
X9315800Y23465232D01*
X9315800Y23652368D01*
X9324927Y23698252D01*
X9352308Y23835905D01*
X9423921Y24008794D01*
X9527887Y24164390D01*
X9660210Y24296713D01*
X9815806Y24400679D01*
X9988695Y24472292D01*
X10126348Y24499673D01*
X10172232Y24508800D01*
X10359368Y24508800D01*
X10405252Y24499673D01*
X10405252Y24499673D01*
G37*
G36*
X7905251Y22249673D02*
X8042905Y22222292D01*
X8215794Y22150679D01*
X8371390Y22046713D01*
X8503713Y21914390D01*
X8607679Y21758794D01*
X8679292Y21585905D01*
X8715800Y21402367D01*
X8715800Y21215233D01*
X8679292Y21031695D01*
X8607679Y20858806D01*
X8503713Y20703210D01*
X8371390Y20570887D01*
X8215794Y20466921D01*
X8112854Y20424282D01*
X8091249Y20412733D01*
X8072307Y20397188D01*
X8056762Y20378246D01*
X8045211Y20356635D01*
X8038098Y20333186D01*
X8035696Y20308800D01*
X8038098Y20284413D01*
X8045211Y20260964D01*
X8056763Y20239353D01*
X8072308Y20220411D01*
X8091250Y20204866D01*
X8112854Y20193318D01*
X8215794Y20150679D01*
X8371390Y20046713D01*
X8503713Y19914390D01*
X8607679Y19758794D01*
X8679292Y19585905D01*
X8701581Y19473851D01*
X8715800Y19402368D01*
X8715800Y19215232D01*
X8706673Y19169349D01*
X8679292Y19031695D01*
X8607679Y18858806D01*
X8503713Y18703210D01*
X8371390Y18570887D01*
X8215794Y18466921D01*
X8112854Y18424282D01*
X8091249Y18412733D01*
X8072307Y18397188D01*
X8056762Y18378246D01*
X8045211Y18356635D01*
X8038098Y18333186D01*
X8035696Y18308800D01*
X8038098Y18284413D01*
X8045211Y18260964D01*
X8056763Y18239353D01*
X8072308Y18220411D01*
X8091250Y18204866D01*
X8112854Y18193318D01*
X8215794Y18150679D01*
X8371390Y18046713D01*
X8503713Y17914390D01*
X8607679Y17758794D01*
X8679292Y17585905D01*
X8695557Y17504135D01*
X8715800Y17402368D01*
X8715800Y17215232D01*
X8711335Y17192787D01*
X8679292Y17031695D01*
X8607679Y16858806D01*
X8503713Y16703210D01*
X8372691Y16572188D01*
X8357145Y16553246D01*
X8345594Y16531635D01*
X8338481Y16508186D01*
X8336079Y16483800D01*
X8338481Y16459414D01*
X8345594Y16435965D01*
X8357145Y16414354D01*
X8372691Y16395412D01*
X8503713Y16264390D01*
X8607679Y16108794D01*
X8679292Y15935905D01*
X8715800Y15752367D01*
X8715800Y15565233D01*
X8679292Y15381695D01*
X8607679Y15208806D01*
X8503713Y15053210D01*
X8371390Y14920887D01*
X8215794Y14816921D01*
X8042905Y14745308D01*
X7905252Y14717927D01*
X7859368Y14708800D01*
X7672232Y14708800D01*
X7626348Y14717927D01*
X7488695Y14745308D01*
X7315806Y14816921D01*
X7160210Y14920887D01*
X7027887Y15053210D01*
X6923921Y15208806D01*
X6852308Y15381695D01*
X6815800Y15565233D01*
X6815800Y15752367D01*
X6852308Y15935905D01*
X6923921Y16108794D01*
X7027887Y16264390D01*
X7158909Y16395412D01*
X7174455Y16414354D01*
X7186006Y16435965D01*
X7193119Y16459414D01*
X7195521Y16483800D01*
X7193119Y16508186D01*
X7186006Y16531635D01*
X7174455Y16553246D01*
X7158909Y16572188D01*
X7027887Y16703210D01*
X6923921Y16858806D01*
X6852308Y17031695D01*
X6820265Y17192787D01*
X6815800Y17215232D01*
X6815800Y17402368D01*
X6836043Y17504135D01*
X6852308Y17585905D01*
X6923921Y17758794D01*
X7027887Y17914390D01*
X7160210Y18046713D01*
X7315806Y18150679D01*
X7418746Y18193318D01*
X7440351Y18204867D01*
X7459293Y18220412D01*
X7474838Y18239354D01*
X7486389Y18260965D01*
X7493502Y18284414D01*
X7495904Y18308800D01*
X7493502Y18333187D01*
X7486389Y18356636D01*
X7474837Y18378247D01*
X7459292Y18397189D01*
X7440350Y18412734D01*
X7418746Y18424282D01*
X7315806Y18466921D01*
X7160210Y18570887D01*
X7027887Y18703210D01*
X6923921Y18858806D01*
X6852308Y19031695D01*
X6824927Y19169349D01*
X6815800Y19215232D01*
X6815800Y19402368D01*
X6830019Y19473851D01*
X6852308Y19585905D01*
X6923921Y19758794D01*
X7027887Y19914390D01*
X7160210Y20046713D01*
X7315806Y20150679D01*
X7418746Y20193318D01*
X7440351Y20204867D01*
X7459293Y20220412D01*
X7474838Y20239354D01*
X7486389Y20260965D01*
X7493502Y20284414D01*
X7495904Y20308800D01*
X7493502Y20333187D01*
X7486389Y20356636D01*
X7474837Y20378247D01*
X7459292Y20397189D01*
X7440350Y20412734D01*
X7418746Y20424282D01*
X7315806Y20466921D01*
X7160210Y20570887D01*
X7027887Y20703210D01*
X6923921Y20858806D01*
X6852308Y21031695D01*
X6815800Y21215233D01*
X6815800Y21402367D01*
X6852308Y21585905D01*
X6923921Y21758794D01*
X7027887Y21914390D01*
X7160210Y22046713D01*
X7315806Y22150679D01*
X7488695Y22222292D01*
X7626349Y22249673D01*
X7672232Y22258800D01*
X7859368Y22258800D01*
X7905251Y22249673D01*
X7905251Y22249673D01*
G37*
G36*
X57104127Y18010099D02*
X57239365Y17983199D01*
X57405480Y17914392D01*
X57474254Y17885905D01*
X57494149Y17877664D01*
X57574549Y17823942D01*
X57723451Y17724449D01*
X57918449Y17529451D01*
X57918451Y17529448D01*
X58071664Y17300149D01*
X58177199Y17045365D01*
X58192190Y16970000D01*
X58231000Y16774889D01*
X58231000Y16499111D01*
X58214141Y16414354D01*
X58177199Y16228635D01*
X58071664Y15973851D01*
X58058427Y15954041D01*
X57918449Y15744549D01*
X57723451Y15549551D01*
X57723448Y15549549D01*
X57494149Y15396336D01*
X57239365Y15290801D01*
X57104127Y15263901D01*
X56968889Y15237000D01*
X56693111Y15237000D01*
X56557873Y15263901D01*
X56422635Y15290801D01*
X56167851Y15396336D01*
X55938552Y15549549D01*
X55938549Y15549551D01*
X55743551Y15744549D01*
X55603573Y15954041D01*
X55590336Y15973851D01*
X55484801Y16228635D01*
X55447859Y16414354D01*
X55431000Y16499111D01*
X55431000Y16774889D01*
X55469810Y16970000D01*
X55484801Y17045365D01*
X55590336Y17300149D01*
X55743549Y17529448D01*
X55743551Y17529451D01*
X55938549Y17724449D01*
X56087451Y17823942D01*
X56167851Y17877664D01*
X56187747Y17885905D01*
X56256520Y17914392D01*
X56422635Y17983199D01*
X56557873Y18010099D01*
X56693111Y18037000D01*
X56968889Y18037000D01*
X57104127Y18010099D01*
X57104127Y18010099D01*
G37*
G36*
X49556000Y17571565D02*
X49558402Y17547179D01*
X49565515Y17523730D01*
X49577066Y17502119D01*
X49592612Y17483177D01*
X49611554Y17467631D01*
X49633165Y17456080D01*
X49656614Y17448967D01*
X49681000Y17446565D01*
X49705386Y17448967D01*
X49728835Y17456080D01*
X49750446Y17467631D01*
X49769388Y17483177D01*
X49791240Y17512640D01*
X49792626Y17515233D01*
X49864041Y17648842D01*
X50015998Y17834002D01*
X50201158Y17985959D01*
X50355948Y18068696D01*
X50412405Y18098873D01*
X50488811Y18122050D01*
X50641622Y18168405D01*
X50760719Y18180135D01*
X50820267Y18186000D01*
X50939733Y18186000D01*
X50999281Y18180135D01*
X51118378Y18168405D01*
X51271189Y18122050D01*
X51347595Y18098873D01*
X51404052Y18068696D01*
X51558842Y17985959D01*
X51744002Y17834002D01*
X51895959Y17648842D01*
X51967374Y17515233D01*
X52008873Y17437595D01*
X52008873Y17437594D01*
X52078405Y17208378D01*
X52101883Y16970000D01*
X52078405Y16731622D01*
X52041147Y16608800D01*
X52008873Y16502405D01*
X51979650Y16447734D01*
X51895959Y16291158D01*
X51744002Y16105998D01*
X51558842Y15954041D01*
X51404052Y15871304D01*
X51347595Y15841127D01*
X51271189Y15817950D01*
X51118378Y15771595D01*
X50999281Y15759865D01*
X50939733Y15754000D01*
X50820267Y15754000D01*
X50760719Y15759865D01*
X50641622Y15771595D01*
X50488811Y15817950D01*
X50412405Y15841127D01*
X50355948Y15871304D01*
X50201158Y15954041D01*
X50015998Y16105998D01*
X49864041Y16291158D01*
X49791239Y16427362D01*
X49777626Y16447734D01*
X49760299Y16465061D01*
X49739924Y16478675D01*
X49717285Y16488053D01*
X49693252Y16492833D01*
X49668748Y16492833D01*
X49644714Y16488052D01*
X49622075Y16478675D01*
X49601701Y16465061D01*
X49584374Y16447734D01*
X49570760Y16427359D01*
X49561382Y16404720D01*
X49556000Y16368435D01*
X49556000Y15754000D01*
X47124000Y15754000D01*
X47124000Y18186000D01*
X49556000Y18186000D01*
X49556000Y17571565D01*
X49556000Y17571565D01*
G37*
G36*
X45077830Y18105131D02*
X45077833Y18105130D01*
X45077834Y18105130D01*
X45266335Y18047949D01*
X45266337Y18047948D01*
X45440060Y17955091D01*
X45592328Y17830128D01*
X45717291Y17677860D01*
X45793990Y17534366D01*
X45810149Y17504135D01*
X45841020Y17402367D01*
X45867331Y17315630D01*
X45886638Y17119600D01*
X45867331Y16923570D01*
X45867330Y16923567D01*
X45867330Y16923566D01*
X45810959Y16737734D01*
X45810148Y16735063D01*
X45717291Y16561340D01*
X45592328Y16409072D01*
X45440060Y16284109D01*
X45266337Y16191252D01*
X45266335Y16191251D01*
X45077834Y16134070D01*
X45077833Y16134070D01*
X45077830Y16134069D01*
X44930924Y16119600D01*
X44832676Y16119600D01*
X44685770Y16134069D01*
X44685767Y16134070D01*
X44685766Y16134070D01*
X44497265Y16191251D01*
X44497263Y16191252D01*
X44323540Y16284109D01*
X44171272Y16409072D01*
X44046309Y16561340D01*
X43953452Y16735063D01*
X43952642Y16737734D01*
X43896270Y16923566D01*
X43896270Y16923567D01*
X43896269Y16923570D01*
X43876962Y17119600D01*
X43896269Y17315630D01*
X43922580Y17402367D01*
X43953451Y17504135D01*
X43969610Y17534366D01*
X44046309Y17677860D01*
X44171272Y17830128D01*
X44323540Y17955091D01*
X44497263Y18047948D01*
X44497265Y18047949D01*
X44685766Y18105130D01*
X44685767Y18105130D01*
X44685770Y18105131D01*
X44832676Y18119600D01*
X44930924Y18119600D01*
X45077830Y18105131D01*
X45077830Y18105131D01*
G37*
G36*
X26535830Y18105131D02*
X26535833Y18105130D01*
X26535834Y18105130D01*
X26724335Y18047949D01*
X26724337Y18047948D01*
X26898060Y17955091D01*
X27050328Y17830128D01*
X27175291Y17677860D01*
X27251990Y17534366D01*
X27268149Y17504135D01*
X27299020Y17402367D01*
X27325331Y17315630D01*
X27344638Y17119600D01*
X27325331Y16923570D01*
X27325330Y16923567D01*
X27325330Y16923566D01*
X27268959Y16737734D01*
X27268148Y16735063D01*
X27175291Y16561340D01*
X27050328Y16409072D01*
X26898060Y16284109D01*
X26724337Y16191252D01*
X26724335Y16191251D01*
X26535834Y16134070D01*
X26535833Y16134070D01*
X26535830Y16134069D01*
X26388924Y16119600D01*
X26290676Y16119600D01*
X26143770Y16134069D01*
X26143767Y16134070D01*
X26143766Y16134070D01*
X25955265Y16191251D01*
X25955263Y16191252D01*
X25781540Y16284109D01*
X25629272Y16409072D01*
X25504309Y16561340D01*
X25411452Y16735063D01*
X25410642Y16737734D01*
X25354270Y16923566D01*
X25354270Y16923567D01*
X25354269Y16923570D01*
X25334962Y17119600D01*
X25354269Y17315630D01*
X25380580Y17402367D01*
X25411451Y17504135D01*
X25427610Y17534366D01*
X25504309Y17677860D01*
X25629272Y17830128D01*
X25781540Y17955091D01*
X25955263Y18047948D01*
X25955265Y18047949D01*
X26143766Y18105130D01*
X26143767Y18105130D01*
X26143770Y18105131D01*
X26290676Y18119600D01*
X26388924Y18119600D01*
X26535830Y18105131D01*
X26535830Y18105131D01*
G37*
G36*
X18491708Y18768533D02*
X18642403Y18722820D01*
X18781284Y18648586D01*
X18903015Y18548685D01*
X19002916Y18426954D01*
X19077150Y18288073D01*
X19122863Y18137378D01*
X19138298Y17980660D01*
X19122863Y17823942D01*
X19077150Y17673247D01*
X19002916Y17534366D01*
X18903015Y17412635D01*
X18781284Y17312734D01*
X18642403Y17238500D01*
X18491708Y17192787D01*
X18374263Y17181220D01*
X17795337Y17181220D01*
X17677892Y17192787D01*
X17527197Y17238500D01*
X17388316Y17312734D01*
X17266585Y17412635D01*
X17166684Y17534366D01*
X17092450Y17673247D01*
X17046737Y17823942D01*
X17031302Y17980660D01*
X17046737Y18137378D01*
X17092450Y18288073D01*
X17166684Y18426954D01*
X17266585Y18548685D01*
X17388316Y18648586D01*
X17527197Y18722820D01*
X17677892Y18768533D01*
X17795337Y18780100D01*
X18374263Y18780100D01*
X18491708Y18768533D01*
X18491708Y18768533D01*
G37*
G36*
X45077830Y20645131D02*
X45077833Y20645130D01*
X45077834Y20645130D01*
X45266335Y20587949D01*
X45266337Y20587948D01*
X45440060Y20495091D01*
X45592328Y20370128D01*
X45717291Y20217860D01*
X45717292Y20217858D01*
X45810149Y20044135D01*
X45858147Y19885905D01*
X45867331Y19855630D01*
X45886638Y19659600D01*
X45867331Y19463570D01*
X45867330Y19463567D01*
X45867330Y19463566D01*
X45848766Y19402367D01*
X45810148Y19275063D01*
X45717291Y19101340D01*
X45592328Y18949072D01*
X45440060Y18824109D01*
X45440058Y18824108D01*
X45266335Y18731251D01*
X45077834Y18674070D01*
X45077833Y18674070D01*
X45077830Y18674069D01*
X44930924Y18659600D01*
X44832676Y18659600D01*
X44685770Y18674069D01*
X44685767Y18674070D01*
X44685766Y18674070D01*
X44497265Y18731251D01*
X44323542Y18824108D01*
X44323540Y18824109D01*
X44171272Y18949072D01*
X44046309Y19101340D01*
X43953452Y19275063D01*
X43914835Y19402367D01*
X43896270Y19463566D01*
X43896270Y19463567D01*
X43896269Y19463570D01*
X43876962Y19659600D01*
X43896269Y19855630D01*
X43905453Y19885905D01*
X43953451Y20044135D01*
X44046308Y20217858D01*
X44046309Y20217860D01*
X44171272Y20370128D01*
X44323540Y20495091D01*
X44497263Y20587948D01*
X44497265Y20587949D01*
X44685766Y20645130D01*
X44685767Y20645130D01*
X44685770Y20645131D01*
X44832676Y20659600D01*
X44930924Y20659600D01*
X45077830Y20645131D01*
X45077830Y20645131D01*
G37*
G36*
X26535830Y20645131D02*
X26535833Y20645130D01*
X26535834Y20645130D01*
X26724335Y20587949D01*
X26724337Y20587948D01*
X26898060Y20495091D01*
X27050328Y20370128D01*
X27175291Y20217860D01*
X27175292Y20217858D01*
X27268149Y20044135D01*
X27316147Y19885905D01*
X27325331Y19855630D01*
X27344638Y19659600D01*
X27325331Y19463570D01*
X27325330Y19463567D01*
X27325330Y19463566D01*
X27306766Y19402367D01*
X27268148Y19275063D01*
X27175291Y19101340D01*
X27050328Y18949072D01*
X26898060Y18824109D01*
X26898058Y18824108D01*
X26724335Y18731251D01*
X26535834Y18674070D01*
X26535833Y18674070D01*
X26535830Y18674069D01*
X26388924Y18659600D01*
X26290676Y18659600D01*
X26143770Y18674069D01*
X26143767Y18674070D01*
X26143766Y18674070D01*
X25955265Y18731251D01*
X25781542Y18824108D01*
X25781540Y18824109D01*
X25629272Y18949072D01*
X25504309Y19101340D01*
X25411452Y19275063D01*
X25372835Y19402367D01*
X25354270Y19463566D01*
X25354270Y19463567D01*
X25354269Y19463570D01*
X25334962Y19659600D01*
X25354269Y19855630D01*
X25363453Y19885905D01*
X25411451Y20044135D01*
X25504308Y20217858D01*
X25504309Y20217860D01*
X25629272Y20370128D01*
X25781540Y20495091D01*
X25955263Y20587948D01*
X25955265Y20587949D01*
X26143766Y20645130D01*
X26143767Y20645130D01*
X26143770Y20645131D01*
X26290676Y20659600D01*
X26388924Y20659600D01*
X26535830Y20645131D01*
X26535830Y20645131D01*
G37*
G36*
X57078319Y21515233D02*
X57239365Y21483199D01*
X57494149Y21377664D01*
X57562946Y21331695D01*
X57723451Y21224449D01*
X57918449Y21029451D01*
X57918451Y21029448D01*
X58032471Y20858806D01*
X58071665Y20800147D01*
X58102575Y20725523D01*
X58177199Y20545365D01*
X58185255Y20504866D01*
X58229106Y20284413D01*
X58231000Y20274888D01*
X58231000Y19999112D01*
X58177199Y19728635D01*
X58071664Y19473851D01*
X58030080Y19411616D01*
X57918449Y19244549D01*
X57723451Y19049551D01*
X57723448Y19049549D01*
X57494149Y18896336D01*
X57239365Y18790801D01*
X57185567Y18780100D01*
X56968889Y18737000D01*
X56693111Y18737000D01*
X56476433Y18780100D01*
X56422635Y18790801D01*
X56167851Y18896336D01*
X55938552Y19049549D01*
X55938549Y19049551D01*
X55743551Y19244549D01*
X55631920Y19411616D01*
X55590336Y19473851D01*
X55484801Y19728635D01*
X55431000Y19999112D01*
X55431000Y20274888D01*
X55432895Y20284413D01*
X55476745Y20504866D01*
X55484801Y20545365D01*
X55559425Y20725523D01*
X55590335Y20800147D01*
X55629530Y20858806D01*
X55743549Y21029448D01*
X55743551Y21029451D01*
X55938549Y21224449D01*
X56099054Y21331695D01*
X56167851Y21377664D01*
X56422635Y21483199D01*
X56583681Y21515233D01*
X56693111Y21537000D01*
X56968889Y21537000D01*
X57078319Y21515233D01*
X57078319Y21515233D01*
G37*
G36*
X18491708Y20767513D02*
X18642403Y20721800D01*
X18781284Y20647566D01*
X18903015Y20547665D01*
X19002916Y20425934D01*
X19077150Y20287053D01*
X19122863Y20136358D01*
X19138298Y19979640D01*
X19122863Y19822922D01*
X19077150Y19672227D01*
X19002916Y19533346D01*
X18903015Y19411615D01*
X18781284Y19311714D01*
X18642403Y19237480D01*
X18491708Y19191767D01*
X18374263Y19180200D01*
X17795337Y19180200D01*
X17677892Y19191767D01*
X17527197Y19237480D01*
X17388316Y19311714D01*
X17266585Y19411615D01*
X17166684Y19533346D01*
X17092450Y19672227D01*
X17046737Y19822922D01*
X17031302Y19979640D01*
X17046737Y20136358D01*
X17092450Y20287053D01*
X17166684Y20425934D01*
X17266585Y20547665D01*
X17388316Y20647566D01*
X17527197Y20721800D01*
X17677892Y20767513D01*
X17795337Y20779080D01*
X18374263Y20779080D01*
X18491708Y20767513D01*
X18491708Y20767513D01*
G37*
G36*
X48459281Y24220135D02*
X48578378Y24208405D01*
X48723469Y24164392D01*
X48807595Y24138873D01*
X48864052Y24108696D01*
X49018842Y24025959D01*
X49204002Y23874002D01*
X49355959Y23688842D01*
X49438696Y23534052D01*
X49468873Y23477595D01*
X49468873Y23477594D01*
X49538405Y23248378D01*
X49561883Y23010000D01*
X49538405Y22771622D01*
X49512958Y22687734D01*
X49468873Y22542405D01*
X49465430Y22535964D01*
X49355959Y22331158D01*
X49204002Y22145998D01*
X49018842Y21994041D01*
X48882640Y21921240D01*
X48862266Y21907626D01*
X48844939Y21890299D01*
X48831325Y21869924D01*
X48821947Y21847285D01*
X48817167Y21823252D01*
X48817167Y21798748D01*
X48821948Y21774714D01*
X48831325Y21752075D01*
X48844939Y21731701D01*
X48862266Y21714374D01*
X48882641Y21700760D01*
X48905280Y21691382D01*
X48941565Y21686000D01*
X49556000Y21686000D01*
X49556000Y19254000D01*
X47124000Y19254000D01*
X47124000Y21686000D01*
X47738435Y21686000D01*
X47762821Y21688402D01*
X47786270Y21695515D01*
X47807881Y21707066D01*
X47826823Y21722612D01*
X47842369Y21741554D01*
X47853920Y21763165D01*
X47861033Y21786614D01*
X47863435Y21811000D01*
X47861033Y21835386D01*
X47853920Y21858835D01*
X47842369Y21880446D01*
X47826823Y21899388D01*
X47797360Y21921240D01*
X47661158Y21994041D01*
X47475998Y22145998D01*
X47324041Y22331158D01*
X47214570Y22535964D01*
X47211127Y22542405D01*
X47167042Y22687734D01*
X47141595Y22771622D01*
X47118117Y23010000D01*
X47141595Y23248378D01*
X47211127Y23477594D01*
X47211127Y23477595D01*
X47241304Y23534052D01*
X47324041Y23688842D01*
X47475998Y23874002D01*
X47661158Y24025959D01*
X47815948Y24108696D01*
X47872405Y24138873D01*
X47956531Y24164392D01*
X48101622Y24208405D01*
X48220719Y24220135D01*
X48280267Y24226000D01*
X48399733Y24226000D01*
X48459281Y24220135D01*
X48459281Y24220135D01*
G37*
G36*
X18491708Y22769033D02*
X18642403Y22723320D01*
X18781284Y22649086D01*
X18903015Y22549185D01*
X19002916Y22427454D01*
X19077150Y22288573D01*
X19122863Y22137878D01*
X19138298Y21981160D01*
X19122863Y21824442D01*
X19077150Y21673747D01*
X19002916Y21534866D01*
X18903015Y21413135D01*
X18781284Y21313234D01*
X18642403Y21239000D01*
X18491708Y21193287D01*
X18374263Y21181720D01*
X17795337Y21181720D01*
X17677892Y21193287D01*
X17527197Y21239000D01*
X17388316Y21313234D01*
X17266585Y21413135D01*
X17166684Y21534866D01*
X17092450Y21673747D01*
X17046737Y21824442D01*
X17031302Y21981160D01*
X17046737Y22137878D01*
X17092450Y22288573D01*
X17166684Y22427454D01*
X17266585Y22549185D01*
X17388316Y22649086D01*
X17527197Y22723320D01*
X17677892Y22769033D01*
X17795337Y22780600D01*
X18374263Y22780600D01*
X18491708Y22769033D01*
X18491708Y22769033D01*
G37*
G36*
X58231000Y22237000D02*
X55431000Y22237000D01*
X55431000Y25037000D01*
X58231000Y25037000D01*
X58231000Y22237000D01*
X58231000Y22237000D01*
G37*
G36*
X52227703Y24695611D02*
X52428191Y24634793D01*
X52612964Y24536031D01*
X52774918Y24403118D01*
X52907831Y24241164D01*
X53006593Y24056391D01*
X53067411Y23855903D01*
X53087946Y23647400D01*
X53067411Y23438897D01*
X53006593Y23238409D01*
X52907831Y23053636D01*
X52774918Y22891682D01*
X52612964Y22758769D01*
X52428191Y22660007D01*
X52227703Y22599189D01*
X52071451Y22583800D01*
X51662149Y22583800D01*
X51505897Y22599189D01*
X51305409Y22660007D01*
X51120636Y22758769D01*
X50958682Y22891682D01*
X50825769Y23053636D01*
X50727007Y23238409D01*
X50666189Y23438897D01*
X50645654Y23647400D01*
X50666189Y23855903D01*
X50727007Y24056391D01*
X50825769Y24241164D01*
X50958682Y24403118D01*
X51120636Y24536031D01*
X51305409Y24634793D01*
X51505897Y24695611D01*
X51662149Y24711000D01*
X52071451Y24711000D01*
X52227703Y24695611D01*
X52227703Y24695611D01*
G37*
G36*
X7905252Y24499673D02*
X8042905Y24472292D01*
X8215794Y24400679D01*
X8371390Y24296713D01*
X8503713Y24164390D01*
X8607679Y24008794D01*
X8679292Y23835905D01*
X8706673Y23698252D01*
X8715800Y23652368D01*
X8715800Y23465232D01*
X8706673Y23419348D01*
X8679292Y23281695D01*
X8607679Y23108806D01*
X8503713Y22953210D01*
X8371390Y22820887D01*
X8215794Y22716921D01*
X8042905Y22645308D01*
X7905251Y22617927D01*
X7859368Y22608800D01*
X7672232Y22608800D01*
X7626349Y22617927D01*
X7488695Y22645308D01*
X7315806Y22716921D01*
X7160210Y22820887D01*
X7027887Y22953210D01*
X6923921Y23108806D01*
X6852308Y23281695D01*
X6824927Y23419348D01*
X6815800Y23465232D01*
X6815800Y23652368D01*
X6824927Y23698252D01*
X6852308Y23835905D01*
X6923921Y24008794D01*
X7027887Y24164390D01*
X7160210Y24296713D01*
X7315806Y24400679D01*
X7488695Y24472292D01*
X7626348Y24499673D01*
X7672232Y24508800D01*
X7859368Y24508800D01*
X7905252Y24499673D01*
X7905252Y24499673D01*
G37*
G36*
X19134430Y23183240D02*
X17035170Y23183240D01*
X17035170Y24782120D01*
X19134430Y24782120D01*
X19134430Y23183240D01*
X19134430Y23183240D01*
G37*
G36*
X52227703Y27235611D02*
X52428191Y27174793D01*
X52612964Y27076031D01*
X52774918Y26943118D01*
X52907831Y26781164D01*
X53006593Y26596391D01*
X53067411Y26395903D01*
X53087946Y26187400D01*
X53067411Y25978897D01*
X53006593Y25778409D01*
X52907831Y25593636D01*
X52774918Y25431682D01*
X52612964Y25298769D01*
X52428191Y25200007D01*
X52227703Y25139189D01*
X52071451Y25123800D01*
X51662149Y25123800D01*
X51505897Y25139189D01*
X51305409Y25200007D01*
X51120636Y25298769D01*
X50958682Y25431682D01*
X50825769Y25593636D01*
X50727007Y25778409D01*
X50666189Y25978897D01*
X50645654Y26187400D01*
X50666189Y26395903D01*
X50727007Y26596391D01*
X50825769Y26781164D01*
X50958682Y26943118D01*
X51120636Y27076031D01*
X51305409Y27174793D01*
X51505897Y27235611D01*
X51662149Y27251000D01*
X52071451Y27251000D01*
X52227703Y27235611D01*
X52227703Y27235611D01*
G37*
G36*
X26535830Y28773131D02*
X26535833Y28773130D01*
X26535834Y28773130D01*
X26724335Y28715949D01*
X26724337Y28715948D01*
X26898060Y28623091D01*
X27050328Y28498128D01*
X27175291Y28345860D01*
X27268148Y28172137D01*
X27268149Y28172135D01*
X27325330Y27983634D01*
X27325331Y27983630D01*
X27344638Y27787600D01*
X27325331Y27591570D01*
X27268148Y27403063D01*
X27175291Y27229340D01*
X27050328Y27077072D01*
X26898060Y26952109D01*
X26898058Y26952108D01*
X26724335Y26859251D01*
X26535834Y26802070D01*
X26535833Y26802070D01*
X26535830Y26802069D01*
X26388924Y26787600D01*
X26290676Y26787600D01*
X26143770Y26802069D01*
X26143767Y26802070D01*
X26143766Y26802070D01*
X25955265Y26859251D01*
X25781542Y26952108D01*
X25781540Y26952109D01*
X25629272Y27077072D01*
X25504309Y27229340D01*
X25411452Y27403063D01*
X25354269Y27591570D01*
X25334962Y27787600D01*
X25354269Y27983630D01*
X25354270Y27983634D01*
X25411451Y28172135D01*
X25411452Y28172137D01*
X25504309Y28345860D01*
X25629272Y28498128D01*
X25781540Y28623091D01*
X25955263Y28715948D01*
X25955265Y28715949D01*
X26143766Y28773130D01*
X26143767Y28773130D01*
X26143770Y28773131D01*
X26290676Y28787600D01*
X26388924Y28787600D01*
X26535830Y28773131D01*
X26535830Y28773131D01*
G37*
G36*
X45077830Y28773131D02*
X45077833Y28773130D01*
X45077834Y28773130D01*
X45266335Y28715949D01*
X45266337Y28715948D01*
X45440060Y28623091D01*
X45592328Y28498128D01*
X45717291Y28345860D01*
X45810148Y28172137D01*
X45810149Y28172135D01*
X45867330Y27983634D01*
X45867331Y27983630D01*
X45886638Y27787600D01*
X45867331Y27591570D01*
X45810148Y27403063D01*
X45717291Y27229340D01*
X45592328Y27077072D01*
X45440060Y26952109D01*
X45440058Y26952108D01*
X45266335Y26859251D01*
X45077834Y26802070D01*
X45077833Y26802070D01*
X45077830Y26802069D01*
X44930924Y26787600D01*
X44832676Y26787600D01*
X44685770Y26802069D01*
X44685767Y26802070D01*
X44685766Y26802070D01*
X44497265Y26859251D01*
X44323542Y26952108D01*
X44323540Y26952109D01*
X44171272Y27077072D01*
X44046309Y27229340D01*
X43953452Y27403063D01*
X43896269Y27591570D01*
X43876962Y27787600D01*
X43896269Y27983630D01*
X43896270Y27983634D01*
X43953451Y28172135D01*
X43953452Y28172137D01*
X44046309Y28345860D01*
X44171272Y28498128D01*
X44323540Y28623091D01*
X44497263Y28715948D01*
X44497265Y28715949D01*
X44685766Y28773130D01*
X44685767Y28773130D01*
X44685770Y28773131D01*
X44832676Y28787600D01*
X44930924Y28787600D01*
X45077830Y28773131D01*
X45077830Y28773131D01*
G37*
G36*
X53082800Y27663800D02*
X50650800Y27663800D01*
X50650800Y29791000D01*
X53082800Y29791000D01*
X53082800Y27663800D01*
X53082800Y27663800D01*
G37*
G36*
X56019281Y30480135D02*
X56138378Y30468405D01*
X56291189Y30422050D01*
X56367595Y30398873D01*
X56424052Y30368696D01*
X56578842Y30285959D01*
X56764002Y30134002D01*
X56915959Y29948842D01*
X56988760Y29812640D01*
X57002374Y29792266D01*
X57019701Y29774939D01*
X57040076Y29761325D01*
X57062715Y29751947D01*
X57086748Y29747167D01*
X57111252Y29747167D01*
X57135286Y29751948D01*
X57157925Y29761325D01*
X57178299Y29774939D01*
X57195626Y29792266D01*
X57209240Y29812641D01*
X57218618Y29835280D01*
X57224000Y29871565D01*
X57224000Y30486000D01*
X59656000Y30486000D01*
X59656000Y28054000D01*
X57224000Y28054000D01*
X57224000Y28668435D01*
X57221598Y28692821D01*
X57214485Y28716270D01*
X57202934Y28737881D01*
X57187388Y28756823D01*
X57168446Y28772369D01*
X57146835Y28783920D01*
X57123386Y28791033D01*
X57099000Y28793435D01*
X57074614Y28791033D01*
X57051165Y28783920D01*
X57029554Y28772369D01*
X57010612Y28756823D01*
X56988761Y28727361D01*
X56915959Y28591158D01*
X56764002Y28405998D01*
X56578842Y28254041D01*
X56425610Y28172137D01*
X56367595Y28141127D01*
X56291189Y28117950D01*
X56138378Y28071595D01*
X56019281Y28059865D01*
X55959733Y28054000D01*
X55840267Y28054000D01*
X55780719Y28059865D01*
X55661622Y28071595D01*
X55508811Y28117950D01*
X55432405Y28141127D01*
X55374390Y28172137D01*
X55221158Y28254041D01*
X55035998Y28405998D01*
X54884041Y28591158D01*
X54797583Y28752910D01*
X54771127Y28802405D01*
X54747950Y28878811D01*
X54701595Y29031622D01*
X54678117Y29270000D01*
X54701595Y29508378D01*
X54771127Y29737594D01*
X54771127Y29737595D01*
X54811240Y29812641D01*
X54884041Y29948842D01*
X55035998Y30134002D01*
X55221158Y30285959D01*
X55375948Y30368696D01*
X55432405Y30398873D01*
X55508811Y30422050D01*
X55661622Y30468405D01*
X55780719Y30480135D01*
X55840267Y30486000D01*
X55959733Y30486000D01*
X56019281Y30480135D01*
X56019281Y30480135D01*
G37*
G36*
X17360652Y30019673D02*
X17498305Y29992292D01*
X17671194Y29920679D01*
X17826790Y29816713D01*
X17959113Y29684390D01*
X18063079Y29528794D01*
X18105718Y29425854D01*
X18117267Y29404249D01*
X18132812Y29385307D01*
X18151754Y29369762D01*
X18173365Y29358211D01*
X18196814Y29351098D01*
X18221200Y29348696D01*
X18245587Y29351098D01*
X18269036Y29358211D01*
X18290647Y29369763D01*
X18309589Y29385308D01*
X18325134Y29404250D01*
X18336682Y29425854D01*
X18379321Y29528794D01*
X18483287Y29684390D01*
X18615610Y29816713D01*
X18771206Y29920679D01*
X18944095Y29992292D01*
X19081748Y30019673D01*
X19127632Y30028800D01*
X19314768Y30028800D01*
X19360652Y30019673D01*
X19498305Y29992292D01*
X19671194Y29920679D01*
X19826790Y29816713D01*
X19959113Y29684390D01*
X20063079Y29528794D01*
X20080719Y29486208D01*
X20092266Y29464604D01*
X20107812Y29445662D01*
X20126754Y29430116D01*
X20148364Y29418565D01*
X20171814Y29411452D01*
X20196200Y29409050D01*
X20220586Y29411452D01*
X20244035Y29418565D01*
X20265646Y29430116D01*
X20284588Y29445662D01*
X20300134Y29464604D01*
X20311681Y29486208D01*
X20329321Y29528794D01*
X20433287Y29684390D01*
X20565610Y29816713D01*
X20721206Y29920679D01*
X20894095Y29992292D01*
X21031748Y30019673D01*
X21077632Y30028800D01*
X21264768Y30028800D01*
X21310652Y30019673D01*
X21448305Y29992292D01*
X21621194Y29920679D01*
X21776790Y29816713D01*
X21909113Y29684390D01*
X22013079Y29528794D01*
X22084692Y29355905D01*
X22121200Y29172367D01*
X22121200Y28985233D01*
X22084692Y28801695D01*
X22013079Y28628806D01*
X21909113Y28473210D01*
X21776790Y28340887D01*
X21621194Y28236921D01*
X21448305Y28165308D01*
X21326739Y28141127D01*
X21264768Y28128800D01*
X21077632Y28128800D01*
X21015661Y28141127D01*
X20894095Y28165308D01*
X20721206Y28236921D01*
X20565610Y28340887D01*
X20433287Y28473210D01*
X20329321Y28628806D01*
X20311681Y28671392D01*
X20300134Y28692996D01*
X20284588Y28711938D01*
X20265646Y28727484D01*
X20244036Y28739035D01*
X20220586Y28746148D01*
X20196200Y28748550D01*
X20171814Y28746148D01*
X20148365Y28739035D01*
X20126754Y28727484D01*
X20107812Y28711938D01*
X20092266Y28692996D01*
X20080719Y28671392D01*
X20063079Y28628806D01*
X19959113Y28473210D01*
X19826790Y28340887D01*
X19671194Y28236921D01*
X19498305Y28165308D01*
X19376739Y28141127D01*
X19314768Y28128800D01*
X19127632Y28128800D01*
X19065661Y28141127D01*
X18944095Y28165308D01*
X18771206Y28236921D01*
X18615610Y28340887D01*
X18483287Y28473210D01*
X18379321Y28628806D01*
X18336682Y28731746D01*
X18325133Y28753351D01*
X18309588Y28772293D01*
X18290646Y28787838D01*
X18269035Y28799389D01*
X18245586Y28806502D01*
X18221200Y28808904D01*
X18196813Y28806502D01*
X18173364Y28799389D01*
X18151753Y28787837D01*
X18132811Y28772292D01*
X18117266Y28753350D01*
X18105718Y28731746D01*
X18063079Y28628806D01*
X17959113Y28473210D01*
X17826790Y28340887D01*
X17671194Y28236921D01*
X17498305Y28165308D01*
X17376739Y28141127D01*
X17314768Y28128800D01*
X17127632Y28128800D01*
X17065661Y28141127D01*
X16944095Y28165308D01*
X16771206Y28236921D01*
X16615610Y28340887D01*
X16483287Y28473210D01*
X16379321Y28628806D01*
X16336865Y28731304D01*
X16325315Y28752911D01*
X16309770Y28771853D01*
X16290828Y28787398D01*
X16269217Y28798949D01*
X16245768Y28806062D01*
X16221381Y28808464D01*
X16196995Y28806062D01*
X16173546Y28798949D01*
X16151935Y28787397D01*
X16132993Y28771852D01*
X16117448Y28752910D01*
X16105901Y28731308D01*
X16063079Y28627926D01*
X15959113Y28472330D01*
X15826790Y28340007D01*
X15671194Y28236041D01*
X15498305Y28164428D01*
X15381163Y28141127D01*
X15314768Y28127920D01*
X15127632Y28127920D01*
X15061237Y28141127D01*
X14944095Y28164428D01*
X14771206Y28236041D01*
X14615610Y28340007D01*
X14483287Y28472330D01*
X14379321Y28627926D01*
X14361681Y28670512D01*
X14350134Y28692116D01*
X14334588Y28711058D01*
X14315646Y28726604D01*
X14294036Y28738155D01*
X14270586Y28745268D01*
X14246200Y28747670D01*
X14221814Y28745268D01*
X14198365Y28738155D01*
X14176754Y28726604D01*
X14157812Y28711058D01*
X14142266Y28692116D01*
X14130719Y28670512D01*
X14113079Y28627926D01*
X14009113Y28472330D01*
X13876790Y28340007D01*
X13721194Y28236041D01*
X13548305Y28164428D01*
X13431163Y28141127D01*
X13364768Y28127920D01*
X13177632Y28127920D01*
X13111237Y28141127D01*
X12994095Y28164428D01*
X12821206Y28236041D01*
X12665610Y28340007D01*
X12533287Y28472330D01*
X12429321Y28627926D01*
X12357708Y28800815D01*
X12321200Y28984353D01*
X12321200Y29171487D01*
X12357708Y29355025D01*
X12429321Y29527914D01*
X12533287Y29683510D01*
X12665610Y29815833D01*
X12821206Y29919799D01*
X12994095Y29991412D01*
X13131748Y30018793D01*
X13177632Y30027920D01*
X13364768Y30027920D01*
X13410652Y30018793D01*
X13548305Y29991412D01*
X13721194Y29919799D01*
X13876790Y29815833D01*
X14009113Y29683510D01*
X14113079Y29527914D01*
X14130719Y29485328D01*
X14142266Y29463724D01*
X14157812Y29444782D01*
X14176754Y29429236D01*
X14198364Y29417685D01*
X14221814Y29410572D01*
X14246200Y29408170D01*
X14270586Y29410572D01*
X14294035Y29417685D01*
X14315646Y29429236D01*
X14334588Y29444782D01*
X14350134Y29463724D01*
X14361681Y29485328D01*
X14379321Y29527914D01*
X14483287Y29683510D01*
X14615610Y29815833D01*
X14771206Y29919799D01*
X14944095Y29991412D01*
X15081748Y30018793D01*
X15127632Y30027920D01*
X15314768Y30027920D01*
X15360652Y30018793D01*
X15498305Y29991412D01*
X15671194Y29919799D01*
X15826790Y29815833D01*
X15959113Y29683510D01*
X16063079Y29527914D01*
X16105351Y29425860D01*
X16105533Y29425420D01*
X16117085Y29403809D01*
X16132630Y29384867D01*
X16151572Y29369322D01*
X16173183Y29357771D01*
X16196632Y29350658D01*
X16221019Y29348256D01*
X16245405Y29350658D01*
X16268854Y29357771D01*
X16290465Y29369323D01*
X16309407Y29384868D01*
X16324952Y29403810D01*
X16336499Y29425412D01*
X16379321Y29528794D01*
X16483287Y29684390D01*
X16615610Y29816713D01*
X16771206Y29920679D01*
X16944095Y29992292D01*
X17081748Y30019673D01*
X17127632Y30028800D01*
X17314768Y30028800D01*
X17360652Y30019673D01*
X17360652Y30019673D01*
G37*
G36*
X36410652Y30019673D02*
X36548305Y29992292D01*
X36721194Y29920679D01*
X36876790Y29816713D01*
X37009113Y29684390D01*
X37113079Y29528794D01*
X37155718Y29425854D01*
X37167267Y29404249D01*
X37182812Y29385307D01*
X37201754Y29369762D01*
X37223365Y29358211D01*
X37246814Y29351098D01*
X37271200Y29348696D01*
X37295587Y29351098D01*
X37319036Y29358211D01*
X37340647Y29369763D01*
X37359589Y29385308D01*
X37375134Y29404250D01*
X37386682Y29425854D01*
X37429321Y29528794D01*
X37533287Y29684390D01*
X37665610Y29816713D01*
X37821206Y29920679D01*
X37994095Y29992292D01*
X38131748Y30019673D01*
X38177632Y30028800D01*
X38364768Y30028800D01*
X38410652Y30019673D01*
X38548305Y29992292D01*
X38721194Y29920679D01*
X38876790Y29816713D01*
X39009113Y29684390D01*
X39113079Y29528794D01*
X39130719Y29486208D01*
X39142266Y29464604D01*
X39157812Y29445662D01*
X39176754Y29430116D01*
X39198364Y29418565D01*
X39221814Y29411452D01*
X39246200Y29409050D01*
X39270586Y29411452D01*
X39294035Y29418565D01*
X39315646Y29430116D01*
X39334588Y29445662D01*
X39350134Y29464604D01*
X39361681Y29486208D01*
X39379321Y29528794D01*
X39483287Y29684390D01*
X39615610Y29816713D01*
X39771206Y29920679D01*
X39944095Y29992292D01*
X40081748Y30019673D01*
X40127632Y30028800D01*
X40314768Y30028800D01*
X40360652Y30019673D01*
X40498305Y29992292D01*
X40671194Y29920679D01*
X40826790Y29816713D01*
X40959113Y29684390D01*
X41063079Y29528794D01*
X41134692Y29355905D01*
X41171200Y29172367D01*
X41171200Y28985233D01*
X41134692Y28801695D01*
X41063079Y28628806D01*
X40959113Y28473210D01*
X40826790Y28340887D01*
X40671194Y28236921D01*
X40498305Y28165308D01*
X40376739Y28141127D01*
X40314768Y28128800D01*
X40127632Y28128800D01*
X40065661Y28141127D01*
X39944095Y28165308D01*
X39771206Y28236921D01*
X39615610Y28340887D01*
X39483287Y28473210D01*
X39379321Y28628806D01*
X39361681Y28671392D01*
X39350134Y28692996D01*
X39334588Y28711938D01*
X39315646Y28727484D01*
X39294036Y28739035D01*
X39270586Y28746148D01*
X39246200Y28748550D01*
X39221814Y28746148D01*
X39198365Y28739035D01*
X39176754Y28727484D01*
X39157812Y28711938D01*
X39142266Y28692996D01*
X39130719Y28671392D01*
X39113079Y28628806D01*
X39009113Y28473210D01*
X38876790Y28340887D01*
X38721194Y28236921D01*
X38548305Y28165308D01*
X38426739Y28141127D01*
X38364768Y28128800D01*
X38177632Y28128800D01*
X38115661Y28141127D01*
X37994095Y28165308D01*
X37821206Y28236921D01*
X37665610Y28340887D01*
X37533287Y28473210D01*
X37429321Y28628806D01*
X37386682Y28731746D01*
X37375133Y28753351D01*
X37359588Y28772293D01*
X37340646Y28787838D01*
X37319035Y28799389D01*
X37295586Y28806502D01*
X37271200Y28808904D01*
X37246813Y28806502D01*
X37223364Y28799389D01*
X37201753Y28787837D01*
X37182811Y28772292D01*
X37167266Y28753350D01*
X37155718Y28731746D01*
X37113079Y28628806D01*
X37009113Y28473210D01*
X36876790Y28340887D01*
X36721194Y28236921D01*
X36548305Y28165308D01*
X36426739Y28141127D01*
X36364768Y28128800D01*
X36177632Y28128800D01*
X36115661Y28141127D01*
X35994095Y28165308D01*
X35821206Y28236921D01*
X35665610Y28340887D01*
X35533287Y28473210D01*
X35429321Y28628806D01*
X35386865Y28731304D01*
X35375315Y28752911D01*
X35359770Y28771853D01*
X35340828Y28787398D01*
X35319217Y28798949D01*
X35295768Y28806062D01*
X35271381Y28808464D01*
X35246995Y28806062D01*
X35223546Y28798949D01*
X35201935Y28787397D01*
X35182993Y28771852D01*
X35167448Y28752910D01*
X35155901Y28731308D01*
X35113079Y28627926D01*
X35009113Y28472330D01*
X34876790Y28340007D01*
X34721194Y28236041D01*
X34548305Y28164428D01*
X34431163Y28141127D01*
X34364768Y28127920D01*
X34177632Y28127920D01*
X34111237Y28141127D01*
X33994095Y28164428D01*
X33821206Y28236041D01*
X33665610Y28340007D01*
X33533287Y28472330D01*
X33429321Y28627926D01*
X33411681Y28670512D01*
X33400134Y28692116D01*
X33384588Y28711058D01*
X33365646Y28726604D01*
X33344036Y28738155D01*
X33320586Y28745268D01*
X33296200Y28747670D01*
X33271814Y28745268D01*
X33248365Y28738155D01*
X33226754Y28726604D01*
X33207812Y28711058D01*
X33192266Y28692116D01*
X33180719Y28670512D01*
X33163079Y28627926D01*
X33059113Y28472330D01*
X32926790Y28340007D01*
X32771194Y28236041D01*
X32598305Y28164428D01*
X32481163Y28141127D01*
X32414768Y28127920D01*
X32227632Y28127920D01*
X32161237Y28141127D01*
X32044095Y28164428D01*
X31871206Y28236041D01*
X31715610Y28340007D01*
X31583287Y28472330D01*
X31479321Y28627926D01*
X31407708Y28800815D01*
X31371200Y28984353D01*
X31371200Y29171487D01*
X31407708Y29355025D01*
X31479321Y29527914D01*
X31583287Y29683510D01*
X31715610Y29815833D01*
X31871206Y29919799D01*
X32044095Y29991412D01*
X32181748Y30018793D01*
X32227632Y30027920D01*
X32414768Y30027920D01*
X32460652Y30018793D01*
X32598305Y29991412D01*
X32771194Y29919799D01*
X32926790Y29815833D01*
X33059113Y29683510D01*
X33163079Y29527914D01*
X33180719Y29485328D01*
X33192266Y29463724D01*
X33207812Y29444782D01*
X33226754Y29429236D01*
X33248364Y29417685D01*
X33271814Y29410572D01*
X33296200Y29408170D01*
X33320586Y29410572D01*
X33344035Y29417685D01*
X33365646Y29429236D01*
X33384588Y29444782D01*
X33400134Y29463724D01*
X33411681Y29485328D01*
X33429321Y29527914D01*
X33533287Y29683510D01*
X33665610Y29815833D01*
X33821206Y29919799D01*
X33994095Y29991412D01*
X34131748Y30018793D01*
X34177632Y30027920D01*
X34364768Y30027920D01*
X34410652Y30018793D01*
X34548305Y29991412D01*
X34721194Y29919799D01*
X34876790Y29815833D01*
X35009113Y29683510D01*
X35113079Y29527914D01*
X35155351Y29425860D01*
X35155533Y29425420D01*
X35167085Y29403809D01*
X35182630Y29384867D01*
X35201572Y29369322D01*
X35223183Y29357771D01*
X35246632Y29350658D01*
X35271019Y29348256D01*
X35295405Y29350658D01*
X35318854Y29357771D01*
X35340465Y29369323D01*
X35359407Y29384868D01*
X35374952Y29403810D01*
X35386499Y29425412D01*
X35429321Y29528794D01*
X35533287Y29684390D01*
X35665610Y29816713D01*
X35821206Y29920679D01*
X35994095Y29992292D01*
X36131748Y30019673D01*
X36177632Y30028800D01*
X36364768Y30028800D01*
X36410652Y30019673D01*
X36410652Y30019673D01*
G37*
G36*
X26535830Y31313131D02*
X26535833Y31313130D01*
X26535834Y31313130D01*
X26724335Y31255949D01*
X26724337Y31255948D01*
X26898060Y31163091D01*
X27050328Y31038128D01*
X27175291Y30885860D01*
X27199330Y30840887D01*
X27268149Y30712135D01*
X27293428Y30628800D01*
X27325331Y30523630D01*
X27344638Y30327600D01*
X27325331Y30131570D01*
X27325330Y30131567D01*
X27325330Y30131566D01*
X27269902Y29948843D01*
X27268148Y29943063D01*
X27175291Y29769340D01*
X27050328Y29617072D01*
X26898060Y29492109D01*
X26724337Y29399252D01*
X26724335Y29399251D01*
X26535834Y29342070D01*
X26535833Y29342070D01*
X26535830Y29342069D01*
X26388924Y29327600D01*
X26290676Y29327600D01*
X26143770Y29342069D01*
X26143767Y29342070D01*
X26143766Y29342070D01*
X25955265Y29399251D01*
X25955263Y29399252D01*
X25781540Y29492109D01*
X25629272Y29617072D01*
X25504309Y29769340D01*
X25411452Y29943063D01*
X25409699Y29948843D01*
X25354270Y30131566D01*
X25354270Y30131567D01*
X25354269Y30131570D01*
X25334962Y30327600D01*
X25354269Y30523630D01*
X25386172Y30628800D01*
X25411451Y30712135D01*
X25480270Y30840887D01*
X25504309Y30885860D01*
X25629272Y31038128D01*
X25781540Y31163091D01*
X25955263Y31255948D01*
X25955265Y31255949D01*
X26143766Y31313130D01*
X26143767Y31313130D01*
X26143770Y31313131D01*
X26290676Y31327600D01*
X26388924Y31327600D01*
X26535830Y31313131D01*
X26535830Y31313131D01*
G37*
G36*
X45077830Y31313131D02*
X45077833Y31313130D01*
X45077834Y31313130D01*
X45266335Y31255949D01*
X45266337Y31255948D01*
X45440060Y31163091D01*
X45592328Y31038128D01*
X45717291Y30885860D01*
X45741330Y30840887D01*
X45810149Y30712135D01*
X45835428Y30628800D01*
X45867331Y30523630D01*
X45886638Y30327600D01*
X45867331Y30131570D01*
X45867330Y30131567D01*
X45867330Y30131566D01*
X45811902Y29948843D01*
X45810148Y29943063D01*
X45717291Y29769340D01*
X45592328Y29617072D01*
X45440060Y29492109D01*
X45266337Y29399252D01*
X45266335Y29399251D01*
X45077834Y29342070D01*
X45077833Y29342070D01*
X45077830Y29342069D01*
X44930924Y29327600D01*
X44832676Y29327600D01*
X44685770Y29342069D01*
X44685767Y29342070D01*
X44685766Y29342070D01*
X44497265Y29399251D01*
X44497263Y29399252D01*
X44323540Y29492109D01*
X44171272Y29617072D01*
X44046309Y29769340D01*
X43953452Y29943063D01*
X43951699Y29948843D01*
X43896270Y30131566D01*
X43896270Y30131567D01*
X43896269Y30131570D01*
X43876962Y30327600D01*
X43896269Y30523630D01*
X43928172Y30628800D01*
X43953451Y30712135D01*
X44022270Y30840887D01*
X44046309Y30885860D01*
X44171272Y31038128D01*
X44323540Y31163091D01*
X44497263Y31255948D01*
X44497265Y31255949D01*
X44685766Y31313130D01*
X44685767Y31313130D01*
X44685770Y31313131D01*
X44832676Y31327600D01*
X44930924Y31327600D01*
X45077830Y31313131D01*
X45077830Y31313131D01*
G37*
G36*
X13410652Y32519673D02*
X13548305Y32492292D01*
X13721194Y32420679D01*
X13876790Y32316713D01*
X14007812Y32185691D01*
X14026754Y32170145D01*
X14048365Y32158594D01*
X14071814Y32151481D01*
X14096200Y32149079D01*
X14120586Y32151481D01*
X14144035Y32158594D01*
X14165646Y32170145D01*
X14184588Y32185691D01*
X14315610Y32316713D01*
X14471206Y32420679D01*
X14644095Y32492292D01*
X14781748Y32519673D01*
X14827632Y32528800D01*
X15014768Y32528800D01*
X15060652Y32519673D01*
X15198305Y32492292D01*
X15371194Y32420679D01*
X15526790Y32316713D01*
X15659113Y32184390D01*
X15763079Y32028794D01*
X15805718Y31925854D01*
X15817267Y31904249D01*
X15832812Y31885307D01*
X15851754Y31869762D01*
X15873365Y31858211D01*
X15896814Y31851098D01*
X15921200Y31848696D01*
X15945587Y31851098D01*
X15969036Y31858211D01*
X15990647Y31869763D01*
X16009589Y31885308D01*
X16025134Y31904250D01*
X16036682Y31925854D01*
X16079321Y32028794D01*
X16183287Y32184390D01*
X16315610Y32316713D01*
X16471206Y32420679D01*
X16644095Y32492292D01*
X16781748Y32519673D01*
X16827632Y32528800D01*
X17014768Y32528800D01*
X17060652Y32519673D01*
X17198305Y32492292D01*
X17371194Y32420679D01*
X17526790Y32316713D01*
X17659113Y32184390D01*
X17763079Y32028794D01*
X17805718Y31925854D01*
X17817267Y31904249D01*
X17832812Y31885307D01*
X17851754Y31869762D01*
X17873365Y31858211D01*
X17896814Y31851098D01*
X17921200Y31848696D01*
X17945587Y31851098D01*
X17969036Y31858211D01*
X17990647Y31869763D01*
X18009589Y31885308D01*
X18025134Y31904250D01*
X18036682Y31925854D01*
X18079321Y32028794D01*
X18183287Y32184390D01*
X18315610Y32316713D01*
X18471206Y32420679D01*
X18644095Y32492292D01*
X18781748Y32519673D01*
X18827632Y32528800D01*
X19014768Y32528800D01*
X19060652Y32519673D01*
X19198305Y32492292D01*
X19371194Y32420679D01*
X19526790Y32316713D01*
X19659113Y32184390D01*
X19763079Y32028794D01*
X19834692Y31855905D01*
X19871200Y31672367D01*
X19871200Y31485233D01*
X19834692Y31301695D01*
X19763079Y31128806D01*
X19659113Y30973210D01*
X19526790Y30840887D01*
X19371194Y30736921D01*
X19198305Y30665308D01*
X19060652Y30637927D01*
X19014768Y30628800D01*
X18827632Y30628800D01*
X18781748Y30637927D01*
X18644095Y30665308D01*
X18471206Y30736921D01*
X18315610Y30840887D01*
X18183287Y30973210D01*
X18079321Y31128806D01*
X18036682Y31231746D01*
X18025133Y31253351D01*
X18009588Y31272293D01*
X17990646Y31287838D01*
X17969035Y31299389D01*
X17945586Y31306502D01*
X17921200Y31308904D01*
X17896813Y31306502D01*
X17873364Y31299389D01*
X17851753Y31287837D01*
X17832811Y31272292D01*
X17817266Y31253350D01*
X17805718Y31231746D01*
X17763079Y31128806D01*
X17659113Y30973210D01*
X17526790Y30840887D01*
X17371194Y30736921D01*
X17198305Y30665308D01*
X17060652Y30637927D01*
X17014768Y30628800D01*
X16827632Y30628800D01*
X16781748Y30637927D01*
X16644095Y30665308D01*
X16471206Y30736921D01*
X16315610Y30840887D01*
X16183287Y30973210D01*
X16079321Y31128806D01*
X16036682Y31231746D01*
X16025133Y31253351D01*
X16009588Y31272293D01*
X15990646Y31287838D01*
X15969035Y31299389D01*
X15945586Y31306502D01*
X15921200Y31308904D01*
X15896813Y31306502D01*
X15873364Y31299389D01*
X15851753Y31287837D01*
X15832811Y31272292D01*
X15817266Y31253350D01*
X15805718Y31231746D01*
X15763079Y31128806D01*
X15659113Y30973210D01*
X15526790Y30840887D01*
X15371194Y30736921D01*
X15198305Y30665308D01*
X15060652Y30637927D01*
X15014768Y30628800D01*
X14827632Y30628800D01*
X14781748Y30637927D01*
X14644095Y30665308D01*
X14471206Y30736921D01*
X14315610Y30840887D01*
X14184588Y30971909D01*
X14165646Y30987455D01*
X14144035Y30999006D01*
X14120586Y31006119D01*
X14096200Y31008521D01*
X14071814Y31006119D01*
X14048365Y30999006D01*
X14026754Y30987455D01*
X14007812Y30971909D01*
X13876790Y30840887D01*
X13721194Y30736921D01*
X13548305Y30665308D01*
X13410652Y30637927D01*
X13364768Y30628800D01*
X13177632Y30628800D01*
X13131748Y30637927D01*
X12994095Y30665308D01*
X12821206Y30736921D01*
X12665610Y30840887D01*
X12533287Y30973210D01*
X12429321Y31128806D01*
X12357708Y31301695D01*
X12321200Y31485233D01*
X12321200Y31672367D01*
X12357708Y31855905D01*
X12429321Y32028794D01*
X12533287Y32184390D01*
X12665610Y32316713D01*
X12821206Y32420679D01*
X12994095Y32492292D01*
X13131748Y32519673D01*
X13177632Y32528800D01*
X13364768Y32528800D01*
X13410652Y32519673D01*
X13410652Y32519673D01*
G37*
G36*
X21310652Y32519673D02*
X21448305Y32492292D01*
X21621194Y32420679D01*
X21776790Y32316713D01*
X21909113Y32184390D01*
X22013079Y32028794D01*
X22084692Y31855905D01*
X22121200Y31672367D01*
X22121200Y31485233D01*
X22084692Y31301695D01*
X22013079Y31128806D01*
X21909113Y30973210D01*
X21776790Y30840887D01*
X21621194Y30736921D01*
X21448305Y30665308D01*
X21310652Y30637927D01*
X21264768Y30628800D01*
X21077632Y30628800D01*
X21031748Y30637927D01*
X20894095Y30665308D01*
X20721206Y30736921D01*
X20565610Y30840887D01*
X20433287Y30973210D01*
X20329321Y31128806D01*
X20257708Y31301695D01*
X20221200Y31485233D01*
X20221200Y31672367D01*
X20257708Y31855905D01*
X20329321Y32028794D01*
X20433287Y32184390D01*
X20565610Y32316713D01*
X20721206Y32420679D01*
X20894095Y32492292D01*
X21031748Y32519673D01*
X21077632Y32528800D01*
X21264768Y32528800D01*
X21310652Y32519673D01*
X21310652Y32519673D01*
G37*
G36*
X32460652Y32519673D02*
X32598305Y32492292D01*
X32771194Y32420679D01*
X32926790Y32316713D01*
X33057812Y32185691D01*
X33076754Y32170145D01*
X33098365Y32158594D01*
X33121814Y32151481D01*
X33146200Y32149079D01*
X33170586Y32151481D01*
X33194035Y32158594D01*
X33215646Y32170145D01*
X33234588Y32185691D01*
X33365610Y32316713D01*
X33521206Y32420679D01*
X33694095Y32492292D01*
X33831748Y32519673D01*
X33877632Y32528800D01*
X34064768Y32528800D01*
X34110652Y32519673D01*
X34248305Y32492292D01*
X34421194Y32420679D01*
X34576790Y32316713D01*
X34709113Y32184390D01*
X34813079Y32028794D01*
X34855718Y31925854D01*
X34867267Y31904249D01*
X34882812Y31885307D01*
X34901754Y31869762D01*
X34923365Y31858211D01*
X34946814Y31851098D01*
X34971200Y31848696D01*
X34995587Y31851098D01*
X35019036Y31858211D01*
X35040647Y31869763D01*
X35059589Y31885308D01*
X35075134Y31904250D01*
X35086682Y31925854D01*
X35129321Y32028794D01*
X35233287Y32184390D01*
X35365610Y32316713D01*
X35521206Y32420679D01*
X35694095Y32492292D01*
X35831748Y32519673D01*
X35877632Y32528800D01*
X36064768Y32528800D01*
X36110652Y32519673D01*
X36248305Y32492292D01*
X36421194Y32420679D01*
X36576790Y32316713D01*
X36709113Y32184390D01*
X36813079Y32028794D01*
X36855718Y31925854D01*
X36867267Y31904249D01*
X36882812Y31885307D01*
X36901754Y31869762D01*
X36923365Y31858211D01*
X36946814Y31851098D01*
X36971200Y31848696D01*
X36995587Y31851098D01*
X37019036Y31858211D01*
X37040647Y31869763D01*
X37059589Y31885308D01*
X37075134Y31904250D01*
X37086682Y31925854D01*
X37129321Y32028794D01*
X37233287Y32184390D01*
X37365610Y32316713D01*
X37521206Y32420679D01*
X37694095Y32492292D01*
X37831748Y32519673D01*
X37877632Y32528800D01*
X38064768Y32528800D01*
X38110652Y32519673D01*
X38248305Y32492292D01*
X38421194Y32420679D01*
X38576790Y32316713D01*
X38709113Y32184390D01*
X38813079Y32028794D01*
X38884692Y31855905D01*
X38921200Y31672367D01*
X38921200Y31485233D01*
X38884692Y31301695D01*
X38813079Y31128806D01*
X38709113Y30973210D01*
X38576790Y30840887D01*
X38421194Y30736921D01*
X38248305Y30665308D01*
X38110652Y30637927D01*
X38064768Y30628800D01*
X37877632Y30628800D01*
X37831748Y30637927D01*
X37694095Y30665308D01*
X37521206Y30736921D01*
X37365610Y30840887D01*
X37233287Y30973210D01*
X37129321Y31128806D01*
X37086682Y31231746D01*
X37075133Y31253351D01*
X37059588Y31272293D01*
X37040646Y31287838D01*
X37019035Y31299389D01*
X36995586Y31306502D01*
X36971200Y31308904D01*
X36946813Y31306502D01*
X36923364Y31299389D01*
X36901753Y31287837D01*
X36882811Y31272292D01*
X36867266Y31253350D01*
X36855718Y31231746D01*
X36813079Y31128806D01*
X36709113Y30973210D01*
X36576790Y30840887D01*
X36421194Y30736921D01*
X36248305Y30665308D01*
X36110652Y30637927D01*
X36064768Y30628800D01*
X35877632Y30628800D01*
X35831748Y30637927D01*
X35694095Y30665308D01*
X35521206Y30736921D01*
X35365610Y30840887D01*
X35233287Y30973210D01*
X35129321Y31128806D01*
X35086682Y31231746D01*
X35075133Y31253351D01*
X35059588Y31272293D01*
X35040646Y31287838D01*
X35019035Y31299389D01*
X34995586Y31306502D01*
X34971200Y31308904D01*
X34946813Y31306502D01*
X34923364Y31299389D01*
X34901753Y31287837D01*
X34882811Y31272292D01*
X34867266Y31253350D01*
X34855718Y31231746D01*
X34813079Y31128806D01*
X34709113Y30973210D01*
X34576790Y30840887D01*
X34421194Y30736921D01*
X34248305Y30665308D01*
X34110652Y30637927D01*
X34064768Y30628800D01*
X33877632Y30628800D01*
X33831748Y30637927D01*
X33694095Y30665308D01*
X33521206Y30736921D01*
X33365610Y30840887D01*
X33234588Y30971909D01*
X33215646Y30987455D01*
X33194035Y30999006D01*
X33170586Y31006119D01*
X33146200Y31008521D01*
X33121814Y31006119D01*
X33098365Y30999006D01*
X33076754Y30987455D01*
X33057812Y30971909D01*
X32926790Y30840887D01*
X32771194Y30736921D01*
X32598305Y30665308D01*
X32460652Y30637927D01*
X32414768Y30628800D01*
X32227632Y30628800D01*
X32181748Y30637927D01*
X32044095Y30665308D01*
X31871206Y30736921D01*
X31715610Y30840887D01*
X31583287Y30973210D01*
X31479321Y31128806D01*
X31407708Y31301695D01*
X31371200Y31485233D01*
X31371200Y31672367D01*
X31407708Y31855905D01*
X31479321Y32028794D01*
X31583287Y32184390D01*
X31715610Y32316713D01*
X31871206Y32420679D01*
X32044095Y32492292D01*
X32181748Y32519673D01*
X32227632Y32528800D01*
X32414768Y32528800D01*
X32460652Y32519673D01*
X32460652Y32519673D01*
G37*
G36*
X40360652Y32519673D02*
X40498305Y32492292D01*
X40671194Y32420679D01*
X40826790Y32316713D01*
X40959113Y32184390D01*
X41063079Y32028794D01*
X41134692Y31855905D01*
X41171200Y31672367D01*
X41171200Y31485233D01*
X41134692Y31301695D01*
X41063079Y31128806D01*
X40959113Y30973210D01*
X40826790Y30840887D01*
X40671194Y30736921D01*
X40498305Y30665308D01*
X40360652Y30637927D01*
X40314768Y30628800D01*
X40127632Y30628800D01*
X40081748Y30637927D01*
X39944095Y30665308D01*
X39771206Y30736921D01*
X39615610Y30840887D01*
X39483287Y30973210D01*
X39379321Y31128806D01*
X39307708Y31301695D01*
X39271200Y31485233D01*
X39271200Y31672367D01*
X39307708Y31855905D01*
X39379321Y32028794D01*
X39483287Y32184390D01*
X39615610Y32316713D01*
X39771206Y32420679D01*
X39944095Y32492292D01*
X40081748Y32519673D01*
X40127632Y32528800D01*
X40314768Y32528800D01*
X40360652Y32519673D01*
X40360652Y32519673D01*
G37*
G36*
X58373405Y37547026D02*
X58955767Y37305804D01*
X59479884Y36955600D01*
X59925600Y36509884D01*
X60275804Y35985767D01*
X60517026Y35403405D01*
X60640000Y34785174D01*
X60640000Y34154826D01*
X60517026Y33536595D01*
X60275804Y32954233D01*
X59925600Y32430116D01*
X59479884Y31984400D01*
X58955767Y31634196D01*
X58373405Y31392974D01*
X57755174Y31270000D01*
X57124826Y31270000D01*
X56506595Y31392974D01*
X55924233Y31634196D01*
X55400116Y31984400D01*
X54954400Y32430116D01*
X54604196Y32954233D01*
X54362974Y33536595D01*
X54240000Y34154826D01*
X54240000Y34785174D01*
X54362974Y35403405D01*
X54604196Y35985767D01*
X54954400Y36509884D01*
X55400116Y36955600D01*
X55924233Y37305804D01*
X56506595Y37547026D01*
X57124826Y37670000D01*
X57755174Y37670000D01*
X58373405Y37547026D01*
X58373405Y37547026D01*
G37*
G36*
X5373405Y37547026D02*
X5955767Y37305804D01*
X6479884Y36955600D01*
X6925600Y36509884D01*
X7275804Y35985767D01*
X7517026Y35403405D01*
X7640000Y34785174D01*
X7640000Y34154826D01*
X7517026Y33536595D01*
X7275804Y32954233D01*
X6925600Y32430116D01*
X6479884Y31984400D01*
X5955767Y31634196D01*
X5373405Y31392974D01*
X4755174Y31270000D01*
X4124826Y31270000D01*
X3506595Y31392974D01*
X2924233Y31634196D01*
X2400116Y31984400D01*
X1954400Y32430116D01*
X1604196Y32954233D01*
X1362974Y33536595D01*
X1240000Y34154826D01*
X1240000Y34785174D01*
X1362974Y35403405D01*
X1604196Y35985767D01*
X1954400Y36509884D01*
X2400116Y36955600D01*
X2924233Y37305804D01*
X3506595Y37547026D01*
X4124826Y37670000D01*
X4755174Y37670000D01*
X5373405Y37547026D01*
X5373405Y37547026D01*
G37*
G36*
X52505626Y35090100D02*
X52640865Y35063199D01*
X52895649Y34957664D01*
X53121897Y34806489D01*
X53124951Y34804449D01*
X53319949Y34609451D01*
X53319951Y34609448D01*
X53473164Y34380149D01*
X53578699Y34125365D01*
X53632500Y33854888D01*
X53632500Y33579112D01*
X53578699Y33308635D01*
X53473164Y33053851D01*
X53321989Y32827603D01*
X53319949Y32824549D01*
X53124951Y32629551D01*
X53124948Y32629549D01*
X52895649Y32476336D01*
X52640865Y32370801D01*
X52505627Y32343901D01*
X52370389Y32317000D01*
X52094611Y32317000D01*
X51959373Y32343901D01*
X51824135Y32370801D01*
X51569351Y32476336D01*
X51340052Y32629549D01*
X51340049Y32629551D01*
X51145051Y32824549D01*
X51143011Y32827603D01*
X50991836Y33053851D01*
X50886301Y33308635D01*
X50832500Y33579112D01*
X50832500Y33854888D01*
X50886301Y34125365D01*
X50991836Y34380149D01*
X51145049Y34609448D01*
X51145051Y34609451D01*
X51340049Y34804449D01*
X51343103Y34806489D01*
X51569351Y34957664D01*
X51824135Y35063199D01*
X51959374Y35090100D01*
X52094611Y35117000D01*
X52370389Y35117000D01*
X52505626Y35090100D01*
X52505626Y35090100D01*
G37*
G36*
X50132500Y32317000D02*
X47332500Y32317000D01*
X47332500Y35117000D01*
X50132500Y35117000D01*
X50132500Y32317000D01*
X50132500Y32317000D01*
G37*
M02*
