G04 #@! TF.GenerationSoftware,KiCad,Pcbnew,(5.0.2)-1*
G04 #@! TF.CreationDate,2018-12-29T22:18:37+01:00*
G04 #@! TF.ProjectId,distributor_v2_only,64697374-7269-4627-9574-6f725f76325f,rev?*
G04 #@! TF.SameCoordinates,PX5e78920PY8670810*
G04 #@! TF.FileFunction,Legend,Top*
G04 #@! TF.FilePolarity,Positive*
%FSLAX46Y46*%
G04 Gerber Fmt 4.6, Leading zero omitted, Abs format (unit mm)*
G04 Created by KiCad (PCBNEW (5.0.2)-1) date 29.12.2018 22:18:37*
%MOMM*%
%LPD*%
G01*
G04 APERTURE LIST*
%ADD10C,0.200000*%
%ADD11C,0.381000*%
%ADD12C,0.150000*%
%ADD13C,0.304800*%
%ADD14C,0.300000*%
%ADD15C,0.250000*%
G04 APERTURE END LIST*
D10*
X50977933Y22078896D02*
X51244600Y21278896D01*
X51511266Y22078896D01*
X52235076Y21355086D02*
X52196980Y21316991D01*
X52082695Y21278896D01*
X52006504Y21278896D01*
X51892219Y21316991D01*
X51816028Y21393181D01*
X51777933Y21469372D01*
X51739838Y21621753D01*
X51739838Y21736039D01*
X51777933Y21888420D01*
X51816028Y21964610D01*
X51892219Y22040800D01*
X52006504Y22078896D01*
X52082695Y22078896D01*
X52196980Y22040800D01*
X52235076Y22002705D01*
X53035076Y21355086D02*
X52996980Y21316991D01*
X52882695Y21278896D01*
X52806504Y21278896D01*
X52692219Y21316991D01*
X52616028Y21393181D01*
X52577933Y21469372D01*
X52539838Y21621753D01*
X52539838Y21736039D01*
X52577933Y21888420D01*
X52616028Y21964610D01*
X52692219Y22040800D01*
X52806504Y22078896D01*
X52882695Y22078896D01*
X52996980Y22040800D01*
X53035076Y22002705D01*
X51663676Y19653200D02*
X51587485Y19691296D01*
X51473200Y19691296D01*
X51358914Y19653200D01*
X51282723Y19577010D01*
X51244628Y19500820D01*
X51206533Y19348439D01*
X51206533Y19234153D01*
X51244628Y19081772D01*
X51282723Y19005581D01*
X51358914Y18929391D01*
X51473200Y18891296D01*
X51549390Y18891296D01*
X51663676Y18929391D01*
X51701771Y18967486D01*
X51701771Y19234153D01*
X51549390Y19234153D01*
X52044628Y18891296D02*
X52044628Y19691296D01*
X52501771Y18891296D01*
X52501771Y19691296D01*
X52882723Y18891296D02*
X52882723Y19691296D01*
X53073200Y19691296D01*
X53187485Y19653200D01*
X53263676Y19577010D01*
X53301771Y19500820D01*
X53339866Y19348439D01*
X53339866Y19234153D01*
X53301771Y19081772D01*
X53263676Y19005581D01*
X53187485Y18929391D01*
X53073200Y18891296D01*
X52882723Y18891296D01*
X52737619Y16758096D02*
X52356666Y16758096D01*
X52318571Y16377143D01*
X52356666Y16415239D01*
X52432857Y16453334D01*
X52623333Y16453334D01*
X52699523Y16415239D01*
X52737619Y16377143D01*
X52775714Y16300953D01*
X52775714Y16110477D01*
X52737619Y16034286D01*
X52699523Y15996191D01*
X52623333Y15958096D01*
X52432857Y15958096D01*
X52356666Y15996191D01*
X52318571Y16034286D01*
X53004285Y16758096D02*
X53270952Y15958096D01*
X53537619Y16758096D01*
X51155704Y12795286D02*
X51117609Y12757191D01*
X51003323Y12719096D01*
X50927133Y12719096D01*
X50812847Y12757191D01*
X50736657Y12833381D01*
X50698561Y12909572D01*
X50660466Y13061953D01*
X50660466Y13176239D01*
X50698561Y13328620D01*
X50736657Y13404810D01*
X50812847Y13481000D01*
X50927133Y13519096D01*
X51003323Y13519096D01*
X51117609Y13481000D01*
X51155704Y13442905D01*
X51460466Y12947667D02*
X51841419Y12947667D01*
X51384276Y12719096D02*
X51650942Y13519096D01*
X51917609Y12719096D01*
X52184276Y12719096D02*
X52184276Y13519096D01*
X52641419Y12719096D01*
X52641419Y13519096D01*
X53403323Y12719096D02*
X53022371Y12719096D01*
X53022371Y13519096D01*
X51111266Y9290086D02*
X51073171Y9251991D01*
X50958885Y9213896D01*
X50882695Y9213896D01*
X50768409Y9251991D01*
X50692219Y9328181D01*
X50654123Y9404372D01*
X50616028Y9556753D01*
X50616028Y9671039D01*
X50654123Y9823420D01*
X50692219Y9899610D01*
X50768409Y9975800D01*
X50882695Y10013896D01*
X50958885Y10013896D01*
X51073171Y9975800D01*
X51111266Y9937705D01*
X51416028Y9442467D02*
X51796980Y9442467D01*
X51339838Y9213896D02*
X51606504Y10013896D01*
X51873171Y9213896D01*
X52139838Y9213896D02*
X52139838Y10013896D01*
X52596980Y9213896D01*
X52596980Y10013896D01*
X52977933Y9213896D02*
X52977933Y10013896D01*
X52977933Y9632943D02*
X53435076Y9632943D01*
X53435076Y9213896D02*
X53435076Y10013896D01*
D11*
G04 #@! TO.C,J1*
X12458000Y15092000D02*
X12458000Y868000D01*
X12458000Y868000D02*
X14744000Y868000D01*
X29222000Y15092000D02*
X29222000Y868000D01*
X29222000Y868000D02*
X26936000Y868000D01*
X12585000Y15065000D02*
X29095000Y15065000D01*
X14744000Y841000D02*
X26936000Y841000D01*
D12*
G04 #@! TO.C,R08*
X59726000Y4470000D02*
G75*
G03X59726000Y4470000I-2286000J0D01*
G01*
G04 #@! TO.C,R06*
X59726000Y34470000D02*
G75*
G03X59726000Y34470000I-2286000J0D01*
G01*
G04 #@! TO.C,R05*
X6726000Y34470000D02*
G75*
G03X6726000Y34470000I-2286000J0D01*
G01*
G04 #@! TO.C,R07*
X6726000Y4470000D02*
G75*
G03X6726000Y4470000I-2286000J0D01*
G01*
D11*
G04 #@! TO.C,P15*
X50482500Y37817000D02*
X50482500Y38217000D01*
X53982500Y36717000D02*
X46982500Y36717000D01*
X53982500Y37817000D02*
X46982500Y37817000D01*
X53982500Y30617000D02*
X53982500Y38217000D01*
X46982500Y38217000D02*
X46982500Y30617000D01*
X46982500Y30617000D02*
X53982500Y30617000D01*
G04 #@! TO.C,P14*
X60931000Y21937000D02*
X61331000Y21937000D01*
X60931000Y18437000D02*
X61331000Y18437000D01*
X60931000Y11337000D02*
X61331000Y11337000D01*
X60931000Y14837000D02*
X61331000Y14837000D01*
X59831000Y7837000D02*
X59831000Y25437000D01*
X60931000Y7837000D02*
X60931000Y25437000D01*
X53731000Y7837000D02*
X61331000Y7837000D01*
X61331000Y25437000D02*
X53731000Y25437000D01*
X53731000Y25437000D02*
X53731000Y7837000D01*
G04 #@! TO.C,J2*
X33558000Y15092000D02*
X33558000Y868000D01*
X33558000Y868000D02*
X35844000Y868000D01*
X50322000Y15092000D02*
X50322000Y868000D01*
X50322000Y868000D02*
X48036000Y868000D01*
X33685000Y15065000D02*
X50195000Y15065000D01*
X35844000Y841000D02*
X48036000Y841000D01*
D12*
G04 #@! TO.C,P24*
X50596800Y27457400D02*
X50596800Y22377400D01*
X50596800Y22377400D02*
X53136800Y22377400D01*
X53136800Y22377400D02*
X53136800Y27457400D01*
X53416800Y30277400D02*
X53416800Y28727400D01*
X53136800Y27457400D02*
X50596800Y27457400D01*
X50316800Y28727400D02*
X50316800Y30277400D01*
X50316800Y30277400D02*
X53416800Y30277400D01*
D11*
G04 #@! TO.C,P16*
X-76200Y23545800D02*
X-584200Y23545800D01*
X-76200Y15671800D02*
X-584200Y15671800D01*
X-76200Y23545800D02*
X-76200Y15671800D01*
X-330200Y23545800D02*
X-330200Y15671800D01*
X-584200Y15671800D02*
X-584200Y23545800D01*
X-711200Y12496800D02*
X12242800Y12496800D01*
X12242800Y12496800D02*
X12242800Y26720800D01*
X12242800Y26720800D02*
X-711200Y26720800D01*
X-711200Y26720800D02*
X-711200Y12496800D01*
G04 #@! TO.C,P17*
X21158200Y39420800D02*
X21158200Y39928800D01*
X13284200Y39420800D02*
X13284200Y39928800D01*
X21158200Y39420800D02*
X13284200Y39420800D01*
X21158200Y39674800D02*
X13284200Y39674800D01*
X13284200Y39928800D02*
X21158200Y39928800D01*
X10109200Y40055800D02*
X10109200Y27101800D01*
X10109200Y27101800D02*
X24333200Y27101800D01*
X24333200Y27101800D02*
X24333200Y40055800D01*
X24333200Y40055800D02*
X10109200Y40055800D01*
G04 #@! TO.C,P18*
X40208200Y39420800D02*
X40208200Y39928800D01*
X32334200Y39420800D02*
X32334200Y39928800D01*
X40208200Y39420800D02*
X32334200Y39420800D01*
X40208200Y39674800D02*
X32334200Y39674800D01*
X32334200Y39928800D02*
X40208200Y39928800D01*
X29159200Y40055800D02*
X29159200Y27101800D01*
X29159200Y27101800D02*
X43383200Y27101800D01*
X43383200Y27101800D02*
X43383200Y40055800D01*
X43383200Y40055800D02*
X29159200Y40055800D01*
D12*
G04 #@! TO.C,P27*
X49610000Y18240000D02*
X52150000Y18240000D01*
X46790000Y18520000D02*
X48340000Y18520000D01*
X49610000Y18240000D02*
X49610000Y15700000D01*
X48340000Y15420000D02*
X46790000Y15420000D01*
X46790000Y15420000D02*
X46790000Y18520000D01*
X49610000Y15700000D02*
X52150000Y15700000D01*
X52150000Y15700000D02*
X52150000Y18240000D01*
G04 #@! TO.C,P28*
X47070000Y21740000D02*
X47070000Y24280000D01*
X46790000Y18920000D02*
X46790000Y20470000D01*
X47070000Y21740000D02*
X49610000Y21740000D01*
X49890000Y20470000D02*
X49890000Y18920000D01*
X49890000Y18920000D02*
X46790000Y18920000D01*
X49610000Y21740000D02*
X49610000Y24280000D01*
X49610000Y24280000D02*
X47070000Y24280000D01*
G04 #@! TO.C,P29*
X57170000Y28000000D02*
X54630000Y28000000D01*
X59990000Y27720000D02*
X58440000Y27720000D01*
X57170000Y28000000D02*
X57170000Y30540000D01*
X58440000Y30820000D02*
X59990000Y30820000D01*
X59990000Y30820000D02*
X59990000Y27720000D01*
X57170000Y30540000D02*
X54630000Y30540000D01*
X54630000Y30540000D02*
X54630000Y28000000D01*
D11*
G04 #@! TO.C,P20*
X16283940Y20881340D02*
X15783560Y20881340D01*
X16283940Y21079460D02*
X16283940Y20881340D01*
X15783560Y21079460D02*
X16283940Y21079460D01*
X15285720Y25981660D02*
X15285720Y15979140D01*
X15783560Y16479520D02*
X15783560Y25481280D01*
X19784060Y25981660D02*
X19784060Y15979140D01*
X16283940Y22882860D02*
X15783560Y22882860D01*
X16283940Y23080980D02*
X16283940Y22882860D01*
X15783560Y23080980D02*
X16283940Y23080980D01*
X15783560Y19080480D02*
X16283940Y19080480D01*
X16283940Y19080480D02*
X16283940Y18882360D01*
X16283940Y18882360D02*
X15783560Y18882360D01*
X18585180Y15979140D02*
X18585180Y16479520D01*
X17284700Y16479520D02*
X17284700Y15979140D01*
X17284700Y25481280D02*
X17284700Y25981660D01*
X18585180Y25481280D02*
X18585180Y25981660D01*
X19784060Y23482300D02*
X19283680Y23482300D01*
X19283680Y23482300D02*
X19283680Y25481280D01*
X19283680Y25481280D02*
X15783560Y25481280D01*
X15783560Y16479520D02*
X19283680Y16479520D01*
X19283680Y16479520D02*
X19283680Y18478500D01*
X19283680Y18478500D02*
X19784060Y18478500D01*
X19784060Y25981660D02*
X15285720Y25981660D01*
X19784060Y15979140D02*
X15285720Y15979140D01*
X19784060Y24282400D02*
X19984720Y24282400D01*
X19984720Y24282400D02*
X19984720Y24582120D01*
X19984720Y24582120D02*
X19784060Y24582120D01*
G04 #@! TO.C,J1*
D13*
X20370800Y5025572D02*
X20370800Y3937000D01*
X20298228Y3719286D01*
X20153085Y3574143D01*
X19935371Y3501572D01*
X19790228Y3501572D01*
X21894800Y3501572D02*
X21023942Y3501572D01*
X21459371Y3501572D02*
X21459371Y5025572D01*
X21314228Y4807858D01*
X21169085Y4662715D01*
X21023942Y4590143D01*
X19140714Y1469572D02*
X18632714Y2195286D01*
X18269857Y1469572D02*
X18269857Y2993572D01*
X18850428Y2993572D01*
X18995571Y2921000D01*
X19068142Y2848429D01*
X19140714Y2703286D01*
X19140714Y2485572D01*
X19068142Y2340429D01*
X18995571Y2267858D01*
X18850428Y2195286D01*
X18269857Y2195286D01*
X20229285Y2993572D02*
X20229285Y1905000D01*
X20156714Y1687286D01*
X20011571Y1542143D01*
X19793857Y1469572D01*
X19648714Y1469572D01*
X21608142Y2485572D02*
X21608142Y1469572D01*
X21245285Y3066143D02*
X20882428Y1977572D01*
X21825857Y1977572D01*
X23132142Y2993572D02*
X22406428Y2993572D01*
X22333857Y2267858D01*
X22406428Y2340429D01*
X22551571Y2413000D01*
X22914428Y2413000D01*
X23059571Y2340429D01*
X23132142Y2267858D01*
X23204714Y2122715D01*
X23204714Y1759858D01*
X23132142Y1614715D01*
X23059571Y1542143D01*
X22914428Y1469572D01*
X22551571Y1469572D01*
X22406428Y1542143D01*
X22333857Y1614715D01*
G04 #@! TO.C,P15*
D14*
X49032857Y35227143D02*
X49032857Y36427143D01*
X49490000Y36427143D01*
X49604285Y36370000D01*
X49661428Y36312858D01*
X49718571Y36198572D01*
X49718571Y36027143D01*
X49661428Y35912858D01*
X49604285Y35855715D01*
X49490000Y35798572D01*
X49032857Y35798572D01*
X50861428Y35227143D02*
X50175714Y35227143D01*
X50518571Y35227143D02*
X50518571Y36427143D01*
X50404285Y36255715D01*
X50290000Y36141429D01*
X50175714Y36084286D01*
X51947142Y36427143D02*
X51375714Y36427143D01*
X51318571Y35855715D01*
X51375714Y35912858D01*
X51490000Y35970000D01*
X51775714Y35970000D01*
X51890000Y35912858D01*
X51947142Y35855715D01*
X52004285Y35741429D01*
X52004285Y35455715D01*
X51947142Y35341429D01*
X51890000Y35284286D01*
X51775714Y35227143D01*
X51490000Y35227143D01*
X51375714Y35284286D01*
X51318571Y35341429D01*
D15*
X46592380Y32510477D02*
X45592380Y32510477D01*
X45592380Y32891429D01*
X45640000Y32986667D01*
X45687619Y33034286D01*
X45782857Y33081905D01*
X45925714Y33081905D01*
X46020952Y33034286D01*
X46068571Y32986667D01*
X46116190Y32891429D01*
X46116190Y32510477D01*
X45592380Y33700953D02*
X45592380Y33891429D01*
X45640000Y33986667D01*
X45735238Y34081905D01*
X45925714Y34129524D01*
X46259047Y34129524D01*
X46449523Y34081905D01*
X46544761Y33986667D01*
X46592380Y33891429D01*
X46592380Y33700953D01*
X46544761Y33605715D01*
X46449523Y33510477D01*
X46259047Y33462858D01*
X45925714Y33462858D01*
X45735238Y33510477D01*
X45640000Y33605715D01*
X45592380Y33700953D01*
X45592380Y34462858D02*
X46592380Y34700953D01*
X45878095Y34891429D01*
X46592380Y35081905D01*
X45592380Y35320000D01*
X46068571Y35700953D02*
X46068571Y36034286D01*
X46592380Y36177143D02*
X46592380Y35700953D01*
X45592380Y35700953D01*
X45592380Y36177143D01*
X46592380Y37177143D02*
X46116190Y36843810D01*
X46592380Y36605715D02*
X45592380Y36605715D01*
X45592380Y36986667D01*
X45640000Y37081905D01*
X45687619Y37129524D01*
X45782857Y37177143D01*
X45925714Y37177143D01*
X46020952Y37129524D01*
X46068571Y37081905D01*
X46116190Y36986667D01*
X46116190Y36605715D01*
G04 #@! TO.C,P14*
D14*
X53434371Y2979172D02*
X51934371Y2979172D01*
X51934371Y3550600D01*
X52005800Y3693458D01*
X52077228Y3764886D01*
X52220085Y3836315D01*
X52434371Y3836315D01*
X52577228Y3764886D01*
X52648657Y3693458D01*
X52720085Y3550600D01*
X52720085Y2979172D01*
X53434371Y5264886D02*
X53434371Y4407743D01*
X53434371Y4836315D02*
X51934371Y4836315D01*
X52148657Y4693458D01*
X52291514Y4550600D01*
X52362942Y4407743D01*
X52434371Y6550600D02*
X53434371Y6550600D01*
X51862942Y6193458D02*
X52934371Y5836315D01*
X52934371Y6764886D01*
D15*
X54209047Y26127143D02*
X54156666Y26074762D01*
X53999523Y26022381D01*
X53894761Y26022381D01*
X53737619Y26074762D01*
X53632857Y26179524D01*
X53580476Y26284286D01*
X53528095Y26493810D01*
X53528095Y26650953D01*
X53580476Y26860477D01*
X53632857Y26965239D01*
X53737619Y27070000D01*
X53894761Y27122381D01*
X53999523Y27122381D01*
X54156666Y27070000D01*
X54209047Y27017620D01*
X54628095Y26336667D02*
X55151904Y26336667D01*
X54523333Y26022381D02*
X54890000Y27122381D01*
X55256666Y26022381D01*
X55623333Y26022381D02*
X55623333Y27122381D01*
X56251904Y26022381D01*
X56251904Y27122381D01*
X56775714Y26441429D02*
X57613809Y26441429D01*
X58504285Y26598572D02*
X58661428Y26546191D01*
X58713809Y26493810D01*
X58766190Y26389048D01*
X58766190Y26231905D01*
X58713809Y26127143D01*
X58661428Y26074762D01*
X58556666Y26022381D01*
X58137619Y26022381D01*
X58137619Y27122381D01*
X58504285Y27122381D01*
X58609047Y27070000D01*
X58661428Y27017620D01*
X58713809Y26912858D01*
X58713809Y26808096D01*
X58661428Y26703334D01*
X58609047Y26650953D01*
X58504285Y26598572D01*
X58137619Y26598572D01*
X59709047Y26755715D02*
X59709047Y26022381D01*
X59237619Y26755715D02*
X59237619Y26179524D01*
X59290000Y26074762D01*
X59394761Y26022381D01*
X59551904Y26022381D01*
X59656666Y26074762D01*
X59709047Y26127143D01*
X60180476Y26074762D02*
X60285238Y26022381D01*
X60494761Y26022381D01*
X60599523Y26074762D01*
X60651904Y26179524D01*
X60651904Y26231905D01*
X60599523Y26336667D01*
X60494761Y26389048D01*
X60337619Y26389048D01*
X60232857Y26441429D01*
X60180476Y26546191D01*
X60180476Y26598572D01*
X60232857Y26703334D01*
X60337619Y26755715D01*
X60494761Y26755715D01*
X60599523Y26703334D01*
G04 #@! TO.C,J2*
D13*
X42011600Y5279572D02*
X42011600Y4191000D01*
X41939028Y3973286D01*
X41793885Y3828143D01*
X41576171Y3755572D01*
X41431028Y3755572D01*
X42664742Y5134429D02*
X42737314Y5207000D01*
X42882457Y5279572D01*
X43245314Y5279572D01*
X43390457Y5207000D01*
X43463028Y5134429D01*
X43535600Y4989286D01*
X43535600Y4844143D01*
X43463028Y4626429D01*
X42592171Y3755572D01*
X43535600Y3755572D01*
X40730714Y1596572D02*
X40222714Y2322286D01*
X39859857Y1596572D02*
X39859857Y3120572D01*
X40440428Y3120572D01*
X40585571Y3048000D01*
X40658142Y2975429D01*
X40730714Y2830286D01*
X40730714Y2612572D01*
X40658142Y2467429D01*
X40585571Y2394858D01*
X40440428Y2322286D01*
X39859857Y2322286D01*
X41819285Y3120572D02*
X41819285Y2032000D01*
X41746714Y1814286D01*
X41601571Y1669143D01*
X41383857Y1596572D01*
X41238714Y1596572D01*
X43198142Y2612572D02*
X43198142Y1596572D01*
X42835285Y3193143D02*
X42472428Y2104572D01*
X43415857Y2104572D01*
X44722142Y3120572D02*
X43996428Y3120572D01*
X43923857Y2394858D01*
X43996428Y2467429D01*
X44141571Y2540000D01*
X44504428Y2540000D01*
X44649571Y2467429D01*
X44722142Y2394858D01*
X44794714Y2249715D01*
X44794714Y1886858D01*
X44722142Y1741715D01*
X44649571Y1669143D01*
X44504428Y1596572D01*
X44141571Y1596572D01*
X43996428Y1669143D01*
X43923857Y1741715D01*
G04 #@! TO.C,P23*
D12*
X41879780Y20629715D02*
X40879780Y20629715D01*
X40879780Y21010667D01*
X40927400Y21105905D01*
X40975019Y21153524D01*
X41070257Y21201143D01*
X41213114Y21201143D01*
X41308352Y21153524D01*
X41355971Y21105905D01*
X41403590Y21010667D01*
X41403590Y20629715D01*
X40975019Y21582096D02*
X40927400Y21629715D01*
X40879780Y21724953D01*
X40879780Y21963048D01*
X40927400Y22058286D01*
X40975019Y22105905D01*
X41070257Y22153524D01*
X41165495Y22153524D01*
X41308352Y22105905D01*
X41879780Y21534477D01*
X41879780Y22153524D01*
X40879780Y22486858D02*
X40879780Y23105905D01*
X41260733Y22772572D01*
X41260733Y22915429D01*
X41308352Y23010667D01*
X41355971Y23058286D01*
X41451209Y23105905D01*
X41689304Y23105905D01*
X41784542Y23058286D01*
X41832161Y23010667D01*
X41879780Y22915429D01*
X41879780Y22629715D01*
X41832161Y22534477D01*
X41784542Y22486858D01*
G04 #@! TO.C,P24*
X47225714Y29117620D02*
X47225714Y30117620D01*
X47606666Y30117620D01*
X47701904Y30070000D01*
X47749523Y30022381D01*
X47797142Y29927143D01*
X47797142Y29784286D01*
X47749523Y29689048D01*
X47701904Y29641429D01*
X47606666Y29593810D01*
X47225714Y29593810D01*
X48178095Y30022381D02*
X48225714Y30070000D01*
X48320952Y30117620D01*
X48559047Y30117620D01*
X48654285Y30070000D01*
X48701904Y30022381D01*
X48749523Y29927143D01*
X48749523Y29831905D01*
X48701904Y29689048D01*
X48130476Y29117620D01*
X48749523Y29117620D01*
X49606666Y29784286D02*
X49606666Y29117620D01*
X49368571Y30165239D02*
X49130476Y29450953D01*
X49749523Y29450953D01*
G04 #@! TO.C,P16*
D13*
X3038928Y13897429D02*
X1514928Y13897429D01*
X1514928Y14478000D01*
X1587500Y14623143D01*
X1660071Y14695715D01*
X1805214Y14768286D01*
X2022928Y14768286D01*
X2168071Y14695715D01*
X2240642Y14623143D01*
X2313214Y14478000D01*
X2313214Y13897429D01*
X3038928Y16219715D02*
X3038928Y15348858D01*
X3038928Y15784286D02*
X1514928Y15784286D01*
X1732642Y15639143D01*
X1877785Y15494000D01*
X1950357Y15348858D01*
X1514928Y17526000D02*
X1514928Y17235715D01*
X1587500Y17090572D01*
X1660071Y17018000D01*
X1877785Y16872858D01*
X2168071Y16800286D01*
X2748642Y16800286D01*
X2893785Y16872858D01*
X2966357Y16945429D01*
X3038928Y17090572D01*
X3038928Y17380858D01*
X2966357Y17526000D01*
X2893785Y17598572D01*
X2748642Y17671143D01*
X2385785Y17671143D01*
X2240642Y17598572D01*
X2168071Y17526000D01*
X2095500Y17380858D01*
X2095500Y17090572D01*
X2168071Y16945429D01*
X2240642Y16872858D01*
X2385785Y16800286D01*
X10602685Y8799286D02*
X10675257Y8726715D01*
X10747828Y8509000D01*
X10747828Y8363858D01*
X10675257Y8146143D01*
X10530114Y8001000D01*
X10384971Y7928429D01*
X10094685Y7855858D01*
X9876971Y7855858D01*
X9586685Y7928429D01*
X9441542Y8001000D01*
X9296400Y8146143D01*
X9223828Y8363858D01*
X9223828Y8509000D01*
X9296400Y8726715D01*
X9368971Y8799286D01*
X10312400Y9379858D02*
X10312400Y10105572D01*
X10747828Y9234715D02*
X9223828Y9742715D01*
X10747828Y10250715D01*
X10747828Y10758715D02*
X9223828Y10758715D01*
X10747828Y11629572D01*
X9223828Y11629572D01*
G04 #@! TO.C,P17*
X19421928Y36013572D02*
X19421928Y37537572D01*
X20002500Y37537572D01*
X20147642Y37465000D01*
X20220214Y37392429D01*
X20292785Y37247286D01*
X20292785Y37029572D01*
X20220214Y36884429D01*
X20147642Y36811858D01*
X20002500Y36739286D01*
X19421928Y36739286D01*
X21744214Y36013572D02*
X20873357Y36013572D01*
X21308785Y36013572D02*
X21308785Y37537572D01*
X21163642Y37319858D01*
X21018500Y37174715D01*
X20873357Y37102143D01*
X22252214Y37537572D02*
X23268214Y37537572D01*
X22615071Y36013572D01*
X21689785Y25300215D02*
X21617214Y25227643D01*
X21399500Y25155072D01*
X21254357Y25155072D01*
X21036642Y25227643D01*
X20891500Y25372786D01*
X20818928Y25517929D01*
X20746357Y25808215D01*
X20746357Y26025929D01*
X20818928Y26316215D01*
X20891500Y26461358D01*
X21036642Y26606500D01*
X21254357Y26679072D01*
X21399500Y26679072D01*
X21617214Y26606500D01*
X21689785Y26533929D01*
X22270357Y25590500D02*
X22996071Y25590500D01*
X22125214Y25155072D02*
X22633214Y26679072D01*
X23141214Y25155072D01*
X23649214Y25155072D02*
X23649214Y26679072D01*
X24520071Y25155072D01*
X24520071Y26679072D01*
G04 #@! TO.C,P18*
X38408428Y36204072D02*
X38408428Y37728072D01*
X38989000Y37728072D01*
X39134142Y37655500D01*
X39206714Y37582929D01*
X39279285Y37437786D01*
X39279285Y37220072D01*
X39206714Y37074929D01*
X39134142Y37002358D01*
X38989000Y36929786D01*
X38408428Y36929786D01*
X40730714Y36204072D02*
X39859857Y36204072D01*
X40295285Y36204072D02*
X40295285Y37728072D01*
X40150142Y37510358D01*
X40005000Y37365215D01*
X39859857Y37292643D01*
X41601571Y37074929D02*
X41456428Y37147500D01*
X41383857Y37220072D01*
X41311285Y37365215D01*
X41311285Y37437786D01*
X41383857Y37582929D01*
X41456428Y37655500D01*
X41601571Y37728072D01*
X41891857Y37728072D01*
X42037000Y37655500D01*
X42109571Y37582929D01*
X42182142Y37437786D01*
X42182142Y37365215D01*
X42109571Y37220072D01*
X42037000Y37147500D01*
X41891857Y37074929D01*
X41601571Y37074929D01*
X41456428Y37002358D01*
X41383857Y36929786D01*
X41311285Y36784643D01*
X41311285Y36494358D01*
X41383857Y36349215D01*
X41456428Y36276643D01*
X41601571Y36204072D01*
X41891857Y36204072D01*
X42037000Y36276643D01*
X42109571Y36349215D01*
X42182142Y36494358D01*
X42182142Y36784643D01*
X42109571Y36929786D01*
X42037000Y37002358D01*
X41891857Y37074929D01*
X35647085Y25211315D02*
X35574514Y25138743D01*
X35356800Y25066172D01*
X35211657Y25066172D01*
X34993942Y25138743D01*
X34848800Y25283886D01*
X34776228Y25429029D01*
X34703657Y25719315D01*
X34703657Y25937029D01*
X34776228Y26227315D01*
X34848800Y26372458D01*
X34993942Y26517600D01*
X35211657Y26590172D01*
X35356800Y26590172D01*
X35574514Y26517600D01*
X35647085Y26445029D01*
X36227657Y25501600D02*
X36953371Y25501600D01*
X36082514Y25066172D02*
X36590514Y26590172D01*
X37098514Y25066172D01*
X37606514Y25066172D02*
X37606514Y26590172D01*
X38477371Y25066172D01*
X38477371Y26590172D01*
G04 #@! TO.C,P27*
D12*
X43692380Y15755715D02*
X42692380Y15755715D01*
X42692380Y16136667D01*
X42740000Y16231905D01*
X42787619Y16279524D01*
X42882857Y16327143D01*
X43025714Y16327143D01*
X43120952Y16279524D01*
X43168571Y16231905D01*
X43216190Y16136667D01*
X43216190Y15755715D01*
X42787619Y16708096D02*
X42740000Y16755715D01*
X42692380Y16850953D01*
X42692380Y17089048D01*
X42740000Y17184286D01*
X42787619Y17231905D01*
X42882857Y17279524D01*
X42978095Y17279524D01*
X43120952Y17231905D01*
X43692380Y16660477D01*
X43692380Y17279524D01*
X42692380Y17612858D02*
X42692380Y18279524D01*
X43692380Y17850953D01*
G04 #@! TO.C,P28*
X47275714Y13667620D02*
X47275714Y14667620D01*
X47656666Y14667620D01*
X47751904Y14620000D01*
X47799523Y14572381D01*
X47847142Y14477143D01*
X47847142Y14334286D01*
X47799523Y14239048D01*
X47751904Y14191429D01*
X47656666Y14143810D01*
X47275714Y14143810D01*
X48228095Y14572381D02*
X48275714Y14620000D01*
X48370952Y14667620D01*
X48609047Y14667620D01*
X48704285Y14620000D01*
X48751904Y14572381D01*
X48799523Y14477143D01*
X48799523Y14381905D01*
X48751904Y14239048D01*
X48180476Y13667620D01*
X48799523Y13667620D01*
X49370952Y14239048D02*
X49275714Y14286667D01*
X49228095Y14334286D01*
X49180476Y14429524D01*
X49180476Y14477143D01*
X49228095Y14572381D01*
X49275714Y14620000D01*
X49370952Y14667620D01*
X49561428Y14667620D01*
X49656666Y14620000D01*
X49704285Y14572381D01*
X49751904Y14477143D01*
X49751904Y14429524D01*
X49704285Y14334286D01*
X49656666Y14286667D01*
X49561428Y14239048D01*
X49370952Y14239048D01*
X49275714Y14191429D01*
X49228095Y14143810D01*
X49180476Y14048572D01*
X49180476Y13858096D01*
X49228095Y13762858D01*
X49275714Y13715239D01*
X49370952Y13667620D01*
X49561428Y13667620D01*
X49656666Y13715239D01*
X49704285Y13762858D01*
X49751904Y13858096D01*
X49751904Y14048572D01*
X49704285Y14143810D01*
X49656666Y14191429D01*
X49561428Y14239048D01*
G04 #@! TD*
M02*
