M48
; DRILL file {KiCad 5.1.5-52549c5~84~ubuntu16.04.1} date Di 04 Feb 2020 16:22:37 CET
; FORMAT={-:-/ absolute / metric / decimal}
; #@! TF.CreationDate,2020-02-04T16:22:37+01:00
; #@! TF.GenerationSoftware,Kicad,Pcbnew,5.1.5-52549c5~84~ubuntu16.04.1
; #@! TF.FileFunction,NonPlated,1,2,NPTH
FMAT,2
METRIC
T1C0.500
T2C0.899
T3C3.250
%
G90
G05
T1
X142.0Y-123.75
X142.75Y-123.75
X143.5Y-123.75
X144.25Y-123.75
X145.0Y-123.75
X145.75Y-123.75
X146.5Y-123.75
X147.25Y-123.75
X117.35Y-104.55
X117.35Y-105.3
X117.35Y-106.05
X117.35Y-106.8
X117.35Y-107.55
X117.35Y-108.3
X117.35Y-109.05
X117.35Y-109.8
X121.65Y-134.05
X121.65Y-134.8
X121.65Y-135.55
X121.65Y-136.3
X121.65Y-137.05
X121.65Y-137.8
X121.65Y-138.55
X121.65Y-139.3
X117.35Y-134.05
X117.35Y-134.8
X117.35Y-135.55
X117.35Y-136.3
X117.35Y-137.05
X117.35Y-137.8
X117.35Y-138.55
X117.35Y-139.3
X142.0Y-121.25
X142.75Y-121.25
X143.5Y-121.25
X144.25Y-121.25
X145.0Y-121.25
X145.75Y-121.25
X146.5Y-121.25
X147.25Y-121.25
X121.65Y-62.55
X121.65Y-63.3
X121.65Y-64.05
X121.65Y-64.8
X121.65Y-65.55
X121.65Y-66.3
X121.65Y-67.05
X121.65Y-67.8
X121.65Y-104.55
X121.65Y-105.3
X121.65Y-106.05
X121.65Y-106.8
X121.65Y-107.55
X121.65Y-108.3
X121.65Y-109.05
X121.65Y-109.8
X117.35Y-62.55
X117.35Y-63.3
X117.35Y-64.05
X117.35Y-64.8
X117.35Y-65.55
X117.35Y-66.3
X117.35Y-67.05
X117.35Y-67.8
T2
X142.303Y-116.628
X146.7Y-116.628
T3
X114.75Y-60.785
X114.75Y-72.215
X69.75Y-60.035
X69.75Y-71.465
X138.76Y-145.999
X150.19Y-145.999
T0
M30
