G04 #@! TF.FileFunction,Legend,Top*
%FSLAX46Y46*%
G04 Gerber Fmt 4.6, Leading zero omitted, Abs format (unit mm)*
G04 Created by KiCad (PCBNEW 4.0.2+e4-6225~38~ubuntu14.04.1-stable) date Fri 24 Jun 2016 12:28:15 AM CEST*
%MOMM*%
G01*
G04 APERTURE LIST*
%ADD10C,0.100000*%
%ADD11C,0.300000*%
%ADD12C,0.150000*%
%ADD13C,0.381000*%
%ADD14C,0.127000*%
%ADD15C,0.304800*%
%ADD16C,0.200000*%
%ADD17C,0.198120*%
%ADD18C,0.254000*%
%ADD19C,0.248920*%
%ADD20C,0.149860*%
%ADD21C,0.203200*%
%ADD22C,0.195580*%
%ADD23C,0.099060*%
G04 APERTURE END LIST*
D10*
D11*
X136445715Y-79854357D02*
X136045715Y-79282929D01*
X135760000Y-79854357D02*
X135760000Y-78654357D01*
X136217143Y-78654357D01*
X136331429Y-78711500D01*
X136388572Y-78768643D01*
X136445715Y-78882929D01*
X136445715Y-79054357D01*
X136388572Y-79168643D01*
X136331429Y-79225786D01*
X136217143Y-79282929D01*
X135760000Y-79282929D01*
X136845715Y-79854357D02*
X137474286Y-79054357D01*
X136845715Y-79054357D02*
X137474286Y-79854357D01*
X137931429Y-79854357D02*
X137931429Y-78654357D01*
X138217144Y-78654357D01*
X138388572Y-78711500D01*
X138502858Y-78825786D01*
X138560001Y-78940071D01*
X138617144Y-79168643D01*
X138617144Y-79340071D01*
X138560001Y-79568643D01*
X138502858Y-79682929D01*
X138388572Y-79797214D01*
X138217144Y-79854357D01*
X137931429Y-79854357D01*
X139614357Y-72612071D02*
X139614357Y-71926357D01*
X140814357Y-72269214D02*
X139614357Y-72269214D01*
X140814357Y-71640642D02*
X140014357Y-71012071D01*
X140014357Y-71640642D02*
X140814357Y-71012071D01*
X140814357Y-70554928D02*
X139614357Y-70554928D01*
X139614357Y-70269213D01*
X139671500Y-70097785D01*
X139785786Y-69983499D01*
X139900071Y-69926356D01*
X140128643Y-69869213D01*
X140300071Y-69869213D01*
X140528643Y-69926356D01*
X140642929Y-69983499D01*
X140757214Y-70097785D01*
X140814357Y-70269213D01*
X140814357Y-70554928D01*
X139592429Y-79600357D02*
X139592429Y-78800357D01*
X139592429Y-78914643D02*
X139649572Y-78857500D01*
X139763858Y-78800357D01*
X139935286Y-78800357D01*
X140049572Y-78857500D01*
X140106715Y-78971786D01*
X140106715Y-79600357D01*
X140106715Y-78971786D02*
X140163858Y-78857500D01*
X140278144Y-78800357D01*
X140449572Y-78800357D01*
X140563858Y-78857500D01*
X140621001Y-78971786D01*
X140621001Y-79600357D01*
X141021001Y-78800357D02*
X141478144Y-78800357D01*
X141192429Y-78400357D02*
X141192429Y-79428929D01*
X141249572Y-79543214D01*
X141363858Y-79600357D01*
X141478144Y-79600357D01*
X141821000Y-78514643D02*
X141878143Y-78457500D01*
X141992429Y-78400357D01*
X142278143Y-78400357D01*
X142392429Y-78457500D01*
X142449572Y-78514643D01*
X142506715Y-78628929D01*
X142506715Y-78743214D01*
X142449572Y-78914643D01*
X141763858Y-79600357D01*
X142506715Y-79600357D01*
X143649572Y-79600357D02*
X142963857Y-79600357D01*
X143306715Y-79600357D02*
X143306715Y-78400357D01*
X143192429Y-78571786D01*
X143078143Y-78686071D01*
X142963857Y-78743214D01*
X143878143Y-79714643D02*
X144792429Y-79714643D01*
X145021000Y-78514643D02*
X145078143Y-78457500D01*
X145192429Y-78400357D01*
X145478143Y-78400357D01*
X145592429Y-78457500D01*
X145649572Y-78514643D01*
X145706715Y-78628929D01*
X145706715Y-78743214D01*
X145649572Y-78914643D01*
X144963858Y-79600357D01*
X145706715Y-79600357D01*
X137728257Y-72421371D02*
X136928257Y-72421371D01*
X137042543Y-72421371D02*
X136985400Y-72364228D01*
X136928257Y-72249942D01*
X136928257Y-72078514D01*
X136985400Y-71964228D01*
X137099686Y-71907085D01*
X137728257Y-71907085D01*
X137099686Y-71907085D02*
X136985400Y-71849942D01*
X136928257Y-71735656D01*
X136928257Y-71564228D01*
X136985400Y-71449942D01*
X137099686Y-71392799D01*
X137728257Y-71392799D01*
X136928257Y-70992799D02*
X136928257Y-70535656D01*
X136528257Y-70821371D02*
X137556829Y-70821371D01*
X137671114Y-70764228D01*
X137728257Y-70649942D01*
X137728257Y-70535656D01*
X136642543Y-70192800D02*
X136585400Y-70135657D01*
X136528257Y-70021371D01*
X136528257Y-69735657D01*
X136585400Y-69621371D01*
X136642543Y-69564228D01*
X136756829Y-69507085D01*
X136871114Y-69507085D01*
X137042543Y-69564228D01*
X137728257Y-70249942D01*
X137728257Y-69507085D01*
X137728257Y-68364228D02*
X137728257Y-69049943D01*
X137728257Y-68707085D02*
X136528257Y-68707085D01*
X136699686Y-68821371D01*
X136813971Y-68935657D01*
X136871114Y-69049943D01*
X137842543Y-68135657D02*
X137842543Y-67221371D01*
X137728257Y-66307085D02*
X137728257Y-66992800D01*
X137728257Y-66649942D02*
X136528257Y-66649942D01*
X136699686Y-66764228D01*
X136813971Y-66878514D01*
X136871114Y-66992800D01*
X130657715Y-106715000D02*
X130543429Y-106657857D01*
X130372000Y-106657857D01*
X130200572Y-106715000D01*
X130086286Y-106829286D01*
X130029143Y-106943571D01*
X129972000Y-107172143D01*
X129972000Y-107343571D01*
X130029143Y-107572143D01*
X130086286Y-107686429D01*
X130200572Y-107800714D01*
X130372000Y-107857857D01*
X130486286Y-107857857D01*
X130657715Y-107800714D01*
X130714858Y-107743571D01*
X130714858Y-107343571D01*
X130486286Y-107343571D01*
X131229143Y-107857857D02*
X131229143Y-106657857D01*
X131914858Y-107857857D01*
X131914858Y-106657857D01*
X132486286Y-107857857D02*
X132486286Y-106657857D01*
X132772001Y-106657857D01*
X132943429Y-106715000D01*
X133057715Y-106829286D01*
X133114858Y-106943571D01*
X133172001Y-107172143D01*
X133172001Y-107343571D01*
X133114858Y-107572143D01*
X133057715Y-107686429D01*
X132943429Y-107800714D01*
X132772001Y-107857857D01*
X132486286Y-107857857D01*
X130213287Y-103038357D02*
X130613287Y-104238357D01*
X131013287Y-103038357D01*
X131927572Y-104238357D02*
X131927572Y-103609786D01*
X131870429Y-103495500D01*
X131756143Y-103438357D01*
X131527572Y-103438357D01*
X131413286Y-103495500D01*
X131927572Y-104181214D02*
X131813286Y-104238357D01*
X131527572Y-104238357D01*
X131413286Y-104181214D01*
X131356143Y-104066929D01*
X131356143Y-103952643D01*
X131413286Y-103838357D01*
X131527572Y-103781214D01*
X131813286Y-103781214D01*
X131927572Y-103724071D01*
X133013286Y-104238357D02*
X133013286Y-103609786D01*
X132956143Y-103495500D01*
X132841857Y-103438357D01*
X132613286Y-103438357D01*
X132499000Y-103495500D01*
X133013286Y-104181214D02*
X132899000Y-104238357D01*
X132613286Y-104238357D01*
X132499000Y-104181214D01*
X132441857Y-104066929D01*
X132441857Y-103952643D01*
X132499000Y-103838357D01*
X132613286Y-103781214D01*
X132899000Y-103781214D01*
X133013286Y-103724071D01*
X130660858Y-100441071D02*
X130603715Y-100498214D01*
X130432286Y-100555357D01*
X130318000Y-100555357D01*
X130146572Y-100498214D01*
X130032286Y-100383929D01*
X129975143Y-100269643D01*
X129918000Y-100041071D01*
X129918000Y-99869643D01*
X129975143Y-99641071D01*
X130032286Y-99526786D01*
X130146572Y-99412500D01*
X130318000Y-99355357D01*
X130432286Y-99355357D01*
X130603715Y-99412500D01*
X130660858Y-99469643D01*
X131003715Y-99355357D02*
X131689429Y-99355357D01*
X131346572Y-100555357D02*
X131346572Y-99355357D01*
X132032286Y-100498214D02*
X132203715Y-100555357D01*
X132489429Y-100555357D01*
X132603715Y-100498214D01*
X132660858Y-100441071D01*
X132718001Y-100326786D01*
X132718001Y-100212500D01*
X132660858Y-100098214D01*
X132603715Y-100041071D01*
X132489429Y-99983929D01*
X132260858Y-99926786D01*
X132146572Y-99869643D01*
X132089429Y-99812500D01*
X132032286Y-99698214D01*
X132032286Y-99583929D01*
X132089429Y-99469643D01*
X132146572Y-99412500D01*
X132260858Y-99355357D01*
X132546572Y-99355357D01*
X132718001Y-99412500D01*
X130851358Y-97253357D02*
X130451358Y-96681929D01*
X130165643Y-97253357D02*
X130165643Y-96053357D01*
X130622786Y-96053357D01*
X130737072Y-96110500D01*
X130794215Y-96167643D01*
X130851358Y-96281929D01*
X130851358Y-96453357D01*
X130794215Y-96567643D01*
X130737072Y-96624786D01*
X130622786Y-96681929D01*
X130165643Y-96681929D01*
X131194215Y-96053357D02*
X131879929Y-96053357D01*
X131537072Y-97253357D02*
X131537072Y-96053357D01*
X132222786Y-97196214D02*
X132394215Y-97253357D01*
X132679929Y-97253357D01*
X132794215Y-97196214D01*
X132851358Y-97139071D01*
X132908501Y-97024786D01*
X132908501Y-96910500D01*
X132851358Y-96796214D01*
X132794215Y-96739071D01*
X132679929Y-96681929D01*
X132451358Y-96624786D01*
X132337072Y-96567643D01*
X132279929Y-96510500D01*
X132222786Y-96396214D01*
X132222786Y-96281929D01*
X132279929Y-96167643D01*
X132337072Y-96110500D01*
X132451358Y-96053357D01*
X132737072Y-96053357D01*
X132908501Y-96110500D01*
X130603715Y-94776857D02*
X130203715Y-94205429D01*
X129918000Y-94776857D02*
X129918000Y-93576857D01*
X130375143Y-93576857D01*
X130489429Y-93634000D01*
X130546572Y-93691143D01*
X130603715Y-93805429D01*
X130603715Y-93976857D01*
X130546572Y-94091143D01*
X130489429Y-94148286D01*
X130375143Y-94205429D01*
X129918000Y-94205429D01*
X131003715Y-94776857D02*
X131632286Y-93976857D01*
X131003715Y-93976857D02*
X131632286Y-94776857D01*
X132089429Y-94776857D02*
X132089429Y-93576857D01*
X132375144Y-93576857D01*
X132546572Y-93634000D01*
X132660858Y-93748286D01*
X132718001Y-93862571D01*
X132775144Y-94091143D01*
X132775144Y-94262571D01*
X132718001Y-94491143D01*
X132660858Y-94605429D01*
X132546572Y-94719714D01*
X132375144Y-94776857D01*
X132089429Y-94776857D01*
X129825929Y-89004857D02*
X130511643Y-89004857D01*
X130168786Y-90204857D02*
X130168786Y-89004857D01*
X130797358Y-90204857D02*
X131425929Y-89404857D01*
X130797358Y-89404857D02*
X131425929Y-90204857D01*
X131883072Y-90204857D02*
X131883072Y-89004857D01*
X132168787Y-89004857D01*
X132340215Y-89062000D01*
X132454501Y-89176286D01*
X132511644Y-89290571D01*
X132568787Y-89519143D01*
X132568787Y-89690571D01*
X132511644Y-89919143D01*
X132454501Y-90033429D01*
X132340215Y-90147714D01*
X132168787Y-90204857D01*
X131883072Y-90204857D01*
X160363087Y-101654057D02*
X160763087Y-102854057D01*
X161163087Y-101654057D01*
X162077372Y-102854057D02*
X162077372Y-102225486D01*
X162020229Y-102111200D01*
X161905943Y-102054057D01*
X161677372Y-102054057D01*
X161563086Y-102111200D01*
X162077372Y-102796914D02*
X161963086Y-102854057D01*
X161677372Y-102854057D01*
X161563086Y-102796914D01*
X161505943Y-102682629D01*
X161505943Y-102568343D01*
X161563086Y-102454057D01*
X161677372Y-102396914D01*
X161963086Y-102396914D01*
X162077372Y-102339771D01*
X163163086Y-102854057D02*
X163163086Y-102225486D01*
X163105943Y-102111200D01*
X162991657Y-102054057D01*
X162763086Y-102054057D01*
X162648800Y-102111200D01*
X163163086Y-102796914D02*
X163048800Y-102854057D01*
X162763086Y-102854057D01*
X162648800Y-102796914D01*
X162591657Y-102682629D01*
X162591657Y-102568343D01*
X162648800Y-102454057D01*
X162763086Y-102396914D01*
X163048800Y-102396914D01*
X163163086Y-102339771D01*
X160985315Y-99374400D02*
X160871029Y-99317257D01*
X160699600Y-99317257D01*
X160528172Y-99374400D01*
X160413886Y-99488686D01*
X160356743Y-99602971D01*
X160299600Y-99831543D01*
X160299600Y-100002971D01*
X160356743Y-100231543D01*
X160413886Y-100345829D01*
X160528172Y-100460114D01*
X160699600Y-100517257D01*
X160813886Y-100517257D01*
X160985315Y-100460114D01*
X161042458Y-100402971D01*
X161042458Y-100002971D01*
X160813886Y-100002971D01*
X161556743Y-100517257D02*
X161556743Y-99317257D01*
X162242458Y-100517257D01*
X162242458Y-99317257D01*
X162813886Y-100517257D02*
X162813886Y-99317257D01*
X163099601Y-99317257D01*
X163271029Y-99374400D01*
X163385315Y-99488686D01*
X163442458Y-99602971D01*
X163499601Y-99831543D01*
X163499601Y-100002971D01*
X163442458Y-100231543D01*
X163385315Y-100345829D01*
X163271029Y-100460114D01*
X163099601Y-100517257D01*
X162813886Y-100517257D01*
X161242458Y-105432171D02*
X161185315Y-105489314D01*
X161013886Y-105546457D01*
X160899600Y-105546457D01*
X160728172Y-105489314D01*
X160613886Y-105375029D01*
X160556743Y-105260743D01*
X160499600Y-105032171D01*
X160499600Y-104860743D01*
X160556743Y-104632171D01*
X160613886Y-104517886D01*
X160728172Y-104403600D01*
X160899600Y-104346457D01*
X161013886Y-104346457D01*
X161185315Y-104403600D01*
X161242458Y-104460743D01*
X161585315Y-104346457D02*
X162271029Y-104346457D01*
X161928172Y-105546457D02*
X161928172Y-104346457D01*
X162613886Y-105489314D02*
X162785315Y-105546457D01*
X163071029Y-105546457D01*
X163185315Y-105489314D01*
X163242458Y-105432171D01*
X163299601Y-105317886D01*
X163299601Y-105203600D01*
X163242458Y-105089314D01*
X163185315Y-105032171D01*
X163071029Y-104975029D01*
X162842458Y-104917886D01*
X162728172Y-104860743D01*
X162671029Y-104803600D01*
X162613886Y-104689314D01*
X162613886Y-104575029D01*
X162671029Y-104460743D01*
X162728172Y-104403600D01*
X162842458Y-104346457D01*
X163128172Y-104346457D01*
X163299601Y-104403600D01*
X161344058Y-108035657D02*
X160944058Y-107464229D01*
X160658343Y-108035657D02*
X160658343Y-106835657D01*
X161115486Y-106835657D01*
X161229772Y-106892800D01*
X161286915Y-106949943D01*
X161344058Y-107064229D01*
X161344058Y-107235657D01*
X161286915Y-107349943D01*
X161229772Y-107407086D01*
X161115486Y-107464229D01*
X160658343Y-107464229D01*
X161686915Y-106835657D02*
X162372629Y-106835657D01*
X162029772Y-108035657D02*
X162029772Y-106835657D01*
X162715486Y-107978514D02*
X162886915Y-108035657D01*
X163172629Y-108035657D01*
X163286915Y-107978514D01*
X163344058Y-107921371D01*
X163401201Y-107807086D01*
X163401201Y-107692800D01*
X163344058Y-107578514D01*
X163286915Y-107521371D01*
X163172629Y-107464229D01*
X162944058Y-107407086D01*
X162829772Y-107349943D01*
X162772629Y-107292800D01*
X162715486Y-107178514D01*
X162715486Y-107064229D01*
X162772629Y-106949943D01*
X162829772Y-106892800D01*
X162944058Y-106835657D01*
X163229772Y-106835657D01*
X163401201Y-106892800D01*
X161286915Y-110778857D02*
X160886915Y-110207429D01*
X160601200Y-110778857D02*
X160601200Y-109578857D01*
X161058343Y-109578857D01*
X161172629Y-109636000D01*
X161229772Y-109693143D01*
X161286915Y-109807429D01*
X161286915Y-109978857D01*
X161229772Y-110093143D01*
X161172629Y-110150286D01*
X161058343Y-110207429D01*
X160601200Y-110207429D01*
X161686915Y-110778857D02*
X162315486Y-109978857D01*
X161686915Y-109978857D02*
X162315486Y-110778857D01*
X162772629Y-110778857D02*
X162772629Y-109578857D01*
X163058344Y-109578857D01*
X163229772Y-109636000D01*
X163344058Y-109750286D01*
X163401201Y-109864571D01*
X163458344Y-110093143D01*
X163458344Y-110264571D01*
X163401201Y-110493143D01*
X163344058Y-110607429D01*
X163229772Y-110721714D01*
X163058344Y-110778857D01*
X162772629Y-110778857D01*
X160674229Y-112068057D02*
X161359943Y-112068057D01*
X161017086Y-113268057D02*
X161017086Y-112068057D01*
X161645658Y-113268057D02*
X162274229Y-112468057D01*
X161645658Y-112468057D02*
X162274229Y-113268057D01*
X162731372Y-113268057D02*
X162731372Y-112068057D01*
X163017087Y-112068057D01*
X163188515Y-112125200D01*
X163302801Y-112239486D01*
X163359944Y-112353771D01*
X163417087Y-112582343D01*
X163417087Y-112753771D01*
X163359944Y-112982343D01*
X163302801Y-113096629D01*
X163188515Y-113210914D01*
X163017087Y-113268057D01*
X162731372Y-113268057D01*
D12*
X167000000Y-126500000D02*
X167000000Y-146500000D01*
X167000000Y-118500000D02*
X167000000Y-51500000D01*
X122000000Y-112500000D02*
X122000000Y-118500000D01*
X122000000Y-126500000D02*
X122000000Y-132000000D01*
D11*
X89582600Y-61007514D02*
X89582600Y-60436085D01*
X89925457Y-61121799D02*
X88725457Y-60721799D01*
X89925457Y-60321799D01*
X89925457Y-59921800D02*
X88725457Y-59921800D01*
X89925457Y-59236085D02*
X89239743Y-59750371D01*
X88725457Y-59236085D02*
X89411171Y-59921800D01*
X94478486Y-60493229D02*
X94535629Y-60321800D01*
X94592771Y-60264657D01*
X94707057Y-60207514D01*
X94878486Y-60207514D01*
X94992771Y-60264657D01*
X95049914Y-60321800D01*
X95107057Y-60436086D01*
X95107057Y-60893229D01*
X93907057Y-60893229D01*
X93907057Y-60493229D01*
X93964200Y-60378943D01*
X94021343Y-60321800D01*
X94135629Y-60264657D01*
X94249914Y-60264657D01*
X94364200Y-60321800D01*
X94421343Y-60378943D01*
X94478486Y-60493229D01*
X94478486Y-60893229D01*
X93907057Y-59350372D02*
X94764200Y-59350372D01*
X94935629Y-59407514D01*
X95049914Y-59521800D01*
X95107057Y-59693229D01*
X95107057Y-59807514D01*
X91494057Y-61220170D02*
X92694057Y-60820170D01*
X91494057Y-60420170D01*
X92636914Y-59505885D02*
X92694057Y-59620171D01*
X92694057Y-59848742D01*
X92636914Y-59963028D01*
X92579771Y-60020171D01*
X92465486Y-60077314D01*
X92122629Y-60077314D01*
X92008343Y-60020171D01*
X91951200Y-59963028D01*
X91894057Y-59848742D01*
X91894057Y-59620171D01*
X91951200Y-59505885D01*
X92636914Y-58477314D02*
X92694057Y-58591600D01*
X92694057Y-58820171D01*
X92636914Y-58934457D01*
X92579771Y-58991600D01*
X92465486Y-59048743D01*
X92122629Y-59048743D01*
X92008343Y-58991600D01*
X91951200Y-58934457D01*
X91894057Y-58820171D01*
X91894057Y-58591600D01*
X91951200Y-58477314D01*
X98809257Y-72904170D02*
X100009257Y-72504170D01*
X98809257Y-72104170D01*
X99952114Y-71189885D02*
X100009257Y-71304171D01*
X100009257Y-71532742D01*
X99952114Y-71647028D01*
X99894971Y-71704171D01*
X99780686Y-71761314D01*
X99437829Y-71761314D01*
X99323543Y-71704171D01*
X99266400Y-71647028D01*
X99209257Y-71532742D01*
X99209257Y-71304171D01*
X99266400Y-71189885D01*
X99952114Y-70161314D02*
X100009257Y-70275600D01*
X100009257Y-70504171D01*
X99952114Y-70618457D01*
X99894971Y-70675600D01*
X99780686Y-70732743D01*
X99437829Y-70732743D01*
X99323543Y-70675600D01*
X99266400Y-70618457D01*
X99209257Y-70504171D01*
X99209257Y-70275600D01*
X99266400Y-70161314D01*
X99012457Y-60832971D02*
X99012457Y-61404400D01*
X99583886Y-61461543D01*
X99526743Y-61404400D01*
X99469600Y-61290114D01*
X99469600Y-61004400D01*
X99526743Y-60890114D01*
X99583886Y-60832971D01*
X99698171Y-60775828D01*
X99983886Y-60775828D01*
X100098171Y-60832971D01*
X100155314Y-60890114D01*
X100212457Y-61004400D01*
X100212457Y-61290114D01*
X100155314Y-61404400D01*
X100098171Y-61461543D01*
X99012457Y-60432971D02*
X100212457Y-60032971D01*
X99012457Y-59632971D01*
X86210857Y-73259770D02*
X87410857Y-72859770D01*
X86210857Y-72459770D01*
X87353714Y-71545485D02*
X87410857Y-71659771D01*
X87410857Y-71888342D01*
X87353714Y-72002628D01*
X87296571Y-72059771D01*
X87182286Y-72116914D01*
X86839429Y-72116914D01*
X86725143Y-72059771D01*
X86668000Y-72002628D01*
X86610857Y-71888342D01*
X86610857Y-71659771D01*
X86668000Y-71545485D01*
X87353714Y-70516914D02*
X87410857Y-70631200D01*
X87410857Y-70859771D01*
X87353714Y-70974057D01*
X87296571Y-71031200D01*
X87182286Y-71088343D01*
X86839429Y-71088343D01*
X86725143Y-71031200D01*
X86668000Y-70974057D01*
X86610857Y-70859771D01*
X86610857Y-70631200D01*
X86668000Y-70516914D01*
X86414057Y-60604371D02*
X86414057Y-61175800D01*
X86985486Y-61232943D01*
X86928343Y-61175800D01*
X86871200Y-61061514D01*
X86871200Y-60775800D01*
X86928343Y-60661514D01*
X86985486Y-60604371D01*
X87099771Y-60547228D01*
X87385486Y-60547228D01*
X87499771Y-60604371D01*
X87556914Y-60661514D01*
X87614057Y-60775800D01*
X87614057Y-61061514D01*
X87556914Y-61175800D01*
X87499771Y-61232943D01*
X86414057Y-60204371D02*
X87614057Y-59804371D01*
X86414057Y-59404371D01*
X83474000Y-60477285D02*
X83416857Y-60591571D01*
X83416857Y-60763000D01*
X83474000Y-60934428D01*
X83588286Y-61048714D01*
X83702571Y-61105857D01*
X83931143Y-61163000D01*
X84102571Y-61163000D01*
X84331143Y-61105857D01*
X84445429Y-61048714D01*
X84559714Y-60934428D01*
X84616857Y-60763000D01*
X84616857Y-60648714D01*
X84559714Y-60477285D01*
X84502571Y-60420142D01*
X84102571Y-60420142D01*
X84102571Y-60648714D01*
X84616857Y-59905857D02*
X83416857Y-59905857D01*
X84616857Y-59220142D01*
X83416857Y-59220142D01*
X84616857Y-58648714D02*
X83416857Y-58648714D01*
X83416857Y-58362999D01*
X83474000Y-58191571D01*
X83588286Y-58077285D01*
X83702571Y-58020142D01*
X83931143Y-57962999D01*
X84102571Y-57962999D01*
X84331143Y-58020142D01*
X84445429Y-58077285D01*
X84559714Y-58191571D01*
X84616857Y-58362999D01*
X84616857Y-58648714D01*
X81613457Y-60889970D02*
X82813457Y-60489970D01*
X81613457Y-60089970D01*
X82756314Y-59175685D02*
X82813457Y-59289971D01*
X82813457Y-59518542D01*
X82756314Y-59632828D01*
X82699171Y-59689971D01*
X82584886Y-59747114D01*
X82242029Y-59747114D01*
X82127743Y-59689971D01*
X82070600Y-59632828D01*
X82013457Y-59518542D01*
X82013457Y-59289971D01*
X82070600Y-59175685D01*
X82756314Y-58147114D02*
X82813457Y-58261400D01*
X82813457Y-58489971D01*
X82756314Y-58604257D01*
X82699171Y-58661400D01*
X82584886Y-58718543D01*
X82242029Y-58718543D01*
X82127743Y-58661400D01*
X82070600Y-58604257D01*
X82013457Y-58489971D01*
X82013457Y-58261400D01*
X82070600Y-58147114D01*
D12*
X117000000Y-69800000D02*
X117000000Y-102500000D01*
X122000000Y-102500000D02*
X122000000Y-69800000D01*
X117000000Y-112500000D02*
X117000000Y-111800000D01*
X122000000Y-112500000D02*
X122000000Y-111800000D01*
X117000000Y-146500000D02*
X117000000Y-141300000D01*
X122000000Y-141300000D02*
X122000000Y-146500000D01*
D11*
X138820000Y-132454286D02*
X138748571Y-132525714D01*
X138534286Y-132668571D01*
X138391429Y-132740000D01*
X138177143Y-132811429D01*
X137820000Y-132882857D01*
X137534286Y-132882857D01*
X137177143Y-132811429D01*
X136962857Y-132740000D01*
X136820000Y-132668571D01*
X136605714Y-132525714D01*
X136534286Y-132454286D01*
X137462857Y-131382857D02*
X137534286Y-131168571D01*
X137605714Y-131097143D01*
X137748571Y-131025714D01*
X137962857Y-131025714D01*
X138105714Y-131097143D01*
X138177143Y-131168571D01*
X138248571Y-131311429D01*
X138248571Y-131882857D01*
X136748571Y-131882857D01*
X136748571Y-131382857D01*
X136820000Y-131240000D01*
X136891429Y-131168571D01*
X137034286Y-131097143D01*
X137177143Y-131097143D01*
X137320000Y-131168571D01*
X137391429Y-131240000D01*
X137462857Y-131382857D01*
X137462857Y-131882857D01*
X138248571Y-129525714D02*
X137534286Y-130025714D01*
X138248571Y-130382857D02*
X136748571Y-130382857D01*
X136748571Y-129811429D01*
X136820000Y-129668571D01*
X136891429Y-129597143D01*
X137034286Y-129525714D01*
X137248571Y-129525714D01*
X137391429Y-129597143D01*
X137462857Y-129668571D01*
X137534286Y-129811429D01*
X137534286Y-130382857D01*
X138820000Y-129025714D02*
X138748571Y-128954286D01*
X138534286Y-128811429D01*
X138391429Y-128740000D01*
X138177143Y-128668571D01*
X137820000Y-128597143D01*
X137534286Y-128597143D01*
X137177143Y-128668571D01*
X136962857Y-128740000D01*
X136820000Y-128811429D01*
X136605714Y-128954286D01*
X136534286Y-129025714D01*
X136220000Y-132095714D02*
X136148571Y-132167142D01*
X135934286Y-132309999D01*
X135791429Y-132381428D01*
X135577143Y-132452857D01*
X135220000Y-132524285D01*
X134934286Y-132524285D01*
X134577143Y-132452857D01*
X134362857Y-132381428D01*
X134220000Y-132309999D01*
X134005714Y-132167142D01*
X133934286Y-132095714D01*
X135648571Y-130667142D02*
X134934286Y-131167142D01*
X135648571Y-131524285D02*
X134148571Y-131524285D01*
X134148571Y-130952857D01*
X134220000Y-130809999D01*
X134291429Y-130738571D01*
X134434286Y-130667142D01*
X134648571Y-130667142D01*
X134791429Y-130738571D01*
X134862857Y-130809999D01*
X134934286Y-130952857D01*
X134934286Y-131524285D01*
X134148571Y-130238571D02*
X134148571Y-129381428D01*
X135648571Y-129809999D02*
X134148571Y-129809999D01*
X136220000Y-129024285D02*
X136148571Y-128952857D01*
X135934286Y-128810000D01*
X135791429Y-128738571D01*
X135577143Y-128667142D01*
X135220000Y-128595714D01*
X134934286Y-128595714D01*
X134577143Y-128667142D01*
X134362857Y-128738571D01*
X134220000Y-128810000D01*
X134005714Y-128952857D01*
X133934286Y-129024285D01*
X146728571Y-132095714D02*
X148228571Y-131595714D01*
X146728571Y-131095714D01*
X148157143Y-129952857D02*
X148228571Y-130095714D01*
X148228571Y-130381428D01*
X148157143Y-130524286D01*
X148085714Y-130595714D01*
X147942857Y-130667143D01*
X147514286Y-130667143D01*
X147371429Y-130595714D01*
X147300000Y-130524286D01*
X147228571Y-130381428D01*
X147228571Y-130095714D01*
X147300000Y-129952857D01*
X148157143Y-128667143D02*
X148228571Y-128810000D01*
X148228571Y-129095714D01*
X148157143Y-129238572D01*
X148085714Y-129310000D01*
X147942857Y-129381429D01*
X147514286Y-129381429D01*
X147371429Y-129310000D01*
X147300000Y-129238572D01*
X147228571Y-129095714D01*
X147228571Y-128810000D01*
X147300000Y-128667143D01*
X141860000Y-131982857D02*
X141788571Y-132125714D01*
X141788571Y-132340000D01*
X141860000Y-132554285D01*
X142002857Y-132697143D01*
X142145714Y-132768571D01*
X142431429Y-132840000D01*
X142645714Y-132840000D01*
X142931429Y-132768571D01*
X143074286Y-132697143D01*
X143217143Y-132554285D01*
X143288571Y-132340000D01*
X143288571Y-132197143D01*
X143217143Y-131982857D01*
X143145714Y-131911428D01*
X142645714Y-131911428D01*
X142645714Y-132197143D01*
X143288571Y-131268571D02*
X141788571Y-131268571D01*
X143288571Y-130411428D01*
X141788571Y-130411428D01*
X143288571Y-129697142D02*
X141788571Y-129697142D01*
X141788571Y-129339999D01*
X141860000Y-129125714D01*
X142002857Y-128982856D01*
X142145714Y-128911428D01*
X142431429Y-128839999D01*
X142645714Y-128839999D01*
X142931429Y-128911428D01*
X143074286Y-128982856D01*
X143217143Y-129125714D01*
X143288571Y-129339999D01*
X143288571Y-129697142D01*
X150735714Y-132971428D02*
X150807143Y-133042857D01*
X150878571Y-133257143D01*
X150878571Y-133400000D01*
X150807143Y-133614285D01*
X150664286Y-133757143D01*
X150521429Y-133828571D01*
X150235714Y-133900000D01*
X150021429Y-133900000D01*
X149735714Y-133828571D01*
X149592857Y-133757143D01*
X149450000Y-133614285D01*
X149378571Y-133400000D01*
X149378571Y-133257143D01*
X149450000Y-133042857D01*
X149521429Y-132971428D01*
X150450000Y-132400000D02*
X150450000Y-131685714D01*
X150878571Y-132542857D02*
X149378571Y-132042857D01*
X150878571Y-131542857D01*
X150878571Y-131042857D02*
X149378571Y-131042857D01*
X150878571Y-130185714D01*
X149378571Y-130185714D01*
X150878571Y-128757142D02*
X150878571Y-129471428D01*
X149378571Y-129471428D01*
X153735714Y-133050000D02*
X153807143Y-133121429D01*
X153878571Y-133335715D01*
X153878571Y-133478572D01*
X153807143Y-133692857D01*
X153664286Y-133835715D01*
X153521429Y-133907143D01*
X153235714Y-133978572D01*
X153021429Y-133978572D01*
X152735714Y-133907143D01*
X152592857Y-133835715D01*
X152450000Y-133692857D01*
X152378571Y-133478572D01*
X152378571Y-133335715D01*
X152450000Y-133121429D01*
X152521429Y-133050000D01*
X153450000Y-132478572D02*
X153450000Y-131764286D01*
X153878571Y-132621429D02*
X152378571Y-132121429D01*
X153878571Y-131621429D01*
X153878571Y-131121429D02*
X152378571Y-131121429D01*
X153878571Y-130264286D01*
X152378571Y-130264286D01*
X153878571Y-129550000D02*
X152378571Y-129550000D01*
X153092857Y-129550000D02*
X153092857Y-128692857D01*
X153878571Y-128692857D02*
X152378571Y-128692857D01*
X96928571Y-141035714D02*
X98428571Y-140535714D01*
X96928571Y-140035714D01*
X98357143Y-138892857D02*
X98428571Y-139035714D01*
X98428571Y-139321428D01*
X98357143Y-139464286D01*
X98285714Y-139535714D01*
X98142857Y-139607143D01*
X97714286Y-139607143D01*
X97571429Y-139535714D01*
X97500000Y-139464286D01*
X97428571Y-139321428D01*
X97428571Y-139035714D01*
X97500000Y-138892857D01*
X98357143Y-137607143D02*
X98428571Y-137750000D01*
X98428571Y-138035714D01*
X98357143Y-138178572D01*
X98285714Y-138250000D01*
X98142857Y-138321429D01*
X97714286Y-138321429D01*
X97571429Y-138250000D01*
X97500000Y-138178572D01*
X97428571Y-138035714D01*
X97428571Y-137750000D01*
X97500000Y-137607143D01*
X93500000Y-140392857D02*
X93428571Y-140535714D01*
X93428571Y-140750000D01*
X93500000Y-140964285D01*
X93642857Y-141107143D01*
X93785714Y-141178571D01*
X94071429Y-141250000D01*
X94285714Y-141250000D01*
X94571429Y-141178571D01*
X94714286Y-141107143D01*
X94857143Y-140964285D01*
X94928571Y-140750000D01*
X94928571Y-140607143D01*
X94857143Y-140392857D01*
X94785714Y-140321428D01*
X94285714Y-140321428D01*
X94285714Y-140607143D01*
X94928571Y-139678571D02*
X93428571Y-139678571D01*
X94928571Y-138821428D01*
X93428571Y-138821428D01*
X94928571Y-138107142D02*
X93428571Y-138107142D01*
X93428571Y-137749999D01*
X93500000Y-137535714D01*
X93642857Y-137392856D01*
X93785714Y-137321428D01*
X94071429Y-137249999D01*
X94285714Y-137249999D01*
X94571429Y-137321428D01*
X94714286Y-137392856D01*
X94857143Y-137535714D01*
X94928571Y-137749999D01*
X94928571Y-138107142D01*
X90128571Y-138615713D02*
X90128571Y-139329999D01*
X90842857Y-139401428D01*
X90771429Y-139329999D01*
X90700000Y-139187142D01*
X90700000Y-138829999D01*
X90771429Y-138687142D01*
X90842857Y-138615713D01*
X90985714Y-138544285D01*
X91342857Y-138544285D01*
X91485714Y-138615713D01*
X91557143Y-138687142D01*
X91628571Y-138829999D01*
X91628571Y-139187142D01*
X91557143Y-139329999D01*
X91485714Y-139401428D01*
X90128571Y-138115714D02*
X91628571Y-137615714D01*
X90128571Y-137115714D01*
X87235714Y-140171428D02*
X87307143Y-140242857D01*
X87378571Y-140457143D01*
X87378571Y-140600000D01*
X87307143Y-140814285D01*
X87164286Y-140957143D01*
X87021429Y-141028571D01*
X86735714Y-141100000D01*
X86521429Y-141100000D01*
X86235714Y-141028571D01*
X86092857Y-140957143D01*
X85950000Y-140814285D01*
X85878571Y-140600000D01*
X85878571Y-140457143D01*
X85950000Y-140242857D01*
X86021429Y-140171428D01*
X86950000Y-139600000D02*
X86950000Y-138885714D01*
X87378571Y-139742857D02*
X85878571Y-139242857D01*
X87378571Y-138742857D01*
X87378571Y-138242857D02*
X85878571Y-138242857D01*
X87378571Y-137385714D01*
X85878571Y-137385714D01*
X87378571Y-135957142D02*
X87378571Y-136671428D01*
X85878571Y-136671428D01*
X83825714Y-140170000D02*
X83897143Y-140241429D01*
X83968571Y-140455715D01*
X83968571Y-140598572D01*
X83897143Y-140812857D01*
X83754286Y-140955715D01*
X83611429Y-141027143D01*
X83325714Y-141098572D01*
X83111429Y-141098572D01*
X82825714Y-141027143D01*
X82682857Y-140955715D01*
X82540000Y-140812857D01*
X82468571Y-140598572D01*
X82468571Y-140455715D01*
X82540000Y-140241429D01*
X82611429Y-140170000D01*
X83540000Y-139598572D02*
X83540000Y-138884286D01*
X83968571Y-139741429D02*
X82468571Y-139241429D01*
X83968571Y-138741429D01*
X83968571Y-138241429D02*
X82468571Y-138241429D01*
X83968571Y-137384286D01*
X82468571Y-137384286D01*
X83968571Y-136670000D02*
X82468571Y-136670000D01*
X83182857Y-136670000D02*
X83182857Y-135812857D01*
X83968571Y-135812857D02*
X82468571Y-135812857D01*
X97678571Y-117785714D02*
X99178571Y-117285714D01*
X97678571Y-116785714D01*
X99107143Y-115642857D02*
X99178571Y-115785714D01*
X99178571Y-116071428D01*
X99107143Y-116214286D01*
X99035714Y-116285714D01*
X98892857Y-116357143D01*
X98464286Y-116357143D01*
X98321429Y-116285714D01*
X98250000Y-116214286D01*
X98178571Y-116071428D01*
X98178571Y-115785714D01*
X98250000Y-115642857D01*
X99107143Y-114357143D02*
X99178571Y-114500000D01*
X99178571Y-114785714D01*
X99107143Y-114928572D01*
X99035714Y-115000000D01*
X98892857Y-115071429D01*
X98464286Y-115071429D01*
X98321429Y-115000000D01*
X98250000Y-114928572D01*
X98178571Y-114785714D01*
X98178571Y-114500000D01*
X98250000Y-114357143D01*
X95000000Y-117142857D02*
X94928571Y-117285714D01*
X94928571Y-117500000D01*
X95000000Y-117714285D01*
X95142857Y-117857143D01*
X95285714Y-117928571D01*
X95571429Y-118000000D01*
X95785714Y-118000000D01*
X96071429Y-117928571D01*
X96214286Y-117857143D01*
X96357143Y-117714285D01*
X96428571Y-117500000D01*
X96428571Y-117357143D01*
X96357143Y-117142857D01*
X96285714Y-117071428D01*
X95785714Y-117071428D01*
X95785714Y-117357143D01*
X96428571Y-116428571D02*
X94928571Y-116428571D01*
X96428571Y-115571428D01*
X94928571Y-115571428D01*
X96428571Y-114857142D02*
X94928571Y-114857142D01*
X94928571Y-114499999D01*
X95000000Y-114285714D01*
X95142857Y-114142856D01*
X95285714Y-114071428D01*
X95571429Y-113999999D01*
X95785714Y-113999999D01*
X96071429Y-114071428D01*
X96214286Y-114142856D01*
X96357143Y-114285714D01*
X96428571Y-114499999D01*
X96428571Y-114857142D01*
X92428571Y-117035713D02*
X92428571Y-117749999D01*
X93142857Y-117821428D01*
X93071429Y-117749999D01*
X93000000Y-117607142D01*
X93000000Y-117249999D01*
X93071429Y-117107142D01*
X93142857Y-117035713D01*
X93285714Y-116964285D01*
X93642857Y-116964285D01*
X93785714Y-117035713D01*
X93857143Y-117107142D01*
X93928571Y-117249999D01*
X93928571Y-117607142D01*
X93857143Y-117749999D01*
X93785714Y-117821428D01*
X92428571Y-116535714D02*
X93928571Y-116035714D01*
X92428571Y-115535714D01*
X91285714Y-117071428D02*
X91357143Y-117142857D01*
X91428571Y-117357143D01*
X91428571Y-117500000D01*
X91357143Y-117714285D01*
X91214286Y-117857143D01*
X91071429Y-117928571D01*
X90785714Y-118000000D01*
X90571429Y-118000000D01*
X90285714Y-117928571D01*
X90142857Y-117857143D01*
X90000000Y-117714285D01*
X89928571Y-117500000D01*
X89928571Y-117357143D01*
X90000000Y-117142857D01*
X90071429Y-117071428D01*
X91000000Y-116500000D02*
X91000000Y-115785714D01*
X91428571Y-116642857D02*
X89928571Y-116142857D01*
X91428571Y-115642857D01*
X91428571Y-115142857D02*
X89928571Y-115142857D01*
X91428571Y-114285714D01*
X89928571Y-114285714D01*
X91428571Y-112857142D02*
X91428571Y-113571428D01*
X89928571Y-113571428D01*
X88535714Y-117000000D02*
X88607143Y-117071429D01*
X88678571Y-117285715D01*
X88678571Y-117428572D01*
X88607143Y-117642857D01*
X88464286Y-117785715D01*
X88321429Y-117857143D01*
X88035714Y-117928572D01*
X87821429Y-117928572D01*
X87535714Y-117857143D01*
X87392857Y-117785715D01*
X87250000Y-117642857D01*
X87178571Y-117428572D01*
X87178571Y-117285715D01*
X87250000Y-117071429D01*
X87321429Y-117000000D01*
X88250000Y-116428572D02*
X88250000Y-115714286D01*
X88678571Y-116571429D02*
X87178571Y-116071429D01*
X88678571Y-115571429D01*
X88678571Y-115071429D02*
X87178571Y-115071429D01*
X88678571Y-114214286D01*
X87178571Y-114214286D01*
X88678571Y-113500000D02*
X87178571Y-113500000D01*
X87892857Y-113500000D02*
X87892857Y-112642857D01*
X88678571Y-112642857D02*
X87178571Y-112642857D01*
X97428571Y-127535714D02*
X98928571Y-127035714D01*
X97428571Y-126535714D01*
X98857143Y-125392857D02*
X98928571Y-125535714D01*
X98928571Y-125821428D01*
X98857143Y-125964286D01*
X98785714Y-126035714D01*
X98642857Y-126107143D01*
X98214286Y-126107143D01*
X98071429Y-126035714D01*
X98000000Y-125964286D01*
X97928571Y-125821428D01*
X97928571Y-125535714D01*
X98000000Y-125392857D01*
X98857143Y-124107143D02*
X98928571Y-124250000D01*
X98928571Y-124535714D01*
X98857143Y-124678572D01*
X98785714Y-124750000D01*
X98642857Y-124821429D01*
X98214286Y-124821429D01*
X98071429Y-124750000D01*
X98000000Y-124678572D01*
X97928571Y-124535714D01*
X97928571Y-124250000D01*
X98000000Y-124107143D01*
X92428571Y-126535713D02*
X92428571Y-127249999D01*
X93142857Y-127321428D01*
X93071429Y-127249999D01*
X93000000Y-127107142D01*
X93000000Y-126749999D01*
X93071429Y-126607142D01*
X93142857Y-126535713D01*
X93285714Y-126464285D01*
X93642857Y-126464285D01*
X93785714Y-126535713D01*
X93857143Y-126607142D01*
X93928571Y-126749999D01*
X93928571Y-127107142D01*
X93857143Y-127249999D01*
X93785714Y-127321428D01*
X92428571Y-126035714D02*
X93928571Y-125535714D01*
X92428571Y-125035714D01*
X95000000Y-126642857D02*
X94928571Y-126785714D01*
X94928571Y-127000000D01*
X95000000Y-127214285D01*
X95142857Y-127357143D01*
X95285714Y-127428571D01*
X95571429Y-127500000D01*
X95785714Y-127500000D01*
X96071429Y-127428571D01*
X96214286Y-127357143D01*
X96357143Y-127214285D01*
X96428571Y-127000000D01*
X96428571Y-126857143D01*
X96357143Y-126642857D01*
X96285714Y-126571428D01*
X95785714Y-126571428D01*
X95785714Y-126857143D01*
X96428571Y-125928571D02*
X94928571Y-125928571D01*
X96428571Y-125071428D01*
X94928571Y-125071428D01*
X96428571Y-124357142D02*
X94928571Y-124357142D01*
X94928571Y-123999999D01*
X95000000Y-123785714D01*
X95142857Y-123642856D01*
X95285714Y-123571428D01*
X95571429Y-123499999D01*
X95785714Y-123499999D01*
X96071429Y-123571428D01*
X96214286Y-123642856D01*
X96357143Y-123785714D01*
X96428571Y-123999999D01*
X96428571Y-124357142D01*
X88785714Y-126500000D02*
X88857143Y-126571429D01*
X88928571Y-126785715D01*
X88928571Y-126928572D01*
X88857143Y-127142857D01*
X88714286Y-127285715D01*
X88571429Y-127357143D01*
X88285714Y-127428572D01*
X88071429Y-127428572D01*
X87785714Y-127357143D01*
X87642857Y-127285715D01*
X87500000Y-127142857D01*
X87428571Y-126928572D01*
X87428571Y-126785715D01*
X87500000Y-126571429D01*
X87571429Y-126500000D01*
X88500000Y-125928572D02*
X88500000Y-125214286D01*
X88928571Y-126071429D02*
X87428571Y-125571429D01*
X88928571Y-125071429D01*
X88928571Y-124571429D02*
X87428571Y-124571429D01*
X88928571Y-123714286D01*
X87428571Y-123714286D01*
X88928571Y-123000000D02*
X87428571Y-123000000D01*
X88142857Y-123000000D02*
X88142857Y-122142857D01*
X88928571Y-122142857D02*
X87428571Y-122142857D01*
X91285714Y-126571428D02*
X91357143Y-126642857D01*
X91428571Y-126857143D01*
X91428571Y-127000000D01*
X91357143Y-127214285D01*
X91214286Y-127357143D01*
X91071429Y-127428571D01*
X90785714Y-127500000D01*
X90571429Y-127500000D01*
X90285714Y-127428571D01*
X90142857Y-127357143D01*
X90000000Y-127214285D01*
X89928571Y-127000000D01*
X89928571Y-126857143D01*
X90000000Y-126642857D01*
X90071429Y-126571428D01*
X91000000Y-126000000D02*
X91000000Y-125285714D01*
X91428571Y-126142857D02*
X89928571Y-125642857D01*
X91428571Y-125142857D01*
X91428571Y-124642857D02*
X89928571Y-124642857D01*
X91428571Y-123785714D01*
X89928571Y-123785714D01*
X91428571Y-122357142D02*
X91428571Y-123071428D01*
X89928571Y-123071428D01*
D12*
X117000000Y-129500000D02*
X117000000Y-132000000D01*
X117000000Y-112500000D02*
X117000000Y-129500000D01*
X117000000Y-102500000D02*
G75*
G03X119500000Y-105000000I2500000J0D01*
G01*
X119500000Y-105000000D02*
G75*
G03X122000000Y-102500000I0J2500000D01*
G01*
X119500000Y-109300000D02*
G75*
G03X117000000Y-111800000I0J-2500000D01*
G01*
X122000000Y-111800000D02*
G75*
G03X119500000Y-109300000I-2500000J0D01*
G01*
X149000000Y-124000000D02*
X164500000Y-124000000D01*
X167000000Y-126500000D02*
G75*
G03X164500000Y-124000000I-2500000J0D01*
G01*
X149000000Y-121000000D02*
X164500000Y-121000000D01*
X124500000Y-124000000D02*
X140500000Y-124000000D01*
X124500000Y-121000000D02*
X140500000Y-121000000D01*
X164500000Y-121000000D02*
G75*
G03X167000000Y-118500000I0J2500000D01*
G01*
X147500000Y-122500000D02*
G75*
G03X149000000Y-124000000I1500000J0D01*
G01*
X149000000Y-121000000D02*
G75*
G03X147500000Y-122500000I0J-1500000D01*
G01*
X140500000Y-124000000D02*
G75*
G03X142000000Y-122500000I0J1500000D01*
G01*
X142000000Y-122500000D02*
G75*
G03X140500000Y-121000000I-1500000J0D01*
G01*
X122000000Y-118500000D02*
G75*
G03X124500000Y-121000000I2500000J0D01*
G01*
X124500000Y-124000000D02*
G75*
G03X122000000Y-126500000I0J-2500000D01*
G01*
X119500000Y-67300000D02*
G75*
G03X117000000Y-69800000I0J-2500000D01*
G01*
X122000000Y-69800000D02*
G75*
G03X119500000Y-67300000I-2500000J0D01*
G01*
X117000000Y-132000000D02*
G75*
G03X119500000Y-134500000I2500000J0D01*
G01*
X119500000Y-134500000D02*
G75*
G03X122000000Y-132000000I0J2500000D01*
G01*
X122000000Y-60500000D02*
X122000000Y-51500000D01*
X119500000Y-63000000D02*
G75*
G03X122000000Y-60500000I0J2500000D01*
G01*
X117000000Y-60500000D02*
G75*
G03X119500000Y-63000000I2500000J0D01*
G01*
X124500000Y-49000000D02*
G75*
G03X122000000Y-51500000I0J-2500000D01*
G01*
X119500000Y-138800000D02*
G75*
G03X117000000Y-141300000I0J-2500000D01*
G01*
X122000000Y-141300000D02*
G75*
G03X119500000Y-138800000I-2500000J0D01*
G01*
X117000000Y-51500000D02*
X117000000Y-60500000D01*
X124500000Y-49000000D02*
X164500000Y-49000000D01*
X124500000Y-149000000D02*
X164500000Y-149000000D01*
X122000000Y-146500000D02*
G75*
G03X124500000Y-149000000I2500000J0D01*
G01*
X117000000Y-51500000D02*
G75*
G03X114500000Y-49000000I-2500000J0D01*
G01*
X114500000Y-149000000D02*
G75*
G03X117000000Y-146500000I0J2500000D01*
G01*
X67000000Y-146500000D02*
G75*
G03X69500000Y-149000000I2500000J0D01*
G01*
X164500000Y-149000000D02*
G75*
G03X167000000Y-146500000I0J2500000D01*
G01*
X69500000Y-49000000D02*
G75*
G03X67000000Y-51500000I0J-2500000D01*
G01*
X167000000Y-51500000D02*
G75*
G03X164500000Y-49000000I-2500000J0D01*
G01*
X67000000Y-146500000D02*
X67000000Y-51500000D01*
X69500000Y-149000000D02*
X114500000Y-149000000D01*
X69500000Y-49000000D02*
X114500000Y-49000000D01*
X130048000Y-50063400D02*
X130048000Y-78003400D01*
X135128000Y-75463400D02*
X135128000Y-50063400D01*
X130048000Y-50063400D02*
X135128000Y-50063400D01*
X130048000Y-78003400D02*
X132588000Y-78003400D01*
X133858000Y-78283400D02*
X135408000Y-78283400D01*
X132588000Y-78003400D02*
X132588000Y-75463400D01*
X132588000Y-75463400D02*
X135128000Y-75463400D01*
X135408000Y-78283400D02*
X135408000Y-76733400D01*
X164286000Y-129000000D02*
G75*
G03X164286000Y-129000000I-2286000J0D01*
G01*
X165286000Y-117500000D02*
G75*
G03X165286000Y-117500000I-2286000J0D01*
G01*
X128286000Y-53000000D02*
G75*
G03X128286000Y-53000000I-2286000J0D01*
G01*
X165286000Y-53000000D02*
G75*
G03X165286000Y-53000000I-2286000J0D01*
G01*
X128286000Y-117500000D02*
G75*
G03X128286000Y-117500000I-2286000J0D01*
G01*
X164286000Y-144000000D02*
G75*
G03X164286000Y-144000000I-2286000J0D01*
G01*
X129286000Y-129000000D02*
G75*
G03X129286000Y-129000000I-2286000J0D01*
G01*
X129286000Y-144000000D02*
G75*
G03X129286000Y-144000000I-2286000J0D01*
G01*
X105286000Y-145750000D02*
G75*
G03X105286000Y-145750000I-2286000J0D01*
G01*
X115286000Y-53000000D02*
G75*
G03X115286000Y-53000000I-2286000J0D01*
G01*
X81286000Y-145750000D02*
G75*
G03X81286000Y-145750000I-2286000J0D01*
G01*
D13*
X118592000Y-142937000D02*
X119100000Y-142937000D01*
X118592000Y-135063000D02*
X119100000Y-135063000D01*
X118592000Y-142937000D02*
X118592000Y-135063000D01*
X118846000Y-142937000D02*
X118846000Y-135063000D01*
X119100000Y-135063000D02*
X119100000Y-142937000D01*
X119227000Y-131888000D02*
X106273000Y-131888000D01*
X106273000Y-131888000D02*
X106273000Y-146112000D01*
X106273000Y-146112000D02*
X119227000Y-146112000D01*
X119227000Y-146112000D02*
X119227000Y-131888000D01*
X118642000Y-124737000D02*
X119150000Y-124737000D01*
X118642000Y-116863000D02*
X119150000Y-116863000D01*
X118642000Y-124737000D02*
X118642000Y-116863000D01*
X118896000Y-124737000D02*
X118896000Y-116863000D01*
X119150000Y-116863000D02*
X119150000Y-124737000D01*
X119277000Y-113688000D02*
X106323000Y-113688000D01*
X106323000Y-113688000D02*
X106323000Y-127912000D01*
X106323000Y-127912000D02*
X119277000Y-127912000D01*
X119277000Y-127912000D02*
X119277000Y-113688000D01*
X118642000Y-106537000D02*
X119150000Y-106537000D01*
X118642000Y-98663000D02*
X119150000Y-98663000D01*
X118642000Y-106537000D02*
X118642000Y-98663000D01*
X118896000Y-106537000D02*
X118896000Y-98663000D01*
X119150000Y-98663000D02*
X119150000Y-106537000D01*
X119277000Y-95488000D02*
X106323000Y-95488000D01*
X106323000Y-95488000D02*
X106323000Y-109712000D01*
X106323000Y-109712000D02*
X119277000Y-109712000D01*
X119277000Y-109712000D02*
X119277000Y-95488000D01*
X118592000Y-88187000D02*
X119100000Y-88187000D01*
X118592000Y-80313000D02*
X119100000Y-80313000D01*
X118592000Y-88187000D02*
X118592000Y-80313000D01*
X118846000Y-88187000D02*
X118846000Y-80313000D01*
X119100000Y-80313000D02*
X119100000Y-88187000D01*
X119227000Y-77138000D02*
X106273000Y-77138000D01*
X106273000Y-77138000D02*
X106273000Y-91362000D01*
X106273000Y-91362000D02*
X119227000Y-91362000D01*
X119227000Y-91362000D02*
X119227000Y-77138000D01*
X65158000Y-79313000D02*
X64650000Y-79313000D01*
X65158000Y-87187000D02*
X64650000Y-87187000D01*
X65158000Y-79313000D02*
X65158000Y-87187000D01*
X64904000Y-79313000D02*
X64904000Y-87187000D01*
X64650000Y-87187000D02*
X64650000Y-79313000D01*
X64523000Y-90362000D02*
X77477000Y-90362000D01*
X77477000Y-90362000D02*
X77477000Y-76138000D01*
X77477000Y-76138000D02*
X64523000Y-76138000D01*
X64523000Y-76138000D02*
X64523000Y-90362000D01*
X65158000Y-114313000D02*
X64650000Y-114313000D01*
X65158000Y-122187000D02*
X64650000Y-122187000D01*
X65158000Y-114313000D02*
X65158000Y-122187000D01*
X64904000Y-114313000D02*
X64904000Y-122187000D01*
X64650000Y-122187000D02*
X64650000Y-114313000D01*
X64523000Y-125362000D02*
X77477000Y-125362000D01*
X77477000Y-125362000D02*
X77477000Y-111138000D01*
X77477000Y-111138000D02*
X64523000Y-111138000D01*
X64523000Y-111138000D02*
X64523000Y-125362000D01*
X65158000Y-131563000D02*
X64650000Y-131563000D01*
X65158000Y-139437000D02*
X64650000Y-139437000D01*
X65158000Y-131563000D02*
X65158000Y-139437000D01*
X64904000Y-131563000D02*
X64904000Y-139437000D01*
X64650000Y-139437000D02*
X64650000Y-131563000D01*
X64523000Y-142612000D02*
X77477000Y-142612000D01*
X77477000Y-142612000D02*
X77477000Y-128388000D01*
X77477000Y-128388000D02*
X64523000Y-128388000D01*
X64523000Y-128388000D02*
X64523000Y-142612000D01*
X80672000Y-57368000D02*
X66448000Y-57368000D01*
X66448000Y-57368000D02*
X66448000Y-59654000D01*
X80672000Y-74132000D02*
X66448000Y-74132000D01*
X66448000Y-74132000D02*
X66448000Y-71846000D01*
X80645000Y-57495000D02*
X80645000Y-74005000D01*
X66421000Y-59654000D02*
X66421000Y-71846000D01*
X103828000Y-74882000D02*
X118052000Y-74882000D01*
X118052000Y-74882000D02*
X118052000Y-72596000D01*
X103828000Y-58118000D02*
X118052000Y-58118000D01*
X118052000Y-58118000D02*
X118052000Y-60404000D01*
X103855000Y-74755000D02*
X103855000Y-58245000D01*
X118079000Y-72596000D02*
X118079000Y-60404000D01*
D12*
X83980000Y-64770000D02*
X83980000Y-69850000D01*
X83980000Y-69850000D02*
X86520000Y-69850000D01*
X86520000Y-69850000D02*
X86520000Y-64770000D01*
X86800000Y-61950000D02*
X86800000Y-63500000D01*
X86520000Y-64770000D02*
X83980000Y-64770000D01*
X83700000Y-63500000D02*
X83700000Y-61950000D01*
X83700000Y-61950000D02*
X86800000Y-61950000D01*
X97480000Y-64770000D02*
X97480000Y-69850000D01*
X97480000Y-69850000D02*
X100020000Y-69850000D01*
X100020000Y-69850000D02*
X100020000Y-64770000D01*
X100300000Y-61950000D02*
X100300000Y-63500000D01*
X100020000Y-64770000D02*
X97480000Y-64770000D01*
X97200000Y-63500000D02*
X97200000Y-61950000D01*
X97200000Y-61950000D02*
X100300000Y-61950000D01*
X73286000Y-53000000D02*
G75*
G03X73286000Y-53000000I-2286000J0D01*
G01*
X98250000Y-131700000D02*
X99800000Y-131700000D01*
X99800000Y-131700000D02*
X99800000Y-134800000D01*
X99800000Y-134800000D02*
X98250000Y-134800000D01*
X96980000Y-134520000D02*
X86820000Y-134520000D01*
X86820000Y-134520000D02*
X86820000Y-131980000D01*
X86820000Y-131980000D02*
X96980000Y-131980000D01*
X96980000Y-134520000D02*
X96980000Y-131980000D01*
D13*
X96300000Y-148900000D02*
X96300000Y-149300000D01*
X92800000Y-148900000D02*
X92800000Y-149300000D01*
X85700000Y-148900000D02*
X85700000Y-149300000D01*
X89200000Y-148900000D02*
X89200000Y-149300000D01*
X82200000Y-147800000D02*
X99800000Y-147800000D01*
X82200000Y-148900000D02*
X99800000Y-148900000D01*
X82200000Y-141700000D02*
X82200000Y-149300000D01*
X99800000Y-149300000D02*
X99800000Y-141700000D01*
X99800000Y-141700000D02*
X82200000Y-141700000D01*
X93500880Y-47700920D02*
X84499120Y-47700920D01*
X93500880Y-43200040D02*
X84499120Y-43200040D01*
X84499120Y-43200040D02*
X84499120Y-57799960D01*
X84499120Y-57799960D02*
X93500880Y-57799960D01*
X93500880Y-57799960D02*
X93500880Y-43200040D01*
X136118000Y-135078000D02*
X136118000Y-149302000D01*
X136118000Y-149302000D02*
X138404000Y-149302000D01*
X152882000Y-135078000D02*
X152882000Y-149302000D01*
X152882000Y-149302000D02*
X150596000Y-149302000D01*
X136245000Y-135105000D02*
X152755000Y-135105000D01*
X138404000Y-149329000D02*
X150596000Y-149329000D01*
D12*
X136270000Y-125230000D02*
X154050000Y-125230000D01*
X154050000Y-125230000D02*
X154050000Y-127770000D01*
X154050000Y-127770000D02*
X136270000Y-127770000D01*
X133450000Y-124950000D02*
X135000000Y-124950000D01*
X136270000Y-125230000D02*
X136270000Y-127770000D01*
X135000000Y-128050000D02*
X133450000Y-128050000D01*
X133450000Y-128050000D02*
X133450000Y-124950000D01*
X98250000Y-128200000D02*
X99800000Y-128200000D01*
X99800000Y-128200000D02*
X99800000Y-131300000D01*
X99800000Y-131300000D02*
X98250000Y-131300000D01*
X96980000Y-131020000D02*
X86820000Y-131020000D01*
X86820000Y-131020000D02*
X86820000Y-128480000D01*
X86820000Y-128480000D02*
X96980000Y-128480000D01*
X96980000Y-131020000D02*
X96980000Y-128480000D01*
X98250000Y-118450000D02*
X99800000Y-118450000D01*
X99800000Y-118450000D02*
X99800000Y-121550000D01*
X99800000Y-121550000D02*
X98250000Y-121550000D01*
X96980000Y-121270000D02*
X86820000Y-121270000D01*
X86820000Y-121270000D02*
X86820000Y-118730000D01*
X86820000Y-118730000D02*
X96980000Y-118730000D01*
X96980000Y-121270000D02*
X96980000Y-118730000D01*
D13*
X78000000Y-49100000D02*
X78000000Y-48700000D01*
X81500000Y-50200000D02*
X74500000Y-50200000D01*
X81500000Y-49100000D02*
X74500000Y-49100000D01*
X81500000Y-56300000D02*
X81500000Y-48700000D01*
X74500000Y-48700000D02*
X74500000Y-56300000D01*
X74500000Y-56300000D02*
X81500000Y-56300000D01*
D12*
X93867000Y-56670500D02*
X93867000Y-55470500D01*
X95617000Y-55470500D02*
X95617000Y-56670500D01*
D14*
X152171400Y-93980000D02*
X152171400Y-90017600D01*
X152171400Y-90017600D02*
X147345400Y-90017600D01*
X147345400Y-90017600D02*
X147345400Y-93980000D01*
X147345400Y-93980000D02*
X152171400Y-93980000D01*
X151663400Y-93980000D02*
X151663400Y-95072200D01*
X150393400Y-93980000D02*
X150393400Y-95072200D01*
X149123400Y-93980000D02*
X149123400Y-95072200D01*
X147853400Y-95072200D02*
X147853400Y-93980000D01*
X147853400Y-90017600D02*
X147853400Y-88925400D01*
X149123400Y-88925400D02*
X149123400Y-90017600D01*
X150393400Y-88925400D02*
X150393400Y-90017600D01*
X151663400Y-88925400D02*
X151663400Y-90017600D01*
X151907267Y-90754200D02*
G75*
G03X151907267Y-90754200I-472467J0D01*
G01*
D12*
X93230000Y-61730000D02*
X88150000Y-61730000D01*
X88150000Y-61730000D02*
X88150000Y-64270000D01*
X88150000Y-64270000D02*
X93230000Y-64270000D01*
X96050000Y-64550000D02*
X94500000Y-64550000D01*
X93230000Y-64270000D02*
X93230000Y-61730000D01*
X94500000Y-61450000D02*
X96050000Y-61450000D01*
X96050000Y-61450000D02*
X96050000Y-64550000D01*
D15*
X148132800Y-84772500D02*
X153162000Y-84772500D01*
X153162000Y-84772500D02*
X153162000Y-87312500D01*
X153162000Y-87312500D02*
X148082000Y-87312500D01*
X148082000Y-87312500D02*
X148082000Y-84772500D01*
X148082000Y-85407500D02*
X148717000Y-84772500D01*
D16*
X141475400Y-63896000D02*
X141475400Y-49896000D01*
X137975400Y-63896000D02*
X137975400Y-49896000D01*
X137975400Y-49896000D02*
X141475400Y-49896000D01*
X137975400Y-63896000D02*
X141475400Y-63896000D01*
D17*
X141835400Y-65486000D02*
X141835400Y-65926000D01*
X140775400Y-66176000D02*
X140695400Y-66046000D01*
X140695400Y-66046000D02*
X140565400Y-65886000D01*
X140565400Y-65886000D02*
X140395400Y-65746000D01*
X140395400Y-65746000D02*
X140305400Y-65716000D01*
X140305400Y-65716000D02*
X141835400Y-65716000D01*
X141125400Y-64826000D02*
X140925400Y-64826000D01*
X140925400Y-64926000D02*
X141125400Y-64926000D01*
X141225400Y-65026000D02*
X140825400Y-65026000D01*
X140825400Y-65126000D02*
X141225400Y-65126000D01*
X141325400Y-65226000D02*
X140725400Y-65226000D01*
X141025400Y-64526000D02*
X141425400Y-65326000D01*
X141425400Y-65326000D02*
X140625400Y-65326000D01*
X140625400Y-65326000D02*
X141025400Y-64526000D01*
D15*
X142964000Y-89094000D02*
X144564000Y-89094000D01*
X142464000Y-89294000D02*
X145064000Y-89294000D01*
X142064000Y-89494000D02*
X145464000Y-89494000D01*
X146564000Y-91694000D02*
G75*
G03X146564000Y-91694000I-2800000J0D01*
G01*
D11*
X144764000Y-90594000D02*
X145764000Y-90594000D01*
D15*
X134201000Y-89094000D02*
X135801000Y-89094000D01*
X133701000Y-89294000D02*
X136301000Y-89294000D01*
X133301000Y-89494000D02*
X136701000Y-89494000D01*
X137801000Y-91694000D02*
G75*
G03X137801000Y-91694000I-2800000J0D01*
G01*
D11*
X136001000Y-90594000D02*
X137001000Y-90594000D01*
D12*
X143955020Y-85468460D02*
X145352020Y-85468460D01*
X139510020Y-85468460D02*
X137986020Y-85468460D01*
X139891020Y-84706460D02*
X139891020Y-86230460D01*
X139637020Y-84706460D02*
X139637020Y-86230460D01*
X139383020Y-85468460D02*
X139383020Y-86230460D01*
X139383020Y-86230460D02*
X143955020Y-86230460D01*
X143955020Y-86230460D02*
X143955020Y-84706460D01*
X143955020Y-84706460D02*
X139383020Y-84706460D01*
X139383020Y-84706460D02*
X139383020Y-85468460D01*
D13*
X65158000Y-97063000D02*
X64650000Y-97063000D01*
X65158000Y-104937000D02*
X64650000Y-104937000D01*
X65158000Y-97063000D02*
X65158000Y-104937000D01*
X64904000Y-97063000D02*
X64904000Y-104937000D01*
X64650000Y-104937000D02*
X64650000Y-97063000D01*
X64523000Y-108112000D02*
X77477000Y-108112000D01*
X77477000Y-108112000D02*
X77477000Y-93888000D01*
X77477000Y-93888000D02*
X64523000Y-93888000D01*
X64523000Y-93888000D02*
X64523000Y-108112000D01*
D12*
X166928800Y-89408000D02*
G75*
G03X166928800Y-89408000I-7099300J0D01*
G01*
X137605800Y-109108800D02*
X137605800Y-107908800D01*
X139355800Y-107908800D02*
X139355800Y-109108800D01*
X149133000Y-103582500D02*
X150333000Y-103582500D01*
X150333000Y-105332500D02*
X149133000Y-105332500D01*
X141650000Y-109125000D02*
X142850000Y-109125000D01*
X142850000Y-110875000D02*
X141650000Y-110875000D01*
X148100000Y-110875000D02*
X146900000Y-110875000D01*
X146900000Y-109125000D02*
X148100000Y-109125000D01*
X156810000Y-104824500D02*
X155610000Y-104824500D01*
X155610000Y-103074500D02*
X156810000Y-103074500D01*
X156810000Y-107555000D02*
X155610000Y-107555000D01*
X155610000Y-105805000D02*
X156810000Y-105805000D01*
X156134000Y-119749000D02*
X158834000Y-119749000D01*
X156134000Y-118249000D02*
X158834000Y-118249000D01*
X157634000Y-119149000D02*
X157634000Y-118899000D01*
X157634000Y-118899000D02*
X157484000Y-119049000D01*
X157384000Y-118649000D02*
X157384000Y-119349000D01*
X157734000Y-118999000D02*
X158084000Y-118999000D01*
X157384000Y-118999000D02*
X157734000Y-118649000D01*
X157734000Y-118649000D02*
X157734000Y-119349000D01*
X157734000Y-119349000D02*
X157384000Y-118999000D01*
X156070500Y-116510500D02*
X158770500Y-116510500D01*
X156070500Y-115010500D02*
X158770500Y-115010500D01*
X157570500Y-115910500D02*
X157570500Y-115660500D01*
X157570500Y-115660500D02*
X157420500Y-115810500D01*
X157320500Y-115410500D02*
X157320500Y-116110500D01*
X157670500Y-115760500D02*
X158020500Y-115760500D01*
X157320500Y-115760500D02*
X157670500Y-115410500D01*
X157670500Y-115410500D02*
X157670500Y-116110500D01*
X157670500Y-116110500D02*
X157320500Y-115760500D01*
D15*
X140601100Y-113595640D02*
X139498740Y-113595640D01*
X139498740Y-113595640D02*
X139498740Y-115096780D01*
X139498740Y-115096780D02*
X140601100Y-115096780D01*
X149501260Y-115099320D02*
X148398900Y-115099320D01*
X149501260Y-113598180D02*
X149501260Y-115099320D01*
X148398900Y-113598180D02*
X149501260Y-113598180D01*
X148398900Y-119099820D02*
X149501260Y-119099820D01*
X149501260Y-119099820D02*
X149501260Y-120600960D01*
X149501260Y-120600960D02*
X148398900Y-120600960D01*
X140601100Y-119099820D02*
X139498740Y-119099820D01*
X139498740Y-119099820D02*
X139498740Y-120600960D01*
X139498740Y-120600960D02*
X140601100Y-120600960D01*
X140601100Y-123001260D02*
X148398900Y-123001260D01*
X148398900Y-123001260D02*
X148398900Y-112998740D01*
X148398900Y-112998740D02*
X140601100Y-112998740D01*
X140601100Y-112998740D02*
X140601100Y-123001260D01*
D12*
X166471600Y-101092000D02*
X166471600Y-113792000D01*
X166471600Y-113792000D02*
X163931600Y-113792000D01*
X163931600Y-113792000D02*
X163931600Y-101092000D01*
X166751600Y-98272000D02*
X166751600Y-99822000D01*
X166471600Y-101092000D02*
X163931600Y-101092000D01*
X163651600Y-99822000D02*
X163651600Y-98272000D01*
X163651600Y-98272000D02*
X166751600Y-98272000D01*
X145125000Y-106350000D02*
X145125000Y-105150000D01*
X146875000Y-105150000D02*
X146875000Y-106350000D01*
D14*
X158115000Y-113474500D02*
X158115000Y-108521500D01*
X158115000Y-108521500D02*
X154178000Y-108521500D01*
X154178000Y-108521500D02*
X154178000Y-113474500D01*
X154178000Y-113474500D02*
X158115000Y-113474500D01*
X157763981Y-112839500D02*
G75*
G03X157763981Y-112839500I-283981J0D01*
G01*
D13*
X122380800Y-105348800D02*
X121980800Y-105348800D01*
X122380800Y-101848800D02*
X121980800Y-101848800D01*
X122380800Y-91348800D02*
X121980800Y-91348800D01*
X122380800Y-94848800D02*
X121980800Y-94848800D01*
X122380800Y-98348800D02*
X121980800Y-98348800D01*
X123480800Y-87848800D02*
X123480800Y-108848800D01*
X122380800Y-87848800D02*
X122380800Y-108848800D01*
X129580800Y-87848800D02*
X121980800Y-87848800D01*
X121980800Y-108848800D02*
X129580800Y-108848800D01*
X129580800Y-108848800D02*
X129580800Y-87848800D01*
D12*
X83248500Y-120967500D02*
X83248500Y-118427500D01*
X82968500Y-123787500D02*
X82968500Y-122237500D01*
X83248500Y-120967500D02*
X85788500Y-120967500D01*
X86068500Y-122237500D02*
X86068500Y-123787500D01*
X86068500Y-123787500D02*
X82968500Y-123787500D01*
X85788500Y-120967500D02*
X85788500Y-118427500D01*
X85788500Y-118427500D02*
X83248500Y-118427500D01*
X85657000Y-129746500D02*
X85657000Y-131746500D01*
X83507000Y-131746500D02*
X83507000Y-129746500D01*
D18*
X147764500Y-99441000D02*
X146113500Y-99441000D01*
X152082500Y-99441000D02*
X153733500Y-99441000D01*
X152082500Y-100330000D02*
X152082500Y-98552000D01*
X152082500Y-98552000D02*
X147764500Y-98552000D01*
X147764500Y-98552000D02*
X147764500Y-100330000D01*
X147764500Y-100330000D02*
X152082500Y-100330000D01*
X143891000Y-87693500D02*
X145542000Y-87693500D01*
X139573000Y-87693500D02*
X137922000Y-87693500D01*
X139573000Y-86804500D02*
X139573000Y-88582500D01*
X139573000Y-88582500D02*
X143891000Y-88582500D01*
X143891000Y-88582500D02*
X143891000Y-86804500D01*
X143891000Y-86804500D02*
X139573000Y-86804500D01*
X139255500Y-93662500D02*
X139255500Y-92011500D01*
X139255500Y-97980500D02*
X139255500Y-99631500D01*
X138366500Y-97980500D02*
X140144500Y-97980500D01*
X140144500Y-97980500D02*
X140144500Y-93662500D01*
X140144500Y-93662500D02*
X138366500Y-93662500D01*
X138366500Y-93662500D02*
X138366500Y-97980500D01*
D12*
X144625000Y-105150000D02*
X144625000Y-106350000D01*
X142875000Y-106350000D02*
X142875000Y-105150000D01*
X152308000Y-118124000D02*
X153508000Y-118124000D01*
X153508000Y-119874000D02*
X152308000Y-119874000D01*
X152308000Y-114885500D02*
X153508000Y-114885500D01*
X153508000Y-116635500D02*
X152308000Y-116635500D01*
X152132000Y-111668000D02*
X152132000Y-112868000D01*
X150382000Y-112868000D02*
X150382000Y-111668000D01*
D18*
X152019000Y-97028000D02*
X153670000Y-97028000D01*
X147701000Y-97028000D02*
X146050000Y-97028000D01*
X147701000Y-96139000D02*
X147701000Y-97917000D01*
X147701000Y-97917000D02*
X152019000Y-97917000D01*
X152019000Y-97917000D02*
X152019000Y-96139000D01*
X152019000Y-96139000D02*
X147701000Y-96139000D01*
D12*
X100026104Y-84399888D02*
G75*
G03X97001200Y-84415000I-1524904J2484888D01*
G01*
X100001200Y-84415000D02*
X97001200Y-84415000D01*
X101019136Y-81915000D02*
G75*
G03X101019136Y-81915000I-2517936J0D01*
G01*
D18*
X93599000Y-86614000D02*
X93599000Y-88265000D01*
X93599000Y-82296000D02*
X93599000Y-80645000D01*
X94488000Y-82296000D02*
X92710000Y-82296000D01*
X92710000Y-82296000D02*
X92710000Y-86614000D01*
X92710000Y-86614000D02*
X94488000Y-86614000D01*
X94488000Y-86614000D02*
X94488000Y-82296000D01*
D19*
X89509600Y-67157600D02*
X89509600Y-68935600D01*
X89509600Y-68935600D02*
X95605600Y-68935600D01*
X95605600Y-68935600D02*
X95605600Y-67157600D01*
X95605600Y-67157600D02*
X89509600Y-67157600D01*
X91059000Y-87947500D02*
X91059000Y-86169500D01*
X91059000Y-86169500D02*
X84963000Y-86169500D01*
X84963000Y-86169500D02*
X84963000Y-87947500D01*
X84963000Y-87947500D02*
X91059000Y-87947500D01*
D18*
X85852000Y-125920500D02*
X85852000Y-135064500D01*
X85852000Y-135064500D02*
X83312000Y-135064500D01*
X83312000Y-135064500D02*
X83312000Y-125920500D01*
X83312000Y-125920500D02*
X85852000Y-125920500D01*
D15*
X84582000Y-135572500D02*
X84582000Y-135064500D01*
X84582000Y-125412500D02*
X84582000Y-125920500D01*
D12*
X139968000Y-106391000D02*
X139968000Y-105191000D01*
X141718000Y-105191000D02*
X141718000Y-106391000D01*
D18*
X95897700Y-53187600D02*
X94145100Y-51435000D01*
X94145100Y-51435000D02*
X95897700Y-49682400D01*
X107937300Y-53187600D02*
X109689900Y-51435000D01*
X109689900Y-51435000D02*
X107937300Y-49682400D01*
X107937300Y-51435000D02*
X107937300Y-41122600D01*
X107937300Y-41122600D02*
X95897700Y-41122600D01*
X95897700Y-41122600D02*
X95897700Y-51435000D01*
X95897700Y-51435000D02*
X95897700Y-57150000D01*
X95897700Y-57150000D02*
X107937300Y-57150000D01*
X107937300Y-57150000D02*
X107937300Y-51435000D01*
D12*
X128524904Y-139214888D02*
G75*
G03X125500000Y-139230000I-1524904J2484888D01*
G01*
X128500000Y-139230000D02*
X125500000Y-139230000D01*
X129517936Y-136730000D02*
G75*
G03X129517936Y-136730000I-2517936J0D01*
G01*
D18*
X131000500Y-145097500D02*
X131000500Y-135953500D01*
X131000500Y-135953500D02*
X133540500Y-135953500D01*
X133540500Y-135953500D02*
X133540500Y-145097500D01*
X133540500Y-145097500D02*
X131000500Y-145097500D01*
D15*
X132270500Y-135445500D02*
X132270500Y-135953500D01*
X132270500Y-145605500D02*
X132270500Y-145097500D01*
D12*
X145097500Y-80518000D02*
X140017500Y-80518000D01*
X140017500Y-80518000D02*
X140017500Y-83058000D01*
X140017500Y-83058000D02*
X145097500Y-83058000D01*
X147917500Y-83338000D02*
X146367500Y-83338000D01*
X145097500Y-83058000D02*
X145097500Y-80518000D01*
X146367500Y-80238000D02*
X147917500Y-80238000D01*
X147917500Y-80238000D02*
X147917500Y-83338000D01*
X127152400Y-75971400D02*
X127152400Y-68351400D01*
X124612400Y-75971400D02*
X124612400Y-68351400D01*
X124332400Y-78791400D02*
X124332400Y-77241400D01*
X127152400Y-68351400D02*
X124612400Y-68351400D01*
X124612400Y-75971400D02*
X127152400Y-75971400D01*
X127432400Y-77241400D02*
X127432400Y-78791400D01*
X127432400Y-78791400D02*
X124332400Y-78791400D01*
X136144000Y-100774500D02*
X136144000Y-95694500D01*
X136144000Y-95694500D02*
X133604000Y-95694500D01*
X133604000Y-95694500D02*
X133604000Y-100774500D01*
X133324000Y-103594500D02*
X133324000Y-102044500D01*
X133604000Y-100774500D02*
X136144000Y-100774500D01*
X136424000Y-102044500D02*
X136424000Y-103594500D01*
X136424000Y-103594500D02*
X133324000Y-103594500D01*
D13*
X152717500Y-66230500D02*
X152717500Y-71310500D01*
X152717500Y-66230500D02*
X153987500Y-66865500D01*
X153987500Y-66865500D02*
X153987500Y-70675500D01*
X153987500Y-70675500D02*
X152717500Y-71310500D01*
X152717500Y-66230500D02*
G75*
G03X150177500Y-68770500I0J-2540000D01*
G01*
X150177500Y-68770500D02*
G75*
G03X152717500Y-71310500I2540000J0D01*
G01*
X156718000Y-68707000D02*
X156718000Y-73787000D01*
X156718000Y-68707000D02*
X157988000Y-69342000D01*
X157988000Y-69342000D02*
X157988000Y-73152000D01*
X157988000Y-73152000D02*
X156718000Y-73787000D01*
X156718000Y-68707000D02*
G75*
G03X154178000Y-71247000I0J-2540000D01*
G01*
X154178000Y-71247000D02*
G75*
G03X156718000Y-73787000I2540000J0D01*
G01*
X152971500Y-71691500D02*
X152971500Y-76771500D01*
X152971500Y-71691500D02*
X154241500Y-72326500D01*
X154241500Y-72326500D02*
X154241500Y-76136500D01*
X154241500Y-76136500D02*
X152971500Y-76771500D01*
X152971500Y-71691500D02*
G75*
G03X150431500Y-74231500I0J-2540000D01*
G01*
X150431500Y-74231500D02*
G75*
G03X152971500Y-76771500I2540000J0D01*
G01*
X156781500Y-74549000D02*
X156781500Y-79629000D01*
X156781500Y-74549000D02*
X158051500Y-75184000D01*
X158051500Y-75184000D02*
X158051500Y-78994000D01*
X158051500Y-78994000D02*
X156781500Y-79629000D01*
X156781500Y-74549000D02*
G75*
G03X154241500Y-77089000I0J-2540000D01*
G01*
X154241500Y-77089000D02*
G75*
G03X156781500Y-79629000I2540000J0D01*
G01*
D12*
X136054500Y-74358500D02*
X136054500Y-72808500D01*
X137604500Y-72808500D02*
X136054500Y-72808500D01*
X136334500Y-75628500D02*
X138874500Y-75628500D01*
X138874500Y-75628500D02*
X138874500Y-73088500D01*
X138874500Y-73088500D02*
X141414500Y-73088500D01*
X141414500Y-73088500D02*
X141414500Y-78168500D01*
X141414500Y-78168500D02*
X136334500Y-78168500D01*
X136334500Y-78168500D02*
X136334500Y-75628500D01*
X138837000Y-80492000D02*
X138837000Y-82042000D01*
X135737000Y-82042000D02*
X135737000Y-80492000D01*
X135737000Y-80492000D02*
X138837000Y-80492000D01*
X136017000Y-83312000D02*
X138557000Y-83312000D01*
X147609000Y-66371500D02*
X148809000Y-66371500D01*
X148809000Y-68121500D02*
X147609000Y-68121500D01*
X147609000Y-70181500D02*
X148809000Y-70181500D01*
X148809000Y-71931500D02*
X147609000Y-71931500D01*
X161382000Y-68058000D02*
X160182000Y-68058000D01*
X160182000Y-66308000D02*
X161382000Y-66308000D01*
X161382000Y-70217000D02*
X160182000Y-70217000D01*
X160182000Y-68467000D02*
X161382000Y-68467000D01*
X147609000Y-72277000D02*
X148809000Y-72277000D01*
X148809000Y-74027000D02*
X147609000Y-74027000D01*
X161242300Y-75182700D02*
X160042300Y-75182700D01*
X160042300Y-73432700D02*
X161242300Y-73432700D01*
X161216900Y-77341700D02*
X160016900Y-77341700D01*
X160016900Y-75591700D02*
X161216900Y-75591700D01*
D18*
X128016000Y-80899000D02*
X126365000Y-80899000D01*
X132334000Y-80899000D02*
X133985000Y-80899000D01*
X132334000Y-81788000D02*
X132334000Y-80010000D01*
X132334000Y-80010000D02*
X128016000Y-80010000D01*
X128016000Y-80010000D02*
X128016000Y-81788000D01*
X128016000Y-81788000D02*
X132334000Y-81788000D01*
X128016000Y-83629500D02*
X126365000Y-83629500D01*
X132334000Y-83629500D02*
X133985000Y-83629500D01*
X132334000Y-84518500D02*
X132334000Y-82740500D01*
X132334000Y-82740500D02*
X128016000Y-82740500D01*
X128016000Y-82740500D02*
X128016000Y-84518500D01*
X128016000Y-84518500D02*
X132334000Y-84518500D01*
X132334000Y-86296500D02*
X133985000Y-86296500D01*
X128016000Y-86296500D02*
X126365000Y-86296500D01*
X128016000Y-85407500D02*
X128016000Y-87185500D01*
X128016000Y-87185500D02*
X132334000Y-87185500D01*
X132334000Y-87185500D02*
X132334000Y-85407500D01*
X132334000Y-85407500D02*
X128016000Y-85407500D01*
D12*
X147672500Y-76150500D02*
X148872500Y-76150500D01*
X148872500Y-77900500D02*
X147672500Y-77900500D01*
X142684500Y-69532500D02*
X142684500Y-77152500D01*
X145224500Y-69532500D02*
X145224500Y-77152500D01*
X145504500Y-66712500D02*
X145504500Y-68262500D01*
X142684500Y-77152500D02*
X145224500Y-77152500D01*
X145224500Y-69532500D02*
X142684500Y-69532500D01*
X142404500Y-68262500D02*
X142404500Y-66712500D01*
X142404500Y-66712500D02*
X145504500Y-66712500D01*
X163830000Y-70104000D02*
X163830000Y-77724000D01*
X166370000Y-70104000D02*
X166370000Y-77724000D01*
X166650000Y-67284000D02*
X166650000Y-68834000D01*
X163830000Y-77724000D02*
X166370000Y-77724000D01*
X166370000Y-70104000D02*
X163830000Y-70104000D01*
X163550000Y-68834000D02*
X163550000Y-67284000D01*
X163550000Y-67284000D02*
X166650000Y-67284000D01*
X132643714Y-82285781D02*
X132643714Y-81285781D01*
X133024667Y-81285781D01*
X133119905Y-81333400D01*
X133167524Y-81381019D01*
X133215143Y-81476257D01*
X133215143Y-81619114D01*
X133167524Y-81714352D01*
X133119905Y-81761971D01*
X133024667Y-81809590D01*
X132643714Y-81809590D01*
X134167524Y-82285781D02*
X133596095Y-82285781D01*
X133881809Y-82285781D02*
X133881809Y-81285781D01*
X133786571Y-81428638D01*
X133691333Y-81523876D01*
X133596095Y-81571495D01*
X135024667Y-81619114D02*
X135024667Y-82285781D01*
X134786571Y-81238162D02*
X134548476Y-81952448D01*
X135167524Y-81952448D01*
D15*
X113689429Y-136624857D02*
X112165429Y-136624857D01*
X112165429Y-136044285D01*
X112238000Y-135899143D01*
X112310571Y-135826571D01*
X112455714Y-135754000D01*
X112673429Y-135754000D01*
X112818571Y-135826571D01*
X112891143Y-135899143D01*
X112963714Y-136044285D01*
X112963714Y-136624857D01*
X113689429Y-134302571D02*
X113689429Y-135173428D01*
X113689429Y-134738000D02*
X112165429Y-134738000D01*
X112383143Y-134883143D01*
X112528286Y-135028285D01*
X112600857Y-135173428D01*
X113989429Y-118424857D02*
X112465429Y-118424857D01*
X112465429Y-117844285D01*
X112538000Y-117699143D01*
X112610571Y-117626571D01*
X112755714Y-117554000D01*
X112973429Y-117554000D01*
X113118571Y-117626571D01*
X113191143Y-117699143D01*
X113263714Y-117844285D01*
X113263714Y-118424857D01*
X112610571Y-116973428D02*
X112538000Y-116900857D01*
X112465429Y-116755714D01*
X112465429Y-116392857D01*
X112538000Y-116247714D01*
X112610571Y-116175143D01*
X112755714Y-116102571D01*
X112900857Y-116102571D01*
X113118571Y-116175143D01*
X113989429Y-117046000D01*
X113989429Y-116102571D01*
X113739429Y-100224857D02*
X112215429Y-100224857D01*
X112215429Y-99644285D01*
X112288000Y-99499143D01*
X112360571Y-99426571D01*
X112505714Y-99354000D01*
X112723429Y-99354000D01*
X112868571Y-99426571D01*
X112941143Y-99499143D01*
X113013714Y-99644285D01*
X113013714Y-100224857D01*
X112215429Y-98846000D02*
X112215429Y-97902571D01*
X112796000Y-98410571D01*
X112796000Y-98192857D01*
X112868571Y-98047714D01*
X112941143Y-97975143D01*
X113086286Y-97902571D01*
X113449143Y-97902571D01*
X113594286Y-97975143D01*
X113666857Y-98047714D01*
X113739429Y-98192857D01*
X113739429Y-98628285D01*
X113666857Y-98773428D01*
X113594286Y-98846000D01*
X113689429Y-81874857D02*
X112165429Y-81874857D01*
X112165429Y-81294285D01*
X112238000Y-81149143D01*
X112310571Y-81076571D01*
X112455714Y-81004000D01*
X112673429Y-81004000D01*
X112818571Y-81076571D01*
X112891143Y-81149143D01*
X112963714Y-81294285D01*
X112963714Y-81874857D01*
X112673429Y-79697714D02*
X113689429Y-79697714D01*
X112092857Y-80060571D02*
X113181429Y-80423428D01*
X113181429Y-79480000D01*
X69189429Y-80624857D02*
X67665429Y-80624857D01*
X67665429Y-80044285D01*
X67738000Y-79899143D01*
X67810571Y-79826571D01*
X67955714Y-79754000D01*
X68173429Y-79754000D01*
X68318571Y-79826571D01*
X68391143Y-79899143D01*
X68463714Y-80044285D01*
X68463714Y-80624857D01*
X67665429Y-78375143D02*
X67665429Y-79100857D01*
X68391143Y-79173428D01*
X68318571Y-79100857D01*
X68246000Y-78955714D01*
X68246000Y-78592857D01*
X68318571Y-78447714D01*
X68391143Y-78375143D01*
X68536286Y-78302571D01*
X68899143Y-78302571D01*
X69044286Y-78375143D01*
X69116857Y-78447714D01*
X69189429Y-78592857D01*
X69189429Y-78955714D01*
X69116857Y-79100857D01*
X69044286Y-79173428D01*
X69189429Y-115874857D02*
X67665429Y-115874857D01*
X67665429Y-115294285D01*
X67738000Y-115149143D01*
X67810571Y-115076571D01*
X67955714Y-115004000D01*
X68173429Y-115004000D01*
X68318571Y-115076571D01*
X68391143Y-115149143D01*
X68463714Y-115294285D01*
X68463714Y-115874857D01*
X67665429Y-114496000D02*
X67665429Y-113480000D01*
X69189429Y-114133143D01*
X69189429Y-133124857D02*
X67665429Y-133124857D01*
X67665429Y-132544285D01*
X67738000Y-132399143D01*
X67810571Y-132326571D01*
X67955714Y-132254000D01*
X68173429Y-132254000D01*
X68318571Y-132326571D01*
X68391143Y-132399143D01*
X68463714Y-132544285D01*
X68463714Y-133124857D01*
X68318571Y-131383143D02*
X68246000Y-131528285D01*
X68173429Y-131600857D01*
X68028286Y-131673428D01*
X67955714Y-131673428D01*
X67810571Y-131600857D01*
X67738000Y-131528285D01*
X67665429Y-131383143D01*
X67665429Y-131092857D01*
X67738000Y-130947714D01*
X67810571Y-130875143D01*
X67955714Y-130802571D01*
X68028286Y-130802571D01*
X68173429Y-130875143D01*
X68246000Y-130947714D01*
X68318571Y-131092857D01*
X68318571Y-131383143D01*
X68391143Y-131528285D01*
X68463714Y-131600857D01*
X68608857Y-131673428D01*
X68899143Y-131673428D01*
X69044286Y-131600857D01*
X69116857Y-131528285D01*
X69189429Y-131383143D01*
X69189429Y-131092857D01*
X69116857Y-130947714D01*
X69044286Y-130875143D01*
X68899143Y-130802571D01*
X68608857Y-130802571D01*
X68463714Y-130875143D01*
X68391143Y-130947714D01*
X68318571Y-131092857D01*
X68165429Y-66258000D02*
X69254000Y-66258000D01*
X69471714Y-66330572D01*
X69616857Y-66475715D01*
X69689429Y-66693429D01*
X69689429Y-66838572D01*
X69689429Y-64734000D02*
X69689429Y-65604857D01*
X69689429Y-65169429D02*
X68165429Y-65169429D01*
X68383143Y-65314572D01*
X68528286Y-65459714D01*
X68600857Y-65604857D01*
X113665429Y-67258000D02*
X114754000Y-67258000D01*
X114971714Y-67330572D01*
X115116857Y-67475715D01*
X115189429Y-67693429D01*
X115189429Y-67838572D01*
X113810571Y-66604857D02*
X113738000Y-66532286D01*
X113665429Y-66387143D01*
X113665429Y-66024286D01*
X113738000Y-65879143D01*
X113810571Y-65806572D01*
X113955714Y-65734000D01*
X114100857Y-65734000D01*
X114318571Y-65806572D01*
X115189429Y-66677429D01*
X115189429Y-65734000D01*
D12*
X83011905Y-50952381D02*
X83011905Y-49952381D01*
X83392858Y-49952381D01*
X83488096Y-50000000D01*
X83535715Y-50047619D01*
X83583334Y-50142857D01*
X83583334Y-50285714D01*
X83535715Y-50380952D01*
X83488096Y-50428571D01*
X83392858Y-50476190D01*
X83011905Y-50476190D01*
X84059524Y-50952381D02*
X84250000Y-50952381D01*
X84345239Y-50904762D01*
X84392858Y-50857143D01*
X84488096Y-50714286D01*
X84535715Y-50523810D01*
X84535715Y-50142857D01*
X84488096Y-50047619D01*
X84440477Y-50000000D01*
X84345239Y-49952381D01*
X84154762Y-49952381D01*
X84059524Y-50000000D01*
X84011905Y-50047619D01*
X83964286Y-50142857D01*
X83964286Y-50380952D01*
X84011905Y-50476190D01*
X84059524Y-50523810D01*
X84154762Y-50571429D01*
X84345239Y-50571429D01*
X84440477Y-50523810D01*
X84488096Y-50476190D01*
X84535715Y-50380952D01*
X97535714Y-58852381D02*
X97535714Y-57852381D01*
X97916667Y-57852381D01*
X98011905Y-57900000D01*
X98059524Y-57947619D01*
X98107143Y-58042857D01*
X98107143Y-58185714D01*
X98059524Y-58280952D01*
X98011905Y-58328571D01*
X97916667Y-58376190D01*
X97535714Y-58376190D01*
X99059524Y-58852381D02*
X98488095Y-58852381D01*
X98773809Y-58852381D02*
X98773809Y-57852381D01*
X98678571Y-57995238D01*
X98583333Y-58090476D01*
X98488095Y-58138095D01*
X99678571Y-57852381D02*
X99773810Y-57852381D01*
X99869048Y-57900000D01*
X99916667Y-57947619D01*
X99964286Y-58042857D01*
X100011905Y-58233333D01*
X100011905Y-58471429D01*
X99964286Y-58661905D01*
X99916667Y-58757143D01*
X99869048Y-58804762D01*
X99773810Y-58852381D01*
X99678571Y-58852381D01*
X99583333Y-58804762D01*
X99535714Y-58757143D01*
X99488095Y-58661905D01*
X99440476Y-58471429D01*
X99440476Y-58233333D01*
X99488095Y-58042857D01*
X99535714Y-57947619D01*
X99583333Y-57900000D01*
X99678571Y-57852381D01*
X100285714Y-133702381D02*
X100285714Y-132702381D01*
X100666667Y-132702381D01*
X100761905Y-132750000D01*
X100809524Y-132797619D01*
X100857143Y-132892857D01*
X100857143Y-133035714D01*
X100809524Y-133130952D01*
X100761905Y-133178571D01*
X100666667Y-133226190D01*
X100285714Y-133226190D01*
X101809524Y-133702381D02*
X101238095Y-133702381D01*
X101523809Y-133702381D02*
X101523809Y-132702381D01*
X101428571Y-132845238D01*
X101333333Y-132940476D01*
X101238095Y-132988095D01*
X102761905Y-133702381D02*
X102190476Y-133702381D01*
X102476190Y-133702381D02*
X102476190Y-132702381D01*
X102380952Y-132845238D01*
X102285714Y-132940476D01*
X102190476Y-132988095D01*
D11*
X77928572Y-142178571D02*
X77928572Y-140678571D01*
X78500000Y-140678571D01*
X78642858Y-140750000D01*
X78714286Y-140821429D01*
X78785715Y-140964286D01*
X78785715Y-141178571D01*
X78714286Y-141321429D01*
X78642858Y-141392857D01*
X78500000Y-141464286D01*
X77928572Y-141464286D01*
X80214286Y-142178571D02*
X79357143Y-142178571D01*
X79785715Y-142178571D02*
X79785715Y-140678571D01*
X79642858Y-140892857D01*
X79500000Y-141035714D01*
X79357143Y-141107143D01*
X80785714Y-140821429D02*
X80857143Y-140750000D01*
X81000000Y-140678571D01*
X81357143Y-140678571D01*
X81500000Y-140750000D01*
X81571429Y-140821429D01*
X81642857Y-140964286D01*
X81642857Y-141107143D01*
X81571429Y-141321429D01*
X80714286Y-142178571D01*
X81642857Y-142178571D01*
D15*
X86414429Y-54722486D02*
X86341858Y-54795057D01*
X86124144Y-54867629D01*
X85979001Y-54867629D01*
X85761286Y-54795057D01*
X85616144Y-54649914D01*
X85543572Y-54504771D01*
X85471001Y-54214486D01*
X85471001Y-53996771D01*
X85543572Y-53706486D01*
X85616144Y-53561343D01*
X85761286Y-53416200D01*
X85979001Y-53343629D01*
X86124144Y-53343629D01*
X86341858Y-53416200D01*
X86414429Y-53488771D01*
X87357858Y-53343629D02*
X87648144Y-53343629D01*
X87793286Y-53416200D01*
X87938429Y-53561343D01*
X88011001Y-53851629D01*
X88011001Y-54359629D01*
X87938429Y-54649914D01*
X87793286Y-54795057D01*
X87648144Y-54867629D01*
X87357858Y-54867629D01*
X87212715Y-54795057D01*
X87067572Y-54649914D01*
X86995001Y-54359629D01*
X86995001Y-53851629D01*
X87067572Y-53561343D01*
X87212715Y-53416200D01*
X87357858Y-53343629D01*
X88664143Y-54867629D02*
X88664143Y-53343629D01*
X89535000Y-54867629D01*
X89535000Y-53343629D01*
X91059000Y-54867629D02*
X90188143Y-54867629D01*
X90623571Y-54867629D02*
X90623571Y-53343629D01*
X90478428Y-53561343D01*
X90333286Y-53706486D01*
X90188143Y-53779057D01*
X132742000Y-145165429D02*
X132742000Y-146254000D01*
X132669428Y-146471714D01*
X132524285Y-146616857D01*
X132306571Y-146689429D01*
X132161428Y-146689429D01*
X133322571Y-145165429D02*
X134266000Y-145165429D01*
X133758000Y-145746000D01*
X133975714Y-145746000D01*
X134120857Y-145818571D01*
X134193428Y-145891143D01*
X134266000Y-146036286D01*
X134266000Y-146399143D01*
X134193428Y-146544286D01*
X134120857Y-146616857D01*
X133975714Y-146689429D01*
X133540286Y-146689429D01*
X133395143Y-146616857D01*
X133322571Y-146544286D01*
D12*
X155785714Y-127202381D02*
X155785714Y-126202381D01*
X156166667Y-126202381D01*
X156261905Y-126250000D01*
X156309524Y-126297619D01*
X156357143Y-126392857D01*
X156357143Y-126535714D01*
X156309524Y-126630952D01*
X156261905Y-126678571D01*
X156166667Y-126726190D01*
X155785714Y-126726190D01*
X157309524Y-127202381D02*
X156738095Y-127202381D01*
X157023809Y-127202381D02*
X157023809Y-126202381D01*
X156928571Y-126345238D01*
X156833333Y-126440476D01*
X156738095Y-126488095D01*
X157642857Y-126202381D02*
X158261905Y-126202381D01*
X157928571Y-126583333D01*
X158071429Y-126583333D01*
X158166667Y-126630952D01*
X158214286Y-126678571D01*
X158261905Y-126773810D01*
X158261905Y-127011905D01*
X158214286Y-127107143D01*
X158166667Y-127154762D01*
X158071429Y-127202381D01*
X157785714Y-127202381D01*
X157690476Y-127154762D01*
X157642857Y-127107143D01*
X100535714Y-130452381D02*
X100535714Y-129452381D01*
X100916667Y-129452381D01*
X101011905Y-129500000D01*
X101059524Y-129547619D01*
X101107143Y-129642857D01*
X101107143Y-129785714D01*
X101059524Y-129880952D01*
X101011905Y-129928571D01*
X100916667Y-129976190D01*
X100535714Y-129976190D01*
X102059524Y-130452381D02*
X101488095Y-130452381D01*
X101773809Y-130452381D02*
X101773809Y-129452381D01*
X101678571Y-129595238D01*
X101583333Y-129690476D01*
X101488095Y-129738095D01*
X102392857Y-129452381D02*
X103059524Y-129452381D01*
X102630952Y-130452381D01*
X100535714Y-120452381D02*
X100535714Y-119452381D01*
X100916667Y-119452381D01*
X101011905Y-119500000D01*
X101059524Y-119547619D01*
X101107143Y-119642857D01*
X101107143Y-119785714D01*
X101059524Y-119880952D01*
X101011905Y-119928571D01*
X100916667Y-119976190D01*
X100535714Y-119976190D01*
X102059524Y-120452381D02*
X101488095Y-120452381D01*
X101773809Y-120452381D02*
X101773809Y-119452381D01*
X101678571Y-119595238D01*
X101583333Y-119690476D01*
X101488095Y-119738095D01*
X102630952Y-119880952D02*
X102535714Y-119833333D01*
X102488095Y-119785714D01*
X102440476Y-119690476D01*
X102440476Y-119642857D01*
X102488095Y-119547619D01*
X102535714Y-119500000D01*
X102630952Y-119452381D01*
X102821429Y-119452381D01*
X102916667Y-119500000D01*
X102964286Y-119547619D01*
X103011905Y-119642857D01*
X103011905Y-119690476D01*
X102964286Y-119785714D01*
X102916667Y-119833333D01*
X102821429Y-119880952D01*
X102630952Y-119880952D01*
X102535714Y-119928571D01*
X102488095Y-119976190D01*
X102440476Y-120071429D01*
X102440476Y-120261905D01*
X102488095Y-120357143D01*
X102535714Y-120404762D01*
X102630952Y-120452381D01*
X102821429Y-120452381D01*
X102916667Y-120404762D01*
X102964286Y-120357143D01*
X103011905Y-120261905D01*
X103011905Y-120071429D01*
X102964286Y-119976190D01*
X102916667Y-119928571D01*
X102821429Y-119880952D01*
D11*
X76178572Y-51678571D02*
X76178572Y-50178571D01*
X76750000Y-50178571D01*
X76892858Y-50250000D01*
X76964286Y-50321429D01*
X77035715Y-50464286D01*
X77035715Y-50678571D01*
X76964286Y-50821429D01*
X76892858Y-50892857D01*
X76750000Y-50964286D01*
X76178572Y-50964286D01*
X77607143Y-50321429D02*
X77678572Y-50250000D01*
X77821429Y-50178571D01*
X78178572Y-50178571D01*
X78321429Y-50250000D01*
X78392858Y-50321429D01*
X78464286Y-50464286D01*
X78464286Y-50607143D01*
X78392858Y-50821429D01*
X77535715Y-51678571D01*
X78464286Y-51678571D01*
X79392857Y-50178571D02*
X79535714Y-50178571D01*
X79678571Y-50250000D01*
X79750000Y-50321429D01*
X79821429Y-50464286D01*
X79892857Y-50750000D01*
X79892857Y-51107143D01*
X79821429Y-51392857D01*
X79750000Y-51535714D01*
X79678571Y-51607143D01*
X79535714Y-51678571D01*
X79392857Y-51678571D01*
X79250000Y-51607143D01*
X79178571Y-51535714D01*
X79107143Y-51392857D01*
X79035714Y-51107143D01*
X79035714Y-50750000D01*
X79107143Y-50464286D01*
X79178571Y-50321429D01*
X79250000Y-50250000D01*
X79392857Y-50178571D01*
D12*
X97294381Y-56237166D02*
X96818190Y-56570500D01*
X97294381Y-56808595D02*
X96294381Y-56808595D01*
X96294381Y-56427642D01*
X96342000Y-56332404D01*
X96389619Y-56284785D01*
X96484857Y-56237166D01*
X96627714Y-56237166D01*
X96722952Y-56284785D01*
X96770571Y-56332404D01*
X96818190Y-56427642D01*
X96818190Y-56808595D01*
X97294381Y-55284785D02*
X97294381Y-55856214D01*
X97294381Y-55570500D02*
X96294381Y-55570500D01*
X96437238Y-55665738D01*
X96532476Y-55760976D01*
X96580095Y-55856214D01*
D20*
X149187505Y-92604469D02*
X149187505Y-93211045D01*
X149223186Y-93282407D01*
X149258867Y-93318088D01*
X149330229Y-93353769D01*
X149472952Y-93353769D01*
X149544314Y-93318088D01*
X149579995Y-93282407D01*
X149615676Y-93211045D01*
X149615676Y-92604469D01*
X150364976Y-93353769D02*
X149936805Y-93353769D01*
X150150891Y-93353769D02*
X150150891Y-92604469D01*
X150079529Y-92711512D01*
X150008167Y-92782874D01*
X149936805Y-92818555D01*
D12*
X100052381Y-64214286D02*
X99052381Y-64214286D01*
X99052381Y-63833333D01*
X99100000Y-63738095D01*
X99147619Y-63690476D01*
X99242857Y-63642857D01*
X99385714Y-63642857D01*
X99480952Y-63690476D01*
X99528571Y-63738095D01*
X99576190Y-63833333D01*
X99576190Y-64214286D01*
X100052381Y-62690476D02*
X100052381Y-63261905D01*
X100052381Y-62976191D02*
X99052381Y-62976191D01*
X99195238Y-63071429D01*
X99290476Y-63166667D01*
X99338095Y-63261905D01*
X100052381Y-62214286D02*
X100052381Y-62023810D01*
X100004762Y-61928571D01*
X99957143Y-61880952D01*
X99814286Y-61785714D01*
X99623810Y-61738095D01*
X99242857Y-61738095D01*
X99147619Y-61785714D01*
X99100000Y-61833333D01*
X99052381Y-61928571D01*
X99052381Y-62119048D01*
X99100000Y-62214286D01*
X99147619Y-62261905D01*
X99242857Y-62309524D01*
X99480952Y-62309524D01*
X99576190Y-62261905D01*
X99623810Y-62214286D01*
X99671429Y-62119048D01*
X99671429Y-61928571D01*
X99623810Y-61833333D01*
X99576190Y-61785714D01*
X99480952Y-61738095D01*
D21*
X152230667Y-84309857D02*
X152182286Y-84358238D01*
X152037143Y-84406619D01*
X151940381Y-84406619D01*
X151795239Y-84358238D01*
X151698477Y-84261476D01*
X151650096Y-84164714D01*
X151601715Y-83971190D01*
X151601715Y-83826048D01*
X151650096Y-83632524D01*
X151698477Y-83535762D01*
X151795239Y-83439000D01*
X151940381Y-83390619D01*
X152037143Y-83390619D01*
X152182286Y-83439000D01*
X152230667Y-83487381D01*
X153198286Y-84406619D02*
X152617715Y-84406619D01*
X152908001Y-84406619D02*
X152908001Y-83390619D01*
X152811239Y-83535762D01*
X152714477Y-83632524D01*
X152617715Y-83680905D01*
D16*
X129039881Y-60777286D02*
X128039881Y-60777286D01*
X128039881Y-60396333D01*
X128087500Y-60301095D01*
X128135119Y-60253476D01*
X128230357Y-60205857D01*
X128373214Y-60205857D01*
X128468452Y-60253476D01*
X128516071Y-60301095D01*
X128563690Y-60396333D01*
X128563690Y-60777286D01*
X129039881Y-59253476D02*
X129039881Y-59824905D01*
X129039881Y-59539191D02*
X128039881Y-59539191D01*
X128182738Y-59634429D01*
X128277976Y-59729667D01*
X128325595Y-59824905D01*
X128039881Y-58348714D02*
X128039881Y-58824905D01*
X128516071Y-58872524D01*
X128468452Y-58824905D01*
X128420833Y-58729667D01*
X128420833Y-58491571D01*
X128468452Y-58396333D01*
X128516071Y-58348714D01*
X128611310Y-58301095D01*
X128849405Y-58301095D01*
X128944643Y-58348714D01*
X128992262Y-58396333D01*
X129039881Y-58491571D01*
X129039881Y-58729667D01*
X128992262Y-58824905D01*
X128944643Y-58872524D01*
D15*
X139255500Y-90650786D02*
X139182929Y-90723357D01*
X138965215Y-90795929D01*
X138820072Y-90795929D01*
X138602357Y-90723357D01*
X138457215Y-90578214D01*
X138384643Y-90433071D01*
X138312072Y-90142786D01*
X138312072Y-89925071D01*
X138384643Y-89634786D01*
X138457215Y-89489643D01*
X138602357Y-89344500D01*
X138820072Y-89271929D01*
X138965215Y-89271929D01*
X139182929Y-89344500D01*
X139255500Y-89417071D01*
X139836072Y-89417071D02*
X139908643Y-89344500D01*
X140053786Y-89271929D01*
X140416643Y-89271929D01*
X140561786Y-89344500D01*
X140634357Y-89417071D01*
X140706929Y-89562214D01*
X140706929Y-89707357D01*
X140634357Y-89925071D01*
X139763500Y-90795929D01*
X140706929Y-90795929D01*
X135128000Y-88555286D02*
X135055429Y-88627857D01*
X134837715Y-88700429D01*
X134692572Y-88700429D01*
X134474857Y-88627857D01*
X134329715Y-88482714D01*
X134257143Y-88337571D01*
X134184572Y-88047286D01*
X134184572Y-87829571D01*
X134257143Y-87539286D01*
X134329715Y-87394143D01*
X134474857Y-87249000D01*
X134692572Y-87176429D01*
X134837715Y-87176429D01*
X135055429Y-87249000D01*
X135128000Y-87321571D01*
X135636000Y-87176429D02*
X136579429Y-87176429D01*
X136071429Y-87757000D01*
X136289143Y-87757000D01*
X136434286Y-87829571D01*
X136506857Y-87902143D01*
X136579429Y-88047286D01*
X136579429Y-88410143D01*
X136506857Y-88555286D01*
X136434286Y-88627857D01*
X136289143Y-88700429D01*
X135853715Y-88700429D01*
X135708572Y-88627857D01*
X135636000Y-88555286D01*
D12*
X141280925Y-88460841D02*
X141280925Y-87460841D01*
X141519020Y-87460841D01*
X141661878Y-87508460D01*
X141757116Y-87603698D01*
X141804735Y-87698936D01*
X141852354Y-87889412D01*
X141852354Y-88032270D01*
X141804735Y-88222746D01*
X141757116Y-88317984D01*
X141661878Y-88413222D01*
X141519020Y-88460841D01*
X141280925Y-88460841D01*
X142804735Y-88460841D02*
X142233306Y-88460841D01*
X142519020Y-88460841D02*
X142519020Y-87460841D01*
X142423782Y-87603698D01*
X142328544Y-87698936D01*
X142233306Y-87746555D01*
D15*
X68939429Y-98624857D02*
X67415429Y-98624857D01*
X67415429Y-98044285D01*
X67488000Y-97899143D01*
X67560571Y-97826571D01*
X67705714Y-97754000D01*
X67923429Y-97754000D01*
X68068571Y-97826571D01*
X68141143Y-97899143D01*
X68213714Y-98044285D01*
X68213714Y-98624857D01*
X67415429Y-96447714D02*
X67415429Y-96738000D01*
X67488000Y-96883143D01*
X67560571Y-96955714D01*
X67778286Y-97100857D01*
X68068571Y-97173428D01*
X68649143Y-97173428D01*
X68794286Y-97100857D01*
X68866857Y-97028285D01*
X68939429Y-96883143D01*
X68939429Y-96592857D01*
X68866857Y-96447714D01*
X68794286Y-96375143D01*
X68649143Y-96302571D01*
X68286286Y-96302571D01*
X68141143Y-96375143D01*
X68068571Y-96447714D01*
X67996000Y-96592857D01*
X67996000Y-96883143D01*
X68068571Y-97028285D01*
X68141143Y-97100857D01*
X68286286Y-97173428D01*
D12*
X160789881Y-89384166D02*
X160789881Y-89860357D01*
X159789881Y-89860357D01*
X160789881Y-88527023D02*
X160789881Y-89098452D01*
X160789881Y-88812738D02*
X159789881Y-88812738D01*
X159932738Y-88907976D01*
X160027976Y-89003214D01*
X160075595Y-89098452D01*
X140937943Y-108675466D02*
X140985562Y-108723085D01*
X141033181Y-108865942D01*
X141033181Y-108961180D01*
X140985562Y-109104038D01*
X140890324Y-109199276D01*
X140795086Y-109246895D01*
X140604610Y-109294514D01*
X140461752Y-109294514D01*
X140271276Y-109246895D01*
X140176038Y-109199276D01*
X140080800Y-109104038D01*
X140033181Y-108961180D01*
X140033181Y-108865942D01*
X140080800Y-108723085D01*
X140128419Y-108675466D01*
X140366514Y-107818323D02*
X141033181Y-107818323D01*
X139985562Y-108056419D02*
X140699848Y-108294514D01*
X140699848Y-107675466D01*
X149566334Y-103163643D02*
X149518715Y-103211262D01*
X149375858Y-103258881D01*
X149280620Y-103258881D01*
X149137762Y-103211262D01*
X149042524Y-103116024D01*
X148994905Y-103020786D01*
X148947286Y-102830310D01*
X148947286Y-102687452D01*
X148994905Y-102496976D01*
X149042524Y-102401738D01*
X149137762Y-102306500D01*
X149280620Y-102258881D01*
X149375858Y-102258881D01*
X149518715Y-102306500D01*
X149566334Y-102354119D01*
X150471096Y-102258881D02*
X149994905Y-102258881D01*
X149947286Y-102735071D01*
X149994905Y-102687452D01*
X150090143Y-102639833D01*
X150328239Y-102639833D01*
X150423477Y-102687452D01*
X150471096Y-102735071D01*
X150518715Y-102830310D01*
X150518715Y-103068405D01*
X150471096Y-103163643D01*
X150423477Y-103211262D01*
X150328239Y-103258881D01*
X150090143Y-103258881D01*
X149994905Y-103211262D01*
X149947286Y-103163643D01*
X139761934Y-112193343D02*
X139714315Y-112240962D01*
X139571458Y-112288581D01*
X139476220Y-112288581D01*
X139333362Y-112240962D01*
X139238124Y-112145724D01*
X139190505Y-112050486D01*
X139142886Y-111860010D01*
X139142886Y-111717152D01*
X139190505Y-111526676D01*
X139238124Y-111431438D01*
X139333362Y-111336200D01*
X139476220Y-111288581D01*
X139571458Y-111288581D01*
X139714315Y-111336200D01*
X139761934Y-111383819D01*
X140619077Y-111288581D02*
X140428600Y-111288581D01*
X140333362Y-111336200D01*
X140285743Y-111383819D01*
X140190505Y-111526676D01*
X140142886Y-111717152D01*
X140142886Y-112098105D01*
X140190505Y-112193343D01*
X140238124Y-112240962D01*
X140333362Y-112288581D01*
X140523839Y-112288581D01*
X140619077Y-112240962D01*
X140666696Y-112193343D01*
X140714315Y-112098105D01*
X140714315Y-111860010D01*
X140666696Y-111764771D01*
X140619077Y-111717152D01*
X140523839Y-111669533D01*
X140333362Y-111669533D01*
X140238124Y-111717152D01*
X140190505Y-111764771D01*
X140142886Y-111860010D01*
X150753334Y-110417143D02*
X150705715Y-110464762D01*
X150562858Y-110512381D01*
X150467620Y-110512381D01*
X150324762Y-110464762D01*
X150229524Y-110369524D01*
X150181905Y-110274286D01*
X150134286Y-110083810D01*
X150134286Y-109940952D01*
X150181905Y-109750476D01*
X150229524Y-109655238D01*
X150324762Y-109560000D01*
X150467620Y-109512381D01*
X150562858Y-109512381D01*
X150705715Y-109560000D01*
X150753334Y-109607619D01*
X151086667Y-109512381D02*
X151753334Y-109512381D01*
X151324762Y-110512381D01*
X152804834Y-104560643D02*
X152757215Y-104608262D01*
X152614358Y-104655881D01*
X152519120Y-104655881D01*
X152376262Y-104608262D01*
X152281024Y-104513024D01*
X152233405Y-104417786D01*
X152185786Y-104227310D01*
X152185786Y-104084452D01*
X152233405Y-103893976D01*
X152281024Y-103798738D01*
X152376262Y-103703500D01*
X152519120Y-103655881D01*
X152614358Y-103655881D01*
X152757215Y-103703500D01*
X152804834Y-103751119D01*
X153376262Y-104084452D02*
X153281024Y-104036833D01*
X153233405Y-103989214D01*
X153185786Y-103893976D01*
X153185786Y-103846357D01*
X153233405Y-103751119D01*
X153281024Y-103703500D01*
X153376262Y-103655881D01*
X153566739Y-103655881D01*
X153661977Y-103703500D01*
X153709596Y-103751119D01*
X153757215Y-103846357D01*
X153757215Y-103893976D01*
X153709596Y-103989214D01*
X153661977Y-104036833D01*
X153566739Y-104084452D01*
X153376262Y-104084452D01*
X153281024Y-104132071D01*
X153233405Y-104179690D01*
X153185786Y-104274929D01*
X153185786Y-104465405D01*
X153233405Y-104560643D01*
X153281024Y-104608262D01*
X153376262Y-104655881D01*
X153566739Y-104655881D01*
X153661977Y-104608262D01*
X153709596Y-104560643D01*
X153757215Y-104465405D01*
X153757215Y-104274929D01*
X153709596Y-104179690D01*
X153661977Y-104132071D01*
X153566739Y-104084452D01*
X152804834Y-107100643D02*
X152757215Y-107148262D01*
X152614358Y-107195881D01*
X152519120Y-107195881D01*
X152376262Y-107148262D01*
X152281024Y-107053024D01*
X152233405Y-106957786D01*
X152185786Y-106767310D01*
X152185786Y-106624452D01*
X152233405Y-106433976D01*
X152281024Y-106338738D01*
X152376262Y-106243500D01*
X152519120Y-106195881D01*
X152614358Y-106195881D01*
X152757215Y-106243500D01*
X152804834Y-106291119D01*
X153281024Y-107195881D02*
X153471500Y-107195881D01*
X153566739Y-107148262D01*
X153614358Y-107100643D01*
X153709596Y-106957786D01*
X153757215Y-106767310D01*
X153757215Y-106386357D01*
X153709596Y-106291119D01*
X153661977Y-106243500D01*
X153566739Y-106195881D01*
X153376262Y-106195881D01*
X153281024Y-106243500D01*
X153233405Y-106291119D01*
X153185786Y-106386357D01*
X153185786Y-106624452D01*
X153233405Y-106719690D01*
X153281024Y-106767310D01*
X153376262Y-106814929D01*
X153566739Y-106814929D01*
X153661977Y-106767310D01*
X153709596Y-106719690D01*
X153757215Y-106624452D01*
X156995905Y-121229381D02*
X156995905Y-120229381D01*
X157234000Y-120229381D01*
X157376858Y-120277000D01*
X157472096Y-120372238D01*
X157519715Y-120467476D01*
X157567334Y-120657952D01*
X157567334Y-120800810D01*
X157519715Y-120991286D01*
X157472096Y-121086524D01*
X157376858Y-121181762D01*
X157234000Y-121229381D01*
X156995905Y-121229381D01*
X157948286Y-120324619D02*
X157995905Y-120277000D01*
X158091143Y-120229381D01*
X158329239Y-120229381D01*
X158424477Y-120277000D01*
X158472096Y-120324619D01*
X158519715Y-120419857D01*
X158519715Y-120515095D01*
X158472096Y-120657952D01*
X157900667Y-121229381D01*
X158519715Y-121229381D01*
X156932405Y-117863881D02*
X156932405Y-116863881D01*
X157170500Y-116863881D01*
X157313358Y-116911500D01*
X157408596Y-117006738D01*
X157456215Y-117101976D01*
X157503834Y-117292452D01*
X157503834Y-117435310D01*
X157456215Y-117625786D01*
X157408596Y-117721024D01*
X157313358Y-117816262D01*
X157170500Y-117863881D01*
X156932405Y-117863881D01*
X157837167Y-116863881D02*
X158456215Y-116863881D01*
X158122881Y-117244833D01*
X158265739Y-117244833D01*
X158360977Y-117292452D01*
X158408596Y-117340071D01*
X158456215Y-117435310D01*
X158456215Y-117673405D01*
X158408596Y-117768643D01*
X158360977Y-117816262D01*
X158265739Y-117863881D01*
X157980024Y-117863881D01*
X157884786Y-117816262D01*
X157837167Y-117768643D01*
D22*
X143287875Y-120351576D02*
X143287875Y-119353356D01*
X143668150Y-119353356D01*
X143763218Y-119400890D01*
X143810753Y-119448424D01*
X143858287Y-119543493D01*
X143858287Y-119686096D01*
X143810753Y-119781164D01*
X143763218Y-119828699D01*
X143668150Y-119876233D01*
X143287875Y-119876233D01*
X144238561Y-119448424D02*
X144286095Y-119400890D01*
X144381164Y-119353356D01*
X144618835Y-119353356D01*
X144713904Y-119400890D01*
X144761438Y-119448424D01*
X144808973Y-119543493D01*
X144808973Y-119638561D01*
X144761438Y-119781164D01*
X144191027Y-120351576D01*
X144808973Y-120351576D01*
X145759659Y-120351576D02*
X145189247Y-120351576D01*
X145474453Y-120351576D02*
X145474453Y-119353356D01*
X145379384Y-119495959D01*
X145284316Y-119591027D01*
X145189247Y-119638561D01*
D12*
X163947314Y-97744381D02*
X163947314Y-96744381D01*
X164328267Y-96744381D01*
X164423505Y-96792000D01*
X164471124Y-96839619D01*
X164518743Y-96934857D01*
X164518743Y-97077714D01*
X164471124Y-97172952D01*
X164423505Y-97220571D01*
X164328267Y-97268190D01*
X163947314Y-97268190D01*
X164899695Y-96839619D02*
X164947314Y-96792000D01*
X165042552Y-96744381D01*
X165280648Y-96744381D01*
X165375886Y-96792000D01*
X165423505Y-96839619D01*
X165471124Y-96934857D01*
X165471124Y-97030095D01*
X165423505Y-97172952D01*
X164852076Y-97744381D01*
X165471124Y-97744381D01*
X165852076Y-96839619D02*
X165899695Y-96792000D01*
X165994933Y-96744381D01*
X166233029Y-96744381D01*
X166328267Y-96792000D01*
X166375886Y-96839619D01*
X166423505Y-96934857D01*
X166423505Y-97030095D01*
X166375886Y-97172952D01*
X165804457Y-97744381D01*
X166423505Y-97744381D01*
X146452381Y-102596666D02*
X145976190Y-102930000D01*
X146452381Y-103168095D02*
X145452381Y-103168095D01*
X145452381Y-102787142D01*
X145500000Y-102691904D01*
X145547619Y-102644285D01*
X145642857Y-102596666D01*
X145785714Y-102596666D01*
X145880952Y-102644285D01*
X145928571Y-102691904D01*
X145976190Y-102787142D01*
X145976190Y-103168095D01*
X146452381Y-102120476D02*
X146452381Y-101930000D01*
X146404762Y-101834761D01*
X146357143Y-101787142D01*
X146214286Y-101691904D01*
X146023810Y-101644285D01*
X145642857Y-101644285D01*
X145547619Y-101691904D01*
X145500000Y-101739523D01*
X145452381Y-101834761D01*
X145452381Y-102025238D01*
X145500000Y-102120476D01*
X145547619Y-102168095D01*
X145642857Y-102215714D01*
X145880952Y-102215714D01*
X145976190Y-102168095D01*
X146023810Y-102120476D01*
X146071429Y-102025238D01*
X146071429Y-101834761D01*
X146023810Y-101739523D01*
X145976190Y-101691904D01*
X145880952Y-101644285D01*
D23*
X156380482Y-111379242D02*
X156785552Y-111379242D01*
X156833207Y-111355414D01*
X156857035Y-111331587D01*
X156880862Y-111283931D01*
X156880862Y-111188621D01*
X156857035Y-111140966D01*
X156833207Y-111117138D01*
X156785552Y-111093310D01*
X156380482Y-111093310D01*
X156428138Y-110878862D02*
X156404310Y-110855034D01*
X156380482Y-110807379D01*
X156380482Y-110688241D01*
X156404310Y-110640585D01*
X156428138Y-110616758D01*
X156475793Y-110592930D01*
X156523448Y-110592930D01*
X156594931Y-110616758D01*
X156880862Y-110902689D01*
X156880862Y-110592930D01*
D11*
X124959371Y-113420228D02*
X123459371Y-113420228D01*
X123459371Y-112848800D01*
X123530800Y-112705942D01*
X123602229Y-112634514D01*
X123745086Y-112563085D01*
X123959371Y-112563085D01*
X124102229Y-112634514D01*
X124173657Y-112705942D01*
X124245086Y-112848800D01*
X124245086Y-113420228D01*
X123602229Y-111991657D02*
X123530800Y-111920228D01*
X123459371Y-111777371D01*
X123459371Y-111420228D01*
X123530800Y-111277371D01*
X123602229Y-111205942D01*
X123745086Y-111134514D01*
X123887943Y-111134514D01*
X124102229Y-111205942D01*
X124959371Y-112063085D01*
X124959371Y-111134514D01*
X123459371Y-110634514D02*
X123459371Y-109705943D01*
X124030800Y-110205943D01*
X124030800Y-109991657D01*
X124102229Y-109848800D01*
X124173657Y-109777371D01*
X124316514Y-109705943D01*
X124673657Y-109705943D01*
X124816514Y-109777371D01*
X124887943Y-109848800D01*
X124959371Y-109991657D01*
X124959371Y-110420229D01*
X124887943Y-110563086D01*
X124816514Y-110634514D01*
D12*
X80054214Y-121189881D02*
X80054214Y-120189881D01*
X80435167Y-120189881D01*
X80530405Y-120237500D01*
X80578024Y-120285119D01*
X80625643Y-120380357D01*
X80625643Y-120523214D01*
X80578024Y-120618452D01*
X80530405Y-120666071D01*
X80435167Y-120713690D01*
X80054214Y-120713690D01*
X81006595Y-120285119D02*
X81054214Y-120237500D01*
X81149452Y-120189881D01*
X81387548Y-120189881D01*
X81482786Y-120237500D01*
X81530405Y-120285119D01*
X81578024Y-120380357D01*
X81578024Y-120475595D01*
X81530405Y-120618452D01*
X80958976Y-121189881D01*
X81578024Y-121189881D01*
X82482786Y-120189881D02*
X82006595Y-120189881D01*
X81958976Y-120666071D01*
X82006595Y-120618452D01*
X82101833Y-120570833D01*
X82339929Y-120570833D01*
X82435167Y-120618452D01*
X82482786Y-120666071D01*
X82530405Y-120761310D01*
X82530405Y-120999405D01*
X82482786Y-121094643D01*
X82435167Y-121142262D01*
X82339929Y-121189881D01*
X82101833Y-121189881D01*
X82006595Y-121142262D01*
X81958976Y-121094643D01*
X82773781Y-127395266D02*
X82297590Y-127728600D01*
X82773781Y-127966695D02*
X81773781Y-127966695D01*
X81773781Y-127585742D01*
X81821400Y-127490504D01*
X81869019Y-127442885D01*
X81964257Y-127395266D01*
X82107114Y-127395266D01*
X82202352Y-127442885D01*
X82249971Y-127490504D01*
X82297590Y-127585742D01*
X82297590Y-127966695D01*
X81869019Y-127014314D02*
X81821400Y-126966695D01*
X81773781Y-126871457D01*
X81773781Y-126633361D01*
X81821400Y-126538123D01*
X81869019Y-126490504D01*
X81964257Y-126442885D01*
X82059495Y-126442885D01*
X82202352Y-126490504D01*
X82773781Y-127061933D01*
X82773781Y-126442885D01*
D21*
X149711833Y-100072976D02*
X149288500Y-99407738D01*
X148986119Y-100072976D02*
X148986119Y-98675976D01*
X149469928Y-98675976D01*
X149590881Y-98742500D01*
X149651357Y-98809024D01*
X149711833Y-98942071D01*
X149711833Y-99141643D01*
X149651357Y-99274690D01*
X149590881Y-99341214D01*
X149469928Y-99407738D01*
X148986119Y-99407738D01*
X150860881Y-98675976D02*
X150256119Y-98675976D01*
X150195643Y-99341214D01*
X150256119Y-99274690D01*
X150377071Y-99208167D01*
X150679452Y-99208167D01*
X150800405Y-99274690D01*
X150860881Y-99341214D01*
X150921357Y-99474262D01*
X150921357Y-99806881D01*
X150860881Y-99939929D01*
X150800405Y-100006452D01*
X150679452Y-100072976D01*
X150377071Y-100072976D01*
X150256119Y-100006452D01*
X150195643Y-99939929D01*
X141520333Y-88325476D02*
X141097000Y-87660238D01*
X140794619Y-88325476D02*
X140794619Y-86928476D01*
X141278428Y-86928476D01*
X141399381Y-86995000D01*
X141459857Y-87061524D01*
X141520333Y-87194571D01*
X141520333Y-87394143D01*
X141459857Y-87527190D01*
X141399381Y-87593714D01*
X141278428Y-87660238D01*
X140794619Y-87660238D01*
X142608905Y-86928476D02*
X142367000Y-86928476D01*
X142246048Y-86995000D01*
X142185571Y-87061524D01*
X142064619Y-87261095D01*
X142004143Y-87527190D01*
X142004143Y-88059381D01*
X142064619Y-88192429D01*
X142125095Y-88258952D01*
X142246048Y-88325476D01*
X142487952Y-88325476D01*
X142608905Y-88258952D01*
X142669381Y-88192429D01*
X142729857Y-88059381D01*
X142729857Y-87726762D01*
X142669381Y-87593714D01*
X142608905Y-87527190D01*
X142487952Y-87460667D01*
X142246048Y-87460667D01*
X142125095Y-87527190D01*
X142064619Y-87593714D01*
X142004143Y-87726762D01*
X139887476Y-96033167D02*
X139222238Y-96456500D01*
X139887476Y-96758881D02*
X138490476Y-96758881D01*
X138490476Y-96275072D01*
X138557000Y-96154119D01*
X138623524Y-96093643D01*
X138756571Y-96033167D01*
X138956143Y-96033167D01*
X139089190Y-96093643D01*
X139155714Y-96154119D01*
X139222238Y-96275072D01*
X139222238Y-96758881D01*
X138490476Y-95609833D02*
X138490476Y-94763167D01*
X139887476Y-95307452D01*
D12*
X144302381Y-102556666D02*
X143826190Y-102890000D01*
X144302381Y-103128095D02*
X143302381Y-103128095D01*
X143302381Y-102747142D01*
X143350000Y-102651904D01*
X143397619Y-102604285D01*
X143492857Y-102556666D01*
X143635714Y-102556666D01*
X143730952Y-102604285D01*
X143778571Y-102651904D01*
X143826190Y-102747142D01*
X143826190Y-103128095D01*
X143730952Y-101985238D02*
X143683333Y-102080476D01*
X143635714Y-102128095D01*
X143540476Y-102175714D01*
X143492857Y-102175714D01*
X143397619Y-102128095D01*
X143350000Y-102080476D01*
X143302381Y-101985238D01*
X143302381Y-101794761D01*
X143350000Y-101699523D01*
X143397619Y-101651904D01*
X143492857Y-101604285D01*
X143540476Y-101604285D01*
X143635714Y-101651904D01*
X143683333Y-101699523D01*
X143730952Y-101794761D01*
X143730952Y-101985238D01*
X143778571Y-102080476D01*
X143826190Y-102128095D01*
X143921429Y-102175714D01*
X144111905Y-102175714D01*
X144207143Y-102128095D01*
X144254762Y-102080476D01*
X144302381Y-101985238D01*
X144302381Y-101794761D01*
X144254762Y-101699523D01*
X144207143Y-101651904D01*
X144111905Y-101604285D01*
X143921429Y-101604285D01*
X143826190Y-101651904D01*
X143778571Y-101699523D01*
X143730952Y-101794761D01*
X152755143Y-121171381D02*
X152421809Y-120695190D01*
X152183714Y-121171381D02*
X152183714Y-120171381D01*
X152564667Y-120171381D01*
X152659905Y-120219000D01*
X152707524Y-120266619D01*
X152755143Y-120361857D01*
X152755143Y-120504714D01*
X152707524Y-120599952D01*
X152659905Y-120647571D01*
X152564667Y-120695190D01*
X152183714Y-120695190D01*
X153707524Y-121171381D02*
X153136095Y-121171381D01*
X153421809Y-121171381D02*
X153421809Y-120171381D01*
X153326571Y-120314238D01*
X153231333Y-120409476D01*
X153136095Y-120457095D01*
X154326571Y-120171381D02*
X154421810Y-120171381D01*
X154517048Y-120219000D01*
X154564667Y-120266619D01*
X154612286Y-120361857D01*
X154659905Y-120552333D01*
X154659905Y-120790429D01*
X154612286Y-120980905D01*
X154564667Y-121076143D01*
X154517048Y-121123762D01*
X154421810Y-121171381D01*
X154326571Y-121171381D01*
X154231333Y-121123762D01*
X154183714Y-121076143D01*
X154136095Y-120980905D01*
X154088476Y-120790429D01*
X154088476Y-120552333D01*
X154136095Y-120361857D01*
X154183714Y-120266619D01*
X154231333Y-120219000D01*
X154326571Y-120171381D01*
X152773143Y-117863881D02*
X152439809Y-117387690D01*
X152201714Y-117863881D02*
X152201714Y-116863881D01*
X152582667Y-116863881D01*
X152677905Y-116911500D01*
X152725524Y-116959119D01*
X152773143Y-117054357D01*
X152773143Y-117197214D01*
X152725524Y-117292452D01*
X152677905Y-117340071D01*
X152582667Y-117387690D01*
X152201714Y-117387690D01*
X153725524Y-117863881D02*
X153154095Y-117863881D01*
X153439809Y-117863881D02*
X153439809Y-116863881D01*
X153344571Y-117006738D01*
X153249333Y-117101976D01*
X153154095Y-117149595D01*
X154677905Y-117863881D02*
X154106476Y-117863881D01*
X154392190Y-117863881D02*
X154392190Y-116863881D01*
X154296952Y-117006738D01*
X154201714Y-117101976D01*
X154106476Y-117149595D01*
X149804381Y-112910857D02*
X149328190Y-113244191D01*
X149804381Y-113482286D02*
X148804381Y-113482286D01*
X148804381Y-113101333D01*
X148852000Y-113006095D01*
X148899619Y-112958476D01*
X148994857Y-112910857D01*
X149137714Y-112910857D01*
X149232952Y-112958476D01*
X149280571Y-113006095D01*
X149328190Y-113101333D01*
X149328190Y-113482286D01*
X149804381Y-111958476D02*
X149804381Y-112529905D01*
X149804381Y-112244191D02*
X148804381Y-112244191D01*
X148947238Y-112339429D01*
X149042476Y-112434667D01*
X149090095Y-112529905D01*
X148899619Y-111577524D02*
X148852000Y-111529905D01*
X148804381Y-111434667D01*
X148804381Y-111196571D01*
X148852000Y-111101333D01*
X148899619Y-111053714D01*
X148994857Y-111006095D01*
X149090095Y-111006095D01*
X149232952Y-111053714D01*
X149804381Y-111625143D01*
X149804381Y-111006095D01*
D21*
X149648333Y-97659976D02*
X149225000Y-96994738D01*
X148922619Y-97659976D02*
X148922619Y-96262976D01*
X149406428Y-96262976D01*
X149527381Y-96329500D01*
X149587857Y-96396024D01*
X149648333Y-96529071D01*
X149648333Y-96728643D01*
X149587857Y-96861690D01*
X149527381Y-96928214D01*
X149406428Y-96994738D01*
X148922619Y-96994738D01*
X150736905Y-96728643D02*
X150736905Y-97659976D01*
X150434524Y-96196452D02*
X150132143Y-97194310D01*
X150918333Y-97194310D01*
D12*
X103017581Y-82399095D02*
X102017581Y-82399095D01*
X102017581Y-82161000D01*
X102065200Y-82018142D01*
X102160438Y-81922904D01*
X102255676Y-81875285D01*
X102446152Y-81827666D01*
X102589010Y-81827666D01*
X102779486Y-81875285D01*
X102874724Y-81922904D01*
X102969962Y-82018142D01*
X103017581Y-82161000D01*
X103017581Y-82399095D01*
X102350914Y-80970523D02*
X103017581Y-80970523D01*
X101969962Y-81208619D02*
X102684248Y-81446714D01*
X102684248Y-80827666D01*
X100858581Y-85351905D02*
X99858581Y-85351905D01*
X100858581Y-84780476D02*
X100287152Y-85209048D01*
X99858581Y-84780476D02*
X100430010Y-85351905D01*
D21*
X94230976Y-85271429D02*
X93565738Y-85694762D01*
X94230976Y-85997143D02*
X92833976Y-85997143D01*
X92833976Y-85513334D01*
X92900500Y-85392381D01*
X92967024Y-85331905D01*
X93100071Y-85271429D01*
X93299643Y-85271429D01*
X93432690Y-85331905D01*
X93499214Y-85392381D01*
X93565738Y-85513334D01*
X93565738Y-85997143D01*
X94230976Y-84061905D02*
X94230976Y-84787619D01*
X94230976Y-84424762D02*
X92833976Y-84424762D01*
X93033548Y-84545714D01*
X93166595Y-84666667D01*
X93233119Y-84787619D01*
X92833976Y-83638571D02*
X92833976Y-82852381D01*
X93366167Y-83275714D01*
X93366167Y-83094286D01*
X93432690Y-82973333D01*
X93499214Y-82912857D01*
X93632262Y-82852381D01*
X93964881Y-82852381D01*
X94097929Y-82912857D01*
X94164452Y-82973333D01*
X94230976Y-83094286D01*
X94230976Y-83457143D01*
X94164452Y-83578095D01*
X94097929Y-83638571D01*
X92218933Y-64164029D02*
X91880267Y-64164029D01*
X91880267Y-64696219D02*
X91880267Y-63680219D01*
X92364076Y-63680219D01*
X93283314Y-64696219D02*
X92702743Y-64696219D01*
X92993029Y-64696219D02*
X92993029Y-63680219D01*
X92896267Y-63825362D01*
X92799505Y-63922124D01*
X92702743Y-63970505D01*
X87672333Y-90795929D02*
X87333667Y-90795929D01*
X87333667Y-91328119D02*
X87333667Y-90312119D01*
X87817476Y-90312119D01*
X88156143Y-90408881D02*
X88204524Y-90360500D01*
X88301286Y-90312119D01*
X88543190Y-90312119D01*
X88639952Y-90360500D01*
X88688333Y-90408881D01*
X88736714Y-90505643D01*
X88736714Y-90602405D01*
X88688333Y-90747548D01*
X88107762Y-91328119D01*
X88736714Y-91328119D01*
X82927976Y-133739467D02*
X82262738Y-134162800D01*
X82927976Y-134465181D02*
X81530976Y-134465181D01*
X81530976Y-133981372D01*
X81597500Y-133860419D01*
X81664024Y-133799943D01*
X81797071Y-133739467D01*
X81996643Y-133739467D01*
X82129690Y-133799943D01*
X82196214Y-133860419D01*
X82262738Y-133981372D01*
X82262738Y-134465181D01*
X81530976Y-133316133D02*
X81530976Y-132529943D01*
X82063167Y-132953276D01*
X82063167Y-132771848D01*
X82129690Y-132650895D01*
X82196214Y-132590419D01*
X82329262Y-132529943D01*
X82661881Y-132529943D01*
X82794929Y-132590419D01*
X82861452Y-132650895D01*
X82927976Y-132771848D01*
X82927976Y-133134705D01*
X82861452Y-133255657D01*
X82794929Y-133316133D01*
D12*
X140771571Y-102869904D02*
X140771571Y-103203238D01*
X141295381Y-103203238D02*
X140295381Y-103203238D01*
X140295381Y-102727047D01*
X141247762Y-101965142D02*
X141295381Y-102060380D01*
X141295381Y-102250857D01*
X141247762Y-102346095D01*
X141152524Y-102393714D01*
X140771571Y-102393714D01*
X140676333Y-102346095D01*
X140628714Y-102250857D01*
X140628714Y-102060380D01*
X140676333Y-101965142D01*
X140771571Y-101917523D01*
X140866810Y-101917523D01*
X140962048Y-102393714D01*
X141295381Y-100965142D02*
X141295381Y-101536571D01*
X141295381Y-101250857D02*
X140295381Y-101250857D01*
X140438238Y-101346095D01*
X140533476Y-101441333D01*
X140581095Y-101536571D01*
D15*
X104219828Y-55782029D02*
X104219828Y-54258029D01*
X104800400Y-54258029D01*
X104945542Y-54330600D01*
X105018114Y-54403171D01*
X105090685Y-54548314D01*
X105090685Y-54766029D01*
X105018114Y-54911171D01*
X104945542Y-54983743D01*
X104800400Y-55056314D01*
X104219828Y-55056314D01*
X106542114Y-55782029D02*
X105671257Y-55782029D01*
X106106685Y-55782029D02*
X106106685Y-54258029D01*
X105961542Y-54475743D01*
X105816400Y-54620886D01*
X105671257Y-54693457D01*
X107848400Y-54258029D02*
X107558114Y-54258029D01*
X107412971Y-54330600D01*
X107340400Y-54403171D01*
X107195257Y-54620886D01*
X107122686Y-54911171D01*
X107122686Y-55491743D01*
X107195257Y-55636886D01*
X107267829Y-55709457D01*
X107412971Y-55782029D01*
X107703257Y-55782029D01*
X107848400Y-55709457D01*
X107920971Y-55636886D01*
X107993543Y-55491743D01*
X107993543Y-55128886D01*
X107920971Y-54983743D01*
X107848400Y-54911171D01*
X107703257Y-54838600D01*
X107412971Y-54838600D01*
X107267829Y-54911171D01*
X107195257Y-54983743D01*
X107122686Y-55128886D01*
D12*
X131516381Y-137214095D02*
X130516381Y-137214095D01*
X130516381Y-136976000D01*
X130564000Y-136833142D01*
X130659238Y-136737904D01*
X130754476Y-136690285D01*
X130944952Y-136642666D01*
X131087810Y-136642666D01*
X131278286Y-136690285D01*
X131373524Y-136737904D01*
X131468762Y-136833142D01*
X131516381Y-136976000D01*
X131516381Y-137214095D01*
X130516381Y-135737904D02*
X130516381Y-136214095D01*
X130992571Y-136261714D01*
X130944952Y-136214095D01*
X130897333Y-136118857D01*
X130897333Y-135880761D01*
X130944952Y-135785523D01*
X130992571Y-135737904D01*
X131087810Y-135690285D01*
X131325905Y-135690285D01*
X131421143Y-135737904D01*
X131468762Y-135785523D01*
X131516381Y-135880761D01*
X131516381Y-136118857D01*
X131468762Y-136214095D01*
X131421143Y-136261714D01*
X129357381Y-140166905D02*
X128357381Y-140166905D01*
X129357381Y-139595476D02*
X128785952Y-140024048D01*
X128357381Y-139595476D02*
X128928810Y-140166905D01*
D21*
X132902476Y-141341929D02*
X132237238Y-141765262D01*
X132902476Y-142067643D02*
X131505476Y-142067643D01*
X131505476Y-141583834D01*
X131572000Y-141462881D01*
X131638524Y-141402405D01*
X131771571Y-141341929D01*
X131971143Y-141341929D01*
X132104190Y-141402405D01*
X132170714Y-141462881D01*
X132237238Y-141583834D01*
X132237238Y-142067643D01*
X132902476Y-140132405D02*
X132902476Y-140858119D01*
X132902476Y-140495262D02*
X131505476Y-140495262D01*
X131705048Y-140616214D01*
X131838095Y-140737167D01*
X131904619Y-140858119D01*
X131971143Y-139043833D02*
X132902476Y-139043833D01*
X131438952Y-139346214D02*
X132436810Y-139648595D01*
X132436810Y-138862405D01*
D12*
X149232881Y-82938786D02*
X148232881Y-82938786D01*
X148232881Y-82557833D01*
X148280500Y-82462595D01*
X148328119Y-82414976D01*
X148423357Y-82367357D01*
X148566214Y-82367357D01*
X148661452Y-82414976D01*
X148709071Y-82462595D01*
X148756690Y-82557833D01*
X148756690Y-82938786D01*
X148328119Y-81986405D02*
X148280500Y-81938786D01*
X148232881Y-81843548D01*
X148232881Y-81605452D01*
X148280500Y-81510214D01*
X148328119Y-81462595D01*
X148423357Y-81414976D01*
X148518595Y-81414976D01*
X148661452Y-81462595D01*
X149232881Y-82034024D01*
X149232881Y-81414976D01*
X148232881Y-80557833D02*
X148232881Y-80748310D01*
X148280500Y-80843548D01*
X148328119Y-80891167D01*
X148470976Y-80986405D01*
X148661452Y-81034024D01*
X149042405Y-81034024D01*
X149137643Y-80986405D01*
X149185262Y-80938786D01*
X149232881Y-80843548D01*
X149232881Y-80653071D01*
X149185262Y-80557833D01*
X149137643Y-80510214D01*
X149042405Y-80462595D01*
X148804310Y-80462595D01*
X148709071Y-80510214D01*
X148661452Y-80557833D01*
X148613833Y-80653071D01*
X148613833Y-80843548D01*
X148661452Y-80938786D01*
X148709071Y-80986405D01*
X148804310Y-81034024D01*
X124668114Y-82793781D02*
X124668114Y-81793781D01*
X125049067Y-81793781D01*
X125144305Y-81841400D01*
X125191924Y-81889019D01*
X125239543Y-81984257D01*
X125239543Y-82127114D01*
X125191924Y-82222352D01*
X125144305Y-82269971D01*
X125049067Y-82317590D01*
X124668114Y-82317590D01*
X125620495Y-81889019D02*
X125668114Y-81841400D01*
X125763352Y-81793781D01*
X126001448Y-81793781D01*
X126096686Y-81841400D01*
X126144305Y-81889019D01*
X126191924Y-81984257D01*
X126191924Y-82079495D01*
X126144305Y-82222352D01*
X125572876Y-82793781D01*
X126191924Y-82793781D01*
X126525257Y-81793781D02*
X127191924Y-81793781D01*
X126763352Y-82793781D01*
X133850214Y-104973381D02*
X133850214Y-103973381D01*
X134231167Y-103973381D01*
X134326405Y-104021000D01*
X134374024Y-104068619D01*
X134421643Y-104163857D01*
X134421643Y-104306714D01*
X134374024Y-104401952D01*
X134326405Y-104449571D01*
X134231167Y-104497190D01*
X133850214Y-104497190D01*
X134802595Y-104068619D02*
X134850214Y-104021000D01*
X134945452Y-103973381D01*
X135183548Y-103973381D01*
X135278786Y-104021000D01*
X135326405Y-104068619D01*
X135374024Y-104163857D01*
X135374024Y-104259095D01*
X135326405Y-104401952D01*
X134754976Y-104973381D01*
X135374024Y-104973381D01*
X135945452Y-104401952D02*
X135850214Y-104354333D01*
X135802595Y-104306714D01*
X135754976Y-104211476D01*
X135754976Y-104163857D01*
X135802595Y-104068619D01*
X135850214Y-104021000D01*
X135945452Y-103973381D01*
X136135929Y-103973381D01*
X136231167Y-104021000D01*
X136278786Y-104068619D01*
X136326405Y-104163857D01*
X136326405Y-104211476D01*
X136278786Y-104306714D01*
X136231167Y-104354333D01*
X136135929Y-104401952D01*
X135945452Y-104401952D01*
X135850214Y-104449571D01*
X135802595Y-104497190D01*
X135754976Y-104592429D01*
X135754976Y-104782905D01*
X135802595Y-104878143D01*
X135850214Y-104925762D01*
X135945452Y-104973381D01*
X136135929Y-104973381D01*
X136231167Y-104925762D01*
X136278786Y-104878143D01*
X136326405Y-104782905D01*
X136326405Y-104592429D01*
X136278786Y-104497190D01*
X136231167Y-104449571D01*
X136135929Y-104401952D01*
D15*
X152980571Y-64546843D02*
X152908000Y-64691986D01*
X152762857Y-64837129D01*
X152545143Y-65054843D01*
X152472571Y-65199986D01*
X152472571Y-65345129D01*
X152835429Y-65272557D02*
X152762857Y-65417700D01*
X152617714Y-65562843D01*
X152327429Y-65635414D01*
X151819429Y-65635414D01*
X151529143Y-65562843D01*
X151384000Y-65417700D01*
X151311429Y-65272557D01*
X151311429Y-64982271D01*
X151384000Y-64837129D01*
X151529143Y-64691986D01*
X151819429Y-64619414D01*
X152327429Y-64619414D01*
X152617714Y-64691986D01*
X152762857Y-64837129D01*
X152835429Y-64982271D01*
X152835429Y-65272557D01*
X152835429Y-63167986D02*
X152835429Y-64038843D01*
X152835429Y-63603415D02*
X151311429Y-63603415D01*
X151529143Y-63748558D01*
X151674286Y-63893700D01*
X151746857Y-64038843D01*
X157298571Y-66502643D02*
X157226000Y-66647786D01*
X157080857Y-66792929D01*
X156863143Y-67010643D01*
X156790571Y-67155786D01*
X156790571Y-67300929D01*
X157153429Y-67228357D02*
X157080857Y-67373500D01*
X156935714Y-67518643D01*
X156645429Y-67591214D01*
X156137429Y-67591214D01*
X155847143Y-67518643D01*
X155702000Y-67373500D01*
X155629429Y-67228357D01*
X155629429Y-66938071D01*
X155702000Y-66792929D01*
X155847143Y-66647786D01*
X156137429Y-66575214D01*
X156645429Y-66575214D01*
X156935714Y-66647786D01*
X157080857Y-66792929D01*
X157153429Y-66938071D01*
X157153429Y-67228357D01*
X155774571Y-65994643D02*
X155702000Y-65922072D01*
X155629429Y-65776929D01*
X155629429Y-65414072D01*
X155702000Y-65268929D01*
X155774571Y-65196358D01*
X155919714Y-65123786D01*
X156064857Y-65123786D01*
X156282571Y-65196358D01*
X157153429Y-66067215D01*
X157153429Y-65123786D01*
X153679071Y-79075643D02*
X153606500Y-79220786D01*
X153461357Y-79365929D01*
X153243643Y-79583643D01*
X153171071Y-79728786D01*
X153171071Y-79873929D01*
X153533929Y-79801357D02*
X153461357Y-79946500D01*
X153316214Y-80091643D01*
X153025929Y-80164214D01*
X152517929Y-80164214D01*
X152227643Y-80091643D01*
X152082500Y-79946500D01*
X152009929Y-79801357D01*
X152009929Y-79511071D01*
X152082500Y-79365929D01*
X152227643Y-79220786D01*
X152517929Y-79148214D01*
X153025929Y-79148214D01*
X153316214Y-79220786D01*
X153461357Y-79365929D01*
X153533929Y-79511071D01*
X153533929Y-79801357D01*
X152009929Y-78640215D02*
X152009929Y-77696786D01*
X152590500Y-78204786D01*
X152590500Y-77987072D01*
X152663071Y-77841929D01*
X152735643Y-77769358D01*
X152880786Y-77696786D01*
X153243643Y-77696786D01*
X153388786Y-77769358D01*
X153461357Y-77841929D01*
X153533929Y-77987072D01*
X153533929Y-78422500D01*
X153461357Y-78567643D01*
X153388786Y-78640215D01*
X159648071Y-80536143D02*
X159575500Y-80681286D01*
X159430357Y-80826429D01*
X159212643Y-81044143D01*
X159140071Y-81189286D01*
X159140071Y-81334429D01*
X159502929Y-81261857D02*
X159430357Y-81407000D01*
X159285214Y-81552143D01*
X158994929Y-81624714D01*
X158486929Y-81624714D01*
X158196643Y-81552143D01*
X158051500Y-81407000D01*
X157978929Y-81261857D01*
X157978929Y-80971571D01*
X158051500Y-80826429D01*
X158196643Y-80681286D01*
X158486929Y-80608714D01*
X158994929Y-80608714D01*
X159285214Y-80681286D01*
X159430357Y-80826429D01*
X159502929Y-80971571D01*
X159502929Y-81261857D01*
X158486929Y-79302429D02*
X159502929Y-79302429D01*
X157906357Y-79665286D02*
X158994929Y-80028143D01*
X158994929Y-79084715D01*
D12*
X142374881Y-76779286D02*
X141374881Y-76779286D01*
X141374881Y-76398333D01*
X141422500Y-76303095D01*
X141470119Y-76255476D01*
X141565357Y-76207857D01*
X141708214Y-76207857D01*
X141803452Y-76255476D01*
X141851071Y-76303095D01*
X141898690Y-76398333D01*
X141898690Y-76779286D01*
X141470119Y-75826905D02*
X141422500Y-75779286D01*
X141374881Y-75684048D01*
X141374881Y-75445952D01*
X141422500Y-75350714D01*
X141470119Y-75303095D01*
X141565357Y-75255476D01*
X141660595Y-75255476D01*
X141803452Y-75303095D01*
X142374881Y-75874524D01*
X142374881Y-75255476D01*
X141708214Y-74398333D02*
X142374881Y-74398333D01*
X141327262Y-74636429D02*
X142041548Y-74874524D01*
X142041548Y-74255476D01*
X136898214Y-84399381D02*
X136898214Y-83399381D01*
X137279167Y-83399381D01*
X137374405Y-83447000D01*
X137422024Y-83494619D01*
X137469643Y-83589857D01*
X137469643Y-83732714D01*
X137422024Y-83827952D01*
X137374405Y-83875571D01*
X137279167Y-83923190D01*
X136898214Y-83923190D01*
X137850595Y-83494619D02*
X137898214Y-83447000D01*
X137993452Y-83399381D01*
X138231548Y-83399381D01*
X138326786Y-83447000D01*
X138374405Y-83494619D01*
X138422024Y-83589857D01*
X138422024Y-83685095D01*
X138374405Y-83827952D01*
X137802976Y-84399381D01*
X138422024Y-84399381D01*
X138898214Y-84399381D02*
X139088690Y-84399381D01*
X139183929Y-84351762D01*
X139231548Y-84304143D01*
X139326786Y-84161286D01*
X139374405Y-83970810D01*
X139374405Y-83589857D01*
X139326786Y-83494619D01*
X139279167Y-83447000D01*
X139183929Y-83399381D01*
X138993452Y-83399381D01*
X138898214Y-83447000D01*
X138850595Y-83494619D01*
X138802976Y-83589857D01*
X138802976Y-83827952D01*
X138850595Y-83923190D01*
X138898214Y-83970810D01*
X138993452Y-84018429D01*
X139183929Y-84018429D01*
X139279167Y-83970810D01*
X139326786Y-83923190D01*
X139374405Y-83827952D01*
X148074143Y-66047881D02*
X147740809Y-65571690D01*
X147502714Y-66047881D02*
X147502714Y-65047881D01*
X147883667Y-65047881D01*
X147978905Y-65095500D01*
X148026524Y-65143119D01*
X148074143Y-65238357D01*
X148074143Y-65381214D01*
X148026524Y-65476452D01*
X147978905Y-65524071D01*
X147883667Y-65571690D01*
X147502714Y-65571690D01*
X149026524Y-66047881D02*
X148455095Y-66047881D01*
X148740809Y-66047881D02*
X148740809Y-65047881D01*
X148645571Y-65190738D01*
X148550333Y-65285976D01*
X148455095Y-65333595D01*
X149931286Y-65047881D02*
X149455095Y-65047881D01*
X149407476Y-65524071D01*
X149455095Y-65476452D01*
X149550333Y-65428833D01*
X149788429Y-65428833D01*
X149883667Y-65476452D01*
X149931286Y-65524071D01*
X149978905Y-65619310D01*
X149978905Y-65857405D01*
X149931286Y-65952643D01*
X149883667Y-66000262D01*
X149788429Y-66047881D01*
X149550333Y-66047881D01*
X149455095Y-66000262D01*
X149407476Y-65952643D01*
X147439143Y-69921381D02*
X147105809Y-69445190D01*
X146867714Y-69921381D02*
X146867714Y-68921381D01*
X147248667Y-68921381D01*
X147343905Y-68969000D01*
X147391524Y-69016619D01*
X147439143Y-69111857D01*
X147439143Y-69254714D01*
X147391524Y-69349952D01*
X147343905Y-69397571D01*
X147248667Y-69445190D01*
X146867714Y-69445190D01*
X148391524Y-69921381D02*
X147820095Y-69921381D01*
X148105809Y-69921381D02*
X148105809Y-68921381D01*
X148010571Y-69064238D01*
X147915333Y-69159476D01*
X147820095Y-69207095D01*
X149248667Y-68921381D02*
X149058190Y-68921381D01*
X148962952Y-68969000D01*
X148915333Y-69016619D01*
X148820095Y-69159476D01*
X148772476Y-69349952D01*
X148772476Y-69730905D01*
X148820095Y-69826143D01*
X148867714Y-69873762D01*
X148962952Y-69921381D01*
X149153429Y-69921381D01*
X149248667Y-69873762D01*
X149296286Y-69826143D01*
X149343905Y-69730905D01*
X149343905Y-69492810D01*
X149296286Y-69397571D01*
X149248667Y-69349952D01*
X149153429Y-69302333D01*
X148962952Y-69302333D01*
X148867714Y-69349952D01*
X148820095Y-69397571D01*
X148772476Y-69492810D01*
X160139143Y-65535381D02*
X159805809Y-65059190D01*
X159567714Y-65535381D02*
X159567714Y-64535381D01*
X159948667Y-64535381D01*
X160043905Y-64583000D01*
X160091524Y-64630619D01*
X160139143Y-64725857D01*
X160139143Y-64868714D01*
X160091524Y-64963952D01*
X160043905Y-65011571D01*
X159948667Y-65059190D01*
X159567714Y-65059190D01*
X161091524Y-65535381D02*
X160520095Y-65535381D01*
X160805809Y-65535381D02*
X160805809Y-64535381D01*
X160710571Y-64678238D01*
X160615333Y-64773476D01*
X160520095Y-64821095D01*
X161424857Y-64535381D02*
X162091524Y-64535381D01*
X161662952Y-65535381D01*
X160075643Y-71381881D02*
X159742309Y-70905690D01*
X159504214Y-71381881D02*
X159504214Y-70381881D01*
X159885167Y-70381881D01*
X159980405Y-70429500D01*
X160028024Y-70477119D01*
X160075643Y-70572357D01*
X160075643Y-70715214D01*
X160028024Y-70810452D01*
X159980405Y-70858071D01*
X159885167Y-70905690D01*
X159504214Y-70905690D01*
X161028024Y-71381881D02*
X160456595Y-71381881D01*
X160742309Y-71381881D02*
X160742309Y-70381881D01*
X160647071Y-70524738D01*
X160551833Y-70619976D01*
X160456595Y-70667595D01*
X161599452Y-70810452D02*
X161504214Y-70762833D01*
X161456595Y-70715214D01*
X161408976Y-70619976D01*
X161408976Y-70572357D01*
X161456595Y-70477119D01*
X161504214Y-70429500D01*
X161599452Y-70381881D01*
X161789929Y-70381881D01*
X161885167Y-70429500D01*
X161932786Y-70477119D01*
X161980405Y-70572357D01*
X161980405Y-70619976D01*
X161932786Y-70715214D01*
X161885167Y-70762833D01*
X161789929Y-70810452D01*
X161599452Y-70810452D01*
X161504214Y-70858071D01*
X161456595Y-70905690D01*
X161408976Y-71000929D01*
X161408976Y-71191405D01*
X161456595Y-71286643D01*
X161504214Y-71334262D01*
X161599452Y-71381881D01*
X161789929Y-71381881D01*
X161885167Y-71334262D01*
X161932786Y-71286643D01*
X161980405Y-71191405D01*
X161980405Y-71000929D01*
X161932786Y-70905690D01*
X161885167Y-70858071D01*
X161789929Y-70810452D01*
X147566143Y-75704381D02*
X147232809Y-75228190D01*
X146994714Y-75704381D02*
X146994714Y-74704381D01*
X147375667Y-74704381D01*
X147470905Y-74752000D01*
X147518524Y-74799619D01*
X147566143Y-74894857D01*
X147566143Y-75037714D01*
X147518524Y-75132952D01*
X147470905Y-75180571D01*
X147375667Y-75228190D01*
X146994714Y-75228190D01*
X148518524Y-75704381D02*
X147947095Y-75704381D01*
X148232809Y-75704381D02*
X148232809Y-74704381D01*
X148137571Y-74847238D01*
X148042333Y-74942476D01*
X147947095Y-74990095D01*
X148994714Y-75704381D02*
X149185190Y-75704381D01*
X149280429Y-75656762D01*
X149328048Y-75609143D01*
X149423286Y-75466286D01*
X149470905Y-75275810D01*
X149470905Y-74894857D01*
X149423286Y-74799619D01*
X149375667Y-74752000D01*
X149280429Y-74704381D01*
X149089952Y-74704381D01*
X148994714Y-74752000D01*
X148947095Y-74799619D01*
X148899476Y-74894857D01*
X148899476Y-75132952D01*
X148947095Y-75228190D01*
X148994714Y-75275810D01*
X149089952Y-75323429D01*
X149280429Y-75323429D01*
X149375667Y-75275810D01*
X149423286Y-75228190D01*
X149470905Y-75132952D01*
X159885143Y-73159881D02*
X159551809Y-72683690D01*
X159313714Y-73159881D02*
X159313714Y-72159881D01*
X159694667Y-72159881D01*
X159789905Y-72207500D01*
X159837524Y-72255119D01*
X159885143Y-72350357D01*
X159885143Y-72493214D01*
X159837524Y-72588452D01*
X159789905Y-72636071D01*
X159694667Y-72683690D01*
X159313714Y-72683690D01*
X160266095Y-72255119D02*
X160313714Y-72207500D01*
X160408952Y-72159881D01*
X160647048Y-72159881D01*
X160742286Y-72207500D01*
X160789905Y-72255119D01*
X160837524Y-72350357D01*
X160837524Y-72445595D01*
X160789905Y-72588452D01*
X160218476Y-73159881D01*
X160837524Y-73159881D01*
X161789905Y-73159881D02*
X161218476Y-73159881D01*
X161504190Y-73159881D02*
X161504190Y-72159881D01*
X161408952Y-72302738D01*
X161313714Y-72397976D01*
X161218476Y-72445595D01*
X160075643Y-78684381D02*
X159742309Y-78208190D01*
X159504214Y-78684381D02*
X159504214Y-77684381D01*
X159885167Y-77684381D01*
X159980405Y-77732000D01*
X160028024Y-77779619D01*
X160075643Y-77874857D01*
X160075643Y-78017714D01*
X160028024Y-78112952D01*
X159980405Y-78160571D01*
X159885167Y-78208190D01*
X159504214Y-78208190D01*
X160456595Y-77779619D02*
X160504214Y-77732000D01*
X160599452Y-77684381D01*
X160837548Y-77684381D01*
X160932786Y-77732000D01*
X160980405Y-77779619D01*
X161028024Y-77874857D01*
X161028024Y-77970095D01*
X160980405Y-78112952D01*
X160408976Y-78684381D01*
X161028024Y-78684381D01*
X161408976Y-77779619D02*
X161456595Y-77732000D01*
X161551833Y-77684381D01*
X161789929Y-77684381D01*
X161885167Y-77732000D01*
X161932786Y-77779619D01*
X161980405Y-77874857D01*
X161980405Y-77970095D01*
X161932786Y-78112952D01*
X161361357Y-78684381D01*
X161980405Y-78684381D01*
D21*
X129358571Y-81530976D02*
X128935238Y-80865738D01*
X128632857Y-81530976D02*
X128632857Y-80133976D01*
X129116666Y-80133976D01*
X129237619Y-80200500D01*
X129298095Y-80267024D01*
X129358571Y-80400071D01*
X129358571Y-80599643D01*
X129298095Y-80732690D01*
X129237619Y-80799214D01*
X129116666Y-80865738D01*
X128632857Y-80865738D01*
X129842381Y-80267024D02*
X129902857Y-80200500D01*
X130023809Y-80133976D01*
X130326190Y-80133976D01*
X130447143Y-80200500D01*
X130507619Y-80267024D01*
X130568095Y-80400071D01*
X130568095Y-80533119D01*
X130507619Y-80732690D01*
X129781905Y-81530976D01*
X130568095Y-81530976D01*
X130991429Y-80133976D02*
X131777619Y-80133976D01*
X131354286Y-80666167D01*
X131535714Y-80666167D01*
X131656667Y-80732690D01*
X131717143Y-80799214D01*
X131777619Y-80932262D01*
X131777619Y-81264881D01*
X131717143Y-81397929D01*
X131656667Y-81464452D01*
X131535714Y-81530976D01*
X131172857Y-81530976D01*
X131051905Y-81464452D01*
X130991429Y-81397929D01*
X129358571Y-84261476D02*
X128935238Y-83596238D01*
X128632857Y-84261476D02*
X128632857Y-82864476D01*
X129116666Y-82864476D01*
X129237619Y-82931000D01*
X129298095Y-82997524D01*
X129358571Y-83130571D01*
X129358571Y-83330143D01*
X129298095Y-83463190D01*
X129237619Y-83529714D01*
X129116666Y-83596238D01*
X128632857Y-83596238D01*
X129842381Y-82997524D02*
X129902857Y-82931000D01*
X130023809Y-82864476D01*
X130326190Y-82864476D01*
X130447143Y-82931000D01*
X130507619Y-82997524D01*
X130568095Y-83130571D01*
X130568095Y-83263619D01*
X130507619Y-83463190D01*
X129781905Y-84261476D01*
X130568095Y-84261476D01*
X131656667Y-83330143D02*
X131656667Y-84261476D01*
X131354286Y-82797952D02*
X131051905Y-83795810D01*
X131838095Y-83795810D01*
X129358571Y-86928476D02*
X128935238Y-86263238D01*
X128632857Y-86928476D02*
X128632857Y-85531476D01*
X129116666Y-85531476D01*
X129237619Y-85598000D01*
X129298095Y-85664524D01*
X129358571Y-85797571D01*
X129358571Y-85997143D01*
X129298095Y-86130190D01*
X129237619Y-86196714D01*
X129116666Y-86263238D01*
X128632857Y-86263238D01*
X129842381Y-85664524D02*
X129902857Y-85598000D01*
X130023809Y-85531476D01*
X130326190Y-85531476D01*
X130447143Y-85598000D01*
X130507619Y-85664524D01*
X130568095Y-85797571D01*
X130568095Y-85930619D01*
X130507619Y-86130190D01*
X129781905Y-86928476D01*
X130568095Y-86928476D01*
X131717143Y-85531476D02*
X131112381Y-85531476D01*
X131051905Y-86196714D01*
X131112381Y-86130190D01*
X131233333Y-86063667D01*
X131535714Y-86063667D01*
X131656667Y-86130190D01*
X131717143Y-86196714D01*
X131777619Y-86329762D01*
X131777619Y-86662381D01*
X131717143Y-86795429D01*
X131656667Y-86861952D01*
X131535714Y-86928476D01*
X131233333Y-86928476D01*
X131112381Y-86861952D01*
X131051905Y-86795429D01*
D12*
X147693143Y-79636881D02*
X147359809Y-79160690D01*
X147121714Y-79636881D02*
X147121714Y-78636881D01*
X147502667Y-78636881D01*
X147597905Y-78684500D01*
X147645524Y-78732119D01*
X147693143Y-78827357D01*
X147693143Y-78970214D01*
X147645524Y-79065452D01*
X147597905Y-79113071D01*
X147502667Y-79160690D01*
X147121714Y-79160690D01*
X148074095Y-78732119D02*
X148121714Y-78684500D01*
X148216952Y-78636881D01*
X148455048Y-78636881D01*
X148550286Y-78684500D01*
X148597905Y-78732119D01*
X148645524Y-78827357D01*
X148645524Y-78922595D01*
X148597905Y-79065452D01*
X148026476Y-79636881D01*
X148645524Y-79636881D01*
X149264571Y-78636881D02*
X149359810Y-78636881D01*
X149455048Y-78684500D01*
X149502667Y-78732119D01*
X149550286Y-78827357D01*
X149597905Y-79017833D01*
X149597905Y-79255929D01*
X149550286Y-79446405D01*
X149502667Y-79541643D01*
X149455048Y-79589262D01*
X149359810Y-79636881D01*
X149264571Y-79636881D01*
X149169333Y-79589262D01*
X149121714Y-79541643D01*
X149074095Y-79446405D01*
X149026476Y-79255929D01*
X149026476Y-79017833D01*
X149074095Y-78827357D01*
X149121714Y-78732119D01*
X149169333Y-78684500D01*
X149264571Y-78636881D01*
X142740214Y-66301881D02*
X142740214Y-65301881D01*
X143121167Y-65301881D01*
X143216405Y-65349500D01*
X143264024Y-65397119D01*
X143311643Y-65492357D01*
X143311643Y-65635214D01*
X143264024Y-65730452D01*
X143216405Y-65778071D01*
X143121167Y-65825690D01*
X142740214Y-65825690D01*
X143644976Y-65301881D02*
X144264024Y-65301881D01*
X143930690Y-65682833D01*
X144073548Y-65682833D01*
X144168786Y-65730452D01*
X144216405Y-65778071D01*
X144264024Y-65873310D01*
X144264024Y-66111405D01*
X144216405Y-66206643D01*
X144168786Y-66254262D01*
X144073548Y-66301881D01*
X143787833Y-66301881D01*
X143692595Y-66254262D01*
X143644976Y-66206643D01*
X144883071Y-65301881D02*
X144978310Y-65301881D01*
X145073548Y-65349500D01*
X145121167Y-65397119D01*
X145168786Y-65492357D01*
X145216405Y-65682833D01*
X145216405Y-65920929D01*
X145168786Y-66111405D01*
X145121167Y-66206643D01*
X145073548Y-66254262D01*
X144978310Y-66301881D01*
X144883071Y-66301881D01*
X144787833Y-66254262D01*
X144740214Y-66206643D01*
X144692595Y-66111405D01*
X144644976Y-65920929D01*
X144644976Y-65682833D01*
X144692595Y-65492357D01*
X144740214Y-65397119D01*
X144787833Y-65349500D01*
X144883071Y-65301881D01*
X163987314Y-66771781D02*
X163987314Y-65771781D01*
X164368267Y-65771781D01*
X164463505Y-65819400D01*
X164511124Y-65867019D01*
X164558743Y-65962257D01*
X164558743Y-66105114D01*
X164511124Y-66200352D01*
X164463505Y-66247971D01*
X164368267Y-66295590D01*
X163987314Y-66295590D01*
X164892076Y-65771781D02*
X165511124Y-65771781D01*
X165177790Y-66152733D01*
X165320648Y-66152733D01*
X165415886Y-66200352D01*
X165463505Y-66247971D01*
X165511124Y-66343210D01*
X165511124Y-66581305D01*
X165463505Y-66676543D01*
X165415886Y-66724162D01*
X165320648Y-66771781D01*
X165034933Y-66771781D01*
X164939695Y-66724162D01*
X164892076Y-66676543D01*
X166463505Y-66771781D02*
X165892076Y-66771781D01*
X166177790Y-66771781D02*
X166177790Y-65771781D01*
X166082552Y-65914638D01*
X165987314Y-66009876D01*
X165892076Y-66057495D01*
X89836905Y-96387881D02*
X89836905Y-95387881D01*
X90075000Y-95387881D01*
X90217858Y-95435500D01*
X90313096Y-95530738D01*
X90360715Y-95625976D01*
X90408334Y-95816452D01*
X90408334Y-95959310D01*
X90360715Y-96149786D01*
X90313096Y-96245024D01*
X90217858Y-96340262D01*
X90075000Y-96387881D01*
X89836905Y-96387881D01*
X91408334Y-96292643D02*
X91360715Y-96340262D01*
X91217858Y-96387881D01*
X91122620Y-96387881D01*
X90979762Y-96340262D01*
X90884524Y-96245024D01*
X90836905Y-96149786D01*
X90789286Y-95959310D01*
X90789286Y-95816452D01*
X90836905Y-95625976D01*
X90884524Y-95530738D01*
X90979762Y-95435500D01*
X91122620Y-95387881D01*
X91217858Y-95387881D01*
X91360715Y-95435500D01*
X91408334Y-95483119D01*
X91836905Y-96387881D02*
X91836905Y-95387881D01*
X92075000Y-95387881D01*
X92217858Y-95435500D01*
X92313096Y-95530738D01*
X92360715Y-95625976D01*
X92408334Y-95816452D01*
X92408334Y-95959310D01*
X92360715Y-96149786D01*
X92313096Y-96245024D01*
X92217858Y-96340262D01*
X92075000Y-96387881D01*
X91836905Y-96387881D01*
X93408334Y-96292643D02*
X93360715Y-96340262D01*
X93217858Y-96387881D01*
X93122620Y-96387881D01*
X92979762Y-96340262D01*
X92884524Y-96245024D01*
X92836905Y-96149786D01*
X92789286Y-95959310D01*
X92789286Y-95816452D01*
X92836905Y-95625976D01*
X92884524Y-95530738D01*
X92979762Y-95435500D01*
X93122620Y-95387881D01*
X93217858Y-95387881D01*
X93360715Y-95435500D01*
X93408334Y-95483119D01*
X94360715Y-96387881D02*
X93789286Y-96387881D01*
X94075000Y-96387881D02*
X94075000Y-95387881D01*
X93979762Y-95530738D01*
X93884524Y-95625976D01*
X93789286Y-95673595D01*
M02*
