G04 #@! TF.FileFunction,Soldermask,Top*
%FSLAX46Y46*%
G04 Gerber Fmt 4.6, Leading zero omitted, Abs format (unit mm)*
G04 Created by KiCad (PCBNEW 4.0.7-e2-6376~58~ubuntu16.04.1) date Sun Nov 19 12:47:47 2017*
%MOMM*%
%LPD*%
G01*
G04 APERTURE LIST*
%ADD10C,0.100000*%
%ADD11C,0.150000*%
%ADD12R,2.127200X2.127200*%
%ADD13O,2.127200X2.127200*%
%ADD14C,6.400000*%
%ADD15C,1.900000*%
%ADD16C,3.900000*%
%ADD17C,1.800000*%
%ADD18C,2.900000*%
%ADD19R,2.432000X2.127200*%
%ADD20O,2.432000X2.127200*%
%ADD21R,2.127200X2.432000*%
%ADD22O,2.127200X2.432000*%
%ADD23C,2.800000*%
%ADD24R,2.800000X2.800000*%
%ADD25O,2.398980X4.400500*%
%ADD26O,4.400500X2.398980*%
%ADD27O,4.900880X2.398980*%
%ADD28R,1.700000X1.900000*%
%ADD29R,0.999440X2.398980*%
%ADD30C,1.901140*%
%ADD31R,3.190000X1.140000*%
%ADD32R,1.900000X1.900000*%
%ADD33C,2.099260*%
%ADD34R,2.099260X2.099260*%
%ADD35C,2.899360*%
%ADD36R,1.900000X1.700000*%
%ADD37R,1.598880X1.598880*%
%ADD38R,2.597100X2.597100*%
%ADD39R,0.897840X3.400000*%
%ADD40C,1.299160*%
%ADD41R,2.051000X0.806400*%
%ADD42R,2.432000X2.432000*%
%ADD43O,2.432000X2.432000*%
%ADD44R,2.100000X2.400000*%
%ADD45C,2.398980*%
%ADD46C,0.900000*%
%ADD47C,3.900120*%
%ADD48R,2.400000X2.300000*%
%ADD49C,2.300000*%
%ADD50O,2.600000X1.500000*%
%ADD51R,2.635200X2.635200*%
%ADD52O,2.000000X2.000000*%
%ADD53C,1.924000*%
G04 APERTURE END LIST*
D10*
D11*
X167000000Y-126500000D02*
X167000000Y-146500000D01*
X167000000Y-118500000D02*
X167000000Y-51500000D01*
X122000000Y-112500000D02*
X122000000Y-118500000D01*
X122000000Y-126500000D02*
X122000000Y-132000000D01*
X117000000Y-69800000D02*
X117000000Y-102500000D01*
X122000000Y-102500000D02*
X122000000Y-69800000D01*
X117000000Y-112500000D02*
X117000000Y-111800000D01*
X122000000Y-112500000D02*
X122000000Y-111800000D01*
X117000000Y-146500000D02*
X117000000Y-141300000D01*
X122000000Y-141300000D02*
X122000000Y-146500000D01*
X117000000Y-129500000D02*
X117000000Y-132000000D01*
X117000000Y-112500000D02*
X117000000Y-129500000D01*
X117000000Y-102500000D02*
G75*
G03X119500000Y-105000000I2500000J0D01*
G01*
X119500000Y-105000000D02*
G75*
G03X122000000Y-102500000I0J2500000D01*
G01*
X119500000Y-109300000D02*
G75*
G03X117000000Y-111800000I0J-2500000D01*
G01*
X122000000Y-111800000D02*
G75*
G03X119500000Y-109300000I-2500000J0D01*
G01*
X149000000Y-124000000D02*
X164500000Y-124000000D01*
X167000000Y-126500000D02*
G75*
G03X164500000Y-124000000I-2500000J0D01*
G01*
X149000000Y-121000000D02*
X164500000Y-121000000D01*
X124500000Y-124000000D02*
X140500000Y-124000000D01*
X124500000Y-121000000D02*
X140500000Y-121000000D01*
X164500000Y-121000000D02*
G75*
G03X167000000Y-118500000I0J2500000D01*
G01*
X147500000Y-122500000D02*
G75*
G03X149000000Y-124000000I1500000J0D01*
G01*
X149000000Y-121000000D02*
G75*
G03X147500000Y-122500000I0J-1500000D01*
G01*
X140500000Y-124000000D02*
G75*
G03X142000000Y-122500000I0J1500000D01*
G01*
X142000000Y-122500000D02*
G75*
G03X140500000Y-121000000I-1500000J0D01*
G01*
X122000000Y-118500000D02*
G75*
G03X124500000Y-121000000I2500000J0D01*
G01*
X124500000Y-124000000D02*
G75*
G03X122000000Y-126500000I0J-2500000D01*
G01*
X119500000Y-67300000D02*
G75*
G03X117000000Y-69800000I0J-2500000D01*
G01*
X122000000Y-69800000D02*
G75*
G03X119500000Y-67300000I-2500000J0D01*
G01*
X117000000Y-132000000D02*
G75*
G03X119500000Y-134500000I2500000J0D01*
G01*
X119500000Y-134500000D02*
G75*
G03X122000000Y-132000000I0J2500000D01*
G01*
X122000000Y-60500000D02*
X122000000Y-51500000D01*
X119500000Y-63000000D02*
G75*
G03X122000000Y-60500000I0J2500000D01*
G01*
X117000000Y-60500000D02*
G75*
G03X119500000Y-63000000I2500000J0D01*
G01*
X124500000Y-49000000D02*
G75*
G03X122000000Y-51500000I0J-2500000D01*
G01*
X119500000Y-138800000D02*
G75*
G03X117000000Y-141300000I0J-2500000D01*
G01*
X122000000Y-141300000D02*
G75*
G03X119500000Y-138800000I-2500000J0D01*
G01*
X117000000Y-51500000D02*
X117000000Y-60500000D01*
X124500000Y-49000000D02*
X164500000Y-49000000D01*
X124500000Y-149000000D02*
X164500000Y-149000000D01*
X122000000Y-146500000D02*
G75*
G03X124500000Y-149000000I2500000J0D01*
G01*
X117000000Y-51500000D02*
G75*
G03X114500000Y-49000000I-2500000J0D01*
G01*
X114500000Y-149000000D02*
G75*
G03X117000000Y-146500000I0J2500000D01*
G01*
X67000000Y-146500000D02*
G75*
G03X69500000Y-149000000I2500000J0D01*
G01*
X164500000Y-149000000D02*
G75*
G03X167000000Y-146500000I0J2500000D01*
G01*
X69500000Y-49000000D02*
G75*
G03X67000000Y-51500000I0J-2500000D01*
G01*
X167000000Y-51500000D02*
G75*
G03X164500000Y-49000000I-2500000J0D01*
G01*
X67000000Y-146500000D02*
X67000000Y-51500000D01*
X69500000Y-149000000D02*
X114500000Y-149000000D01*
X69500000Y-49000000D02*
X114500000Y-49000000D01*
D12*
X133858000Y-76733400D03*
D13*
X131318000Y-76733400D03*
X133858000Y-74193400D03*
X131318000Y-74193400D03*
X133858000Y-71653400D03*
X131318000Y-71653400D03*
X133858000Y-69113400D03*
X131318000Y-69113400D03*
X133858000Y-66573400D03*
X131318000Y-66573400D03*
X133858000Y-64033400D03*
X131318000Y-64033400D03*
X133858000Y-61493400D03*
X131318000Y-61493400D03*
X133858000Y-58953400D03*
X131318000Y-58953400D03*
X133858000Y-56413400D03*
X131318000Y-56413400D03*
X133858000Y-53873400D03*
X131318000Y-53873400D03*
X133858000Y-51333400D03*
X131318000Y-51333400D03*
D14*
X162000000Y-129000000D03*
X163000000Y-117500000D03*
X126000000Y-53000000D03*
X163000000Y-53000000D03*
X126000000Y-117500000D03*
X162000000Y-144000000D03*
X127000000Y-129000000D03*
X127000000Y-144000000D03*
X103000000Y-145750000D03*
X113000000Y-53000000D03*
X79000000Y-145750000D03*
D15*
X110750000Y-136700000D03*
X110750000Y-138700000D03*
X110750000Y-140700000D03*
X110750000Y-135050000D03*
X108250000Y-137000000D03*
X108250000Y-139000000D03*
X110750000Y-142950000D03*
X108250000Y-135050000D03*
X108250000Y-141000000D03*
X108250000Y-142950000D03*
D16*
X113750000Y-146250000D03*
X114550000Y-139000000D03*
X113750000Y-131750000D03*
D15*
X110800000Y-118500000D03*
X110800000Y-120500000D03*
X110800000Y-122500000D03*
X110800000Y-116850000D03*
X108300000Y-118800000D03*
X108300000Y-120800000D03*
X110800000Y-124750000D03*
X108300000Y-116850000D03*
X108300000Y-122800000D03*
X108300000Y-124750000D03*
D16*
X113800000Y-128050000D03*
X114600000Y-120800000D03*
X113800000Y-113550000D03*
D15*
X110800000Y-100300000D03*
X110800000Y-102300000D03*
X110800000Y-104300000D03*
X110800000Y-98650000D03*
X108300000Y-100600000D03*
X108300000Y-102600000D03*
X110800000Y-106550000D03*
X108300000Y-98650000D03*
X108300000Y-104600000D03*
X108300000Y-106550000D03*
D16*
X113800000Y-109850000D03*
X114600000Y-102600000D03*
X113800000Y-95350000D03*
D15*
X110750000Y-81950000D03*
X110750000Y-83950000D03*
X110750000Y-85950000D03*
X110750000Y-80300000D03*
X108250000Y-82250000D03*
X108250000Y-84250000D03*
X110750000Y-88200000D03*
X108250000Y-80300000D03*
X108250000Y-86250000D03*
X108250000Y-88200000D03*
D16*
X113750000Y-91500000D03*
X114550000Y-84250000D03*
X113750000Y-77000000D03*
D15*
X73000000Y-85550000D03*
X73000000Y-83550000D03*
X73000000Y-81550000D03*
X73000000Y-87200000D03*
X75500000Y-85250000D03*
X75500000Y-83250000D03*
X73000000Y-79300000D03*
X75500000Y-87200000D03*
X75500000Y-81250000D03*
X75500000Y-79300000D03*
D16*
X70000000Y-76000000D03*
X69200000Y-83250000D03*
X70000000Y-90500000D03*
D15*
X73000000Y-119550000D03*
X73000000Y-116950000D03*
X73000000Y-121650000D03*
X73000000Y-114850000D03*
X75500000Y-121650000D03*
X75500000Y-117350000D03*
X75500000Y-114850000D03*
D16*
X70000000Y-111500000D03*
X69200000Y-118250000D03*
X70000000Y-125000000D03*
D15*
X73000000Y-136800000D03*
X73000000Y-134200000D03*
X73000000Y-138900000D03*
X73000000Y-132100000D03*
X75500000Y-138900000D03*
X75500000Y-134600000D03*
X75500000Y-132100000D03*
D16*
X70000000Y-128750000D03*
X69200000Y-135500000D03*
X70000000Y-142250000D03*
D17*
X76090000Y-63845000D03*
X76090000Y-61305000D03*
X78630000Y-62575000D03*
X78630000Y-65115000D03*
X76090000Y-66385000D03*
X78630000Y-67655000D03*
X76090000Y-68925000D03*
X78630000Y-70195000D03*
D18*
X72800000Y-58000000D03*
X72800000Y-73500000D03*
D17*
X108410000Y-68405000D03*
X108410000Y-70945000D03*
X105870000Y-69675000D03*
X105870000Y-67135000D03*
X108410000Y-65865000D03*
X105870000Y-64595000D03*
X108410000Y-63325000D03*
X105870000Y-62055000D03*
D18*
X111700000Y-74250000D03*
X111700000Y-58750000D03*
D19*
X85250000Y-63500000D03*
D20*
X85250000Y-66040000D03*
X85250000Y-68580000D03*
D19*
X98750000Y-63500000D03*
D20*
X98750000Y-66040000D03*
X98750000Y-68580000D03*
D14*
X71000000Y-53000000D03*
D21*
X98250000Y-133250000D03*
D22*
X95710000Y-133250000D03*
X93170000Y-133250000D03*
X90630000Y-133250000D03*
X88090000Y-133250000D03*
D23*
X94500000Y-144800000D03*
D24*
X98000000Y-144800000D03*
D23*
X91000000Y-144800000D03*
X87500000Y-144800000D03*
X84000000Y-144800000D03*
D25*
X83699020Y-54000120D03*
D26*
X89000000Y-50748920D03*
D27*
X89000000Y-56750940D03*
D17*
X142595000Y-139660000D03*
X140055000Y-139660000D03*
X141325000Y-137120000D03*
X143865000Y-137120000D03*
X145135000Y-139660000D03*
X146405000Y-137120000D03*
X147675000Y-139660000D03*
X148945000Y-137120000D03*
D18*
X136750000Y-142950000D03*
X152250000Y-142950000D03*
D21*
X135000000Y-126500000D03*
D22*
X137540000Y-126500000D03*
X140080000Y-126500000D03*
X142620000Y-126500000D03*
X145160000Y-126500000D03*
X147700000Y-126500000D03*
X150240000Y-126500000D03*
X152780000Y-126500000D03*
D21*
X98250000Y-129750000D03*
D22*
X95710000Y-129750000D03*
X93170000Y-129750000D03*
X90630000Y-129750000D03*
X88090000Y-129750000D03*
D21*
X98250000Y-120000000D03*
D22*
X95710000Y-120000000D03*
X93170000Y-120000000D03*
X90630000Y-120000000D03*
X88090000Y-120000000D03*
D23*
X79750000Y-53200000D03*
D24*
X76250000Y-53200000D03*
D28*
X94742000Y-54720500D03*
X94742000Y-57420500D03*
D29*
X151663400Y-89204800D03*
X150393400Y-89204800D03*
X149123400Y-89204800D03*
X147853400Y-89204800D03*
X147853400Y-94792800D03*
X149123400Y-94792800D03*
X150393400Y-94792800D03*
X151663400Y-94792800D03*
D21*
X94500000Y-63000000D03*
D22*
X91960000Y-63000000D03*
X89420000Y-63000000D03*
D30*
X149352000Y-86042500D03*
X151892000Y-86042500D03*
D31*
X141757400Y-63246000D03*
X137693400Y-63246000D03*
X141757400Y-61976000D03*
X137693400Y-61976000D03*
X141757400Y-60706000D03*
X137693400Y-60706000D03*
X141757400Y-59436000D03*
X137693400Y-59436000D03*
X141757400Y-58166000D03*
X137693400Y-58166000D03*
X141757400Y-56896000D03*
X137693400Y-56896000D03*
X141757400Y-55626000D03*
X137693400Y-55626000D03*
X141757400Y-54356000D03*
X137693400Y-54356000D03*
X141757400Y-53086000D03*
X137693400Y-53086000D03*
X141757400Y-51816000D03*
X137693400Y-51816000D03*
X141757400Y-50546000D03*
X137693400Y-50546000D03*
D32*
X143764000Y-92694000D03*
D15*
X143764000Y-90694000D03*
D32*
X135001000Y-92694000D03*
D15*
X135001000Y-90694000D03*
D33*
X146749020Y-85468460D03*
D34*
X136589020Y-85468460D03*
D15*
X73000000Y-102300000D03*
X73000000Y-99700000D03*
X73000000Y-104400000D03*
X73000000Y-97600000D03*
X75500000Y-104400000D03*
X75500000Y-100100000D03*
X75500000Y-97600000D03*
D16*
X70000000Y-94250000D03*
X69200000Y-101000000D03*
X70000000Y-107750000D03*
D35*
X159829500Y-84406740D03*
X159829500Y-94409260D03*
D28*
X138480800Y-107158800D03*
X138480800Y-109858800D03*
D36*
X151083000Y-104457500D03*
X148383000Y-104457500D03*
X143600000Y-110000000D03*
X140900000Y-110000000D03*
X146150000Y-110000000D03*
X148850000Y-110000000D03*
X154860000Y-103949500D03*
X157560000Y-103949500D03*
X154860000Y-106680000D03*
X157560000Y-106680000D03*
D37*
X158783020Y-118999000D03*
X156684980Y-118999000D03*
X158719520Y-115760500D03*
X156621480Y-115760500D03*
D38*
X148929760Y-114380500D03*
D39*
X142902340Y-113800000D03*
X143702440Y-113800000D03*
X144500000Y-113800000D03*
X145297560Y-113800000D03*
X146097660Y-113800000D03*
D40*
X142302900Y-116628400D03*
X146699640Y-116628400D03*
D38*
X140070240Y-114380500D03*
X140070240Y-119879600D03*
X148929760Y-119879600D03*
D19*
X165201600Y-99822000D03*
D20*
X165201600Y-102362000D03*
X165201600Y-104902000D03*
X165201600Y-107442000D03*
X165201600Y-109982000D03*
X165201600Y-112522000D03*
D28*
X146000000Y-104400000D03*
X146000000Y-107100000D03*
D41*
X158813500Y-111315500D03*
X158813500Y-110680500D03*
X158813500Y-110045500D03*
X158813500Y-109410500D03*
X153479500Y-113220500D03*
X158813500Y-113220500D03*
X158813500Y-112585500D03*
X158813500Y-111950500D03*
X153479500Y-108775500D03*
X153479500Y-109410500D03*
X153479500Y-110045500D03*
X153479500Y-110680500D03*
X153479500Y-111315500D03*
X153479500Y-111950500D03*
X158813500Y-108775500D03*
X153479500Y-112585500D03*
D23*
X126480800Y-103598800D03*
D24*
X126480800Y-107098800D03*
D23*
X126480800Y-100098800D03*
X126480800Y-96598800D03*
X126480800Y-93098800D03*
X126480800Y-89598800D03*
D42*
X84518500Y-122237500D03*
D43*
X84518500Y-119697500D03*
D44*
X84582000Y-132746500D03*
X84582000Y-128746500D03*
D45*
X153733500Y-99441000D03*
X146113500Y-99441000D03*
X137922000Y-87693500D03*
X145542000Y-87693500D03*
X139255500Y-99631500D03*
X139255500Y-92011500D03*
D28*
X143750000Y-107100000D03*
X143750000Y-104400000D03*
D36*
X154258000Y-118999000D03*
X151558000Y-118999000D03*
X154258000Y-115760500D03*
X151558000Y-115760500D03*
D28*
X151257000Y-113618000D03*
X151257000Y-110918000D03*
D45*
X146050000Y-97028000D03*
X153670000Y-97028000D03*
X93599000Y-80645000D03*
X93599000Y-88265000D03*
D30*
X90017600Y-68046600D03*
X95097600Y-68046600D03*
X90551000Y-87058500D03*
X85471000Y-87058500D03*
D46*
X142050000Y-123750000D03*
X142750000Y-123750000D03*
X147250000Y-123750000D03*
X146500000Y-123750000D03*
X145750000Y-123750000D03*
X145000000Y-123750000D03*
X144250000Y-123750000D03*
X143500000Y-123750000D03*
X142050000Y-121250000D03*
X142750000Y-121250000D03*
X147250000Y-121250000D03*
X146500000Y-121250000D03*
X145750000Y-121250000D03*
X145000000Y-121250000D03*
X144250000Y-121250000D03*
X143500000Y-121250000D03*
X121650000Y-139250000D03*
X121650000Y-138550000D03*
X121650000Y-134050000D03*
X121650000Y-134800000D03*
X121650000Y-135550000D03*
X121650000Y-136300000D03*
X121650000Y-137050000D03*
X121650000Y-137800000D03*
X117350000Y-139250000D03*
X117350000Y-138550000D03*
X117350000Y-134050000D03*
X117350000Y-134800000D03*
X117350000Y-135550000D03*
X117350000Y-136300000D03*
X117350000Y-137050000D03*
X117350000Y-137800000D03*
X121650000Y-109750000D03*
X121650000Y-109050000D03*
X121650000Y-104550000D03*
X121650000Y-105300000D03*
X121650000Y-106050000D03*
X121650000Y-106800000D03*
X121650000Y-107550000D03*
X121650000Y-108300000D03*
X117350000Y-109750000D03*
X117350000Y-109050000D03*
X117350000Y-104550000D03*
X117350000Y-105300000D03*
X117350000Y-106050000D03*
X117350000Y-106800000D03*
X117350000Y-107550000D03*
X117350000Y-108300000D03*
X121650000Y-67750000D03*
X121650000Y-67050000D03*
X121650000Y-62550000D03*
X121650000Y-63300000D03*
X121650000Y-64050000D03*
X121650000Y-64800000D03*
X121650000Y-65550000D03*
X121650000Y-66300000D03*
X117350000Y-67750000D03*
X117350000Y-67050000D03*
X117350000Y-62550000D03*
X117350000Y-63300000D03*
X117350000Y-64050000D03*
X117350000Y-64800000D03*
X117350000Y-65550000D03*
X117350000Y-66300000D03*
D45*
X84582000Y-135572500D03*
X84582000Y-125412500D03*
D28*
X140843000Y-104441000D03*
X140843000Y-107141000D03*
D30*
X103162100Y-54152800D03*
X100672900Y-54152800D03*
X100672900Y-56159400D03*
X103162100Y-56159400D03*
D47*
X107937300Y-51435000D03*
X95897700Y-51435000D03*
D48*
X127000000Y-138000000D03*
D49*
X127000000Y-135460000D03*
D45*
X132270500Y-135445500D03*
X132270500Y-145605500D03*
D21*
X146367500Y-81788000D03*
D22*
X143827500Y-81788000D03*
X141287500Y-81788000D03*
D19*
X125882400Y-77241400D03*
D20*
X125882400Y-74701400D03*
X125882400Y-72161400D03*
X125882400Y-69621400D03*
D19*
X134874000Y-102044500D03*
D20*
X134874000Y-99504500D03*
X134874000Y-96964500D03*
D50*
X152717500Y-67500500D03*
X152717500Y-68770500D03*
X152717500Y-70040500D03*
X156718000Y-69977000D03*
X156718000Y-71247000D03*
X156718000Y-72517000D03*
X152971500Y-72961500D03*
X152971500Y-74231500D03*
X152971500Y-75501500D03*
X156781500Y-75819000D03*
X156781500Y-77089000D03*
X156781500Y-78359000D03*
D12*
X137604500Y-74358500D03*
D13*
X140144500Y-74358500D03*
X137604500Y-76898500D03*
X140144500Y-76898500D03*
D51*
X137287000Y-82042000D03*
D36*
X149559000Y-67246500D03*
X146859000Y-67246500D03*
X149559000Y-71056500D03*
X146859000Y-71056500D03*
X159432000Y-67183000D03*
X162132000Y-67183000D03*
X159432000Y-69342000D03*
X162132000Y-69342000D03*
X149559000Y-73152000D03*
X146859000Y-73152000D03*
X159292300Y-74307700D03*
X161992300Y-74307700D03*
X159266900Y-76466700D03*
X161966900Y-76466700D03*
D45*
X133985000Y-80899000D03*
X126365000Y-80899000D03*
X133985000Y-83629500D03*
X126365000Y-83629500D03*
X126365000Y-86296500D03*
X133985000Y-86296500D03*
D36*
X149622500Y-77025500D03*
X146922500Y-77025500D03*
D19*
X143954500Y-68262500D03*
D20*
X143954500Y-70802500D03*
X143954500Y-73342500D03*
X143954500Y-75882500D03*
D19*
X165100000Y-68834000D03*
D20*
X165100000Y-71374000D03*
X165100000Y-73914000D03*
X165100000Y-76454000D03*
D52*
X85217000Y-91884500D03*
X87757000Y-91884500D03*
X95885000Y-91884500D03*
X98425000Y-91884500D03*
X85217000Y-110426500D03*
X87757000Y-110426500D03*
X95885000Y-110426500D03*
X98425000Y-110426500D03*
D53*
X94821000Y-93555500D03*
X94821000Y-108755500D03*
X85721000Y-93555500D03*
X85721000Y-108755500D03*
D48*
X98552000Y-80645000D03*
D49*
X98552000Y-83185000D03*
D42*
X85344000Y-81407000D03*
D43*
X85344000Y-83947000D03*
M02*
