G04 #@! TF.FileFunction,Profile,NP*
%FSLAX46Y46*%
G04 Gerber Fmt 4.6, Leading zero omitted, Abs format (unit mm)*
G04 Created by KiCad (PCBNEW 4.0.7-e2-6376~58~ubuntu16.04.1) date Sun Nov 19 12:47:47 2017*
%MOMM*%
%LPD*%
G01*
G04 APERTURE LIST*
%ADD10C,0.100000*%
%ADD11C,0.150000*%
G04 APERTURE END LIST*
D10*
D11*
X167000000Y-126500000D02*
X167000000Y-146500000D01*
X167000000Y-118500000D02*
X167000000Y-51500000D01*
X122000000Y-112500000D02*
X122000000Y-118500000D01*
X122000000Y-126500000D02*
X122000000Y-132000000D01*
X117000000Y-69800000D02*
X117000000Y-102500000D01*
X122000000Y-102500000D02*
X122000000Y-69800000D01*
X117000000Y-112500000D02*
X117000000Y-111800000D01*
X122000000Y-112500000D02*
X122000000Y-111800000D01*
X117000000Y-146500000D02*
X117000000Y-141300000D01*
X122000000Y-141300000D02*
X122000000Y-146500000D01*
X117000000Y-129500000D02*
X117000000Y-132000000D01*
X117000000Y-112500000D02*
X117000000Y-129500000D01*
X117000000Y-102500000D02*
G75*
G03X119500000Y-105000000I2500000J0D01*
G01*
X119500000Y-105000000D02*
G75*
G03X122000000Y-102500000I0J2500000D01*
G01*
X119500000Y-109300000D02*
G75*
G03X117000000Y-111800000I0J-2500000D01*
G01*
X122000000Y-111800000D02*
G75*
G03X119500000Y-109300000I-2500000J0D01*
G01*
X149000000Y-124000000D02*
X164500000Y-124000000D01*
X167000000Y-126500000D02*
G75*
G03X164500000Y-124000000I-2500000J0D01*
G01*
X149000000Y-121000000D02*
X164500000Y-121000000D01*
X124500000Y-124000000D02*
X140500000Y-124000000D01*
X124500000Y-121000000D02*
X140500000Y-121000000D01*
X164500000Y-121000000D02*
G75*
G03X167000000Y-118500000I0J2500000D01*
G01*
X147500000Y-122500000D02*
G75*
G03X149000000Y-124000000I1500000J0D01*
G01*
X149000000Y-121000000D02*
G75*
G03X147500000Y-122500000I0J-1500000D01*
G01*
X140500000Y-124000000D02*
G75*
G03X142000000Y-122500000I0J1500000D01*
G01*
X142000000Y-122500000D02*
G75*
G03X140500000Y-121000000I-1500000J0D01*
G01*
X122000000Y-118500000D02*
G75*
G03X124500000Y-121000000I2500000J0D01*
G01*
X124500000Y-124000000D02*
G75*
G03X122000000Y-126500000I0J-2500000D01*
G01*
X119500000Y-67300000D02*
G75*
G03X117000000Y-69800000I0J-2500000D01*
G01*
X122000000Y-69800000D02*
G75*
G03X119500000Y-67300000I-2500000J0D01*
G01*
X117000000Y-132000000D02*
G75*
G03X119500000Y-134500000I2500000J0D01*
G01*
X119500000Y-134500000D02*
G75*
G03X122000000Y-132000000I0J2500000D01*
G01*
X122000000Y-60500000D02*
X122000000Y-51500000D01*
X119500000Y-63000000D02*
G75*
G03X122000000Y-60500000I0J2500000D01*
G01*
X117000000Y-60500000D02*
G75*
G03X119500000Y-63000000I2500000J0D01*
G01*
X124500000Y-49000000D02*
G75*
G03X122000000Y-51500000I0J-2500000D01*
G01*
X119500000Y-138800000D02*
G75*
G03X117000000Y-141300000I0J-2500000D01*
G01*
X122000000Y-141300000D02*
G75*
G03X119500000Y-138800000I-2500000J0D01*
G01*
X117000000Y-51500000D02*
X117000000Y-60500000D01*
X124500000Y-49000000D02*
X164500000Y-49000000D01*
X124500000Y-149000000D02*
X164500000Y-149000000D01*
X122000000Y-146500000D02*
G75*
G03X124500000Y-149000000I2500000J0D01*
G01*
X117000000Y-51500000D02*
G75*
G03X114500000Y-49000000I-2500000J0D01*
G01*
X114500000Y-149000000D02*
G75*
G03X117000000Y-146500000I0J2500000D01*
G01*
X67000000Y-146500000D02*
G75*
G03X69500000Y-149000000I2500000J0D01*
G01*
X164500000Y-149000000D02*
G75*
G03X167000000Y-146500000I0J2500000D01*
G01*
X69500000Y-49000000D02*
G75*
G03X67000000Y-51500000I0J-2500000D01*
G01*
X167000000Y-51500000D02*
G75*
G03X164500000Y-49000000I-2500000J0D01*
G01*
X67000000Y-146500000D02*
X67000000Y-51500000D01*
X69500000Y-149000000D02*
X114500000Y-149000000D01*
X69500000Y-49000000D02*
X114500000Y-49000000D01*
M02*
