M48
;DRILL file {KiCad 4.0.7-e2-6376~58~ubuntu16.04.1} date Sun Nov 19 12:47:40 2017
;FORMAT={-:-/ absolute / inch / decimal}
FMAT,2
INCH,TZ
T1C0.016
T2C0.026
T3C0.028
T4C0.030
T5C0.031
T6C0.032
T7C0.035
T8C0.037
T9C0.039
T10C0.039
T11C0.040
T12C0.047
T13C0.055
T14C0.063
T15C0.087
T16C0.091
T17C0.098
T18C0.126
%
G90
G05
M72
T1
X4.9025Y-3.7225
X5.04Y-2.65
X5.045Y-2.5575
X5.0475Y-2.4875
X5.205Y-4.06
X5.21Y-3.995
X5.24Y-4.295
X5.323Y-2.5122
X5.3404Y-2.3916
X5.3663Y-2.5635
X5.3875Y-2.525
X5.4375Y-2.5675
X5.666Y-2.139
X5.666Y-2.189
X5.667Y-2.089
X5.6675Y-2.24
X5.6675Y-2.2925
X5.6675Y-2.3375
X5.6675Y-2.39
X5.668Y-2.04
X5.67Y-2.44
X5.6725Y-2.49
X5.7825Y-2.595
X5.7825Y-2.75
X5.7825Y-2.9175
X5.785Y-2.985
X5.8075Y-4.425
X5.8375Y-4.3825
X5.88Y-4.2575
X5.9375Y-4.2575
X5.945Y-2.6675
X5.985Y-4.1825
X6.Y-4.02
X6.012Y-4.494
X6.028Y-4.248
X6.045Y-3.725
X6.055Y-4.1475
X6.1775Y-4.1475
X6.19Y-4.332
X6.24Y-4.1425
X6.2475Y-4.4975
X6.29Y-4.5025
X6.305Y-4.3575
X6.31Y-4.295
X6.3175Y-4.4025
X6.374Y-4.382
X6.3825Y-2.59
X6.3875Y-2.785
X6.3875Y-2.8775
X6.3875Y-3.075
T2
X5.315Y-3.5706
X5.315Y-3.6494
X5.66Y-3.5706
X5.66Y-3.6494
T3
X5.3775Y-3.3649
X5.7775Y-3.3649
T4
X3.3748Y-3.6833
X3.3748Y-4.2817
X3.7331Y-3.6833
X3.7331Y-4.2817
T5
X3.027Y-5.331
X3.1169Y-3.0356
X3.1169Y-4.7914
X3.1175Y-4.11
X3.162Y-5.19
X3.2206Y-3.433
X3.2206Y-3.843
X3.2206Y-4.522
X3.235Y-5.175
X3.2481Y-2.9044
X3.2554Y-3.042
X3.2599Y-3.499
X3.2599Y-3.781
X3.2625Y-4.4575
X3.295Y-2.8025
X3.3062Y-3.0481
X3.355Y-3.6175
X3.355Y-4.3475
X3.455Y-3.6175
X3.455Y-4.3475
X3.4642Y-5.4744
X3.5681Y-5.5217
X3.775Y-3.6175
X3.775Y-4.3475
X3.875Y-3.6175
X3.875Y-4.3475
X3.932Y-2.063
X3.943Y-3.0481
X3.9678Y-5.265
X4.0006Y-3.05
X4.0062Y-3.1113
X4.0062Y-3.821
X4.0062Y-4.545
X4.0109Y-5.315
X4.0314Y-2.9044
X4.0456Y-3.162
X4.0456Y-3.883
X4.0456Y-4.6
X4.107Y-2.061
X4.1488Y-3.539
X4.1488Y-4.254
X4.1488Y-4.9775
X5.395Y-3.885
X5.4175Y-3.71
X5.545Y-4.275
X5.5625Y-4.41
X5.592Y-4.032
X5.615Y-5.6725
X5.675Y-3.9425
X5.685Y-3.0975
X5.73Y-5.6725
X5.8925Y-4.2
X5.928Y-3.622
X6.0125Y-2.6575
X6.0125Y-2.7075
X6.0125Y-2.7575
X6.0225Y-2.8725
X6.0225Y-2.9225
X6.0225Y-2.9725
X6.082Y-4.034
X6.134Y-4.4
X6.162Y-4.304
X6.17Y-2.755
X6.17Y-2.805
X6.17Y-2.855
X6.1725Y-2.985
X6.1725Y-3.035
X6.1725Y-3.085
T6
X3.33Y-4.9375
X3.33Y-5.3375
X3.365Y-3.4275
X3.544Y-2.679
X3.565Y-3.4275
X3.685Y-3.175
X3.685Y-3.475
X3.744Y-2.679
X4.975Y-3.185
X4.975Y-3.2925
X4.975Y-3.3975
X5.2075Y-5.3325
X5.2075Y-5.7325
X5.275Y-3.185
X5.275Y-3.2925
X5.275Y-3.3975
X5.43Y-3.4525
X5.4825Y-3.6225
X5.4825Y-3.9225
X5.73Y-3.4525
X5.75Y-3.82
X5.7525Y-3.915
X5.88Y-3.3875
X5.98Y-3.3875
X6.05Y-3.82
X6.0525Y-3.915
T7
X2.874Y-3.8425
X2.874Y-3.9252
X2.874Y-4.0276
X2.874Y-4.1102
X2.874Y-4.5217
X2.874Y-4.6043
X2.874Y-4.7067
X2.874Y-4.7894
X2.874Y-5.2008
X2.874Y-5.2835
X2.874Y-5.3858
X2.874Y-5.4685
X2.9724Y-3.8425
X2.9724Y-3.9409
X2.9724Y-4.1102
X2.9724Y-4.5217
X2.9724Y-4.6201
X2.9724Y-4.7894
X2.9724Y-5.2008
X2.9724Y-5.2992
X2.9724Y-5.4685
X2.9957Y-2.4136
X2.9957Y-2.5136
X2.9957Y-2.6136
X2.9957Y-2.7136
X3.0957Y-2.4636
X3.0957Y-2.5636
X3.0957Y-2.6636
X3.0957Y-2.7636
X4.1681Y-2.4431
X4.1681Y-2.5431
X4.1681Y-2.6431
X4.1681Y-2.7431
X4.2681Y-2.4931
X4.2681Y-2.5931
X4.2681Y-2.6931
X4.2681Y-2.7931
X5.514Y-5.4984
X5.564Y-5.3984
X5.614Y-5.4984
X5.664Y-5.3984
X5.714Y-5.4984
X5.764Y-5.3984
X5.814Y-5.4984
X5.864Y-5.3984
T8
X3.9635Y-2.132
X3.9635Y-2.211
X4.0615Y-2.132
X4.0615Y-2.211
T9
X2.874Y-3.122
X2.874Y-3.2106
X2.874Y-3.2894
X2.874Y-3.3681
X2.874Y-3.4331
X2.9724Y-3.122
X2.9724Y-3.1988
X2.9724Y-3.2776
X2.9724Y-3.3563
X2.9724Y-3.4331
X3.1694Y-3.356
X3.1694Y-4.028
X3.1694Y-4.708
X3.453Y-3.194
X3.6807Y-2.7554
X3.7325Y-2.8125
X3.7325Y-2.9556
X4.07Y-5.3925
X4.0967Y-3.238
X4.0967Y-3.961
X4.0967Y-4.675
X4.2618Y-3.1614
X4.2618Y-3.2382
X4.2618Y-3.3169
X4.2618Y-3.3957
X4.2618Y-3.4724
X4.2618Y-5.3169
X4.2618Y-5.3937
X4.2618Y-5.4724
X4.2618Y-5.5512
X4.2618Y-5.628
X4.2638Y-3.8839
X4.2638Y-3.9606
X4.2638Y-4.0394
X4.2638Y-4.1181
X4.2638Y-4.1949
X4.2638Y-4.6004
X4.2638Y-4.6772
X4.2638Y-4.7559
X4.2638Y-4.8346
X4.2638Y-4.9114
X4.3602Y-3.1614
X4.3602Y-3.2264
X4.3602Y-3.3051
X4.3602Y-3.3839
X4.3602Y-3.4724
X4.3602Y-5.3169
X4.3602Y-5.3819
X4.3602Y-5.4606
X4.3602Y-5.5394
X4.3602Y-5.628
X4.3622Y-3.8839
X4.3622Y-3.9488
X4.3622Y-4.0276
X4.3622Y-4.1063
X4.3622Y-4.1949
X4.3622Y-4.6004
X4.3622Y-4.6654
X4.3622Y-4.7441
X4.3622Y-4.8228
X4.3622Y-4.9114
T10
X3.88Y-3.175
X3.88Y-3.275
X5.Y-5.3331
X5.Y-5.4331
T11
X3.3275Y-4.7125
X3.3275Y-4.8125
X3.3563Y-2.5
X3.3563Y-2.6
X3.3563Y-2.7
X3.36Y-3.205
X3.36Y-3.305
X3.4681Y-4.7244
X3.4681Y-5.1083
X3.4681Y-5.2461
X3.5205Y-2.4803
X3.5681Y-4.7244
X3.5681Y-5.1083
X3.5681Y-5.2461
X3.6205Y-2.4803
X3.6681Y-4.7244
X3.6681Y-5.1083
X3.6681Y-5.2461
X3.7205Y-2.4803
X3.7681Y-4.7244
X3.7681Y-5.1083
X3.7681Y-5.2461
X3.8681Y-4.7244
X3.8681Y-5.1083
X3.8681Y-5.2461
X3.8878Y-2.5
X3.8878Y-2.6
X3.8878Y-2.7
X4.956Y-2.741
X4.956Y-2.841
X4.956Y-2.941
X4.956Y-3.041
X5.17Y-2.021
X5.17Y-2.121
X5.17Y-2.221
X5.17Y-2.321
X5.17Y-2.421
X5.17Y-2.521
X5.17Y-2.621
X5.17Y-2.721
X5.17Y-2.821
X5.17Y-2.921
X5.17Y-3.021
X5.27Y-2.021
X5.27Y-2.121
X5.27Y-2.221
X5.27Y-2.321
X5.27Y-2.421
X5.27Y-2.521
X5.27Y-2.621
X5.27Y-2.721
X5.27Y-2.821
X5.27Y-2.921
X5.27Y-3.021
X5.31Y-3.8175
X5.31Y-3.9175
X5.31Y-4.0175
X5.315Y-4.9803
X5.405Y-3.23
X5.415Y-4.9803
X5.4175Y-2.9275
X5.4175Y-3.0275
X5.515Y-4.9803
X5.5175Y-2.9275
X5.5175Y-3.0275
X5.5625Y-3.22
X5.615Y-4.9803
X5.6625Y-3.22
X5.6675Y-2.6875
X5.6675Y-2.7875
X5.6675Y-2.8875
X5.6675Y-2.9875
X5.715Y-4.9803
X5.7625Y-3.22
X5.815Y-4.9803
X5.915Y-4.9803
X6.015Y-4.9803
X6.5Y-2.71
X6.5Y-2.81
X6.5Y-2.91
X6.5Y-3.01
X6.504Y-3.93
X6.504Y-4.03
X6.504Y-4.13
X6.504Y-4.23
X6.504Y-4.33
X6.504Y-4.43
T12
X3.002Y-2.0945
X3.1398Y-2.0945
X3.3071Y-5.7008
X3.4449Y-5.7008
X3.5827Y-5.7008
X3.7205Y-5.7008
X3.8583Y-5.7008
X4.9796Y-3.5275
X4.9796Y-3.6653
X4.9796Y-3.8031
X4.9796Y-3.9409
X4.9796Y-4.0787
X4.9796Y-4.2165
T13
X6.2925Y-3.3231
X6.2925Y-3.7169
T14
X2.8661Y-2.2835
X2.8661Y-2.8937
X4.3976Y-2.313
X4.3976Y-2.9232
X5.3839Y-5.628
X5.9941Y-5.628
T15
X2.7559Y-2.9921
X2.7559Y-3.563
X2.7559Y-3.7106
X2.7559Y-4.2421
X2.7559Y-4.3898
X2.7559Y-4.9213
X2.7559Y-5.0689
X2.7559Y-5.6004
X4.4783Y-3.0315
X4.4783Y-3.6024
X4.4783Y-5.187
X4.4783Y-5.7579
X4.4803Y-3.7539
X4.4803Y-4.3248
X4.4803Y-4.4705
X4.4803Y-5.0413
T16
X3.7755Y-2.025
X4.2495Y-2.025
T17
X2.7244Y-3.2776
X2.7244Y-3.9764
X2.7244Y-4.6555
X2.7244Y-5.3346
X4.5098Y-3.3169
X4.5098Y-5.4724
X4.5118Y-4.0394
X4.5118Y-4.7559
T18
X2.7953Y-2.0866
X3.1102Y-5.7382
X4.0551Y-5.7382
X4.4488Y-2.0866
X4.9606Y-2.0866
X4.9606Y-4.626
X5.Y-5.0787
X5.Y-5.6693
X6.378Y-5.0787
X6.378Y-5.6693
X6.4173Y-2.0866
X6.4173Y-4.626
T10
X3.2952Y-2.1653G85X3.2952Y-2.0866
G05
X3.5433Y-1.998G85X3.4646Y-1.998
G05
X3.5531Y-2.2343G85X3.4547Y-2.2343
G05
T0
M30
