M48
; DRILL file {KiCad 5.1.5-52549c5~84~ubuntu18.04.1} date So 09 Feb 2020 19:15:00 CET
; FORMAT={-:-/ absolute / metric / decimal}
; #@! TF.CreationDate,2020-02-09T19:15:00+01:00
; #@! TF.GenerationSoftware,Kicad,Pcbnew,5.1.5-52549c5~84~ubuntu18.04.1
; #@! TF.FileFunction,Plated,1,2,PTH
FMAT,2
METRIC
T1C0.400
T2C0.650
T3C0.701
T4C0.762
T5C0.800
T6C0.800
T7C0.900
T8C0.950
T9C1.000
T10C1.001
T11C1.016
T12C1.200
T13C1.400
T14C1.600
T15C2.200
T16C2.301
T17C2.500
T18C3.200
%
G90
G05
T1
X124.523Y-94.551
X128.016Y-67.31
X128.143Y-64.96
X128.207Y-63.182
X132.207Y-103.124
X132.334Y-101.473
X133.096Y-109.093
X135.205Y-63.81
X135.647Y-60.748
X136.304Y-65.113
X136.843Y-64.135
X138.112Y-65.215
X143.916Y-54.331
X143.916Y-55.601
X143.942Y-53.061
X143.954Y-56.896
X143.954Y-58.229
X143.954Y-59.372
X143.954Y-60.706
X143.967Y-51.816
X144.018Y-61.976
X144.082Y-63.246
X146.875Y-65.913
X146.875Y-69.85
X146.875Y-74.105
X146.939Y-75.819
X147.511Y-112.395
X148.272Y-111.316
X149.352Y-108.14
X150.812Y-108.14
X151.003Y-67.754
X152.019Y-106.236
X152.4Y-102.108
X152.705Y-114.148
X153.111Y-107.899
X153.543Y-94.615
X153.797Y-105.346
X156.909Y-105.346
X157.226Y-110.033
X158.496Y-105.219
X158.686Y-114.236
X159.766Y-114.363
X160.147Y-110.68
X160.274Y-109.093
X160.464Y-111.823
X161.9Y-111.303
X162.115Y-65.786
X162.243Y-70.739
X162.243Y-73.088
X162.243Y-78.105
T2
X143.764Y-90.694
X143.764Y-92.694
X135.001Y-90.694
X135.001Y-92.694
T3
X87.9Y-104.0
X89.899Y-104.0
X91.901Y-104.0
X93.902Y-104.0
X136.589Y-85.468
X146.749Y-85.468
T4
X85.721Y-93.555
X85.721Y-108.755
X94.821Y-93.555
X94.821Y-108.755
T5
X76.886Y-135.407
X79.169Y-77.105
X79.169Y-121.702
X79.184Y-104.394
X80.315Y-131.826
X81.802Y-87.198
X81.802Y-97.612
X81.802Y-114.859
X82.169Y-131.445
X82.502Y-73.771
X82.687Y-77.267
X82.802Y-88.875
X82.802Y-96.037
X82.867Y-113.221
X83.693Y-71.183
X83.977Y-77.422
X87.99Y-139.05
X90.63Y-140.25
X99.873Y-52.4
X100.152Y-77.422
X100.781Y-133.731
X101.614Y-77.47
X101.757Y-79.027
X101.757Y-97.053
X101.757Y-115.443
X101.878Y-135.001
X102.397Y-73.771
X102.757Y-80.315
X102.757Y-98.628
X102.757Y-116.84
X104.318Y-52.349
X105.378Y-89.891
X105.378Y-108.052
X105.378Y-126.428
X137.033Y-98.679
X137.605Y-94.234
X140.843Y-108.585
X141.287Y-112.014
X142.037Y-102.413
X142.621Y-144.082
X144.145Y-100.139
X144.399Y-78.676
X145.542Y-144.082
X149.669Y-106.68
X150.571Y-91.999
X154.483Y-102.464
X155.804Y-111.76
X156.515Y-109.322
X156.781Y-75.819
X156.781Y-77.089
X156.781Y-78.359
X152.971Y-72.962
X152.971Y-74.231
X152.971Y-75.501
X152.718Y-67.501
X152.718Y-68.77
X152.718Y-70.04
X156.718Y-69.977
X156.718Y-71.247
X156.718Y-72.517
X85.496Y-87.071
X90.576Y-87.071
X97.663Y-95.54
X97.663Y-97.04
X97.663Y-98.54
X97.663Y-100.04
X85.217Y-91.885
X85.217Y-110.426
X87.757Y-91.885
X87.757Y-110.426
X95.885Y-91.885
X95.885Y-110.426
X98.425Y-91.885
X98.425Y-110.426
X93.599Y-80.645
X93.599Y-88.265
T6
X84.582Y-125.412
X84.582Y-135.572
X126.365Y-80.899
X133.985Y-80.899
X137.922Y-87.694
X145.542Y-87.694
X146.05Y-97.028
X153.67Y-97.028
X132.27Y-135.445
X132.27Y-145.606
X146.113Y-99.441
X153.733Y-99.441
X126.365Y-86.296
X133.985Y-86.296
X126.365Y-83.629
X133.985Y-83.629
X149.352Y-86.042
X151.892Y-86.042
X90.17Y-67.97
X95.25Y-67.97
X139.255Y-92.011
X139.255Y-99.631
T7
X105.87Y-62.055
X105.87Y-64.595
X105.87Y-67.135
X105.87Y-69.675
X108.41Y-63.325
X108.41Y-65.865
X108.41Y-68.405
X108.41Y-70.945
X76.09Y-61.305
X76.09Y-63.845
X76.09Y-66.385
X76.09Y-68.925
X78.63Y-62.575
X78.63Y-65.115
X78.63Y-67.655
X78.63Y-70.195
X110.75Y-80.3
X110.75Y-81.95
X73.0Y-97.6
X73.0Y-99.7
X73.0Y-102.3
X73.0Y-104.4
X75.5Y-97.6
X75.5Y-100.1
X75.5Y-104.4
X73.0Y-85.55
X73.0Y-87.2
X73.0Y-132.1
X73.0Y-134.2
X73.0Y-136.8
X73.0Y-138.9
X75.5Y-132.1
X75.5Y-134.6
X75.5Y-138.9
X110.8Y-98.65
X110.8Y-100.3
X73.0Y-114.85
X73.0Y-116.95
X73.0Y-119.55
X73.0Y-121.65
X75.5Y-114.85
X75.5Y-117.35
X75.5Y-121.65
X110.8Y-116.85
X110.8Y-118.5
X110.75Y-135.05
X110.75Y-136.7
X140.03Y-139.659
X141.3Y-137.119
X142.57Y-139.659
X143.84Y-137.119
X145.11Y-139.659
X146.38Y-137.119
X147.65Y-139.659
X148.92Y-137.119
T8
X100.673Y-54.153
X100.673Y-56.159
X103.162Y-54.153
X103.162Y-56.159
T9
X80.502Y-85.242
X80.502Y-102.311
X80.502Y-119.583
X87.706Y-81.128
X93.49Y-69.987
X94.805Y-71.438
X94.805Y-75.071
X103.378Y-136.969
X104.057Y-82.245
X104.057Y-100.609
X104.057Y-118.745
X108.25Y-80.3
X108.25Y-82.25
X108.25Y-84.25
X108.25Y-86.25
X108.25Y-88.2
X110.75Y-83.95
X110.75Y-85.95
X110.75Y-88.2
X73.0Y-79.3
X73.0Y-81.55
X73.0Y-83.55
X75.5Y-79.3
X75.5Y-81.25
X75.5Y-83.25
X75.5Y-85.25
X75.5Y-87.2
X108.3Y-98.65
X108.3Y-100.6
X108.3Y-102.6
X108.3Y-104.6
X108.3Y-106.55
X110.8Y-102.3
X110.8Y-104.3
X110.8Y-106.55
X108.3Y-116.85
X108.3Y-118.8
X108.3Y-120.8
X108.3Y-122.8
X108.3Y-124.75
X110.8Y-120.5
X110.8Y-122.5
X110.8Y-124.75
X108.25Y-135.05
X108.25Y-137.0
X108.25Y-139.0
X108.25Y-141.0
X108.25Y-142.95
X110.75Y-138.7
X110.75Y-140.7
X110.75Y-142.95
X93.218Y-110.439
X93.218Y-112.979
T10
X127.0Y-135.46
X127.0Y-138.0
X98.552Y-80.645
X98.552Y-83.185
T11
X165.1Y-68.834
X165.1Y-71.374
X165.1Y-73.914
X165.1Y-76.454
X85.25Y-63.5
X85.25Y-66.04
X85.25Y-68.58
X85.344Y-81.407
X85.344Y-83.947
X135.0Y-126.5
X137.54Y-126.5
X140.08Y-126.5
X142.62Y-126.5
X145.16Y-126.5
X147.7Y-126.5
X150.24Y-126.5
X152.78Y-126.5
X165.202Y-99.822
X165.202Y-102.362
X165.202Y-104.902
X165.202Y-107.442
X165.202Y-109.982
X165.202Y-112.522
X141.287Y-81.788
X143.827Y-81.788
X146.368Y-81.788
X125.882Y-69.621
X125.882Y-72.161
X125.882Y-74.701
X125.882Y-77.241
X134.874Y-96.965
X134.874Y-99.504
X134.874Y-102.044
X88.09Y-129.75
X90.63Y-129.75
X93.17Y-129.75
X95.71Y-129.75
X98.25Y-129.75
X88.09Y-133.25
X90.63Y-133.25
X93.17Y-133.25
X95.71Y-133.25
X98.25Y-133.25
X137.287Y-82.042
X137.605Y-74.358
X137.605Y-76.898
X140.144Y-74.358
X140.144Y-76.898
X89.42Y-63.0
X91.96Y-63.0
X94.5Y-63.0
X98.75Y-63.5
X98.75Y-66.04
X98.75Y-68.58
X84.519Y-119.697
X84.519Y-122.237
X88.09Y-120.0
X90.63Y-120.0
X93.17Y-120.0
X95.71Y-120.0
X98.25Y-120.0
X143.954Y-68.263
X143.954Y-70.802
X143.954Y-73.343
X143.954Y-75.882
X131.318Y-51.333
X131.318Y-53.873
X131.318Y-56.413
X131.318Y-58.953
X131.318Y-61.493
X131.318Y-64.033
X131.318Y-66.573
X131.318Y-69.113
X131.318Y-71.653
X131.318Y-74.193
X131.318Y-76.733
X133.858Y-51.333
X133.858Y-53.873
X133.858Y-56.413
X133.858Y-58.953
X133.858Y-61.493
X133.858Y-64.033
X133.858Y-66.573
X133.858Y-69.113
X133.858Y-71.653
X133.858Y-74.193
X133.858Y-76.733
T12
X76.25Y-53.2
X79.75Y-53.2
X126.481Y-89.599
X126.481Y-93.099
X126.481Y-96.599
X126.481Y-100.099
X126.481Y-103.599
X126.481Y-107.099
X84.0Y-144.8
X87.5Y-144.8
X91.0Y-144.8
X94.5Y-144.8
X98.0Y-144.8
T13
X159.829Y-84.407
X159.829Y-94.409
T14
X136.725Y-142.949
X152.225Y-142.949
X111.7Y-58.75
X111.7Y-74.25
X72.8Y-58.0
X72.8Y-73.5
T15
X113.75Y-77.0
X113.75Y-91.5
X70.0Y-94.25
X70.0Y-107.75
X70.0Y-76.0
X70.0Y-90.5
X70.0Y-128.75
X70.0Y-142.25
X113.8Y-95.35
X113.8Y-109.85
X70.0Y-111.5
X70.0Y-125.0
X113.8Y-113.55
X113.8Y-128.05
X113.75Y-131.75
X113.75Y-146.25
T16
X95.898Y-51.435
X107.937Y-51.435
T17
X114.55Y-84.25
X69.2Y-101.0
X69.2Y-83.25
X69.2Y-135.5
X114.6Y-102.6
X69.2Y-118.25
X114.6Y-120.8
X114.55Y-139.0
T18
X79.0Y-145.75
X113.0Y-53.0
X163.0Y-53.0
X71.0Y-53.0
X127.0Y-129.0
X126.0Y-53.0
X162.0Y-129.0
X127.0Y-144.0
X163.0Y-117.5
X162.0Y-144.0
X126.0Y-117.5
X103.0Y-145.75
T10
G00X83.699Y-55.0
M15
G01X83.699Y-53.001
M16
G05
G00X89.999Y-50.749
M15
G01X88.001Y-50.749
M16
G05
G00X90.25Y-56.751
M15
G01X87.75Y-56.751
M16
G05
T0
M30
