M48
;DRILL file {KiCad 4.0.1-stable} date Mittwoch, 24. Februar 2016 11:50:09
;FORMAT={-:-/ absolute / inch / decimal}
FMAT,2
INCH,TZ
T1C0.016
T2C0.030
T3C0.031
T4C0.032
T5C0.032
T6C0.035
T7C0.039
T8C0.040
T9C0.045
T10C0.047
T11C0.050
T12C0.120
%
G90
G05
M72
T1
X4.4134Y-4.5139
X4.5306Y-4.5024
X4.5367Y-4.0167
X4.538Y-4.993
X4.569Y-3.998
X4.57Y-4.062
X4.582Y-4.463
X4.5972Y-4.0887
X4.674Y-1.737
X4.8585Y-2.0217
X4.86Y-4.135
X4.9Y-3.896
X5.046Y-3.972
X5.099Y-3.678
X5.105Y-4.34
X5.115Y-3.9128
X5.116Y-2.701
X5.164Y-4.4222
X5.1656Y-2.515
X5.216Y-3.457
X5.22Y-2.515
X5.261Y-2.453
X5.274Y-1.4612
X5.2898Y-3.5388
X5.29Y-4.231
X5.3038Y-2.5338
X5.307Y-3.792
X5.3794Y-1.5291
X5.449Y-3.657
X5.462Y-1.4766
X5.4706Y-2.4567
X5.471Y-3.377
X5.532Y-2.006
X5.545Y-4.027
X5.546Y-3.2734
X5.568Y-3.103
X5.585Y-2.517
X5.588Y-2.463
X5.588Y-2.946
X5.62Y-3.577
X5.625Y-3.269
X5.64Y-3.34
X5.651Y-3.038
X5.684Y-2.4508
X5.695Y-2.942
X5.729Y-3.898
X5.7328Y-2.9681
X5.7412Y-2.7537
X5.743Y-2.425
X5.75Y-3.38
X5.753Y-3.268
X5.7877Y-2.7859
X5.793Y-3.664
X5.846Y-4.903
X5.93Y-1.6
X5.934Y-4.82
X5.94Y-4.8758
X5.953Y-1.658
X5.955Y-1.818
X5.98Y-2.5999
X5.9919Y-2.458
X6.0292Y-1.6272
X6.03Y-1.53
X6.03Y-3.88
X6.03Y-4.724
X6.07Y-3.84
X6.099Y-2.478
X6.1668Y-2.45
X6.2Y-2.54
X6.26Y-2.48
X6.2879Y-2.5788
X6.3199Y-2.5164
X6.38Y-1.995
X6.421Y-2.7384
X6.49Y-3.89
T2
X4.775Y-2.246
X4.875Y-2.254
X4.975Y-2.246
X5.075Y-2.254
X5.175Y-2.246
X5.275Y-2.254
T3
X4.141Y-5.214
X4.241Y-5.214
X5.499Y-4.078
X5.499Y-4.178
X5.523Y-2.0985
X5.523Y-2.1985
X5.618Y-2.0985
X5.618Y-2.1985
X5.708Y-2.0985
X5.708Y-2.1985
X5.9Y-4.07
X5.9Y-4.17
X6.2Y-4.07
X6.2Y-4.17
X6.4Y-4.076
X6.4Y-4.176
X6.5Y-4.078
X6.5Y-4.178
T4
X3.092Y-2.08
X3.092Y-2.26
X3.092Y-2.44
X3.092Y-2.62
X3.092Y-2.8
X3.092Y-2.98
X3.092Y-3.16
X3.092Y-3.34
X3.092Y-3.535
X3.092Y-3.715
X3.092Y-3.895
X3.092Y-4.075
X3.092Y-4.255
X3.092Y-4.435
X3.092Y-4.615
X3.092Y-4.795
X3.105Y-4.93
X3.105Y-5.23
X3.31Y-4.93
X3.31Y-5.03
X3.31Y-5.13
X3.31Y-5.23
X3.391Y-3.07
X3.392Y-1.99
X3.392Y-2.08
X3.392Y-2.17
X3.392Y-2.26
X3.392Y-2.35
X3.392Y-2.44
X3.392Y-2.53
X3.392Y-2.62
X3.392Y-2.71
X3.392Y-2.8
X3.392Y-2.89
X3.392Y-2.98
X3.392Y-3.16
X3.392Y-3.25
X3.392Y-3.34
X3.392Y-3.445
X3.392Y-3.535
X3.392Y-3.625
X3.392Y-3.715
X3.392Y-3.805
X3.392Y-3.895
X3.392Y-3.985
X3.392Y-4.075
X3.392Y-4.165
X3.392Y-4.255
X3.392Y-4.345
X3.392Y-4.435
X3.392Y-4.525
X3.392Y-4.615
X3.392Y-4.705
X3.392Y-4.795
X3.46Y-1.99
X3.46Y-2.08
X3.46Y-2.17
X3.46Y-2.26
X3.46Y-2.35
X3.46Y-2.44
X3.46Y-2.53
X3.46Y-2.62
X3.46Y-2.71
X3.46Y-2.8
X3.46Y-2.89
X3.46Y-2.98
X3.46Y-3.07
X3.46Y-3.16
X3.46Y-3.25
X3.46Y-3.34
X3.46Y-3.445
X3.46Y-3.535
X3.46Y-3.625
X3.46Y-3.715
X3.46Y-3.805
X3.46Y-3.895
X3.46Y-3.985
X3.46Y-4.075
X3.46Y-4.165
X3.46Y-4.255
X3.46Y-4.345
X3.46Y-4.435
X3.46Y-4.525
X3.46Y-4.615
X3.46Y-4.705
X3.46Y-4.795
X3.61Y-4.93
X3.61Y-5.03
X3.61Y-5.13
X3.61Y-5.23
X3.71Y-5.03
X3.71Y-5.13
X3.76Y-2.08
X3.76Y-2.26
X3.76Y-2.44
X3.76Y-2.62
X3.76Y-2.8
X3.76Y-2.98
X3.76Y-3.16
X3.76Y-3.34
X3.76Y-3.535
X3.76Y-3.715
X3.76Y-3.895
X3.76Y-4.075
X3.76Y-4.255
X3.76Y-4.435
X3.76Y-4.615
X3.76Y-4.795
X3.87Y-1.97
X3.87Y-2.07
X3.87Y-2.17
X3.87Y-2.27
X3.87Y-2.37
X3.87Y-2.47
X3.87Y-2.57
X3.87Y-2.67
X3.87Y-2.77
X3.87Y-2.87
X3.87Y-2.97
X3.87Y-3.07
X3.87Y-3.17
X3.87Y-3.27
X3.87Y-3.37
X3.87Y-3.47
X3.87Y-3.57
X3.87Y-3.67
X3.87Y-3.77
X3.87Y-3.87
X3.87Y-3.97
X3.87Y-4.07
X3.87Y-4.17
X3.87Y-4.27
X3.87Y-4.37
X3.87Y-4.47
X3.87Y-4.57
X3.87Y-4.67
X3.87Y-4.77
X3.87Y-4.87
X3.87Y-4.97
X3.87Y-5.07
X3.98Y-1.97
X3.98Y-2.07
X3.98Y-2.17
X3.98Y-2.27
X3.98Y-2.37
X3.98Y-2.47
X3.98Y-2.57
X3.98Y-2.67
X3.98Y-2.77
X3.98Y-2.87
X3.98Y-2.97
X3.98Y-3.07
X3.98Y-3.17
X3.98Y-3.27
X3.98Y-3.37
X3.98Y-3.47
X3.98Y-3.57
X3.98Y-3.67
X3.98Y-3.77
X3.98Y-3.87
X3.98Y-3.97
X3.98Y-4.07
X3.98Y-4.17
X3.98Y-4.27
X3.98Y-4.37
X3.98Y-4.47
X3.98Y-4.57
X3.98Y-4.67
X3.98Y-4.77
X3.98Y-4.87
X3.98Y-4.97
X3.98Y-5.07
X4.28Y-1.97
X4.28Y-2.07
X4.28Y-2.17
X4.28Y-2.27
X4.28Y-2.37
X4.28Y-2.47
X4.28Y-2.57
X4.28Y-2.67
X4.28Y-2.77
X4.28Y-2.87
X4.28Y-2.97
X4.28Y-3.07
X4.28Y-3.17
X4.28Y-3.27
X4.28Y-3.37
X4.28Y-3.47
X4.28Y-3.57
X4.28Y-3.67
X4.28Y-3.77
X4.28Y-3.87
X4.28Y-3.97
X4.28Y-4.07
X4.28Y-4.17
X4.28Y-4.27
X4.28Y-4.37
X4.28Y-4.47
X4.28Y-4.57
X4.28Y-4.67
X4.28Y-4.77
X4.28Y-4.87
X4.28Y-4.97
X4.28Y-5.07
X4.62Y-2.075
X4.62Y-2.175
X4.62Y-2.275
X4.62Y-2.375
X4.665Y-2.495
X4.665Y-2.595
X4.665Y-2.695
X4.665Y-2.795
X4.665Y-2.895
X4.665Y-2.995
X4.665Y-3.095
X4.665Y-3.195
X4.665Y-3.295
X4.665Y-3.395
X4.665Y-3.495
X4.665Y-3.595
X4.665Y-3.695
X4.665Y-3.795
X4.665Y-3.895
X4.665Y-3.995
X4.665Y-4.095
X4.665Y-4.195
X4.665Y-4.295
X4.665Y-4.395
X4.705Y-1.855
X4.71Y-1.945
X4.71Y-2.04
X4.71Y-2.135
X4.775Y-2.495
X4.775Y-2.595
X4.775Y-2.695
X4.775Y-2.795
X4.775Y-2.895
X4.775Y-2.995
X4.775Y-3.095
X4.775Y-3.195
X4.775Y-3.295
X4.775Y-3.395
X4.775Y-3.495
X4.775Y-3.595
X4.775Y-3.695
X4.775Y-3.795
X4.775Y-3.895
X4.775Y-3.995
X4.775Y-4.095
X4.775Y-4.195
X4.775Y-4.295
X4.775Y-4.395
X4.78Y-1.755
X4.855Y-1.855
X4.9Y-1.75
X4.925Y-2.62
X4.925Y-2.795
X4.925Y-3.98
X4.925Y-4.075
X4.925Y-4.175
X4.925Y-4.27
X4.9275Y-2.995
X4.965Y-3.6239
X4.965Y-3.8161
X4.975Y-1.85
X5.01Y-1.945
X5.01Y-2.04
X5.01Y-2.135
X5.0275Y-2.995
X5.05Y-1.75
X5.105Y-1.84
X5.105Y-2.14
X5.11Y-3.625
X5.11Y-3.815
X5.205Y-1.84
X5.205Y-2.14
X5.21Y-3.24
X5.21Y-3.34
X5.21Y-3.625
X5.21Y-3.815
X5.225Y-2.62
X5.225Y-2.795
X5.225Y-3.98
X5.225Y-4.075
X5.225Y-4.175
X5.225Y-4.27
X5.305Y-1.84
X5.305Y-2.14
X5.375Y-2.495
X5.375Y-2.595
X5.375Y-2.695
X5.375Y-2.795
X5.375Y-2.895
X5.375Y-2.995
X5.375Y-3.095
X5.375Y-3.195
X5.375Y-3.295
X5.375Y-3.395
X5.375Y-3.495
X5.375Y-3.595
X5.375Y-3.695
X5.375Y-3.795
X5.375Y-3.895
X5.375Y-3.995
X5.375Y-4.095
X5.375Y-4.195
X5.375Y-4.295
X5.375Y-4.395
X5.3875Y-2.075
X5.3875Y-2.375
X5.487Y-3.1
X5.4925Y-2.3825
X5.4925Y-2.6825
X5.4925Y-2.895
X5.4925Y-2.995
X5.5Y-3.855
X5.5Y-3.97
X5.5Y-4.27
X5.5Y-4.38
X5.535Y-3.185
X5.535Y-3.485
X5.592Y-2.789
X5.5925Y-2.3825
X5.5925Y-2.6825
X5.6Y-3.97
X5.6Y-4.12
X5.6Y-4.27
X5.645Y-3.185
X5.645Y-3.485
X5.692Y-2.789
X5.6925Y-2.3825
X5.6925Y-2.6825
X5.7Y-3.97
X5.7Y-4.12
X5.7Y-4.27
X5.755Y-3.185
X5.755Y-3.485
X5.787Y-3.1
X5.7925Y-2.3825
X5.7925Y-2.6825
X5.7925Y-2.895
X5.7925Y-2.995
X5.797Y-1.967
X5.8Y-3.855
X5.8Y-3.97
X5.8Y-4.27
X5.8Y-4.38
X5.8925Y-2.3425
X5.8925Y-2.4425
X5.897Y-1.967
X5.9Y-3.06
X5.9Y-3.16
X5.9Y-3.26
X5.9Y-3.36
X5.9Y-3.46
X5.9Y-3.56
X5.9Y-3.66
X5.9Y-3.76
X5.9Y-3.86
X5.9Y-3.97
X5.9Y-4.27
X5.9Y-4.38
X5.93Y-2.545
X5.93Y-2.65
X5.93Y-2.95
X6.Y-3.97
X6.Y-4.12
X6.Y-4.27
X6.03Y-2.545
X6.03Y-2.65
X6.03Y-2.95
X6.095Y-3.16
X6.095Y-3.26
X6.095Y-3.56
X6.095Y-3.66
X6.1Y-3.97
X6.1Y-4.12
X6.1Y-4.27
X6.13Y-2.65
X6.13Y-2.95
X6.2Y-3.06
X6.2Y-3.16
X6.2Y-3.26
X6.2Y-3.36
X6.2Y-3.46
X6.2Y-3.56
X6.2Y-3.66
X6.2Y-3.76
X6.2Y-3.86
X6.2Y-3.97
X6.2Y-4.27
X6.2Y-4.38
X6.23Y-2.65
X6.23Y-2.95
X6.3Y-3.06
X6.3Y-3.36
X6.3Y-3.46
X6.3Y-3.76
X6.3Y-3.86
X6.3Y-3.97
X6.3Y-4.27
X6.3Y-4.38
X6.33Y-2.6525
X6.33Y-2.9525
X6.4Y-3.06
X6.4Y-3.36
X6.4Y-3.46
X6.4Y-3.76
X6.4Y-3.86
X6.4Y-3.97
X6.4Y-4.27
X6.43Y-2.6525
X6.43Y-2.825
X6.43Y-2.9525
X6.5Y-3.97
X6.5Y-4.27
X6.53Y-2.6525
X6.53Y-2.825
X6.53Y-2.9525
X6.6Y-3.97
X6.6Y-4.27
X6.6Y-4.38
X6.624Y-1.692
X6.624Y-1.992
X6.63Y-2.6525
X6.63Y-2.9525
T5
X3.2Y-4.93
X3.2Y-5.23
X4.925Y-2.71
X5.225Y-2.71
T6
X3.235Y-1.845
X3.285Y-1.745
X3.335Y-1.845
X3.385Y-1.745
X3.435Y-1.845
X3.485Y-1.745
X3.535Y-1.845
X3.585Y-1.745
X4.515Y-4.905
X4.565Y-4.805
X4.615Y-4.905
X4.665Y-4.805
X4.715Y-4.905
X4.765Y-4.805
X5.903Y-1.864
X5.953Y-1.764
X6.003Y-1.864
X6.053Y-1.764
X6.103Y-1.864
X6.153Y-1.764
X6.203Y-1.864
X6.253Y-1.764
T7
X4.372Y-1.8064
X4.372Y-1.9836
X4.628Y-1.8064
X4.628Y-1.9836
X4.792Y-1.616
X4.892Y-1.616
X4.992Y-1.616
X5.092Y-1.616
X5.192Y-1.616
X5.292Y-1.616
X5.523Y-3.5854
X5.523Y-3.7626
X5.779Y-3.5854
X5.779Y-3.7626
T8
X4.472Y-2.495
X4.472Y-2.595
X4.472Y-2.695
X4.472Y-2.795
X4.472Y-2.895
X4.472Y-2.995
X4.472Y-3.095
X4.472Y-3.195
X4.472Y-3.295
X4.472Y-3.395
X4.472Y-3.5
X4.472Y-3.6
X4.472Y-3.7
X4.472Y-3.8
X4.472Y-3.9
X4.472Y-4.
X4.472Y-4.1
X4.472Y-4.2
X4.472Y-4.3
X4.472Y-4.4
X4.566Y-4.652
X4.666Y-4.652
X4.766Y-4.652
X4.775Y-2.375
X4.875Y-2.375
X4.975Y-2.375
X4.995Y-4.61
X4.995Y-4.71
X4.995Y-4.81
X4.995Y-4.91
X4.995Y-5.01
X4.995Y-5.11
X5.075Y-2.375
X5.175Y-2.375
X5.275Y-2.375
X5.462Y-1.576
X5.462Y-1.676
X5.462Y-1.776
X5.462Y-1.876
X5.562Y-1.576
X5.562Y-1.676
X5.562Y-1.776
X5.562Y-1.876
X5.662Y-1.576
X5.662Y-1.676
X5.662Y-1.776
X5.662Y-1.876
X6.414Y-2.256
X6.414Y-2.378
X6.414Y-2.501
X6.416Y-2.135
X6.49Y-1.81
X6.49Y-1.91
X6.514Y-2.256
X6.514Y-2.378
X6.514Y-2.501
X6.516Y-2.135
X6.567Y-3.13
X6.567Y-3.23
X6.567Y-3.33
X6.567Y-3.43
X6.567Y-3.53
X6.567Y-3.63
X6.6Y-3.755
X6.6Y-3.855
X6.614Y-2.256
X6.614Y-2.378
X6.614Y-2.501
X6.616Y-2.135
T9
X4.445Y-2.13
X4.445Y-2.23
X4.445Y-2.33
T10
X2.9176Y-1.9899
X2.9176Y-2.1277
X2.9176Y-2.2655
X2.9176Y-2.4033
X2.9176Y-2.5411
X2.9176Y-2.6789
X2.9176Y-2.8167
X2.9176Y-2.9545
X2.9176Y-3.0923
X2.9176Y-3.2301
X2.9176Y-3.3674
X2.9176Y-3.5052
X2.9176Y-3.643
X2.9176Y-3.7808
X2.9176Y-3.9186
X2.9176Y-4.0564
X2.9176Y-4.1942
X2.9176Y-4.332
X2.9176Y-4.4698
X2.9176Y-4.6076
X2.92Y-4.7822
X2.92Y-4.92
T11
X2.86Y-1.78
X3.01Y-1.78
X3.091Y-3.07
X3.092Y-1.99
X3.092Y-2.17
X3.092Y-2.35
X3.092Y-2.53
X3.092Y-2.71
X3.092Y-2.89
X3.092Y-3.25
X3.092Y-3.445
X3.092Y-3.625
X3.092Y-3.805
X3.092Y-3.985
X3.092Y-4.165
X3.092Y-4.345
X3.092Y-4.525
X3.092Y-4.705
X3.76Y-1.99
X3.76Y-2.17
X3.76Y-2.35
X3.76Y-2.53
X3.76Y-2.71
X3.76Y-2.89
X3.76Y-3.07
X3.76Y-3.25
X3.76Y-3.445
X3.76Y-3.625
X3.76Y-3.805
X3.76Y-3.985
X3.76Y-4.165
X3.76Y-4.345
X3.76Y-4.525
X3.76Y-4.705
T12
X2.9569Y-1.5798
X2.9569Y-5.1231
X6.5002Y-1.5798
X6.5002Y-5.1231
T7
X3.8613Y-1.7471G85X3.8613Y-1.6684
G05
X4.1094Y-1.5798G85X4.0306Y-1.5798
G05
X4.1192Y-1.8161G85X4.0208Y-1.8161
G05
T0
M30
