G04 #@! TF.FileFunction,Legend,Bot*
%FSLAX46Y46*%
G04 Gerber Fmt 4.6, Leading zero omitted, Abs format (unit mm)*
G04 Created by KiCad (PCBNEW 4.0.1-stable) date Mittwoch, 24. Februar 2016 11:37:32*
%MOMM*%
G01*
G04 APERTURE LIST*
%ADD10C,0.100000*%
%ADD11C,0.150000*%
G04 APERTURE END LIST*
D10*
D11*
X156104000Y-132128000D02*
G75*
G03X155104000Y-133128000I0J-1000000D01*
G01*
X155104000Y-133128000D02*
G75*
G03X156104000Y-134128000I1000000J0D01*
G01*
X163104000Y-133128000D02*
G75*
G03X162104000Y-132128000I-1000000J0D01*
G01*
X162104000Y-134128000D02*
G75*
G03X163104000Y-133128000I0J1000000D01*
G01*
X162104000Y-134128000D02*
X156104000Y-134128000D01*
X156104000Y-132128000D02*
X162104000Y-132128000D01*
X155850000Y-112683000D02*
X161850000Y-112683000D01*
X161850000Y-114683000D02*
X155850000Y-114683000D01*
X161850000Y-114683000D02*
G75*
G03X162850000Y-113683000I0J1000000D01*
G01*
X162850000Y-113683000D02*
G75*
G03X161850000Y-112683000I-1000000J0D01*
G01*
X154850000Y-113683000D02*
G75*
G03X155850000Y-114683000I1000000J0D01*
G01*
X155850000Y-112683000D02*
G75*
G03X154850000Y-113683000I0J-1000000D01*
G01*
X136104000Y-117715000D02*
X136104000Y-128715000D01*
X142104000Y-117715000D02*
X142104000Y-128715000D01*
X139104000Y-131715000D02*
G75*
G03X142104000Y-128715000I0J3000000D01*
G01*
X136104000Y-128715000D02*
G75*
G03X139104000Y-131715000I3000000J0D01*
G01*
X142104000Y-117715000D02*
G75*
G03X139104000Y-114715000I-3000000J0D01*
G01*
X139104000Y-114715000D02*
G75*
G03X136104000Y-117715000I0J-3000000D01*
G01*
X70104000Y-37128000D02*
X70104000Y-133128000D01*
X168104000Y-35128000D02*
X72104000Y-35128000D01*
X170104000Y-133128000D02*
X170104000Y-37128000D01*
X72104000Y-135128000D02*
X168104000Y-135128000D01*
X72104000Y-35128000D02*
G75*
G03X70104000Y-37128000I0J-2000000D01*
G01*
X170104000Y-37128000D02*
G75*
G03X168104000Y-35128000I-2000000J0D01*
G01*
X168104000Y-135128000D02*
G75*
G03X170104000Y-133128000I0J2000000D01*
G01*
X70104000Y-133128000D02*
G75*
G03X72104000Y-135128000I2000000J0D01*
G01*
M02*
