G04 #@! TF.FileFunction,Copper,L2,Bot,Signal*
%FSLAX46Y46*%
G04 Gerber Fmt 4.6, Leading zero omitted, Abs format (unit mm)*
G04 Created by KiCad (PCBNEW 4.0.7) date Sunday, 07. January 2018 'u10' 22:10:40*
%MOMM*%
%LPD*%
G01*
G04 APERTURE LIST*
%ADD10C,0.100000*%
%ADD11C,0.150000*%
%ADD12C,1.998980*%
%ADD13R,1.699260X1.198880*%
%ADD14O,1.699260X1.198880*%
%ADD15R,1.727200X1.727200*%
%ADD16O,1.727200X1.727200*%
%ADD17C,4.064000*%
%ADD18R,2.032000X2.032000*%
%ADD19O,2.032000X2.032000*%
%ADD20R,1.700000X1.700000*%
%ADD21O,1.700000X1.700000*%
%ADD22C,5.001260*%
%ADD23O,1.501140X1.998980*%
%ADD24C,0.800000*%
%ADD25C,0.381000*%
%ADD26C,0.508000*%
%ADD27C,0.254000*%
G04 APERTURE END LIST*
D10*
D11*
X129500000Y-71500000D02*
X191500000Y-71500000D01*
X128000000Y-126500000D02*
X128000000Y-73000000D01*
X191500000Y-128000000D02*
X129500000Y-128000000D01*
X193000000Y-73000000D02*
X193000000Y-126500000D01*
X129500000Y-71500000D02*
G75*
G03X128000000Y-73000000I0J-1500000D01*
G01*
X128000000Y-126500000D02*
G75*
G03X129500000Y-128000000I1500000J0D01*
G01*
X191500000Y-128000000D02*
G75*
G03X193000000Y-126500000I0J1500000D01*
G01*
X193000000Y-73000000D02*
G75*
G03X191500000Y-71500000I-1500000J0D01*
G01*
D12*
X155041600Y-96012000D03*
X160121600Y-96012000D03*
D13*
X133350000Y-87835740D03*
D14*
X133350000Y-85836760D03*
X133350000Y-83835240D03*
X133350000Y-81836260D03*
D15*
X136372600Y-76758800D03*
D16*
X136372600Y-74218800D03*
X138912600Y-76758800D03*
X138912600Y-74218800D03*
X141452600Y-76758800D03*
X141452600Y-74218800D03*
X143992600Y-76758800D03*
X143992600Y-74218800D03*
X146532600Y-76758800D03*
X146532600Y-74218800D03*
X149072600Y-76758800D03*
X149072600Y-74218800D03*
X151612600Y-76758800D03*
X151612600Y-74218800D03*
X154152600Y-76758800D03*
X154152600Y-74218800D03*
X156692600Y-76758800D03*
X156692600Y-74218800D03*
X159232600Y-76758800D03*
X159232600Y-74218800D03*
X161772600Y-76758800D03*
X161772600Y-74218800D03*
X164312600Y-76758800D03*
X164312600Y-74218800D03*
X166852600Y-76758800D03*
X166852600Y-74218800D03*
X169392600Y-76758800D03*
X169392600Y-74218800D03*
X171932600Y-76758800D03*
X171932600Y-74218800D03*
X174472600Y-76758800D03*
X174472600Y-74218800D03*
X177012600Y-76758800D03*
X177012600Y-74218800D03*
X179552600Y-76758800D03*
X179552600Y-74218800D03*
X182092600Y-76758800D03*
X182092600Y-74218800D03*
X184632600Y-76758800D03*
X184632600Y-74218800D03*
D17*
X189500000Y-75500000D03*
X131500000Y-75500000D03*
X189500000Y-124500000D03*
X131500000Y-124500000D03*
D18*
X136779000Y-106934000D03*
D19*
X136779000Y-109474000D03*
D18*
X136906000Y-92710000D03*
D19*
X136906000Y-95250000D03*
D20*
X171831000Y-119253000D03*
D21*
X174371000Y-119253000D03*
X176911000Y-119253000D03*
X179451000Y-119253000D03*
X181991000Y-119253000D03*
X184531000Y-119253000D03*
D13*
X133350000Y-119458740D03*
D14*
X133350000Y-117459760D03*
X133350000Y-115458240D03*
X133350000Y-113459260D03*
D13*
X178943000Y-96471740D03*
D14*
X178943000Y-94472760D03*
X178943000Y-92471240D03*
X178943000Y-90472260D03*
D20*
X189484000Y-113157000D03*
D21*
X189484000Y-115697000D03*
D22*
X164386260Y-116205000D03*
D23*
X151892000Y-114686080D03*
X154663140Y-114686080D03*
X157431740Y-114686080D03*
X149120860Y-114686080D03*
X146352260Y-114686080D03*
X147736560Y-117723920D03*
X150507700Y-117723920D03*
X153276300Y-117723920D03*
X156047440Y-117723920D03*
D22*
X139397740Y-116205000D03*
D24*
X148082000Y-96774000D03*
X153670000Y-101346000D03*
X161544000Y-101600000D03*
X143510000Y-102362000D03*
X146558000Y-106426000D03*
X140208000Y-106172000D03*
X155463137Y-81266383D03*
X150410575Y-81505490D03*
X169926000Y-91059000D03*
X135128000Y-82296000D03*
X135128000Y-85979000D03*
X141097000Y-95631000D03*
X132969000Y-104394000D03*
X172085000Y-99060000D03*
X173825613Y-84442663D03*
X172847000Y-98171000D03*
X175146398Y-97628010D03*
X154178000Y-89916000D03*
X157226000Y-85344000D03*
X157226000Y-85344000D03*
X153035000Y-78613000D03*
X140843000Y-85471000D03*
X142748000Y-90551000D03*
X173736000Y-97628010D03*
X180848000Y-110744000D03*
X179070000Y-110744000D03*
X164087011Y-78357361D03*
D25*
X161544000Y-101600000D02*
X153924000Y-101600000D01*
X153924000Y-101600000D02*
X153670000Y-101346000D01*
X143256000Y-106172000D02*
X146304000Y-106172000D01*
X140208000Y-106172000D02*
X143256000Y-106172000D01*
X143256000Y-102616000D02*
X143510000Y-102362000D01*
X143256000Y-106172000D02*
X143256000Y-102616000D01*
X146304000Y-106172000D02*
X146558000Y-106426000D01*
D26*
X150410575Y-81505490D02*
X155224030Y-81505490D01*
X156144243Y-81947489D02*
X155863136Y-81666382D01*
X155863136Y-81666382D02*
X155463137Y-81266383D01*
X166170965Y-81947489D02*
X156144243Y-81947489D01*
X155224030Y-81505490D02*
X155463137Y-81266383D01*
X166252511Y-87385511D02*
X166252511Y-82029035D01*
X166252511Y-82029035D02*
X166170965Y-81947489D01*
X169926000Y-91059000D02*
X166252511Y-87385511D01*
X135918510Y-81505490D02*
X149844890Y-81505490D01*
X135128000Y-82296000D02*
X135918510Y-81505490D01*
X149844890Y-81505490D02*
X150410575Y-81505490D01*
X135128000Y-85979000D02*
X135128000Y-82296000D01*
X141097000Y-95631000D02*
X138176000Y-92710000D01*
X138176000Y-92710000D02*
X136906000Y-92710000D01*
X133350000Y-117459760D02*
X133099810Y-117459760D01*
X130429000Y-114788950D02*
X130429000Y-87757000D01*
X133099810Y-117459760D02*
X130429000Y-114788950D01*
X130429000Y-87757000D02*
X130429000Y-80162400D01*
X130429000Y-80162400D02*
X136372600Y-74218800D01*
X136906000Y-92710000D02*
X135382000Y-92710000D01*
X135382000Y-92710000D02*
X130429000Y-87757000D01*
D25*
X136779000Y-106934000D02*
X136779000Y-105537000D01*
X136779000Y-105537000D02*
X135636000Y-104394000D01*
X135636000Y-104394000D02*
X132969000Y-104394000D01*
X143992600Y-76758800D02*
X147911946Y-80678146D01*
X172085000Y-97636056D02*
X171685001Y-98036055D01*
X172085000Y-91522048D02*
X172085000Y-97636056D01*
X156373675Y-81006978D02*
X166141930Y-81006978D01*
X155083695Y-80475881D02*
X155842579Y-80475881D01*
X147911946Y-80678146D02*
X154881430Y-80678146D01*
X166141930Y-81006978D02*
X166897022Y-81762070D01*
X166897022Y-81762070D02*
X166897022Y-86334070D01*
X171685001Y-98036055D02*
X171685001Y-98660001D01*
X155842579Y-80475881D02*
X156373675Y-81006978D01*
X171685001Y-98660001D02*
X172085000Y-99060000D01*
X166897022Y-86334070D02*
X172085000Y-91522048D01*
X154881430Y-80678146D02*
X155083695Y-80475881D01*
X173893843Y-84442663D02*
X173825613Y-84442663D01*
X178943000Y-89491820D02*
X173893843Y-84442663D01*
X178943000Y-90472260D02*
X178943000Y-89491820D01*
X166382592Y-80425967D02*
X167478033Y-81521408D01*
X156083242Y-79894871D02*
X156614337Y-80425967D01*
X152410935Y-80097135D02*
X154640768Y-80097135D01*
X172847000Y-91462375D02*
X172847000Y-97605315D01*
X167478033Y-86093408D02*
X172847000Y-91462375D01*
X156614337Y-80425967D02*
X166382592Y-80425967D01*
X154640768Y-80097135D02*
X154843033Y-79894870D01*
X149072600Y-76758800D02*
X152410935Y-80097135D01*
X167478033Y-81521408D02*
X167478033Y-86093408D01*
X172847000Y-97605315D02*
X172847000Y-98171000D01*
X154843033Y-79894870D02*
X156083242Y-79894871D01*
X175146398Y-97062325D02*
X175146398Y-97628010D01*
X157095661Y-79263945D02*
X167528945Y-79263945D01*
X155016199Y-77622399D02*
X155454115Y-77622399D01*
X154152600Y-76758800D02*
X155016199Y-77622399D01*
X167528945Y-79263945D02*
X175146398Y-86881398D01*
X175146398Y-86881398D02*
X175146398Y-97062325D01*
X155454115Y-77622399D02*
X157095661Y-79263945D01*
X159131000Y-76860400D02*
X159232600Y-76758800D01*
X157226000Y-85344000D02*
X157226000Y-86868000D01*
X157226000Y-86868000D02*
X154178000Y-89916000D01*
X152898499Y-73616831D02*
X152898499Y-78476499D01*
X152898499Y-78476499D02*
X153035000Y-78613000D01*
X153550631Y-72964699D02*
X152898499Y-73616831D01*
X164312600Y-74218800D02*
X163058499Y-72964699D01*
X163058499Y-72964699D02*
X153550631Y-72964699D01*
X142748000Y-90551000D02*
X140843000Y-88646000D01*
X140843000Y-88646000D02*
X140843000Y-85471000D01*
X173736000Y-86546673D02*
X173736000Y-97062325D01*
X156854999Y-79844956D02*
X167034283Y-79844956D01*
X156323906Y-79313862D02*
X156854999Y-79844956D01*
X154602372Y-79313860D02*
X156323906Y-79313862D01*
X154400107Y-79516124D02*
X154602372Y-79313860D01*
X152768180Y-79516124D02*
X154400107Y-79516124D01*
X151612600Y-76758800D02*
X151612600Y-78360544D01*
X167034283Y-79844956D02*
X173736000Y-86546673D01*
X173736000Y-97062325D02*
X173736000Y-97628010D01*
X151612600Y-78360544D02*
X152768180Y-79516124D01*
D26*
X192024000Y-117348000D02*
X192024000Y-114339000D01*
X192024000Y-114339000D02*
X190842000Y-113157000D01*
X190842000Y-113157000D02*
X189484000Y-113157000D01*
X187833000Y-121539000D02*
X192024000Y-117348000D01*
X172759000Y-121539000D02*
X187833000Y-121539000D01*
X171831000Y-119253000D02*
X171831000Y-120611000D01*
X171831000Y-120611000D02*
X172759000Y-121539000D01*
D25*
X180848000Y-110744000D02*
X180848000Y-111309685D01*
X180848000Y-111309685D02*
X178210499Y-113947186D01*
X178210499Y-113947186D02*
X178210499Y-119789443D01*
X175220999Y-120102999D02*
X174371000Y-119253000D01*
X178210499Y-119789443D02*
X177506441Y-120493501D01*
X177506441Y-120493501D02*
X175611501Y-120493501D01*
X175611501Y-120493501D02*
X175220999Y-120102999D01*
X179070000Y-110744000D02*
X176911000Y-112903000D01*
X176911000Y-112903000D02*
X176911000Y-119253000D01*
X163521326Y-78357361D02*
X164087011Y-78357361D01*
X158975091Y-78357361D02*
X163521326Y-78357361D01*
X155438499Y-75504699D02*
X157294569Y-75504699D01*
X154152600Y-74218800D02*
X155438499Y-75504699D01*
X157978499Y-76188629D02*
X157978499Y-77360769D01*
X157294569Y-75504699D02*
X157978499Y-76188629D01*
X157978499Y-77360769D02*
X158975091Y-78357361D01*
D27*
G36*
X192544000Y-113996226D02*
X192473013Y-113889987D01*
X191291013Y-112707987D01*
X191085004Y-112570336D01*
X190842000Y-112522000D01*
X190722464Y-112522000D01*
X190722464Y-112307000D01*
X190695897Y-112165810D01*
X190612454Y-112036135D01*
X190485134Y-111949141D01*
X190334000Y-111918536D01*
X188634000Y-111918536D01*
X188492810Y-111945103D01*
X188363135Y-112028546D01*
X188276141Y-112155866D01*
X188245536Y-112307000D01*
X188245536Y-114007000D01*
X188272103Y-114148190D01*
X188355546Y-114277865D01*
X188482866Y-114364859D01*
X188634000Y-114395464D01*
X188829105Y-114395464D01*
X188602642Y-114501817D01*
X188212355Y-114930076D01*
X188042524Y-115340110D01*
X188163845Y-115570000D01*
X189357000Y-115570000D01*
X189357000Y-115550000D01*
X189611000Y-115550000D01*
X189611000Y-115570000D01*
X190804155Y-115570000D01*
X190925476Y-115340110D01*
X190755645Y-114930076D01*
X190365358Y-114501817D01*
X190138895Y-114395464D01*
X190334000Y-114395464D01*
X190475190Y-114368897D01*
X190604865Y-114285454D01*
X190691859Y-114158134D01*
X190722464Y-114007000D01*
X190722464Y-113935490D01*
X191389000Y-114602026D01*
X191389000Y-117084974D01*
X187569974Y-120904000D01*
X177900994Y-120904000D01*
X177910553Y-120897613D01*
X177910554Y-120897612D01*
X178614608Y-120193557D01*
X178614611Y-120193555D01*
X178625343Y-120177493D01*
X178979917Y-120414413D01*
X179451000Y-120508117D01*
X179922083Y-120414413D01*
X180321448Y-120147565D01*
X180588296Y-119748200D01*
X180596083Y-119709053D01*
X180795817Y-120134358D01*
X181224076Y-120524645D01*
X181634110Y-120694476D01*
X181864000Y-120573155D01*
X181864000Y-119380000D01*
X181844000Y-119380000D01*
X181844000Y-119126000D01*
X181864000Y-119126000D01*
X181864000Y-117932845D01*
X182118000Y-117932845D01*
X182118000Y-119126000D01*
X182138000Y-119126000D01*
X182138000Y-119380000D01*
X182118000Y-119380000D01*
X182118000Y-120573155D01*
X182347890Y-120694476D01*
X182757924Y-120524645D01*
X183186183Y-120134358D01*
X183385917Y-119709053D01*
X183393704Y-119748200D01*
X183660552Y-120147565D01*
X184059917Y-120414413D01*
X184531000Y-120508117D01*
X185002083Y-120414413D01*
X185401448Y-120147565D01*
X185668296Y-119748200D01*
X185762000Y-119277117D01*
X185762000Y-119228883D01*
X185668296Y-118757800D01*
X185401448Y-118358435D01*
X185002083Y-118091587D01*
X184531000Y-117997883D01*
X184059917Y-118091587D01*
X183660552Y-118358435D01*
X183393704Y-118757800D01*
X183385917Y-118796947D01*
X183186183Y-118371642D01*
X182757924Y-117981355D01*
X182347890Y-117811524D01*
X182118000Y-117932845D01*
X181864000Y-117932845D01*
X181634110Y-117811524D01*
X181224076Y-117981355D01*
X180795817Y-118371642D01*
X180596083Y-118796947D01*
X180588296Y-118757800D01*
X180321448Y-118358435D01*
X179922083Y-118091587D01*
X179451000Y-117997883D01*
X178979917Y-118091587D01*
X178781999Y-118223832D01*
X178781999Y-116053890D01*
X188042524Y-116053890D01*
X188212355Y-116463924D01*
X188602642Y-116892183D01*
X189127108Y-117138486D01*
X189357000Y-117017819D01*
X189357000Y-115824000D01*
X189611000Y-115824000D01*
X189611000Y-117017819D01*
X189840892Y-117138486D01*
X190365358Y-116892183D01*
X190755645Y-116463924D01*
X190925476Y-116053890D01*
X190804155Y-115824000D01*
X189611000Y-115824000D01*
X189357000Y-115824000D01*
X188163845Y-115824000D01*
X188042524Y-116053890D01*
X178781999Y-116053890D01*
X178781999Y-114183910D01*
X181252109Y-111713799D01*
X181252112Y-111713797D01*
X181375997Y-111528389D01*
X181375998Y-111528388D01*
X181419501Y-111309685D01*
X181419500Y-111309680D01*
X181419500Y-111277035D01*
X181509714Y-111186979D01*
X181628864Y-110900032D01*
X181629136Y-110589331D01*
X181510486Y-110302177D01*
X181290979Y-110082286D01*
X181004032Y-109963136D01*
X180693331Y-109962864D01*
X180406177Y-110081514D01*
X180186286Y-110301021D01*
X180067136Y-110587968D01*
X180066864Y-110898669D01*
X180179118Y-111170344D01*
X177806387Y-113543074D01*
X177682502Y-113728482D01*
X177682502Y-113728483D01*
X177638998Y-113947186D01*
X177638999Y-113947191D01*
X177638999Y-118263253D01*
X177482500Y-118158684D01*
X177482500Y-113139724D01*
X179097199Y-111525024D01*
X179224669Y-111525136D01*
X179511823Y-111406486D01*
X179731714Y-111186979D01*
X179850864Y-110900032D01*
X179851136Y-110589331D01*
X179732486Y-110302177D01*
X179512979Y-110082286D01*
X179226032Y-109963136D01*
X178915331Y-109962864D01*
X178628177Y-110081514D01*
X178408286Y-110301021D01*
X178289136Y-110587968D01*
X178289023Y-110716754D01*
X176506888Y-112498888D01*
X176383003Y-112684296D01*
X176383003Y-112684297D01*
X176339499Y-112903000D01*
X176339500Y-112903005D01*
X176339500Y-118158684D01*
X176040552Y-118358435D01*
X175773704Y-118757800D01*
X175680000Y-119228883D01*
X175680000Y-119277117D01*
X175773704Y-119748200D01*
X175889834Y-119922001D01*
X175848224Y-119922001D01*
X175625111Y-119698887D01*
X175625108Y-119698885D01*
X175535858Y-119609635D01*
X175602000Y-119277117D01*
X175602000Y-119228883D01*
X175508296Y-118757800D01*
X175241448Y-118358435D01*
X174842083Y-118091587D01*
X174371000Y-117997883D01*
X173899917Y-118091587D01*
X173500552Y-118358435D01*
X173233704Y-118757800D01*
X173140000Y-119228883D01*
X173140000Y-119277117D01*
X173233704Y-119748200D01*
X173500552Y-120147565D01*
X173899917Y-120414413D01*
X174371000Y-120508117D01*
X174743750Y-120433973D01*
X174816885Y-120507108D01*
X174816887Y-120507111D01*
X175207387Y-120897610D01*
X175207389Y-120897613D01*
X175216948Y-120904000D01*
X173022026Y-120904000D01*
X172609490Y-120491464D01*
X172681000Y-120491464D01*
X172822190Y-120464897D01*
X172951865Y-120381454D01*
X173038859Y-120254134D01*
X173069464Y-120103000D01*
X173069464Y-118403000D01*
X173042897Y-118261810D01*
X172959454Y-118132135D01*
X172832134Y-118045141D01*
X172681000Y-118014536D01*
X170981000Y-118014536D01*
X170839810Y-118041103D01*
X170710135Y-118124546D01*
X170623141Y-118251866D01*
X170592536Y-118403000D01*
X170592536Y-120103000D01*
X170619103Y-120244190D01*
X170702546Y-120373865D01*
X170829866Y-120460859D01*
X170981000Y-120491464D01*
X171196000Y-120491464D01*
X171196000Y-120611000D01*
X171244336Y-120854004D01*
X171381987Y-121060013D01*
X172309987Y-121988013D01*
X172515996Y-122125664D01*
X172759000Y-122174000D01*
X187833000Y-122174000D01*
X188076004Y-122125664D01*
X188282013Y-121988013D01*
X192473013Y-117797013D01*
X192544000Y-117690774D01*
X192544000Y-126455087D01*
X192456277Y-126896103D01*
X192231902Y-127231902D01*
X191896103Y-127456277D01*
X191455088Y-127544000D01*
X168783000Y-127544000D01*
X168783000Y-124977870D01*
X187086583Y-124977870D01*
X187453166Y-125865069D01*
X188131361Y-126544449D01*
X189017919Y-126912580D01*
X189977870Y-126913417D01*
X190865069Y-126546834D01*
X191544449Y-125868639D01*
X191912580Y-124982081D01*
X191913417Y-124022130D01*
X191546834Y-123134931D01*
X190868639Y-122455551D01*
X189982081Y-122087420D01*
X189022130Y-122086583D01*
X188134931Y-122453166D01*
X187455551Y-123131361D01*
X187087420Y-124017919D01*
X187086583Y-124977870D01*
X168783000Y-124977870D01*
X168783000Y-108002606D01*
X170994606Y-105791000D01*
X192544000Y-105791000D01*
X192544000Y-113996226D01*
X192544000Y-113996226D01*
G37*
X192544000Y-113996226D02*
X192473013Y-113889987D01*
X191291013Y-112707987D01*
X191085004Y-112570336D01*
X190842000Y-112522000D01*
X190722464Y-112522000D01*
X190722464Y-112307000D01*
X190695897Y-112165810D01*
X190612454Y-112036135D01*
X190485134Y-111949141D01*
X190334000Y-111918536D01*
X188634000Y-111918536D01*
X188492810Y-111945103D01*
X188363135Y-112028546D01*
X188276141Y-112155866D01*
X188245536Y-112307000D01*
X188245536Y-114007000D01*
X188272103Y-114148190D01*
X188355546Y-114277865D01*
X188482866Y-114364859D01*
X188634000Y-114395464D01*
X188829105Y-114395464D01*
X188602642Y-114501817D01*
X188212355Y-114930076D01*
X188042524Y-115340110D01*
X188163845Y-115570000D01*
X189357000Y-115570000D01*
X189357000Y-115550000D01*
X189611000Y-115550000D01*
X189611000Y-115570000D01*
X190804155Y-115570000D01*
X190925476Y-115340110D01*
X190755645Y-114930076D01*
X190365358Y-114501817D01*
X190138895Y-114395464D01*
X190334000Y-114395464D01*
X190475190Y-114368897D01*
X190604865Y-114285454D01*
X190691859Y-114158134D01*
X190722464Y-114007000D01*
X190722464Y-113935490D01*
X191389000Y-114602026D01*
X191389000Y-117084974D01*
X187569974Y-120904000D01*
X177900994Y-120904000D01*
X177910553Y-120897613D01*
X177910554Y-120897612D01*
X178614608Y-120193557D01*
X178614611Y-120193555D01*
X178625343Y-120177493D01*
X178979917Y-120414413D01*
X179451000Y-120508117D01*
X179922083Y-120414413D01*
X180321448Y-120147565D01*
X180588296Y-119748200D01*
X180596083Y-119709053D01*
X180795817Y-120134358D01*
X181224076Y-120524645D01*
X181634110Y-120694476D01*
X181864000Y-120573155D01*
X181864000Y-119380000D01*
X181844000Y-119380000D01*
X181844000Y-119126000D01*
X181864000Y-119126000D01*
X181864000Y-117932845D01*
X182118000Y-117932845D01*
X182118000Y-119126000D01*
X182138000Y-119126000D01*
X182138000Y-119380000D01*
X182118000Y-119380000D01*
X182118000Y-120573155D01*
X182347890Y-120694476D01*
X182757924Y-120524645D01*
X183186183Y-120134358D01*
X183385917Y-119709053D01*
X183393704Y-119748200D01*
X183660552Y-120147565D01*
X184059917Y-120414413D01*
X184531000Y-120508117D01*
X185002083Y-120414413D01*
X185401448Y-120147565D01*
X185668296Y-119748200D01*
X185762000Y-119277117D01*
X185762000Y-119228883D01*
X185668296Y-118757800D01*
X185401448Y-118358435D01*
X185002083Y-118091587D01*
X184531000Y-117997883D01*
X184059917Y-118091587D01*
X183660552Y-118358435D01*
X183393704Y-118757800D01*
X183385917Y-118796947D01*
X183186183Y-118371642D01*
X182757924Y-117981355D01*
X182347890Y-117811524D01*
X182118000Y-117932845D01*
X181864000Y-117932845D01*
X181634110Y-117811524D01*
X181224076Y-117981355D01*
X180795817Y-118371642D01*
X180596083Y-118796947D01*
X180588296Y-118757800D01*
X180321448Y-118358435D01*
X179922083Y-118091587D01*
X179451000Y-117997883D01*
X178979917Y-118091587D01*
X178781999Y-118223832D01*
X178781999Y-116053890D01*
X188042524Y-116053890D01*
X188212355Y-116463924D01*
X188602642Y-116892183D01*
X189127108Y-117138486D01*
X189357000Y-117017819D01*
X189357000Y-115824000D01*
X189611000Y-115824000D01*
X189611000Y-117017819D01*
X189840892Y-117138486D01*
X190365358Y-116892183D01*
X190755645Y-116463924D01*
X190925476Y-116053890D01*
X190804155Y-115824000D01*
X189611000Y-115824000D01*
X189357000Y-115824000D01*
X188163845Y-115824000D01*
X188042524Y-116053890D01*
X178781999Y-116053890D01*
X178781999Y-114183910D01*
X181252109Y-111713799D01*
X181252112Y-111713797D01*
X181375997Y-111528389D01*
X181375998Y-111528388D01*
X181419501Y-111309685D01*
X181419500Y-111309680D01*
X181419500Y-111277035D01*
X181509714Y-111186979D01*
X181628864Y-110900032D01*
X181629136Y-110589331D01*
X181510486Y-110302177D01*
X181290979Y-110082286D01*
X181004032Y-109963136D01*
X180693331Y-109962864D01*
X180406177Y-110081514D01*
X180186286Y-110301021D01*
X180067136Y-110587968D01*
X180066864Y-110898669D01*
X180179118Y-111170344D01*
X177806387Y-113543074D01*
X177682502Y-113728482D01*
X177682502Y-113728483D01*
X177638998Y-113947186D01*
X177638999Y-113947191D01*
X177638999Y-118263253D01*
X177482500Y-118158684D01*
X177482500Y-113139724D01*
X179097199Y-111525024D01*
X179224669Y-111525136D01*
X179511823Y-111406486D01*
X179731714Y-111186979D01*
X179850864Y-110900032D01*
X179851136Y-110589331D01*
X179732486Y-110302177D01*
X179512979Y-110082286D01*
X179226032Y-109963136D01*
X178915331Y-109962864D01*
X178628177Y-110081514D01*
X178408286Y-110301021D01*
X178289136Y-110587968D01*
X178289023Y-110716754D01*
X176506888Y-112498888D01*
X176383003Y-112684296D01*
X176383003Y-112684297D01*
X176339499Y-112903000D01*
X176339500Y-112903005D01*
X176339500Y-118158684D01*
X176040552Y-118358435D01*
X175773704Y-118757800D01*
X175680000Y-119228883D01*
X175680000Y-119277117D01*
X175773704Y-119748200D01*
X175889834Y-119922001D01*
X175848224Y-119922001D01*
X175625111Y-119698887D01*
X175625108Y-119698885D01*
X175535858Y-119609635D01*
X175602000Y-119277117D01*
X175602000Y-119228883D01*
X175508296Y-118757800D01*
X175241448Y-118358435D01*
X174842083Y-118091587D01*
X174371000Y-117997883D01*
X173899917Y-118091587D01*
X173500552Y-118358435D01*
X173233704Y-118757800D01*
X173140000Y-119228883D01*
X173140000Y-119277117D01*
X173233704Y-119748200D01*
X173500552Y-120147565D01*
X173899917Y-120414413D01*
X174371000Y-120508117D01*
X174743750Y-120433973D01*
X174816885Y-120507108D01*
X174816887Y-120507111D01*
X175207387Y-120897610D01*
X175207389Y-120897613D01*
X175216948Y-120904000D01*
X173022026Y-120904000D01*
X172609490Y-120491464D01*
X172681000Y-120491464D01*
X172822190Y-120464897D01*
X172951865Y-120381454D01*
X173038859Y-120254134D01*
X173069464Y-120103000D01*
X173069464Y-118403000D01*
X173042897Y-118261810D01*
X172959454Y-118132135D01*
X172832134Y-118045141D01*
X172681000Y-118014536D01*
X170981000Y-118014536D01*
X170839810Y-118041103D01*
X170710135Y-118124546D01*
X170623141Y-118251866D01*
X170592536Y-118403000D01*
X170592536Y-120103000D01*
X170619103Y-120244190D01*
X170702546Y-120373865D01*
X170829866Y-120460859D01*
X170981000Y-120491464D01*
X171196000Y-120491464D01*
X171196000Y-120611000D01*
X171244336Y-120854004D01*
X171381987Y-121060013D01*
X172309987Y-121988013D01*
X172515996Y-122125664D01*
X172759000Y-122174000D01*
X187833000Y-122174000D01*
X188076004Y-122125664D01*
X188282013Y-121988013D01*
X192473013Y-117797013D01*
X192544000Y-117690774D01*
X192544000Y-126455087D01*
X192456277Y-126896103D01*
X192231902Y-127231902D01*
X191896103Y-127456277D01*
X191455088Y-127544000D01*
X168783000Y-127544000D01*
X168783000Y-124977870D01*
X187086583Y-124977870D01*
X187453166Y-125865069D01*
X188131361Y-126544449D01*
X189017919Y-126912580D01*
X189977870Y-126913417D01*
X190865069Y-126546834D01*
X191544449Y-125868639D01*
X191912580Y-124982081D01*
X191913417Y-124022130D01*
X191546834Y-123134931D01*
X190868639Y-122455551D01*
X189982081Y-122087420D01*
X189022130Y-122086583D01*
X188134931Y-122453166D01*
X187455551Y-123131361D01*
X187087420Y-124017919D01*
X187086583Y-124977870D01*
X168783000Y-124977870D01*
X168783000Y-108002606D01*
X170994606Y-105791000D01*
X192544000Y-105791000D01*
X192544000Y-113996226D01*
G36*
X191896103Y-72043723D02*
X192231902Y-72268098D01*
X192456277Y-72603897D01*
X192544000Y-73044913D01*
X192544000Y-104775000D01*
X170688000Y-104775000D01*
X170638590Y-104785006D01*
X170598197Y-104812197D01*
X167550197Y-107860197D01*
X167522334Y-107902211D01*
X167513000Y-107950000D01*
X167513000Y-127544000D01*
X129544913Y-127544000D01*
X129103897Y-127456277D01*
X128768098Y-127231902D01*
X128543723Y-126896103D01*
X128456000Y-126455088D01*
X128456000Y-124977870D01*
X129086583Y-124977870D01*
X129453166Y-125865069D01*
X130131361Y-126544449D01*
X131017919Y-126912580D01*
X131977870Y-126913417D01*
X132865069Y-126546834D01*
X133544449Y-125868639D01*
X133912580Y-124982081D01*
X133913417Y-124022130D01*
X133546834Y-123134931D01*
X132868639Y-122455551D01*
X131982081Y-122087420D01*
X131022130Y-122086583D01*
X130134931Y-122453166D01*
X129455551Y-123131361D01*
X129087420Y-124017919D01*
X129086583Y-124977870D01*
X128456000Y-124977870D01*
X128456000Y-119744490D01*
X131865370Y-119744490D01*
X131865370Y-120184489D01*
X131962043Y-120417878D01*
X132140671Y-120596507D01*
X132374060Y-120693180D01*
X133064250Y-120693180D01*
X133223000Y-120534430D01*
X133223000Y-119585740D01*
X133477000Y-119585740D01*
X133477000Y-120534430D01*
X133635750Y-120693180D01*
X134325940Y-120693180D01*
X134559329Y-120596507D01*
X134737957Y-120417878D01*
X134834630Y-120184489D01*
X134834630Y-119744490D01*
X134675880Y-119585740D01*
X133477000Y-119585740D01*
X133223000Y-119585740D01*
X132024120Y-119585740D01*
X131865370Y-119744490D01*
X128456000Y-119744490D01*
X128456000Y-75977870D01*
X129086583Y-75977870D01*
X129453166Y-76865069D01*
X130131361Y-77544449D01*
X131017919Y-77912580D01*
X131780129Y-77913245D01*
X129979987Y-79713387D01*
X129842336Y-79919396D01*
X129794000Y-80162400D01*
X129794000Y-114788950D01*
X129842336Y-115031954D01*
X129979987Y-115237963D01*
X132112934Y-117370910D01*
X132095261Y-117459760D01*
X132169893Y-117834958D01*
X132382425Y-118153036D01*
X132489080Y-118224300D01*
X132374060Y-118224300D01*
X132140671Y-118320973D01*
X131962043Y-118499602D01*
X131865370Y-118732991D01*
X131865370Y-119172990D01*
X132024120Y-119331740D01*
X133223000Y-119331740D01*
X133223000Y-119311740D01*
X133477000Y-119311740D01*
X133477000Y-119331740D01*
X134675880Y-119331740D01*
X134834630Y-119172990D01*
X134834630Y-118732991D01*
X134737957Y-118499602D01*
X134559329Y-118320973D01*
X134325940Y-118224300D01*
X134210920Y-118224300D01*
X134317575Y-118153036D01*
X134530107Y-117834958D01*
X134604739Y-117459760D01*
X134530107Y-117084562D01*
X134323718Y-116775677D01*
X136515611Y-116775677D01*
X136953389Y-117835180D01*
X137763297Y-118646502D01*
X138822034Y-119086128D01*
X139968417Y-119087129D01*
X141027920Y-118649351D01*
X141608239Y-118070043D01*
X146343479Y-118070043D01*
X146486719Y-118595753D01*
X146820236Y-119026630D01*
X147293255Y-119297077D01*
X147395285Y-119315723D01*
X147609560Y-119193069D01*
X147609560Y-117850920D01*
X147863560Y-117850920D01*
X147863560Y-119193069D01*
X148077835Y-119315723D01*
X148179865Y-119297077D01*
X148652884Y-119026630D01*
X148986401Y-118595753D01*
X149129641Y-118070043D01*
X148968946Y-117850920D01*
X147863560Y-117850920D01*
X147609560Y-117850920D01*
X146504174Y-117850920D01*
X146343479Y-118070043D01*
X141608239Y-118070043D01*
X141839242Y-117839443D01*
X142030934Y-117377797D01*
X146343479Y-117377797D01*
X146504174Y-117596920D01*
X147609560Y-117596920D01*
X147609560Y-116254771D01*
X147863560Y-116254771D01*
X147863560Y-117596920D01*
X148968946Y-117596920D01*
X149078190Y-117447955D01*
X149376130Y-117447955D01*
X149376130Y-117999885D01*
X149462266Y-118432918D01*
X149707559Y-118800026D01*
X150074667Y-119045319D01*
X150507700Y-119131455D01*
X150940733Y-119045319D01*
X151307841Y-118800026D01*
X151553134Y-118432918D01*
X151639270Y-117999885D01*
X151639270Y-117447955D01*
X152144730Y-117447955D01*
X152144730Y-117999885D01*
X152230866Y-118432918D01*
X152476159Y-118800026D01*
X152843267Y-119045319D01*
X153276300Y-119131455D01*
X153709333Y-119045319D01*
X154076441Y-118800026D01*
X154321734Y-118432918D01*
X154407870Y-117999885D01*
X154407870Y-117447955D01*
X154915870Y-117447955D01*
X154915870Y-117999885D01*
X155002006Y-118432918D01*
X155247299Y-118800026D01*
X155614407Y-119045319D01*
X156047440Y-119131455D01*
X156480473Y-119045319D01*
X156847581Y-118800026D01*
X157092874Y-118432918D01*
X157179010Y-117999885D01*
X157179010Y-117447955D01*
X157092874Y-117014922D01*
X156933017Y-116775677D01*
X161504131Y-116775677D01*
X161941909Y-117835180D01*
X162751817Y-118646502D01*
X163810554Y-119086128D01*
X164956937Y-119087129D01*
X166016440Y-118649351D01*
X166827762Y-117839443D01*
X167267388Y-116780706D01*
X167268389Y-115634323D01*
X166830611Y-114574820D01*
X166020703Y-113763498D01*
X164961966Y-113323872D01*
X163815583Y-113322871D01*
X162756080Y-113760649D01*
X161944758Y-114570557D01*
X161505132Y-115629294D01*
X161504131Y-116775677D01*
X156933017Y-116775677D01*
X156847581Y-116647814D01*
X156480473Y-116402521D01*
X156047440Y-116316385D01*
X155614407Y-116402521D01*
X155247299Y-116647814D01*
X155002006Y-117014922D01*
X154915870Y-117447955D01*
X154407870Y-117447955D01*
X154321734Y-117014922D01*
X154076441Y-116647814D01*
X153709333Y-116402521D01*
X153276300Y-116316385D01*
X152843267Y-116402521D01*
X152476159Y-116647814D01*
X152230866Y-117014922D01*
X152144730Y-117447955D01*
X151639270Y-117447955D01*
X151553134Y-117014922D01*
X151307841Y-116647814D01*
X150940733Y-116402521D01*
X150507700Y-116316385D01*
X150074667Y-116402521D01*
X149707559Y-116647814D01*
X149462266Y-117014922D01*
X149376130Y-117447955D01*
X149078190Y-117447955D01*
X149129641Y-117377797D01*
X148986401Y-116852087D01*
X148652884Y-116421210D01*
X148179865Y-116150763D01*
X148077835Y-116132117D01*
X147863560Y-116254771D01*
X147609560Y-116254771D01*
X147395285Y-116132117D01*
X147293255Y-116150763D01*
X146820236Y-116421210D01*
X146486719Y-116852087D01*
X146343479Y-117377797D01*
X142030934Y-117377797D01*
X142278868Y-116780706D01*
X142279869Y-115634323D01*
X141842091Y-114574820D01*
X141677674Y-114410115D01*
X145220690Y-114410115D01*
X145220690Y-114962045D01*
X145306826Y-115395078D01*
X145552119Y-115762186D01*
X145919227Y-116007479D01*
X146352260Y-116093615D01*
X146785293Y-116007479D01*
X147152401Y-115762186D01*
X147397694Y-115395078D01*
X147483830Y-114962045D01*
X147483830Y-114410115D01*
X147989290Y-114410115D01*
X147989290Y-114962045D01*
X148075426Y-115395078D01*
X148320719Y-115762186D01*
X148687827Y-116007479D01*
X149120860Y-116093615D01*
X149553893Y-116007479D01*
X149921001Y-115762186D01*
X150166294Y-115395078D01*
X150238474Y-115032203D01*
X150498919Y-115032203D01*
X150642159Y-115557913D01*
X150975676Y-115988790D01*
X151448695Y-116259237D01*
X151550725Y-116277883D01*
X151765000Y-116155229D01*
X151765000Y-114813080D01*
X152019000Y-114813080D01*
X152019000Y-116155229D01*
X152233275Y-116277883D01*
X152335305Y-116259237D01*
X152808324Y-115988790D01*
X153141841Y-115557913D01*
X153285081Y-115032203D01*
X153124386Y-114813080D01*
X152019000Y-114813080D01*
X151765000Y-114813080D01*
X150659614Y-114813080D01*
X150498919Y-115032203D01*
X150238474Y-115032203D01*
X150252430Y-114962045D01*
X150252430Y-114410115D01*
X150238475Y-114339957D01*
X150498919Y-114339957D01*
X150659614Y-114559080D01*
X151765000Y-114559080D01*
X151765000Y-113216931D01*
X152019000Y-113216931D01*
X152019000Y-114559080D01*
X153124386Y-114559080D01*
X153233630Y-114410115D01*
X153531570Y-114410115D01*
X153531570Y-114962045D01*
X153617706Y-115395078D01*
X153862999Y-115762186D01*
X154230107Y-116007479D01*
X154663140Y-116093615D01*
X155096173Y-116007479D01*
X155463281Y-115762186D01*
X155708574Y-115395078D01*
X155794710Y-114962045D01*
X155794710Y-114410115D01*
X156300170Y-114410115D01*
X156300170Y-114962045D01*
X156386306Y-115395078D01*
X156631599Y-115762186D01*
X156998707Y-116007479D01*
X157431740Y-116093615D01*
X157864773Y-116007479D01*
X158231881Y-115762186D01*
X158477174Y-115395078D01*
X158563310Y-114962045D01*
X158563310Y-114410115D01*
X158477174Y-113977082D01*
X158231881Y-113609974D01*
X157864773Y-113364681D01*
X157431740Y-113278545D01*
X156998707Y-113364681D01*
X156631599Y-113609974D01*
X156386306Y-113977082D01*
X156300170Y-114410115D01*
X155794710Y-114410115D01*
X155708574Y-113977082D01*
X155463281Y-113609974D01*
X155096173Y-113364681D01*
X154663140Y-113278545D01*
X154230107Y-113364681D01*
X153862999Y-113609974D01*
X153617706Y-113977082D01*
X153531570Y-114410115D01*
X153233630Y-114410115D01*
X153285081Y-114339957D01*
X153141841Y-113814247D01*
X152808324Y-113383370D01*
X152335305Y-113112923D01*
X152233275Y-113094277D01*
X152019000Y-113216931D01*
X151765000Y-113216931D01*
X151550725Y-113094277D01*
X151448695Y-113112923D01*
X150975676Y-113383370D01*
X150642159Y-113814247D01*
X150498919Y-114339957D01*
X150238475Y-114339957D01*
X150166294Y-113977082D01*
X149921001Y-113609974D01*
X149553893Y-113364681D01*
X149120860Y-113278545D01*
X148687827Y-113364681D01*
X148320719Y-113609974D01*
X148075426Y-113977082D01*
X147989290Y-114410115D01*
X147483830Y-114410115D01*
X147397694Y-113977082D01*
X147152401Y-113609974D01*
X146785293Y-113364681D01*
X146352260Y-113278545D01*
X145919227Y-113364681D01*
X145552119Y-113609974D01*
X145306826Y-113977082D01*
X145220690Y-114410115D01*
X141677674Y-114410115D01*
X141032183Y-113763498D01*
X139973446Y-113323872D01*
X138827063Y-113322871D01*
X137767560Y-113760649D01*
X136956238Y-114570557D01*
X136516612Y-115629294D01*
X136515611Y-116775677D01*
X134323718Y-116775677D01*
X134317575Y-116766484D01*
X133999497Y-116553952D01*
X133624299Y-116479320D01*
X133075701Y-116479320D01*
X133027069Y-116488993D01*
X132952187Y-116414111D01*
X133075701Y-116438680D01*
X133624299Y-116438680D01*
X133999497Y-116364048D01*
X134317575Y-116151516D01*
X134530107Y-115833438D01*
X134604739Y-115458240D01*
X134530107Y-115083042D01*
X134317575Y-114764964D01*
X133999497Y-114552432D01*
X133624299Y-114477800D01*
X133075701Y-114477800D01*
X132700503Y-114552432D01*
X132382425Y-114764964D01*
X132169893Y-115083042D01*
X132095261Y-115458240D01*
X132119830Y-115581754D01*
X131064000Y-114525924D01*
X131064000Y-113459260D01*
X132095261Y-113459260D01*
X132169893Y-113834458D01*
X132382425Y-114152536D01*
X132700503Y-114365068D01*
X133075701Y-114439700D01*
X133624299Y-114439700D01*
X133999497Y-114365068D01*
X134317575Y-114152536D01*
X134530107Y-113834458D01*
X134604739Y-113459260D01*
X134530107Y-113084062D01*
X134317575Y-112765984D01*
X133999497Y-112553452D01*
X133624299Y-112478820D01*
X133075701Y-112478820D01*
X132700503Y-112553452D01*
X132382425Y-112765984D01*
X132169893Y-113084062D01*
X132095261Y-113459260D01*
X131064000Y-113459260D01*
X131064000Y-104548669D01*
X132187864Y-104548669D01*
X132306514Y-104835823D01*
X132526021Y-105055714D01*
X132812968Y-105174864D01*
X133123669Y-105175136D01*
X133410823Y-105056486D01*
X133501968Y-104965500D01*
X135399276Y-104965500D01*
X135963313Y-105529536D01*
X135763000Y-105529536D01*
X135621810Y-105556103D01*
X135492135Y-105639546D01*
X135405141Y-105766866D01*
X135374536Y-105918000D01*
X135374536Y-107950000D01*
X135401103Y-108091190D01*
X135484546Y-108220865D01*
X135611866Y-108307859D01*
X135763000Y-108338464D01*
X135984863Y-108338464D01*
X135763803Y-108486172D01*
X135460971Y-108939391D01*
X135354631Y-109474000D01*
X135460971Y-110008609D01*
X135763803Y-110461828D01*
X136217022Y-110764660D01*
X136751631Y-110871000D01*
X136806369Y-110871000D01*
X137340978Y-110764660D01*
X137794197Y-110461828D01*
X138097029Y-110008609D01*
X138203369Y-109474000D01*
X138097029Y-108939391D01*
X137794197Y-108486172D01*
X137573137Y-108338464D01*
X137795000Y-108338464D01*
X137936190Y-108311897D01*
X138065865Y-108228454D01*
X138152859Y-108101134D01*
X138183464Y-107950000D01*
X138183464Y-105918000D01*
X138156897Y-105776810D01*
X138073454Y-105647135D01*
X137946134Y-105560141D01*
X137795000Y-105529536D01*
X137349016Y-105529536D01*
X137306997Y-105318297D01*
X137306997Y-105318296D01*
X137183112Y-105132888D01*
X137183109Y-105132886D01*
X136040112Y-103989888D01*
X135981943Y-103951021D01*
X135854704Y-103866003D01*
X135818418Y-103858785D01*
X135636000Y-103822499D01*
X135635995Y-103822500D01*
X133502035Y-103822500D01*
X133411979Y-103732286D01*
X133125032Y-103613136D01*
X132814331Y-103612864D01*
X132527177Y-103731514D01*
X132307286Y-103951021D01*
X132188136Y-104237968D01*
X132187864Y-104548669D01*
X131064000Y-104548669D01*
X131064000Y-89290026D01*
X134932987Y-93159013D01*
X135138996Y-93296664D01*
X135382000Y-93345000D01*
X135501536Y-93345000D01*
X135501536Y-93726000D01*
X135528103Y-93867190D01*
X135611546Y-93996865D01*
X135738866Y-94083859D01*
X135890000Y-94114464D01*
X136111863Y-94114464D01*
X135890803Y-94262172D01*
X135587971Y-94715391D01*
X135481631Y-95250000D01*
X135587971Y-95784609D01*
X135890803Y-96237828D01*
X136344022Y-96540660D01*
X136878631Y-96647000D01*
X136933369Y-96647000D01*
X137467978Y-96540660D01*
X137921197Y-96237828D01*
X138224029Y-95784609D01*
X138330369Y-95250000D01*
X138224029Y-94715391D01*
X137921197Y-94262172D01*
X137700137Y-94114464D01*
X137922000Y-94114464D01*
X138063190Y-94087897D01*
X138192865Y-94004454D01*
X138279859Y-93877134D01*
X138307687Y-93739713D01*
X140315897Y-95747923D01*
X140315864Y-95785669D01*
X140434514Y-96072823D01*
X140654021Y-96292714D01*
X140940968Y-96411864D01*
X141251669Y-96412136D01*
X141538823Y-96293486D01*
X141546931Y-96285392D01*
X153660871Y-96285392D01*
X153870595Y-96792963D01*
X154258594Y-97181640D01*
X154765799Y-97392249D01*
X155314992Y-97392729D01*
X155822563Y-97183005D01*
X156211240Y-96795006D01*
X156421849Y-96287801D01*
X156421851Y-96285392D01*
X158740871Y-96285392D01*
X158950595Y-96792963D01*
X159338594Y-97181640D01*
X159845799Y-97392249D01*
X160394992Y-97392729D01*
X160902563Y-97183005D01*
X161291240Y-96795006D01*
X161501849Y-96287801D01*
X161502329Y-95738608D01*
X161292605Y-95231037D01*
X160904606Y-94842360D01*
X160397401Y-94631751D01*
X159848208Y-94631271D01*
X159340637Y-94840995D01*
X158951960Y-95228994D01*
X158741351Y-95736199D01*
X158740871Y-96285392D01*
X156421851Y-96285392D01*
X156422329Y-95738608D01*
X156212605Y-95231037D01*
X155824606Y-94842360D01*
X155317401Y-94631751D01*
X154768208Y-94631271D01*
X154260637Y-94840995D01*
X153871960Y-95228994D01*
X153661351Y-95736199D01*
X153660871Y-96285392D01*
X141546931Y-96285392D01*
X141758714Y-96073979D01*
X141877864Y-95787032D01*
X141878136Y-95476331D01*
X141759486Y-95189177D01*
X141539979Y-94969286D01*
X141253032Y-94850136D01*
X141214128Y-94850102D01*
X138625013Y-92260987D01*
X138419004Y-92123336D01*
X138310464Y-92101746D01*
X138310464Y-91694000D01*
X138283897Y-91552810D01*
X138200454Y-91423135D01*
X138073134Y-91336141D01*
X137922000Y-91305536D01*
X135890000Y-91305536D01*
X135748810Y-91332103D01*
X135619135Y-91415546D01*
X135532141Y-91542866D01*
X135501536Y-91694000D01*
X135501536Y-91931510D01*
X132640206Y-89070180D01*
X133064250Y-89070180D01*
X133223000Y-88911430D01*
X133223000Y-87962740D01*
X133477000Y-87962740D01*
X133477000Y-88911430D01*
X133635750Y-89070180D01*
X134325940Y-89070180D01*
X134559329Y-88973507D01*
X134737957Y-88794878D01*
X134834630Y-88561489D01*
X134834630Y-88121490D01*
X134675880Y-87962740D01*
X133477000Y-87962740D01*
X133223000Y-87962740D01*
X132024120Y-87962740D01*
X131865370Y-88121490D01*
X131865370Y-88295344D01*
X131064000Y-87493974D01*
X131064000Y-87109991D01*
X131865370Y-87109991D01*
X131865370Y-87549990D01*
X132024120Y-87708740D01*
X133223000Y-87708740D01*
X133223000Y-87688740D01*
X133477000Y-87688740D01*
X133477000Y-87708740D01*
X134675880Y-87708740D01*
X134834630Y-87549990D01*
X134834630Y-87109991D01*
X134737957Y-86876602D01*
X134559329Y-86697973D01*
X134325940Y-86601300D01*
X134210920Y-86601300D01*
X134317575Y-86530036D01*
X134436870Y-86351498D01*
X134465514Y-86420823D01*
X134685021Y-86640714D01*
X134971968Y-86759864D01*
X135282669Y-86760136D01*
X135569823Y-86641486D01*
X135789714Y-86421979D01*
X135908864Y-86135032D01*
X135909136Y-85824331D01*
X135827051Y-85625669D01*
X140061864Y-85625669D01*
X140180514Y-85912823D01*
X140271500Y-86003968D01*
X140271500Y-88645995D01*
X140271499Y-88646000D01*
X140301114Y-88794878D01*
X140315003Y-88864704D01*
X140438888Y-89050112D01*
X141966976Y-90578199D01*
X141966864Y-90705669D01*
X142085514Y-90992823D01*
X142305021Y-91212714D01*
X142591968Y-91331864D01*
X142902669Y-91332136D01*
X143189823Y-91213486D01*
X143409714Y-90993979D01*
X143528864Y-90707032D01*
X143529136Y-90396331D01*
X143410486Y-90109177D01*
X143372046Y-90070669D01*
X153396864Y-90070669D01*
X153515514Y-90357823D01*
X153735021Y-90577714D01*
X154021968Y-90696864D01*
X154332669Y-90697136D01*
X154619823Y-90578486D01*
X154839714Y-90358979D01*
X154958864Y-90072032D01*
X154958977Y-89943247D01*
X157630109Y-87272114D01*
X157630112Y-87272112D01*
X157753997Y-87086704D01*
X157761215Y-87050418D01*
X157797501Y-86868000D01*
X157797500Y-86867995D01*
X157797500Y-85877035D01*
X157887714Y-85786979D01*
X158006864Y-85500032D01*
X158007136Y-85189331D01*
X157888486Y-84902177D01*
X157668979Y-84682286D01*
X157382032Y-84563136D01*
X157071331Y-84562864D01*
X156784177Y-84681514D01*
X156564286Y-84901021D01*
X156445136Y-85187968D01*
X156444864Y-85498669D01*
X156563514Y-85785823D01*
X156654500Y-85876968D01*
X156654500Y-86631277D01*
X154150801Y-89134976D01*
X154023331Y-89134864D01*
X153736177Y-89253514D01*
X153516286Y-89473021D01*
X153397136Y-89759968D01*
X153396864Y-90070669D01*
X143372046Y-90070669D01*
X143190979Y-89889286D01*
X142904032Y-89770136D01*
X142775246Y-89770023D01*
X141414500Y-88409276D01*
X141414500Y-86004035D01*
X141504714Y-85913979D01*
X141623864Y-85627032D01*
X141624136Y-85316331D01*
X141505486Y-85029177D01*
X141285979Y-84809286D01*
X140999032Y-84690136D01*
X140688331Y-84689864D01*
X140401177Y-84808514D01*
X140181286Y-85028021D01*
X140062136Y-85314968D01*
X140061864Y-85625669D01*
X135827051Y-85625669D01*
X135790486Y-85537177D01*
X135763000Y-85509643D01*
X135763000Y-82765646D01*
X135789714Y-82738979D01*
X135908864Y-82452032D01*
X135908898Y-82413128D01*
X136181536Y-82140490D01*
X149940929Y-82140490D01*
X149967596Y-82167204D01*
X150254543Y-82286354D01*
X150565244Y-82286626D01*
X150852398Y-82167976D01*
X150879932Y-82140490D01*
X155224030Y-82140490D01*
X155403516Y-82104788D01*
X155695230Y-82396502D01*
X155901238Y-82534153D01*
X156144243Y-82582489D01*
X165617511Y-82582489D01*
X165617511Y-87385511D01*
X165665847Y-87628515D01*
X165803498Y-87834524D01*
X169144897Y-91175923D01*
X169144864Y-91213669D01*
X169263514Y-91500823D01*
X169483021Y-91720714D01*
X169769968Y-91839864D01*
X170080669Y-91840136D01*
X170367823Y-91721486D01*
X170587714Y-91501979D01*
X170706864Y-91215032D01*
X170707094Y-90952365D01*
X171513500Y-91758771D01*
X171513500Y-97399332D01*
X171280889Y-97631943D01*
X171157004Y-97817351D01*
X171157004Y-97817352D01*
X171113500Y-98036055D01*
X171113501Y-98036060D01*
X171113501Y-98659996D01*
X171113500Y-98660001D01*
X171129911Y-98742500D01*
X171157004Y-98878705D01*
X171174795Y-98905331D01*
X171280889Y-99064113D01*
X171303976Y-99087200D01*
X171303864Y-99214669D01*
X171422514Y-99501823D01*
X171642021Y-99721714D01*
X171928968Y-99840864D01*
X172239669Y-99841136D01*
X172526823Y-99722486D01*
X172746714Y-99502979D01*
X172865864Y-99216032D01*
X172866095Y-98952017D01*
X173001669Y-98952136D01*
X173288823Y-98833486D01*
X173508714Y-98613979D01*
X173593875Y-98408886D01*
X173890669Y-98409146D01*
X174177823Y-98290496D01*
X174397714Y-98070989D01*
X174441159Y-97966362D01*
X174483912Y-98069833D01*
X174703419Y-98289724D01*
X174990366Y-98408874D01*
X175301067Y-98409146D01*
X175588221Y-98290496D01*
X175808112Y-98070989D01*
X175927262Y-97784042D01*
X175927534Y-97473341D01*
X175808884Y-97186187D01*
X175717898Y-97095042D01*
X175717898Y-96757490D01*
X177458370Y-96757490D01*
X177458370Y-97197489D01*
X177555043Y-97430878D01*
X177733671Y-97609507D01*
X177967060Y-97706180D01*
X178657250Y-97706180D01*
X178816000Y-97547430D01*
X178816000Y-96598740D01*
X179070000Y-96598740D01*
X179070000Y-97547430D01*
X179228750Y-97706180D01*
X179918940Y-97706180D01*
X180152329Y-97609507D01*
X180330957Y-97430878D01*
X180427630Y-97197489D01*
X180427630Y-96757490D01*
X180268880Y-96598740D01*
X179070000Y-96598740D01*
X178816000Y-96598740D01*
X177617120Y-96598740D01*
X177458370Y-96757490D01*
X175717898Y-96757490D01*
X175717898Y-95745991D01*
X177458370Y-95745991D01*
X177458370Y-96185990D01*
X177617120Y-96344740D01*
X178816000Y-96344740D01*
X178816000Y-96324740D01*
X179070000Y-96324740D01*
X179070000Y-96344740D01*
X180268880Y-96344740D01*
X180427630Y-96185990D01*
X180427630Y-95745991D01*
X180330957Y-95512602D01*
X180152329Y-95333973D01*
X179918940Y-95237300D01*
X179803920Y-95237300D01*
X179910575Y-95166036D01*
X180123107Y-94847958D01*
X180197739Y-94472760D01*
X180123107Y-94097562D01*
X179910575Y-93779484D01*
X179592497Y-93566952D01*
X179217299Y-93492320D01*
X178668701Y-93492320D01*
X178293503Y-93566952D01*
X177975425Y-93779484D01*
X177762893Y-94097562D01*
X177688261Y-94472760D01*
X177762893Y-94847958D01*
X177975425Y-95166036D01*
X178082080Y-95237300D01*
X177967060Y-95237300D01*
X177733671Y-95333973D01*
X177555043Y-95512602D01*
X177458370Y-95745991D01*
X175717898Y-95745991D01*
X175717898Y-92471240D01*
X177688261Y-92471240D01*
X177762893Y-92846438D01*
X177975425Y-93164516D01*
X178293503Y-93377048D01*
X178668701Y-93451680D01*
X179217299Y-93451680D01*
X179592497Y-93377048D01*
X179910575Y-93164516D01*
X180123107Y-92846438D01*
X180197739Y-92471240D01*
X180123107Y-92096042D01*
X179910575Y-91777964D01*
X179592497Y-91565432D01*
X179217299Y-91490800D01*
X178668701Y-91490800D01*
X178293503Y-91565432D01*
X177975425Y-91777964D01*
X177762893Y-92096042D01*
X177688261Y-92471240D01*
X175717898Y-92471240D01*
X175717898Y-87074942D01*
X178243092Y-89600135D01*
X177975425Y-89778984D01*
X177762893Y-90097062D01*
X177688261Y-90472260D01*
X177762893Y-90847458D01*
X177975425Y-91165536D01*
X178293503Y-91378068D01*
X178668701Y-91452700D01*
X179217299Y-91452700D01*
X179592497Y-91378068D01*
X179910575Y-91165536D01*
X180123107Y-90847458D01*
X180197739Y-90472260D01*
X180123107Y-90097062D01*
X179910575Y-89778984D01*
X179592497Y-89566452D01*
X179514500Y-89550937D01*
X179514500Y-89491820D01*
X179470997Y-89273116D01*
X179347112Y-89087708D01*
X179347109Y-89087706D01*
X174606697Y-84347293D01*
X174606749Y-84287994D01*
X174488099Y-84000840D01*
X174268592Y-83780949D01*
X173981645Y-83661799D01*
X173670944Y-83661527D01*
X173383790Y-83780177D01*
X173163899Y-83999684D01*
X173137202Y-84063978D01*
X167933057Y-78859833D01*
X167890957Y-78831703D01*
X167747649Y-78735948D01*
X167711363Y-78728730D01*
X167528945Y-78692444D01*
X167528940Y-78692445D01*
X164793527Y-78692445D01*
X164867875Y-78513393D01*
X164868147Y-78202692D01*
X164751714Y-77920904D01*
X164813271Y-77908660D01*
X165217048Y-77638865D01*
X165486843Y-77235088D01*
X165581583Y-76758800D01*
X165583617Y-76758800D01*
X165678357Y-77235088D01*
X165948152Y-77638865D01*
X166351929Y-77908660D01*
X166828217Y-78003400D01*
X166876983Y-78003400D01*
X167353271Y-77908660D01*
X167757048Y-77638865D01*
X168026843Y-77235088D01*
X168121583Y-76758800D01*
X168123617Y-76758800D01*
X168218357Y-77235088D01*
X168488152Y-77638865D01*
X168891929Y-77908660D01*
X169368217Y-78003400D01*
X169416983Y-78003400D01*
X169893271Y-77908660D01*
X170297048Y-77638865D01*
X170566843Y-77235088D01*
X170661583Y-76758800D01*
X170663617Y-76758800D01*
X170758357Y-77235088D01*
X171028152Y-77638865D01*
X171431929Y-77908660D01*
X171908217Y-78003400D01*
X171956983Y-78003400D01*
X172433271Y-77908660D01*
X172837048Y-77638865D01*
X173106843Y-77235088D01*
X173201583Y-76758800D01*
X173203617Y-76758800D01*
X173298357Y-77235088D01*
X173568152Y-77638865D01*
X173971929Y-77908660D01*
X174448217Y-78003400D01*
X174496983Y-78003400D01*
X174973271Y-77908660D01*
X175377048Y-77638865D01*
X175646843Y-77235088D01*
X175741583Y-76758800D01*
X175743617Y-76758800D01*
X175838357Y-77235088D01*
X176108152Y-77638865D01*
X176511929Y-77908660D01*
X176988217Y-78003400D01*
X177036983Y-78003400D01*
X177513271Y-77908660D01*
X177917048Y-77638865D01*
X178186843Y-77235088D01*
X178281583Y-76758800D01*
X178283617Y-76758800D01*
X178378357Y-77235088D01*
X178648152Y-77638865D01*
X179051929Y-77908660D01*
X179528217Y-78003400D01*
X179576983Y-78003400D01*
X180053271Y-77908660D01*
X180457048Y-77638865D01*
X180726843Y-77235088D01*
X180821583Y-76758800D01*
X180823617Y-76758800D01*
X180918357Y-77235088D01*
X181188152Y-77638865D01*
X181591929Y-77908660D01*
X182068217Y-78003400D01*
X182116983Y-78003400D01*
X182593271Y-77908660D01*
X182997048Y-77638865D01*
X183266843Y-77235088D01*
X183361583Y-76758800D01*
X183363617Y-76758800D01*
X183458357Y-77235088D01*
X183728152Y-77638865D01*
X184131929Y-77908660D01*
X184608217Y-78003400D01*
X184656983Y-78003400D01*
X185133271Y-77908660D01*
X185537048Y-77638865D01*
X185806843Y-77235088D01*
X185901583Y-76758800D01*
X185806843Y-76282512D01*
X185603288Y-75977870D01*
X187086583Y-75977870D01*
X187453166Y-76865069D01*
X188131361Y-77544449D01*
X189017919Y-77912580D01*
X189977870Y-77913417D01*
X190865069Y-77546834D01*
X191544449Y-76868639D01*
X191912580Y-75982081D01*
X191913417Y-75022130D01*
X191546834Y-74134931D01*
X190868639Y-73455551D01*
X189982081Y-73087420D01*
X189022130Y-73086583D01*
X188134931Y-73453166D01*
X187455551Y-74131361D01*
X187087420Y-75017919D01*
X187086583Y-75977870D01*
X185603288Y-75977870D01*
X185537048Y-75878735D01*
X185133271Y-75608940D01*
X184656983Y-75514200D01*
X184608217Y-75514200D01*
X184131929Y-75608940D01*
X183728152Y-75878735D01*
X183458357Y-76282512D01*
X183363617Y-76758800D01*
X183361583Y-76758800D01*
X183266843Y-76282512D01*
X182997048Y-75878735D01*
X182593271Y-75608940D01*
X182116983Y-75514200D01*
X182068217Y-75514200D01*
X181591929Y-75608940D01*
X181188152Y-75878735D01*
X180918357Y-76282512D01*
X180823617Y-76758800D01*
X180821583Y-76758800D01*
X180726843Y-76282512D01*
X180457048Y-75878735D01*
X180053271Y-75608940D01*
X179576983Y-75514200D01*
X179528217Y-75514200D01*
X179051929Y-75608940D01*
X178648152Y-75878735D01*
X178378357Y-76282512D01*
X178283617Y-76758800D01*
X178281583Y-76758800D01*
X178186843Y-76282512D01*
X177917048Y-75878735D01*
X177513271Y-75608940D01*
X177036983Y-75514200D01*
X176988217Y-75514200D01*
X176511929Y-75608940D01*
X176108152Y-75878735D01*
X175838357Y-76282512D01*
X175743617Y-76758800D01*
X175741583Y-76758800D01*
X175646843Y-76282512D01*
X175377048Y-75878735D01*
X174973271Y-75608940D01*
X174496983Y-75514200D01*
X174448217Y-75514200D01*
X173971929Y-75608940D01*
X173568152Y-75878735D01*
X173298357Y-76282512D01*
X173203617Y-76758800D01*
X173201583Y-76758800D01*
X173106843Y-76282512D01*
X172837048Y-75878735D01*
X172433271Y-75608940D01*
X171956983Y-75514200D01*
X171908217Y-75514200D01*
X171431929Y-75608940D01*
X171028152Y-75878735D01*
X170758357Y-76282512D01*
X170663617Y-76758800D01*
X170661583Y-76758800D01*
X170566843Y-76282512D01*
X170297048Y-75878735D01*
X169893271Y-75608940D01*
X169416983Y-75514200D01*
X169368217Y-75514200D01*
X168891929Y-75608940D01*
X168488152Y-75878735D01*
X168218357Y-76282512D01*
X168123617Y-76758800D01*
X168121583Y-76758800D01*
X168026843Y-76282512D01*
X167757048Y-75878735D01*
X167353271Y-75608940D01*
X166876983Y-75514200D01*
X166828217Y-75514200D01*
X166351929Y-75608940D01*
X165948152Y-75878735D01*
X165678357Y-76282512D01*
X165583617Y-76758800D01*
X165581583Y-76758800D01*
X165486843Y-76282512D01*
X165217048Y-75878735D01*
X164813271Y-75608940D01*
X164336983Y-75514200D01*
X164288217Y-75514200D01*
X163811929Y-75608940D01*
X163408152Y-75878735D01*
X163138357Y-76282512D01*
X163043617Y-76758800D01*
X163138357Y-77235088D01*
X163408152Y-77638865D01*
X163583756Y-77756200D01*
X163554043Y-77785861D01*
X162457053Y-77785861D01*
X162677048Y-77638865D01*
X162946843Y-77235088D01*
X163041583Y-76758800D01*
X162946843Y-76282512D01*
X162677048Y-75878735D01*
X162273271Y-75608940D01*
X161796983Y-75514200D01*
X161748217Y-75514200D01*
X161271929Y-75608940D01*
X160868152Y-75878735D01*
X160598357Y-76282512D01*
X160503617Y-76758800D01*
X160598357Y-77235088D01*
X160868152Y-77638865D01*
X161088147Y-77785861D01*
X159917053Y-77785861D01*
X160137048Y-77638865D01*
X160406843Y-77235088D01*
X160501583Y-76758800D01*
X160406843Y-76282512D01*
X160137048Y-75878735D01*
X159733271Y-75608940D01*
X159256983Y-75514200D01*
X159208217Y-75514200D01*
X158731929Y-75608940D01*
X158409325Y-75824497D01*
X158382611Y-75784517D01*
X158382608Y-75784515D01*
X157698681Y-75100587D01*
X157627622Y-75053108D01*
X157866843Y-74695088D01*
X157961583Y-74218800D01*
X157866843Y-73742512D01*
X157728989Y-73536199D01*
X158196211Y-73536199D01*
X158058357Y-73742512D01*
X157963617Y-74218800D01*
X158058357Y-74695088D01*
X158328152Y-75098865D01*
X158731929Y-75368660D01*
X159208217Y-75463400D01*
X159256983Y-75463400D01*
X159733271Y-75368660D01*
X160137048Y-75098865D01*
X160406843Y-74695088D01*
X160501583Y-74218800D01*
X160406843Y-73742512D01*
X160268989Y-73536199D01*
X160736211Y-73536199D01*
X160598357Y-73742512D01*
X160503617Y-74218800D01*
X160598357Y-74695088D01*
X160868152Y-75098865D01*
X161271929Y-75368660D01*
X161748217Y-75463400D01*
X161796983Y-75463400D01*
X162273271Y-75368660D01*
X162677048Y-75098865D01*
X162946843Y-74695088D01*
X163041583Y-74218800D01*
X162946843Y-73742512D01*
X162808989Y-73536199D01*
X162821775Y-73536199D01*
X163120062Y-73834486D01*
X163043617Y-74218800D01*
X163138357Y-74695088D01*
X163408152Y-75098865D01*
X163811929Y-75368660D01*
X164288217Y-75463400D01*
X164336983Y-75463400D01*
X164813271Y-75368660D01*
X165217048Y-75098865D01*
X165486843Y-74695088D01*
X165581583Y-74218800D01*
X165583617Y-74218800D01*
X165678357Y-74695088D01*
X165948152Y-75098865D01*
X166351929Y-75368660D01*
X166828217Y-75463400D01*
X166876983Y-75463400D01*
X167353271Y-75368660D01*
X167757048Y-75098865D01*
X168026843Y-74695088D01*
X168121583Y-74218800D01*
X168123617Y-74218800D01*
X168218357Y-74695088D01*
X168488152Y-75098865D01*
X168891929Y-75368660D01*
X169368217Y-75463400D01*
X169416983Y-75463400D01*
X169893271Y-75368660D01*
X170297048Y-75098865D01*
X170566843Y-74695088D01*
X170661583Y-74218800D01*
X170663617Y-74218800D01*
X170758357Y-74695088D01*
X171028152Y-75098865D01*
X171431929Y-75368660D01*
X171908217Y-75463400D01*
X171956983Y-75463400D01*
X172433271Y-75368660D01*
X172837048Y-75098865D01*
X173106843Y-74695088D01*
X173201583Y-74218800D01*
X173203617Y-74218800D01*
X173298357Y-74695088D01*
X173568152Y-75098865D01*
X173971929Y-75368660D01*
X174448217Y-75463400D01*
X174496983Y-75463400D01*
X174973271Y-75368660D01*
X175377048Y-75098865D01*
X175646843Y-74695088D01*
X175741583Y-74218800D01*
X175743617Y-74218800D01*
X175838357Y-74695088D01*
X176108152Y-75098865D01*
X176511929Y-75368660D01*
X176988217Y-75463400D01*
X177036983Y-75463400D01*
X177513271Y-75368660D01*
X177917048Y-75098865D01*
X178186843Y-74695088D01*
X178281583Y-74218800D01*
X178283617Y-74218800D01*
X178378357Y-74695088D01*
X178648152Y-75098865D01*
X179051929Y-75368660D01*
X179528217Y-75463400D01*
X179576983Y-75463400D01*
X180053271Y-75368660D01*
X180457048Y-75098865D01*
X180726843Y-74695088D01*
X180821583Y-74218800D01*
X180823617Y-74218800D01*
X180918357Y-74695088D01*
X181188152Y-75098865D01*
X181591929Y-75368660D01*
X182068217Y-75463400D01*
X182116983Y-75463400D01*
X182593271Y-75368660D01*
X182997048Y-75098865D01*
X183266843Y-74695088D01*
X183361583Y-74218800D01*
X183363617Y-74218800D01*
X183458357Y-74695088D01*
X183728152Y-75098865D01*
X184131929Y-75368660D01*
X184608217Y-75463400D01*
X184656983Y-75463400D01*
X185133271Y-75368660D01*
X185537048Y-75098865D01*
X185806843Y-74695088D01*
X185901583Y-74218800D01*
X185806843Y-73742512D01*
X185537048Y-73338735D01*
X185133271Y-73068940D01*
X184656983Y-72974200D01*
X184608217Y-72974200D01*
X184131929Y-73068940D01*
X183728152Y-73338735D01*
X183458357Y-73742512D01*
X183363617Y-74218800D01*
X183361583Y-74218800D01*
X183266843Y-73742512D01*
X182997048Y-73338735D01*
X182593271Y-73068940D01*
X182116983Y-72974200D01*
X182068217Y-72974200D01*
X181591929Y-73068940D01*
X181188152Y-73338735D01*
X180918357Y-73742512D01*
X180823617Y-74218800D01*
X180821583Y-74218800D01*
X180726843Y-73742512D01*
X180457048Y-73338735D01*
X180053271Y-73068940D01*
X179576983Y-72974200D01*
X179528217Y-72974200D01*
X179051929Y-73068940D01*
X178648152Y-73338735D01*
X178378357Y-73742512D01*
X178283617Y-74218800D01*
X178281583Y-74218800D01*
X178186843Y-73742512D01*
X177917048Y-73338735D01*
X177513271Y-73068940D01*
X177036983Y-72974200D01*
X176988217Y-72974200D01*
X176511929Y-73068940D01*
X176108152Y-73338735D01*
X175838357Y-73742512D01*
X175743617Y-74218800D01*
X175741583Y-74218800D01*
X175646843Y-73742512D01*
X175377048Y-73338735D01*
X174973271Y-73068940D01*
X174496983Y-72974200D01*
X174448217Y-72974200D01*
X173971929Y-73068940D01*
X173568152Y-73338735D01*
X173298357Y-73742512D01*
X173203617Y-74218800D01*
X173201583Y-74218800D01*
X173106843Y-73742512D01*
X172837048Y-73338735D01*
X172433271Y-73068940D01*
X171956983Y-72974200D01*
X171908217Y-72974200D01*
X171431929Y-73068940D01*
X171028152Y-73338735D01*
X170758357Y-73742512D01*
X170663617Y-74218800D01*
X170661583Y-74218800D01*
X170566843Y-73742512D01*
X170297048Y-73338735D01*
X169893271Y-73068940D01*
X169416983Y-72974200D01*
X169368217Y-72974200D01*
X168891929Y-73068940D01*
X168488152Y-73338735D01*
X168218357Y-73742512D01*
X168123617Y-74218800D01*
X168121583Y-74218800D01*
X168026843Y-73742512D01*
X167757048Y-73338735D01*
X167353271Y-73068940D01*
X166876983Y-72974200D01*
X166828217Y-72974200D01*
X166351929Y-73068940D01*
X165948152Y-73338735D01*
X165678357Y-73742512D01*
X165583617Y-74218800D01*
X165581583Y-74218800D01*
X165486843Y-73742512D01*
X165217048Y-73338735D01*
X164813271Y-73068940D01*
X164336983Y-72974200D01*
X164288217Y-72974200D01*
X163944578Y-73042554D01*
X163462611Y-72560587D01*
X163394289Y-72514936D01*
X163277203Y-72436702D01*
X163240917Y-72429484D01*
X163058499Y-72393198D01*
X163058494Y-72393199D01*
X153550636Y-72393199D01*
X153550631Y-72393198D01*
X153368213Y-72429484D01*
X153331927Y-72436702D01*
X153146519Y-72560587D01*
X153146517Y-72560590D01*
X152494387Y-73212719D01*
X152443170Y-73289371D01*
X152113271Y-73068940D01*
X151636983Y-72974200D01*
X151588217Y-72974200D01*
X151111929Y-73068940D01*
X150708152Y-73338735D01*
X150438357Y-73742512D01*
X150343617Y-74218800D01*
X150438357Y-74695088D01*
X150708152Y-75098865D01*
X151111929Y-75368660D01*
X151588217Y-75463400D01*
X151636983Y-75463400D01*
X152113271Y-75368660D01*
X152326999Y-75225852D01*
X152326999Y-75751748D01*
X152113271Y-75608940D01*
X151636983Y-75514200D01*
X151588217Y-75514200D01*
X151111929Y-75608940D01*
X150708152Y-75878735D01*
X150438357Y-76282512D01*
X150343617Y-76758800D01*
X150438357Y-77235088D01*
X150601958Y-77479934D01*
X150265138Y-77143114D01*
X150341583Y-76758800D01*
X150246843Y-76282512D01*
X149977048Y-75878735D01*
X149573271Y-75608940D01*
X149096983Y-75514200D01*
X149048217Y-75514200D01*
X148571929Y-75608940D01*
X148168152Y-75878735D01*
X147923441Y-76244972D01*
X147815288Y-75983853D01*
X147421090Y-75551979D01*
X147030938Y-75369124D01*
X147033271Y-75368660D01*
X147437048Y-75098865D01*
X147706843Y-74695088D01*
X147801583Y-74218800D01*
X147803617Y-74218800D01*
X147898357Y-74695088D01*
X148168152Y-75098865D01*
X148571929Y-75368660D01*
X149048217Y-75463400D01*
X149096983Y-75463400D01*
X149573271Y-75368660D01*
X149977048Y-75098865D01*
X150246843Y-74695088D01*
X150341583Y-74218800D01*
X150246843Y-73742512D01*
X149977048Y-73338735D01*
X149573271Y-73068940D01*
X149096983Y-72974200D01*
X149048217Y-72974200D01*
X148571929Y-73068940D01*
X148168152Y-73338735D01*
X147898357Y-73742512D01*
X147803617Y-74218800D01*
X147801583Y-74218800D01*
X147706843Y-73742512D01*
X147437048Y-73338735D01*
X147033271Y-73068940D01*
X146556983Y-72974200D01*
X146508217Y-72974200D01*
X146031929Y-73068940D01*
X145628152Y-73338735D01*
X145358357Y-73742512D01*
X145263617Y-74218800D01*
X145358357Y-74695088D01*
X145628152Y-75098865D01*
X146031929Y-75368660D01*
X146034262Y-75369124D01*
X145644110Y-75551979D01*
X145249912Y-75983853D01*
X145141759Y-76244972D01*
X144897048Y-75878735D01*
X144493271Y-75608940D01*
X144016983Y-75514200D01*
X143968217Y-75514200D01*
X143491929Y-75608940D01*
X143088152Y-75878735D01*
X142818357Y-76282512D01*
X142723617Y-76758800D01*
X142818357Y-77235088D01*
X143088152Y-77638865D01*
X143491929Y-77908660D01*
X143968217Y-78003400D01*
X144016983Y-78003400D01*
X144360622Y-77935046D01*
X147296067Y-80870490D01*
X135918510Y-80870490D01*
X135675506Y-80918826D01*
X135469497Y-81056477D01*
X135011077Y-81514897D01*
X134973331Y-81514864D01*
X134686177Y-81633514D01*
X134584583Y-81734930D01*
X134530107Y-81461062D01*
X134317575Y-81142984D01*
X133999497Y-80930452D01*
X133624299Y-80855820D01*
X133075701Y-80855820D01*
X132700503Y-80930452D01*
X132382425Y-81142984D01*
X132169893Y-81461062D01*
X132095261Y-81836260D01*
X132169893Y-82211458D01*
X132382425Y-82529536D01*
X132700503Y-82742068D01*
X133075701Y-82816700D01*
X133624299Y-82816700D01*
X133999497Y-82742068D01*
X134317575Y-82529536D01*
X134355808Y-82472316D01*
X134465514Y-82737823D01*
X134493000Y-82765357D01*
X134493000Y-83404507D01*
X134317575Y-83141964D01*
X133999497Y-82929432D01*
X133624299Y-82854800D01*
X133075701Y-82854800D01*
X132700503Y-82929432D01*
X132382425Y-83141964D01*
X132169893Y-83460042D01*
X132095261Y-83835240D01*
X132169893Y-84210438D01*
X132382425Y-84528516D01*
X132700503Y-84741048D01*
X133075701Y-84815680D01*
X133624299Y-84815680D01*
X133999497Y-84741048D01*
X134317575Y-84528516D01*
X134493000Y-84265973D01*
X134493000Y-85406027D01*
X134317575Y-85143484D01*
X133999497Y-84930952D01*
X133624299Y-84856320D01*
X133075701Y-84856320D01*
X132700503Y-84930952D01*
X132382425Y-85143484D01*
X132169893Y-85461562D01*
X132095261Y-85836760D01*
X132169893Y-86211958D01*
X132382425Y-86530036D01*
X132489080Y-86601300D01*
X132374060Y-86601300D01*
X132140671Y-86697973D01*
X131962043Y-86876602D01*
X131865370Y-87109991D01*
X131064000Y-87109991D01*
X131064000Y-80425426D01*
X135120536Y-76368890D01*
X135120536Y-77622400D01*
X135147103Y-77763590D01*
X135230546Y-77893265D01*
X135357866Y-77980259D01*
X135509000Y-78010864D01*
X137236200Y-78010864D01*
X137377390Y-77984297D01*
X137507065Y-77900854D01*
X137594059Y-77773534D01*
X137624664Y-77622400D01*
X137624664Y-76758800D01*
X137643617Y-76758800D01*
X137738357Y-77235088D01*
X138008152Y-77638865D01*
X138411929Y-77908660D01*
X138888217Y-78003400D01*
X138936983Y-78003400D01*
X139413271Y-77908660D01*
X139817048Y-77638865D01*
X140086843Y-77235088D01*
X140181583Y-76758800D01*
X140086843Y-76282512D01*
X139817048Y-75878735D01*
X139413271Y-75608940D01*
X138936983Y-75514200D01*
X138888217Y-75514200D01*
X138411929Y-75608940D01*
X138008152Y-75878735D01*
X137738357Y-76282512D01*
X137643617Y-76758800D01*
X137624664Y-76758800D01*
X137624664Y-75895200D01*
X137598097Y-75754010D01*
X137514654Y-75624335D01*
X137387334Y-75537341D01*
X137236200Y-75506736D01*
X135982690Y-75506736D01*
X136079481Y-75409945D01*
X136348217Y-75463400D01*
X136396983Y-75463400D01*
X136873271Y-75368660D01*
X137277048Y-75098865D01*
X137546843Y-74695088D01*
X137641583Y-74218800D01*
X137643617Y-74218800D01*
X137738357Y-74695088D01*
X138008152Y-75098865D01*
X138411929Y-75368660D01*
X138888217Y-75463400D01*
X138936983Y-75463400D01*
X139413271Y-75368660D01*
X139817048Y-75098865D01*
X140061759Y-74732628D01*
X140169912Y-74993747D01*
X140564110Y-75425621D01*
X140954262Y-75608476D01*
X140951929Y-75608940D01*
X140548152Y-75878735D01*
X140278357Y-76282512D01*
X140183617Y-76758800D01*
X140278357Y-77235088D01*
X140548152Y-77638865D01*
X140951929Y-77908660D01*
X141428217Y-78003400D01*
X141476983Y-78003400D01*
X141953271Y-77908660D01*
X142357048Y-77638865D01*
X142626843Y-77235088D01*
X142721583Y-76758800D01*
X142626843Y-76282512D01*
X142357048Y-75878735D01*
X141953271Y-75608940D01*
X141950938Y-75608476D01*
X142341090Y-75425621D01*
X142735288Y-74993747D01*
X142843441Y-74732628D01*
X143088152Y-75098865D01*
X143491929Y-75368660D01*
X143968217Y-75463400D01*
X144016983Y-75463400D01*
X144493271Y-75368660D01*
X144897048Y-75098865D01*
X145166843Y-74695088D01*
X145261583Y-74218800D01*
X145166843Y-73742512D01*
X144897048Y-73338735D01*
X144493271Y-73068940D01*
X144016983Y-72974200D01*
X143968217Y-72974200D01*
X143491929Y-73068940D01*
X143088152Y-73338735D01*
X142843441Y-73704972D01*
X142735288Y-73443853D01*
X142341090Y-73011979D01*
X141811627Y-72763832D01*
X141579600Y-72884331D01*
X141579600Y-74091800D01*
X141599600Y-74091800D01*
X141599600Y-74345800D01*
X141579600Y-74345800D01*
X141579600Y-74365800D01*
X141325600Y-74365800D01*
X141325600Y-74345800D01*
X141305600Y-74345800D01*
X141305600Y-74091800D01*
X141325600Y-74091800D01*
X141325600Y-72884331D01*
X141093573Y-72763832D01*
X140564110Y-73011979D01*
X140169912Y-73443853D01*
X140061759Y-73704972D01*
X139817048Y-73338735D01*
X139413271Y-73068940D01*
X138936983Y-72974200D01*
X138888217Y-72974200D01*
X138411929Y-73068940D01*
X138008152Y-73338735D01*
X137738357Y-73742512D01*
X137643617Y-74218800D01*
X137641583Y-74218800D01*
X137546843Y-73742512D01*
X137277048Y-73338735D01*
X136873271Y-73068940D01*
X136396983Y-72974200D01*
X136348217Y-72974200D01*
X135871929Y-73068940D01*
X135468152Y-73338735D01*
X135198357Y-73742512D01*
X135103617Y-74218800D01*
X135165163Y-74528211D01*
X133912756Y-75780618D01*
X133913417Y-75022130D01*
X133546834Y-74134931D01*
X132868639Y-73455551D01*
X131982081Y-73087420D01*
X131022130Y-73086583D01*
X130134931Y-73453166D01*
X129455551Y-74131361D01*
X129087420Y-75017919D01*
X129086583Y-75977870D01*
X128456000Y-75977870D01*
X128456000Y-73044912D01*
X128543723Y-72603897D01*
X128768098Y-72268098D01*
X129103897Y-72043723D01*
X129544913Y-71956000D01*
X191455088Y-71956000D01*
X191896103Y-72043723D01*
X191896103Y-72043723D01*
G37*
X191896103Y-72043723D02*
X192231902Y-72268098D01*
X192456277Y-72603897D01*
X192544000Y-73044913D01*
X192544000Y-104775000D01*
X170688000Y-104775000D01*
X170638590Y-104785006D01*
X170598197Y-104812197D01*
X167550197Y-107860197D01*
X167522334Y-107902211D01*
X167513000Y-107950000D01*
X167513000Y-127544000D01*
X129544913Y-127544000D01*
X129103897Y-127456277D01*
X128768098Y-127231902D01*
X128543723Y-126896103D01*
X128456000Y-126455088D01*
X128456000Y-124977870D01*
X129086583Y-124977870D01*
X129453166Y-125865069D01*
X130131361Y-126544449D01*
X131017919Y-126912580D01*
X131977870Y-126913417D01*
X132865069Y-126546834D01*
X133544449Y-125868639D01*
X133912580Y-124982081D01*
X133913417Y-124022130D01*
X133546834Y-123134931D01*
X132868639Y-122455551D01*
X131982081Y-122087420D01*
X131022130Y-122086583D01*
X130134931Y-122453166D01*
X129455551Y-123131361D01*
X129087420Y-124017919D01*
X129086583Y-124977870D01*
X128456000Y-124977870D01*
X128456000Y-119744490D01*
X131865370Y-119744490D01*
X131865370Y-120184489D01*
X131962043Y-120417878D01*
X132140671Y-120596507D01*
X132374060Y-120693180D01*
X133064250Y-120693180D01*
X133223000Y-120534430D01*
X133223000Y-119585740D01*
X133477000Y-119585740D01*
X133477000Y-120534430D01*
X133635750Y-120693180D01*
X134325940Y-120693180D01*
X134559329Y-120596507D01*
X134737957Y-120417878D01*
X134834630Y-120184489D01*
X134834630Y-119744490D01*
X134675880Y-119585740D01*
X133477000Y-119585740D01*
X133223000Y-119585740D01*
X132024120Y-119585740D01*
X131865370Y-119744490D01*
X128456000Y-119744490D01*
X128456000Y-75977870D01*
X129086583Y-75977870D01*
X129453166Y-76865069D01*
X130131361Y-77544449D01*
X131017919Y-77912580D01*
X131780129Y-77913245D01*
X129979987Y-79713387D01*
X129842336Y-79919396D01*
X129794000Y-80162400D01*
X129794000Y-114788950D01*
X129842336Y-115031954D01*
X129979987Y-115237963D01*
X132112934Y-117370910D01*
X132095261Y-117459760D01*
X132169893Y-117834958D01*
X132382425Y-118153036D01*
X132489080Y-118224300D01*
X132374060Y-118224300D01*
X132140671Y-118320973D01*
X131962043Y-118499602D01*
X131865370Y-118732991D01*
X131865370Y-119172990D01*
X132024120Y-119331740D01*
X133223000Y-119331740D01*
X133223000Y-119311740D01*
X133477000Y-119311740D01*
X133477000Y-119331740D01*
X134675880Y-119331740D01*
X134834630Y-119172990D01*
X134834630Y-118732991D01*
X134737957Y-118499602D01*
X134559329Y-118320973D01*
X134325940Y-118224300D01*
X134210920Y-118224300D01*
X134317575Y-118153036D01*
X134530107Y-117834958D01*
X134604739Y-117459760D01*
X134530107Y-117084562D01*
X134323718Y-116775677D01*
X136515611Y-116775677D01*
X136953389Y-117835180D01*
X137763297Y-118646502D01*
X138822034Y-119086128D01*
X139968417Y-119087129D01*
X141027920Y-118649351D01*
X141608239Y-118070043D01*
X146343479Y-118070043D01*
X146486719Y-118595753D01*
X146820236Y-119026630D01*
X147293255Y-119297077D01*
X147395285Y-119315723D01*
X147609560Y-119193069D01*
X147609560Y-117850920D01*
X147863560Y-117850920D01*
X147863560Y-119193069D01*
X148077835Y-119315723D01*
X148179865Y-119297077D01*
X148652884Y-119026630D01*
X148986401Y-118595753D01*
X149129641Y-118070043D01*
X148968946Y-117850920D01*
X147863560Y-117850920D01*
X147609560Y-117850920D01*
X146504174Y-117850920D01*
X146343479Y-118070043D01*
X141608239Y-118070043D01*
X141839242Y-117839443D01*
X142030934Y-117377797D01*
X146343479Y-117377797D01*
X146504174Y-117596920D01*
X147609560Y-117596920D01*
X147609560Y-116254771D01*
X147863560Y-116254771D01*
X147863560Y-117596920D01*
X148968946Y-117596920D01*
X149078190Y-117447955D01*
X149376130Y-117447955D01*
X149376130Y-117999885D01*
X149462266Y-118432918D01*
X149707559Y-118800026D01*
X150074667Y-119045319D01*
X150507700Y-119131455D01*
X150940733Y-119045319D01*
X151307841Y-118800026D01*
X151553134Y-118432918D01*
X151639270Y-117999885D01*
X151639270Y-117447955D01*
X152144730Y-117447955D01*
X152144730Y-117999885D01*
X152230866Y-118432918D01*
X152476159Y-118800026D01*
X152843267Y-119045319D01*
X153276300Y-119131455D01*
X153709333Y-119045319D01*
X154076441Y-118800026D01*
X154321734Y-118432918D01*
X154407870Y-117999885D01*
X154407870Y-117447955D01*
X154915870Y-117447955D01*
X154915870Y-117999885D01*
X155002006Y-118432918D01*
X155247299Y-118800026D01*
X155614407Y-119045319D01*
X156047440Y-119131455D01*
X156480473Y-119045319D01*
X156847581Y-118800026D01*
X157092874Y-118432918D01*
X157179010Y-117999885D01*
X157179010Y-117447955D01*
X157092874Y-117014922D01*
X156933017Y-116775677D01*
X161504131Y-116775677D01*
X161941909Y-117835180D01*
X162751817Y-118646502D01*
X163810554Y-119086128D01*
X164956937Y-119087129D01*
X166016440Y-118649351D01*
X166827762Y-117839443D01*
X167267388Y-116780706D01*
X167268389Y-115634323D01*
X166830611Y-114574820D01*
X166020703Y-113763498D01*
X164961966Y-113323872D01*
X163815583Y-113322871D01*
X162756080Y-113760649D01*
X161944758Y-114570557D01*
X161505132Y-115629294D01*
X161504131Y-116775677D01*
X156933017Y-116775677D01*
X156847581Y-116647814D01*
X156480473Y-116402521D01*
X156047440Y-116316385D01*
X155614407Y-116402521D01*
X155247299Y-116647814D01*
X155002006Y-117014922D01*
X154915870Y-117447955D01*
X154407870Y-117447955D01*
X154321734Y-117014922D01*
X154076441Y-116647814D01*
X153709333Y-116402521D01*
X153276300Y-116316385D01*
X152843267Y-116402521D01*
X152476159Y-116647814D01*
X152230866Y-117014922D01*
X152144730Y-117447955D01*
X151639270Y-117447955D01*
X151553134Y-117014922D01*
X151307841Y-116647814D01*
X150940733Y-116402521D01*
X150507700Y-116316385D01*
X150074667Y-116402521D01*
X149707559Y-116647814D01*
X149462266Y-117014922D01*
X149376130Y-117447955D01*
X149078190Y-117447955D01*
X149129641Y-117377797D01*
X148986401Y-116852087D01*
X148652884Y-116421210D01*
X148179865Y-116150763D01*
X148077835Y-116132117D01*
X147863560Y-116254771D01*
X147609560Y-116254771D01*
X147395285Y-116132117D01*
X147293255Y-116150763D01*
X146820236Y-116421210D01*
X146486719Y-116852087D01*
X146343479Y-117377797D01*
X142030934Y-117377797D01*
X142278868Y-116780706D01*
X142279869Y-115634323D01*
X141842091Y-114574820D01*
X141677674Y-114410115D01*
X145220690Y-114410115D01*
X145220690Y-114962045D01*
X145306826Y-115395078D01*
X145552119Y-115762186D01*
X145919227Y-116007479D01*
X146352260Y-116093615D01*
X146785293Y-116007479D01*
X147152401Y-115762186D01*
X147397694Y-115395078D01*
X147483830Y-114962045D01*
X147483830Y-114410115D01*
X147989290Y-114410115D01*
X147989290Y-114962045D01*
X148075426Y-115395078D01*
X148320719Y-115762186D01*
X148687827Y-116007479D01*
X149120860Y-116093615D01*
X149553893Y-116007479D01*
X149921001Y-115762186D01*
X150166294Y-115395078D01*
X150238474Y-115032203D01*
X150498919Y-115032203D01*
X150642159Y-115557913D01*
X150975676Y-115988790D01*
X151448695Y-116259237D01*
X151550725Y-116277883D01*
X151765000Y-116155229D01*
X151765000Y-114813080D01*
X152019000Y-114813080D01*
X152019000Y-116155229D01*
X152233275Y-116277883D01*
X152335305Y-116259237D01*
X152808324Y-115988790D01*
X153141841Y-115557913D01*
X153285081Y-115032203D01*
X153124386Y-114813080D01*
X152019000Y-114813080D01*
X151765000Y-114813080D01*
X150659614Y-114813080D01*
X150498919Y-115032203D01*
X150238474Y-115032203D01*
X150252430Y-114962045D01*
X150252430Y-114410115D01*
X150238475Y-114339957D01*
X150498919Y-114339957D01*
X150659614Y-114559080D01*
X151765000Y-114559080D01*
X151765000Y-113216931D01*
X152019000Y-113216931D01*
X152019000Y-114559080D01*
X153124386Y-114559080D01*
X153233630Y-114410115D01*
X153531570Y-114410115D01*
X153531570Y-114962045D01*
X153617706Y-115395078D01*
X153862999Y-115762186D01*
X154230107Y-116007479D01*
X154663140Y-116093615D01*
X155096173Y-116007479D01*
X155463281Y-115762186D01*
X155708574Y-115395078D01*
X155794710Y-114962045D01*
X155794710Y-114410115D01*
X156300170Y-114410115D01*
X156300170Y-114962045D01*
X156386306Y-115395078D01*
X156631599Y-115762186D01*
X156998707Y-116007479D01*
X157431740Y-116093615D01*
X157864773Y-116007479D01*
X158231881Y-115762186D01*
X158477174Y-115395078D01*
X158563310Y-114962045D01*
X158563310Y-114410115D01*
X158477174Y-113977082D01*
X158231881Y-113609974D01*
X157864773Y-113364681D01*
X157431740Y-113278545D01*
X156998707Y-113364681D01*
X156631599Y-113609974D01*
X156386306Y-113977082D01*
X156300170Y-114410115D01*
X155794710Y-114410115D01*
X155708574Y-113977082D01*
X155463281Y-113609974D01*
X155096173Y-113364681D01*
X154663140Y-113278545D01*
X154230107Y-113364681D01*
X153862999Y-113609974D01*
X153617706Y-113977082D01*
X153531570Y-114410115D01*
X153233630Y-114410115D01*
X153285081Y-114339957D01*
X153141841Y-113814247D01*
X152808324Y-113383370D01*
X152335305Y-113112923D01*
X152233275Y-113094277D01*
X152019000Y-113216931D01*
X151765000Y-113216931D01*
X151550725Y-113094277D01*
X151448695Y-113112923D01*
X150975676Y-113383370D01*
X150642159Y-113814247D01*
X150498919Y-114339957D01*
X150238475Y-114339957D01*
X150166294Y-113977082D01*
X149921001Y-113609974D01*
X149553893Y-113364681D01*
X149120860Y-113278545D01*
X148687827Y-113364681D01*
X148320719Y-113609974D01*
X148075426Y-113977082D01*
X147989290Y-114410115D01*
X147483830Y-114410115D01*
X147397694Y-113977082D01*
X147152401Y-113609974D01*
X146785293Y-113364681D01*
X146352260Y-113278545D01*
X145919227Y-113364681D01*
X145552119Y-113609974D01*
X145306826Y-113977082D01*
X145220690Y-114410115D01*
X141677674Y-114410115D01*
X141032183Y-113763498D01*
X139973446Y-113323872D01*
X138827063Y-113322871D01*
X137767560Y-113760649D01*
X136956238Y-114570557D01*
X136516612Y-115629294D01*
X136515611Y-116775677D01*
X134323718Y-116775677D01*
X134317575Y-116766484D01*
X133999497Y-116553952D01*
X133624299Y-116479320D01*
X133075701Y-116479320D01*
X133027069Y-116488993D01*
X132952187Y-116414111D01*
X133075701Y-116438680D01*
X133624299Y-116438680D01*
X133999497Y-116364048D01*
X134317575Y-116151516D01*
X134530107Y-115833438D01*
X134604739Y-115458240D01*
X134530107Y-115083042D01*
X134317575Y-114764964D01*
X133999497Y-114552432D01*
X133624299Y-114477800D01*
X133075701Y-114477800D01*
X132700503Y-114552432D01*
X132382425Y-114764964D01*
X132169893Y-115083042D01*
X132095261Y-115458240D01*
X132119830Y-115581754D01*
X131064000Y-114525924D01*
X131064000Y-113459260D01*
X132095261Y-113459260D01*
X132169893Y-113834458D01*
X132382425Y-114152536D01*
X132700503Y-114365068D01*
X133075701Y-114439700D01*
X133624299Y-114439700D01*
X133999497Y-114365068D01*
X134317575Y-114152536D01*
X134530107Y-113834458D01*
X134604739Y-113459260D01*
X134530107Y-113084062D01*
X134317575Y-112765984D01*
X133999497Y-112553452D01*
X133624299Y-112478820D01*
X133075701Y-112478820D01*
X132700503Y-112553452D01*
X132382425Y-112765984D01*
X132169893Y-113084062D01*
X132095261Y-113459260D01*
X131064000Y-113459260D01*
X131064000Y-104548669D01*
X132187864Y-104548669D01*
X132306514Y-104835823D01*
X132526021Y-105055714D01*
X132812968Y-105174864D01*
X133123669Y-105175136D01*
X133410823Y-105056486D01*
X133501968Y-104965500D01*
X135399276Y-104965500D01*
X135963313Y-105529536D01*
X135763000Y-105529536D01*
X135621810Y-105556103D01*
X135492135Y-105639546D01*
X135405141Y-105766866D01*
X135374536Y-105918000D01*
X135374536Y-107950000D01*
X135401103Y-108091190D01*
X135484546Y-108220865D01*
X135611866Y-108307859D01*
X135763000Y-108338464D01*
X135984863Y-108338464D01*
X135763803Y-108486172D01*
X135460971Y-108939391D01*
X135354631Y-109474000D01*
X135460971Y-110008609D01*
X135763803Y-110461828D01*
X136217022Y-110764660D01*
X136751631Y-110871000D01*
X136806369Y-110871000D01*
X137340978Y-110764660D01*
X137794197Y-110461828D01*
X138097029Y-110008609D01*
X138203369Y-109474000D01*
X138097029Y-108939391D01*
X137794197Y-108486172D01*
X137573137Y-108338464D01*
X137795000Y-108338464D01*
X137936190Y-108311897D01*
X138065865Y-108228454D01*
X138152859Y-108101134D01*
X138183464Y-107950000D01*
X138183464Y-105918000D01*
X138156897Y-105776810D01*
X138073454Y-105647135D01*
X137946134Y-105560141D01*
X137795000Y-105529536D01*
X137349016Y-105529536D01*
X137306997Y-105318297D01*
X137306997Y-105318296D01*
X137183112Y-105132888D01*
X137183109Y-105132886D01*
X136040112Y-103989888D01*
X135981943Y-103951021D01*
X135854704Y-103866003D01*
X135818418Y-103858785D01*
X135636000Y-103822499D01*
X135635995Y-103822500D01*
X133502035Y-103822500D01*
X133411979Y-103732286D01*
X133125032Y-103613136D01*
X132814331Y-103612864D01*
X132527177Y-103731514D01*
X132307286Y-103951021D01*
X132188136Y-104237968D01*
X132187864Y-104548669D01*
X131064000Y-104548669D01*
X131064000Y-89290026D01*
X134932987Y-93159013D01*
X135138996Y-93296664D01*
X135382000Y-93345000D01*
X135501536Y-93345000D01*
X135501536Y-93726000D01*
X135528103Y-93867190D01*
X135611546Y-93996865D01*
X135738866Y-94083859D01*
X135890000Y-94114464D01*
X136111863Y-94114464D01*
X135890803Y-94262172D01*
X135587971Y-94715391D01*
X135481631Y-95250000D01*
X135587971Y-95784609D01*
X135890803Y-96237828D01*
X136344022Y-96540660D01*
X136878631Y-96647000D01*
X136933369Y-96647000D01*
X137467978Y-96540660D01*
X137921197Y-96237828D01*
X138224029Y-95784609D01*
X138330369Y-95250000D01*
X138224029Y-94715391D01*
X137921197Y-94262172D01*
X137700137Y-94114464D01*
X137922000Y-94114464D01*
X138063190Y-94087897D01*
X138192865Y-94004454D01*
X138279859Y-93877134D01*
X138307687Y-93739713D01*
X140315897Y-95747923D01*
X140315864Y-95785669D01*
X140434514Y-96072823D01*
X140654021Y-96292714D01*
X140940968Y-96411864D01*
X141251669Y-96412136D01*
X141538823Y-96293486D01*
X141546931Y-96285392D01*
X153660871Y-96285392D01*
X153870595Y-96792963D01*
X154258594Y-97181640D01*
X154765799Y-97392249D01*
X155314992Y-97392729D01*
X155822563Y-97183005D01*
X156211240Y-96795006D01*
X156421849Y-96287801D01*
X156421851Y-96285392D01*
X158740871Y-96285392D01*
X158950595Y-96792963D01*
X159338594Y-97181640D01*
X159845799Y-97392249D01*
X160394992Y-97392729D01*
X160902563Y-97183005D01*
X161291240Y-96795006D01*
X161501849Y-96287801D01*
X161502329Y-95738608D01*
X161292605Y-95231037D01*
X160904606Y-94842360D01*
X160397401Y-94631751D01*
X159848208Y-94631271D01*
X159340637Y-94840995D01*
X158951960Y-95228994D01*
X158741351Y-95736199D01*
X158740871Y-96285392D01*
X156421851Y-96285392D01*
X156422329Y-95738608D01*
X156212605Y-95231037D01*
X155824606Y-94842360D01*
X155317401Y-94631751D01*
X154768208Y-94631271D01*
X154260637Y-94840995D01*
X153871960Y-95228994D01*
X153661351Y-95736199D01*
X153660871Y-96285392D01*
X141546931Y-96285392D01*
X141758714Y-96073979D01*
X141877864Y-95787032D01*
X141878136Y-95476331D01*
X141759486Y-95189177D01*
X141539979Y-94969286D01*
X141253032Y-94850136D01*
X141214128Y-94850102D01*
X138625013Y-92260987D01*
X138419004Y-92123336D01*
X138310464Y-92101746D01*
X138310464Y-91694000D01*
X138283897Y-91552810D01*
X138200454Y-91423135D01*
X138073134Y-91336141D01*
X137922000Y-91305536D01*
X135890000Y-91305536D01*
X135748810Y-91332103D01*
X135619135Y-91415546D01*
X135532141Y-91542866D01*
X135501536Y-91694000D01*
X135501536Y-91931510D01*
X132640206Y-89070180D01*
X133064250Y-89070180D01*
X133223000Y-88911430D01*
X133223000Y-87962740D01*
X133477000Y-87962740D01*
X133477000Y-88911430D01*
X133635750Y-89070180D01*
X134325940Y-89070180D01*
X134559329Y-88973507D01*
X134737957Y-88794878D01*
X134834630Y-88561489D01*
X134834630Y-88121490D01*
X134675880Y-87962740D01*
X133477000Y-87962740D01*
X133223000Y-87962740D01*
X132024120Y-87962740D01*
X131865370Y-88121490D01*
X131865370Y-88295344D01*
X131064000Y-87493974D01*
X131064000Y-87109991D01*
X131865370Y-87109991D01*
X131865370Y-87549990D01*
X132024120Y-87708740D01*
X133223000Y-87708740D01*
X133223000Y-87688740D01*
X133477000Y-87688740D01*
X133477000Y-87708740D01*
X134675880Y-87708740D01*
X134834630Y-87549990D01*
X134834630Y-87109991D01*
X134737957Y-86876602D01*
X134559329Y-86697973D01*
X134325940Y-86601300D01*
X134210920Y-86601300D01*
X134317575Y-86530036D01*
X134436870Y-86351498D01*
X134465514Y-86420823D01*
X134685021Y-86640714D01*
X134971968Y-86759864D01*
X135282669Y-86760136D01*
X135569823Y-86641486D01*
X135789714Y-86421979D01*
X135908864Y-86135032D01*
X135909136Y-85824331D01*
X135827051Y-85625669D01*
X140061864Y-85625669D01*
X140180514Y-85912823D01*
X140271500Y-86003968D01*
X140271500Y-88645995D01*
X140271499Y-88646000D01*
X140301114Y-88794878D01*
X140315003Y-88864704D01*
X140438888Y-89050112D01*
X141966976Y-90578199D01*
X141966864Y-90705669D01*
X142085514Y-90992823D01*
X142305021Y-91212714D01*
X142591968Y-91331864D01*
X142902669Y-91332136D01*
X143189823Y-91213486D01*
X143409714Y-90993979D01*
X143528864Y-90707032D01*
X143529136Y-90396331D01*
X143410486Y-90109177D01*
X143372046Y-90070669D01*
X153396864Y-90070669D01*
X153515514Y-90357823D01*
X153735021Y-90577714D01*
X154021968Y-90696864D01*
X154332669Y-90697136D01*
X154619823Y-90578486D01*
X154839714Y-90358979D01*
X154958864Y-90072032D01*
X154958977Y-89943247D01*
X157630109Y-87272114D01*
X157630112Y-87272112D01*
X157753997Y-87086704D01*
X157761215Y-87050418D01*
X157797501Y-86868000D01*
X157797500Y-86867995D01*
X157797500Y-85877035D01*
X157887714Y-85786979D01*
X158006864Y-85500032D01*
X158007136Y-85189331D01*
X157888486Y-84902177D01*
X157668979Y-84682286D01*
X157382032Y-84563136D01*
X157071331Y-84562864D01*
X156784177Y-84681514D01*
X156564286Y-84901021D01*
X156445136Y-85187968D01*
X156444864Y-85498669D01*
X156563514Y-85785823D01*
X156654500Y-85876968D01*
X156654500Y-86631277D01*
X154150801Y-89134976D01*
X154023331Y-89134864D01*
X153736177Y-89253514D01*
X153516286Y-89473021D01*
X153397136Y-89759968D01*
X153396864Y-90070669D01*
X143372046Y-90070669D01*
X143190979Y-89889286D01*
X142904032Y-89770136D01*
X142775246Y-89770023D01*
X141414500Y-88409276D01*
X141414500Y-86004035D01*
X141504714Y-85913979D01*
X141623864Y-85627032D01*
X141624136Y-85316331D01*
X141505486Y-85029177D01*
X141285979Y-84809286D01*
X140999032Y-84690136D01*
X140688331Y-84689864D01*
X140401177Y-84808514D01*
X140181286Y-85028021D01*
X140062136Y-85314968D01*
X140061864Y-85625669D01*
X135827051Y-85625669D01*
X135790486Y-85537177D01*
X135763000Y-85509643D01*
X135763000Y-82765646D01*
X135789714Y-82738979D01*
X135908864Y-82452032D01*
X135908898Y-82413128D01*
X136181536Y-82140490D01*
X149940929Y-82140490D01*
X149967596Y-82167204D01*
X150254543Y-82286354D01*
X150565244Y-82286626D01*
X150852398Y-82167976D01*
X150879932Y-82140490D01*
X155224030Y-82140490D01*
X155403516Y-82104788D01*
X155695230Y-82396502D01*
X155901238Y-82534153D01*
X156144243Y-82582489D01*
X165617511Y-82582489D01*
X165617511Y-87385511D01*
X165665847Y-87628515D01*
X165803498Y-87834524D01*
X169144897Y-91175923D01*
X169144864Y-91213669D01*
X169263514Y-91500823D01*
X169483021Y-91720714D01*
X169769968Y-91839864D01*
X170080669Y-91840136D01*
X170367823Y-91721486D01*
X170587714Y-91501979D01*
X170706864Y-91215032D01*
X170707094Y-90952365D01*
X171513500Y-91758771D01*
X171513500Y-97399332D01*
X171280889Y-97631943D01*
X171157004Y-97817351D01*
X171157004Y-97817352D01*
X171113500Y-98036055D01*
X171113501Y-98036060D01*
X171113501Y-98659996D01*
X171113500Y-98660001D01*
X171129911Y-98742500D01*
X171157004Y-98878705D01*
X171174795Y-98905331D01*
X171280889Y-99064113D01*
X171303976Y-99087200D01*
X171303864Y-99214669D01*
X171422514Y-99501823D01*
X171642021Y-99721714D01*
X171928968Y-99840864D01*
X172239669Y-99841136D01*
X172526823Y-99722486D01*
X172746714Y-99502979D01*
X172865864Y-99216032D01*
X172866095Y-98952017D01*
X173001669Y-98952136D01*
X173288823Y-98833486D01*
X173508714Y-98613979D01*
X173593875Y-98408886D01*
X173890669Y-98409146D01*
X174177823Y-98290496D01*
X174397714Y-98070989D01*
X174441159Y-97966362D01*
X174483912Y-98069833D01*
X174703419Y-98289724D01*
X174990366Y-98408874D01*
X175301067Y-98409146D01*
X175588221Y-98290496D01*
X175808112Y-98070989D01*
X175927262Y-97784042D01*
X175927534Y-97473341D01*
X175808884Y-97186187D01*
X175717898Y-97095042D01*
X175717898Y-96757490D01*
X177458370Y-96757490D01*
X177458370Y-97197489D01*
X177555043Y-97430878D01*
X177733671Y-97609507D01*
X177967060Y-97706180D01*
X178657250Y-97706180D01*
X178816000Y-97547430D01*
X178816000Y-96598740D01*
X179070000Y-96598740D01*
X179070000Y-97547430D01*
X179228750Y-97706180D01*
X179918940Y-97706180D01*
X180152329Y-97609507D01*
X180330957Y-97430878D01*
X180427630Y-97197489D01*
X180427630Y-96757490D01*
X180268880Y-96598740D01*
X179070000Y-96598740D01*
X178816000Y-96598740D01*
X177617120Y-96598740D01*
X177458370Y-96757490D01*
X175717898Y-96757490D01*
X175717898Y-95745991D01*
X177458370Y-95745991D01*
X177458370Y-96185990D01*
X177617120Y-96344740D01*
X178816000Y-96344740D01*
X178816000Y-96324740D01*
X179070000Y-96324740D01*
X179070000Y-96344740D01*
X180268880Y-96344740D01*
X180427630Y-96185990D01*
X180427630Y-95745991D01*
X180330957Y-95512602D01*
X180152329Y-95333973D01*
X179918940Y-95237300D01*
X179803920Y-95237300D01*
X179910575Y-95166036D01*
X180123107Y-94847958D01*
X180197739Y-94472760D01*
X180123107Y-94097562D01*
X179910575Y-93779484D01*
X179592497Y-93566952D01*
X179217299Y-93492320D01*
X178668701Y-93492320D01*
X178293503Y-93566952D01*
X177975425Y-93779484D01*
X177762893Y-94097562D01*
X177688261Y-94472760D01*
X177762893Y-94847958D01*
X177975425Y-95166036D01*
X178082080Y-95237300D01*
X177967060Y-95237300D01*
X177733671Y-95333973D01*
X177555043Y-95512602D01*
X177458370Y-95745991D01*
X175717898Y-95745991D01*
X175717898Y-92471240D01*
X177688261Y-92471240D01*
X177762893Y-92846438D01*
X177975425Y-93164516D01*
X178293503Y-93377048D01*
X178668701Y-93451680D01*
X179217299Y-93451680D01*
X179592497Y-93377048D01*
X179910575Y-93164516D01*
X180123107Y-92846438D01*
X180197739Y-92471240D01*
X180123107Y-92096042D01*
X179910575Y-91777964D01*
X179592497Y-91565432D01*
X179217299Y-91490800D01*
X178668701Y-91490800D01*
X178293503Y-91565432D01*
X177975425Y-91777964D01*
X177762893Y-92096042D01*
X177688261Y-92471240D01*
X175717898Y-92471240D01*
X175717898Y-87074942D01*
X178243092Y-89600135D01*
X177975425Y-89778984D01*
X177762893Y-90097062D01*
X177688261Y-90472260D01*
X177762893Y-90847458D01*
X177975425Y-91165536D01*
X178293503Y-91378068D01*
X178668701Y-91452700D01*
X179217299Y-91452700D01*
X179592497Y-91378068D01*
X179910575Y-91165536D01*
X180123107Y-90847458D01*
X180197739Y-90472260D01*
X180123107Y-90097062D01*
X179910575Y-89778984D01*
X179592497Y-89566452D01*
X179514500Y-89550937D01*
X179514500Y-89491820D01*
X179470997Y-89273116D01*
X179347112Y-89087708D01*
X179347109Y-89087706D01*
X174606697Y-84347293D01*
X174606749Y-84287994D01*
X174488099Y-84000840D01*
X174268592Y-83780949D01*
X173981645Y-83661799D01*
X173670944Y-83661527D01*
X173383790Y-83780177D01*
X173163899Y-83999684D01*
X173137202Y-84063978D01*
X167933057Y-78859833D01*
X167890957Y-78831703D01*
X167747649Y-78735948D01*
X167711363Y-78728730D01*
X167528945Y-78692444D01*
X167528940Y-78692445D01*
X164793527Y-78692445D01*
X164867875Y-78513393D01*
X164868147Y-78202692D01*
X164751714Y-77920904D01*
X164813271Y-77908660D01*
X165217048Y-77638865D01*
X165486843Y-77235088D01*
X165581583Y-76758800D01*
X165583617Y-76758800D01*
X165678357Y-77235088D01*
X165948152Y-77638865D01*
X166351929Y-77908660D01*
X166828217Y-78003400D01*
X166876983Y-78003400D01*
X167353271Y-77908660D01*
X167757048Y-77638865D01*
X168026843Y-77235088D01*
X168121583Y-76758800D01*
X168123617Y-76758800D01*
X168218357Y-77235088D01*
X168488152Y-77638865D01*
X168891929Y-77908660D01*
X169368217Y-78003400D01*
X169416983Y-78003400D01*
X169893271Y-77908660D01*
X170297048Y-77638865D01*
X170566843Y-77235088D01*
X170661583Y-76758800D01*
X170663617Y-76758800D01*
X170758357Y-77235088D01*
X171028152Y-77638865D01*
X171431929Y-77908660D01*
X171908217Y-78003400D01*
X171956983Y-78003400D01*
X172433271Y-77908660D01*
X172837048Y-77638865D01*
X173106843Y-77235088D01*
X173201583Y-76758800D01*
X173203617Y-76758800D01*
X173298357Y-77235088D01*
X173568152Y-77638865D01*
X173971929Y-77908660D01*
X174448217Y-78003400D01*
X174496983Y-78003400D01*
X174973271Y-77908660D01*
X175377048Y-77638865D01*
X175646843Y-77235088D01*
X175741583Y-76758800D01*
X175743617Y-76758800D01*
X175838357Y-77235088D01*
X176108152Y-77638865D01*
X176511929Y-77908660D01*
X176988217Y-78003400D01*
X177036983Y-78003400D01*
X177513271Y-77908660D01*
X177917048Y-77638865D01*
X178186843Y-77235088D01*
X178281583Y-76758800D01*
X178283617Y-76758800D01*
X178378357Y-77235088D01*
X178648152Y-77638865D01*
X179051929Y-77908660D01*
X179528217Y-78003400D01*
X179576983Y-78003400D01*
X180053271Y-77908660D01*
X180457048Y-77638865D01*
X180726843Y-77235088D01*
X180821583Y-76758800D01*
X180823617Y-76758800D01*
X180918357Y-77235088D01*
X181188152Y-77638865D01*
X181591929Y-77908660D01*
X182068217Y-78003400D01*
X182116983Y-78003400D01*
X182593271Y-77908660D01*
X182997048Y-77638865D01*
X183266843Y-77235088D01*
X183361583Y-76758800D01*
X183363617Y-76758800D01*
X183458357Y-77235088D01*
X183728152Y-77638865D01*
X184131929Y-77908660D01*
X184608217Y-78003400D01*
X184656983Y-78003400D01*
X185133271Y-77908660D01*
X185537048Y-77638865D01*
X185806843Y-77235088D01*
X185901583Y-76758800D01*
X185806843Y-76282512D01*
X185603288Y-75977870D01*
X187086583Y-75977870D01*
X187453166Y-76865069D01*
X188131361Y-77544449D01*
X189017919Y-77912580D01*
X189977870Y-77913417D01*
X190865069Y-77546834D01*
X191544449Y-76868639D01*
X191912580Y-75982081D01*
X191913417Y-75022130D01*
X191546834Y-74134931D01*
X190868639Y-73455551D01*
X189982081Y-73087420D01*
X189022130Y-73086583D01*
X188134931Y-73453166D01*
X187455551Y-74131361D01*
X187087420Y-75017919D01*
X187086583Y-75977870D01*
X185603288Y-75977870D01*
X185537048Y-75878735D01*
X185133271Y-75608940D01*
X184656983Y-75514200D01*
X184608217Y-75514200D01*
X184131929Y-75608940D01*
X183728152Y-75878735D01*
X183458357Y-76282512D01*
X183363617Y-76758800D01*
X183361583Y-76758800D01*
X183266843Y-76282512D01*
X182997048Y-75878735D01*
X182593271Y-75608940D01*
X182116983Y-75514200D01*
X182068217Y-75514200D01*
X181591929Y-75608940D01*
X181188152Y-75878735D01*
X180918357Y-76282512D01*
X180823617Y-76758800D01*
X180821583Y-76758800D01*
X180726843Y-76282512D01*
X180457048Y-75878735D01*
X180053271Y-75608940D01*
X179576983Y-75514200D01*
X179528217Y-75514200D01*
X179051929Y-75608940D01*
X178648152Y-75878735D01*
X178378357Y-76282512D01*
X178283617Y-76758800D01*
X178281583Y-76758800D01*
X178186843Y-76282512D01*
X177917048Y-75878735D01*
X177513271Y-75608940D01*
X177036983Y-75514200D01*
X176988217Y-75514200D01*
X176511929Y-75608940D01*
X176108152Y-75878735D01*
X175838357Y-76282512D01*
X175743617Y-76758800D01*
X175741583Y-76758800D01*
X175646843Y-76282512D01*
X175377048Y-75878735D01*
X174973271Y-75608940D01*
X174496983Y-75514200D01*
X174448217Y-75514200D01*
X173971929Y-75608940D01*
X173568152Y-75878735D01*
X173298357Y-76282512D01*
X173203617Y-76758800D01*
X173201583Y-76758800D01*
X173106843Y-76282512D01*
X172837048Y-75878735D01*
X172433271Y-75608940D01*
X171956983Y-75514200D01*
X171908217Y-75514200D01*
X171431929Y-75608940D01*
X171028152Y-75878735D01*
X170758357Y-76282512D01*
X170663617Y-76758800D01*
X170661583Y-76758800D01*
X170566843Y-76282512D01*
X170297048Y-75878735D01*
X169893271Y-75608940D01*
X169416983Y-75514200D01*
X169368217Y-75514200D01*
X168891929Y-75608940D01*
X168488152Y-75878735D01*
X168218357Y-76282512D01*
X168123617Y-76758800D01*
X168121583Y-76758800D01*
X168026843Y-76282512D01*
X167757048Y-75878735D01*
X167353271Y-75608940D01*
X166876983Y-75514200D01*
X166828217Y-75514200D01*
X166351929Y-75608940D01*
X165948152Y-75878735D01*
X165678357Y-76282512D01*
X165583617Y-76758800D01*
X165581583Y-76758800D01*
X165486843Y-76282512D01*
X165217048Y-75878735D01*
X164813271Y-75608940D01*
X164336983Y-75514200D01*
X164288217Y-75514200D01*
X163811929Y-75608940D01*
X163408152Y-75878735D01*
X163138357Y-76282512D01*
X163043617Y-76758800D01*
X163138357Y-77235088D01*
X163408152Y-77638865D01*
X163583756Y-77756200D01*
X163554043Y-77785861D01*
X162457053Y-77785861D01*
X162677048Y-77638865D01*
X162946843Y-77235088D01*
X163041583Y-76758800D01*
X162946843Y-76282512D01*
X162677048Y-75878735D01*
X162273271Y-75608940D01*
X161796983Y-75514200D01*
X161748217Y-75514200D01*
X161271929Y-75608940D01*
X160868152Y-75878735D01*
X160598357Y-76282512D01*
X160503617Y-76758800D01*
X160598357Y-77235088D01*
X160868152Y-77638865D01*
X161088147Y-77785861D01*
X159917053Y-77785861D01*
X160137048Y-77638865D01*
X160406843Y-77235088D01*
X160501583Y-76758800D01*
X160406843Y-76282512D01*
X160137048Y-75878735D01*
X159733271Y-75608940D01*
X159256983Y-75514200D01*
X159208217Y-75514200D01*
X158731929Y-75608940D01*
X158409325Y-75824497D01*
X158382611Y-75784517D01*
X158382608Y-75784515D01*
X157698681Y-75100587D01*
X157627622Y-75053108D01*
X157866843Y-74695088D01*
X157961583Y-74218800D01*
X157866843Y-73742512D01*
X157728989Y-73536199D01*
X158196211Y-73536199D01*
X158058357Y-73742512D01*
X157963617Y-74218800D01*
X158058357Y-74695088D01*
X158328152Y-75098865D01*
X158731929Y-75368660D01*
X159208217Y-75463400D01*
X159256983Y-75463400D01*
X159733271Y-75368660D01*
X160137048Y-75098865D01*
X160406843Y-74695088D01*
X160501583Y-74218800D01*
X160406843Y-73742512D01*
X160268989Y-73536199D01*
X160736211Y-73536199D01*
X160598357Y-73742512D01*
X160503617Y-74218800D01*
X160598357Y-74695088D01*
X160868152Y-75098865D01*
X161271929Y-75368660D01*
X161748217Y-75463400D01*
X161796983Y-75463400D01*
X162273271Y-75368660D01*
X162677048Y-75098865D01*
X162946843Y-74695088D01*
X163041583Y-74218800D01*
X162946843Y-73742512D01*
X162808989Y-73536199D01*
X162821775Y-73536199D01*
X163120062Y-73834486D01*
X163043617Y-74218800D01*
X163138357Y-74695088D01*
X163408152Y-75098865D01*
X163811929Y-75368660D01*
X164288217Y-75463400D01*
X164336983Y-75463400D01*
X164813271Y-75368660D01*
X165217048Y-75098865D01*
X165486843Y-74695088D01*
X165581583Y-74218800D01*
X165583617Y-74218800D01*
X165678357Y-74695088D01*
X165948152Y-75098865D01*
X166351929Y-75368660D01*
X166828217Y-75463400D01*
X166876983Y-75463400D01*
X167353271Y-75368660D01*
X167757048Y-75098865D01*
X168026843Y-74695088D01*
X168121583Y-74218800D01*
X168123617Y-74218800D01*
X168218357Y-74695088D01*
X168488152Y-75098865D01*
X168891929Y-75368660D01*
X169368217Y-75463400D01*
X169416983Y-75463400D01*
X169893271Y-75368660D01*
X170297048Y-75098865D01*
X170566843Y-74695088D01*
X170661583Y-74218800D01*
X170663617Y-74218800D01*
X170758357Y-74695088D01*
X171028152Y-75098865D01*
X171431929Y-75368660D01*
X171908217Y-75463400D01*
X171956983Y-75463400D01*
X172433271Y-75368660D01*
X172837048Y-75098865D01*
X173106843Y-74695088D01*
X173201583Y-74218800D01*
X173203617Y-74218800D01*
X173298357Y-74695088D01*
X173568152Y-75098865D01*
X173971929Y-75368660D01*
X174448217Y-75463400D01*
X174496983Y-75463400D01*
X174973271Y-75368660D01*
X175377048Y-75098865D01*
X175646843Y-74695088D01*
X175741583Y-74218800D01*
X175743617Y-74218800D01*
X175838357Y-74695088D01*
X176108152Y-75098865D01*
X176511929Y-75368660D01*
X176988217Y-75463400D01*
X177036983Y-75463400D01*
X177513271Y-75368660D01*
X177917048Y-75098865D01*
X178186843Y-74695088D01*
X178281583Y-74218800D01*
X178283617Y-74218800D01*
X178378357Y-74695088D01*
X178648152Y-75098865D01*
X179051929Y-75368660D01*
X179528217Y-75463400D01*
X179576983Y-75463400D01*
X180053271Y-75368660D01*
X180457048Y-75098865D01*
X180726843Y-74695088D01*
X180821583Y-74218800D01*
X180823617Y-74218800D01*
X180918357Y-74695088D01*
X181188152Y-75098865D01*
X181591929Y-75368660D01*
X182068217Y-75463400D01*
X182116983Y-75463400D01*
X182593271Y-75368660D01*
X182997048Y-75098865D01*
X183266843Y-74695088D01*
X183361583Y-74218800D01*
X183363617Y-74218800D01*
X183458357Y-74695088D01*
X183728152Y-75098865D01*
X184131929Y-75368660D01*
X184608217Y-75463400D01*
X184656983Y-75463400D01*
X185133271Y-75368660D01*
X185537048Y-75098865D01*
X185806843Y-74695088D01*
X185901583Y-74218800D01*
X185806843Y-73742512D01*
X185537048Y-73338735D01*
X185133271Y-73068940D01*
X184656983Y-72974200D01*
X184608217Y-72974200D01*
X184131929Y-73068940D01*
X183728152Y-73338735D01*
X183458357Y-73742512D01*
X183363617Y-74218800D01*
X183361583Y-74218800D01*
X183266843Y-73742512D01*
X182997048Y-73338735D01*
X182593271Y-73068940D01*
X182116983Y-72974200D01*
X182068217Y-72974200D01*
X181591929Y-73068940D01*
X181188152Y-73338735D01*
X180918357Y-73742512D01*
X180823617Y-74218800D01*
X180821583Y-74218800D01*
X180726843Y-73742512D01*
X180457048Y-73338735D01*
X180053271Y-73068940D01*
X179576983Y-72974200D01*
X179528217Y-72974200D01*
X179051929Y-73068940D01*
X178648152Y-73338735D01*
X178378357Y-73742512D01*
X178283617Y-74218800D01*
X178281583Y-74218800D01*
X178186843Y-73742512D01*
X177917048Y-73338735D01*
X177513271Y-73068940D01*
X177036983Y-72974200D01*
X176988217Y-72974200D01*
X176511929Y-73068940D01*
X176108152Y-73338735D01*
X175838357Y-73742512D01*
X175743617Y-74218800D01*
X175741583Y-74218800D01*
X175646843Y-73742512D01*
X175377048Y-73338735D01*
X174973271Y-73068940D01*
X174496983Y-72974200D01*
X174448217Y-72974200D01*
X173971929Y-73068940D01*
X173568152Y-73338735D01*
X173298357Y-73742512D01*
X173203617Y-74218800D01*
X173201583Y-74218800D01*
X173106843Y-73742512D01*
X172837048Y-73338735D01*
X172433271Y-73068940D01*
X171956983Y-72974200D01*
X171908217Y-72974200D01*
X171431929Y-73068940D01*
X171028152Y-73338735D01*
X170758357Y-73742512D01*
X170663617Y-74218800D01*
X170661583Y-74218800D01*
X170566843Y-73742512D01*
X170297048Y-73338735D01*
X169893271Y-73068940D01*
X169416983Y-72974200D01*
X169368217Y-72974200D01*
X168891929Y-73068940D01*
X168488152Y-73338735D01*
X168218357Y-73742512D01*
X168123617Y-74218800D01*
X168121583Y-74218800D01*
X168026843Y-73742512D01*
X167757048Y-73338735D01*
X167353271Y-73068940D01*
X166876983Y-72974200D01*
X166828217Y-72974200D01*
X166351929Y-73068940D01*
X165948152Y-73338735D01*
X165678357Y-73742512D01*
X165583617Y-74218800D01*
X165581583Y-74218800D01*
X165486843Y-73742512D01*
X165217048Y-73338735D01*
X164813271Y-73068940D01*
X164336983Y-72974200D01*
X164288217Y-72974200D01*
X163944578Y-73042554D01*
X163462611Y-72560587D01*
X163394289Y-72514936D01*
X163277203Y-72436702D01*
X163240917Y-72429484D01*
X163058499Y-72393198D01*
X163058494Y-72393199D01*
X153550636Y-72393199D01*
X153550631Y-72393198D01*
X153368213Y-72429484D01*
X153331927Y-72436702D01*
X153146519Y-72560587D01*
X153146517Y-72560590D01*
X152494387Y-73212719D01*
X152443170Y-73289371D01*
X152113271Y-73068940D01*
X151636983Y-72974200D01*
X151588217Y-72974200D01*
X151111929Y-73068940D01*
X150708152Y-73338735D01*
X150438357Y-73742512D01*
X150343617Y-74218800D01*
X150438357Y-74695088D01*
X150708152Y-75098865D01*
X151111929Y-75368660D01*
X151588217Y-75463400D01*
X151636983Y-75463400D01*
X152113271Y-75368660D01*
X152326999Y-75225852D01*
X152326999Y-75751748D01*
X152113271Y-75608940D01*
X151636983Y-75514200D01*
X151588217Y-75514200D01*
X151111929Y-75608940D01*
X150708152Y-75878735D01*
X150438357Y-76282512D01*
X150343617Y-76758800D01*
X150438357Y-77235088D01*
X150601958Y-77479934D01*
X150265138Y-77143114D01*
X150341583Y-76758800D01*
X150246843Y-76282512D01*
X149977048Y-75878735D01*
X149573271Y-75608940D01*
X149096983Y-75514200D01*
X149048217Y-75514200D01*
X148571929Y-75608940D01*
X148168152Y-75878735D01*
X147923441Y-76244972D01*
X147815288Y-75983853D01*
X147421090Y-75551979D01*
X147030938Y-75369124D01*
X147033271Y-75368660D01*
X147437048Y-75098865D01*
X147706843Y-74695088D01*
X147801583Y-74218800D01*
X147803617Y-74218800D01*
X147898357Y-74695088D01*
X148168152Y-75098865D01*
X148571929Y-75368660D01*
X149048217Y-75463400D01*
X149096983Y-75463400D01*
X149573271Y-75368660D01*
X149977048Y-75098865D01*
X150246843Y-74695088D01*
X150341583Y-74218800D01*
X150246843Y-73742512D01*
X149977048Y-73338735D01*
X149573271Y-73068940D01*
X149096983Y-72974200D01*
X149048217Y-72974200D01*
X148571929Y-73068940D01*
X148168152Y-73338735D01*
X147898357Y-73742512D01*
X147803617Y-74218800D01*
X147801583Y-74218800D01*
X147706843Y-73742512D01*
X147437048Y-73338735D01*
X147033271Y-73068940D01*
X146556983Y-72974200D01*
X146508217Y-72974200D01*
X146031929Y-73068940D01*
X145628152Y-73338735D01*
X145358357Y-73742512D01*
X145263617Y-74218800D01*
X145358357Y-74695088D01*
X145628152Y-75098865D01*
X146031929Y-75368660D01*
X146034262Y-75369124D01*
X145644110Y-75551979D01*
X145249912Y-75983853D01*
X145141759Y-76244972D01*
X144897048Y-75878735D01*
X144493271Y-75608940D01*
X144016983Y-75514200D01*
X143968217Y-75514200D01*
X143491929Y-75608940D01*
X143088152Y-75878735D01*
X142818357Y-76282512D01*
X142723617Y-76758800D01*
X142818357Y-77235088D01*
X143088152Y-77638865D01*
X143491929Y-77908660D01*
X143968217Y-78003400D01*
X144016983Y-78003400D01*
X144360622Y-77935046D01*
X147296067Y-80870490D01*
X135918510Y-80870490D01*
X135675506Y-80918826D01*
X135469497Y-81056477D01*
X135011077Y-81514897D01*
X134973331Y-81514864D01*
X134686177Y-81633514D01*
X134584583Y-81734930D01*
X134530107Y-81461062D01*
X134317575Y-81142984D01*
X133999497Y-80930452D01*
X133624299Y-80855820D01*
X133075701Y-80855820D01*
X132700503Y-80930452D01*
X132382425Y-81142984D01*
X132169893Y-81461062D01*
X132095261Y-81836260D01*
X132169893Y-82211458D01*
X132382425Y-82529536D01*
X132700503Y-82742068D01*
X133075701Y-82816700D01*
X133624299Y-82816700D01*
X133999497Y-82742068D01*
X134317575Y-82529536D01*
X134355808Y-82472316D01*
X134465514Y-82737823D01*
X134493000Y-82765357D01*
X134493000Y-83404507D01*
X134317575Y-83141964D01*
X133999497Y-82929432D01*
X133624299Y-82854800D01*
X133075701Y-82854800D01*
X132700503Y-82929432D01*
X132382425Y-83141964D01*
X132169893Y-83460042D01*
X132095261Y-83835240D01*
X132169893Y-84210438D01*
X132382425Y-84528516D01*
X132700503Y-84741048D01*
X133075701Y-84815680D01*
X133624299Y-84815680D01*
X133999497Y-84741048D01*
X134317575Y-84528516D01*
X134493000Y-84265973D01*
X134493000Y-85406027D01*
X134317575Y-85143484D01*
X133999497Y-84930952D01*
X133624299Y-84856320D01*
X133075701Y-84856320D01*
X132700503Y-84930952D01*
X132382425Y-85143484D01*
X132169893Y-85461562D01*
X132095261Y-85836760D01*
X132169893Y-86211958D01*
X132382425Y-86530036D01*
X132489080Y-86601300D01*
X132374060Y-86601300D01*
X132140671Y-86697973D01*
X131962043Y-86876602D01*
X131865370Y-87109991D01*
X131064000Y-87109991D01*
X131064000Y-80425426D01*
X135120536Y-76368890D01*
X135120536Y-77622400D01*
X135147103Y-77763590D01*
X135230546Y-77893265D01*
X135357866Y-77980259D01*
X135509000Y-78010864D01*
X137236200Y-78010864D01*
X137377390Y-77984297D01*
X137507065Y-77900854D01*
X137594059Y-77773534D01*
X137624664Y-77622400D01*
X137624664Y-76758800D01*
X137643617Y-76758800D01*
X137738357Y-77235088D01*
X138008152Y-77638865D01*
X138411929Y-77908660D01*
X138888217Y-78003400D01*
X138936983Y-78003400D01*
X139413271Y-77908660D01*
X139817048Y-77638865D01*
X140086843Y-77235088D01*
X140181583Y-76758800D01*
X140086843Y-76282512D01*
X139817048Y-75878735D01*
X139413271Y-75608940D01*
X138936983Y-75514200D01*
X138888217Y-75514200D01*
X138411929Y-75608940D01*
X138008152Y-75878735D01*
X137738357Y-76282512D01*
X137643617Y-76758800D01*
X137624664Y-76758800D01*
X137624664Y-75895200D01*
X137598097Y-75754010D01*
X137514654Y-75624335D01*
X137387334Y-75537341D01*
X137236200Y-75506736D01*
X135982690Y-75506736D01*
X136079481Y-75409945D01*
X136348217Y-75463400D01*
X136396983Y-75463400D01*
X136873271Y-75368660D01*
X137277048Y-75098865D01*
X137546843Y-74695088D01*
X137641583Y-74218800D01*
X137643617Y-74218800D01*
X137738357Y-74695088D01*
X138008152Y-75098865D01*
X138411929Y-75368660D01*
X138888217Y-75463400D01*
X138936983Y-75463400D01*
X139413271Y-75368660D01*
X139817048Y-75098865D01*
X140061759Y-74732628D01*
X140169912Y-74993747D01*
X140564110Y-75425621D01*
X140954262Y-75608476D01*
X140951929Y-75608940D01*
X140548152Y-75878735D01*
X140278357Y-76282512D01*
X140183617Y-76758800D01*
X140278357Y-77235088D01*
X140548152Y-77638865D01*
X140951929Y-77908660D01*
X141428217Y-78003400D01*
X141476983Y-78003400D01*
X141953271Y-77908660D01*
X142357048Y-77638865D01*
X142626843Y-77235088D01*
X142721583Y-76758800D01*
X142626843Y-76282512D01*
X142357048Y-75878735D01*
X141953271Y-75608940D01*
X141950938Y-75608476D01*
X142341090Y-75425621D01*
X142735288Y-74993747D01*
X142843441Y-74732628D01*
X143088152Y-75098865D01*
X143491929Y-75368660D01*
X143968217Y-75463400D01*
X144016983Y-75463400D01*
X144493271Y-75368660D01*
X144897048Y-75098865D01*
X145166843Y-74695088D01*
X145261583Y-74218800D01*
X145166843Y-73742512D01*
X144897048Y-73338735D01*
X144493271Y-73068940D01*
X144016983Y-72974200D01*
X143968217Y-72974200D01*
X143491929Y-73068940D01*
X143088152Y-73338735D01*
X142843441Y-73704972D01*
X142735288Y-73443853D01*
X142341090Y-73011979D01*
X141811627Y-72763832D01*
X141579600Y-72884331D01*
X141579600Y-74091800D01*
X141599600Y-74091800D01*
X141599600Y-74345800D01*
X141579600Y-74345800D01*
X141579600Y-74365800D01*
X141325600Y-74365800D01*
X141325600Y-74345800D01*
X141305600Y-74345800D01*
X141305600Y-74091800D01*
X141325600Y-74091800D01*
X141325600Y-72884331D01*
X141093573Y-72763832D01*
X140564110Y-73011979D01*
X140169912Y-73443853D01*
X140061759Y-73704972D01*
X139817048Y-73338735D01*
X139413271Y-73068940D01*
X138936983Y-72974200D01*
X138888217Y-72974200D01*
X138411929Y-73068940D01*
X138008152Y-73338735D01*
X137738357Y-73742512D01*
X137643617Y-74218800D01*
X137641583Y-74218800D01*
X137546843Y-73742512D01*
X137277048Y-73338735D01*
X136873271Y-73068940D01*
X136396983Y-72974200D01*
X136348217Y-72974200D01*
X135871929Y-73068940D01*
X135468152Y-73338735D01*
X135198357Y-73742512D01*
X135103617Y-74218800D01*
X135165163Y-74528211D01*
X133912756Y-75780618D01*
X133913417Y-75022130D01*
X133546834Y-74134931D01*
X132868639Y-73455551D01*
X131982081Y-73087420D01*
X131022130Y-73086583D01*
X130134931Y-73453166D01*
X129455551Y-74131361D01*
X129087420Y-75017919D01*
X129086583Y-75977870D01*
X128456000Y-75977870D01*
X128456000Y-73044912D01*
X128543723Y-72603897D01*
X128768098Y-72268098D01*
X129103897Y-72043723D01*
X129544913Y-71956000D01*
X191455088Y-71956000D01*
X191896103Y-72043723D01*
G36*
X146659600Y-76631800D02*
X146679600Y-76631800D01*
X146679600Y-76885800D01*
X146659600Y-76885800D01*
X146659600Y-78093269D01*
X146891627Y-78213768D01*
X147421090Y-77965621D01*
X147815288Y-77533747D01*
X147923441Y-77272628D01*
X148168152Y-77638865D01*
X148571929Y-77908660D01*
X149048217Y-78003400D01*
X149096983Y-78003400D01*
X149440622Y-77935046D01*
X151612223Y-80106646D01*
X148148669Y-80106646D01*
X146227688Y-78185664D01*
X146405600Y-78093269D01*
X146405600Y-76885800D01*
X146385600Y-76885800D01*
X146385600Y-76631800D01*
X146405600Y-76631800D01*
X146405600Y-76611800D01*
X146659600Y-76611800D01*
X146659600Y-76631800D01*
X146659600Y-76631800D01*
G37*
X146659600Y-76631800D02*
X146679600Y-76631800D01*
X146679600Y-76885800D01*
X146659600Y-76885800D01*
X146659600Y-78093269D01*
X146891627Y-78213768D01*
X147421090Y-77965621D01*
X147815288Y-77533747D01*
X147923441Y-77272628D01*
X148168152Y-77638865D01*
X148571929Y-77908660D01*
X149048217Y-78003400D01*
X149096983Y-78003400D01*
X149440622Y-77935046D01*
X151612223Y-80106646D01*
X148148669Y-80106646D01*
X146227688Y-78185664D01*
X146405600Y-78093269D01*
X146405600Y-76885800D01*
X146385600Y-76885800D01*
X146385600Y-76631800D01*
X146405600Y-76631800D01*
X146405600Y-76611800D01*
X146659600Y-76611800D01*
X146659600Y-76631800D01*
M02*
