M48
;DRILL file {KiCad 4.0.2+dfsg1-stable} date Mi 10 Jan 2018 14:32:18 CET
;FORMAT={-:-/ absolute / metric / decimal}
FMAT,2
METRIC,TZ
T1C0.600
T2C0.701
T3C0.800
T4C0.899
T5C1.000
T6C1.016
T7C2.750
T8C3.200
%
G90
G05
M71
T1
X132.969Y-104.394
X135.128Y-82.296
X135.128Y-85.979
X140.208Y-106.172
X140.843Y-85.471
X141.097Y-95.631
X142.748Y-90.551
X143.51Y-102.362
X146.558Y-106.426
X148.082Y-96.774
X150.411Y-81.505
X153.035Y-78.613
X153.67Y-101.346
X154.178Y-89.916
X155.463Y-81.266
X157.226Y-85.344
X157.226Y-85.344
X161.544Y-101.6
X164.087Y-78.357
X169.926Y-91.059
X172.085Y-99.06
X172.847Y-98.171
X173.736Y-97.628
X173.826Y-84.443
X175.146Y-97.628
X179.07Y-110.744
X180.848Y-110.744
T2
X133.35Y-81.836
X133.35Y-83.835
X133.35Y-85.837
X133.35Y-87.836
X133.35Y-113.459
X133.35Y-115.458
X133.35Y-117.46
X133.35Y-119.459
X178.943Y-90.472
X178.943Y-92.471
X178.943Y-94.473
X178.943Y-96.472
T3
X155.042Y-96.012
X160.122Y-96.012
T4
X146.352Y-114.935
X147.737Y-117.475
X149.121Y-114.935
X150.508Y-117.475
X151.892Y-114.935
X153.276Y-117.475
X154.663Y-114.935
X156.047Y-117.475
X157.432Y-114.935
T5
X171.831Y-119.253
X174.371Y-119.253
X176.911Y-119.253
X179.451Y-119.253
X181.991Y-119.253
X184.531Y-119.253
X189.484Y-113.157
X189.484Y-115.697
T6
X136.373Y-74.219
X136.373Y-76.759
X136.779Y-106.934
X136.779Y-109.474
X136.906Y-92.71
X136.906Y-95.25
X138.913Y-74.219
X138.913Y-76.759
X141.453Y-74.219
X141.453Y-76.759
X143.993Y-74.219
X143.993Y-76.759
X146.533Y-74.219
X146.533Y-76.759
X149.073Y-74.219
X149.073Y-76.759
X151.613Y-74.219
X151.613Y-76.759
X154.153Y-74.219
X154.153Y-76.759
X156.693Y-74.219
X156.693Y-76.759
X159.233Y-74.219
X159.233Y-76.759
X161.773Y-74.219
X161.773Y-76.759
X164.313Y-74.219
X164.313Y-76.759
X166.853Y-74.219
X166.853Y-76.759
X169.393Y-74.219
X169.393Y-76.759
X171.933Y-74.219
X171.933Y-76.759
X174.473Y-74.219
X174.473Y-76.759
X177.013Y-74.219
X177.013Y-76.759
X179.553Y-74.219
X179.553Y-76.759
X182.093Y-74.219
X182.093Y-76.759
X184.633Y-74.219
X184.633Y-76.759
T7
X131.5Y-75.5
X131.5Y-124.5
X189.5Y-75.5
X189.5Y-124.5
T8
X139.398Y-116.205
X164.386Y-116.205
T0
M30
