G04 #@! TF.FileFunction,Soldermask,Top*
%FSLAX46Y46*%
G04 Gerber Fmt 4.6, Leading zero omitted, Abs format (unit mm)*
G04 Created by KiCad (PCBNEW 4.0.2+dfsg1-stable) date Sa 04 Feb 2017 00:32:55 CET*
%MOMM*%
G01*
G04 APERTURE LIST*
%ADD10C,0.100000*%
%ADD11C,0.150000*%
%ADD12C,1.900000*%
%ADD13C,2.800000*%
%ADD14R,2.800000X2.800000*%
%ADD15C,5.400000*%
%ADD16C,2.150060*%
%ADD17O,1.901140X2.599640*%
%ADD18R,2.127200X2.127200*%
%ADD19O,2.127200X2.127200*%
%ADD20C,1.901140*%
%ADD21R,2.597100X1.924000*%
%ADD22O,2.597100X1.924000*%
%ADD23C,3.400000*%
%ADD24R,2.400000X2.400000*%
%ADD25C,2.400000*%
%ADD26R,2.000000X1.900000*%
%ADD27C,2.100000*%
%ADD28R,2.432000X2.432000*%
%ADD29O,2.432000X2.432000*%
%ADD30R,2.127200X2.432000*%
%ADD31O,2.127200X2.432000*%
%ADD32C,2.899360*%
%ADD33R,2.099260X1.598880*%
%ADD34O,2.099260X1.598880*%
%ADD35R,1.600000X1.600000*%
%ADD36C,1.600000*%
%ADD37C,1.797000*%
G04 APERTURE END LIST*
D10*
D11*
X100000000Y-80000000D02*
G75*
G03X95000000Y-85000000I0J-5000000D01*
G01*
X145000000Y-85000000D02*
G75*
G03X140000000Y-80000000I-5000000J0D01*
G01*
X140000000Y-130000000D02*
G75*
G03X145000000Y-125000000I0J5000000D01*
G01*
X95000000Y-125000000D02*
G75*
G03X100000000Y-130000000I5000000J0D01*
G01*
X95000000Y-85000000D02*
X95000000Y-125000000D01*
X140000000Y-80000000D02*
X100000000Y-80000000D01*
X145000000Y-125000000D02*
X145000000Y-85000000D01*
X100000000Y-130000000D02*
X140000000Y-130000000D01*
D12*
X111252000Y-120904000D03*
D13*
X122936000Y-127254000D03*
D14*
X128016000Y-127254000D03*
D15*
X100000000Y-83500000D03*
X140000000Y-83500000D03*
X140000000Y-123500000D03*
X100000000Y-123500000D03*
D16*
X134797800Y-102133400D03*
X132892800Y-99593400D03*
X130987800Y-102133400D03*
D17*
X127660400Y-109880400D03*
X125120400Y-109880400D03*
X122580400Y-109880400D03*
X120040400Y-109880400D03*
X120040400Y-117500400D03*
X122580400Y-117500400D03*
X125120400Y-117500400D03*
X127660400Y-117500400D03*
D18*
X104279700Y-84721700D03*
D19*
X104279700Y-82181700D03*
X106819700Y-84721700D03*
X106819700Y-82181700D03*
X109359700Y-84721700D03*
X109359700Y-82181700D03*
X111899700Y-84721700D03*
X111899700Y-82181700D03*
D17*
X113411000Y-96647000D03*
X115951000Y-96647000D03*
X118491000Y-96647000D03*
X121031000Y-96647000D03*
X123571000Y-96647000D03*
X126111000Y-96647000D03*
X128651000Y-96647000D03*
X131191000Y-96647000D03*
X131191000Y-89027000D03*
X128651000Y-89027000D03*
X126111000Y-89027000D03*
X123571000Y-89027000D03*
X121031000Y-89027000D03*
X118491000Y-89027000D03*
X115951000Y-89027000D03*
X113411000Y-89027000D03*
D20*
X100482400Y-119837200D03*
X100482400Y-117297200D03*
X130505200Y-116484400D03*
X130505200Y-113944400D03*
X110947200Y-97891600D03*
X108407200Y-97891600D03*
D12*
X127355600Y-122478800D03*
X119735600Y-122478800D03*
X119735600Y-120192800D03*
X127355600Y-120192800D03*
X117678200Y-115189000D03*
X110058200Y-115189000D03*
X108102400Y-115214400D03*
X100482400Y-115214400D03*
X96266000Y-107848400D03*
X96266000Y-115468400D03*
X98501200Y-107848400D03*
X98501200Y-115468400D03*
X103682800Y-108000800D03*
X111302800Y-108000800D03*
X111302800Y-105816400D03*
X103682800Y-105816400D03*
X117729000Y-110617000D03*
X110109000Y-110617000D03*
D18*
X140258800Y-112674400D03*
D19*
X137718800Y-112674400D03*
X140258800Y-110134400D03*
X137718800Y-110134400D03*
X140258800Y-107594400D03*
X137718800Y-107594400D03*
D16*
X137185400Y-102336600D03*
X139090400Y-104876600D03*
X140995400Y-102336600D03*
D12*
X132842000Y-104089200D03*
X132842000Y-111709200D03*
X130860800Y-104089200D03*
X130860800Y-111709200D03*
X100482400Y-112877600D03*
X108102400Y-112877600D03*
X124587000Y-99187000D03*
X124587000Y-106807000D03*
X126746000Y-99187000D03*
X126746000Y-106807000D03*
X128905000Y-99187000D03*
X128905000Y-106807000D03*
X134823200Y-104089200D03*
X134823200Y-111709200D03*
X124968000Y-81483200D03*
X132588000Y-81483200D03*
D21*
X143357600Y-102819200D03*
D22*
X143357600Y-105359200D03*
X143357600Y-107899200D03*
X143357600Y-110439200D03*
X143357600Y-112979200D03*
X143357600Y-115519200D03*
X143357600Y-118059200D03*
X143357600Y-120599200D03*
D23*
X107744000Y-128240800D03*
X113744000Y-118240800D03*
D12*
X117094000Y-123240800D03*
X104394000Y-123240800D03*
D20*
X101346000Y-97942400D03*
X101346000Y-100482400D03*
X101346000Y-105562400D03*
X101346000Y-103022400D03*
D12*
X117729000Y-112903000D03*
X110109000Y-112903000D03*
D24*
X111099600Y-100380800D03*
D25*
X111099600Y-102920800D03*
D26*
X124256800Y-86055200D03*
D27*
X126796800Y-86258400D03*
X129336800Y-86055200D03*
X131876800Y-86258400D03*
X134416800Y-86055200D03*
X136956800Y-86258400D03*
D28*
X96520000Y-120497600D03*
D29*
X96520000Y-117957600D03*
D13*
X98032800Y-89690000D03*
D14*
X98032800Y-93190000D03*
D16*
X104876600Y-103784400D03*
X107416600Y-101879400D03*
X104876600Y-99974400D03*
D12*
X108102400Y-110617000D03*
X100482400Y-110617000D03*
X106603800Y-87655400D03*
X106603800Y-95275400D03*
X104368600Y-87680800D03*
X104368600Y-95300800D03*
X108813600Y-87630000D03*
X108813600Y-95250000D03*
X110998000Y-87655400D03*
X110998000Y-95275400D03*
X102158800Y-95300800D03*
X102158800Y-87680800D03*
D30*
X138023600Y-99771200D03*
D31*
X140563600Y-99771200D03*
X143103600Y-99771200D03*
D32*
X138176000Y-119735600D03*
X134366000Y-119735600D03*
X130556000Y-119735600D03*
X97739200Y-105562400D03*
X97739200Y-101752400D03*
X97739200Y-97942400D03*
D17*
X114554000Y-107188000D03*
X117094000Y-107188000D03*
X119634000Y-107188000D03*
X122174000Y-107188000D03*
X122174000Y-99568000D03*
X119634000Y-99568000D03*
X117094000Y-99568000D03*
X114554000Y-99568000D03*
D33*
X143002000Y-89895680D03*
D34*
X143002000Y-93898720D03*
X143002000Y-91897200D03*
X143002000Y-95897700D03*
D35*
X134010400Y-115812000D03*
D36*
X134010400Y-114312000D03*
D33*
X135559800Y-89844880D03*
D34*
X135559800Y-93847920D03*
X135559800Y-91846400D03*
X135559800Y-95846900D03*
D37*
X122047000Y-81292700D03*
X122047000Y-86372700D03*
X114427000Y-81292700D03*
X114427000Y-86372700D03*
D28*
X140411200Y-115925600D03*
D29*
X137871200Y-115925600D03*
D12*
X128524000Y-83667600D03*
X136144000Y-83667600D03*
X111252000Y-125476000D03*
M02*
