G04 #@! TF.FileFunction,Soldermask,Bot*
%FSLAX46Y46*%
G04 Gerber Fmt 4.6, Leading zero omitted, Abs format (unit mm)*
G04 Created by KiCad (PCBNEW 4.0.2+dfsg1-stable) date Sa 04 Feb 2017 00:06:23 CET*
%MOMM*%
G01*
G04 APERTURE LIST*
%ADD10C,1.000000*%
%ADD11C,0.150000*%
%ADD12C,0.300000*%
%ADD13C,0.400000*%
%ADD14C,1.900000*%
%ADD15C,2.800000*%
%ADD16R,2.800000X2.800000*%
%ADD17C,5.400000*%
%ADD18C,2.150060*%
%ADD19O,1.901140X2.599640*%
%ADD20R,2.127200X2.127200*%
%ADD21O,2.127200X2.127200*%
%ADD22C,1.901140*%
%ADD23R,2.597100X1.924000*%
%ADD24O,2.597100X1.924000*%
%ADD25C,3.400000*%
%ADD26R,2.400000X2.400000*%
%ADD27C,2.400000*%
%ADD28R,2.000000X1.900000*%
%ADD29C,2.100000*%
%ADD30R,2.432000X2.432000*%
%ADD31O,2.432000X2.432000*%
%ADD32R,2.127200X2.432000*%
%ADD33O,2.127200X2.432000*%
%ADD34C,2.899360*%
%ADD35R,2.099260X1.598880*%
%ADD36O,2.099260X1.598880*%
%ADD37R,1.600000X1.600000*%
%ADD38C,1.600000*%
%ADD39C,1.797000*%
G04 APERTURE END LIST*
D10*
D11*
X177002200Y-166007200D02*
X177002200Y-198007200D01*
X285002200Y-198007200D01*
X285002200Y-166007200D01*
X177002200Y-166007200D01*
D10*
D11*
X10000000Y-10000000D02*
X10000000Y-200007200D01*
X287002200Y-200007200D01*
X287002200Y-10000000D01*
X10000000Y-10000000D01*
D10*
D11*
X12000000Y-12000000D02*
X12000000Y-198007200D01*
X285002200Y-198007200D01*
X285002200Y-12000000D01*
X12000000Y-12000000D01*
D10*
D11*
X60000000Y-12000000D02*
X60000000Y-10000000D01*
D10*
D11*
X110000000Y-12000000D02*
X110000000Y-10000000D01*
D10*
D11*
X160000000Y-12000000D02*
X160000000Y-10000000D01*
D10*
D11*
X210000000Y-12000000D02*
X210000000Y-10000000D01*
D10*
D11*
X260000000Y-12000000D02*
X260000000Y-10000000D01*
D10*
D11*
X35990476Y-11588095D02*
X35247619Y-11588095D01*
X35619048Y-11588095D02*
X35619048Y-10288095D01*
X35495238Y-10473810D01*
X35371429Y-10597619D01*
X35247619Y-10659524D01*
D10*
D11*
X85247619Y-10411905D02*
X85309524Y-10350000D01*
X85433333Y-10288095D01*
X85742857Y-10288095D01*
X85866667Y-10350000D01*
X85928571Y-10411905D01*
X85990476Y-10535714D01*
X85990476Y-10659524D01*
X85928571Y-10845238D01*
X85185714Y-11588095D01*
X85990476Y-11588095D01*
D10*
D11*
X135185714Y-10288095D02*
X135990476Y-10288095D01*
X135557143Y-10783333D01*
X135742857Y-10783333D01*
X135866667Y-10845238D01*
X135928571Y-10907143D01*
X135990476Y-11030952D01*
X135990476Y-11340476D01*
X135928571Y-11464286D01*
X135866667Y-11526190D01*
X135742857Y-11588095D01*
X135371429Y-11588095D01*
X135247619Y-11526190D01*
X135185714Y-11464286D01*
D10*
D11*
X185866667Y-10721429D02*
X185866667Y-11588095D01*
X185557143Y-10226190D02*
X185247619Y-11154762D01*
X186052381Y-11154762D01*
D10*
D11*
X235928571Y-10288095D02*
X235309524Y-10288095D01*
X235247619Y-10907143D01*
X235309524Y-10845238D01*
X235433333Y-10783333D01*
X235742857Y-10783333D01*
X235866667Y-10845238D01*
X235928571Y-10907143D01*
X235990476Y-11030952D01*
X235990476Y-11340476D01*
X235928571Y-11464286D01*
X235866667Y-11526190D01*
X235742857Y-11588095D01*
X235433333Y-11588095D01*
X235309524Y-11526190D01*
X235247619Y-11464286D01*
D10*
D11*
X285866667Y-10288095D02*
X285619048Y-10288095D01*
X285495238Y-10350000D01*
X285433333Y-10411905D01*
X285309524Y-10597619D01*
X285247619Y-10845238D01*
X285247619Y-11340476D01*
X285309524Y-11464286D01*
X285371429Y-11526190D01*
X285495238Y-11588095D01*
X285742857Y-11588095D01*
X285866667Y-11526190D01*
X285928571Y-11464286D01*
X285990476Y-11340476D01*
X285990476Y-11030952D01*
X285928571Y-10907143D01*
X285866667Y-10845238D01*
X285742857Y-10783333D01*
X285495238Y-10783333D01*
X285371429Y-10845238D01*
X285309524Y-10907143D01*
X285247619Y-11030952D01*
D10*
D11*
X60000000Y-198007200D02*
X60000000Y-200007200D01*
D10*
D11*
X110000000Y-198007200D02*
X110000000Y-200007200D01*
D10*
D11*
X160000000Y-198007200D02*
X160000000Y-200007200D01*
D10*
D11*
X210000000Y-198007200D02*
X210000000Y-200007200D01*
D10*
D11*
X260000000Y-198007200D02*
X260000000Y-200007200D01*
D10*
D11*
X35990476Y-199595295D02*
X35247619Y-199595295D01*
X35619048Y-199595295D02*
X35619048Y-198295295D01*
X35495238Y-198481010D01*
X35371429Y-198604819D01*
X35247619Y-198666724D01*
D10*
D11*
X85247619Y-198419105D02*
X85309524Y-198357200D01*
X85433333Y-198295295D01*
X85742857Y-198295295D01*
X85866667Y-198357200D01*
X85928571Y-198419105D01*
X85990476Y-198542914D01*
X85990476Y-198666724D01*
X85928571Y-198852438D01*
X85185714Y-199595295D01*
X85990476Y-199595295D01*
D10*
D11*
X135185714Y-198295295D02*
X135990476Y-198295295D01*
X135557143Y-198790533D01*
X135742857Y-198790533D01*
X135866667Y-198852438D01*
X135928571Y-198914343D01*
X135990476Y-199038152D01*
X135990476Y-199347676D01*
X135928571Y-199471486D01*
X135866667Y-199533390D01*
X135742857Y-199595295D01*
X135371429Y-199595295D01*
X135247619Y-199533390D01*
X135185714Y-199471486D01*
D10*
D11*
X185866667Y-198728629D02*
X185866667Y-199595295D01*
X185557143Y-198233390D02*
X185247619Y-199161962D01*
X186052381Y-199161962D01*
D10*
D11*
X235928571Y-198295295D02*
X235309524Y-198295295D01*
X235247619Y-198914343D01*
X235309524Y-198852438D01*
X235433333Y-198790533D01*
X235742857Y-198790533D01*
X235866667Y-198852438D01*
X235928571Y-198914343D01*
X235990476Y-199038152D01*
X235990476Y-199347676D01*
X235928571Y-199471486D01*
X235866667Y-199533390D01*
X235742857Y-199595295D01*
X235433333Y-199595295D01*
X235309524Y-199533390D01*
X235247619Y-199471486D01*
D10*
D11*
X285866667Y-198295295D02*
X285619048Y-198295295D01*
X285495238Y-198357200D01*
X285433333Y-198419105D01*
X285309524Y-198604819D01*
X285247619Y-198852438D01*
X285247619Y-199347676D01*
X285309524Y-199471486D01*
X285371429Y-199533390D01*
X285495238Y-199595295D01*
X285742857Y-199595295D01*
X285866667Y-199533390D01*
X285928571Y-199471486D01*
X285990476Y-199347676D01*
X285990476Y-199038152D01*
X285928571Y-198914343D01*
X285866667Y-198852438D01*
X285742857Y-198790533D01*
X285495238Y-198790533D01*
X285371429Y-198852438D01*
X285309524Y-198914343D01*
X285247619Y-199038152D01*
D10*
D11*
X10000000Y-60000000D02*
X12000000Y-60000000D01*
D10*
D11*
X10000000Y-110000000D02*
X12000000Y-110000000D01*
D10*
D11*
X10000000Y-160000000D02*
X12000000Y-160000000D01*
D10*
D11*
X10690476Y-35216667D02*
X11309524Y-35216667D01*
X10566667Y-35588095D02*
X11000000Y-34288095D01*
X11433333Y-35588095D01*
D10*
D11*
X11092857Y-84907143D02*
X11278571Y-84969048D01*
X11340476Y-85030952D01*
X11402381Y-85154762D01*
X11402381Y-85340476D01*
X11340476Y-85464286D01*
X11278571Y-85526190D01*
X11154762Y-85588095D01*
X10659524Y-85588095D01*
X10659524Y-84288095D01*
X11092857Y-84288095D01*
X11216667Y-84350000D01*
X11278571Y-84411905D01*
X11340476Y-84535714D01*
X11340476Y-84659524D01*
X11278571Y-84783333D01*
X11216667Y-84845238D01*
X11092857Y-84907143D01*
X10659524Y-84907143D01*
D10*
D11*
X11402381Y-135464286D02*
X11340476Y-135526190D01*
X11154762Y-135588095D01*
X11030952Y-135588095D01*
X10845238Y-135526190D01*
X10721429Y-135402381D01*
X10659524Y-135278571D01*
X10597619Y-135030952D01*
X10597619Y-134845238D01*
X10659524Y-134597619D01*
X10721429Y-134473810D01*
X10845238Y-134350000D01*
X11030952Y-134288095D01*
X11154762Y-134288095D01*
X11340476Y-134350000D01*
X11402381Y-134411905D01*
D10*
D11*
X10659524Y-185588095D02*
X10659524Y-184288095D01*
X10969048Y-184288095D01*
X11154762Y-184350000D01*
X11278571Y-184473810D01*
X11340476Y-184597619D01*
X11402381Y-184845238D01*
X11402381Y-185030952D01*
X11340476Y-185278571D01*
X11278571Y-185402381D01*
X11154762Y-185526190D01*
X10969048Y-185588095D01*
X10659524Y-185588095D01*
D10*
D11*
X287002200Y-60000000D02*
X285002200Y-60000000D01*
D10*
D11*
X287002200Y-110000000D02*
X285002200Y-110000000D01*
D10*
D11*
X287002200Y-160000000D02*
X285002200Y-160000000D01*
D10*
D11*
X285692676Y-35216667D02*
X286311724Y-35216667D01*
X285568867Y-35588095D02*
X286002200Y-34288095D01*
X286435533Y-35588095D01*
D10*
D11*
X286095057Y-84907143D02*
X286280771Y-84969048D01*
X286342676Y-85030952D01*
X286404581Y-85154762D01*
X286404581Y-85340476D01*
X286342676Y-85464286D01*
X286280771Y-85526190D01*
X286156962Y-85588095D01*
X285661724Y-85588095D01*
X285661724Y-84288095D01*
X286095057Y-84288095D01*
X286218867Y-84350000D01*
X286280771Y-84411905D01*
X286342676Y-84535714D01*
X286342676Y-84659524D01*
X286280771Y-84783333D01*
X286218867Y-84845238D01*
X286095057Y-84907143D01*
X285661724Y-84907143D01*
D10*
D11*
X286404581Y-135464286D02*
X286342676Y-135526190D01*
X286156962Y-135588095D01*
X286033152Y-135588095D01*
X285847438Y-135526190D01*
X285723629Y-135402381D01*
X285661724Y-135278571D01*
X285599819Y-135030952D01*
X285599819Y-134845238D01*
X285661724Y-134597619D01*
X285723629Y-134473810D01*
X285847438Y-134350000D01*
X286033152Y-134288095D01*
X286156962Y-134288095D01*
X286342676Y-134350000D01*
X286404581Y-134411905D01*
D10*
D11*
X285661724Y-185588095D02*
X285661724Y-184288095D01*
X285971248Y-184288095D01*
X286156962Y-184350000D01*
X286280771Y-184473810D01*
X286342676Y-184597619D01*
X286404581Y-184845238D01*
X286404581Y-185030952D01*
X286342676Y-185278571D01*
X286280771Y-185402381D01*
X286156962Y-185526190D01*
X285971248Y-185588095D01*
X285661724Y-185588095D01*
D10*
D11*
X200359343Y-193785771D02*
X200359343Y-192285771D01*
X200716486Y-192285771D01*
X200930771Y-192357200D01*
X201073629Y-192500057D01*
X201145057Y-192642914D01*
X201216486Y-192928629D01*
X201216486Y-193142914D01*
X201145057Y-193428629D01*
X201073629Y-193571486D01*
X200930771Y-193714343D01*
X200716486Y-193785771D01*
X200359343Y-193785771D01*
X202502200Y-193785771D02*
X202502200Y-193000057D01*
X202430771Y-192857200D01*
X202287914Y-192785771D01*
X202002200Y-192785771D01*
X201859343Y-192857200D01*
X202502200Y-193714343D02*
X202359343Y-193785771D01*
X202002200Y-193785771D01*
X201859343Y-193714343D01*
X201787914Y-193571486D01*
X201787914Y-193428629D01*
X201859343Y-193285771D01*
X202002200Y-193214343D01*
X202359343Y-193214343D01*
X202502200Y-193142914D01*
X203002200Y-192785771D02*
X203573629Y-192785771D01*
X203216486Y-192285771D02*
X203216486Y-193571486D01*
X203287914Y-193714343D01*
X203430772Y-193785771D01*
X203573629Y-193785771D01*
X204645057Y-193714343D02*
X204502200Y-193785771D01*
X204216486Y-193785771D01*
X204073629Y-193714343D01*
X204002200Y-193571486D01*
X204002200Y-193000057D01*
X204073629Y-192857200D01*
X204216486Y-192785771D01*
X204502200Y-192785771D01*
X204645057Y-192857200D01*
X204716486Y-193000057D01*
X204716486Y-193142914D01*
X204002200Y-193285771D01*
X205359343Y-193642914D02*
X205430771Y-193714343D01*
X205359343Y-193785771D01*
X205287914Y-193714343D01*
X205359343Y-193642914D01*
X205359343Y-193785771D01*
X205359343Y-192857200D02*
X205430771Y-192928629D01*
X205359343Y-193000057D01*
X205287914Y-192928629D01*
X205359343Y-192857200D01*
X205359343Y-193000057D01*
D10*
D11*
X177002200Y-194507200D02*
X285002200Y-194507200D01*
D10*
D11*
X178359343Y-196585771D02*
X178359343Y-195085771D01*
X179216486Y-196585771D02*
X178573629Y-195728629D01*
X179216486Y-195085771D02*
X178359343Y-195942914D01*
X179859343Y-196585771D02*
X179859343Y-195585771D01*
X179859343Y-195085771D02*
X179787914Y-195157200D01*
X179859343Y-195228629D01*
X179930771Y-195157200D01*
X179859343Y-195085771D01*
X179859343Y-195228629D01*
X181430772Y-196442914D02*
X181359343Y-196514343D01*
X181145057Y-196585771D01*
X181002200Y-196585771D01*
X180787915Y-196514343D01*
X180645057Y-196371486D01*
X180573629Y-196228629D01*
X180502200Y-195942914D01*
X180502200Y-195728629D01*
X180573629Y-195442914D01*
X180645057Y-195300057D01*
X180787915Y-195157200D01*
X181002200Y-195085771D01*
X181145057Y-195085771D01*
X181359343Y-195157200D01*
X181430772Y-195228629D01*
X182716486Y-196585771D02*
X182716486Y-195800057D01*
X182645057Y-195657200D01*
X182502200Y-195585771D01*
X182216486Y-195585771D01*
X182073629Y-195657200D01*
X182716486Y-196514343D02*
X182573629Y-196585771D01*
X182216486Y-196585771D01*
X182073629Y-196514343D01*
X182002200Y-196371486D01*
X182002200Y-196228629D01*
X182073629Y-196085771D01*
X182216486Y-196014343D01*
X182573629Y-196014343D01*
X182716486Y-195942914D01*
X184073629Y-196585771D02*
X184073629Y-195085771D01*
X184073629Y-196514343D02*
X183930772Y-196585771D01*
X183645058Y-196585771D01*
X183502200Y-196514343D01*
X183430772Y-196442914D01*
X183359343Y-196300057D01*
X183359343Y-195871486D01*
X183430772Y-195728629D01*
X183502200Y-195657200D01*
X183645058Y-195585771D01*
X183930772Y-195585771D01*
X184073629Y-195657200D01*
X185930772Y-195800057D02*
X186430772Y-195800057D01*
X186645058Y-196585771D02*
X185930772Y-196585771D01*
X185930772Y-195085771D01*
X186645058Y-195085771D01*
X187287915Y-196442914D02*
X187359343Y-196514343D01*
X187287915Y-196585771D01*
X187216486Y-196514343D01*
X187287915Y-196442914D01*
X187287915Y-196585771D01*
X188002201Y-196585771D02*
X188002201Y-195085771D01*
X188359344Y-195085771D01*
X188573629Y-195157200D01*
X188716487Y-195300057D01*
X188787915Y-195442914D01*
X188859344Y-195728629D01*
X188859344Y-195942914D01*
X188787915Y-196228629D01*
X188716487Y-196371486D01*
X188573629Y-196514343D01*
X188359344Y-196585771D01*
X188002201Y-196585771D01*
X189502201Y-196442914D02*
X189573629Y-196514343D01*
X189502201Y-196585771D01*
X189430772Y-196514343D01*
X189502201Y-196442914D01*
X189502201Y-196585771D01*
X190145058Y-196157200D02*
X190859344Y-196157200D01*
X190002201Y-196585771D02*
X190502201Y-195085771D01*
X191002201Y-196585771D01*
X191502201Y-196442914D02*
X191573629Y-196514343D01*
X191502201Y-196585771D01*
X191430772Y-196514343D01*
X191502201Y-196442914D01*
X191502201Y-196585771D01*
X194502201Y-196585771D02*
X194502201Y-195085771D01*
X194645058Y-196014343D02*
X195073629Y-196585771D01*
X195073629Y-195585771D02*
X194502201Y-196157200D01*
X195716487Y-196585771D02*
X195716487Y-195585771D01*
X195716487Y-195085771D02*
X195645058Y-195157200D01*
X195716487Y-195228629D01*
X195787915Y-195157200D01*
X195716487Y-195085771D01*
X195716487Y-195228629D01*
X197073630Y-196514343D02*
X196930773Y-196585771D01*
X196645059Y-196585771D01*
X196502201Y-196514343D01*
X196430773Y-196442914D01*
X196359344Y-196300057D01*
X196359344Y-195871486D01*
X196430773Y-195728629D01*
X196502201Y-195657200D01*
X196645059Y-195585771D01*
X196930773Y-195585771D01*
X197073630Y-195657200D01*
X198359344Y-196585771D02*
X198359344Y-195800057D01*
X198287915Y-195657200D01*
X198145058Y-195585771D01*
X197859344Y-195585771D01*
X197716487Y-195657200D01*
X198359344Y-196514343D02*
X198216487Y-196585771D01*
X197859344Y-196585771D01*
X197716487Y-196514343D01*
X197645058Y-196371486D01*
X197645058Y-196228629D01*
X197716487Y-196085771D01*
X197859344Y-196014343D01*
X198216487Y-196014343D01*
X198359344Y-195942914D01*
X199716487Y-196585771D02*
X199716487Y-195085771D01*
X199716487Y-196514343D02*
X199573630Y-196585771D01*
X199287916Y-196585771D01*
X199145058Y-196514343D01*
X199073630Y-196442914D01*
X199002201Y-196300057D01*
X199002201Y-195871486D01*
X199073630Y-195728629D01*
X199145058Y-195657200D01*
X199287916Y-195585771D01*
X199573630Y-195585771D01*
X199716487Y-195657200D01*
X202216487Y-195585771D02*
X202216487Y-196585771D01*
X201859344Y-195014343D02*
X201502201Y-196085771D01*
X202430773Y-196085771D01*
X203002201Y-196442914D02*
X203073629Y-196514343D01*
X203002201Y-196585771D01*
X202930772Y-196514343D01*
X203002201Y-196442914D01*
X203002201Y-196585771D01*
X204002201Y-195085771D02*
X204145058Y-195085771D01*
X204287915Y-195157200D01*
X204359344Y-195228629D01*
X204430773Y-195371486D01*
X204502201Y-195657200D01*
X204502201Y-196014343D01*
X204430773Y-196300057D01*
X204359344Y-196442914D01*
X204287915Y-196514343D01*
X204145058Y-196585771D01*
X204002201Y-196585771D01*
X203859344Y-196514343D01*
X203787915Y-196442914D01*
X203716487Y-196300057D01*
X203645058Y-196014343D01*
X203645058Y-195657200D01*
X203716487Y-195371486D01*
X203787915Y-195228629D01*
X203859344Y-195157200D01*
X204002201Y-195085771D01*
X205145058Y-196442914D02*
X205216486Y-196514343D01*
X205145058Y-196585771D01*
X205073629Y-196514343D01*
X205145058Y-196442914D01*
X205145058Y-196585771D01*
X205787915Y-195228629D02*
X205859344Y-195157200D01*
X206002201Y-195085771D01*
X206359344Y-195085771D01*
X206502201Y-195157200D01*
X206573630Y-195228629D01*
X206645058Y-195371486D01*
X206645058Y-195514343D01*
X206573630Y-195728629D01*
X205716487Y-196585771D01*
X206645058Y-196585771D01*
X207287915Y-196014343D02*
X208430772Y-196014343D01*
X207859343Y-196585771D02*
X207859343Y-195442914D01*
X209787915Y-196585771D02*
X209787915Y-195085771D01*
X209787915Y-196514343D02*
X209645058Y-196585771D01*
X209359344Y-196585771D01*
X209216486Y-196514343D01*
X209145058Y-196442914D01*
X209073629Y-196300057D01*
X209073629Y-195871486D01*
X209145058Y-195728629D01*
X209216486Y-195657200D01*
X209359344Y-195585771D01*
X209645058Y-195585771D01*
X209787915Y-195657200D01*
X210287915Y-195585771D02*
X210859344Y-195585771D01*
X210502201Y-196585771D02*
X210502201Y-195300057D01*
X210573629Y-195157200D01*
X210716487Y-195085771D01*
X210859344Y-195085771D01*
X211287915Y-196514343D02*
X211430772Y-196585771D01*
X211716487Y-196585771D01*
X211859344Y-196514343D01*
X211930772Y-196371486D01*
X211930772Y-196300057D01*
X211859344Y-196157200D01*
X211716487Y-196085771D01*
X211502201Y-196085771D01*
X211359344Y-196014343D01*
X211287915Y-195871486D01*
X211287915Y-195800057D01*
X211359344Y-195657200D01*
X211502201Y-195585771D01*
X211716487Y-195585771D01*
X211859344Y-195657200D01*
X213216487Y-195585771D02*
X213216487Y-196800057D01*
X213145058Y-196942914D01*
X213073630Y-197014343D01*
X212930773Y-197085771D01*
X212716487Y-197085771D01*
X212573630Y-197014343D01*
X213216487Y-196514343D02*
X213073630Y-196585771D01*
X212787916Y-196585771D01*
X212645058Y-196514343D01*
X212573630Y-196442914D01*
X212502201Y-196300057D01*
X212502201Y-195871486D01*
X212573630Y-195728629D01*
X212645058Y-195657200D01*
X212787916Y-195585771D01*
X213073630Y-195585771D01*
X213216487Y-195657200D01*
X214716487Y-196585771D02*
X213859344Y-196585771D01*
X214287916Y-196585771D02*
X214287916Y-195085771D01*
X214145059Y-195300057D01*
X214002201Y-195442914D01*
X213859344Y-195514343D01*
X215359344Y-196014343D02*
X216502201Y-196014343D01*
X217145058Y-196514343D02*
X217287915Y-196585771D01*
X217573630Y-196585771D01*
X217716487Y-196514343D01*
X217787915Y-196371486D01*
X217787915Y-196300057D01*
X217716487Y-196157200D01*
X217573630Y-196085771D01*
X217359344Y-196085771D01*
X217216487Y-196014343D01*
X217145058Y-195871486D01*
X217145058Y-195800057D01*
X217216487Y-195657200D01*
X217359344Y-195585771D01*
X217573630Y-195585771D01*
X217716487Y-195657200D01*
X218216487Y-195585771D02*
X218787916Y-195585771D01*
X218430773Y-195085771D02*
X218430773Y-196371486D01*
X218502201Y-196514343D01*
X218645059Y-196585771D01*
X218787916Y-196585771D01*
X219930773Y-196585771D02*
X219930773Y-195800057D01*
X219859344Y-195657200D01*
X219716487Y-195585771D01*
X219430773Y-195585771D01*
X219287916Y-195657200D01*
X219930773Y-196514343D02*
X219787916Y-196585771D01*
X219430773Y-196585771D01*
X219287916Y-196514343D01*
X219216487Y-196371486D01*
X219216487Y-196228629D01*
X219287916Y-196085771D01*
X219430773Y-196014343D01*
X219787916Y-196014343D01*
X219930773Y-195942914D01*
X220645059Y-196585771D02*
X220645059Y-195085771D01*
X220645059Y-195657200D02*
X220787916Y-195585771D01*
X221073630Y-195585771D01*
X221216487Y-195657200D01*
X221287916Y-195728629D01*
X221359345Y-195871486D01*
X221359345Y-196300057D01*
X221287916Y-196442914D01*
X221216487Y-196514343D01*
X221073630Y-196585771D01*
X220787916Y-196585771D01*
X220645059Y-196514343D01*
X222216488Y-196585771D02*
X222073630Y-196514343D01*
X222002202Y-196371486D01*
X222002202Y-195085771D01*
X223359344Y-196514343D02*
X223216487Y-196585771D01*
X222930773Y-196585771D01*
X222787916Y-196514343D01*
X222716487Y-196371486D01*
X222716487Y-195800057D01*
X222787916Y-195657200D01*
X222930773Y-195585771D01*
X223216487Y-195585771D01*
X223359344Y-195657200D01*
X223430773Y-195800057D01*
X223430773Y-195942914D01*
X222716487Y-196085771D01*
D10*
D11*
X177002200Y-191507200D02*
X285002200Y-191507200D01*
D10*
D12*
X264216486Y-193785771D02*
X263716486Y-193071486D01*
X263359343Y-193785771D02*
X263359343Y-192285771D01*
X263930771Y-192285771D01*
X264073629Y-192357200D01*
X264145057Y-192428629D01*
X264216486Y-192571486D01*
X264216486Y-192785771D01*
X264145057Y-192928629D01*
X264073629Y-193000057D01*
X263930771Y-193071486D01*
X263359343Y-193071486D01*
X265430771Y-193714343D02*
X265287914Y-193785771D01*
X265002200Y-193785771D01*
X264859343Y-193714343D01*
X264787914Y-193571486D01*
X264787914Y-193000057D01*
X264859343Y-192857200D01*
X265002200Y-192785771D01*
X265287914Y-192785771D01*
X265430771Y-192857200D01*
X265502200Y-193000057D01*
X265502200Y-193142914D01*
X264787914Y-193285771D01*
X266002200Y-192785771D02*
X266359343Y-193785771D01*
X266716485Y-192785771D01*
X267287914Y-193642914D02*
X267359342Y-193714343D01*
X267287914Y-193785771D01*
X267216485Y-193714343D01*
X267287914Y-193642914D01*
X267287914Y-193785771D01*
X267287914Y-192857200D02*
X267359342Y-192928629D01*
X267287914Y-193000057D01*
X267216485Y-192928629D01*
X267287914Y-192857200D01*
X267287914Y-193000057D01*
D10*
D11*
X178287914Y-193714343D02*
X178502200Y-193785771D01*
X178859343Y-193785771D01*
X179002200Y-193714343D01*
X179073629Y-193642914D01*
X179145057Y-193500057D01*
X179145057Y-193357200D01*
X179073629Y-193214343D01*
X179002200Y-193142914D01*
X178859343Y-193071486D01*
X178573629Y-193000057D01*
X178430771Y-192928629D01*
X178359343Y-192857200D01*
X178287914Y-192714343D01*
X178287914Y-192571486D01*
X178359343Y-192428629D01*
X178430771Y-192357200D01*
X178573629Y-192285771D01*
X178930771Y-192285771D01*
X179145057Y-192357200D01*
X179787914Y-193785771D02*
X179787914Y-192785771D01*
X179787914Y-192285771D02*
X179716485Y-192357200D01*
X179787914Y-192428629D01*
X179859342Y-192357200D01*
X179787914Y-192285771D01*
X179787914Y-192428629D01*
X180359343Y-192785771D02*
X181145057Y-192785771D01*
X180359343Y-193785771D01*
X181145057Y-193785771D01*
X182287914Y-193714343D02*
X182145057Y-193785771D01*
X181859343Y-193785771D01*
X181716486Y-193714343D01*
X181645057Y-193571486D01*
X181645057Y-193000057D01*
X181716486Y-192857200D01*
X181859343Y-192785771D01*
X182145057Y-192785771D01*
X182287914Y-192857200D01*
X182359343Y-193000057D01*
X182359343Y-193142914D01*
X181645057Y-193285771D01*
X183002200Y-193642914D02*
X183073628Y-193714343D01*
X183002200Y-193785771D01*
X182930771Y-193714343D01*
X183002200Y-193642914D01*
X183002200Y-193785771D01*
X183002200Y-192857200D02*
X183073628Y-192928629D01*
X183002200Y-193000057D01*
X182930771Y-192928629D01*
X183002200Y-192857200D01*
X183002200Y-193000057D01*
X184787914Y-193357200D02*
X185502200Y-193357200D01*
X184645057Y-193785771D02*
X185145057Y-192285771D01*
X185645057Y-193785771D01*
X186787914Y-192785771D02*
X186787914Y-193785771D01*
X186430771Y-192214343D02*
X186073628Y-193285771D01*
X187002200Y-193285771D01*
D10*
D11*
X263359343Y-196585771D02*
X263359343Y-195085771D01*
X264716486Y-196585771D02*
X264716486Y-195085771D01*
X264716486Y-196514343D02*
X264573629Y-196585771D01*
X264287915Y-196585771D01*
X264145057Y-196514343D01*
X264073629Y-196442914D01*
X264002200Y-196300057D01*
X264002200Y-195871486D01*
X264073629Y-195728629D01*
X264145057Y-195657200D01*
X264287915Y-195585771D01*
X264573629Y-195585771D01*
X264716486Y-195657200D01*
X265430772Y-196442914D02*
X265502200Y-196514343D01*
X265430772Y-196585771D01*
X265359343Y-196514343D01*
X265430772Y-196442914D01*
X265430772Y-196585771D01*
X265430772Y-195657200D02*
X265502200Y-195728629D01*
X265430772Y-195800057D01*
X265359343Y-195728629D01*
X265430772Y-195657200D01*
X265430772Y-195800057D01*
X268073629Y-196585771D02*
X267216486Y-196585771D01*
X267645058Y-196585771D02*
X267645058Y-195085771D01*
X267502201Y-195300057D01*
X267359343Y-195442914D01*
X267216486Y-195514343D01*
X269787914Y-195014343D02*
X268502200Y-196942914D01*
X271073629Y-196585771D02*
X270216486Y-196585771D01*
X270645058Y-196585771D02*
X270645058Y-195085771D01*
X270502201Y-195300057D01*
X270359343Y-195442914D01*
X270216486Y-195514343D01*
D10*
D11*
X177002200Y-187507200D02*
X285002200Y-187507200D01*
D10*
D13*
X178454581Y-188211962D02*
X179597438Y-188211962D01*
X178776010Y-190211962D02*
X179026010Y-188211962D01*
X180014105Y-190211962D02*
X180180771Y-188878629D01*
X180264105Y-188211962D02*
X180156962Y-188307200D01*
X180240295Y-188402438D01*
X180347439Y-188307200D01*
X180264105Y-188211962D01*
X180240295Y-188402438D01*
X180847438Y-188878629D02*
X181609343Y-188878629D01*
X181216486Y-188211962D02*
X181002200Y-189926248D01*
X181073630Y-190116724D01*
X181252201Y-190211962D01*
X181442677Y-190211962D01*
X182395058Y-190211962D02*
X182216487Y-190116724D01*
X182145057Y-189926248D01*
X182359343Y-188211962D01*
X183930772Y-190116724D02*
X183728391Y-190211962D01*
X183347439Y-190211962D01*
X183168867Y-190116724D01*
X183097438Y-189926248D01*
X183192676Y-189164343D01*
X183311724Y-188973867D01*
X183514105Y-188878629D01*
X183895057Y-188878629D01*
X184073629Y-188973867D01*
X184145057Y-189164343D01*
X184121248Y-189354819D01*
X183145057Y-189545295D01*
X184895057Y-190021486D02*
X184978392Y-190116724D01*
X184871248Y-190211962D01*
X184787915Y-190116724D01*
X184895057Y-190021486D01*
X184871248Y-190211962D01*
X185026010Y-188973867D02*
X185109344Y-189069105D01*
X185002200Y-189164343D01*
X184918867Y-189069105D01*
X185026010Y-188973867D01*
X185002200Y-189164343D01*
D10*
D11*
X178859343Y-185600057D02*
X178359343Y-185600057D01*
X178359343Y-186385771D02*
X178359343Y-184885771D01*
X179073629Y-184885771D01*
X179645057Y-186385771D02*
X179645057Y-185385771D01*
X179645057Y-184885771D02*
X179573628Y-184957200D01*
X179645057Y-185028629D01*
X179716485Y-184957200D01*
X179645057Y-184885771D01*
X179645057Y-185028629D01*
X180573629Y-186385771D02*
X180430771Y-186314343D01*
X180359343Y-186171486D01*
X180359343Y-184885771D01*
X181716485Y-186314343D02*
X181573628Y-186385771D01*
X181287914Y-186385771D01*
X181145057Y-186314343D01*
X181073628Y-186171486D01*
X181073628Y-185600057D01*
X181145057Y-185457200D01*
X181287914Y-185385771D01*
X181573628Y-185385771D01*
X181716485Y-185457200D01*
X181787914Y-185600057D01*
X181787914Y-185742914D01*
X181073628Y-185885771D01*
X182430771Y-186242914D02*
X182502199Y-186314343D01*
X182430771Y-186385771D01*
X182359342Y-186314343D01*
X182430771Y-186242914D01*
X182430771Y-186385771D01*
X182430771Y-185457200D02*
X182502199Y-185528629D01*
X182430771Y-185600057D01*
X182359342Y-185528629D01*
X182430771Y-185457200D01*
X182430771Y-185600057D01*
X184287914Y-186385771D02*
X184287914Y-185385771D01*
X184287914Y-185528629D02*
X184359342Y-185457200D01*
X184502200Y-185385771D01*
X184716485Y-185385771D01*
X184859342Y-185457200D01*
X184930771Y-185600057D01*
X184930771Y-186385771D01*
X184930771Y-185600057D02*
X185002200Y-185457200D01*
X185145057Y-185385771D01*
X185359342Y-185385771D01*
X185502200Y-185457200D01*
X185573628Y-185600057D01*
X185573628Y-186385771D01*
X186073628Y-185385771D02*
X186645057Y-185385771D01*
X186287914Y-186385771D02*
X186287914Y-185100057D01*
X186359342Y-184957200D01*
X186502200Y-184885771D01*
X186645057Y-184885771D01*
X187002200Y-186385771D02*
X187787914Y-185385771D01*
X187002200Y-185385771D02*
X187787914Y-186385771D01*
X188359343Y-185814343D02*
X189502200Y-185814343D01*
X190430772Y-186385771D02*
X190287914Y-186314343D01*
X190216486Y-186171486D01*
X190216486Y-184885771D01*
X191002200Y-186385771D02*
X191002200Y-185385771D01*
X191002200Y-184885771D02*
X190930771Y-184957200D01*
X191002200Y-185028629D01*
X191073628Y-184957200D01*
X191002200Y-184885771D01*
X191002200Y-185028629D01*
X191716486Y-185385771D02*
X191716486Y-186385771D01*
X191716486Y-185528629D02*
X191787914Y-185457200D01*
X191930772Y-185385771D01*
X192145057Y-185385771D01*
X192287914Y-185457200D01*
X192359343Y-185600057D01*
X192359343Y-186385771D01*
X193073629Y-186385771D02*
X193073629Y-184885771D01*
X193216486Y-185814343D02*
X193645057Y-186385771D01*
X193645057Y-185385771D02*
X193073629Y-185957200D01*
X194287915Y-186242914D02*
X194359343Y-186314343D01*
X194287915Y-186385771D01*
X194216486Y-186314343D01*
X194287915Y-186242914D01*
X194287915Y-186385771D01*
X195002201Y-186385771D02*
X195002201Y-184885771D01*
X195145058Y-185814343D02*
X195573629Y-186385771D01*
X195573629Y-185385771D02*
X195002201Y-185957200D01*
X196216487Y-186385771D02*
X196216487Y-185385771D01*
X196216487Y-184885771D02*
X196145058Y-184957200D01*
X196216487Y-185028629D01*
X196287915Y-184957200D01*
X196216487Y-184885771D01*
X196216487Y-185028629D01*
X197573630Y-186314343D02*
X197430773Y-186385771D01*
X197145059Y-186385771D01*
X197002201Y-186314343D01*
X196930773Y-186242914D01*
X196859344Y-186100057D01*
X196859344Y-185671486D01*
X196930773Y-185528629D01*
X197002201Y-185457200D01*
X197145059Y-185385771D01*
X197430773Y-185385771D01*
X197573630Y-185457200D01*
X198859344Y-186385771D02*
X198859344Y-185600057D01*
X198787915Y-185457200D01*
X198645058Y-185385771D01*
X198359344Y-185385771D01*
X198216487Y-185457200D01*
X198859344Y-186314343D02*
X198716487Y-186385771D01*
X198359344Y-186385771D01*
X198216487Y-186314343D01*
X198145058Y-186171486D01*
X198145058Y-186028629D01*
X198216487Y-185885771D01*
X198359344Y-185814343D01*
X198716487Y-185814343D01*
X198859344Y-185742914D01*
X200216487Y-186385771D02*
X200216487Y-184885771D01*
X200216487Y-186314343D02*
X200073630Y-186385771D01*
X199787916Y-186385771D01*
X199645058Y-186314343D01*
X199573630Y-186242914D01*
X199502201Y-186100057D01*
X199502201Y-185671486D01*
X199573630Y-185528629D01*
X199645058Y-185457200D01*
X199787916Y-185385771D01*
X200073630Y-185385771D01*
X200216487Y-185457200D01*
X200573630Y-186528629D02*
X201716487Y-186528629D01*
X202073630Y-185385771D02*
X202073630Y-186885771D01*
X202073630Y-185457200D02*
X202216487Y-185385771D01*
X202502201Y-185385771D01*
X202645058Y-185457200D01*
X202716487Y-185528629D01*
X202787916Y-185671486D01*
X202787916Y-186100057D01*
X202716487Y-186242914D01*
X202645058Y-186314343D01*
X202502201Y-186385771D01*
X202216487Y-186385771D01*
X202073630Y-186314343D01*
X204073630Y-186314343D02*
X203930773Y-186385771D01*
X203645059Y-186385771D01*
X203502201Y-186314343D01*
X203430773Y-186242914D01*
X203359344Y-186100057D01*
X203359344Y-185671486D01*
X203430773Y-185528629D01*
X203502201Y-185457200D01*
X203645059Y-185385771D01*
X203930773Y-185385771D01*
X204073630Y-185457200D01*
X204716487Y-186385771D02*
X204716487Y-184885771D01*
X204716487Y-185457200D02*
X204859344Y-185385771D01*
X205145058Y-185385771D01*
X205287915Y-185457200D01*
X205359344Y-185528629D01*
X205430773Y-185671486D01*
X205430773Y-186100057D01*
X205359344Y-186242914D01*
X205287915Y-186314343D01*
X205145058Y-186385771D01*
X204859344Y-186385771D01*
X204716487Y-186314343D01*
D10*
D11*
X177002200Y-181507200D02*
X285002200Y-181507200D01*
D10*
D11*
X178287914Y-183614343D02*
X178502200Y-183685771D01*
X178859343Y-183685771D01*
X179002200Y-183614343D01*
X179073629Y-183542914D01*
X179145057Y-183400057D01*
X179145057Y-183257200D01*
X179073629Y-183114343D01*
X179002200Y-183042914D01*
X178859343Y-182971486D01*
X178573629Y-182900057D01*
X178430771Y-182828629D01*
X178359343Y-182757200D01*
X178287914Y-182614343D01*
X178287914Y-182471486D01*
X178359343Y-182328629D01*
X178430771Y-182257200D01*
X178573629Y-182185771D01*
X178930771Y-182185771D01*
X179145057Y-182257200D01*
X179787914Y-183685771D02*
X179787914Y-182185771D01*
X180430771Y-183685771D02*
X180430771Y-182900057D01*
X180359342Y-182757200D01*
X180216485Y-182685771D01*
X180002200Y-182685771D01*
X179859342Y-182757200D01*
X179787914Y-182828629D01*
X181716485Y-183614343D02*
X181573628Y-183685771D01*
X181287914Y-183685771D01*
X181145057Y-183614343D01*
X181073628Y-183471486D01*
X181073628Y-182900057D01*
X181145057Y-182757200D01*
X181287914Y-182685771D01*
X181573628Y-182685771D01*
X181716485Y-182757200D01*
X181787914Y-182900057D01*
X181787914Y-183042914D01*
X181073628Y-183185771D01*
X183002199Y-183614343D02*
X182859342Y-183685771D01*
X182573628Y-183685771D01*
X182430771Y-183614343D01*
X182359342Y-183471486D01*
X182359342Y-182900057D01*
X182430771Y-182757200D01*
X182573628Y-182685771D01*
X182859342Y-182685771D01*
X183002199Y-182757200D01*
X183073628Y-182900057D01*
X183073628Y-183042914D01*
X182359342Y-183185771D01*
X183502199Y-182685771D02*
X184073628Y-182685771D01*
X183716485Y-182185771D02*
X183716485Y-183471486D01*
X183787913Y-183614343D01*
X183930771Y-183685771D01*
X184073628Y-183685771D01*
X184573628Y-183542914D02*
X184645056Y-183614343D01*
X184573628Y-183685771D01*
X184502199Y-183614343D01*
X184573628Y-183542914D01*
X184573628Y-183685771D01*
X184573628Y-182757200D02*
X184645056Y-182828629D01*
X184573628Y-182900057D01*
X184502199Y-182828629D01*
X184573628Y-182757200D01*
X184573628Y-182900057D01*
D10*
D11*
X197002200Y-191507200D02*
X197002200Y-194507200D01*
D10*
D11*
X261002200Y-191507200D02*
X261002200Y-198007200D01*
X100000000Y-80000000D02*
G75*
G03X95000000Y-85000000I0J-5000000D01*
G01*
X145000000Y-85000000D02*
G75*
G03X140000000Y-80000000I-5000000J0D01*
G01*
X140000000Y-130000000D02*
G75*
G03X145000000Y-125000000I0J5000000D01*
G01*
X95000000Y-125000000D02*
G75*
G03X100000000Y-130000000I5000000J0D01*
G01*
X95000000Y-85000000D02*
X95000000Y-125000000D01*
X140000000Y-80000000D02*
X100000000Y-80000000D01*
X145000000Y-125000000D02*
X145000000Y-85000000D01*
X100000000Y-130000000D02*
X140000000Y-130000000D01*
D14*
X111252000Y-120904000D03*
D15*
X122936000Y-127254000D03*
D16*
X128016000Y-127254000D03*
D17*
X100000000Y-83500000D03*
X140000000Y-83500000D03*
X140000000Y-123500000D03*
X100000000Y-123500000D03*
D18*
X134797800Y-102133400D03*
X132892800Y-99593400D03*
X130987800Y-102133400D03*
D19*
X127660400Y-109880400D03*
X125120400Y-109880400D03*
X122580400Y-109880400D03*
X120040400Y-109880400D03*
X120040400Y-117500400D03*
X122580400Y-117500400D03*
X125120400Y-117500400D03*
X127660400Y-117500400D03*
D20*
X104279700Y-84721700D03*
D21*
X104279700Y-82181700D03*
X106819700Y-84721700D03*
X106819700Y-82181700D03*
X109359700Y-84721700D03*
X109359700Y-82181700D03*
X111899700Y-84721700D03*
X111899700Y-82181700D03*
D19*
X113411000Y-96647000D03*
X115951000Y-96647000D03*
X118491000Y-96647000D03*
X121031000Y-96647000D03*
X123571000Y-96647000D03*
X126111000Y-96647000D03*
X128651000Y-96647000D03*
X131191000Y-96647000D03*
X131191000Y-89027000D03*
X128651000Y-89027000D03*
X126111000Y-89027000D03*
X123571000Y-89027000D03*
X121031000Y-89027000D03*
X118491000Y-89027000D03*
X115951000Y-89027000D03*
X113411000Y-89027000D03*
D22*
X100482400Y-119837200D03*
X100482400Y-117297200D03*
X130505200Y-116484400D03*
X130505200Y-113944400D03*
X110947200Y-97891600D03*
X108407200Y-97891600D03*
D14*
X127355600Y-122478800D03*
X119735600Y-122478800D03*
X119735600Y-120192800D03*
X127355600Y-120192800D03*
X117678200Y-115189000D03*
X110058200Y-115189000D03*
X108102400Y-115214400D03*
X100482400Y-115214400D03*
X96266000Y-107848400D03*
X96266000Y-115468400D03*
X98501200Y-107848400D03*
X98501200Y-115468400D03*
X103682800Y-108000800D03*
X111302800Y-108000800D03*
X111302800Y-105816400D03*
X103682800Y-105816400D03*
X117729000Y-110617000D03*
X110109000Y-110617000D03*
D20*
X140258800Y-112674400D03*
D21*
X137718800Y-112674400D03*
X140258800Y-110134400D03*
X137718800Y-110134400D03*
X140258800Y-107594400D03*
X137718800Y-107594400D03*
D18*
X137185400Y-102336600D03*
X139090400Y-104876600D03*
X140995400Y-102336600D03*
D14*
X132842000Y-104089200D03*
X132842000Y-111709200D03*
X130860800Y-104089200D03*
X130860800Y-111709200D03*
X100482400Y-112877600D03*
X108102400Y-112877600D03*
X124587000Y-99187000D03*
X124587000Y-106807000D03*
X126746000Y-99187000D03*
X126746000Y-106807000D03*
X128905000Y-99187000D03*
X128905000Y-106807000D03*
X134823200Y-104089200D03*
X134823200Y-111709200D03*
X124968000Y-81483200D03*
X132588000Y-81483200D03*
D23*
X143357600Y-102819200D03*
D24*
X143357600Y-105359200D03*
X143357600Y-107899200D03*
X143357600Y-110439200D03*
X143357600Y-112979200D03*
X143357600Y-115519200D03*
X143357600Y-118059200D03*
X143357600Y-120599200D03*
D25*
X107744000Y-128240800D03*
X113744000Y-118240800D03*
D14*
X117094000Y-123240800D03*
X104394000Y-123240800D03*
D22*
X101346000Y-97942400D03*
X101346000Y-100482400D03*
X101346000Y-105562400D03*
X101346000Y-103022400D03*
D14*
X117729000Y-112903000D03*
X110109000Y-112903000D03*
D26*
X111099600Y-100380800D03*
D27*
X111099600Y-102920800D03*
D28*
X124256800Y-86055200D03*
D29*
X126796800Y-86258400D03*
X129336800Y-86055200D03*
X131876800Y-86258400D03*
X134416800Y-86055200D03*
X136956800Y-86258400D03*
D30*
X96520000Y-120497600D03*
D31*
X96520000Y-117957600D03*
D15*
X98032800Y-89690000D03*
D16*
X98032800Y-93190000D03*
D18*
X104876600Y-103784400D03*
X107416600Y-101879400D03*
X104876600Y-99974400D03*
D14*
X108102400Y-110617000D03*
X100482400Y-110617000D03*
X106603800Y-87655400D03*
X106603800Y-95275400D03*
X104368600Y-87680800D03*
X104368600Y-95300800D03*
X108813600Y-87630000D03*
X108813600Y-95250000D03*
X110998000Y-87655400D03*
X110998000Y-95275400D03*
X102158800Y-95300800D03*
X102158800Y-87680800D03*
D32*
X138023600Y-99771200D03*
D33*
X140563600Y-99771200D03*
X143103600Y-99771200D03*
D34*
X138176000Y-119735600D03*
X134366000Y-119735600D03*
X130556000Y-119735600D03*
X97739200Y-105562400D03*
X97739200Y-101752400D03*
X97739200Y-97942400D03*
D19*
X114554000Y-107188000D03*
X117094000Y-107188000D03*
X119634000Y-107188000D03*
X122174000Y-107188000D03*
X122174000Y-99568000D03*
X119634000Y-99568000D03*
X117094000Y-99568000D03*
X114554000Y-99568000D03*
D35*
X143002000Y-89895680D03*
D36*
X143002000Y-93898720D03*
X143002000Y-91897200D03*
X143002000Y-95897700D03*
D37*
X134010400Y-115812000D03*
D38*
X134010400Y-114312000D03*
D35*
X135559800Y-89844880D03*
D36*
X135559800Y-93847920D03*
X135559800Y-91846400D03*
X135559800Y-95846900D03*
D39*
X122047000Y-81292700D03*
X122047000Y-86372700D03*
X114427000Y-81292700D03*
X114427000Y-86372700D03*
D30*
X140411200Y-115925600D03*
D31*
X137871200Y-115925600D03*
D14*
X128524000Y-83667600D03*
X136144000Y-83667600D03*
X111252000Y-125476000D03*
M02*
