G04 #@! TF.FileFunction,Legend,Top*
%FSLAX46Y46*%
G04 Gerber Fmt 4.6, Leading zero omitted, Abs format (unit mm)*
G04 Created by KiCad (PCBNEW 4.0.2+dfsg1-stable) date Sa 04 Feb 2017 00:29:01 CET*
%MOMM*%
G01*
G04 APERTURE LIST*
%ADD10C,0.100000*%
%ADD11C,0.200000*%
%ADD12C,0.300000*%
%ADD13C,0.150000*%
%ADD14C,0.381000*%
%ADD15C,0.254000*%
%ADD16C,0.304800*%
%ADD17C,0.317500*%
%ADD18C,0.285750*%
%ADD19C,0.287020*%
%ADD20C,0.250000*%
%ADD21C,0.203200*%
%ADD22C,0.222250*%
G04 APERTURE END LIST*
D10*
D11*
X98009143Y-117332190D02*
X99209143Y-117332190D01*
X98752000Y-117332190D02*
X98809143Y-117427428D01*
X98809143Y-117617905D01*
X98752000Y-117713143D01*
X98694857Y-117760762D01*
X98580571Y-117808381D01*
X98237714Y-117808381D01*
X98123429Y-117760762D01*
X98066286Y-117713143D01*
X98009143Y-117617905D01*
X98009143Y-117427428D01*
X98066286Y-117332190D01*
X98009143Y-118236952D02*
X98809143Y-118236952D01*
X98580571Y-118236952D02*
X98694857Y-118284571D01*
X98752000Y-118332190D01*
X98809143Y-118427428D01*
X98809143Y-118522667D01*
X95723143Y-122745619D02*
X96523143Y-122745619D01*
X96294571Y-122745619D02*
X96408857Y-122793238D01*
X96466000Y-122840857D01*
X96523143Y-122936095D01*
X96523143Y-123031334D01*
X95780286Y-123745620D02*
X95723143Y-123650382D01*
X95723143Y-123459905D01*
X95780286Y-123364667D01*
X95894571Y-123317048D01*
X96351714Y-123317048D01*
X96466000Y-123364667D01*
X96523143Y-123459905D01*
X96523143Y-123650382D01*
X96466000Y-123745620D01*
X96351714Y-123793239D01*
X96237429Y-123793239D01*
X96123143Y-123317048D01*
X95723143Y-124650382D02*
X96923143Y-124650382D01*
X95780286Y-124650382D02*
X95723143Y-124555144D01*
X95723143Y-124364667D01*
X95780286Y-124269429D01*
X95837429Y-124221810D01*
X95951714Y-124174191D01*
X96294571Y-124174191D01*
X96408857Y-124221810D01*
X96466000Y-124269429D01*
X96523143Y-124364667D01*
X96523143Y-124555144D01*
X96466000Y-124650382D01*
D12*
X123872572Y-84498571D02*
X123015429Y-84498571D01*
X123444001Y-84498571D02*
X123444001Y-82998571D01*
X123301144Y-83212857D01*
X123158286Y-83355714D01*
X123015429Y-83427143D01*
D13*
X100000000Y-80000000D02*
G75*
G03X95000000Y-85000000I0J-5000000D01*
G01*
X145000000Y-85000000D02*
G75*
G03X140000000Y-80000000I-5000000J0D01*
G01*
X140000000Y-130000000D02*
G75*
G03X145000000Y-125000000I0J5000000D01*
G01*
X95000000Y-125000000D02*
G75*
G03X100000000Y-130000000I5000000J0D01*
G01*
X95000000Y-85000000D02*
X95000000Y-125000000D01*
X140000000Y-80000000D02*
X100000000Y-80000000D01*
X145000000Y-125000000D02*
X145000000Y-85000000D01*
X100000000Y-130000000D02*
X140000000Y-130000000D01*
D14*
X125730000Y-131162000D02*
X125730000Y-131562000D01*
X122230000Y-130062000D02*
X129230000Y-130062000D01*
X122230000Y-131162000D02*
X129230000Y-131162000D01*
X122230000Y-123962000D02*
X122230000Y-131562000D01*
X129230000Y-131562000D02*
X129230000Y-123962000D01*
X129230000Y-123962000D02*
X122230000Y-123962000D01*
D13*
X102286000Y-83500000D02*
G75*
G03X102286000Y-83500000I-2286000J0D01*
G01*
X142286000Y-83500000D02*
G75*
G03X142286000Y-83500000I-2286000J0D01*
G01*
X142286000Y-123500000D02*
G75*
G03X142286000Y-123500000I-2286000J0D01*
G01*
X102286000Y-123500000D02*
G75*
G03X102286000Y-123500000I-2286000J0D01*
G01*
D14*
X135432800Y-101498400D02*
X130352800Y-101498400D01*
X135432800Y-101498400D02*
X134797800Y-102768400D01*
X134797800Y-102768400D02*
X130987800Y-102768400D01*
X130987800Y-102768400D02*
X130352800Y-101498400D01*
X135432800Y-101498400D02*
G75*
G03X132892800Y-98958400I-2540000J0D01*
G01*
X132892800Y-98958400D02*
G75*
G03X130352800Y-101498400I0J-2540000D01*
G01*
D15*
X121818400Y-112420400D02*
X125882400Y-112420400D01*
X125882400Y-114960400D02*
X121818400Y-114960400D01*
X118770400Y-108610400D02*
X128930400Y-108610400D01*
X118770400Y-118770400D02*
X128930400Y-118770400D01*
X127660400Y-113690400D02*
G75*
G03X128930400Y-114960400I1270000J0D01*
G01*
X128930400Y-112420400D02*
G75*
G03X127660400Y-113690400I0J-1270000D01*
G01*
X125882400Y-114960400D02*
X125882400Y-112420400D01*
X121818400Y-112420400D02*
X121818400Y-114960400D01*
X118770400Y-118770400D02*
X118770400Y-108610400D01*
X128930400Y-108610400D02*
X128930400Y-118770400D01*
D13*
X105549700Y-85991700D02*
X113169700Y-85991700D01*
X113169700Y-85991700D02*
X113169700Y-80911700D01*
X113169700Y-80911700D02*
X103009700Y-80911700D01*
X103009700Y-80911700D02*
X103009700Y-83451700D01*
X102729700Y-84721700D02*
X102729700Y-86271700D01*
X103009700Y-83451700D02*
X105549700Y-83451700D01*
X105549700Y-83451700D02*
X105549700Y-85991700D01*
X102729700Y-86271700D02*
X104279700Y-86271700D01*
D15*
X129413000Y-94107000D02*
X115189000Y-94107000D01*
X115189000Y-91567000D02*
X129413000Y-91567000D01*
X132461000Y-87757000D02*
X112141000Y-87757000D01*
X112141000Y-97917000D02*
X132461000Y-97917000D01*
X113411000Y-92837000D02*
G75*
G03X112141000Y-91567000I-1270000J0D01*
G01*
X112141000Y-94107000D02*
G75*
G03X113411000Y-92837000I0J1270000D01*
G01*
X115189000Y-91567000D02*
X115189000Y-94107000D01*
X129413000Y-94107000D02*
X129413000Y-91567000D01*
X132461000Y-87757000D02*
X132461000Y-97917000D01*
X112141000Y-97917000D02*
X112141000Y-87757000D01*
D16*
X99212400Y-121056400D02*
X99212400Y-116027200D01*
X99212400Y-116027200D02*
X101752400Y-116027200D01*
X101752400Y-116027200D02*
X101752400Y-121107200D01*
X101752400Y-121107200D02*
X99212400Y-121107200D01*
X99847400Y-121107200D02*
X99212400Y-120472200D01*
X129235200Y-117703600D02*
X129235200Y-112674400D01*
X129235200Y-112674400D02*
X131775200Y-112674400D01*
X131775200Y-112674400D02*
X131775200Y-117754400D01*
X131775200Y-117754400D02*
X129235200Y-117754400D01*
X129870200Y-117754400D02*
X129235200Y-117119400D01*
X112166400Y-99161600D02*
X107137200Y-99161600D01*
X107137200Y-99161600D02*
X107137200Y-96621600D01*
X107137200Y-96621600D02*
X112217200Y-96621600D01*
X112217200Y-96621600D02*
X112217200Y-99161600D01*
X112217200Y-98526600D02*
X111582200Y-99161600D01*
D15*
X122021600Y-121462800D02*
X122021600Y-123494800D01*
X122275600Y-123494800D02*
X122275600Y-121462800D01*
X119735600Y-122478800D02*
X121259600Y-122478800D01*
X125831600Y-122478800D02*
X127355600Y-122478800D01*
X125831600Y-123494800D02*
X121259600Y-123494800D01*
X121259600Y-123494800D02*
X121259600Y-121462800D01*
X121259600Y-121462800D02*
X125831600Y-121462800D01*
X125831600Y-121462800D02*
X125831600Y-123494800D01*
X125069600Y-121208800D02*
X125069600Y-119176800D01*
X124815600Y-119176800D02*
X124815600Y-121208800D01*
X127355600Y-120192800D02*
X125831600Y-120192800D01*
X121259600Y-120192800D02*
X119735600Y-120192800D01*
X121259600Y-119176800D02*
X125831600Y-119176800D01*
X125831600Y-119176800D02*
X125831600Y-121208800D01*
X125831600Y-121208800D02*
X121259600Y-121208800D01*
X121259600Y-121208800D02*
X121259600Y-119176800D01*
X112344200Y-114173000D02*
X112344200Y-116205000D01*
X112598200Y-116205000D02*
X112598200Y-114173000D01*
X110058200Y-115189000D02*
X111582200Y-115189000D01*
X116154200Y-115189000D02*
X117678200Y-115189000D01*
X116154200Y-116205000D02*
X111582200Y-116205000D01*
X111582200Y-116205000D02*
X111582200Y-114173000D01*
X111582200Y-114173000D02*
X116154200Y-114173000D01*
X116154200Y-114173000D02*
X116154200Y-116205000D01*
X102768400Y-114198400D02*
X102768400Y-116230400D01*
X103022400Y-116230400D02*
X103022400Y-114198400D01*
X100482400Y-115214400D02*
X102006400Y-115214400D01*
X106578400Y-115214400D02*
X108102400Y-115214400D01*
X106578400Y-116230400D02*
X102006400Y-116230400D01*
X102006400Y-116230400D02*
X102006400Y-114198400D01*
X102006400Y-114198400D02*
X106578400Y-114198400D01*
X106578400Y-114198400D02*
X106578400Y-116230400D01*
X95250000Y-113182400D02*
X97282000Y-113182400D01*
X97282000Y-112928400D02*
X95250000Y-112928400D01*
X96266000Y-115468400D02*
X96266000Y-113944400D01*
X96266000Y-109372400D02*
X96266000Y-107848400D01*
X97282000Y-109372400D02*
X97282000Y-113944400D01*
X97282000Y-113944400D02*
X95250000Y-113944400D01*
X95250000Y-113944400D02*
X95250000Y-109372400D01*
X95250000Y-109372400D02*
X97282000Y-109372400D01*
X97485200Y-113182400D02*
X99517200Y-113182400D01*
X99517200Y-112928400D02*
X97485200Y-112928400D01*
X98501200Y-115468400D02*
X98501200Y-113944400D01*
X98501200Y-109372400D02*
X98501200Y-107848400D01*
X99517200Y-109372400D02*
X99517200Y-113944400D01*
X99517200Y-113944400D02*
X97485200Y-113944400D01*
X97485200Y-113944400D02*
X97485200Y-109372400D01*
X97485200Y-109372400D02*
X99517200Y-109372400D01*
X109016800Y-109016800D02*
X109016800Y-106984800D01*
X108762800Y-106984800D02*
X108762800Y-109016800D01*
X111302800Y-108000800D02*
X109778800Y-108000800D01*
X105206800Y-108000800D02*
X103682800Y-108000800D01*
X105206800Y-106984800D02*
X109778800Y-106984800D01*
X109778800Y-106984800D02*
X109778800Y-109016800D01*
X109778800Y-109016800D02*
X105206800Y-109016800D01*
X105206800Y-109016800D02*
X105206800Y-106984800D01*
X105968800Y-104800400D02*
X105968800Y-106832400D01*
X106222800Y-106832400D02*
X106222800Y-104800400D01*
X103682800Y-105816400D02*
X105206800Y-105816400D01*
X109778800Y-105816400D02*
X111302800Y-105816400D01*
X109778800Y-106832400D02*
X105206800Y-106832400D01*
X105206800Y-106832400D02*
X105206800Y-104800400D01*
X105206800Y-104800400D02*
X109778800Y-104800400D01*
X109778800Y-104800400D02*
X109778800Y-106832400D01*
X112395000Y-109601000D02*
X112395000Y-111633000D01*
X112649000Y-111633000D02*
X112649000Y-109601000D01*
X110109000Y-110617000D02*
X111633000Y-110617000D01*
X116205000Y-110617000D02*
X117729000Y-110617000D01*
X116205000Y-111633000D02*
X111633000Y-111633000D01*
X111633000Y-111633000D02*
X111633000Y-109601000D01*
X111633000Y-109601000D02*
X116205000Y-109601000D01*
X116205000Y-109601000D02*
X116205000Y-111633000D01*
D13*
X141528800Y-111404400D02*
X141528800Y-106324400D01*
X141808800Y-114224400D02*
X140258800Y-114224400D01*
X138988800Y-113944400D02*
X138988800Y-111404400D01*
X138988800Y-111404400D02*
X141528800Y-111404400D01*
X141528800Y-106324400D02*
X136448800Y-106324400D01*
X136448800Y-106324400D02*
X136448800Y-111404400D01*
X141808800Y-114224400D02*
X141808800Y-112674400D01*
X136448800Y-113944400D02*
X138988800Y-113944400D01*
X136448800Y-111404400D02*
X136448800Y-113944400D01*
D14*
X136550400Y-102971600D02*
X141630400Y-102971600D01*
X136550400Y-102971600D02*
X137185400Y-101701600D01*
X137185400Y-101701600D02*
X140995400Y-101701600D01*
X140995400Y-101701600D02*
X141630400Y-102971600D01*
X136550400Y-102971600D02*
G75*
G03X139090400Y-105511600I2540000J0D01*
G01*
X139090400Y-105511600D02*
G75*
G03X141630400Y-102971600I0J2540000D01*
G01*
D15*
X132842000Y-110058200D02*
X132842000Y-111709200D01*
X132842000Y-105740200D02*
X132842000Y-104089200D01*
X133731000Y-105740200D02*
X131953000Y-105740200D01*
X131953000Y-105740200D02*
X131953000Y-110058200D01*
X131953000Y-110058200D02*
X133731000Y-110058200D01*
X133731000Y-110058200D02*
X133731000Y-105740200D01*
X130860800Y-110058200D02*
X130860800Y-111709200D01*
X130860800Y-105740200D02*
X130860800Y-104089200D01*
X131749800Y-105740200D02*
X129971800Y-105740200D01*
X129971800Y-105740200D02*
X129971800Y-110058200D01*
X129971800Y-110058200D02*
X131749800Y-110058200D01*
X131749800Y-110058200D02*
X131749800Y-105740200D01*
X106451400Y-112877600D02*
X108102400Y-112877600D01*
X102133400Y-112877600D02*
X100482400Y-112877600D01*
X102133400Y-111988600D02*
X102133400Y-113766600D01*
X102133400Y-113766600D02*
X106451400Y-113766600D01*
X106451400Y-113766600D02*
X106451400Y-111988600D01*
X106451400Y-111988600D02*
X102133400Y-111988600D01*
X124587000Y-105156000D02*
X124587000Y-106807000D01*
X124587000Y-100838000D02*
X124587000Y-99187000D01*
X125476000Y-100838000D02*
X123698000Y-100838000D01*
X123698000Y-100838000D02*
X123698000Y-105156000D01*
X123698000Y-105156000D02*
X125476000Y-105156000D01*
X125476000Y-105156000D02*
X125476000Y-100838000D01*
X126746000Y-105156000D02*
X126746000Y-106807000D01*
X126746000Y-100838000D02*
X126746000Y-99187000D01*
X127635000Y-100838000D02*
X125857000Y-100838000D01*
X125857000Y-100838000D02*
X125857000Y-105156000D01*
X125857000Y-105156000D02*
X127635000Y-105156000D01*
X127635000Y-105156000D02*
X127635000Y-100838000D01*
X128905000Y-105156000D02*
X128905000Y-106807000D01*
X128905000Y-100838000D02*
X128905000Y-99187000D01*
X129794000Y-100838000D02*
X128016000Y-100838000D01*
X128016000Y-100838000D02*
X128016000Y-105156000D01*
X128016000Y-105156000D02*
X129794000Y-105156000D01*
X129794000Y-105156000D02*
X129794000Y-100838000D01*
X134823200Y-110058200D02*
X134823200Y-111709200D01*
X134823200Y-105740200D02*
X134823200Y-104089200D01*
X135712200Y-105740200D02*
X133934200Y-105740200D01*
X133934200Y-105740200D02*
X133934200Y-110058200D01*
X133934200Y-110058200D02*
X135712200Y-110058200D01*
X135712200Y-110058200D02*
X135712200Y-105740200D01*
X130937000Y-81483200D02*
X132588000Y-81483200D01*
X126619000Y-81483200D02*
X124968000Y-81483200D01*
X126619000Y-80594200D02*
X126619000Y-82372200D01*
X126619000Y-82372200D02*
X130937000Y-82372200D01*
X130937000Y-82372200D02*
X130937000Y-80594200D01*
X130937000Y-80594200D02*
X126619000Y-80594200D01*
D17*
X144627600Y-101549200D02*
X144627600Y-121869200D01*
X142087600Y-121869200D02*
X142087600Y-101549200D01*
D16*
X144627600Y-104089200D02*
X142087600Y-104089200D01*
D17*
X144627600Y-121869200D02*
X142087600Y-121869200D01*
D16*
X142087600Y-101549200D02*
X144627600Y-101549200D01*
D10*
X106744000Y-127240800D02*
X102744000Y-127240800D01*
X118744000Y-127240800D02*
X108744000Y-127240800D01*
X112744000Y-119240800D02*
X102744000Y-119240800D01*
X118744000Y-119240800D02*
X114744000Y-119240800D01*
X102744000Y-119240800D02*
X102744000Y-127240800D01*
X118744000Y-119240800D02*
X118744000Y-127240800D01*
D16*
X102616000Y-96723200D02*
X102616000Y-101752400D01*
X102616000Y-101752400D02*
X100076000Y-101752400D01*
X100076000Y-101752400D02*
X100076000Y-96672400D01*
X100076000Y-96672400D02*
X102616000Y-96672400D01*
X101981000Y-96672400D02*
X102616000Y-97307400D01*
X100076000Y-106781600D02*
X100076000Y-101752400D01*
X100076000Y-101752400D02*
X102616000Y-101752400D01*
X102616000Y-101752400D02*
X102616000Y-106832400D01*
X102616000Y-106832400D02*
X100076000Y-106832400D01*
X100711000Y-106832400D02*
X100076000Y-106197400D01*
D15*
X112395000Y-111887000D02*
X112395000Y-113919000D01*
X112649000Y-113919000D02*
X112649000Y-111887000D01*
X110109000Y-112903000D02*
X111633000Y-112903000D01*
X116205000Y-112903000D02*
X117729000Y-112903000D01*
X116205000Y-113919000D02*
X111633000Y-113919000D01*
X111633000Y-113919000D02*
X111633000Y-111887000D01*
X111633000Y-111887000D02*
X116205000Y-111887000D01*
X116205000Y-111887000D02*
X116205000Y-113919000D01*
D13*
X109785600Y-100181800D02*
X109985600Y-100181800D01*
X112379600Y-100181800D02*
X112199600Y-100181800D01*
X112069243Y-103409544D02*
G75*
G03X112385600Y-100181800I-1003643J1727744D01*
G01*
X112198668Y-102733806D02*
G75*
G03X112199600Y-100630800I-1133068J1052006D01*
G01*
X109758874Y-100194580D02*
G75*
G03X110105600Y-103431800I1306726J-1497220D01*
G01*
X109986347Y-100667911D02*
G75*
G03X110005600Y-102715800I1079253J-1013889D01*
G01*
D16*
X122986800Y-87528400D02*
X138226800Y-87528400D01*
X138226800Y-87528400D02*
X138226800Y-84785200D01*
X138226800Y-84785200D02*
X122986800Y-84785200D01*
X122986800Y-84785200D02*
X122986800Y-87528400D01*
D13*
X95250000Y-119227600D02*
X95250000Y-116687600D01*
X94970000Y-122047600D02*
X94970000Y-120497600D01*
X95250000Y-119227600D02*
X97790000Y-119227600D01*
X98070000Y-120497600D02*
X98070000Y-122047600D01*
X98070000Y-122047600D02*
X94970000Y-122047600D01*
X97790000Y-119227600D02*
X97790000Y-116687600D01*
X97790000Y-116687600D02*
X95250000Y-116687600D01*
D14*
X93932800Y-91440000D02*
X93532800Y-91440000D01*
X95032800Y-87940000D02*
X95032800Y-94940000D01*
X93932800Y-87940000D02*
X93932800Y-94940000D01*
X101132800Y-87940000D02*
X93532800Y-87940000D01*
X93532800Y-94940000D02*
X101132800Y-94940000D01*
X101132800Y-94940000D02*
X101132800Y-87940000D01*
X105511600Y-104419400D02*
X105511600Y-99339400D01*
X105511600Y-104419400D02*
X104241600Y-103784400D01*
X104241600Y-103784400D02*
X104241600Y-99974400D01*
X104241600Y-99974400D02*
X105511600Y-99339400D01*
X105511600Y-104419400D02*
G75*
G03X108051600Y-101879400I0J2540000D01*
G01*
X108051600Y-101879400D02*
G75*
G03X105511600Y-99339400I-2540000J0D01*
G01*
D15*
X102133400Y-110617000D02*
X100482400Y-110617000D01*
X106451400Y-110617000D02*
X108102400Y-110617000D01*
X106451400Y-111506000D02*
X106451400Y-109728000D01*
X106451400Y-109728000D02*
X102133400Y-109728000D01*
X102133400Y-109728000D02*
X102133400Y-111506000D01*
X102133400Y-111506000D02*
X106451400Y-111506000D01*
X106603800Y-93624400D02*
X106603800Y-95275400D01*
X106603800Y-89306400D02*
X106603800Y-87655400D01*
X107492800Y-89306400D02*
X105714800Y-89306400D01*
X105714800Y-89306400D02*
X105714800Y-93624400D01*
X105714800Y-93624400D02*
X107492800Y-93624400D01*
X107492800Y-93624400D02*
X107492800Y-89306400D01*
X104368600Y-93649800D02*
X104368600Y-95300800D01*
X104368600Y-89331800D02*
X104368600Y-87680800D01*
X105257600Y-89331800D02*
X103479600Y-89331800D01*
X103479600Y-89331800D02*
X103479600Y-93649800D01*
X103479600Y-93649800D02*
X105257600Y-93649800D01*
X105257600Y-93649800D02*
X105257600Y-89331800D01*
X108813600Y-93599000D02*
X108813600Y-95250000D01*
X108813600Y-89281000D02*
X108813600Y-87630000D01*
X109702600Y-89281000D02*
X107924600Y-89281000D01*
X107924600Y-89281000D02*
X107924600Y-93599000D01*
X107924600Y-93599000D02*
X109702600Y-93599000D01*
X109702600Y-93599000D02*
X109702600Y-89281000D01*
X110998000Y-93624400D02*
X110998000Y-95275400D01*
X110998000Y-89306400D02*
X110998000Y-87655400D01*
X111887000Y-89306400D02*
X110109000Y-89306400D01*
X110109000Y-89306400D02*
X110109000Y-93624400D01*
X110109000Y-93624400D02*
X111887000Y-93624400D01*
X111887000Y-93624400D02*
X111887000Y-89306400D01*
X102158800Y-89331800D02*
X102158800Y-87680800D01*
X102158800Y-93649800D02*
X102158800Y-95300800D01*
X101269800Y-93649800D02*
X103047800Y-93649800D01*
X103047800Y-93649800D02*
X103047800Y-89331800D01*
X103047800Y-89331800D02*
X101269800Y-89331800D01*
X101269800Y-89331800D02*
X101269800Y-93649800D01*
D13*
X139293600Y-101041200D02*
X144373600Y-101041200D01*
X144373600Y-101041200D02*
X144373600Y-98501200D01*
X144373600Y-98501200D02*
X139293600Y-98501200D01*
X136473600Y-98221200D02*
X138023600Y-98221200D01*
X139293600Y-98501200D02*
X139293600Y-101041200D01*
X138023600Y-101321200D02*
X136473600Y-101321200D01*
X136473600Y-101321200D02*
X136473600Y-98221200D01*
D15*
X129286000Y-117703600D02*
X139446000Y-117703600D01*
X129286000Y-118465600D02*
X129286000Y-122275600D01*
X129286000Y-122275600D02*
X139446000Y-122275600D01*
X139446000Y-122275600D02*
X139446000Y-117195600D01*
X139446000Y-117195600D02*
X129286000Y-117195600D01*
X129286000Y-117195600D02*
X129286000Y-118465600D01*
X99771200Y-96672400D02*
X99771200Y-106832400D01*
X99009200Y-96672400D02*
X95199200Y-96672400D01*
X95199200Y-96672400D02*
X95199200Y-106832400D01*
X95199200Y-106832400D02*
X100279200Y-106832400D01*
X100279200Y-106832400D02*
X100279200Y-96672400D01*
X100279200Y-96672400D02*
X99009200Y-96672400D01*
X120396000Y-104648000D02*
X116332000Y-104648000D01*
X116332000Y-102108000D02*
X120396000Y-102108000D01*
X123444000Y-108458000D02*
X113284000Y-108458000D01*
X123444000Y-98298000D02*
X113284000Y-98298000D01*
X114554000Y-103378000D02*
G75*
G03X113284000Y-102108000I-1270000J0D01*
G01*
X113284000Y-104648000D02*
G75*
G03X114554000Y-103378000I0J1270000D01*
G01*
X116332000Y-102108000D02*
X116332000Y-104648000D01*
X120396000Y-104648000D02*
X120396000Y-102108000D01*
X123444000Y-98298000D02*
X123444000Y-108458000D01*
X113284000Y-108458000D02*
X113284000Y-98298000D01*
D14*
X141201140Y-92997020D02*
X140700760Y-92997020D01*
X141201140Y-92798900D02*
X141201140Y-92997020D01*
X140700760Y-92798900D02*
X141201140Y-92798900D01*
X140202920Y-87896700D02*
X140202920Y-97899220D01*
X140700760Y-97398840D02*
X140700760Y-88397080D01*
X144701260Y-87896700D02*
X144701260Y-97899220D01*
X141201140Y-90995500D02*
X140700760Y-90995500D01*
X141201140Y-90797380D02*
X141201140Y-90995500D01*
X140700760Y-90797380D02*
X141201140Y-90797380D01*
X140700760Y-94797880D02*
X141201140Y-94797880D01*
X141201140Y-94797880D02*
X141201140Y-94996000D01*
X141201140Y-94996000D02*
X140700760Y-94996000D01*
X143502380Y-97899220D02*
X143502380Y-97398840D01*
X142201900Y-97398840D02*
X142201900Y-97899220D01*
X142201900Y-88397080D02*
X142201900Y-87896700D01*
X143502380Y-88397080D02*
X143502380Y-87896700D01*
X144701260Y-90396060D02*
X144200880Y-90396060D01*
X144200880Y-90396060D02*
X144200880Y-88397080D01*
X144200880Y-88397080D02*
X140700760Y-88397080D01*
X140700760Y-97398840D02*
X144200880Y-97398840D01*
X144200880Y-97398840D02*
X144200880Y-95399860D01*
X144200880Y-95399860D02*
X144701260Y-95399860D01*
X144701260Y-87896700D02*
X140202920Y-87896700D01*
X144701260Y-97899220D02*
X140202920Y-97899220D01*
X144701260Y-89595960D02*
X144901920Y-89595960D01*
X144901920Y-89595960D02*
X144901920Y-89296240D01*
X144901920Y-89296240D02*
X144701260Y-89296240D01*
D16*
X133310400Y-112962000D02*
X134710400Y-112962000D01*
X132810400Y-113162000D02*
X135210400Y-113162000D01*
X132510400Y-113362000D02*
X135510400Y-113362000D01*
D12*
X135010400Y-114262000D02*
X135610400Y-114262000D01*
D16*
X136310400Y-115062000D02*
G75*
G03X136310400Y-115062000I-2300000J0D01*
G01*
D14*
X133758940Y-92946220D02*
X133258560Y-92946220D01*
X133758940Y-92748100D02*
X133758940Y-92946220D01*
X133258560Y-92748100D02*
X133758940Y-92748100D01*
X132760720Y-87845900D02*
X132760720Y-97848420D01*
X133258560Y-97348040D02*
X133258560Y-88346280D01*
X137259060Y-87845900D02*
X137259060Y-97848420D01*
X133758940Y-90944700D02*
X133258560Y-90944700D01*
X133758940Y-90746580D02*
X133758940Y-90944700D01*
X133258560Y-90746580D02*
X133758940Y-90746580D01*
X133258560Y-94747080D02*
X133758940Y-94747080D01*
X133758940Y-94747080D02*
X133758940Y-94945200D01*
X133758940Y-94945200D02*
X133258560Y-94945200D01*
X136060180Y-97848420D02*
X136060180Y-97348040D01*
X134759700Y-97348040D02*
X134759700Y-97848420D01*
X134759700Y-88346280D02*
X134759700Y-87845900D01*
X136060180Y-88346280D02*
X136060180Y-87845900D01*
X137259060Y-90345260D02*
X136758680Y-90345260D01*
X136758680Y-90345260D02*
X136758680Y-88346280D01*
X136758680Y-88346280D02*
X133258560Y-88346280D01*
X133258560Y-97348040D02*
X136758680Y-97348040D01*
X136758680Y-97348040D02*
X136758680Y-95349060D01*
X136758680Y-95349060D02*
X137259060Y-95349060D01*
X137259060Y-87845900D02*
X132760720Y-87845900D01*
X137259060Y-97848420D02*
X132760720Y-97848420D01*
X137259060Y-89545160D02*
X137459720Y-89545160D01*
X137459720Y-89545160D02*
X137459720Y-89245440D01*
X137459720Y-89245440D02*
X137259060Y-89245440D01*
D13*
X120777000Y-83832700D02*
G75*
G03X120777000Y-83832700I-2540000J0D01*
G01*
X114427000Y-80022700D02*
X122047000Y-80022700D01*
X122047000Y-80022700D02*
X122047000Y-87642700D01*
X122047000Y-87642700D02*
X114427000Y-87642700D01*
X114427000Y-80022700D02*
X114427000Y-87642700D01*
X139141200Y-117195600D02*
X136601200Y-117195600D01*
X141961200Y-117475600D02*
X140411200Y-117475600D01*
X139141200Y-117195600D02*
X139141200Y-114655600D01*
X140411200Y-114375600D02*
X141961200Y-114375600D01*
X141961200Y-114375600D02*
X141961200Y-117475600D01*
X139141200Y-114655600D02*
X136601200Y-114655600D01*
X136601200Y-114655600D02*
X136601200Y-117195600D01*
D15*
X133858000Y-84683600D02*
X133858000Y-82651600D01*
X133604000Y-82651600D02*
X133604000Y-84683600D01*
X136144000Y-83667600D02*
X134620000Y-83667600D01*
X130048000Y-83667600D02*
X128524000Y-83667600D01*
X130048000Y-82651600D02*
X134620000Y-82651600D01*
X134620000Y-82651600D02*
X134620000Y-84683600D01*
X134620000Y-84683600D02*
X130048000Y-84683600D01*
X130048000Y-84683600D02*
X130048000Y-82651600D01*
D12*
X130464858Y-128948571D02*
X130464858Y-127448571D01*
X131036286Y-127448571D01*
X131179144Y-127520000D01*
X131250572Y-127591429D01*
X131322001Y-127734286D01*
X131322001Y-127948571D01*
X131250572Y-128091429D01*
X131179144Y-128162857D01*
X131036286Y-128234286D01*
X130464858Y-128234286D01*
X132750572Y-128948571D02*
X131893429Y-128948571D01*
X132322001Y-128948571D02*
X132322001Y-127448571D01*
X132179144Y-127662857D01*
X132036286Y-127805714D01*
X131893429Y-127877143D01*
D11*
X130562362Y-99513943D02*
X130467124Y-99456800D01*
X130371886Y-99342514D01*
X130229029Y-99171086D01*
X130133790Y-99113943D01*
X130038552Y-99113943D01*
X130086171Y-99399657D02*
X129990933Y-99342514D01*
X129895695Y-99228229D01*
X129848076Y-98999657D01*
X129848076Y-98599657D01*
X129895695Y-98371086D01*
X129990933Y-98256800D01*
X130086171Y-98199657D01*
X130276648Y-98199657D01*
X130371886Y-98256800D01*
X130467124Y-98371086D01*
X130514743Y-98599657D01*
X130514743Y-98999657D01*
X130467124Y-99228229D01*
X130371886Y-99342514D01*
X130276648Y-99399657D01*
X130086171Y-99399657D01*
X131467124Y-99399657D02*
X130895695Y-99399657D01*
X131181409Y-99399657D02*
X131181409Y-98199657D01*
X131086171Y-98371086D01*
X130990933Y-98485371D01*
X130895695Y-98542514D01*
D18*
X122916043Y-112792329D02*
X122916043Y-114026043D01*
X122970471Y-114171186D01*
X123024900Y-114243757D01*
X123133757Y-114316329D01*
X123351471Y-114316329D01*
X123460329Y-114243757D01*
X123514757Y-114171186D01*
X123569186Y-114026043D01*
X123569186Y-112792329D01*
X124712186Y-114316329D02*
X124059043Y-114316329D01*
X124385615Y-114316329D02*
X124385615Y-112792329D01*
X124276758Y-113010043D01*
X124167900Y-113155186D01*
X124059043Y-113227757D01*
D19*
D20*
X121105533Y-116491354D02*
X121105533Y-116967545D01*
X119705533Y-116967545D01*
X121105533Y-116158021D02*
X119705533Y-116158021D01*
X120705533Y-115824687D01*
X119705533Y-115491354D01*
X121105533Y-115491354D01*
X119705533Y-115110402D02*
X119705533Y-114491354D01*
X120238867Y-114824688D01*
X120238867Y-114681830D01*
X120305533Y-114586592D01*
X120372200Y-114538973D01*
X120505533Y-114491354D01*
X120838867Y-114491354D01*
X120972200Y-114538973D01*
X121038867Y-114586592D01*
X121105533Y-114681830D01*
X121105533Y-114967545D01*
X121038867Y-115062783D01*
X120972200Y-115110402D01*
X121105533Y-114015164D02*
X121105533Y-113824688D01*
X121038867Y-113729449D01*
X120972200Y-113681830D01*
X120772200Y-113586592D01*
X120505533Y-113538973D01*
X119972200Y-113538973D01*
X119838867Y-113586592D01*
X119772200Y-113634211D01*
X119705533Y-113729449D01*
X119705533Y-113919926D01*
X119772200Y-114015164D01*
X119838867Y-114062783D01*
X119972200Y-114110402D01*
X120305533Y-114110402D01*
X120438867Y-114062783D01*
X120505533Y-114015164D01*
X120572200Y-113919926D01*
X120572200Y-113729449D01*
X120505533Y-113634211D01*
X120438867Y-113586592D01*
X120305533Y-113538973D01*
X119705533Y-113205640D02*
X119705533Y-112586592D01*
X120238867Y-112919926D01*
X120238867Y-112777068D01*
X120305533Y-112681830D01*
X120372200Y-112634211D01*
X120505533Y-112586592D01*
X120838867Y-112586592D01*
X120972200Y-112634211D01*
X121038867Y-112681830D01*
X121105533Y-112777068D01*
X121105533Y-113062783D01*
X121038867Y-113158021D01*
X120972200Y-113205640D01*
X120572200Y-112158021D02*
X120572200Y-111396116D01*
X121105533Y-110396116D02*
X121105533Y-110967545D01*
X121105533Y-110681831D02*
X119705533Y-110681831D01*
X119905533Y-110777069D01*
X120038867Y-110872307D01*
X120105533Y-110967545D01*
D13*
X99632081Y-85459795D02*
X98632081Y-85459795D01*
X98632081Y-85078842D01*
X98679700Y-84983604D01*
X98727319Y-84935985D01*
X98822557Y-84888366D01*
X98965414Y-84888366D01*
X99060652Y-84935985D01*
X99108271Y-84983604D01*
X99155890Y-85078842D01*
X99155890Y-85459795D01*
X98632081Y-83983604D02*
X98632081Y-84459795D01*
X99108271Y-84507414D01*
X99060652Y-84459795D01*
X99013033Y-84364557D01*
X99013033Y-84126461D01*
X99060652Y-84031223D01*
X99108271Y-83983604D01*
X99203510Y-83935985D01*
X99441605Y-83935985D01*
X99536843Y-83983604D01*
X99584462Y-84031223D01*
X99632081Y-84126461D01*
X99632081Y-84364557D01*
X99584462Y-84459795D01*
X99536843Y-84507414D01*
D18*
X115715143Y-92065929D02*
X115715143Y-93299643D01*
X115769571Y-93444786D01*
X115824000Y-93517357D01*
X115932857Y-93589929D01*
X116150571Y-93589929D01*
X116259429Y-93517357D01*
X116313857Y-93444786D01*
X116368286Y-93299643D01*
X116368286Y-92065929D01*
X116803715Y-92065929D02*
X117511286Y-92065929D01*
X117130286Y-92646500D01*
X117293572Y-92646500D01*
X117402429Y-92719071D01*
X117456858Y-92791643D01*
X117511286Y-92936786D01*
X117511286Y-93299643D01*
X117456858Y-93444786D01*
X117402429Y-93517357D01*
X117293572Y-93589929D01*
X116967000Y-93589929D01*
X116858143Y-93517357D01*
X116803715Y-93444786D01*
D19*
D18*
X119116930Y-93589929D02*
X119116930Y-92065929D01*
X119552358Y-92065929D01*
X119661216Y-92138500D01*
X119715644Y-92211071D01*
X119770073Y-92356214D01*
X119770073Y-92573929D01*
X119715644Y-92719071D01*
X119661216Y-92791643D01*
X119552358Y-92864214D01*
X119116930Y-92864214D01*
X120259930Y-93589929D02*
X120259930Y-92065929D01*
X121457359Y-93444786D02*
X121402930Y-93517357D01*
X121239644Y-93589929D01*
X121130787Y-93589929D01*
X120967502Y-93517357D01*
X120858644Y-93372214D01*
X120804216Y-93227071D01*
X120749787Y-92936786D01*
X120749787Y-92719071D01*
X120804216Y-92428786D01*
X120858644Y-92283643D01*
X120967502Y-92138500D01*
X121130787Y-92065929D01*
X121239644Y-92065929D01*
X121402930Y-92138500D01*
X121457359Y-92211071D01*
X122545930Y-93589929D02*
X121892787Y-93589929D01*
X122219359Y-93589929D02*
X122219359Y-92065929D01*
X122110502Y-92283643D01*
X122001644Y-92428786D01*
X121892787Y-92501357D01*
X123525644Y-92065929D02*
X123307930Y-92065929D01*
X123199073Y-92138500D01*
X123144644Y-92211071D01*
X123035787Y-92428786D01*
X122981358Y-92719071D01*
X122981358Y-93299643D01*
X123035787Y-93444786D01*
X123090215Y-93517357D01*
X123199073Y-93589929D01*
X123416787Y-93589929D01*
X123525644Y-93517357D01*
X123580073Y-93444786D01*
X123634501Y-93299643D01*
X123634501Y-92936786D01*
X123580073Y-92791643D01*
X123525644Y-92719071D01*
X123416787Y-92646500D01*
X123199073Y-92646500D01*
X123090215Y-92719071D01*
X123035787Y-92791643D01*
X122981358Y-92936786D01*
X124505358Y-92791643D02*
X124124358Y-92791643D01*
X124124358Y-93589929D02*
X124124358Y-92065929D01*
X124668644Y-92065929D01*
X125702786Y-93589929D02*
X125049643Y-93589929D01*
X125376215Y-93589929D02*
X125376215Y-92065929D01*
X125267358Y-92283643D01*
X125158500Y-92428786D01*
X125049643Y-92501357D01*
X126083786Y-92065929D02*
X126845786Y-92065929D01*
X126355929Y-93589929D01*
X127498928Y-92065929D02*
X127607785Y-92065929D01*
X127716642Y-92138500D01*
X127771071Y-92211071D01*
X127825500Y-92356214D01*
X127879928Y-92646500D01*
X127879928Y-93009357D01*
X127825500Y-93299643D01*
X127771071Y-93444786D01*
X127716642Y-93517357D01*
X127607785Y-93589929D01*
X127498928Y-93589929D01*
X127390071Y-93517357D01*
X127335642Y-93444786D01*
X127281214Y-93299643D01*
X127226785Y-93009357D01*
X127226785Y-92646500D01*
X127281214Y-92356214D01*
X127335642Y-92211071D01*
X127390071Y-92138500D01*
X127498928Y-92065929D01*
X128914071Y-92065929D02*
X128369785Y-92065929D01*
X128315356Y-92791643D01*
X128369785Y-92719071D01*
X128478642Y-92646500D01*
X128750785Y-92646500D01*
X128859642Y-92719071D01*
X128914071Y-92791643D01*
X128968499Y-92936786D01*
X128968499Y-93299643D01*
X128914071Y-93444786D01*
X128859642Y-93517357D01*
X128750785Y-93589929D01*
X128478642Y-93589929D01*
X128369785Y-93517357D01*
X128315356Y-93444786D01*
D19*
D21*
X102978857Y-120362133D02*
X103027238Y-120410514D01*
X103075619Y-120555657D01*
X103075619Y-120652419D01*
X103027238Y-120797561D01*
X102930476Y-120894323D01*
X102833714Y-120942704D01*
X102640190Y-120991085D01*
X102495048Y-120991085D01*
X102301524Y-120942704D01*
X102204762Y-120894323D01*
X102108000Y-120797561D01*
X102059619Y-120652419D01*
X102059619Y-120555657D01*
X102108000Y-120410514D01*
X102156381Y-120362133D01*
X103075619Y-119394514D02*
X103075619Y-119975085D01*
X103075619Y-119684799D02*
X102059619Y-119684799D01*
X102204762Y-119781561D01*
X102301524Y-119878323D01*
X102349905Y-119975085D01*
X128836057Y-116653733D02*
X128884438Y-116702114D01*
X128932819Y-116847257D01*
X128932819Y-116944019D01*
X128884438Y-117089161D01*
X128787676Y-117185923D01*
X128690914Y-117234304D01*
X128497390Y-117282685D01*
X128352248Y-117282685D01*
X128158724Y-117234304D01*
X128061962Y-117185923D01*
X127965200Y-117089161D01*
X127916819Y-116944019D01*
X127916819Y-116847257D01*
X127965200Y-116702114D01*
X128013581Y-116653733D01*
X128013581Y-116266685D02*
X127965200Y-116218304D01*
X127916819Y-116121542D01*
X127916819Y-115879638D01*
X127965200Y-115782876D01*
X128013581Y-115734495D01*
X128110343Y-115686114D01*
X128207105Y-115686114D01*
X128352248Y-115734495D01*
X128932819Y-116315066D01*
X128932819Y-115686114D01*
X105850267Y-97086057D02*
X105801886Y-97134438D01*
X105656743Y-97182819D01*
X105559981Y-97182819D01*
X105414839Y-97134438D01*
X105318077Y-97037676D01*
X105269696Y-96940914D01*
X105221315Y-96747390D01*
X105221315Y-96602248D01*
X105269696Y-96408724D01*
X105318077Y-96311962D01*
X105414839Y-96215200D01*
X105559981Y-96166819D01*
X105656743Y-96166819D01*
X105801886Y-96215200D01*
X105850267Y-96263581D01*
X106721124Y-96505486D02*
X106721124Y-97182819D01*
X106479220Y-96118438D02*
X106237315Y-96844152D01*
X106866267Y-96844152D01*
D16*
X122916043Y-123282529D02*
X122916043Y-121758529D01*
X123278900Y-121758529D01*
X123496615Y-121831100D01*
X123641757Y-121976243D01*
X123714329Y-122121386D01*
X123786900Y-122411671D01*
X123786900Y-122629386D01*
X123714329Y-122919671D01*
X123641757Y-123064814D01*
X123496615Y-123209957D01*
X123278900Y-123282529D01*
X122916043Y-123282529D01*
X125238329Y-123282529D02*
X124367472Y-123282529D01*
X124802900Y-123282529D02*
X124802900Y-121758529D01*
X124657757Y-121976243D01*
X124512615Y-122121386D01*
X124367472Y-122193957D01*
X122065143Y-121009229D02*
X122065143Y-119485229D01*
X122428000Y-119485229D01*
X122645715Y-119557800D01*
X122790857Y-119702943D01*
X122863429Y-119848086D01*
X122936000Y-120138371D01*
X122936000Y-120356086D01*
X122863429Y-120646371D01*
X122790857Y-120791514D01*
X122645715Y-120936657D01*
X122428000Y-121009229D01*
X122065143Y-121009229D01*
X123516572Y-119630371D02*
X123589143Y-119557800D01*
X123734286Y-119485229D01*
X124097143Y-119485229D01*
X124242286Y-119557800D01*
X124314857Y-119630371D01*
X124387429Y-119775514D01*
X124387429Y-119920657D01*
X124314857Y-120138371D01*
X123444000Y-121009229D01*
X124387429Y-121009229D01*
D11*
X113338086Y-115719157D02*
X113338086Y-114519157D01*
X113623801Y-114519157D01*
X113795229Y-114576300D01*
X113909515Y-114690586D01*
X113966658Y-114804871D01*
X114023801Y-115033443D01*
X114023801Y-115204871D01*
X113966658Y-115433443D01*
X113909515Y-115547729D01*
X113795229Y-115662014D01*
X113623801Y-115719157D01*
X113338086Y-115719157D01*
X114423801Y-114519157D02*
X115166658Y-114519157D01*
X114766658Y-114976300D01*
X114938086Y-114976300D01*
X115052372Y-115033443D01*
X115109515Y-115090586D01*
X115166658Y-115204871D01*
X115166658Y-115490586D01*
X115109515Y-115604871D01*
X115052372Y-115662014D01*
X114938086Y-115719157D01*
X114595229Y-115719157D01*
X114480943Y-115662014D01*
X114423801Y-115604871D01*
D16*
X103523143Y-116068929D02*
X103523143Y-114544929D01*
X103886000Y-114544929D01*
X104103715Y-114617500D01*
X104248857Y-114762643D01*
X104321429Y-114907786D01*
X104394000Y-115198071D01*
X104394000Y-115415786D01*
X104321429Y-115706071D01*
X104248857Y-115851214D01*
X104103715Y-115996357D01*
X103886000Y-116068929D01*
X103523143Y-116068929D01*
X105700286Y-115052929D02*
X105700286Y-116068929D01*
X105337429Y-114472357D02*
X104974572Y-115560929D01*
X105918000Y-115560929D01*
X96869069Y-112338757D02*
X95345069Y-112338757D01*
X95345069Y-111975900D01*
X95417640Y-111758185D01*
X95562783Y-111613043D01*
X95707926Y-111540471D01*
X95998211Y-111467900D01*
X96215926Y-111467900D01*
X96506211Y-111540471D01*
X96651354Y-111613043D01*
X96796497Y-111758185D01*
X96869069Y-111975900D01*
X96869069Y-112338757D01*
X95345069Y-110089043D02*
X95345069Y-110814757D01*
X96070783Y-110887328D01*
X95998211Y-110814757D01*
X95925640Y-110669614D01*
X95925640Y-110306757D01*
X95998211Y-110161614D01*
X96070783Y-110089043D01*
X96215926Y-110016471D01*
X96578783Y-110016471D01*
X96723926Y-110089043D01*
X96796497Y-110161614D01*
X96869069Y-110306757D01*
X96869069Y-110669614D01*
X96796497Y-110814757D01*
X96723926Y-110887328D01*
X99271909Y-112313357D02*
X97747909Y-112313357D01*
X97747909Y-111950500D01*
X97820480Y-111732785D01*
X97965623Y-111587643D01*
X98110766Y-111515071D01*
X98401051Y-111442500D01*
X98618766Y-111442500D01*
X98909051Y-111515071D01*
X99054194Y-111587643D01*
X99199337Y-111732785D01*
X99271909Y-111950500D01*
X99271909Y-112313357D01*
X97747909Y-110136214D02*
X97747909Y-110426500D01*
X97820480Y-110571643D01*
X97893051Y-110644214D01*
X98110766Y-110789357D01*
X98401051Y-110861928D01*
X98981623Y-110861928D01*
X99126766Y-110789357D01*
X99199337Y-110716785D01*
X99271909Y-110571643D01*
X99271909Y-110281357D01*
X99199337Y-110136214D01*
X99126766Y-110063643D01*
X98981623Y-109991071D01*
X98618766Y-109991071D01*
X98473623Y-110063643D01*
X98401051Y-110136214D01*
X98328480Y-110281357D01*
X98328480Y-110571643D01*
X98401051Y-110716785D01*
X98473623Y-110789357D01*
X98618766Y-110861928D01*
D20*
X106510865Y-108518257D02*
X106510865Y-107318257D01*
X106748960Y-107318257D01*
X106891818Y-107375400D01*
X106987056Y-107489686D01*
X107034675Y-107603971D01*
X107082294Y-107832543D01*
X107082294Y-108003971D01*
X107034675Y-108232543D01*
X106987056Y-108346829D01*
X106891818Y-108461114D01*
X106748960Y-108518257D01*
X106510865Y-108518257D01*
X107415627Y-107318257D02*
X108082294Y-107318257D01*
X107653722Y-108518257D01*
X107186505Y-106290677D02*
X107186505Y-105090677D01*
X107424600Y-105090677D01*
X107567458Y-105147820D01*
X107662696Y-105262106D01*
X107710315Y-105376391D01*
X107757934Y-105604963D01*
X107757934Y-105776391D01*
X107710315Y-106004963D01*
X107662696Y-106119249D01*
X107567458Y-106233534D01*
X107424600Y-106290677D01*
X107186505Y-106290677D01*
X108329362Y-105604963D02*
X108234124Y-105547820D01*
X108186505Y-105490677D01*
X108138886Y-105376391D01*
X108138886Y-105319249D01*
X108186505Y-105204963D01*
X108234124Y-105147820D01*
X108329362Y-105090677D01*
X108519839Y-105090677D01*
X108615077Y-105147820D01*
X108662696Y-105204963D01*
X108710315Y-105319249D01*
X108710315Y-105376391D01*
X108662696Y-105490677D01*
X108615077Y-105547820D01*
X108519839Y-105604963D01*
X108329362Y-105604963D01*
X108234124Y-105662106D01*
X108186505Y-105719249D01*
X108138886Y-105833534D01*
X108138886Y-106062106D01*
X108186505Y-106176391D01*
X108234124Y-106233534D01*
X108329362Y-106290677D01*
X108519839Y-106290677D01*
X108615077Y-106233534D01*
X108662696Y-106176391D01*
X108710315Y-106062106D01*
X108710315Y-105833534D01*
X108662696Y-105719249D01*
X108615077Y-105662106D01*
X108519839Y-105604963D01*
X113600005Y-111215737D02*
X113600005Y-110015737D01*
X113838100Y-110015737D01*
X113980958Y-110072880D01*
X114076196Y-110187166D01*
X114123815Y-110301451D01*
X114171434Y-110530023D01*
X114171434Y-110701451D01*
X114123815Y-110930023D01*
X114076196Y-111044309D01*
X113980958Y-111158594D01*
X113838100Y-111215737D01*
X113600005Y-111215737D01*
X114647624Y-111215737D02*
X114838100Y-111215737D01*
X114933339Y-111158594D01*
X114980958Y-111101451D01*
X115076196Y-110930023D01*
X115123815Y-110701451D01*
X115123815Y-110244309D01*
X115076196Y-110130023D01*
X115028577Y-110072880D01*
X114933339Y-110015737D01*
X114742862Y-110015737D01*
X114647624Y-110072880D01*
X114600005Y-110130023D01*
X114552386Y-110244309D01*
X114552386Y-110530023D01*
X114600005Y-110644309D01*
X114647624Y-110701451D01*
X114742862Y-110758594D01*
X114933339Y-110758594D01*
X115028577Y-110701451D01*
X115076196Y-110644309D01*
X115123815Y-110530023D01*
D13*
X135901205Y-105697281D02*
X135901205Y-104697281D01*
X136282158Y-104697281D01*
X136377396Y-104744900D01*
X136425015Y-104792519D01*
X136472634Y-104887757D01*
X136472634Y-105030614D01*
X136425015Y-105125852D01*
X136377396Y-105173471D01*
X136282158Y-105221090D01*
X135901205Y-105221090D01*
X136853586Y-104792519D02*
X136901205Y-104744900D01*
X136996443Y-104697281D01*
X137234539Y-104697281D01*
X137329777Y-104744900D01*
X137377396Y-104792519D01*
X137425015Y-104887757D01*
X137425015Y-104982995D01*
X137377396Y-105125852D01*
X136805967Y-105697281D01*
X137425015Y-105697281D01*
D16*
X141956971Y-104793143D02*
X141884400Y-104938286D01*
X141739257Y-105083429D01*
X141521543Y-105301143D01*
X141448971Y-105446286D01*
X141448971Y-105591429D01*
X141811829Y-105518857D02*
X141739257Y-105664000D01*
X141594114Y-105809143D01*
X141303829Y-105881714D01*
X140795829Y-105881714D01*
X140505543Y-105809143D01*
X140360400Y-105664000D01*
X140287829Y-105518857D01*
X140287829Y-105228571D01*
X140360400Y-105083429D01*
X140505543Y-104938286D01*
X140795829Y-104865714D01*
X141303829Y-104865714D01*
X141594114Y-104938286D01*
X141739257Y-105083429D01*
X141811829Y-105228571D01*
X141811829Y-105518857D01*
X140432971Y-104285143D02*
X140360400Y-104212572D01*
X140287829Y-104067429D01*
X140287829Y-103704572D01*
X140360400Y-103559429D01*
X140432971Y-103486858D01*
X140578114Y-103414286D01*
X140723257Y-103414286D01*
X140940971Y-103486858D01*
X141811829Y-104357715D01*
X141811829Y-103414286D01*
D21*
X133473976Y-108110867D02*
X132808738Y-108534200D01*
X133473976Y-108836581D02*
X132076976Y-108836581D01*
X132076976Y-108352772D01*
X132143500Y-108231819D01*
X132210024Y-108171343D01*
X132343071Y-108110867D01*
X132542643Y-108110867D01*
X132675690Y-108171343D01*
X132742214Y-108231819D01*
X132808738Y-108352772D01*
X132808738Y-108836581D01*
X133473976Y-106901343D02*
X133473976Y-107627057D01*
X133473976Y-107264200D02*
X132076976Y-107264200D01*
X132276548Y-107385152D01*
X132409595Y-107506105D01*
X132476119Y-107627057D01*
X131492776Y-108110867D02*
X130827538Y-108534200D01*
X131492776Y-108836581D02*
X130095776Y-108836581D01*
X130095776Y-108352772D01*
X130162300Y-108231819D01*
X130228824Y-108171343D01*
X130361871Y-108110867D01*
X130561443Y-108110867D01*
X130694490Y-108171343D01*
X130761014Y-108231819D01*
X130827538Y-108352772D01*
X130827538Y-108836581D01*
X130228824Y-107627057D02*
X130162300Y-107566581D01*
X130095776Y-107445629D01*
X130095776Y-107143248D01*
X130162300Y-107022295D01*
X130228824Y-106961819D01*
X130361871Y-106901343D01*
X130494919Y-106901343D01*
X130694490Y-106961819D01*
X131492776Y-107687533D01*
X131492776Y-106901343D01*
X104080733Y-113509576D02*
X103657400Y-112844338D01*
X103355019Y-113509576D02*
X103355019Y-112112576D01*
X103838828Y-112112576D01*
X103959781Y-112179100D01*
X104020257Y-112245624D01*
X104080733Y-112378671D01*
X104080733Y-112578243D01*
X104020257Y-112711290D01*
X103959781Y-112777814D01*
X103838828Y-112844338D01*
X103355019Y-112844338D01*
X104504067Y-112112576D02*
X105290257Y-112112576D01*
X104866924Y-112644767D01*
X105048352Y-112644767D01*
X105169305Y-112711290D01*
X105229781Y-112777814D01*
X105290257Y-112910862D01*
X105290257Y-113243481D01*
X105229781Y-113376529D01*
X105169305Y-113443052D01*
X105048352Y-113509576D01*
X104685495Y-113509576D01*
X104564543Y-113443052D01*
X104504067Y-113376529D01*
X125218976Y-103208667D02*
X124553738Y-103632000D01*
X125218976Y-103934381D02*
X123821976Y-103934381D01*
X123821976Y-103450572D01*
X123888500Y-103329619D01*
X123955024Y-103269143D01*
X124088071Y-103208667D01*
X124287643Y-103208667D01*
X124420690Y-103269143D01*
X124487214Y-103329619D01*
X124553738Y-103450572D01*
X124553738Y-103934381D01*
X124287643Y-102120095D02*
X125218976Y-102120095D01*
X123755452Y-102422476D02*
X124753310Y-102724857D01*
X124753310Y-101938667D01*
X127377976Y-103208667D02*
X126712738Y-103632000D01*
X127377976Y-103934381D02*
X125980976Y-103934381D01*
X125980976Y-103450572D01*
X126047500Y-103329619D01*
X126114024Y-103269143D01*
X126247071Y-103208667D01*
X126446643Y-103208667D01*
X126579690Y-103269143D01*
X126646214Y-103329619D01*
X126712738Y-103450572D01*
X126712738Y-103934381D01*
X125980976Y-102059619D02*
X125980976Y-102664381D01*
X126646214Y-102724857D01*
X126579690Y-102664381D01*
X126513167Y-102543429D01*
X126513167Y-102241048D01*
X126579690Y-102120095D01*
X126646214Y-102059619D01*
X126779262Y-101999143D01*
X127111881Y-101999143D01*
X127244929Y-102059619D01*
X127311452Y-102120095D01*
X127377976Y-102241048D01*
X127377976Y-102543429D01*
X127311452Y-102664381D01*
X127244929Y-102724857D01*
X129536976Y-103208667D02*
X128871738Y-103632000D01*
X129536976Y-103934381D02*
X128139976Y-103934381D01*
X128139976Y-103450572D01*
X128206500Y-103329619D01*
X128273024Y-103269143D01*
X128406071Y-103208667D01*
X128605643Y-103208667D01*
X128738690Y-103269143D01*
X128805214Y-103329619D01*
X128871738Y-103450572D01*
X128871738Y-103934381D01*
X128139976Y-102120095D02*
X128139976Y-102362000D01*
X128206500Y-102482952D01*
X128273024Y-102543429D01*
X128472595Y-102664381D01*
X128738690Y-102724857D01*
X129270881Y-102724857D01*
X129403929Y-102664381D01*
X129470452Y-102603905D01*
X129536976Y-102482952D01*
X129536976Y-102241048D01*
X129470452Y-102120095D01*
X129403929Y-102059619D01*
X129270881Y-101999143D01*
X128938262Y-101999143D01*
X128805214Y-102059619D01*
X128738690Y-102120095D01*
X128672167Y-102241048D01*
X128672167Y-102482952D01*
X128738690Y-102603905D01*
X128805214Y-102664381D01*
X128938262Y-102724857D01*
X135455176Y-108110867D02*
X134789938Y-108534200D01*
X135455176Y-108836581D02*
X134058176Y-108836581D01*
X134058176Y-108352772D01*
X134124700Y-108231819D01*
X134191224Y-108171343D01*
X134324271Y-108110867D01*
X134523843Y-108110867D01*
X134656890Y-108171343D01*
X134723414Y-108231819D01*
X134789938Y-108352772D01*
X134789938Y-108836581D01*
X134058176Y-107687533D02*
X134058176Y-106840867D01*
X135455176Y-107385152D01*
X128566333Y-82115176D02*
X128143000Y-81449938D01*
X127840619Y-82115176D02*
X127840619Y-80718176D01*
X128324428Y-80718176D01*
X128445381Y-80784700D01*
X128505857Y-80851224D01*
X128566333Y-80984271D01*
X128566333Y-81183843D01*
X128505857Y-81316890D01*
X128445381Y-81383414D01*
X128324428Y-81449938D01*
X127840619Y-81449938D01*
X129292048Y-81316890D02*
X129171095Y-81250367D01*
X129110619Y-81183843D01*
X129050143Y-81050795D01*
X129050143Y-80984271D01*
X129110619Y-80851224D01*
X129171095Y-80784700D01*
X129292048Y-80718176D01*
X129533952Y-80718176D01*
X129654905Y-80784700D01*
X129715381Y-80851224D01*
X129775857Y-80984271D01*
X129775857Y-81050795D01*
X129715381Y-81183843D01*
X129654905Y-81250367D01*
X129533952Y-81316890D01*
X129292048Y-81316890D01*
X129171095Y-81383414D01*
X129110619Y-81449938D01*
X129050143Y-81582986D01*
X129050143Y-81849081D01*
X129110619Y-81982129D01*
X129171095Y-82048652D01*
X129292048Y-82115176D01*
X129533952Y-82115176D01*
X129654905Y-82048652D01*
X129715381Y-81982129D01*
X129775857Y-81849081D01*
X129775857Y-81582986D01*
X129715381Y-81449938D01*
X129654905Y-81383414D01*
X129533952Y-81316890D01*
X144249019Y-124558213D02*
X143765210Y-124896879D01*
X144249019Y-125138784D02*
X143233019Y-125138784D01*
X143233019Y-124751737D01*
X143281400Y-124654975D01*
X143329781Y-124606594D01*
X143426543Y-124558213D01*
X143571686Y-124558213D01*
X143668448Y-124606594D01*
X143716829Y-124654975D01*
X143765210Y-124751737D01*
X143765210Y-125138784D01*
X144249019Y-123542213D02*
X143765210Y-123880879D01*
X144249019Y-124122784D02*
X143233019Y-124122784D01*
X143233019Y-123735737D01*
X143281400Y-123638975D01*
X143329781Y-123590594D01*
X143426543Y-123542213D01*
X143571686Y-123542213D01*
X143668448Y-123590594D01*
X143716829Y-123638975D01*
X143765210Y-123735737D01*
X143765210Y-124122784D01*
X144249019Y-122574594D02*
X144249019Y-123155165D01*
X144249019Y-122864879D02*
X143233019Y-122864879D01*
X143378162Y-122961641D01*
X143474924Y-123058403D01*
X143523305Y-123155165D01*
D13*
X109990095Y-122642381D02*
X110561524Y-122642381D01*
X110275809Y-123642381D02*
X110275809Y-122642381D01*
X111466286Y-123642381D02*
X111132952Y-123166190D01*
X110894857Y-123642381D02*
X110894857Y-122642381D01*
X111275810Y-122642381D01*
X111371048Y-122690000D01*
X111418667Y-122737619D01*
X111466286Y-122832857D01*
X111466286Y-122975714D01*
X111418667Y-123070952D01*
X111371048Y-123118571D01*
X111275810Y-123166190D01*
X110894857Y-123166190D01*
X112418667Y-123642381D02*
X111847238Y-123642381D01*
X112132952Y-123642381D02*
X112132952Y-122642381D01*
X112037714Y-122785238D01*
X111942476Y-122880476D01*
X111847238Y-122928095D01*
D21*
X103842457Y-97705333D02*
X103890838Y-97753714D01*
X103939219Y-97898857D01*
X103939219Y-97995619D01*
X103890838Y-98140761D01*
X103794076Y-98237523D01*
X103697314Y-98285904D01*
X103503790Y-98334285D01*
X103358648Y-98334285D01*
X103165124Y-98285904D01*
X103068362Y-98237523D01*
X102971600Y-98140761D01*
X102923219Y-97995619D01*
X102923219Y-97898857D01*
X102971600Y-97753714D01*
X103019981Y-97705333D01*
X102923219Y-96786095D02*
X102923219Y-97269904D01*
X103407029Y-97318285D01*
X103358648Y-97269904D01*
X103310267Y-97173142D01*
X103310267Y-96931238D01*
X103358648Y-96834476D01*
X103407029Y-96786095D01*
X103503790Y-96737714D01*
X103745695Y-96737714D01*
X103842457Y-96786095D01*
X103890838Y-96834476D01*
X103939219Y-96931238D01*
X103939219Y-97173142D01*
X103890838Y-97269904D01*
X103842457Y-97318285D01*
X103791657Y-102632933D02*
X103840038Y-102681314D01*
X103888419Y-102826457D01*
X103888419Y-102923219D01*
X103840038Y-103068361D01*
X103743276Y-103165123D01*
X103646514Y-103213504D01*
X103452990Y-103261885D01*
X103307848Y-103261885D01*
X103114324Y-103213504D01*
X103017562Y-103165123D01*
X102920800Y-103068361D01*
X102872419Y-102923219D01*
X102872419Y-102826457D01*
X102920800Y-102681314D01*
X102969181Y-102632933D01*
X102872419Y-101762076D02*
X102872419Y-101955599D01*
X102920800Y-102052361D01*
X102969181Y-102100742D01*
X103114324Y-102197504D01*
X103307848Y-102245885D01*
X103694895Y-102245885D01*
X103791657Y-102197504D01*
X103840038Y-102149123D01*
X103888419Y-102052361D01*
X103888419Y-101858838D01*
X103840038Y-101762076D01*
X103791657Y-101713695D01*
X103694895Y-101665314D01*
X103452990Y-101665314D01*
X103356229Y-101713695D01*
X103307848Y-101762076D01*
X103259467Y-101858838D01*
X103259467Y-102052361D01*
X103307848Y-102149123D01*
X103356229Y-102197504D01*
X103452990Y-102245885D01*
D20*
X113200014Y-113547457D02*
X113200014Y-112347457D01*
X113438109Y-112347457D01*
X113580967Y-112404600D01*
X113676205Y-112518886D01*
X113723824Y-112633171D01*
X113771443Y-112861743D01*
X113771443Y-113033171D01*
X113723824Y-113261743D01*
X113676205Y-113376029D01*
X113580967Y-113490314D01*
X113438109Y-113547457D01*
X113200014Y-113547457D01*
X114723824Y-113547457D02*
X114152395Y-113547457D01*
X114438109Y-113547457D02*
X114438109Y-112347457D01*
X114342871Y-112518886D01*
X114247633Y-112633171D01*
X114152395Y-112690314D01*
X115342871Y-112347457D02*
X115438110Y-112347457D01*
X115533348Y-112404600D01*
X115580967Y-112461743D01*
X115628586Y-112576029D01*
X115676205Y-112804600D01*
X115676205Y-113090314D01*
X115628586Y-113318886D01*
X115580967Y-113433171D01*
X115533348Y-113490314D01*
X115438110Y-113547457D01*
X115342871Y-113547457D01*
X115247633Y-113490314D01*
X115200014Y-113433171D01*
X115152395Y-113318886D01*
X115104776Y-113090314D01*
X115104776Y-112804600D01*
X115152395Y-112576029D01*
X115200014Y-112461743D01*
X115247633Y-112404600D01*
X115342871Y-112347457D01*
D13*
X107650114Y-104490781D02*
X107650114Y-103490781D01*
X107888209Y-103490781D01*
X108031067Y-103538400D01*
X108126305Y-103633638D01*
X108173924Y-103728876D01*
X108221543Y-103919352D01*
X108221543Y-104062210D01*
X108173924Y-104252686D01*
X108126305Y-104347924D01*
X108031067Y-104443162D01*
X107888209Y-104490781D01*
X107650114Y-104490781D01*
X109173924Y-104490781D02*
X108602495Y-104490781D01*
X108888209Y-104490781D02*
X108888209Y-103490781D01*
X108792971Y-103633638D01*
X108697733Y-103728876D01*
X108602495Y-103776495D01*
X110126305Y-104490781D02*
X109554876Y-104490781D01*
X109840590Y-104490781D02*
X109840590Y-103490781D01*
X109745352Y-103633638D01*
X109650114Y-103728876D01*
X109554876Y-103776495D01*
X109811981Y-98952705D02*
X108811981Y-98952705D01*
X109811981Y-98381276D02*
X109240552Y-98809848D01*
X108811981Y-98381276D02*
X109383410Y-98952705D01*
D22*
X124925667Y-84476167D02*
X124925667Y-83587167D01*
X125857000Y-84391500D02*
X125814666Y-84433833D01*
X125687666Y-84476167D01*
X125603000Y-84476167D01*
X125476000Y-84433833D01*
X125391333Y-84349167D01*
X125349000Y-84264500D01*
X125306666Y-84095167D01*
X125306666Y-83968167D01*
X125349000Y-83798833D01*
X125391333Y-83714167D01*
X125476000Y-83629500D01*
X125603000Y-83587167D01*
X125687666Y-83587167D01*
X125814666Y-83629500D01*
X125857000Y-83671833D01*
X126195666Y-84433833D02*
X126322666Y-84476167D01*
X126534333Y-84476167D01*
X126619000Y-84433833D01*
X126661333Y-84391500D01*
X126703666Y-84306833D01*
X126703666Y-84222167D01*
X126661333Y-84137500D01*
X126619000Y-84095167D01*
X126534333Y-84052833D01*
X126365000Y-84010500D01*
X126280333Y-83968167D01*
X126238000Y-83925833D01*
X126195666Y-83841167D01*
X126195666Y-83756500D01*
X126238000Y-83671833D01*
X126280333Y-83629500D01*
X126365000Y-83587167D01*
X126576666Y-83587167D01*
X126703666Y-83629500D01*
X127084667Y-84476167D02*
X127084667Y-83587167D01*
X127423333Y-83587167D01*
X127508000Y-83629500D01*
X127550333Y-83671833D01*
X127592667Y-83756500D01*
X127592667Y-83883500D01*
X127550333Y-83968167D01*
X127508000Y-84010500D01*
X127423333Y-84052833D01*
X127084667Y-84052833D01*
D16*
D12*
X95412858Y-87444971D02*
X95412858Y-85944971D01*
X95984286Y-85944971D01*
X96127144Y-86016400D01*
X96198572Y-86087829D01*
X96270001Y-86230686D01*
X96270001Y-86444971D01*
X96198572Y-86587829D01*
X96127144Y-86659257D01*
X95984286Y-86730686D01*
X95412858Y-86730686D01*
X97555715Y-85944971D02*
X97270001Y-85944971D01*
X97127144Y-86016400D01*
X97055715Y-86087829D01*
X96912858Y-86302114D01*
X96841429Y-86587829D01*
X96841429Y-87159257D01*
X96912858Y-87302114D01*
X96984286Y-87373543D01*
X97127144Y-87444971D01*
X97412858Y-87444971D01*
X97555715Y-87373543D01*
X97627144Y-87302114D01*
X97698572Y-87159257D01*
X97698572Y-86802114D01*
X97627144Y-86659257D01*
X97555715Y-86587829D01*
X97412858Y-86516400D01*
X97127144Y-86516400D01*
X96984286Y-86587829D01*
X96912858Y-86659257D01*
X96841429Y-86802114D01*
D20*
X105568762Y-98955143D02*
X105473524Y-98898000D01*
X105378286Y-98783714D01*
X105235429Y-98612286D01*
X105140190Y-98555143D01*
X105044952Y-98555143D01*
X105092571Y-98840857D02*
X104997333Y-98783714D01*
X104902095Y-98669429D01*
X104854476Y-98440857D01*
X104854476Y-98040857D01*
X104902095Y-97812286D01*
X104997333Y-97698000D01*
X105092571Y-97640857D01*
X105283048Y-97640857D01*
X105378286Y-97698000D01*
X105473524Y-97812286D01*
X105521143Y-98040857D01*
X105521143Y-98440857D01*
X105473524Y-98669429D01*
X105378286Y-98783714D01*
X105283048Y-98840857D01*
X105092571Y-98840857D01*
X105854476Y-97640857D02*
X106473524Y-97640857D01*
X106140190Y-98098000D01*
X106283048Y-98098000D01*
X106378286Y-98155143D01*
X106425905Y-98212286D01*
X106473524Y-98326571D01*
X106473524Y-98612286D01*
X106425905Y-98726571D01*
X106378286Y-98783714D01*
X106283048Y-98840857D01*
X105997333Y-98840857D01*
X105902095Y-98783714D01*
X105854476Y-98726571D01*
D21*
X104080733Y-111248976D02*
X103657400Y-110583738D01*
X103355019Y-111248976D02*
X103355019Y-109851976D01*
X103838828Y-109851976D01*
X103959781Y-109918500D01*
X104020257Y-109985024D01*
X104080733Y-110118071D01*
X104080733Y-110317643D01*
X104020257Y-110450690D01*
X103959781Y-110517214D01*
X103838828Y-110583738D01*
X103355019Y-110583738D01*
X104685495Y-111248976D02*
X104927400Y-111248976D01*
X105048352Y-111182452D01*
X105108828Y-111115929D01*
X105229781Y-110916357D01*
X105290257Y-110650262D01*
X105290257Y-110118071D01*
X105229781Y-109985024D01*
X105169305Y-109918500D01*
X105048352Y-109851976D01*
X104806448Y-109851976D01*
X104685495Y-109918500D01*
X104625019Y-109985024D01*
X104564543Y-110118071D01*
X104564543Y-110450690D01*
X104625019Y-110583738D01*
X104685495Y-110650262D01*
X104806448Y-110716786D01*
X105048352Y-110716786D01*
X105169305Y-110650262D01*
X105229781Y-110583738D01*
X105290257Y-110450690D01*
X107235776Y-92281829D02*
X106570538Y-92705162D01*
X107235776Y-93007543D02*
X105838776Y-93007543D01*
X105838776Y-92523734D01*
X105905300Y-92402781D01*
X105971824Y-92342305D01*
X106104871Y-92281829D01*
X106304443Y-92281829D01*
X106437490Y-92342305D01*
X106504014Y-92402781D01*
X106570538Y-92523734D01*
X106570538Y-93007543D01*
X107235776Y-91072305D02*
X107235776Y-91798019D01*
X107235776Y-91435162D02*
X105838776Y-91435162D01*
X106038348Y-91556114D01*
X106171395Y-91677067D01*
X106237919Y-91798019D01*
X105838776Y-90286114D02*
X105838776Y-90165162D01*
X105905300Y-90044210D01*
X105971824Y-89983733D01*
X106104871Y-89923257D01*
X106370967Y-89862781D01*
X106703586Y-89862781D01*
X106969681Y-89923257D01*
X107102729Y-89983733D01*
X107169252Y-90044210D01*
X107235776Y-90165162D01*
X107235776Y-90286114D01*
X107169252Y-90407067D01*
X107102729Y-90467543D01*
X106969681Y-90528019D01*
X106703586Y-90588495D01*
X106370967Y-90588495D01*
X106104871Y-90528019D01*
X105971824Y-90467543D01*
X105905300Y-90407067D01*
X105838776Y-90286114D01*
X105000576Y-92307229D02*
X104335338Y-92730562D01*
X105000576Y-93032943D02*
X103603576Y-93032943D01*
X103603576Y-92549134D01*
X103670100Y-92428181D01*
X103736624Y-92367705D01*
X103869671Y-92307229D01*
X104069243Y-92307229D01*
X104202290Y-92367705D01*
X104268814Y-92428181D01*
X104335338Y-92549134D01*
X104335338Y-93032943D01*
X105000576Y-91097705D02*
X105000576Y-91823419D01*
X105000576Y-91460562D02*
X103603576Y-91460562D01*
X103803148Y-91581514D01*
X103936195Y-91702467D01*
X104002719Y-91823419D01*
X105000576Y-89888181D02*
X105000576Y-90613895D01*
X105000576Y-90251038D02*
X103603576Y-90251038D01*
X103803148Y-90371990D01*
X103936195Y-90492943D01*
X104002719Y-90613895D01*
X109445576Y-92256429D02*
X108780338Y-92679762D01*
X109445576Y-92982143D02*
X108048576Y-92982143D01*
X108048576Y-92498334D01*
X108115100Y-92377381D01*
X108181624Y-92316905D01*
X108314671Y-92256429D01*
X108514243Y-92256429D01*
X108647290Y-92316905D01*
X108713814Y-92377381D01*
X108780338Y-92498334D01*
X108780338Y-92982143D01*
X109445576Y-91046905D02*
X109445576Y-91772619D01*
X109445576Y-91409762D02*
X108048576Y-91409762D01*
X108248148Y-91530714D01*
X108381195Y-91651667D01*
X108447719Y-91772619D01*
X108181624Y-90563095D02*
X108115100Y-90502619D01*
X108048576Y-90381667D01*
X108048576Y-90079286D01*
X108115100Y-89958333D01*
X108181624Y-89897857D01*
X108314671Y-89837381D01*
X108447719Y-89837381D01*
X108647290Y-89897857D01*
X109445576Y-90623571D01*
X109445576Y-89837381D01*
X111629976Y-92281829D02*
X110964738Y-92705162D01*
X111629976Y-93007543D02*
X110232976Y-93007543D01*
X110232976Y-92523734D01*
X110299500Y-92402781D01*
X110366024Y-92342305D01*
X110499071Y-92281829D01*
X110698643Y-92281829D01*
X110831690Y-92342305D01*
X110898214Y-92402781D01*
X110964738Y-92523734D01*
X110964738Y-93007543D01*
X111629976Y-91072305D02*
X111629976Y-91798019D01*
X111629976Y-91435162D02*
X110232976Y-91435162D01*
X110432548Y-91556114D01*
X110565595Y-91677067D01*
X110632119Y-91798019D01*
X110698643Y-89983733D02*
X111629976Y-89983733D01*
X110166452Y-90286114D02*
X111164310Y-90588495D01*
X111164310Y-89802305D01*
X102790776Y-92307229D02*
X102125538Y-92730562D01*
X102790776Y-93032943D02*
X101393776Y-93032943D01*
X101393776Y-92549134D01*
X101460300Y-92428181D01*
X101526824Y-92367705D01*
X101659871Y-92307229D01*
X101859443Y-92307229D01*
X101992490Y-92367705D01*
X102059014Y-92428181D01*
X102125538Y-92549134D01*
X102125538Y-93032943D01*
X102790776Y-91097705D02*
X102790776Y-91823419D01*
X102790776Y-91460562D02*
X101393776Y-91460562D01*
X101593348Y-91581514D01*
X101726395Y-91702467D01*
X101792919Y-91823419D01*
X101393776Y-89948657D02*
X101393776Y-90553419D01*
X102059014Y-90613895D01*
X101992490Y-90553419D01*
X101925967Y-90432467D01*
X101925967Y-90130086D01*
X101992490Y-90009133D01*
X102059014Y-89948657D01*
X102192062Y-89888181D01*
X102524681Y-89888181D01*
X102657729Y-89948657D01*
X102724252Y-90009133D01*
X102790776Y-90130086D01*
X102790776Y-90432467D01*
X102724252Y-90553419D01*
X102657729Y-90613895D01*
D13*
X134796305Y-98902781D02*
X134796305Y-97902781D01*
X135177258Y-97902781D01*
X135272496Y-97950400D01*
X135320115Y-97998019D01*
X135367734Y-98093257D01*
X135367734Y-98236114D01*
X135320115Y-98331352D01*
X135272496Y-98378971D01*
X135177258Y-98426590D01*
X134796305Y-98426590D01*
X135701067Y-97902781D02*
X136367734Y-97902781D01*
X135939162Y-98902781D01*
D16*
X133077857Y-121314029D02*
X133077857Y-122547743D01*
X133150429Y-122692886D01*
X133223000Y-122765457D01*
X133368143Y-122838029D01*
X133658429Y-122838029D01*
X133803571Y-122765457D01*
X133876143Y-122692886D01*
X133948714Y-122547743D01*
X133948714Y-121314029D01*
X134601857Y-121459171D02*
X134674428Y-121386600D01*
X134819571Y-121314029D01*
X135182428Y-121314029D01*
X135327571Y-121386600D01*
X135400142Y-121459171D01*
X135472714Y-121604314D01*
X135472714Y-121749457D01*
X135400142Y-121967171D01*
X134529285Y-122838029D01*
X135472714Y-122838029D01*
D20*
X98348895Y-95304057D02*
X98348895Y-96275486D01*
X98396514Y-96389771D01*
X98444133Y-96446914D01*
X98539371Y-96504057D01*
X98729848Y-96504057D01*
X98825086Y-96446914D01*
X98872705Y-96389771D01*
X98920324Y-96275486D01*
X98920324Y-95304057D01*
X99872705Y-95304057D02*
X99396514Y-95304057D01*
X99348895Y-95875486D01*
X99396514Y-95818343D01*
X99491752Y-95761200D01*
X99729848Y-95761200D01*
X99825086Y-95818343D01*
X99872705Y-95875486D01*
X99920324Y-95989771D01*
X99920324Y-96275486D01*
X99872705Y-96389771D01*
X99825086Y-96446914D01*
X99729848Y-96504057D01*
X99491752Y-96504057D01*
X99396514Y-96446914D01*
X99348895Y-96389771D01*
D18*
X117556643Y-102606929D02*
X117556643Y-103840643D01*
X117611071Y-103985786D01*
X117665500Y-104058357D01*
X117774357Y-104130929D01*
X117992071Y-104130929D01*
X118100929Y-104058357D01*
X118155357Y-103985786D01*
X118209786Y-103840643D01*
X118209786Y-102606929D01*
X119243929Y-103114929D02*
X119243929Y-104130929D01*
X118971786Y-102534357D02*
X118699643Y-103622929D01*
X119407215Y-103622929D01*
D19*
D20*
X121322091Y-105119584D02*
X121322091Y-105310061D01*
X121393520Y-105405299D01*
X121464949Y-105452918D01*
X121679234Y-105548156D01*
X121964949Y-105595775D01*
X122536377Y-105595775D01*
X122679234Y-105548156D01*
X122750663Y-105500537D01*
X122822091Y-105405299D01*
X122822091Y-105214822D01*
X122750663Y-105119584D01*
X122679234Y-105071965D01*
X122536377Y-105024346D01*
X122179234Y-105024346D01*
X122036377Y-105071965D01*
X121964949Y-105119584D01*
X121893520Y-105214822D01*
X121893520Y-105405299D01*
X121964949Y-105500537D01*
X122036377Y-105548156D01*
X122179234Y-105595775D01*
X122822091Y-104595775D02*
X121322091Y-104595775D01*
X122822091Y-104024346D01*
X121322091Y-104024346D01*
X122822091Y-103024346D02*
X122822091Y-103595775D01*
X122822091Y-103310061D02*
X121322091Y-103310061D01*
X121536377Y-103405299D01*
X121679234Y-103500537D01*
X121750663Y-103595775D01*
X121322091Y-102691013D02*
X121322091Y-102071965D01*
X121893520Y-102405299D01*
X121893520Y-102262441D01*
X121964949Y-102167203D01*
X122036377Y-102119584D01*
X122179234Y-102071965D01*
X122536377Y-102071965D01*
X122679234Y-102119584D01*
X122750663Y-102167203D01*
X122822091Y-102262441D01*
X122822091Y-102548156D01*
X122750663Y-102643394D01*
X122679234Y-102691013D01*
X121322091Y-101738632D02*
X121322091Y-101071965D01*
X122822091Y-101500537D01*
X143025905Y-87385457D02*
X143025905Y-86185457D01*
X143406858Y-86185457D01*
X143502096Y-86242600D01*
X143549715Y-86299743D01*
X143597334Y-86414029D01*
X143597334Y-86585457D01*
X143549715Y-86699743D01*
X143502096Y-86756886D01*
X143406858Y-86814029D01*
X143025905Y-86814029D01*
X144454477Y-86585457D02*
X144454477Y-87385457D01*
X144216381Y-86128314D02*
X143978286Y-86985457D01*
X144597334Y-86985457D01*
D16*
X147777200Y-97340057D02*
X147704629Y-97485200D01*
X147704629Y-97702914D01*
X147777200Y-97920629D01*
X147922343Y-98065771D01*
X148067486Y-98138343D01*
X148357771Y-98210914D01*
X148575486Y-98210914D01*
X148865771Y-98138343D01*
X149010914Y-98065771D01*
X149156057Y-97920629D01*
X149228629Y-97702914D01*
X149228629Y-97557771D01*
X149156057Y-97340057D01*
X149083486Y-97267486D01*
X148575486Y-97267486D01*
X148575486Y-97557771D01*
X149228629Y-96614343D02*
X148212629Y-96614343D01*
X148502914Y-96614343D02*
X148357771Y-96541771D01*
X148285200Y-96469200D01*
X148212629Y-96324057D01*
X148212629Y-96178914D01*
X149228629Y-95453200D02*
X149156057Y-95598342D01*
X149083486Y-95670914D01*
X148938343Y-95743485D01*
X148502914Y-95743485D01*
X148357771Y-95670914D01*
X148285200Y-95598342D01*
X148212629Y-95453200D01*
X148212629Y-95235485D01*
X148285200Y-95090342D01*
X148357771Y-95017771D01*
X148502914Y-94945200D01*
X148938343Y-94945200D01*
X149083486Y-95017771D01*
X149156057Y-95090342D01*
X149228629Y-95235485D01*
X149228629Y-95453200D01*
X148212629Y-94437200D02*
X149228629Y-94074343D01*
X148212629Y-93711485D01*
X149156057Y-92550342D02*
X149228629Y-92695485D01*
X149228629Y-92985771D01*
X149156057Y-93130914D01*
X149010914Y-93203485D01*
X148430343Y-93203485D01*
X148285200Y-93130914D01*
X148212629Y-92985771D01*
X148212629Y-92695485D01*
X148285200Y-92550342D01*
X148430343Y-92477771D01*
X148575486Y-92477771D01*
X148720629Y-93203485D01*
X149228629Y-90663485D02*
X147704629Y-90663485D01*
X147849771Y-90010342D02*
X147777200Y-89937771D01*
X147704629Y-89792628D01*
X147704629Y-89429771D01*
X147777200Y-89284628D01*
X147849771Y-89212057D01*
X147994914Y-89139485D01*
X148140057Y-89139485D01*
X148357771Y-89212057D01*
X149228629Y-90082914D01*
X149228629Y-89139485D01*
X149083486Y-87615485D02*
X149156057Y-87688056D01*
X149228629Y-87905770D01*
X149228629Y-88050913D01*
X149156057Y-88268628D01*
X149010914Y-88413770D01*
X148865771Y-88486342D01*
X148575486Y-88558913D01*
X148357771Y-88558913D01*
X148067486Y-88486342D01*
X147922343Y-88413770D01*
X147777200Y-88268628D01*
X147704629Y-88050913D01*
X147704629Y-87905770D01*
X147777200Y-87688056D01*
X147849771Y-87615485D01*
D20*
X131390971Y-114263466D02*
X131448114Y-114311085D01*
X131505257Y-114453942D01*
X131505257Y-114549180D01*
X131448114Y-114692038D01*
X131333829Y-114787276D01*
X131219543Y-114834895D01*
X130990971Y-114882514D01*
X130819543Y-114882514D01*
X130590971Y-114834895D01*
X130476686Y-114787276D01*
X130362400Y-114692038D01*
X130305257Y-114549180D01*
X130305257Y-114453942D01*
X130362400Y-114311085D01*
X130419543Y-114263466D01*
X130305257Y-113930133D02*
X130305257Y-113311085D01*
X130762400Y-113644419D01*
X130762400Y-113501561D01*
X130819543Y-113406323D01*
X130876686Y-113358704D01*
X130990971Y-113311085D01*
X131276686Y-113311085D01*
X131390971Y-113358704D01*
X131448114Y-113406323D01*
X131505257Y-113501561D01*
X131505257Y-113787276D01*
X131448114Y-113882514D01*
X131390971Y-113930133D01*
X138199905Y-87512457D02*
X138199905Y-86312457D01*
X138580858Y-86312457D01*
X138676096Y-86369600D01*
X138723715Y-86426743D01*
X138771334Y-86541029D01*
X138771334Y-86712457D01*
X138723715Y-86826743D01*
X138676096Y-86883886D01*
X138580858Y-86941029D01*
X138199905Y-86941029D01*
X139342762Y-86826743D02*
X139247524Y-86769600D01*
X139199905Y-86712457D01*
X139152286Y-86598171D01*
X139152286Y-86541029D01*
X139199905Y-86426743D01*
X139247524Y-86369600D01*
X139342762Y-86312457D01*
X139533239Y-86312457D01*
X139628477Y-86369600D01*
X139676096Y-86426743D01*
X139723715Y-86541029D01*
X139723715Y-86598171D01*
X139676096Y-86712457D01*
X139628477Y-86769600D01*
X139533239Y-86826743D01*
X139342762Y-86826743D01*
X139247524Y-86883886D01*
X139199905Y-86941029D01*
X139152286Y-87055314D01*
X139152286Y-87283886D01*
X139199905Y-87398171D01*
X139247524Y-87455314D01*
X139342762Y-87512457D01*
X139533239Y-87512457D01*
X139628477Y-87455314D01*
X139676096Y-87398171D01*
X139723715Y-87283886D01*
X139723715Y-87055314D01*
X139676096Y-86941029D01*
X139628477Y-86883886D01*
X139533239Y-86826743D01*
D16*
X145567400Y-98207286D02*
X145494829Y-98352429D01*
X145494829Y-98570143D01*
X145567400Y-98787858D01*
X145712543Y-98933000D01*
X145857686Y-99005572D01*
X146147971Y-99078143D01*
X146365686Y-99078143D01*
X146655971Y-99005572D01*
X146801114Y-98933000D01*
X146946257Y-98787858D01*
X147018829Y-98570143D01*
X147018829Y-98425000D01*
X146946257Y-98207286D01*
X146873686Y-98134715D01*
X146365686Y-98134715D01*
X146365686Y-98425000D01*
X147018829Y-97481572D02*
X146002829Y-97481572D01*
X146293114Y-97481572D02*
X146147971Y-97409000D01*
X146075400Y-97336429D01*
X146002829Y-97191286D01*
X146002829Y-97046143D01*
X147018829Y-96320429D02*
X146946257Y-96465571D01*
X146873686Y-96538143D01*
X146728543Y-96610714D01*
X146293114Y-96610714D01*
X146147971Y-96538143D01*
X146075400Y-96465571D01*
X146002829Y-96320429D01*
X146002829Y-96102714D01*
X146075400Y-95957571D01*
X146147971Y-95885000D01*
X146293114Y-95812429D01*
X146728543Y-95812429D01*
X146873686Y-95885000D01*
X146946257Y-95957571D01*
X147018829Y-96102714D01*
X147018829Y-96320429D01*
X146002829Y-95304429D02*
X147018829Y-94941572D01*
X146002829Y-94578714D01*
X146946257Y-93417571D02*
X147018829Y-93562714D01*
X147018829Y-93853000D01*
X146946257Y-93998143D01*
X146801114Y-94070714D01*
X146220543Y-94070714D01*
X146075400Y-93998143D01*
X146002829Y-93853000D01*
X146002829Y-93562714D01*
X146075400Y-93417571D01*
X146220543Y-93345000D01*
X146365686Y-93345000D01*
X146510829Y-94070714D01*
X145494829Y-91530714D02*
X146728543Y-91530714D01*
X146873686Y-91458142D01*
X146946257Y-91385571D01*
X147018829Y-91240428D01*
X147018829Y-90950142D01*
X146946257Y-90805000D01*
X146873686Y-90732428D01*
X146728543Y-90659857D01*
X145494829Y-90659857D01*
X146583400Y-90006714D02*
X146583400Y-89281000D01*
X147018829Y-90151857D02*
X145494829Y-89643857D01*
X147018829Y-89135857D01*
X147018829Y-87757000D02*
X146293114Y-88265000D01*
X147018829Y-88627857D02*
X145494829Y-88627857D01*
X145494829Y-88047285D01*
X145567400Y-87902143D01*
X145639971Y-87829571D01*
X145785114Y-87757000D01*
X146002829Y-87757000D01*
X146147971Y-87829571D01*
X146220543Y-87902143D01*
X146293114Y-88047285D01*
X146293114Y-88627857D01*
X145494829Y-87321571D02*
X145494829Y-86450714D01*
X147018829Y-86886143D02*
X145494829Y-86886143D01*
D13*
X116903667Y-83475462D02*
X117046524Y-83523081D01*
X117284620Y-83523081D01*
X117379858Y-83475462D01*
X117427477Y-83427843D01*
X117475096Y-83332605D01*
X117475096Y-83237367D01*
X117427477Y-83142129D01*
X117379858Y-83094510D01*
X117284620Y-83046890D01*
X117094143Y-82999271D01*
X116998905Y-82951652D01*
X116951286Y-82904033D01*
X116903667Y-82808795D01*
X116903667Y-82713557D01*
X116951286Y-82618319D01*
X116998905Y-82570700D01*
X117094143Y-82523081D01*
X117332239Y-82523081D01*
X117475096Y-82570700D01*
X117808429Y-82523081D02*
X118046524Y-83523081D01*
X118237001Y-82808795D01*
X118427477Y-83523081D01*
X118665572Y-82523081D01*
X119570334Y-83523081D02*
X118998905Y-83523081D01*
X119284619Y-83523081D02*
X119284619Y-82523081D01*
X119189381Y-82665938D01*
X119094143Y-82761176D01*
X118998905Y-82808795D01*
X141308081Y-119648195D02*
X140308081Y-119648195D01*
X140308081Y-119267242D01*
X140355700Y-119172004D01*
X140403319Y-119124385D01*
X140498557Y-119076766D01*
X140641414Y-119076766D01*
X140736652Y-119124385D01*
X140784271Y-119172004D01*
X140831890Y-119267242D01*
X140831890Y-119648195D01*
X141308081Y-118600576D02*
X141308081Y-118410100D01*
X141260462Y-118314861D01*
X141212843Y-118267242D01*
X141069986Y-118172004D01*
X140879510Y-118124385D01*
X140498557Y-118124385D01*
X140403319Y-118172004D01*
X140355700Y-118219623D01*
X140308081Y-118314861D01*
X140308081Y-118505338D01*
X140355700Y-118600576D01*
X140403319Y-118648195D01*
X140498557Y-118695814D01*
X140736652Y-118695814D01*
X140831890Y-118648195D01*
X140879510Y-118600576D01*
X140927129Y-118505338D01*
X140927129Y-118314861D01*
X140879510Y-118219623D01*
X140831890Y-118172004D01*
X140736652Y-118124385D01*
D20*
X138422214Y-84400957D02*
X138422214Y-83200957D01*
X138660309Y-83200957D01*
X138803167Y-83258100D01*
X138898405Y-83372386D01*
X138946024Y-83486671D01*
X138993643Y-83715243D01*
X138993643Y-83886671D01*
X138946024Y-84115243D01*
X138898405Y-84229529D01*
X138803167Y-84343814D01*
X138660309Y-84400957D01*
X138422214Y-84400957D01*
X139946024Y-84400957D02*
X139374595Y-84400957D01*
X139660309Y-84400957D02*
X139660309Y-83200957D01*
X139565071Y-83372386D01*
X139469833Y-83486671D01*
X139374595Y-83543814D01*
X140326976Y-83315243D02*
X140374595Y-83258100D01*
X140469833Y-83200957D01*
X140707929Y-83200957D01*
X140803167Y-83258100D01*
X140850786Y-83315243D01*
X140898405Y-83429529D01*
X140898405Y-83543814D01*
X140850786Y-83715243D01*
X140279357Y-84400957D01*
X140898405Y-84400957D01*
M02*
