M48
;DRILL file {KiCad 4.0.2+dfsg1-stable} date Sa 04 Feb 2017 00:26:06 CET
;FORMAT={-:-/ absolute / inch / decimal}
FMAT,2
INCH,TZ
T1C0.016
T2C0.026
T3C0.028
T4C0.028
T5C0.030
T6C0.031
T7C0.032
T8C0.032
T9C0.035
T10C0.039
T11C0.040
T12C0.047
T13C0.049
T14C0.059
T15C0.122
%
G90
G05
M72
T1
X4.076Y-4.62
X4.46Y-3.599
X4.5Y-3.57
X4.5Y-3.68
X4.52Y-4.416
X4.55Y-4.2938
X4.59Y-4.31
X4.64Y-3.64
X4.714Y-3.747
X4.719Y-3.419
X4.748Y-4.404
X4.792Y-3.731
X4.8041Y-3.3255
X4.819Y-3.595
X4.91Y-4.
X4.912Y-3.586
X4.966Y-4.125
X5.038Y-4.398
X5.08Y-4.02
X5.12Y-3.743
X5.196Y-3.624
X5.28Y-4.16
X5.32Y-4.19
X5.477Y-3.858
X5.486Y-3.707
T2
X5.276Y-4.5005
X5.276Y-4.5595
T3
X4.4675Y-3.3305
X5.271Y-3.469
T4
X5.337Y-3.5372
X5.337Y-3.616
X5.337Y-3.6948
X5.337Y-3.7735
X5.63Y-3.5392
X5.63Y-3.618
X5.63Y-3.6968
X5.63Y-3.7755
T5
X4.892Y-3.388
X4.992Y-3.396
X5.092Y-3.388
X5.192Y-3.396
X5.292Y-3.388
X5.392Y-3.396
T6
X3.79Y-4.246
X3.79Y-4.546
X3.878Y-4.246
X3.878Y-4.546
X3.956Y-4.355
X3.956Y-4.444
X3.956Y-4.536
X3.956Y-4.618
X3.956Y-4.718
X3.99Y-3.856
X3.99Y-3.956
X3.99Y-4.056
X3.99Y-4.156
X4.022Y-3.452
X4.022Y-3.752
X4.082Y-4.166
X4.082Y-4.252
X4.109Y-3.452
X4.109Y-3.752
X4.129Y-3.936
X4.129Y-4.086
X4.197Y-3.451
X4.197Y-3.751
X4.229Y-4.011
X4.256Y-4.355
X4.256Y-4.444
X4.256Y-4.536
X4.268Y-3.854
X4.284Y-3.45
X4.284Y-3.75
X4.333Y-4.535
X4.335Y-4.355
X4.335Y-4.445
X4.368Y-3.854
X4.37Y-3.451
X4.37Y-3.751
X4.382Y-4.166
X4.382Y-4.252
X4.465Y-3.505
X4.465Y-3.805
X4.51Y-3.92
X4.51Y-4.22
X4.565Y-3.505
X4.565Y-3.805
X4.61Y-3.92
X4.61Y-4.22
X4.633Y-4.535
X4.635Y-4.355
X4.635Y-4.445
X4.665Y-3.505
X4.665Y-3.805
X4.71Y-3.92
X4.71Y-4.22
X4.714Y-4.732
X4.714Y-4.822
X4.726Y-4.326
X4.726Y-4.626
X4.765Y-3.505
X4.765Y-3.805
X4.81Y-3.92
X4.81Y-4.22
X4.826Y-4.326
X4.826Y-4.626
X4.865Y-3.505
X4.865Y-3.805
X4.905Y-3.905
X4.905Y-4.205
X4.92Y-3.208
X4.926Y-4.326
X4.926Y-4.626
X4.965Y-3.505
X4.965Y-3.805
X4.99Y-3.905
X4.99Y-4.205
X5.014Y-4.732
X5.014Y-4.822
X5.026Y-4.326
X5.026Y-4.626
X5.06Y-3.294
X5.065Y-3.505
X5.065Y-3.805
X5.075Y-3.905
X5.075Y-4.205
X5.138Y-4.486
X5.138Y-4.586
X5.152Y-4.098
X5.152Y-4.398
X5.157Y-4.021
X5.165Y-3.505
X5.165Y-3.805
X5.22Y-3.208
X5.23Y-4.098
X5.23Y-4.398
X5.232Y-3.921
X5.307Y-4.021
X5.308Y-4.098
X5.308Y-4.398
X5.36Y-3.294
X5.401Y-4.029
X5.476Y-4.129
X5.551Y-4.029
X5.644Y-4.048
X5.644Y-4.148
X5.644Y-4.248
X5.644Y-4.348
X5.644Y-4.448
X5.644Y-4.548
X5.644Y-4.648
X5.644Y-4.748
T7
X4.38Y-4.76
X4.38Y-4.94
T8
X4.505Y-3.2005
X4.505Y-3.4005
X4.805Y-3.2005
X4.805Y-3.4005
T9
X4.11Y-4.852
X4.61Y-4.852
T10
X4.374Y-3.952
X4.374Y-4.052
T11
X3.8Y-4.644
X3.8Y-4.744
X4.1055Y-3.2355
X4.1055Y-3.3355
X4.2055Y-3.2355
X4.2055Y-3.3355
X4.3055Y-3.2355
X4.3055Y-3.3355
X4.4055Y-3.2355
X4.4055Y-3.3355
X5.422Y-4.236
X5.422Y-4.336
X5.422Y-4.436
X5.428Y-4.564
X5.434Y-3.928
X5.522Y-4.236
X5.522Y-4.336
X5.522Y-4.436
X5.528Y-4.564
X5.534Y-3.928
X5.634Y-3.928
T12
X3.8596Y-3.5311
X3.8596Y-3.6689
X4.84Y-5.01
X5.04Y-5.01
T13
X3.848Y-3.856
X3.848Y-4.006
X3.848Y-4.156
X5.14Y-4.714
X5.29Y-4.714
X5.44Y-4.714
T14
X4.2419Y-5.0489
X4.4781Y-4.6551
T15
X3.937Y-3.2874
X3.937Y-4.8622
X5.5118Y-3.2874
X5.5118Y-4.8622
T0
M30
