G04 #@! TF.FileFunction,Copper,L1,Top,Signal*
%FSLAX46Y46*%
G04 Gerber Fmt 4.6, Leading zero omitted, Abs format (unit mm)*
G04 Created by KiCad (PCBNEW 4.0.2+dfsg1-stable) date Sa 04 Feb 2017 00:06:23 CET*
%MOMM*%
G01*
G04 APERTURE LIST*
%ADD10C,1.000000*%
%ADD11C,0.150000*%
%ADD12C,0.300000*%
%ADD13C,0.400000*%
%ADD14C,1.500000*%
%ADD15C,2.400000*%
%ADD16R,2.400000X2.400000*%
%ADD17C,5.000000*%
%ADD18C,1.750060*%
%ADD19O,1.501140X2.199640*%
%ADD20R,1.727200X1.727200*%
%ADD21O,1.727200X1.727200*%
%ADD22C,1.501140*%
%ADD23R,2.197100X1.524000*%
%ADD24O,2.197100X1.524000*%
%ADD25C,3.000000*%
%ADD26R,2.000000X2.000000*%
%ADD27C,2.000000*%
%ADD28R,1.600000X1.500000*%
%ADD29C,1.700000*%
%ADD30R,2.032000X2.032000*%
%ADD31O,2.032000X2.032000*%
%ADD32R,1.727200X2.032000*%
%ADD33O,1.727200X2.032000*%
%ADD34C,2.499360*%
%ADD35R,1.699260X1.198880*%
%ADD36O,1.699260X1.198880*%
%ADD37R,1.200000X1.200000*%
%ADD38C,1.200000*%
%ADD39C,1.397000*%
%ADD40C,0.600000*%
%ADD41C,0.304800*%
%ADD42C,0.500000*%
%ADD43C,0.600000*%
%ADD44C,0.700000*%
%ADD45C,0.900000*%
%ADD46C,0.508000*%
%ADD47C,2.500000*%
%ADD48C,0.254000*%
G04 APERTURE END LIST*
D10*
D11*
X177002200Y-166007200D02*
X177002200Y-198007200D01*
X285002200Y-198007200D01*
X285002200Y-166007200D01*
X177002200Y-166007200D01*
D10*
D11*
X10000000Y-10000000D02*
X10000000Y-200007200D01*
X287002200Y-200007200D01*
X287002200Y-10000000D01*
X10000000Y-10000000D01*
D10*
D11*
X12000000Y-12000000D02*
X12000000Y-198007200D01*
X285002200Y-198007200D01*
X285002200Y-12000000D01*
X12000000Y-12000000D01*
D10*
D11*
X60000000Y-12000000D02*
X60000000Y-10000000D01*
D10*
D11*
X110000000Y-12000000D02*
X110000000Y-10000000D01*
D10*
D11*
X160000000Y-12000000D02*
X160000000Y-10000000D01*
D10*
D11*
X210000000Y-12000000D02*
X210000000Y-10000000D01*
D10*
D11*
X260000000Y-12000000D02*
X260000000Y-10000000D01*
D10*
D11*
X35990476Y-11588095D02*
X35247619Y-11588095D01*
X35619048Y-11588095D02*
X35619048Y-10288095D01*
X35495238Y-10473810D01*
X35371429Y-10597619D01*
X35247619Y-10659524D01*
D10*
D11*
X85247619Y-10411905D02*
X85309524Y-10350000D01*
X85433333Y-10288095D01*
X85742857Y-10288095D01*
X85866667Y-10350000D01*
X85928571Y-10411905D01*
X85990476Y-10535714D01*
X85990476Y-10659524D01*
X85928571Y-10845238D01*
X85185714Y-11588095D01*
X85990476Y-11588095D01*
D10*
D11*
X135185714Y-10288095D02*
X135990476Y-10288095D01*
X135557143Y-10783333D01*
X135742857Y-10783333D01*
X135866667Y-10845238D01*
X135928571Y-10907143D01*
X135990476Y-11030952D01*
X135990476Y-11340476D01*
X135928571Y-11464286D01*
X135866667Y-11526190D01*
X135742857Y-11588095D01*
X135371429Y-11588095D01*
X135247619Y-11526190D01*
X135185714Y-11464286D01*
D10*
D11*
X185866667Y-10721429D02*
X185866667Y-11588095D01*
X185557143Y-10226190D02*
X185247619Y-11154762D01*
X186052381Y-11154762D01*
D10*
D11*
X235928571Y-10288095D02*
X235309524Y-10288095D01*
X235247619Y-10907143D01*
X235309524Y-10845238D01*
X235433333Y-10783333D01*
X235742857Y-10783333D01*
X235866667Y-10845238D01*
X235928571Y-10907143D01*
X235990476Y-11030952D01*
X235990476Y-11340476D01*
X235928571Y-11464286D01*
X235866667Y-11526190D01*
X235742857Y-11588095D01*
X235433333Y-11588095D01*
X235309524Y-11526190D01*
X235247619Y-11464286D01*
D10*
D11*
X285866667Y-10288095D02*
X285619048Y-10288095D01*
X285495238Y-10350000D01*
X285433333Y-10411905D01*
X285309524Y-10597619D01*
X285247619Y-10845238D01*
X285247619Y-11340476D01*
X285309524Y-11464286D01*
X285371429Y-11526190D01*
X285495238Y-11588095D01*
X285742857Y-11588095D01*
X285866667Y-11526190D01*
X285928571Y-11464286D01*
X285990476Y-11340476D01*
X285990476Y-11030952D01*
X285928571Y-10907143D01*
X285866667Y-10845238D01*
X285742857Y-10783333D01*
X285495238Y-10783333D01*
X285371429Y-10845238D01*
X285309524Y-10907143D01*
X285247619Y-11030952D01*
D10*
D11*
X60000000Y-198007200D02*
X60000000Y-200007200D01*
D10*
D11*
X110000000Y-198007200D02*
X110000000Y-200007200D01*
D10*
D11*
X160000000Y-198007200D02*
X160000000Y-200007200D01*
D10*
D11*
X210000000Y-198007200D02*
X210000000Y-200007200D01*
D10*
D11*
X260000000Y-198007200D02*
X260000000Y-200007200D01*
D10*
D11*
X35990476Y-199595295D02*
X35247619Y-199595295D01*
X35619048Y-199595295D02*
X35619048Y-198295295D01*
X35495238Y-198481010D01*
X35371429Y-198604819D01*
X35247619Y-198666724D01*
D10*
D11*
X85247619Y-198419105D02*
X85309524Y-198357200D01*
X85433333Y-198295295D01*
X85742857Y-198295295D01*
X85866667Y-198357200D01*
X85928571Y-198419105D01*
X85990476Y-198542914D01*
X85990476Y-198666724D01*
X85928571Y-198852438D01*
X85185714Y-199595295D01*
X85990476Y-199595295D01*
D10*
D11*
X135185714Y-198295295D02*
X135990476Y-198295295D01*
X135557143Y-198790533D01*
X135742857Y-198790533D01*
X135866667Y-198852438D01*
X135928571Y-198914343D01*
X135990476Y-199038152D01*
X135990476Y-199347676D01*
X135928571Y-199471486D01*
X135866667Y-199533390D01*
X135742857Y-199595295D01*
X135371429Y-199595295D01*
X135247619Y-199533390D01*
X135185714Y-199471486D01*
D10*
D11*
X185866667Y-198728629D02*
X185866667Y-199595295D01*
X185557143Y-198233390D02*
X185247619Y-199161962D01*
X186052381Y-199161962D01*
D10*
D11*
X235928571Y-198295295D02*
X235309524Y-198295295D01*
X235247619Y-198914343D01*
X235309524Y-198852438D01*
X235433333Y-198790533D01*
X235742857Y-198790533D01*
X235866667Y-198852438D01*
X235928571Y-198914343D01*
X235990476Y-199038152D01*
X235990476Y-199347676D01*
X235928571Y-199471486D01*
X235866667Y-199533390D01*
X235742857Y-199595295D01*
X235433333Y-199595295D01*
X235309524Y-199533390D01*
X235247619Y-199471486D01*
D10*
D11*
X285866667Y-198295295D02*
X285619048Y-198295295D01*
X285495238Y-198357200D01*
X285433333Y-198419105D01*
X285309524Y-198604819D01*
X285247619Y-198852438D01*
X285247619Y-199347676D01*
X285309524Y-199471486D01*
X285371429Y-199533390D01*
X285495238Y-199595295D01*
X285742857Y-199595295D01*
X285866667Y-199533390D01*
X285928571Y-199471486D01*
X285990476Y-199347676D01*
X285990476Y-199038152D01*
X285928571Y-198914343D01*
X285866667Y-198852438D01*
X285742857Y-198790533D01*
X285495238Y-198790533D01*
X285371429Y-198852438D01*
X285309524Y-198914343D01*
X285247619Y-199038152D01*
D10*
D11*
X10000000Y-60000000D02*
X12000000Y-60000000D01*
D10*
D11*
X10000000Y-110000000D02*
X12000000Y-110000000D01*
D10*
D11*
X10000000Y-160000000D02*
X12000000Y-160000000D01*
D10*
D11*
X10690476Y-35216667D02*
X11309524Y-35216667D01*
X10566667Y-35588095D02*
X11000000Y-34288095D01*
X11433333Y-35588095D01*
D10*
D11*
X11092857Y-84907143D02*
X11278571Y-84969048D01*
X11340476Y-85030952D01*
X11402381Y-85154762D01*
X11402381Y-85340476D01*
X11340476Y-85464286D01*
X11278571Y-85526190D01*
X11154762Y-85588095D01*
X10659524Y-85588095D01*
X10659524Y-84288095D01*
X11092857Y-84288095D01*
X11216667Y-84350000D01*
X11278571Y-84411905D01*
X11340476Y-84535714D01*
X11340476Y-84659524D01*
X11278571Y-84783333D01*
X11216667Y-84845238D01*
X11092857Y-84907143D01*
X10659524Y-84907143D01*
D10*
D11*
X11402381Y-135464286D02*
X11340476Y-135526190D01*
X11154762Y-135588095D01*
X11030952Y-135588095D01*
X10845238Y-135526190D01*
X10721429Y-135402381D01*
X10659524Y-135278571D01*
X10597619Y-135030952D01*
X10597619Y-134845238D01*
X10659524Y-134597619D01*
X10721429Y-134473810D01*
X10845238Y-134350000D01*
X11030952Y-134288095D01*
X11154762Y-134288095D01*
X11340476Y-134350000D01*
X11402381Y-134411905D01*
D10*
D11*
X10659524Y-185588095D02*
X10659524Y-184288095D01*
X10969048Y-184288095D01*
X11154762Y-184350000D01*
X11278571Y-184473810D01*
X11340476Y-184597619D01*
X11402381Y-184845238D01*
X11402381Y-185030952D01*
X11340476Y-185278571D01*
X11278571Y-185402381D01*
X11154762Y-185526190D01*
X10969048Y-185588095D01*
X10659524Y-185588095D01*
D10*
D11*
X287002200Y-60000000D02*
X285002200Y-60000000D01*
D10*
D11*
X287002200Y-110000000D02*
X285002200Y-110000000D01*
D10*
D11*
X287002200Y-160000000D02*
X285002200Y-160000000D01*
D10*
D11*
X285692676Y-35216667D02*
X286311724Y-35216667D01*
X285568867Y-35588095D02*
X286002200Y-34288095D01*
X286435533Y-35588095D01*
D10*
D11*
X286095057Y-84907143D02*
X286280771Y-84969048D01*
X286342676Y-85030952D01*
X286404581Y-85154762D01*
X286404581Y-85340476D01*
X286342676Y-85464286D01*
X286280771Y-85526190D01*
X286156962Y-85588095D01*
X285661724Y-85588095D01*
X285661724Y-84288095D01*
X286095057Y-84288095D01*
X286218867Y-84350000D01*
X286280771Y-84411905D01*
X286342676Y-84535714D01*
X286342676Y-84659524D01*
X286280771Y-84783333D01*
X286218867Y-84845238D01*
X286095057Y-84907143D01*
X285661724Y-84907143D01*
D10*
D11*
X286404581Y-135464286D02*
X286342676Y-135526190D01*
X286156962Y-135588095D01*
X286033152Y-135588095D01*
X285847438Y-135526190D01*
X285723629Y-135402381D01*
X285661724Y-135278571D01*
X285599819Y-135030952D01*
X285599819Y-134845238D01*
X285661724Y-134597619D01*
X285723629Y-134473810D01*
X285847438Y-134350000D01*
X286033152Y-134288095D01*
X286156962Y-134288095D01*
X286342676Y-134350000D01*
X286404581Y-134411905D01*
D10*
D11*
X285661724Y-185588095D02*
X285661724Y-184288095D01*
X285971248Y-184288095D01*
X286156962Y-184350000D01*
X286280771Y-184473810D01*
X286342676Y-184597619D01*
X286404581Y-184845238D01*
X286404581Y-185030952D01*
X286342676Y-185278571D01*
X286280771Y-185402381D01*
X286156962Y-185526190D01*
X285971248Y-185588095D01*
X285661724Y-185588095D01*
D10*
D11*
X200359343Y-193785771D02*
X200359343Y-192285771D01*
X200716486Y-192285771D01*
X200930771Y-192357200D01*
X201073629Y-192500057D01*
X201145057Y-192642914D01*
X201216486Y-192928629D01*
X201216486Y-193142914D01*
X201145057Y-193428629D01*
X201073629Y-193571486D01*
X200930771Y-193714343D01*
X200716486Y-193785771D01*
X200359343Y-193785771D01*
X202502200Y-193785771D02*
X202502200Y-193000057D01*
X202430771Y-192857200D01*
X202287914Y-192785771D01*
X202002200Y-192785771D01*
X201859343Y-192857200D01*
X202502200Y-193714343D02*
X202359343Y-193785771D01*
X202002200Y-193785771D01*
X201859343Y-193714343D01*
X201787914Y-193571486D01*
X201787914Y-193428629D01*
X201859343Y-193285771D01*
X202002200Y-193214343D01*
X202359343Y-193214343D01*
X202502200Y-193142914D01*
X203002200Y-192785771D02*
X203573629Y-192785771D01*
X203216486Y-192285771D02*
X203216486Y-193571486D01*
X203287914Y-193714343D01*
X203430772Y-193785771D01*
X203573629Y-193785771D01*
X204645057Y-193714343D02*
X204502200Y-193785771D01*
X204216486Y-193785771D01*
X204073629Y-193714343D01*
X204002200Y-193571486D01*
X204002200Y-193000057D01*
X204073629Y-192857200D01*
X204216486Y-192785771D01*
X204502200Y-192785771D01*
X204645057Y-192857200D01*
X204716486Y-193000057D01*
X204716486Y-193142914D01*
X204002200Y-193285771D01*
X205359343Y-193642914D02*
X205430771Y-193714343D01*
X205359343Y-193785771D01*
X205287914Y-193714343D01*
X205359343Y-193642914D01*
X205359343Y-193785771D01*
X205359343Y-192857200D02*
X205430771Y-192928629D01*
X205359343Y-193000057D01*
X205287914Y-192928629D01*
X205359343Y-192857200D01*
X205359343Y-193000057D01*
D10*
D11*
X177002200Y-194507200D02*
X285002200Y-194507200D01*
D10*
D11*
X178359343Y-196585771D02*
X178359343Y-195085771D01*
X179216486Y-196585771D02*
X178573629Y-195728629D01*
X179216486Y-195085771D02*
X178359343Y-195942914D01*
X179859343Y-196585771D02*
X179859343Y-195585771D01*
X179859343Y-195085771D02*
X179787914Y-195157200D01*
X179859343Y-195228629D01*
X179930771Y-195157200D01*
X179859343Y-195085771D01*
X179859343Y-195228629D01*
X181430772Y-196442914D02*
X181359343Y-196514343D01*
X181145057Y-196585771D01*
X181002200Y-196585771D01*
X180787915Y-196514343D01*
X180645057Y-196371486D01*
X180573629Y-196228629D01*
X180502200Y-195942914D01*
X180502200Y-195728629D01*
X180573629Y-195442914D01*
X180645057Y-195300057D01*
X180787915Y-195157200D01*
X181002200Y-195085771D01*
X181145057Y-195085771D01*
X181359343Y-195157200D01*
X181430772Y-195228629D01*
X182716486Y-196585771D02*
X182716486Y-195800057D01*
X182645057Y-195657200D01*
X182502200Y-195585771D01*
X182216486Y-195585771D01*
X182073629Y-195657200D01*
X182716486Y-196514343D02*
X182573629Y-196585771D01*
X182216486Y-196585771D01*
X182073629Y-196514343D01*
X182002200Y-196371486D01*
X182002200Y-196228629D01*
X182073629Y-196085771D01*
X182216486Y-196014343D01*
X182573629Y-196014343D01*
X182716486Y-195942914D01*
X184073629Y-196585771D02*
X184073629Y-195085771D01*
X184073629Y-196514343D02*
X183930772Y-196585771D01*
X183645058Y-196585771D01*
X183502200Y-196514343D01*
X183430772Y-196442914D01*
X183359343Y-196300057D01*
X183359343Y-195871486D01*
X183430772Y-195728629D01*
X183502200Y-195657200D01*
X183645058Y-195585771D01*
X183930772Y-195585771D01*
X184073629Y-195657200D01*
X185930772Y-195800057D02*
X186430772Y-195800057D01*
X186645058Y-196585771D02*
X185930772Y-196585771D01*
X185930772Y-195085771D01*
X186645058Y-195085771D01*
X187287915Y-196442914D02*
X187359343Y-196514343D01*
X187287915Y-196585771D01*
X187216486Y-196514343D01*
X187287915Y-196442914D01*
X187287915Y-196585771D01*
X188002201Y-196585771D02*
X188002201Y-195085771D01*
X188359344Y-195085771D01*
X188573629Y-195157200D01*
X188716487Y-195300057D01*
X188787915Y-195442914D01*
X188859344Y-195728629D01*
X188859344Y-195942914D01*
X188787915Y-196228629D01*
X188716487Y-196371486D01*
X188573629Y-196514343D01*
X188359344Y-196585771D01*
X188002201Y-196585771D01*
X189502201Y-196442914D02*
X189573629Y-196514343D01*
X189502201Y-196585771D01*
X189430772Y-196514343D01*
X189502201Y-196442914D01*
X189502201Y-196585771D01*
X190145058Y-196157200D02*
X190859344Y-196157200D01*
X190002201Y-196585771D02*
X190502201Y-195085771D01*
X191002201Y-196585771D01*
X191502201Y-196442914D02*
X191573629Y-196514343D01*
X191502201Y-196585771D01*
X191430772Y-196514343D01*
X191502201Y-196442914D01*
X191502201Y-196585771D01*
X194502201Y-196585771D02*
X194502201Y-195085771D01*
X194645058Y-196014343D02*
X195073629Y-196585771D01*
X195073629Y-195585771D02*
X194502201Y-196157200D01*
X195716487Y-196585771D02*
X195716487Y-195585771D01*
X195716487Y-195085771D02*
X195645058Y-195157200D01*
X195716487Y-195228629D01*
X195787915Y-195157200D01*
X195716487Y-195085771D01*
X195716487Y-195228629D01*
X197073630Y-196514343D02*
X196930773Y-196585771D01*
X196645059Y-196585771D01*
X196502201Y-196514343D01*
X196430773Y-196442914D01*
X196359344Y-196300057D01*
X196359344Y-195871486D01*
X196430773Y-195728629D01*
X196502201Y-195657200D01*
X196645059Y-195585771D01*
X196930773Y-195585771D01*
X197073630Y-195657200D01*
X198359344Y-196585771D02*
X198359344Y-195800057D01*
X198287915Y-195657200D01*
X198145058Y-195585771D01*
X197859344Y-195585771D01*
X197716487Y-195657200D01*
X198359344Y-196514343D02*
X198216487Y-196585771D01*
X197859344Y-196585771D01*
X197716487Y-196514343D01*
X197645058Y-196371486D01*
X197645058Y-196228629D01*
X197716487Y-196085771D01*
X197859344Y-196014343D01*
X198216487Y-196014343D01*
X198359344Y-195942914D01*
X199716487Y-196585771D02*
X199716487Y-195085771D01*
X199716487Y-196514343D02*
X199573630Y-196585771D01*
X199287916Y-196585771D01*
X199145058Y-196514343D01*
X199073630Y-196442914D01*
X199002201Y-196300057D01*
X199002201Y-195871486D01*
X199073630Y-195728629D01*
X199145058Y-195657200D01*
X199287916Y-195585771D01*
X199573630Y-195585771D01*
X199716487Y-195657200D01*
X202216487Y-195585771D02*
X202216487Y-196585771D01*
X201859344Y-195014343D02*
X201502201Y-196085771D01*
X202430773Y-196085771D01*
X203002201Y-196442914D02*
X203073629Y-196514343D01*
X203002201Y-196585771D01*
X202930772Y-196514343D01*
X203002201Y-196442914D01*
X203002201Y-196585771D01*
X204002201Y-195085771D02*
X204145058Y-195085771D01*
X204287915Y-195157200D01*
X204359344Y-195228629D01*
X204430773Y-195371486D01*
X204502201Y-195657200D01*
X204502201Y-196014343D01*
X204430773Y-196300057D01*
X204359344Y-196442914D01*
X204287915Y-196514343D01*
X204145058Y-196585771D01*
X204002201Y-196585771D01*
X203859344Y-196514343D01*
X203787915Y-196442914D01*
X203716487Y-196300057D01*
X203645058Y-196014343D01*
X203645058Y-195657200D01*
X203716487Y-195371486D01*
X203787915Y-195228629D01*
X203859344Y-195157200D01*
X204002201Y-195085771D01*
X205145058Y-196442914D02*
X205216486Y-196514343D01*
X205145058Y-196585771D01*
X205073629Y-196514343D01*
X205145058Y-196442914D01*
X205145058Y-196585771D01*
X205787915Y-195228629D02*
X205859344Y-195157200D01*
X206002201Y-195085771D01*
X206359344Y-195085771D01*
X206502201Y-195157200D01*
X206573630Y-195228629D01*
X206645058Y-195371486D01*
X206645058Y-195514343D01*
X206573630Y-195728629D01*
X205716487Y-196585771D01*
X206645058Y-196585771D01*
X207287915Y-196014343D02*
X208430772Y-196014343D01*
X207859343Y-196585771D02*
X207859343Y-195442914D01*
X209787915Y-196585771D02*
X209787915Y-195085771D01*
X209787915Y-196514343D02*
X209645058Y-196585771D01*
X209359344Y-196585771D01*
X209216486Y-196514343D01*
X209145058Y-196442914D01*
X209073629Y-196300057D01*
X209073629Y-195871486D01*
X209145058Y-195728629D01*
X209216486Y-195657200D01*
X209359344Y-195585771D01*
X209645058Y-195585771D01*
X209787915Y-195657200D01*
X210287915Y-195585771D02*
X210859344Y-195585771D01*
X210502201Y-196585771D02*
X210502201Y-195300057D01*
X210573629Y-195157200D01*
X210716487Y-195085771D01*
X210859344Y-195085771D01*
X211287915Y-196514343D02*
X211430772Y-196585771D01*
X211716487Y-196585771D01*
X211859344Y-196514343D01*
X211930772Y-196371486D01*
X211930772Y-196300057D01*
X211859344Y-196157200D01*
X211716487Y-196085771D01*
X211502201Y-196085771D01*
X211359344Y-196014343D01*
X211287915Y-195871486D01*
X211287915Y-195800057D01*
X211359344Y-195657200D01*
X211502201Y-195585771D01*
X211716487Y-195585771D01*
X211859344Y-195657200D01*
X213216487Y-195585771D02*
X213216487Y-196800057D01*
X213145058Y-196942914D01*
X213073630Y-197014343D01*
X212930773Y-197085771D01*
X212716487Y-197085771D01*
X212573630Y-197014343D01*
X213216487Y-196514343D02*
X213073630Y-196585771D01*
X212787916Y-196585771D01*
X212645058Y-196514343D01*
X212573630Y-196442914D01*
X212502201Y-196300057D01*
X212502201Y-195871486D01*
X212573630Y-195728629D01*
X212645058Y-195657200D01*
X212787916Y-195585771D01*
X213073630Y-195585771D01*
X213216487Y-195657200D01*
X214716487Y-196585771D02*
X213859344Y-196585771D01*
X214287916Y-196585771D02*
X214287916Y-195085771D01*
X214145059Y-195300057D01*
X214002201Y-195442914D01*
X213859344Y-195514343D01*
X215359344Y-196014343D02*
X216502201Y-196014343D01*
X217145058Y-196514343D02*
X217287915Y-196585771D01*
X217573630Y-196585771D01*
X217716487Y-196514343D01*
X217787915Y-196371486D01*
X217787915Y-196300057D01*
X217716487Y-196157200D01*
X217573630Y-196085771D01*
X217359344Y-196085771D01*
X217216487Y-196014343D01*
X217145058Y-195871486D01*
X217145058Y-195800057D01*
X217216487Y-195657200D01*
X217359344Y-195585771D01*
X217573630Y-195585771D01*
X217716487Y-195657200D01*
X218216487Y-195585771D02*
X218787916Y-195585771D01*
X218430773Y-195085771D02*
X218430773Y-196371486D01*
X218502201Y-196514343D01*
X218645059Y-196585771D01*
X218787916Y-196585771D01*
X219930773Y-196585771D02*
X219930773Y-195800057D01*
X219859344Y-195657200D01*
X219716487Y-195585771D01*
X219430773Y-195585771D01*
X219287916Y-195657200D01*
X219930773Y-196514343D02*
X219787916Y-196585771D01*
X219430773Y-196585771D01*
X219287916Y-196514343D01*
X219216487Y-196371486D01*
X219216487Y-196228629D01*
X219287916Y-196085771D01*
X219430773Y-196014343D01*
X219787916Y-196014343D01*
X219930773Y-195942914D01*
X220645059Y-196585771D02*
X220645059Y-195085771D01*
X220645059Y-195657200D02*
X220787916Y-195585771D01*
X221073630Y-195585771D01*
X221216487Y-195657200D01*
X221287916Y-195728629D01*
X221359345Y-195871486D01*
X221359345Y-196300057D01*
X221287916Y-196442914D01*
X221216487Y-196514343D01*
X221073630Y-196585771D01*
X220787916Y-196585771D01*
X220645059Y-196514343D01*
X222216488Y-196585771D02*
X222073630Y-196514343D01*
X222002202Y-196371486D01*
X222002202Y-195085771D01*
X223359344Y-196514343D02*
X223216487Y-196585771D01*
X222930773Y-196585771D01*
X222787916Y-196514343D01*
X222716487Y-196371486D01*
X222716487Y-195800057D01*
X222787916Y-195657200D01*
X222930773Y-195585771D01*
X223216487Y-195585771D01*
X223359344Y-195657200D01*
X223430773Y-195800057D01*
X223430773Y-195942914D01*
X222716487Y-196085771D01*
D10*
D11*
X177002200Y-191507200D02*
X285002200Y-191507200D01*
D10*
D12*
X264216486Y-193785771D02*
X263716486Y-193071486D01*
X263359343Y-193785771D02*
X263359343Y-192285771D01*
X263930771Y-192285771D01*
X264073629Y-192357200D01*
X264145057Y-192428629D01*
X264216486Y-192571486D01*
X264216486Y-192785771D01*
X264145057Y-192928629D01*
X264073629Y-193000057D01*
X263930771Y-193071486D01*
X263359343Y-193071486D01*
X265430771Y-193714343D02*
X265287914Y-193785771D01*
X265002200Y-193785771D01*
X264859343Y-193714343D01*
X264787914Y-193571486D01*
X264787914Y-193000057D01*
X264859343Y-192857200D01*
X265002200Y-192785771D01*
X265287914Y-192785771D01*
X265430771Y-192857200D01*
X265502200Y-193000057D01*
X265502200Y-193142914D01*
X264787914Y-193285771D01*
X266002200Y-192785771D02*
X266359343Y-193785771D01*
X266716485Y-192785771D01*
X267287914Y-193642914D02*
X267359342Y-193714343D01*
X267287914Y-193785771D01*
X267216485Y-193714343D01*
X267287914Y-193642914D01*
X267287914Y-193785771D01*
X267287914Y-192857200D02*
X267359342Y-192928629D01*
X267287914Y-193000057D01*
X267216485Y-192928629D01*
X267287914Y-192857200D01*
X267287914Y-193000057D01*
D10*
D11*
X178287914Y-193714343D02*
X178502200Y-193785771D01*
X178859343Y-193785771D01*
X179002200Y-193714343D01*
X179073629Y-193642914D01*
X179145057Y-193500057D01*
X179145057Y-193357200D01*
X179073629Y-193214343D01*
X179002200Y-193142914D01*
X178859343Y-193071486D01*
X178573629Y-193000057D01*
X178430771Y-192928629D01*
X178359343Y-192857200D01*
X178287914Y-192714343D01*
X178287914Y-192571486D01*
X178359343Y-192428629D01*
X178430771Y-192357200D01*
X178573629Y-192285771D01*
X178930771Y-192285771D01*
X179145057Y-192357200D01*
X179787914Y-193785771D02*
X179787914Y-192785771D01*
X179787914Y-192285771D02*
X179716485Y-192357200D01*
X179787914Y-192428629D01*
X179859342Y-192357200D01*
X179787914Y-192285771D01*
X179787914Y-192428629D01*
X180359343Y-192785771D02*
X181145057Y-192785771D01*
X180359343Y-193785771D01*
X181145057Y-193785771D01*
X182287914Y-193714343D02*
X182145057Y-193785771D01*
X181859343Y-193785771D01*
X181716486Y-193714343D01*
X181645057Y-193571486D01*
X181645057Y-193000057D01*
X181716486Y-192857200D01*
X181859343Y-192785771D01*
X182145057Y-192785771D01*
X182287914Y-192857200D01*
X182359343Y-193000057D01*
X182359343Y-193142914D01*
X181645057Y-193285771D01*
X183002200Y-193642914D02*
X183073628Y-193714343D01*
X183002200Y-193785771D01*
X182930771Y-193714343D01*
X183002200Y-193642914D01*
X183002200Y-193785771D01*
X183002200Y-192857200D02*
X183073628Y-192928629D01*
X183002200Y-193000057D01*
X182930771Y-192928629D01*
X183002200Y-192857200D01*
X183002200Y-193000057D01*
X184787914Y-193357200D02*
X185502200Y-193357200D01*
X184645057Y-193785771D02*
X185145057Y-192285771D01*
X185645057Y-193785771D01*
X186787914Y-192785771D02*
X186787914Y-193785771D01*
X186430771Y-192214343D02*
X186073628Y-193285771D01*
X187002200Y-193285771D01*
D10*
D11*
X263359343Y-196585771D02*
X263359343Y-195085771D01*
X264716486Y-196585771D02*
X264716486Y-195085771D01*
X264716486Y-196514343D02*
X264573629Y-196585771D01*
X264287915Y-196585771D01*
X264145057Y-196514343D01*
X264073629Y-196442914D01*
X264002200Y-196300057D01*
X264002200Y-195871486D01*
X264073629Y-195728629D01*
X264145057Y-195657200D01*
X264287915Y-195585771D01*
X264573629Y-195585771D01*
X264716486Y-195657200D01*
X265430772Y-196442914D02*
X265502200Y-196514343D01*
X265430772Y-196585771D01*
X265359343Y-196514343D01*
X265430772Y-196442914D01*
X265430772Y-196585771D01*
X265430772Y-195657200D02*
X265502200Y-195728629D01*
X265430772Y-195800057D01*
X265359343Y-195728629D01*
X265430772Y-195657200D01*
X265430772Y-195800057D01*
X268073629Y-196585771D02*
X267216486Y-196585771D01*
X267645058Y-196585771D02*
X267645058Y-195085771D01*
X267502201Y-195300057D01*
X267359343Y-195442914D01*
X267216486Y-195514343D01*
X269787914Y-195014343D02*
X268502200Y-196942914D01*
X271073629Y-196585771D02*
X270216486Y-196585771D01*
X270645058Y-196585771D02*
X270645058Y-195085771D01*
X270502201Y-195300057D01*
X270359343Y-195442914D01*
X270216486Y-195514343D01*
D10*
D11*
X177002200Y-187507200D02*
X285002200Y-187507200D01*
D10*
D13*
X178454581Y-188211962D02*
X179597438Y-188211962D01*
X178776010Y-190211962D02*
X179026010Y-188211962D01*
X180014105Y-190211962D02*
X180180771Y-188878629D01*
X180264105Y-188211962D02*
X180156962Y-188307200D01*
X180240295Y-188402438D01*
X180347439Y-188307200D01*
X180264105Y-188211962D01*
X180240295Y-188402438D01*
X180847438Y-188878629D02*
X181609343Y-188878629D01*
X181216486Y-188211962D02*
X181002200Y-189926248D01*
X181073630Y-190116724D01*
X181252201Y-190211962D01*
X181442677Y-190211962D01*
X182395058Y-190211962D02*
X182216487Y-190116724D01*
X182145057Y-189926248D01*
X182359343Y-188211962D01*
X183930772Y-190116724D02*
X183728391Y-190211962D01*
X183347439Y-190211962D01*
X183168867Y-190116724D01*
X183097438Y-189926248D01*
X183192676Y-189164343D01*
X183311724Y-188973867D01*
X183514105Y-188878629D01*
X183895057Y-188878629D01*
X184073629Y-188973867D01*
X184145057Y-189164343D01*
X184121248Y-189354819D01*
X183145057Y-189545295D01*
X184895057Y-190021486D02*
X184978392Y-190116724D01*
X184871248Y-190211962D01*
X184787915Y-190116724D01*
X184895057Y-190021486D01*
X184871248Y-190211962D01*
X185026010Y-188973867D02*
X185109344Y-189069105D01*
X185002200Y-189164343D01*
X184918867Y-189069105D01*
X185026010Y-188973867D01*
X185002200Y-189164343D01*
D10*
D11*
X178859343Y-185600057D02*
X178359343Y-185600057D01*
X178359343Y-186385771D02*
X178359343Y-184885771D01*
X179073629Y-184885771D01*
X179645057Y-186385771D02*
X179645057Y-185385771D01*
X179645057Y-184885771D02*
X179573628Y-184957200D01*
X179645057Y-185028629D01*
X179716485Y-184957200D01*
X179645057Y-184885771D01*
X179645057Y-185028629D01*
X180573629Y-186385771D02*
X180430771Y-186314343D01*
X180359343Y-186171486D01*
X180359343Y-184885771D01*
X181716485Y-186314343D02*
X181573628Y-186385771D01*
X181287914Y-186385771D01*
X181145057Y-186314343D01*
X181073628Y-186171486D01*
X181073628Y-185600057D01*
X181145057Y-185457200D01*
X181287914Y-185385771D01*
X181573628Y-185385771D01*
X181716485Y-185457200D01*
X181787914Y-185600057D01*
X181787914Y-185742914D01*
X181073628Y-185885771D01*
X182430771Y-186242914D02*
X182502199Y-186314343D01*
X182430771Y-186385771D01*
X182359342Y-186314343D01*
X182430771Y-186242914D01*
X182430771Y-186385771D01*
X182430771Y-185457200D02*
X182502199Y-185528629D01*
X182430771Y-185600057D01*
X182359342Y-185528629D01*
X182430771Y-185457200D01*
X182430771Y-185600057D01*
X184287914Y-186385771D02*
X184287914Y-185385771D01*
X184287914Y-185528629D02*
X184359342Y-185457200D01*
X184502200Y-185385771D01*
X184716485Y-185385771D01*
X184859342Y-185457200D01*
X184930771Y-185600057D01*
X184930771Y-186385771D01*
X184930771Y-185600057D02*
X185002200Y-185457200D01*
X185145057Y-185385771D01*
X185359342Y-185385771D01*
X185502200Y-185457200D01*
X185573628Y-185600057D01*
X185573628Y-186385771D01*
X186073628Y-185385771D02*
X186645057Y-185385771D01*
X186287914Y-186385771D02*
X186287914Y-185100057D01*
X186359342Y-184957200D01*
X186502200Y-184885771D01*
X186645057Y-184885771D01*
X187002200Y-186385771D02*
X187787914Y-185385771D01*
X187002200Y-185385771D02*
X187787914Y-186385771D01*
X188359343Y-185814343D02*
X189502200Y-185814343D01*
X190430772Y-186385771D02*
X190287914Y-186314343D01*
X190216486Y-186171486D01*
X190216486Y-184885771D01*
X191002200Y-186385771D02*
X191002200Y-185385771D01*
X191002200Y-184885771D02*
X190930771Y-184957200D01*
X191002200Y-185028629D01*
X191073628Y-184957200D01*
X191002200Y-184885771D01*
X191002200Y-185028629D01*
X191716486Y-185385771D02*
X191716486Y-186385771D01*
X191716486Y-185528629D02*
X191787914Y-185457200D01*
X191930772Y-185385771D01*
X192145057Y-185385771D01*
X192287914Y-185457200D01*
X192359343Y-185600057D01*
X192359343Y-186385771D01*
X193073629Y-186385771D02*
X193073629Y-184885771D01*
X193216486Y-185814343D02*
X193645057Y-186385771D01*
X193645057Y-185385771D02*
X193073629Y-185957200D01*
X194287915Y-186242914D02*
X194359343Y-186314343D01*
X194287915Y-186385771D01*
X194216486Y-186314343D01*
X194287915Y-186242914D01*
X194287915Y-186385771D01*
X195002201Y-186385771D02*
X195002201Y-184885771D01*
X195145058Y-185814343D02*
X195573629Y-186385771D01*
X195573629Y-185385771D02*
X195002201Y-185957200D01*
X196216487Y-186385771D02*
X196216487Y-185385771D01*
X196216487Y-184885771D02*
X196145058Y-184957200D01*
X196216487Y-185028629D01*
X196287915Y-184957200D01*
X196216487Y-184885771D01*
X196216487Y-185028629D01*
X197573630Y-186314343D02*
X197430773Y-186385771D01*
X197145059Y-186385771D01*
X197002201Y-186314343D01*
X196930773Y-186242914D01*
X196859344Y-186100057D01*
X196859344Y-185671486D01*
X196930773Y-185528629D01*
X197002201Y-185457200D01*
X197145059Y-185385771D01*
X197430773Y-185385771D01*
X197573630Y-185457200D01*
X198859344Y-186385771D02*
X198859344Y-185600057D01*
X198787915Y-185457200D01*
X198645058Y-185385771D01*
X198359344Y-185385771D01*
X198216487Y-185457200D01*
X198859344Y-186314343D02*
X198716487Y-186385771D01*
X198359344Y-186385771D01*
X198216487Y-186314343D01*
X198145058Y-186171486D01*
X198145058Y-186028629D01*
X198216487Y-185885771D01*
X198359344Y-185814343D01*
X198716487Y-185814343D01*
X198859344Y-185742914D01*
X200216487Y-186385771D02*
X200216487Y-184885771D01*
X200216487Y-186314343D02*
X200073630Y-186385771D01*
X199787916Y-186385771D01*
X199645058Y-186314343D01*
X199573630Y-186242914D01*
X199502201Y-186100057D01*
X199502201Y-185671486D01*
X199573630Y-185528629D01*
X199645058Y-185457200D01*
X199787916Y-185385771D01*
X200073630Y-185385771D01*
X200216487Y-185457200D01*
X200573630Y-186528629D02*
X201716487Y-186528629D01*
X202073630Y-185385771D02*
X202073630Y-186885771D01*
X202073630Y-185457200D02*
X202216487Y-185385771D01*
X202502201Y-185385771D01*
X202645058Y-185457200D01*
X202716487Y-185528629D01*
X202787916Y-185671486D01*
X202787916Y-186100057D01*
X202716487Y-186242914D01*
X202645058Y-186314343D01*
X202502201Y-186385771D01*
X202216487Y-186385771D01*
X202073630Y-186314343D01*
X204073630Y-186314343D02*
X203930773Y-186385771D01*
X203645059Y-186385771D01*
X203502201Y-186314343D01*
X203430773Y-186242914D01*
X203359344Y-186100057D01*
X203359344Y-185671486D01*
X203430773Y-185528629D01*
X203502201Y-185457200D01*
X203645059Y-185385771D01*
X203930773Y-185385771D01*
X204073630Y-185457200D01*
X204716487Y-186385771D02*
X204716487Y-184885771D01*
X204716487Y-185457200D02*
X204859344Y-185385771D01*
X205145058Y-185385771D01*
X205287915Y-185457200D01*
X205359344Y-185528629D01*
X205430773Y-185671486D01*
X205430773Y-186100057D01*
X205359344Y-186242914D01*
X205287915Y-186314343D01*
X205145058Y-186385771D01*
X204859344Y-186385771D01*
X204716487Y-186314343D01*
D10*
D11*
X177002200Y-181507200D02*
X285002200Y-181507200D01*
D10*
D11*
X178287914Y-183614343D02*
X178502200Y-183685771D01*
X178859343Y-183685771D01*
X179002200Y-183614343D01*
X179073629Y-183542914D01*
X179145057Y-183400057D01*
X179145057Y-183257200D01*
X179073629Y-183114343D01*
X179002200Y-183042914D01*
X178859343Y-182971486D01*
X178573629Y-182900057D01*
X178430771Y-182828629D01*
X178359343Y-182757200D01*
X178287914Y-182614343D01*
X178287914Y-182471486D01*
X178359343Y-182328629D01*
X178430771Y-182257200D01*
X178573629Y-182185771D01*
X178930771Y-182185771D01*
X179145057Y-182257200D01*
X179787914Y-183685771D02*
X179787914Y-182185771D01*
X180430771Y-183685771D02*
X180430771Y-182900057D01*
X180359342Y-182757200D01*
X180216485Y-182685771D01*
X180002200Y-182685771D01*
X179859342Y-182757200D01*
X179787914Y-182828629D01*
X181716485Y-183614343D02*
X181573628Y-183685771D01*
X181287914Y-183685771D01*
X181145057Y-183614343D01*
X181073628Y-183471486D01*
X181073628Y-182900057D01*
X181145057Y-182757200D01*
X181287914Y-182685771D01*
X181573628Y-182685771D01*
X181716485Y-182757200D01*
X181787914Y-182900057D01*
X181787914Y-183042914D01*
X181073628Y-183185771D01*
X183002199Y-183614343D02*
X182859342Y-183685771D01*
X182573628Y-183685771D01*
X182430771Y-183614343D01*
X182359342Y-183471486D01*
X182359342Y-182900057D01*
X182430771Y-182757200D01*
X182573628Y-182685771D01*
X182859342Y-182685771D01*
X183002199Y-182757200D01*
X183073628Y-182900057D01*
X183073628Y-183042914D01*
X182359342Y-183185771D01*
X183502199Y-182685771D02*
X184073628Y-182685771D01*
X183716485Y-182185771D02*
X183716485Y-183471486D01*
X183787913Y-183614343D01*
X183930771Y-183685771D01*
X184073628Y-183685771D01*
X184573628Y-183542914D02*
X184645056Y-183614343D01*
X184573628Y-183685771D01*
X184502199Y-183614343D01*
X184573628Y-183542914D01*
X184573628Y-183685771D01*
X184573628Y-182757200D02*
X184645056Y-182828629D01*
X184573628Y-182900057D01*
X184502199Y-182828629D01*
X184573628Y-182757200D01*
X184573628Y-182900057D01*
D10*
D11*
X197002200Y-191507200D02*
X197002200Y-194507200D01*
D10*
D11*
X261002200Y-191507200D02*
X261002200Y-198007200D01*
X100000000Y-80000000D02*
G75*
G03X95000000Y-85000000I0J-5000000D01*
G01*
X145000000Y-85000000D02*
G75*
G03X140000000Y-80000000I-5000000J0D01*
G01*
X140000000Y-130000000D02*
G75*
G03X145000000Y-125000000I0J5000000D01*
G01*
X95000000Y-125000000D02*
G75*
G03X100000000Y-130000000I5000000J0D01*
G01*
X95000000Y-85000000D02*
X95000000Y-125000000D01*
X140000000Y-80000000D02*
X100000000Y-80000000D01*
X145000000Y-125000000D02*
X145000000Y-85000000D01*
X100000000Y-130000000D02*
X140000000Y-130000000D01*
D14*
X111252000Y-120904000D03*
D15*
X122936000Y-127254000D03*
D16*
X128016000Y-127254000D03*
D17*
X100000000Y-83500000D03*
X140000000Y-83500000D03*
X140000000Y-123500000D03*
X100000000Y-123500000D03*
D18*
X134797800Y-102133400D03*
X132892800Y-99593400D03*
X130987800Y-102133400D03*
D19*
X127660400Y-109880400D03*
X125120400Y-109880400D03*
X122580400Y-109880400D03*
X120040400Y-109880400D03*
X120040400Y-117500400D03*
X122580400Y-117500400D03*
X125120400Y-117500400D03*
X127660400Y-117500400D03*
D20*
X104279700Y-84721700D03*
D21*
X104279700Y-82181700D03*
X106819700Y-84721700D03*
X106819700Y-82181700D03*
X109359700Y-84721700D03*
X109359700Y-82181700D03*
X111899700Y-84721700D03*
X111899700Y-82181700D03*
D19*
X113411000Y-96647000D03*
X115951000Y-96647000D03*
X118491000Y-96647000D03*
X121031000Y-96647000D03*
X123571000Y-96647000D03*
X126111000Y-96647000D03*
X128651000Y-96647000D03*
X131191000Y-96647000D03*
X131191000Y-89027000D03*
X128651000Y-89027000D03*
X126111000Y-89027000D03*
X123571000Y-89027000D03*
X121031000Y-89027000D03*
X118491000Y-89027000D03*
X115951000Y-89027000D03*
X113411000Y-89027000D03*
D22*
X100482400Y-119837200D03*
X100482400Y-117297200D03*
X130505200Y-116484400D03*
X130505200Y-113944400D03*
X110947200Y-97891600D03*
X108407200Y-97891600D03*
D14*
X127355600Y-122478800D03*
X119735600Y-122478800D03*
X119735600Y-120192800D03*
X127355600Y-120192800D03*
X117678200Y-115189000D03*
X110058200Y-115189000D03*
X108102400Y-115214400D03*
X100482400Y-115214400D03*
X96266000Y-107848400D03*
X96266000Y-115468400D03*
X98501200Y-107848400D03*
X98501200Y-115468400D03*
X103682800Y-108000800D03*
X111302800Y-108000800D03*
X111302800Y-105816400D03*
X103682800Y-105816400D03*
X117729000Y-110617000D03*
X110109000Y-110617000D03*
D20*
X140258800Y-112674400D03*
D21*
X137718800Y-112674400D03*
X140258800Y-110134400D03*
X137718800Y-110134400D03*
X140258800Y-107594400D03*
X137718800Y-107594400D03*
D18*
X137185400Y-102336600D03*
X139090400Y-104876600D03*
X140995400Y-102336600D03*
D14*
X132842000Y-104089200D03*
X132842000Y-111709200D03*
X130860800Y-104089200D03*
X130860800Y-111709200D03*
X100482400Y-112877600D03*
X108102400Y-112877600D03*
X124587000Y-99187000D03*
X124587000Y-106807000D03*
X126746000Y-99187000D03*
X126746000Y-106807000D03*
X128905000Y-99187000D03*
X128905000Y-106807000D03*
X134823200Y-104089200D03*
X134823200Y-111709200D03*
X124968000Y-81483200D03*
X132588000Y-81483200D03*
D23*
X143357600Y-102819200D03*
D24*
X143357600Y-105359200D03*
X143357600Y-107899200D03*
X143357600Y-110439200D03*
X143357600Y-112979200D03*
X143357600Y-115519200D03*
X143357600Y-118059200D03*
X143357600Y-120599200D03*
D25*
X107744000Y-128240800D03*
X113744000Y-118240800D03*
D14*
X117094000Y-123240800D03*
X104394000Y-123240800D03*
D22*
X101346000Y-97942400D03*
X101346000Y-100482400D03*
X101346000Y-105562400D03*
X101346000Y-103022400D03*
D14*
X117729000Y-112903000D03*
X110109000Y-112903000D03*
D26*
X111099600Y-100380800D03*
D27*
X111099600Y-102920800D03*
D28*
X124256800Y-86055200D03*
D29*
X126796800Y-86258400D03*
X129336800Y-86055200D03*
X131876800Y-86258400D03*
X134416800Y-86055200D03*
X136956800Y-86258400D03*
D30*
X96520000Y-120497600D03*
D31*
X96520000Y-117957600D03*
D15*
X98032800Y-89690000D03*
D16*
X98032800Y-93190000D03*
D18*
X104876600Y-103784400D03*
X107416600Y-101879400D03*
X104876600Y-99974400D03*
D14*
X108102400Y-110617000D03*
X100482400Y-110617000D03*
X106603800Y-87655400D03*
X106603800Y-95275400D03*
X104368600Y-87680800D03*
X104368600Y-95300800D03*
X108813600Y-87630000D03*
X108813600Y-95250000D03*
X110998000Y-87655400D03*
X110998000Y-95275400D03*
X102158800Y-95300800D03*
X102158800Y-87680800D03*
D32*
X138023600Y-99771200D03*
D33*
X140563600Y-99771200D03*
X143103600Y-99771200D03*
D34*
X138176000Y-119735600D03*
X134366000Y-119735600D03*
X130556000Y-119735600D03*
X97739200Y-105562400D03*
X97739200Y-101752400D03*
X97739200Y-97942400D03*
D19*
X114554000Y-107188000D03*
X117094000Y-107188000D03*
X119634000Y-107188000D03*
X122174000Y-107188000D03*
X122174000Y-99568000D03*
X119634000Y-99568000D03*
X117094000Y-99568000D03*
X114554000Y-99568000D03*
D35*
X143002000Y-89895680D03*
D36*
X143002000Y-93898720D03*
X143002000Y-91897200D03*
X143002000Y-95897700D03*
D37*
X134010400Y-115812000D03*
D38*
X134010400Y-114312000D03*
D35*
X135559800Y-89844880D03*
D36*
X135559800Y-93847920D03*
X135559800Y-91846400D03*
X135559800Y-95846900D03*
D39*
X122047000Y-81292700D03*
X122047000Y-86372700D03*
X114427000Y-81292700D03*
X114427000Y-86372700D03*
D30*
X140411200Y-115925600D03*
D31*
X137871200Y-115925600D03*
D14*
X128524000Y-83667600D03*
X136144000Y-83667600D03*
X111252000Y-125476000D03*
D40*
X127965200Y-111709200D03*
X103530400Y-117348000D03*
X116586000Y-109474000D03*
X124714000Y-101600000D03*
X129032000Y-102108000D03*
X134112000Y-105664000D03*
X135128000Y-106426000D03*
X126136400Y-104775000D03*
X120599200Y-111861600D03*
X114808000Y-112166400D03*
D38*
X113474580Y-84594010D03*
X133883400Y-88112600D03*
D40*
X114300000Y-93472000D03*
X121716800Y-94767400D03*
X119862600Y-86842600D03*
X131978400Y-92049600D03*
X139344400Y-94157800D03*
X119735600Y-95173800D03*
X115570000Y-109061250D03*
X122023264Y-84467842D03*
X122402600Y-91313000D03*
X113284000Y-91414600D03*
X124764800Y-91084400D03*
X114300000Y-90678000D03*
X117856000Y-92456000D03*
X130048000Y-95072200D03*
X139115800Y-97993200D03*
D41*
X127965200Y-111709200D02*
X128389464Y-111709200D01*
X128389464Y-111709200D02*
X129491865Y-110606799D01*
X129491865Y-110606799D02*
X131739599Y-110606799D01*
X131739599Y-110606799D02*
X132092001Y-110959201D01*
X132092001Y-110959201D02*
X132842000Y-111709200D01*
X108102400Y-115214400D02*
X105664000Y-115214400D01*
X105664000Y-115214400D02*
X103530400Y-117348000D01*
X104394000Y-123240800D02*
X100990400Y-119837200D01*
X100990400Y-119837200D02*
X100482400Y-119837200D01*
X124587000Y-106807000D02*
X122580400Y-108813600D01*
X122580400Y-108813600D02*
X122580400Y-109880400D01*
X122580400Y-110229650D02*
X122580400Y-109880400D01*
X121525030Y-111285020D02*
X122580400Y-110229650D01*
X121525030Y-111901326D02*
X121525030Y-111285020D01*
X117678200Y-115189000D02*
X118237356Y-115189000D01*
X118237356Y-115189000D02*
X121525030Y-111901326D01*
X100482400Y-117297200D02*
X100482400Y-115214400D01*
X100482400Y-115214400D02*
X100482400Y-112877600D01*
X143357600Y-115519200D02*
X143021050Y-115519200D01*
X143021050Y-115519200D02*
X141474801Y-113972951D01*
X141474801Y-113972951D02*
X141474801Y-111350401D01*
X141474801Y-111350401D02*
X141122399Y-110997999D01*
X141122399Y-110997999D02*
X140258800Y-110134400D01*
X120040400Y-109880400D02*
X118985030Y-109880400D01*
X118578630Y-109474000D02*
X116586000Y-109474000D01*
X118985030Y-109880400D02*
X118578630Y-109474000D01*
X110109000Y-110617000D02*
X110109000Y-109194600D01*
X110109000Y-109194600D02*
X111302800Y-108000800D01*
X128524000Y-101600000D02*
X124714000Y-101600000D01*
X129032000Y-102108000D02*
X128524000Y-101600000D01*
X140995400Y-102336600D02*
X139767969Y-103564031D01*
X139767969Y-103564031D02*
X136979923Y-103564031D01*
X136979923Y-103564031D02*
X134879954Y-105664000D01*
X134879954Y-105664000D02*
X134112000Y-105664000D01*
X135382000Y-114312000D02*
X135615679Y-114545679D01*
X135615679Y-114545679D02*
X135615679Y-117581679D01*
X135615679Y-117581679D02*
X136144000Y-118110000D01*
X136144000Y-118110000D02*
X136144000Y-119724914D01*
X136144000Y-119724914D02*
X136133314Y-119735600D01*
X136133314Y-119735600D02*
X134366000Y-119735600D01*
X135382000Y-114312000D02*
X134858928Y-114312000D01*
X140118400Y-114312000D02*
X135382000Y-114312000D01*
X134010400Y-114312000D02*
X130872800Y-114312000D01*
X130872800Y-114312000D02*
X130505200Y-113944400D01*
X140411200Y-115925600D02*
X140411200Y-114604800D01*
X140411200Y-114604800D02*
X140118400Y-114312000D01*
X134858928Y-114312000D02*
X134010400Y-114312000D01*
X136677400Y-104876600D02*
X135128000Y-106426000D01*
X139090400Y-104876600D02*
X136677400Y-104876600D01*
X132842000Y-104089200D02*
X130860800Y-104089200D01*
X129190540Y-104698800D02*
X126212600Y-104698800D01*
X126212600Y-104698800D02*
X126136400Y-104775000D01*
X130860800Y-104089200D02*
X129800140Y-104089200D01*
X129800140Y-104089200D02*
X129190540Y-104698800D01*
X116278492Y-112166400D02*
X116626599Y-112514507D01*
X118258153Y-114005401D02*
X120401954Y-111861600D01*
X114808000Y-112166400D02*
X116278492Y-112166400D01*
X116626599Y-112514507D02*
X116626599Y-113432153D01*
X116626599Y-113432153D02*
X117199847Y-114005401D01*
X117199847Y-114005401D02*
X118258153Y-114005401D01*
X120401954Y-111861600D02*
X120599200Y-111861600D01*
D10*
X112702001Y-112358803D02*
X112752801Y-112308003D01*
X112752801Y-112308003D02*
X112752801Y-107266401D01*
X112752801Y-107266401D02*
X112052799Y-106566399D01*
X112052799Y-106566399D02*
X111302800Y-105816400D01*
X130505200Y-116484400D02*
X129721370Y-115700570D01*
X116982199Y-116639001D02*
X112702001Y-112358803D01*
X129721370Y-115700570D02*
X119312632Y-115700570D01*
X119312632Y-115700570D02*
X118374201Y-116639001D01*
X118374201Y-116639001D02*
X116982199Y-116639001D01*
X111899700Y-84721700D02*
X113346890Y-84721700D01*
X113346890Y-84721700D02*
X113474580Y-84594010D01*
X140301598Y-91897200D02*
X138277600Y-89873202D01*
X138277600Y-89873202D02*
X136593198Y-88188800D01*
D42*
X138200941Y-80549999D02*
X141416001Y-80549999D01*
X136144000Y-83667600D02*
X136144000Y-82606940D01*
X136144000Y-82606940D02*
X138200941Y-80549999D01*
X141416001Y-80549999D02*
X142950001Y-82083999D01*
X142950001Y-82083999D02*
X142950001Y-85200801D01*
X142950001Y-85200801D02*
X138277600Y-89873202D01*
D10*
X136593198Y-88188800D02*
X133959600Y-88188800D01*
X133959600Y-88188800D02*
X133883400Y-88112600D01*
X143002000Y-91897200D02*
X140301598Y-91897200D01*
D43*
X112420400Y-86463714D02*
X112420400Y-87899763D01*
X112420400Y-87899763D02*
X112160420Y-88159743D01*
X112160420Y-88159743D02*
X112160420Y-94112980D01*
X112160420Y-94112980D02*
X111747999Y-94525401D01*
X111747999Y-94525401D02*
X110998000Y-95275400D01*
D44*
X111899700Y-84721700D02*
X111899700Y-85943014D01*
X111899700Y-85943014D02*
X112420400Y-86463714D01*
D45*
X135559800Y-91846400D02*
X137309430Y-91846400D01*
X138023600Y-92560570D02*
X138023600Y-97855200D01*
X137309430Y-91846400D02*
X138023600Y-92560570D01*
X138023600Y-97855200D02*
X138023600Y-99771200D01*
D41*
X114427000Y-86372700D02*
X116185950Y-86372700D01*
X116185950Y-86372700D02*
X118491000Y-88677750D01*
X118491000Y-88677750D02*
X118491000Y-89027000D01*
X97739200Y-101752400D02*
X100076000Y-101752400D01*
X100076000Y-101752400D02*
X101346000Y-100482400D01*
X98032800Y-93190000D02*
X100048000Y-93190000D01*
X100048000Y-93190000D02*
X102158800Y-95300800D01*
X111899700Y-82181700D02*
X113121014Y-82181700D01*
X114427000Y-83487686D02*
X114427000Y-85384872D01*
X114427000Y-85384872D02*
X114427000Y-86372700D01*
X113121014Y-82181700D02*
X114427000Y-83487686D01*
X108407200Y-97891600D02*
X109510171Y-96788629D01*
X111116325Y-96788629D02*
X114300000Y-93604954D01*
X114300000Y-93604954D02*
X114300000Y-93472000D01*
X109510171Y-96788629D02*
X111116325Y-96788629D01*
X123174879Y-84952799D02*
X122745499Y-85382179D01*
X122745499Y-85674201D02*
X122047000Y-86372700D01*
X128373154Y-86055200D02*
X127270753Y-84952799D01*
X129336800Y-86055200D02*
X128373154Y-86055200D01*
X127270753Y-84952799D02*
X123174879Y-84952799D01*
X122745499Y-85382179D02*
X122745499Y-85674201D01*
X118491000Y-89027000D02*
X118491000Y-91541600D01*
X118491000Y-91541600D02*
X121716800Y-94767400D01*
X120332500Y-86372700D02*
X119862600Y-86842600D01*
X122047000Y-86372700D02*
X120332500Y-86372700D01*
X131978400Y-92049600D02*
X134183120Y-89844880D01*
X134183120Y-89844880D02*
X135559800Y-89844880D01*
X143103600Y-99771200D02*
X143103600Y-97917000D01*
X143103600Y-97917000D02*
X139344400Y-94157800D01*
D46*
X106015568Y-104612399D02*
X104811567Y-105816400D01*
X112871321Y-105602999D02*
X111880721Y-104612399D01*
X132935075Y-105602999D02*
X112871321Y-105602999D01*
X143357600Y-102819200D02*
X143021050Y-102819200D01*
X135489921Y-107180001D02*
X134512077Y-107180001D01*
X134512077Y-107180001D02*
X132935075Y-105602999D01*
X141751050Y-104425750D02*
X139971169Y-106205631D01*
X104743460Y-105816400D02*
X103682800Y-105816400D01*
X139971169Y-106205631D02*
X136464291Y-106205631D01*
X141751050Y-104089200D02*
X141751050Y-104425750D01*
X143021050Y-102819200D02*
X141751050Y-104089200D01*
X111880721Y-104612399D02*
X106015568Y-104612399D01*
X104811567Y-105816400D02*
X104743460Y-105816400D01*
X136464291Y-106205631D02*
X135489921Y-107180001D01*
D41*
X119735600Y-95173800D02*
X117074950Y-95173800D01*
X117074950Y-95173800D02*
X115951000Y-96297750D01*
X115951000Y-96297750D02*
X115951000Y-96647000D01*
X104368600Y-95300800D02*
X103266199Y-94198399D01*
X103266199Y-86069721D02*
X103063699Y-85867221D01*
X103266199Y-94198399D02*
X103266199Y-86069721D01*
X103063699Y-85867221D02*
X103063699Y-83397701D01*
X103063699Y-83397701D02*
X103416101Y-83045299D01*
X103416101Y-83045299D02*
X104279700Y-82181700D01*
X104876600Y-103784400D02*
X103618601Y-102526401D01*
X103618601Y-102526401D02*
X103618601Y-96050799D01*
X103618601Y-96050799D02*
X104368600Y-95300800D01*
D42*
X101346000Y-97942400D02*
X97739200Y-97942400D01*
X97739200Y-97942400D02*
X96382799Y-96585999D01*
X96382799Y-96585999D02*
X96382799Y-91340001D01*
X96382799Y-91340001D02*
X96832801Y-90889999D01*
X96832801Y-90889999D02*
X98032800Y-89690000D01*
D47*
X128016000Y-127254000D02*
X125165999Y-124403999D01*
X125165999Y-124403999D02*
X121362403Y-124403999D01*
X121362403Y-124403999D02*
X120125601Y-125640801D01*
X120125601Y-125640801D02*
X115941999Y-125640801D01*
X115941999Y-125640801D02*
X113744000Y-123442802D01*
X113744000Y-123442802D02*
X113744000Y-120362120D01*
X113744000Y-120362120D02*
X113744000Y-118240800D01*
D46*
X100482400Y-110617000D02*
X101066600Y-110617000D01*
X101066600Y-110617000D02*
X103682800Y-108000800D01*
X96266000Y-115468400D02*
X97015999Y-114718401D01*
X97015999Y-114083401D02*
X99732401Y-111366999D01*
X97015999Y-114718401D02*
X97015999Y-114083401D01*
X99732401Y-111366999D02*
X100482400Y-110617000D01*
X96266000Y-115468400D02*
X97990001Y-117192401D01*
X97990001Y-117192401D02*
X97990001Y-119027599D01*
X97990001Y-119027599D02*
X96520000Y-120497600D01*
X98501200Y-115468400D02*
X99251199Y-116218399D01*
X110858999Y-113652999D02*
X110109000Y-112903000D01*
X99251199Y-116218399D02*
X99251199Y-117848765D01*
X108527351Y-118501771D02*
X111262201Y-115766921D01*
X99251199Y-117848765D02*
X99904205Y-118501771D01*
X99904205Y-118501771D02*
X108527351Y-118501771D01*
X111262201Y-115766921D02*
X111262201Y-114056201D01*
X111262201Y-114056201D02*
X110858999Y-113652999D01*
D41*
X117729000Y-112903000D02*
X115570000Y-110744000D01*
X115570000Y-110744000D02*
X115570000Y-109061250D01*
X111099600Y-102920800D02*
X107304229Y-99125429D01*
X107304229Y-99125429D02*
X107304229Y-96206525D01*
X110248001Y-88405399D02*
X110998000Y-87655400D01*
X107304229Y-96206525D02*
X107706201Y-95804553D01*
X107706201Y-95804553D02*
X107706201Y-90947199D01*
X107706201Y-90947199D02*
X110248001Y-88405399D01*
X122023264Y-84427936D02*
X122023264Y-84467842D01*
X124968000Y-81483200D02*
X122023264Y-84427936D01*
X122402600Y-95275400D02*
X121031000Y-96647000D01*
X122402600Y-91313000D02*
X122402600Y-95275400D01*
X127479852Y-84447988D02*
X127884663Y-84852799D01*
X122965780Y-84447988D02*
X127479852Y-84447988D01*
X119626380Y-87622380D02*
X119210198Y-87206198D01*
X130471199Y-84852799D02*
X131026801Y-85408401D01*
X119975630Y-87622380D02*
X119626380Y-87622380D01*
X121031000Y-88677750D02*
X119975630Y-87622380D01*
X119210198Y-87206198D02*
X119210198Y-86478646D01*
X119210198Y-86478646D02*
X120367045Y-85321799D01*
X127884663Y-84852799D02*
X130471199Y-84852799D01*
X122091969Y-85321799D02*
X122965780Y-84447988D01*
X121031000Y-89027000D02*
X121031000Y-88677750D01*
X131026801Y-85408401D02*
X131876800Y-86258400D01*
X120367045Y-85321799D02*
X122091969Y-85321799D01*
X123571000Y-89027000D02*
X123571000Y-88677750D01*
X123571000Y-88677750D02*
X124720350Y-87528400D01*
X124720350Y-87528400D02*
X132943600Y-87528400D01*
X132943600Y-87528400D02*
X133566801Y-86905199D01*
X133566801Y-86905199D02*
X134416800Y-86055200D01*
X124328214Y-101020230D02*
X120736980Y-101020230D01*
X128703324Y-101020230D02*
X125099786Y-101020230D01*
X130007401Y-99716153D02*
X128703324Y-101020230D01*
X120736980Y-101020230D02*
X119634000Y-99917250D01*
X125099786Y-101020230D02*
X125027154Y-100947598D01*
X130007401Y-98352651D02*
X130007401Y-99716153D01*
X128651000Y-96647000D02*
X128651000Y-96996250D01*
X119634000Y-99917250D02*
X119634000Y-99568000D01*
X124400846Y-100947598D02*
X124328214Y-101020230D01*
X125027154Y-100947598D02*
X124400846Y-100947598D01*
X128651000Y-96996250D02*
X130007401Y-98352651D01*
X113583999Y-91714599D02*
X113284000Y-91414600D01*
X114952402Y-93083002D02*
X113583999Y-91714599D01*
X114952402Y-93785154D02*
X114952402Y-93083002D01*
X114613154Y-94124402D02*
X114952402Y-93785154D01*
X114613154Y-97218253D02*
X114613154Y-94124402D01*
X115510671Y-98115770D02*
X114613154Y-97218253D01*
X118531020Y-98115770D02*
X115510671Y-98115770D01*
X119634000Y-99218750D02*
X118531020Y-98115770D01*
X119634000Y-99568000D02*
X119634000Y-99218750D01*
X106819700Y-85229700D02*
X106819700Y-84721700D01*
X104368600Y-87680800D02*
X106819700Y-85229700D01*
X124764800Y-91084400D02*
X126111000Y-92430600D01*
X126111000Y-92430600D02*
X126111000Y-96647000D01*
X106819700Y-84721700D02*
X106819700Y-82181700D01*
X117856000Y-92456000D02*
X116078000Y-90678000D01*
X116078000Y-90678000D02*
X114300000Y-90678000D01*
X109359700Y-84721700D02*
X109359700Y-82181700D01*
X130048000Y-95072200D02*
X126111000Y-91135200D01*
X126111000Y-91135200D02*
X126111000Y-89027000D01*
X140563600Y-99771200D02*
X140563600Y-99441000D01*
X140563600Y-99441000D02*
X139115800Y-97993200D01*
X107416600Y-101879400D02*
X107416600Y-100641921D01*
X107416600Y-100641921D02*
X106603800Y-99829121D01*
X106603800Y-99829121D02*
X106603800Y-96336060D01*
X106603800Y-96336060D02*
X106603800Y-95275400D01*
X135559800Y-93847920D02*
X133640830Y-93847920D01*
X133640830Y-93847920D02*
X131191000Y-96297750D01*
X131191000Y-96297750D02*
X131191000Y-96647000D01*
X132588000Y-81483200D02*
X130708400Y-81483200D01*
X130708400Y-81483200D02*
X128524000Y-83667600D01*
X127660400Y-109880400D02*
X127660400Y-108051600D01*
X127660400Y-108051600D02*
X128905000Y-106807000D01*
X134823200Y-111709200D02*
X132994400Y-109880400D01*
X132994400Y-109880400D02*
X127660400Y-109880400D01*
D48*
G36*
X109918041Y-105539698D02*
X109917560Y-106090685D01*
X110127969Y-106599915D01*
X110517236Y-106989861D01*
X110521511Y-106991636D01*
X110510888Y-107029283D01*
X111302800Y-107821195D01*
X111316943Y-107807053D01*
X111496548Y-107986658D01*
X111482405Y-108000800D01*
X111496548Y-108014943D01*
X111316943Y-108194548D01*
X111302800Y-108180405D01*
X110510888Y-108972317D01*
X110578877Y-109213260D01*
X111097971Y-109398001D01*
X111617801Y-109371578D01*
X111617801Y-112103415D01*
X111567001Y-112358803D01*
X111653398Y-112793148D01*
X111899435Y-113161369D01*
X116179633Y-117441567D01*
X116547853Y-117687604D01*
X116982199Y-117774001D01*
X118374201Y-117774001D01*
X118654830Y-117718180D01*
X118654830Y-117883637D01*
X118760300Y-118413872D01*
X119060654Y-118863383D01*
X119162124Y-118931183D01*
X118952085Y-119017969D01*
X118562139Y-119407236D01*
X118350841Y-119916098D01*
X118350360Y-120467085D01*
X118560769Y-120976315D01*
X118919913Y-121336085D01*
X118562139Y-121693236D01*
X118350841Y-122202098D01*
X118350446Y-122654808D01*
X118268831Y-122457285D01*
X117879564Y-122067339D01*
X117370702Y-121856041D01*
X116819715Y-121855560D01*
X116310485Y-122065969D01*
X115920539Y-122455236D01*
X115774332Y-122807342D01*
X115629000Y-122662010D01*
X115629000Y-119268512D01*
X115878628Y-118667341D01*
X115879370Y-117817985D01*
X115555020Y-117033000D01*
X114954959Y-116431891D01*
X114170541Y-116106172D01*
X113321185Y-116105430D01*
X112536200Y-116429780D01*
X111935091Y-117029841D01*
X111609372Y-117814259D01*
X111608630Y-118663615D01*
X111859000Y-119269555D01*
X111859000Y-119656393D01*
X111528702Y-119519241D01*
X110977715Y-119518760D01*
X110468485Y-119729169D01*
X110078539Y-120118436D01*
X109867241Y-120627298D01*
X109866760Y-121178285D01*
X110077169Y-121687515D01*
X110466436Y-122077461D01*
X110975298Y-122288759D01*
X111526285Y-122289240D01*
X111859000Y-122151765D01*
X111859000Y-123442802D01*
X112002487Y-124164161D01*
X112211112Y-124476390D01*
X112037564Y-124302539D01*
X111528702Y-124091241D01*
X110977715Y-124090760D01*
X110468485Y-124301169D01*
X110078539Y-124690436D01*
X109867241Y-125199298D01*
X109866760Y-125750285D01*
X110077169Y-126259515D01*
X110466436Y-126649461D01*
X110975298Y-126860759D01*
X111526285Y-126861240D01*
X112035515Y-126650831D01*
X112425461Y-126261564D01*
X112636759Y-125752702D01*
X112637240Y-125201715D01*
X112496498Y-124861092D01*
X114609103Y-126973697D01*
X115220640Y-127382314D01*
X115941999Y-127525801D01*
X120125601Y-127525801D01*
X120846960Y-127382314D01*
X121101035Y-127212546D01*
X121100682Y-127617403D01*
X121379455Y-128292086D01*
X121895199Y-128808730D01*
X122569395Y-129088681D01*
X123299403Y-129089318D01*
X123974086Y-128810545D01*
X124490730Y-128294801D01*
X124770681Y-127620605D01*
X124771318Y-126890597D01*
X124619587Y-126523379D01*
X126168560Y-128072352D01*
X126168560Y-128454000D01*
X126212838Y-128689317D01*
X126351910Y-128905441D01*
X126564110Y-129050431D01*
X126816000Y-129101440D01*
X127827173Y-129101440D01*
X128016000Y-129139000D01*
X128204827Y-129101440D01*
X129216000Y-129101440D01*
X129451317Y-129057162D01*
X129667441Y-128918090D01*
X129812431Y-128705890D01*
X129863440Y-128454000D01*
X129863440Y-127442827D01*
X129901000Y-127254000D01*
X129863440Y-127065173D01*
X129863440Y-126054000D01*
X129819162Y-125818683D01*
X129680090Y-125602559D01*
X129467890Y-125457569D01*
X129216000Y-125406560D01*
X128834352Y-125406560D01*
X127291537Y-123863745D01*
X127629885Y-123864040D01*
X128139115Y-123653631D01*
X128529061Y-123264364D01*
X128740359Y-122755502D01*
X128740840Y-122204515D01*
X128530431Y-121695285D01*
X128171287Y-121335515D01*
X128529061Y-120978364D01*
X128740359Y-120469502D01*
X128740527Y-120277124D01*
X128957314Y-120801791D01*
X129487021Y-121332422D01*
X130179469Y-121619952D01*
X130929241Y-121620606D01*
X131622191Y-121334286D01*
X131888251Y-121068689D01*
X133212517Y-121068689D01*
X133341725Y-121361459D01*
X134041883Y-121629671D01*
X134791384Y-121609528D01*
X135390275Y-121361459D01*
X135519483Y-121068689D01*
X134366000Y-119915205D01*
X133212517Y-121068689D01*
X131888251Y-121068689D01*
X132152822Y-120804579D01*
X132440352Y-120112131D01*
X132440963Y-119411483D01*
X132471929Y-119411483D01*
X132492072Y-120160984D01*
X132740141Y-120759875D01*
X133032911Y-120889083D01*
X134186395Y-119735600D01*
X134545605Y-119735600D01*
X135699089Y-120889083D01*
X135991859Y-120759875D01*
X136260071Y-120059717D01*
X136239928Y-119310216D01*
X135991859Y-118711325D01*
X135699089Y-118582117D01*
X134545605Y-119735600D01*
X134186395Y-119735600D01*
X133032911Y-118582117D01*
X132740141Y-118711325D01*
X132471929Y-119411483D01*
X132440963Y-119411483D01*
X132441006Y-119362359D01*
X132154686Y-118669409D01*
X131888253Y-118402511D01*
X133212517Y-118402511D01*
X134366000Y-119555995D01*
X135519483Y-118402511D01*
X135390275Y-118109741D01*
X134690117Y-117841529D01*
X133940616Y-117861672D01*
X133341725Y-118109741D01*
X133212517Y-118402511D01*
X131888253Y-118402511D01*
X131624979Y-118138778D01*
X130932531Y-117851248D01*
X130825715Y-117851155D01*
X131289037Y-117659714D01*
X131679144Y-117270287D01*
X131890529Y-116761216D01*
X131891010Y-116210002D01*
X131680514Y-115700563D01*
X131291087Y-115310456D01*
X131075704Y-115221021D01*
X131229465Y-115157331D01*
X131297525Y-114916330D01*
X130505200Y-114124005D01*
X130491058Y-114138148D01*
X130311453Y-113958543D01*
X130325595Y-113944400D01*
X130684805Y-113944400D01*
X131477130Y-114736725D01*
X131718131Y-114668665D01*
X131902967Y-114149366D01*
X131902646Y-114143036D01*
X132762593Y-114143036D01*
X132792918Y-114633413D01*
X132885111Y-114855990D01*
X132813969Y-114960110D01*
X132762960Y-115212000D01*
X132762960Y-116412000D01*
X132807238Y-116647317D01*
X132946310Y-116863441D01*
X133158510Y-117008431D01*
X133410400Y-117059440D01*
X134610400Y-117059440D01*
X134845717Y-117015162D01*
X135061841Y-116876090D01*
X135206831Y-116663890D01*
X135257840Y-116412000D01*
X135257840Y-115893255D01*
X136220200Y-115893255D01*
X136220200Y-115957945D01*
X136345875Y-116589755D01*
X136703767Y-117125378D01*
X137239390Y-117483270D01*
X137871200Y-117608945D01*
X138503010Y-117483270D01*
X138839201Y-117258634D01*
X138856873Y-117301298D01*
X139035501Y-117479927D01*
X139268890Y-117576600D01*
X140125450Y-117576600D01*
X140284200Y-117417850D01*
X140284200Y-116052600D01*
X140264200Y-116052600D01*
X140264200Y-115798600D01*
X140284200Y-115798600D01*
X140284200Y-114433350D01*
X140125450Y-114274600D01*
X139268890Y-114274600D01*
X139035501Y-114371273D01*
X138856873Y-114549902D01*
X138839201Y-114592566D01*
X138503010Y-114367930D01*
X137871200Y-114242255D01*
X137239390Y-114367930D01*
X136703767Y-114725822D01*
X136345875Y-115261445D01*
X136220200Y-115893255D01*
X135257840Y-115893255D01*
X135257840Y-115212000D01*
X135213562Y-114976683D01*
X135131634Y-114849364D01*
X135258207Y-114480964D01*
X135227882Y-113990587D01*
X135098564Y-113678383D01*
X134873135Y-113628870D01*
X134190005Y-114312000D01*
X134204148Y-114326143D01*
X134024543Y-114505748D01*
X134010400Y-114491605D01*
X133996258Y-114505748D01*
X133816653Y-114326143D01*
X133830795Y-114312000D01*
X133147665Y-113628870D01*
X132922236Y-113678383D01*
X132762593Y-114143036D01*
X131902646Y-114143036D01*
X131875005Y-113598862D01*
X131813040Y-113449265D01*
X133327270Y-113449265D01*
X134010400Y-114132395D01*
X134693530Y-113449265D01*
X134644017Y-113223836D01*
X134179364Y-113064193D01*
X133688987Y-113094518D01*
X133376783Y-113223836D01*
X133327270Y-113449265D01*
X131813040Y-113449265D01*
X131718131Y-113220135D01*
X131477130Y-113152075D01*
X130684805Y-113944400D01*
X130325595Y-113944400D01*
X129533270Y-113152075D01*
X129292269Y-113220135D01*
X129107433Y-113739434D01*
X129135395Y-114289938D01*
X129249566Y-114565570D01*
X119974338Y-114565570D01*
X122081806Y-112458102D01*
X122252493Y-112202651D01*
X122312430Y-111901326D01*
X122312430Y-111611172D01*
X122325164Y-111598438D01*
X122580400Y-111649207D01*
X123110635Y-111543737D01*
X123560146Y-111243383D01*
X123850400Y-110808988D01*
X124140654Y-111243383D01*
X124590165Y-111543737D01*
X125120400Y-111649207D01*
X125650635Y-111543737D01*
X126100146Y-111243383D01*
X126390400Y-110808988D01*
X126680654Y-111243383D01*
X127045103Y-111486900D01*
X127030362Y-111522401D01*
X127030038Y-111894367D01*
X127172083Y-112238143D01*
X127434873Y-112501392D01*
X127778401Y-112644038D01*
X128150367Y-112644362D01*
X128494143Y-112502317D01*
X128527344Y-112469174D01*
X128690789Y-112436663D01*
X128946240Y-112265976D01*
X129475776Y-111736440D01*
X129475560Y-111983485D01*
X129685969Y-112492715D01*
X129882366Y-112689455D01*
X129780935Y-112731469D01*
X129712875Y-112972470D01*
X130505200Y-113764795D01*
X131204051Y-113065944D01*
X131644315Y-112884031D01*
X131851420Y-112677287D01*
X132056436Y-112882661D01*
X132565298Y-113093959D01*
X133116285Y-113094440D01*
X133625515Y-112884031D01*
X133832620Y-112677287D01*
X134037636Y-112882661D01*
X134546498Y-113093959D01*
X135097485Y-113094440D01*
X135606715Y-112884031D01*
X135996661Y-112494764D01*
X136207959Y-111985902D01*
X136208440Y-111434915D01*
X135998031Y-110925685D01*
X135608764Y-110535739D01*
X135099902Y-110324441D01*
X134551514Y-110323962D01*
X133551176Y-109323624D01*
X133295725Y-109152937D01*
X132994400Y-109093000D01*
X128965577Y-109093000D01*
X128940500Y-108966928D01*
X128640146Y-108517417D01*
X128447800Y-108388895D01*
X128447800Y-108377752D01*
X128633788Y-108191764D01*
X129179285Y-108192240D01*
X129688515Y-107981831D01*
X130078461Y-107592564D01*
X130289759Y-107083702D01*
X130290240Y-106532715D01*
X130273417Y-106491999D01*
X132566839Y-106491999D01*
X133883459Y-107808619D01*
X134171872Y-108001331D01*
X134512077Y-108069001D01*
X135489921Y-108069001D01*
X135830127Y-108001330D01*
X136118539Y-107808619D01*
X136214387Y-107712771D01*
X136304915Y-108167889D01*
X136629771Y-108654070D01*
X136944552Y-108864400D01*
X136629771Y-109074730D01*
X136304915Y-109560911D01*
X136190841Y-110134400D01*
X136304915Y-110707889D01*
X136629771Y-111194070D01*
X136944552Y-111404400D01*
X136629771Y-111614730D01*
X136304915Y-112100911D01*
X136190841Y-112674400D01*
X136304915Y-113247889D01*
X136629771Y-113734070D01*
X137115952Y-114058926D01*
X137689441Y-114173000D01*
X137748159Y-114173000D01*
X138321648Y-114058926D01*
X138787242Y-113747826D01*
X138792038Y-113773317D01*
X138931110Y-113989441D01*
X139143310Y-114134431D01*
X139395200Y-114185440D01*
X140729668Y-114185440D01*
X140747338Y-114274276D01*
X140747554Y-114274600D01*
X140696950Y-114274600D01*
X140538200Y-114433350D01*
X140538200Y-115798600D01*
X140558200Y-115798600D01*
X140558200Y-116052600D01*
X140538200Y-116052600D01*
X140538200Y-117417850D01*
X140696950Y-117576600D01*
X141553510Y-117576600D01*
X141703070Y-117514650D01*
X141696428Y-117524591D01*
X141590088Y-118059200D01*
X141696428Y-118593809D01*
X141999260Y-119047028D01*
X142421559Y-119329200D01*
X141999260Y-119611372D01*
X141696428Y-120064591D01*
X141590088Y-120599200D01*
X141626196Y-120780728D01*
X140626326Y-120365546D01*
X139955368Y-120364960D01*
X140060352Y-120112131D01*
X140061006Y-119362359D01*
X139774686Y-118669409D01*
X139244979Y-118138778D01*
X138552531Y-117851248D01*
X137802759Y-117850594D01*
X137109809Y-118136914D01*
X136579178Y-118666621D01*
X136291648Y-119359069D01*
X136290994Y-120108841D01*
X136577314Y-120801791D01*
X137107021Y-121332422D01*
X137549766Y-121516266D01*
X137343826Y-121721847D01*
X136865546Y-122873674D01*
X136864457Y-124120854D01*
X137340727Y-125273515D01*
X138221847Y-126156174D01*
X139373674Y-126634454D01*
X140620854Y-126635543D01*
X141773515Y-126159273D01*
X142656174Y-125278153D01*
X143134454Y-124126326D01*
X143135543Y-122879146D01*
X142751341Y-121949307D01*
X142987088Y-121996200D01*
X143728112Y-121996200D01*
X144262721Y-121889860D01*
X144290000Y-121871633D01*
X144290000Y-124930069D01*
X143950592Y-126636390D01*
X143023654Y-128023651D01*
X141636390Y-128950592D01*
X139930069Y-129290000D01*
X109620077Y-129290000D01*
X109878628Y-128667341D01*
X109879370Y-127817985D01*
X109555020Y-127033000D01*
X108954959Y-126431891D01*
X108170541Y-126106172D01*
X107321185Y-126105430D01*
X106536200Y-126429780D01*
X105935091Y-127029841D01*
X105609372Y-127814259D01*
X105608630Y-128663615D01*
X105867448Y-129290000D01*
X100069931Y-129290000D01*
X98363610Y-128950592D01*
X96976349Y-128023654D01*
X96049408Y-126636390D01*
X95710000Y-124930069D01*
X95710000Y-122161040D01*
X97161457Y-122161040D01*
X96865546Y-122873674D01*
X96864457Y-124120854D01*
X97340727Y-125273515D01*
X98221847Y-126156174D01*
X99373674Y-126634454D01*
X100620854Y-126635543D01*
X101773515Y-126159273D01*
X102656174Y-125278153D01*
X103134454Y-124126326D01*
X103134722Y-123819936D01*
X103219169Y-124024315D01*
X103608436Y-124414261D01*
X104117298Y-124625559D01*
X104668285Y-124626040D01*
X105177515Y-124415631D01*
X105567461Y-124026364D01*
X105778759Y-123517502D01*
X105779240Y-122966515D01*
X105568831Y-122457285D01*
X105179564Y-122067339D01*
X104670702Y-121856041D01*
X104122314Y-121855562D01*
X101868176Y-119601424D01*
X101868210Y-119562802D01*
X101797128Y-119390771D01*
X108527351Y-119390771D01*
X108867557Y-119323100D01*
X109155969Y-119130389D01*
X111890819Y-116395539D01*
X111961519Y-116289729D01*
X112083530Y-116107127D01*
X112151201Y-115766921D01*
X112151201Y-114056201D01*
X112083530Y-113715995D01*
X111890819Y-113427583D01*
X111493889Y-113030653D01*
X111494240Y-112628715D01*
X111283831Y-112119485D01*
X110894564Y-111729539D01*
X110864626Y-111717108D01*
X110900912Y-111588517D01*
X110109000Y-110796605D01*
X109317088Y-111588517D01*
X109353257Y-111716694D01*
X109325485Y-111728169D01*
X109118358Y-111934935D01*
X108930787Y-111747037D01*
X109275861Y-111402564D01*
X109369615Y-111176780D01*
X109929395Y-110617000D01*
X110288605Y-110617000D01*
X111080517Y-111408912D01*
X111321460Y-111340923D01*
X111506201Y-110821829D01*
X111478230Y-110271552D01*
X111321460Y-109893077D01*
X111080517Y-109825088D01*
X110288605Y-110617000D01*
X109929395Y-110617000D01*
X109369719Y-110057324D01*
X109277231Y-109833485D01*
X109089557Y-109645483D01*
X109317088Y-109645483D01*
X110109000Y-110437395D01*
X110900912Y-109645483D01*
X110832923Y-109404540D01*
X110313829Y-109219799D01*
X109763552Y-109247770D01*
X109385077Y-109404540D01*
X109317088Y-109645483D01*
X109089557Y-109645483D01*
X108887964Y-109443539D01*
X108379102Y-109232241D01*
X107828115Y-109231760D01*
X107318885Y-109442169D01*
X106928939Y-109831436D01*
X106717641Y-110340298D01*
X106717160Y-110891285D01*
X106927569Y-111400515D01*
X107274013Y-111747563D01*
X106928939Y-112092036D01*
X106717641Y-112600898D01*
X106717160Y-113151885D01*
X106927569Y-113661115D01*
X107312113Y-114046329D01*
X106930778Y-114427000D01*
X105664000Y-114427000D01*
X105362675Y-114486937D01*
X105107224Y-114657624D01*
X103352004Y-116412844D01*
X103345233Y-116412838D01*
X103001457Y-116554883D01*
X102738208Y-116817673D01*
X102595562Y-117161201D01*
X102595238Y-117533167D01*
X102628130Y-117612771D01*
X101851636Y-117612771D01*
X101867729Y-117574016D01*
X101868210Y-117022802D01*
X101657714Y-116513363D01*
X101400090Y-116255289D01*
X101655861Y-115999964D01*
X101867159Y-115491102D01*
X101867640Y-114940115D01*
X101657231Y-114430885D01*
X101272687Y-114045671D01*
X101655861Y-113663164D01*
X101867159Y-113154302D01*
X101867640Y-112603315D01*
X101657231Y-112094085D01*
X101310787Y-111747037D01*
X101655861Y-111402564D01*
X101739360Y-111201476D01*
X103555147Y-109385689D01*
X103957085Y-109386040D01*
X104466315Y-109175631D01*
X104856261Y-108786364D01*
X105067559Y-108277502D01*
X105067979Y-107795971D01*
X109905599Y-107795971D01*
X109933570Y-108346248D01*
X110090340Y-108724723D01*
X110331283Y-108792712D01*
X111123195Y-108000800D01*
X110331283Y-107208888D01*
X110090340Y-107276877D01*
X109905599Y-107795971D01*
X105067979Y-107795971D01*
X105068040Y-107726515D01*
X104857631Y-107217285D01*
X104549287Y-106908403D01*
X104752645Y-106705400D01*
X104811567Y-106705400D01*
X105151773Y-106637729D01*
X105440185Y-106445018D01*
X106348203Y-105537000D01*
X109919161Y-105537000D01*
X109918041Y-105539698D01*
X109918041Y-105539698D01*
G37*
X109918041Y-105539698D02*
X109917560Y-106090685D01*
X110127969Y-106599915D01*
X110517236Y-106989861D01*
X110521511Y-106991636D01*
X110510888Y-107029283D01*
X111302800Y-107821195D01*
X111316943Y-107807053D01*
X111496548Y-107986658D01*
X111482405Y-108000800D01*
X111496548Y-108014943D01*
X111316943Y-108194548D01*
X111302800Y-108180405D01*
X110510888Y-108972317D01*
X110578877Y-109213260D01*
X111097971Y-109398001D01*
X111617801Y-109371578D01*
X111617801Y-112103415D01*
X111567001Y-112358803D01*
X111653398Y-112793148D01*
X111899435Y-113161369D01*
X116179633Y-117441567D01*
X116547853Y-117687604D01*
X116982199Y-117774001D01*
X118374201Y-117774001D01*
X118654830Y-117718180D01*
X118654830Y-117883637D01*
X118760300Y-118413872D01*
X119060654Y-118863383D01*
X119162124Y-118931183D01*
X118952085Y-119017969D01*
X118562139Y-119407236D01*
X118350841Y-119916098D01*
X118350360Y-120467085D01*
X118560769Y-120976315D01*
X118919913Y-121336085D01*
X118562139Y-121693236D01*
X118350841Y-122202098D01*
X118350446Y-122654808D01*
X118268831Y-122457285D01*
X117879564Y-122067339D01*
X117370702Y-121856041D01*
X116819715Y-121855560D01*
X116310485Y-122065969D01*
X115920539Y-122455236D01*
X115774332Y-122807342D01*
X115629000Y-122662010D01*
X115629000Y-119268512D01*
X115878628Y-118667341D01*
X115879370Y-117817985D01*
X115555020Y-117033000D01*
X114954959Y-116431891D01*
X114170541Y-116106172D01*
X113321185Y-116105430D01*
X112536200Y-116429780D01*
X111935091Y-117029841D01*
X111609372Y-117814259D01*
X111608630Y-118663615D01*
X111859000Y-119269555D01*
X111859000Y-119656393D01*
X111528702Y-119519241D01*
X110977715Y-119518760D01*
X110468485Y-119729169D01*
X110078539Y-120118436D01*
X109867241Y-120627298D01*
X109866760Y-121178285D01*
X110077169Y-121687515D01*
X110466436Y-122077461D01*
X110975298Y-122288759D01*
X111526285Y-122289240D01*
X111859000Y-122151765D01*
X111859000Y-123442802D01*
X112002487Y-124164161D01*
X112211112Y-124476390D01*
X112037564Y-124302539D01*
X111528702Y-124091241D01*
X110977715Y-124090760D01*
X110468485Y-124301169D01*
X110078539Y-124690436D01*
X109867241Y-125199298D01*
X109866760Y-125750285D01*
X110077169Y-126259515D01*
X110466436Y-126649461D01*
X110975298Y-126860759D01*
X111526285Y-126861240D01*
X112035515Y-126650831D01*
X112425461Y-126261564D01*
X112636759Y-125752702D01*
X112637240Y-125201715D01*
X112496498Y-124861092D01*
X114609103Y-126973697D01*
X115220640Y-127382314D01*
X115941999Y-127525801D01*
X120125601Y-127525801D01*
X120846960Y-127382314D01*
X121101035Y-127212546D01*
X121100682Y-127617403D01*
X121379455Y-128292086D01*
X121895199Y-128808730D01*
X122569395Y-129088681D01*
X123299403Y-129089318D01*
X123974086Y-128810545D01*
X124490730Y-128294801D01*
X124770681Y-127620605D01*
X124771318Y-126890597D01*
X124619587Y-126523379D01*
X126168560Y-128072352D01*
X126168560Y-128454000D01*
X126212838Y-128689317D01*
X126351910Y-128905441D01*
X126564110Y-129050431D01*
X126816000Y-129101440D01*
X127827173Y-129101440D01*
X128016000Y-129139000D01*
X128204827Y-129101440D01*
X129216000Y-129101440D01*
X129451317Y-129057162D01*
X129667441Y-128918090D01*
X129812431Y-128705890D01*
X129863440Y-128454000D01*
X129863440Y-127442827D01*
X129901000Y-127254000D01*
X129863440Y-127065173D01*
X129863440Y-126054000D01*
X129819162Y-125818683D01*
X129680090Y-125602559D01*
X129467890Y-125457569D01*
X129216000Y-125406560D01*
X128834352Y-125406560D01*
X127291537Y-123863745D01*
X127629885Y-123864040D01*
X128139115Y-123653631D01*
X128529061Y-123264364D01*
X128740359Y-122755502D01*
X128740840Y-122204515D01*
X128530431Y-121695285D01*
X128171287Y-121335515D01*
X128529061Y-120978364D01*
X128740359Y-120469502D01*
X128740527Y-120277124D01*
X128957314Y-120801791D01*
X129487021Y-121332422D01*
X130179469Y-121619952D01*
X130929241Y-121620606D01*
X131622191Y-121334286D01*
X131888251Y-121068689D01*
X133212517Y-121068689D01*
X133341725Y-121361459D01*
X134041883Y-121629671D01*
X134791384Y-121609528D01*
X135390275Y-121361459D01*
X135519483Y-121068689D01*
X134366000Y-119915205D01*
X133212517Y-121068689D01*
X131888251Y-121068689D01*
X132152822Y-120804579D01*
X132440352Y-120112131D01*
X132440963Y-119411483D01*
X132471929Y-119411483D01*
X132492072Y-120160984D01*
X132740141Y-120759875D01*
X133032911Y-120889083D01*
X134186395Y-119735600D01*
X134545605Y-119735600D01*
X135699089Y-120889083D01*
X135991859Y-120759875D01*
X136260071Y-120059717D01*
X136239928Y-119310216D01*
X135991859Y-118711325D01*
X135699089Y-118582117D01*
X134545605Y-119735600D01*
X134186395Y-119735600D01*
X133032911Y-118582117D01*
X132740141Y-118711325D01*
X132471929Y-119411483D01*
X132440963Y-119411483D01*
X132441006Y-119362359D01*
X132154686Y-118669409D01*
X131888253Y-118402511D01*
X133212517Y-118402511D01*
X134366000Y-119555995D01*
X135519483Y-118402511D01*
X135390275Y-118109741D01*
X134690117Y-117841529D01*
X133940616Y-117861672D01*
X133341725Y-118109741D01*
X133212517Y-118402511D01*
X131888253Y-118402511D01*
X131624979Y-118138778D01*
X130932531Y-117851248D01*
X130825715Y-117851155D01*
X131289037Y-117659714D01*
X131679144Y-117270287D01*
X131890529Y-116761216D01*
X131891010Y-116210002D01*
X131680514Y-115700563D01*
X131291087Y-115310456D01*
X131075704Y-115221021D01*
X131229465Y-115157331D01*
X131297525Y-114916330D01*
X130505200Y-114124005D01*
X130491058Y-114138148D01*
X130311453Y-113958543D01*
X130325595Y-113944400D01*
X130684805Y-113944400D01*
X131477130Y-114736725D01*
X131718131Y-114668665D01*
X131902967Y-114149366D01*
X131902646Y-114143036D01*
X132762593Y-114143036D01*
X132792918Y-114633413D01*
X132885111Y-114855990D01*
X132813969Y-114960110D01*
X132762960Y-115212000D01*
X132762960Y-116412000D01*
X132807238Y-116647317D01*
X132946310Y-116863441D01*
X133158510Y-117008431D01*
X133410400Y-117059440D01*
X134610400Y-117059440D01*
X134845717Y-117015162D01*
X135061841Y-116876090D01*
X135206831Y-116663890D01*
X135257840Y-116412000D01*
X135257840Y-115893255D01*
X136220200Y-115893255D01*
X136220200Y-115957945D01*
X136345875Y-116589755D01*
X136703767Y-117125378D01*
X137239390Y-117483270D01*
X137871200Y-117608945D01*
X138503010Y-117483270D01*
X138839201Y-117258634D01*
X138856873Y-117301298D01*
X139035501Y-117479927D01*
X139268890Y-117576600D01*
X140125450Y-117576600D01*
X140284200Y-117417850D01*
X140284200Y-116052600D01*
X140264200Y-116052600D01*
X140264200Y-115798600D01*
X140284200Y-115798600D01*
X140284200Y-114433350D01*
X140125450Y-114274600D01*
X139268890Y-114274600D01*
X139035501Y-114371273D01*
X138856873Y-114549902D01*
X138839201Y-114592566D01*
X138503010Y-114367930D01*
X137871200Y-114242255D01*
X137239390Y-114367930D01*
X136703767Y-114725822D01*
X136345875Y-115261445D01*
X136220200Y-115893255D01*
X135257840Y-115893255D01*
X135257840Y-115212000D01*
X135213562Y-114976683D01*
X135131634Y-114849364D01*
X135258207Y-114480964D01*
X135227882Y-113990587D01*
X135098564Y-113678383D01*
X134873135Y-113628870D01*
X134190005Y-114312000D01*
X134204148Y-114326143D01*
X134024543Y-114505748D01*
X134010400Y-114491605D01*
X133996258Y-114505748D01*
X133816653Y-114326143D01*
X133830795Y-114312000D01*
X133147665Y-113628870D01*
X132922236Y-113678383D01*
X132762593Y-114143036D01*
X131902646Y-114143036D01*
X131875005Y-113598862D01*
X131813040Y-113449265D01*
X133327270Y-113449265D01*
X134010400Y-114132395D01*
X134693530Y-113449265D01*
X134644017Y-113223836D01*
X134179364Y-113064193D01*
X133688987Y-113094518D01*
X133376783Y-113223836D01*
X133327270Y-113449265D01*
X131813040Y-113449265D01*
X131718131Y-113220135D01*
X131477130Y-113152075D01*
X130684805Y-113944400D01*
X130325595Y-113944400D01*
X129533270Y-113152075D01*
X129292269Y-113220135D01*
X129107433Y-113739434D01*
X129135395Y-114289938D01*
X129249566Y-114565570D01*
X119974338Y-114565570D01*
X122081806Y-112458102D01*
X122252493Y-112202651D01*
X122312430Y-111901326D01*
X122312430Y-111611172D01*
X122325164Y-111598438D01*
X122580400Y-111649207D01*
X123110635Y-111543737D01*
X123560146Y-111243383D01*
X123850400Y-110808988D01*
X124140654Y-111243383D01*
X124590165Y-111543737D01*
X125120400Y-111649207D01*
X125650635Y-111543737D01*
X126100146Y-111243383D01*
X126390400Y-110808988D01*
X126680654Y-111243383D01*
X127045103Y-111486900D01*
X127030362Y-111522401D01*
X127030038Y-111894367D01*
X127172083Y-112238143D01*
X127434873Y-112501392D01*
X127778401Y-112644038D01*
X128150367Y-112644362D01*
X128494143Y-112502317D01*
X128527344Y-112469174D01*
X128690789Y-112436663D01*
X128946240Y-112265976D01*
X129475776Y-111736440D01*
X129475560Y-111983485D01*
X129685969Y-112492715D01*
X129882366Y-112689455D01*
X129780935Y-112731469D01*
X129712875Y-112972470D01*
X130505200Y-113764795D01*
X131204051Y-113065944D01*
X131644315Y-112884031D01*
X131851420Y-112677287D01*
X132056436Y-112882661D01*
X132565298Y-113093959D01*
X133116285Y-113094440D01*
X133625515Y-112884031D01*
X133832620Y-112677287D01*
X134037636Y-112882661D01*
X134546498Y-113093959D01*
X135097485Y-113094440D01*
X135606715Y-112884031D01*
X135996661Y-112494764D01*
X136207959Y-111985902D01*
X136208440Y-111434915D01*
X135998031Y-110925685D01*
X135608764Y-110535739D01*
X135099902Y-110324441D01*
X134551514Y-110323962D01*
X133551176Y-109323624D01*
X133295725Y-109152937D01*
X132994400Y-109093000D01*
X128965577Y-109093000D01*
X128940500Y-108966928D01*
X128640146Y-108517417D01*
X128447800Y-108388895D01*
X128447800Y-108377752D01*
X128633788Y-108191764D01*
X129179285Y-108192240D01*
X129688515Y-107981831D01*
X130078461Y-107592564D01*
X130289759Y-107083702D01*
X130290240Y-106532715D01*
X130273417Y-106491999D01*
X132566839Y-106491999D01*
X133883459Y-107808619D01*
X134171872Y-108001331D01*
X134512077Y-108069001D01*
X135489921Y-108069001D01*
X135830127Y-108001330D01*
X136118539Y-107808619D01*
X136214387Y-107712771D01*
X136304915Y-108167889D01*
X136629771Y-108654070D01*
X136944552Y-108864400D01*
X136629771Y-109074730D01*
X136304915Y-109560911D01*
X136190841Y-110134400D01*
X136304915Y-110707889D01*
X136629771Y-111194070D01*
X136944552Y-111404400D01*
X136629771Y-111614730D01*
X136304915Y-112100911D01*
X136190841Y-112674400D01*
X136304915Y-113247889D01*
X136629771Y-113734070D01*
X137115952Y-114058926D01*
X137689441Y-114173000D01*
X137748159Y-114173000D01*
X138321648Y-114058926D01*
X138787242Y-113747826D01*
X138792038Y-113773317D01*
X138931110Y-113989441D01*
X139143310Y-114134431D01*
X139395200Y-114185440D01*
X140729668Y-114185440D01*
X140747338Y-114274276D01*
X140747554Y-114274600D01*
X140696950Y-114274600D01*
X140538200Y-114433350D01*
X140538200Y-115798600D01*
X140558200Y-115798600D01*
X140558200Y-116052600D01*
X140538200Y-116052600D01*
X140538200Y-117417850D01*
X140696950Y-117576600D01*
X141553510Y-117576600D01*
X141703070Y-117514650D01*
X141696428Y-117524591D01*
X141590088Y-118059200D01*
X141696428Y-118593809D01*
X141999260Y-119047028D01*
X142421559Y-119329200D01*
X141999260Y-119611372D01*
X141696428Y-120064591D01*
X141590088Y-120599200D01*
X141626196Y-120780728D01*
X140626326Y-120365546D01*
X139955368Y-120364960D01*
X140060352Y-120112131D01*
X140061006Y-119362359D01*
X139774686Y-118669409D01*
X139244979Y-118138778D01*
X138552531Y-117851248D01*
X137802759Y-117850594D01*
X137109809Y-118136914D01*
X136579178Y-118666621D01*
X136291648Y-119359069D01*
X136290994Y-120108841D01*
X136577314Y-120801791D01*
X137107021Y-121332422D01*
X137549766Y-121516266D01*
X137343826Y-121721847D01*
X136865546Y-122873674D01*
X136864457Y-124120854D01*
X137340727Y-125273515D01*
X138221847Y-126156174D01*
X139373674Y-126634454D01*
X140620854Y-126635543D01*
X141773515Y-126159273D01*
X142656174Y-125278153D01*
X143134454Y-124126326D01*
X143135543Y-122879146D01*
X142751341Y-121949307D01*
X142987088Y-121996200D01*
X143728112Y-121996200D01*
X144262721Y-121889860D01*
X144290000Y-121871633D01*
X144290000Y-124930069D01*
X143950592Y-126636390D01*
X143023654Y-128023651D01*
X141636390Y-128950592D01*
X139930069Y-129290000D01*
X109620077Y-129290000D01*
X109878628Y-128667341D01*
X109879370Y-127817985D01*
X109555020Y-127033000D01*
X108954959Y-126431891D01*
X108170541Y-126106172D01*
X107321185Y-126105430D01*
X106536200Y-126429780D01*
X105935091Y-127029841D01*
X105609372Y-127814259D01*
X105608630Y-128663615D01*
X105867448Y-129290000D01*
X100069931Y-129290000D01*
X98363610Y-128950592D01*
X96976349Y-128023654D01*
X96049408Y-126636390D01*
X95710000Y-124930069D01*
X95710000Y-122161040D01*
X97161457Y-122161040D01*
X96865546Y-122873674D01*
X96864457Y-124120854D01*
X97340727Y-125273515D01*
X98221847Y-126156174D01*
X99373674Y-126634454D01*
X100620854Y-126635543D01*
X101773515Y-126159273D01*
X102656174Y-125278153D01*
X103134454Y-124126326D01*
X103134722Y-123819936D01*
X103219169Y-124024315D01*
X103608436Y-124414261D01*
X104117298Y-124625559D01*
X104668285Y-124626040D01*
X105177515Y-124415631D01*
X105567461Y-124026364D01*
X105778759Y-123517502D01*
X105779240Y-122966515D01*
X105568831Y-122457285D01*
X105179564Y-122067339D01*
X104670702Y-121856041D01*
X104122314Y-121855562D01*
X101868176Y-119601424D01*
X101868210Y-119562802D01*
X101797128Y-119390771D01*
X108527351Y-119390771D01*
X108867557Y-119323100D01*
X109155969Y-119130389D01*
X111890819Y-116395539D01*
X111961519Y-116289729D01*
X112083530Y-116107127D01*
X112151201Y-115766921D01*
X112151201Y-114056201D01*
X112083530Y-113715995D01*
X111890819Y-113427583D01*
X111493889Y-113030653D01*
X111494240Y-112628715D01*
X111283831Y-112119485D01*
X110894564Y-111729539D01*
X110864626Y-111717108D01*
X110900912Y-111588517D01*
X110109000Y-110796605D01*
X109317088Y-111588517D01*
X109353257Y-111716694D01*
X109325485Y-111728169D01*
X109118358Y-111934935D01*
X108930787Y-111747037D01*
X109275861Y-111402564D01*
X109369615Y-111176780D01*
X109929395Y-110617000D01*
X110288605Y-110617000D01*
X111080517Y-111408912D01*
X111321460Y-111340923D01*
X111506201Y-110821829D01*
X111478230Y-110271552D01*
X111321460Y-109893077D01*
X111080517Y-109825088D01*
X110288605Y-110617000D01*
X109929395Y-110617000D01*
X109369719Y-110057324D01*
X109277231Y-109833485D01*
X109089557Y-109645483D01*
X109317088Y-109645483D01*
X110109000Y-110437395D01*
X110900912Y-109645483D01*
X110832923Y-109404540D01*
X110313829Y-109219799D01*
X109763552Y-109247770D01*
X109385077Y-109404540D01*
X109317088Y-109645483D01*
X109089557Y-109645483D01*
X108887964Y-109443539D01*
X108379102Y-109232241D01*
X107828115Y-109231760D01*
X107318885Y-109442169D01*
X106928939Y-109831436D01*
X106717641Y-110340298D01*
X106717160Y-110891285D01*
X106927569Y-111400515D01*
X107274013Y-111747563D01*
X106928939Y-112092036D01*
X106717641Y-112600898D01*
X106717160Y-113151885D01*
X106927569Y-113661115D01*
X107312113Y-114046329D01*
X106930778Y-114427000D01*
X105664000Y-114427000D01*
X105362675Y-114486937D01*
X105107224Y-114657624D01*
X103352004Y-116412844D01*
X103345233Y-116412838D01*
X103001457Y-116554883D01*
X102738208Y-116817673D01*
X102595562Y-117161201D01*
X102595238Y-117533167D01*
X102628130Y-117612771D01*
X101851636Y-117612771D01*
X101867729Y-117574016D01*
X101868210Y-117022802D01*
X101657714Y-116513363D01*
X101400090Y-116255289D01*
X101655861Y-115999964D01*
X101867159Y-115491102D01*
X101867640Y-114940115D01*
X101657231Y-114430885D01*
X101272687Y-114045671D01*
X101655861Y-113663164D01*
X101867159Y-113154302D01*
X101867640Y-112603315D01*
X101657231Y-112094085D01*
X101310787Y-111747037D01*
X101655861Y-111402564D01*
X101739360Y-111201476D01*
X103555147Y-109385689D01*
X103957085Y-109386040D01*
X104466315Y-109175631D01*
X104856261Y-108786364D01*
X105067559Y-108277502D01*
X105067979Y-107795971D01*
X109905599Y-107795971D01*
X109933570Y-108346248D01*
X110090340Y-108724723D01*
X110331283Y-108792712D01*
X111123195Y-108000800D01*
X110331283Y-107208888D01*
X110090340Y-107276877D01*
X109905599Y-107795971D01*
X105067979Y-107795971D01*
X105068040Y-107726515D01*
X104857631Y-107217285D01*
X104549287Y-106908403D01*
X104752645Y-106705400D01*
X104811567Y-106705400D01*
X105151773Y-106637729D01*
X105440185Y-106445018D01*
X106348203Y-105537000D01*
X109919161Y-105537000D01*
X109918041Y-105539698D01*
G36*
X118654254Y-108550983D02*
X118929337Y-108734788D01*
X118808901Y-108883583D01*
X118654830Y-109404150D01*
X118654830Y-109584050D01*
X118514564Y-109443539D01*
X118005702Y-109232241D01*
X117454715Y-109231760D01*
X116945485Y-109442169D01*
X116555539Y-109831436D01*
X116357400Y-110308608D01*
X116357400Y-109596361D01*
X116362192Y-109591577D01*
X116504838Y-109248049D01*
X116505162Y-108876083D01*
X116468688Y-108787808D01*
X116563765Y-108851337D01*
X117094000Y-108956807D01*
X117624235Y-108851337D01*
X118073746Y-108550983D01*
X118364000Y-108116588D01*
X118654254Y-108550983D01*
X118654254Y-108550983D01*
G37*
X118654254Y-108550983D02*
X118929337Y-108734788D01*
X118808901Y-108883583D01*
X118654830Y-109404150D01*
X118654830Y-109584050D01*
X118514564Y-109443539D01*
X118005702Y-109232241D01*
X117454715Y-109231760D01*
X116945485Y-109442169D01*
X116555539Y-109831436D01*
X116357400Y-110308608D01*
X116357400Y-109596361D01*
X116362192Y-109591577D01*
X116504838Y-109248049D01*
X116505162Y-108876083D01*
X116468688Y-108787808D01*
X116563765Y-108851337D01*
X117094000Y-108956807D01*
X117624235Y-108851337D01*
X118073746Y-108550983D01*
X118364000Y-108116588D01*
X118654254Y-108550983D01*
G36*
X120167400Y-109753400D02*
X120187400Y-109753400D01*
X120187400Y-110007400D01*
X120167400Y-110007400D01*
X120167400Y-110027400D01*
X119913400Y-110027400D01*
X119913400Y-110007400D01*
X119893400Y-110007400D01*
X119893400Y-109753400D01*
X119913400Y-109753400D01*
X119913400Y-109733400D01*
X120167400Y-109733400D01*
X120167400Y-109753400D01*
X120167400Y-109753400D01*
G37*
X120167400Y-109753400D02*
X120187400Y-109753400D01*
X120187400Y-110007400D01*
X120167400Y-110007400D01*
X120167400Y-110027400D01*
X119913400Y-110027400D01*
X119913400Y-110007400D01*
X119893400Y-110007400D01*
X119893400Y-109753400D01*
X119913400Y-109753400D01*
X119913400Y-109733400D01*
X120167400Y-109733400D01*
X120167400Y-109753400D01*
G36*
X131613406Y-98736920D02*
X131383033Y-99291719D01*
X131382509Y-99892446D01*
X131611913Y-100447646D01*
X132036320Y-100872794D01*
X132591119Y-101103167D01*
X133191846Y-101103691D01*
X133747046Y-100874287D01*
X134172194Y-100449880D01*
X134402567Y-99895081D01*
X134403091Y-99294354D01*
X134173687Y-98739154D01*
X133860081Y-98425000D01*
X134059394Y-98425000D01*
X136533643Y-100899249D01*
X136546353Y-100966795D01*
X136331154Y-101055713D01*
X136087049Y-101299392D01*
X136078687Y-101279154D01*
X135654280Y-100854006D01*
X135099481Y-100623633D01*
X134498754Y-100623109D01*
X133943554Y-100852513D01*
X133518406Y-101276920D01*
X133288033Y-101831719D01*
X133287509Y-102432446D01*
X133458132Y-102845385D01*
X133118702Y-102704441D01*
X132567715Y-102703960D01*
X132355037Y-102791836D01*
X132509419Y-102368100D01*
X132483409Y-101767936D01*
X132303777Y-101334268D01*
X132049881Y-101250924D01*
X131167405Y-102133400D01*
X131181548Y-102147543D01*
X131001943Y-102327148D01*
X130987800Y-102313005D01*
X130973658Y-102327148D01*
X130794053Y-102147543D01*
X130808195Y-102133400D01*
X129925719Y-101250924D01*
X129671823Y-101334268D01*
X129466181Y-101898700D01*
X129492191Y-102498864D01*
X129671823Y-102932532D01*
X129925717Y-103015875D01*
X129811085Y-103130508D01*
X129835905Y-103155328D01*
X129687339Y-103303636D01*
X129678014Y-103326092D01*
X129498815Y-103361737D01*
X129243364Y-103532424D01*
X128864388Y-103911400D01*
X126494758Y-103911400D01*
X126323199Y-103840162D01*
X125951233Y-103839838D01*
X125607457Y-103981883D01*
X125344208Y-104244673D01*
X125201562Y-104588201D01*
X125201452Y-104713999D01*
X122541607Y-104713999D01*
X123533803Y-103721803D01*
X123561666Y-103679789D01*
X123571000Y-103632000D01*
X123571000Y-101807630D01*
X124328214Y-101807630D01*
X124629539Y-101747693D01*
X124648538Y-101734998D01*
X124779462Y-101734998D01*
X124798461Y-101747693D01*
X125099786Y-101807630D01*
X128703324Y-101807630D01*
X129004649Y-101747693D01*
X129260100Y-101577006D01*
X129765787Y-101071319D01*
X130105324Y-101071319D01*
X130987800Y-101953795D01*
X131870276Y-101071319D01*
X131786932Y-100817423D01*
X131222500Y-100611781D01*
X130622336Y-100637791D01*
X130188668Y-100817423D01*
X130105324Y-101071319D01*
X129765787Y-101071319D01*
X130564177Y-100272929D01*
X130734864Y-100017478D01*
X130794801Y-99716153D01*
X130794801Y-98425000D01*
X131925871Y-98425000D01*
X131613406Y-98736920D01*
X131613406Y-98736920D01*
G37*
X131613406Y-98736920D02*
X131383033Y-99291719D01*
X131382509Y-99892446D01*
X131611913Y-100447646D01*
X132036320Y-100872794D01*
X132591119Y-101103167D01*
X133191846Y-101103691D01*
X133747046Y-100874287D01*
X134172194Y-100449880D01*
X134402567Y-99895081D01*
X134403091Y-99294354D01*
X134173687Y-98739154D01*
X133860081Y-98425000D01*
X134059394Y-98425000D01*
X136533643Y-100899249D01*
X136546353Y-100966795D01*
X136331154Y-101055713D01*
X136087049Y-101299392D01*
X136078687Y-101279154D01*
X135654280Y-100854006D01*
X135099481Y-100623633D01*
X134498754Y-100623109D01*
X133943554Y-100852513D01*
X133518406Y-101276920D01*
X133288033Y-101831719D01*
X133287509Y-102432446D01*
X133458132Y-102845385D01*
X133118702Y-102704441D01*
X132567715Y-102703960D01*
X132355037Y-102791836D01*
X132509419Y-102368100D01*
X132483409Y-101767936D01*
X132303777Y-101334268D01*
X132049881Y-101250924D01*
X131167405Y-102133400D01*
X131181548Y-102147543D01*
X131001943Y-102327148D01*
X130987800Y-102313005D01*
X130973658Y-102327148D01*
X130794053Y-102147543D01*
X130808195Y-102133400D01*
X129925719Y-101250924D01*
X129671823Y-101334268D01*
X129466181Y-101898700D01*
X129492191Y-102498864D01*
X129671823Y-102932532D01*
X129925717Y-103015875D01*
X129811085Y-103130508D01*
X129835905Y-103155328D01*
X129687339Y-103303636D01*
X129678014Y-103326092D01*
X129498815Y-103361737D01*
X129243364Y-103532424D01*
X128864388Y-103911400D01*
X126494758Y-103911400D01*
X126323199Y-103840162D01*
X125951233Y-103839838D01*
X125607457Y-103981883D01*
X125344208Y-104244673D01*
X125201562Y-104588201D01*
X125201452Y-104713999D01*
X122541607Y-104713999D01*
X123533803Y-103721803D01*
X123561666Y-103679789D01*
X123571000Y-103632000D01*
X123571000Y-101807630D01*
X124328214Y-101807630D01*
X124629539Y-101747693D01*
X124648538Y-101734998D01*
X124779462Y-101734998D01*
X124798461Y-101747693D01*
X125099786Y-101807630D01*
X128703324Y-101807630D01*
X129004649Y-101747693D01*
X129260100Y-101577006D01*
X129765787Y-101071319D01*
X130105324Y-101071319D01*
X130987800Y-101953795D01*
X131870276Y-101071319D01*
X131786932Y-100817423D01*
X131222500Y-100611781D01*
X130622336Y-100637791D01*
X130188668Y-100817423D01*
X130105324Y-101071319D01*
X129765787Y-101071319D01*
X130564177Y-100272929D01*
X130734864Y-100017478D01*
X130794801Y-99716153D01*
X130794801Y-98425000D01*
X131925871Y-98425000D01*
X131613406Y-98736920D01*
G36*
X139473781Y-102101900D02*
X139499791Y-102702064D01*
X139679423Y-103135732D01*
X139933319Y-103219076D01*
X140815795Y-102336600D01*
X140801653Y-102322458D01*
X140981258Y-102142853D01*
X140995400Y-102156995D01*
X141009543Y-102142853D01*
X141189148Y-102322458D01*
X141175005Y-102336600D01*
X141189148Y-102350743D01*
X141009543Y-102530348D01*
X140995400Y-102516205D01*
X140112924Y-103398681D01*
X140196268Y-103652577D01*
X140760700Y-103858219D01*
X140909276Y-103851780D01*
X140869918Y-104049646D01*
X140525057Y-104394507D01*
X140371287Y-104022354D01*
X139946880Y-103597206D01*
X139392081Y-103366833D01*
X138791354Y-103366309D01*
X138236154Y-103595713D01*
X137811006Y-104020120D01*
X137782321Y-104089200D01*
X136677400Y-104089200D01*
X136376075Y-104149137D01*
X136208050Y-104261408D01*
X136208440Y-103814915D01*
X135998031Y-103305685D01*
X135879641Y-103187089D01*
X135896151Y-103170608D01*
X135904513Y-103190846D01*
X136328920Y-103615994D01*
X136883719Y-103846367D01*
X137484446Y-103846891D01*
X138039646Y-103617487D01*
X138464794Y-103193080D01*
X138695167Y-102638281D01*
X138695691Y-102037554D01*
X138567373Y-101727000D01*
X139610370Y-101727000D01*
X139473781Y-102101900D01*
X139473781Y-102101900D01*
G37*
X139473781Y-102101900D02*
X139499791Y-102702064D01*
X139679423Y-103135732D01*
X139933319Y-103219076D01*
X140815795Y-102336600D01*
X140801653Y-102322458D01*
X140981258Y-102142853D01*
X140995400Y-102156995D01*
X141009543Y-102142853D01*
X141189148Y-102322458D01*
X141175005Y-102336600D01*
X141189148Y-102350743D01*
X141009543Y-102530348D01*
X140995400Y-102516205D01*
X140112924Y-103398681D01*
X140196268Y-103652577D01*
X140760700Y-103858219D01*
X140909276Y-103851780D01*
X140869918Y-104049646D01*
X140525057Y-104394507D01*
X140371287Y-104022354D01*
X139946880Y-103597206D01*
X139392081Y-103366833D01*
X138791354Y-103366309D01*
X138236154Y-103595713D01*
X137811006Y-104020120D01*
X137782321Y-104089200D01*
X136677400Y-104089200D01*
X136376075Y-104149137D01*
X136208050Y-104261408D01*
X136208440Y-103814915D01*
X135998031Y-103305685D01*
X135879641Y-103187089D01*
X135896151Y-103170608D01*
X135904513Y-103190846D01*
X136328920Y-103615994D01*
X136883719Y-103846367D01*
X137484446Y-103846891D01*
X138039646Y-103617487D01*
X138464794Y-103193080D01*
X138695167Y-102638281D01*
X138695691Y-102037554D01*
X138567373Y-101727000D01*
X139610370Y-101727000D01*
X139473781Y-102101900D01*
G36*
X124780748Y-99172858D02*
X124766605Y-99187000D01*
X125558517Y-99978912D01*
X125574928Y-99974281D01*
X125833027Y-100232830D01*
X125357942Y-100232830D01*
X125378912Y-100158517D01*
X124587000Y-99366605D01*
X123795088Y-100158517D01*
X123816058Y-100232830D01*
X123571000Y-100232830D01*
X123571000Y-99966360D01*
X123615483Y-99978912D01*
X124407395Y-99187000D01*
X124393253Y-99172858D01*
X124572858Y-98993253D01*
X124587000Y-99007395D01*
X124601143Y-98993253D01*
X124780748Y-99172858D01*
X124780748Y-99172858D01*
G37*
X124780748Y-99172858D02*
X124766605Y-99187000D01*
X125558517Y-99978912D01*
X125574928Y-99974281D01*
X125833027Y-100232830D01*
X125357942Y-100232830D01*
X125378912Y-100158517D01*
X124587000Y-99366605D01*
X123795088Y-100158517D01*
X123816058Y-100232830D01*
X123571000Y-100232830D01*
X123571000Y-99966360D01*
X123615483Y-99978912D01*
X124407395Y-99187000D01*
X124393253Y-99172858D01*
X124572858Y-98993253D01*
X124587000Y-99007395D01*
X124601143Y-98993253D01*
X124780748Y-99172858D01*
G36*
X102831201Y-102526401D02*
X102891138Y-102827726D01*
X103061825Y-103083177D01*
X103394570Y-103415922D01*
X103366833Y-103482719D01*
X103366309Y-104083446D01*
X103510018Y-104431249D01*
X103408515Y-104431160D01*
X102899285Y-104641569D01*
X102591615Y-104948704D01*
X102521314Y-104778563D01*
X102131887Y-104388456D01*
X101916504Y-104299021D01*
X102070265Y-104235331D01*
X102138325Y-103994330D01*
X101346000Y-103202005D01*
X100553675Y-103994330D01*
X100621735Y-104235331D01*
X100787040Y-104294169D01*
X100562163Y-104387086D01*
X100172056Y-104776513D01*
X99960671Y-105285584D01*
X99960190Y-105836798D01*
X100170686Y-106346237D01*
X100560113Y-106736344D01*
X101069184Y-106947729D01*
X101620398Y-106948210D01*
X102121049Y-106741345D01*
X101801394Y-107061000D01*
X99672153Y-107061000D01*
X99289570Y-106677750D01*
X99336022Y-106631379D01*
X99623552Y-105938931D01*
X99624206Y-105189159D01*
X99337886Y-104496209D01*
X98808179Y-103965578D01*
X98115731Y-103678048D01*
X97365959Y-103677394D01*
X96673009Y-103963714D01*
X96142378Y-104493421D01*
X95854848Y-105185869D01*
X95854194Y-105935641D01*
X96072189Y-106463230D01*
X95991715Y-106463160D01*
X95710000Y-106579562D01*
X95710000Y-103085489D01*
X96585717Y-103085489D01*
X96714925Y-103378259D01*
X97415083Y-103646471D01*
X98164584Y-103626328D01*
X98763475Y-103378259D01*
X98892683Y-103085489D01*
X97739200Y-101932005D01*
X96585717Y-103085489D01*
X95710000Y-103085489D01*
X95710000Y-101428283D01*
X95845129Y-101428283D01*
X95865272Y-102177784D01*
X96113341Y-102776675D01*
X96406111Y-102905883D01*
X97559595Y-101752400D01*
X97918805Y-101752400D01*
X99072289Y-102905883D01*
X99272703Y-102817434D01*
X99948233Y-102817434D01*
X99976195Y-103367938D01*
X100133069Y-103746665D01*
X100374070Y-103814725D01*
X101166395Y-103022400D01*
X101525605Y-103022400D01*
X102317930Y-103814725D01*
X102558931Y-103746665D01*
X102743767Y-103227366D01*
X102715805Y-102676862D01*
X102558931Y-102298135D01*
X102317930Y-102230075D01*
X101525605Y-103022400D01*
X101166395Y-103022400D01*
X100374070Y-102230075D01*
X100133069Y-102298135D01*
X99948233Y-102817434D01*
X99272703Y-102817434D01*
X99365059Y-102776675D01*
X99633271Y-102076517D01*
X99616550Y-101454330D01*
X100553675Y-101454330D01*
X100621735Y-101695331D01*
X100769938Y-101748081D01*
X100621735Y-101809469D01*
X100553675Y-102050470D01*
X101346000Y-102842795D01*
X102138325Y-102050470D01*
X102070265Y-101809469D01*
X101922062Y-101756719D01*
X102070265Y-101695331D01*
X102138325Y-101454330D01*
X101346000Y-100662005D01*
X100553675Y-101454330D01*
X99616550Y-101454330D01*
X99613128Y-101327016D01*
X99365059Y-100728125D01*
X99072289Y-100598917D01*
X97918805Y-101752400D01*
X97559595Y-101752400D01*
X96406111Y-100598917D01*
X96113341Y-100728125D01*
X95845129Y-101428283D01*
X95710000Y-101428283D01*
X95710000Y-100419311D01*
X96585717Y-100419311D01*
X97739200Y-101572795D01*
X98892683Y-100419311D01*
X98830069Y-100277434D01*
X99948233Y-100277434D01*
X99976195Y-100827938D01*
X100133069Y-101206665D01*
X100374070Y-101274725D01*
X101166395Y-100482400D01*
X101525605Y-100482400D01*
X102317930Y-101274725D01*
X102558931Y-101206665D01*
X102743767Y-100687366D01*
X102715805Y-100136862D01*
X102558931Y-99758135D01*
X102317930Y-99690075D01*
X101525605Y-100482400D01*
X101166395Y-100482400D01*
X100374070Y-99690075D01*
X100133069Y-99758135D01*
X99948233Y-100277434D01*
X98830069Y-100277434D01*
X98763475Y-100126541D01*
X98063317Y-99858329D01*
X97313816Y-99878472D01*
X96714925Y-100126541D01*
X96585717Y-100419311D01*
X95710000Y-100419311D01*
X95710000Y-97141434D01*
X95757009Y-97211789D01*
X95930030Y-97384810D01*
X95854848Y-97565869D01*
X95854194Y-98315641D01*
X96140514Y-99008591D01*
X96670221Y-99539222D01*
X97362669Y-99826752D01*
X98112441Y-99827406D01*
X98805391Y-99541086D01*
X99336022Y-99011379D01*
X99412417Y-98827400D01*
X100271673Y-98827400D01*
X100560113Y-99116344D01*
X100775496Y-99205779D01*
X100621735Y-99269469D01*
X100553675Y-99510470D01*
X101346000Y-100302795D01*
X102138325Y-99510470D01*
X102070265Y-99269469D01*
X101904960Y-99210631D01*
X102129837Y-99117714D01*
X102519944Y-98728287D01*
X102731329Y-98219216D01*
X102731810Y-97668002D01*
X102521314Y-97158563D01*
X102131887Y-96768456D01*
X101961314Y-96697628D01*
X102504248Y-96670030D01*
X102831201Y-96534601D01*
X102831201Y-102526401D01*
X102831201Y-102526401D01*
G37*
X102831201Y-102526401D02*
X102891138Y-102827726D01*
X103061825Y-103083177D01*
X103394570Y-103415922D01*
X103366833Y-103482719D01*
X103366309Y-104083446D01*
X103510018Y-104431249D01*
X103408515Y-104431160D01*
X102899285Y-104641569D01*
X102591615Y-104948704D01*
X102521314Y-104778563D01*
X102131887Y-104388456D01*
X101916504Y-104299021D01*
X102070265Y-104235331D01*
X102138325Y-103994330D01*
X101346000Y-103202005D01*
X100553675Y-103994330D01*
X100621735Y-104235331D01*
X100787040Y-104294169D01*
X100562163Y-104387086D01*
X100172056Y-104776513D01*
X99960671Y-105285584D01*
X99960190Y-105836798D01*
X100170686Y-106346237D01*
X100560113Y-106736344D01*
X101069184Y-106947729D01*
X101620398Y-106948210D01*
X102121049Y-106741345D01*
X101801394Y-107061000D01*
X99672153Y-107061000D01*
X99289570Y-106677750D01*
X99336022Y-106631379D01*
X99623552Y-105938931D01*
X99624206Y-105189159D01*
X99337886Y-104496209D01*
X98808179Y-103965578D01*
X98115731Y-103678048D01*
X97365959Y-103677394D01*
X96673009Y-103963714D01*
X96142378Y-104493421D01*
X95854848Y-105185869D01*
X95854194Y-105935641D01*
X96072189Y-106463230D01*
X95991715Y-106463160D01*
X95710000Y-106579562D01*
X95710000Y-103085489D01*
X96585717Y-103085489D01*
X96714925Y-103378259D01*
X97415083Y-103646471D01*
X98164584Y-103626328D01*
X98763475Y-103378259D01*
X98892683Y-103085489D01*
X97739200Y-101932005D01*
X96585717Y-103085489D01*
X95710000Y-103085489D01*
X95710000Y-101428283D01*
X95845129Y-101428283D01*
X95865272Y-102177784D01*
X96113341Y-102776675D01*
X96406111Y-102905883D01*
X97559595Y-101752400D01*
X97918805Y-101752400D01*
X99072289Y-102905883D01*
X99272703Y-102817434D01*
X99948233Y-102817434D01*
X99976195Y-103367938D01*
X100133069Y-103746665D01*
X100374070Y-103814725D01*
X101166395Y-103022400D01*
X101525605Y-103022400D01*
X102317930Y-103814725D01*
X102558931Y-103746665D01*
X102743767Y-103227366D01*
X102715805Y-102676862D01*
X102558931Y-102298135D01*
X102317930Y-102230075D01*
X101525605Y-103022400D01*
X101166395Y-103022400D01*
X100374070Y-102230075D01*
X100133069Y-102298135D01*
X99948233Y-102817434D01*
X99272703Y-102817434D01*
X99365059Y-102776675D01*
X99633271Y-102076517D01*
X99616550Y-101454330D01*
X100553675Y-101454330D01*
X100621735Y-101695331D01*
X100769938Y-101748081D01*
X100621735Y-101809469D01*
X100553675Y-102050470D01*
X101346000Y-102842795D01*
X102138325Y-102050470D01*
X102070265Y-101809469D01*
X101922062Y-101756719D01*
X102070265Y-101695331D01*
X102138325Y-101454330D01*
X101346000Y-100662005D01*
X100553675Y-101454330D01*
X99616550Y-101454330D01*
X99613128Y-101327016D01*
X99365059Y-100728125D01*
X99072289Y-100598917D01*
X97918805Y-101752400D01*
X97559595Y-101752400D01*
X96406111Y-100598917D01*
X96113341Y-100728125D01*
X95845129Y-101428283D01*
X95710000Y-101428283D01*
X95710000Y-100419311D01*
X96585717Y-100419311D01*
X97739200Y-101572795D01*
X98892683Y-100419311D01*
X98830069Y-100277434D01*
X99948233Y-100277434D01*
X99976195Y-100827938D01*
X100133069Y-101206665D01*
X100374070Y-101274725D01*
X101166395Y-100482400D01*
X101525605Y-100482400D01*
X102317930Y-101274725D01*
X102558931Y-101206665D01*
X102743767Y-100687366D01*
X102715805Y-100136862D01*
X102558931Y-99758135D01*
X102317930Y-99690075D01*
X101525605Y-100482400D01*
X101166395Y-100482400D01*
X100374070Y-99690075D01*
X100133069Y-99758135D01*
X99948233Y-100277434D01*
X98830069Y-100277434D01*
X98763475Y-100126541D01*
X98063317Y-99858329D01*
X97313816Y-99878472D01*
X96714925Y-100126541D01*
X96585717Y-100419311D01*
X95710000Y-100419311D01*
X95710000Y-97141434D01*
X95757009Y-97211789D01*
X95930030Y-97384810D01*
X95854848Y-97565869D01*
X95854194Y-98315641D01*
X96140514Y-99008591D01*
X96670221Y-99539222D01*
X97362669Y-99826752D01*
X98112441Y-99827406D01*
X98805391Y-99541086D01*
X99336022Y-99011379D01*
X99412417Y-98827400D01*
X100271673Y-98827400D01*
X100560113Y-99116344D01*
X100775496Y-99205779D01*
X100621735Y-99269469D01*
X100553675Y-99510470D01*
X101346000Y-100302795D01*
X102138325Y-99510470D01*
X102070265Y-99269469D01*
X101904960Y-99210631D01*
X102129837Y-99117714D01*
X102519944Y-98728287D01*
X102731329Y-98219216D01*
X102731810Y-97668002D01*
X102521314Y-97158563D01*
X102131887Y-96768456D01*
X101961314Y-96697628D01*
X102504248Y-96670030D01*
X102831201Y-96534601D01*
X102831201Y-102526401D01*
G36*
X105070348Y-99960258D02*
X105056205Y-99974400D01*
X105938681Y-100856876D01*
X106192577Y-100773532D01*
X106257223Y-100596096D01*
X106410865Y-100749738D01*
X106137206Y-101022920D01*
X105906833Y-101577719D01*
X105906309Y-102178446D01*
X106135713Y-102733646D01*
X106560120Y-103158794D01*
X106782176Y-103251000D01*
X106290058Y-103251000D01*
X106157487Y-102930154D01*
X105733080Y-102505006D01*
X105178281Y-102274633D01*
X104577554Y-102274109D01*
X104508425Y-102302673D01*
X104406001Y-102200249D01*
X104406001Y-101410073D01*
X104641900Y-101496019D01*
X105242064Y-101470009D01*
X105675732Y-101290377D01*
X105759076Y-101036481D01*
X104876600Y-100154005D01*
X104862458Y-100168148D01*
X104682853Y-99988543D01*
X104696995Y-99974400D01*
X104682853Y-99960258D01*
X104862458Y-99780653D01*
X104876600Y-99794795D01*
X104890743Y-99780653D01*
X105070348Y-99960258D01*
X105070348Y-99960258D01*
G37*
X105070348Y-99960258D02*
X105056205Y-99974400D01*
X105938681Y-100856876D01*
X106192577Y-100773532D01*
X106257223Y-100596096D01*
X106410865Y-100749738D01*
X106137206Y-101022920D01*
X105906833Y-101577719D01*
X105906309Y-102178446D01*
X106135713Y-102733646D01*
X106560120Y-103158794D01*
X106782176Y-103251000D01*
X106290058Y-103251000D01*
X106157487Y-102930154D01*
X105733080Y-102505006D01*
X105178281Y-102274633D01*
X104577554Y-102274109D01*
X104508425Y-102302673D01*
X104406001Y-102200249D01*
X104406001Y-101410073D01*
X104641900Y-101496019D01*
X105242064Y-101470009D01*
X105675732Y-101290377D01*
X105759076Y-101036481D01*
X104876600Y-100154005D01*
X104862458Y-100168148D01*
X104682853Y-99988543D01*
X104696995Y-99974400D01*
X104682853Y-99960258D01*
X104862458Y-99780653D01*
X104876600Y-99794795D01*
X104890743Y-99780653D01*
X105070348Y-99960258D01*
G36*
X110212436Y-96448861D02*
X110510770Y-96572740D01*
X110163363Y-96716286D01*
X109773256Y-97105713D01*
X109683821Y-97321096D01*
X109620131Y-97167335D01*
X109379130Y-97099275D01*
X108586805Y-97891600D01*
X109379130Y-98683925D01*
X109620131Y-98615865D01*
X109678969Y-98450560D01*
X109771886Y-98675437D01*
X109872387Y-98776113D01*
X109864283Y-98777638D01*
X109648159Y-98916710D01*
X109503169Y-99128910D01*
X109452160Y-99380800D01*
X109452160Y-100159808D01*
X108563375Y-99271023D01*
X108752738Y-99261405D01*
X109131465Y-99104531D01*
X109199525Y-98863530D01*
X108407200Y-98071205D01*
X108393058Y-98085348D01*
X108213453Y-97905743D01*
X108227595Y-97891600D01*
X108213453Y-97877458D01*
X108393058Y-97697853D01*
X108407200Y-97711995D01*
X109199525Y-96919670D01*
X109131465Y-96678669D01*
X109009258Y-96635171D01*
X109087885Y-96635240D01*
X109597115Y-96424831D01*
X109893297Y-96129165D01*
X110212436Y-96448861D01*
X110212436Y-96448861D01*
G37*
X110212436Y-96448861D02*
X110510770Y-96572740D01*
X110163363Y-96716286D01*
X109773256Y-97105713D01*
X109683821Y-97321096D01*
X109620131Y-97167335D01*
X109379130Y-97099275D01*
X108586805Y-97891600D01*
X109379130Y-98683925D01*
X109620131Y-98615865D01*
X109678969Y-98450560D01*
X109771886Y-98675437D01*
X109872387Y-98776113D01*
X109864283Y-98777638D01*
X109648159Y-98916710D01*
X109503169Y-99128910D01*
X109452160Y-99380800D01*
X109452160Y-100159808D01*
X108563375Y-99271023D01*
X108752738Y-99261405D01*
X109131465Y-99104531D01*
X109199525Y-98863530D01*
X108407200Y-98071205D01*
X108393058Y-98085348D01*
X108213453Y-97905743D01*
X108227595Y-97891600D01*
X108213453Y-97877458D01*
X108393058Y-97697853D01*
X108407200Y-97711995D01*
X109199525Y-96919670D01*
X109131465Y-96678669D01*
X109009258Y-96635171D01*
X109087885Y-96635240D01*
X109597115Y-96424831D01*
X109893297Y-96129165D01*
X110212436Y-96448861D01*
G36*
X139499032Y-92699766D02*
X139867252Y-92945803D01*
X140301598Y-93032200D01*
X141845593Y-93032200D01*
X141582250Y-93426320D01*
X141488284Y-93898720D01*
X141582250Y-94371120D01*
X141849843Y-94771601D01*
X142039327Y-94898210D01*
X141849843Y-95024819D01*
X141582250Y-95425300D01*
X141488284Y-95897700D01*
X141582250Y-96370100D01*
X141849843Y-96770581D01*
X142250324Y-97038174D01*
X142722724Y-97132140D01*
X143281276Y-97132140D01*
X143753676Y-97038174D01*
X144154157Y-96770581D01*
X144290000Y-96567278D01*
X144290000Y-98738740D01*
X144005636Y-98420468D01*
X143478391Y-98166491D01*
X143462626Y-98163842D01*
X143230600Y-98284983D01*
X143230600Y-99644200D01*
X143250600Y-99644200D01*
X143250600Y-99898200D01*
X143230600Y-99898200D01*
X143230600Y-99918200D01*
X142976600Y-99918200D01*
X142976600Y-99898200D01*
X142956600Y-99898200D01*
X142956600Y-99644200D01*
X142976600Y-99644200D01*
X142976600Y-98284983D01*
X142744574Y-98163842D01*
X142728809Y-98166491D01*
X142201564Y-98420468D01*
X141830061Y-98836269D01*
X141623270Y-98526785D01*
X141137089Y-98201929D01*
X140563600Y-98087855D01*
X140363758Y-98127606D01*
X140050956Y-97814804D01*
X140050962Y-97808033D01*
X139908917Y-97464257D01*
X139646127Y-97201008D01*
X139302599Y-97058362D01*
X139108600Y-97058193D01*
X139108600Y-92560570D01*
X139046217Y-92246951D01*
X139499032Y-92699766D01*
X139499032Y-92699766D01*
G37*
X139499032Y-92699766D02*
X139867252Y-92945803D01*
X140301598Y-93032200D01*
X141845593Y-93032200D01*
X141582250Y-93426320D01*
X141488284Y-93898720D01*
X141582250Y-94371120D01*
X141849843Y-94771601D01*
X142039327Y-94898210D01*
X141849843Y-95024819D01*
X141582250Y-95425300D01*
X141488284Y-95897700D01*
X141582250Y-96370100D01*
X141849843Y-96770581D01*
X142250324Y-97038174D01*
X142722724Y-97132140D01*
X143281276Y-97132140D01*
X143753676Y-97038174D01*
X144154157Y-96770581D01*
X144290000Y-96567278D01*
X144290000Y-98738740D01*
X144005636Y-98420468D01*
X143478391Y-98166491D01*
X143462626Y-98163842D01*
X143230600Y-98284983D01*
X143230600Y-99644200D01*
X143250600Y-99644200D01*
X143250600Y-99898200D01*
X143230600Y-99898200D01*
X143230600Y-99918200D01*
X142976600Y-99918200D01*
X142976600Y-99898200D01*
X142956600Y-99898200D01*
X142956600Y-99644200D01*
X142976600Y-99644200D01*
X142976600Y-98284983D01*
X142744574Y-98163842D01*
X142728809Y-98166491D01*
X142201564Y-98420468D01*
X141830061Y-98836269D01*
X141623270Y-98526785D01*
X141137089Y-98201929D01*
X140563600Y-98087855D01*
X140363758Y-98127606D01*
X140050956Y-97814804D01*
X140050962Y-97808033D01*
X139908917Y-97464257D01*
X139646127Y-97201008D01*
X139302599Y-97058362D01*
X139108600Y-97058193D01*
X139108600Y-92560570D01*
X139046217Y-92246951D01*
X139499032Y-92699766D01*
G36*
X122505413Y-97881512D02*
X122301000Y-97998521D01*
X122301000Y-99441000D01*
X122321000Y-99441000D01*
X122321000Y-99695000D01*
X122301000Y-99695000D01*
X122301000Y-99715000D01*
X122047000Y-99715000D01*
X122047000Y-99695000D01*
X122027000Y-99695000D01*
X122027000Y-99441000D01*
X122047000Y-99441000D01*
X122047000Y-97998521D01*
X122026316Y-97986681D01*
X122301000Y-97575588D01*
X122505413Y-97881512D01*
X122505413Y-97881512D01*
G37*
X122505413Y-97881512D02*
X122301000Y-97998521D01*
X122301000Y-99441000D01*
X122321000Y-99441000D01*
X122321000Y-99695000D01*
X122301000Y-99695000D01*
X122301000Y-99715000D01*
X122047000Y-99715000D01*
X122047000Y-99695000D01*
X122027000Y-99695000D01*
X122027000Y-99441000D01*
X122047000Y-99441000D01*
X122047000Y-97998521D01*
X122026316Y-97986681D01*
X122301000Y-97575588D01*
X122505413Y-97881512D01*
G36*
X96865546Y-82873674D02*
X96864457Y-84120854D01*
X97340727Y-85273515D01*
X98221847Y-86156174D01*
X99373674Y-86634454D01*
X100620854Y-86635543D01*
X101773515Y-86159273D01*
X102276299Y-85657366D01*
X102276299Y-85867221D01*
X102336236Y-86168546D01*
X102421417Y-86296029D01*
X101884515Y-86295560D01*
X101375285Y-86505969D01*
X100985339Y-86895236D01*
X100774041Y-87404098D01*
X100773560Y-87955085D01*
X100983969Y-88464315D01*
X101373236Y-88854261D01*
X101882098Y-89065559D01*
X102433085Y-89066040D01*
X102478799Y-89047151D01*
X102478799Y-93944587D01*
X102363629Y-93903599D01*
X101813352Y-93931570D01*
X101434877Y-94088340D01*
X101366888Y-94329283D01*
X102158800Y-95121195D01*
X102172943Y-95107053D01*
X102352548Y-95286658D01*
X102338405Y-95300800D01*
X102352548Y-95314943D01*
X102172943Y-95494548D01*
X102158800Y-95480405D01*
X101366888Y-96272317D01*
X101434877Y-96513260D01*
X101557820Y-96557014D01*
X101071602Y-96556590D01*
X100562163Y-96767086D01*
X100271342Y-97057400D01*
X99412752Y-97057400D01*
X99337886Y-96876209D01*
X98808179Y-96345578D01*
X98115731Y-96058048D01*
X97365959Y-96057394D01*
X97267799Y-96097953D01*
X97267799Y-95095971D01*
X100761599Y-95095971D01*
X100789570Y-95646248D01*
X100946340Y-96024723D01*
X101187283Y-96092712D01*
X101979195Y-95300800D01*
X101187283Y-94508888D01*
X100946340Y-94576877D01*
X100761599Y-95095971D01*
X97267799Y-95095971D01*
X97267799Y-95025000D01*
X97747050Y-95025000D01*
X97905800Y-94866250D01*
X97905800Y-93317000D01*
X98159800Y-93317000D01*
X98159800Y-94866250D01*
X98318550Y-95025000D01*
X99359110Y-95025000D01*
X99592499Y-94928327D01*
X99771127Y-94749698D01*
X99867800Y-94516309D01*
X99867800Y-93475750D01*
X99709050Y-93317000D01*
X98159800Y-93317000D01*
X97905800Y-93317000D01*
X97885800Y-93317000D01*
X97885800Y-93063000D01*
X97905800Y-93063000D01*
X97905800Y-93043000D01*
X98159800Y-93043000D01*
X98159800Y-93063000D01*
X99709050Y-93063000D01*
X99867800Y-92904250D01*
X99867800Y-91863691D01*
X99771127Y-91630302D01*
X99592499Y-91451673D01*
X99359110Y-91355000D01*
X98808405Y-91355000D01*
X99070886Y-91246545D01*
X99587530Y-90730801D01*
X99867481Y-90056605D01*
X99868118Y-89326597D01*
X99589345Y-88651914D01*
X99073601Y-88135270D01*
X98399405Y-87855319D01*
X97669397Y-87854682D01*
X96994714Y-88133455D01*
X96478070Y-88649199D01*
X96198119Y-89323395D01*
X96197482Y-90053403D01*
X96261904Y-90209316D01*
X96207011Y-90264209D01*
X96207009Y-90264212D01*
X95757009Y-90714211D01*
X95710000Y-90784565D01*
X95710000Y-85069931D01*
X96049408Y-83363610D01*
X96976349Y-81976346D01*
X97338678Y-81734246D01*
X96865546Y-82873674D01*
X96865546Y-82873674D01*
G37*
X96865546Y-82873674D02*
X96864457Y-84120854D01*
X97340727Y-85273515D01*
X98221847Y-86156174D01*
X99373674Y-86634454D01*
X100620854Y-86635543D01*
X101773515Y-86159273D01*
X102276299Y-85657366D01*
X102276299Y-85867221D01*
X102336236Y-86168546D01*
X102421417Y-86296029D01*
X101884515Y-86295560D01*
X101375285Y-86505969D01*
X100985339Y-86895236D01*
X100774041Y-87404098D01*
X100773560Y-87955085D01*
X100983969Y-88464315D01*
X101373236Y-88854261D01*
X101882098Y-89065559D01*
X102433085Y-89066040D01*
X102478799Y-89047151D01*
X102478799Y-93944587D01*
X102363629Y-93903599D01*
X101813352Y-93931570D01*
X101434877Y-94088340D01*
X101366888Y-94329283D01*
X102158800Y-95121195D01*
X102172943Y-95107053D01*
X102352548Y-95286658D01*
X102338405Y-95300800D01*
X102352548Y-95314943D01*
X102172943Y-95494548D01*
X102158800Y-95480405D01*
X101366888Y-96272317D01*
X101434877Y-96513260D01*
X101557820Y-96557014D01*
X101071602Y-96556590D01*
X100562163Y-96767086D01*
X100271342Y-97057400D01*
X99412752Y-97057400D01*
X99337886Y-96876209D01*
X98808179Y-96345578D01*
X98115731Y-96058048D01*
X97365959Y-96057394D01*
X97267799Y-96097953D01*
X97267799Y-95095971D01*
X100761599Y-95095971D01*
X100789570Y-95646248D01*
X100946340Y-96024723D01*
X101187283Y-96092712D01*
X101979195Y-95300800D01*
X101187283Y-94508888D01*
X100946340Y-94576877D01*
X100761599Y-95095971D01*
X97267799Y-95095971D01*
X97267799Y-95025000D01*
X97747050Y-95025000D01*
X97905800Y-94866250D01*
X97905800Y-93317000D01*
X98159800Y-93317000D01*
X98159800Y-94866250D01*
X98318550Y-95025000D01*
X99359110Y-95025000D01*
X99592499Y-94928327D01*
X99771127Y-94749698D01*
X99867800Y-94516309D01*
X99867800Y-93475750D01*
X99709050Y-93317000D01*
X98159800Y-93317000D01*
X97905800Y-93317000D01*
X97885800Y-93317000D01*
X97885800Y-93063000D01*
X97905800Y-93063000D01*
X97905800Y-93043000D01*
X98159800Y-93043000D01*
X98159800Y-93063000D01*
X99709050Y-93063000D01*
X99867800Y-92904250D01*
X99867800Y-91863691D01*
X99771127Y-91630302D01*
X99592499Y-91451673D01*
X99359110Y-91355000D01*
X98808405Y-91355000D01*
X99070886Y-91246545D01*
X99587530Y-90730801D01*
X99867481Y-90056605D01*
X99868118Y-89326597D01*
X99589345Y-88651914D01*
X99073601Y-88135270D01*
X98399405Y-87855319D01*
X97669397Y-87854682D01*
X96994714Y-88133455D01*
X96478070Y-88649199D01*
X96198119Y-89323395D01*
X96197482Y-90053403D01*
X96261904Y-90209316D01*
X96207011Y-90264209D01*
X96207009Y-90264212D01*
X95757009Y-90714211D01*
X95710000Y-90784565D01*
X95710000Y-85069931D01*
X96049408Y-83363610D01*
X96976349Y-81976346D01*
X97338678Y-81734246D01*
X96865546Y-82873674D01*
G36*
X118618000Y-88900000D02*
X118638000Y-88900000D01*
X118638000Y-89154000D01*
X118618000Y-89154000D01*
X118618000Y-90596479D01*
X118832275Y-90719133D01*
X118903903Y-90704950D01*
X119380944Y-90445798D01*
X119722499Y-90023817D01*
X119749399Y-89932928D01*
X119750900Y-89940472D01*
X120051254Y-90389983D01*
X120500765Y-90690337D01*
X121031000Y-90795807D01*
X121561235Y-90690337D01*
X122010746Y-90389983D01*
X122301000Y-89955588D01*
X122583352Y-90378157D01*
X122217433Y-90377838D01*
X121873657Y-90519883D01*
X121610408Y-90782673D01*
X121467762Y-91126201D01*
X121467438Y-91498167D01*
X121609483Y-91841943D01*
X121615200Y-91847670D01*
X121615200Y-94949248D01*
X121572954Y-94991494D01*
X121561235Y-94983663D01*
X121031000Y-94878193D01*
X120655954Y-94952794D01*
X120528717Y-94644857D01*
X120265927Y-94381608D01*
X119922399Y-94238962D01*
X119550433Y-94238638D01*
X119206657Y-94380683D01*
X119200930Y-94386400D01*
X117074950Y-94386400D01*
X116773625Y-94446337D01*
X116518174Y-94617024D01*
X116206236Y-94928962D01*
X115951000Y-94878193D01*
X115420765Y-94983663D01*
X115400554Y-94997168D01*
X115400554Y-94450554D01*
X115509178Y-94341930D01*
X115679865Y-94086479D01*
X115739802Y-93785154D01*
X115739802Y-93083002D01*
X115679865Y-92781677D01*
X115509178Y-92526226D01*
X114563675Y-91580723D01*
X114828943Y-91471117D01*
X114834670Y-91465400D01*
X115751848Y-91465400D01*
X116920844Y-92634396D01*
X116920838Y-92641167D01*
X117062883Y-92984943D01*
X117325673Y-93248192D01*
X117669201Y-93390838D01*
X118041167Y-93391162D01*
X118384943Y-93249117D01*
X118648192Y-92986327D01*
X118790838Y-92642799D01*
X118791162Y-92270833D01*
X118649117Y-91927057D01*
X118386327Y-91663808D01*
X118042799Y-91521162D01*
X118034707Y-91521155D01*
X116914434Y-90400882D01*
X116930746Y-90389983D01*
X117231100Y-89940472D01*
X117232601Y-89932928D01*
X117259501Y-90023817D01*
X117601056Y-90445798D01*
X118078097Y-90704950D01*
X118149725Y-90719133D01*
X118364000Y-90596479D01*
X118364000Y-89154000D01*
X118344000Y-89154000D01*
X118344000Y-88900000D01*
X118364000Y-88900000D01*
X118364000Y-88880000D01*
X118618000Y-88880000D01*
X118618000Y-88900000D01*
X118618000Y-88900000D01*
G37*
X118618000Y-88900000D02*
X118638000Y-88900000D01*
X118638000Y-89154000D01*
X118618000Y-89154000D01*
X118618000Y-90596479D01*
X118832275Y-90719133D01*
X118903903Y-90704950D01*
X119380944Y-90445798D01*
X119722499Y-90023817D01*
X119749399Y-89932928D01*
X119750900Y-89940472D01*
X120051254Y-90389983D01*
X120500765Y-90690337D01*
X121031000Y-90795807D01*
X121561235Y-90690337D01*
X122010746Y-90389983D01*
X122301000Y-89955588D01*
X122583352Y-90378157D01*
X122217433Y-90377838D01*
X121873657Y-90519883D01*
X121610408Y-90782673D01*
X121467762Y-91126201D01*
X121467438Y-91498167D01*
X121609483Y-91841943D01*
X121615200Y-91847670D01*
X121615200Y-94949248D01*
X121572954Y-94991494D01*
X121561235Y-94983663D01*
X121031000Y-94878193D01*
X120655954Y-94952794D01*
X120528717Y-94644857D01*
X120265927Y-94381608D01*
X119922399Y-94238962D01*
X119550433Y-94238638D01*
X119206657Y-94380683D01*
X119200930Y-94386400D01*
X117074950Y-94386400D01*
X116773625Y-94446337D01*
X116518174Y-94617024D01*
X116206236Y-94928962D01*
X115951000Y-94878193D01*
X115420765Y-94983663D01*
X115400554Y-94997168D01*
X115400554Y-94450554D01*
X115509178Y-94341930D01*
X115679865Y-94086479D01*
X115739802Y-93785154D01*
X115739802Y-93083002D01*
X115679865Y-92781677D01*
X115509178Y-92526226D01*
X114563675Y-91580723D01*
X114828943Y-91471117D01*
X114834670Y-91465400D01*
X115751848Y-91465400D01*
X116920844Y-92634396D01*
X116920838Y-92641167D01*
X117062883Y-92984943D01*
X117325673Y-93248192D01*
X117669201Y-93390838D01*
X118041167Y-93391162D01*
X118384943Y-93249117D01*
X118648192Y-92986327D01*
X118790838Y-92642799D01*
X118791162Y-92270833D01*
X118649117Y-91927057D01*
X118386327Y-91663808D01*
X118042799Y-91521162D01*
X118034707Y-91521155D01*
X116914434Y-90400882D01*
X116930746Y-90389983D01*
X117231100Y-89940472D01*
X117232601Y-89932928D01*
X117259501Y-90023817D01*
X117601056Y-90445798D01*
X118078097Y-90704950D01*
X118149725Y-90719133D01*
X118364000Y-90596479D01*
X118364000Y-89154000D01*
X118344000Y-89154000D01*
X118344000Y-88900000D01*
X118364000Y-88900000D01*
X118364000Y-88880000D01*
X118618000Y-88880000D01*
X118618000Y-88900000D01*
G36*
X132648186Y-88357179D02*
X132835808Y-88811257D01*
X133182915Y-89158971D01*
X133636666Y-89347385D01*
X134075170Y-89347768D01*
X134075170Y-89559130D01*
X134233920Y-89717880D01*
X135432800Y-89717880D01*
X135432800Y-89697880D01*
X135686800Y-89697880D01*
X135686800Y-89717880D01*
X135706800Y-89717880D01*
X135706800Y-89971880D01*
X135686800Y-89971880D01*
X135686800Y-89991880D01*
X135432800Y-89991880D01*
X135432800Y-89971880D01*
X134233920Y-89971880D01*
X134075170Y-90130630D01*
X134075170Y-90570629D01*
X134171843Y-90804018D01*
X134350471Y-90982647D01*
X134390473Y-90999216D01*
X134140050Y-91374000D01*
X134046084Y-91846400D01*
X134140050Y-92318800D01*
X134407643Y-92719281D01*
X134599027Y-92847160D01*
X134407643Y-92975039D01*
X134350526Y-93060520D01*
X133640830Y-93060520D01*
X133339505Y-93120457D01*
X133084054Y-93291144D01*
X131446236Y-94928962D01*
X131191000Y-94878193D01*
X130983134Y-94919540D01*
X130983162Y-94887033D01*
X130841117Y-94543257D01*
X130578327Y-94280008D01*
X130234799Y-94137362D01*
X130226707Y-94137355D01*
X126898400Y-90809048D01*
X126898400Y-90518505D01*
X127090746Y-90389983D01*
X127381000Y-89955588D01*
X127671254Y-90389983D01*
X128120765Y-90690337D01*
X128651000Y-90795807D01*
X129181235Y-90690337D01*
X129630746Y-90389983D01*
X129921000Y-89955588D01*
X130211254Y-90389983D01*
X130660765Y-90690337D01*
X131191000Y-90795807D01*
X131721235Y-90690337D01*
X132170746Y-90389983D01*
X132471100Y-89940472D01*
X132576570Y-89410237D01*
X132576570Y-88643763D01*
X132511334Y-88315800D01*
X132648222Y-88315800D01*
X132648186Y-88357179D01*
X132648186Y-88357179D01*
G37*
X132648186Y-88357179D02*
X132835808Y-88811257D01*
X133182915Y-89158971D01*
X133636666Y-89347385D01*
X134075170Y-89347768D01*
X134075170Y-89559130D01*
X134233920Y-89717880D01*
X135432800Y-89717880D01*
X135432800Y-89697880D01*
X135686800Y-89697880D01*
X135686800Y-89717880D01*
X135706800Y-89717880D01*
X135706800Y-89971880D01*
X135686800Y-89971880D01*
X135686800Y-89991880D01*
X135432800Y-89991880D01*
X135432800Y-89971880D01*
X134233920Y-89971880D01*
X134075170Y-90130630D01*
X134075170Y-90570629D01*
X134171843Y-90804018D01*
X134350471Y-90982647D01*
X134390473Y-90999216D01*
X134140050Y-91374000D01*
X134046084Y-91846400D01*
X134140050Y-92318800D01*
X134407643Y-92719281D01*
X134599027Y-92847160D01*
X134407643Y-92975039D01*
X134350526Y-93060520D01*
X133640830Y-93060520D01*
X133339505Y-93120457D01*
X133084054Y-93291144D01*
X131446236Y-94928962D01*
X131191000Y-94878193D01*
X130983134Y-94919540D01*
X130983162Y-94887033D01*
X130841117Y-94543257D01*
X130578327Y-94280008D01*
X130234799Y-94137362D01*
X130226707Y-94137355D01*
X126898400Y-90809048D01*
X126898400Y-90518505D01*
X127090746Y-90389983D01*
X127381000Y-89955588D01*
X127671254Y-90389983D01*
X128120765Y-90690337D01*
X128651000Y-90795807D01*
X129181235Y-90690337D01*
X129630746Y-90389983D01*
X129921000Y-89955588D01*
X130211254Y-90389983D01*
X130660765Y-90690337D01*
X131191000Y-90795807D01*
X131721235Y-90690337D01*
X132170746Y-90389983D01*
X132471100Y-89940472D01*
X132576570Y-89410237D01*
X132576570Y-88643763D01*
X132511334Y-88315800D01*
X132648222Y-88315800D01*
X132648186Y-88357179D01*
G36*
X143950592Y-83363610D02*
X144290000Y-85069931D01*
X144290000Y-88836584D01*
X144211329Y-88757913D01*
X143977940Y-88661240D01*
X143287750Y-88661240D01*
X143129000Y-88819990D01*
X143129000Y-89768680D01*
X143149000Y-89768680D01*
X143149000Y-90022680D01*
X143129000Y-90022680D01*
X143129000Y-90042680D01*
X142875000Y-90042680D01*
X142875000Y-90022680D01*
X141676120Y-90022680D01*
X141517370Y-90181430D01*
X141517370Y-90621429D01*
X141575679Y-90762200D01*
X140771730Y-90762200D01*
X139705956Y-89696426D01*
X140232450Y-89169931D01*
X141517370Y-89169931D01*
X141517370Y-89609930D01*
X141676120Y-89768680D01*
X142875000Y-89768680D01*
X142875000Y-88819990D01*
X142716250Y-88661240D01*
X142026060Y-88661240D01*
X141792671Y-88757913D01*
X141614043Y-88936542D01*
X141517370Y-89169931D01*
X140232450Y-89169931D01*
X143575788Y-85826593D01*
X143575791Y-85826591D01*
X143767634Y-85539476D01*
X143778811Y-85483285D01*
X143835002Y-85200801D01*
X143835001Y-85200796D01*
X143835001Y-83190616D01*
X143950592Y-83363610D01*
X143950592Y-83363610D01*
G37*
X143950592Y-83363610D02*
X144290000Y-85069931D01*
X144290000Y-88836584D01*
X144211329Y-88757913D01*
X143977940Y-88661240D01*
X143287750Y-88661240D01*
X143129000Y-88819990D01*
X143129000Y-89768680D01*
X143149000Y-89768680D01*
X143149000Y-90022680D01*
X143129000Y-90022680D01*
X143129000Y-90042680D01*
X142875000Y-90042680D01*
X142875000Y-90022680D01*
X141676120Y-90022680D01*
X141517370Y-90181430D01*
X141517370Y-90621429D01*
X141575679Y-90762200D01*
X140771730Y-90762200D01*
X139705956Y-89696426D01*
X140232450Y-89169931D01*
X141517370Y-89169931D01*
X141517370Y-89609930D01*
X141676120Y-89768680D01*
X142875000Y-89768680D01*
X142875000Y-88819990D01*
X142716250Y-88661240D01*
X142026060Y-88661240D01*
X141792671Y-88757913D01*
X141614043Y-88936542D01*
X141517370Y-89169931D01*
X140232450Y-89169931D01*
X143575788Y-85826593D01*
X143575791Y-85826591D01*
X143767634Y-85539476D01*
X143778811Y-85483285D01*
X143835002Y-85200801D01*
X143835001Y-85200796D01*
X143835001Y-83190616D01*
X143950592Y-83363610D01*
G36*
X120713732Y-81026287D02*
X120713269Y-81556786D01*
X120915854Y-82047080D01*
X121290647Y-82422527D01*
X121780587Y-82625968D01*
X122311086Y-82626431D01*
X122801380Y-82423846D01*
X123176827Y-82049053D01*
X123380268Y-81559113D01*
X123380731Y-81028614D01*
X123249083Y-80710000D01*
X123789405Y-80710000D01*
X123583241Y-81206498D01*
X123582762Y-81754886D01*
X121781641Y-83556007D01*
X121494321Y-83674725D01*
X121231072Y-83937515D01*
X121088426Y-84281043D01*
X121088205Y-84534399D01*
X120367045Y-84534399D01*
X120065720Y-84594336D01*
X119810269Y-84765023D01*
X118653422Y-85921870D01*
X118482735Y-86177321D01*
X118422798Y-86478646D01*
X118422798Y-87206198D01*
X118439901Y-87292180D01*
X118363998Y-87292180D01*
X118363998Y-87457520D01*
X118149725Y-87334867D01*
X118078097Y-87349050D01*
X117601056Y-87608202D01*
X117259501Y-88030183D01*
X117232601Y-88121072D01*
X117231100Y-88113528D01*
X116930746Y-87664017D01*
X116481235Y-87363663D01*
X115951000Y-87258193D01*
X115420765Y-87363663D01*
X114971254Y-87664017D01*
X114681000Y-88098412D01*
X114420483Y-87708522D01*
X114764199Y-87689848D01*
X115119929Y-87542500D01*
X115181583Y-87306888D01*
X114427000Y-86552305D01*
X114412858Y-86566448D01*
X114233253Y-86386843D01*
X114247395Y-86372700D01*
X114606605Y-86372700D01*
X115361188Y-87127283D01*
X115596800Y-87065629D01*
X115772927Y-86565220D01*
X115744148Y-86035501D01*
X115596800Y-85679771D01*
X115361188Y-85618117D01*
X114606605Y-86372700D01*
X114247395Y-86372700D01*
X114233253Y-86358558D01*
X114412858Y-86178953D01*
X114427000Y-86193095D01*
X115181583Y-85438512D01*
X115119929Y-85202900D01*
X114630512Y-85030642D01*
X114709365Y-84840744D01*
X114709794Y-84349431D01*
X114522172Y-83895353D01*
X114175065Y-83547639D01*
X113721314Y-83359225D01*
X113230001Y-83358796D01*
X112809512Y-83532539D01*
X112688539Y-83451708D01*
X113106521Y-83070190D01*
X113354668Y-82540727D01*
X113234169Y-82308700D01*
X112026700Y-82308700D01*
X112026700Y-82328700D01*
X111772700Y-82328700D01*
X111772700Y-82308700D01*
X111752700Y-82308700D01*
X111752700Y-82054700D01*
X111772700Y-82054700D01*
X111772700Y-82034700D01*
X112026700Y-82034700D01*
X112026700Y-82054700D01*
X113234169Y-82054700D01*
X113270275Y-81985175D01*
X113295854Y-82047080D01*
X113670647Y-82422527D01*
X114160587Y-82625968D01*
X114691086Y-82626431D01*
X115181380Y-82423846D01*
X115556827Y-82049053D01*
X115760268Y-81559113D01*
X115760731Y-81028614D01*
X115629083Y-80710000D01*
X120845066Y-80710000D01*
X120713732Y-81026287D01*
X120713732Y-81026287D01*
G37*
X120713732Y-81026287D02*
X120713269Y-81556786D01*
X120915854Y-82047080D01*
X121290647Y-82422527D01*
X121780587Y-82625968D01*
X122311086Y-82626431D01*
X122801380Y-82423846D01*
X123176827Y-82049053D01*
X123380268Y-81559113D01*
X123380731Y-81028614D01*
X123249083Y-80710000D01*
X123789405Y-80710000D01*
X123583241Y-81206498D01*
X123582762Y-81754886D01*
X121781641Y-83556007D01*
X121494321Y-83674725D01*
X121231072Y-83937515D01*
X121088426Y-84281043D01*
X121088205Y-84534399D01*
X120367045Y-84534399D01*
X120065720Y-84594336D01*
X119810269Y-84765023D01*
X118653422Y-85921870D01*
X118482735Y-86177321D01*
X118422798Y-86478646D01*
X118422798Y-87206198D01*
X118439901Y-87292180D01*
X118363998Y-87292180D01*
X118363998Y-87457520D01*
X118149725Y-87334867D01*
X118078097Y-87349050D01*
X117601056Y-87608202D01*
X117259501Y-88030183D01*
X117232601Y-88121072D01*
X117231100Y-88113528D01*
X116930746Y-87664017D01*
X116481235Y-87363663D01*
X115951000Y-87258193D01*
X115420765Y-87363663D01*
X114971254Y-87664017D01*
X114681000Y-88098412D01*
X114420483Y-87708522D01*
X114764199Y-87689848D01*
X115119929Y-87542500D01*
X115181583Y-87306888D01*
X114427000Y-86552305D01*
X114412858Y-86566448D01*
X114233253Y-86386843D01*
X114247395Y-86372700D01*
X114606605Y-86372700D01*
X115361188Y-87127283D01*
X115596800Y-87065629D01*
X115772927Y-86565220D01*
X115744148Y-86035501D01*
X115596800Y-85679771D01*
X115361188Y-85618117D01*
X114606605Y-86372700D01*
X114247395Y-86372700D01*
X114233253Y-86358558D01*
X114412858Y-86178953D01*
X114427000Y-86193095D01*
X115181583Y-85438512D01*
X115119929Y-85202900D01*
X114630512Y-85030642D01*
X114709365Y-84840744D01*
X114709794Y-84349431D01*
X114522172Y-83895353D01*
X114175065Y-83547639D01*
X113721314Y-83359225D01*
X113230001Y-83358796D01*
X112809512Y-83532539D01*
X112688539Y-83451708D01*
X113106521Y-83070190D01*
X113354668Y-82540727D01*
X113234169Y-82308700D01*
X112026700Y-82308700D01*
X112026700Y-82328700D01*
X111772700Y-82328700D01*
X111772700Y-82308700D01*
X111752700Y-82308700D01*
X111752700Y-82054700D01*
X111772700Y-82054700D01*
X111772700Y-82034700D01*
X112026700Y-82034700D01*
X112026700Y-82054700D01*
X113234169Y-82054700D01*
X113270275Y-81985175D01*
X113295854Y-82047080D01*
X113670647Y-82422527D01*
X114160587Y-82625968D01*
X114691086Y-82626431D01*
X115181380Y-82423846D01*
X115556827Y-82049053D01*
X115760268Y-81559113D01*
X115760731Y-81028614D01*
X115629083Y-80710000D01*
X120845066Y-80710000D01*
X120713732Y-81026287D01*
G36*
X122240748Y-86358558D02*
X122226605Y-86372700D01*
X122844185Y-86990280D01*
X122853638Y-87040517D01*
X122992710Y-87256641D01*
X123124860Y-87346935D01*
X123040765Y-87363663D01*
X122591254Y-87664017D01*
X122301000Y-88098412D01*
X122040483Y-87708522D01*
X122384199Y-87689848D01*
X122739929Y-87542500D01*
X122801583Y-87306888D01*
X122047000Y-86552305D01*
X122032858Y-86566448D01*
X121853253Y-86386843D01*
X121867395Y-86372700D01*
X121853253Y-86358558D01*
X122032858Y-86178953D01*
X122047000Y-86193095D01*
X122061143Y-86178953D01*
X122240748Y-86358558D01*
X122240748Y-86358558D01*
G37*
X122240748Y-86358558D02*
X122226605Y-86372700D01*
X122844185Y-86990280D01*
X122853638Y-87040517D01*
X122992710Y-87256641D01*
X123124860Y-87346935D01*
X123040765Y-87363663D01*
X122591254Y-87664017D01*
X122301000Y-88098412D01*
X122040483Y-87708522D01*
X122384199Y-87689848D01*
X122739929Y-87542500D01*
X122801583Y-87306888D01*
X122047000Y-86552305D01*
X122032858Y-86566448D01*
X121853253Y-86386843D01*
X121867395Y-86372700D01*
X121853253Y-86358558D01*
X122032858Y-86178953D01*
X122047000Y-86193095D01*
X122061143Y-86178953D01*
X122240748Y-86358558D01*
G36*
X129530548Y-86041058D02*
X129516405Y-86055200D01*
X129530548Y-86069343D01*
X129350943Y-86248948D01*
X129336800Y-86234805D01*
X129322658Y-86248948D01*
X129143053Y-86069343D01*
X129157195Y-86055200D01*
X129143053Y-86041058D01*
X129322658Y-85861453D01*
X129336800Y-85875595D01*
X129350943Y-85861453D01*
X129530548Y-86041058D01*
X129530548Y-86041058D01*
G37*
X129530548Y-86041058D02*
X129516405Y-86055200D01*
X129530548Y-86069343D01*
X129350943Y-86248948D01*
X129336800Y-86234805D01*
X129322658Y-86248948D01*
X129143053Y-86069343D01*
X129157195Y-86055200D01*
X129143053Y-86041058D01*
X129322658Y-85861453D01*
X129336800Y-85875595D01*
X129350943Y-85861453D01*
X129530548Y-86041058D01*
M02*
