G04 #@! TF.FileFunction,Copper,L1,Top,Signal*
%FSLAX46Y46*%
G04 Gerber Fmt 4.6, Leading zero omitted, Abs format (unit mm)*
G04 Created by KiCad (PCBNEW 4.0.2+dfsg1-stable) date Sa 29 Apr 2017 09:23:48 CEST*
%MOMM*%
G01*
G04 APERTURE LIST*
%ADD10C,0.100000*%
%ADD11C,0.150000*%
%ADD12O,1.501140X2.199640*%
%ADD13C,1.500000*%
%ADD14R,1.699260X1.198880*%
%ADD15O,1.699260X1.198880*%
%ADD16C,1.397000*%
%ADD17C,2.400000*%
%ADD18R,2.400000X2.400000*%
%ADD19C,5.000000*%
%ADD20R,1.727200X1.727200*%
%ADD21O,1.727200X1.727200*%
%ADD22R,2.197100X1.524000*%
%ADD23O,2.197100X1.524000*%
%ADD24C,3.000000*%
%ADD25R,2.000000X2.000000*%
%ADD26C,2.000000*%
%ADD27R,1.600000X1.500000*%
%ADD28C,1.700000*%
%ADD29R,1.727200X2.032000*%
%ADD30O,1.727200X2.032000*%
%ADD31R,1.200000X1.200000*%
%ADD32C,1.200000*%
%ADD33R,2.032000X2.032000*%
%ADD34O,2.032000X2.032000*%
%ADD35O,1.500000X3.000000*%
%ADD36O,3.000000X1.500000*%
%ADD37R,1.200000X1.300000*%
%ADD38C,1.300000*%
%ADD39R,1.300000X1.300000*%
%ADD40O,0.899160X1.501140*%
%ADD41C,0.600000*%
%ADD42C,0.304800*%
%ADD43C,0.800000*%
%ADD44C,0.500000*%
%ADD45C,3.000000*%
%ADD46C,0.254000*%
G04 APERTURE END LIST*
D10*
D11*
X100000000Y-80000000D02*
G75*
G03X95000000Y-85000000I0J-5000000D01*
G01*
X145000000Y-85000000D02*
G75*
G03X140000000Y-80000000I-5000000J0D01*
G01*
X140000000Y-130000000D02*
G75*
G03X145000000Y-125000000I0J5000000D01*
G01*
X95000000Y-125000000D02*
G75*
G03X100000000Y-130000000I5000000J0D01*
G01*
X95000000Y-85000000D02*
X95000000Y-125000000D01*
X140000000Y-80000000D02*
X100000000Y-80000000D01*
X145000000Y-125000000D02*
X145000000Y-85000000D01*
X100000000Y-130000000D02*
X140000000Y-130000000D01*
D12*
X128143000Y-111125000D03*
X125603000Y-111125000D03*
X123063000Y-111125000D03*
X120523000Y-111125000D03*
X120523000Y-118745000D03*
X123063000Y-118745000D03*
X125603000Y-118745000D03*
X128143000Y-118745000D03*
D13*
X96456500Y-112141000D03*
X96456500Y-104521000D03*
D14*
X135509000Y-91104720D03*
D15*
X135509000Y-95107760D03*
X135509000Y-93106240D03*
X135509000Y-97106740D03*
D16*
X123317000Y-82296000D03*
X123317000Y-87376000D03*
X115697000Y-82296000D03*
X115697000Y-87376000D03*
D13*
X111252000Y-120904000D03*
D17*
X122936000Y-127254000D03*
D18*
X128016000Y-127254000D03*
D19*
X100000000Y-83500000D03*
X140000000Y-83500000D03*
X140000000Y-123500000D03*
X100000000Y-123500000D03*
D20*
X106045000Y-84836000D03*
D21*
X106045000Y-82296000D03*
X108585000Y-84836000D03*
X108585000Y-82296000D03*
X111125000Y-84836000D03*
X111125000Y-82296000D03*
X113665000Y-84836000D03*
X113665000Y-82296000D03*
D13*
X140208000Y-128016000D03*
X132588000Y-128016000D03*
X129159000Y-121031000D03*
X121539000Y-121031000D03*
X110617000Y-115824000D03*
X118237000Y-115824000D03*
X106299000Y-116967000D03*
X106299000Y-109347000D03*
X98933000Y-112141000D03*
X98933000Y-104521000D03*
X108712000Y-109347000D03*
X108712000Y-116967000D03*
X110642400Y-111099600D03*
X118262400Y-111099600D03*
X108153200Y-107086400D03*
X100533200Y-107086400D03*
D20*
X140462000Y-112903000D03*
D21*
X137922000Y-112903000D03*
X140462000Y-110363000D03*
X137922000Y-110363000D03*
X140462000Y-107823000D03*
X137922000Y-107823000D03*
D13*
X133096000Y-104394000D03*
X133096000Y-112014000D03*
X130810000Y-104394000D03*
X130810000Y-112014000D03*
X104267000Y-116967000D03*
X104267000Y-109347000D03*
X124587000Y-100965000D03*
X124587000Y-108585000D03*
X126746000Y-100965000D03*
X126746000Y-108585000D03*
X128905000Y-100965000D03*
X128905000Y-108585000D03*
X135255000Y-104394000D03*
X135255000Y-112014000D03*
X125603000Y-82169000D03*
X133223000Y-82169000D03*
D22*
X143383000Y-103124000D03*
D23*
X143383000Y-105664000D03*
X143383000Y-108204000D03*
X143383000Y-110744000D03*
X143383000Y-113284000D03*
X143383000Y-115824000D03*
X143383000Y-118364000D03*
X143383000Y-120904000D03*
D24*
X107744000Y-128240800D03*
X113744000Y-118240800D03*
D13*
X117094000Y-123240800D03*
X104394000Y-123240800D03*
X110642400Y-113461800D03*
X118262400Y-113461800D03*
D25*
X110744000Y-99568000D03*
D26*
X110744000Y-102108000D03*
D27*
X138176000Y-87604600D03*
D28*
X135636000Y-87401400D03*
X133096000Y-87604600D03*
X130556000Y-87401400D03*
X128016000Y-87604600D03*
X125476000Y-87401400D03*
D17*
X97982000Y-97437000D03*
D18*
X97982000Y-100937000D03*
D13*
X102235000Y-116967000D03*
X102235000Y-109347000D03*
X107569000Y-87630000D03*
X107569000Y-95250000D03*
X105283000Y-87630000D03*
X105283000Y-95250000D03*
X109855000Y-87630000D03*
X109855000Y-95250000D03*
X112141000Y-87630000D03*
X112141000Y-95250000D03*
X103124000Y-95250000D03*
X103124000Y-87630000D03*
D29*
X143256000Y-100457000D03*
D30*
X140716000Y-100457000D03*
X138176000Y-100457000D03*
D12*
X114808000Y-108458000D03*
X117348000Y-108458000D03*
X119888000Y-108458000D03*
X122428000Y-108458000D03*
X122428000Y-100838000D03*
X119888000Y-100838000D03*
X117348000Y-100838000D03*
X114808000Y-100838000D03*
D14*
X142494000Y-91104720D03*
D15*
X142494000Y-95107760D03*
X142494000Y-93106240D03*
X142494000Y-97106740D03*
D31*
X133846000Y-115443000D03*
D32*
X132346000Y-115443000D03*
D33*
X140411200Y-115925600D03*
D34*
X137871200Y-115925600D03*
D13*
X128778000Y-84582000D03*
X136398000Y-84582000D03*
X111252000Y-125476000D03*
D12*
X114808000Y-98044000D03*
X117348000Y-98044000D03*
X119888000Y-98044000D03*
X122428000Y-98044000D03*
X124968000Y-98044000D03*
X127508000Y-98044000D03*
X130048000Y-98044000D03*
X130048000Y-90424000D03*
X127508000Y-90424000D03*
X124968000Y-90424000D03*
X122428000Y-90424000D03*
X119888000Y-90424000D03*
X117348000Y-90424000D03*
X114808000Y-90424000D03*
D35*
X135128000Y-119583200D03*
X132588000Y-119583200D03*
X137668000Y-119583200D03*
D36*
X97193100Y-90030300D03*
X97193100Y-87490300D03*
X97193100Y-92570300D03*
D17*
X97982000Y-114963000D03*
D18*
X97982000Y-118463000D03*
D37*
X110032800Y-107492800D03*
D38*
X112532800Y-107492800D03*
D39*
X132588000Y-123063000D03*
D38*
X135088000Y-123063000D03*
D39*
X100584000Y-87249000D03*
D38*
X100584000Y-89749000D03*
D39*
X100584000Y-94234000D03*
D38*
X100584000Y-91734000D03*
D39*
X112141000Y-97409000D03*
D38*
X109641000Y-97409000D03*
D40*
X133731000Y-101727000D03*
X135001000Y-101727000D03*
X132461000Y-101727000D03*
X105283000Y-98869500D03*
X106553000Y-98869500D03*
X104013000Y-98869500D03*
X139319000Y-104203500D03*
X140589000Y-104203500D03*
X138049000Y-104203500D03*
D41*
X124333000Y-115506500D03*
X111887000Y-111760000D03*
X115316000Y-111125000D03*
X129921000Y-114300000D03*
X126796800Y-113182400D03*
X109270800Y-118465600D03*
X103886000Y-118770400D03*
X100126800Y-118364000D03*
X99974400Y-115112800D03*
X100228400Y-114147600D03*
X126555500Y-103174800D03*
X121170700Y-104152700D03*
X135255000Y-106997500D03*
X106807000Y-111226600D03*
X130721100Y-106845100D03*
X116567727Y-94195918D03*
X119722900Y-96431100D03*
X138722100Y-94006829D03*
X138137900Y-96786700D03*
X138214100Y-98272600D03*
X123236233Y-95866004D03*
X128272682Y-95700539D03*
X112268000Y-92202000D03*
X117429865Y-95655173D03*
X119316500Y-86131400D03*
X114391021Y-88073568D03*
D42*
X122546730Y-117292770D02*
X124033001Y-115806499D01*
X110617000Y-115824000D02*
X114373490Y-115824000D01*
X119912490Y-117446411D02*
X120066131Y-117292770D01*
X124033001Y-115806499D02*
X124333000Y-115506500D01*
X114373490Y-115824000D02*
X115995901Y-117446411D01*
X115995901Y-117446411D02*
X119912490Y-117446411D01*
X120066131Y-117292770D02*
X122546730Y-117292770D01*
X105549001Y-111816661D02*
X105549001Y-110096999D01*
X109556340Y-115824000D02*
X105549001Y-111816661D01*
X110617000Y-115824000D02*
X109556340Y-115824000D01*
X105549001Y-110096999D02*
X106299000Y-109347000D01*
X107401401Y-108244599D02*
X109281001Y-108244599D01*
X109281001Y-108244599D02*
X110032800Y-107492800D01*
X106299000Y-109347000D02*
X107401401Y-108244599D01*
X122936000Y-111125000D02*
X123063000Y-111125000D01*
X118237000Y-115824000D02*
X122936000Y-111125000D01*
X113641013Y-111228013D02*
X113641013Y-108601013D01*
X118237000Y-115824000D02*
X113641013Y-111228013D01*
X113641013Y-108601013D02*
X113182799Y-108142799D01*
X106299000Y-116967000D02*
X110236000Y-120904000D01*
X113182799Y-108142799D02*
X112532800Y-107492800D01*
X117094000Y-123240800D02*
X116344001Y-122490801D01*
X116344001Y-122490801D02*
X112838801Y-122490801D01*
X112838801Y-122490801D02*
X111252000Y-120904000D01*
X110236000Y-120904000D02*
X111252000Y-120904000D01*
X143383000Y-120904000D02*
X143046450Y-120904000D01*
X143046450Y-120904000D02*
X141779601Y-119637151D01*
X141779601Y-114627679D02*
X140462000Y-113310078D01*
X141779601Y-119637151D02*
X141779601Y-114627679D01*
X140462000Y-113310078D02*
X140462000Y-112903000D01*
X137922000Y-110363000D02*
X137922000Y-109982000D01*
X137922000Y-109982000D02*
X139192000Y-108712000D01*
X138049000Y-105156000D02*
X138049000Y-104203500D01*
X139192000Y-106299000D02*
X138049000Y-105156000D01*
X139192000Y-108712000D02*
X139192000Y-106299000D01*
X137922000Y-112903000D02*
X137922000Y-110363000D01*
X140462000Y-110363000D02*
X141678001Y-111579001D01*
X143383000Y-115517168D02*
X143383000Y-115824000D01*
X141678001Y-113812169D02*
X143383000Y-115517168D01*
X141678001Y-111579001D02*
X141678001Y-113812169D01*
X143383000Y-115824000D02*
X143383000Y-118364000D01*
X143383000Y-108204000D02*
X143383000Y-105664000D01*
X143383000Y-110744000D02*
X143383000Y-108204000D01*
X143383000Y-110744000D02*
X143383000Y-113284000D01*
X140462000Y-107823000D02*
X143002000Y-107823000D01*
X143002000Y-107823000D02*
X143383000Y-108204000D01*
X137922000Y-107823000D02*
X137922000Y-105854500D01*
X132461000Y-102552500D02*
X132461000Y-101727000D01*
X132969000Y-103060500D02*
X132461000Y-102552500D01*
X135826500Y-103060500D02*
X132969000Y-103060500D01*
X136715500Y-103949500D02*
X135826500Y-103060500D01*
X136715500Y-104648000D02*
X136715500Y-103949500D01*
X137922000Y-105854500D02*
X136715500Y-104648000D01*
X132461000Y-101727000D02*
X132461000Y-102044500D01*
X111887000Y-111760000D02*
X111444999Y-112202001D01*
X111444999Y-112202001D02*
X110113247Y-112202001D01*
X110113247Y-112202001D02*
X108712000Y-110800754D01*
X108712000Y-110800754D02*
X108712000Y-110407660D01*
X108712000Y-110407660D02*
X108712000Y-109347000D01*
X120523000Y-111125000D02*
X119445999Y-112202001D01*
X119445999Y-112202001D02*
X116393001Y-112202001D01*
X116393001Y-112202001D02*
X115316000Y-111125000D01*
X135128000Y-119583200D02*
X135128000Y-123023000D01*
X135128000Y-123023000D02*
X135088000Y-123063000D01*
X135128000Y-119583200D02*
X135128000Y-117778400D01*
X135128000Y-117778400D02*
X135612399Y-117294001D01*
X135612399Y-117294001D02*
X140363599Y-117294001D01*
X140363599Y-117294001D02*
X140411200Y-117246400D01*
X140411200Y-117246400D02*
X140411200Y-115925600D01*
X129605400Y-113959000D02*
X129605400Y-113984400D01*
X129605400Y-113984400D02*
X129921000Y-114300000D01*
X127573400Y-113959000D02*
X129605400Y-113959000D01*
X127573400Y-113959000D02*
X126796800Y-113182400D01*
X100533200Y-118770400D02*
X103886000Y-118770400D01*
X100126800Y-118364000D02*
X100533200Y-118770400D01*
X99974400Y-114401600D02*
X99974400Y-115112800D01*
X100228400Y-114147600D02*
X99974400Y-114401600D01*
X124587000Y-101206300D02*
X126555500Y-103174800D01*
X124587000Y-100965000D02*
X124587000Y-101206300D01*
X121170700Y-104152700D02*
X121170700Y-110477300D01*
X121170700Y-110477300D02*
X120523000Y-111125000D01*
X135255000Y-104394000D02*
X135255000Y-106997500D01*
X135420100Y-104559100D02*
X135255000Y-104394000D01*
X107086400Y-111537354D02*
X107086400Y-111506000D01*
X107086400Y-111506000D02*
X106807000Y-111226600D01*
X116189801Y-116926401D02*
X113827601Y-114564201D01*
X113827601Y-114564201D02*
X110113247Y-114564201D01*
X110113247Y-114564201D02*
X107086400Y-111537354D01*
X125603000Y-111125000D02*
X125603000Y-111474250D01*
X120567450Y-116509800D02*
X119182754Y-116509800D01*
X125603000Y-111474250D02*
X120567450Y-116509800D01*
X119182754Y-116509800D02*
X118766153Y-116926401D01*
X118766153Y-116926401D02*
X116189801Y-116926401D01*
X125666500Y-111188500D02*
X125603000Y-111125000D01*
X130810000Y-104394000D02*
X133096000Y-104394000D01*
X130721100Y-106845100D02*
X130721100Y-104482900D01*
X130721100Y-104482900D02*
X130810000Y-104394000D01*
D43*
X130821002Y-113085662D02*
X130810000Y-113074660D01*
X130821002Y-116066998D02*
X130821002Y-113085662D01*
X130810000Y-116078000D02*
X130821002Y-116066998D01*
X130810000Y-113074660D02*
X130810000Y-112014000D01*
X130810000Y-116078000D02*
X131375001Y-116643001D01*
X131375001Y-116643001D02*
X132922001Y-116643001D01*
X132922001Y-116643001D02*
X133846000Y-115719002D01*
X133846000Y-115719002D02*
X133846000Y-115443000D01*
X128143000Y-118745000D02*
X130810000Y-116078000D01*
X137668000Y-119583200D02*
X137668000Y-120675400D01*
X137668000Y-119583200D02*
X137668000Y-118719600D01*
X130962400Y-112014000D02*
X130810000Y-112014000D01*
D44*
X130810000Y-112014000D02*
X130060001Y-112763999D01*
X126942420Y-111971546D02*
X126942420Y-109842080D01*
X130060001Y-112763999D02*
X127734873Y-112763999D01*
X126746000Y-109645660D02*
X126746000Y-108585000D01*
X127734873Y-112763999D02*
X126942420Y-111971546D01*
X126942420Y-109842080D02*
X126746000Y-109645660D01*
D43*
X113665000Y-86057314D02*
X113665000Y-84836000D01*
X113457420Y-88311582D02*
X113491001Y-88278001D01*
X114284760Y-93106240D02*
X113457420Y-92278900D01*
X113491001Y-88278001D02*
X113491001Y-86231313D01*
X113457420Y-92278900D02*
X113457420Y-88311582D01*
X113491001Y-86231313D02*
X113665000Y-86057314D01*
X114284760Y-93106240D02*
X135509000Y-93106240D01*
X112141000Y-95250000D02*
X114284760Y-93106240D01*
X109855000Y-95250000D02*
X112141000Y-95250000D01*
X100584000Y-94234000D02*
X102235000Y-94234000D01*
X102235000Y-94234000D02*
X102616000Y-93853000D01*
X102616000Y-93853000D02*
X108458000Y-93853000D01*
X108458000Y-93853000D02*
X109855000Y-95250000D01*
X97193100Y-92570300D02*
X98920300Y-92570300D01*
X98920300Y-92570300D02*
X100584000Y-94234000D01*
X135509000Y-93106240D02*
X133859370Y-93106240D01*
X136398000Y-86334600D02*
X136485999Y-86422599D01*
X136485999Y-86422599D02*
X136485999Y-86551401D01*
X136485999Y-86551401D02*
X135636000Y-87401400D01*
X135509000Y-93106240D02*
X134981448Y-93106240D01*
X134981448Y-93106240D02*
X134059369Y-92184161D01*
X134059369Y-92184161D02*
X134059369Y-88978031D01*
X134059369Y-88978031D02*
X134786001Y-88251399D01*
X134786001Y-88251399D02*
X135636000Y-87401400D01*
X142744190Y-93106240D02*
X142494000Y-93106240D01*
X114808000Y-100838000D02*
X117348000Y-100838000D01*
X114808000Y-98044000D02*
X114808000Y-100838000D01*
X112141000Y-97409000D02*
X114173000Y-97409000D01*
X114173000Y-97409000D02*
X114808000Y-98044000D01*
X136398000Y-86334600D02*
X136398000Y-84582000D01*
D42*
X116267728Y-94495917D02*
X116567727Y-94195918D01*
X114411244Y-96352401D02*
X116267728Y-94495917D01*
X109641000Y-97409000D02*
X110697599Y-96352401D01*
X117487718Y-94195918D02*
X116991991Y-94195918D01*
X116991991Y-94195918D02*
X116567727Y-94195918D01*
X119722900Y-96431100D02*
X117487718Y-94195918D01*
X110697599Y-96352401D02*
X114411244Y-96352401D01*
X97193100Y-90030300D02*
X96443100Y-90030300D01*
X96443100Y-90030300D02*
X95340690Y-91132710D01*
X95340690Y-99800490D02*
X96477200Y-100937000D01*
X95340690Y-91132710D02*
X95340690Y-99800490D01*
X96477200Y-100937000D02*
X97982000Y-100937000D01*
X97193100Y-90030300D02*
X100302700Y-90030300D01*
X100302700Y-90030300D02*
X100584000Y-89749000D01*
X100584000Y-89749000D02*
X100584000Y-91734000D01*
X97193100Y-90030300D02*
X97943100Y-90030300D01*
X97943100Y-90030300D02*
X99646800Y-91734000D01*
X99646800Y-91734000D02*
X99664762Y-91734000D01*
X99664762Y-91734000D02*
X100584000Y-91734000D01*
X138661299Y-94006829D02*
X138722100Y-94006829D01*
X135759190Y-91104720D02*
X138661299Y-94006829D01*
X135509000Y-91104720D02*
X135759190Y-91104720D01*
X138214100Y-98272600D02*
X138214100Y-96862900D01*
X138214100Y-96862900D02*
X138137900Y-96786700D01*
X142494000Y-95107760D02*
X138616738Y-95107760D01*
X138616738Y-95107760D02*
X137591012Y-94082034D01*
X123724099Y-93858651D02*
X119888000Y-97694750D01*
X128937386Y-93858651D02*
X123724099Y-93858651D01*
X137591012Y-94082034D02*
X129160769Y-94082034D01*
X129160769Y-94082034D02*
X128937386Y-93858651D01*
X140306777Y-96073947D02*
X130438772Y-96073947D01*
X123536232Y-95566005D02*
X123236233Y-95866004D01*
X124738775Y-94363462D02*
X123536232Y-95566005D01*
X128728287Y-94363462D02*
X124738775Y-94363462D01*
X142494000Y-97106740D02*
X141339570Y-97106740D01*
X130438772Y-96073947D02*
X128728287Y-94363462D01*
X141339570Y-97106740D02*
X140306777Y-96073947D01*
D43*
X138049000Y-128016000D02*
X140208000Y-128016000D01*
X135255000Y-125222000D02*
X138049000Y-128016000D01*
X124841000Y-125222000D02*
X135255000Y-125222000D01*
X121539000Y-121031000D02*
X121539000Y-125857000D01*
X122936000Y-127254000D02*
X122936000Y-127127000D01*
X122936000Y-127127000D02*
X124841000Y-125222000D01*
X121539000Y-125857000D02*
X122936000Y-127254000D01*
D45*
X122936000Y-127254000D02*
X116840000Y-127254000D01*
X115853200Y-128240800D02*
X107744000Y-128240800D01*
X116840000Y-127254000D02*
X115853200Y-128240800D01*
D43*
X102235000Y-113639600D02*
X105384600Y-113639600D01*
X105384600Y-113639600D02*
X108712000Y-116967000D01*
X102235000Y-114210000D02*
X102235000Y-113639600D01*
X102235000Y-113639600D02*
X102235000Y-110744000D01*
X97982000Y-118463000D02*
X102235000Y-114210000D01*
X102235000Y-109347000D02*
X102235000Y-110744000D01*
X100533200Y-107086400D02*
X100533200Y-106527600D01*
X100533200Y-106527600D02*
X102539800Y-104521000D01*
X111912400Y-105765600D02*
X112389599Y-106242799D01*
X108915200Y-105765600D02*
X111912400Y-105765600D01*
X107670600Y-104521000D02*
X108915200Y-105765600D01*
X102539800Y-104521000D02*
X107670600Y-104521000D01*
X110642400Y-113461800D02*
X111830060Y-113461800D01*
X118022049Y-106242799D02*
X119888000Y-108108750D01*
X111932799Y-106242799D02*
X112389599Y-106242799D01*
X112389599Y-106242799D02*
X118022049Y-106242799D01*
X111282799Y-106892799D02*
X111932799Y-106242799D01*
X112888602Y-109698604D02*
X111282799Y-108092801D01*
X112888602Y-112403258D02*
X112888602Y-109698604D01*
X111282799Y-108092801D02*
X111282799Y-106892799D01*
X111830060Y-113461800D02*
X112888602Y-112403258D01*
X100533200Y-107086400D02*
X100533200Y-110540800D01*
X100533200Y-110540800D02*
X98933000Y-112141000D01*
X119888000Y-108108750D02*
X119888000Y-108458000D01*
D42*
X123058901Y-98044000D02*
X125402362Y-95700539D01*
X122428000Y-98044000D02*
X123058901Y-98044000D01*
X127848418Y-95700539D02*
X128272682Y-95700539D01*
X125402362Y-95700539D02*
X127848418Y-95700539D01*
X127977900Y-85432900D02*
X121989850Y-85432900D01*
X121989850Y-85432900D02*
X117348000Y-90074750D01*
X117348000Y-90074750D02*
X117348000Y-90424000D01*
X128743999Y-86198999D02*
X127977900Y-85432900D01*
X130556000Y-87401400D02*
X129353599Y-86198999D01*
X129353599Y-86198999D02*
X128743999Y-86198999D01*
X128016000Y-87604600D02*
X126610399Y-86198999D01*
X126610399Y-86198999D02*
X122708381Y-86198999D01*
X122708381Y-86198999D02*
X119888000Y-89019380D01*
X119888000Y-89019380D02*
X119888000Y-90424000D01*
X109855000Y-87630000D02*
X107569000Y-87630000D01*
X130048000Y-96639380D02*
X130048000Y-98044000D01*
X125520718Y-94868273D02*
X128519188Y-94868273D01*
X128519188Y-94868273D02*
X130048000Y-96397085D01*
X121325020Y-99051730D02*
X121325020Y-97237881D01*
X123797221Y-96591770D02*
X125520718Y-94868273D01*
X121971131Y-96591770D02*
X123797221Y-96591770D01*
X121325020Y-97237881D02*
X121971131Y-96591770D01*
X119888000Y-100488750D02*
X121325020Y-99051730D01*
X130048000Y-96397085D02*
X130048000Y-96639380D01*
X112268000Y-92202000D02*
X109855000Y-89789000D01*
X109855000Y-89789000D02*
X109855000Y-87630000D01*
X119888000Y-100838000D02*
X119888000Y-100488750D01*
X119888000Y-100488750D02*
X118450980Y-99051730D01*
X117729864Y-95955172D02*
X117429865Y-95655173D01*
X118450980Y-96676288D02*
X117729864Y-95955172D01*
X118450980Y-99051730D02*
X118450980Y-96676288D01*
X102092801Y-88732401D02*
X102021599Y-88661199D01*
X102021599Y-87100847D02*
X104286446Y-84836000D01*
X102021599Y-88661199D02*
X102021599Y-87100847D01*
X104286446Y-84836000D02*
X104876600Y-84836000D01*
X104876600Y-84836000D02*
X106045000Y-84836000D01*
X107442000Y-87630000D02*
X106339599Y-88732401D01*
X106339599Y-88732401D02*
X102092801Y-88732401D01*
X108585000Y-84836000D02*
X109801001Y-86052001D01*
X109801001Y-86052001D02*
X111816679Y-86052001D01*
X113081319Y-83619999D02*
X116805099Y-83619999D01*
X111816679Y-86052001D02*
X112448999Y-85419681D01*
X112448999Y-85419681D02*
X112448999Y-84252319D01*
X112448999Y-84252319D02*
X113081319Y-83619999D01*
X116805099Y-83619999D02*
X119316500Y-86131400D01*
X108585000Y-84836000D02*
X108585000Y-82296000D01*
X105283000Y-87630000D02*
X106385401Y-86527599D01*
X106385401Y-86527599D02*
X106893401Y-86527599D01*
X107721401Y-85699599D02*
X108585000Y-84836000D01*
X106893401Y-86527599D02*
X107721401Y-85699599D01*
X117099492Y-92084591D02*
X115910980Y-90896079D01*
X115910980Y-89593527D02*
X114691020Y-88373567D01*
X124968000Y-90773250D02*
X123656659Y-92084591D01*
X114691020Y-88373567D02*
X114391021Y-88073568D01*
X115910980Y-90896079D02*
X115910980Y-89593527D01*
X123656659Y-92084591D02*
X117099492Y-92084591D01*
X124968000Y-90424000D02*
X124968000Y-90773250D01*
X129654999Y-109334999D02*
X129654999Y-109613001D01*
X129654999Y-109613001D02*
X128143000Y-111125000D01*
X128905000Y-108585000D02*
X128905000Y-103124000D01*
X128905000Y-103124000D02*
X126746000Y-100965000D01*
X130201099Y-109334999D02*
X130586480Y-109720380D01*
X130586480Y-109720380D02*
X130602990Y-109720380D01*
X128905000Y-108585000D02*
X129654999Y-109334999D01*
X129654999Y-109334999D02*
X130201099Y-109334999D01*
X135255000Y-112014000D02*
X132961380Y-109720380D01*
X132961380Y-109720380D02*
X130602990Y-109720380D01*
X137871200Y-115925600D02*
X135255000Y-113309400D01*
X135255000Y-113309400D02*
X135255000Y-112014000D01*
D46*
G36*
X95606511Y-93370038D02*
X95973434Y-93615208D01*
X96406249Y-93701300D01*
X97979951Y-93701300D01*
X98412766Y-93615208D01*
X98681288Y-93435788D01*
X99545536Y-94300036D01*
X99545536Y-94884000D01*
X99572103Y-95025190D01*
X99655546Y-95154865D01*
X99782866Y-95241859D01*
X99934000Y-95272464D01*
X101234000Y-95272464D01*
X101375190Y-95245897D01*
X101504865Y-95162454D01*
X101591859Y-95035134D01*
X101595936Y-95015000D01*
X101737537Y-95015000D01*
X101726799Y-95045171D01*
X101754770Y-95595448D01*
X101911540Y-95973923D01*
X102152483Y-96041912D01*
X102944395Y-95250000D01*
X102930253Y-95235858D01*
X103109858Y-95056253D01*
X103124000Y-95070395D01*
X103138143Y-95056253D01*
X103317748Y-95235858D01*
X103303605Y-95250000D01*
X104095517Y-96041912D01*
X104336460Y-95973923D01*
X104355151Y-95921404D01*
X104641503Y-96208256D01*
X105057043Y-96380804D01*
X105506983Y-96381196D01*
X105922823Y-96209375D01*
X106241256Y-95891497D01*
X106413804Y-95475957D01*
X106414196Y-95026017D01*
X106252218Y-94634000D01*
X106600157Y-94634000D01*
X106438196Y-95024043D01*
X106437804Y-95473983D01*
X106609625Y-95889823D01*
X106927503Y-96208256D01*
X107343043Y-96380804D01*
X107792983Y-96381196D01*
X108208823Y-96209375D01*
X108527256Y-95891497D01*
X108699804Y-95475957D01*
X108700045Y-95199545D01*
X108724022Y-95223523D01*
X108723804Y-95473983D01*
X108895625Y-95889823D01*
X109194634Y-96189354D01*
X108977271Y-96279389D01*
X108921590Y-96509984D01*
X109641000Y-97229395D01*
X110360410Y-96509984D01*
X110306602Y-96287146D01*
X110494823Y-96209375D01*
X110673509Y-96031000D01*
X111322556Y-96031000D01*
X111499503Y-96208256D01*
X111890315Y-96370536D01*
X111491000Y-96370536D01*
X111349810Y-96397103D01*
X111220135Y-96480546D01*
X111133141Y-96607866D01*
X111102536Y-96759000D01*
X111102536Y-98059000D01*
X111125217Y-98179536D01*
X110591144Y-98179536D01*
X110540018Y-98128410D01*
X110770611Y-98072729D01*
X110938622Y-97589922D01*
X110909083Y-97079572D01*
X110770611Y-96745271D01*
X110540016Y-96689590D01*
X109820605Y-97409000D01*
X109834748Y-97423142D01*
X109655142Y-97602748D01*
X109641000Y-97588605D01*
X108921590Y-98308016D01*
X108977271Y-98538611D01*
X109355536Y-98670243D01*
X109355536Y-100568000D01*
X109382103Y-100709190D01*
X109465546Y-100838865D01*
X109592866Y-100925859D01*
X109744000Y-100956464D01*
X109942813Y-100956464D01*
X109573928Y-101324705D01*
X109363241Y-101832097D01*
X109362761Y-102381493D01*
X109572563Y-102889251D01*
X109933680Y-103251000D01*
X95456000Y-103251000D01*
X95456000Y-101222750D01*
X96147000Y-101222750D01*
X96147000Y-102263309D01*
X96243673Y-102496698D01*
X96422301Y-102675327D01*
X96655690Y-102772000D01*
X97696250Y-102772000D01*
X97855000Y-102613250D01*
X97855000Y-101064000D01*
X98109000Y-101064000D01*
X98109000Y-102613250D01*
X98267750Y-102772000D01*
X99308310Y-102772000D01*
X99541699Y-102675327D01*
X99720327Y-102496698D01*
X99817000Y-102263309D01*
X99817000Y-101222750D01*
X99658250Y-101064000D01*
X98109000Y-101064000D01*
X97855000Y-101064000D01*
X96305750Y-101064000D01*
X96147000Y-101222750D01*
X95456000Y-101222750D01*
X95456000Y-99610691D01*
X96147000Y-99610691D01*
X96147000Y-100651250D01*
X96305750Y-100810000D01*
X97855000Y-100810000D01*
X97855000Y-99260750D01*
X98109000Y-99260750D01*
X98109000Y-100810000D01*
X99658250Y-100810000D01*
X99817000Y-100651250D01*
X99817000Y-99610691D01*
X99720327Y-99377302D01*
X99541699Y-99198673D01*
X99308310Y-99102000D01*
X98267750Y-99102000D01*
X98109000Y-99260750D01*
X97855000Y-99260750D01*
X97696250Y-99102000D01*
X96655690Y-99102000D01*
X96422301Y-99198673D01*
X96243673Y-99377302D01*
X96147000Y-99610691D01*
X95456000Y-99610691D01*
X95456000Y-97750101D01*
X96400726Y-97750101D01*
X96640912Y-98331395D01*
X97085266Y-98776525D01*
X97666140Y-99017725D01*
X98295101Y-99018274D01*
X98876395Y-98778088D01*
X99108546Y-98546341D01*
X103182420Y-98546341D01*
X103182420Y-99192659D01*
X103245644Y-99510508D01*
X103425691Y-99779968D01*
X103695151Y-99960015D01*
X104013000Y-100023239D01*
X104330849Y-99960015D01*
X104600309Y-99779968D01*
X104648000Y-99708593D01*
X104695691Y-99779968D01*
X104965151Y-99960015D01*
X105283000Y-100023239D01*
X105600849Y-99960015D01*
X105739641Y-99867277D01*
X105875889Y-100027206D01*
X106259065Y-100214481D01*
X106426000Y-100087568D01*
X106426000Y-98996500D01*
X106680000Y-98996500D01*
X106680000Y-100087568D01*
X106846935Y-100214481D01*
X107230111Y-100027206D01*
X107506420Y-99702873D01*
X107637580Y-99297490D01*
X107637580Y-98996500D01*
X106680000Y-98996500D01*
X106426000Y-98996500D01*
X106406000Y-98996500D01*
X106406000Y-98742500D01*
X106426000Y-98742500D01*
X106426000Y-97651432D01*
X106680000Y-97651432D01*
X106680000Y-98742500D01*
X107637580Y-98742500D01*
X107637580Y-98441510D01*
X107506420Y-98036127D01*
X107230111Y-97711794D01*
X106846935Y-97524519D01*
X106680000Y-97651432D01*
X106426000Y-97651432D01*
X106259065Y-97524519D01*
X105875889Y-97711794D01*
X105739641Y-97871723D01*
X105600849Y-97778985D01*
X105283000Y-97715761D01*
X104965151Y-97778985D01*
X104695691Y-97959032D01*
X104648000Y-98030407D01*
X104600309Y-97959032D01*
X104330849Y-97778985D01*
X104013000Y-97715761D01*
X103695151Y-97778985D01*
X103425691Y-97959032D01*
X103245644Y-98228492D01*
X103182420Y-98546341D01*
X99108546Y-98546341D01*
X99321525Y-98333734D01*
X99562725Y-97752860D01*
X99563183Y-97228078D01*
X108343378Y-97228078D01*
X108372917Y-97738428D01*
X108511389Y-98072729D01*
X108741984Y-98128410D01*
X109461395Y-97409000D01*
X108741984Y-96689590D01*
X108511389Y-96745271D01*
X108343378Y-97228078D01*
X99563183Y-97228078D01*
X99563274Y-97123899D01*
X99323088Y-96542605D01*
X99002560Y-96221517D01*
X102332088Y-96221517D01*
X102400077Y-96462460D01*
X102919171Y-96647201D01*
X103469448Y-96619230D01*
X103847923Y-96462460D01*
X103915912Y-96221517D01*
X103124000Y-95429605D01*
X102332088Y-96221517D01*
X99002560Y-96221517D01*
X98878734Y-96097475D01*
X98297860Y-95856275D01*
X97668899Y-95855726D01*
X97087605Y-96095912D01*
X96642475Y-96540266D01*
X96401275Y-97121140D01*
X96400726Y-97750101D01*
X95456000Y-97750101D01*
X95456000Y-93144782D01*
X95606511Y-93370038D01*
X95606511Y-93370038D01*
G37*
X95606511Y-93370038D02*
X95973434Y-93615208D01*
X96406249Y-93701300D01*
X97979951Y-93701300D01*
X98412766Y-93615208D01*
X98681288Y-93435788D01*
X99545536Y-94300036D01*
X99545536Y-94884000D01*
X99572103Y-95025190D01*
X99655546Y-95154865D01*
X99782866Y-95241859D01*
X99934000Y-95272464D01*
X101234000Y-95272464D01*
X101375190Y-95245897D01*
X101504865Y-95162454D01*
X101591859Y-95035134D01*
X101595936Y-95015000D01*
X101737537Y-95015000D01*
X101726799Y-95045171D01*
X101754770Y-95595448D01*
X101911540Y-95973923D01*
X102152483Y-96041912D01*
X102944395Y-95250000D01*
X102930253Y-95235858D01*
X103109858Y-95056253D01*
X103124000Y-95070395D01*
X103138143Y-95056253D01*
X103317748Y-95235858D01*
X103303605Y-95250000D01*
X104095517Y-96041912D01*
X104336460Y-95973923D01*
X104355151Y-95921404D01*
X104641503Y-96208256D01*
X105057043Y-96380804D01*
X105506983Y-96381196D01*
X105922823Y-96209375D01*
X106241256Y-95891497D01*
X106413804Y-95475957D01*
X106414196Y-95026017D01*
X106252218Y-94634000D01*
X106600157Y-94634000D01*
X106438196Y-95024043D01*
X106437804Y-95473983D01*
X106609625Y-95889823D01*
X106927503Y-96208256D01*
X107343043Y-96380804D01*
X107792983Y-96381196D01*
X108208823Y-96209375D01*
X108527256Y-95891497D01*
X108699804Y-95475957D01*
X108700045Y-95199545D01*
X108724022Y-95223523D01*
X108723804Y-95473983D01*
X108895625Y-95889823D01*
X109194634Y-96189354D01*
X108977271Y-96279389D01*
X108921590Y-96509984D01*
X109641000Y-97229395D01*
X110360410Y-96509984D01*
X110306602Y-96287146D01*
X110494823Y-96209375D01*
X110673509Y-96031000D01*
X111322556Y-96031000D01*
X111499503Y-96208256D01*
X111890315Y-96370536D01*
X111491000Y-96370536D01*
X111349810Y-96397103D01*
X111220135Y-96480546D01*
X111133141Y-96607866D01*
X111102536Y-96759000D01*
X111102536Y-98059000D01*
X111125217Y-98179536D01*
X110591144Y-98179536D01*
X110540018Y-98128410D01*
X110770611Y-98072729D01*
X110938622Y-97589922D01*
X110909083Y-97079572D01*
X110770611Y-96745271D01*
X110540016Y-96689590D01*
X109820605Y-97409000D01*
X109834748Y-97423142D01*
X109655142Y-97602748D01*
X109641000Y-97588605D01*
X108921590Y-98308016D01*
X108977271Y-98538611D01*
X109355536Y-98670243D01*
X109355536Y-100568000D01*
X109382103Y-100709190D01*
X109465546Y-100838865D01*
X109592866Y-100925859D01*
X109744000Y-100956464D01*
X109942813Y-100956464D01*
X109573928Y-101324705D01*
X109363241Y-101832097D01*
X109362761Y-102381493D01*
X109572563Y-102889251D01*
X109933680Y-103251000D01*
X95456000Y-103251000D01*
X95456000Y-101222750D01*
X96147000Y-101222750D01*
X96147000Y-102263309D01*
X96243673Y-102496698D01*
X96422301Y-102675327D01*
X96655690Y-102772000D01*
X97696250Y-102772000D01*
X97855000Y-102613250D01*
X97855000Y-101064000D01*
X98109000Y-101064000D01*
X98109000Y-102613250D01*
X98267750Y-102772000D01*
X99308310Y-102772000D01*
X99541699Y-102675327D01*
X99720327Y-102496698D01*
X99817000Y-102263309D01*
X99817000Y-101222750D01*
X99658250Y-101064000D01*
X98109000Y-101064000D01*
X97855000Y-101064000D01*
X96305750Y-101064000D01*
X96147000Y-101222750D01*
X95456000Y-101222750D01*
X95456000Y-99610691D01*
X96147000Y-99610691D01*
X96147000Y-100651250D01*
X96305750Y-100810000D01*
X97855000Y-100810000D01*
X97855000Y-99260750D01*
X98109000Y-99260750D01*
X98109000Y-100810000D01*
X99658250Y-100810000D01*
X99817000Y-100651250D01*
X99817000Y-99610691D01*
X99720327Y-99377302D01*
X99541699Y-99198673D01*
X99308310Y-99102000D01*
X98267750Y-99102000D01*
X98109000Y-99260750D01*
X97855000Y-99260750D01*
X97696250Y-99102000D01*
X96655690Y-99102000D01*
X96422301Y-99198673D01*
X96243673Y-99377302D01*
X96147000Y-99610691D01*
X95456000Y-99610691D01*
X95456000Y-97750101D01*
X96400726Y-97750101D01*
X96640912Y-98331395D01*
X97085266Y-98776525D01*
X97666140Y-99017725D01*
X98295101Y-99018274D01*
X98876395Y-98778088D01*
X99108546Y-98546341D01*
X103182420Y-98546341D01*
X103182420Y-99192659D01*
X103245644Y-99510508D01*
X103425691Y-99779968D01*
X103695151Y-99960015D01*
X104013000Y-100023239D01*
X104330849Y-99960015D01*
X104600309Y-99779968D01*
X104648000Y-99708593D01*
X104695691Y-99779968D01*
X104965151Y-99960015D01*
X105283000Y-100023239D01*
X105600849Y-99960015D01*
X105739641Y-99867277D01*
X105875889Y-100027206D01*
X106259065Y-100214481D01*
X106426000Y-100087568D01*
X106426000Y-98996500D01*
X106680000Y-98996500D01*
X106680000Y-100087568D01*
X106846935Y-100214481D01*
X107230111Y-100027206D01*
X107506420Y-99702873D01*
X107637580Y-99297490D01*
X107637580Y-98996500D01*
X106680000Y-98996500D01*
X106426000Y-98996500D01*
X106406000Y-98996500D01*
X106406000Y-98742500D01*
X106426000Y-98742500D01*
X106426000Y-97651432D01*
X106680000Y-97651432D01*
X106680000Y-98742500D01*
X107637580Y-98742500D01*
X107637580Y-98441510D01*
X107506420Y-98036127D01*
X107230111Y-97711794D01*
X106846935Y-97524519D01*
X106680000Y-97651432D01*
X106426000Y-97651432D01*
X106259065Y-97524519D01*
X105875889Y-97711794D01*
X105739641Y-97871723D01*
X105600849Y-97778985D01*
X105283000Y-97715761D01*
X104965151Y-97778985D01*
X104695691Y-97959032D01*
X104648000Y-98030407D01*
X104600309Y-97959032D01*
X104330849Y-97778985D01*
X104013000Y-97715761D01*
X103695151Y-97778985D01*
X103425691Y-97959032D01*
X103245644Y-98228492D01*
X103182420Y-98546341D01*
X99108546Y-98546341D01*
X99321525Y-98333734D01*
X99562725Y-97752860D01*
X99563183Y-97228078D01*
X108343378Y-97228078D01*
X108372917Y-97738428D01*
X108511389Y-98072729D01*
X108741984Y-98128410D01*
X109461395Y-97409000D01*
X108741984Y-96689590D01*
X108511389Y-96745271D01*
X108343378Y-97228078D01*
X99563183Y-97228078D01*
X99563274Y-97123899D01*
X99323088Y-96542605D01*
X99002560Y-96221517D01*
X102332088Y-96221517D01*
X102400077Y-96462460D01*
X102919171Y-96647201D01*
X103469448Y-96619230D01*
X103847923Y-96462460D01*
X103915912Y-96221517D01*
X103124000Y-95429605D01*
X102332088Y-96221517D01*
X99002560Y-96221517D01*
X98878734Y-96097475D01*
X98297860Y-95856275D01*
X97668899Y-95855726D01*
X97087605Y-96095912D01*
X96642475Y-96540266D01*
X96401275Y-97121140D01*
X96400726Y-97750101D01*
X95456000Y-97750101D01*
X95456000Y-93144782D01*
X95606511Y-93370038D01*
G36*
X113676430Y-98422261D02*
X113762566Y-98855294D01*
X114007859Y-99222402D01*
X114027000Y-99235192D01*
X114027000Y-99646808D01*
X114007859Y-99659598D01*
X113762566Y-100026706D01*
X113676430Y-100459739D01*
X113676430Y-101216261D01*
X113762566Y-101649294D01*
X114007859Y-102016402D01*
X114374967Y-102261695D01*
X114808000Y-102347831D01*
X115241033Y-102261695D01*
X115608141Y-102016402D01*
X115853434Y-101649294D01*
X115859460Y-101619000D01*
X116296540Y-101619000D01*
X116302566Y-101649294D01*
X116547859Y-102016402D01*
X116914967Y-102261695D01*
X117348000Y-102347831D01*
X117781033Y-102261695D01*
X118148141Y-102016402D01*
X118393434Y-101649294D01*
X118479570Y-101216261D01*
X118479570Y-100459739D01*
X118393434Y-100026706D01*
X118148141Y-99659598D01*
X117820985Y-99441000D01*
X118001362Y-99320476D01*
X118073809Y-99428901D01*
X118814203Y-100169295D01*
X118756430Y-100459739D01*
X118756430Y-101216261D01*
X118842566Y-101649294D01*
X119087859Y-102016402D01*
X119454967Y-102261695D01*
X119888000Y-102347831D01*
X120321033Y-102261695D01*
X120688141Y-102016402D01*
X120933434Y-101649294D01*
X121019570Y-101216261D01*
X121019570Y-100459739D01*
X120961797Y-100169295D01*
X121157233Y-99973859D01*
X121042430Y-100361750D01*
X121042430Y-100711000D01*
X122301000Y-100711000D01*
X122301000Y-100691000D01*
X122555000Y-100691000D01*
X122555000Y-100985000D01*
X122301000Y-100985000D01*
X122301000Y-100965000D01*
X121042430Y-100965000D01*
X121042430Y-101314250D01*
X121196501Y-101834817D01*
X121538056Y-102256798D01*
X121572749Y-102275645D01*
X120597394Y-103251000D01*
X111553738Y-103251000D01*
X111914072Y-102891295D01*
X112124759Y-102383903D01*
X112125239Y-101834507D01*
X111915437Y-101326749D01*
X111545799Y-100956464D01*
X111744000Y-100956464D01*
X111885190Y-100929897D01*
X112014865Y-100846454D01*
X112101859Y-100719134D01*
X112132464Y-100568000D01*
X112132464Y-98568000D01*
X112109783Y-98447464D01*
X112791000Y-98447464D01*
X112932190Y-98420897D01*
X113061865Y-98337454D01*
X113148859Y-98210134D01*
X113152936Y-98190000D01*
X113676430Y-98190000D01*
X113676430Y-98422261D01*
X113676430Y-98422261D01*
G37*
X113676430Y-98422261D02*
X113762566Y-98855294D01*
X114007859Y-99222402D01*
X114027000Y-99235192D01*
X114027000Y-99646808D01*
X114007859Y-99659598D01*
X113762566Y-100026706D01*
X113676430Y-100459739D01*
X113676430Y-101216261D01*
X113762566Y-101649294D01*
X114007859Y-102016402D01*
X114374967Y-102261695D01*
X114808000Y-102347831D01*
X115241033Y-102261695D01*
X115608141Y-102016402D01*
X115853434Y-101649294D01*
X115859460Y-101619000D01*
X116296540Y-101619000D01*
X116302566Y-101649294D01*
X116547859Y-102016402D01*
X116914967Y-102261695D01*
X117348000Y-102347831D01*
X117781033Y-102261695D01*
X118148141Y-102016402D01*
X118393434Y-101649294D01*
X118479570Y-101216261D01*
X118479570Y-100459739D01*
X118393434Y-100026706D01*
X118148141Y-99659598D01*
X117820985Y-99441000D01*
X118001362Y-99320476D01*
X118073809Y-99428901D01*
X118814203Y-100169295D01*
X118756430Y-100459739D01*
X118756430Y-101216261D01*
X118842566Y-101649294D01*
X119087859Y-102016402D01*
X119454967Y-102261695D01*
X119888000Y-102347831D01*
X120321033Y-102261695D01*
X120688141Y-102016402D01*
X120933434Y-101649294D01*
X121019570Y-101216261D01*
X121019570Y-100459739D01*
X120961797Y-100169295D01*
X121157233Y-99973859D01*
X121042430Y-100361750D01*
X121042430Y-100711000D01*
X122301000Y-100711000D01*
X122301000Y-100691000D01*
X122555000Y-100691000D01*
X122555000Y-100985000D01*
X122301000Y-100985000D01*
X122301000Y-100965000D01*
X121042430Y-100965000D01*
X121042430Y-101314250D01*
X121196501Y-101834817D01*
X121538056Y-102256798D01*
X121572749Y-102275645D01*
X120597394Y-103251000D01*
X111553738Y-103251000D01*
X111914072Y-102891295D01*
X112124759Y-102383903D01*
X112125239Y-101834507D01*
X111915437Y-101326749D01*
X111545799Y-100956464D01*
X111744000Y-100956464D01*
X111885190Y-100929897D01*
X112014865Y-100846454D01*
X112101859Y-100719134D01*
X112132464Y-100568000D01*
X112132464Y-98568000D01*
X112109783Y-98447464D01*
X112791000Y-98447464D01*
X112932190Y-98420897D01*
X113061865Y-98337454D01*
X113148859Y-98210134D01*
X113152936Y-98190000D01*
X113676430Y-98190000D01*
X113676430Y-98422261D01*
G36*
X141735495Y-80810145D02*
X143206776Y-81793224D01*
X144189855Y-83264505D01*
X144544000Y-85044911D01*
X144544000Y-100711000D01*
X144508064Y-100711000D01*
X144508064Y-99441000D01*
X144481497Y-99299810D01*
X144398054Y-99170135D01*
X144270734Y-99083141D01*
X144119600Y-99052536D01*
X142392400Y-99052536D01*
X142251210Y-99079103D01*
X142121535Y-99162546D01*
X142034541Y-99289866D01*
X142003936Y-99441000D01*
X142003936Y-100711000D01*
X141945834Y-100711000D01*
X141960600Y-100636769D01*
X141960600Y-100277231D01*
X141865860Y-99800943D01*
X141596065Y-99397166D01*
X141192288Y-99127371D01*
X140716000Y-99032631D01*
X140239712Y-99127371D01*
X139835935Y-99397166D01*
X139566140Y-99800943D01*
X139563296Y-99815243D01*
X139467954Y-99542680D01*
X139078036Y-99106268D01*
X138550791Y-98852291D01*
X138535026Y-98849642D01*
X138303000Y-98970783D01*
X138303000Y-100330000D01*
X138323000Y-100330000D01*
X138323000Y-100565333D01*
X138049000Y-100310905D01*
X138049000Y-98970783D01*
X137816974Y-98849642D01*
X137801209Y-98852291D01*
X137273964Y-99106268D01*
X137037145Y-99371325D01*
X135654219Y-98087180D01*
X135783299Y-98087180D01*
X136158497Y-98012548D01*
X136476575Y-97800016D01*
X136689107Y-97481938D01*
X136763739Y-97106740D01*
X136689107Y-96731542D01*
X136606123Y-96607347D01*
X140085835Y-96607347D01*
X140962399Y-97483911D01*
X141135447Y-97599537D01*
X141339570Y-97640140D01*
X141419600Y-97640140D01*
X141526425Y-97800016D01*
X141844503Y-98012548D01*
X142219701Y-98087180D01*
X142768299Y-98087180D01*
X143143497Y-98012548D01*
X143461575Y-97800016D01*
X143674107Y-97481938D01*
X143748739Y-97106740D01*
X143674107Y-96731542D01*
X143461575Y-96413464D01*
X143143497Y-96200932D01*
X142768299Y-96126300D01*
X142219701Y-96126300D01*
X141844503Y-96200932D01*
X141526425Y-96413464D01*
X141476041Y-96488869D01*
X140683948Y-95696776D01*
X140600712Y-95641160D01*
X141419600Y-95641160D01*
X141526425Y-95801036D01*
X141844503Y-96013568D01*
X142219701Y-96088200D01*
X142768299Y-96088200D01*
X143143497Y-96013568D01*
X143461575Y-95801036D01*
X143674107Y-95482958D01*
X143748739Y-95107760D01*
X143674107Y-94732562D01*
X143461575Y-94414484D01*
X143143497Y-94201952D01*
X142768299Y-94127320D01*
X142219701Y-94127320D01*
X141844503Y-94201952D01*
X141526425Y-94414484D01*
X141419600Y-94574360D01*
X138837679Y-94574360D01*
X137968183Y-93704863D01*
X137795135Y-93589237D01*
X137591012Y-93548634D01*
X136644208Y-93548634D01*
X136689107Y-93481438D01*
X136763739Y-93106240D01*
X136689107Y-92731042D01*
X136476575Y-92412964D01*
X136366119Y-92339160D01*
X136484940Y-92339160D01*
X136718329Y-92242487D01*
X136896957Y-92063858D01*
X136993630Y-91830469D01*
X136993630Y-91390470D01*
X141009370Y-91390470D01*
X141009370Y-91830469D01*
X141106043Y-92063858D01*
X141284671Y-92242487D01*
X141518060Y-92339160D01*
X141636881Y-92339160D01*
X141526425Y-92412964D01*
X141313893Y-92731042D01*
X141239261Y-93106240D01*
X141313893Y-93481438D01*
X141526425Y-93799516D01*
X141844503Y-94012048D01*
X142219701Y-94086680D01*
X142768299Y-94086680D01*
X143143497Y-94012048D01*
X143461575Y-93799516D01*
X143674107Y-93481438D01*
X143748739Y-93106240D01*
X143674107Y-92731042D01*
X143461575Y-92412964D01*
X143351119Y-92339160D01*
X143469940Y-92339160D01*
X143703329Y-92242487D01*
X143881957Y-92063858D01*
X143978630Y-91830469D01*
X143978630Y-91390470D01*
X143819880Y-91231720D01*
X142621000Y-91231720D01*
X142621000Y-91251720D01*
X142367000Y-91251720D01*
X142367000Y-91231720D01*
X141168120Y-91231720D01*
X141009370Y-91390470D01*
X136993630Y-91390470D01*
X136834880Y-91231720D01*
X135636000Y-91231720D01*
X135636000Y-91251720D01*
X135382000Y-91251720D01*
X135382000Y-91231720D01*
X135362000Y-91231720D01*
X135362000Y-90977720D01*
X135382000Y-90977720D01*
X135382000Y-90029030D01*
X135636000Y-90029030D01*
X135636000Y-90977720D01*
X136834880Y-90977720D01*
X136993630Y-90818970D01*
X136993630Y-90378971D01*
X141009370Y-90378971D01*
X141009370Y-90818970D01*
X141168120Y-90977720D01*
X142367000Y-90977720D01*
X142367000Y-90029030D01*
X142621000Y-90029030D01*
X142621000Y-90977720D01*
X143819880Y-90977720D01*
X143978630Y-90818970D01*
X143978630Y-90378971D01*
X143881957Y-90145582D01*
X143703329Y-89966953D01*
X143469940Y-89870280D01*
X142779750Y-89870280D01*
X142621000Y-90029030D01*
X142367000Y-90029030D01*
X142208250Y-89870280D01*
X141518060Y-89870280D01*
X141284671Y-89966953D01*
X141106043Y-90145582D01*
X141009370Y-90378971D01*
X136993630Y-90378971D01*
X136896957Y-90145582D01*
X136718329Y-89966953D01*
X136484940Y-89870280D01*
X135794750Y-89870280D01*
X135636000Y-90029030D01*
X135382000Y-90029030D01*
X135223250Y-89870280D01*
X134840369Y-89870280D01*
X134840369Y-89301531D01*
X135338252Y-88803649D01*
X135338254Y-88803646D01*
X135509610Y-88632290D01*
X135879787Y-88632613D01*
X136332395Y-88445600D01*
X136678983Y-88099616D01*
X136866786Y-87647335D01*
X136867111Y-87274789D01*
X136987536Y-87154364D01*
X136987536Y-88354600D01*
X137014103Y-88495790D01*
X137097546Y-88625465D01*
X137224866Y-88712459D01*
X137376000Y-88743064D01*
X138976000Y-88743064D01*
X139117190Y-88716497D01*
X139246865Y-88633054D01*
X139333859Y-88505734D01*
X139364464Y-88354600D01*
X139364464Y-86854600D01*
X139337897Y-86713410D01*
X139254454Y-86583735D01*
X139127134Y-86496741D01*
X138976000Y-86466136D01*
X137376000Y-86466136D01*
X137266999Y-86486646D01*
X137266999Y-86422599D01*
X137207549Y-86123723D01*
X137179000Y-86080997D01*
X137179000Y-85400444D01*
X137356256Y-85223497D01*
X137475867Y-84935443D01*
X137556183Y-85129823D01*
X138365914Y-85940969D01*
X139424420Y-86380499D01*
X140570552Y-86381499D01*
X141629823Y-85943817D01*
X142440969Y-85134086D01*
X142880499Y-84075580D01*
X142881499Y-82929448D01*
X142443817Y-81870177D01*
X141634086Y-81059031D01*
X140575580Y-80619501D01*
X139429448Y-80618501D01*
X138370177Y-81056183D01*
X137559031Y-81865914D01*
X137119501Y-82924420D01*
X137118822Y-83703207D01*
X137039497Y-83623744D01*
X136623957Y-83451196D01*
X136174017Y-83450804D01*
X135758177Y-83622625D01*
X135439744Y-83940503D01*
X135267196Y-84356043D01*
X135266804Y-84805983D01*
X135438625Y-85221823D01*
X135617000Y-85400509D01*
X135617000Y-86170383D01*
X135392213Y-86170187D01*
X134939605Y-86357200D01*
X134593017Y-86703184D01*
X134467683Y-87005023D01*
X134391259Y-86820520D01*
X134139958Y-86740247D01*
X133275605Y-87604600D01*
X133289748Y-87618743D01*
X133110143Y-87798348D01*
X133096000Y-87784205D01*
X132231647Y-88648558D01*
X132311920Y-88899859D01*
X132867279Y-89101318D01*
X133278369Y-89082927D01*
X133278369Y-92184161D01*
X133306431Y-92325240D01*
X124170352Y-92325240D01*
X124629161Y-91866431D01*
X124968000Y-91933831D01*
X125401033Y-91847695D01*
X125768141Y-91602402D01*
X126013434Y-91235294D01*
X126099570Y-90802261D01*
X126099570Y-90045739D01*
X126376430Y-90045739D01*
X126376430Y-90802261D01*
X126462566Y-91235294D01*
X126707859Y-91602402D01*
X127074967Y-91847695D01*
X127508000Y-91933831D01*
X127941033Y-91847695D01*
X128308141Y-91602402D01*
X128553434Y-91235294D01*
X128639570Y-90802261D01*
X128639570Y-90045739D01*
X128916430Y-90045739D01*
X128916430Y-90802261D01*
X129002566Y-91235294D01*
X129247859Y-91602402D01*
X129614967Y-91847695D01*
X130048000Y-91933831D01*
X130481033Y-91847695D01*
X130848141Y-91602402D01*
X131093434Y-91235294D01*
X131179570Y-90802261D01*
X131179570Y-90045739D01*
X131093434Y-89612706D01*
X130848141Y-89245598D01*
X130481033Y-89000305D01*
X130048000Y-88914169D01*
X129614967Y-89000305D01*
X129247859Y-89245598D01*
X129002566Y-89612706D01*
X128916430Y-90045739D01*
X128639570Y-90045739D01*
X128553434Y-89612706D01*
X128308141Y-89245598D01*
X127941033Y-89000305D01*
X127508000Y-88914169D01*
X127074967Y-89000305D01*
X126707859Y-89245598D01*
X126462566Y-89612706D01*
X126376430Y-90045739D01*
X126099570Y-90045739D01*
X126013434Y-89612706D01*
X125768141Y-89245598D01*
X125401033Y-89000305D01*
X124968000Y-88914169D01*
X124534967Y-89000305D01*
X124167859Y-89245598D01*
X123922566Y-89612706D01*
X123836430Y-90045739D01*
X123836430Y-90802261D01*
X123894203Y-91092705D01*
X123435717Y-91551191D01*
X123262359Y-91551191D01*
X123473434Y-91235294D01*
X123559570Y-90802261D01*
X123559570Y-90045739D01*
X123473434Y-89612706D01*
X123228141Y-89245598D01*
X122861033Y-89000305D01*
X122428000Y-88914169D01*
X121994967Y-89000305D01*
X121627859Y-89245598D01*
X121382566Y-89612706D01*
X121296430Y-90045739D01*
X121296430Y-90802261D01*
X121382566Y-91235294D01*
X121593641Y-91551191D01*
X120722359Y-91551191D01*
X120933434Y-91235294D01*
X121019570Y-90802261D01*
X121019570Y-90045739D01*
X120933434Y-89612706D01*
X120688141Y-89245598D01*
X120525079Y-89136643D01*
X121351534Y-88310188D01*
X122562417Y-88310188D01*
X122624071Y-88545800D01*
X123124480Y-88721927D01*
X123654199Y-88693148D01*
X124009929Y-88545800D01*
X124071583Y-88310188D01*
X123317000Y-87555605D01*
X122562417Y-88310188D01*
X121351534Y-88310188D01*
X121997207Y-87664515D01*
X121999852Y-87713199D01*
X122147200Y-88068929D01*
X122382812Y-88130583D01*
X123137395Y-87376000D01*
X123123253Y-87361858D01*
X123302858Y-87182253D01*
X123317000Y-87196395D01*
X123331143Y-87182253D01*
X123510748Y-87361858D01*
X123496605Y-87376000D01*
X124251188Y-88130583D01*
X124426403Y-88084733D01*
X124431800Y-88097795D01*
X124777784Y-88444383D01*
X125230065Y-88632186D01*
X125719787Y-88632613D01*
X126172395Y-88445600D01*
X126518983Y-88099616D01*
X126706786Y-87647335D01*
X126707213Y-87157613D01*
X126631549Y-86974491D01*
X126852846Y-87195788D01*
X126785214Y-87358665D01*
X126784787Y-87848387D01*
X126971800Y-88300995D01*
X127317784Y-88647583D01*
X127770065Y-88835386D01*
X128259787Y-88835813D01*
X128712395Y-88648800D01*
X129058983Y-88302816D01*
X129246786Y-87850535D01*
X129247213Y-87360813D01*
X129060200Y-86908205D01*
X128884700Y-86732399D01*
X129132657Y-86732399D01*
X129392846Y-86992588D01*
X129325214Y-87155465D01*
X129324787Y-87645187D01*
X129511800Y-88097795D01*
X129857784Y-88444383D01*
X130310065Y-88632186D01*
X130799787Y-88632613D01*
X131252395Y-88445600D01*
X131598983Y-88099616D01*
X131640045Y-88000727D01*
X131800741Y-88388680D01*
X132052042Y-88468953D01*
X132916395Y-87604600D01*
X132052042Y-86740247D01*
X131800741Y-86820520D01*
X131729302Y-87017456D01*
X131600200Y-86705005D01*
X131456089Y-86560642D01*
X132231647Y-86560642D01*
X133096000Y-87424995D01*
X133960353Y-86560642D01*
X133880080Y-86309341D01*
X133324721Y-86107882D01*
X132734542Y-86134285D01*
X132311920Y-86309341D01*
X132231647Y-86560642D01*
X131456089Y-86560642D01*
X131254216Y-86358417D01*
X130801935Y-86170614D01*
X130312213Y-86170187D01*
X130147278Y-86238336D01*
X129730770Y-85821828D01*
X129557722Y-85706202D01*
X129353599Y-85665599D01*
X129117177Y-85665599D01*
X129417823Y-85541375D01*
X129736256Y-85223497D01*
X129908804Y-84807957D01*
X129909196Y-84358017D01*
X129737375Y-83942177D01*
X129419497Y-83623744D01*
X129003957Y-83451196D01*
X128554017Y-83450804D01*
X128138177Y-83622625D01*
X127819744Y-83940503D01*
X127647196Y-84356043D01*
X127646804Y-84805983D01*
X127685444Y-84899500D01*
X121989850Y-84899500D01*
X121785726Y-84940103D01*
X121612679Y-85055729D01*
X117686839Y-88981569D01*
X117348000Y-88914169D01*
X116914967Y-89000305D01*
X116547859Y-89245598D01*
X116414787Y-89444755D01*
X116403777Y-89389404D01*
X116288151Y-89216356D01*
X115778818Y-88707023D01*
X116034199Y-88693148D01*
X116389929Y-88545800D01*
X116451583Y-88310188D01*
X115697000Y-87555605D01*
X115682858Y-87569748D01*
X115503253Y-87390143D01*
X115517395Y-87376000D01*
X115876605Y-87376000D01*
X116631188Y-88130583D01*
X116866800Y-88068929D01*
X117042927Y-87568520D01*
X117014148Y-87038801D01*
X116866800Y-86683071D01*
X116631188Y-86621417D01*
X115876605Y-87376000D01*
X115517395Y-87376000D01*
X114762812Y-86621417D01*
X114527200Y-86683071D01*
X114351073Y-87183480D01*
X114362431Y-87392543D01*
X114272001Y-87392464D01*
X114272001Y-86527624D01*
X114329339Y-86441812D01*
X114942417Y-86441812D01*
X115697000Y-87196395D01*
X116451583Y-86441812D01*
X116389929Y-86206200D01*
X115889520Y-86030073D01*
X115359801Y-86058852D01*
X115004071Y-86206200D01*
X114942417Y-86441812D01*
X114329339Y-86441812D01*
X114337785Y-86429172D01*
X114386550Y-86356190D01*
X114446000Y-86057314D01*
X114446000Y-85806641D01*
X114545065Y-85740448D01*
X114814860Y-85336671D01*
X114909600Y-84860383D01*
X114909600Y-84811617D01*
X114814860Y-84335329D01*
X114693298Y-84153399D01*
X116584157Y-84153399D01*
X118635436Y-86204678D01*
X118635382Y-86266265D01*
X118738839Y-86516652D01*
X118930241Y-86708387D01*
X119180446Y-86812282D01*
X119451365Y-86812518D01*
X119701752Y-86709061D01*
X119893487Y-86517659D01*
X119997382Y-86267454D01*
X119997618Y-85996535D01*
X119894161Y-85746148D01*
X119702759Y-85554413D01*
X119452554Y-85450518D01*
X119389905Y-85450463D01*
X117182270Y-83242828D01*
X117009222Y-83127202D01*
X116805099Y-83086599D01*
X116432998Y-83086599D01*
X116611622Y-82908286D01*
X116776313Y-82511668D01*
X116776314Y-82509784D01*
X122237313Y-82509784D01*
X122401311Y-82906689D01*
X122704714Y-83210622D01*
X123101332Y-83375313D01*
X123530784Y-83375687D01*
X123927689Y-83211689D01*
X124231622Y-82908286D01*
X124396313Y-82511668D01*
X124396416Y-82392983D01*
X124471804Y-82392983D01*
X124643625Y-82808823D01*
X124961503Y-83127256D01*
X125377043Y-83299804D01*
X125826983Y-83300196D01*
X126242823Y-83128375D01*
X126561256Y-82810497D01*
X126733804Y-82394957D01*
X126733805Y-82392983D01*
X132091804Y-82392983D01*
X132263625Y-82808823D01*
X132581503Y-83127256D01*
X132997043Y-83299804D01*
X133446983Y-83300196D01*
X133862823Y-83128375D01*
X134181256Y-82810497D01*
X134353804Y-82394957D01*
X134354196Y-81945017D01*
X134182375Y-81529177D01*
X133864497Y-81210744D01*
X133448957Y-81038196D01*
X132999017Y-81037804D01*
X132583177Y-81209625D01*
X132264744Y-81527503D01*
X132092196Y-81943043D01*
X132091804Y-82392983D01*
X126733805Y-82392983D01*
X126734196Y-81945017D01*
X126562375Y-81529177D01*
X126244497Y-81210744D01*
X125828957Y-81038196D01*
X125379017Y-81037804D01*
X124963177Y-81209625D01*
X124644744Y-81527503D01*
X124472196Y-81943043D01*
X124471804Y-82392983D01*
X124396416Y-82392983D01*
X124396687Y-82082216D01*
X124232689Y-81685311D01*
X123929286Y-81381378D01*
X123532668Y-81216687D01*
X123103216Y-81216313D01*
X122706311Y-81380311D01*
X122402378Y-81683714D01*
X122237687Y-82080332D01*
X122237313Y-82509784D01*
X116776314Y-82509784D01*
X116776687Y-82082216D01*
X116612689Y-81685311D01*
X116309286Y-81381378D01*
X115912668Y-81216687D01*
X115483216Y-81216313D01*
X115086311Y-81380311D01*
X114931502Y-81534850D01*
X114871821Y-81407510D01*
X114439947Y-81013312D01*
X114024026Y-80841042D01*
X113792000Y-80962183D01*
X113792000Y-82169000D01*
X113812000Y-82169000D01*
X113812000Y-82423000D01*
X113792000Y-82423000D01*
X113792000Y-82443000D01*
X113538000Y-82443000D01*
X113538000Y-82423000D01*
X113518000Y-82423000D01*
X113518000Y-82169000D01*
X113538000Y-82169000D01*
X113538000Y-80962183D01*
X113305974Y-80841042D01*
X112890053Y-81013312D01*
X112458179Y-81407510D01*
X112275324Y-81797662D01*
X112274860Y-81795329D01*
X112005065Y-81391552D01*
X111601288Y-81121757D01*
X111125000Y-81027017D01*
X110648712Y-81121757D01*
X110244935Y-81391552D01*
X109975140Y-81795329D01*
X109880400Y-82271617D01*
X109880400Y-82320383D01*
X109975140Y-82796671D01*
X110244935Y-83200448D01*
X110648712Y-83470243D01*
X111125000Y-83564983D01*
X111601288Y-83470243D01*
X112005065Y-83200448D01*
X112274860Y-82796671D01*
X112275324Y-82794338D01*
X112458179Y-83184490D01*
X112617272Y-83329704D01*
X112071828Y-83875148D01*
X112019603Y-83953309D01*
X112005065Y-83931552D01*
X111601288Y-83661757D01*
X111125000Y-83567017D01*
X110648712Y-83661757D01*
X110244935Y-83931552D01*
X109975140Y-84335329D01*
X109880400Y-84811617D01*
X109880400Y-84860383D01*
X109975140Y-85336671D01*
X110096702Y-85518601D01*
X110021943Y-85518601D01*
X109752306Y-85248964D01*
X109829600Y-84860383D01*
X109829600Y-84811617D01*
X109734860Y-84335329D01*
X109465065Y-83931552D01*
X109118400Y-83699918D01*
X109118400Y-83432082D01*
X109465065Y-83200448D01*
X109734860Y-82796671D01*
X109829600Y-82320383D01*
X109829600Y-82271617D01*
X109734860Y-81795329D01*
X109465065Y-81391552D01*
X109061288Y-81121757D01*
X108585000Y-81027017D01*
X108108712Y-81121757D01*
X107704935Y-81391552D01*
X107435140Y-81795329D01*
X107340400Y-82271617D01*
X107340400Y-82320383D01*
X107435140Y-82796671D01*
X107704935Y-83200448D01*
X108051600Y-83432082D01*
X108051600Y-83699918D01*
X107704935Y-83931552D01*
X107435140Y-84335329D01*
X107340400Y-84811617D01*
X107340400Y-84860383D01*
X107417694Y-85248964D01*
X107297064Y-85369594D01*
X107297064Y-83972400D01*
X107270497Y-83831210D01*
X107187054Y-83701535D01*
X107059734Y-83614541D01*
X106908600Y-83583936D01*
X105181400Y-83583936D01*
X105040210Y-83610503D01*
X104910535Y-83693946D01*
X104823541Y-83821266D01*
X104792936Y-83972400D01*
X104792936Y-84302600D01*
X104286446Y-84302600D01*
X104082322Y-84343203D01*
X103909275Y-84458829D01*
X101644428Y-86723676D01*
X101622464Y-86756548D01*
X101622464Y-86599000D01*
X101595897Y-86457810D01*
X101512454Y-86328135D01*
X101385134Y-86241141D01*
X101234000Y-86210536D01*
X100984314Y-86210536D01*
X101629823Y-85943817D01*
X102440969Y-85134086D01*
X102880499Y-84075580D01*
X102881499Y-82929448D01*
X102609689Y-82271617D01*
X104800400Y-82271617D01*
X104800400Y-82320383D01*
X104895140Y-82796671D01*
X105164935Y-83200448D01*
X105568712Y-83470243D01*
X106045000Y-83564983D01*
X106521288Y-83470243D01*
X106925065Y-83200448D01*
X107194860Y-82796671D01*
X107289600Y-82320383D01*
X107289600Y-82271617D01*
X107194860Y-81795329D01*
X106925065Y-81391552D01*
X106521288Y-81121757D01*
X106045000Y-81027017D01*
X105568712Y-81121757D01*
X105164935Y-81391552D01*
X104895140Y-81795329D01*
X104800400Y-82271617D01*
X102609689Y-82271617D01*
X102443817Y-81870177D01*
X101634086Y-81059031D01*
X100575580Y-80619501D01*
X99429448Y-80618501D01*
X98370177Y-81056183D01*
X97559031Y-81865914D01*
X97119501Y-82924420D01*
X97118501Y-84070552D01*
X97556183Y-85129823D01*
X98365914Y-85940969D01*
X99424420Y-86380499D01*
X99622053Y-86380671D01*
X99576141Y-86447866D01*
X99545536Y-86599000D01*
X99545536Y-87899000D01*
X99572103Y-88040190D01*
X99655546Y-88169865D01*
X99782866Y-88256859D01*
X99934000Y-88287464D01*
X101234000Y-88287464D01*
X101375190Y-88260897D01*
X101488199Y-88188178D01*
X101488199Y-88661199D01*
X101528802Y-88865322D01*
X101644428Y-89038370D01*
X101684236Y-89078178D01*
X101483016Y-89029590D01*
X100763605Y-89749000D01*
X101483016Y-90468410D01*
X101713611Y-90412729D01*
X101881622Y-89929922D01*
X101852083Y-89419572D01*
X101726756Y-89117006D01*
X101888678Y-89225198D01*
X102092801Y-89265801D01*
X106339599Y-89265801D01*
X106543722Y-89225198D01*
X106716770Y-89109572D01*
X107146959Y-88679383D01*
X107343043Y-88760804D01*
X107792983Y-88761196D01*
X108208823Y-88589375D01*
X108527256Y-88271497D01*
X108572142Y-88163400D01*
X108851652Y-88163400D01*
X108895625Y-88269823D01*
X109213503Y-88588256D01*
X109321600Y-88633142D01*
X109321600Y-89789000D01*
X109362203Y-89993123D01*
X109477829Y-90166171D01*
X111586936Y-92275278D01*
X111586882Y-92336865D01*
X111690339Y-92587252D01*
X111881741Y-92778987D01*
X112131946Y-92882882D01*
X112402865Y-92883118D01*
X112653252Y-92779661D01*
X112783733Y-92649407D01*
X112905170Y-92831150D01*
X113180259Y-93106240D01*
X112167478Y-94119022D01*
X111917017Y-94118804D01*
X111501177Y-94290625D01*
X111322491Y-94469000D01*
X110673444Y-94469000D01*
X110496497Y-94291744D01*
X110080957Y-94119196D01*
X109828477Y-94118976D01*
X109010250Y-93300750D01*
X108756876Y-93131450D01*
X108458000Y-93072000D01*
X102616000Y-93072000D01*
X102317124Y-93131450D01*
X102063749Y-93300750D01*
X101911499Y-93453000D01*
X101597814Y-93453000D01*
X101595897Y-93442810D01*
X101512454Y-93313135D01*
X101385134Y-93226141D01*
X101234000Y-93195536D01*
X100650036Y-93195536D01*
X100481578Y-93027078D01*
X100913428Y-93002083D01*
X101247729Y-92863611D01*
X101303410Y-92633016D01*
X100584000Y-91913605D01*
X100569858Y-91927748D01*
X100390252Y-91748142D01*
X100404395Y-91734000D01*
X100763605Y-91734000D01*
X101483016Y-92453410D01*
X101713611Y-92397729D01*
X101881622Y-91914922D01*
X101852083Y-91404572D01*
X101713611Y-91070271D01*
X101483016Y-91014590D01*
X100763605Y-91734000D01*
X100404395Y-91734000D01*
X99684984Y-91014590D01*
X99454389Y-91070271D01*
X99286378Y-91553078D01*
X99306883Y-91907355D01*
X99219176Y-91848750D01*
X99189253Y-91842798D01*
X98920300Y-91789300D01*
X98792209Y-91789300D01*
X98779689Y-91770562D01*
X98412766Y-91525392D01*
X97979951Y-91439300D01*
X96406249Y-91439300D01*
X95973434Y-91525392D01*
X95606511Y-91770562D01*
X95456000Y-91995818D01*
X95456000Y-90986253D01*
X95795751Y-91261272D01*
X96316100Y-91415300D01*
X97066100Y-91415300D01*
X97066100Y-90157300D01*
X97046100Y-90157300D01*
X97046100Y-89903300D01*
X97066100Y-89903300D01*
X97066100Y-88645300D01*
X97320100Y-88645300D01*
X97320100Y-89903300D01*
X97340100Y-89903300D01*
X97340100Y-90157300D01*
X97320100Y-90157300D01*
X97320100Y-91415300D01*
X98070100Y-91415300D01*
X98590449Y-91261272D01*
X99012245Y-90919840D01*
X99159899Y-90648016D01*
X99864590Y-90648016D01*
X99887163Y-90741500D01*
X99864590Y-90834984D01*
X100584000Y-91554395D01*
X101303410Y-90834984D01*
X101280837Y-90741500D01*
X101303410Y-90648016D01*
X100584000Y-89928605D01*
X99864590Y-90648016D01*
X99159899Y-90648016D01*
X99271273Y-90442984D01*
X99285418Y-90371485D01*
X99162757Y-90157302D01*
X99328100Y-90157302D01*
X99328100Y-90107840D01*
X99454389Y-90412729D01*
X99684984Y-90468410D01*
X100404395Y-89749000D01*
X99684984Y-89029590D01*
X99454389Y-89085271D01*
X99286378Y-89568078D01*
X99305780Y-89903298D01*
X99162757Y-89903298D01*
X99285418Y-89689115D01*
X99271273Y-89617616D01*
X99012245Y-89140760D01*
X98653029Y-88849984D01*
X99864590Y-88849984D01*
X100584000Y-89569395D01*
X101303410Y-88849984D01*
X101247729Y-88619389D01*
X100764922Y-88451378D01*
X100254572Y-88480917D01*
X99920271Y-88619389D01*
X99864590Y-88849984D01*
X98653029Y-88849984D01*
X98590449Y-88799328D01*
X98070100Y-88645300D01*
X97320100Y-88645300D01*
X97066100Y-88645300D01*
X96316100Y-88645300D01*
X95795751Y-88799328D01*
X95456000Y-89074347D01*
X95456000Y-88064782D01*
X95606511Y-88290038D01*
X95973434Y-88535208D01*
X96406249Y-88621300D01*
X97979951Y-88621300D01*
X98412766Y-88535208D01*
X98779689Y-88290038D01*
X99024859Y-87923115D01*
X99110951Y-87490300D01*
X99024859Y-87057485D01*
X98779689Y-86690562D01*
X98412766Y-86445392D01*
X97979951Y-86359300D01*
X96406249Y-86359300D01*
X95973434Y-86445392D01*
X95606511Y-86690562D01*
X95456000Y-86915818D01*
X95456000Y-85044911D01*
X95810145Y-83264505D01*
X96793224Y-81793224D01*
X98264505Y-80810145D01*
X100044911Y-80456000D01*
X139955089Y-80456000D01*
X141735495Y-80810145D01*
X141735495Y-80810145D01*
G37*
X141735495Y-80810145D02*
X143206776Y-81793224D01*
X144189855Y-83264505D01*
X144544000Y-85044911D01*
X144544000Y-100711000D01*
X144508064Y-100711000D01*
X144508064Y-99441000D01*
X144481497Y-99299810D01*
X144398054Y-99170135D01*
X144270734Y-99083141D01*
X144119600Y-99052536D01*
X142392400Y-99052536D01*
X142251210Y-99079103D01*
X142121535Y-99162546D01*
X142034541Y-99289866D01*
X142003936Y-99441000D01*
X142003936Y-100711000D01*
X141945834Y-100711000D01*
X141960600Y-100636769D01*
X141960600Y-100277231D01*
X141865860Y-99800943D01*
X141596065Y-99397166D01*
X141192288Y-99127371D01*
X140716000Y-99032631D01*
X140239712Y-99127371D01*
X139835935Y-99397166D01*
X139566140Y-99800943D01*
X139563296Y-99815243D01*
X139467954Y-99542680D01*
X139078036Y-99106268D01*
X138550791Y-98852291D01*
X138535026Y-98849642D01*
X138303000Y-98970783D01*
X138303000Y-100330000D01*
X138323000Y-100330000D01*
X138323000Y-100565333D01*
X138049000Y-100310905D01*
X138049000Y-98970783D01*
X137816974Y-98849642D01*
X137801209Y-98852291D01*
X137273964Y-99106268D01*
X137037145Y-99371325D01*
X135654219Y-98087180D01*
X135783299Y-98087180D01*
X136158497Y-98012548D01*
X136476575Y-97800016D01*
X136689107Y-97481938D01*
X136763739Y-97106740D01*
X136689107Y-96731542D01*
X136606123Y-96607347D01*
X140085835Y-96607347D01*
X140962399Y-97483911D01*
X141135447Y-97599537D01*
X141339570Y-97640140D01*
X141419600Y-97640140D01*
X141526425Y-97800016D01*
X141844503Y-98012548D01*
X142219701Y-98087180D01*
X142768299Y-98087180D01*
X143143497Y-98012548D01*
X143461575Y-97800016D01*
X143674107Y-97481938D01*
X143748739Y-97106740D01*
X143674107Y-96731542D01*
X143461575Y-96413464D01*
X143143497Y-96200932D01*
X142768299Y-96126300D01*
X142219701Y-96126300D01*
X141844503Y-96200932D01*
X141526425Y-96413464D01*
X141476041Y-96488869D01*
X140683948Y-95696776D01*
X140600712Y-95641160D01*
X141419600Y-95641160D01*
X141526425Y-95801036D01*
X141844503Y-96013568D01*
X142219701Y-96088200D01*
X142768299Y-96088200D01*
X143143497Y-96013568D01*
X143461575Y-95801036D01*
X143674107Y-95482958D01*
X143748739Y-95107760D01*
X143674107Y-94732562D01*
X143461575Y-94414484D01*
X143143497Y-94201952D01*
X142768299Y-94127320D01*
X142219701Y-94127320D01*
X141844503Y-94201952D01*
X141526425Y-94414484D01*
X141419600Y-94574360D01*
X138837679Y-94574360D01*
X137968183Y-93704863D01*
X137795135Y-93589237D01*
X137591012Y-93548634D01*
X136644208Y-93548634D01*
X136689107Y-93481438D01*
X136763739Y-93106240D01*
X136689107Y-92731042D01*
X136476575Y-92412964D01*
X136366119Y-92339160D01*
X136484940Y-92339160D01*
X136718329Y-92242487D01*
X136896957Y-92063858D01*
X136993630Y-91830469D01*
X136993630Y-91390470D01*
X141009370Y-91390470D01*
X141009370Y-91830469D01*
X141106043Y-92063858D01*
X141284671Y-92242487D01*
X141518060Y-92339160D01*
X141636881Y-92339160D01*
X141526425Y-92412964D01*
X141313893Y-92731042D01*
X141239261Y-93106240D01*
X141313893Y-93481438D01*
X141526425Y-93799516D01*
X141844503Y-94012048D01*
X142219701Y-94086680D01*
X142768299Y-94086680D01*
X143143497Y-94012048D01*
X143461575Y-93799516D01*
X143674107Y-93481438D01*
X143748739Y-93106240D01*
X143674107Y-92731042D01*
X143461575Y-92412964D01*
X143351119Y-92339160D01*
X143469940Y-92339160D01*
X143703329Y-92242487D01*
X143881957Y-92063858D01*
X143978630Y-91830469D01*
X143978630Y-91390470D01*
X143819880Y-91231720D01*
X142621000Y-91231720D01*
X142621000Y-91251720D01*
X142367000Y-91251720D01*
X142367000Y-91231720D01*
X141168120Y-91231720D01*
X141009370Y-91390470D01*
X136993630Y-91390470D01*
X136834880Y-91231720D01*
X135636000Y-91231720D01*
X135636000Y-91251720D01*
X135382000Y-91251720D01*
X135382000Y-91231720D01*
X135362000Y-91231720D01*
X135362000Y-90977720D01*
X135382000Y-90977720D01*
X135382000Y-90029030D01*
X135636000Y-90029030D01*
X135636000Y-90977720D01*
X136834880Y-90977720D01*
X136993630Y-90818970D01*
X136993630Y-90378971D01*
X141009370Y-90378971D01*
X141009370Y-90818970D01*
X141168120Y-90977720D01*
X142367000Y-90977720D01*
X142367000Y-90029030D01*
X142621000Y-90029030D01*
X142621000Y-90977720D01*
X143819880Y-90977720D01*
X143978630Y-90818970D01*
X143978630Y-90378971D01*
X143881957Y-90145582D01*
X143703329Y-89966953D01*
X143469940Y-89870280D01*
X142779750Y-89870280D01*
X142621000Y-90029030D01*
X142367000Y-90029030D01*
X142208250Y-89870280D01*
X141518060Y-89870280D01*
X141284671Y-89966953D01*
X141106043Y-90145582D01*
X141009370Y-90378971D01*
X136993630Y-90378971D01*
X136896957Y-90145582D01*
X136718329Y-89966953D01*
X136484940Y-89870280D01*
X135794750Y-89870280D01*
X135636000Y-90029030D01*
X135382000Y-90029030D01*
X135223250Y-89870280D01*
X134840369Y-89870280D01*
X134840369Y-89301531D01*
X135338252Y-88803649D01*
X135338254Y-88803646D01*
X135509610Y-88632290D01*
X135879787Y-88632613D01*
X136332395Y-88445600D01*
X136678983Y-88099616D01*
X136866786Y-87647335D01*
X136867111Y-87274789D01*
X136987536Y-87154364D01*
X136987536Y-88354600D01*
X137014103Y-88495790D01*
X137097546Y-88625465D01*
X137224866Y-88712459D01*
X137376000Y-88743064D01*
X138976000Y-88743064D01*
X139117190Y-88716497D01*
X139246865Y-88633054D01*
X139333859Y-88505734D01*
X139364464Y-88354600D01*
X139364464Y-86854600D01*
X139337897Y-86713410D01*
X139254454Y-86583735D01*
X139127134Y-86496741D01*
X138976000Y-86466136D01*
X137376000Y-86466136D01*
X137266999Y-86486646D01*
X137266999Y-86422599D01*
X137207549Y-86123723D01*
X137179000Y-86080997D01*
X137179000Y-85400444D01*
X137356256Y-85223497D01*
X137475867Y-84935443D01*
X137556183Y-85129823D01*
X138365914Y-85940969D01*
X139424420Y-86380499D01*
X140570552Y-86381499D01*
X141629823Y-85943817D01*
X142440969Y-85134086D01*
X142880499Y-84075580D01*
X142881499Y-82929448D01*
X142443817Y-81870177D01*
X141634086Y-81059031D01*
X140575580Y-80619501D01*
X139429448Y-80618501D01*
X138370177Y-81056183D01*
X137559031Y-81865914D01*
X137119501Y-82924420D01*
X137118822Y-83703207D01*
X137039497Y-83623744D01*
X136623957Y-83451196D01*
X136174017Y-83450804D01*
X135758177Y-83622625D01*
X135439744Y-83940503D01*
X135267196Y-84356043D01*
X135266804Y-84805983D01*
X135438625Y-85221823D01*
X135617000Y-85400509D01*
X135617000Y-86170383D01*
X135392213Y-86170187D01*
X134939605Y-86357200D01*
X134593017Y-86703184D01*
X134467683Y-87005023D01*
X134391259Y-86820520D01*
X134139958Y-86740247D01*
X133275605Y-87604600D01*
X133289748Y-87618743D01*
X133110143Y-87798348D01*
X133096000Y-87784205D01*
X132231647Y-88648558D01*
X132311920Y-88899859D01*
X132867279Y-89101318D01*
X133278369Y-89082927D01*
X133278369Y-92184161D01*
X133306431Y-92325240D01*
X124170352Y-92325240D01*
X124629161Y-91866431D01*
X124968000Y-91933831D01*
X125401033Y-91847695D01*
X125768141Y-91602402D01*
X126013434Y-91235294D01*
X126099570Y-90802261D01*
X126099570Y-90045739D01*
X126376430Y-90045739D01*
X126376430Y-90802261D01*
X126462566Y-91235294D01*
X126707859Y-91602402D01*
X127074967Y-91847695D01*
X127508000Y-91933831D01*
X127941033Y-91847695D01*
X128308141Y-91602402D01*
X128553434Y-91235294D01*
X128639570Y-90802261D01*
X128639570Y-90045739D01*
X128916430Y-90045739D01*
X128916430Y-90802261D01*
X129002566Y-91235294D01*
X129247859Y-91602402D01*
X129614967Y-91847695D01*
X130048000Y-91933831D01*
X130481033Y-91847695D01*
X130848141Y-91602402D01*
X131093434Y-91235294D01*
X131179570Y-90802261D01*
X131179570Y-90045739D01*
X131093434Y-89612706D01*
X130848141Y-89245598D01*
X130481033Y-89000305D01*
X130048000Y-88914169D01*
X129614967Y-89000305D01*
X129247859Y-89245598D01*
X129002566Y-89612706D01*
X128916430Y-90045739D01*
X128639570Y-90045739D01*
X128553434Y-89612706D01*
X128308141Y-89245598D01*
X127941033Y-89000305D01*
X127508000Y-88914169D01*
X127074967Y-89000305D01*
X126707859Y-89245598D01*
X126462566Y-89612706D01*
X126376430Y-90045739D01*
X126099570Y-90045739D01*
X126013434Y-89612706D01*
X125768141Y-89245598D01*
X125401033Y-89000305D01*
X124968000Y-88914169D01*
X124534967Y-89000305D01*
X124167859Y-89245598D01*
X123922566Y-89612706D01*
X123836430Y-90045739D01*
X123836430Y-90802261D01*
X123894203Y-91092705D01*
X123435717Y-91551191D01*
X123262359Y-91551191D01*
X123473434Y-91235294D01*
X123559570Y-90802261D01*
X123559570Y-90045739D01*
X123473434Y-89612706D01*
X123228141Y-89245598D01*
X122861033Y-89000305D01*
X122428000Y-88914169D01*
X121994967Y-89000305D01*
X121627859Y-89245598D01*
X121382566Y-89612706D01*
X121296430Y-90045739D01*
X121296430Y-90802261D01*
X121382566Y-91235294D01*
X121593641Y-91551191D01*
X120722359Y-91551191D01*
X120933434Y-91235294D01*
X121019570Y-90802261D01*
X121019570Y-90045739D01*
X120933434Y-89612706D01*
X120688141Y-89245598D01*
X120525079Y-89136643D01*
X121351534Y-88310188D01*
X122562417Y-88310188D01*
X122624071Y-88545800D01*
X123124480Y-88721927D01*
X123654199Y-88693148D01*
X124009929Y-88545800D01*
X124071583Y-88310188D01*
X123317000Y-87555605D01*
X122562417Y-88310188D01*
X121351534Y-88310188D01*
X121997207Y-87664515D01*
X121999852Y-87713199D01*
X122147200Y-88068929D01*
X122382812Y-88130583D01*
X123137395Y-87376000D01*
X123123253Y-87361858D01*
X123302858Y-87182253D01*
X123317000Y-87196395D01*
X123331143Y-87182253D01*
X123510748Y-87361858D01*
X123496605Y-87376000D01*
X124251188Y-88130583D01*
X124426403Y-88084733D01*
X124431800Y-88097795D01*
X124777784Y-88444383D01*
X125230065Y-88632186D01*
X125719787Y-88632613D01*
X126172395Y-88445600D01*
X126518983Y-88099616D01*
X126706786Y-87647335D01*
X126707213Y-87157613D01*
X126631549Y-86974491D01*
X126852846Y-87195788D01*
X126785214Y-87358665D01*
X126784787Y-87848387D01*
X126971800Y-88300995D01*
X127317784Y-88647583D01*
X127770065Y-88835386D01*
X128259787Y-88835813D01*
X128712395Y-88648800D01*
X129058983Y-88302816D01*
X129246786Y-87850535D01*
X129247213Y-87360813D01*
X129060200Y-86908205D01*
X128884700Y-86732399D01*
X129132657Y-86732399D01*
X129392846Y-86992588D01*
X129325214Y-87155465D01*
X129324787Y-87645187D01*
X129511800Y-88097795D01*
X129857784Y-88444383D01*
X130310065Y-88632186D01*
X130799787Y-88632613D01*
X131252395Y-88445600D01*
X131598983Y-88099616D01*
X131640045Y-88000727D01*
X131800741Y-88388680D01*
X132052042Y-88468953D01*
X132916395Y-87604600D01*
X132052042Y-86740247D01*
X131800741Y-86820520D01*
X131729302Y-87017456D01*
X131600200Y-86705005D01*
X131456089Y-86560642D01*
X132231647Y-86560642D01*
X133096000Y-87424995D01*
X133960353Y-86560642D01*
X133880080Y-86309341D01*
X133324721Y-86107882D01*
X132734542Y-86134285D01*
X132311920Y-86309341D01*
X132231647Y-86560642D01*
X131456089Y-86560642D01*
X131254216Y-86358417D01*
X130801935Y-86170614D01*
X130312213Y-86170187D01*
X130147278Y-86238336D01*
X129730770Y-85821828D01*
X129557722Y-85706202D01*
X129353599Y-85665599D01*
X129117177Y-85665599D01*
X129417823Y-85541375D01*
X129736256Y-85223497D01*
X129908804Y-84807957D01*
X129909196Y-84358017D01*
X129737375Y-83942177D01*
X129419497Y-83623744D01*
X129003957Y-83451196D01*
X128554017Y-83450804D01*
X128138177Y-83622625D01*
X127819744Y-83940503D01*
X127647196Y-84356043D01*
X127646804Y-84805983D01*
X127685444Y-84899500D01*
X121989850Y-84899500D01*
X121785726Y-84940103D01*
X121612679Y-85055729D01*
X117686839Y-88981569D01*
X117348000Y-88914169D01*
X116914967Y-89000305D01*
X116547859Y-89245598D01*
X116414787Y-89444755D01*
X116403777Y-89389404D01*
X116288151Y-89216356D01*
X115778818Y-88707023D01*
X116034199Y-88693148D01*
X116389929Y-88545800D01*
X116451583Y-88310188D01*
X115697000Y-87555605D01*
X115682858Y-87569748D01*
X115503253Y-87390143D01*
X115517395Y-87376000D01*
X115876605Y-87376000D01*
X116631188Y-88130583D01*
X116866800Y-88068929D01*
X117042927Y-87568520D01*
X117014148Y-87038801D01*
X116866800Y-86683071D01*
X116631188Y-86621417D01*
X115876605Y-87376000D01*
X115517395Y-87376000D01*
X114762812Y-86621417D01*
X114527200Y-86683071D01*
X114351073Y-87183480D01*
X114362431Y-87392543D01*
X114272001Y-87392464D01*
X114272001Y-86527624D01*
X114329339Y-86441812D01*
X114942417Y-86441812D01*
X115697000Y-87196395D01*
X116451583Y-86441812D01*
X116389929Y-86206200D01*
X115889520Y-86030073D01*
X115359801Y-86058852D01*
X115004071Y-86206200D01*
X114942417Y-86441812D01*
X114329339Y-86441812D01*
X114337785Y-86429172D01*
X114386550Y-86356190D01*
X114446000Y-86057314D01*
X114446000Y-85806641D01*
X114545065Y-85740448D01*
X114814860Y-85336671D01*
X114909600Y-84860383D01*
X114909600Y-84811617D01*
X114814860Y-84335329D01*
X114693298Y-84153399D01*
X116584157Y-84153399D01*
X118635436Y-86204678D01*
X118635382Y-86266265D01*
X118738839Y-86516652D01*
X118930241Y-86708387D01*
X119180446Y-86812282D01*
X119451365Y-86812518D01*
X119701752Y-86709061D01*
X119893487Y-86517659D01*
X119997382Y-86267454D01*
X119997618Y-85996535D01*
X119894161Y-85746148D01*
X119702759Y-85554413D01*
X119452554Y-85450518D01*
X119389905Y-85450463D01*
X117182270Y-83242828D01*
X117009222Y-83127202D01*
X116805099Y-83086599D01*
X116432998Y-83086599D01*
X116611622Y-82908286D01*
X116776313Y-82511668D01*
X116776314Y-82509784D01*
X122237313Y-82509784D01*
X122401311Y-82906689D01*
X122704714Y-83210622D01*
X123101332Y-83375313D01*
X123530784Y-83375687D01*
X123927689Y-83211689D01*
X124231622Y-82908286D01*
X124396313Y-82511668D01*
X124396416Y-82392983D01*
X124471804Y-82392983D01*
X124643625Y-82808823D01*
X124961503Y-83127256D01*
X125377043Y-83299804D01*
X125826983Y-83300196D01*
X126242823Y-83128375D01*
X126561256Y-82810497D01*
X126733804Y-82394957D01*
X126733805Y-82392983D01*
X132091804Y-82392983D01*
X132263625Y-82808823D01*
X132581503Y-83127256D01*
X132997043Y-83299804D01*
X133446983Y-83300196D01*
X133862823Y-83128375D01*
X134181256Y-82810497D01*
X134353804Y-82394957D01*
X134354196Y-81945017D01*
X134182375Y-81529177D01*
X133864497Y-81210744D01*
X133448957Y-81038196D01*
X132999017Y-81037804D01*
X132583177Y-81209625D01*
X132264744Y-81527503D01*
X132092196Y-81943043D01*
X132091804Y-82392983D01*
X126733805Y-82392983D01*
X126734196Y-81945017D01*
X126562375Y-81529177D01*
X126244497Y-81210744D01*
X125828957Y-81038196D01*
X125379017Y-81037804D01*
X124963177Y-81209625D01*
X124644744Y-81527503D01*
X124472196Y-81943043D01*
X124471804Y-82392983D01*
X124396416Y-82392983D01*
X124396687Y-82082216D01*
X124232689Y-81685311D01*
X123929286Y-81381378D01*
X123532668Y-81216687D01*
X123103216Y-81216313D01*
X122706311Y-81380311D01*
X122402378Y-81683714D01*
X122237687Y-82080332D01*
X122237313Y-82509784D01*
X116776314Y-82509784D01*
X116776687Y-82082216D01*
X116612689Y-81685311D01*
X116309286Y-81381378D01*
X115912668Y-81216687D01*
X115483216Y-81216313D01*
X115086311Y-81380311D01*
X114931502Y-81534850D01*
X114871821Y-81407510D01*
X114439947Y-81013312D01*
X114024026Y-80841042D01*
X113792000Y-80962183D01*
X113792000Y-82169000D01*
X113812000Y-82169000D01*
X113812000Y-82423000D01*
X113792000Y-82423000D01*
X113792000Y-82443000D01*
X113538000Y-82443000D01*
X113538000Y-82423000D01*
X113518000Y-82423000D01*
X113518000Y-82169000D01*
X113538000Y-82169000D01*
X113538000Y-80962183D01*
X113305974Y-80841042D01*
X112890053Y-81013312D01*
X112458179Y-81407510D01*
X112275324Y-81797662D01*
X112274860Y-81795329D01*
X112005065Y-81391552D01*
X111601288Y-81121757D01*
X111125000Y-81027017D01*
X110648712Y-81121757D01*
X110244935Y-81391552D01*
X109975140Y-81795329D01*
X109880400Y-82271617D01*
X109880400Y-82320383D01*
X109975140Y-82796671D01*
X110244935Y-83200448D01*
X110648712Y-83470243D01*
X111125000Y-83564983D01*
X111601288Y-83470243D01*
X112005065Y-83200448D01*
X112274860Y-82796671D01*
X112275324Y-82794338D01*
X112458179Y-83184490D01*
X112617272Y-83329704D01*
X112071828Y-83875148D01*
X112019603Y-83953309D01*
X112005065Y-83931552D01*
X111601288Y-83661757D01*
X111125000Y-83567017D01*
X110648712Y-83661757D01*
X110244935Y-83931552D01*
X109975140Y-84335329D01*
X109880400Y-84811617D01*
X109880400Y-84860383D01*
X109975140Y-85336671D01*
X110096702Y-85518601D01*
X110021943Y-85518601D01*
X109752306Y-85248964D01*
X109829600Y-84860383D01*
X109829600Y-84811617D01*
X109734860Y-84335329D01*
X109465065Y-83931552D01*
X109118400Y-83699918D01*
X109118400Y-83432082D01*
X109465065Y-83200448D01*
X109734860Y-82796671D01*
X109829600Y-82320383D01*
X109829600Y-82271617D01*
X109734860Y-81795329D01*
X109465065Y-81391552D01*
X109061288Y-81121757D01*
X108585000Y-81027017D01*
X108108712Y-81121757D01*
X107704935Y-81391552D01*
X107435140Y-81795329D01*
X107340400Y-82271617D01*
X107340400Y-82320383D01*
X107435140Y-82796671D01*
X107704935Y-83200448D01*
X108051600Y-83432082D01*
X108051600Y-83699918D01*
X107704935Y-83931552D01*
X107435140Y-84335329D01*
X107340400Y-84811617D01*
X107340400Y-84860383D01*
X107417694Y-85248964D01*
X107297064Y-85369594D01*
X107297064Y-83972400D01*
X107270497Y-83831210D01*
X107187054Y-83701535D01*
X107059734Y-83614541D01*
X106908600Y-83583936D01*
X105181400Y-83583936D01*
X105040210Y-83610503D01*
X104910535Y-83693946D01*
X104823541Y-83821266D01*
X104792936Y-83972400D01*
X104792936Y-84302600D01*
X104286446Y-84302600D01*
X104082322Y-84343203D01*
X103909275Y-84458829D01*
X101644428Y-86723676D01*
X101622464Y-86756548D01*
X101622464Y-86599000D01*
X101595897Y-86457810D01*
X101512454Y-86328135D01*
X101385134Y-86241141D01*
X101234000Y-86210536D01*
X100984314Y-86210536D01*
X101629823Y-85943817D01*
X102440969Y-85134086D01*
X102880499Y-84075580D01*
X102881499Y-82929448D01*
X102609689Y-82271617D01*
X104800400Y-82271617D01*
X104800400Y-82320383D01*
X104895140Y-82796671D01*
X105164935Y-83200448D01*
X105568712Y-83470243D01*
X106045000Y-83564983D01*
X106521288Y-83470243D01*
X106925065Y-83200448D01*
X107194860Y-82796671D01*
X107289600Y-82320383D01*
X107289600Y-82271617D01*
X107194860Y-81795329D01*
X106925065Y-81391552D01*
X106521288Y-81121757D01*
X106045000Y-81027017D01*
X105568712Y-81121757D01*
X105164935Y-81391552D01*
X104895140Y-81795329D01*
X104800400Y-82271617D01*
X102609689Y-82271617D01*
X102443817Y-81870177D01*
X101634086Y-81059031D01*
X100575580Y-80619501D01*
X99429448Y-80618501D01*
X98370177Y-81056183D01*
X97559031Y-81865914D01*
X97119501Y-82924420D01*
X97118501Y-84070552D01*
X97556183Y-85129823D01*
X98365914Y-85940969D01*
X99424420Y-86380499D01*
X99622053Y-86380671D01*
X99576141Y-86447866D01*
X99545536Y-86599000D01*
X99545536Y-87899000D01*
X99572103Y-88040190D01*
X99655546Y-88169865D01*
X99782866Y-88256859D01*
X99934000Y-88287464D01*
X101234000Y-88287464D01*
X101375190Y-88260897D01*
X101488199Y-88188178D01*
X101488199Y-88661199D01*
X101528802Y-88865322D01*
X101644428Y-89038370D01*
X101684236Y-89078178D01*
X101483016Y-89029590D01*
X100763605Y-89749000D01*
X101483016Y-90468410D01*
X101713611Y-90412729D01*
X101881622Y-89929922D01*
X101852083Y-89419572D01*
X101726756Y-89117006D01*
X101888678Y-89225198D01*
X102092801Y-89265801D01*
X106339599Y-89265801D01*
X106543722Y-89225198D01*
X106716770Y-89109572D01*
X107146959Y-88679383D01*
X107343043Y-88760804D01*
X107792983Y-88761196D01*
X108208823Y-88589375D01*
X108527256Y-88271497D01*
X108572142Y-88163400D01*
X108851652Y-88163400D01*
X108895625Y-88269823D01*
X109213503Y-88588256D01*
X109321600Y-88633142D01*
X109321600Y-89789000D01*
X109362203Y-89993123D01*
X109477829Y-90166171D01*
X111586936Y-92275278D01*
X111586882Y-92336865D01*
X111690339Y-92587252D01*
X111881741Y-92778987D01*
X112131946Y-92882882D01*
X112402865Y-92883118D01*
X112653252Y-92779661D01*
X112783733Y-92649407D01*
X112905170Y-92831150D01*
X113180259Y-93106240D01*
X112167478Y-94119022D01*
X111917017Y-94118804D01*
X111501177Y-94290625D01*
X111322491Y-94469000D01*
X110673444Y-94469000D01*
X110496497Y-94291744D01*
X110080957Y-94119196D01*
X109828477Y-94118976D01*
X109010250Y-93300750D01*
X108756876Y-93131450D01*
X108458000Y-93072000D01*
X102616000Y-93072000D01*
X102317124Y-93131450D01*
X102063749Y-93300750D01*
X101911499Y-93453000D01*
X101597814Y-93453000D01*
X101595897Y-93442810D01*
X101512454Y-93313135D01*
X101385134Y-93226141D01*
X101234000Y-93195536D01*
X100650036Y-93195536D01*
X100481578Y-93027078D01*
X100913428Y-93002083D01*
X101247729Y-92863611D01*
X101303410Y-92633016D01*
X100584000Y-91913605D01*
X100569858Y-91927748D01*
X100390252Y-91748142D01*
X100404395Y-91734000D01*
X100763605Y-91734000D01*
X101483016Y-92453410D01*
X101713611Y-92397729D01*
X101881622Y-91914922D01*
X101852083Y-91404572D01*
X101713611Y-91070271D01*
X101483016Y-91014590D01*
X100763605Y-91734000D01*
X100404395Y-91734000D01*
X99684984Y-91014590D01*
X99454389Y-91070271D01*
X99286378Y-91553078D01*
X99306883Y-91907355D01*
X99219176Y-91848750D01*
X99189253Y-91842798D01*
X98920300Y-91789300D01*
X98792209Y-91789300D01*
X98779689Y-91770562D01*
X98412766Y-91525392D01*
X97979951Y-91439300D01*
X96406249Y-91439300D01*
X95973434Y-91525392D01*
X95606511Y-91770562D01*
X95456000Y-91995818D01*
X95456000Y-90986253D01*
X95795751Y-91261272D01*
X96316100Y-91415300D01*
X97066100Y-91415300D01*
X97066100Y-90157300D01*
X97046100Y-90157300D01*
X97046100Y-89903300D01*
X97066100Y-89903300D01*
X97066100Y-88645300D01*
X97320100Y-88645300D01*
X97320100Y-89903300D01*
X97340100Y-89903300D01*
X97340100Y-90157300D01*
X97320100Y-90157300D01*
X97320100Y-91415300D01*
X98070100Y-91415300D01*
X98590449Y-91261272D01*
X99012245Y-90919840D01*
X99159899Y-90648016D01*
X99864590Y-90648016D01*
X99887163Y-90741500D01*
X99864590Y-90834984D01*
X100584000Y-91554395D01*
X101303410Y-90834984D01*
X101280837Y-90741500D01*
X101303410Y-90648016D01*
X100584000Y-89928605D01*
X99864590Y-90648016D01*
X99159899Y-90648016D01*
X99271273Y-90442984D01*
X99285418Y-90371485D01*
X99162757Y-90157302D01*
X99328100Y-90157302D01*
X99328100Y-90107840D01*
X99454389Y-90412729D01*
X99684984Y-90468410D01*
X100404395Y-89749000D01*
X99684984Y-89029590D01*
X99454389Y-89085271D01*
X99286378Y-89568078D01*
X99305780Y-89903298D01*
X99162757Y-89903298D01*
X99285418Y-89689115D01*
X99271273Y-89617616D01*
X99012245Y-89140760D01*
X98653029Y-88849984D01*
X99864590Y-88849984D01*
X100584000Y-89569395D01*
X101303410Y-88849984D01*
X101247729Y-88619389D01*
X100764922Y-88451378D01*
X100254572Y-88480917D01*
X99920271Y-88619389D01*
X99864590Y-88849984D01*
X98653029Y-88849984D01*
X98590449Y-88799328D01*
X98070100Y-88645300D01*
X97320100Y-88645300D01*
X97066100Y-88645300D01*
X96316100Y-88645300D01*
X95795751Y-88799328D01*
X95456000Y-89074347D01*
X95456000Y-88064782D01*
X95606511Y-88290038D01*
X95973434Y-88535208D01*
X96406249Y-88621300D01*
X97979951Y-88621300D01*
X98412766Y-88535208D01*
X98779689Y-88290038D01*
X99024859Y-87923115D01*
X99110951Y-87490300D01*
X99024859Y-87057485D01*
X98779689Y-86690562D01*
X98412766Y-86445392D01*
X97979951Y-86359300D01*
X96406249Y-86359300D01*
X95973434Y-86445392D01*
X95606511Y-86690562D01*
X95456000Y-86915818D01*
X95456000Y-85044911D01*
X95810145Y-83264505D01*
X96793224Y-81793224D01*
X98264505Y-80810145D01*
X100044911Y-80456000D01*
X139955089Y-80456000D01*
X141735495Y-80810145D01*
G36*
X120226839Y-96601569D02*
X119888000Y-96534169D01*
X119454967Y-96620305D01*
X119087859Y-96865598D01*
X118984380Y-97020466D01*
X118984380Y-96676288D01*
X118943777Y-96472165D01*
X118828151Y-96299117D01*
X118110929Y-95581895D01*
X118110983Y-95520308D01*
X118007526Y-95269921D01*
X117816124Y-95078186D01*
X117565919Y-94974291D01*
X117295000Y-94974055D01*
X117044613Y-95077512D01*
X116852878Y-95268914D01*
X116748983Y-95519119D01*
X116748747Y-95790038D01*
X116852204Y-96040425D01*
X117043606Y-96232160D01*
X117293811Y-96336055D01*
X117356460Y-96336110D01*
X117605799Y-96585449D01*
X117348000Y-96534169D01*
X116914967Y-96620305D01*
X116547859Y-96865598D01*
X116302566Y-97232706D01*
X116216430Y-97665739D01*
X116216430Y-98422261D01*
X116302566Y-98855294D01*
X116547859Y-99222402D01*
X116875015Y-99441000D01*
X116547859Y-99659598D01*
X116302566Y-100026706D01*
X116296540Y-100057000D01*
X115859460Y-100057000D01*
X115853434Y-100026706D01*
X115608141Y-99659598D01*
X115589000Y-99646808D01*
X115589000Y-99235192D01*
X115608141Y-99222402D01*
X115853434Y-98855294D01*
X115939570Y-98422261D01*
X115939570Y-97665739D01*
X115853434Y-97232706D01*
X115608141Y-96865598D01*
X115241033Y-96620305D01*
X114808000Y-96534169D01*
X114374967Y-96620305D01*
X114319761Y-96657192D01*
X114173000Y-96628000D01*
X113154814Y-96628000D01*
X113152897Y-96617810D01*
X113069454Y-96488135D01*
X112942134Y-96401141D01*
X112791000Y-96370536D01*
X112390782Y-96370536D01*
X112780823Y-96209375D01*
X113099256Y-95891497D01*
X113271804Y-95475957D01*
X113272024Y-95223476D01*
X114608261Y-93887240D01*
X122941168Y-93887240D01*
X120226839Y-96601569D01*
X120226839Y-96601569D01*
G37*
X120226839Y-96601569D02*
X119888000Y-96534169D01*
X119454967Y-96620305D01*
X119087859Y-96865598D01*
X118984380Y-97020466D01*
X118984380Y-96676288D01*
X118943777Y-96472165D01*
X118828151Y-96299117D01*
X118110929Y-95581895D01*
X118110983Y-95520308D01*
X118007526Y-95269921D01*
X117816124Y-95078186D01*
X117565919Y-94974291D01*
X117295000Y-94974055D01*
X117044613Y-95077512D01*
X116852878Y-95268914D01*
X116748983Y-95519119D01*
X116748747Y-95790038D01*
X116852204Y-96040425D01*
X117043606Y-96232160D01*
X117293811Y-96336055D01*
X117356460Y-96336110D01*
X117605799Y-96585449D01*
X117348000Y-96534169D01*
X116914967Y-96620305D01*
X116547859Y-96865598D01*
X116302566Y-97232706D01*
X116216430Y-97665739D01*
X116216430Y-98422261D01*
X116302566Y-98855294D01*
X116547859Y-99222402D01*
X116875015Y-99441000D01*
X116547859Y-99659598D01*
X116302566Y-100026706D01*
X116296540Y-100057000D01*
X115859460Y-100057000D01*
X115853434Y-100026706D01*
X115608141Y-99659598D01*
X115589000Y-99646808D01*
X115589000Y-99235192D01*
X115608141Y-99222402D01*
X115853434Y-98855294D01*
X115939570Y-98422261D01*
X115939570Y-97665739D01*
X115853434Y-97232706D01*
X115608141Y-96865598D01*
X115241033Y-96620305D01*
X114808000Y-96534169D01*
X114374967Y-96620305D01*
X114319761Y-96657192D01*
X114173000Y-96628000D01*
X113154814Y-96628000D01*
X113152897Y-96617810D01*
X113069454Y-96488135D01*
X112942134Y-96401141D01*
X112791000Y-96370536D01*
X112390782Y-96370536D01*
X112780823Y-96209375D01*
X113099256Y-95891497D01*
X113271804Y-95475957D01*
X113272024Y-95223476D01*
X114608261Y-93887240D01*
X122941168Y-93887240D01*
X120226839Y-96601569D01*
G36*
X114935000Y-90297000D02*
X114955000Y-90297000D01*
X114955000Y-90551000D01*
X114935000Y-90551000D01*
X114935000Y-91993479D01*
X115149275Y-92116133D01*
X115220903Y-92101950D01*
X115697944Y-91842798D01*
X115879299Y-91618740D01*
X116585799Y-92325240D01*
X114608261Y-92325240D01*
X114372926Y-92089906D01*
X114395097Y-92101950D01*
X114466725Y-92116133D01*
X114681000Y-91993479D01*
X114681000Y-90551000D01*
X114661000Y-90551000D01*
X114661000Y-90297000D01*
X114681000Y-90297000D01*
X114681000Y-90277000D01*
X114935000Y-90277000D01*
X114935000Y-90297000D01*
X114935000Y-90297000D01*
G37*
X114935000Y-90297000D02*
X114955000Y-90297000D01*
X114955000Y-90551000D01*
X114935000Y-90551000D01*
X114935000Y-91993479D01*
X115149275Y-92116133D01*
X115220903Y-92101950D01*
X115697944Y-91842798D01*
X115879299Y-91618740D01*
X116585799Y-92325240D01*
X114608261Y-92325240D01*
X114372926Y-92089906D01*
X114395097Y-92101950D01*
X114466725Y-92116133D01*
X114681000Y-91993479D01*
X114681000Y-90551000D01*
X114661000Y-90551000D01*
X114661000Y-90297000D01*
X114681000Y-90297000D01*
X114681000Y-90277000D01*
X114935000Y-90277000D01*
X114935000Y-90297000D01*
G36*
X137326959Y-102073481D02*
X137369797Y-102100059D01*
X137414000Y-102108000D01*
X141996876Y-102108000D01*
X141926591Y-102210866D01*
X141895986Y-102362000D01*
X141895986Y-103886000D01*
X141922553Y-104027190D01*
X142005996Y-104156865D01*
X142133316Y-104243859D01*
X142284450Y-104274464D01*
X144481550Y-104274464D01*
X144544000Y-104262713D01*
X144544000Y-104847252D01*
X144185943Y-104608006D01*
X143748536Y-104521000D01*
X143017464Y-104521000D01*
X142580057Y-104608006D01*
X142209241Y-104855777D01*
X141961470Y-105226593D01*
X141874464Y-105664000D01*
X141961470Y-106101407D01*
X142209241Y-106472223D01*
X142580057Y-106719994D01*
X142849600Y-106773610D01*
X142849600Y-107094390D01*
X142580057Y-107148006D01*
X142368146Y-107289600D01*
X141598082Y-107289600D01*
X141366448Y-106942935D01*
X140962671Y-106673140D01*
X140486383Y-106578400D01*
X140437617Y-106578400D01*
X139961329Y-106673140D01*
X139725400Y-106830783D01*
X139725400Y-106299000D01*
X139684797Y-106094877D01*
X139569171Y-105921829D01*
X138820952Y-105173610D01*
X139001151Y-105294015D01*
X139319000Y-105357239D01*
X139636849Y-105294015D01*
X139775641Y-105201277D01*
X139911889Y-105361206D01*
X140295065Y-105548481D01*
X140462000Y-105421568D01*
X140462000Y-104330500D01*
X140716000Y-104330500D01*
X140716000Y-105421568D01*
X140882935Y-105548481D01*
X141266111Y-105361206D01*
X141542420Y-105036873D01*
X141673580Y-104631490D01*
X141673580Y-104330500D01*
X140716000Y-104330500D01*
X140462000Y-104330500D01*
X140442000Y-104330500D01*
X140442000Y-104076500D01*
X140462000Y-104076500D01*
X140462000Y-102985432D01*
X140716000Y-102985432D01*
X140716000Y-104076500D01*
X141673580Y-104076500D01*
X141673580Y-103775510D01*
X141542420Y-103370127D01*
X141266111Y-103045794D01*
X140882935Y-102858519D01*
X140716000Y-102985432D01*
X140462000Y-102985432D01*
X140295065Y-102858519D01*
X139911889Y-103045794D01*
X139775641Y-103205723D01*
X139636849Y-103112985D01*
X139319000Y-103049761D01*
X139001151Y-103112985D01*
X138731691Y-103293032D01*
X138684000Y-103364407D01*
X138636309Y-103293032D01*
X138366849Y-103112985D01*
X138049000Y-103049761D01*
X137731151Y-103112985D01*
X137461691Y-103293032D01*
X137281644Y-103562492D01*
X137226782Y-103838304D01*
X137208297Y-103745377D01*
X137092671Y-103572329D01*
X136203671Y-102683329D01*
X136030623Y-102567703D01*
X135956800Y-102553018D01*
X136085580Y-102154990D01*
X136085580Y-101854000D01*
X135128000Y-101854000D01*
X135128000Y-101874000D01*
X134874000Y-101874000D01*
X134874000Y-101854000D01*
X134854000Y-101854000D01*
X134854000Y-101600000D01*
X134874000Y-101600000D01*
X134874000Y-100508932D01*
X135128000Y-100508932D01*
X135128000Y-101600000D01*
X136085580Y-101600000D01*
X136085580Y-101299010D01*
X135954420Y-100893627D01*
X135678111Y-100569294D01*
X135294935Y-100382019D01*
X135128000Y-100508932D01*
X134874000Y-100508932D01*
X134707065Y-100382019D01*
X134323889Y-100569294D01*
X134187641Y-100729223D01*
X134048849Y-100636485D01*
X133731000Y-100573261D01*
X133413151Y-100636485D01*
X133143691Y-100816532D01*
X133096000Y-100887907D01*
X133048309Y-100816532D01*
X132778849Y-100636485D01*
X132461000Y-100573261D01*
X132143151Y-100636485D01*
X131873691Y-100816532D01*
X131693644Y-101085992D01*
X131630420Y-101403841D01*
X131630420Y-102050159D01*
X131693644Y-102368008D01*
X131873691Y-102637468D01*
X131955355Y-102692034D01*
X131968203Y-102756623D01*
X132083829Y-102929671D01*
X132550012Y-103395853D01*
X132456177Y-103434625D01*
X132137744Y-103752503D01*
X132092858Y-103860600D01*
X131813348Y-103860600D01*
X131769375Y-103754177D01*
X131451497Y-103435744D01*
X131035957Y-103263196D01*
X130586017Y-103262804D01*
X130170177Y-103434625D01*
X129851744Y-103752503D01*
X129679196Y-104168043D01*
X129678804Y-104617983D01*
X129850625Y-105033823D01*
X130168503Y-105352256D01*
X130187700Y-105360227D01*
X130187700Y-106415330D01*
X130144113Y-106458841D01*
X130040218Y-106709046D01*
X130039982Y-106979965D01*
X130143439Y-107230352D01*
X130334841Y-107422087D01*
X130585046Y-107525982D01*
X130855965Y-107526218D01*
X131106352Y-107422761D01*
X131298087Y-107231359D01*
X131401982Y-106981154D01*
X131402218Y-106710235D01*
X131298761Y-106459848D01*
X131254500Y-106415510D01*
X131254500Y-105434081D01*
X131449823Y-105353375D01*
X131768256Y-105035497D01*
X131813142Y-104927400D01*
X132092652Y-104927400D01*
X132136625Y-105033823D01*
X132454503Y-105352256D01*
X132870043Y-105524804D01*
X133319983Y-105525196D01*
X133735823Y-105353375D01*
X134054256Y-105035497D01*
X134175586Y-104743304D01*
X134295625Y-105033823D01*
X134613503Y-105352256D01*
X134721600Y-105397142D01*
X134721600Y-106567730D01*
X134678013Y-106611241D01*
X134574118Y-106861446D01*
X134573882Y-107132365D01*
X134677339Y-107382752D01*
X134868741Y-107574487D01*
X135118946Y-107678382D01*
X135389865Y-107678618D01*
X135640252Y-107575161D01*
X135831987Y-107383759D01*
X135935882Y-107133554D01*
X135936118Y-106862635D01*
X135832661Y-106612248D01*
X135788400Y-106567910D01*
X135788400Y-105397348D01*
X135894823Y-105353375D01*
X136213256Y-105035497D01*
X136263837Y-104913685D01*
X136338329Y-105025171D01*
X137388600Y-106075442D01*
X137388600Y-106695009D01*
X137017552Y-106942935D01*
X136747757Y-107346712D01*
X136653017Y-107823000D01*
X136747757Y-108299288D01*
X137017552Y-108703065D01*
X137421329Y-108972860D01*
X137897617Y-109067600D01*
X137946383Y-109067600D01*
X138115747Y-109033911D01*
X138017176Y-109132482D01*
X137946383Y-109118400D01*
X137897617Y-109118400D01*
X137421329Y-109213140D01*
X137017552Y-109482935D01*
X136747757Y-109886712D01*
X136653017Y-110363000D01*
X136747757Y-110839288D01*
X137017552Y-111243065D01*
X137388600Y-111490991D01*
X137388600Y-111775009D01*
X137017552Y-112022935D01*
X136747757Y-112426712D01*
X136653017Y-112903000D01*
X136747757Y-113379288D01*
X137017552Y-113783065D01*
X137421329Y-114052860D01*
X137897617Y-114147600D01*
X137946383Y-114147600D01*
X138422671Y-114052860D01*
X138826448Y-113783065D01*
X139096243Y-113379288D01*
X139190983Y-112903000D01*
X139096243Y-112426712D01*
X138826448Y-112022935D01*
X138455400Y-111775009D01*
X138455400Y-111490991D01*
X138826448Y-111243065D01*
X139096243Y-110839288D01*
X139190983Y-110363000D01*
X139096243Y-109886712D01*
X138966221Y-109692121D01*
X139569171Y-109089171D01*
X139684797Y-108916124D01*
X139707277Y-108803108D01*
X139961329Y-108972860D01*
X140437617Y-109067600D01*
X140486383Y-109067600D01*
X140962671Y-108972860D01*
X141366448Y-108703065D01*
X141598082Y-108356400D01*
X141904778Y-108356400D01*
X141961470Y-108641407D01*
X142209241Y-109012223D01*
X142580057Y-109259994D01*
X142849600Y-109313610D01*
X142849600Y-109634390D01*
X142580057Y-109688006D01*
X142209241Y-109935777D01*
X141961470Y-110306593D01*
X141874464Y-110744000D01*
X141943275Y-111089933D01*
X141645598Y-110792256D01*
X141730983Y-110363000D01*
X141636243Y-109886712D01*
X141366448Y-109482935D01*
X140962671Y-109213140D01*
X140486383Y-109118400D01*
X140437617Y-109118400D01*
X139961329Y-109213140D01*
X139557552Y-109482935D01*
X139287757Y-109886712D01*
X139193017Y-110363000D01*
X139287757Y-110839288D01*
X139557552Y-111243065D01*
X139961329Y-111512860D01*
X140437617Y-111607600D01*
X140486383Y-111607600D01*
X140874964Y-111530306D01*
X140995594Y-111650936D01*
X139598400Y-111650936D01*
X139457210Y-111677503D01*
X139327535Y-111760946D01*
X139240541Y-111888266D01*
X139209936Y-112039400D01*
X139209936Y-113766600D01*
X139236503Y-113907790D01*
X139319946Y-114037465D01*
X139447266Y-114124459D01*
X139598400Y-114155064D01*
X140552644Y-114155064D01*
X140684565Y-114286985D01*
X140538200Y-114433350D01*
X140538200Y-115798600D01*
X140558200Y-115798600D01*
X140558200Y-116052600D01*
X140538200Y-116052600D01*
X140538200Y-117417850D01*
X140696950Y-117576600D01*
X141246201Y-117576600D01*
X141246201Y-119637151D01*
X141286804Y-119841274D01*
X141402430Y-120014322D01*
X141943756Y-120555648D01*
X141874464Y-120904000D01*
X141961470Y-121341407D01*
X142053577Y-121479255D01*
X141634086Y-121059031D01*
X140575580Y-120619501D01*
X139429448Y-120618501D01*
X138609805Y-120957171D01*
X138712908Y-120802866D01*
X138799000Y-120370051D01*
X138799000Y-118796349D01*
X138712908Y-118363534D01*
X138467738Y-117996611D01*
X138100815Y-117751441D01*
X137668000Y-117665349D01*
X137235185Y-117751441D01*
X136868262Y-117996611D01*
X136623092Y-118363534D01*
X136537000Y-118796349D01*
X136537000Y-120370051D01*
X136623092Y-120802866D01*
X136868262Y-121169789D01*
X137235185Y-121414959D01*
X137668000Y-121501051D01*
X137988368Y-121437326D01*
X137559031Y-121865914D01*
X137119501Y-122924420D01*
X137118501Y-124070552D01*
X137556183Y-125129823D01*
X138365914Y-125940969D01*
X139424420Y-126380499D01*
X140570552Y-126381499D01*
X141629823Y-125943817D01*
X142440969Y-125134086D01*
X142880499Y-124075580D01*
X142881499Y-122929448D01*
X142443817Y-121870177D01*
X142440173Y-121866527D01*
X142580057Y-121959994D01*
X143017464Y-122047000D01*
X143748536Y-122047000D01*
X144185943Y-121959994D01*
X144544000Y-121720748D01*
X144544000Y-124955089D01*
X144189855Y-126735495D01*
X143206776Y-128206776D01*
X141735495Y-129189855D01*
X139955089Y-129544000D01*
X117416610Y-129544000D01*
X117679610Y-129281000D01*
X122936000Y-129281000D01*
X123711699Y-129126704D01*
X124369305Y-128687305D01*
X124808704Y-128029699D01*
X124963000Y-127254000D01*
X124823133Y-126550843D01*
X125224976Y-126149000D01*
X126278676Y-126149000D01*
X126278676Y-128454000D01*
X126315423Y-128649294D01*
X126430842Y-128828660D01*
X126606951Y-128948990D01*
X126816000Y-128991324D01*
X129216000Y-128991324D01*
X129411294Y-128954577D01*
X129590660Y-128839158D01*
X129710990Y-128663049D01*
X129753324Y-128454000D01*
X129753324Y-128268897D01*
X131310779Y-128268897D01*
X131504781Y-128738417D01*
X131863693Y-129097957D01*
X132332875Y-129292778D01*
X132840897Y-129293221D01*
X133310417Y-129099219D01*
X133669957Y-128740307D01*
X133864778Y-128271125D01*
X133865221Y-127763103D01*
X133671219Y-127293583D01*
X133312307Y-126934043D01*
X132843125Y-126739222D01*
X132335103Y-126738779D01*
X131865583Y-126932781D01*
X131506043Y-127291693D01*
X131311222Y-127760875D01*
X131310779Y-128268897D01*
X129753324Y-128268897D01*
X129753324Y-126149000D01*
X134871024Y-126149000D01*
X137393512Y-128671488D01*
X137694253Y-128872437D01*
X138049000Y-128943000D01*
X139329007Y-128943000D01*
X139483693Y-129097957D01*
X139952875Y-129292778D01*
X140460897Y-129293221D01*
X140930417Y-129099219D01*
X141289957Y-128740307D01*
X141484778Y-128271125D01*
X141485221Y-127763103D01*
X141291219Y-127293583D01*
X140932307Y-126934043D01*
X140463125Y-126739222D01*
X139955103Y-126738779D01*
X139485583Y-126932781D01*
X139329091Y-127089000D01*
X138432976Y-127089000D01*
X135910488Y-124566512D01*
X135889910Y-124552762D01*
X135609748Y-124365564D01*
X135423583Y-124328533D01*
X135751729Y-124192611D01*
X135807410Y-123962016D01*
X135088000Y-123242605D01*
X134368590Y-123962016D01*
X134424271Y-124192611D01*
X134718502Y-124295000D01*
X124841000Y-124295000D01*
X124486253Y-124365563D01*
X124185512Y-124566512D01*
X123427299Y-125324725D01*
X122936000Y-125227000D01*
X122466000Y-125227000D01*
X122466000Y-122413000D01*
X131549536Y-122413000D01*
X131549536Y-123713000D01*
X131576103Y-123854190D01*
X131659546Y-123983865D01*
X131786866Y-124070859D01*
X131938000Y-124101464D01*
X133238000Y-124101464D01*
X133379190Y-124074897D01*
X133508865Y-123991454D01*
X133595859Y-123864134D01*
X133626464Y-123713000D01*
X133626464Y-122882078D01*
X133790378Y-122882078D01*
X133819917Y-123392428D01*
X133958389Y-123726729D01*
X134188984Y-123782410D01*
X134908395Y-123063000D01*
X135267605Y-123063000D01*
X135987016Y-123782410D01*
X136217611Y-123726729D01*
X136385622Y-123243922D01*
X136356083Y-122733572D01*
X136217611Y-122399271D01*
X135987016Y-122343590D01*
X135267605Y-123063000D01*
X134908395Y-123063000D01*
X134188984Y-122343590D01*
X133958389Y-122399271D01*
X133790378Y-122882078D01*
X133626464Y-122882078D01*
X133626464Y-122413000D01*
X133599897Y-122271810D01*
X133530514Y-122163984D01*
X134368590Y-122163984D01*
X135088000Y-122883395D01*
X135807410Y-122163984D01*
X135751729Y-121933389D01*
X135268922Y-121765378D01*
X134758572Y-121794917D01*
X134424271Y-121933389D01*
X134368590Y-122163984D01*
X133530514Y-122163984D01*
X133516454Y-122142135D01*
X133389134Y-122055141D01*
X133238000Y-122024536D01*
X131938000Y-122024536D01*
X131796810Y-122051103D01*
X131667135Y-122134546D01*
X131580141Y-122261866D01*
X131549536Y-122413000D01*
X122466000Y-122413000D01*
X122466000Y-121909993D01*
X122620957Y-121755307D01*
X122815778Y-121286125D01*
X122816221Y-120778103D01*
X122622219Y-120308583D01*
X122263307Y-119949043D01*
X121794125Y-119754222D01*
X121436392Y-119753910D01*
X121568434Y-119556294D01*
X121654570Y-119123261D01*
X121654570Y-118366739D01*
X121568434Y-117933706D01*
X121496581Y-117826170D01*
X122089419Y-117826170D01*
X122017566Y-117933706D01*
X121931430Y-118366739D01*
X121931430Y-119123261D01*
X122017566Y-119556294D01*
X122262859Y-119923402D01*
X122629967Y-120168695D01*
X123063000Y-120254831D01*
X123496033Y-120168695D01*
X123863141Y-119923402D01*
X124108434Y-119556294D01*
X124194570Y-119123261D01*
X124194570Y-118366739D01*
X124471430Y-118366739D01*
X124471430Y-119123261D01*
X124557566Y-119556294D01*
X124802859Y-119923402D01*
X125169967Y-120168695D01*
X125603000Y-120254831D01*
X126036033Y-120168695D01*
X126403141Y-119923402D01*
X126648434Y-119556294D01*
X126734570Y-119123261D01*
X126734570Y-118366739D01*
X126648434Y-117933706D01*
X126403141Y-117566598D01*
X126036033Y-117321305D01*
X125603000Y-117235169D01*
X125169967Y-117321305D01*
X124802859Y-117566598D01*
X124557566Y-117933706D01*
X124471430Y-118366739D01*
X124194570Y-118366739D01*
X124108434Y-117933706D01*
X123863141Y-117566598D01*
X123496033Y-117321305D01*
X123309617Y-117284224D01*
X124406277Y-116187564D01*
X124467865Y-116187618D01*
X124718252Y-116084161D01*
X124909987Y-115892759D01*
X125013882Y-115642554D01*
X125014118Y-115371635D01*
X124910661Y-115121248D01*
X124719259Y-114929513D01*
X124469054Y-114825618D01*
X124198135Y-114825382D01*
X123947748Y-114928839D01*
X123756013Y-115120241D01*
X123652118Y-115370446D01*
X123652063Y-115433096D01*
X122325788Y-116759370D01*
X121072222Y-116759370D01*
X125264161Y-112567431D01*
X125603000Y-112634831D01*
X126036033Y-112548695D01*
X126403141Y-112303402D01*
X126411493Y-112290903D01*
X126496236Y-112417730D01*
X127288689Y-113210184D01*
X127437177Y-113309400D01*
X127493400Y-113346967D01*
X127734873Y-113394999D01*
X130040002Y-113394999D01*
X130040002Y-115743497D01*
X128481082Y-117302418D01*
X128143000Y-117235169D01*
X127709967Y-117321305D01*
X127342859Y-117566598D01*
X127097566Y-117933706D01*
X127011430Y-118366739D01*
X127011430Y-119123261D01*
X127097566Y-119556294D01*
X127342859Y-119923402D01*
X127709967Y-120168695D01*
X128131323Y-120252508D01*
X128077043Y-120306693D01*
X127882222Y-120775875D01*
X127881779Y-121283897D01*
X128075781Y-121753417D01*
X128434693Y-122112957D01*
X128903875Y-122307778D01*
X129411897Y-122308221D01*
X129881417Y-122114219D01*
X130240957Y-121755307D01*
X130435778Y-121286125D01*
X130436221Y-120778103D01*
X130242219Y-120308583D01*
X129883307Y-119949043D01*
X129414125Y-119754222D01*
X129056392Y-119753910D01*
X129188434Y-119556294D01*
X129274570Y-119123261D01*
X129274570Y-118796349D01*
X131457000Y-118796349D01*
X131457000Y-120370051D01*
X131543092Y-120802866D01*
X131788262Y-121169789D01*
X132155185Y-121414959D01*
X132588000Y-121501051D01*
X133020815Y-121414959D01*
X133387738Y-121169789D01*
X133632908Y-120802866D01*
X133719000Y-120370051D01*
X133719000Y-119710200D01*
X133743000Y-119710200D01*
X133743000Y-120460200D01*
X133897028Y-120980549D01*
X134238460Y-121402345D01*
X134715316Y-121661373D01*
X134786815Y-121675518D01*
X135001000Y-121552856D01*
X135001000Y-119710200D01*
X135255000Y-119710200D01*
X135255000Y-121552856D01*
X135469185Y-121675518D01*
X135540684Y-121661373D01*
X136017540Y-121402345D01*
X136358972Y-120980549D01*
X136513000Y-120460200D01*
X136513000Y-119710200D01*
X135255000Y-119710200D01*
X135001000Y-119710200D01*
X133743000Y-119710200D01*
X133719000Y-119710200D01*
X133719000Y-118796349D01*
X133701069Y-118706200D01*
X133743000Y-118706200D01*
X133743000Y-119456200D01*
X135001000Y-119456200D01*
X135001000Y-117613544D01*
X135255000Y-117613544D01*
X135255000Y-119456200D01*
X136513000Y-119456200D01*
X136513000Y-118706200D01*
X136358972Y-118185851D01*
X136017540Y-117764055D01*
X135540684Y-117505027D01*
X135469185Y-117490882D01*
X135255000Y-117613544D01*
X135001000Y-117613544D01*
X134786815Y-117490882D01*
X134715316Y-117505027D01*
X134238460Y-117764055D01*
X133897028Y-118185851D01*
X133743000Y-118706200D01*
X133701069Y-118706200D01*
X133632908Y-118363534D01*
X133387738Y-117996611D01*
X133020815Y-117751441D01*
X132588000Y-117665349D01*
X132155185Y-117751441D01*
X131788262Y-117996611D01*
X131543092Y-118363534D01*
X131457000Y-118796349D01*
X129274570Y-118796349D01*
X129274570Y-118717930D01*
X130810000Y-117182500D01*
X130822751Y-117195251D01*
X131076125Y-117364551D01*
X131375001Y-117424001D01*
X132922001Y-117424001D01*
X133220877Y-117364551D01*
X133474251Y-117195251D01*
X134238038Y-116431464D01*
X134446000Y-116431464D01*
X134587190Y-116404897D01*
X134716865Y-116321454D01*
X134803859Y-116194134D01*
X134834464Y-116043000D01*
X134834464Y-114843000D01*
X134807897Y-114701810D01*
X134724454Y-114572135D01*
X134597134Y-114485141D01*
X134446000Y-114454536D01*
X133246000Y-114454536D01*
X133152400Y-114472148D01*
X133144822Y-114464570D01*
X133133731Y-114475661D01*
X133104810Y-114481103D01*
X133019419Y-114536050D01*
X132979617Y-114354836D01*
X132514964Y-114195193D01*
X132024587Y-114225518D01*
X131712383Y-114354836D01*
X131662871Y-114580263D01*
X131602002Y-114519394D01*
X131602002Y-113085662D01*
X131591000Y-113030351D01*
X131591000Y-112832444D01*
X131768256Y-112655497D01*
X131940804Y-112239957D01*
X131941196Y-111790017D01*
X131769375Y-111374177D01*
X131451497Y-111055744D01*
X131035957Y-110883196D01*
X130586017Y-110882804D01*
X130170177Y-111054625D01*
X129851744Y-111372503D01*
X129679196Y-111788043D01*
X129678895Y-112132999D01*
X129057000Y-112132999D01*
X129188434Y-111936294D01*
X129274570Y-111503261D01*
X129274570Y-110747772D01*
X130032167Y-109990174D01*
X130032170Y-109990172D01*
X130060112Y-109948354D01*
X130209309Y-110097551D01*
X130382357Y-110213177D01*
X130586480Y-110253780D01*
X132740438Y-110253780D01*
X133403866Y-110917208D01*
X133321957Y-110883196D01*
X132872017Y-110882804D01*
X132456177Y-111054625D01*
X132137744Y-111372503D01*
X131965196Y-111788043D01*
X131964804Y-112237983D01*
X132136625Y-112653823D01*
X132454503Y-112972256D01*
X132870043Y-113144804D01*
X133319983Y-113145196D01*
X133735823Y-112973375D01*
X134054256Y-112655497D01*
X134175586Y-112363304D01*
X134295625Y-112653823D01*
X134613503Y-112972256D01*
X134721600Y-113017142D01*
X134721600Y-113309400D01*
X134762203Y-113513523D01*
X134877829Y-113686571D01*
X136576283Y-115385024D01*
X136474200Y-115898231D01*
X136474200Y-115952969D01*
X136580540Y-116487578D01*
X136883372Y-116940797D01*
X137336591Y-117243629D01*
X137871200Y-117349969D01*
X138405809Y-117243629D01*
X138760200Y-117006832D01*
X138760200Y-117067909D01*
X138856873Y-117301298D01*
X139035501Y-117479927D01*
X139268890Y-117576600D01*
X140125450Y-117576600D01*
X140284200Y-117417850D01*
X140284200Y-116052600D01*
X140264200Y-116052600D01*
X140264200Y-115798600D01*
X140284200Y-115798600D01*
X140284200Y-114433350D01*
X140125450Y-114274600D01*
X139268890Y-114274600D01*
X139035501Y-114371273D01*
X138856873Y-114549902D01*
X138760200Y-114783291D01*
X138760200Y-114844368D01*
X138405809Y-114607571D01*
X137871200Y-114501231D01*
X137336591Y-114607571D01*
X137319160Y-114619218D01*
X135788400Y-113088458D01*
X135788400Y-113017348D01*
X135894823Y-112973375D01*
X136213256Y-112655497D01*
X136385804Y-112239957D01*
X136386196Y-111790017D01*
X136214375Y-111374177D01*
X135896497Y-111055744D01*
X135480957Y-110883196D01*
X135031017Y-110882804D01*
X134922842Y-110927501D01*
X133338551Y-109343209D01*
X133165503Y-109227583D01*
X132961380Y-109186980D01*
X130807422Y-109186980D01*
X130578270Y-108957828D01*
X130405222Y-108842202D01*
X130201099Y-108801599D01*
X130035812Y-108801599D01*
X130036196Y-108361017D01*
X129864375Y-107945177D01*
X129546497Y-107626744D01*
X129438400Y-107581858D01*
X129438400Y-103124000D01*
X129397797Y-102919877D01*
X129282171Y-102746829D01*
X128597134Y-102061792D01*
X128679043Y-102095804D01*
X129128983Y-102096196D01*
X129544823Y-101924375D01*
X129863256Y-101606497D01*
X130035804Y-101190957D01*
X130036196Y-100741017D01*
X129864375Y-100325177D01*
X129615632Y-100076000D01*
X135204635Y-100076000D01*
X137326959Y-102073481D01*
X137326959Y-102073481D01*
G37*
X137326959Y-102073481D02*
X137369797Y-102100059D01*
X137414000Y-102108000D01*
X141996876Y-102108000D01*
X141926591Y-102210866D01*
X141895986Y-102362000D01*
X141895986Y-103886000D01*
X141922553Y-104027190D01*
X142005996Y-104156865D01*
X142133316Y-104243859D01*
X142284450Y-104274464D01*
X144481550Y-104274464D01*
X144544000Y-104262713D01*
X144544000Y-104847252D01*
X144185943Y-104608006D01*
X143748536Y-104521000D01*
X143017464Y-104521000D01*
X142580057Y-104608006D01*
X142209241Y-104855777D01*
X141961470Y-105226593D01*
X141874464Y-105664000D01*
X141961470Y-106101407D01*
X142209241Y-106472223D01*
X142580057Y-106719994D01*
X142849600Y-106773610D01*
X142849600Y-107094390D01*
X142580057Y-107148006D01*
X142368146Y-107289600D01*
X141598082Y-107289600D01*
X141366448Y-106942935D01*
X140962671Y-106673140D01*
X140486383Y-106578400D01*
X140437617Y-106578400D01*
X139961329Y-106673140D01*
X139725400Y-106830783D01*
X139725400Y-106299000D01*
X139684797Y-106094877D01*
X139569171Y-105921829D01*
X138820952Y-105173610D01*
X139001151Y-105294015D01*
X139319000Y-105357239D01*
X139636849Y-105294015D01*
X139775641Y-105201277D01*
X139911889Y-105361206D01*
X140295065Y-105548481D01*
X140462000Y-105421568D01*
X140462000Y-104330500D01*
X140716000Y-104330500D01*
X140716000Y-105421568D01*
X140882935Y-105548481D01*
X141266111Y-105361206D01*
X141542420Y-105036873D01*
X141673580Y-104631490D01*
X141673580Y-104330500D01*
X140716000Y-104330500D01*
X140462000Y-104330500D01*
X140442000Y-104330500D01*
X140442000Y-104076500D01*
X140462000Y-104076500D01*
X140462000Y-102985432D01*
X140716000Y-102985432D01*
X140716000Y-104076500D01*
X141673580Y-104076500D01*
X141673580Y-103775510D01*
X141542420Y-103370127D01*
X141266111Y-103045794D01*
X140882935Y-102858519D01*
X140716000Y-102985432D01*
X140462000Y-102985432D01*
X140295065Y-102858519D01*
X139911889Y-103045794D01*
X139775641Y-103205723D01*
X139636849Y-103112985D01*
X139319000Y-103049761D01*
X139001151Y-103112985D01*
X138731691Y-103293032D01*
X138684000Y-103364407D01*
X138636309Y-103293032D01*
X138366849Y-103112985D01*
X138049000Y-103049761D01*
X137731151Y-103112985D01*
X137461691Y-103293032D01*
X137281644Y-103562492D01*
X137226782Y-103838304D01*
X137208297Y-103745377D01*
X137092671Y-103572329D01*
X136203671Y-102683329D01*
X136030623Y-102567703D01*
X135956800Y-102553018D01*
X136085580Y-102154990D01*
X136085580Y-101854000D01*
X135128000Y-101854000D01*
X135128000Y-101874000D01*
X134874000Y-101874000D01*
X134874000Y-101854000D01*
X134854000Y-101854000D01*
X134854000Y-101600000D01*
X134874000Y-101600000D01*
X134874000Y-100508932D01*
X135128000Y-100508932D01*
X135128000Y-101600000D01*
X136085580Y-101600000D01*
X136085580Y-101299010D01*
X135954420Y-100893627D01*
X135678111Y-100569294D01*
X135294935Y-100382019D01*
X135128000Y-100508932D01*
X134874000Y-100508932D01*
X134707065Y-100382019D01*
X134323889Y-100569294D01*
X134187641Y-100729223D01*
X134048849Y-100636485D01*
X133731000Y-100573261D01*
X133413151Y-100636485D01*
X133143691Y-100816532D01*
X133096000Y-100887907D01*
X133048309Y-100816532D01*
X132778849Y-100636485D01*
X132461000Y-100573261D01*
X132143151Y-100636485D01*
X131873691Y-100816532D01*
X131693644Y-101085992D01*
X131630420Y-101403841D01*
X131630420Y-102050159D01*
X131693644Y-102368008D01*
X131873691Y-102637468D01*
X131955355Y-102692034D01*
X131968203Y-102756623D01*
X132083829Y-102929671D01*
X132550012Y-103395853D01*
X132456177Y-103434625D01*
X132137744Y-103752503D01*
X132092858Y-103860600D01*
X131813348Y-103860600D01*
X131769375Y-103754177D01*
X131451497Y-103435744D01*
X131035957Y-103263196D01*
X130586017Y-103262804D01*
X130170177Y-103434625D01*
X129851744Y-103752503D01*
X129679196Y-104168043D01*
X129678804Y-104617983D01*
X129850625Y-105033823D01*
X130168503Y-105352256D01*
X130187700Y-105360227D01*
X130187700Y-106415330D01*
X130144113Y-106458841D01*
X130040218Y-106709046D01*
X130039982Y-106979965D01*
X130143439Y-107230352D01*
X130334841Y-107422087D01*
X130585046Y-107525982D01*
X130855965Y-107526218D01*
X131106352Y-107422761D01*
X131298087Y-107231359D01*
X131401982Y-106981154D01*
X131402218Y-106710235D01*
X131298761Y-106459848D01*
X131254500Y-106415510D01*
X131254500Y-105434081D01*
X131449823Y-105353375D01*
X131768256Y-105035497D01*
X131813142Y-104927400D01*
X132092652Y-104927400D01*
X132136625Y-105033823D01*
X132454503Y-105352256D01*
X132870043Y-105524804D01*
X133319983Y-105525196D01*
X133735823Y-105353375D01*
X134054256Y-105035497D01*
X134175586Y-104743304D01*
X134295625Y-105033823D01*
X134613503Y-105352256D01*
X134721600Y-105397142D01*
X134721600Y-106567730D01*
X134678013Y-106611241D01*
X134574118Y-106861446D01*
X134573882Y-107132365D01*
X134677339Y-107382752D01*
X134868741Y-107574487D01*
X135118946Y-107678382D01*
X135389865Y-107678618D01*
X135640252Y-107575161D01*
X135831987Y-107383759D01*
X135935882Y-107133554D01*
X135936118Y-106862635D01*
X135832661Y-106612248D01*
X135788400Y-106567910D01*
X135788400Y-105397348D01*
X135894823Y-105353375D01*
X136213256Y-105035497D01*
X136263837Y-104913685D01*
X136338329Y-105025171D01*
X137388600Y-106075442D01*
X137388600Y-106695009D01*
X137017552Y-106942935D01*
X136747757Y-107346712D01*
X136653017Y-107823000D01*
X136747757Y-108299288D01*
X137017552Y-108703065D01*
X137421329Y-108972860D01*
X137897617Y-109067600D01*
X137946383Y-109067600D01*
X138115747Y-109033911D01*
X138017176Y-109132482D01*
X137946383Y-109118400D01*
X137897617Y-109118400D01*
X137421329Y-109213140D01*
X137017552Y-109482935D01*
X136747757Y-109886712D01*
X136653017Y-110363000D01*
X136747757Y-110839288D01*
X137017552Y-111243065D01*
X137388600Y-111490991D01*
X137388600Y-111775009D01*
X137017552Y-112022935D01*
X136747757Y-112426712D01*
X136653017Y-112903000D01*
X136747757Y-113379288D01*
X137017552Y-113783065D01*
X137421329Y-114052860D01*
X137897617Y-114147600D01*
X137946383Y-114147600D01*
X138422671Y-114052860D01*
X138826448Y-113783065D01*
X139096243Y-113379288D01*
X139190983Y-112903000D01*
X139096243Y-112426712D01*
X138826448Y-112022935D01*
X138455400Y-111775009D01*
X138455400Y-111490991D01*
X138826448Y-111243065D01*
X139096243Y-110839288D01*
X139190983Y-110363000D01*
X139096243Y-109886712D01*
X138966221Y-109692121D01*
X139569171Y-109089171D01*
X139684797Y-108916124D01*
X139707277Y-108803108D01*
X139961329Y-108972860D01*
X140437617Y-109067600D01*
X140486383Y-109067600D01*
X140962671Y-108972860D01*
X141366448Y-108703065D01*
X141598082Y-108356400D01*
X141904778Y-108356400D01*
X141961470Y-108641407D01*
X142209241Y-109012223D01*
X142580057Y-109259994D01*
X142849600Y-109313610D01*
X142849600Y-109634390D01*
X142580057Y-109688006D01*
X142209241Y-109935777D01*
X141961470Y-110306593D01*
X141874464Y-110744000D01*
X141943275Y-111089933D01*
X141645598Y-110792256D01*
X141730983Y-110363000D01*
X141636243Y-109886712D01*
X141366448Y-109482935D01*
X140962671Y-109213140D01*
X140486383Y-109118400D01*
X140437617Y-109118400D01*
X139961329Y-109213140D01*
X139557552Y-109482935D01*
X139287757Y-109886712D01*
X139193017Y-110363000D01*
X139287757Y-110839288D01*
X139557552Y-111243065D01*
X139961329Y-111512860D01*
X140437617Y-111607600D01*
X140486383Y-111607600D01*
X140874964Y-111530306D01*
X140995594Y-111650936D01*
X139598400Y-111650936D01*
X139457210Y-111677503D01*
X139327535Y-111760946D01*
X139240541Y-111888266D01*
X139209936Y-112039400D01*
X139209936Y-113766600D01*
X139236503Y-113907790D01*
X139319946Y-114037465D01*
X139447266Y-114124459D01*
X139598400Y-114155064D01*
X140552644Y-114155064D01*
X140684565Y-114286985D01*
X140538200Y-114433350D01*
X140538200Y-115798600D01*
X140558200Y-115798600D01*
X140558200Y-116052600D01*
X140538200Y-116052600D01*
X140538200Y-117417850D01*
X140696950Y-117576600D01*
X141246201Y-117576600D01*
X141246201Y-119637151D01*
X141286804Y-119841274D01*
X141402430Y-120014322D01*
X141943756Y-120555648D01*
X141874464Y-120904000D01*
X141961470Y-121341407D01*
X142053577Y-121479255D01*
X141634086Y-121059031D01*
X140575580Y-120619501D01*
X139429448Y-120618501D01*
X138609805Y-120957171D01*
X138712908Y-120802866D01*
X138799000Y-120370051D01*
X138799000Y-118796349D01*
X138712908Y-118363534D01*
X138467738Y-117996611D01*
X138100815Y-117751441D01*
X137668000Y-117665349D01*
X137235185Y-117751441D01*
X136868262Y-117996611D01*
X136623092Y-118363534D01*
X136537000Y-118796349D01*
X136537000Y-120370051D01*
X136623092Y-120802866D01*
X136868262Y-121169789D01*
X137235185Y-121414959D01*
X137668000Y-121501051D01*
X137988368Y-121437326D01*
X137559031Y-121865914D01*
X137119501Y-122924420D01*
X137118501Y-124070552D01*
X137556183Y-125129823D01*
X138365914Y-125940969D01*
X139424420Y-126380499D01*
X140570552Y-126381499D01*
X141629823Y-125943817D01*
X142440969Y-125134086D01*
X142880499Y-124075580D01*
X142881499Y-122929448D01*
X142443817Y-121870177D01*
X142440173Y-121866527D01*
X142580057Y-121959994D01*
X143017464Y-122047000D01*
X143748536Y-122047000D01*
X144185943Y-121959994D01*
X144544000Y-121720748D01*
X144544000Y-124955089D01*
X144189855Y-126735495D01*
X143206776Y-128206776D01*
X141735495Y-129189855D01*
X139955089Y-129544000D01*
X117416610Y-129544000D01*
X117679610Y-129281000D01*
X122936000Y-129281000D01*
X123711699Y-129126704D01*
X124369305Y-128687305D01*
X124808704Y-128029699D01*
X124963000Y-127254000D01*
X124823133Y-126550843D01*
X125224976Y-126149000D01*
X126278676Y-126149000D01*
X126278676Y-128454000D01*
X126315423Y-128649294D01*
X126430842Y-128828660D01*
X126606951Y-128948990D01*
X126816000Y-128991324D01*
X129216000Y-128991324D01*
X129411294Y-128954577D01*
X129590660Y-128839158D01*
X129710990Y-128663049D01*
X129753324Y-128454000D01*
X129753324Y-128268897D01*
X131310779Y-128268897D01*
X131504781Y-128738417D01*
X131863693Y-129097957D01*
X132332875Y-129292778D01*
X132840897Y-129293221D01*
X133310417Y-129099219D01*
X133669957Y-128740307D01*
X133864778Y-128271125D01*
X133865221Y-127763103D01*
X133671219Y-127293583D01*
X133312307Y-126934043D01*
X132843125Y-126739222D01*
X132335103Y-126738779D01*
X131865583Y-126932781D01*
X131506043Y-127291693D01*
X131311222Y-127760875D01*
X131310779Y-128268897D01*
X129753324Y-128268897D01*
X129753324Y-126149000D01*
X134871024Y-126149000D01*
X137393512Y-128671488D01*
X137694253Y-128872437D01*
X138049000Y-128943000D01*
X139329007Y-128943000D01*
X139483693Y-129097957D01*
X139952875Y-129292778D01*
X140460897Y-129293221D01*
X140930417Y-129099219D01*
X141289957Y-128740307D01*
X141484778Y-128271125D01*
X141485221Y-127763103D01*
X141291219Y-127293583D01*
X140932307Y-126934043D01*
X140463125Y-126739222D01*
X139955103Y-126738779D01*
X139485583Y-126932781D01*
X139329091Y-127089000D01*
X138432976Y-127089000D01*
X135910488Y-124566512D01*
X135889910Y-124552762D01*
X135609748Y-124365564D01*
X135423583Y-124328533D01*
X135751729Y-124192611D01*
X135807410Y-123962016D01*
X135088000Y-123242605D01*
X134368590Y-123962016D01*
X134424271Y-124192611D01*
X134718502Y-124295000D01*
X124841000Y-124295000D01*
X124486253Y-124365563D01*
X124185512Y-124566512D01*
X123427299Y-125324725D01*
X122936000Y-125227000D01*
X122466000Y-125227000D01*
X122466000Y-122413000D01*
X131549536Y-122413000D01*
X131549536Y-123713000D01*
X131576103Y-123854190D01*
X131659546Y-123983865D01*
X131786866Y-124070859D01*
X131938000Y-124101464D01*
X133238000Y-124101464D01*
X133379190Y-124074897D01*
X133508865Y-123991454D01*
X133595859Y-123864134D01*
X133626464Y-123713000D01*
X133626464Y-122882078D01*
X133790378Y-122882078D01*
X133819917Y-123392428D01*
X133958389Y-123726729D01*
X134188984Y-123782410D01*
X134908395Y-123063000D01*
X135267605Y-123063000D01*
X135987016Y-123782410D01*
X136217611Y-123726729D01*
X136385622Y-123243922D01*
X136356083Y-122733572D01*
X136217611Y-122399271D01*
X135987016Y-122343590D01*
X135267605Y-123063000D01*
X134908395Y-123063000D01*
X134188984Y-122343590D01*
X133958389Y-122399271D01*
X133790378Y-122882078D01*
X133626464Y-122882078D01*
X133626464Y-122413000D01*
X133599897Y-122271810D01*
X133530514Y-122163984D01*
X134368590Y-122163984D01*
X135088000Y-122883395D01*
X135807410Y-122163984D01*
X135751729Y-121933389D01*
X135268922Y-121765378D01*
X134758572Y-121794917D01*
X134424271Y-121933389D01*
X134368590Y-122163984D01*
X133530514Y-122163984D01*
X133516454Y-122142135D01*
X133389134Y-122055141D01*
X133238000Y-122024536D01*
X131938000Y-122024536D01*
X131796810Y-122051103D01*
X131667135Y-122134546D01*
X131580141Y-122261866D01*
X131549536Y-122413000D01*
X122466000Y-122413000D01*
X122466000Y-121909993D01*
X122620957Y-121755307D01*
X122815778Y-121286125D01*
X122816221Y-120778103D01*
X122622219Y-120308583D01*
X122263307Y-119949043D01*
X121794125Y-119754222D01*
X121436392Y-119753910D01*
X121568434Y-119556294D01*
X121654570Y-119123261D01*
X121654570Y-118366739D01*
X121568434Y-117933706D01*
X121496581Y-117826170D01*
X122089419Y-117826170D01*
X122017566Y-117933706D01*
X121931430Y-118366739D01*
X121931430Y-119123261D01*
X122017566Y-119556294D01*
X122262859Y-119923402D01*
X122629967Y-120168695D01*
X123063000Y-120254831D01*
X123496033Y-120168695D01*
X123863141Y-119923402D01*
X124108434Y-119556294D01*
X124194570Y-119123261D01*
X124194570Y-118366739D01*
X124471430Y-118366739D01*
X124471430Y-119123261D01*
X124557566Y-119556294D01*
X124802859Y-119923402D01*
X125169967Y-120168695D01*
X125603000Y-120254831D01*
X126036033Y-120168695D01*
X126403141Y-119923402D01*
X126648434Y-119556294D01*
X126734570Y-119123261D01*
X126734570Y-118366739D01*
X126648434Y-117933706D01*
X126403141Y-117566598D01*
X126036033Y-117321305D01*
X125603000Y-117235169D01*
X125169967Y-117321305D01*
X124802859Y-117566598D01*
X124557566Y-117933706D01*
X124471430Y-118366739D01*
X124194570Y-118366739D01*
X124108434Y-117933706D01*
X123863141Y-117566598D01*
X123496033Y-117321305D01*
X123309617Y-117284224D01*
X124406277Y-116187564D01*
X124467865Y-116187618D01*
X124718252Y-116084161D01*
X124909987Y-115892759D01*
X125013882Y-115642554D01*
X125014118Y-115371635D01*
X124910661Y-115121248D01*
X124719259Y-114929513D01*
X124469054Y-114825618D01*
X124198135Y-114825382D01*
X123947748Y-114928839D01*
X123756013Y-115120241D01*
X123652118Y-115370446D01*
X123652063Y-115433096D01*
X122325788Y-116759370D01*
X121072222Y-116759370D01*
X125264161Y-112567431D01*
X125603000Y-112634831D01*
X126036033Y-112548695D01*
X126403141Y-112303402D01*
X126411493Y-112290903D01*
X126496236Y-112417730D01*
X127288689Y-113210184D01*
X127437177Y-113309400D01*
X127493400Y-113346967D01*
X127734873Y-113394999D01*
X130040002Y-113394999D01*
X130040002Y-115743497D01*
X128481082Y-117302418D01*
X128143000Y-117235169D01*
X127709967Y-117321305D01*
X127342859Y-117566598D01*
X127097566Y-117933706D01*
X127011430Y-118366739D01*
X127011430Y-119123261D01*
X127097566Y-119556294D01*
X127342859Y-119923402D01*
X127709967Y-120168695D01*
X128131323Y-120252508D01*
X128077043Y-120306693D01*
X127882222Y-120775875D01*
X127881779Y-121283897D01*
X128075781Y-121753417D01*
X128434693Y-122112957D01*
X128903875Y-122307778D01*
X129411897Y-122308221D01*
X129881417Y-122114219D01*
X130240957Y-121755307D01*
X130435778Y-121286125D01*
X130436221Y-120778103D01*
X130242219Y-120308583D01*
X129883307Y-119949043D01*
X129414125Y-119754222D01*
X129056392Y-119753910D01*
X129188434Y-119556294D01*
X129274570Y-119123261D01*
X129274570Y-118796349D01*
X131457000Y-118796349D01*
X131457000Y-120370051D01*
X131543092Y-120802866D01*
X131788262Y-121169789D01*
X132155185Y-121414959D01*
X132588000Y-121501051D01*
X133020815Y-121414959D01*
X133387738Y-121169789D01*
X133632908Y-120802866D01*
X133719000Y-120370051D01*
X133719000Y-119710200D01*
X133743000Y-119710200D01*
X133743000Y-120460200D01*
X133897028Y-120980549D01*
X134238460Y-121402345D01*
X134715316Y-121661373D01*
X134786815Y-121675518D01*
X135001000Y-121552856D01*
X135001000Y-119710200D01*
X135255000Y-119710200D01*
X135255000Y-121552856D01*
X135469185Y-121675518D01*
X135540684Y-121661373D01*
X136017540Y-121402345D01*
X136358972Y-120980549D01*
X136513000Y-120460200D01*
X136513000Y-119710200D01*
X135255000Y-119710200D01*
X135001000Y-119710200D01*
X133743000Y-119710200D01*
X133719000Y-119710200D01*
X133719000Y-118796349D01*
X133701069Y-118706200D01*
X133743000Y-118706200D01*
X133743000Y-119456200D01*
X135001000Y-119456200D01*
X135001000Y-117613544D01*
X135255000Y-117613544D01*
X135255000Y-119456200D01*
X136513000Y-119456200D01*
X136513000Y-118706200D01*
X136358972Y-118185851D01*
X136017540Y-117764055D01*
X135540684Y-117505027D01*
X135469185Y-117490882D01*
X135255000Y-117613544D01*
X135001000Y-117613544D01*
X134786815Y-117490882D01*
X134715316Y-117505027D01*
X134238460Y-117764055D01*
X133897028Y-118185851D01*
X133743000Y-118706200D01*
X133701069Y-118706200D01*
X133632908Y-118363534D01*
X133387738Y-117996611D01*
X133020815Y-117751441D01*
X132588000Y-117665349D01*
X132155185Y-117751441D01*
X131788262Y-117996611D01*
X131543092Y-118363534D01*
X131457000Y-118796349D01*
X129274570Y-118796349D01*
X129274570Y-118717930D01*
X130810000Y-117182500D01*
X130822751Y-117195251D01*
X131076125Y-117364551D01*
X131375001Y-117424001D01*
X132922001Y-117424001D01*
X133220877Y-117364551D01*
X133474251Y-117195251D01*
X134238038Y-116431464D01*
X134446000Y-116431464D01*
X134587190Y-116404897D01*
X134716865Y-116321454D01*
X134803859Y-116194134D01*
X134834464Y-116043000D01*
X134834464Y-114843000D01*
X134807897Y-114701810D01*
X134724454Y-114572135D01*
X134597134Y-114485141D01*
X134446000Y-114454536D01*
X133246000Y-114454536D01*
X133152400Y-114472148D01*
X133144822Y-114464570D01*
X133133731Y-114475661D01*
X133104810Y-114481103D01*
X133019419Y-114536050D01*
X132979617Y-114354836D01*
X132514964Y-114195193D01*
X132024587Y-114225518D01*
X131712383Y-114354836D01*
X131662871Y-114580263D01*
X131602002Y-114519394D01*
X131602002Y-113085662D01*
X131591000Y-113030351D01*
X131591000Y-112832444D01*
X131768256Y-112655497D01*
X131940804Y-112239957D01*
X131941196Y-111790017D01*
X131769375Y-111374177D01*
X131451497Y-111055744D01*
X131035957Y-110883196D01*
X130586017Y-110882804D01*
X130170177Y-111054625D01*
X129851744Y-111372503D01*
X129679196Y-111788043D01*
X129678895Y-112132999D01*
X129057000Y-112132999D01*
X129188434Y-111936294D01*
X129274570Y-111503261D01*
X129274570Y-110747772D01*
X130032167Y-109990174D01*
X130032170Y-109990172D01*
X130060112Y-109948354D01*
X130209309Y-110097551D01*
X130382357Y-110213177D01*
X130586480Y-110253780D01*
X132740438Y-110253780D01*
X133403866Y-110917208D01*
X133321957Y-110883196D01*
X132872017Y-110882804D01*
X132456177Y-111054625D01*
X132137744Y-111372503D01*
X131965196Y-111788043D01*
X131964804Y-112237983D01*
X132136625Y-112653823D01*
X132454503Y-112972256D01*
X132870043Y-113144804D01*
X133319983Y-113145196D01*
X133735823Y-112973375D01*
X134054256Y-112655497D01*
X134175586Y-112363304D01*
X134295625Y-112653823D01*
X134613503Y-112972256D01*
X134721600Y-113017142D01*
X134721600Y-113309400D01*
X134762203Y-113513523D01*
X134877829Y-113686571D01*
X136576283Y-115385024D01*
X136474200Y-115898231D01*
X136474200Y-115952969D01*
X136580540Y-116487578D01*
X136883372Y-116940797D01*
X137336591Y-117243629D01*
X137871200Y-117349969D01*
X138405809Y-117243629D01*
X138760200Y-117006832D01*
X138760200Y-117067909D01*
X138856873Y-117301298D01*
X139035501Y-117479927D01*
X139268890Y-117576600D01*
X140125450Y-117576600D01*
X140284200Y-117417850D01*
X140284200Y-116052600D01*
X140264200Y-116052600D01*
X140264200Y-115798600D01*
X140284200Y-115798600D01*
X140284200Y-114433350D01*
X140125450Y-114274600D01*
X139268890Y-114274600D01*
X139035501Y-114371273D01*
X138856873Y-114549902D01*
X138760200Y-114783291D01*
X138760200Y-114844368D01*
X138405809Y-114607571D01*
X137871200Y-114501231D01*
X137336591Y-114607571D01*
X137319160Y-114619218D01*
X135788400Y-113088458D01*
X135788400Y-113017348D01*
X135894823Y-112973375D01*
X136213256Y-112655497D01*
X136385804Y-112239957D01*
X136386196Y-111790017D01*
X136214375Y-111374177D01*
X135896497Y-111055744D01*
X135480957Y-110883196D01*
X135031017Y-110882804D01*
X134922842Y-110927501D01*
X133338551Y-109343209D01*
X133165503Y-109227583D01*
X132961380Y-109186980D01*
X130807422Y-109186980D01*
X130578270Y-108957828D01*
X130405222Y-108842202D01*
X130201099Y-108801599D01*
X130035812Y-108801599D01*
X130036196Y-108361017D01*
X129864375Y-107945177D01*
X129546497Y-107626744D01*
X129438400Y-107581858D01*
X129438400Y-103124000D01*
X129397797Y-102919877D01*
X129282171Y-102746829D01*
X128597134Y-102061792D01*
X128679043Y-102095804D01*
X129128983Y-102096196D01*
X129544823Y-101924375D01*
X129863256Y-101606497D01*
X130035804Y-101190957D01*
X130036196Y-100741017D01*
X129864375Y-100325177D01*
X129615632Y-100076000D01*
X135204635Y-100076000D01*
X137326959Y-102073481D01*
G36*
X97973625Y-105160823D02*
X98291503Y-105479256D01*
X98707043Y-105651804D01*
X99156983Y-105652196D01*
X99572823Y-105480375D01*
X99891256Y-105162497D01*
X100052159Y-104775000D01*
X101181300Y-104775000D01*
X99980950Y-105975350D01*
X99852013Y-106168317D01*
X99574944Y-106444903D01*
X99402396Y-106860443D01*
X99402004Y-107310383D01*
X99573825Y-107726223D01*
X99752200Y-107904909D01*
X99752200Y-110217299D01*
X98959477Y-111010022D01*
X98709017Y-111009804D01*
X98293177Y-111181625D01*
X97974744Y-111499503D01*
X97802196Y-111915043D01*
X97801804Y-112364983D01*
X97973625Y-112780823D01*
X98291503Y-113099256D01*
X98707043Y-113271804D01*
X99156983Y-113272196D01*
X99572823Y-113100375D01*
X99891256Y-112782497D01*
X100063804Y-112366957D01*
X100064024Y-112114476D01*
X101085451Y-111093050D01*
X101200493Y-110920877D01*
X101254750Y-110839676D01*
X101314200Y-110540800D01*
X101314200Y-110025465D01*
X101454000Y-110165509D01*
X101454000Y-113886499D01*
X98465964Y-116874536D01*
X96782000Y-116874536D01*
X96640810Y-116901103D01*
X96511135Y-116984546D01*
X96424141Y-117111866D01*
X96393536Y-117263000D01*
X96393536Y-119663000D01*
X96420103Y-119804190D01*
X96503546Y-119933865D01*
X96630866Y-120020859D01*
X96782000Y-120051464D01*
X99182000Y-120051464D01*
X99323190Y-120024897D01*
X99452865Y-119941454D01*
X99539859Y-119814134D01*
X99570464Y-119663000D01*
X99570464Y-117979036D01*
X102787250Y-114762251D01*
X102956550Y-114508876D01*
X102973521Y-114423556D01*
X102974109Y-114420600D01*
X105061100Y-114420600D01*
X106476653Y-115836154D01*
X106075017Y-115835804D01*
X105659177Y-116007625D01*
X105340744Y-116325503D01*
X105283071Y-116464393D01*
X105226375Y-116327177D01*
X104908497Y-116008744D01*
X104492957Y-115836196D01*
X104043017Y-115835804D01*
X103627177Y-116007625D01*
X103308744Y-116325503D01*
X103251071Y-116464393D01*
X103194375Y-116327177D01*
X102876497Y-116008744D01*
X102460957Y-115836196D01*
X102011017Y-115835804D01*
X101595177Y-116007625D01*
X101276744Y-116325503D01*
X101104196Y-116741043D01*
X101103804Y-117190983D01*
X101275625Y-117606823D01*
X101593503Y-117925256D01*
X102009043Y-118097804D01*
X102458983Y-118098196D01*
X102874823Y-117926375D01*
X103193256Y-117608497D01*
X103250929Y-117469607D01*
X103307625Y-117606823D01*
X103625503Y-117925256D01*
X104041043Y-118097804D01*
X104490983Y-118098196D01*
X104906823Y-117926375D01*
X105225256Y-117608497D01*
X105282929Y-117469607D01*
X105339625Y-117606823D01*
X105657503Y-117925256D01*
X106073043Y-118097804D01*
X106522983Y-118098196D01*
X106631157Y-118053499D01*
X109858829Y-121281171D01*
X110031877Y-121396797D01*
X110236000Y-121437400D01*
X110248652Y-121437400D01*
X110292625Y-121543823D01*
X110610503Y-121862256D01*
X111026043Y-122034804D01*
X111475983Y-122035196D01*
X111584158Y-121990499D01*
X112461628Y-122867969D01*
X112461630Y-122867972D01*
X112546111Y-122924420D01*
X112634677Y-122983598D01*
X112838801Y-123024201D01*
X115963188Y-123024201D01*
X115962804Y-123464783D01*
X116134625Y-123880623D01*
X116452503Y-124199056D01*
X116868043Y-124371604D01*
X117317983Y-124371996D01*
X117733823Y-124200175D01*
X118052256Y-123882297D01*
X118224804Y-123466757D01*
X118225196Y-123016817D01*
X118053375Y-122600977D01*
X117735497Y-122282544D01*
X117319957Y-122109996D01*
X116870017Y-122109604D01*
X116761843Y-122154301D01*
X116721172Y-122113630D01*
X116548124Y-121998004D01*
X116344001Y-121957401D01*
X113059742Y-121957401D01*
X112338645Y-121236303D01*
X112382804Y-121129957D01*
X112383196Y-120680017D01*
X112211375Y-120264177D01*
X111893497Y-119945744D01*
X111477957Y-119773196D01*
X111028017Y-119772804D01*
X110612177Y-119944625D01*
X110321319Y-120234977D01*
X107385645Y-117299303D01*
X107429804Y-117192957D01*
X107430155Y-116789656D01*
X107581022Y-116940523D01*
X107580804Y-117190983D01*
X107752625Y-117606823D01*
X108070503Y-117925256D01*
X108486043Y-118097804D01*
X108935983Y-118098196D01*
X109351823Y-117926375D01*
X109670256Y-117608497D01*
X109842804Y-117192957D01*
X109843196Y-116743017D01*
X109777421Y-116583828D01*
X109975503Y-116782256D01*
X110391043Y-116954804D01*
X110840983Y-116955196D01*
X111256823Y-116783375D01*
X111575256Y-116465497D01*
X111620142Y-116357400D01*
X112994186Y-116357400D01*
X112597297Y-116521391D01*
X112026595Y-117091098D01*
X111717353Y-117835836D01*
X111716649Y-118642226D01*
X112024591Y-119387503D01*
X112594298Y-119958205D01*
X113339036Y-120267447D01*
X114145426Y-120268151D01*
X114890703Y-119960209D01*
X115461405Y-119390502D01*
X115770647Y-118645764D01*
X115771276Y-117925509D01*
X115791778Y-117939208D01*
X115995901Y-117979812D01*
X115995906Y-117979811D01*
X119468395Y-117979811D01*
X119391430Y-118366739D01*
X119391430Y-119123261D01*
X119477566Y-119556294D01*
X119722859Y-119923402D01*
X120089967Y-120168695D01*
X120511323Y-120252508D01*
X120457043Y-120306693D01*
X120262222Y-120775875D01*
X120261779Y-121283897D01*
X120455781Y-121753417D01*
X120612000Y-121909909D01*
X120612000Y-125227000D01*
X116840000Y-125227000D01*
X116192997Y-125355697D01*
X116064300Y-125381296D01*
X115406695Y-125820695D01*
X115013590Y-126213800D01*
X112113785Y-126213800D01*
X112210256Y-126117497D01*
X112382804Y-125701957D01*
X112383196Y-125252017D01*
X112211375Y-124836177D01*
X111893497Y-124517744D01*
X111477957Y-124345196D01*
X111028017Y-124344804D01*
X110612177Y-124516625D01*
X110293744Y-124834503D01*
X110121196Y-125250043D01*
X110120804Y-125699983D01*
X110292625Y-126115823D01*
X110390431Y-126213800D01*
X107744624Y-126213800D01*
X107342574Y-126213449D01*
X106597297Y-126521391D01*
X106026595Y-127091098D01*
X105717353Y-127835836D01*
X105716649Y-128642226D01*
X106024591Y-129387503D01*
X106180815Y-129544000D01*
X100044911Y-129544000D01*
X98264505Y-129189855D01*
X96793224Y-128206776D01*
X95810145Y-126735495D01*
X95456000Y-124955089D01*
X95456000Y-124070552D01*
X97118501Y-124070552D01*
X97556183Y-125129823D01*
X98365914Y-125940969D01*
X99424420Y-126380499D01*
X100570552Y-126381499D01*
X101629823Y-125943817D01*
X102440969Y-125134086D01*
X102880499Y-124075580D01*
X102881031Y-123464783D01*
X103262804Y-123464783D01*
X103434625Y-123880623D01*
X103752503Y-124199056D01*
X104168043Y-124371604D01*
X104617983Y-124371996D01*
X105033823Y-124200175D01*
X105352256Y-123882297D01*
X105524804Y-123466757D01*
X105525196Y-123016817D01*
X105353375Y-122600977D01*
X105035497Y-122282544D01*
X104619957Y-122109996D01*
X104170017Y-122109604D01*
X103754177Y-122281425D01*
X103435744Y-122599303D01*
X103263196Y-123014843D01*
X103262804Y-123464783D01*
X102881031Y-123464783D01*
X102881499Y-122929448D01*
X102443817Y-121870177D01*
X101634086Y-121059031D01*
X100575580Y-120619501D01*
X99429448Y-120618501D01*
X98370177Y-121056183D01*
X97559031Y-121865914D01*
X97119501Y-122924420D01*
X97118501Y-124070552D01*
X95456000Y-124070552D01*
X95456000Y-115276101D01*
X96400726Y-115276101D01*
X96640912Y-115857395D01*
X97085266Y-116302525D01*
X97666140Y-116543725D01*
X98295101Y-116544274D01*
X98876395Y-116304088D01*
X99321525Y-115859734D01*
X99562725Y-115278860D01*
X99563274Y-114649899D01*
X99323088Y-114068605D01*
X98878734Y-113623475D01*
X98297860Y-113382275D01*
X97668899Y-113381726D01*
X97087605Y-113621912D01*
X96642475Y-114066266D01*
X96401275Y-114647140D01*
X96400726Y-115276101D01*
X95456000Y-115276101D01*
X95456000Y-112681293D01*
X95497125Y-112780823D01*
X95815003Y-113099256D01*
X96230543Y-113271804D01*
X96680483Y-113272196D01*
X97096323Y-113100375D01*
X97414756Y-112782497D01*
X97587304Y-112366957D01*
X97587696Y-111917017D01*
X97415875Y-111501177D01*
X97097997Y-111182744D01*
X96682457Y-111010196D01*
X96232517Y-111009804D01*
X95816677Y-111181625D01*
X95498244Y-111499503D01*
X95456000Y-111601237D01*
X95456000Y-105061293D01*
X95497125Y-105160823D01*
X95815003Y-105479256D01*
X96230543Y-105651804D01*
X96680483Y-105652196D01*
X97096323Y-105480375D01*
X97414756Y-105162497D01*
X97575659Y-104775000D01*
X97814207Y-104775000D01*
X97973625Y-105160823D01*
X97973625Y-105160823D01*
G37*
X97973625Y-105160823D02*
X98291503Y-105479256D01*
X98707043Y-105651804D01*
X99156983Y-105652196D01*
X99572823Y-105480375D01*
X99891256Y-105162497D01*
X100052159Y-104775000D01*
X101181300Y-104775000D01*
X99980950Y-105975350D01*
X99852013Y-106168317D01*
X99574944Y-106444903D01*
X99402396Y-106860443D01*
X99402004Y-107310383D01*
X99573825Y-107726223D01*
X99752200Y-107904909D01*
X99752200Y-110217299D01*
X98959477Y-111010022D01*
X98709017Y-111009804D01*
X98293177Y-111181625D01*
X97974744Y-111499503D01*
X97802196Y-111915043D01*
X97801804Y-112364983D01*
X97973625Y-112780823D01*
X98291503Y-113099256D01*
X98707043Y-113271804D01*
X99156983Y-113272196D01*
X99572823Y-113100375D01*
X99891256Y-112782497D01*
X100063804Y-112366957D01*
X100064024Y-112114476D01*
X101085451Y-111093050D01*
X101200493Y-110920877D01*
X101254750Y-110839676D01*
X101314200Y-110540800D01*
X101314200Y-110025465D01*
X101454000Y-110165509D01*
X101454000Y-113886499D01*
X98465964Y-116874536D01*
X96782000Y-116874536D01*
X96640810Y-116901103D01*
X96511135Y-116984546D01*
X96424141Y-117111866D01*
X96393536Y-117263000D01*
X96393536Y-119663000D01*
X96420103Y-119804190D01*
X96503546Y-119933865D01*
X96630866Y-120020859D01*
X96782000Y-120051464D01*
X99182000Y-120051464D01*
X99323190Y-120024897D01*
X99452865Y-119941454D01*
X99539859Y-119814134D01*
X99570464Y-119663000D01*
X99570464Y-117979036D01*
X102787250Y-114762251D01*
X102956550Y-114508876D01*
X102973521Y-114423556D01*
X102974109Y-114420600D01*
X105061100Y-114420600D01*
X106476653Y-115836154D01*
X106075017Y-115835804D01*
X105659177Y-116007625D01*
X105340744Y-116325503D01*
X105283071Y-116464393D01*
X105226375Y-116327177D01*
X104908497Y-116008744D01*
X104492957Y-115836196D01*
X104043017Y-115835804D01*
X103627177Y-116007625D01*
X103308744Y-116325503D01*
X103251071Y-116464393D01*
X103194375Y-116327177D01*
X102876497Y-116008744D01*
X102460957Y-115836196D01*
X102011017Y-115835804D01*
X101595177Y-116007625D01*
X101276744Y-116325503D01*
X101104196Y-116741043D01*
X101103804Y-117190983D01*
X101275625Y-117606823D01*
X101593503Y-117925256D01*
X102009043Y-118097804D01*
X102458983Y-118098196D01*
X102874823Y-117926375D01*
X103193256Y-117608497D01*
X103250929Y-117469607D01*
X103307625Y-117606823D01*
X103625503Y-117925256D01*
X104041043Y-118097804D01*
X104490983Y-118098196D01*
X104906823Y-117926375D01*
X105225256Y-117608497D01*
X105282929Y-117469607D01*
X105339625Y-117606823D01*
X105657503Y-117925256D01*
X106073043Y-118097804D01*
X106522983Y-118098196D01*
X106631157Y-118053499D01*
X109858829Y-121281171D01*
X110031877Y-121396797D01*
X110236000Y-121437400D01*
X110248652Y-121437400D01*
X110292625Y-121543823D01*
X110610503Y-121862256D01*
X111026043Y-122034804D01*
X111475983Y-122035196D01*
X111584158Y-121990499D01*
X112461628Y-122867969D01*
X112461630Y-122867972D01*
X112546111Y-122924420D01*
X112634677Y-122983598D01*
X112838801Y-123024201D01*
X115963188Y-123024201D01*
X115962804Y-123464783D01*
X116134625Y-123880623D01*
X116452503Y-124199056D01*
X116868043Y-124371604D01*
X117317983Y-124371996D01*
X117733823Y-124200175D01*
X118052256Y-123882297D01*
X118224804Y-123466757D01*
X118225196Y-123016817D01*
X118053375Y-122600977D01*
X117735497Y-122282544D01*
X117319957Y-122109996D01*
X116870017Y-122109604D01*
X116761843Y-122154301D01*
X116721172Y-122113630D01*
X116548124Y-121998004D01*
X116344001Y-121957401D01*
X113059742Y-121957401D01*
X112338645Y-121236303D01*
X112382804Y-121129957D01*
X112383196Y-120680017D01*
X112211375Y-120264177D01*
X111893497Y-119945744D01*
X111477957Y-119773196D01*
X111028017Y-119772804D01*
X110612177Y-119944625D01*
X110321319Y-120234977D01*
X107385645Y-117299303D01*
X107429804Y-117192957D01*
X107430155Y-116789656D01*
X107581022Y-116940523D01*
X107580804Y-117190983D01*
X107752625Y-117606823D01*
X108070503Y-117925256D01*
X108486043Y-118097804D01*
X108935983Y-118098196D01*
X109351823Y-117926375D01*
X109670256Y-117608497D01*
X109842804Y-117192957D01*
X109843196Y-116743017D01*
X109777421Y-116583828D01*
X109975503Y-116782256D01*
X110391043Y-116954804D01*
X110840983Y-116955196D01*
X111256823Y-116783375D01*
X111575256Y-116465497D01*
X111620142Y-116357400D01*
X112994186Y-116357400D01*
X112597297Y-116521391D01*
X112026595Y-117091098D01*
X111717353Y-117835836D01*
X111716649Y-118642226D01*
X112024591Y-119387503D01*
X112594298Y-119958205D01*
X113339036Y-120267447D01*
X114145426Y-120268151D01*
X114890703Y-119960209D01*
X115461405Y-119390502D01*
X115770647Y-118645764D01*
X115771276Y-117925509D01*
X115791778Y-117939208D01*
X115995901Y-117979812D01*
X115995906Y-117979811D01*
X119468395Y-117979811D01*
X119391430Y-118366739D01*
X119391430Y-119123261D01*
X119477566Y-119556294D01*
X119722859Y-119923402D01*
X120089967Y-120168695D01*
X120511323Y-120252508D01*
X120457043Y-120306693D01*
X120262222Y-120775875D01*
X120261779Y-121283897D01*
X120455781Y-121753417D01*
X120612000Y-121909909D01*
X120612000Y-125227000D01*
X116840000Y-125227000D01*
X116192997Y-125355697D01*
X116064300Y-125381296D01*
X115406695Y-125820695D01*
X115013590Y-126213800D01*
X112113785Y-126213800D01*
X112210256Y-126117497D01*
X112382804Y-125701957D01*
X112383196Y-125252017D01*
X112211375Y-124836177D01*
X111893497Y-124517744D01*
X111477957Y-124345196D01*
X111028017Y-124344804D01*
X110612177Y-124516625D01*
X110293744Y-124834503D01*
X110121196Y-125250043D01*
X110120804Y-125699983D01*
X110292625Y-126115823D01*
X110390431Y-126213800D01*
X107744624Y-126213800D01*
X107342574Y-126213449D01*
X106597297Y-126521391D01*
X106026595Y-127091098D01*
X105717353Y-127835836D01*
X105716649Y-128642226D01*
X106024591Y-129387503D01*
X106180815Y-129544000D01*
X100044911Y-129544000D01*
X98264505Y-129189855D01*
X96793224Y-128206776D01*
X95810145Y-126735495D01*
X95456000Y-124955089D01*
X95456000Y-124070552D01*
X97118501Y-124070552D01*
X97556183Y-125129823D01*
X98365914Y-125940969D01*
X99424420Y-126380499D01*
X100570552Y-126381499D01*
X101629823Y-125943817D01*
X102440969Y-125134086D01*
X102880499Y-124075580D01*
X102881031Y-123464783D01*
X103262804Y-123464783D01*
X103434625Y-123880623D01*
X103752503Y-124199056D01*
X104168043Y-124371604D01*
X104617983Y-124371996D01*
X105033823Y-124200175D01*
X105352256Y-123882297D01*
X105524804Y-123466757D01*
X105525196Y-123016817D01*
X105353375Y-122600977D01*
X105035497Y-122282544D01*
X104619957Y-122109996D01*
X104170017Y-122109604D01*
X103754177Y-122281425D01*
X103435744Y-122599303D01*
X103263196Y-123014843D01*
X103262804Y-123464783D01*
X102881031Y-123464783D01*
X102881499Y-122929448D01*
X102443817Y-121870177D01*
X101634086Y-121059031D01*
X100575580Y-120619501D01*
X99429448Y-120618501D01*
X98370177Y-121056183D01*
X97559031Y-121865914D01*
X97119501Y-122924420D01*
X97118501Y-124070552D01*
X95456000Y-124070552D01*
X95456000Y-115276101D01*
X96400726Y-115276101D01*
X96640912Y-115857395D01*
X97085266Y-116302525D01*
X97666140Y-116543725D01*
X98295101Y-116544274D01*
X98876395Y-116304088D01*
X99321525Y-115859734D01*
X99562725Y-115278860D01*
X99563274Y-114649899D01*
X99323088Y-114068605D01*
X98878734Y-113623475D01*
X98297860Y-113382275D01*
X97668899Y-113381726D01*
X97087605Y-113621912D01*
X96642475Y-114066266D01*
X96401275Y-114647140D01*
X96400726Y-115276101D01*
X95456000Y-115276101D01*
X95456000Y-112681293D01*
X95497125Y-112780823D01*
X95815003Y-113099256D01*
X96230543Y-113271804D01*
X96680483Y-113272196D01*
X97096323Y-113100375D01*
X97414756Y-112782497D01*
X97587304Y-112366957D01*
X97587696Y-111917017D01*
X97415875Y-111501177D01*
X97097997Y-111182744D01*
X96682457Y-111010196D01*
X96232517Y-111009804D01*
X95816677Y-111181625D01*
X95498244Y-111499503D01*
X95456000Y-111601237D01*
X95456000Y-105061293D01*
X95497125Y-105160823D01*
X95815003Y-105479256D01*
X96230543Y-105651804D01*
X96680483Y-105652196D01*
X97096323Y-105480375D01*
X97414756Y-105162497D01*
X97575659Y-104775000D01*
X97814207Y-104775000D01*
X97973625Y-105160823D01*
G36*
X132539748Y-115428858D02*
X132525605Y-115443000D01*
X132539748Y-115457143D01*
X132360143Y-115636748D01*
X132346000Y-115622605D01*
X132331858Y-115636748D01*
X132152253Y-115457143D01*
X132166395Y-115443000D01*
X132152253Y-115428858D01*
X132331858Y-115249253D01*
X132346000Y-115263395D01*
X132360143Y-115249253D01*
X132539748Y-115428858D01*
X132539748Y-115428858D01*
G37*
X132539748Y-115428858D02*
X132525605Y-115443000D01*
X132539748Y-115457143D01*
X132360143Y-115636748D01*
X132346000Y-115622605D01*
X132331858Y-115636748D01*
X132152253Y-115457143D01*
X132166395Y-115443000D01*
X132152253Y-115428858D01*
X132331858Y-115249253D01*
X132346000Y-115263395D01*
X132360143Y-115249253D01*
X132539748Y-115428858D01*
G36*
X110730549Y-108645051D02*
X112107602Y-110022105D01*
X112107602Y-112079757D01*
X111506560Y-112680800D01*
X111460844Y-112680800D01*
X111283897Y-112503544D01*
X110868357Y-112330996D01*
X110418417Y-112330604D01*
X110002577Y-112502425D01*
X109684144Y-112820303D01*
X109519704Y-113216316D01*
X107626971Y-111323583D01*
X109511204Y-111323583D01*
X109683025Y-111739423D01*
X110000903Y-112057856D01*
X110416443Y-112230404D01*
X110866383Y-112230796D01*
X111282223Y-112058975D01*
X111600656Y-111741097D01*
X111773204Y-111325557D01*
X111773596Y-110875617D01*
X111601775Y-110459777D01*
X111283897Y-110141344D01*
X110868357Y-109968796D01*
X110418417Y-109968404D01*
X110002577Y-110140225D01*
X109684144Y-110458103D01*
X109511596Y-110873643D01*
X109511204Y-111323583D01*
X107626971Y-111323583D01*
X107526707Y-111223319D01*
X107488054Y-111165470D01*
X107488118Y-111091735D01*
X107384661Y-110841348D01*
X107193259Y-110649613D01*
X106943054Y-110545718D01*
X106672135Y-110545482D01*
X106421748Y-110648939D01*
X106230013Y-110840341D01*
X106126118Y-111090546D01*
X106125882Y-111361465D01*
X106229339Y-111611852D01*
X106420741Y-111803587D01*
X106670946Y-111907482D01*
X106704543Y-111907511D01*
X106709229Y-111914525D01*
X109736076Y-114941372D01*
X109834450Y-115007103D01*
X109663969Y-115177287D01*
X106082401Y-111595719D01*
X106082401Y-110477812D01*
X106522983Y-110478196D01*
X106909437Y-110318517D01*
X107920088Y-110318517D01*
X107988077Y-110559460D01*
X108507171Y-110744201D01*
X109057448Y-110716230D01*
X109435923Y-110559460D01*
X109503912Y-110318517D01*
X108712000Y-109526605D01*
X107920088Y-110318517D01*
X106909437Y-110318517D01*
X106938823Y-110306375D01*
X107257256Y-109988497D01*
X107361455Y-109737558D01*
X107499540Y-110070923D01*
X107740483Y-110138912D01*
X108532395Y-109347000D01*
X108518253Y-109332858D01*
X108697858Y-109153253D01*
X108712000Y-109167395D01*
X108726143Y-109153253D01*
X108905748Y-109332858D01*
X108891605Y-109347000D01*
X109683517Y-110138912D01*
X109924460Y-110070923D01*
X110109201Y-109551829D01*
X110081230Y-109001552D01*
X109924460Y-108623077D01*
X109715757Y-108564185D01*
X109748678Y-108531264D01*
X110632800Y-108531264D01*
X110652093Y-108527634D01*
X110730549Y-108645051D01*
X110730549Y-108645051D01*
G37*
X110730549Y-108645051D02*
X112107602Y-110022105D01*
X112107602Y-112079757D01*
X111506560Y-112680800D01*
X111460844Y-112680800D01*
X111283897Y-112503544D01*
X110868357Y-112330996D01*
X110418417Y-112330604D01*
X110002577Y-112502425D01*
X109684144Y-112820303D01*
X109519704Y-113216316D01*
X107626971Y-111323583D01*
X109511204Y-111323583D01*
X109683025Y-111739423D01*
X110000903Y-112057856D01*
X110416443Y-112230404D01*
X110866383Y-112230796D01*
X111282223Y-112058975D01*
X111600656Y-111741097D01*
X111773204Y-111325557D01*
X111773596Y-110875617D01*
X111601775Y-110459777D01*
X111283897Y-110141344D01*
X110868357Y-109968796D01*
X110418417Y-109968404D01*
X110002577Y-110140225D01*
X109684144Y-110458103D01*
X109511596Y-110873643D01*
X109511204Y-111323583D01*
X107626971Y-111323583D01*
X107526707Y-111223319D01*
X107488054Y-111165470D01*
X107488118Y-111091735D01*
X107384661Y-110841348D01*
X107193259Y-110649613D01*
X106943054Y-110545718D01*
X106672135Y-110545482D01*
X106421748Y-110648939D01*
X106230013Y-110840341D01*
X106126118Y-111090546D01*
X106125882Y-111361465D01*
X106229339Y-111611852D01*
X106420741Y-111803587D01*
X106670946Y-111907482D01*
X106704543Y-111907511D01*
X106709229Y-111914525D01*
X109736076Y-114941372D01*
X109834450Y-115007103D01*
X109663969Y-115177287D01*
X106082401Y-111595719D01*
X106082401Y-110477812D01*
X106522983Y-110478196D01*
X106909437Y-110318517D01*
X107920088Y-110318517D01*
X107988077Y-110559460D01*
X108507171Y-110744201D01*
X109057448Y-110716230D01*
X109435923Y-110559460D01*
X109503912Y-110318517D01*
X108712000Y-109526605D01*
X107920088Y-110318517D01*
X106909437Y-110318517D01*
X106938823Y-110306375D01*
X107257256Y-109988497D01*
X107361455Y-109737558D01*
X107499540Y-110070923D01*
X107740483Y-110138912D01*
X108532395Y-109347000D01*
X108518253Y-109332858D01*
X108697858Y-109153253D01*
X108712000Y-109167395D01*
X108726143Y-109153253D01*
X108905748Y-109332858D01*
X108891605Y-109347000D01*
X109683517Y-110138912D01*
X109924460Y-110070923D01*
X110109201Y-109551829D01*
X110081230Y-109001552D01*
X109924460Y-108623077D01*
X109715757Y-108564185D01*
X109748678Y-108531264D01*
X110632800Y-108531264D01*
X110652093Y-108527634D01*
X110730549Y-108645051D01*
G36*
X116914967Y-107034305D02*
X116547859Y-107279598D01*
X116302566Y-107646706D01*
X116216430Y-108079739D01*
X116216430Y-108836261D01*
X116302566Y-109269294D01*
X116547859Y-109636402D01*
X116914967Y-109881695D01*
X117348000Y-109967831D01*
X117781033Y-109881695D01*
X118148141Y-109636402D01*
X118393434Y-109269294D01*
X118479570Y-108836261D01*
X118479570Y-108079739D01*
X118411307Y-107736557D01*
X118756430Y-108081681D01*
X118756430Y-108836261D01*
X118842566Y-109269294D01*
X119087859Y-109636402D01*
X119454967Y-109881695D01*
X119486012Y-109887870D01*
X119291501Y-110128183D01*
X119199858Y-110437822D01*
X118903897Y-110141344D01*
X118488357Y-109968796D01*
X118038417Y-109968404D01*
X117622577Y-110140225D01*
X117304144Y-110458103D01*
X117131596Y-110873643D01*
X117131204Y-111323583D01*
X117303025Y-111739423D01*
X117620903Y-112057856D01*
X118036443Y-112230404D01*
X118486383Y-112230796D01*
X118902223Y-112058975D01*
X119188362Y-111773335D01*
X119291501Y-112121817D01*
X119633056Y-112543798D01*
X120110097Y-112802950D01*
X120181725Y-112817133D01*
X120395998Y-112694480D01*
X120395998Y-112859820D01*
X120446839Y-112859820D01*
X119232937Y-114073721D01*
X119393204Y-113687757D01*
X119393596Y-113237817D01*
X119221775Y-112821977D01*
X118903897Y-112503544D01*
X118488357Y-112330996D01*
X118038417Y-112330604D01*
X117622577Y-112502425D01*
X117304144Y-112820303D01*
X117131596Y-113235843D01*
X117131204Y-113685783D01*
X117303025Y-114101623D01*
X117620903Y-114420056D01*
X118036443Y-114592604D01*
X118486383Y-114592996D01*
X118873696Y-114432962D01*
X118569303Y-114737355D01*
X118462957Y-114693196D01*
X118013017Y-114692804D01*
X117904843Y-114737501D01*
X114174413Y-111007071D01*
X114174413Y-109747689D01*
X114374967Y-109881695D01*
X114808000Y-109967831D01*
X115241033Y-109881695D01*
X115608141Y-109636402D01*
X115853434Y-109269294D01*
X115939570Y-108836261D01*
X115939570Y-108079739D01*
X115853434Y-107646706D01*
X115608141Y-107279598D01*
X115241033Y-107034305D01*
X115188216Y-107023799D01*
X116967784Y-107023799D01*
X116914967Y-107034305D01*
X116914967Y-107034305D01*
G37*
X116914967Y-107034305D02*
X116547859Y-107279598D01*
X116302566Y-107646706D01*
X116216430Y-108079739D01*
X116216430Y-108836261D01*
X116302566Y-109269294D01*
X116547859Y-109636402D01*
X116914967Y-109881695D01*
X117348000Y-109967831D01*
X117781033Y-109881695D01*
X118148141Y-109636402D01*
X118393434Y-109269294D01*
X118479570Y-108836261D01*
X118479570Y-108079739D01*
X118411307Y-107736557D01*
X118756430Y-108081681D01*
X118756430Y-108836261D01*
X118842566Y-109269294D01*
X119087859Y-109636402D01*
X119454967Y-109881695D01*
X119486012Y-109887870D01*
X119291501Y-110128183D01*
X119199858Y-110437822D01*
X118903897Y-110141344D01*
X118488357Y-109968796D01*
X118038417Y-109968404D01*
X117622577Y-110140225D01*
X117304144Y-110458103D01*
X117131596Y-110873643D01*
X117131204Y-111323583D01*
X117303025Y-111739423D01*
X117620903Y-112057856D01*
X118036443Y-112230404D01*
X118486383Y-112230796D01*
X118902223Y-112058975D01*
X119188362Y-111773335D01*
X119291501Y-112121817D01*
X119633056Y-112543798D01*
X120110097Y-112802950D01*
X120181725Y-112817133D01*
X120395998Y-112694480D01*
X120395998Y-112859820D01*
X120446839Y-112859820D01*
X119232937Y-114073721D01*
X119393204Y-113687757D01*
X119393596Y-113237817D01*
X119221775Y-112821977D01*
X118903897Y-112503544D01*
X118488357Y-112330996D01*
X118038417Y-112330604D01*
X117622577Y-112502425D01*
X117304144Y-112820303D01*
X117131596Y-113235843D01*
X117131204Y-113685783D01*
X117303025Y-114101623D01*
X117620903Y-114420056D01*
X118036443Y-114592604D01*
X118486383Y-114592996D01*
X118873696Y-114432962D01*
X118569303Y-114737355D01*
X118462957Y-114693196D01*
X118013017Y-114692804D01*
X117904843Y-114737501D01*
X114174413Y-111007071D01*
X114174413Y-109747689D01*
X114374967Y-109881695D01*
X114808000Y-109967831D01*
X115241033Y-109881695D01*
X115608141Y-109636402D01*
X115853434Y-109269294D01*
X115939570Y-108836261D01*
X115939570Y-108079739D01*
X115853434Y-107646706D01*
X115608141Y-107279598D01*
X115241033Y-107034305D01*
X115188216Y-107023799D01*
X116967784Y-107023799D01*
X116914967Y-107034305D01*
G36*
X124780748Y-100950858D02*
X124766605Y-100965000D01*
X125558517Y-101756912D01*
X125799460Y-101688923D01*
X125818151Y-101636404D01*
X126104503Y-101923256D01*
X126520043Y-102095804D01*
X126969983Y-102096196D01*
X127078157Y-102051499D01*
X128371600Y-103344942D01*
X128371600Y-107581652D01*
X128265177Y-107625625D01*
X127946744Y-107943503D01*
X127825414Y-108235696D01*
X127705375Y-107945177D01*
X127387497Y-107626744D01*
X126971957Y-107454196D01*
X126522017Y-107453804D01*
X126106177Y-107625625D01*
X125787744Y-107943503D01*
X125666414Y-108235696D01*
X125546375Y-107945177D01*
X125228497Y-107626744D01*
X124812957Y-107454196D01*
X124363017Y-107453804D01*
X123947177Y-107625625D01*
X123628744Y-107943503D01*
X123559570Y-108110092D01*
X123559570Y-108079739D01*
X123473434Y-107646706D01*
X123228141Y-107279598D01*
X122861033Y-107034305D01*
X122428000Y-106948169D01*
X121994967Y-107034305D01*
X121627859Y-107279598D01*
X121382566Y-107646706D01*
X121296430Y-108079739D01*
X121296430Y-108836261D01*
X121382566Y-109269294D01*
X121627859Y-109636402D01*
X121994967Y-109881695D01*
X122276255Y-109937647D01*
X122262859Y-109946598D01*
X122017566Y-110313706D01*
X121931430Y-110746739D01*
X121931430Y-111375229D01*
X121908570Y-111398089D01*
X121908570Y-111252000D01*
X120650000Y-111252000D01*
X120650000Y-111272000D01*
X120396000Y-111272000D01*
X120396000Y-111252000D01*
X120376000Y-111252000D01*
X120376000Y-110998000D01*
X120396000Y-110998000D01*
X120396000Y-110978000D01*
X120650000Y-110978000D01*
X120650000Y-110998000D01*
X121908570Y-110998000D01*
X121908570Y-110648750D01*
X121754499Y-110128183D01*
X121412944Y-109706202D01*
X120935903Y-109447050D01*
X120864275Y-109432867D01*
X120799279Y-109470072D01*
X120933434Y-109269294D01*
X121019570Y-108836261D01*
X121019570Y-108079739D01*
X120933434Y-107646706D01*
X120688141Y-107279598D01*
X120321033Y-107034305D01*
X119888000Y-106948169D01*
X119841224Y-106957473D01*
X118574299Y-105690549D01*
X118320925Y-105521249D01*
X118022049Y-105461799D01*
X112713100Y-105461799D01*
X112464650Y-105213350D01*
X112211276Y-105044050D01*
X111912400Y-104984600D01*
X109238701Y-104984600D01*
X109029101Y-104775000D01*
X120523000Y-104775000D01*
X120572410Y-104764994D01*
X120612803Y-104737803D01*
X123414089Y-101936517D01*
X123795088Y-101936517D01*
X123863077Y-102177460D01*
X124382171Y-102362201D01*
X124932448Y-102334230D01*
X125310923Y-102177460D01*
X125378912Y-101936517D01*
X124587000Y-101144605D01*
X123795088Y-101936517D01*
X123414089Y-101936517D01*
X123533803Y-101816803D01*
X123561666Y-101774789D01*
X123567786Y-101743453D01*
X123615483Y-101756912D01*
X124407395Y-100965000D01*
X124393253Y-100950858D01*
X124572858Y-100771253D01*
X124587000Y-100785395D01*
X124601143Y-100771253D01*
X124780748Y-100950858D01*
X124780748Y-100950858D01*
G37*
X124780748Y-100950858D02*
X124766605Y-100965000D01*
X125558517Y-101756912D01*
X125799460Y-101688923D01*
X125818151Y-101636404D01*
X126104503Y-101923256D01*
X126520043Y-102095804D01*
X126969983Y-102096196D01*
X127078157Y-102051499D01*
X128371600Y-103344942D01*
X128371600Y-107581652D01*
X128265177Y-107625625D01*
X127946744Y-107943503D01*
X127825414Y-108235696D01*
X127705375Y-107945177D01*
X127387497Y-107626744D01*
X126971957Y-107454196D01*
X126522017Y-107453804D01*
X126106177Y-107625625D01*
X125787744Y-107943503D01*
X125666414Y-108235696D01*
X125546375Y-107945177D01*
X125228497Y-107626744D01*
X124812957Y-107454196D01*
X124363017Y-107453804D01*
X123947177Y-107625625D01*
X123628744Y-107943503D01*
X123559570Y-108110092D01*
X123559570Y-108079739D01*
X123473434Y-107646706D01*
X123228141Y-107279598D01*
X122861033Y-107034305D01*
X122428000Y-106948169D01*
X121994967Y-107034305D01*
X121627859Y-107279598D01*
X121382566Y-107646706D01*
X121296430Y-108079739D01*
X121296430Y-108836261D01*
X121382566Y-109269294D01*
X121627859Y-109636402D01*
X121994967Y-109881695D01*
X122276255Y-109937647D01*
X122262859Y-109946598D01*
X122017566Y-110313706D01*
X121931430Y-110746739D01*
X121931430Y-111375229D01*
X121908570Y-111398089D01*
X121908570Y-111252000D01*
X120650000Y-111252000D01*
X120650000Y-111272000D01*
X120396000Y-111272000D01*
X120396000Y-111252000D01*
X120376000Y-111252000D01*
X120376000Y-110998000D01*
X120396000Y-110998000D01*
X120396000Y-110978000D01*
X120650000Y-110978000D01*
X120650000Y-110998000D01*
X121908570Y-110998000D01*
X121908570Y-110648750D01*
X121754499Y-110128183D01*
X121412944Y-109706202D01*
X120935903Y-109447050D01*
X120864275Y-109432867D01*
X120799279Y-109470072D01*
X120933434Y-109269294D01*
X121019570Y-108836261D01*
X121019570Y-108079739D01*
X120933434Y-107646706D01*
X120688141Y-107279598D01*
X120321033Y-107034305D01*
X119888000Y-106948169D01*
X119841224Y-106957473D01*
X118574299Y-105690549D01*
X118320925Y-105521249D01*
X118022049Y-105461799D01*
X112713100Y-105461799D01*
X112464650Y-105213350D01*
X112211276Y-105044050D01*
X111912400Y-104984600D01*
X109238701Y-104984600D01*
X109029101Y-104775000D01*
X120523000Y-104775000D01*
X120572410Y-104764994D01*
X120612803Y-104737803D01*
X123414089Y-101936517D01*
X123795088Y-101936517D01*
X123863077Y-102177460D01*
X124382171Y-102362201D01*
X124932448Y-102334230D01*
X125310923Y-102177460D01*
X125378912Y-101936517D01*
X124587000Y-101144605D01*
X123795088Y-101936517D01*
X123414089Y-101936517D01*
X123533803Y-101816803D01*
X123561666Y-101774789D01*
X123567786Y-101743453D01*
X123615483Y-101756912D01*
X124407395Y-100965000D01*
X124393253Y-100950858D01*
X124572858Y-100771253D01*
X124587000Y-100785395D01*
X124601143Y-100771253D01*
X124780748Y-100950858D01*
G36*
X107775591Y-105730492D02*
X107429277Y-105873940D01*
X107361288Y-106114883D01*
X108153200Y-106906795D01*
X108167343Y-106892653D01*
X108346948Y-107072258D01*
X108332805Y-107086400D01*
X108346948Y-107100543D01*
X108167343Y-107280148D01*
X108153200Y-107266005D01*
X108139058Y-107280148D01*
X107959453Y-107100543D01*
X107973595Y-107086400D01*
X107181683Y-106294488D01*
X106940740Y-106362477D01*
X106755999Y-106881571D01*
X106783970Y-107431848D01*
X106940740Y-107810323D01*
X107059528Y-107843843D01*
X107024230Y-107867428D01*
X107024228Y-107867431D01*
X106631304Y-108260355D01*
X106524957Y-108216196D01*
X106075017Y-108215804D01*
X105659177Y-108387625D01*
X105340744Y-108705503D01*
X105283071Y-108844393D01*
X105226375Y-108707177D01*
X104908497Y-108388744D01*
X104492957Y-108216196D01*
X104043017Y-108215804D01*
X103627177Y-108387625D01*
X103308744Y-108705503D01*
X103251071Y-108844393D01*
X103194375Y-108707177D01*
X102876497Y-108388744D01*
X102460957Y-108216196D01*
X102011017Y-108215804D01*
X101595177Y-108387625D01*
X101314200Y-108668112D01*
X101314200Y-107904844D01*
X101491456Y-107727897D01*
X101664004Y-107312357D01*
X101664396Y-106862417D01*
X101558696Y-106606604D01*
X102863300Y-105302000D01*
X107347100Y-105302000D01*
X107775591Y-105730492D01*
X107775591Y-105730492D01*
G37*
X107775591Y-105730492D02*
X107429277Y-105873940D01*
X107361288Y-106114883D01*
X108153200Y-106906795D01*
X108167343Y-106892653D01*
X108346948Y-107072258D01*
X108332805Y-107086400D01*
X108346948Y-107100543D01*
X108167343Y-107280148D01*
X108153200Y-107266005D01*
X108139058Y-107280148D01*
X107959453Y-107100543D01*
X107973595Y-107086400D01*
X107181683Y-106294488D01*
X106940740Y-106362477D01*
X106755999Y-106881571D01*
X106783970Y-107431848D01*
X106940740Y-107810323D01*
X107059528Y-107843843D01*
X107024230Y-107867428D01*
X107024228Y-107867431D01*
X106631304Y-108260355D01*
X106524957Y-108216196D01*
X106075017Y-108215804D01*
X105659177Y-108387625D01*
X105340744Y-108705503D01*
X105283071Y-108844393D01*
X105226375Y-108707177D01*
X104908497Y-108388744D01*
X104492957Y-108216196D01*
X104043017Y-108215804D01*
X103627177Y-108387625D01*
X103308744Y-108705503D01*
X103251071Y-108844393D01*
X103194375Y-108707177D01*
X102876497Y-108388744D01*
X102460957Y-108216196D01*
X102011017Y-108215804D01*
X101595177Y-108387625D01*
X101314200Y-108668112D01*
X101314200Y-107904844D01*
X101491456Y-107727897D01*
X101664004Y-107312357D01*
X101664396Y-106862417D01*
X101558696Y-106606604D01*
X102863300Y-105302000D01*
X107347100Y-105302000D01*
X107775591Y-105730492D01*
M02*
